<svg version="1.1" viewBox="0 0 16 16" xmlns="http://www.w3.org/2000/svg">
 <path d="m8 2a6 6 0 0 0-6 6 6 6 0 0 0 6 6 6 6 0 0 0 6-6 6 6 0 0 0-6-6zm2.7913 2.9123c0.20024-0.011025 0.35302 0.1415 0.34173 0.34173l-0.18599 3.5761c-0.0108 0.19975-0.18128 0.37355-0.38105 0.38407v-3e-3c-0.096 0.0077-0.19231-0.019837-0.26159-0.089214l-3.3826-3.3886c-0.067838-0.067928-0.098063-0.1595-0.090725-0.25403v-0.00757c0.010327-0.20022 0.18081-0.371 0.38105-0.38104l3.5625-0.17238 0.01664-0.00608zm-5.3574 1.8765v3e-3c0.096001-0.00772 0.19231 0.01983 0.26159 0.089213l3.3826 3.3886c0.067838 0.06793 0.098078 0.1595 0.090725 0.25403l0.00146 6e-3c-0.010331 0.20022-0.18232 0.371-0.38256 0.38105l-3.561 0.17389-0.018142 3e-3c-0.20023 0.011039-0.35302-0.14149-0.34173-0.34172l0.18603-3.5761c0.0108-0.19975 0.18128-0.37052 0.38105-0.38105z" fill="#bebebe"/>
</svg>
