<svg viewBox="0 0 48 48" xmlns="http://www.w3.org/2000/svg">
 <linearGradient id="a" x1="399.57" x2="399.57" y1="545.8" y2="517.8" gradientUnits="userSpaceOnUse">
  <stop stop-color="#3889e9" offset="0"/>
  <stop stop-color="#5ea5fb" offset="1"/>
 </linearGradient>
 <linearGradient id="b" x1="400.51" x2="400.7" y1="546.07" y2="517.77" gradientUnits="userSpaceOnUse">
  <stop stop-color="#e02d2d" offset="0"/>
  <stop stop-color="#f75151" offset="1"/>
 </linearGradient>
 <g transform="matrix(1.4062 0 0 1.4062 -539.36 -723.85)">
  <circle cx="400.57" cy="531.8" r="0" fill="url(#a)"/>
  <g transform="matrix(1.1175 0 0 1.1175 -47.015 -62.46)">
   <circle cx="400.57" cy="531.8" r="14" fill="url(#b)"/>
   <circle cx="400.57" cy="531.8" r="14" fill="none"/>
  </g>
 </g>
 <path transform="matrix(-1.7283 -.0036686 .0036573 -1.723 725.25 950.66)" d="m412.38917 537.3326c-.40104-.40373-1.05169-.40373-1.45321 0l-4.05675 4.4969-4.05677-4.4969c-.40151-.40373-1.05168-.40373-1.45319 0-.40152.40373-.40152 1.05767 0 1.4614l4.71901 5.23147c.21722.21815.5065.31434.79095.29636.28395.018.57373-.0783.79093-.29636l4.71903-5.23147c.40102-.40373.40102-1.05767 0-1.4614zm-5.51601-4.35143c.93509 0 1.69313-.76131 1.69313-1.70042 0-.93912-.75804-1.70043-1.69313-1.70043s-1.69314.76131-1.69314 1.70043c0 .93911.75805 1.70042 1.69314 1.70042zm0 4.85836c.93509 0 1.69313-.76131 1.69313-1.70043s-.75804-1.70042-1.69313-1.70042-1.69314.7613-1.69314 1.70042.75805 1.70043 1.69314 1.70043z" fill="#fff" fill-opacity=".85081"/>
</svg>
