<?xml version="1.0" encoding="UTF-8" standalone="no"?>
<svg
   width="32"
   height="32"
   version="1.1"
   viewBox="0 0 32 32"
   id="svg78"
   sodipodi:docname="applications-utilities2.svg"
   inkscape:version="1.1.2 (0a00cf5339, 2022-02-04)"
   xmlns:inkscape="http://www.inkscape.org/namespaces/inkscape"
   xmlns:sodipodi="http://sodipodi.sourceforge.net/DTD/sodipodi-0.dtd"
   xmlns:xlink="http://www.w3.org/1999/xlink"
   xmlns="http://www.w3.org/2000/svg"
   xmlns:svg="http://www.w3.org/2000/svg">
  <sodipodi:namedview
     id="namedview80"
     pagecolor="#ffffff"
     bordercolor="#666666"
     borderopacity="1.0"
     inkscape:pageshadow="2"
     inkscape:pageopacity="0.0"
     inkscape:pagecheckerboard="0"
     showgrid="false"
     inkscape:zoom="23.53125"
     inkscape:cx="15.978752"
     inkscape:cy="16"
     inkscape:window-width="1920"
     inkscape:window-height="1020"
     inkscape:window-x="0"
     inkscape:window-y="32"
     inkscape:window-maximized="1"
     inkscape:current-layer="svg78" />
  <defs
     id="defs56">
    <linearGradient
       id="a"
       x2="0"
       y1="532.8"
       y2="527.8"
       gradientUnits="userSpaceOnUse">
      <stop
         stop-color="#ebf1f1"
         offset="0"
         id="stop22" />
      <stop
         stop-color="#fcfcfc"
         offset="1"
         id="stop24" />
    </linearGradient>
    <filter
       id="g"
       x="-0.035999999"
       y="-0.035999999"
       width="1.072"
       height="1.072"
       color-interpolation-filters="sRGB">
      <feGaussianBlur
         stdDeviation="0.45"
         id="feGaussianBlur27" />
    </filter>
    <linearGradient
       id="b"
       x1="16"
       x2="16"
       y1="4"
       y2="11"
       gradientUnits="userSpaceOnUse">
      <stop
         stop-color="#fdfefe"
         offset="0"
         id="stop30" />
      <stop
         stop-color="#dfe4e6"
         offset="1"
         id="stop32" />
    </linearGradient>
    <linearGradient
       id="f"
       x1="16"
       x2="16"
       y1="1"
       y2="31"
       gradientUnits="userSpaceOnUse">
      <stop
         stop-color="#f71252"
         offset="0"
         id="stop35" />
      <stop
         stop-color="#ff5c39"
         offset="1"
         id="stop37" />
    </linearGradient>
    <filter
       id="j"
       x="-0.041250001"
       y="-0.11"
       width="1.0825"
       height="1.22"
       color-interpolation-filters="sRGB">
      <feGaussianBlur
         stdDeviation="0.275"
         id="feGaussianBlur40" />
    </filter>
    <linearGradient
       id="e"
       x1="7.5"
       x2="7.5"
       y1="12"
       y2="17"
       gradientUnits="userSpaceOnUse"
       xlink:href="#a" />
    <linearGradient
       id="d"
       x1="7.5"
       x2="7.5"
       y1="12"
       y2="17"
       gradientTransform="translate(17)"
       gradientUnits="userSpaceOnUse"
       xlink:href="#a" />
    <filter
       id="i"
       x="-0.06"
       y="-0.06"
       width="1.12"
       height="1.12"
       color-interpolation-filters="sRGB">
      <feGaussianBlur
         stdDeviation="0.125"
         id="feGaussianBlur45" />
    </filter>
    <filter
       id="h"
       x="-0.06"
       y="-0.06"
       width="1.12"
       height="1.12"
       color-interpolation-filters="sRGB">
      <feGaussianBlur
         stdDeviation="0.125"
         id="feGaussianBlur48" />
    </filter>
    <radialGradient
       id="c"
       cx="15.851"
       cy="20.863"
       r="13.734"
       gradientTransform="matrix(1 0 0 .32764 0 3.698)"
       gradientUnits="userSpaceOnUse">
      <stop
         stop-opacity=".62745"
         offset="0"
         id="stop51" />
      <stop
         stop-color="#030303"
         stop-opacity="0"
         offset="1"
         id="stop53" />
    </radialGradient>
    <linearGradient
       id="b-3"
       x2="1"
       gradientTransform="matrix(0,-11.357147,11.357147,0,15.999906,24.166376)"
       gradientUnits="userSpaceOnUse">
      <stop
         stop-color="#d3d3d3"
         stop-opacity=".9"
         offset="0"
         id="stop7" />
      <stop
         stop-color="#fcf9f9"
         stop-opacity=".9"
         offset="1"
         id="stop9" />
    </linearGradient>
  </defs>
  <circle
     cx="16"
     cy="16"
     r="15"
     fill-rule="evenodd"
     filter="url(#g)"
     opacity=".25"
     style="paint-order:fill markers stroke"
     id="circle58" />
  <circle
     cx="16"
     cy="16"
     r="15"
     fill="url(#f)"
     fill-rule="evenodd"
     style="paint-order:fill markers stroke"
     id="circle60" />
  <path
     d="m 20.710869,23.714118 -3.438472,-3.438873 c -0.03235,-0.03235 -0.06671,-0.06111 -0.10226,-0.08788 l 0.609162,-0.641119 c 0.03116,-0.03156 0.06072,-0.06471 0.08788,-0.09826 0.808488,0.304781 1.757184,0.133417 2.407091,-0.51649 0.473749,-0.474148 0.71302,-1.129646 0.655099,-1.799126 -0.0064,-0.0755 -0.05632,-0.141006 -0.127824,-0.166971 -0.0715,-0.02597 -0.151392,-0.0084 -0.205318,0.04554 l -1.102085,1.101686 -1.115666,-0.281213 -0.316365,-1.150819 1.101685,-1.102084 c 0.05393,-0.05393 0.0715,-0.133817 0.04554,-0.205318 -0.02597,-0.0715 -0.09147,-0.121433 -0.167369,-0.128224 -0.669081,-0.05752 -1.32458,0.181351 -1.799127,0.655499 -0.649108,0.649507 -0.820872,1.597803 -0.51649,2.405892 -0.03315,0.02796 -0.06591,0.05792 -0.09826,0.08948 l -0.896367,0.861215 -1.646138,-1.646137 c -0.02077,-0.02037 -0.04234,-0.03875 -0.06511,-0.05553 0.01917,-0.03395 0.03795,-0.0691 0.05553,-0.105056 0.347922,0.06671 0.983449,-0.610361 1.523107,-1.149619 l -1.572638,-1.572638 c -0.703034,0.703033 -1.216328,1.175184 -1.15002,1.522706 -0.160579,0.07869 -0.303981,0.174561 -0.405841,0.276421 l -0.221296,0.221695 c -0.143802,0.143802 -0.230483,0.323155 -0.26164,0.509699 -0.02157,0.02437 -0.04314,0.05033 -0.06511,0.07789 l -0.08229,0.103857 c -0.0024,0.0024 -0.0096,0.01278 -0.01158,0.01518 l -0.0747,0.105055 c -0.04674,0.06231 -0.08788,0.130222 -0.127425,0.195731 -0.01438,0.02397 -0.02956,0.04833 -0.04474,0.0727 -0.0024,0.0044 -0.0048,0.0084 -0.0068,0.01238 l -0.03315,0.06271 c -0.04035,0.0755 -0.08189,0.15339 -0.117439,0.239272 l -0.006,0.01358 c -0.04194,0.09986 -0.08548,0.203321 -0.116238,0.313169 l -0.01438,0.04753 c -0.01238,0.03915 -0.02437,0.07789 -0.03555,0.12423 l -0.03076,0.151391 c -0.02277,0.09467 -0.03036,0.188142 -0.03715,0.270828 l -0.0044,0.05433 c -0.01119,0.08588 -0.008,0.166571 -0.0048,0.238073 8e-4,0.02357 0.002,0.04713 0.0024,0.07869 8e-4,0.01318 0.0012,0.02597 0.0016,0.03875 8e-4,0.03195 0.0016,0.06791 0.0076,0.106254 l 0.01917,0.12263 c 0.0044,0.02397 0.0076,0.04673 0.01079,0.06911 0.0076,0.04993 0.01518,0.101461 0.02996,0.150194 l 0.08029,0.279216 c 0.02477,0.08468 0.105455,0.141006 0.193734,0.135014 0.04674,-0.0036 0.08868,-0.02357 0.119835,-0.05473 0.02796,-0.02796 0.04714,-0.06471 0.05313,-0.106254 l 0.04154,-0.28361 c 0.0032,-0.02237 0.01278,-0.05553 0.02277,-0.09028 0.0072,-0.02437 0.01398,-0.04913 0.01957,-0.0699 l 0.02956,-0.106254 c 0.0036,-0.01398 0.01079,-0.02796 0.01678,-0.04234 0.006,-0.01358 0.01158,-0.02716 0.01718,-0.04075 0.01,-0.02237 0.01917,-0.04474 0.02836,-0.06791 0.01837,-0.04514 0.03555,-0.08788 0.06191,-0.129821 0.01158,-0.01917 0.02197,-0.03835 0.03316,-0.05792 0.02756,-0.04953 0.05353,-0.09587 0.08468,-0.134216 0.0016,-0.0024 0.0036,-0.0048 0.0056,-0.0076 l 0.0699,-0.09667 c 0.01438,-0.01797 0.03036,-0.03515 0.04634,-0.05233 0.01079,-0.01238 0.02197,-0.02437 0.03595,-0.04075 0.04154,-0.04953 0.08988,-0.09307 0.136612,-0.135414 l 0.02517,-0.02277 c 0.03475,-0.03195 0.0751,-0.06231 0.11704,-0.09427 0.01717,-0.01318 0.03435,-0.02597 0.05073,-0.03835 0.02157,-0.01398 0.04194,-0.02756 0.06231,-0.04154 0.03835,-0.02557 0.0711,-0.04793 0.109449,-0.06791 l 0.08269,-0.04713 0.08388,-0.04114 c 0.02956,-0.01518 0.05832,-0.02676 0.08468,-0.03755 0.01598,-0.0064 0.03156,-0.01278 0.04594,-0.01917 0.01478,-0.0048 0.02876,-0.01039 0.04234,-0.01558 0.01797,-0.0064 0.03355,-0.01278 0.05473,-0.01797 l 0.02237,-0.0052 c 0.02477,0.03995 0.05393,0.07789 0.08828,0.112645 l 1.628561,1.628162 -3.476021,3.33861 c -0.0016,0.0012 -0.0028,0.0028 -0.004,0.004 -0.432606,0.432605 -0.502909,1.066134 -0.0703,1.49874 0.432605,0.432604 1.025789,0.321557 1.457995,-0.110648 l 0.0056,-0.0056 3.066185,-3.228761 c 0.01797,0.02117 0.03595,0.04234 0.05593,0.06231 l 3.438473,3.438873 c 0.385071,0.38547 1.010212,0.38547 1.395282,0 0.38547,-0.385471 0.38547,-1.010212 0,-1.395282 z m -8.410038,0.771739 c -0.15938,0.159381 -0.417426,0.159381 -0.576807,0 -0.15938,-0.159381 -0.15938,-0.417426 0,-0.576808 0.158982,-0.159381 0.417427,-0.159381 0.576807,0 0.158982,0.159382 0.158982,0.417427 0,0.576808 z"
     fill="url(#b)"
     fill-rule="nonzero"
     id="path14"
     style="fill:url(#b-3);stroke-width:0.399451" />
  <g
     stroke-linecap="square"
     stroke-width=".1"
     id="g66">
    <path
       d="m11 4c-1.662 0-3 1.338-3 3v3h2v-3c0-0.55401 0.44598-1 1-1h10c0.55402 0 1 0.44599 1 1v3h2v-3c0-1.662-1.338-3-3-3h-10z"
       filter="url(#j)"
       opacity=".25"
       id="path62" />
    <path
       d="m11 4c-1.662 0-3 1.338-3 3v3h2v-3c0-0.55401 0.44598-1 1-1h10c0.55402 0 1 0.44599 1 1v3h2v-3c0-1.662-1.338-3-3-3h-10z"
       fill="url(#b)"
       id="path64" />
  </g>
  <path
     d="m7.5 12a2.5 2.5 0 0 0-2.5 2.5 2.5 2.5 0 0 0 2.5 2.5 2.5 2.5 0 0 0 2.5-2.5 2.5 2.5 0 0 0-2.5-2.5zm0 1a1.5 1.5 0 0 1 1.5 1.5 1.5 1.5 0 0 1-1.5 1.5 1.5 1.5 0 0 1-1.5-1.5 1.5 1.5 0 0 1 1.5-1.5z"
     fill-rule="evenodd"
     filter="url(#i)"
     opacity=".25"
     style="paint-order:normal"
     id="path68" />
  <path
     d="m7.5 12a2.5 2.5 0 0 0-2.5 2.5 2.5 2.5 0 0 0 2.5 2.5 2.5 2.5 0 0 0 2.5-2.5 2.5 2.5 0 0 0-2.5-2.5zm0 1a1.5 1.5 0 0 1 1.5 1.5 1.5 1.5 0 0 1-1.5 1.5 1.5 1.5 0 0 1-1.5-1.5 1.5 1.5 0 0 1 1.5-1.5z"
     fill="url(#e)"
     fill-rule="evenodd"
     style="paint-order:normal"
     id="path70" />
  <path
     d="m24.5 12a2.5 2.5 0 0 0-2.5 2.5 2.5 2.5 0 0 0 2.5 2.5 2.5 2.5 0 0 0 2.5-2.5 2.5 2.5 0 0 0-2.5-2.5zm0 1a1.5 1.5 0 0 1 1.5 1.5 1.5 1.5 0 0 1-1.5 1.5 1.5 1.5 0 0 1-1.5-1.5 1.5 1.5 0 0 1 1.5-1.5z"
     fill-rule="evenodd"
     filter="url(#h)"
     opacity=".25"
     style="paint-order:normal"
     id="path72" />
  <path
     d="m24.5 12a2.5 2.5 0 0 0-2.5 2.5 2.5 2.5 0 0 0 2.5 2.5 2.5 2.5 0 0 0 2.5-2.5 2.5 2.5 0 0 0-2.5-2.5zm0 1a1.5 1.5 0 0 1 1.5 1.5 1.5 1.5 0 0 1-1.5 1.5 1.5 1.5 0 0 1-1.5-1.5 1.5 1.5 0 0 1 1.5-1.5z"
     fill="url(#d)"
     fill-rule="evenodd"
     style="paint-order:normal"
     id="path74" />
  <path
     d="m16 1a15 15 0 0 0-13.74 9h27.469a15 15 0 0 0-13.729-9z"
     fill="url(#c)"
     opacity=".35"
     style="paint-order:fill markers stroke"
     id="path76" />
</svg>
