<svg viewBox="0 0 48 48" xmlns="http://www.w3.org/2000/svg" xmlns:xlink="http://www.w3.org/1999/xlink">
 <linearGradient id="a">
  <stop stop-color="#b3b3b3" offset="0"/>
  <stop stop-color="#f2f2f2" offset="1"/>
 </linearGradient>
 <linearGradient id="b" x1="23.266" x2="23.201" y1="23.631" y2="4.5694" gradientUnits="userSpaceOnUse" xlink:href="#a"/>
 <linearGradient id="c" x1="34.851" x2="34.901" y1="33.55" y2="29.518" gradientUnits="userSpaceOnUse" xlink:href="#a"/>
 <linearGradient id="d" x1="30.335" x2="30.287" y1="39.453" y2="33.955" gradientUnits="userSpaceOnUse" xlink:href="#a"/>
 <radialGradient id="e" cx="14.831" cy="33.775" r="3.4896" gradientTransform="matrix(.48585 .020093 -.021238 .51353 8.5436 14.999)" gradientUnits="userSpaceOnUse" xlink:href="#a"/>
 <linearGradient id="f" x1="23.904" x2="24.027" y1="44.894" y2="2.3344" gradientUnits="userSpaceOnUse">
  <stop stop-color="#00d455" offset="0"/>
  <stop stop-color="#0f6" offset="1"/>
 </linearGradient>
 <linearGradient id="g" x1="-63.232" x2="-63.232" y1="92.111" y2="45.603" gradientUnits="userSpaceOnUse">
  <stop stop-color="#3889e9" offset="0"/>
  <stop stop-color="#5ea5fb" offset="1"/>
 </linearGradient>
 <linearGradient id="h" x1="24.001" x2="24.001" y1="4.6657" y2="5.4516" gradientUnits="userSpaceOnUse" spreadMethod="repeat">
  <stop stop-color="#333" stop-opacity=".8" offset="0"/>
  <stop stop-color="#333" stop-opacity="0" offset="1"/>
 </linearGradient>
 <path d="m10.144 2.9996h27.711c1.2282 0 2.2169 0.98874 2.2169 2.2169v39.113c0 1.2282-0.98874 2.2169-2.2169 2.2169h-27.711c-1.2282 0-2.2169-0.98874-2.2169-2.2169v-39.113c0-1.2282 0.98874-2.2169 2.2169-2.2169z" fill-opacity=".54902"/>
 <path d="m10.144 2h27.711c1.2282 0 2.2169 0.98874 2.2169 2.2169v39.113c0 1.2282-0.98874 2.2169-2.2169 2.2169h-27.711c-1.2282 0-2.2169-0.98874-2.2169-2.2169v-39.113c0-1.2282 0.98874-2.2169 2.2169-2.2169z" fill="url(#f)"/>
 <path d="m11.382 4.0122h25.101c0.7605 0 1.3727 0.66862 1.3727 1.4992v17.133c0 0.83053-0.61224 1.4992-1.3727 1.4992h-25.101c-0.76049 0-1.3727-0.66862-1.3727-1.4992v-17.133c0-0.83053 0.61224-1.4992 1.3727-1.4992z" fill-opacity=".35294"/>
 <path d="m11.931 4.6784h23.98c0.72652 0 1.3114 0.62585 1.3114 1.4033v16.037c0 0.7774-0.58489 1.4033-1.3114 1.4033h-23.98c-0.72652 0-1.3114-0.62585-1.3114-1.4033v-16.037c0-0.7774 0.58489-1.4033 1.3114-1.4033z" fill="url(#b)"/>
 <path d="m19.452 32.739a4.4338 4.4338 0 0 1-4.4338 4.4338 4.4338 4.4338 0 0 1-4.4338-4.4338 4.4338 4.4338 0 0 1 4.4338-4.4338 4.4338 4.4338 0 0 1 4.4338 4.4338z" fill-opacity=".35294"/>
 <path d="m14.032 29.475c-0.1559 0-0.28306 0.12441-0.28306 0.28031v1.6846h-1.6022c-0.1559 0-0.28031 0.12441-0.28031 0.28031v1.9704c0 0.1559 0.12441 0.28031 0.28031 0.28031h1.6022v1.5527c0 0.1559 0.12715 0.28306 0.28306 0.28306h1.9677c0.1559 0 0.28306-0.12716 0.28306-0.28306v-1.5527h1.6324c0.1559 0 0.28306-0.12441 0.28306-0.28031v-1.9704c0-0.1559-0.12715-0.28031-0.28306-0.28031h-1.6324v-1.6846c-2e-6 -0.1559-0.12716-0.28031-0.28306-0.28031z" fill="url(#e)"/>
 <path d="m36.825 31.626a1.9952 1.9952 0 0 1-1.9952 1.9952 1.9952 1.9952 0 0 1-1.9952-1.9952 1.9952 1.9952 0 0 1 1.9952-1.9952 1.9952 1.9952 0 0 1 1.9952 1.9952z" fill="url(#c)"/>
 <path d="m33.128 36.704a2.7711 2.7711 0 0 1-2.7711 2.7711 2.7711 2.7711 0 0 1-2.7711-2.7711 2.7711 2.7711 0 0 1 2.7711-2.7711 2.7711 2.7711 0 0 1 2.7711 2.7711z" fill="url(#d)"/>
 <path d="m18.457031 7.5996094c-.110392-.000196-.136719.0944903-.136719.2050781v1.2011719c-.000032.1103595.026297.1933594.136719.1933594h1.210938c.110392 0 .200002-.0849202.199219-.1953126-.0032-.4-.003707-.8029288-.003907-1.203125 0-.1103921-.090586-.2011718-.201172-.2011718zm9.72461 0c-.11036 0-.261719.0926997-.261719.203125v1.2109375c0 .1103921.120044.1982468.230469.1972656.4-.0032.787303-.0037063 1.1875-.0039063.110555 0 .183593-.0888266.183593-.1992187v-1.2070313c0-.1103921-.028315-.2011718-.138672-.2011718zm-8.074219 1.609375c-.110817-.0007844-.1875.086873-.1875.1972656v1.238281c0 .110621-.141365.15625-.251953.15625h-1.228516c-.110392 0-.119141.133749-.119141.244141v1.222656c0 .110589-.170857.132813-.28125.132813h-1.222656c-.110392 0-.294922.156989-.294922.267578v1.222656c0 .110392.004924.109375-.105468.109375h-1.205078c-.110392 0-.291016.180624-.291016.291016v4.435546c0 .110621.180591.273438.291016.273438h1.203124c.110393 0 .107422-.163045.107422-.273438v-2.822265c0-.110621.182544-.103516.292969-.103516h1.236328c.110392 0 .269532-.006879.269531.103516v2.839844c0 .110392.05539.201171.166016.201171.410392 0 .825507-.001058 1.220703.001954.110392.001.212891-.086839.212891-.197266v-1.21875c0-.110425.026127-.130859.136719-.130859h7.730468c.110425 0 .199219.053666.199219.164062 0 .410425-.000694.825001-.003906 1.224609-.000817.110588.086838.210938.197266.210938h1.21875c.110163 0 .123046-.145467.123046-.255859v-2.837891c0-.110425.166788-.105469.277344-.105469h1.242188c.11036 0 .279296-.004936.279296.105469v2.820312c0 .110393.010671.273438.121094.273438h1.189453c.110424 0 .289063-.163012.289063-.273438v-4.443359c.000065-.110555-.178704-.283203-.289063-.283203h-1.214843c-.110425 0-.294922-.006794-.294922-.117188v-1.226562c0-.110392.004993-.255859-.105469-.255859h-1.222656c-.110621 0-.271485-.034134-.271485-.144532v-1.220703c0-.110588-.016523-.234375-.126953-.234375h-1.21875c-.110425 0-.255859-.055622-.255859-.166015v-1.228516c0-.1103921-.061519-.198246-.171875-.1972656-.399052.0032-.806454.0039062-1.220703.0039062-.110359 0-.207031.0888268-.207032.1992188v1.2167966c-.000195.110784-.049565.171875-.160156.171875h-4.488281c-.110392 0-.150391-.061488-.150391-.171875v-1.2167966c0-.1103921-.114217-.2011719-.224609-.2011719-.410196 0-.794453.0012448-1.189453-.0019531zm-.042969 3.1914066h1.220703c.110392 0 .236328.143285.236328.253906-.000033.406568 0 .809371 0 1.21875 0 .110425-.125936.126953-.236328.126953h-1.222656c-.110589 0-.142578-.01464-.142578-.125v-1.220703c0-.110392.033911-.253906.144531-.253906zm6.492188 0h1.220703c.11036 0 .142578.145434.142578.255859v1.220703c0 .110393-.032217.123047-.142578.123047h-1.220703c-.11062 0-.236328-.012422-.236329-.123047v-1.220703c0-.110197.125905-.255859.236329-.255859zm-6.496094 6.550781c-.110392-.000392-.202185.088595-.201172.199219.0032.399968.003706.826366.003906 1.226562 0 .110392.08879.222656.199219.222656h2.828125c.110392-.000196.230469-.135701.230469-.246093v-1.195313c0-.110621-.104451-.199448-.214844-.199219-.30098.000196-.604378.000817-.900391 0-.647222-.002-1.298123-.005212-1.945312-.007812zm7.796875.003906c-.03101.0024-.048478.023438-.080078.023438-.952255.000588-1.889607.021484-2.841797.021484h-.089844c-.04997 0-.125.047815-.125.158203v1.197266c0 .110392.123787.24414.234375.24414h2.826172c.110425 0 .138672-.133748.138672-.24414v-1.210938c.000032-.110392-.01028-.193472-.0625-.189453z" fill-opacity=".66667" stroke-width=".03268"/>
 <circle cx="-61.571" cy="68.857" r="0" fill="url(#g)"/>
 <path d="m12.01 4.6784h23.98c0.72652 0 1.3114 0.62585 1.3114 1.4033v16.037c0 0.7774-0.58489 1.4033-1.3114 1.4033h-23.98c-0.72652 0-1.3114-0.62585-1.3114-1.4033v-16.037c0-0.7774 0.58489-1.4033 1.3114-1.4033z" fill="url(#h)" fill-rule="evenodd" opacity=".2"/>
</svg>
