<svg clip-rule="evenodd" fill-rule="evenodd" stroke-linejoin="round" stroke-miterlimit="2" viewBox="0 0 48 48" xmlns="http://www.w3.org/2000/svg">
 <linearGradient id="a" x2="1" gradientTransform="matrix(0 -33.687 33.687 0 923.28 40.45)" gradientUnits="userSpaceOnUse">
  <stop stop-color="#c6570c" offset="0"/>
  <stop stop-color="#f58a10" offset="1"/>
 </linearGradient>
 <path d="m39.44 45.668h-30.88c-3.438 0-6.228-2.79-6.228-6.228v-30.88c0-3.438 2.79-6.228 6.228-6.228h30.88c3.438 0 6.228 2.79 6.228 6.228v30.88c0 3.438-2.79 6.228-6.228 6.228z" fill="url(#a)"/>
 <path d="m6.7494 6.7494h34.501v34.501h-34.501z" fill="#f2f1c7" fill-rule="nonzero" stroke-width="1.0782"/>
 <g transform="matrix(1.0782 0 0 1.0782 -1.8759 -1.8759)">
  <path d="m10.659 15.049c18.826-1.281 30.342 5.799 19.926 23.798.703-2.406.337-7.978-3.438-14.799-2.918-5.273-16.488-8.999-16.488-8.999z" fill="#1595ff"/>
  <path d="m11.684 11.854c18.362-1.724 29.442 6.19 18.95 26.865.732-2.754.482-9.105-3.063-16.831-2.742-5.974-15.887-10.034-15.887-10.034z" fill="#38b7ff"/>
  <path d="m14.692 9c20.757 2.105 31.547 12.074 15.87 30 1.347-2.524 2.3-8.746-.145-16.981-1.891-6.368-15.725-13.019-15.725-13.019z" fill="#6be3ff"/>
 </g>
 <circle cx="35.321" cy="28.852" r="1.6172" fill="#fff" stroke-width="1.0782"/>
 <circle cx="32.625" cy="33.703" r="1.0782" fill="#fff" stroke-width="1.0782"/>
 <path transform="matrix(.89724 .59782 -.60279 .89392 -1.8759 -1.8759)" d="m35.01-10.15h3.836v14.442h-3.836z" fill="#ffc60a"/>
 <path transform="matrix(.89769 .59716 -.60176 .89461 -1.8759 -1.8759)" d="m34.55 6.07h4.509v3.752h-4.509z" fill="#835d1a"/>
 <path transform="matrix(1.0782 0 0 1.0782 -1.8759 -1.8759)" d="m21.974 28.435c-4.714 3.962-9.831 2.95-9.831 2.95l-3.143-.441s1.672 2.908 3.681 4.667c2.559 2.24 6.334 3.873 10.101.308 3.322-3.143 3.502-4.578 3.502-4.578z" fill="#1dadff"/>
</svg>
