<svg viewBox="0 0 48 48" xmlns="http://www.w3.org/2000/svg">
 <linearGradient id="a" x1="3.3645" x2="36.074" y1="1046.2" y2="1007.7" gradientUnits="userSpaceOnUse">
  <stop stop-color="#235ea2" offset="0"/>
  <stop stop-color="#1992f1" offset="1"/>
 </linearGradient>
 <linearGradient id="b" x1="400.57" x2="400.79" y1="545.8" y2="517.63" gradientUnits="userSpaceOnUse">
  <stop stop-color="#69159f" offset="0"/>
  <stop stop-color="#b92ff5" offset="1"/>
 </linearGradient>
 <g transform="matrix(1.7143 0 0 1.7143 -662.71 -887.56)" stroke-width="1.3">
  <circle cx="400.57" cy="531.8" r="14" fill="url(#a)"/>
  <circle cx="400.57" cy="531.8" r="14" fill="url(#b)"/>
  <circle cx="400.57" cy="531.8" r="0" fill="url(#a)"/>
 </g>
 <g transform="matrix(1.0677 0 0 1.0677 -432.87 -521.07)" fill="#fff" fill-opacity=".85185">
  <path d="m416.51 503.96c-3.645 3.6552-5.648 8.5304-5.6378 13.736 0.0152 10.859 8.147 15.806 18.132 15.3l0.11973-0.10815c-8.8456 0-14.861-6.3206-14.876-15.202-5e-3 -4.3008 1.642-8.3275 4.6516-11.342 3.0248-3.0299 7.0816-4.7024 11.423-4.7024v-3.3756c-5.2464 0-10.147 2.0233-13.812 5.6937"/>
  <path d="m426.59 503.35c-3.8839 1.0472-7.0867 3.4823-9.0185 6.8579-4.0568 7.0918-1.9013 15.749 5.1244 20.584 5.4 4.7426 14.714 0.67754 16.839-1.0838-0.17793 0.0457-5.7516 4.6019-14.923-1.6968-5.5463-3.8128-7.2748-10.594-4.1076-16.125 1.4844-2.5876 3.9551-4.4635 6.9647-5.2718 3.0858-0.83373 6.2784-0.42703 8.993 1.1387l1.6878-2.9282c-3.4976-2.0182-7.6052-2.5418-11.56-1.4743"/>
  <path d="m425.7 508.97c-3.3705 1.947-5.2565 5.4904-5.2565 9.1303 0 1.6878 0.42195 3.3908 1.2709 4.9668l-0.0102 0.0102c0 5e-3 0.0305 0.0559 0.0407 0.0763h-5e-3s0.0203 0.0305 0.0356 0.0559c0.0203 0.0407 0.0712 0.13218 0.0763 0.13726 0.5287 0.90998 2.5673 3.9754 7.0358 5.6022 5.4161 1.9768 7.2393 1.8284 9.7687 1.3761 2.7532-1.5732 4.2276-2.9752 4.2276-2.9752-2.8968 0.31368-7.0028 0.55615-12.842-1.5732-3.5179-1.2811-4.9871-3.6196-5.2565-4.1025s-0.0102-0.0153-0.0102-0.0203c-0.64563-1.1235-0.95574-2.3487-0.95574-3.5586 0-2.4707 1.2811-4.8753 3.5688-6.2021 1.6522-0.95065 3.5789-1.2048 5.4243-0.71171 1.8403 0.49311 3.3806 1.6776 4.3364 3.3298l2.979-1.5861-0.0559-0.10167c-1.4031-2.4351-3.6704-4.1737-6.3851-4.9058-2.7147-0.72697-5.5514-0.35078-7.9865 1.0523"/>
 </g>
</svg>
