<?xml version="1.0" encoding="UTF-8" standalone="no"?>
<svg
   enable-background="new 0 0 1024 1024"
   image-rendering="optimizeSpeed"
   version="1.1"
   viewBox="0 0 128 128"
   id="svg71"
   sodipodi:docname="calc.svg"
   inkscape:version="1.1.2 (0a00cf5339, 2022-02-04)"
   xmlns:inkscape="http://www.inkscape.org/namespaces/inkscape"
   xmlns:sodipodi="http://sodipodi.sourceforge.net/DTD/sodipodi-0.dtd"
   xmlns="http://www.w3.org/2000/svg"
   xmlns:svg="http://www.w3.org/2000/svg">
  <sodipodi:namedview
     id="namedview73"
     pagecolor="#ffffff"
     bordercolor="#666666"
     borderopacity="1.0"
     inkscape:pageshadow="2"
     inkscape:pageopacity="0.0"
     inkscape:pagecheckerboard="0"
     showgrid="false"
     inkscape:zoom="5.8125"
     inkscape:cx="64"
     inkscape:cy="64"
     inkscape:window-width="1904"
     inkscape:window-height="1011"
     inkscape:window-x="0"
     inkscape:window-y="32"
     inkscape:window-maximized="1"
     inkscape:current-layer="svg71" />
  <defs
     id="defs39">
    <linearGradient
       id="b"
       x1="520"
       x2="520.03"
       y1="4"
       y2="1026"
       gradientTransform="matrix(0.10936562,0,0,0.10936946,8.0041999,8.0002846)"
       gradientUnits="userSpaceOnUse">
      <stop
         stop-color="#fb8c21"
         offset="0"
         id="stop2" />
      <stop
         stop-color="#f15f19"
         offset="1"
         id="stop4" />
    </linearGradient>
    <filter
       id="e"
       x="-0.018"
       y="-0.018"
       width="1.036"
       height="1.0435"
       color-interpolation-filters="sRGB">
      <feFlood
         flood-color="rgb(0,0,0)"
         flood-opacity=".29412"
         result="flood"
         id="feFlood7" />
      <feComposite
         in="flood"
         in2="SourceGraphic"
         operator="in"
         result="composite1"
         id="feComposite9" />
      <feGaussianBlur
         in="composite1"
         result="blur"
         stdDeviation="3"
         id="feGaussianBlur11" />
      <feOffset
         dx="0"
         dy="3"
         result="offset"
         id="feOffset13" />
      <feComposite
         in="SourceGraphic"
         in2="offset"
         result="composite2"
         id="feComposite15" />
    </filter>
    <filter
       id="d"
       x="-0.014875972"
       y="-0.014637955"
       width="1.0297519"
       height="1.0353751"
       color-interpolation-filters="sRGB">
      <feFlood
         flood-color="rgb(0,0,0)"
         flood-opacity=".29412"
         result="flood"
         id="feFlood18" />
      <feComposite
         in="flood"
         in2="SourceGraphic"
         operator="in"
         result="composite1"
         id="feComposite20" />
      <feGaussianBlur
         in="composite1"
         result="blur"
         stdDeviation="3"
         id="feGaussianBlur22" />
      <feOffset
         dx="0"
         dy="3"
         result="offset"
         id="feOffset24" />
      <feComposite
         in="SourceGraphic"
         in2="offset"
         result="composite2"
         id="feComposite26" />
    </filter>
    <linearGradient
       id="a"
       x1="102.3"
       x2="102.3"
       y1="-.42687"
       y2="199.17"
       gradientTransform="matrix(2,0,0,2,483.69,484.09)"
       gradientUnits="userSpaceOnUse">
      <stop
         stop-color="#fff"
         offset="0"
         id="stop29" />
      <stop
         stop-color="#ccc"
         offset="1"
         id="stop31" />
    </linearGradient>
    <linearGradient
       id="c"
       x1="540.14"
       x2="540.14"
       y1="29.77"
       y2="1055"
       gradientTransform="matrix(0.11370544,0,0,0.11370943,5.7870887,2.5581117)"
       gradientUnits="userSpaceOnUse">
      <stop
         stop-color="#fff"
         stop-opacity=".58824"
         offset="0"
         id="stop34" />
      <stop
         stop-color="#fff"
         stop-opacity="0"
         offset="1"
         id="stop36" />
    </linearGradient>
  </defs>
  <path
     d="m 115.91988,42.561113 q -1.02026,-2.473688 -2.30161,-4.846576 c -0.48048,-0.895756 -0.99063,-1.785591 -1.53044,-2.657587 -2.31941,-3.760981 -5.149,-7.314363 -8.48866,-10.653947 C 92.666607,13.470058 79.462136,8.0000846 63.997756,8.0000846 c -15.46438,0 -28.662851,5.4694734 -39.595413,16.4029184 C 13.469781,35.336449 8,48.534883 8,63.999806 c 0,15.464923 5.469281,28.669857 16.402343,39.602794 10.932562,10.93295 24.131033,16.39692 39.595413,16.39692 15.46438,0 28.668851,-5.46357 39.601414,-16.39692 6.02096,-6.027061 10.38658,-12.741928 13.09147,-20.139891 2.20082,-6.03297 3.30407,-12.516938 3.30407,-19.463903 0,-5.327074 -0.64658,-10.386948 -1.94572,-15.180924 -0.1483,-0.539828 -0.30253,-1.079695 -0.46269,-1.613592 -0.48642,-1.577993 -1.04406,-3.126285 -1.66693,-4.644877 z"
     fill="url(#b)"
     stroke-width="0.118638"
     id="path41"
     style="fill:url(#b)" />
  <ellipse
     cx="64.001961"
     cy="64"
     color="#000000"
     enable-background="accumulate"
     fill="none"
     stroke="url(#c)"
     stroke-width="0.568558"
     id="circle43"
     style="stroke:url(#c)"
     rx="55.713768"
     ry="55.715721" />
  <circle
     transform="matrix(0.11428542,0,0,0.11428943,5.4900006,5.4859971)"
     cx="683.69"
     cy="684.09003"
     r="200"
     color="#000000"
     enable-background="accumulate"
     fill="url(#a)"
     filter="url(#e)"
     id="circle45"
     style="fill:url(#a)" />
  <g
     transform="matrix(0.11428542,0,0,0.11428943,5.4900006,5.4859971)"
     filter="url(#d)"
     id="g69">
    <path
       d="M 740,724 H 616.57 c -5.6777,0 -10.286,-4.5977 -10.286,-10.286 0,-5.6883 4.608,-10.286 10.286,-10.286 H 740 c 5.6777,0 10.286,4.5977 10.286,10.286 0,5.6883 -4.608,10.286 -10.286,10.286 z"
       stroke-width="10.286"
       id="path47" />
    <path
       d="M 740,662.29 H 616.57 c -5.6777,0 -10.286,-4.5977 -10.286,-10.286 0,-5.6883 4.608,-10.286 10.286,-10.286 H 740 c 5.6777,0 10.286,4.5977 10.286,10.286 0,5.6883 -4.608,10.286 -10.286,10.286 z"
       stroke-width="10.286"
       id="path49" />
    <g
       fill="#ffffff"
       stroke-width="9.9162"
       id="g59">
      <path
         d="m 340,704 c -2.5386,0 -5.0771,-0.97179 -7.0108,-2.9055 -3.8772,-3.8772 -3.8772,-10.144 0,-14.022 l 49.581,-49.581 c 3.8773,-3.8773 10.144,-3.8773 14.022,0 3.8772,3.8772 3.8772,10.144 0,14.022 l -49.581,49.581 C 345.0775,703.0282 342.539,704 340.0004,704 Z"
         id="path51" />
      <path
         d="m 290.42,753.58 c -2.5386,0 -5.0771,-0.97179 -7.0108,-2.9055 -3.8772,-3.8772 -3.8772,-10.144 0,-14.022 l 49.581,-49.581 c 3.8772,-3.8773 10.144,-3.8773 14.022,0 3.8772,3.8772 3.8772,10.144 0,14.022 l -49.581,49.581 c -1.9337,1.9337 -4.4722,2.9055 -7.0108,2.9055 z"
         id="path53" />
      <path
         d="m 389.58,753.58 c -2.5386,0 -5.0771,-0.97179 -7.0108,-2.9055 l -49.581,-49.581 c -3.8772,-3.8772 -3.8772,-10.144 0,-14.022 3.8772,-3.8773 10.144,-3.8773 14.022,0 l 49.581,49.581 c 3.8772,3.8773 3.8772,10.144 0,14.022 -1.9337,1.9337 -4.4722,2.9055 -7.0108,2.9055 z"
         id="path55" />
      <path
         d="m 340,704 c -2.5386,0 -5.0771,-0.97179 -7.0108,-2.9055 l -49.581,-49.581 c -3.8772,-3.8772 -3.8772,-10.144 0,-14.022 3.8773,-3.8773 10.144,-3.8773 14.022,0 l 49.581,49.581 c 3.8772,3.8772 3.8772,10.144 0,14.022 -1.9337,1.9337 -4.4722,2.9055 -7.0108,2.9055 z"
         id="path57" />
    </g>
    <g
       stroke-width="10.286"
       id="g67">
      <path
         d="M 400,344 H 276.57 c -5.6777,0 -10.286,-4.5977 -10.286,-10.286 0,-5.6883 4.608,-10.286 10.286,-10.286 H 400 c 5.6777,0 10.286,4.5977 10.286,10.286 0,5.6883 -4.608,10.286 -10.286,10.286 z"
         fill="#f1f1f1"
         id="path61" />
      <path
         d="m 338.29,405.71 c -5.6777,0 -10.286,-4.5977 -10.286,-10.286 v -123.43 c 0,-5.688 4.608,-10.286 10.286,-10.286 5.678,0 10.286,4.5977 10.286,10.286 v 123.43 c 0,5.688 -4.608,10.286 -10.286,10.286 z"
         fill="#ffffff"
         id="path63" />
      <path
         d="M 740,344 H 616.57 c -5.6777,0 -10.286,-4.5977 -10.286,-10.286 0,-5.6883 4.608,-10.286 10.286,-10.286 H 740 c 5.6777,0 10.286,4.5977 10.286,10.286 0,5.6883 -4.608,10.286 -10.286,10.286 z"
         fill="#ffffff"
         id="path65" />
    </g>
  </g>
</svg>
