<svg enable-background="new 0 0 1024 1024" image-rendering="optimizeSpeed" version="1.1" viewBox="0 0 128 128" xmlns="http://www.w3.org/2000/svg">
 <defs>
  <linearGradient id="b" x1="520" x2="520.03" y1="4" y2="1026" gradientTransform="matrix(.10937 0 0 .10937 8.0042 8.0003)" gradientUnits="userSpaceOnUse">
   <stop stop-color="#fb8c21" offset="0"/>
   <stop stop-color="#f15f19" offset="1"/>
  </linearGradient>
  <filter id="e" x="-.018" y="-.018" width="1.036" height="1.0435" color-interpolation-filters="sRGB">
   <feFlood flood-color="rgb(0,0,0)" flood-opacity=".29412" result="flood"/>
   <feComposite in="flood" in2="SourceGraphic" operator="in" result="composite1"/>
   <feGaussianBlur in="composite1" result="blur" stdDeviation="3"/>
   <feOffset dx="0" dy="3" result="offset"/>
   <feComposite in="SourceGraphic" in2="offset" result="composite2"/>
  </filter>
  <filter id="d" x="-.014876" y="-.014638" width="1.0298" height="1.0354" color-interpolation-filters="sRGB">
   <feFlood flood-color="rgb(0,0,0)" flood-opacity=".29412" result="flood"/>
   <feComposite in="flood" in2="SourceGraphic" operator="in" result="composite1"/>
   <feGaussianBlur in="composite1" result="blur" stdDeviation="3"/>
   <feOffset dx="0" dy="3" result="offset"/>
   <feComposite in="SourceGraphic" in2="offset" result="composite2"/>
  </filter>
  <linearGradient id="a" x1="102.3" x2="102.3" y1="-.42687" y2="199.17" gradientTransform="matrix(2,0,0,2,483.69,484.09)" gradientUnits="userSpaceOnUse">
   <stop stop-color="#fff" offset="0"/>
   <stop stop-color="#ccc" offset="1"/>
  </linearGradient>
  <linearGradient id="c" x1="540.14" x2="540.14" y1="29.77" y2="1055" gradientTransform="matrix(.11371 0 0 .11371 5.7871 2.5581)" gradientUnits="userSpaceOnUse">
   <stop stop-color="#fff" stop-opacity=".58824" offset="0"/>
   <stop stop-color="#fff" stop-opacity="0" offset="1"/>
  </linearGradient>
 </defs>
 <path d="m115.92 42.561q-1.0203-2.4737-2.3016-4.8466c-0.48048-0.89576-0.99063-1.7856-1.5304-2.6576-2.3194-3.761-5.149-7.3144-8.4887-10.654-10.933-10.933-24.137-16.403-39.601-16.403s-28.663 5.4695-39.595 16.403c-10.933 10.933-16.402 24.132-16.402 39.597s5.4693 28.67 16.402 39.603c10.933 10.933 24.131 16.397 39.595 16.397s28.669-5.4636 39.601-16.397c6.021-6.0271 10.387-12.742 13.091-20.14 2.2008-6.033 3.3041-12.517 3.3041-19.464 0-5.3271-0.64658-10.387-1.9457-15.181-0.1483-0.53983-0.30253-1.0797-0.46269-1.6136-0.48642-1.578-1.0441-3.1263-1.6669-4.6449z" fill="url(#b)" stroke-width=".11864"/>
 <ellipse cx="64.002" cy="64" rx="55.714" ry="55.716" color="#000000" enable-background="accumulate" fill="none" stroke="url(#c)" stroke-width=".56856"/>
 <circle transform="matrix(.11429 0 0 .11429 5.49 5.486)" cx="683.69" cy="684.09" r="200" color="#000000" enable-background="accumulate" fill="url(#a)" filter="url(#e)"/>
 <g transform="matrix(.11429 0 0 .11429 5.49 5.486)" filter="url(#d)">
  <path d="m740 724h-123.43c-5.6777 0-10.286-4.5977-10.286-10.286s4.608-10.286 10.286-10.286h123.43c5.6777 0 10.286 4.5977 10.286 10.286s-4.608 10.286-10.286 10.286z" stroke-width="10.286"/>
  <path d="m740 662.29h-123.43c-5.6777 0-10.286-4.5977-10.286-10.286s4.608-10.286 10.286-10.286h123.43c5.6777 0 10.286 4.5977 10.286 10.286s-4.608 10.286-10.286 10.286z" stroke-width="10.286"/>
  <g fill="#fff" stroke-width="9.9162">
   <path d="m340 704c-2.5386 0-5.0771-0.97179-7.0108-2.9055-3.8772-3.8772-3.8772-10.144 0-14.022l49.581-49.581c3.8773-3.8773 10.144-3.8773 14.022 0 3.8772 3.8772 3.8772 10.144 0 14.022l-49.581 49.581c-1.9337 1.9337-4.4722 2.9055-7.0108 2.9055z"/>
   <path d="m290.42 753.58c-2.5386 0-5.0771-0.97179-7.0108-2.9055-3.8772-3.8772-3.8772-10.144 0-14.022l49.581-49.581c3.8772-3.8773 10.144-3.8773 14.022 0 3.8772 3.8772 3.8772 10.144 0 14.022l-49.581 49.581c-1.9337 1.9337-4.4722 2.9055-7.0108 2.9055z"/>
   <path d="m389.58 753.58c-2.5386 0-5.0771-0.97179-7.0108-2.9055l-49.581-49.581c-3.8772-3.8772-3.8772-10.144 0-14.022 3.8772-3.8773 10.144-3.8773 14.022 0l49.581 49.581c3.8772 3.8773 3.8772 10.144 0 14.022-1.9337 1.9337-4.4722 2.9055-7.0108 2.9055z"/>
   <path d="m340 704c-2.5386 0-5.0771-0.97179-7.0108-2.9055l-49.581-49.581c-3.8772-3.8772-3.8772-10.144 0-14.022 3.8773-3.8773 10.144-3.8773 14.022 0l49.581 49.581c3.8772 3.8772 3.8772 10.144 0 14.022-1.9337 1.9337-4.4722 2.9055-7.0108 2.9055z"/>
  </g>
  <g stroke-width="10.286">
   <path d="m400 344h-123.43c-5.6777 0-10.286-4.5977-10.286-10.286s4.608-10.286 10.286-10.286h123.43c5.6777 0 10.286 4.5977 10.286 10.286s-4.608 10.286-10.286 10.286z" fill="#f1f1f1"/>
   <path d="m338.29 405.71c-5.6777 0-10.286-4.5977-10.286-10.286v-123.43c0-5.688 4.608-10.286 10.286-10.286s10.286 4.5977 10.286 10.286v123.43c0 5.688-4.608 10.286-10.286 10.286z" fill="#fff"/>
   <path d="m740 344h-123.43c-5.6777 0-10.286-4.5977-10.286-10.286s4.608-10.286 10.286-10.286h123.43c5.6777 0 10.286 4.5977 10.286 10.286s-4.608 10.286-10.286 10.286z" fill="#fff"/>
  </g>
 </g>
</svg>
