<?xml version="1.0" encoding="UTF-8" standalone="no"?>
<!-- Created with Inkscape (http://www.inkscape.org/) -->

<svg
   width="128"
   height="128"
   viewBox="0 0 128 128"
   version="1.1"
   id="svg8"
   inkscape:version="1.1.2 (0a00cf5339, 2022-02-04)"
   sodipodi:docname="calendar.svg"
   xmlns:inkscape="http://www.inkscape.org/namespaces/inkscape"
   xmlns:sodipodi="http://sodipodi.sourceforge.net/DTD/sodipodi-0.dtd"
   xmlns:xlink="http://www.w3.org/1999/xlink"
   xmlns="http://www.w3.org/2000/svg"
   xmlns:svg="http://www.w3.org/2000/svg"
   xmlns:rdf="http://www.w3.org/1999/02/22-rdf-syntax-ns#"
   xmlns:cc="http://creativecommons.org/ns#"
   xmlns:dc="http://purl.org/dc/elements/1.1/">
  <defs
     id="defs2">
    <linearGradient
       id="linearGradient912"
       inkscape:collect="always">
      <stop
         id="stop908"
         offset="0"
         style="stop-color:#f85015;stop-opacity:1" />
      <stop
         id="stop910"
         offset="1"
         style="stop-color:#ee3009;stop-opacity:1" />
    </linearGradient>
    <mask
       maskUnits="userSpaceOnUse"
       id="mask1423">
      <g
         id="g1427"
         transform="matrix(0.39801054,0,0,0.39801054,-65.23909,-35.182402)">
        <path
           style="fill:#f3f5f6"
           inkscape:connector-curvature="0"
           id="path1425"
           d="M 777.6,216.5 H 511 l -14.4,33 -13.6,40 -12,46.7 -8.7,43.3 -7.3,44.7 -4.7,46 -1.3,24 c 0,7.6 6,13.7 13.3,13.7 h 66 c 7.2,0 13,5.8 13,13 v 18.7 43.3 31 l 1.7,33 3.3,39 4.3,40 4,25.3 5.3,31.3 2.9,16 h 214.7 c 15.9,0 29,-13.1 29,-29 v -524 c 0.1,-16 -12.9,-29 -28.9,-29 z" />
      </g>
    </mask>
    <linearGradient
       gradientTransform="matrix(0.26458333,0,0,0.26458333,-186.10792,29.929567)"
       y2="798.46222"
       x2="375.13599"
       y1="216.4622"
       x1="375.13599"
       gradientUnits="userSpaceOnUse"
       id="SVGID_1_">
      <stop
         id="stop60"
         style="stop-color:#1FD4FF"
         offset="0" />
      <stop
         id="stop62"
         style="stop-color:#1F74F4"
         offset="1" />
    </linearGradient>
    <linearGradient
       inkscape:collect="always"
       xlink:href="#linearGradient940"
       id="linearGradient894"
       x1="137.58331"
       y1="117.08331"
       x2="137.58331"
       y2="334.04166"
       gradientUnits="userSpaceOnUse"
       gradientTransform="matrix(0.4645683,0,0,0.50054307,1.0664805,9.2122622)" />
    <filter
       inkscape:collect="always"
       style="color-interpolation-filters:sRGB"
       id="filter864"
       x="-0.017910021"
       width="1.03582"
       y="-0.019350594"
       height="1.0387012">
      <feGaussianBlur
         inkscape:collect="always"
         stdDeviation="1.1358682"
         id="feGaussianBlur866" />
    </filter>
    <linearGradient
       id="linearGradient940">
      <stop
         id="stop936"
         offset="0"
         style="stop-color:#f6f7f7;stop-opacity:1" />
      <stop
         id="stop938"
         offset="1"
         style="stop-color:#dce7f0;stop-opacity:1" />
    </linearGradient>
    <filter
       style="color-interpolation-filters:sRGB"
       inkscape:label="Drop Shadow"
       id="filter1338">
      <feFlood
         flood-opacity="0.294118"
         flood-color="rgb(0,0,0)"
         result="flood"
         id="feFlood1328" />
      <feComposite
         in="flood"
         in2="SourceGraphic"
         operator="in"
         result="composite1"
         id="feComposite1330" />
      <feGaussianBlur
         in="composite1"
         stdDeviation="3"
         result="blur"
         id="feGaussianBlur1332" />
      <feOffset
         dx="0"
         dy="3"
         result="offset"
         id="feOffset1334" />
      <feComposite
         in="SourceGraphic"
         in2="offset"
         operator="over"
         result="composite2"
         id="feComposite1336" />
    </filter>
    <filter
       style="color-interpolation-filters:sRGB"
       inkscape:label="Drop Shadow"
       id="filter1068">
      <feFlood
         flood-opacity="0.498039"
         flood-color="rgb(0,0,0)"
         result="flood"
         id="feFlood1058" />
      <feComposite
         in="flood"
         in2="SourceGraphic"
         operator="in"
         result="composite1"
         id="feComposite1060" />
      <feGaussianBlur
         in="composite1"
         stdDeviation="2"
         result="blur"
         id="feGaussianBlur1062" />
      <feOffset
         dx="0"
         dy="4"
         result="offset"
         id="feOffset1064" />
      <feComposite
         in="SourceGraphic"
         in2="offset"
         operator="over"
         result="composite2"
         id="feComposite1066" />
    </filter>
    <linearGradient
       inkscape:collect="always"
       xlink:href="#linearGradient912"
       id="linearGradient1112"
       gradientUnits="userSpaceOnUse"
       gradientTransform="matrix(0.4645683,0,0,0.5005431,1.0664805,9.2122584)"
       x1="132.29164"
       y1="48.291653"
       x2="132.29164"
       y2="122.37498" />
  </defs>
  <sodipodi:namedview
     id="base"
     pagecolor="#ffffff"
     bordercolor="#666666"
     borderopacity="1.0"
     inkscape:pageopacity="0.0"
     inkscape:pageshadow="2"
     inkscape:zoom="3.1403508"
     inkscape:cx="130.55866"
     inkscape:cy="82.793297"
     inkscape:document-units="px"
     inkscape:current-layer="g844"
     showgrid="true"
     showguides="true"
     inkscape:pagecheckerboard="false"
     units="px"
     inkscape:window-width="1904"
     inkscape:window-height="1011"
     inkscape:window-x="0"
     inkscape:window-y="32"
     inkscape:window-maximized="1" />
  <metadata
     id="metadata5">
    <rdf:RDF>
      <cc:Work
         rdf:about="">
        <dc:format>image/svg+xml</dc:format>
        <dc:type
           rdf:resource="http://purl.org/dc/dcmitype/StillImage" />
      </cc:Work>
    </rdf:RDF>
  </metadata>
  <g
     inkscape:label="Layer 1"
     inkscape:groupmode="layer"
     id="layer1"
     transform="translate(0,-26.06665)">
    <g
       id="g844">
      <rect
         rx="5.2960787"
         y="34.907322"
         x="8.6873207"
         height="110.31864"
         width="110.62533"
         id="rect1383"
         style="opacity:1;fill:url(#linearGradient894);fill-opacity:1;fill-rule:evenodd;stroke:none;stroke-width:10.0454;stroke-linejoin:round;stroke-miterlimit:4;stroke-dasharray:none;stroke-opacity:0;paint-order:stroke markers fill" />
      <g
         id="txt"
         transform="matrix(0.1224369,0,0,0.13191808,4.9092057,35.544541)">
        <g
           id="drawingObject">
          <path
             id="path1"
             d="m 696.639,393.763 30.641,-53.41 -5.65,-29.046 -225.373,43.839 5.65,29.045 193.907,-37.718 c -19.085,32.462 -34.667,62.846 -46.962,91.475 -14.438,37.698 -23.722,66.02 -28.226,84.48 -6.699,27.261 -10.605,54.537 -11.611,82.366 0.286,37.346 1.693,66.1 4.219,86.263 l 33.887,-6.591 c -5.748,-41.029 -6.565,-79.667 -2.399,-115.646 2.92,-23.735 9.701,-56.315 20.344,-97.741 9.343,-29.45 19.958,-55.239 31.573,-77.316 z M 457.783,457.25 c -3.191,-16.405 -8.706,-30.405 -16.76,-41.678 -8.002,-11.003 -17.572,-20.027 -28.876,-26.481 -11.52,-6.133 -24.288,-10.069 -38.251,-11.54 -13.963,-1.471 -28.635,-0.85 -43.965,2.132 -18.825,3.662 -34.655,9.812 -47.706,18.77 -13.051,8.958 -23.21,19.866 -30.478,32.724 -7.268,12.857 -11.481,27.074 -13.071,43.293 -1.59,16.219 -0.551,33.043 3.492,50.958 l 31.466,-6.121 c -2.832,-13.126 -4.163,-25.707 -3.454,-37.846 0.44,-12.088 3.024,-23.197 7.7,-33.597 4.46,-10.078 11.384,-18.961 20.558,-26.328 9.226,-7.098 21.074,-12.193 35.328,-14.966 10.488,-2.04 21.022,-2.415 31.01,-1.287 10.041,1.396 19.268,4.347 27.732,9.12 8.465,4.773 15.578,11.205 21.338,19.295 6.029,8.038 10.116,17.57 12.366,29.135 2.668,13.716 2.602,26.289 -0.251,37.451 -3.122,11.213 -8.448,22.577 -15.978,34.089 -7.799,11.566 -17.047,22.854 -27.527,33.546 l -62.78,64.685 c -10.107,11.177 -18.66,23.168 -26.032,35.488 -7.321,12.589 -12.228,26.103 -15.313,40.38 -3.032,14.546 -3.277,30.503 -0.198,47.768 l 230.752,-44.885 -5.65,-29.046 -194.714,37.875 c -0.367,-11.931 2.651,-23.682 8.783,-35.202 6.185,-11.252 13.551,-22.174 22.418,-32.552 l 82.762,-83.924 c 8.867,-10.377 16.449,-21.621 22.581,-33.141 6.402,-11.573 10.712,-23.855 13.199,-36.899 2.487,-13.044 2.344,-26.693 -0.481,-41.216 z"
             inkscape:connector-curvature="0"
             style="fill:#333333;fill-opacity:1" />
        </g>
      </g>
      <path
         style="opacity:1;fill:url(#linearGradient1112);fill-opacity:1;fill-rule:evenodd;stroke:none;stroke-width:10.0454;stroke-linejoin:round;stroke-miterlimit:4;stroke-dasharray:none;stroke-opacity:0;paint-order:stroke markers fill"
         d="m 13.983324,34.907319 c -2.934024,0 -5.2959957,2.544872 -5.2959957,5.706099 V 67.817506 H 119.31268 V 40.613418 c 0,-3.161227 -2.36198,-5.706099 -5.29601,-5.706099 z m 35.139868,8.821438 c 1.175397,0 2.23556,0.21518 3.180481,0.645618 0.952607,0.430418 1.759248,1.047069 2.419929,1.849961 0.660681,0.802884 1.167713,1.775459 1.521096,2.917717 0.361036,1.14225 0.541606,2.425217 0.541606,3.848897 0,1.423683 -0.180574,2.70665 -0.541606,3.848904 -0.353386,1.142251 -0.860415,2.114829 -1.521096,2.917714 -0.660681,0.794611 -1.467322,1.407126 -2.419929,1.837541 -0.944921,0.430414 -2.005084,0.645629 -3.180481,0.645621 -1.175391,0 -2.239387,-0.215181 -3.192005,-0.645621 -0.944924,-0.430415 -1.747718,-1.04293 -2.408403,-1.837541 -0.660677,-0.802885 -1.171556,-1.775463 -1.532623,-2.917714 -0.353386,-1.142254 -0.530072,-2.425221 -0.530072,-3.848904 0,-1.42368 0.176712,-2.706647 0.530072,-3.848897 0.361,-1.142258 0.871946,-2.114833 1.532623,-2.917717 0.660685,-0.802892 1.463479,-1.419543 2.408403,-1.849961 0.952618,-0.430411 2.016614,-0.645618 3.192005,-0.645618 z m 17.112354,0 c 0.90652,0 1.747733,0.144852 2.523639,0.434547 0.783601,0.281388 1.478845,0.682877 2.085751,1.204339 0.606899,0.513182 1.106248,1.138114 1.498056,1.874784 0.399475,0.728397 0.664517,1.539565 0.795118,2.433498 h -2.097276 c -0.130557,-0.587673 -0.345664,-1.117416 -0.645313,-1.589222 -0.291895,-0.480071 -0.649151,-0.889796 -1.071686,-1.229167 -0.414848,-0.339351 -0.887306,-0.600094 -1.417382,-0.782189 -0.522398,-0.190341 -1.079361,-0.285548 -1.670907,-0.285548 -0.814326,0 -1.55183,0.169695 -2.212508,0.509054 -0.660678,0.339351 -1.225328,0.823581 -1.693947,1.452646 -0.460932,0.629069 -0.818165,1.386436 -1.071675,2.272099 -0.253501,0.877379 -0.380285,1.862371 -0.380285,2.954957 0,1.100878 0.122945,2.094142 0.368723,2.979791 0.253464,0.885667 0.614585,1.643035 1.083208,2.272103 0.468619,0.620791 1.033269,1.100871 1.693947,1.440234 0.660677,0.339351 1.402017,0.509048 2.22403,0.509048 0.60691,0 1.17156,-0.07449 1.693954,-0.223461 0.522394,-0.157218 0.987177,-0.38489 1.394339,-0.682866 0.407161,-0.297949 0.752861,-0.658039 1.037116,-1.08018 0.291896,-0.430407 0.514711,-0.918771 0.668356,-1.465064 h 2.097277 c -0.38411,1.779599 -1.167714,3.145342 -2.350793,4.097219 -1.183075,0.943605 -2.700329,1.415399 -4.551771,1.415399 -1.144662,0 -2.181778,-0.215181 -3.111333,-0.645621 -0.921881,-0.438688 -1.709316,-1.059483 -2.362311,-1.862375 -0.64532,-0.802881 -1.144673,-1.77546 -1.498056,-2.91771 -0.345663,-1.142261 -0.518558,-2.421081 -0.518558,-3.836491 0,-1.407123 0.176712,-2.677676 0.530081,-3.81165 0.353386,-1.142253 0.856575,-2.114828 1.509577,-2.917717 0.652999,-0.811168 1.440435,-1.431964 2.362315,-1.862374 0.921865,-0.438688 1.951302,-0.658035 3.088285,-0.658035 z m 7.513306,0.297986 h 12.791052 v 2.011356 H 81.181493 V 61.942763 H 79.107264 V 46.038114 h -5.358412 z m -24.62566,1.763041 c -0.852735,0 -1.620969,0.169695 -2.304691,0.509053 -0.676047,0.331072 -1.256062,0.811166 -1.740047,1.44023 -0.476305,0.620795 -0.845053,1.378159 -1.106252,2.272096 -0.253501,0.885663 -0.380281,1.878928 -0.380281,2.979794 0,1.100871 0.126769,2.094135 0.380281,2.979795 0.261225,0.885663 0.629947,1.643031 1.106252,2.272099 0.483985,0.620788 1.064,1.100867 1.740047,1.440226 0.683722,0.331071 1.451956,0.49664 2.304691,0.49664 0.852736,0 1.617128,-0.165535 2.29317,-0.49664 0.683734,-0.339352 1.263746,-0.819438 1.740043,-1.440226 0.483985,-0.629068 0.852741,-1.386436 1.106253,-2.272099 0.261188,-0.88566 0.391799,-1.878924 0.391799,-2.979795 0,-1.100866 -0.130556,-2.094131 -0.391799,-2.979794 -0.253464,-0.893937 -0.622268,-1.651301 -1.106253,-2.272096 -0.476297,-0.629064 -1.056309,-1.109139 -1.740043,-1.44023 -0.676042,-0.339387 -1.440434,-0.509053 -2.29317,-0.509053 z"
         id="rect1110" />
      <rect
         style="opacity:0.2;fill:none;fill-opacity:1;fill-rule:evenodd;stroke:#ffffff;stroke-width:2.99981;stroke-linecap:butt;stroke-linejoin:round;stroke-miterlimit:4;stroke-dasharray:none;stroke-opacity:1;paint-order:stroke fill markers;filter:url(#filter864)"
         id="rect932"
         width="235.95665"
         height="218.39064"
         x="17.48835"
         y="52.338001"
         rx="11.29619"
         transform="matrix(0.45824898,0,0,0.4937344,1.9225363,10.312094)" />
    </g>
  </g>
</svg>
