<svg version="1.1" viewBox="0 0 128 128" xmlns="http://www.w3.org/2000/svg" xmlns:xlink="http://www.w3.org/1999/xlink">
 <defs>
  <linearGradient id="a" x1="137.58" x2="137.58" y1="117.08" y2="334.04" gradientTransform="matrix(.46457 0 0 .50054 1.0665 9.2123)" gradientUnits="userSpaceOnUse">
   <stop stop-color="#f6f7f7" offset="0"/>
   <stop stop-color="#dce7f0" offset="1"/>
  </linearGradient>
  <filter id="c" x="-.01791" y="-.019351" width="1.0358" height="1.0387" color-interpolation-filters="sRGB">
   <feGaussianBlur stdDeviation="1.1358682"/>
  </filter>
  <linearGradient id="b" x1="132.29" x2="132.29" y1="48.292" y2="122.37" gradientTransform="matrix(.46457 0 0 .50054 1.0665 9.2123)" gradientUnits="userSpaceOnUse">
   <stop stop-color="#f85015" offset="0"/>
   <stop stop-color="#ee3009" offset="1"/>
  </linearGradient>
 </defs>
 <g transform="translate(0 -26.067)">
  <rect x="8.6873" y="34.907" width="110.63" height="110.32" rx="5.2961" fill="url(#a)" fill-rule="evenodd" style="paint-order:stroke markers fill"/>
  <g transform="matrix(.12244 0 0 .13192 4.9092 35.545)">
   <path d="m696.64 393.76 30.641-53.41-5.65-29.046-225.37 43.839 5.65 29.045 193.91-37.718c-19.085 32.462-34.667 62.846-46.962 91.475-14.438 37.698-23.722 66.02-28.226 84.48-6.699 27.261-10.605 54.537-11.611 82.366 0.286 37.346 1.693 66.1 4.219 86.263l33.887-6.591c-5.748-41.029-6.565-79.667-2.399-115.65 2.92-23.735 9.701-56.315 20.344-97.741 9.343-29.45 19.958-55.239 31.573-77.316zm-238.86 63.487c-3.191-16.405-8.706-30.405-16.76-41.678-8.002-11.003-17.572-20.027-28.876-26.481-11.52-6.133-24.288-10.069-38.251-11.54s-28.635-0.85-43.965 2.132c-18.825 3.662-34.655 9.812-47.706 18.77s-23.21 19.866-30.478 32.724c-7.268 12.857-11.481 27.074-13.071 43.293s-0.551 33.043 3.492 50.958l31.466-6.121c-2.832-13.126-4.163-25.707-3.454-37.846 0.44-12.088 3.024-23.197 7.7-33.597 4.46-10.078 11.384-18.961 20.558-26.328 9.226-7.098 21.074-12.193 35.328-14.966 10.488-2.04 21.022-2.415 31.01-1.287 10.041 1.396 19.268 4.347 27.732 9.12 8.465 4.773 15.578 11.205 21.338 19.295 6.029 8.038 10.116 17.57 12.366 29.135 2.668 13.716 2.602 26.289-0.251 37.451-3.122 11.213-8.448 22.577-15.978 34.089-7.799 11.566-17.047 22.854-27.527 33.546l-62.78 64.685c-10.107 11.177-18.66 23.168-26.032 35.488-7.321 12.589-12.228 26.103-15.313 40.38-3.032 14.546-3.277 30.503-0.198 47.768l230.75-44.885-5.65-29.046-194.71 37.875c-0.367-11.931 2.651-23.682 8.783-35.202 6.185-11.252 13.551-22.174 22.418-32.552l82.762-83.924c8.867-10.377 16.449-21.621 22.581-33.141 6.402-11.573 10.712-23.855 13.199-36.899s2.344-26.693-0.481-41.216z" fill="#333"/>
  </g>
  <path d="m13.983 34.907c-2.934 0-5.296 2.5449-5.296 5.7061v27.204h110.63v-27.204c0-3.1612-2.362-5.7061-5.296-5.7061zm35.14 8.8214c1.1754 0 2.2356 0.21518 3.1805 0.64562 0.95261 0.43042 1.7592 1.0471 2.4199 1.85 0.66068 0.80288 1.1677 1.7755 1.5211 2.9177 0.36104 1.1422 0.54161 2.4252 0.54161 3.8489 0 1.4237-0.18057 2.7066-0.54161 3.8489-0.35339 1.1423-0.86042 2.1148-1.5211 2.9177-0.66068 0.79461-1.4673 1.4071-2.4199 1.8375-0.94492 0.43041-2.0051 0.64563-3.1805 0.64562-1.1754 0-2.2394-0.21518-3.192-0.64562-0.94492-0.43042-1.7477-1.0429-2.4084-1.8375-0.66068-0.80288-1.1716-1.7755-1.5326-2.9177-0.35339-1.1423-0.53007-2.4252-0.53007-3.8489 0-1.4237 0.17671-2.7066 0.53007-3.8489 0.361-1.1423 0.87195-2.1148 1.5326-2.9177 0.66068-0.80289 1.4635-1.4195 2.4084-1.85 0.95262-0.43041 2.0166-0.64562 3.192-0.64562zm17.112 0c0.90652 0 1.7477 0.14485 2.5236 0.43455 0.7836 0.28139 1.4788 0.68288 2.0858 1.2043 0.6069 0.51318 1.1062 1.1381 1.4981 1.8748 0.39948 0.7284 0.66452 1.5396 0.79512 2.4335h-2.0973c-0.13056-0.58767-0.34566-1.1174-0.64531-1.5892-0.2919-0.48007-0.64915-0.8898-1.0717-1.2292-0.41485-0.33935-0.88731-0.60009-1.4174-0.78219-0.5224-0.19034-1.0794-0.28555-1.6709-0.28555-0.81433 0-1.5518 0.1697-2.2125 0.50905-0.66068 0.33935-1.2253 0.82358-1.6939 1.4526-0.46093 0.62907-0.81816 1.3864-1.0717 2.2721-0.2535 0.87738-0.38028 1.8624-0.38028 2.955 0 1.1009 0.12294 2.0941 0.36872 2.9798 0.25346 0.88567 0.61458 1.643 1.0832 2.2721 0.46862 0.62079 1.0333 1.1009 1.6939 1.4402 0.66068 0.33935 1.402 0.50905 2.224 0.50905 0.60691 0 1.1716-0.07449 1.694-0.22346 0.52239-0.15722 0.98718-0.38489 1.3943-0.68287 0.40716-0.29795 0.75286-0.65804 1.0371-1.0802 0.2919-0.43041 0.51471-0.91877 0.66836-1.4651h2.0973c-0.38411 1.7796-1.1677 3.1453-2.3508 4.0972-1.1831 0.9436-2.7003 1.4154-4.5518 1.4154-1.1447 0-2.1818-0.21518-3.1113-0.64562-0.92188-0.43869-1.7093-1.0595-2.3623-1.8624-0.64532-0.80288-1.1447-1.7755-1.4981-2.9177-0.34566-1.1423-0.51856-2.4211-0.51856-3.8365 0-1.4071 0.17671-2.6777 0.53008-3.8116 0.35339-1.1423 0.85658-2.1148 1.5096-2.9177 0.653-0.81117 1.4404-1.432 2.3623-1.8624 0.92186-0.43869 1.9513-0.65804 3.0883-0.65804zm7.5133 0.29799h12.791v2.0114h-5.3584v15.905h-2.0742v-15.905h-5.3584zm-24.626 1.763c-0.85274 0-1.621 0.1697-2.3047 0.50905-0.67605 0.33107-1.2561 0.81117-1.74 1.4402-0.4763 0.6208-0.84505 1.3782-1.1063 2.2721-0.2535 0.88566-0.38028 1.8789-0.38028 2.9798 0 1.1009 0.12677 2.0941 0.38028 2.9798 0.26122 0.88566 0.62995 1.643 1.1063 2.2721 0.48398 0.62079 1.064 1.1009 1.74 1.4402 0.68372 0.33107 1.452 0.49664 2.3047 0.49664 0.85274 0 1.6171-0.16554 2.2932-0.49664 0.68373-0.33935 1.2637-0.81944 1.74-1.4402 0.48398-0.62907 0.85274-1.3864 1.1063-2.2721 0.26119-0.88566 0.3918-1.8789 0.3918-2.9798 0-1.1009-0.13056-2.0941-0.3918-2.9798-0.25346-0.89394-0.62227-1.6513-1.1063-2.2721-0.4763-0.62906-1.0563-1.1091-1.74-1.4402-0.67604-0.33939-1.4404-0.50905-2.2932-0.50905z" fill="url(#b)" fill-rule="evenodd" style="paint-order:stroke markers fill"/>
  <rect transform="matrix(.45825 0 0 .49373 1.9225 10.312)" x="17.488" y="52.338" width="235.96" height="218.39" rx="11.296" fill="none" filter="url(#c)" opacity=".2" stroke="#fff" stroke-linejoin="round" stroke-width="2.9998" style="paint-order:stroke fill markers"/>
 </g>
</svg>
