<svg clip-rule="evenodd" fill-rule="evenodd" stroke-linejoin="round" stroke-miterlimit="2" viewBox="0 0 48 48" xmlns="http://www.w3.org/2000/svg" xmlns:xlink="http://www.w3.org/1999/xlink">
 <linearGradient id="a" x2="1" gradientTransform="matrix(0 -42.236 42.198 0 14.565 44.339)" gradientUnits="userSpaceOnUse">
  <stop stop-color="#178b6f" offset="0"/>
  <stop stop-color="#4dd7c4" offset="1"/>
 </linearGradient>
 <linearGradient id="b">
  <stop stop-color="#f6fbff" offset="0"/>
  <stop stop-color="#eaeff2" offset="1"/>
 </linearGradient>
 <linearGradient id="c" x2="1" gradientTransform="matrix(.79491 41.495 -41.495 .79491 44.272 4.333)" gradientUnits="userSpaceOnUse" xlink:href="#b"/>
 <linearGradient id="d" x2="1" gradientTransform="matrix(0 -45.48 45.733 0 33.532 45.923)" gradientUnits="userSpaceOnUse">
  <stop stop-color="#178b6f" offset="0"/>
  <stop stop-color="#3cad9d" offset="1"/>
 </linearGradient>
 <linearGradient id="e" x2="1" gradientTransform="matrix(-10.49 18.169 -18.169 -10.49 26.474 15.799)" gradientUnits="userSpaceOnUse" xlink:href="#b"/>
 <linearGradient id="f" x2="1" gradientTransform="matrix(-10.49 18.169 -18.169 -10.49 26.474 31.009)" gradientUnits="userSpaceOnUse" xlink:href="#b"/>
 <linearGradient id="g" x2="1" gradientTransform="matrix(-10.49 18.169 -18.169 -10.49 26.474 23.142)" gradientUnits="userSpaceOnUse" xlink:href="#b"/>
 <path d="m6.399 45.363h19.042l-.001-43.099-18.857-.059c-3.166.058-4.486 1.251-4.569 4.417v34.223c.012 2.752 2.216 4.518 4.385 4.518z" fill="url(#a)"/>
 <path d="m42.397 45.363-12.085-.014v-43.099l12.431-.045c2.16.026 3.24 1.708 3.24 3.729v35.526c.094 2.219-1.372 3.855-3.586 3.903z" fill="url(#c)"/>
 <path d="m42.838 43.097c-.04 2.642-1.222 4.026-3.552 4.123l-16.083-1.878v-43.078l16.584-1.555c2.209-.223 3.174.962 3.191 3.337z" fill="url(#d)"/>
 <g fill-rule="nonzero">
  <path d="m12.591 14.263h20.979v6.294h-20.979z" fill="url(#e)"/>
  <path d="m12.591 28.948h20.979v6.294h-20.979z" fill="url(#f)"/>
  <path d="m12.591 21.606h20.98v6.293h-20.98z" fill="url(#g)"/>
 </g>
</svg>
