<svg clip-rule="evenodd" fill-rule="evenodd" stroke-linejoin="round" stroke-miterlimit="2" viewBox="0 0 48 48" xmlns="http://www.w3.org/2000/svg">
 <linearGradient id="a" x2="1" gradientTransform="matrix(-.47643 -44.666 44.666 -.47643 446.34 44.055)" gradientUnits="userSpaceOnUse">
  <stop stop-color="#cfdaf0" offset="0"/>
  <stop stop-color="#fdfdfe" offset="1"/>
 </linearGradient>
 <linearGradient id="b" x2="1" gradientTransform="matrix(-.47643 -44.666 44.666 -.47643 164.2 43.915)" gradientUnits="userSpaceOnUse">
  <stop stop-color="#286cd8" offset="0"/>
  <stop stop-color="#40a9fe" offset="1"/>
 </linearGradient>
 <path transform="translate(-5.0087 -3.1602)" d="m44.367 8.923c0-2.783-2.256-5.04-5.039-5.04h-25.841c-2.783 0-5.039 2.257-5.039 5.04v33.036c0 2.783 2.256 5.04 5.039 5.04h25.841c2.783 0 5.039-2.257 5.039-5.04z" fill="url(#a)"/>
 <path transform="translate(4.893 3.096)" d="m39.473 5.827c0-2.783-2.256-5.04-5.039-5.04h-25.84c-2.783 0-5.039 2.257-5.039 5.04v33.035c0 2.783 2.256 5.04 5.039 5.04h25.84c2.783 0 5.039-2.257 5.039-5.04z" fill="url(#b)"/>
 <path transform="matrix(.72815 0 0 .72815 6.9366 7.2248)" d="m25.766 28.857 9.81-16.079c1.274-2.087 4.002-2.748 6.09-1.475 2.087 1.274 2.748 4.003 1.475 6.09l-12.952 21.228c-.734 1.203-1.998 1.986-3.403 2.106-1.404.121-2.783-.434-3.712-1.495l-10.785-12.313c-1.611-1.839-1.425-4.641.414-6.252 1.84-1.611 4.641-1.426 6.252.414z" fill="#e7e7e7"/>
</svg>
