<svg clip-rule="evenodd" fill-rule="evenodd" stroke-linejoin="round" stroke-miterlimit="2" viewBox="0 0 48 48" xmlns="http://www.w3.org/2000/svg">
 <linearGradient id="a" x2="1" gradientTransform="matrix(0 -10.633 10.633 0 488.89 54.733)" gradientUnits="userSpaceOnUse">
  <stop stop-color="#6b6b6b" offset="0"/>
  <stop stop-color="#474747" offset="1"/>
 </linearGradient>
 <linearGradient id="b" x2="1" gradientTransform="matrix(0 -25.6 25.6 0 214.76 33.074)" gradientUnits="userSpaceOnUse">
  <stop stop-color="#0084b6" offset="0"/>
  <stop stop-color="#02eeff" offset="1"/>
 </linearGradient>
 <path transform="scale(.75)" d="m37.254 42.97h2.284v12.922h-15.076v-12.922h2.284c-.27.661-.419 1.384-.419 2.141 0 3.131 2.542 5.673 5.673 5.673s5.673-2.542 5.673-5.673c0-.757-.149-1.48-.419-2.141z" fill="url(#a)" fill-rule="nonzero"/>
 <path d="m16.057 41.048h15.886v0.9506h-15.886z" fill="#a4a4a4" stroke-width=".80764"/>
 <path transform="matrix(.85928 0 0 .76766 -327.07 -379.78)" d="m432.63 505.379c0-.456-.149-.893-.415-1.214-.266-.322-.627-.503-1.003-.503h-45.281c-.377 0-.737.181-1.003.503-.267.321-.416.758-.416 1.214v31.702c0 .455.149.892.416 1.214.266.322.626.503 1.003.503h45.281c.376 0 .737-.181 1.003-.503s.415-.759.415-1.214z" fill="#333" stroke="#d5d5d5" stroke-width=".32"/>
 <path d="m3.929 7.475h40.139v25.6h-40.139z" fill="url(#b)"/>
 <g fill="#ebebeb">
  <path transform="translate(3.9305)" d="m14.978 11.241c0-1.471-1.194-2.665-2.665-2.665h-5.33c-1.471 0-2.665 1.194-2.665 2.665v17.181c0 1.471 1.194 2.665 2.665 2.665h5.33c1.471 0 2.665-1.194 2.665-2.665z"/>
  <path transform="translate(0 -.83375)" d="m39.335 11.434c0-1.117-.907-2.025-2.025-2.025h-11.285c-1.118 0-2.025.908-2.025 2.025v4.05c0 1.117.907 2.025 2.025 2.025h11.285c1.118 0 2.025-.908 2.025-2.025z"/>
  <path transform="translate(0 13.578)" d="m39.335 11.434c0-1.117-.907-2.025-2.025-2.025h-11.285c-1.118 0-2.025.908-2.025 2.025v4.05c0 1.117.907 2.025 2.025 2.025h11.285c1.118 0 2.025-.908 2.025-2.025z"/>
 </g>
</svg>
