<svg clip-rule="evenodd" fill-rule="evenodd" stroke-linejoin="round" stroke-miterlimit="2" viewBox="0 0 48 48" xmlns="http://www.w3.org/2000/svg">
 <linearGradient id="a" x2="1" gradientTransform="matrix(0 -33.687 33.687 0 923.28 40.45)" gradientUnits="userSpaceOnUse">
  <stop stop-color="#006783" offset="0"/>
  <stop stop-color="#13bee3" offset="1"/>
 </linearGradient>
 <path d="m39.44 45.668h-30.88c-3.438 0-6.228-2.79-6.228-6.228v-30.88c0-3.438 2.79-6.228 6.228-6.228h30.88c3.438 0 6.228 2.79 6.228 6.228v30.88c0 3.438-2.79 6.228-6.228 6.228z" fill="url(#a)"/>
 <g stroke-width="2.1668">
  <path d="m19.666 13.166h2.1668v19.501h-2.1668z" fill="#76908e"/>
  <path d="m24 17.5h21.668v10.834h-21.668z" fill="#fda701"/>
  <path d="m17.5 15.333h6.5004v15.168h-6.5004z" fill="#9badab"/>
 </g>
 <path transform="matrix(2.1668 0 0 2.1668 .1652 .1652)" d="m9 10h-3v1h-1v1h-1v9h1v-5h1v-2h1v-1h2z" fill="#76edfd" fill-rule="nonzero"/>
 <path transform="matrix(2.1668 0 0 2.1668 .1652 .1652)" d="m6 10v.5h3v-.5zm-1 1v.5h1v-.5zm-1 1v.5h1v-.5z" fill="#fff" fill-opacity=".2" fill-rule="nonzero"/>
 <g stroke-width="2.1668">
  <path d="m21.292 20.75h24.376v6.5004h-24.376z" fill-opacity=".2"/>
  <path d="m21.292 19.666h24.376v6.5004h-24.376z" fill="#fec91a"/>
  <path d="m21.292 19.666h24.376v1.0834h-24.376z" fill="#fff" fill-opacity=".2" fill-rule="nonzero"/>
  <path d="m17.5 18.583h6.5004v10.834h-6.5004z" fill-opacity=".2"/>
  <path d="m17.5 17.5h6.5004v10.834h-6.5004z" fill="#adcdce"/>
 </g>
 <g fill-rule="nonzero">
  <path transform="matrix(2.1668 0 0 2.1668 .1652 .1652)" d="m9 9.5v1h1v-1zm0 2v1h1v-1z" fill-opacity=".2"/>
  <g fill="#fff">
   <path transform="matrix(2.1668 0 0 2.1668 .1652 .1652)" d="m9 9v1h1v-1zm0 2v1h1v-1z"/>
   <g stroke-width="2.1668">
    <path d="m19.666 13.166h2.1668v1.0834h-2.1668z" fill-opacity=".1"/>
    <path d="m24 17.5h21.668v1.0834h-21.668z" fill-opacity=".1"/>
    <path d="m17.5 15.333h6.5004v1.0834h-6.5004z" fill-opacity=".2"/>
    <path d="m17.5 17.5h6.5004v1.0834h-6.5004z" fill-opacity=".2"/>
   </g>
  </g>
 </g>
</svg>
