<svg viewBox="0 0 48 48" xmlns="http://www.w3.org/2000/svg">
 <path d="m22 7.9648c0 1.6584 1.3431 3.0029 3 3.0029v14.013h-15c0-1.6584-1.3431-3.0029-3-3.0029s-3 1.3444-3 3.0029c3.175e-4 0.08484 0.00423 0.16964 0.011719 0.25415 0.13892 10.952 9.0456 19.759 19.988 19.765 11.046 0 20-8.9628 20-20.019-0.023467-10.307-7.8618-18.912-18.113-19.884l-0.0059-0.00195c-1.9642-0.44332-3.8356 0.69275-3.8808 2.8699z" opacity=".2"/>
 <path d="m22 6.9648c0 1.6584 1.3431 3.0029 3 3.0029v14.013h-15c0-1.6584-1.3431-3.0029-3-3.0029s-3 1.3444-3 3.0029c3.175e-4 0.08484 0.00423 0.16964 0.011719 0.25415 0.13892 10.952 9.0456 19.759 19.988 19.765 11.046 0 20-8.9628 20-20.019-0.023467-10.307-7.8618-18.912-18.113-19.884l-0.0059-0.00195c-1.9642-0.44332-3.8356 0.69275-3.8808 2.8699z" fill="#4c91d9"/>
 <circle cx="24" cy="25" r="14" opacity=".2"/>
 <g fill="#fff">
  <circle cx="24" cy="24" r="14"/>
  <path d="m25.152 4.002c-1.6747-0.049771-3.1128 1.0579-3.1523 2.9629 0 0.19327 0.021788 0.38135 0.056641 0.56445 0.27461-1.883 1.9994-2.8455 3.8242-2.4336l0.00586 0.0019531c10.139 0.96168 17.906 9.3918 18.098 19.549 0.007238-0.22137 0.015625-0.44288 0.015625-0.66602-0.023467-10.307-7.8618-18.911-18.113-19.883l-0.00586-0.0019531c-0.24552-0.055414-0.48928-0.08664-0.72852-0.09375zm-18.152 16.977c-1.6569 0-3 1.3435-3 3.002 3.175e-4 0.08484 0.0042298 0.16939 0.011719 0.25391 0.001934 0.15248 0.012263 0.30345 0.017578 0.45508 0.14821-1.5198 1.4134-2.7109 2.9707-2.7109 1.6569 0 3 1.3435 3 3.002h15v-1h-15c0-1.6584-1.3431-3.002-3-3.002z" opacity=".2"/>
 </g>
</svg>
