<svg viewBox="0 0 48 48" xmlns="http://www.w3.org/2000/svg">
 <g transform="translate(0 -1004.4)">
  <circle cx="24" cy="1029.4" r="20" opacity=".2"/>
  <circle cx="24" cy="1028.4" r="20" fill="#e4e4e4"/>
  <path transform="translate(0 1004.4)" d="m43.443 19.412-37.902 12.24a20 20 0 0 0 0.41016 0.91797l37.711-12.178a20 20 0 0 0-0.21875-0.98047z" fill="#3f3f3f"/>
  <path d="m31.601 1021.4-19.141 6.2278 0.1005 0.3065 1.8208 5.5981 19.141-6.2262z" fill="#3f3f3f"/>
  <path transform="translate(0 1004.4)" d="m24 4a20 20 0 0 0-20 20 20 20 0 0 0 0.021484 0.58203 20 20 0 0 1 19.979-19.582 20 20 0 0 1 19.979 19.418 20 20 0 0 0 0.021484-0.41797 20 20 0 0 0-20-20z" fill="#fff" opacity=".2"/>
 </g>
</svg>
