<svg viewBox="0 0 48 48" xmlns="http://www.w3.org/2000/svg">
 <linearGradient id="a" x1="362.06" x2="361.15" y1="550.13" y2="518.28" gradientUnits="userSpaceOnUse">
  <stop stop-color="#3676ad" offset="0"/>
  <stop stop-color="#1dbbfa" offset="1"/>
 </linearGradient>
 <g transform="matrix(1.4151 0 0 1.4151 -487.69 -733.95)">
  <g transform="matrix(.96823 0 0 .96823 10.977 17.265)" fill="url(#a)">
   <path d="m358.59 540.86-3.268 7.4314h6.1038l-0.14193 4.0191 6.6706-7.7101h-4.9663l1.8935-3.928z" fill-rule="evenodd"/>
   <rect x="345.39" y="518.9" width="33.578" height="23.631" ry="1.987"/>
  </g>
  <g fill="#fff" opacity=".9">
   <path d="m365.19595 536.52507q-.18235.18234-.43763.18234-.25529 0-.43763-.18234-.18235-.18235-.18235-.43763 0-.25528.18235-.43763.18234-.18234.43763-.18234.25528 0 .43763.18234.18234.18235.18234.43763 0 .25528-.18234.43763z"/>
   <path d="m367.24 531.06q-0.17323 0.17323-0.4194 0.17323-0.24616 0-0.41939-0.17323t-0.17323-0.4194q0-0.24616 0.17323-0.41939t0.41939-0.17323q0.24617 0 0.4194 0.17323t0.17323 0.41939q0 0.24617-0.17323 0.4194zm0 5.5889h-0.83879v-4.4675h0.83879z"/>
   <path d="m368.68 532.72q0.64733-0.68379 1.6502-0.68379 1.0029 0 1.6502 0.68379 0.64733 0.67468 0.64733 1.6958t-0.64733 1.7049q-0.64733 0.67468-1.6502 0.67468-1.0029 0-1.6502-0.67468-0.64732-0.6838-0.64732-1.7049t0.64732-1.6958zm0.61997 2.8719q0.43763 0.43763 1.0303 0.43763 0.59262 0 1.0211-0.43763 0.43763-0.44675 0.43763-1.1761t-0.43763-1.167q-0.42851-0.44674-1.0211-0.44674-0.59263 0-1.0303 0.44674-0.42851 0.43763-0.42851 1.167t0.42851 1.1761z"/>
  </g>
  <g transform="matrix(.62926 0 0 .62926 105.03 175.95)" opacity=".9">
   <circle cx="400.27" cy="564.22" r="9.5055" fill="#279fdb" opacity="1" stroke="#fff" stroke-linecap="round" stroke-linejoin="round" stroke-width="1.8061"/>
   <path transform="matrix(.038117 .00014997 .00013781 -.04148 392.01 573.49)" d="m345.44 248.29-194.29 194.28c-12.359 12.365-32.397 12.365-44.75 0-12.354-12.354-12.354-32.391 0-44.744l171.91-171.91-171.91-171.9c-12.354-12.359-12.354-32.394 0-44.748 12.354-12.359 32.391-12.359 44.75 0l194.29 194.28c6.177 6.18 9.262 14.271 9.262 22.366 0 8.099-3.091 16.196-9.267 22.373z" fill="#fff"/>
  </g>
 </g>
</svg>
