<svg viewBox="0 0 48 48" xmlns="http://www.w3.org/2000/svg">
 <path d="m24 5c-1.7806 4.3649-2.8531 7.2184-4.8355 11.453 1.2154 1.2883 2.7054 2.79 5.1284 4.4844-2.6049-1.0718-4.3825-2.149-5.7104-3.2656-2.5371 5.2935-6.5103 12.836-14.577 27.328 6.1881-3.572 9.5957-5.7975 14.014-6.7031a7.9992 8 0 0 1-2.0193-5.2969 7.9992 8 0 0 1 7.9992-8 7.9992 8 0 0 1 7.9992 8 7.9992 8 0 0 1-2.0271 5.3047c4.4222 0.91582 7.8788 3.1447 14.03 6.6953-1.2332-2.2701-2.3353-4.3166-3.3864-6.2656-1.6558-1.2832-3.3828-2.9537-6.9056-4.7617 2.4214 0.62909 4.1559 1.3528 5.5073 2.1641-10.687-19.896-11.552-22.537-15.217-31.137z" fill-rule="evenodd" opacity=".2"/>
 <path d="m24.004 4c-1.7806 4.3649-2.8531 7.2184-4.8355 11.453 1.2154 1.2883 2.7054 2.79 5.1284 4.4844-2.6049-1.0718-4.3825-2.149-5.7104-3.2656-2.5371 5.2935-6.5103 12.836-14.577 27.328 6.1881-3.572 9.5957-5.7975 14.014-6.7031a7.9992 8 0 0 1-2.0193-5.2969 7.9992 8 0 0 1 7.9992-8 7.9992 8 0 0 1 7.9992 8 7.9992 8 0 0 1-2.0271 5.3047c4.4222 0.91582 7.8788 3.1447 14.03 6.6953-1.2332-2.2701-2.3353-4.3166-3.3864-6.2656-1.6558-1.2832-3.3828-2.9537-6.9056-4.7617 2.4214 0.62909 4.1559 1.3528 5.5073 2.1641-10.687-19.896-11.552-22.537-15.217-31.137z" fill="#af0500" fill-rule="evenodd"/>
 <path d="m24.004 29-1.9998 4h-3.9996l2.6677 2.668-2.6677 5.332 5.9994-2 5.9994 2-2.6677-5.332 2.6677-2.668h-3.9996z" opacity=".2"/>
 <path d="m24.004 24.999a7.9992 8 0 0 0-7.9992 8 7.9992 8 0 0 0 1.8709 5.1367c0.36643-0.11758 0.73294-0.22954 1.0975-0.33203a5.9994 7 0 0 1-0.96866-3.8047 5.9994 7 0 0 1 5.9994-7 5.9994 7 0 0 1 5.9994 7 5.9994 7 0 0 1-0.96866 3.8047c0.36342 0.10216 0.72841 0.21488 1.0936 0.33203a7.9992 8 0 0 0 1.8748-5.1367 7.9992 8 0 0 0-7.9992-8z" opacity=".2"/>
 <path d="m24.004 24a7.9992 8 0 0 0-7.9992 8 7.9992 8 0 0 0 1.8709 5.1367c0.36643-0.11758 0.73294-0.22954 1.0975-0.33203a5.9994 7 0 0 1-0.96866-3.8047 5.9994 7 0 0 1 5.9994-7 5.9994 7 0 0 1 5.9994 7 5.9994 7 0 0 1-0.96866 3.8047c0.36342 0.10216 0.72841 0.21488 1.0936 0.33203a7.9992 8 0 0 0 1.8748-5.1367 7.9992 8 0 0 0-7.9992-8z" fill="#c2c2c2"/>
 <path d="m24.004 28-1.9998 4h-3.9996l2.6677 2.668-2.6677 5.332 5.9994-2 5.9994 2-2.6677-5.332 2.6677-2.668h-3.9996z" fill="#e6e6e6"/>
 <path d="m24.004 28v6l5.9994-2h-3.9996z" fill="#f4f4f4"/>
 <path d="m24.004 34v4l-5.9994 2z" fill="#9f9f9f"/>
 <g fill="#fff">
  <path d="m24.004 28-1.9998 4h-3.9996l0.9999 1h2.9997l1.9998-4 1.9998 4h2.9997l0.9999-1h-3.9996zm-3.6637 7.3359-2.3357 4.6641 0.6015-0.19922 2.0662-4.1328zm7.3274 0-0.332 0.33203 2.0662 4.1328 0.6015 0.19922z" opacity=".2"/>
  <path d="m24.004 4c-1.7806 4.3649-2.8531 7.2184-4.8355 11.453 0.08754 0.09279 0.21402 0.20578 0.30466 0.30078 1.7608-3.8244 2.856-6.6579 4.5269-10.754 3.5584 8.3488 4.6425 11.375 14.471 29.73 0.25635 0.13418 0.51774 0.26686 0.74993 0.40625-10.687-19.896-11.552-22.537-15.217-31.137zm-5.4174 12.672c-2.5371 5.2935-6.5103 12.836-14.577 27.328 0.2947-0.17011 0.5143-0.29693 0.7968-0.46094 7.392-13.313 11.347-20.8 13.776-25.867 1.3278 1.1166 3.1055 2.1938 5.7104 3.2656-1.2802-0.89522-2.28-1.7271-3.1364-2.5117-1.0179-0.57687-1.8636-1.1599-2.5701-1.7539zm13.393 15.762a7.9992 8 0 0 1-2.0037 4.8711c0.22124 0.04582 0.43152 0.11168 0.64838 0.16406a7.9992 8 0 0 0 1.3749-4.4688 7.9992 8 0 0 0-0.0196-0.56641zm-15.952 0.0196a7.9992 8 0 0 0-0.027341 0.54681 7.9992 8 0 0 0 1.3788 4.457c0.21556-0.05166 0.42436-0.11504 0.64447-0.16016a7.9992 8 0 0 1-1.9959-4.8437zm17.682 1.5195c3.5228 1.808 5.2498 3.4785 6.9056 4.7617 0.80607 1.4946 1.6952 3.1385 2.5974 4.8047 0.2812 0.16316 0.49986 0.29179 0.79289 0.46094-1.2332-2.2701-2.3353-4.3166-3.3864-6.2656-0.94061-0.72895-1.9469-1.5903-3.2497-2.5234-1.0238-0.44399-2.2072-0.86087-3.6598-1.2383z" fill-rule="evenodd" opacity=".1"/>
  <path d="m24.004 24a7.9992 8 0 0 0-7.9992 8 7.9992 8 0 0 0 0.01954 0.42188 7.9992 8 0 0 1 7.9797-7.4219 7.9992 8 0 0 1 7.9758 7.4922 7.9992 8 0 0 0 0.023435-0.49219 7.9992 8 0 0 0-7.9992-8zm5.9799 9.457a5.9994 7 0 0 1-0.94913 3.3477c0.13515 0.03798 0.27071 0.0844 0.40621 0.125a5.9994 7 0 0 0 0.56244-2.9297 5.9994 7 0 0 0-0.0196-0.54297zm-11.96 0.10156a5.9994 7 0 0 0-0.01953 0.44141 5.9994 7 0 0 0 0.56245 2.9297c0.13556-0.0404 0.27107-0.08702 0.40621-0.125a5.9994 7 0 0 1-0.94913-3.2461z" opacity=".2"/>
 </g>
</svg>
