<svg clip-rule="evenodd" fill-rule="evenodd" stroke-linejoin="round" stroke-miterlimit="2" viewBox="0 0 48 48" xmlns="http://www.w3.org/2000/svg">
 <g transform="matrix(1.128 0 0 1.128 -3.073 -3.073)" fill-rule="nonzero">
  <path d="m24 4-6 6h4v12h4v-12h4z" fill="#f1ac3c"/>
  <path d="m22 26v12h-4l6 6 6-6h-4v-12z" fill="#87b224"/>
  <path d="m38 18v4h-12v4h12v4l6-6z" fill="#3275ba"/>
  <path d="m10 18-6 6 6 6v-4h12v-4h-12z" fill="#a23c8b"/>
 </g>
 <g stroke-width="1.128">
  <path d="m8.2074 8.2074h13.536v13.536h-13.536z" fill="#87b224"/>
  <path d="m8.2074 26.256h13.536v13.536h-13.536z" fill="#3275ba"/>
  <path d="m26.256 26.256h13.536v13.536h-13.536z" fill="#f1ac3c"/>
  <path d="m26.256 8.2074h13.536v13.536h-13.536z" fill="#a23c8b"/>
 </g>
 <path transform="matrix(1.128 0 0 1.128 -3.073 -3.073)" d="m9.857 9.857v8.487l2.829-2.828 8.486 8.484 2.828-2.828-8.484-8.486 2.828-2.829zm14.143 11.315 2.828 2.828 8.486-8.484 2.829 2.828v-8.487h-8.487l2.828 2.829zm2.828 2.828-2.828 2.828 8.484 8.486-2.828 2.829h8.487v-8.487l-2.829 2.828zm-2.828 2.828-2.828-2.828-8.486 8.484-2.829-2.828v8.487h8.487l-2.828-2.829z" fill="#fff" fill-rule="nonzero"/>
</svg>
