<svg clip-rule="evenodd" fill-rule="evenodd" stroke-linejoin="round" stroke-miterlimit="2" viewBox="0 0 48 48" xmlns="http://www.w3.org/2000/svg">
 <linearGradient id="a" x2="1" gradientTransform="matrix(-7.8e-7 -39.999 39.999 -7.8e-7 24 43.999)" gradientUnits="userSpaceOnUse">
  <stop stop-color="#2f2f2f" offset="0"/>
  <stop stop-color="#4f4f4f" offset="1"/>
 </linearGradient>
 <linearGradient id="b" x2="1" gradientTransform="matrix(0 -29.248 29.248 0 24 39.014)" gradientUnits="userSpaceOnUse">
  <stop stop-color="#32a5e8" offset="0"/>
  <stop stop-color="#00b4ff" offset="1"/>
 </linearGradient>
 <g fill-rule="nonzero">
  <path transform="matrix(1.1152 0 0 1.1152 -2.7638 -2.7638)" d="m24.107 4v.002c-.837-.021-1.664.189-2.39.605l-13.434 7.727c-1.411.811-2.283 2.316-2.283 3.939v15.453c0 1.623.873 3.127 2.283 3.938l13.434 7.726c1.411.812 3.155.812 4.566 0l13.434-7.726c1.41-.811 2.283-2.315 2.283-3.938v-15.453c0-1.623-.872-3.128-2.283-3.939l-13.434-7.727c-.662-.38-1.411-.589-2.176-.607z" fill="url(#a)"/>
  <path d="m17.309 23.563 6.691-3.864 2.23-1.287v-6.852l4.461-2.574v22.303l-13.382 7.725zm4.461 2.576v5.149l4.46-2.575v-5.15z" fill="url(#b)"/>
 </g>
</svg>
