<svg viewBox="0 0 48 48" xmlns="http://www.w3.org/2000/svg" xmlns:xlink="http://www.w3.org/1999/xlink">
 <linearGradient id="a" x1="41.273" x2="25.036" y1="1005.5" y2="1008.4" gradientUnits="userSpaceOnUse" xlink:href="#g"/>
 <linearGradient id="b" x1="74.214" x2="57.954" y1="983.25" y2="986.12" gradientTransform="matrix(-.99856 0 0 .99856 95.596 1.5037)" gradientUnits="userSpaceOnUse" xlink:href="#g"/>
 <linearGradient id="c" x1="74.214" x2="57.954" y1="983.25" y2="986.12" gradientTransform="matrix(-.99856 0 0 .99856 128.45 23.659)" gradientUnits="userSpaceOnUse" xlink:href="#g"/>
 <linearGradient id="d" x1="74.13" x2="57.893" y1="983.33" y2="986.19" gradientUnits="userSpaceOnUse" xlink:href="#g"/>
 <linearGradient id="e" x1="37.201" x2="44.405" y1="1022.6" y2="1025.5" gradientUnits="userSpaceOnUse">
  <stop stop-color="#1581ce" offset="0"/>
  <stop stop-color="#32a9e0" offset="1"/>
 </linearGradient>
 <linearGradient id="f" x1="55.027" x2="58.848" y1="1025" y2="1023.1" gradientUnits="userSpaceOnUse">
  <stop stop-color="#62c8f7" offset="0"/>
  <stop stop-color="#36aaf2" offset="1"/>
 </linearGradient>
 <linearGradient id="g" x1="74.214" x2="57.954" y1="983.25" y2="986.12" gradientUnits="userSpaceOnUse">
  <stop stop-color="#7ed6fb" offset="0"/>
  <stop stop-color="#8edcfc" offset="1"/>
 </linearGradient>
 <g transform="matrix(.66667 0 0 .66667 -8.1021 -645.27)">
  <g stroke-width=".99857">
   <path d="m47.807 984.26 21.344 13.211-21.199 13.299-21.449-13.299z" fill="#7ed6fb"/>
   <path d="m47.811 984.25 21.299 13.221 11.699-8.8662-21.449-13.299z" fill="url(#d)"/>
   <path d="m47.807 984.26-0.0011 22.671-21.199 13.299-0.10305-22.759z" fill="#62c8f7"/>
   <path d="m47.807 984.26 0.0011 22.671 21.199 13.299 0.10305-22.759z" fill="#32a9e0"/>
   <path d="m69.11 997.47-0.0011 25.728-21.199 13.299-0.10305-25.816z" fill="url(#f)"/>
   <path d="m26.504 997.47 0.0011 25.728 21.399 13.317-0.09705-25.834z" fill="url(#e)"/>
   <path d="m14.954 1006.4 21.39 13.239 11.463-8.9716-21.303-13.211z" fill="url(#a)"/>
  </g>
  <path d="m47.807 984.26-21.303 13.211-11.695-8.8565 21.448-13.299z" fill="url(#b)" stroke-width=".99856"/>
  <path d="m80.66 1006.4-21.303 13.211-11.55-8.9442 21.304-13.211z" fill="url(#c)" stroke-width=".99856"/>
 </g>
</svg>
