<svg viewBox="0 0 48 48" xmlns="http://www.w3.org/2000/svg">
 <linearGradient id="a" x1="399.99" x2="399.99" y1="545.14" y2="518.14" gradientUnits="userSpaceOnUse">
  <stop stop-color="#4469b9" offset="0"/>
  <stop stop-color="#5d91ff" offset="1"/>
 </linearGradient>
 <linearGradient id="b" x1="399.57" x2="399.57" y1="545.8" y2="517.8" gradientUnits="userSpaceOnUse">
  <stop stop-color="#3889e9" offset="0"/>
  <stop stop-color="#5ea5fb" offset="1"/>
 </linearGradient>
 <g transform="matrix(1.661 0 0 1.661 -641.34 -859.31)" stroke-width="1.2999">
  <circle cx="400.57" cy="531.8" r="14" fill="url(#a)"/>
  <circle cx="400.57" cy="531.8" r="0" fill="url(#b)"/>
 </g>
 <path transform="matrix(.11906 0 0 .11906 -63.866 4.673)" d="m871.51274 147.40376c-.425-3.778-4.83-6.617-8.639-6.617-12.315 0-23.243-7.231-27.826-18.414-4.682-11.454-1.663-24.811997 7.515-33.230997 2.889-2.641 3.24-7.062.817-10.133-6.303-8.004-13.467-15.234-21.289-21.5-3.063-2.458-7.557-2.116-10.213.825-8.01 8.871-22.398 12.168-33.516 7.529-11.57-4.867-18.866-16.591-18.152-29.176.235-3.953-2.654-7.39-6.595-7.849-10.038-1.161-20.164-1.197-30.232-.08-3.896.43-6.785 3.786-6.654 7.689.438 12.461-6.946 23.98-18.401 28.672-10.985 4.487-25.272 1.218-33.266-7.574-2.642-2.896-7.063-3.252-10.141-.853-8.054 6.319-15.379 13.555-21.74 21.493-2.481 3.086-2.116 7.559.802 10.214 9.353 8.47 12.373 21.943997 7.514 33.529997-4.639 11.046-16.109 18.165-29.24 18.165-4.261-.137-7.296 2.723-7.762 6.597-1.182 10.096-1.196 20.383-.058 30.561.422 3.794 4.961 6.608 8.812 6.608 11.702-.299 22.937 6.946 27.65 18.415 4.698 11.454 1.678 24.804-7.514 33.23-2.875 2.641-3.24 7.055-.817 10.126 6.244 7.953 13.409 15.19 21.259 21.508 3.079 2.481 7.559 2.131 10.228-.81 8.04-8.893 22.427-12.184 33.501-7.536 11.599 4.852 18.895 16.575 18.181 29.167-.233 3.955 2.67 7.398 6.595 7.85 5.135.599 10.301.898 15.481.898 4.917 0 9.835-.27 14.752-.817 3.897-.43 6.784-3.786 6.653-7.696-.451-12.454 6.946-23.973 18.386-28.657 11.059-4.517 25.286-1.211 33.281 7.572 2.657 2.89 7.047 3.239 10.142.848 8.039-6.304 15.349-13.534 21.74-21.494 2.48-3.079 2.13-7.559-.803-10.213-9.353-8.47-12.388-21.946-7.529-33.524 4.568-10.899 15.612-18.217 27.491-18.217l1.662.043c3.853.313 7.398-2.655 7.865-6.588 1.184-10.105 1.198-20.383.06-30.561z" clip-rule="evenodd" fill="#fff" fill-opacity=".84694" fill-rule="evenodd" stroke-width="1.3174"/>
 <path transform="matrix(.84852 0 0 .84852 -349.2 -426.96)" d="m438.46 530.12v-3.062c0-3.1888 2.5848-5.7738 5.7737-5.7738 0.48374 0 0.82746 0.0548 1.2752 0.1717 0.65298 0.17129 1.1863 0.70621 1.1866 1.3289 2.9e-4 0.75281-0.54614 1.3-1.3628 1.3-0.38906 0-0.52966-0.0745-1.0993-0.0745-1.6812 0-3.0445 1.3616-3.0473 3.0428v2.6345c0 0.23793 0.19228 0.43022 0.43001 0.43022h2.0026c0.74576 0 1.3479 0.59706 1.3485 1.3447 0 0.74805-0.60308 1.3437-1.3485 1.3437h-2.4326v3.0746c0 3.1885-2.585 5.7734-5.7734 5.7734-0.48384 0-0.82758-0.0548-1.2753-0.17177-0.65298-0.17116-1.1865-0.70639-1.1868-1.3289 0-0.75256 0.54605-1.3 1.363-1.3 0.38867 0 0.52966 0.0746 1.099 0.0746 1.6812 0 3.0449-1.3617 3.0475-3.0424v-2.6483c0-0.23739-0.19278-0.42968-0.4305-0.42968h-2.0021c-0.74594 0-1.3486-0.59513-1.3486-1.3434-2e-4 -0.75238 0.60891-1.345 1.3628-1.345h2.4181v-6e-5z" fill="#507ddb"/>
</svg>
