<svg viewBox="0 0 64 64" xmlns="http://www.w3.org/2000/svg">
 <path d="m53.946 16.988c-0.138 1.5264-0.588 3.0512-1.4 4.4698-3.014 5.272-9.7299 7.104-15.004 4.088-3.232-1.848-5.166-5.0888-5.488-8.5341-0.372 4.1502 1.634 8.3321 5.488 10.534 5.274 3.016 11.99 1.184 15.004-4.088 1.168-2.04 1.602-4.2958 1.4-6.4698zm-43.864 2.937c-0.424 3.1342 1.035 6.3542 3.9492 8.0201 3.8352 2.192 8.7207 0.858 10.915-2.978 0.88199-1.544 1.166-3.256 0.97199-4.8976-0.134 0.99159-0.446 1.9756-0.97199 2.8976-2.194 3.836-7.0796 5.17-10.915 2.978-2.2902-1.31-3.6614-3.586-3.9492-6.0202zm-3.9844 17.032c-0.4182 2.772 0.84799 5.64 3.4298 7.116 3.3556 1.918 7.6284 0.754 9.5467-2.602 0.8-1.398 1.0358-2.952 0.8282-4.432-0.1254 0.83-0.3856 1.658-0.8282 2.432-1.9184 3.356-6.1912 4.52-9.5467 2.602-1.9574-1.118-3.1406-3.046-3.4298-5.116zm35.984 0.96799c-0.424 3.134 1.036 6.354 3.95 8.0199 3.834 2.192 8.7199 0.858 10.914-2.978 0.882-1.544 1.166-3.256 0.97199-4.898-0.134 0.99199-0.446 1.976-0.97199 2.898-2.194 3.836-7.08 5.17-10.914 2.978-2.292-1.31-3.662-3.586-3.95-6.02zm3.824 13.02c-0.102 0.742-0.294 1.484-0.648 2.19-1.732 3.456-5.94 4.854-9.3939 3.122-2.108-1.058-3.438-3.04-3.77-5.208-0.396 2.886 1.02 5.83 3.77 7.208 3.454 1.732 7.662 0.334 9.3939-3.122 0.676-1.346 0.86199-2.806 0.648-4.19zm-31.792 1.026c-0.4216 2.42 0.6554 4.946 2.9102 6.236 2.8764 1.644 6.5386 0.644 8.1845-2.232 0.712-1.248 0.89799-2.638 0.678-3.952-0.116 0.668-0.324 1.33-0.678 1.952-1.646 2.876-5.3082 3.876-8.1845 2.232-1.629-0.93199-2.6248-2.518-2.9102-4.236z" opacity=".2"/>
 <path d="m22.978 46.793c2.8764 1.6443 3.875 5.309 2.2308 8.1851-1.6443 2.8764-5.309 3.875-8.1851 2.2308-2.8772-1.644-3.876-5.308-2.2316-8.1859 1.6442-2.876 5.308-3.874 8.1859-2.23z" fill="#ffcf3f"/>
 <path d="m16.473 30.925c3.3558 1.9183 4.521 6.1938 2.6026 9.5495-1.9184 3.356-6.1938 4.52-9.5493 2.602-3.3558-1.918-4.521-6.194-2.6026-9.5499 1.9184-3.356 6.1938-4.52 9.5493-2.602z" fill="#7cc327"/>
 <path d="m21.97 13.057c3.834 2.1924 5.166 7.078 2.974 10.914-2.192 3.834-7.0786 5.166-10.914 2.974-3.8352-2.192-5.1668-7.0786-2.9744-10.914 2.1924-3.8352 7.0786-5.1668 10.914-2.9744z" fill="#27adc3"/>
 <path d="m48.458 7.4528c5.2732 3.0146 7.1042 9.7331 4.0898 15.006-3.0146 5.2732-9.7331 7.1042-15.006 4.0898-5.2732-3.0146-7.1042-9.7331-4.0898-15.006 3.0146-5.2732 9.7331-7.1042 15.006-4.0898z" fill="#ffcf3f"/>
 <path d="m53.97 31.057c3.835 2.1924 5.1668 7.0786 2.9744 10.914-2.1924 3.835-7.0786 5.1668-10.914 2.9744-3.835-2.1924-5.1668-7.0786-2.9744-10.914 2.1924-3.835 7.0786-5.1668 10.914-2.9744z" fill="#7cc327"/>
 <path d="m42.138 44.745c3.455 1.7327 4.8512 5.9382 3.1186 9.3931-1.7327 3.455-5.9382 4.8512-9.3931 3.1186-3.455-1.7327-4.8512-5.9382-3.1186-9.3931 1.7327-3.455 5.9382-4.8512 9.3931-3.1186z" fill="#27adc3"/>
 <path d="m43.25 6.0039c-3.9-0.084799-7.7249 1.9137-9.7969 5.5391-1.0666 1.8627-1.5146 3.9043-1.4316 5.9004 0.081923-1.6709 0.54284-3.3462 1.4316-4.8984 2.072-3.6254 5.8969-5.6239 9.7969-5.5391 1.774 0.0384 3.559 0.50702 5.207 1.4492 3.3777 1.9313 5.3356 5.381 5.5176 8.998 0.1611-3.9704-1.8294-7.8912-5.5176-10-1.648-0.94219-3.433-1.4108-5.207-1.4492zm-24.684 6.0156c-0.387-0.0272-0.77225-0.024893-1.1562 0.003907-2.5606 0.192-4.9851 1.611-6.3555 4.0078-0.7888 1.3799-1.0772 2.8919-0.99609 4.3691 0.077313-1.1501 0.3852-2.2985 0.99609-3.3672 1.3704-2.3968 3.7949-3.8158 6.3555-4.0078 0.384-0.0288 0.76925-0.031107 1.1562-0.003907 1.161 0.081 2.3224 0.41856 3.4004 1.0352 2.4208 1.3835 3.8183 3.8406 3.9863 6.4277 0.17762-2.9411-1.2539-5.868-3.9863-7.4297-1.078-0.6166-2.2394-0.95416-3.4004-1.0352zm-5.0703 17.998c-0.3386-0.024-0.67572-0.022094-1.0117 0.003906-2.2404 0.168-4.3596 1.4098-5.5586 3.5078-0.70712 1.2366-0.95238 2.5899-0.86133 3.9121 0.070306-0.99473 0.3322-1.9868 0.86133-2.9121 1.199-2.098 3.3182-3.3398 5.5586-3.5078 0.336-0.026 0.67312-0.027906 1.0117-0.003906 1.016 0.071999 2.0328 0.37016 2.9766 0.91016 2.1017 1.2015 3.3114 3.3266 3.4707 5.5703 0.18588-2.5964-1.0579-5.1929-3.4707-6.5723-0.94379-0.54-1.9606-0.8362-2.9766-0.9082zm37.068 0.003906c-0.386-0.028-0.7703-0.026093-1.1543 0.003907-2.56 0.192-4.9874 1.6098-6.3574 4.0078-0.78858 1.3805-1.0759 2.8889-0.99414 4.3672 0.077198-1.1498 0.38352-2.2983 0.99414-3.3672 1.37-2.398 3.7974-3.8158 6.3574-4.0078 0.384-0.03 0.7683-0.031907 1.1543-0.003907 1.162 0.079999 2.3244 0.41721 3.4023 1.0332 2.4208 1.384 3.8183 3.8426 3.9863 6.4297 0.17762-2.941-1.2539-5.8675-3.9863-7.4297-1.078-0.616-2.2404-0.9532-3.4023-1.0332zm-11.107 13.996c-2.722-0.176-5.4149 1.2557-6.7148 3.8477-0.58221 1.1593-0.78254 2.4004-0.69531 3.6074 0.061964-0.88295 0.27328-1.7671 0.69531-2.6074 1.3-2.592 3.9929-4.0237 6.7148-3.8477 0.906 0.057999 1.8137 0.29261 2.6777 0.72461 2.2814 1.144 3.6271 3.3677 3.7988 5.7402 0.19018-2.7321-1.1984-5.4362-3.7988-6.7402-0.864-0.432-1.7717-0.66661-2.6777-0.72461zm-19.898 1.998c-1.9204 0.144-3.738 1.2118-4.7656 3.0098-0.61933 1.0829-0.82365 2.2701-0.72852 3.4258 0.067435-0.82907 0.2873-1.6543 0.72852-2.4258 1.0276-1.798 2.8452-2.8638 4.7656-3.0078 1.1514-0.086 2.338 0.1594 3.416 0.77539 1.7722 1.0143 2.8046 2.793 2.9668 4.6816 0.1802-2.2428-0.8833-4.4892-2.9668-5.6816-1.078-0.616-2.2646-0.86334-3.416-0.77734z" fill="#fff" opacity=".2"/>
</svg>
