<svg viewBox="0 0 48 48" xmlns="http://www.w3.org/2000/svg">
 <linearGradient id="a" x1="409.04" x2="408.67" y1="547.09" y2="500.8" gradientUnits="userSpaceOnUse">
  <stop stop-color="#cdddf3" offset="0"/>
  <stop stop-color="#fbfdf8" offset="1"/>
 </linearGradient>
 <linearGradient id="b" x1="72.592" x2="76.368" y1="4.6073" y2="183.86" gradientTransform="matrix(.25303 0 0 -.25303 388.93 547.18)" gradientUnits="userSpaceOnUse">
  <stop stop-color="#109d59" offset="0"/>
  <stop stop-color="#30aa6f" offset="1"/>
 </linearGradient>
 <g transform="translate(-384.57 -499.8)">
  <path d="m407.48845 500.61194c-.0218.051-.0627.049-.10248.047-.0121-.0008-.0245 0-.0359-.0005-.67965.061-1.35702.1374-2.02782.2647-4.90557.9296-8.93387 3.338-12.05227 7.2289-2.56475 3.1996-3.97719 6.8701-4.28235 10.9627-.0367.4927-.0554.9843-.0562 1.4747v.064c.002 1.4615.16447 2.9122.48633 4.3481.32313 1.4423.80516 2.8355 1.45343 4.1675.0569.1136.11336.2272.17105.3401 1.06502 2.0971 2.43495 3.9661 4.15204 5.5802.90409.8496 1.86967 1.6181 2.91596 2.2823 3.20443 2.0339 6.70237 3.1005 10.50244 3.1483.23279 0 .2963.061.29529.2988-.0106 2.0339-.006 4.0683-.006 6.1022.00025.079.007.1576.0106.2558.0658-.027.10703-.042.14676-.061 3.82005-1.7948 7.32787-4.0627 10.45512-6.9056.62195-.5658 1.21734-1.1581 1.79021-1.775.24519-.2642.48811-.5329.73405-.7961.37956-.4061.70799-.8598 1.06578-1.2866.41321-.493.78416-1.017 1.15005-1.5443.8092-1.1655 1.53136-2.3813 2.13864-3.6657.30718-.6496.59969-1.3039.85854-1.9734.009-.013.0202-.024.0256-.038.70546-1.8342 1.15738-3.732 1.39852-5.6791.084-.6781.13841-1.3608.17257-2.0427.0154-.3082.0233-.6159.0238-.9231v-.067c-.002-1.1341-.10501-2.2627-.31022-3.3823-.70672-3.853-2.39395-7.2189-5.05941-10.0908-1.12499-1.2125-2.3851-2.2662-3.77654-3.1606-2.59132-1.666-5.41468-2.6868-8.47614-3.0483-.37322-.044-.75176-.039-1.11967-.1263h-2.64193z" fill="url(#b)"/>
  <path transform="translate(384.57 499.8)" d="m14.641 14.387c-0.22976 0-0.42085 0.090201-0.5957 0.23828-0.32211 0.2735-0.35567 0.63107-0.32227 1.0137-1e-3 2.396-0.006906 4.7917-0.003906 7.1875 3e-4 0.24387 0.10777 0.47106 0.27734 0.64062l2.877 2.877c-0.030494 0.024229-0.062421 0.046187-0.089844 0.076172-0.17711 0.1953-0.088902 0.43114-0.10156 0.65234l-0.001953 2.2539c0.038 0.0919 0.086314 0.17026 0.14648 0.23047l14.07 14.07c1.4087-0.981 2.762-2.0468 4.0469-3.2148 0.62195-0.5658 1.2162-1.1585 1.7891-1.7754 0.24519-0.2642 0.48844-0.53172 0.73438-0.79492 0.37956-0.4061 0.70862-0.86031 1.0664-1.2871 0.41321-0.493 0.7845-1.0176 1.1504-1.5449 0.8092-1.1655 1.5314-2.3816 2.1387-3.666 0.30718-0.6496 0.59857-1.3032 0.85742-1.9727 9e-3 -0.013 0.01999-0.02311 0.02539-0.03711 0.65631-1.7064 1.0841-3.4704 1.3359-5.2754l-9.3809-9.3809c-0.1779-0.17789-0.42173-0.29144-0.68555-0.29102h-4.0312c-0.97039 0-1.942-6e-4 -2.9121 0-0.17611 0-0.34105 0.040697-0.49414 0.13672-0.39319 0.2464-0.52071 0.60798-0.47461 1.0508 2e-3 0.023 0.003906 0.045359 0.003906 0.068359-7.83e-4 0.92703-0.002996 1.8541-0.003906 2.7812l-3.7461-3.7461c-0.17785-0.17785-0.42155-0.29144-0.68555-0.29102-0.98481-3e-4 -1.9703 0-2.9551 0-0.53846 0-1.0768 3e-4 -1.6152 0z" fill-opacity=".078431"/>
  <path d="m399.21206 514.18472c-.22976 0-.42086.0902-.59571.23828-.32211.2735-.35566.63107-.32226 1.01367-.001 2.396-.007 4.7917-.004 7.1875.00051.4162.311.78604.71484.89844.1331.032.26716.0407.4043.041 1.58425 0 3.1694.01 4.7539.01-.0273.1172-.0534.23496-.082.35156-.18193.7412-.59374 1.30943-1.2539 1.70313-.35855.2138-.75692.29357-1.15039.39257-.13436.0341-.23447.10127-.32227.19727-.17711.1953-.0889.43114-.10156.65234l-.002 2.25391c.10096.2442.27663.39447.54687.35547.34944-.0514.69816-.10427 1.04102-.19727.80592-.2184 1.51764-.61564 2.17578-1.11914.065-.0628.12931-.12745.19531-.18945 1.26795-1.1816 1.94218-2.63879 1.95508-4.37109.0199-2.61051.006-5.22124.006-7.83204 0-.1202.009-.24262-.0391-.35742.19736-.6081-.31305-1.22951-.92969-1.22851-.98481-.0003-1.97028 0-2.95508 0-.53846 0-1.07677.0003-1.61523 0h-2.41992zm12.39062 0c-.17611 0-.34105.0407-.49414.13672-.39319.2464-.52071.60798-.47461 1.05078.002.023.004.0454.004.0684-.002 2.3664-.005 4.73371-.006 7.09961-.00025.6009.40793 1.01344 1.00586 1.02344.10602.0005.21234.0002.31836 0 .0531-.0003.10726 0 .16015 0 1.4638 0 2.92708.01 4.39063.01-.11614.664-.37209 1.25175-.87891 1.72265-.42206.3922-.93406.56515-1.47656.68946-.42738.0979-.56004.24379-.56055.58789 0 .0984.004.19592.006.29492-.004.4479-.008.8978-.0117 1.3457.002.2505.003.4997.006.75.004.3567.27195.55786.62696.50586.46507-.0683.92018-.17523 1.37109-.30273.017-.01.0341-.0193.0508-.0293.0298-.008.0604-.0134.0898-.0234.0529-.027.10526-.0571.16016-.0801 2.15813-.8976 3.62104-3.08343 3.62304-5.41993.002-2.6154.002-5.2306.002-7.8457 0-.1202.008-.24067-.0391-.35547.19737-.6081-.31355-1.22951-.92968-1.22851h-4.03125c-.97039 0-1.94198-.0006-2.91211 0z" fill="url(#a)"/>
 </g>
</svg>
