<svg clip-rule="evenodd" fill-rule="evenodd" stroke-linejoin="round" stroke-miterlimit="2" viewBox="0 0 48 48" xmlns="http://www.w3.org/2000/svg">
 <linearGradient id="a" x2="1" gradientTransform="matrix(-2.6101 -31.042 31.042 -2.6101 97.634 27.551)" gradientUnits="userSpaceOnUse">
  <stop stop-color="#80b3ff" offset="0"/>
  <stop stop-color="#80b3ff" offset="1"/>
 </linearGradient>
 <linearGradient id="b" x2="1" gradientTransform="matrix(-1.1399 26.777 -26.777 -1.1399 -374.36 1.9349)" gradientUnits="userSpaceOnUse">
  <stop stop-color="#61a0ff" offset="0"/>
  <stop stop-color="#2a7fff" offset="1"/>
 </linearGradient>
 <linearGradient id="c" x2="1" gradientTransform="matrix(.32166 -22.109 22.109 .32166 73.368 24.643)" gradientUnits="userSpaceOnUse">
  <stop stop-color="#afc6e9" offset="0"/>
  <stop stop-color="#abcbfb" offset="1"/>
 </linearGradient>
 <linearGradient id="d" x2="1" gradientTransform="matrix(-1.3983 -15.661 15.661 -1.3983 73.676 14.5)" gradientUnits="userSpaceOnUse">
  <stop stop-color="#d5e5ff" offset="0"/>
  <stop stop-color="#ebebeb" offset="1"/>
 </linearGradient>
 <linearGradient id="e" x2="1" gradientTransform="matrix(-.92286 -49.8 49.8 -.92286 452.82 -1114.5)" gradientUnits="userSpaceOnUse">
  <stop stop-color="#0d5ec2" offset="0"/>
  <stop stop-color="#38b2fa" offset="1"/>
 </linearGradient>
 <path d="m46.764 24c0 12.624-10.14 22.764-22.764 22.764s-22.764-10.14-22.764-22.764 10.14-22.764 22.764-22.764 22.764 10.14 22.764 22.764z" fill="url(#a)" fill-rule="nonzero"/>
 <path d="m1.244 23.888c.702-9.457 12.037-15.759 22.756.526 9.309 14.275 20.894 10.349 22.556 2.697-1.506 11.138-10.988 19.653-22.556 19.653-12.624 0-22.764-10.14-22.764-22.764l.008-.112z" fill="url(#b)"/>
 <path d="m24 1.236c12.284 0 22.218 9.603 22.742 21.752-3.111 3.295-9.305 4.506-15.706-5.61-7.864-13.245-16.349-15.107-24.626-7.864v-5e-3c4.166-5.06 10.485-8.273 17.59-8.273z" fill="url(#c)"/>
 <path d="m16.824 2.396c2.24-.756 4.659-1.16 7.176-1.16 10.403 0 19.12 6.886 21.845 16.366-2.643.805-4.704.549-7.98-4.57-4.78-7.369-11.669-13.014-21.041-10.636z" fill="url(#d)"/>
 <path d="m3.298 33.467c-1.378-6.613 5.63-11.49 13.459-1.189 9.312 12.21 20.901 10.761 26.282 4.139v.087c-4.051 6.197-11.048 10.26-19.039 10.26-9.226 0-17.125-5.416-20.702-13.297z" fill="url(#e)"/>
</svg>
