<svg viewBox="0 0 48 48" xmlns="http://www.w3.org/2000/svg">
 <linearGradient id="a" x1="400.57" x2="400.57" y1="545.8" y2="517.8" gradientUnits="userSpaceOnUse">
  <stop stop-color="#1365f4" offset="0"/>
  <stop stop-color="#05b2fc" offset="1"/>
 </linearGradient>
 <g transform="translate(-486.76 -502.73)" stroke-width="1.3174">
  <rect transform="matrix(1.6347 0 0 1.6347 -144.07 -342.62)" x="386.57" y="517.8" width="28" height="28" ry="14" fill="url(#a)"/>
  <path d="m519.41 520.69s-3.3071-6.4793-4.7565 0.29293c-2.0538 1.0451-5.3474-0.55708-9.2806-0.27784-1.355 0.0965-11.169-0.1239-11.172 8.579-3e-3 5.5612 3.7109 8.418 6.09 8.5202 0.54922 0.0223 2.6824 0 2.82-7e-3 0.73051-0.0337 1.5219-0.0681 1.5312-0.45189 0.0189-0.80614-3.0978-1.1363-3.3422-1.3107-0.24277-0.17453-0.24277-1.2426 1.1837-0.85976 2.4711 0.69655 6.7065 0.2445 7.6809-0.0338 0.97438-0.27972 1.6134 1.1596 2.17 1.926 0.55693 0.76605 1.4269 0.73036 1.4269 0.73036h3.6906c0.73036 0 0.48712-0.8192-1.1142-1.1668-1.6013-0.34812-0.71133-1.1579 0-1.8606 0.65504-0.64702 2.3161-2.3698 3.5497-2.5763 8.18-1.392 8.0683-6.4397 7.9636-7.205 2.2092-2.0827-6.7006-4.1927-8.4407-4.2985z" fill="#fff" fill-opacity=".85484"/>
 </g>
</svg>
