<svg viewBox="0 0 48 48" xmlns="http://www.w3.org/2000/svg">
 <g transform="matrix(2 0 0 2 2 2)">
  <path d="m21 1.5003-8 6s4 4 7 1c1-1 1-7 1-7z" opacity=".2"/>
  <path d="m1 1.5003 8 6s-4 4-7 1c-1-1-1-7-1-7z" opacity=".2"/>
  <path d="m21 1-8 6s4 4 7 1c1-1 1-7 1-7z" fill="#b73c0d"/>
  <path d="m21 1-8 6s0.21133 0.17764 0.31055 0.26758l7.6816-5.7617c0.002335-0.18556 0.007812-0.50586 0.007812-0.50586z" fill="#fff" opacity=".1"/>
  <path d="m1 1 8 6s-4 4-7 1c-1-1-1-7-1-7z" fill="#b73c0d"/>
  <path d="m1 1s0.00548 0.3203 0.00781 0.50586l7.6816 5.7617c0.099214-0.089941 0.31055-0.26758 0.31055-0.26758z" fill="#fff" opacity=".1"/>
  <circle cx="11" cy="12.5" r="9" opacity=".2"/>
  <circle cx="11" cy="12" r="9" fill="#e5490e"/>
  <path d="m4 12.5 2-1 4 3-2 1z" opacity=".1"/>
  <path d="m4 12 2-1 4 3-2 1z" fill="#4f4f4f"/>
  <path d="m18 12.5-2-1-4 3 2 1z" opacity=".1"/>
  <path d="m18 12-2-1-4 3 2 1z" fill="#4f4f4f"/>
  <path d="m11 3a9 9 0 0 0-9 9 9 9 0 0 0 0.00977 0.28711 9 9 0 0 1 8.9902-8.7871 9 9 0 0 1 8.9902 8.7129 9 9 0 0 0 0.009766-0.21289 9 9 0 0 0-9-9z" fill="#fff" opacity=".2"/>
 </g>
</svg>
