<svg viewBox="0 0 48 48" xmlns="http://www.w3.org/2000/svg">
 <linearGradient id="a" x1="510.62" x2="510.9" y1="550.88" y2="503.34" gradientUnits="userSpaceOnUse">
  <stop stop-color="#323232" offset="0"/>
  <stop stop-color="#969696" offset="1"/>
 </linearGradient>
 <g transform="translate(-486.76 -502.73)" stroke-width="1.3174">
  <path d="m533 512.86c-0.0147-1.1229-0.87882-2.0506-1.9968-2.1532-9.2911-0.86906-16.873-5.8344-19.373-7.6506-0.52241-0.38083-1.2304-0.38083-1.7528 0-2.4949 1.8162-10.077 6.7816-19.368 7.6506-1.1181 0.10258-1.9774 1.0302-1.9969 2.1532-0.1123 7.3284 1.0644 32.209 21.683 37.745 0.36617 0.0977 0.75188 0.0977 1.1181 0 20.618-5.5317 21.795-30.417 21.687-37.745z" fill="url(#a)"/>
  <path transform="translate(486.76 502.73)" d="m23.971 5.8301c-0.2364 0-0.47308 0.072958-0.67383 0.2207-1.9175 1.4093-7.744 5.2632-14.885 5.9375-0.85929 0.0796-1.5201 0.7986-1.5352 1.6699-0.0863 5.6863 0.81784 24.993 16.664 29.289 0.28143 0.0758 0.57794 0.0758 0.85938 0 15.846-4.2922 16.751-23.603 16.668-29.289-0.0113-0.87132-0.67395-1.5903-1.5332-1.6699-7.1408-0.67432-12.969-4.5282-14.891-5.9375-0.20075-0.14774-0.43743-0.2207-0.67383-0.2207zm2.9863 10.186c2.7798 0 5.0273 2.2475 5.0273 5.0273 0 2.7798-2.2475 5.0273-5.0273 5.0273-0.65058 0-1.2411-0.11945-1.7734-0.29687l-2.6621 2.6621h-1.7754v1.7754h-1.7734v1.7734h-2.957v-2.957l6.2109-6.2109c-0.17742-0.59145-0.29687-1.182-0.29687-1.7734 0-2.7798 2.2476-5.0273 5.0273-5.0273zm1.4785 1.7734c-1.0055 0-1.7734 0.76991-1.7734 1.7754s0.76797 1.7734 1.7734 1.7734c1.0055 0 1.7754-0.76796 1.7754-1.7734s-0.76991-1.7754-1.7754-1.7754z" fill="#fff" fill-opacity=".85098"/>
 </g>
</svg>
