<svg viewBox="0 0 48 48" xmlns="http://www.w3.org/2000/svg">
 <path d="m16 5a4 4 0 0 0-4 4 4 4 0 0 0 4 4 4 4 0 0 0 4-4 4 4 0 0 0-4-4zm16 0a4 4 0 0 0-4 4 4 4 0 0 0 4 4 4 4 0 0 0 4-4 4 4 0 0 0-4-4zm-25 13a5 7 0 0 0-5 7 5 7 0 0 0 5 7 5 7 0 0 0 5-7 5 7 0 0 0-5-7zm34 0a5 7 0 0 0-5 7 5 7 0 0 0 5 7 5 7 0 0 0 5-7 5 7 0 0 0-5-7z" opacity=".2"/>
 <path d="m16 4a4 4 0 0 0-4 4 4 4 0 0 0 4 4 4 4 0 0 0 4-4 4 4 0 0 0-4-4zm16 0a4 4 0 0 0-4 4 4 4 0 0 0 4 4 4 4 0 0 0 4-4 4 4 0 0 0-4-4zm-25 13a5 7 0 0 0-5 7 5 7 0 0 0 5 7 5 7 0 0 0 5-7 5 7 0 0 0-5-7zm34 0a5 7 0 0 0-5 7 5 7 0 0 0 5 7 5 7 0 0 0 5-7 5 7 0 0 0-5-7z" fill="#868686"/>
 <path d="m16 4a4 4 0 0 0-4 4 4 4 0 0 0 0.035156 0.50586 4 4 0 0 1 3.9648-3.5059 4 4 0 0 1 3.9648 3.4941 4 4 0 0 0 0.035156-0.49414 4 4 0 0 0-4-4zm16 0a4 4 0 0 0-4 4 4 4 0 0 0 0.035156 0.50586 4 4 0 0 1 3.9648-3.5059 4 4 0 0 1 3.9648 3.4941 4 4 0 0 0 0.035156-0.49414 4 4 0 0 0-4-4zm-25 13a5 7 0 0 0-5 7 5 7 0 0 0 0.015625 0.45117 5 7 0 0 1 4.9844-6.4512 5 7 0 0 1 4.9844 6.5488 5 7 0 0 0 0.015625-0.54883 5 7 0 0 0-5-7zm34 0a5 7 0 0 0-5 7 5 7 0 0 0 0.015625 0.45117 5 7 0 0 1 4.9844-6.4512 5 7 0 0 1 4.9844 6.5488 5 7 0 0 0 0.015625-0.54883 5 7 0 0 0-5-7z" fill="#fff" opacity=".1"/>
 <circle cx="24" cy="25" r="19" opacity=".2"/>
 <circle cx="24" cy="24" r="19" fill="#e4e4e4"/>
 <path d="m40 24c0 8.8366-7.1634 12-16 12s-16-3.1634-16-12 7.1634-16 16-16 16 7.1634 16 16z" fill="#3f3f3f"/>
 <path d="m21.158 10.951c-2.2622 0.063757-3.2536 0.5103-5.6387 3.0586l-0.21289 6.5176 0.085937 1.7988 0.041016 6.8555c0.29857 2.3596 0.39418 4.2754 0.71094 5.7344 2.3217 0.74626 4.9983 1.084 7.8555 1.084 2.966 0 5.7338-0.36806 8.1152-1.1758 0.61433-2.7888 0.080248-6.9073 0.49609-10.281l0.16797-4.3711-0.29883-4.9004c-0.76248-3.1845-5.2126-4.4866-8.5391-4.3203-1.1355 0-2.0292-0.021253-2.7832 0z" fill="#84bd08"/>
 <circle cx="17" cy="27" r="3" opacity=".2"/>
 <circle cx="17" cy="26" r="3" fill="#fff"/>
 <circle cx="16" cy="26" r="1" fill="#3f3f3f"/>
 <path d="m18 32s1.7081 1 5.8541 1 6.1459-1 6.1459-1" fill="none" opacity=".5" stroke="#000" stroke-linecap="round" stroke-linejoin="round" stroke-width="2"/>
 <path d="m15.022 15.729 0.30551 6.4455c0.92443-3.3205-1.4265-8.659 3.1149-9.1747 2.3241-0.26393 2.5971 2.1161 4.1865 2 1.4861-0.10859 1.5084-3.7101 5.3577-3 4.3109 0.7952 4.0048 6.0695 4.7733 10.175l0.23692-6.0966c0.06416-2.6286-0.96939-3.4798-2.402-4.5788-1.7657-1.1436-3.8379-1.4707-6.5948-1.4707-2.785-0.18455-5.8605 0.51261-7.8362 2.397-1.1752 1.075-1.2145 1.7698-1.1418 3.3035z" fill="#2e2e2e"/>
 <g transform="scale(-1 1)">
  <circle cx="-31" cy="27" r="3" opacity=".2"/>
  <circle cx="-31" cy="26" r="3" fill="#fff"/>
  <circle cx="-32" cy="26" r="1" fill="#3f3f3f"/>
 </g>
 <path d="m8.0254 23.492c-0.0053472 0.17005-0.025391 0.33646-0.025391 0.50781 0 8.8366 7.1634 12 16 12s16-3.1634 16-12c0-0.17135-0.020043-0.33776-0.025391-0.50781-0.26951 8.4517-7.3088 11.508-15.975 11.508s-15.705-3.0561-15.975-11.508z" opacity=".2"/>
 <path d="m24 5a19 19 0 0 0-19 19 19 19 0 0 0 0.021484 0.5918 19 19 0 0 1 18.979-18.592 19 19 0 0 1 18.979 18.408 19 19 0 0 0 0.021484-0.4082 19 19 0 0 0-19-19z" fill="#fff" opacity=".2"/>
 <rect x="12" y="41" width="24" height="4" rx="2" opacity=".2"/>
 <rect x="12" y="40" width="24" height="4" rx="2" fill="#868686"/>
</svg>
