<svg viewBox="0 0 48 48" xmlns="http://www.w3.org/2000/svg">
 <path d="m24 7c-11.08 0-20 8.92-20 20 0 6.5674 3.1479 12.358 8.0078 16h23.984c4.8599-3.642 8.0078-9.4326 8.0078-16 0-11.08-8.92-20-20-20z" fill="#000a10" opacity=".2"/>
 <path d="m24 6c-11.08 0-20 8.92-20 20 0 6.5674 3.1479 12.358 8.0078 16h23.984c4.8599-3.642 8.0078-9.4326 8.0078-16 0-11.08-8.92-20-20-20z" fill="#2d96d0"/>
 <path d="m24 6c-11.079 0-19.998 8.92-19.998 20 0 0.168-4e-3 0.333 0 0.5 0.26438-10.846 9.0872-19.5 19.998-19.5s19.734 8.654 19.998 19.5c4e-3 -0.167 0-0.332 0-0.5 0-11.08-8.9192-20-19.998-20z" fill="#fff" opacity=".2"/>
 <path d="m24 17a15 15 0 0 0-15 15 15 15 0 0 0 3.8438 10h22.316a15 15 0 0 0 3.8398-10 15 15 0 0 0-15-15z" fill="#f4deb9"/>
 <path d="m24 18c-5.3318 0-10.01 2.7852-12.67 6.9766-0.38799 0.50734-0.73004 1.0367-0.97852 1.6035-0.39046 0.89065-0.6806 1.8127-0.90039 2.8086-0.14625 0.59091-0.26989 1.1904-0.34375 1.8066-0.00657 0.05485 0.010185 0.06637 0.037109 0.05859-0.02819 0.23735-0.064009 0.46236-0.085937 0.71094-0.0703 0.7969-0.077078 1.123-0.023438 1.123l8.9648-10.088-1.9316 8.0019c0.013 0.013 0.29584-0.1025 0.62891-0.25586 2.0464-0.94222 3.8899-1.3612 6.1445-1.6303 0.77752-0.09279 3.4746-0.10447 4.2852-0.01953 1.642 0.17205 3.1407 0.2638 4.9844 0.77095 0.81692 0.22471 1.2176 0.27819 1.8867 0.25391 0.66956-0.0243 1.064-0.11372 1.5586-0.35156 1.2342-0.59349 1.8813-1.8124 1.7012-3.2031-0.01697-0.13108-0.05155-0.2556-0.07812-0.38281 0.05289-0.13098 0.0018-0.35179-0.20703-0.7168-0.20548-0.546-0.50804-1.0928-0.96485-1.7109-3.092-3.3978-7.1305-5.8219-12.008-5.7559z" opacity=".2"/>
 <path d="m24 17c-5.3318 0-10.01 2.7852-12.67 6.9766-0.38799 0.50734-0.73004 1.0367-0.97852 1.6035-0.39046 0.89065-0.6806 1.8127-0.90039 2.8086-0.14625 0.59091-0.26989 1.1904-0.34375 1.8066-0.00657 0.05485 0.010185 0.06637 0.037109 0.05859-0.02819 0.23735-0.064009 0.46236-0.085937 0.71094-0.0703 0.7969-0.077078 1.123-0.023438 1.123l8.9648-10.088-1.9316 8.0019c0.013 0.013 0.29584-0.1025 0.62891-0.25586 2.0464-0.94222 3.8899-1.3612 6.1445-1.6303 0.77752-0.09279 3.4746-0.10447 4.2852-0.01953 1.642 0.17205 3.1407 0.2638 4.9844 0.77095 0.81692 0.22471 1.2176 0.27819 1.8867 0.25391 0.66956-0.0243 1.064-0.11372 1.5586-0.35156 1.2342-0.59349 1.8813-1.8124 1.7012-3.2031-0.01697-0.13108-0.05155-0.2556-0.07812-0.38281 0.05289-0.13098 0.0018-0.35179-0.20703-0.7168-0.20548-0.546-0.50804-1.0928-0.96485-1.7109-3.092-3.3978-7.1305-5.8219-12.008-5.7559z" fill="#ff8e49"/>
 <circle cx="18" cy="34" r="2" fill="#252524"/>
 <circle cx="30" cy="34" r="2" fill="#252524"/>
 <path d="m20.783 9.5743c-0.06152 0-0.46335 0.68592-0.8457 1.4434-0.55973 1.1088-0.82639 1.9622-0.91797 2.9473-0.02263 0.24342-0.01907 0.48179-0.0039 0.7168-0.0094 0.10587-0.01465 0.21207-0.01563 0.31836 0 2.2091 1.7909 4 4 4s4-1.7909 4-4c-3.3e-5 -0.10168-0.0039-0.20331-0.01172-0.30469 0.0034-0.10134 0.01295-0.20302 0.0078-0.30273-0.07056-1.3696-0.86231-2.3087-2.0586-2.9266-0.63334-0.32711-1.6022-0.48075-2.2344-0.48202-0.78866-0.0016-1.388-0.68744-1.7734-1.2477-0.0617-0.08968-0.1281-0.16211-0.14648-0.16211z" opacity=".2"/>
 <path d="m20.783 8.5742c-0.06152 0-0.46335 0.68592-0.8457 1.4434-0.55973 1.1088-0.82639 1.9622-0.91797 2.9473-0.02263 0.24342-0.01907 0.48179-0.0039 0.7168-0.009442 0.10587-0.014655 0.21207-0.015631 0.31836 0 2.2091 1.7909 4 4 4s4-1.7909 4-4c-3.3e-5 -0.10168-0.0039-0.20331-0.01172-0.30469 0.0034-0.10134 0.01295-0.20302 0.0078-0.30273-0.070563-1.3696-0.86231-2.3087-2.0586-2.9266-0.63334-0.32711-1.6022-0.48075-2.2344-0.48202-0.78866-0.00157-1.388-0.68744-1.7734-1.2477-0.0617-0.08968-0.1281-0.16211-0.14648-0.16211z" fill="#ff8e49"/>
</svg>
