<svg clip-rule="evenodd" fill-rule="evenodd" stroke-linecap="round" stroke-linejoin="round" viewBox="0 0 48 48" xmlns="http://www.w3.org/2000/svg" xmlns:xlink="http://www.w3.org/1999/xlink">
 <linearGradient id="a" x2="1" gradientTransform="matrix(.24357 -44.53 44.53 .24357 23.187 47.22)" gradientUnits="userSpaceOnUse">
  <stop stop-color="#2e3e46" offset="0"/>
  <stop stop-color="#435a64" offset="1"/>
 </linearGradient>
 <linearGradient id="b">
  <stop stop-color="#1584d8" offset="0"/>
  <stop stop-color="#1cb2ff" offset="1"/>
 </linearGradient>
 <linearGradient id="c" x2="1" gradientTransform="matrix(-.39487 -48.647 48.647 -.39487 29.258 49.767)" gradientUnits="userSpaceOnUse" xlink:href="#b"/>
 <linearGradient id="d" x2="1" gradientTransform="matrix(-.26857 -3.6439 3.6439 -.26857 330.9 480.14)" gradientUnits="userSpaceOnUse" xlink:href="#b"/>
 <linearGradient id="e" x2="1" gradientTransform="matrix(.59707 -30.578 30.578 .59707 325.28 510.1)" gradientUnits="userSpaceOnUse" xlink:href="#b"/>
 <circle cx="24.089" cy="24.023" r="21.818" fill="url(#a)" stroke="url(#c)" stroke-width="1.7"/>
 <path d="m24.259 39.879c.837 0 1.517.68 1.517 1.518 0 .837-.68 1.517-1.517 1.517-.838 0-1.518-.68-1.518-1.517 0-.838.68-1.518 1.518-1.518zm-12.354-4.923c.837 0 1.517.68 1.517 1.517 0 .838-.68 1.518-1.517 1.518-.838 0-1.518-.68-1.518-1.518 0-.837.68-1.517 1.518-1.517zm24.148-.025c.837 0 1.517.68 1.517 1.517 0 .838-.68 1.517-1.517 1.517-.838 0-1.518-.679-1.518-1.517 0-.837.68-1.517 1.518-1.517zm5.328-12.11c.837 0 1.517.68 1.517 1.518 0 .837-.68 1.517-1.517 1.517-.838 0-1.518-.68-1.518-1.517 0-.838.68-1.518 1.518-1.518zm-34.634 0c.838 0 1.518.68 1.518 1.518 0 .837-.68 1.517-1.518 1.517-.837 0-1.517-.68-1.517-1.517 0-.838.68-1.518 1.517-1.518zm5.195-12.543c.838 0 1.518.68 1.518 1.517 0 .838-.68 1.518-1.518 1.518-.837 0-1.517-.68-1.517-1.518 0-.837.68-1.517 1.517-1.517zm12.317-5.031c.838 0 1.518.68 1.518 1.518 0 .837-.68 1.517-1.518 1.517-.837 0-1.517-.68-1.517-1.517 0-.838.68-1.518 1.517-1.518z" fill="url(#d)"/>
 <path d="m27.841 12.063c3.375.373 7.682-2.82 9.15-1.113 1.756 1.374-1.632 5.426-.622 9.462l-.051-.046c.391 1.221.603 2.522.603 3.873 0 7.01-5.692 12.701-12.702 12.701s-12.701-5.691-12.701-12.701 5.691-12.701 12.701-12.701c.86 0 1.699.085 2.511.248l-.006-.005.02.008c.372.075.738.167 1.097.274z" fill="url(#e)"/>
</svg>
