<svg viewBox="0 0 48 48" xmlns="http://www.w3.org/2000/svg">
 <linearGradient id="a" x1="355.73" x2="355.69" y1="547" y2="505.33" gradientUnits="userSpaceOnUse">
  <stop stop-color="#42a603" offset="0"/>
  <stop stop-color="#78da06" offset="1"/>
 </linearGradient>
 <g transform="matrix(.9746 0 0 .9746 -322.3 -489.31)">
  <path d="m372.72 511.01c-4.6438-3.7792-10.81-5.8604-17.362-5.8604-6.5523 0-12.718 2.0813-17.362 5.8604-4.6842 3.812-7.2638 8.8925-7.2638 14.306 0 5.1665 2.3515 10.029 6.6381 13.776-0.0773 0.17385-0.13864 0.35675-0.1778 0.54904l-1.4085 6.9283c-0.16748 0.8234 0.0576 1.3144 0.27567 1.5815 0.25214 0.30847 0.62586 0.47846 1.0524 0.47846 0.32207 0 0.66821-0.095 1.0289-0.28251l8.1925-4.2561c2.8364 0.91297 5.8857 1.3917 9.0243 1.3917 6.5523 0 12.718-2.0813 17.362-5.8604 4.684-3.8119 7.2637-8.8924 7.2637-14.306 0-5.4133-2.5796-10.494-7.2636-14.306z" fill="url(#a)"/>
  <g transform="matrix(.19678 0 0 .19678 343.85 514.78)" fill="#fff" fill-opacity=".85" opacity=".856">
   <path d="m57.572 8.464c-1.412 0-2.634.517-3.666 1.548l-27.131 27.131h-21.346c-1.413 0-2.635.517-3.667 1.548-1.032 1.032-1.548 2.255-1.548 3.667v31.285c0 1.412.516 2.635 1.548 3.666 1.033 1.032 2.255 1.549 3.667 1.549h21.345l27.131 27.131c1.032 1.031 2.254 1.548 3.666 1.548 1.413 0 2.635-.517 3.667-1.548s1.548-2.254 1.548-3.666v-88.644c0-1.412-.516-2.635-1.547-3.667-1.033-1.031-2.254-1.548-3.667-1.548z"/>
   <path d="m90.609 69.527c2.309-3.557 3.463-7.399 3.463-11.527s-1.154-7.988-3.463-11.573c-2.31-3.585-5.363-6.11-9.166-7.577-.543-.271-1.223-.407-2.037-.407-1.412 0-2.635.503-3.666 1.507-1.031 1.005-1.549 2.241-1.549 3.707 0 1.141.326 2.105.979 2.893.652.788 1.439 1.467 2.363 2.037.922.57 1.846 1.195 2.77 1.874s1.711 1.643 2.363 2.892c.65 1.25.977 2.798.977 4.645s-.326 3.395-.977 4.645c-.652 1.25-1.439 2.213-2.363 2.893-.924.679-1.848 1.304-2.77 1.874-.924.569-1.711 1.249-2.363 2.036-.652.789-.979 1.752-.979 2.893 0 1.467.518 2.702 1.549 3.707s2.254 1.508 3.666 1.508c.814 0 1.494-.136 2.037-.406 3.803-1.523 6.857-4.063 9.166-7.621z"/>
   <path d="m108.004 81.016c4.617-7.033 6.926-14.705 6.926-23.016s-2.309-15.982-6.926-23.019c-4.617-7.033-10.729-12.152-18.332-15.357-.705-.271-1.412-.407-2.117-.407-1.412 0-2.635.516-3.668 1.548-1.031 1.032-1.547 2.254-1.547 3.666 0 2.119 1.059 3.721 3.178 4.808 3.041 1.575 5.105 2.77 6.191 3.584 4.02 2.934 7.156 6.613 9.41 11.04s3.381 9.139 3.381 14.136-1.127 9.709-3.381 14.136c-2.254 4.428-5.391 8.106-9.41 11.039-1.086.815-3.15 2.01-6.191 3.585-2.119 1.087-3.178 2.689-3.178 4.808 0 1.412.516 2.635 1.547 3.666 1.033 1.033 2.281 1.549 3.748 1.549.652 0 1.332-.137 2.037-.407 7.603-3.206 13.715-8.325 18.332-15.359z"/>
  </g>
 </g>
</svg>
