<svg viewBox="0 0 48 48" xmlns="http://www.w3.org/2000/svg" xmlns:xlink="http://www.w3.org/1999/xlink">
 <linearGradient id="a" x1="37.763" x2="37.655" y1="38.643" y2="32.372" gradientTransform="matrix(1.1607 0 0 .7836 -7.2383 9.0012)" gradientUnits="userSpaceOnUse" xlink:href="#c"/>
 <linearGradient id="b" x1="17.911" x2="30.091" y1="28.655" y2="28.655" gradientTransform="matrix(1.0115 0 0 .86443 -.27509 4.4114)" gradientUnits="userSpaceOnUse">
  <stop stop-color="#1a1a1a" offset="0"/>
  <stop stop-color="#2b2b2d" offset="1"/>
 </linearGradient>
 <linearGradient id="c" x1="37.763" x2="37.655" y1="38.643" y2="32.372" gradientTransform="matrix(1.1476 0 0 .8387 -6.8842 7.3443)" gradientUnits="userSpaceOnUse">
  <stop stop-color="#ff7f2a" offset="0"/>
  <stop stop-color="#ffb380" offset="1"/>
 </linearGradient>
 <linearGradient id="d" x1="34.356" x2="41.002" y1="34.841" y2="37.745" gradientTransform="matrix(1.1607 0 0 .7836 -7.2383 9.2514)" gradientUnits="userSpaceOnUse" xlink:href="#c"/>
 <linearGradient id="e" x1="25.585" x2="25.592" y1="32.006" y2="18.393" gradientTransform="matrix(1.0112 0 0 .90421 -1.439 6.4449)" gradientUnits="userSpaceOnUse" xlink:href="#k"/>
 <linearGradient id="f" x1="21.929" x2="29.959" y1="17.512" y2="17.871" gradientTransform="matrix(.90599 0 0 1.0112 1.4972 1.2171)" gradientUnits="userSpaceOnUse">
  <stop stop-color="#1a1a1a" offset="0"/>
  <stop stop-color="#2b2b2d" offset=".42545"/>
  <stop stop-color="#2a2b2d" offset=".70138"/>
  <stop stop-color="#171717" offset="1"/>
 </linearGradient>
 <linearGradient id="g" x1="19.064" x2="31.246" y1="25.073" y2="25.073" gradientTransform="matrix(1.3542 0 0 1.2071 -10.062 -1.0841)" gradientUnits="userSpaceOnUse" xlink:href="#k"/>
 <linearGradient id="h" x1="9.6538" x2="9.6766" y1="44.477" y2="42.486" gradientUnits="userSpaceOnUse">
  <stop stop-color="#ccc" offset="0"/>
  <stop stop-color="#ececec" offset="1"/>
 </linearGradient>
 <linearGradient id="i" x1="9.6538" x2="9.6766" y1="44.482" y2="42.491" gradientUnits="userSpaceOnUse">
  <stop stop-color="#040404" offset="0"/>
  <stop stop-color="#121212" stop-opacity=".90816" offset="1"/>
 </linearGradient>
 <linearGradient id="j" x1="25.022" x2="24.857" y1="40.929" y2="16.314" gradientUnits="userSpaceOnUse">
  <stop stop-color="#1a1a1a" offset="0"/>
  <stop stop-color="#323232" offset="1"/>
 </linearGradient>
 <linearGradient id="k" x1="67.86" x2="67.475" y1="116.35" y2="88.756" gradientTransform="matrix(.3232 -3e-8 0 .31781 2.5359 8.8554)" gradientUnits="userSpaceOnUse">
  <stop stop-color="#141414" offset="0"/>
  <stop stop-color="#282828" offset="1"/>
 </linearGradient>
 <path d="m5.7983 39.953 0.32319 5.0939c0 0.52823 0.43244 0.9535 0.96959 0.9535l33.814-3e-6c0.53716 0 0.9696-0.42527 0.9696-0.9535l0.32319-5.0939z" fill="url(#k)" stroke-width="1.0115"/>
 <path d="m8.7081 18.16 30.261-2e-6c0.53716 0 0.96961 0.42527 0.96961 0.95348l2.2625 20.685c0 0.52822-0.43243 0.9535-0.96958 0.9535l-34.463 3e-6c-0.53716 0-0.96958-0.42528-0.96958-0.9535l1.939-20.685c0-0.52822 0.43244-0.95356 0.96958-0.95356z" fill="url(#j)" stroke-width="1.0115"/>
 <path d="m40.14 36.939a3.7557 2.2534 0 0 1-3.7558 2.2534 3.7557 2.2534 0 0 1-3.7557-2.2534 3.7557 2.2534 0 0 1 3.7557-2.2534 3.7557 2.2534 0 0 1 3.7558 2.2534" fill="url(#d)" stroke-width=".98105"/>
 <path d="m40.14 36.689a3.7557 2.2534 0 0 1-3.7558 2.2534 3.7557 2.2534 0 0 1-3.7557-2.2534 3.7557 2.2534 0 0 1 3.7557-2.2534 3.7557 2.2534 0 0 1 3.7558 2.2534z" fill="url(#a)" stroke-width=".98105"/>
 <path d="m35.173 29.182a11.172 6.1316 0 0 1-11.172 6.1316 11.172 6.1316 0 0 1-11.172-6.1316 11.172 6.1316 0 0 1 11.172-6.1316 11.172 6.1316 0 0 1 11.172 6.1316" fill="url(#e)" stroke-width=".99976"/>
 <path d="m32.25 29.182a8.2486 4.1307 0 0 1-8.2486 4.1307 8.2486 4.1307 0 0 1-8.2486-4.1307 8.2486 4.1307 0 0 1 8.2486-4.1307 8.2486 4.1307 0 0 1 8.2486 4.1307" fill="url(#g)" stroke-width="1.3388"/>
 <path d="m30.162 29.182a6.1598 2.9574 0 0 1-6.1598 2.9574 6.1598 2.9574 0 0 1-6.1598-2.9574 6.1598 2.9574 0 0 1 6.1598-2.9574 6.1598 2.9574 0 0 1 6.1598 2.9574" fill="url(#b)" stroke-width=".99976"/>
 <path d="m18.972823 4.0809496c-.02074.090229-.09581.1540655-.08848.2528099l1.811975 24.3981385c.04147.558311.530554.783986.905988 1.011239.734197.444415 1.616196.582746 2.451398.578726.802506-.0038 1.647247-.148317 2.351045-.578726.374552-.229057.864519-.452928.905987-1.011239l1.811978-24.3981385c.0072-.097814-.06639-.1613588-.08669-.2508348-.0011.00791-.0023.015803-.0035.0237-.01695.074251-.04234.1480807-.07608.2212088-.03373.072638-.07566.1444886-.125635.2152835-.04927.071003-.106555.1408767-.171641.2093583-.06603.068744-.139857.1359813-.221189.2014579-.08068.065098-.16867.1283794-.263658.1896074-.09525.06147-.197415.1207966-.306124.1777572-.108265.056463-.222834.1105154-.343285.1619563-.12111.052155-.248084.1015947-.380443.1481309-.131922.045773-.268935.08862-.410525.12838-.142006.040072-.288469.076986-.438838.1106044-.149834.03364-.303385.063963-.460072.090854-.157055.027217-.317102.050948-.479538.071104-.16259.020085-.327361.036565-.493693.049377-.165851.012227-.332982.020796-.500769.025677-.118951.00383-.238172.00582-.357442.00593-.168371.0004147-.336684-.00288-.504309-.00988-.168092-.0075-.335225-.018699-.500769-.033576-.164817-.0148429-.327816-.0332995-.488422-.0553054-.160891-.0221728-.319163-.0478808-.474227-.0770278-.155151-.0288982-.306928-.061198-.454764-.0967791-.148266-.0356375-.292367-.0745295-.431783-.1165287-.138875-.0417942-.272935-.0866183-.401678-.1343051-.128953-.0479407-.252384-.0986978-.369828-.1520811-.117169-.0534782-.228197-.1095088-.332667-.1678816-.105335-.0583506-.203962-.1189959-.295507-.1817072-.090899-.061986-.174758-.125926-.251269-.1915826-.076061-.06626-.144571-.1341562-.205264-.203433-.061041-.06923-.114189-.1397627-.159256-.2113334-.045351-.071555-.08256-.1440649-.11148-.2172585-.022279-.060899-.038799-.1221789-.04954-.1836823z" fill="url(#f)" stroke-width=".95368"/>
 <path d="m29.134 4.1314a5.1333 2.1314 0 0 1-5.1333 2.1314 5.1333 2.1314 0 0 1-5.1333-2.1314 5.1333 2.1314 0 0 1 5.1333-2.1314 5.1333 2.1314 0 0 1 5.1333 2.1314" fill="#4d4d4d" stroke-width="1.0403"/>
 <path d="m8.5757 44.5c-0.27195 0-0.33993-0.06799-0.33993-0.27195v-1.4561c0-0.20396 0.067987-0.27195 0.33993-0.27195h2.1756c0.27195 0 0.33993 0.06799 0.33993 0.27195v1.4561c0 0.20396-0.06799 0.27195-0.33993 0.27195z" fill="url(#h)" stroke-width=".10526"/>
 <path d="m9.1196 44.154h1.0878v-0.20396h0.47591v-0.90101c0-0.13597 0-0.20396-0.10198-0.20396h-1.8356c-0.10198 0-0.10198 0.06799-0.10198 0.20396v0.90101h0.47591z" fill="url(#i)" stroke-width=".10526"/>
</svg>
