<svg viewBox="0 0 48 48" xmlns="http://www.w3.org/2000/svg">
 <linearGradient id="a" x1="16.44" x2="35.621" y1="1039.2" y2="1010.9" gradientUnits="userSpaceOnUse">
  <stop stop-color="#f67e17" offset="0"/>
  <stop stop-color="#ff7f2a" offset="1"/>
 </linearGradient>
 <linearGradient id="b" x1="3.4545" x2="32.021" y1="18.085" y2="18.085" gradientUnits="userSpaceOnUse">
  <stop stop-opacity=".15686" offset="0"/>
  <stop stop-opacity="0" offset="1"/>
 </linearGradient>
 <g transform="translate(0 -1004.4)">
  <path transform="translate(0 1004.4)" d="m32.001 3.5306c-3.0936 0.3262-5.0725 3.0848-6.1798 5.9309-2.3228 5.9705-5.3501 10.109-5.9889 10.173-4.4039 1.154-15.806 5.1315-16.311 5.6211-0.17757 0.1685 0.010142 0.48079 0.41992 0.71289 0.40977 0.2391 2.7386 1.8323 5.2109 3.5488 2.4632 1.7164 4.6053 3.112 4.7578 3.1211 0.15025 0 1.2814-0.60486 2.4902-1.3516 2.5429-1.5662 11.451-6.4113 11.426-7.3379-0.01023-0.46442-1.559-1.7309-3.1191-2.7598 1.9716-3.9186 7.693-17.612 7.2937-17.659z" fill="#62cbcb"/>
  <path transform="translate(0 1004.4)" d="m32 5.3926c-3.0936 0.3262-5.0724 3.0836-6.1797 5.9297-2.3228 5.9706-5.3495 10.11-5.9883 10.174-4.4039 1.154-15.806 5.1314-16.311 5.6211-0.17757 0.1685 0.010142 0.48079 0.41992 0.71289 0.40977 0.2391 2.7386 1.8323 5.2109 3.5488 6.3353 3.4502 6.9709 5.2116 9.1719 10.244 1.8433 4.2982 2.3192 4.668 2.6719 4.668 0.16696 0 1.1112-0.53388 2.1641-1.2051 2.3493-1.5248 4.547-3.5731 7.5352-7.0605 4.6645-5.4362 8.1647-6.5876 12.477-4.0918 1.1653 0.6781 2.123 1.1038 2.123 0.94531 0-0.1669-0.59648-1.8051-1.3086-3.6484-0.71212-1.8434-2.6517-7.0465-4.3008-11.564-1.1034-1.8577-4.5517-13.874-7.1289-14.23h-0.0039c-0.177-0.029013-0.32096-0.010217-0.49805 0.080078-0.0147 0.011732-0.03884 0.045986-0.05469 0.060547 0.02358-0.11355 0.02615-0.18052-5e-6 -0.18359z" fill-opacity=".66667"/>
  <path d="m32.001 1007.9c-3.0936 0.3262-5.0725 3.0848-6.1798 5.9309-5.1879 12.907-9.845 10.349-22.299 15.794-0.17757 0.1685 0.010142 0.4808 0.41992 0.7129 0.40977 0.2391 2.7386 1.8323 5.2109 3.5488 2.4632 1.7164 4.6053 3.112 4.7578 3.1211 0.15025 0 1.2814-0.6049 2.4902-1.3516 2.5429-1.5662 11.451-6.4113 11.426-7.3379-0.01023-0.4644-1.559-1.7309-3.1191-2.7597 1.9716-3.9187 7.693-17.612 7.2937-17.659z" fill="#62cbcb"/>
  <path transform="translate(0 1004.4)" d="m32.001 3.5306c-3.0936 0.3262-5.0725 3.0848-6.1798 5.9309-5.1879 12.907-9.845 10.349-22.299 15.794-0.17757 0.1685 0.010142 0.48079 0.41992 0.71289 0.40977 0.2391 2.7386 1.8323 5.2109 3.5488 2.4632 1.7164 4.6053 3.112 4.7578 3.1211 0.15025 0 1.2814-0.60486 2.4902-1.3516 2.5429-1.5662 11.451-6.4113 11.426-7.3379-0.01023-0.46442-1.559-1.7309-3.1191-2.7598 1.9716-3.9186 7.693-17.612 7.2937-17.659z" fill="url(#b)"/>
  <path d="m32.557 1007.8c-0.1789-0.03-0.3241-0.011-0.50257 0.08-0.72575 0.5792-2.8621 4.6321-4.9985 9.4636-0.86544 1.9694-2.0938 4.5453-2.7122 5.7293-1.8365 3.5078-6.3222 9.8896-8.3989 11.926l-2.023 1.9985 1.5306 1.4956c0.88589 0.9711 2.0563 2.9882 3.0274 5.2438 1.8433 4.2982 2.1636 4.9184 2.5163 4.9184 0.16696 0 1.1125-0.5333 2.1653-1.2045 2.3493-1.5248 4.5453-3.5742 7.5335-7.0616 4.6645-5.4362 8.1655-6.5879 12.477-4.0921 1.1653 0.6781 2.1227 1.104 2.1227 0.9455 0-0.1669-0.59627-1.8041-1.3084-3.6474-0.71212-1.8434-2.6526-7.048-4.3017-11.566-1.104-1.8586-4.5538-13.883-7.1314-14.229z" fill="url(#a)"/>
  <path d="m32.557 1007.8c-0.0036 30.556-0.0036 20.095-0.0036 30.556 0 0 2.2245-2.4186 5.0154-3.1795 1.8069-0.4927 3.909 0.1395 5.6036 1.1203 1.1653 0.6781 2.1227 1.104 2.1227 0.9455 0-0.1669-0.59627-1.8041-1.3084-3.6474-0.71212-1.8434-2.6526-7.048-4.3017-11.566-1.104-1.8586-4.5538-13.883-7.1314-14.229z" fill-opacity=".15686"/>
 </g>
</svg>
