<svg clip-rule="evenodd" fill-rule="evenodd" stroke-linejoin="round" stroke-miterlimit="2" viewBox="0 0 48 48" xmlns="http://www.w3.org/2000/svg">
 <linearGradient id="a" x2="1" gradientTransform="matrix(0 -33.687 33.687 0 923.28 40.45)" gradientUnits="userSpaceOnUse">
  <stop stop-color="#303030" offset="0"/>
  <stop stop-color="#525252" offset="1"/>
 </linearGradient>
 <path d="m39.44 45.668h-30.88c-3.438 0-6.228-2.79-6.228-6.228v-30.88c0-3.438 2.79-6.228 6.228-6.228h30.88c3.438 0 6.228 2.79 6.228 6.228v30.88c0 3.438-2.79 6.228-6.228 6.228z" fill="url(#a)"/>
 <g stroke-width="1.1112">
  <path d="m4.5544 7.3324h5.5559v33.335h-5.5559z" fill="#da56a3"/>
  <path d="m10.11 7.3324h5.5559v33.335h-5.5559z" fill="#b99a85"/>
  <path d="m15.666 7.3324h5.5559v33.335h-5.5559z" fill="#739cff"/>
  <path d="m21.222 7.3324h5.5559v33.335h-5.5559z" fill="#00be87"/>
  <path d="m26.778 7.3324h5.5559v33.335h-5.5559z" fill="#00c8ff"/>
  <path d="m32.334 7.3324h5.5559v33.335h-5.5559z" fill="#7863d9"/>
  <path d="m37.89 7.3324h5.5559v33.335h-5.5559z" fill="#c95a67"/>
 </g>
 <path transform="matrix(1.1112 0 0 1.1112 -2.1127 -2.6682)" d="m9.99 8c-.548 0-.99.442-.99.99v16.02c0 .548.442.99.99.99h2.02c.548 0 .99-.442.99-.99v-16.02c0-.548-.442-.99-.99-.99zm5 0c-.548 0-.99.442-.99.99v16.02c0 .548.442.99.99.99h2.02c.548 0 .99-.442.99-.99v-16.02c0-.548-.442-.99-.99-.99zm10 0c-.548 0-.99.442-.99.99v16.02c0 .548.442.99.99.99h2.02c.548 0 .99-.442.99-.99v-16.02c0-.548-.442-.99-.99-.99zm5 0c-.548 0-.99.442-.99.99v16.02c0 .548.442.99.99.99h2.02c.548 0 .99-.442.99-.99v-16.02c0-.548-.442-.99-.99-.99zm5 0c-.548 0-.99.442-.99.99v16.02c0 .548.442.99.99.99h2.02c.548 0 .99-.442.99-.99v-16.02c0-.548-.442-.99-.99-.99z" fill="#525252" fill-rule="nonzero"/>
</svg>
