<svg viewBox="0 0 48 48" xmlns="http://www.w3.org/2000/svg">
 <g transform="translate(0 -1004.4)" fill-rule="evenodd">
  <path d="m16.349 1049.4 7.651-16 7.646 16h3.3388c4.0152 0 4.0152-13 5.0152-16h-32c1 3 0.95471 15.995 4.9954 16z" opacity=".2"/>
  <path transform="matrix(2.0453 0 0 2.0728 7.4772 1033.4)" d="m11.5 6.75h-6.84l3.42-6.75z" opacity=".2"/>
  <g transform="translate(0 1004.4)">
   <path d="m23.965 4c-0.05772 0.1191-0.12605 0.24809-0.19531 0.36719-0.049383 0.095565-0.11698 0.20761-0.16797 0.30469-0.35325 0.59457-1.4267 2.3369-3.5742 3.6914-2.5599 1.5018-6.1584 2.5488-9.0332 2.5098 0 0-4.7204 13.145-4.9082 13.566-0.028256 0.018762-0.057779 0.042028-0.085938 0.060547h0.064453c-0.001923 0.004006-0.064155 0.17829-0.064453 0.17773l0.011719 0.042969h0.011719c0.10146-0.067375 0.20779-0.14977 0.31055-0.2207h35.504c0.053201 0.034398 0.10926 0.075927 0.16211 0.10938v-0.019531l-0.033203-0.089844h0.033203c-0.014055-0.008949-0.028889-0.020285-0.042969-0.029297l-4.9395-13.6c-2.7303 0.053-5.8628-0.79246-7.8906-1.8809-2.3429-1.2844-3.8857-3.037-4.5117-4.0547-0.014614-0.028778-0.034361-0.063164-0.048828-0.091797-0.127-0.2599-0.25385-0.51848-0.38086-0.76758-0.08082-0.022-0.15143-0.055172-0.2207-0.076172z" fill="#048eea"/>
   <path d="m23.965 4c-0.05772 0.1191-0.12605 0.24809-0.19531 0.36719-0.049383 0.095565-0.11698 0.20761-0.16797 0.30469-0.35325 0.59457-1.4267 2.3369-3.5742 3.6914-2.5599 1.5018-6.1584 2.5488-9.0332 2.5098 0 0-4.7204 13.145-4.9082 13.566-0.028256 0.018762-0.057779 0.042028-0.085938 0.060547h0.064453c-0.001923 0.004006-0.064155 0.17829-0.064453 0.17773l0.011719 0.042969h0.011719c0.10146-0.067375 0.20779-0.14977 0.31055-0.2207h35.504c0.053201 0.034398 0.10926 0.075927 0.16211 0.10938v-0.019531l-0.033203-0.089844h0.033203c-0.014055-0.008949-0.028889-0.020285-0.042969-0.029297l-4.9395-13.6c-2.7303 0.053-5.8628-0.79246-7.8906-1.8809-2.3429-1.2844-3.8857-3.037-4.5117-4.0547-0.014614-0.028778-0.034361-0.063164-0.048828-0.091797-0.127-0.2599-0.25385-0.51848-0.38086-0.76758-0.08082-0.022-0.15143-0.055172-0.2207-0.076172z" opacity=".3"/>
   <path d="m23.965 4c-0.05772 0.1191-0.12605 0.24809-0.19531 0.36719-0.049383 0.095565-0.11698 0.20761-0.16797 0.30469-0.35325 0.59457-1.4267 2.3369-3.5742 3.6914-2.5599 1.5018-6.1584 2.5488-9.0332 2.5098 0 0-4.7204 13.145-4.9082 13.566-0.028256 0.018762-0.057779 0.042028-0.085938 0.060547h0.064453c-0.001923 0.004006-0.064155 0.17829-0.064453 0.17773l0.011719 0.042969h0.011719c0.10146-0.067375 0.20779-0.14977 0.31055-0.2207h0.091797c0.71779-1.9168 4.5684-12.627 4.5684-12.627 2.8748 0.039 6.4733-1.008 9.0332-2.5098 2.1475-1.3545 3.221-3.0969 3.5742-3.6914 0.050989-0.0971 0.11859-0.20869 0.16797-0.30469 0.069261-0.1191 0.13759-0.24809 0.19531-0.36719 0.069274 0.021 0.13988 0.054172 0.2207 0.076172 0.12701 0.2491 0.25386 0.50768 0.38086 0.76758 0.01447 0.029 0.034218 0.062797 0.048828 0.091797 0.62598 1.0178 2.1688 2.7704 4.5117 4.0547 2.0278 1.0884 5.1604 1.9339 7.8906 1.8809l4.5859 12.629h0.23438c0.053201 0.034398 0.10926 0.075927 0.16211 0.10938v-0.019531l-0.033203-0.089844h0.033203c-0.014055-0.008949-0.028889-0.020285-0.042969-0.029297l-4.9395-13.6c-2.7303 0.053-5.8628-0.79246-7.8906-1.8809-2.3429-1.2844-3.8857-3.037-4.5117-4.0547-0.014614-0.028778-0.034361-0.063164-0.048828-0.091797-0.127-0.2599-0.25385-0.51848-0.38086-0.76758-0.08082-0.022-0.15143-0.055172-0.2207-0.076172z" fill="#fff" opacity=".1"/>
  </g>
  <path transform="matrix(2.0453 0 0 2.0728 7.4772 1032.4)" d="m8.08 0 3.42 6.75h-6.84z" fill="#315165"/>
  <path transform="matrix(1.9794 0 0 2.0251 8 1032.4)" d="m4.218 7.901 3.8653-7.901 3.8628 7.901h1.6868c2.0285 2e-7 2.0285-6.4196 2.5337-7.901h-16.167c0.5052 1.4814 0.48233 7.8984 2.5237 7.901z" fill="#048eea"/>
  <path d="m16.385 1049.4-4.3452-6.6874c-0.06927-0.1066-0.04504-0.2537 0.05482-0.329 0 0 4.0633-3.066 6.095-4.5991 0.26102-0.1969 5.8108-4.3845 5.8108-4.3845l-7.6153 16z" opacity=".2"/>
  <path d="m6.7812 1029.4a0.7817 0.77087 0 0 0-0.75781 0.9551l0.45703 1.8418 0.1543 0.6152a0.7817 0.77087 0 0 0 0.75781 0.5879h0.6543a0.7817 0.77087 0 0 0 0.00195 0l9.8906-0.014a0.7817 0.77087 0 0 0 0.03516 0h1.1797a0.7817 0.77087 0 0 0 0.10938 0.01h9.4727a0.7817 0.77087 0 0 0 0.10938-0.01h1.1797a0.7817 0.77087 0 0 0 0.03516 0l9.8906 0.014a0.7817 0.77087 0 0 1 2e-3 0h0.6543a0.7817 0.77087 0 0 0 0.75781-0.5879l0.1543-0.6152 0.45703-1.8418a0.7817 0.77087 0 0 0-0.75781-0.9551h-34.438z" opacity=".1"/>
  <path d="m16.385 1048.4-4.3452-6.6874c-0.06927-0.1066-0.04504-0.2537 0.05482-0.329 0 0 4.0633-3.066 6.095-4.5991 0.26102-0.1969 5.8108-4.3845 5.8108-4.3845l-7.6153 16z" fill="#fff"/>
  <path d="m42 1028.9c-2.8403-1.8085-6.1886-4.8964-9.6523-8.578-3.7755-4.0066-6.2117-7.9698-7.7819-11.078-0.127-0.2599-0.25401-0.5197-0.38101-0.7688-0.08082-0.022-0.1501-0.055-0.21937-0.076-0.05772 0.1191-0.12701 0.2491-0.19627 0.3682-1.6395 3.1727-4.1565 7.19-7.9782 11.294-3.4753 3.7357-6.8929 6.9321-9.7909 8.838" fill="#048eea"/>
  <path transform="translate(0 1004.4)" d="m23.965 4c-0.05772 0.1191-0.12605 0.24809-0.19531 0.36719-1.6395 3.1727-4.1568 7.1907-7.9785 11.295-3.4753 3.7357-6.893 6.932-9.791 8.8379h1.4043c2.5711-1.9327 5.4568-4.6885 8.3867-7.8379 3.8217-4.1042 6.339-8.1222 7.9785-11.295 0.069261-0.1191 0.13759-0.24809 0.19531-0.36719 0.069274 0.021 0.13988 0.054172 0.2207 0.076172 0.12701 0.2491 0.25386 0.50768 0.38086 0.76758 1.5702 3.1078 4.0058 7.0715 7.7812 11.078 2.8963 3.0784 5.7076 5.7308 8.2129 7.5781h1.4395c-2.8403-1.8085-6.1886-4.8965-9.6523-8.5781-3.7755-4.0066-6.211-7.9703-7.7812-11.078-0.127-0.2599-0.25385-0.51848-0.38086-0.76758-0.08082-0.022-0.15143-0.055172-0.2207-0.076172z" fill="#fff" opacity=".1"/>
  <path transform="translate(0 1004.4)" d="m6.7812 24a0.7817 0.77087 0 0 0-0.75781 0.95508l0.45703 1.8418 0.1543 0.61523a0.7817 0.77087 0 0 0 0.75781 0.58789h0.6543a0.7817 0.77087 0 0 0 0.0019531 0l9.8906-0.013672a0.7817 0.77087 0 0 0 0.035156 0l1.1797 0.001953a0.7817 0.77087 0 0 0 0.10938 0.007813h0.69727l4.0391-0.003906 4.0391 0.003906h0.69727a0.7817 0.77087 0 0 0 0.10938-0.007813l1.1797-0.001953a0.7817 0.77087 0 0 0 0.035156 0l9.8906 0.013672a0.7817 0.77087 0 0 1 0.001953 0h0.6543a0.7817 0.77087 0 0 0 0.75781-0.58789l0.1543-0.61523 0.45703-1.8418a0.7817 0.77087 0 0 0-0.75781-0.95508h-22.438z" fill="#0364a4"/>
  <path d="m31.615 1049.4 4.3452-6.6874c0.06927-0.1066 0.04504-0.2537-0.05482-0.329 0 0-4.0633-3.066-6.095-4.5991-0.26102-0.1969-5.8108-4.3845-5.8108-4.3845l7.6153 16z" opacity=".2"/>
  <path d="m31.615 1048.4 4.3452-6.6874c0.06927-0.1066 0.04504-0.2537-0.05482-0.329 0 0-4.0633-3.066-6.095-4.5991-0.26102-0.1969-5.8108-4.3845-5.8108-4.3845l7.6153 16z" fill="#fff"/>
 </g>
</svg>
