<svg clip-rule="evenodd" fill-rule="evenodd" stroke-linejoin="round" stroke-miterlimit="2" viewBox="0 0 48 48" xmlns="http://www.w3.org/2000/svg">
 <g fill-rule="nonzero">
  <path transform="matrix(2.1728 0 0 2.1728 .09865 .09865)" d="m9 18s1 3 2 3 2-3 2-3z" fill="#f2bda2"/>
  <path transform="matrix(2.1728 0 0 2.1728 .09865 .09865)" d="m6 5v-1s0-3 2-3c1 0 3 1 3 1s2-1 3-1c2 0 2 3 2 3v1z" fill="#3f3f3f"/>
  <path d="m13.136 8.79h21.728v6.5186h-21.728z" fill="#e4e4e4" stroke-width="2.1728"/>
 </g>
 <ellipse cx="24" cy="15.309" rx="17.383" ry="4.3457" fill="#4f4f4f" stroke-width="2.1728"/>
 <g transform="matrix(2.1728 0 0 2.1728 .09865 .09865)" fill-rule="nonzero">
  <path d="m8 13-2-6s2-1 5-1 5 1 5 1l-2 6s0 1-3 1-3-1-3-1z" fill="#f2bda2"/>
  <path d="m9 18h4s1-3.5 1-5h-6c0 1.5 1 5 1 5z" fill="#4f4f4f"/>
  <path d="m8 13.5 1 1v1l2 1 2-1v-1l1-1z" fill="#2a2a2a"/>
  <path d="m9 13 2 3 2-3z" fill="#f43e3e"/>
  <path d="m10.607 6.016c-1.487.044-2.659.31-3.464.562-.094.293-.142.606-.143.922 0 1.371.903 2.5 2 2.5s2-1.129 2-2.5c-.001-.534-.138-1.055-.393-1.484zm.393 1.484c0 1.371.903 2.5 2 2.5s2-1.129 2-2.5c-.001-.316-.049-.629-.143-.922-.805-.252-1.977-.518-3.464-.562-.255.429-.392.95-.393 1.484z" fill="#fff"/>
 </g>
 <circle cx="19.654" cy="17.481" r="2.1728" fill="#2a2a2a" stroke-width="2.1728"/>
 <circle cx="28.346" cy="17.481" r="2.1728" fill="#2a2a2a" stroke-width="2.1728"/>
 <path transform="matrix(2.1728 0 0 2.1728 .09865 .09865)" d="m10 13 1 1-1 2 1 1 1-1-1-2 1-1z" fill="#fff" fill-rule="nonzero"/>
</svg>
