<svg width="1024" height="1024" version="1.1" viewBox="0 0 270.93 270.93" xmlns="http://www.w3.org/2000/svg" xmlns:xlink="http://www.w3.org/1999/xlink">
 <defs>
  <linearGradient id="d" x1="132.29" x2="132.29" y1="101.21" y2="270.54" gradientTransform="translate(-46.424 29.557)" gradientUnits="userSpaceOnUse">
   <stop stop-color="#fdfdfd" offset="0"/>
   <stop stop-color="#fff" offset="1"/>
  </linearGradient>
  <filter id="g" x="-.011553" y="-.012483" width="1.0231" height="1.025" color-interpolation-filters="sRGB">
   <feGaussianBlur stdDeviation="1.1196871"/>
  </filter>
  <linearGradient id="e" x1="132.29" x2="132.29" y1="48.292" y2="132.96" gradientTransform="rotate(-15 135.47 161.53)" gradientUnits="userSpaceOnUse">
   <stop stop-color="#f3f2f3" offset="0"/>
   <stop stop-color="#dcdadc" offset="1"/>
  </linearGradient>
  <linearGradient id="c" x1="516.81" x2="516.81" y1="274.86" y2="814.86" gradientTransform="translate(-201.61 -235.66)" gradientUnits="userSpaceOnUse" xlink:href="#a"/>
  <linearGradient id="a">
   <stop stop-color="#f6f7f7" offset="0"/>
   <stop stop-color="#dce7f0" offset="1"/>
  </linearGradient>
  <filter id="f" color-interpolation-filters="sRGB">
   <feFlood flood-color="rgb(0,0,0)" flood-opacity=".29412" result="flood"/>
   <feComposite in="flood" in2="SourceGraphic" operator="in" result="composite1"/>
   <feGaussianBlur in="composite1" result="blur" stdDeviation="3"/>
   <feOffset dx="0" dy="3" result="offset"/>
   <feComposite in="SourceGraphic" in2="offset" result="composite2"/>
  </filter>
  <linearGradient id="b" x1="522.46" x2="522.46" y1="263.95" y2="837.39" gradientTransform="matrix(.15166 0 0 .15166 134.93 161.02)" gradientUnits="userSpaceOnUse" xlink:href="#a"/>
  <filter id="i" color-interpolation-filters="sRGB">
   <feFlood flood-color="rgb(0,0,0)" flood-opacity=".19608" result="flood"/>
   <feComposite in="flood" in2="SourceGraphic" operator="in" result="composite1"/>
   <feGaussianBlur in="composite1" result="blur" stdDeviation="1"/>
   <feOffset dx="0" dy="1" result="offset"/>
   <feComposite in="offset" in2="SourceGraphic" operator="out" result="composite2"/>
  </filter>
  <filter id="h" color-interpolation-filters="sRGB">
   <feFlood flood-color="rgb(27,233,255)" flood-opacity=".58824" result="flood"/>
   <feComposite in="flood" in2="SourceGraphic" operator="out" result="composite1"/>
   <feGaussianBlur in="composite1" result="blur" stdDeviation="6"/>
   <feOffset dx="0" dy="3" result="offset"/>
   <feComposite in="offset" in2="SourceGraphic" operator="in" result="composite2"/>
  </filter>
 </defs>
 <g transform="translate(0 -26.067)">
  <g transform="matrix(.24118 .90008 .90008 -.24118 -42.598 78.56)">
   <rect transform="rotate(-15)" x="-30.02" y="80.892" width="238.12" height="220.4" rx="11.4" fill="url(#d)" fill-rule="evenodd" style="paint-order:stroke markers fill"/>
   <path d="m2.9509 82.954c-6.1004 1.6346-9.6955 7.8615-8.0609 13.962l11.327 42.275 230.01-61.631-11.327-42.275c-1.6346-6.1004-7.8615-9.6955-13.962-8.0609z" fill="url(#e)" fill-rule="evenodd" style="paint-order:stroke markers fill"/>
   <rect transform="rotate(-15 135.47 161.53)" x="19.169" y="53.894" width="232.6" height="215.28" rx="11.135" fill="none" filter="url(#g)" opacity=".2" stroke="#fff" stroke-linecap="round" stroke-linejoin="round" stroke-width="6.4047" style="paint-order:markers fill stroke"/>
   <g fill-rule="evenodd">
    <circle transform="matrix(.25882 .96593 .96593 -.25882 0 0)" cx="105.45" cy="4.8338" r="13.414" fill="#f55" style="paint-order:stroke fill markers"/>
    <circle transform="matrix(.25882 .96593 .96593 -.25882 0 0)" cx="105.53" cy="49.612" r="13.414" fill="#0cf" style="paint-order:stroke fill markers"/>
    <g stroke="#fff" stroke-linecap="round" stroke-linejoin="round" stroke-opacity=".088889" stroke-width="1.1358">
     <rect transform="matrix(.25882 .96593 .96593 -.25882 0 0)" x="147.93" y="-4.0887" width="136.29" height="17.036" rx="8.5852" fill="#333" opacity=".3" style="paint-order:stroke fill markers"/>
     <rect transform="matrix(.25882 .96593 .96593 -.25882 0 0)" x="147.93" y="41.341" width="136.29" height="17.036" rx="8.5852" fill="#333" opacity=".3" style="paint-order:stroke fill markers"/>
     <circle transform="matrix(.25882 .96593 .96593 -.25882 0 0)" cx="270.63" cy="174.73" r="42.591" fill="#0cf" style="paint-order:stroke fill markers"/>
     <circle transform="matrix(.25882 .96593 .96593 -.25882 0 0)" cx="270.63" cy="174.73" r="42.591" fill="#0cf" filter="url(#h)" style="paint-order:stroke fill markers"/>
    </g>
   </g>
  </g>
  <g>
   <path transform="matrix(.12919 0 0 .12919 -176.92 110.25)" d="m307.2 51.2c-141.38 0-256 114.62-256 256s114.62 256 256 256 256-114.62 256-256-114.62-256-256-256zm0 480c-123.5 0-224-100.5-224-224s100.5-224 224-224 224 100.5 224 224-100.5 224-224 224zm79.188-314.5-113.12 113.12-45.252-45.248c-12.5-12.5-32.78-12.5-45.252 0-12.5 12.5-12.5 32.78 0 45.252l67.876 67.876c12.468 12.5 32.752 12.5 45.252 0l135.75-135.75c12.5-12.5 12.5-32.78 0-45.252-12.472-12.5-32.752-12.5-45.252 0z" fill="url(#c)" filter="url(#f)" stroke-width="4"/>
   <path d="m241.78 224.1c0.0357 0.18999 0.0256 0.12941 5e-3 4e-3 -1e-3 -9.3e-4 -4e-3 -2e-3 -5e-3 -4e-3zm-14.239 4.1052c-1.2423 0-2.4852 0.4741-3.433 1.422l-17.157 17.157-6.863-6.8624c-1.8958-1.8958-4.9715-1.8958-6.863 0-1.8958 1.8958-1.8958 4.9715 0 6.863l10.294 10.294c1.891 1.8958 4.9672 1.8958 6.863 0l20.589-20.589c1.8958-1.8958 1.8958-4.9715 0-6.863-0.94576-0.94789-2.1877-1.422-3.43-1.422z" fill="url(#b)" filter="url(#i)" stroke-width=".60665"/>
   <path d="m241.78 224.1c0.0357 0.18999 0.0256 0.12941 5e-3 4e-3 -1e-3 -9.3e-4 -4e-3 -2e-3 -5e-3 -4e-3zm-14.239 4.1052c-1.2423 0-2.4852 0.4741-3.433 1.422l-17.157 17.157-6.863-6.8624c-1.8958-1.8958-4.9715-1.8958-6.863 0-1.8958 1.8958-1.8958 4.9715 0 6.863l10.294 10.294c1.891 1.8958 4.9672 1.8958 6.863 0l20.589-20.589c1.8958-1.8958 1.8958-4.9715 0-6.863-0.94576-0.94789-2.1877-1.422-3.43-1.422z" fill="url(#b)" stroke-width=".60665"/>
  </g>
 </g>
</svg>
