<svg viewBox="0 0 48 48" xmlns="http://www.w3.org/2000/svg">
 <rect x="4" y="4" width="40" height="40" rx="20" fill="#e4e4e4"/>
 <path d="m10.217 9.5098c-0.24192 0.2301-0.47693 0.46512-0.70703 0.70703l13.783 13.783-13.783 13.783c0.2301 0.24192 0.46512 0.47693 0.70703 0.70703l13.783-13.783 13.783 13.783c0.24192-0.2301 0.47693-0.46512 0.70703-0.70703l-13.783-13.783 13.783-13.783c-0.2301-0.24192-0.46512-0.47693-0.70703-0.70703l-13.783 13.783z" opacity=".2"/>
 <path d="m24 4c-11.079 0-19.998 8.92-19.998 20 0 .16772-.004.33329 0 .5.2642-10.846 9.087-19.5 19.998-19.5s19.734 8.6536 19.998 19.5c.004-.16671 0-.33228 0-.5 0-11.08-8.919-20-19.998-20z" fill="#fff" opacity=".2"/>
 <path d="m4.0117 24.5c-.0041.167-.0117.332-.0117.5 0 11.08 8.92 20 20 20s20-8.92 20-20c0-.168-.008-.333-.012-.5-.264 10.846-9.076 19.5-19.988 19.5s-19.724-8.654-19.988-19.5z" opacity=".2"/>
 <path d="m22 6c-0.554 0-1 0.38256-1 0.85742v4.2852c0 0.47486 0.446 0.85742 1 0.85742s1-0.38256 1-0.85742v-4.2852c0-0.47486-0.446-0.85742-1-0.85742zm4 0c-0.554 0-1 0.38256-1 0.85742v4.2852c0 0.47486 0.446 0.85742 1 0.85742s1-0.38256 1-0.85742v-4.2852c0-0.47486-0.446-0.85742-1-0.85742zm-16.506 15c-0.08249 0.0031-0.16308 0.03403-0.23438 0.08984l-1.5078 1.168-1.5059 1.1699c-0.32796 0.25521-0.32796 0.89128 0 1.1465l1.5059 1.1699 1.5078 1.168c0.32904 0.25578 0.7407-0.063572 0.74023-0.57421v-0.40234l1.2598 0.97656c0.32904 0.25578 0.7407-0.063574 0.74023-0.57422v-4.6758c-6.8e-5 -0.37248-0.22865-0.67167-0.50586-0.66211-0.08249 0.0031-0.16308 0.03403-0.23438 0.08984l-1.2598 0.97657v-0.4043c-6.73e-5 -0.37248-0.22865-0.67167-0.50586-0.66211zm27.012 0c-0.27721-0.009557-0.50579 0.28963-0.50586 0.66211v4.6758c-4.69e-4 0.51065 0.4112 0.82999 0.74023 0.57422l1.2598-0.97656v0.40234c-4.69e-4 0.51064 0.4112 0.83 0.74023 0.57422l1.5078-1.168 1.5059-1.1699c0.32796-0.25521 0.32796-0.89128 0-1.1465l-1.5059-1.1699-1.5078-1.168c-0.071299-0.05581-0.15188-0.086744-0.23438-0.089844-0.27721-0.009557-0.50579 0.28964-0.50586 0.66211v0.4043l-1.2598-0.97656c-0.071299-0.05581-0.15188-0.086744-0.23438-0.089844zm-14.506 15c-0.554 0-1 0.38256-1 0.85742v4.2852c0 0.47486 0.446 0.85742 1 0.85742h4c0.554 0 1-0.38256 1-0.85742v-4.2852c0-0.47486-0.446-0.85742-1-0.85742z" opacity=".6"/>
 <circle cx="24" cy="24" r="10" fill="#0086f2"/>
 <path d="m21.185 20a1.1581 1.154 0 0 0-1.1852 1.1553v7.6908a1.1581 1.154 0 0 0 1.7371 0.99909l3.3429-1.9216 3.3414-1.9246a1.1581 1.154 0 0 0 0-1.9982l-3.3429-1.9231-3.3414-1.9216a1.1581 1.154 0 0 0-0.32268-0.1277 1.1581 1.154 0 0 0-0.22919-0.02855z" opacity=".2"/>
 <path d="m21.185 19a1.1581 1.154 0 0 0-1.1852 1.1553v7.6908a1.1581 1.154 0 0 0 1.7371 0.99909l3.3429-1.9216 3.3414-1.9246a1.1581 1.154 0 0 0 0-1.9982l-3.3429-1.9231-3.3414-1.9216a1.1581 1.154 0 0 0-0.32268-0.1277 1.1581 1.154 0 0 0-0.22919-0.02855z" fill="#fff"/>
</svg>
