<svg clip-rule="evenodd" fill-rule="evenodd" stroke-linecap="round" stroke-linejoin="round" viewBox="0 0 48 48" xmlns="http://www.w3.org/2000/svg" xmlns:xlink="http://www.w3.org/1999/xlink">
 <linearGradient id="a" x2="1" gradientTransform="matrix(-.60471 -42.19 42.19 -.60471 23.193 46.37)" gradientUnits="userSpaceOnUse">
  <stop stop-color="#1584d8" offset="0"/>
  <stop stop-color="#1cb2ff" offset="1"/>
 </linearGradient>
 <linearGradient id="b" x2="1" gradientTransform="matrix(1.3182 -25.512 25.512 1.3182 24.282 35.212)" gradientUnits="userSpaceOnUse">
  <stop stop-color="#e7ddd5" offset="0"/>
  <stop stop-color="#f1e9e0" offset="1"/>
 </linearGradient>
 <linearGradient id="c" x2="1" gradientTransform="matrix(-.70235 -13.081 13.081 -.70235 21.031 46.499)" gradientUnits="userSpaceOnUse">
  <stop stop-color="#e1e1e1" offset="0"/>
  <stop stop-color="#f9f9f9" offset="1"/>
 </linearGradient>
 <linearGradient id="d">
  <stop stop-color="#fafafa" offset="0"/>
  <stop stop-color="#e0e0e0" offset="1"/>
 </linearGradient>
 <linearGradient id="e" x2="1" gradientTransform="matrix(-.90517 13.69 -13.69 -.90517 28.95 33.115)" gradientUnits="userSpaceOnUse" xlink:href="#d"/>
 <linearGradient id="f">
  <stop stop-color="#2c2e31" offset="0"/>
  <stop stop-color="#40464d" offset="1"/>
 </linearGradient>
 <linearGradient id="g" x2="1" gradientTransform="matrix(4.0738 -4.4569 4.4569 4.0738 15.27 25.492)" gradientUnits="userSpaceOnUse" xlink:href="#f"/>
 <linearGradient id="h" x2="1" gradientTransform="matrix(5.457 -3.6885 3.6885 5.457 29.09 25.724)" gradientUnits="userSpaceOnUse" xlink:href="#f"/>
 <linearGradient id="i" x2="1" gradientTransform="matrix(.33259 -3.4208 3.4208 .33259 23.811 31.401)" gradientUnits="userSpaceOnUse">
  <stop stop-color="#d81d00" stop-opacity=".85" offset="0"/>
  <stop stop-color="#da4831" stop-opacity=".85" offset="1"/>
 </linearGradient>
 <linearGradient id="j">
  <stop stop-color="#d22900" offset="0"/>
  <stop stop-color="#ff6443" offset="1"/>
 </linearGradient>
 <linearGradient id="k" x2="1" gradientTransform="matrix(-.13688 -13.791 13.791 -.13688 24.662 46.941)" gradientUnits="userSpaceOnUse" xlink:href="#j"/>
 <linearGradient id="l" x2="1" gradientTransform="matrix(1.039 -13.588 13.588 1.039 31.562 46.624)" gradientUnits="userSpaceOnUse" xlink:href="#j"/>
 <linearGradient id="m" x2="1" gradientTransform="matrix(-1.6262 15.008 -15.008 -1.6262 36.452 31.847)" gradientUnits="userSpaceOnUse" xlink:href="#d"/>
 <linearGradient id="n" x2="1" gradientTransform="matrix(-.78639 -13.994 13.994 -.78639 16.988 47.028)" gradientUnits="userSpaceOnUse" xlink:href="#j"/>
 <linearGradient id="o" x2="1" gradientTransform="matrix(-1.322 -14.298 14.298 -1.322 13.546 46.245)" gradientUnits="userSpaceOnUse">
  <stop stop-color="#e3e3e3" offset="0"/>
  <stop stop-color="#f8f8f8" offset="1"/>
 </linearGradient>
 <linearGradient id="p" x2="1" gradientTransform="matrix(-.60864 -51.403 51.403 -.60864 22.97 48.248)" gradientUnits="userSpaceOnUse">
  <stop stop-color="#eaeaea" offset="0"/>
  <stop stop-color="#fff" offset="1"/>
 </linearGradient>
 <circle cx="23.638" cy="24.907" r="21.808" fill="url(#a)"/>
 <path d="m11.281 31.729c6.702 6.286 20.997 4.164 26.287.216 2.312-2.237 1.516-5.459-.579-6.236 6.143-13.641-14.906-22.164-19.326-6.675-2.596-4.84-12.402-.046-6.274 6.281-3.033.487-3.909 5.138-.108 6.414z" fill="url(#b)"/>
 <path d="m18.699 45.313 3.752.14-.215-10.602c-.007-1.971-3.439-2.588-3.943-.473z" fill="url(#c)"/>
 <path d="m29.844 45.461-3.53-.025.323-10.684c.007-1.972 3.439-2.589 3.943-.474z" fill="url(#e)"/>
 <circle cx="17.538" cy="25.491" r="2.267" fill="url(#g)"/>
 <circle cx="31.358" cy="25.724" r="2.267" fill="url(#h)"/>
 <path d="m27.86 28.326c-.537 4.12-6.505 3.883-6.771-.051-.047-.387.034-.354.41-.356l5.877-.032c.515-.048.524.008.484.439z" fill="url(#i)"/>
 <path d="m22.374 45.449 3.991-.064.289-10.177c-.024-2.831-4.413-2.841-4.426-.046z" fill="url(#k)"/>
 <path d="m33.231 44.698-3.494.64.64-11.14c.054-1.971 3.577-2.512 4.049-.386z" fill="url(#l)"/>
 <path d="m36.765 42.902-3.513 1.64 1.191-11.05c.152-1.965 3.584-2.332 3.932-.186z" fill="url(#m)"/>
 <path d="m14.942 43.23 3.965 1.899-.608-10.832c-.054-1.971-3.577-2.511-4.049-.385z" fill="url(#n)"/>
 <path d="m11.866 42.693 3.18.506-.813-9.607c-.152-1.966-3.584-2.333-3.932-.187z" fill="url(#o)"/>
 <circle cx="24.102" cy="24.126" r="21.808" fill="none" stroke="url(#p)" stroke-width="1.81"/>
</svg>
