<svg clip-rule="evenodd" fill-rule="evenodd" stroke-linejoin="round" stroke-miterlimit="2" viewBox="0 0 48 48" xmlns="http://www.w3.org/2000/svg">
 <linearGradient id="a" x2="1" gradientTransform="matrix(.79928 -39.605 39.605 .79928 656.4 56.756)" gradientUnits="userSpaceOnUse">
  <stop stop-color="#888" offset="0"/>
  <stop stop-color="#fefeff" offset="1"/>
 </linearGradient>
 <linearGradient id="b" x2="1" gradientTransform="matrix(0 -45.528 45.528 0 192.82 46.764)" gradientUnits="userSpaceOnUse">
  <stop stop-color="#006783" offset="0"/>
  <stop stop-color="#20ccff" offset="1"/>
 </linearGradient>
 <path d="m17.387 45.391 3.91-5.484h17.453s4.968.082 4.968-7.006v-22.292c-.313-4.851-4.714-5.223-4.714-5.223h-29.298s-5.424.318-5.502 5.605v21.91c.009 6.902 5.502 7.006 5.502 7.006h2.578l3.523 5.463c.767.894.778.777 1.58.021z" fill-opacity=".67"/>
 <path d="m17.387 44.002 3.91-5.484h17.453s4.968.081 4.968-7.006v-22.293c-.313-4.851-4.714-5.223-4.714-5.223h-29.298s-5.424.318-5.502 5.606v21.91c.009 6.902 5.502 7.006 5.502 7.006h2.578l3.523 5.462c.767.895.778.778 1.58.022z" fill="url(#a)"/>
 <circle transform="matrix(.25162 0 0 .25162 26.801 .78199)" cx="24" cy="24" r="22.764" fill="url(#b)"/>
</svg>
