<svg viewBox="0 0 48 48" xmlns="http://www.w3.org/2000/svg">
 <linearGradient id="a" x1="19.473" x2="19.956" y1="1161" y2="1118.8" gradientUnits="userSpaceOnUse">
  <stop stop-color="#5f5fd3" offset="0"/>
  <stop stop-color="#8080ff" offset="1"/>
 </linearGradient>
 <linearGradient id="b" x1="25.34" x2="25.628" y1="1037.3" y2="1010" gradientUnits="userSpaceOnUse">
  <stop stop-color="#ececec" offset="0"/>
  <stop stop-color="#fff" offset="1"/>
 </linearGradient>
 <linearGradient id="c" x1="10.848" x2="11.616" y1="1038.8" y2="1010.4" gradientUnits="userSpaceOnUse">
  <stop stop-color="#808080" offset="0"/>
  <stop stop-color="#999" offset="1"/>
 </linearGradient>
 <g transform="translate(0 -1004.4)">
  <path transform="matrix(1.1927 0 0 .8634 -1.8196 44.628)" d="m25.683 1148.1h-5.2002v13.281h-6.8604v-35.547h11.914q2.9541 0 5.3467 0.708 2.3926 0.6836 4.0772 2.0264 1.709 1.3427 2.6123 3.3447 0.92774 2.002 0.92774 4.6387 0 1.9043-0.46387 3.4424-0.43946 1.5137-1.294 2.7344-0.83008 1.1963-2.0264 2.0996-1.1719 0.9034-2.6367 1.5626l7.6417 14.673v0.3174h-7.3487zm-5.2002-5.5665h5.0782q2.9053 0 4.4678-1.4649 1.5869-1.4892 1.5869-4.0527 0-2.6612-1.5381-4.126-1.5381-1.4893-4.5411-1.4893h-5.0538zm19.611-7.5854a18.446 15.851 0 0 1-18.446 15.851 18.446 15.851 0 0 1-18.446-15.851 18.446 15.851 0 0 1 18.446-15.851 18.446 15.851 0 0 1 18.446 15.851z" fill-opacity=".66667"/>
  <ellipse cx="24" cy="1024.1" rx="22" ry="13.686" fill="url(#c)"/>
  <ellipse cx="26.843" cy="1025.4" rx="19.146" ry="12.188" fill="url(#b)"/>
  <path transform="matrix(1.1927 0 0 .8634 -1.8196 44.091)" d="m25.683 1148.1h-5.2002v13.281h-6.8604v-35.547h11.914q2.9541 0 5.3467 0.708 2.3926 0.6836 4.0772 2.0264 1.709 1.3427 2.6123 3.3447 0.92774 2.002 0.92774 4.6387 0 1.9043-0.46387 3.4424-0.43946 1.5137-1.294 2.7344-0.83008 1.1963-2.0264 2.0996-1.1719 0.9034-2.6367 1.5626l7.6417 14.673v0.3174h-7.3487zm-5.2002-5.5665h5.0782q2.9053 0 4.4678-1.4649 1.5869-1.4892 1.5869-4.0527 0-2.6612-1.5381-4.126-1.5381-1.4893-4.5411-1.4893h-5.0538z" fill="url(#a)"/>
 </g>
</svg>
