<svg clip-rule="evenodd" fill-rule="evenodd" stroke-linejoin="round" stroke-miterlimit="2" version="1.1" viewBox="0 0 128 128" xmlns="http://www.w3.org/2000/svg">
 <linearGradient id="a" x2="1" gradientTransform="matrix(0 -112 112 0 479.3 120)" gradientUnits="userSpaceOnUse">
  <stop stop-color="#006783" offset="0"/>
  <stop stop-color="#20ccff" offset="1"/>
 </linearGradient>
 <circle cx="64" cy="64" r="56" fill="url(#a)" stroke-width="2.46"/>
 <path d="m94.378 89.82-15.467-11.571c3.3006-4.7652 6.7203-12.208 6.7203-18.066 0-3.8047-0.73914-7.4492-2.2174-10.924-1.4783-3.4743-3.4743-6.4683-5.9914-8.9854-2.5171-2.5171-5.5112-4.5132-8.9854-5.9914-3.4743-1.4783-7.1154-2.2174-10.924-2.2174-3.8081 0-7.4493 0.73914-10.924 2.2174-3.4777 1.4783-6.4717 3.4743-8.9888 5.9914-2.5137 2.5171-4.5131 5.5112-5.9914 8.9854-1.4749 3.4777-2.214 7.1189-2.214 10.924 0 3.8081 0.73913 7.4493 2.214 10.924 1.4783 3.4777 3.4777 6.4717 5.9914 8.9888 2.5171 2.5137 5.5146 4.5131 8.9888 5.9914 3.4743 1.4749 7.1154 2.214 10.924 2.214 5.8586 0 12.667-2.3979 17.436-5.7019l12.201 14.408c0.95713 1.0116 2.1527 1.5191 3.5935 1.5191 1.3829 0 2.5819-0.50752 3.5935-1.5191 1.0116-1.0116 1.5191-2.2072 1.5191-3.5935 0-1.4101-0.49389-2.6091-1.4783-3.5935zm-24.225-16.997c-3.5015 3.5015-7.7149 5.2523-12.64 5.2523-4.9253 0-9.1387-1.7508-12.64-5.2523-3.5015-3.5015-5.2523-7.7149-5.2523-12.64 0-4.9253 1.7508-9.1387 5.2523-12.64 3.4981-3.5015 7.7149-5.2523 12.64-5.2523 4.9253 0 9.1387 1.7508 12.64 5.2523 3.5015 3.5015 5.2523 7.7149 5.2523 12.64 0 4.9253-1.7508 9.1387-5.2523 12.64z" fill="#fff" fill-opacity=".85" fill-rule="nonzero" stroke-width="3.4062"/>
</svg>
