<svg version="1.1" viewBox="0 0 128 128" xmlns="http://www.w3.org/2000/svg">
 <linearGradient id="a" x2="1" gradientTransform="matrix(0 -112 112 0 523.78 120)" gradientUnits="userSpaceOnUse">
  <stop stop-color="#9aacb4" offset="0"/>
  <stop stop-color="#ccd9de" offset="1"/>
 </linearGradient>
 <circle cx="64" cy="64" r="56" fill="url(#a)" stroke-width="2.46"/>
 <path d="m95.749 46.487c-1.7934-1.7466-3.9557-2.6199-6.492-2.6199h-8.0369l-1.8278-4.7552c-0.4551-1.1415-1.2866-2.1255-2.4945-2.9545-1.2079-0.82657-2.4453-1.2399-3.7122-1.2399h-18.369c-1.2694 0-2.5068 0.41328-3.7146 1.2399-1.2079 0.82903-2.0394 1.813-2.492 2.9545l-1.8303 4.7552h-8.0369c-2.5338 0-4.6986 0.87331-6.492 2.6199-1.7934 1.7491-2.6913 3.8573-2.6913 6.3272v31.321c0 2.4699 0.89791 4.5781 2.6913 6.3247 1.7934 1.7491 3.9582 2.6224 6.492 2.6224h50.514c2.5338 0 4.6986-0.87331 6.492-2.6224 1.7934-1.7466 2.6913-3.8549 2.6913-6.3247v-31.321c0-2.4699-0.89545-4.5781-2.6913-6.3272zm-20.394 33.05c-3.1464 3.0652-6.9299 4.5978-11.355 4.5978s-8.2091-1.5326-11.355-4.5978c-3.1439-3.0627-4.7159-6.7528-4.7159-11.063 0-4.3124 1.572-7.9975 4.7159-11.063 3.1464-3.0652 6.9299-4.5978 11.355-4.5978s8.2091 1.5326 11.355 4.5978c3.1439 3.0627 4.7159 6.7503 4.7159 11.063 0 4.31-1.572 7.9975-4.7159 11.063zm-11.355-21.129c-2.8462 0-5.2792 0.98401-7.3014 2.952-2.0197 1.9705-3.0308 4.3419-3.0308 7.1144s1.0111 5.1439 3.0308 7.1144c2.0221 1.968 4.4551 2.952 7.3014 2.952 2.8462 0 5.2792-0.98401 7.3014-2.952 2.0197-1.9705 3.0308-4.3419 3.0308-7.1144s-1.0111-5.1439-3.0308-7.1144c-2.0221-1.968-4.4551-2.952-7.3014-2.952z" fill-opacity=".72" stroke-width="2.46"/>
</svg>
