<svg enable-background="new 0 0 1024 1024" image-rendering="optimizeSpeed" version="1.1" viewBox="0 0 128 128" xmlns="http://www.w3.org/2000/svg" xmlns:xlink="http://www.w3.org/1999/xlink">
 <defs>
  <linearGradient id="h" x1="82" x2="82" y1="106" y2="112" gradientTransform="matrix(10.081 0 0 10.081 -385.17 -536.23)" gradientUnits="userSpaceOnUse" xlink:href="#a"/>
  <linearGradient id="c" x1="230.88" x2="230.88" y1="934.11" y2="930.36" gradientTransform="matrix(26.882 0 0 26.882 -5724.6 -24497)" gradientUnits="userSpaceOnUse" xlink:href="#b"/>
  <linearGradient id="b">
   <stop stop-color="#f6f7f7" offset="0"/>
   <stop stop-color="#dce7f0" offset="1"/>
  </linearGradient>
  <linearGradient id="d" x1="562.56" x2="562.56" y1="283.89" y2="569.09" gradientUnits="userSpaceOnUse" xlink:href="#b"/>
  <linearGradient id="a">
   <stop stop-color="#ff9300" offset="0"/>
   <stop stop-color="#ff6d00" offset="1"/>
  </linearGradient>
  <linearGradient id="i" x1="540.14" x2="540.14" y1="29.77" y2="1055" gradientTransform="matrix(.99492 0 0 .99492 2.599 -25.619)" gradientUnits="userSpaceOnUse">
   <stop stop-color="#fff" stop-opacity=".58824" offset="0"/>
   <stop stop-color="#fff" stop-opacity="0" offset="1"/>
  </linearGradient>
  <filter id="k" x="-.024" y="-.024" width="1.048" height="1.058" color-interpolation-filters="sRGB">
   <feFlood flood-color="rgb(0,0,0)" flood-opacity=".29412" result="flood"/>
   <feComposite in="flood" in2="SourceGraphic" operator="in" result="composite1"/>
   <feGaussianBlur in="composite1" result="blur" stdDeviation="3"/>
   <feOffset dx="0" dy="3" result="offset"/>
   <feComposite in="offset" in2="SourceGraphic" operator="out" result="composite2"/>
  </filter>
  <filter id="j" x="-.024" y="-.1152" width="1.048" height="1.2784" color-interpolation-filters="sRGB">
   <feFlood flood-color="rgb(0,0,0)" flood-opacity=".29412" result="flood"/>
   <feComposite in="flood" in2="SourceGraphic" operator="in" result="composite1"/>
   <feGaussianBlur in="composite1" result="blur" stdDeviation="3"/>
   <feOffset dx="0" dy="3" result="offset"/>
   <feComposite in="offset" in2="SourceGraphic" operator="out" result="composite2"/>
  </filter>
  <linearGradient id="g" x1="520" x2="520.03" y1="4" y2="1026" gradientTransform="matrix(.85938 0 0 .85938 72 61.338)" gradientUnits="userSpaceOnUse" xlink:href="#a"/>
  <linearGradient id="e" x1="22" x2="1002" y1="512" y2="512" gradientTransform="translate(-5.8398e-5 -.00063348)" gradientUnits="userSpaceOnUse" xlink:href="#a"/>
  <linearGradient id="f" x1="520" x2="520" y1="24" y2="984" gradientUnits="userSpaceOnUse" xlink:href="#a"/>
  <linearGradient id="m" x1="230.88" x2="230.88" y1="934.11" y2="930.36" gradientTransform="matrix(16.667,0,0,16.667,-3296.7,-15068)" gradientUnits="userSpaceOnUse" xlink:href="#b"/>
  <linearGradient id="l" x1="562.56" x2="562.56" y1="283.89" y2="569.09" gradientTransform="matrix(1.6129,0,0,1.6129,-407.35,-193.89)" gradientUnits="userSpaceOnUse" xlink:href="#b"/>
 </defs>
 <g transform="matrix(.11429 0 0 .11429 5.4857 5.4857)">
  <circle cx="512" cy="512" r="490" fill="url(#f)" fill-rule="evenodd" style="paint-order:stroke markers fill"/>
  <circle cx="512" cy="512" r="490" fill="url(#e)" fill-rule="evenodd" style="paint-order:stroke markers fill"/>
  <path d="m919.98 332.89c-5.3446-12.958-11.373-25.651-18.085-38.081-3.7754-7.0381-7.7839-14.03-12.025-20.881-18.225-29.551-40.458-57.47-66.699-83.712-85.903-85.903-189.66-128.88-311.17-128.88s-225.22 42.975-311.12 128.88c-85.903 85.903-128.88 189.61-128.88 311.12s42.975 225.27 128.88 311.17c85.903 85.903 183.35-39.036 304.86-39.036s231.53 124.94 317.43 39.036c47.309-47.356 81.614-100.12 102.87-158.24 17.292-47.403 25.962-98.347 25.962-152.93 0-41.856-5.0805-81.614-15.288-119.28-1.1653-4.2415-2.3771-8.4831-3.6356-12.678-3.822-12.398-8.2034-24.564-13.097-36.496z" fill="url(#g)" stroke-width=".9322"/>
  <rect transform="matrix(1.6129,0,0,1.6129,-407.35,-193.89)" x="420" y="437.75" width="300" height="62.5" ry="31.25" fill="url(#m)" filter="url(#j)"/>
  <g stroke-width="1.6129">
   <path d="m460.65 250.06c-16.106 33.514-31.752 67.948-46.939 103.33-14.726 34.91-30.032 71.787-45.677 110.89-3.4584 8.9045-6.8895 18.552-10.395 27.723h102.38c1.0995-3.054 2.3763-6.4427 3.4653-9.4505 7.3626-19.085 13.864-36.469 19.847-52.293 5.9826-15.828 11.149-29.795 15.751-41.898 4.6016-12.102 8.0947-21.684 10.396-28.668 2.761 6.9839 6.4242 16.561 11.026 28.668 4.6019 12.102 10.084 26.071 16.066 41.898 6.4424 15.824 12.944 33.208 19.847 52.293 1.0887 3.0077 2.3656 6.3964 3.465 9.4505h106.16c-3.5879-9.173-7.1464-18.814-10.71-27.723-15.186-39.1-30.492-75.976-45.677-110.89-15.186-35.377-30.661-69.811-46.308-103.33zm-154.67 381.48c-11.592 32.434-23.429 66.121-35.913 102.38h111.83c5.0621-16.758 10.713-33.973 16.697-51.663 5.9847-16.431 11.738-32.711 17.326-49.143h-95.451c-4.9922 0-9.7968-0.59677-14.491-1.5753zm411.72 0c-4.6019 0.93818-9.2892 1.5753-14.176 1.5753h-98.916c5.5552 16.426 11.14 32.716 16.697 49.143 6.4419 17.687 12.264 34.905 17.326 51.663h115.3c-12.483-36.261-24.319-69.948-35.913-102.38-0.10758 0.0202-0.21505-0.0202-0.31452 0z" fill="url(#l)"/>
   <rect x="270.07" y="512.16" width="483.87" height="100.81" ry="50.403" fill="url(#c)"/>
   <rect x="290.23" y="542.4" width="302.42" height="60.484" ry="30.242" color="#000000" enable-background="accumulate" fill="#fff"/>
   <rect x="290.23" y="532.32" width="302.42" height="60.484" ry="30.242" color="#000000" enable-background="accumulate" fill="url(#h)"/>
   <path d="m320.47 512.16c-27.924 0-50.403 22.481-50.403 50.403 0 1.7447 0.13435 3.3419 0.31452 5.0403 2.5726-25.477 23.91-45.363 50.089-45.363h383.06c26.177 0 47.516 19.885 50.089 45.363 0.16129-1.6989 0.31452-3.2952 0.31452-5.0403 0-27.923-22.481-50.403-50.403-50.403z" fill="#fff"/>
   <path d="m320.47 532.32c-16.755 0-30.242 13.488-30.242 30.242 0 1.7661 0.3414 3.3577 0.62903 5.0403 2.4435-14.269 14.625-25.202 29.611-25.202h241.94c14.987 0 27.168 10.933 29.613 25.202 0.28762-1.6827 0.62903-3.2731 0.62903-5.0403 0-16.753-13.488-30.242-30.242-30.242h-241.94z" color="#000000" enable-background="accumulate" opacity=".1"/>
  </g>
  <path transform="matrix(1.6129,0,0,1.6129,-407.35,-193.89)" d="m538.16 275.25c-9.9858 20.779-19.686 42.128-29.102 64.062-9.13 21.644-18.62 44.508-28.32 68.75-2.1442 5.5208-4.2715 11.502-6.4452 17.188h63.476c0.68167-1.8935 1.4733-3.9945 2.1485-5.8593 4.5648-11.833 8.5957-22.611 12.305-32.422 3.7092-9.8132 6.9123-18.473 9.7655-25.977 2.853-7.5033 5.0187-13.444 6.4453-17.774 1.7118 4.33 3.983 10.268 6.836 17.774 2.8532 7.5033 6.2523 16.164 9.961 25.977 3.9943 9.8112 8.0252 20.589 12.305 32.422 0.675 1.8648 1.4667 3.9658 2.1483 5.8593h65.82c-2.2245-5.6873-4.4308-11.665-6.6405-17.188-9.4153-24.242-18.905-47.105-28.32-68.75-9.4152-21.934-19.01-43.283-28.711-64.062zm-95.898 236.52c-7.1872 20.109-14.526 40.995-22.266 63.476h69.336c3.1385-10.39 6.6422-21.063 10.352-32.031 3.7105-10.187 7.2778-20.281 10.742-30.469h-59.18c-3.0952 0-6.074-0.37-8.9843-0.97667zm255.27 0c-2.8532 0.58167-5.7593 0.97667-8.7892 0.97667h-61.328c3.4442 10.184 6.907 20.284 10.352 30.469 3.994 10.966 7.6037 21.641 10.742 32.031h71.484c-7.7393-22.482-15.078-43.368-22.266-63.476-0.0667 0.0125-0.13333-0.0125-0.195 0z" fill="url(#d)" filter="url(#k)"/>
  <circle cx="512" cy="512" r="487.51" color="#000000" enable-background="accumulate" fill="none" stroke="url(#i)" stroke-width="4.975"/>
 </g>
</svg>
