<svg clip-rule="evenodd" fill-rule="evenodd" stroke-linejoin="round" stroke-miterlimit="2" viewBox="0 0 48 48" xmlns="http://www.w3.org/2000/svg">
 <g fill-rule="nonzero">
  <path d="m23.846 24c-10.972 0-20 4.514-20 10s9.028 10 20 10 20-4.514 20-10-9.028-10-20-10z" fill="#6f8a94"/>
  <path d="m23.846 14c-10.972 0-20 4.514-20 10s9.028 10 20 10 20-4.514 20-10-9.028-10-20-10z" fill="#9daeb5"/>
  <path d="m23.846 4c-10.972 0-20 4.514-20 10s9.028 10 20 10 20-4.514 20-10-9.028-10-20-10z" fill="#d1dbe0"/>
 </g>
 <circle cx="35.169" cy="35.323" r="8.6774" fill="#44ad4d" stroke-width=".78886"/>
 <path transform="matrix(.95279 0 0 .91682 .85936 3.2199)" d="m42.307 35.015-9.446 5.454v-10.907l4.723 2.726z" fill="#fff" fill-rule="nonzero"/>
</svg>
