<svg clip-rule="evenodd" fill-rule="evenodd" stroke-linejoin="round" stroke-miterlimit="2" viewBox="0 0 48 48" xmlns="http://www.w3.org/2000/svg">
 <linearGradient id="a" x2="1" gradientTransform="matrix(-.0010974 -43.148 43.148 -.0010974 135.01 45.361)" gradientUnits="userSpaceOnUse">
  <stop stop-color="#b7b4b4" offset="0"/>
  <stop stop-color="#f1f1f1" offset="1"/>
 </linearGradient>
 <linearGradient id="b" x2="1" gradientTransform="matrix(0 -42.223 42.223 0 136.47 44.339)" gradientUnits="userSpaceOnUse">
  <stop stop-color="#197ef1" offset="0"/>
  <stop stop-color="#20b9fa" offset="1"/>
 </linearGradient>
 <linearGradient id="c" x2="1" gradientTransform="matrix(-9.1581 -17.856 17.856 -9.1581 26.052 33.889)" gradientUnits="userSpaceOnUse">
  <stop stop-color="#f6fbff" offset="0"/>
  <stop stop-color="#eaeff2" offset="1"/>
 </linearGradient>
 <linearGradient id="d" x2="1" gradientTransform="matrix(0 -13.137 13.137 0 19.169 32.48)" gradientUnits="userSpaceOnUse">
  <stop stop-color="#166cd2" offset="0"/>
  <stop stop-color="#1ca7de" offset="1"/>
 </linearGradient>
 <path d="m42.397 45.363-12.085-.014v-43.099l12.431-.045c2.16.026 3.24 1.708 3.24 3.729v35.526c.094 2.219-1.372 3.855-3.586 3.903z" fill="url(#a)"/>
 <path d="m23.275 2.257 16.512-1.548c2.209-.223 3.174.962 3.191 3.337l-.14 39.051c-.04 2.642-1.222 4.026-3.552 4.123l-15.903-1.857h-16.984c-2.169 0-4.373-1.766-4.385-4.518v-34.223c.083-3.166 1.403-4.359 4.569-4.417z" fill="url(#b)"/>
 <path d="m42.838 43.097c-.04 2.642-1.222 4.026-3.552 4.123l-16.083-1.878v-43.078l16.584-1.555c2.209-.223 3.174.962 3.191 3.337z" fill-opacity=".15"/>
 <path d="m35.268 18.678c0-.702-.278-1.374-.774-1.87s-1.168-.774-1.87-.774h-20.055c-.701 0-1.374.278-1.87.774s-.774 1.168-.774 1.87v12.567c0 .702.278 1.374.774 1.87s1.169.774 1.87.774h20.055c.702 0 1.374-.278 1.87-.774s.774-1.168.774-1.87z" fill="url(#c)"/>
 <path d="m19.169 20.986 8.21 4.105-8.21 4.105z" fill="url(#d)" fill-rule="nonzero"/>
</svg>
