<svg viewBox="0 0 48 48" xmlns="http://www.w3.org/2000/svg">
 <circle cx="24" cy="25" r="20" opacity=".2"/>
 <path d="m24 4a20 20 0 0 1 20 20h-20z" fill="#196260"/>
 <path d="m24 44a20 20 0 0 1-20-20h20z" fill="#97c33d"/>
 <path d="m4 24 4 3 4-3z" fill="#5d7dbd"/>
 <path d="m24 4a20 20 0 0 0-20 20h20z" fill="#5d7dbd"/>
 <path d="m44 24-4-3-4 3z" fill="#3f96b9"/>
 <path d="m24 44a20 20 0 0 0 20-20h-20z" fill="#3f96b9"/>
 <path d="m24 44 3-4-3-4z" fill="#97c33d"/>
 <path d="m24 4-3 4 3 4z" fill="#196260"/>
 <circle cx="24" cy="25" r="12" opacity=".2"/>
 <circle cx="24" cy="24" r="12" fill="#f9f9f9"/>
 <path d="m24 4a20 20 0 0 0-20 20 20 20 0 0 0 0.021484 0.58203 20 20 0 0 1 19.979-19.582 20 20 0 0 1 19.979 19.418 20 20 0 0 0 0.021484-0.41797 20 20 0 0 0-20-20z" fill="#fff" opacity=".1"/>
</svg>
