<?xml version="1.0" encoding="UTF-8" standalone="no"?>
<svg
   clip-rule="evenodd"
   fill-rule="evenodd"
   stroke-linejoin="round"
   stroke-miterlimit="2"
   viewBox="0 0 128 128"
   version="1.1"
   id="svg13"
   sodipodi:docname="system-software-install.svg"
   width="128"
   height="128"
   inkscape:version="1.1.2 (0a00cf5339, 2022-02-04)"
   xmlns:inkscape="http://www.inkscape.org/namespaces/inkscape"
   xmlns:sodipodi="http://sodipodi.sourceforge.net/DTD/sodipodi-0.dtd"
   xmlns="http://www.w3.org/2000/svg"
   xmlns:svg="http://www.w3.org/2000/svg">
  <defs
     id="defs17" />
  <sodipodi:namedview
     id="namedview15"
     pagecolor="#ffffff"
     bordercolor="#666666"
     borderopacity="1.0"
     inkscape:pageshadow="2"
     inkscape:pageopacity="0.0"
     inkscape:pagecheckerboard="0"
     showgrid="false"
     showguides="false"
     inkscape:zoom="2.7400388"
     inkscape:cx="59.123251"
     inkscape:cy="58.028376"
     inkscape:window-width="1904"
     inkscape:window-height="1011"
     inkscape:window-x="0"
     inkscape:window-y="32"
     inkscape:window-maximized="1"
     inkscape:current-layer="svg13" />
  <linearGradient
     id="a"
     x2="1"
     gradientTransform="matrix(0,-112.00025,112.00025,0,202.43223,120)"
     gradientUnits="userSpaceOnUse">
    <stop
       stop-color="#006783"
       offset="0"
       id="stop2" />
    <stop
       stop-color="#20ccff"
       offset="1"
       id="stop4" />
  </linearGradient>
  <circle
     cx="64"
     cy="64"
     r="56"
     fill="url(#a)"
     id="circle7"
     style="fill:url(#a);stroke-width:2.46002" />
  <path
     d="m 41.072571,66.575646 c 1.628536,-1.643297 4.277983,-1.648217 5.916359,-0.0123 L 63.537515,84.774908 80.00984,66.492005 c 1.630997,-1.640836 4.277983,-1.645756 5.916359,-0.0123 1.635917,1.635916 1.643297,4.287823 0.0123,5.928659 L 66.774908,93.677737 c -0.880689,0.885609 -2.056581,1.279213 -3.215252,1.207872 -1.156212,0.07626 -2.337024,-0.312423 -3.222633,-1.195572 L 41.084871,72.504305 c -1.635917,-1.633456 -1.640837,-4.287823 -0.0123,-5.928659 z m 22.455104,2.00738 c -3.805658,0.0098 -6.897909,-3.072571 -6.905289,-6.883149 -0.0074,-3.810578 3.070111,-6.907749 6.875769,-6.915129 3.805658,-0.0074 6.897909,3.075031 6.905289,6.885609 0.0098,3.810578 -3.070111,6.905289 -6.875769,6.912669 z"
     fill="#ffffff"
     fill-opacity="0.85"
     fill-rule="nonzero"
     id="path9"
     style="stroke-width:2.46002" />
  <path
     d="m 60.651907,48.538745 h -0.514146 c -0.487084,0 -0.875768,-0.396064 -0.875768,-0.880688 v -1.478475 c -2.083641,-0.526445 -2.681427,-1.763838 -2.681427,-4.307503 0,-3.751538 3.04551,-6.799508 6.799508,-6.799508 3.751537,0 6.797048,3.04797 6.797048,6.799508 0,2.506765 -0.634686,3.739237 -2.676507,4.282903 v 1.498155 c 0,0.487084 -0.393604,0.880688 -0.880689,0.880688 h -0.509225 c -0.484625,0 -0.880689,-0.393604 -0.880689,-0.880688 v -1.178352 c -0.228782,0.01722 -0.464944,0.0246 -0.713407,0.03444 v 1.148832 c 0,0.482164 -0.393604,0.875768 -0.880689,0.875768 h -0.509225 c -0.487085,0 -0.880688,-0.393604 -0.880688,-0.875768 v -1.146372 c -0.248463,-0.0074 -0.489545,-0.01476 -0.718328,-0.02706 v 1.173432 c 0,0.484624 -0.393604,0.880688 -0.875768,0.880688 z m -0.09102,-9.431734 c 1.153751,0.450185 2.088561,0.905289 2.088561,2.02706 0,1.114391 -0.755228,1.328414 -2.088561,2.019681 -1.023371,0.531365 -2.088561,-0.90529 -2.088561,-2.019681 0,-1.121771 1.01353,-2.445264 2.088561,-2.02706 z m 5.608856,0 c 1.109471,-0.314883 2.086101,0.905289 2.086101,2.02706 0,1.114391 -1.094711,2.610086 -2.086101,2.019681 -1.215252,-0.720788 -2.088561,-0.90529 -2.088561,-2.019681 0,-1.121771 0.814268,-1.665436 2.088561,-2.02706 z"
     fill="#e2f3fe"
     id="path11"
     style="stroke-width:2.46002" />
</svg>
