<svg width="128" height="128" version="1.1" viewBox="0 0 33.867 33.867" xmlns="http://www.w3.org/2000/svg">
 <defs>
  <linearGradient id="a" x1="132.29" x2="132.29" y1="50.937" y2="270.54" gradientTransform="matrix(.12298 0 0 .12298 .27428 23.135)" gradientUnits="userSpaceOnUse">
   <stop stop-color="#1a1a1a" offset="0"/>
   <stop stop-color="#1a1a1a" offset="1"/>
  </linearGradient>
  <linearGradient id="b" x1="132.29" x2="132.29" y1="48.292" y2="132.96" gradientTransform="matrix(.12298 0 0 .12298 .27428 23.135)" gradientUnits="userSpaceOnUse">
   <stop stop-color="#333" offset="0"/>
   <stop stop-color="#1a1a1a" offset="1"/>
  </linearGradient>
  <filter id="c" x="-.018002" y="-.01945" width="1.036" height="1.0389" color-interpolation-filters="sRGB">
   <feGaussianBlur stdDeviation="1.1196871"/>
  </filter>
 </defs>
 <g transform="translate(0 -26.067)">
  <rect x="2.2916" y="29.448" width="29.283" height="27.104" rx="1.4019" fill="url(#a)" fill-rule="evenodd" style="paint-order:stroke markers fill"/>
  <path d="m3.6935 29.448c-0.77666 0-1.4019 0.62524-1.4019 1.4019v5.3821h29.283v-5.3821c0-0.77666-0.62523-1.4019-1.4019-1.4019z" fill="url(#b)" fill-rule="evenodd" style="paint-order:stroke markers fill"/>
  <rect transform="matrix(.12298 0 0 .12298 .27428 23.135)" x="19.169" y="53.894" width="232.6" height="215.28" rx="11.135" fill="none" filter="url(#c)" opacity=".1" stroke="#fff" stroke-linecap="round" stroke-linejoin="round" stroke-width="3" style="paint-order:markers fill stroke"/>
  <g fill="#666">
   <ellipse cx="6.5961" cy="32.858" rx="1.7666" ry="1.7666" fill-rule="evenodd" style="paint-order:markers fill stroke"/>
   <g transform="matrix(.26014 0 0 .26014 -15.074 -2.9913)">
    <path d="m104.34 189.3c0-7.779 6.4478-18.555 18.557-18.555 4.8727 0 9.0248 2.0312 12.041 4.5475l-4.1686-0.10611h-0.0634c-1.3643-0.0165-2.4832 1.0749-2.5011 2.4391-0.0165 1.3629 1.0749 2.4832 2.4391 2.4998l9.4024 0.23702c0.84887 0.23014 1.757-0.011 2.3812-0.63251 0.62288-0.62012 0.86955-1.5255 0.6463-2.3771l-0.23977-9.4189c-0.0331-1.3394-1.13-2.4074-2.4694-2.4074h-0.0634c-1.3643 0.0345-2.4405 1.1686-2.406 2.5314l0.0841 3.3169c-4.2209-3.565-9.5581-5.537-15.083-5.5686-14.055 0-23.496 12.149-23.496 23.494 0 1.3643 1.1052 2.4694 2.4694 2.4694s2.4694-1.1052 2.4694-2.4694z"/>
    <path d="m144.2 186.83c-1.3642 0-2.4694 1.1066-2.4694 2.4694 0 7.7804-6.4478 18.557-18.557 18.557-4.8728 0-9.0248-2.0312-12.041-4.5475l4.1686 0.10611c1.3643 0.0345 2.4984-1.0432 2.5328-2.4074 0.0345-1.3642-1.0432-2.497-2.4074-2.5314l-9.4037-0.2384c-0.84887-0.22876-1.7556 0.0124-2.3799 0.63389-0.62287 0.62012-0.86954 1.5255-0.6463 2.3757l0.23978 9.4203c0.0331 1.3395 1.13 2.4074 2.4694 2.4061h0.0634c1.3643-0.0345 2.4405-1.1672 2.4061-2.5315l-0.0841-3.3156c4.2209 3.565 9.5581 5.5356 15.083 5.5686 14.055 0 23.496-12.149 23.496-23.496 0-1.3629-1.1052-2.4694-2.4694-2.4694z"/>
   </g>
   <ellipse cx="11.802" cy="32.858" rx="1.7666" ry="1.7666" fill-rule="evenodd" style="paint-order:markers fill stroke"/>
   <ellipse cx="17.008" cy="32.858" rx="1.7666" ry="1.7666" fill-rule="evenodd" style="paint-order:markers fill stroke"/>
  </g>
 </g>
</svg>
