<svg version="1.1" viewBox="0 0 1024 1024" xmlns="http://www.w3.org/2000/svg" xmlns:xlink="http://www.w3.org/1999/xlink">
 <defs>
  <linearGradient id="a">
   <stop stop-color="#00b8ff" offset="0"/>
   <stop stop-color="#007bff" offset="1"/>
  </linearGradient>
  <linearGradient id="c" x1="97.551" x2="97.551" y1="-3.6735" y2="204.49" gradientTransform="matrix(4.9 0 0 4.9 22 50.362)" gradientUnits="userSpaceOnUse" xlink:href="#a"/>
  <linearGradient id="b" x1="520" x2="520" y1="52.362" y2="1052.4" gradientUnits="userSpaceOnUse" xlink:href="#a"/>
  <linearGradient id="w" x1="123.64" x2="146.53" y1="131.03" y2="174.71" gradientTransform="matrix(4.2812 0 0 3.5908 41 42)" gradientUnits="userSpaceOnUse">
   <stop stop-color="#eff7fc" offset="0"/>
   <stop stop-color="#fff" offset="1"/>
  </linearGradient>
  <filter id="e" color-interpolation-filters="sRGB">
   <feFlood flood-color="rgb(0,0,0)" flood-opacity=".29412" result="flood"/>
   <feComposite in="flood" in2="SourceGraphic" operator="in" result="composite1"/>
   <feGaussianBlur in="composite1" result="blur" stdDeviation="3"/>
   <feOffset dx="0" dy="3" result="offset"/>
   <feComposite in="SourceGraphic" in2="offset" result="composite2"/>
  </filter>
  <linearGradient id="d" x1="540.14" x2="540.14" y1="29.77" y2="1055" gradientTransform="matrix(.99492 0 0 .99492 2.599 2.7429)" gradientUnits="userSpaceOnUse">
   <stop stop-color="#fff" stop-opacity=".58824" offset="0"/>
   <stop stop-color="#fff" stop-opacity="0" offset="1"/>
  </linearGradient>
 </defs>
 <g transform="translate(0 -28.362)">
  <circle cx="512" cy="540.36" r="490" color="#000000" fill="url(#c)"/>
  <circle cx="511.5" cy="540.86" r="468.66" color="#000000" fill="url(#b)"/>
  <g fill="none">
   <circle cx="512" cy="540.36" r="175" style="paint-order:stroke markers fill"/>
   <circle cx="226.03" cy="825.61" r="125" style="paint-order:stroke markers fill"/>
   <path d="m360 452.36-235 300 180 170 315-245z"/>
  </g>
  <g transform="translate(-11.413 11.039)">
   <g filter="url(#e)" stroke-width="3.9208">
    <path d="m425.24 728.15c-15.243 0-12.653-5.7554-17.91-20.269l-44.824-147.52 345.03-204.69" fill="#c8daea"/>
    <path d="m425.24 728.15c11.762 0 16.96-5.3794 23.525-11.762l62.733-61-78.252-47.187" fill="#a9c9dd"/>
    <path d="m433.24 608.21 189.61 140.09c21.637 11.939 37.253 5.7574 42.643-20.088l77.182-363.71c7.902-31.681-12.077-46.05-32.776-36.653l-453.21 174.76c-30.936 12.408-30.755 29.667-5.6389 37.358l116.3 36.3 269.26-169.87c12.711-7.708 24.377-3.564 14.802 4.934" fill="url(#w)"/>
   </g>
  </g>
  <circle cx="512" cy="540.36" r="487.51" color="#000000" fill="none" stroke="url(#d)" stroke-width="4.975"/>
 </g>
</svg>
