<svg clip-rule="evenodd" fill-rule="evenodd" stroke-linejoin="round" stroke-miterlimit="2" viewBox="0 0 48 48" xmlns="http://www.w3.org/2000/svg">
 <linearGradient id="a" x2="1" gradientTransform="matrix(0 -45.161 51.156 0 530.42 556.07)" gradientUnits="userSpaceOnUse">
  <stop stop-color="#006783" offset="0"/>
  <stop stop-color="#20ccff" offset="1"/>
 </linearGradient>
 <linearGradient id="b" x2="1" gradientTransform="matrix(0 -6 6 0 426.57 509.8)" gradientUnits="userSpaceOnUse">
  <stop stop-color="#c61423" offset="0"/>
  <stop stop-color="#dc2b41" offset="1"/>
 </linearGradient>
 <linearGradient id="c" x2="1" gradientTransform="matrix(0 -4 4 0 425.57 508.8)" gradientUnits="userSpaceOnUse">
  <stop stop-color="#f7aeb4" offset="0"/>
  <stop stop-color="#f8d4d9" offset="1"/>
 </linearGradient>
 <path transform="matrix(.9383 0 0 .9383 -295.45 -476.26)" d="m358.771 516.998c-4.823-3.925-11.228-6.087-18.033-6.087-6.806 0-13.211 2.162-18.034 6.087-4.865 3.959-7.545 9.236-7.545 14.859 0 5.366 2.443 10.417 6.895 14.308-.08.181-.144.371-.185.571l-1.463 7.196c-.174.855.06 1.365.287 1.643.262.32.65.497 1.093.497.334 0 .694-.099 1.069-.294l8.509-4.42c2.946.948 6.113 1.445 9.373 1.445 6.806 0 13.21-2.162 18.034-6.087 4.865-3.959 7.545-9.236 7.545-14.859s-2.68-10.9-7.545-14.859z" fill="url(#a)" fill-rule="nonzero"/>
 <circle transform="matrix(2.4891 0 0 2.4891 -1018.8 -1253.8)" cx="425.57" cy="506.8" r="3" fill="url(#b)"/>
 <path transform="matrix(2.4891 0 0 2.4891 -1018.8 -1253.8)" d="m425.571 504.798c-.277 0-.5.223-.5.5v.293l-.207-.207c-.195-.196-.511-.196-.707 0-.195.196-.195.511 0 .707l.207.207h-.293c-.277 0-.5.223-.5.5s.223.5.5.5h.293l-.207.207c-.195.196-.195.511 0 .707.196.196.512.196.707 0l.207-.207v.293c0 .277.223.5.5.5s.5-.223.5-.5v-.293l.207.207c.196.196.512.196.707 0 .196-.196.196-.511 0-.707l-.207-.207h.293c.277 0 .5-.223.5-.5s-.223-.5-.5-.5h-.293l.207-.207c.196-.196.196-.511 0-.707-.195-.196-.511-.196-.707 0l-.207.207v-.293c0-.277-.223-.5-.5-.5z" fill="url(#c)" fill-rule="nonzero"/>
</svg>
