<svg viewBox="0 0 48 48" xmlns="http://www.w3.org/2000/svg">
 <linearGradient id="a" x1="382.6" x2="384.92" y1="513.86" y2="397.61" gradientUnits="userSpaceOnUse">
  <stop stop-color="#dcdfe0" offset="0"/>
  <stop stop-color="#fefeff" offset="1"/>
 </linearGradient>
 <linearGradient id="b" x1="367.84" x2="367.84" y1="586.54" y2="356.95" gradientUnits="userSpaceOnUse">
  <stop stop-color="#0a80fd" offset="0"/>
  <stop stop-color="#56c5fa" offset="1"/>
 </linearGradient>
 <g transform="matrix(.20215 0 0 .20215 -50.356 -71.037)">
  <path d="m373.32 583.1 32.899-31.001h45.218s28.085-6.3996 28.085-28.083v-137.54c-1.7692-27.42-26.644-29.524-26.644-29.524h-165.62s-30.657 1.7993-31.098 31.688v123.85c1.4021 38.363 31.098 39.607 31.098 39.607h46.425l30.711 30.879c4.3346 5.0564 4.3951 4.3946 8.9287 0.1225z" fill="url(#b)" fill-rule="evenodd"/>
  <path d="m443.05 411.85c-5.2102 2.3087-10.801 3.8744-16.675 4.5735 5.9976-3.5915 10.589-9.2882 12.765-16.055-5.6259 3.326-11.836 5.741-18.453 7.0503-5.2986-5.6525-12.835-9.1733-21.195-9.1733-16.038 0-29.041 13.003-29.041 29.032 0 2.2733 0.25651 4.4936 0.75198 6.6168-24.132-1.212-45.53-12.774-59.851-30.342-2.5034 4.2816-3.9276 9.2704-3.9276 14.596 0 10.076 5.1307 18.966 12.915 24.167-4.7592-0.15926-9.2352-1.4683-13.154-3.6445v0.36241c0 14.065 10.014 25.803 23.291 28.475-2.4327 0.65471-4.9979 1.0173-7.6517 1.0173-1.8752 0-3.6887-0.18544-5.4667-0.53935 3.6975 11.544 14.419 19.939 27.122 20.169-9.934 7.7845-22.46 12.411-36.065 12.411-2.3441 0-4.653-0.14151-6.9263-0.39777 12.853 8.2533 28.112 13.065 44.513 13.065 53.42 0 82.621-44.247 82.621-82.621l-0.0974-3.7594c5.7054-4.0694 10.641-9.1823 14.525-15.003z" fill="url(#a)"/>
 </g>
</svg>
