<svg viewBox="0 0 48 48" xmlns="http://www.w3.org/2000/svg">
 <linearGradient id="a" x1="24.165" x2="23.17" y1="49.864" y2="2.2375" gradientUnits="userSpaceOnUse">
  <stop stop-color="#3d74f2" offset="0"/>
  <stop stop-color="#5694f6" offset="1"/>
 </linearGradient>
 <linearGradient id="b" x1="23.324" x2="23.202" y1="39.156" y2="14.446" gradientUnits="userSpaceOnUse">
  <stop stop-color="#dcdfe0" offset="0"/>
  <stop stop-color="#fefeff" offset="1"/>
 </linearGradient>
 <path d="m25.016 45.363 4.0964-5.7448h10.379s5.2043 0.0857 5.2043-7.339v-23.352c-0.32785-5.0811-4.9374-5.471-4.9374-5.471h-30.691s-5.6811 0.33343-5.7628 5.872v22.951c0.0097 7.2301 5.7628 7.339 5.7628 7.339h10.603l3.6911 5.7221c0.80325 0.93699 0.81445 0.81435 1.6546 0.0227z" fill-opacity=".66667" fill-rule="evenodd"/>
 <path d="m25.016 43.907 4.0964-5.7448h10.379s5.2043 0.0857 5.2043-7.339v-23.352c-0.32785-5.0812-4.9374-5.471-4.9374-5.471h-30.691s-5.6811 0.33343-5.7628 5.872v22.951c0.0097 7.2301 5.7628 7.339 5.7628 7.339h10.603l3.6911 5.7221c0.80325 0.937 0.81445 0.81435 1.6546 0.0227z" fill="url(#a)" fill-rule="evenodd"/>
 <path d="m16.616 14.347c-0.77485 0.02072-1.5411 0.07096-2.2879 0.16947-1.4536 0.19182-1.3254 1.4933-1.3254 2.6284v4.7244c0 1.2975-0.01111 2.5975 0.87933 3.6452 1.0227 1.2033 2.4031 1.2118 3.8451 1.2471 2.1798 0.05337 4.3629 0.08154 6.5486 0.08154 1.1262 0 2.3779 0.14384 3.4822-0.11511 1.226-0.28764 1.0776-1.8259 1.0776-2.7851 0-1.7688 0.04546-3.5441-0.07514-5.3064-0.0809-1.1803-0.1891-2.186-1.0872-3.0633-1.1065-1.0809-2.6103-1.0808-4.0609-1.0808-2.2614 0-4.6718-0.20765-6.9963-0.14549zm17.499 0.31656c-0.06881 2e-3 -0.14226 0.01031-0.22223 0.02718-0.70842 0.14946-1.3682 0.92096-1.9074 1.3702-0.6542 0.54503-1.5241 1.0823-1.9585 1.8306-0.68132 1.174-0.69489 4.2865-0.03837 5.4711 0.31674 0.57147 0.9171 0.98868 1.4165 1.3925 0.6547 0.52944 1.8897 2.0749 2.8187 1.8882 1.0048-0.20201 0.74664-1.6262 0.74664-2.3694v-7.3768c0-0.71084 0.17678-2.2645-0.85535-2.2335z" fill="url(#b)"/>
</svg>
