<svg width="1024" height="1024" version="1.1" viewBox="0 0 270.93 270.93" xmlns="http://www.w3.org/2000/svg" xmlns:xlink="http://www.w3.org/1999/xlink">
 <defs>
  <linearGradient id="a" x1="132.29" x2="132.29" y1="43" y2="275.83" gradientTransform="translate(-5.0863e-7 2.5989e-5)" gradientUnits="userSpaceOnUse">
   <stop stop-color="#d0e1e7" stop-opacity=".98618" offset="0"/>
   <stop stop-color="#6b6666" offset="1"/>
  </linearGradient>
  <filter id="f" x="-.011553" y="-.012483" width="1.0231" height="1.025" color-interpolation-filters="sRGB">
   <feGaussianBlur stdDeviation="1.1196871"/>
  </filter>
  <linearGradient id="d" x1="132.29" x2="132.29" y1="43" y2="275.83" gradientTransform="matrix(.97428 0 0 .97428 3.4844 4.1549)" gradientUnits="userSpaceOnUse">
   <stop stop-color="#1e1e1e" offset="0"/>
   <stop stop-color="#000101" offset="1"/>
  </linearGradient>
  <linearGradient id="c" x1="127" x2="127" y1="69.458" y2="254.67" gradientUnits="userSpaceOnUse">
   <stop stop-color="#23292f" offset="0"/>
   <stop stop-color="#012413" offset="1"/>
  </linearGradient>
  <linearGradient id="b" x1="47.625" x2="47.625" y1="69.458" y2="254.67" gradientUnits="userSpaceOnUse">
   <stop stop-color="#fff" stop-opacity="0" offset="0"/>
   <stop stop-color="#26a2d2" stop-opacity=".63529" offset="1"/>
  </linearGradient>
  <filter id="e" x="-.028449" y="-.049009" width="1.0569" height="1.098" color-interpolation-filters="sRGB">
   <feGaussianBlur stdDeviation="2.32299"/>
  </filter>
 </defs>
 <g transform="translate(0 -26.067)">
  <rect x="16.404" y="51.334" width="238.12" height="220.4" rx="11.4" fill="url(#a)" fill-rule="evenodd" style="paint-order:stroke markers fill"/>
  <rect x="19.169" y="53.894" width="232.6" height="215.28" rx="11.135" fill="none" filter="url(#f)" opacity=".2" stroke="#fff" stroke-linecap="round" stroke-linejoin="round" stroke-width="6.4047" style="paint-order:markers fill stroke"/>
  <g>
   <rect x="19.467" y="54.169" width="232" height="214.73" rx="11.107" fill="url(#d)" fill-rule="evenodd" style="paint-order:stroke markers fill"/>
   <rect x="31.75" y="69.458" width="206.38" height="185.21" fill="url(#c)" fill-rule="evenodd" stroke="url(#b)" stroke-linecap="round" stroke-linejoin="round" stroke-width=".25" style="paint-order:markers fill stroke"/>
   <text x="52.916664" y="95.916649" fill="#000000" font-family="sans-serif" font-size="10.583px" letter-spacing="0px" stroke-width=".26458" word-spacing="0px" style="line-height:1.25" xml:space="preserve"><tspan x="52.916664" y="105.28042" stroke-width=".26458"/></text>
   <path class="shp46" d="m79.317 192.72c0.23057 3e-3 0.58192-0.0225 1.0083-0.0963 0.6914-0.12728 1.3826-0.36284 2.0336-0.72601 0.98514-0.55305 1.7801-1.3596 2.3158-2.4602 0.25928-0.5355 1.4576-2.8922 1.7458-3.4675 0.35693-0.73196 2.6442-8.3824 2.2584-8.0597-0.40938 6e-3 -0.64567 0.0269-0.60494 0.21836 0.08045 0.3521 0.16715 0.70878 0.27048 1.0834 0.07971 0.27667-2.0508 5.5713-1.7569 6.2509 0.17215 0.40303 0.62779-2.2587 2.3157-2.2587 1.5729 0 1.6478 1.1408 3.1687 2.7768 0.55871 0.59344 2.0449 2.1953 2.2869 2.4489 0.54177 0.5815 0.81798 0.86382 1.0312 1.054 0.23617 0.20753 0.40906 0.31095 0.66264 0.40924 0.43208 0.17306 0.5648 0.23584 0.73163 0.31673 0.92738 0.47206 2.1544 0.864 3.9749 1.3076 0.84105 0.20227 1.2387 0.28767 3.4276 0.77193 3.0708 0.67397 3.8023 1.0139 6.0432 2.7478 0.70893 0.55307 1.6247 1.5208 2.1431 3.013 0.0855 0.2363 0.76025 3.906 1.1178 4.1998 1.2673 0.16675 1.5553-1.3314 2.12-5.8013 0.39153-3.1167 0.66811-6.4288 0.66811-8.0882 0-1.4115 0.94504-14.54 2.8113-39.56 0.0278-0.3804 0.0278-0.3804 0.0571-0.76049 0.1336-1.7973 0.55873-6.4404 1.302-11.055 0.68548-4.2804 3.4047-4.6318 4.1018 1.6358 0.69691 6.2681 0.96768 1.5557 0.25929-3.4564-1.3655-9.678-2.7078-28.13-2.5694-28.862 0.0575-0.33983 0.13904-0.57609 0.1327-0.57609-0.58186 6e-3 -0.54743 0.0744-0.49536 0.19717 0.41457 1.0313 2.9323 35.885 2.9323 36.489 0 1.6131 5.0578 67.362 5.5766 73.446 0.0865 1.031 0.36859 1.9763 0.75458 2.333 0.48389 0.44953 1.0542 0.16738 1.25-0.41486 0.11607-0.33426 0.16763-0.85812 0.16763-1.5953 0-1.1467 0.1391-3.8776 0.41493-8.5322 9e-3 -0.23612 0.0266-0.48381 0.0459-0.74325 0.0284-0.42625 0.0508-0.86393 0.0863-1.4292 0.0402-0.70185 0.0624-1.0768 0.0796-1.3818 0.0697-1.083 0.1092-1.8203 0.14985-2.483 0.0975-1.6823 0.14429-2.6328 0.14429-2.9785 0-1.515 0.79486-3.3875 2.2752-4.9198 0.68563-0.70293 1.6651-1.0253 3.0075-1.0887 0.54729-0.0205 1.0426-6e-3 1.9355 0.0455 0.78334 0.0446 0.98507 0.0509 1.308 0.0509 0.67378 0 1.9414 0.23617 4.3434 0.76618 3.4161 0.76039 4.1651 0.91007 4.8104 0.91007 0.5933 0.0339 1.0883 0.0794 1.1867 0.0858 1.6015 0.13302 2.7999 0.1395 4.0555-0.0795 1.9822-0.34579 3.5605-1.2268 4.6087-2.7825 0.97366-1.4461 1.8437-3.4219 2.8462-6.2504 0.33386-0.92725 1.354-3.9579 1.4918-4.3669 0.52443-1.4922 0.90462-2.4314 1.2445-3.007 1.1349-1.93 1.5841-2.65 2.4429-3.7914 2.16-2.8855 4.4122-4.5446 6.7748-4.5446 3.8537 0 7.3447 4.0146 9.7186 10.007 0.24141 0.61027 1.048 2.6844 1.2036 3.0761 1.8033 4.5685 3.2317 7.0223 5.8644 9.4131 3.9468 3.5776 8.774 3.5315 11.522-0.0791 0.35711-0.47197 0.73148-1.0077 1.1578-1.6473 0.28797-0.44354 0.54152-0.83499 1.0309-1.6015 2.512-3.9575 3.6355-5.3115 4.7013-5.3115 1.4348 0 2.1142 0.37462 3.088 1.469 0.0263 0.0269 0.4606 0.53 0.6046 0.67981-0.0346-0.0402 1.5675 1.8144 2.2411 2.5292 1.2043 1.2673 2.4943 2.4308 4.0329 3.566 2.7821 2.0682 7.0971 3.7043 9.3209 4.1993 2.224 0.48986 2.8173-0.2418 3.1167-1.7396 0.29948-1.4978-1.1638-2.074-2.5406-2.074-3.595 0-6.6828 0.57021-9.2116-1.3076-1.4807-1.1001-2.7249-2.218-3.8829-3.4392-0.65101-0.68588-2.2468-2.5288-2.2238-2.5114-0.13268-0.14382-0.5645-0.63424-0.59906-0.67431-1.175-1.3136-2.143-1.849-3.9461-1.849-1.6995 0-2.8229 1.3538-5.6746 5.8412-0.48396 0.76643-0.73738 1.1523-1.02 1.5843-0.41398 0.62797-0.77143 1.1409-1.1174 1.59-2.31 3.036-6.3478 3.0764-9.8276-0.0799-2.4717-2.2409-3.8197-4.5569-5.5652-8.981-0.15063-0.38047-0.9564-2.46-1.2042-3.0764-2.5342-6.3889-6.3137-10.733-10.79-10.733-2.8173 0-5.3407 1.8606-7.697 5.0063-0.89291 1.1868-1.3595 1.9299-2.5173 3.9001-0.38562 0.66272-0.78904 1.6475-1.3365 3.2091-0.14377 0.41443-1.1635 3.4446-1.4863 4.3607-0.97345 2.7423-1.8146 4.6493-2.7191 5.9912-0.85312 1.2731-2.1546 1.9932-3.8481 2.2928-1.1351 0.19767-2.2524 0.19767-3.7681 0.0694-0.091-5e-3 -0.58738-0.0511-0.70807-0.0633-1.0831-0.026-1.9069-0.1975-4.8738-0.85269-2.7712-0.61647-4.05-0.85268-4.8504-0.85268-0.28853 0-0.48418-3e-3 -1.2385-0.0503-0.92763-0.057-1.4576-0.0735-2.0566-0.0452-1.6134 0.0729-2.8577 0.48966-3.7794 1.4402-1.6878 1.7398-2.604 3.733-2.604 5.5536 0 0.54717 0.0509-0.15562-0.46085 8.3704-6e-3 0.25924-0.0273 0.50696-0.04 0.74298-0.2824 4.6895-0.42053 7.42-0.42053 8.6012 0 0.61649-0.04 1.0371-0.10345 1.2272 0.0337-0.11045 0.38021-0.28241 0.62232-0.063-0.0507-0.0449-0.19762-7.1841 0.4032-14.011 0.27666-3.1281 1.8091-8.5434 1.8091-9.2057-2.8346 5.1211-4.4991 0.24756-4.5166 0-0.51253-6.0145-3.4854-50.16-3.6582-51.716-0.7889-7.2474-2.4252-35.458-3.0186-36.922-0.29379-0.72016-0.80102-1.1406-1.3715-0.58769-0.23574 0.23059-0.36261 0.60494-0.46658 1.1926-0.14989 0.80645-0.24171 2.0508-0.24171 2.9668 0 0.31684-0.29946 4.4649-0.89293 12.501-0.34567 4.6259-1.8378 24.593-1.9703 26.391-0.0271 0.38023-0.0271 0.38023-0.0572 0.76049-1.8839 25.198-2.817 38.183-2.817 39.646 0 1.6013-0.51278 3.3642-0.89882 6.4347-0.17332 1.3597-0.1272 2.7482-0.29369 3.6698-9e-3 0.10134-0.0269 1.5439-0.0458 1.6418-0.0911 0.48968-0.18483 0.8756-0.25928 1.1233 0.42647 0.0337 0.53 0.079 0.59929 0.13954-0.0345-0.0268 0.77768-5.1387 0.50692-5.9106-0.28807-0.82367 1.1636-3.8024-0.21895-1.5498-1.3827 2.2582-3.105 0.58745-3.5775 0.21904-2.3793-1.8436-3.2665-2.2526-6.504-2.9613-2.1776-0.48381-2.5752-0.57031-3.3991-0.77164-1.7454-0.42078-2.9034-0.78942-3.7328-1.2098-0.19175-0.0976-0.35142-0.17324-0.51304-0.23641-0.44333-0.17904-0.50092-0.21313-0.63894-0.32844-0.17436-0.15552-0.43226-0.42055-0.95109-0.97345-0.24166-0.2536-1.728-1.855-2.281-2.4543-1.7225-1.8433-2.8171-4.0206-3.4623-6.2907-0.09156-0.31679-0.19098-0.72012-0.25349-1.014-0.02163-0.0974-0.15067-0.88155-0.6741-0.88155-0.52408 0-0.45484 3.0362-2.2063 6.4868-0.31101 0.6052-0.58202 1.2501-0.93901 1.9703-0.27666 0.56469-1.4748 2.9263-1.7399 3.4682-0.432 0.88116-1.06 1.5207-1.8492 1.9643-0.52999 0.29375-1.1002 0.48973-1.6764 0.59325-0.67412 0.0792-0.74896 0.0792-0.78929 0.0792-0.0034 0-42.164 0.57616-41.847 0.57616z" fill="#00ff67" stroke-width=".57609"/>
   <path class="shp46" d="m79.317 192.72c0.23057 3e-3 0.58192-0.0225 1.0083-0.0963 0.6914-0.12728 1.3826-0.36284 2.0336-0.72601 0.98514-0.55305 1.7801-1.3596 2.3158-2.4602 0.25928-0.5355 1.4576-2.8922 1.7458-3.4675 0.35693-0.73196 2.6442-8.3824 2.2584-8.0597-0.40938 6e-3 -0.64567 0.0269-0.60494 0.21836 0.08045 0.3521 0.16715 0.70878 0.27048 1.0834 0.07971 0.27667-2.0508 5.5713-1.7569 6.2509 0.17215 0.40303 0.62779-2.2587 2.3157-2.2587 1.5729 0 1.6478 1.1408 3.1687 2.7768 0.55871 0.59344 2.0449 2.1953 2.2869 2.4489 0.54177 0.5815 0.81798 0.86382 1.0312 1.054 0.23617 0.20753 0.40906 0.31095 0.66264 0.40924 0.43208 0.17306 0.5648 0.23584 0.73163 0.31673 0.92738 0.47206 2.1544 0.864 3.9749 1.3076 0.84105 0.20227 1.2387 0.28767 3.4276 0.77193 3.0708 0.67397 3.8023 1.0139 6.0432 2.7478 0.70893 0.55307 1.6247 1.5208 2.1431 3.013 0.0855 0.2363 0.76025 3.906 1.1178 4.1998 1.2673 0.16675 1.5553-1.3314 2.12-5.8013 0.39153-3.1167 0.66811-6.4288 0.66811-8.0882 0-1.4115 0.94504-14.54 2.8113-39.56 0.0278-0.3804 0.0278-0.3804 0.0571-0.76049 0.1336-1.7973 0.55873-6.4404 1.302-11.055 0.68548-4.2804 3.4047-4.6318 4.1018 1.6358 0.69691 6.2681 0.96768 1.5557 0.25929-3.4564-1.3655-9.678-2.7078-28.13-2.5694-28.862 0.0575-0.33983 0.13904-0.57609 0.1327-0.57609-0.58186 6e-3 -0.54743 0.0744-0.49536 0.19717 0.41457 1.0313 2.9323 35.885 2.9323 36.489 0 1.6131 5.0578 67.362 5.5766 73.446 0.0865 1.031 0.36859 1.9763 0.75458 2.333 0.48389 0.44953 1.0542 0.16738 1.25-0.41486 0.11607-0.33426 0.16763-0.85812 0.16763-1.5953 0-1.1467 0.1391-3.8776 0.41493-8.5322 9e-3 -0.23612 0.0266-0.48381 0.0459-0.74325 0.0284-0.42625 0.0508-0.86393 0.0863-1.4292 0.0402-0.70185 0.0624-1.0768 0.0796-1.3818 0.0697-1.083 0.1092-1.8203 0.14985-2.483 0.0975-1.6823 0.14429-2.6328 0.14429-2.9785 0-1.515 0.79486-3.3875 2.2752-4.9198 0.68563-0.70293 1.6651-1.0253 3.0075-1.0887 0.54729-0.0205 1.0426-6e-3 1.9355 0.0455 0.78334 0.0446 0.98507 0.0509 1.308 0.0509 0.67378 0 1.9414 0.23617 4.3434 0.76618 3.4161 0.76039 4.1651 0.91007 4.8104 0.91007 0.5933 0.0339 1.0883 0.0794 1.1867 0.0858 1.6015 0.13302 2.7999 0.1395 4.0555-0.0795 1.9822-0.34579 3.5605-1.2268 4.6087-2.7825 0.97366-1.4461 1.8437-3.4219 2.8462-6.2504 0.33386-0.92725 1.354-3.9579 1.4918-4.3669 0.52443-1.4922 0.90462-2.4314 1.2445-3.007 1.1349-1.93 1.5841-2.65 2.4429-3.7914 2.16-2.8855 4.4122-4.5446 6.7748-4.5446 3.8537 0 7.3447 4.0146 9.7186 10.007 0.24141 0.61027 1.048 2.6844 1.2036 3.0761 1.8033 4.5685 3.2317 7.0223 5.8644 9.4131 3.9468 3.5776 8.774 3.5315 11.522-0.0791 0.35711-0.47197 0.73148-1.0077 1.1578-1.6473 0.28797-0.44354 0.54152-0.83499 1.0309-1.6015 2.512-3.9575 3.6355-5.3115 4.7013-5.3115 1.4348 0 2.1142 0.37462 3.088 1.469 0.0263 0.0269 0.4606 0.53 0.6046 0.67981-0.0346-0.0402 1.5675 1.8144 2.2411 2.5292 1.2043 1.2673 2.4943 2.4308 4.0329 3.566 2.7821 2.0682 7.0971 3.7043 9.3209 4.1993 2.224 0.48986 2.8173-0.2418 3.1167-1.7396 0.29948-1.4978-1.1638-2.074-2.5406-2.074-3.595 0-6.6828 0.57021-9.2116-1.3076-1.4807-1.1001-2.7249-2.218-3.8829-3.4392-0.65101-0.68588-2.2468-2.5288-2.2238-2.5114-0.13268-0.14382-0.5645-0.63424-0.59906-0.67431-1.175-1.3136-2.143-1.849-3.9461-1.849-1.6995 0-2.8229 1.3538-5.6746 5.8412-0.48396 0.76643-0.73738 1.1523-1.02 1.5843-0.41398 0.62797-0.77143 1.1409-1.1174 1.59-2.31 3.036-6.3478 3.0764-9.8276-0.0799-2.4717-2.2409-3.8197-4.5569-5.5652-8.981-0.15063-0.38047-0.9564-2.46-1.2042-3.0764-2.5342-6.3889-6.3137-10.733-10.79-10.733-2.8173 0-5.3407 1.8606-7.697 5.0063-0.89291 1.1868-1.3595 1.9299-2.5173 3.9001-0.38562 0.66272-0.78904 1.6475-1.3365 3.2091-0.14377 0.41443-1.1635 3.4446-1.4863 4.3607-0.97345 2.7423-1.8146 4.6493-2.7191 5.9912-0.85312 1.2731-2.1546 1.9932-3.8481 2.2928-1.1351 0.19767-2.2524 0.19767-3.7681 0.0694-0.091-5e-3 -0.58738-0.0511-0.70807-0.0633-1.0831-0.026-1.9069-0.1975-4.8738-0.85269-2.7712-0.61647-4.05-0.85268-4.8504-0.85268-0.28853 0-0.48418-3e-3 -1.2385-0.0503-0.92763-0.057-1.4576-0.0735-2.0566-0.0452-1.6134 0.0729-2.8577 0.48966-3.7794 1.4402-1.6878 1.7398-2.604 3.733-2.604 5.5536 0 0.54717 0.0509-0.15562-0.46085 8.3704-6e-3 0.25924-0.0273 0.50696-0.04 0.74298-0.2824 4.6895-0.42053 7.42-0.42053 8.6012 0 0.61649-0.04 1.0371-0.10345 1.2272 0.0337-0.11045 0.38021-0.28241 0.62232-0.063-0.0507-0.0449-0.19762-7.1841 0.4032-14.011 0.27666-3.1281 1.8091-8.5434 1.8091-9.2057-2.8346 5.1211-4.4991 0.24756-4.5166 0-0.51253-6.0145-3.4854-50.16-3.6582-51.716-0.7889-7.2474-2.4252-35.458-3.0186-36.922-0.29379-0.72016-0.80102-1.1406-1.3715-0.58769-0.23574 0.23059-0.36261 0.60494-0.46658 1.1926-0.14989 0.80645-0.24171 2.0508-0.24171 2.9668 0 0.31684-0.29946 4.4649-0.89293 12.501-0.34567 4.6259-1.8378 24.593-1.9703 26.391-0.0271 0.38023-0.0271 0.38023-0.0572 0.76049-1.8839 25.198-2.817 38.183-2.817 39.646 0 1.6013-0.51278 3.3642-0.89882 6.4347-0.17332 1.3597-0.1272 2.7482-0.29369 3.6698-9e-3 0.10134-0.0269 1.5439-0.0458 1.6418-0.0911 0.48968-0.18483 0.8756-0.25928 1.1233 0.42647 0.0337 0.53 0.079 0.59929 0.13954-0.0345-0.0268 0.77768-5.1387 0.50692-5.9106-0.28807-0.82367 1.1636-3.8024-0.21895-1.5498-1.3827 2.2582-3.105 0.58745-3.5775 0.21904-2.3793-1.8436-3.2665-2.2526-6.504-2.9613-2.1776-0.48381-2.5752-0.57031-3.3991-0.77164-1.7454-0.42078-2.9034-0.78942-3.7328-1.2098-0.19175-0.0976-0.35142-0.17324-0.51304-0.23641-0.44333-0.17904-0.50092-0.21313-0.63894-0.32844-0.17436-0.15552-0.43226-0.42055-0.95109-0.97345-0.24166-0.2536-1.728-1.855-2.281-2.4543-1.7225-1.8433-2.8171-4.0206-3.4623-6.2907-0.09156-0.31679-0.19098-0.72012-0.25349-1.014-0.02163-0.0974-0.15067-0.88155-0.6741-0.88155-0.52408 0-0.45484 3.0362-2.2063 6.4868-0.31101 0.6052-0.58202 1.2501-0.93901 1.9703-0.27666 0.56469-1.4748 2.9263-1.7399 3.4682-0.432 0.88116-1.06 1.5207-1.8492 1.9643-0.52999 0.29375-1.1002 0.48973-1.6764 0.59325-0.67412 0.0792-0.74896 0.0792-0.78929 0.0792-0.0034 0-42.164 0.57616-41.847 0.57616z" fill="#00ff67" filter="url(#e)" stroke-width=".57609"/>
  </g>
 </g>
</svg>
