<svg viewBox="0 0 48 48" xmlns="http://www.w3.org/2000/svg">
 <linearGradient id="a" x1="26.961" x2="60.602" y1="44.951" y2="11.014" gradientUnits="userSpaceOnUse">
  <stop stop-color="#118702" offset="0"/>
  <stop stop-color="#80e950" offset="1"/>
 </linearGradient>
 <linearGradient id="b" x1="50.523" x2="50.582" y1="4.7815" y2="-28.184" gradientUnits="userSpaceOnUse">
  <stop stop-color="#d5dbff" offset="0"/>
  <stop stop-color="#f9ffff" offset="1"/>
 </linearGradient>
 <g transform="matrix(.91667 0 0 .91667 -22.445 33.66)" fill-rule="evenodd" stroke-width="1.3174">
  <rect transform="matrix(.7084 -.70581 .70581 .7084 0 0)" x="25.753" y="11.068" width="34.807" height="34.807" ry="2.0804" fill-opacity=".35294" fill-rule="evenodd"/>
  <rect transform="matrix(.7084 -.70581 .70581 .7084 0 0)" x="26.102" y="10.717" width="34.807" height="34.807" ry="2.0804" fill="url(#a)" fill-rule="evenodd"/>
  <path d="m39.936 6.0392c0.52409-0.038014 0.99639-0.41268 1.391-0.81322l26.147-26.952c0.45128-0.46089 0.7731-0.87 0.7324-1.538v-1.5432c0.0082-1.4545-0.2685-1.8214-1.6845-1.8258h-11.132c-1.1023 0.01326-1.8421 0.75161-1.831 1.9042l0.02142 1.3272c0.08058 1.3095 1.3005 1.635 2.4687 1.6756l-9.8141 9.7409v-9.9606c0.89962 0.0311 1.5662-0.48158 1.6113-1.538l-0.0042-1.3701c-0.06062-1.311-0.66502-1.6638-2.0463-1.706l-10.693 0.07324c-1.1267 0.09245-1.8132 0.46973-1.956 1.7792l-0.02151 0.93071c0.06504 1.305 0.54445 1.9886 1.9042 2.0507l0.56002 0.02143 0.02586 26.052c0.11834 1.0017 0.70278 1.6668 1.831 1.6845l2.4907 0.00742z" fill-opacity=".35294"/>
  <path d="m39.936 5.5507c0.52409-0.038014 0.99639-0.41268 1.391-0.81322l26.147-26.952c0.45128-0.46089 0.7731-0.87 0.7324-1.538v-1.5432c0.0082-1.4545-0.2685-1.8214-1.6845-1.8258h-11.132c-1.1023 0.01326-1.8421 0.75161-1.831 1.9042l0.02142 1.3272c0.08058 1.3095 1.3005 1.635 2.4687 1.6756l-9.8141 9.7409v-9.9606c0.89962 0.0311 1.5662-0.48158 1.6113-1.538l-0.0042-1.3701c-0.06062-1.311-0.66502-1.6638-2.0463-1.706l-10.693 0.07324c-1.1267 0.09245-1.8132 0.46973-1.956 1.7792l-0.02151 0.93071c0.06504 1.305 0.54445 1.9886 1.9042 2.0507l0.56002 0.02143 0.02586 26.052c0.11834 1.0017 0.70278 1.6668 1.831 1.6845l2.4907 0.00742z" fill="url(#b)"/>
 </g>
</svg>
