<svg viewBox="0 0 48 48" xmlns="http://www.w3.org/2000/svg">
 <linearGradient id="a" x1="399.57" x2="399.57" y1="545.8" y2="517.8" gradientUnits="userSpaceOnUse">
  <stop stop-color="#3889e9" offset="0"/>
  <stop stop-color="#5ea5fb" offset="1"/>
 </linearGradient>
 <linearGradient id="b" x1="400.56" x2="400.56" y1="546.93" y2="516.48" gradientUnits="userSpaceOnUse">
  <stop stop-color="#2e3e46" offset="0"/>
  <stop stop-color="#47606a" offset="1"/>
 </linearGradient>
 <linearGradient id="c" x1="337.81" x2="338" y1="551.87" y2="547.47" gradientUnits="userSpaceOnUse">
  <stop stop-color="#ff9300" offset="0"/>
  <stop stop-color="#ffd702" offset="1"/>
 </linearGradient>
 <g transform="matrix(1.5512 0 0 1.5522 -597.41 -801.62)">
  <circle cx="400.57" cy="531.8" r="0" fill="url(#a)"/>
  <g transform="matrix(1.0509 0 0 1.0509 -20.353 -26.94)">
   <circle cx="400.57" cy="531.8" r="14" fill="url(#b)" stroke="url(#b)" stroke-width="1.4274"/>
   <circle transform="matrix(1.5582 0 0 1.5582 -264.3 -296.91)" cx="400.57" cy="531.8" r="0" fill="url(#a)"/>
  </g>
 </g>
 <path transform="matrix(5.1259 0 0 5.1259 -1707.9 -2794)" d="m336.57231 547.47633c-.345-.525-1.2225.0525-.75.615.4575.5325.915 1.11 1.3875 1.7025l-1.5075 1.9125c-.4275.51.42 1.125.8025.5775l1.3575-1.8075 1.38 1.77c.405.555 1.23.015.8175-.5475l-1.53-1.905c.45-.5925.9225-1.17 1.3725-1.7025.4275-.4875-.33-1.14-.72-.63l-1.305 1.635z" fill="url(#c)"/>
</svg>
