<svg version="1.1" viewBox="0 0 16 16" xmlns="http://www.w3.org/2000/svg">
 <path transform="matrix(.022409 0 0 .022409 2 2)" d="m471.75 255h-38.25v-102c0-28.05-22.95-51-51-51h-102v-38.25c0-35.7-28.05-63.75-63.75-63.75s-63.75 28.05-63.75 63.75v38.25h-102c-28.05 0-51 22.95-51 51v96.9h38.25c38.25 0 68.85 30.6 68.85 68.85s-30.6 68.85-68.85 68.85h-38.25v96.9c0 28.05 22.95 51 51 51h96.9v-38.25c0-38.25 30.6-68.85 68.85-68.85s68.85 30.6 68.85 68.85v38.25h96.9c28.05 0 51-22.95 51-51v-102h38.25c35.7 0 63.75-28.05 63.75-63.75s-28.05-63.75-63.75-63.75z" fill="#bebebe"/>
</svg>
