<svg version="1.1" viewBox="0 0 16 16" xmlns="http://www.w3.org/2000/svg">
 <path d="m3.334 2c-0.74 0-1.334 0.59398-1.334 1.334v9.332c2e-7 0.73638 0.5976 1.334 1.334 1.334h9.332c0.73638 0 1.334-0.5976 1.334-1.334v-9.332c0-0.74-0.60065-1.334-1.334-1.334zm6.3594 3.209h1.1348c0.12221-4.86e-5 0.22254 0.098497 0.22266 0.2207l0.003907 5.1387c1.11e-4 0.12221-0.098501 0.22065-0.2207 0.2207l-1.1348 0.001954c-0.12221 4.8e-5 -0.22255-0.098501-0.22266-0.2207l-0.0039063-5.1406c-1.105e-4 -0.12221 0.098496-0.22065 0.2207-0.2207zm-2.3066 1.4375h1.1367c0.12221-3.6e-5 0.22055 0.0985 0.2207 0.2207l0.0039063 3.6914c1.49e-4 0.12221-0.09654 0.22067-0.21875 0.2207h-1.1367c-0.12221 3.6e-5 -0.22055-0.0985-0.2207-0.2207l-0.0039062-3.6914c-1.491e-4 -0.12221 0.09654-0.22067 0.21875-0.2207zm-2.2207 1.459h1.1348c0.12221-2.31e-5 0.22243 0.098499 0.22266 0.2207l0.0039063 2.2422c2.3e-4 0.12221-0.0985 0.22068-0.2207 0.2207h-1.1367c-0.12221 2.2e-5 -0.22047-0.0985-0.2207-0.2207l-0.0039063-2.2422c-2.3e-4 -0.12221 0.0985-0.22068 0.2207-0.2207z" fill="#bebebe" stroke-width=".66667"/>
</svg>
