<svg version="1.1" viewBox="0 0 16 16" xmlns="http://www.w3.org/2000/svg">
 <path d="m2.2857 3.1429h4.5714a1.1429 1.1429 0 0 1 1.1429-1.1429 1.1429 1.1429 0 0 1 1.1429 1.1429h4.5714v1.1429h-0.57143v6.2857h-3.2857l1 3.4286h-1.1429l-1-3.4286h-1.4286l-1 3.4286h-1.1429l1-3.4286h-3.2857v-6.2857h-0.57143zm1.7143 1.1429v5.1429h8v-5.1429zm3.9143 3.9143c-0.05143 0.051429-0.12 0.085714-0.2 0.085714a0.28571 0.28571 0 0 1-0.28571-0.28571v-2.2857a0.28571 0.28571 0 0 1 0.28571-0.28571c0.08 0 0.14857 0.034286 0.2 0.085714l0.8 0.79429c0.18286 0.18286 0.36571 0.36571 0.36571 0.54857 0 0.18286-0.18286 0.36571-0.36571 0.54857z" fill="#bebebe" stroke-width=".57143"/>
</svg>
