<svg version="1.1" viewBox="0 0 512 512" xmlns="http://www.w3.org/2000/svg">
 <g fill="#363636">
  <path d="m48 96c-1.5581 0-3.077 0.16049-4.5508 0.44141-0.0025 4.79e-4 -0.0053-4.79e-4 -0.0078 0-9.6234 1.8375-17.163 9.3766-19 19-4.91e-4 3e-3 4.91e-4 5e-3 0 8e-3 -0.28093 1.4736-0.44142 2.9925-0.44142 4.5506v352c0 13.296 10.704 24 24 24s24-10.704 24-24v-294.06l271.59 271.59c9.4017 9.4017 24.54 9.4017 33.941 0s9.4017-24.54 0-33.941l-312.24-312.24c-2.3054-2.3952-5.0995-4.3093-8.2344-5.582-0.01745-0.0071-0.03527-0.01246-0.05273-0.01953-1.3942-0.56221-2.8498-1.0025-4.3613-1.2969-0.05651-0.0111-0.11335-0.0147-0.16992-0.02539-1.4366-0.2692-2.9153-0.42495-4.4316-0.42774-0.01044-1e-5 -0.02081-2e-3 -0.03125-2e-3 -0.0046-3e-6 -0.0091 0-0.01367 0z" stroke-width="1.1546"/>
  <path d="m464 96c-7.4096 0-14.009 3.3297-18.404 8.5742-0.47968 0.43144-0.96445 0.85312-1.4277 1.3164l-304.9 304.9c-11.517 11.517-13.222 28.358-3.8203 37.76s26.243 7.6969 37.76-3.8203l266.79-266.79v294.06c0 13.296 10.704 24 24 24s24-10.704 24-24v-352c0-0.41749-0.0416-0.8242-0.0625-1.2363 0.30856-6.3169-1.6309-12.313-6.0098-16.691-4.3789-4.3789-10.375-6.3183-16.691-6.0098-0.41213-0.020856-0.81884-0.0625-1.2363-0.0625z" stroke-width="1.1546"/>
  <path d="m254 16v0.0508c-7.1904 0.14791-14.188 1.0792-20.908 2.7285l-8e-3 -0.0273-0.76953 0.20703c-0.31739 0.0807-0.63114 0.17004-0.94726 0.25391l-0.21485 0.0566-1.9316 0.51758 8e-3 0.0332c-6.8367 1.9859-13.363 4.6959-19.48 8.0703l-0.0176-0.0293-1.7305 1-1.7324 1 0.0137 0.0234c-6.0405 3.6683-11.627 8.0024-16.699 12.869l-0.0508-0.0508-2.8281 2.8281 0.0508 0.0508c-4.8667 5.0722-9.2008 10.659-12.869 16.699l-0.0234-0.01367-1 1.7324-1 1.7305 0.0293 0.01758c-3.3744 6.117-6.0844 12.644-8.0703 19.48l-0.0332-0.0078-0.51758 1.9316-0.0566 0.21484c-0.0839 0.31612-0.1732 0.62988-0.25391 0.94727l-0.20703 0.76953 0.0273 0.0078c-1.6493 6.7207-2.5806 13.718-2.7285 20.908h-0.0508v4h0.0508c0.14789 7.1897 1.0795 14.186 2.7285 20.906l-0.0273 8e-3 0.20313 0.75781c0.0845 0.33242 0.17768 0.66116 0.26562 0.99219l0.0488 0.18164 0.51758 1.9316 0.0312-8e-3c1.9858 6.837 4.6978 13.363 8.0723 19.48l-0.0293 0.0176 1 1.7324 1 1.7305 0.0234-0.0137c3.6682 6.0406 8.0024 11.627 12.869 16.699l-0.0508 0.0508 2.8282 2.8282 0.0508-0.0508c5.0721 4.8667 10.657 9.2028 16.697 12.871l-0.0117 0.0215 1.7324 1 1.7305 1 0.0156-0.0293c6.1177 3.375 12.645 6.0861 19.482 8.0723l-8e-3 0.0312 1.9316 0.51758 0.0957 0.0254c0.37334 0.0996 0.74404 0.20563 1.1192 0.30078l0.71679 0.19141 6e-3 -0.0254c6.7213 1.6496 13.719 2.5806 20.91 2.7285v0.0508h4v-0.0508c7.1904-0.14791 14.188-1.0792 20.908-2.7285l6e-3 0.0254 0.70508-0.18946c0.39017-0.0989 0.7758-0.20881 1.1641-0.3125 0.0208-6e-3 0.0417-0.0101 0.0625-0.0156l1.9316-0.51757-8e-3 -0.0312c6.8374-1.9859 13.365-4.6956 19.482-8.0703l0.0156 0.0273 1.7324-1 1.7305-1-0.0117-0.0215c6.0404-3.6683 11.627-8.0024 16.699-12.869l0.0488 0.0488 2.8281-2.8281-0.0488-0.0488c4.8667-5.0722 9.2008-10.659 12.869-16.699l0.0215 0.0117 1-1.7305 1-1.7324-0.0274-0.0156c3.3747-6.1176 6.0844-12.645 8.0703-19.482l0.0312 8e-3 0.51758-1.9316 0.0156-0.0625c0.10369-0.38825 0.21358-0.77389 0.3125-1.1641l0.18945-0.70508-0.0254-6e-3c1.6493-6.7207 2.5806-13.718 2.7285-20.908h0.0508v-4h-0.0508c-0.14793-7.191-1.0789-14.189-2.7285-20.91l0.0254-0.0059-0.1914-0.7168c-0.0952-0.3751-0.20122-0.74581-0.30079-1.1191l-0.0254-0.0957-0.51758-1.9316-0.0312 0.0078c-1.9861-6.8376-4.6972-13.365-8.0723-19.482l0.0293-0.01563-1-1.7305-1-1.7324-0.0215 0.01172c-3.6683-6.0403-8.0044-11.625-12.871-16.697l0.0508-0.0508-2.8281-2.8281-0.0508 0.0508c-5.0724-4.8667-10.659-9.2009-16.699-12.869l0.0137-0.0234-1.7305-1-1.7324-1-0.0176 0.0293c-6.1173-3.3744-12.643-6.0865-19.48-8.0723l8e-3 -0.0312-1.9316-0.51758-0.18164-0.0488c-0.33103-0.0879-0.65977-0.18115-0.99219-0.26562l-0.75781-0.20313-8e-3 0.0273c-6.7201-1.649-13.717-2.5806-20.906-2.7285v-0.0508h-2zm0 7.7305v73.082l-18.924-70.623c6.0849-1.4757 12.416-2.3143 18.924-2.459zm4 0c6.5065 0.14466 12.838 0.9817 18.922 2.457l-18.922 70.617zm-26.787 3.4922 18.924 70.623-36.568-63.336c5.5439-3.0389 11.456-5.484 17.645-7.2871zm49.572 0c6.1885 1.803 12.101 4.2465 17.645 7.2852l-36.568 63.338zm-70.682 9.2832 36.57 63.34-51.695-51.695c4.6001-4.3972 9.6588-8.3173 15.125-11.645zm91.791 0c5.4657 3.327 10.525 7.2477 15.125 11.645l-51.695 51.695zm-109.74 14.473 51.695 51.695-63.34-36.57c3.3272-5.4662 7.2473-10.525 11.645-15.125zm127.7 0c4.3973 4.6002 8.3173 9.6586 11.645 15.125l-63.34 36.57zm-141.34 18.59 63.336 36.568-70.623-18.924c1.8032-6.1887 4.2482-12.101 7.2871-17.645zm154.98 0c3.0388 5.5439 5.484 11.456 7.2871 17.645l-70.623 18.924zm-163.3 21.508 70.623 18.924h-73.082c0.14467-6.5073 0.98332-12.839 2.459-18.924zm171.62 0c1.4756 6.0849 2.3143 12.417 2.459 18.924h-73.082zm-174.08 22.924h73.074l-70.617 18.922c-1.4753-6.0841-2.3124-12.415-2.457-18.922zm103.46 0h73.074c-0.14466 6.5065-0.98178 12.838-2.457 18.922zm-29.348 3.8613-63.338 36.568c-3.0386-5.5437-5.4822-11.456-7.2852-17.645zm28.307 0 70.623 18.924c-1.8029 6.1885-4.2466 12.101-7.2852 17.645zm-26.307 3.4629-51.695 51.695c-4.3968-4.5997-8.3175-9.6593-11.645-15.125zm24.307 0 63.34 36.57c-3.327 5.4659-7.2457 10.527-11.643 15.127zm-21.479 2.8281-36.57 63.34c-5.4664-3.3272-10.525-7.2473-15.125-11.645zm18.65 0 51.697 51.697c-4.5998 4.3969-9.661 8.3156-15.127 11.643zm-15.188 2-18.924 70.623c-6.1887-1.8031-12.101-4.2483-17.645-7.2871zm11.725 0 36.568 63.338c-5.5437 3.0385-11.456 5.4823-17.645 7.2852zm-7.8613 1.0332v73.082c-6.5073-0.14467-12.839-0.98338-18.924-2.459zm4 8e-3 18.922 70.617c-6.0841 1.4753-12.415 2.3124-18.922 2.457z"/>
 </g>
</svg>
