<?xml version="1.0" encoding="UTF-8" standalone="no"?>
<svg
   inkscape:export-ydpi="90.000000"
   inkscape:export-xdpi="90.000000"
   width="400"
   height="300"
   id="svg11300"
   sodipodi:version="0.32"
   inkscape:version="1.1.2 (0a00cf5339, 2022-02-04)"
   sodipodi:docname="add-folder-to-archive.svg"
   inkscape:output_extension="org.inkscape.output.svg.inkscape"
   version="1.0"
   style="display:inline;enable-background:new"
   inkscape:export-filename="/home/sam/suru-template.png"
   xmlns:inkscape="http://www.inkscape.org/namespaces/inkscape"
   xmlns:sodipodi="http://sodipodi.sourceforge.net/DTD/sodipodi-0.dtd"
   xmlns="http://www.w3.org/2000/svg"
   xmlns:svg="http://www.w3.org/2000/svg"
   xmlns:rdf="http://www.w3.org/1999/02/22-rdf-syntax-ns#"
   xmlns:cc="http://creativecommons.org/ns#"
   xmlns:dc="http://purl.org/dc/elements/1.1/">
  <title
     id="title3004">Suru Icon Theme Template</title>
  <sodipodi:namedview
     stroke="#ef2929"
     fill="#f57900"
     id="base"
     pagecolor="#ffffff"
     bordercolor="#000000"
     borderopacity="0.25490196"
     inkscape:pageopacity="0"
     inkscape:pageshadow="2"
     inkscape:zoom="1.4142136"
     inkscape:cx="229.8097"
     inkscape:cy="149.90664"
     inkscape:current-layer="layer6"
     showgrid="false"
     inkscape:grid-bbox="true"
     inkscape:document-units="px"
     inkscape:showpageshadow="false"
     inkscape:window-width="1920"
     inkscape:window-height="1020"
     inkscape:window-x="0"
     inkscape:window-y="32"
     width="400px"
     height="300px"
     inkscape:snap-nodes="true"
     inkscape:snap-bbox="true"
     gridtolerance="10000"
     inkscape:object-nodes="true"
     inkscape:snap-grids="true"
     showguides="true"
     inkscape:guide-bbox="true"
     inkscape:window-maximized="1"
     inkscape:bbox-paths="true"
     inkscape:snap-bbox-midpoints="true"
     inkscape:snap-global="true"
     inkscape:object-paths="true"
     inkscape:snap-intersection-paths="true"
     inkscape:snap-smooth-nodes="true"
     inkscape:pagecheckerboard="false"
     showborder="false"
     inkscape:document-rotation="0">
    <inkscape:grid
       spacingy="1"
       spacingx="1"
       id="grid5883"
       type="xygrid"
       enabled="true"
       visible="true"
       empspacing="4"
       snapvisiblegridlinesonly="true"
       originx="0"
       originy="0" />
    <inkscape:grid
       type="xygrid"
       id="grid11592"
       empspacing="2"
       visible="true"
       enabled="false"
       spacingx="0.5"
       spacingy="0.5"
       color="#ff0000"
       opacity="0.1254902"
       empcolor="#ff0000"
       empopacity="0.25098039"
       snapvisiblegridlinesonly="true"
       originx="0"
       originy="0" />
  </sodipodi:namedview>
  <defs
     id="defs3" />
  <metadata
     id="metadata4">
    <rdf:RDF>
      <cc:Work
         rdf:about="">
        <dc:format>image/svg+xml</dc:format>
        <dc:type
           rdf:resource="http://purl.org/dc/dcmitype/StillImage" />
        <dc:creator>
          <cc:Agent>
            <dc:title>Sam Hewitt</dc:title>
          </cc:Agent>
        </dc:creator>
        <dc:source />
        <cc:license
           rdf:resource="http://creativecommons.org/licenses/by-sa/4.0/" />
        <dc:title>Suru Icon Theme Template</dc:title>
        <dc:subject>
          <rdf:Bag />
        </dc:subject>
        <dc:date />
        <dc:rights>
          <cc:Agent>
            <dc:title />
          </cc:Agent>
        </dc:rights>
        <dc:publisher>
          <cc:Agent>
            <dc:title />
          </cc:Agent>
        </dc:publisher>
        <dc:identifier />
        <dc:relation />
        <dc:language />
        <dc:coverage />
        <dc:description />
        <dc:contributor>
          <cc:Agent>
            <dc:title />
          </cc:Agent>
        </dc:contributor>
      </cc:Work>
      <cc:Work
         rdf:about="">
        <dc:format>image/svg+xml</dc:format>
        <dc:type
           rdf:resource="http://purl.org/dc/dcmitype/StillImage" />
      </cc:Work>
      <cc:License
         rdf:about="http://creativecommons.org/licenses/by-sa/4.0/">
        <cc:permits
           rdf:resource="http://creativecommons.org/ns#Reproduction" />
        <cc:permits
           rdf:resource="http://creativecommons.org/ns#Distribution" />
        <cc:requires
           rdf:resource="http://creativecommons.org/ns#Notice" />
        <cc:requires
           rdf:resource="http://creativecommons.org/ns#Attribution" />
        <cc:permits
           rdf:resource="http://creativecommons.org/ns#DerivativeWorks" />
        <cc:requires
           rdf:resource="http://creativecommons.org/ns#ShareAlike" />
      </cc:License>
    </rdf:RDF>
  </metadata>
  <g
     style="display:inline"
     inkscape:groupmode="layer"
     inkscape:label="Icon"
     id="layer1">
    <g
       style="display:none"
       inkscape:label="Baseplate"
       id="layer7"
       inkscape:groupmode="layer">
      <text
         y="-8.2548828"
         xml:space="preserve"
         x="19.006836"
         style="font-style:normal;font-variant:normal;font-weight:normal;font-stretch:normal;line-height:0%;font-family:'DejaVu Sans';-inkscape-font-specification:'DejaVu Sans';display:inline;fill:#000000;fill-opacity:1;stroke:none;enable-background:new"
         inkscape:label="context"
         id="context"><tspan
           style="font-style:normal;font-variant:normal;font-weight:normal;font-stretch:normal;font-size:18px;line-height:1.25;font-family:'DejaVu Sans';-inkscape-font-specification:'DejaVu Sans'"
           y="-8.2548828"
           x="19.006836"
           sodipodi:role="line"
           id="tspan3933">legacy</tspan></text>
      <text
         y="-8.2548828"
         xml:space="preserve"
         x="146.48828"
         style="font-style:normal;font-variant:normal;font-weight:bold;font-stretch:normal;line-height:0%;font-family:'DejaVu Sans';-inkscape-font-specification:'DejaVu Sans Bold';text-align:start;writing-mode:lr-tb;text-anchor:start;display:inline;fill:#000000;fill-opacity:1;stroke:none;enable-background:new"
         inkscape:label="icon-name"
         id="icon-name"><tspan
           style="font-style:normal;font-variant:normal;font-weight:bold;font-stretch:normal;font-size:18px;line-height:1.25;font-family:'DejaVu Sans';-inkscape-font-specification:'DejaVu Sans Bold'"
           y="-8.2548828"
           x="146.48828"
           sodipodi:role="line"
           id="tspan924">add-folder-to-archive</tspan></text>
      <rect
         style="display:inline;overflow:visible;visibility:visible;fill:#cdcdcd;fill-opacity:1;fill-rule:nonzero;stroke:none;stroke-width:2;marker:none;enable-background:accumulate"
         id="rect16x16"
         width="16"
         height="16"
         x="320"
         y="236"
         inkscape:label="16x16" />
      <rect
         style="display:inline;overflow:visible;visibility:visible;fill:#cdcdcd;fill-opacity:1;fill-rule:nonzero;stroke:none;stroke-width:2;marker:none;enable-background:accumulate"
         id="rect24x24"
         width="24"
         height="24"
         x="320"
         y="188"
         inkscape:label="24x24" />
      <rect
         style="display:inline;overflow:visible;visibility:visible;fill:#cdcdcd;fill-opacity:1;fill-rule:nonzero;stroke:none;stroke-width:2;marker:none;enable-background:accumulate"
         id="rect32x32"
         width="32"
         height="32"
         x="320"
         y="132"
         inkscape:label="32x32" />
      <rect
         inkscape:label="48x48"
         y="60"
         x="320"
         height="48"
         width="48"
         id="rect48x48"
         style="display:inline;overflow:visible;visibility:visible;fill:#cdcdcd;fill-opacity:1;fill-rule:nonzero;stroke:none;stroke-width:2;marker:none;enable-background:accumulate" />
      <rect
         style="display:inline;overflow:visible;visibility:visible;fill:#cdcdcd;fill-opacity:1;fill-rule:nonzero;stroke:none;stroke-width:2;marker:none;enable-background:accumulate"
         id="rect3951"
         width="256"
         height="256"
         x="24"
         y="28"
         inkscape:label="48x48" />
      <rect
         style="display:inline;overflow:visible;visibility:visible;fill:#cdcdcd;fill-opacity:1;fill-rule:nonzero;stroke:none;stroke-width:1.83333;marker:none;enable-background:accumulate"
         id="rect24x24-1"
         width="22"
         height="22"
         x="372"
         y="190"
         inkscape:label="24x24" />
    </g>
    <g
       inkscape:groupmode="layer"
       id="layer2"
       inkscape:label="Background"
       style="display:inline" />
    <g
       inkscape:groupmode="layer"
       id="layer6"
       inkscape:label="Pictogram"
       style="display:inline">
      <g
         id="g830"
         transform="translate(320,235.51735)">
        <path
           style="opacity:0.6;fill:#000000;fill-opacity:1;stroke:none;stroke-width:1px;stroke-linecap:butt;stroke-linejoin:miter;stroke-opacity:1"
           d="M 0,13 V 3 C 0,2 1,1 2,1 h 4 c 1,0 1,0 2,1 1,1 1,1 2,1 h 4 c 1,0 2,1 2,2 v 8 c 0,1 -1,2 -2,2 H 2 C 1,15 0,14 0,13 Z"
           id="path819"
           inkscape:connector-curvature="0"
           sodipodi:nodetypes="cccccccccccc" />
        <path
           sodipodi:nodetypes="cccccccccccc"
           inkscape:connector-curvature="0"
           id="path823"
           d="M 1,12 V 4 C 1,2.5028155 1.4971845,2 3,2 H 5.75 C 6.625,2 6.625,2.2857143 7.5,3.1428572 8.375,4 8.375,4 9.25,4 H 13 c 1.503906,0 2,0.4983259 2,2 v 6 c 0,1.497768 -0.5,2 -2,2 H 3 C 1.5,14 1,13.497768 1,12 Z"
           style="opacity:1;fill:#b3b3b3;fill-opacity:1;stroke:none;stroke-width:0.866025px;stroke-linecap:butt;stroke-linejoin:miter;stroke-opacity:1" />
        <circle
           style="opacity:1;vector-effect:none;fill:#46a926;fill-opacity:1;stroke:none;stroke-width:3.5;stroke-linecap:butt;stroke-linejoin:round;stroke-miterlimit:4;stroke-dasharray:none;stroke-dashoffset:0;stroke-opacity:1"
           id="path2644"
           cy="12.465294"
           cx="12.500001"
           r="3.5" />
        <path
           inkscape:connector-curvature="0"
           id="path1063"
           overflow="visible"
           font-weight="400"
           style="color:#000000;font-weight:400;line-height:normal;font-family:sans-serif;text-indent:0;text-align:start;text-decoration:none;text-decoration-line:none;text-decoration-style:solid;text-decoration-color:#000000;text-transform:none;white-space:normal;overflow:visible;isolation:auto;mix-blend-mode:normal;fill:#ffffff;fill-opacity:1;marker:none"
           d="m 12,9.965294 v 2 h -2 v 1 h 2 v 2 h 1 v -2 h 2 v -1 h -2 v -2 z" />
      </g>
      <g
         id="g1878"
         transform="matrix(1.3749999,0,0,1.3749999,372,189.33636)">
        <path
           style="opacity:0.6;fill:#000000;fill-opacity:1;stroke:none;stroke-width:1px;stroke-linecap:butt;stroke-linejoin:miter;stroke-opacity:1"
           d="M 0,13 V 3 C 0,2 1,1 2,1 h 4 c 1,0 1,0 2,1 1,1 1,1 2,1 h 4 c 1,0 2,1 2,2 v 8 c 0,1 -1,2 -2,2 H 2 C 1,15 0,14 0,13 Z"
           id="path1870"
           inkscape:connector-curvature="0"
           sodipodi:nodetypes="cccccccccccc" />
        <path
           sodipodi:nodetypes="cccccccccccc"
           inkscape:connector-curvature="0"
           id="path1872"
           d="M 1,12 V 4 C 1,2.5028155 1.4971845,2 3,2 H 5.75 C 6.625,2 6.625,2.2857143 7.5,3.1428572 8.375,4 8.375,4 9.25,4 H 13 c 1.503906,0 2,0.4983259 2,2 v 6 c 0,1.497768 -0.5,2 -2,2 H 3 C 1.5,14 1,13.497768 1,12 Z"
           style="opacity:1;fill:#b3b3b3;fill-opacity:1;stroke:none;stroke-width:0.866025px;stroke-linecap:butt;stroke-linejoin:miter;stroke-opacity:1" />
        <circle
           style="opacity:1;vector-effect:none;fill:#46a926;fill-opacity:1;stroke:none;stroke-width:3.5;stroke-linecap:butt;stroke-linejoin:round;stroke-miterlimit:4;stroke-dasharray:none;stroke-dashoffset:0;stroke-opacity:1"
           id="circle1874"
           cy="12.465294"
           cx="12.500001"
           r="3.5" />
        <path
           inkscape:connector-curvature="0"
           id="path1876"
           overflow="visible"
           font-weight="400"
           style="color:#000000;font-weight:400;line-height:normal;font-family:sans-serif;text-indent:0;text-align:start;text-decoration:none;text-decoration-line:none;text-decoration-style:solid;text-decoration-color:#000000;text-transform:none;white-space:normal;overflow:visible;isolation:auto;mix-blend-mode:normal;fill:#ffffff;fill-opacity:1;marker:none"
           d="m 12,9.965294 v 2 h -2 v 1 h 2 v 2 h 1 v -2 h 2 v -1 h -2 v -2 z" />
      </g>
      <g
         id="g1888"
         transform="matrix(1.4999999,0,0,1.4999999,320,187.27603)">
        <path
           style="opacity:0.6;fill:#000000;fill-opacity:1;stroke:none;stroke-width:1px;stroke-linecap:butt;stroke-linejoin:miter;stroke-opacity:1"
           d="M 0,13 V 3 C 0,2 1,1 2,1 h 4 c 1,0 1,0 2,1 1,1 1,1 2,1 h 4 c 1,0 2,1 2,2 v 8 c 0,1 -1,2 -2,2 H 2 C 1,15 0,14 0,13 Z"
           id="path1880"
           inkscape:connector-curvature="0"
           sodipodi:nodetypes="cccccccccccc" />
        <path
           sodipodi:nodetypes="cccccccccccc"
           inkscape:connector-curvature="0"
           id="path1882"
           d="M 1,12 V 4 C 1,2.5028155 1.4971845,2 3,2 H 5.75 C 6.625,2 6.625,2.2857143 7.5,3.1428572 8.375,4 8.375,4 9.25,4 H 13 c 1.503906,0 2,0.4983259 2,2 v 6 c 0,1.497768 -0.5,2 -2,2 H 3 C 1.5,14 1,13.497768 1,12 Z"
           style="opacity:1;fill:#b3b3b3;fill-opacity:1;stroke:none;stroke-width:0.866025px;stroke-linecap:butt;stroke-linejoin:miter;stroke-opacity:1" />
        <circle
           style="opacity:1;vector-effect:none;fill:#46a926;fill-opacity:1;stroke:none;stroke-width:3.5;stroke-linecap:butt;stroke-linejoin:round;stroke-miterlimit:4;stroke-dasharray:none;stroke-dashoffset:0;stroke-opacity:1"
           id="circle1884"
           cy="12.465294"
           cx="12.500001"
           r="3.5" />
        <path
           inkscape:connector-curvature="0"
           id="path1886"
           overflow="visible"
           font-weight="400"
           style="color:#000000;font-weight:400;line-height:normal;font-family:sans-serif;text-indent:0;text-align:start;text-decoration:none;text-decoration-line:none;text-decoration-style:solid;text-decoration-color:#000000;text-transform:none;white-space:normal;overflow:visible;isolation:auto;mix-blend-mode:normal;fill:#ffffff;fill-opacity:1;marker:none"
           d="m 12,9.965294 v 2 h -2 v 1 h 2 v 2 h 1 v -2 h 2 v -1 h -2 v -2 z" />
      </g>
      <g
         id="g1898"
         transform="matrix(1.9999999,0,0,1.9999999,320,131.03471)">
        <path
           style="opacity:0.6;fill:#000000;fill-opacity:1;stroke:none;stroke-width:1px;stroke-linecap:butt;stroke-linejoin:miter;stroke-opacity:1"
           d="M 0,13 V 3 C 0,2 1,1 2,1 h 4 c 1,0 1,0 2,1 1,1 1,1 2,1 h 4 c 1,0 2,1 2,2 v 8 c 0,1 -1,2 -2,2 H 2 C 1,15 0,14 0,13 Z"
           id="path1890"
           inkscape:connector-curvature="0"
           sodipodi:nodetypes="cccccccccccc" />
        <path
           sodipodi:nodetypes="cccccccccccc"
           inkscape:connector-curvature="0"
           id="path1892"
           d="M 1,12 V 4 C 1,2.5028155 1.4971845,2 3,2 H 5.75 C 6.625,2 6.625,2.2857143 7.5,3.1428572 8.375,4 8.375,4 9.25,4 H 13 c 1.503906,0 2,0.4983259 2,2 v 6 c 0,1.497768 -0.5,2 -2,2 H 3 C 1.5,14 1,13.497768 1,12 Z"
           style="opacity:1;fill:#b3b3b3;fill-opacity:1;stroke:none;stroke-width:0.866025px;stroke-linecap:butt;stroke-linejoin:miter;stroke-opacity:1" />
        <circle
           style="opacity:1;vector-effect:none;fill:#46a926;fill-opacity:1;stroke:none;stroke-width:3.5;stroke-linecap:butt;stroke-linejoin:round;stroke-miterlimit:4;stroke-dasharray:none;stroke-dashoffset:0;stroke-opacity:1"
           id="circle1894"
           cy="12.465294"
           cx="12.500001"
           r="3.5" />
        <path
           inkscape:connector-curvature="0"
           id="path1896"
           overflow="visible"
           font-weight="400"
           style="color:#000000;font-weight:400;line-height:normal;font-family:sans-serif;text-indent:0;text-align:start;text-decoration:none;text-decoration-line:none;text-decoration-style:solid;text-decoration-color:#000000;text-transform:none;white-space:normal;overflow:visible;isolation:auto;mix-blend-mode:normal;fill:#ffffff;fill-opacity:1;marker:none"
           d="m 12,9.965294 v 2 h -2 v 1 h 2 v 2 h 1 v -2 h 2 v -1 h -2 v -2 z" />
      </g>
      <g
         id="g1908"
         transform="matrix(2.9999998,0,0,2.9999998,320,58.552061)">
        <path
           style="opacity:0.6;fill:#000000;fill-opacity:1;stroke:none;stroke-width:1px;stroke-linecap:butt;stroke-linejoin:miter;stroke-opacity:1"
           d="M 0,13 V 3 C 0,2 1,1 2,1 h 4 c 1,0 1,0 2,1 1,1 1,1 2,1 h 4 c 1,0 2,1 2,2 v 8 c 0,1 -1,2 -2,2 H 2 C 1,15 0,14 0,13 Z"
           id="path1900"
           inkscape:connector-curvature="0"
           sodipodi:nodetypes="cccccccccccc" />
        <path
           sodipodi:nodetypes="cccccccccccc"
           inkscape:connector-curvature="0"
           id="path1902"
           d="M 1,12 V 4 C 1,2.5028155 1.4971845,2 3,2 H 5.75 C 6.625,2 6.625,2.2857143 7.5,3.1428572 8.375,4 8.375,4 9.25,4 H 13 c 1.503906,0 2,0.4983259 2,2 v 6 c 0,1.497768 -0.5,2 -2,2 H 3 C 1.5,14 1,13.497768 1,12 Z"
           style="opacity:1;fill:#b3b3b3;fill-opacity:1;stroke:none;stroke-width:0.866025px;stroke-linecap:butt;stroke-linejoin:miter;stroke-opacity:1" />
        <circle
           style="opacity:1;vector-effect:none;fill:#46a926;fill-opacity:1;stroke:none;stroke-width:3.5;stroke-linecap:butt;stroke-linejoin:round;stroke-miterlimit:4;stroke-dasharray:none;stroke-dashoffset:0;stroke-opacity:1"
           id="circle1904"
           cy="12.465294"
           cx="12.500001"
           r="3.5" />
        <path
           inkscape:connector-curvature="0"
           id="path1906"
           overflow="visible"
           font-weight="400"
           style="color:#000000;font-weight:400;line-height:normal;font-family:sans-serif;text-indent:0;text-align:start;text-decoration:none;text-decoration-line:none;text-decoration-style:solid;text-decoration-color:#000000;text-transform:none;white-space:normal;overflow:visible;isolation:auto;mix-blend-mode:normal;fill:#ffffff;fill-opacity:1;marker:none"
           d="m 12,9.965294 v 2 h -2 v 1 h 2 v 2 h 1 v -2 h 2 v -1 h -2 v -2 z" />
      </g>
      <g
         id="g1918"
         transform="matrix(13.999999,0,0,13.999999,40.000001,37.242951)">
        <path
           style="opacity:0.6;fill:#000000;fill-opacity:1;stroke:none;stroke-width:1px;stroke-linecap:butt;stroke-linejoin:miter;stroke-opacity:1"
           d="M 0,13 V 3 C 0,2 1,1 2,1 h 4 c 1,0 1,0 2,1 1,1 1,1 2,1 h 4 c 1,0 2,1 2,2 v 8 c 0,1 -1,2 -2,2 H 2 C 1,15 0,14 0,13 Z"
           id="path1910"
           inkscape:connector-curvature="0"
           sodipodi:nodetypes="cccccccccccc" />
        <path
           sodipodi:nodetypes="cccccccccccc"
           inkscape:connector-curvature="0"
           id="path1912"
           d="M 1,12 V 4 C 1,2.5028155 1.4971845,2 3,2 H 5.75 C 6.625,2 6.625,2.2857143 7.5,3.1428572 8.375,4 8.375,4 9.25,4 H 13 c 1.503906,0 2,0.4983259 2,2 v 6 c 0,1.497768 -0.5,2 -2,2 H 3 C 1.5,14 1,13.497768 1,12 Z"
           style="opacity:1;fill:#b3b3b3;fill-opacity:1;stroke:none;stroke-width:0.866025px;stroke-linecap:butt;stroke-linejoin:miter;stroke-opacity:1" />
        <circle
           style="opacity:1;vector-effect:none;fill:#46a926;fill-opacity:1;stroke:none;stroke-width:3.5;stroke-linecap:butt;stroke-linejoin:round;stroke-miterlimit:4;stroke-dasharray:none;stroke-dashoffset:0;stroke-opacity:1"
           id="circle1914"
           cy="12.465294"
           cx="12.500001"
           r="3.5" />
        <path
           inkscape:connector-curvature="0"
           id="path1916"
           overflow="visible"
           font-weight="400"
           style="color:#000000;font-weight:400;line-height:normal;font-family:sans-serif;text-indent:0;text-align:start;text-decoration:none;text-decoration-line:none;text-decoration-style:solid;text-decoration-color:#000000;text-transform:none;white-space:normal;overflow:visible;isolation:auto;mix-blend-mode:normal;fill:#ffffff;fill-opacity:1;marker:none"
           d="m 12,9.965294 v 2 h -2 v 1 h 2 v 2 h 1 v -2 h 2 v -1 h -2 v -2 z" />
      </g>
    </g>
  </g>
</svg>
