<?xml version="1.0" encoding="UTF-8" standalone="no"?>
<svg
   inkscape:export-ydpi="90.000000"
   inkscape:export-xdpi="90.000000"
   width="400"
   height="300"
   id="svg11300"
   sodipodi:version="0.32"
   inkscape:version="1.1.2 (0a00cf5339, 2022-02-04)"
   sodipodi:docname="color-fill.svg"
   inkscape:output_extension="org.inkscape.output.svg.inkscape"
   version="1.0"
   style="display:inline;enable-background:new"
   inkscape:export-filename="/home/sam/suru-template.png"
   xmlns:inkscape="http://www.inkscape.org/namespaces/inkscape"
   xmlns:sodipodi="http://sodipodi.sourceforge.net/DTD/sodipodi-0.dtd"
   xmlns:xlink="http://www.w3.org/1999/xlink"
   xmlns="http://www.w3.org/2000/svg"
   xmlns:svg="http://www.w3.org/2000/svg"
   xmlns:rdf="http://www.w3.org/1999/02/22-rdf-syntax-ns#"
   xmlns:cc="http://creativecommons.org/ns#"
   xmlns:dc="http://purl.org/dc/elements/1.1/">
  <title
     id="title3004">Suru Icon Theme Template</title>
  <sodipodi:namedview
     stroke="#ef2929"
     fill="#f57900"
     id="base"
     pagecolor="#ffffff"
     bordercolor="#000000"
     borderopacity="0.25490196"
     inkscape:pageopacity="0"
     inkscape:pageshadow="2"
     inkscape:zoom="1.4142136"
     inkscape:cx="276.47875"
     inkscape:cy="156.97771"
     inkscape:current-layer="layer6"
     showgrid="false"
     inkscape:grid-bbox="true"
     inkscape:document-units="px"
     inkscape:showpageshadow="false"
     inkscape:window-width="1920"
     inkscape:window-height="1020"
     inkscape:window-x="0"
     inkscape:window-y="32"
     width="400px"
     height="300px"
     inkscape:snap-nodes="true"
     inkscape:snap-bbox="true"
     gridtolerance="10000"
     inkscape:object-nodes="true"
     inkscape:snap-grids="true"
     showguides="true"
     inkscape:guide-bbox="true"
     inkscape:window-maximized="1"
     inkscape:bbox-paths="true"
     inkscape:snap-bbox-midpoints="true"
     inkscape:snap-global="true"
     inkscape:object-paths="true"
     inkscape:snap-intersection-paths="true"
     inkscape:snap-smooth-nodes="true"
     inkscape:pagecheckerboard="false"
     showborder="false"
     inkscape:document-rotation="0">
    <inkscape:grid
       spacingy="1"
       spacingx="1"
       id="grid5883"
       type="xygrid"
       enabled="true"
       visible="true"
       empspacing="4"
       snapvisiblegridlinesonly="true"
       originx="0"
       originy="0" />
    <inkscape:grid
       type="xygrid"
       id="grid11592"
       empspacing="2"
       visible="true"
       enabled="false"
       spacingx="0.5"
       spacingy="0.5"
       color="#ff0000"
       opacity="0.1254902"
       empcolor="#ff0000"
       empopacity="0.25098039"
       snapvisiblegridlinesonly="true"
       originx="0"
       originy="0" />
  </sodipodi:namedview>
  <defs
     id="defs3">
    <linearGradient
       inkscape:collect="always"
       xlink:href="#linearGradient3113"
       id="linearGradient3115"
       x1="2.2971075"
       y1="291.27591"
       x2="4.0061202"
       y2="296.39746"
       gradientUnits="userSpaceOnUse"
       gradientTransform="matrix(0.99998595,0,0,0.94738036,2.0452162e-5,15.328647)" />
    <linearGradient
       inkscape:collect="always"
       id="linearGradient3113">
      <stop
         style="stop-color:#2daaaa;stop-opacity:1"
         offset="0"
         id="stop3109" />
      <stop
         style="stop-color:#5bdbc1;stop-opacity:1"
         offset="1"
         id="stop3111" />
    </linearGradient>
    <linearGradient
       inkscape:collect="always"
       xlink:href="#linearGradient3884"
       id="linearGradient3874"
       x1="12"
       y1="6"
       x2="12"
       y2="20"
       gradientUnits="userSpaceOnUse"
       gradientTransform="matrix(0.26457962,0,0,0.25066106,2.0452162e-5,290.68473)" />
    <linearGradient
       id="linearGradient3884"
       inkscape:collect="always">
      <stop
         id="stop3876"
         offset="0"
         style="stop-color:#ffffff;stop-opacity:1;" />
      <stop
         style="stop-color:#ffffff;stop-opacity:0.09803922"
         offset="0.49999997"
         id="stop3878" />
      <stop
         style="stop-color:#ffffff;stop-opacity:0.09803922"
         offset="0.71517861"
         id="stop3880" />
      <stop
         id="stop3882"
         offset="1"
         style="stop-color:#ffffff;stop-opacity:0.49803922" />
    </linearGradient>
    <linearGradient
       inkscape:collect="always"
       xlink:href="#linearGradient3113"
       id="linearGradient9663"
       gradientUnits="userSpaceOnUse"
       gradientTransform="matrix(0.99998595,0,0,0.94738036,2.0452162e-5,15.328647)"
       x1="2.2971075"
       y1="291.27591"
       x2="4.0061202"
       y2="296.39746" />
    <linearGradient
       inkscape:collect="always"
       xlink:href="#linearGradient3884"
       id="linearGradient9665"
       gradientUnits="userSpaceOnUse"
       gradientTransform="matrix(0.26457962,0,0,0.25066106,2.0452162e-5,290.68473)"
       x1="12"
       y1="6"
       x2="12"
       y2="20" />
    <linearGradient
       inkscape:collect="always"
       xlink:href="#linearGradient3113"
       id="linearGradient9677"
       gradientUnits="userSpaceOnUse"
       gradientTransform="matrix(0.99998595,0,0,0.94738036,2.0452162e-5,15.328647)"
       x1="2.2971075"
       y1="291.27591"
       x2="4.0061202"
       y2="296.39746" />
    <linearGradient
       inkscape:collect="always"
       xlink:href="#linearGradient3884"
       id="linearGradient9679"
       gradientUnits="userSpaceOnUse"
       gradientTransform="matrix(0.26457962,0,0,0.25066106,2.0452162e-5,290.68473)"
       x1="12"
       y1="6"
       x2="12"
       y2="20" />
    <linearGradient
       inkscape:collect="always"
       xlink:href="#linearGradient3113"
       id="linearGradient9691"
       gradientUnits="userSpaceOnUse"
       gradientTransform="matrix(0.99998595,0,0,0.94738036,2.0452162e-5,15.328647)"
       x1="2.2971075"
       y1="291.27591"
       x2="4.0061202"
       y2="296.39746" />
    <linearGradient
       inkscape:collect="always"
       xlink:href="#linearGradient3884"
       id="linearGradient9693"
       gradientUnits="userSpaceOnUse"
       gradientTransform="matrix(0.26457962,0,0,0.25066106,2.0452162e-5,290.68473)"
       x1="12"
       y1="6"
       x2="12"
       y2="20" />
    <linearGradient
       inkscape:collect="always"
       xlink:href="#linearGradient3113"
       id="linearGradient9705"
       gradientUnits="userSpaceOnUse"
       gradientTransform="matrix(0.99998595,0,0,0.94738036,2.0452162e-5,15.328647)"
       x1="2.2971075"
       y1="291.27591"
       x2="4.0061202"
       y2="296.39746" />
    <linearGradient
       inkscape:collect="always"
       xlink:href="#linearGradient3884"
       id="linearGradient9707"
       gradientUnits="userSpaceOnUse"
       gradientTransform="matrix(0.26457962,0,0,0.25066106,2.0452162e-5,290.68473)"
       x1="12"
       y1="6"
       x2="12"
       y2="20" />
    <linearGradient
       inkscape:collect="always"
       xlink:href="#linearGradient3113"
       id="linearGradient9719"
       gradientUnits="userSpaceOnUse"
       gradientTransform="matrix(0.99998595,0,0,0.94738036,2.0452162e-5,15.328647)"
       x1="2.2971075"
       y1="291.27591"
       x2="4.0061202"
       y2="296.39746" />
    <linearGradient
       inkscape:collect="always"
       xlink:href="#linearGradient3884"
       id="linearGradient9721"
       gradientUnits="userSpaceOnUse"
       gradientTransform="matrix(0.26457962,0,0,0.25066106,2.0452162e-5,290.68473)"
       x1="12"
       y1="6"
       x2="12"
       y2="20" />
  </defs>
  <metadata
     id="metadata4">
    <rdf:RDF>
      <cc:Work
         rdf:about="">
        <dc:format>image/svg+xml</dc:format>
        <dc:type
           rdf:resource="http://purl.org/dc/dcmitype/StillImage" />
        <dc:creator>
          <cc:Agent>
            <dc:title>Sam Hewitt</dc:title>
          </cc:Agent>
        </dc:creator>
        <dc:source />
        <cc:license
           rdf:resource="http://creativecommons.org/licenses/by-sa/4.0/" />
        <dc:title>Suru Icon Theme Template</dc:title>
        <dc:subject>
          <rdf:Bag />
        </dc:subject>
        <dc:date />
        <dc:rights>
          <cc:Agent>
            <dc:title />
          </cc:Agent>
        </dc:rights>
        <dc:publisher>
          <cc:Agent>
            <dc:title />
          </cc:Agent>
        </dc:publisher>
        <dc:identifier />
        <dc:relation />
        <dc:language />
        <dc:coverage />
        <dc:description />
        <dc:contributor>
          <cc:Agent>
            <dc:title />
          </cc:Agent>
        </dc:contributor>
      </cc:Work>
      <cc:Work
         rdf:about="">
        <dc:format>image/svg+xml</dc:format>
        <dc:type
           rdf:resource="http://purl.org/dc/dcmitype/StillImage" />
      </cc:Work>
      <cc:License
         rdf:about="http://creativecommons.org/licenses/by-sa/4.0/">
        <cc:permits
           rdf:resource="http://creativecommons.org/ns#Reproduction" />
        <cc:permits
           rdf:resource="http://creativecommons.org/ns#Distribution" />
        <cc:requires
           rdf:resource="http://creativecommons.org/ns#Notice" />
        <cc:requires
           rdf:resource="http://creativecommons.org/ns#Attribution" />
        <cc:permits
           rdf:resource="http://creativecommons.org/ns#DerivativeWorks" />
        <cc:requires
           rdf:resource="http://creativecommons.org/ns#ShareAlike" />
      </cc:License>
    </rdf:RDF>
  </metadata>
  <g
     style="display:inline"
     inkscape:groupmode="layer"
     inkscape:label="Icon"
     id="layer1">
    <g
       style="display:none"
       inkscape:label="Baseplate"
       id="layer7"
       inkscape:groupmode="layer">
      <text
         y="-8.2548828"
         xml:space="preserve"
         x="19.006836"
         style="font-style:normal;font-variant:normal;font-weight:normal;font-stretch:normal;line-height:0%;font-family:'DejaVu Sans';-inkscape-font-specification:'DejaVu Sans';display:inline;fill:#000000;fill-opacity:1;stroke:none;enable-background:new"
         inkscape:label="context"
         id="context"><tspan
           style="font-style:normal;font-variant:normal;font-weight:normal;font-stretch:normal;font-size:18px;line-height:1.25;font-family:'DejaVu Sans';-inkscape-font-specification:'DejaVu Sans'"
           y="-8.2548828"
           x="19.006836"
           sodipodi:role="line"
           id="tspan3933">legacy</tspan></text>
      <text
         y="-8.2548828"
         xml:space="preserve"
         x="146.48828"
         style="font-style:normal;font-variant:normal;font-weight:bold;font-stretch:normal;line-height:0%;font-family:'DejaVu Sans';-inkscape-font-specification:'DejaVu Sans Bold';text-align:start;writing-mode:lr-tb;text-anchor:start;display:inline;fill:#000000;fill-opacity:1;stroke:none;enable-background:new"
         inkscape:label="icon-name"
         id="icon-name"><tspan
           style="font-style:normal;font-variant:normal;font-weight:bold;font-stretch:normal;font-size:18px;line-height:1.25;font-family:'DejaVu Sans';-inkscape-font-specification:'DejaVu Sans Bold'"
           y="-8.2548828"
           x="146.48828"
           sodipodi:role="line"
           id="tspan924">color-fill</tspan></text>
      <rect
         style="display:inline;overflow:visible;visibility:visible;fill:#cdcdcd;fill-opacity:1;fill-rule:nonzero;stroke:none;stroke-width:2;marker:none;enable-background:accumulate"
         id="rect16x16"
         width="16"
         height="16"
         x="320"
         y="236"
         inkscape:label="16x16" />
      <rect
         style="display:inline;overflow:visible;visibility:visible;fill:#cdcdcd;fill-opacity:1;fill-rule:nonzero;stroke:none;stroke-width:2;marker:none;enable-background:accumulate"
         id="rect24x24"
         width="24"
         height="24"
         x="320"
         y="188"
         inkscape:label="24x24" />
      <rect
         style="display:inline;overflow:visible;visibility:visible;fill:#cdcdcd;fill-opacity:1;fill-rule:nonzero;stroke:none;stroke-width:2;marker:none;enable-background:accumulate"
         id="rect32x32"
         width="32"
         height="32"
         x="320"
         y="132"
         inkscape:label="32x32" />
      <rect
         inkscape:label="48x48"
         y="60"
         x="320"
         height="48"
         width="48"
         id="rect48x48"
         style="display:inline;overflow:visible;visibility:visible;fill:#cdcdcd;fill-opacity:1;fill-rule:nonzero;stroke:none;stroke-width:2;marker:none;enable-background:accumulate" />
      <rect
         style="display:inline;overflow:visible;visibility:visible;fill:#cdcdcd;fill-opacity:1;fill-rule:nonzero;stroke:none;stroke-width:2;marker:none;enable-background:accumulate"
         id="rect3951"
         width="256"
         height="256"
         x="24"
         y="28"
         inkscape:label="48x48" />
      <rect
         style="display:inline;overflow:visible;visibility:visible;fill:#cdcdcd;fill-opacity:1;fill-rule:nonzero;stroke:none;stroke-width:1.83333;marker:none;enable-background:accumulate"
         id="rect24x24-1"
         width="22"
         height="22"
         x="372"
         y="190"
         inkscape:label="24x24" />
    </g>
    <g
       inkscape:groupmode="layer"
       id="layer2"
       inkscape:label="Background"
       style="display:inline" />
    <g
       inkscape:groupmode="layer"
       id="layer6"
       inkscape:label="Pictogram"
       style="display:inline">
      <g
         id="g841"
         transform="matrix(3.7795275,0,0,3.7795275,320,-911.01962)">
        <ellipse
           style="opacity:1;vector-effect:none;fill:#2daaaa;fill-opacity:1;stroke:none;stroke-width:0.264583;stroke-linecap:round;stroke-linejoin:round;stroke-miterlimit:4;stroke-dasharray:none;stroke-dashoffset:0;stroke-opacity:1"
           id="path3886"
           cx="3.1750002"
           cy="296.20624"
           rx="2.9104168"
           ry="0.5291667" />
        <path
           style="opacity:1;vector-effect:none;fill:url(#linearGradient3115);fill-opacity:1;stroke:none;stroke-width:0.529167;stroke-linecap:round;stroke-linejoin:miter;stroke-miterlimit:4;stroke-dasharray:none;stroke-dashoffset:0;stroke-opacity:1"
           d="m 3.1749758,291.31139 c -0.2276827,1.12315 -1.4621102,2.07207 -1.6851983,3.07659 -0.1552983,0.69927 0.1794796,1.68597 1.6851983,1.68596 1.5057189,1e-5 1.8404967,-0.98669 1.6851984,-1.68596 -0.2230881,-1.00452 -1.4575156,-1.95344 -1.6851984,-3.07659 z"
           id="rect3075"
           inkscape:connector-curvature="0" />
        <path
           style="opacity:0.7;vector-effect:none;fill:url(#linearGradient3874);fill-opacity:1;stroke:none;stroke-width:0.529167;stroke-linecap:round;stroke-linejoin:miter;stroke-miterlimit:4;stroke-dasharray:none;stroke-dashoffset:0;stroke-opacity:1"
           d="m 3.1760093,291.57869 c -0.1632599,0.49092 -0.4254911,0.95734 -0.7363787,1.38598 -0.3656036,0.50408 -0.7174603,0.98467 -0.8206103,1.44913 -0.071124,0.32026 -0.028753,0.70733 0.1974013,1.00656 0.2261537,0.29923 0.6372299,0.52924 1.3595877,0.52923 0.7223582,10e-6 1.1308506,-0.23 1.357004,-0.52923 0.226154,-0.29923 0.2685253,-0.6863 0.1974013,-1.00656 C 4.6272648,293.94934 4.2759248,293.46875 3.9103212,292.96467 3.5996,292.53625 3.3393502,292.0693 3.1760093,291.57869 Z m 5.292e-4,0.69323 c 0.1892054,0.3682 0.422645,0.71356 0.6624828,1.05356 0.2807986,0.42949 0.6511127,0.86704 0.6371614,1.3992 0.032467,0.41898 -0.306979,0.79951 -0.727594,0.89543 -0.4690951,0.10862 -1.0157555,0.11654 -1.4510539,-0.12729 -0.4372227,-0.24419 -0.5210315,-0.80761 -0.3472607,-1.22638 0.3142732,-0.70863 0.8721957,-1.28908 1.2200634,-1.98179 z"
           id="rect3075-97"
           inkscape:connector-curvature="0" />
        <path
           style="opacity:0.8;vector-effect:none;fill:none;fill-opacity:1;stroke:#000000;stroke-width:0.264583;stroke-linecap:round;stroke-linejoin:round;stroke-miterlimit:4;stroke-dasharray:none;stroke-dashoffset:0;stroke-opacity:1"
           d="m 3.1749758,291.31139 c -0.2276827,1.12315 -1.4621103,2.07207 -1.6851984,3.07659 -0.1552983,0.69927 0.1794796,1.68597 1.6851984,1.68596 1.5057189,1e-5 1.8404968,-0.98669 1.6851984,-1.68596 -0.223088,-1.00452 -1.4575156,-1.95344 -1.6851984,-3.07659 z"
           id="rect3075-9"
           inkscape:connector-curvature="0" />
      </g>
      <g
         id="g9661"
         transform="matrix(2.5769505,0,0,2.5769505,319.81818,-513.51335)">
        <ellipse
           style="opacity:1;vector-effect:none;fill:#2daaaa;fill-opacity:1;stroke:none;stroke-width:0.264583;stroke-linecap:round;stroke-linejoin:round;stroke-miterlimit:4;stroke-dasharray:none;stroke-dashoffset:0;stroke-opacity:1"
           id="ellipse9653"
           cx="3.1750002"
           cy="296.20624"
           rx="2.9104168"
           ry="0.5291667" />
        <path
           style="opacity:1;vector-effect:none;fill:url(#linearGradient9663);fill-opacity:1;stroke:none;stroke-width:0.529167;stroke-linecap:round;stroke-linejoin:miter;stroke-miterlimit:4;stroke-dasharray:none;stroke-dashoffset:0;stroke-opacity:1"
           d="m 3.1749758,291.31139 c -0.2276827,1.12315 -1.4621102,2.07207 -1.6851983,3.07659 -0.1552983,0.69927 0.1794796,1.68597 1.6851983,1.68596 1.5057189,1e-5 1.8404967,-0.98669 1.6851984,-1.68596 -0.2230881,-1.00452 -1.4575156,-1.95344 -1.6851984,-3.07659 z"
           id="path9655"
           inkscape:connector-curvature="0" />
        <path
           style="opacity:0.7;vector-effect:none;fill:url(#linearGradient9665);fill-opacity:1;stroke:none;stroke-width:0.529167;stroke-linecap:round;stroke-linejoin:miter;stroke-miterlimit:4;stroke-dasharray:none;stroke-dashoffset:0;stroke-opacity:1"
           d="m 3.1760093,291.57869 c -0.1632599,0.49092 -0.4254911,0.95734 -0.7363787,1.38598 -0.3656036,0.50408 -0.7174603,0.98467 -0.8206103,1.44913 -0.071124,0.32026 -0.028753,0.70733 0.1974013,1.00656 0.2261537,0.29923 0.6372299,0.52924 1.3595877,0.52923 0.7223582,10e-6 1.1308506,-0.23 1.357004,-0.52923 0.226154,-0.29923 0.2685253,-0.6863 0.1974013,-1.00656 C 4.6272648,293.94934 4.2759248,293.46875 3.9103212,292.96467 3.5996,292.53625 3.3393502,292.0693 3.1760093,291.57869 Z m 5.292e-4,0.69323 c 0.1892054,0.3682 0.422645,0.71356 0.6624828,1.05356 0.2807986,0.42949 0.6511127,0.86704 0.6371614,1.3992 0.032467,0.41898 -0.306979,0.79951 -0.727594,0.89543 -0.4690951,0.10862 -1.0157555,0.11654 -1.4510539,-0.12729 -0.4372227,-0.24419 -0.5210315,-0.80761 -0.3472607,-1.22638 0.3142732,-0.70863 0.8721957,-1.28908 1.2200634,-1.98179 z"
           id="path9657"
           inkscape:connector-curvature="0" />
        <path
           style="opacity:0.8;vector-effect:none;fill:none;fill-opacity:1;stroke:#000000;stroke-width:0.264583;stroke-linecap:round;stroke-linejoin:round;stroke-miterlimit:4;stroke-dasharray:none;stroke-dashoffset:0;stroke-opacity:1"
           d="m 3.1749758,291.31139 c -0.2276827,1.12315 -1.4621103,2.07207 -1.6851984,3.07659 -0.1552983,0.69927 0.1794796,1.68597 1.6851984,1.68596 1.5057189,1e-5 1.8404968,-0.98669 1.6851984,-1.68596 -0.223088,-1.00452 -1.4575156,-1.95344 -1.6851984,-3.07659 z"
           id="path9659"
           inkscape:connector-curvature="0" />
      </g>
      <g
         id="g9675"
         transform="matrix(3.6077306,0,0,3.6077306,371.54545,-859.51867)">
        <ellipse
           style="opacity:1;vector-effect:none;fill:#2daaaa;fill-opacity:1;stroke:none;stroke-width:0.264583;stroke-linecap:round;stroke-linejoin:round;stroke-miterlimit:4;stroke-dasharray:none;stroke-dashoffset:0;stroke-opacity:1"
           id="ellipse9667"
           cx="3.1750002"
           cy="296.20624"
           rx="2.9104168"
           ry="0.5291667" />
        <path
           style="opacity:1;vector-effect:none;fill:url(#linearGradient9677);fill-opacity:1;stroke:none;stroke-width:0.529167;stroke-linecap:round;stroke-linejoin:miter;stroke-miterlimit:4;stroke-dasharray:none;stroke-dashoffset:0;stroke-opacity:1"
           d="m 3.1749758,291.31139 c -0.2276827,1.12315 -1.4621102,2.07207 -1.6851983,3.07659 -0.1552983,0.69927 0.1794796,1.68597 1.6851983,1.68596 1.5057189,1e-5 1.8404967,-0.98669 1.6851984,-1.68596 -0.2230881,-1.00452 -1.4575156,-1.95344 -1.6851984,-3.07659 z"
           id="path9669"
           inkscape:connector-curvature="0" />
        <path
           style="opacity:0.7;vector-effect:none;fill:url(#linearGradient9679);fill-opacity:1;stroke:none;stroke-width:0.529167;stroke-linecap:round;stroke-linejoin:miter;stroke-miterlimit:4;stroke-dasharray:none;stroke-dashoffset:0;stroke-opacity:1"
           d="m 3.1760093,291.57869 c -0.1632599,0.49092 -0.4254911,0.95734 -0.7363787,1.38598 -0.3656036,0.50408 -0.7174603,0.98467 -0.8206103,1.44913 -0.071124,0.32026 -0.028753,0.70733 0.1974013,1.00656 0.2261537,0.29923 0.6372299,0.52924 1.3595877,0.52923 0.7223582,10e-6 1.1308506,-0.23 1.357004,-0.52923 0.226154,-0.29923 0.2685253,-0.6863 0.1974013,-1.00656 C 4.6272648,293.94934 4.2759248,293.46875 3.9103212,292.96467 3.5996,292.53625 3.3393502,292.0693 3.1760093,291.57869 Z m 5.292e-4,0.69323 c 0.1892054,0.3682 0.422645,0.71356 0.6624828,1.05356 0.2807986,0.42949 0.6511127,0.86704 0.6371614,1.3992 0.032467,0.41898 -0.306979,0.79951 -0.727594,0.89543 -0.4690951,0.10862 -1.0157555,0.11654 -1.4510539,-0.12729 -0.4372227,-0.24419 -0.5210315,-0.80761 -0.3472607,-1.22638 0.3142732,-0.70863 0.8721957,-1.28908 1.2200634,-1.98179 z"
           id="path9671"
           inkscape:connector-curvature="0" />
        <path
           style="opacity:0.8;vector-effect:none;fill:none;fill-opacity:1;stroke:#000000;stroke-width:0.264583;stroke-linecap:round;stroke-linejoin:round;stroke-miterlimit:4;stroke-dasharray:none;stroke-dashoffset:0;stroke-opacity:1"
           d="m 3.1749758,291.31139 c -0.2276827,1.12315 -1.4621103,2.07207 -1.6851984,3.07659 -0.1552983,0.69927 0.1794796,1.68597 1.6851984,1.68596 1.5057189,1e-5 1.8404968,-0.98669 1.6851984,-1.68596 -0.223088,-1.00452 -1.4575156,-1.95344 -1.6851984,-3.07659 z"
           id="path9673"
           inkscape:connector-curvature="0" />
      </g>
      <g
         id="g9689"
         transform="matrix(5.1539009,0,0,5.1539009,319.63636,-1367.0267)">
        <ellipse
           style="opacity:1;vector-effect:none;fill:#2daaaa;fill-opacity:1;stroke:none;stroke-width:0.264583;stroke-linecap:round;stroke-linejoin:round;stroke-miterlimit:4;stroke-dasharray:none;stroke-dashoffset:0;stroke-opacity:1"
           id="ellipse9681"
           cx="3.1750002"
           cy="296.20624"
           rx="2.9104168"
           ry="0.5291667" />
        <path
           style="opacity:1;vector-effect:none;fill:url(#linearGradient9691);fill-opacity:1;stroke:none;stroke-width:0.529167;stroke-linecap:round;stroke-linejoin:miter;stroke-miterlimit:4;stroke-dasharray:none;stroke-dashoffset:0;stroke-opacity:1"
           d="m 3.1749758,291.31139 c -0.2276827,1.12315 -1.4621102,2.07207 -1.6851983,3.07659 -0.1552983,0.69927 0.1794796,1.68597 1.6851983,1.68596 1.5057189,1e-5 1.8404967,-0.98669 1.6851984,-1.68596 -0.2230881,-1.00452 -1.4575156,-1.95344 -1.6851984,-3.07659 z"
           id="path9683"
           inkscape:connector-curvature="0" />
        <path
           style="opacity:0.7;vector-effect:none;fill:url(#linearGradient9693);fill-opacity:1;stroke:none;stroke-width:0.529167;stroke-linecap:round;stroke-linejoin:miter;stroke-miterlimit:4;stroke-dasharray:none;stroke-dashoffset:0;stroke-opacity:1"
           d="m 3.1760093,291.57869 c -0.1632599,0.49092 -0.4254911,0.95734 -0.7363787,1.38598 -0.3656036,0.50408 -0.7174603,0.98467 -0.8206103,1.44913 -0.071124,0.32026 -0.028753,0.70733 0.1974013,1.00656 0.2261537,0.29923 0.6372299,0.52924 1.3595877,0.52923 0.7223582,10e-6 1.1308506,-0.23 1.357004,-0.52923 0.226154,-0.29923 0.2685253,-0.6863 0.1974013,-1.00656 C 4.6272648,293.94934 4.2759248,293.46875 3.9103212,292.96467 3.5996,292.53625 3.3393502,292.0693 3.1760093,291.57869 Z m 5.292e-4,0.69323 c 0.1892054,0.3682 0.422645,0.71356 0.6624828,1.05356 0.2807986,0.42949 0.6511127,0.86704 0.6371614,1.3992 0.032467,0.41898 -0.306979,0.79951 -0.727594,0.89543 -0.4690951,0.10862 -1.0157555,0.11654 -1.4510539,-0.12729 -0.4372227,-0.24419 -0.5210315,-0.80761 -0.3472607,-1.22638 0.3142732,-0.70863 0.8721957,-1.28908 1.2200634,-1.98179 z"
           id="path9685"
           inkscape:connector-curvature="0" />
        <path
           style="opacity:0.8;vector-effect:none;fill:none;fill-opacity:1;stroke:#000000;stroke-width:0.264583;stroke-linecap:round;stroke-linejoin:round;stroke-miterlimit:4;stroke-dasharray:none;stroke-dashoffset:0;stroke-opacity:1"
           d="m 3.1749758,291.31139 c -0.2276827,1.12315 -1.4621103,2.07207 -1.6851984,3.07659 -0.1552983,0.69927 0.1794796,1.68597 1.6851984,1.68596 1.5057189,1e-5 1.8404968,-0.98669 1.6851984,-1.68596 -0.223088,-1.00452 -1.4575156,-1.95344 -1.6851984,-3.07659 z"
           id="path9687"
           inkscape:connector-curvature="0" />
      </g>
      <g
         id="g9703"
         transform="matrix(7.5590547,0,0,7.5590547,320,-2138.0391)">
        <ellipse
           style="opacity:1;vector-effect:none;fill:#2daaaa;fill-opacity:1;stroke:none;stroke-width:0.264583;stroke-linecap:round;stroke-linejoin:round;stroke-miterlimit:4;stroke-dasharray:none;stroke-dashoffset:0;stroke-opacity:1"
           id="ellipse9695"
           cx="3.1750002"
           cy="296.20624"
           rx="2.9104168"
           ry="0.5291667" />
        <path
           style="opacity:1;vector-effect:none;fill:url(#linearGradient9705);fill-opacity:1;stroke:none;stroke-width:0.529167;stroke-linecap:round;stroke-linejoin:miter;stroke-miterlimit:4;stroke-dasharray:none;stroke-dashoffset:0;stroke-opacity:1"
           d="m 3.1749758,291.31139 c -0.2276827,1.12315 -1.4621102,2.07207 -1.6851983,3.07659 -0.1552983,0.69927 0.1794796,1.68597 1.6851983,1.68596 1.5057189,1e-5 1.8404967,-0.98669 1.6851984,-1.68596 -0.2230881,-1.00452 -1.4575156,-1.95344 -1.6851984,-3.07659 z"
           id="path9697"
           inkscape:connector-curvature="0" />
        <path
           style="opacity:0.7;vector-effect:none;fill:url(#linearGradient9707);fill-opacity:1;stroke:none;stroke-width:0.529167;stroke-linecap:round;stroke-linejoin:miter;stroke-miterlimit:4;stroke-dasharray:none;stroke-dashoffset:0;stroke-opacity:1"
           d="m 3.1760093,291.57869 c -0.1632599,0.49092 -0.4254911,0.95734 -0.7363787,1.38598 -0.3656036,0.50408 -0.7174603,0.98467 -0.8206103,1.44913 -0.071124,0.32026 -0.028753,0.70733 0.1974013,1.00656 0.2261537,0.29923 0.6372299,0.52924 1.3595877,0.52923 0.7223582,10e-6 1.1308506,-0.23 1.357004,-0.52923 0.226154,-0.29923 0.2685253,-0.6863 0.1974013,-1.00656 C 4.6272648,293.94934 4.2759248,293.46875 3.9103212,292.96467 3.5996,292.53625 3.3393502,292.0693 3.1760093,291.57869 Z m 5.292e-4,0.69323 c 0.1892054,0.3682 0.422645,0.71356 0.6624828,1.05356 0.2807986,0.42949 0.6511127,0.86704 0.6371614,1.3992 0.032467,0.41898 -0.306979,0.79951 -0.727594,0.89543 -0.4690951,0.10862 -1.0157555,0.11654 -1.4510539,-0.12729 -0.4372227,-0.24419 -0.5210315,-0.80761 -0.3472607,-1.22638 0.3142732,-0.70863 0.8721957,-1.28908 1.2200634,-1.98179 z"
           id="path9699"
           inkscape:connector-curvature="0" />
        <path
           style="opacity:0.8;vector-effect:none;fill:none;fill-opacity:1;stroke:#000000;stroke-width:0.264583;stroke-linecap:round;stroke-linejoin:round;stroke-miterlimit:4;stroke-dasharray:none;stroke-dashoffset:0;stroke-opacity:1"
           d="m 3.1749758,291.31139 c -0.2276827,1.12315 -1.4621103,2.07207 -1.6851984,3.07659 -0.1552983,0.69927 0.1794796,1.68597 1.6851984,1.68596 1.5057189,1e-5 1.8404968,-0.98669 1.6851984,-1.68596 -0.223088,-1.00452 -1.4575156,-1.95344 -1.6851984,-3.07659 z"
           id="path9701"
           inkscape:connector-curvature="0" />
      </g>
      <g
         id="g9717"
         transform="matrix(38.48246,0,0,38.48246,29.818182,-11156.199)">
        <ellipse
           style="opacity:1;vector-effect:none;fill:#2daaaa;fill-opacity:1;stroke:none;stroke-width:0.264583;stroke-linecap:round;stroke-linejoin:round;stroke-miterlimit:4;stroke-dasharray:none;stroke-dashoffset:0;stroke-opacity:1"
           id="ellipse9709"
           cx="3.1750002"
           cy="296.20624"
           rx="2.9104168"
           ry="0.5291667" />
        <path
           style="opacity:1;vector-effect:none;fill:url(#linearGradient9719);fill-opacity:1;stroke:none;stroke-width:0.529167;stroke-linecap:round;stroke-linejoin:miter;stroke-miterlimit:4;stroke-dasharray:none;stroke-dashoffset:0;stroke-opacity:1"
           d="m 3.1749758,291.31139 c -0.2276827,1.12315 -1.4621102,2.07207 -1.6851983,3.07659 -0.1552983,0.69927 0.1794796,1.68597 1.6851983,1.68596 1.5057189,1e-5 1.8404967,-0.98669 1.6851984,-1.68596 -0.2230881,-1.00452 -1.4575156,-1.95344 -1.6851984,-3.07659 z"
           id="path9711"
           inkscape:connector-curvature="0" />
        <path
           style="opacity:0.7;vector-effect:none;fill:url(#linearGradient9721);fill-opacity:1;stroke:none;stroke-width:0.529167;stroke-linecap:round;stroke-linejoin:miter;stroke-miterlimit:4;stroke-dasharray:none;stroke-dashoffset:0;stroke-opacity:1"
           d="m 3.1760093,291.57869 c -0.1632599,0.49092 -0.4254911,0.95734 -0.7363787,1.38598 -0.3656036,0.50408 -0.7174603,0.98467 -0.8206103,1.44913 -0.071124,0.32026 -0.028753,0.70733 0.1974013,1.00656 0.2261537,0.29923 0.6372299,0.52924 1.3595877,0.52923 0.7223582,10e-6 1.1308506,-0.23 1.357004,-0.52923 0.226154,-0.29923 0.2685253,-0.6863 0.1974013,-1.00656 C 4.6272648,293.94934 4.2759248,293.46875 3.9103212,292.96467 3.5996,292.53625 3.3393502,292.0693 3.1760093,291.57869 Z m 5.292e-4,0.69323 c 0.1892054,0.3682 0.422645,0.71356 0.6624828,1.05356 0.2807986,0.42949 0.6511127,0.86704 0.6371614,1.3992 0.032467,0.41898 -0.306979,0.79951 -0.727594,0.89543 -0.4690951,0.10862 -1.0157555,0.11654 -1.4510539,-0.12729 -0.4372227,-0.24419 -0.5210315,-0.80761 -0.3472607,-1.22638 0.3142732,-0.70863 0.8721957,-1.28908 1.2200634,-1.98179 z"
           id="path9713"
           inkscape:connector-curvature="0" />
        <path
           style="opacity:0.8;vector-effect:none;fill:none;fill-opacity:1;stroke:#000000;stroke-width:0.264583;stroke-linecap:round;stroke-linejoin:round;stroke-miterlimit:4;stroke-dasharray:none;stroke-dashoffset:0;stroke-opacity:1"
           d="m 3.1749758,291.31139 c -0.2276827,1.12315 -1.4621103,2.07207 -1.6851984,3.07659 -0.1552983,0.69927 0.1794796,1.68597 1.6851984,1.68596 1.5057189,1e-5 1.8404968,-0.98669 1.6851984,-1.68596 -0.223088,-1.00452 -1.4575156,-1.95344 -1.6851984,-3.07659 z"
           id="path9715"
           inkscape:connector-curvature="0" />
      </g>
    </g>
  </g>
</svg>
