<?xml version="1.0" encoding="UTF-8" standalone="no"?>
<svg
   inkscape:export-ydpi="90.000000"
   inkscape:export-xdpi="90.000000"
   width="400"
   height="300"
   id="svg11300"
   sodipodi:version="0.32"
   inkscape:version="1.1.2 (0a00cf5339, 2022-02-04)"
   sodipodi:docname="draw-eraser.svg"
   inkscape:output_extension="org.inkscape.output.svg.inkscape"
   version="1.0"
   style="display:inline;enable-background:new"
   inkscape:export-filename="/home/sam/suru-template.png"
   xmlns:inkscape="http://www.inkscape.org/namespaces/inkscape"
   xmlns:sodipodi="http://sodipodi.sourceforge.net/DTD/sodipodi-0.dtd"
   xmlns:xlink="http://www.w3.org/1999/xlink"
   xmlns="http://www.w3.org/2000/svg"
   xmlns:svg="http://www.w3.org/2000/svg"
   xmlns:rdf="http://www.w3.org/1999/02/22-rdf-syntax-ns#"
   xmlns:cc="http://creativecommons.org/ns#"
   xmlns:dc="http://purl.org/dc/elements/1.1/">
  <title
     id="title3004">Suru Icon Theme Template</title>
  <sodipodi:namedview
     stroke="#ef2929"
     fill="#f57900"
     id="base"
     pagecolor="#ffffff"
     bordercolor="#000000"
     borderopacity="0.25490196"
     inkscape:pageopacity="0"
     inkscape:pageshadow="2"
     inkscape:zoom="1.4142136"
     inkscape:cx="138.59293"
     inkscape:cy="133.64318"
     inkscape:current-layer="layer6"
     showgrid="false"
     inkscape:grid-bbox="true"
     inkscape:document-units="px"
     inkscape:showpageshadow="false"
     inkscape:window-width="1920"
     inkscape:window-height="1020"
     inkscape:window-x="0"
     inkscape:window-y="32"
     width="400px"
     height="300px"
     inkscape:snap-nodes="true"
     inkscape:snap-bbox="true"
     gridtolerance="10000"
     inkscape:object-nodes="true"
     inkscape:snap-grids="true"
     showguides="true"
     inkscape:guide-bbox="true"
     inkscape:window-maximized="1"
     inkscape:bbox-paths="true"
     inkscape:snap-bbox-midpoints="true"
     inkscape:snap-global="true"
     inkscape:object-paths="true"
     inkscape:snap-intersection-paths="true"
     inkscape:snap-smooth-nodes="true"
     inkscape:pagecheckerboard="false"
     showborder="false"
     inkscape:document-rotation="0">
    <inkscape:grid
       spacingy="1"
       spacingx="1"
       id="grid5883"
       type="xygrid"
       enabled="true"
       visible="true"
       empspacing="4"
       snapvisiblegridlinesonly="true"
       originx="0"
       originy="0" />
    <inkscape:grid
       type="xygrid"
       id="grid11592"
       empspacing="2"
       visible="true"
       enabled="false"
       spacingx="0.5"
       spacingy="0.5"
       color="#ff0000"
       opacity="0.1254902"
       empcolor="#ff0000"
       empopacity="0.25098039"
       snapvisiblegridlinesonly="true"
       originx="0"
       originy="0" />
  </sodipodi:namedview>
  <defs
     id="defs3">
    <filter
       inkscape:collect="always"
       style="color-interpolation-filters:sRGB"
       id="filter3632"
       x="-0.16499999"
       width="1.33"
       y="-0.65999997"
       height="2.3199999">
      <feGaussianBlur
         inkscape:collect="always"
         stdDeviation="0.14552084"
         id="feGaussianBlur3634" />
    </filter>
    <linearGradient
       inkscape:collect="always"
       xlink:href="#linearGradient902"
       id="linearGradient904"
       x1="2.6458333"
       y1="291.17914"
       x2="3.96875"
       y2="296.20624"
       gradientUnits="userSpaceOnUse"
       gradientTransform="matrix(0.85698953,0,0,0.91546083,153.54011,-12.173767)" />
    <linearGradient
       inkscape:collect="always"
       id="linearGradient902">
      <stop
         style="stop-color:#fa9381;stop-opacity:1"
         offset="0"
         id="stop898" />
      <stop
         style="stop-color:#fcb5a8;stop-opacity:1"
         offset="1"
         id="stop900" />
    </linearGradient>
    <linearGradient
       inkscape:collect="always"
       xlink:href="#linearGradient927"
       id="linearGradient3524"
       x1="13"
       y1="4"
       x2="13"
       y2="20"
       gradientUnits="userSpaceOnUse"
       gradientTransform="matrix(0.21905701,0.11926519,-0.12647263,0.20657338,2.0867536,289.72311)" />
    <linearGradient
       inkscape:collect="always"
       id="linearGradient927">
      <stop
         style="stop-color:#ffffff;stop-opacity:1;"
         offset="0"
         id="stop923" />
      <stop
         id="stop933"
         offset="0.125"
         style="stop-color:#ffffff;stop-opacity:0.09803922" />
      <stop
         id="stop931"
         offset="0.92500001"
         style="stop-color:#ffffff;stop-opacity:0.09803922" />
      <stop
         style="stop-color:#ffffff;stop-opacity:0.49803922"
         offset="1"
         id="stop925" />
    </linearGradient>
    <linearGradient
       inkscape:collect="always"
       xlink:href="#linearGradient902"
       id="linearGradient1605"
       gradientUnits="userSpaceOnUse"
       gradientTransform="matrix(0.85698953,0,0,0.91546083,153.54011,-12.173767)"
       x1="2.6458333"
       y1="291.17914"
       x2="3.96875"
       y2="296.20624" />
    <linearGradient
       inkscape:collect="always"
       xlink:href="#linearGradient927"
       id="linearGradient1607"
       gradientUnits="userSpaceOnUse"
       gradientTransform="matrix(0.21905701,0.11926519,-0.12647263,0.20657338,2.0867536,289.72311)"
       x1="13"
       y1="4"
       x2="13"
       y2="20" />
    <linearGradient
       inkscape:collect="always"
       xlink:href="#linearGradient902"
       id="linearGradient1621"
       gradientUnits="userSpaceOnUse"
       gradientTransform="matrix(0.85698953,0,0,0.91546083,153.54011,-12.173767)"
       x1="2.6458333"
       y1="291.17914"
       x2="3.96875"
       y2="296.20624" />
    <linearGradient
       inkscape:collect="always"
       xlink:href="#linearGradient927"
       id="linearGradient1623"
       gradientUnits="userSpaceOnUse"
       gradientTransform="matrix(0.21905701,0.11926519,-0.12647263,0.20657338,2.0867536,289.72311)"
       x1="13"
       y1="4"
       x2="13"
       y2="20" />
    <linearGradient
       inkscape:collect="always"
       xlink:href="#linearGradient902"
       id="linearGradient1637"
       gradientUnits="userSpaceOnUse"
       gradientTransform="matrix(0.85698953,0,0,0.91546083,153.54011,-12.173767)"
       x1="2.6458333"
       y1="291.17914"
       x2="3.96875"
       y2="296.20624" />
    <linearGradient
       inkscape:collect="always"
       xlink:href="#linearGradient927"
       id="linearGradient1639"
       gradientUnits="userSpaceOnUse"
       gradientTransform="matrix(0.21905701,0.11926519,-0.12647263,0.20657338,2.0867536,289.72311)"
       x1="13"
       y1="4"
       x2="13"
       y2="20" />
    <linearGradient
       inkscape:collect="always"
       xlink:href="#linearGradient902"
       id="linearGradient1653"
       gradientUnits="userSpaceOnUse"
       gradientTransform="matrix(0.85698953,0,0,0.91546083,153.54011,-12.173767)"
       x1="2.6458333"
       y1="291.17914"
       x2="3.96875"
       y2="296.20624" />
    <linearGradient
       inkscape:collect="always"
       xlink:href="#linearGradient927"
       id="linearGradient1655"
       gradientUnits="userSpaceOnUse"
       gradientTransform="matrix(0.21905701,0.11926519,-0.12647263,0.20657338,2.0867536,289.72311)"
       x1="13"
       y1="4"
       x2="13"
       y2="20" />
    <linearGradient
       inkscape:collect="always"
       xlink:href="#linearGradient902"
       id="linearGradient1669"
       gradientUnits="userSpaceOnUse"
       gradientTransform="matrix(0.85698953,0,0,0.91546083,153.54011,-12.173767)"
       x1="2.6458333"
       y1="291.17914"
       x2="3.96875"
       y2="296.20624" />
    <linearGradient
       inkscape:collect="always"
       xlink:href="#linearGradient927"
       id="linearGradient1671"
       gradientUnits="userSpaceOnUse"
       gradientTransform="matrix(0.21905701,0.11926519,-0.12647263,0.20657338,2.0867536,289.72311)"
       x1="13"
       y1="4"
       x2="13"
       y2="20" />
  </defs>
  <metadata
     id="metadata4">
    <rdf:RDF>
      <cc:Work
         rdf:about="">
        <dc:format>image/svg+xml</dc:format>
        <dc:type
           rdf:resource="http://purl.org/dc/dcmitype/StillImage" />
        <dc:creator>
          <cc:Agent>
            <dc:title>Sam Hewitt</dc:title>
          </cc:Agent>
        </dc:creator>
        <dc:source />
        <cc:license
           rdf:resource="http://creativecommons.org/licenses/by-sa/4.0/" />
        <dc:title>Suru Icon Theme Template</dc:title>
        <dc:subject>
          <rdf:Bag />
        </dc:subject>
        <dc:date />
        <dc:rights>
          <cc:Agent>
            <dc:title />
          </cc:Agent>
        </dc:rights>
        <dc:publisher>
          <cc:Agent>
            <dc:title />
          </cc:Agent>
        </dc:publisher>
        <dc:identifier />
        <dc:relation />
        <dc:language />
        <dc:coverage />
        <dc:description />
        <dc:contributor>
          <cc:Agent>
            <dc:title />
          </cc:Agent>
        </dc:contributor>
      </cc:Work>
      <cc:Work
         rdf:about="">
        <dc:format>image/svg+xml</dc:format>
        <dc:type
           rdf:resource="http://purl.org/dc/dcmitype/StillImage" />
      </cc:Work>
      <cc:License
         rdf:about="http://creativecommons.org/licenses/by-sa/4.0/">
        <cc:permits
           rdf:resource="http://creativecommons.org/ns#Reproduction" />
        <cc:permits
           rdf:resource="http://creativecommons.org/ns#Distribution" />
        <cc:requires
           rdf:resource="http://creativecommons.org/ns#Notice" />
        <cc:requires
           rdf:resource="http://creativecommons.org/ns#Attribution" />
        <cc:permits
           rdf:resource="http://creativecommons.org/ns#DerivativeWorks" />
        <cc:requires
           rdf:resource="http://creativecommons.org/ns#ShareAlike" />
      </cc:License>
    </rdf:RDF>
  </metadata>
  <g
     style="display:inline"
     inkscape:groupmode="layer"
     inkscape:label="Icon"
     id="layer1">
    <g
       style="display:none"
       inkscape:label="Baseplate"
       id="layer7"
       inkscape:groupmode="layer">
      <text
         y="-8.2548828"
         xml:space="preserve"
         x="19.006836"
         style="font-style:normal;font-variant:normal;font-weight:normal;font-stretch:normal;line-height:0%;font-family:'DejaVu Sans';-inkscape-font-specification:'DejaVu Sans';display:inline;fill:#000000;fill-opacity:1;stroke:none;enable-background:new"
         inkscape:label="context"
         id="context"><tspan
           style="font-style:normal;font-variant:normal;font-weight:normal;font-stretch:normal;font-size:18px;line-height:1.25;font-family:'DejaVu Sans';-inkscape-font-specification:'DejaVu Sans'"
           y="-8.2548828"
           x="19.006836"
           sodipodi:role="line"
           id="tspan3933">legacy</tspan></text>
      <text
         y="-8.2548828"
         xml:space="preserve"
         x="146.48828"
         style="font-style:normal;font-variant:normal;font-weight:bold;font-stretch:normal;line-height:0%;font-family:'DejaVu Sans';-inkscape-font-specification:'DejaVu Sans Bold';text-align:start;writing-mode:lr-tb;text-anchor:start;display:inline;fill:#000000;fill-opacity:1;stroke:none;enable-background:new"
         inkscape:label="icon-name"
         id="icon-name"><tspan
           style="font-style:normal;font-variant:normal;font-weight:bold;font-stretch:normal;font-size:18px;line-height:1.25;font-family:'DejaVu Sans';-inkscape-font-specification:'DejaVu Sans Bold'"
           y="-8.2548828"
           x="146.48828"
           sodipodi:role="line"
           id="tspan924">draw-eraser</tspan></text>
      <rect
         style="display:inline;overflow:visible;visibility:visible;fill:#cdcdcd;fill-opacity:1;fill-rule:nonzero;stroke:none;stroke-width:2;marker:none;enable-background:accumulate"
         id="rect16x16"
         width="16"
         height="16"
         x="320"
         y="236"
         inkscape:label="16x16" />
      <rect
         style="display:inline;overflow:visible;visibility:visible;fill:#cdcdcd;fill-opacity:1;fill-rule:nonzero;stroke:none;stroke-width:2;marker:none;enable-background:accumulate"
         id="rect24x24"
         width="24"
         height="24"
         x="320"
         y="188"
         inkscape:label="24x24" />
      <rect
         style="display:inline;overflow:visible;visibility:visible;fill:#cdcdcd;fill-opacity:1;fill-rule:nonzero;stroke:none;stroke-width:2;marker:none;enable-background:accumulate"
         id="rect32x32"
         width="32"
         height="32"
         x="320"
         y="132"
         inkscape:label="32x32" />
      <rect
         inkscape:label="48x48"
         y="60"
         x="320"
         height="48"
         width="48"
         id="rect48x48"
         style="display:inline;overflow:visible;visibility:visible;fill:#cdcdcd;fill-opacity:1;fill-rule:nonzero;stroke:none;stroke-width:2;marker:none;enable-background:accumulate" />
      <rect
         style="display:inline;overflow:visible;visibility:visible;fill:#cdcdcd;fill-opacity:1;fill-rule:nonzero;stroke:none;stroke-width:2;marker:none;enable-background:accumulate"
         id="rect3951"
         width="256"
         height="256"
         x="24"
         y="28"
         inkscape:label="48x48" />
      <rect
         style="display:inline;overflow:visible;visibility:visible;fill:#cdcdcd;fill-opacity:1;fill-rule:nonzero;stroke:none;stroke-width:1.83333;marker:none;enable-background:accumulate"
         id="rect24x24-1"
         width="22"
         height="22"
         x="372"
         y="190"
         inkscape:label="24x24" />
    </g>
    <g
       inkscape:groupmode="layer"
       id="layer2"
       inkscape:label="Background"
       style="display:inline" />
    <g
       inkscape:groupmode="layer"
       id="layer6"
       inkscape:label="Pictogram"
       style="display:inline">
      <g
         id="g845"
         transform="matrix(3.9004293,0,0,3.9004293,319.52248,-946.7257)"
         style="display:inline;enable-background:new">
        <ellipse
           style="opacity:0.3;vector-effect:none;fill:#000000;fill-opacity:1;stroke:none;stroke-width:0.212992;stroke-linecap:round;stroke-linejoin:round;stroke-miterlimit:4;stroke-dasharray:none;stroke-dashoffset:0;stroke-opacity:1;filter:url(#filter3632)"
           id="path3526"
           cx="2.4341667"
           cy="296.20624"
           rx="1.0583334"
           ry="0.26458335"
           transform="matrix(1.5431111,0,0,1,-0.73993978,0)" />
        <rect
           style="opacity:1;vector-effect:none;fill:url(#linearGradient904);fill-opacity:1;stroke:none;stroke-width:0.245701;stroke-linecap:round;stroke-linejoin:round;stroke-miterlimit:4;stroke-dasharray:none;stroke-dashoffset:0;stroke-opacity:1"
           id="rect896"
           width="2.4941964"
           height="4.6020765"
           x="155.12733"
           y="254.38933"
           rx="0.49883929"
           ry="0.48442912"
           transform="matrix(0.87826685,0.47817083,-0.52215122,0.85285292,0,0)" />
        <path
           style="opacity:0.2;vector-effect:none;fill:#ffffff;fill-opacity:1;stroke:none;stroke-width:0.264583;stroke-linecap:round;stroke-linejoin:round;stroke-miterlimit:4;stroke-dasharray:none;stroke-dashoffset:0;stroke-opacity:1"
           d="m 4.5550768,291.89328 -0.1897089,0.30987 -1.8970894,3.09859 -0.1897089,0.30986 0.3285855,0.17891 0.1095285,0.0596 0.1095286,0.0596 c 0.1820363,0.0991 0.4131956,0.0407 0.5182943,-0.13097 l 1.8970896,-3.0986 c 0.1050986,-0.17166 0.04316,-0.38964 -0.1388767,-0.48876 l -0.1095285,-0.0596 -0.1095285,-0.0596 z"
           id="rect930"
           inkscape:connector-curvature="0" />
        <rect
           style="opacity:0.9;vector-effect:none;fill:none;fill-opacity:1;stroke:#000000;stroke-width:0.264754;stroke-linecap:round;stroke-linejoin:round;stroke-miterlimit:4;stroke-dasharray:none;stroke-dashoffset:0;stroke-opacity:1"
           id="rect896-6"
           width="2.4941964"
           height="4.6020765"
           x="155.12733"
           y="254.38933"
           rx="0.49883929"
           ry="0.48442912"
           transform="matrix(0.87826685,0.47817083,-0.52215122,0.85285292,0,0)" />
        <path
           style="opacity:1;vector-effect:none;fill:url(#linearGradient3524);fill-opacity:1;stroke:none;stroke-width:0.245542;stroke-linecap:round;stroke-linejoin:round;stroke-miterlimit:4;stroke-dasharray:none;stroke-dashoffset:0;stroke-opacity:1"
           d="m 3.7886243,291.47545 c -0.183931,-0.10013 -0.4116774,-0.0423 -0.5178666,0.1312 l -1.8970895,3.0986 c -0.1061939,0.17345 -0.046223,0.38959 0.1377079,0.48973 l 1.3147699,0.71583 c 0.183931,0.10014 0.4124135,0.0411 0.5186076,-0.13242 L 5.241843,292.6798 c 0.1061891,-0.17345 0.045482,-0.38839 -0.1384488,-0.48853 z m 0.052199,0.31353 c 0.077411,0.0423 0.1539499,0.087 0.2361705,0.12859 0.2535501,0.13778 0.5072346,0.27538 0.7583059,0.41717 0.06467,0.0562 0.184145,0.0628 0.1966932,0.15764 -0.040501,0.1061 -0.1138929,0.20419 -0.1665651,0.30094 -0.5627797,0.92284 -1.1222801,1.85239 -1.6974643,2.7651 -0.050839,0.0536 -0.084403,0.1975 -0.1843193,0.14172 -0.4311724,-0.21595 -0.8720504,-0.4662 -1.2965048,-0.70372 -0.065864,-0.0266 -0.1270715,-0.0752 -0.10089,-0.15015 L 3.395401,291.8913 c 0.060915,-0.0701 0.085811,-0.22251 0.2050828,-0.21757 0.084652,0.0327 0.1629288,0.0729 0.2403395,0.11525 z"
           id="rect896-7"
           inkscape:connector-curvature="0" />
      </g>
      <g
         id="g1603"
         transform="matrix(3.545845,0,0,3.545845,371.6568,-841.47797)"
         style="display:inline;enable-background:new">
        <ellipse
           style="opacity:0.3;vector-effect:none;fill:#000000;fill-opacity:1;stroke:none;stroke-width:0.212992;stroke-linecap:round;stroke-linejoin:round;stroke-miterlimit:4;stroke-dasharray:none;stroke-dashoffset:0;stroke-opacity:1;filter:url(#filter3632)"
           id="ellipse1593"
           cx="2.4341667"
           cy="296.20624"
           rx="1.0583334"
           ry="0.26458335"
           transform="matrix(1.5431111,0,0,1,-0.73993978,0)" />
        <rect
           style="opacity:1;vector-effect:none;fill:url(#linearGradient1605);fill-opacity:1;stroke:none;stroke-width:0.245701;stroke-linecap:round;stroke-linejoin:round;stroke-miterlimit:4;stroke-dasharray:none;stroke-dashoffset:0;stroke-opacity:1"
           id="rect1595"
           width="2.4941964"
           height="4.6020765"
           x="155.12733"
           y="254.38933"
           rx="0.49883929"
           ry="0.48442912"
           transform="matrix(0.87826685,0.47817083,-0.52215122,0.85285292,0,0)" />
        <path
           style="opacity:0.2;vector-effect:none;fill:#ffffff;fill-opacity:1;stroke:none;stroke-width:0.264583;stroke-linecap:round;stroke-linejoin:round;stroke-miterlimit:4;stroke-dasharray:none;stroke-dashoffset:0;stroke-opacity:1"
           d="m 4.5550768,291.89328 -0.1897089,0.30987 -1.8970894,3.09859 -0.1897089,0.30986 0.3285855,0.17891 0.1095285,0.0596 0.1095286,0.0596 c 0.1820363,0.0991 0.4131956,0.0407 0.5182943,-0.13097 l 1.8970896,-3.0986 c 0.1050986,-0.17166 0.04316,-0.38964 -0.1388767,-0.48876 l -0.1095285,-0.0596 -0.1095285,-0.0596 z"
           id="path1597"
           inkscape:connector-curvature="0" />
        <rect
           style="opacity:0.9;vector-effect:none;fill:none;fill-opacity:1;stroke:#000000;stroke-width:0.264754;stroke-linecap:round;stroke-linejoin:round;stroke-miterlimit:4;stroke-dasharray:none;stroke-dashoffset:0;stroke-opacity:1"
           id="rect1599"
           width="2.4941964"
           height="4.6020765"
           x="155.12733"
           y="254.38933"
           rx="0.49883929"
           ry="0.48442912"
           transform="matrix(0.87826685,0.47817083,-0.52215122,0.85285292,0,0)" />
        <path
           style="opacity:1;vector-effect:none;fill:url(#linearGradient1607);fill-opacity:1;stroke:none;stroke-width:0.245542;stroke-linecap:round;stroke-linejoin:round;stroke-miterlimit:4;stroke-dasharray:none;stroke-dashoffset:0;stroke-opacity:1"
           d="m 3.7886243,291.47545 c -0.183931,-0.10013 -0.4116774,-0.0423 -0.5178666,0.1312 l -1.8970895,3.0986 c -0.1061939,0.17345 -0.046223,0.38959 0.1377079,0.48973 l 1.3147699,0.71583 c 0.183931,0.10014 0.4124135,0.0411 0.5186076,-0.13242 L 5.241843,292.6798 c 0.1061891,-0.17345 0.045482,-0.38839 -0.1384488,-0.48853 z m 0.052199,0.31353 c 0.077411,0.0423 0.1539499,0.087 0.2361705,0.12859 0.2535501,0.13778 0.5072346,0.27538 0.7583059,0.41717 0.06467,0.0562 0.184145,0.0628 0.1966932,0.15764 -0.040501,0.1061 -0.1138929,0.20419 -0.1665651,0.30094 -0.5627797,0.92284 -1.1222801,1.85239 -1.6974643,2.7651 -0.050839,0.0536 -0.084403,0.1975 -0.1843193,0.14172 -0.4311724,-0.21595 -0.8720504,-0.4662 -1.2965048,-0.70372 -0.065864,-0.0266 -0.1270715,-0.0752 -0.10089,-0.15015 L 3.395401,291.8913 c 0.060915,-0.0701 0.085811,-0.22251 0.2050828,-0.21757 0.084652,0.0327 0.1629288,0.0729 0.2403395,0.11525 z"
           id="path1601"
           inkscape:connector-curvature="0" />
      </g>
      <g
         id="g1619"
         transform="matrix(2.6593838,0,0,2.6593838,319.4926,-537.85849)"
         style="display:inline;enable-background:new">
        <ellipse
           style="opacity:0.3;vector-effect:none;fill:#000000;fill-opacity:1;stroke:none;stroke-width:0.212992;stroke-linecap:round;stroke-linejoin:round;stroke-miterlimit:4;stroke-dasharray:none;stroke-dashoffset:0;stroke-opacity:1;filter:url(#filter3632)"
           id="ellipse1609"
           cx="2.4341667"
           cy="296.20624"
           rx="1.0583334"
           ry="0.26458335"
           transform="matrix(1.5431111,0,0,1,-0.73993978,0)" />
        <rect
           style="opacity:1;vector-effect:none;fill:url(#linearGradient1621);fill-opacity:1;stroke:none;stroke-width:0.245701;stroke-linecap:round;stroke-linejoin:round;stroke-miterlimit:4;stroke-dasharray:none;stroke-dashoffset:0;stroke-opacity:1"
           id="rect1611"
           width="2.4941964"
           height="4.6020765"
           x="155.12733"
           y="254.38933"
           rx="0.49883929"
           ry="0.48442912"
           transform="matrix(0.87826685,0.47817083,-0.52215122,0.85285292,0,0)" />
        <path
           style="opacity:0.2;vector-effect:none;fill:#ffffff;fill-opacity:1;stroke:none;stroke-width:0.264583;stroke-linecap:round;stroke-linejoin:round;stroke-miterlimit:4;stroke-dasharray:none;stroke-dashoffset:0;stroke-opacity:1"
           d="m 4.5550768,291.89328 -0.1897089,0.30987 -1.8970894,3.09859 -0.1897089,0.30986 0.3285855,0.17891 0.1095285,0.0596 0.1095286,0.0596 c 0.1820363,0.0991 0.4131956,0.0407 0.5182943,-0.13097 l 1.8970896,-3.0986 c 0.1050986,-0.17166 0.04316,-0.38964 -0.1388767,-0.48876 l -0.1095285,-0.0596 -0.1095285,-0.0596 z"
           id="path1613"
           inkscape:connector-curvature="0" />
        <rect
           style="opacity:0.9;vector-effect:none;fill:none;fill-opacity:1;stroke:#000000;stroke-width:0.264754;stroke-linecap:round;stroke-linejoin:round;stroke-miterlimit:4;stroke-dasharray:none;stroke-dashoffset:0;stroke-opacity:1"
           id="rect1615"
           width="2.4941964"
           height="4.6020765"
           x="155.12733"
           y="254.38933"
           rx="0.49883929"
           ry="0.48442912"
           transform="matrix(0.87826685,0.47817083,-0.52215122,0.85285292,0,0)" />
        <path
           style="opacity:1;vector-effect:none;fill:url(#linearGradient1623);fill-opacity:1;stroke:none;stroke-width:0.245542;stroke-linecap:round;stroke-linejoin:round;stroke-miterlimit:4;stroke-dasharray:none;stroke-dashoffset:0;stroke-opacity:1"
           d="m 3.7886243,291.47545 c -0.183931,-0.10013 -0.4116774,-0.0423 -0.5178666,0.1312 l -1.8970895,3.0986 c -0.1061939,0.17345 -0.046223,0.38959 0.1377079,0.48973 l 1.3147699,0.71583 c 0.183931,0.10014 0.4124135,0.0411 0.5186076,-0.13242 L 5.241843,292.6798 c 0.1061891,-0.17345 0.045482,-0.38839 -0.1384488,-0.48853 z m 0.052199,0.31353 c 0.077411,0.0423 0.1539499,0.087 0.2361705,0.12859 0.2535501,0.13778 0.5072346,0.27538 0.7583059,0.41717 0.06467,0.0562 0.184145,0.0628 0.1966932,0.15764 -0.040501,0.1061 -0.1138929,0.20419 -0.1665651,0.30094 -0.5627797,0.92284 -1.1222801,1.85239 -1.6974643,2.7651 -0.050839,0.0536 -0.084403,0.1975 -0.1843193,0.14172 -0.4311724,-0.21595 -0.8720504,-0.4662 -1.2965048,-0.70372 -0.065864,-0.0266 -0.1270715,-0.0752 -0.10089,-0.15015 L 3.395401,291.8913 c 0.060915,-0.0701 0.085811,-0.22251 0.2050828,-0.21757 0.084652,0.0327 0.1629288,0.0729 0.2403395,0.11525 z"
           id="path1617"
           inkscape:connector-curvature="0" />
      </g>
      <g
         id="g1635"
         transform="matrix(5.3187675,0,0,5.3187675,318.9852,-1415.7169)"
         style="display:inline;enable-background:new">
        <ellipse
           style="opacity:0.3;vector-effect:none;fill:#000000;fill-opacity:1;stroke:none;stroke-width:0.212992;stroke-linecap:round;stroke-linejoin:round;stroke-miterlimit:4;stroke-dasharray:none;stroke-dashoffset:0;stroke-opacity:1;filter:url(#filter3632)"
           id="ellipse1625"
           cx="2.4341667"
           cy="296.20624"
           rx="1.0583334"
           ry="0.26458335"
           transform="matrix(1.5431111,0,0,1,-0.73993978,0)" />
        <rect
           style="opacity:1;vector-effect:none;fill:url(#linearGradient1637);fill-opacity:1;stroke:none;stroke-width:0.245701;stroke-linecap:round;stroke-linejoin:round;stroke-miterlimit:4;stroke-dasharray:none;stroke-dashoffset:0;stroke-opacity:1"
           id="rect1627"
           width="2.4941964"
           height="4.6020765"
           x="155.12733"
           y="254.38933"
           rx="0.49883929"
           ry="0.48442912"
           transform="matrix(0.87826685,0.47817083,-0.52215122,0.85285292,0,0)" />
        <path
           style="opacity:0.2;vector-effect:none;fill:#ffffff;fill-opacity:1;stroke:none;stroke-width:0.264583;stroke-linecap:round;stroke-linejoin:round;stroke-miterlimit:4;stroke-dasharray:none;stroke-dashoffset:0;stroke-opacity:1"
           d="m 4.5550768,291.89328 -0.1897089,0.30987 -1.8970894,3.09859 -0.1897089,0.30986 0.3285855,0.17891 0.1095285,0.0596 0.1095286,0.0596 c 0.1820363,0.0991 0.4131956,0.0407 0.5182943,-0.13097 l 1.8970896,-3.0986 c 0.1050986,-0.17166 0.04316,-0.38964 -0.1388767,-0.48876 l -0.1095285,-0.0596 -0.1095285,-0.0596 z"
           id="path1629"
           inkscape:connector-curvature="0" />
        <rect
           style="opacity:0.9;vector-effect:none;fill:none;fill-opacity:1;stroke:#000000;stroke-width:0.264754;stroke-linecap:round;stroke-linejoin:round;stroke-miterlimit:4;stroke-dasharray:none;stroke-dashoffset:0;stroke-opacity:1"
           id="rect1631"
           width="2.4941964"
           height="4.6020765"
           x="155.12733"
           y="254.38933"
           rx="0.49883929"
           ry="0.48442912"
           transform="matrix(0.87826685,0.47817083,-0.52215122,0.85285292,0,0)" />
        <path
           style="opacity:1;vector-effect:none;fill:url(#linearGradient1639);fill-opacity:1;stroke:none;stroke-width:0.245542;stroke-linecap:round;stroke-linejoin:round;stroke-miterlimit:4;stroke-dasharray:none;stroke-dashoffset:0;stroke-opacity:1"
           d="m 3.7886243,291.47545 c -0.183931,-0.10013 -0.4116774,-0.0423 -0.5178666,0.1312 l -1.8970895,3.0986 c -0.1061939,0.17345 -0.046223,0.38959 0.1377079,0.48973 l 1.3147699,0.71583 c 0.183931,0.10014 0.4124135,0.0411 0.5186076,-0.13242 L 5.241843,292.6798 c 0.1061891,-0.17345 0.045482,-0.38839 -0.1384488,-0.48853 z m 0.052199,0.31353 c 0.077411,0.0423 0.1539499,0.087 0.2361705,0.12859 0.2535501,0.13778 0.5072346,0.27538 0.7583059,0.41717 0.06467,0.0562 0.184145,0.0628 0.1966932,0.15764 -0.040501,0.1061 -0.1138929,0.20419 -0.1665651,0.30094 -0.5627797,0.92284 -1.1222801,1.85239 -1.6974643,2.7651 -0.050839,0.0536 -0.084403,0.1975 -0.1843193,0.14172 -0.4311724,-0.21595 -0.8720504,-0.4662 -1.2965048,-0.70372 -0.065864,-0.0266 -0.1270715,-0.0752 -0.10089,-0.15015 L 3.395401,291.8913 c 0.060915,-0.0701 0.085811,-0.22251 0.2050828,-0.21757 0.084652,0.0327 0.1629288,0.0729 0.2403395,0.11525 z"
           id="path1633"
           inkscape:connector-curvature="0" />
      </g>
      <g
         id="g1651"
         transform="matrix(8.1554435,0,0,8.1554435,317.91064,-2313.6993)"
         style="display:inline;enable-background:new">
        <ellipse
           style="opacity:0.3;vector-effect:none;fill:#000000;fill-opacity:1;stroke:none;stroke-width:0.212992;stroke-linecap:round;stroke-linejoin:round;stroke-miterlimit:4;stroke-dasharray:none;stroke-dashoffset:0;stroke-opacity:1;filter:url(#filter3632)"
           id="ellipse1641"
           cx="2.4341667"
           cy="296.20624"
           rx="1.0583334"
           ry="0.26458335"
           transform="matrix(1.5431111,0,0,1,-0.73993978,0)" />
        <rect
           style="opacity:1;vector-effect:none;fill:url(#linearGradient1653);fill-opacity:1;stroke:none;stroke-width:0.245701;stroke-linecap:round;stroke-linejoin:round;stroke-miterlimit:4;stroke-dasharray:none;stroke-dashoffset:0;stroke-opacity:1"
           id="rect1643"
           width="2.4941964"
           height="4.6020765"
           x="155.12733"
           y="254.38933"
           rx="0.49883929"
           ry="0.48442912"
           transform="matrix(0.87826685,0.47817083,-0.52215122,0.85285292,0,0)" />
        <path
           style="opacity:0.2;vector-effect:none;fill:#ffffff;fill-opacity:1;stroke:none;stroke-width:0.264583;stroke-linecap:round;stroke-linejoin:round;stroke-miterlimit:4;stroke-dasharray:none;stroke-dashoffset:0;stroke-opacity:1"
           d="m 4.5550768,291.89328 -0.1897089,0.30987 -1.8970894,3.09859 -0.1897089,0.30986 0.3285855,0.17891 0.1095285,0.0596 0.1095286,0.0596 c 0.1820363,0.0991 0.4131956,0.0407 0.5182943,-0.13097 l 1.8970896,-3.0986 c 0.1050986,-0.17166 0.04316,-0.38964 -0.1388767,-0.48876 l -0.1095285,-0.0596 -0.1095285,-0.0596 z"
           id="path1645"
           inkscape:connector-curvature="0" />
        <rect
           style="opacity:0.9;vector-effect:none;fill:none;fill-opacity:1;stroke:#000000;stroke-width:0.264754;stroke-linecap:round;stroke-linejoin:round;stroke-miterlimit:4;stroke-dasharray:none;stroke-dashoffset:0;stroke-opacity:1"
           id="rect1647"
           width="2.4941964"
           height="4.6020765"
           x="155.12733"
           y="254.38933"
           rx="0.49883929"
           ry="0.48442912"
           transform="matrix(0.87826685,0.47817083,-0.52215122,0.85285292,0,0)" />
        <path
           style="opacity:1;vector-effect:none;fill:url(#linearGradient1655);fill-opacity:1;stroke:none;stroke-width:0.245542;stroke-linecap:round;stroke-linejoin:round;stroke-miterlimit:4;stroke-dasharray:none;stroke-dashoffset:0;stroke-opacity:1"
           d="m 3.7886243,291.47545 c -0.183931,-0.10013 -0.4116774,-0.0423 -0.5178666,0.1312 l -1.8970895,3.0986 c -0.1061939,0.17345 -0.046223,0.38959 0.1377079,0.48973 l 1.3147699,0.71583 c 0.183931,0.10014 0.4124135,0.0411 0.5186076,-0.13242 L 5.241843,292.6798 c 0.1061891,-0.17345 0.045482,-0.38839 -0.1384488,-0.48853 z m 0.052199,0.31353 c 0.077411,0.0423 0.1539499,0.087 0.2361705,0.12859 0.2535501,0.13778 0.5072346,0.27538 0.7583059,0.41717 0.06467,0.0562 0.184145,0.0628 0.1966932,0.15764 -0.040501,0.1061 -0.1138929,0.20419 -0.1665651,0.30094 -0.5627797,0.92284 -1.1222801,1.85239 -1.6974643,2.7651 -0.050839,0.0536 -0.084403,0.1975 -0.1843193,0.14172 -0.4311724,-0.21595 -0.8720504,-0.4662 -1.2965048,-0.70372 -0.065864,-0.0266 -0.1270715,-0.0752 -0.10089,-0.15015 L 3.395401,291.8913 c 0.060915,-0.0701 0.085811,-0.22251 0.2050828,-0.21757 0.084652,0.0327 0.1629288,0.0729 0.2403395,0.11525 z"
           id="path1649"
           inkscape:connector-curvature="0" />
      </g>
      <g
         id="g1667"
         transform="matrix(39.713464,0,0,39.713464,24.956172,-11519.753)"
         style="display:inline;enable-background:new">
        <ellipse
           style="opacity:0.3;vector-effect:none;fill:#000000;fill-opacity:1;stroke:none;stroke-width:0.212992;stroke-linecap:round;stroke-linejoin:round;stroke-miterlimit:4;stroke-dasharray:none;stroke-dashoffset:0;stroke-opacity:1;filter:url(#filter3632)"
           id="ellipse1657"
           cx="2.4341667"
           cy="296.20624"
           rx="1.0583334"
           ry="0.26458335"
           transform="matrix(1.5431111,0,0,1,-0.73993978,0)" />
        <rect
           style="opacity:1;vector-effect:none;fill:url(#linearGradient1669);fill-opacity:1;stroke:none;stroke-width:0.245701;stroke-linecap:round;stroke-linejoin:round;stroke-miterlimit:4;stroke-dasharray:none;stroke-dashoffset:0;stroke-opacity:1"
           id="rect1659"
           width="2.4941964"
           height="4.6020765"
           x="155.12733"
           y="254.38933"
           rx="0.49883929"
           ry="0.48442912"
           transform="matrix(0.87826685,0.47817083,-0.52215122,0.85285292,0,0)" />
        <path
           style="opacity:0.2;vector-effect:none;fill:#ffffff;fill-opacity:1;stroke:none;stroke-width:0.264583;stroke-linecap:round;stroke-linejoin:round;stroke-miterlimit:4;stroke-dasharray:none;stroke-dashoffset:0;stroke-opacity:1"
           d="m 4.5550768,291.89328 -0.1897089,0.30987 -1.8970894,3.09859 -0.1897089,0.30986 0.3285855,0.17891 0.1095285,0.0596 0.1095286,0.0596 c 0.1820363,0.0991 0.4131956,0.0407 0.5182943,-0.13097 l 1.8970896,-3.0986 c 0.1050986,-0.17166 0.04316,-0.38964 -0.1388767,-0.48876 l -0.1095285,-0.0596 -0.1095285,-0.0596 z"
           id="path1661"
           inkscape:connector-curvature="0" />
        <rect
           style="opacity:0.9;vector-effect:none;fill:none;fill-opacity:1;stroke:#000000;stroke-width:0.264754;stroke-linecap:round;stroke-linejoin:round;stroke-miterlimit:4;stroke-dasharray:none;stroke-dashoffset:0;stroke-opacity:1"
           id="rect1663"
           width="2.4941964"
           height="4.6020765"
           x="155.12733"
           y="254.38933"
           rx="0.49883929"
           ry="0.48442912"
           transform="matrix(0.87826685,0.47817083,-0.52215122,0.85285292,0,0)" />
        <path
           style="opacity:1;vector-effect:none;fill:url(#linearGradient1671);fill-opacity:1;stroke:none;stroke-width:0.245542;stroke-linecap:round;stroke-linejoin:round;stroke-miterlimit:4;stroke-dasharray:none;stroke-dashoffset:0;stroke-opacity:1"
           d="m 3.7886243,291.47545 c -0.183931,-0.10013 -0.4116774,-0.0423 -0.5178666,0.1312 l -1.8970895,3.0986 c -0.1061939,0.17345 -0.046223,0.38959 0.1377079,0.48973 l 1.3147699,0.71583 c 0.183931,0.10014 0.4124135,0.0411 0.5186076,-0.13242 L 5.241843,292.6798 c 0.1061891,-0.17345 0.045482,-0.38839 -0.1384488,-0.48853 z m 0.052199,0.31353 c 0.077411,0.0423 0.1539499,0.087 0.2361705,0.12859 0.2535501,0.13778 0.5072346,0.27538 0.7583059,0.41717 0.06467,0.0562 0.184145,0.0628 0.1966932,0.15764 -0.040501,0.1061 -0.1138929,0.20419 -0.1665651,0.30094 -0.5627797,0.92284 -1.1222801,1.85239 -1.6974643,2.7651 -0.050839,0.0536 -0.084403,0.1975 -0.1843193,0.14172 -0.4311724,-0.21595 -0.8720504,-0.4662 -1.2965048,-0.70372 -0.065864,-0.0266 -0.1270715,-0.0752 -0.10089,-0.15015 L 3.395401,291.8913 c 0.060915,-0.0701 0.085811,-0.22251 0.2050828,-0.21757 0.084652,0.0327 0.1629288,0.0729 0.2403395,0.11525 z"
           id="path1665"
           inkscape:connector-curvature="0" />
      </g>
    </g>
  </g>
</svg>
