<?xml version="1.0" encoding="UTF-8" standalone="no"?>
<svg
   inkscape:export-ydpi="90.000000"
   inkscape:export-xdpi="90.000000"
   width="400"
   height="300"
   id="svg11300"
   sodipodi:version="0.32"
   inkscape:version="1.1.2 (0a00cf5339, 2022-02-04)"
   sodipodi:docname="object-rotate-right.svg"
   inkscape:output_extension="org.inkscape.output.svg.inkscape"
   version="1.0"
   style="display:inline;enable-background:new"
   inkscape:export-filename="/home/sam/suru-template.png"
   xmlns:inkscape="http://www.inkscape.org/namespaces/inkscape"
   xmlns:sodipodi="http://sodipodi.sourceforge.net/DTD/sodipodi-0.dtd"
   xmlns="http://www.w3.org/2000/svg"
   xmlns:svg="http://www.w3.org/2000/svg"
   xmlns:rdf="http://www.w3.org/1999/02/22-rdf-syntax-ns#"
   xmlns:cc="http://creativecommons.org/ns#"
   xmlns:dc="http://purl.org/dc/elements/1.1/">
  <title
     id="title3004">Suru Icon Theme Template</title>
  <sodipodi:namedview
     stroke="#ef2929"
     fill="#f57900"
     id="base"
     pagecolor="#ffffff"
     bordercolor="#000000"
     borderopacity="0.25490196"
     inkscape:pageopacity="0"
     inkscape:pageshadow="2"
     inkscape:zoom="2"
     inkscape:cx="193"
     inkscape:cy="120"
     inkscape:current-layer="layer6"
     showgrid="false"
     inkscape:grid-bbox="true"
     inkscape:document-units="px"
     inkscape:showpageshadow="false"
     inkscape:window-width="1920"
     inkscape:window-height="1020"
     inkscape:window-x="0"
     inkscape:window-y="32"
     width="400px"
     height="300px"
     inkscape:snap-nodes="true"
     inkscape:snap-bbox="true"
     gridtolerance="10000"
     inkscape:object-nodes="true"
     inkscape:snap-grids="true"
     showguides="true"
     inkscape:guide-bbox="true"
     inkscape:window-maximized="1"
     inkscape:bbox-paths="true"
     inkscape:snap-bbox-midpoints="true"
     inkscape:snap-global="true"
     inkscape:object-paths="true"
     inkscape:snap-intersection-paths="true"
     inkscape:snap-smooth-nodes="true"
     inkscape:pagecheckerboard="false"
     showborder="false"
     inkscape:document-rotation="0">
    <inkscape:grid
       spacingy="1"
       spacingx="1"
       id="grid5883"
       type="xygrid"
       enabled="true"
       visible="true"
       empspacing="4"
       snapvisiblegridlinesonly="true"
       originx="0"
       originy="0" />
    <inkscape:grid
       type="xygrid"
       id="grid11592"
       empspacing="2"
       visible="true"
       enabled="false"
       spacingx="0.5"
       spacingy="0.5"
       color="#ff0000"
       opacity="0.1254902"
       empcolor="#ff0000"
       empopacity="0.25098039"
       snapvisiblegridlinesonly="true"
       originx="0"
       originy="0" />
  </sodipodi:namedview>
  <defs
     id="defs3" />
  <metadata
     id="metadata4">
    <rdf:RDF>
      <cc:Work
         rdf:about="">
        <dc:format>image/svg+xml</dc:format>
        <dc:type
           rdf:resource="http://purl.org/dc/dcmitype/StillImage" />
        <dc:creator>
          <cc:Agent>
            <dc:title>Sam Hewitt</dc:title>
          </cc:Agent>
        </dc:creator>
        <dc:source />
        <cc:license
           rdf:resource="http://creativecommons.org/licenses/by-sa/4.0/" />
        <dc:title>Suru Icon Theme Template</dc:title>
        <dc:subject>
          <rdf:Bag />
        </dc:subject>
        <dc:date />
        <dc:rights>
          <cc:Agent>
            <dc:title />
          </cc:Agent>
        </dc:rights>
        <dc:publisher>
          <cc:Agent>
            <dc:title />
          </cc:Agent>
        </dc:publisher>
        <dc:identifier />
        <dc:relation />
        <dc:language />
        <dc:coverage />
        <dc:description />
        <dc:contributor>
          <cc:Agent>
            <dc:title />
          </cc:Agent>
        </dc:contributor>
      </cc:Work>
      <cc:Work
         rdf:about="">
        <dc:format>image/svg+xml</dc:format>
        <dc:type
           rdf:resource="http://purl.org/dc/dcmitype/StillImage" />
      </cc:Work>
      <cc:License
         rdf:about="http://creativecommons.org/licenses/by-sa/4.0/">
        <cc:permits
           rdf:resource="http://creativecommons.org/ns#Reproduction" />
        <cc:permits
           rdf:resource="http://creativecommons.org/ns#Distribution" />
        <cc:requires
           rdf:resource="http://creativecommons.org/ns#Notice" />
        <cc:requires
           rdf:resource="http://creativecommons.org/ns#Attribution" />
        <cc:permits
           rdf:resource="http://creativecommons.org/ns#DerivativeWorks" />
        <cc:requires
           rdf:resource="http://creativecommons.org/ns#ShareAlike" />
      </cc:License>
    </rdf:RDF>
  </metadata>
  <g
     style="display:inline"
     inkscape:groupmode="layer"
     inkscape:label="Icon"
     id="layer1">
    <g
       style="display:none"
       inkscape:label="Baseplate"
       id="layer7"
       inkscape:groupmode="layer">
      <text
         y="-8.2548828"
         xml:space="preserve"
         x="19.006836"
         style="font-style:normal;font-variant:normal;font-weight:normal;font-stretch:normal;line-height:0%;font-family:'DejaVu Sans';-inkscape-font-specification:'DejaVu Sans';display:inline;fill:#000000;fill-opacity:1;stroke:none;enable-background:new"
         inkscape:label="context"
         id="context"><tspan
           style="font-style:normal;font-variant:normal;font-weight:normal;font-stretch:normal;font-size:18px;line-height:1.25;font-family:'DejaVu Sans';-inkscape-font-specification:'DejaVu Sans'"
           y="-8.2548828"
           x="19.006836"
           sodipodi:role="line"
           id="tspan3933">legacy</tspan></text>
      <text
         y="-8.2548828"
         xml:space="preserve"
         x="146.48828"
         style="font-style:normal;font-variant:normal;font-weight:bold;font-stretch:normal;line-height:0%;font-family:'DejaVu Sans';-inkscape-font-specification:'DejaVu Sans Bold';text-align:start;writing-mode:lr-tb;text-anchor:start;display:inline;fill:#000000;fill-opacity:1;stroke:none;enable-background:new"
         inkscape:label="icon-name"
         id="icon-name"><tspan
           style="font-style:normal;font-variant:normal;font-weight:bold;font-stretch:normal;font-size:18px;line-height:1.25;font-family:'DejaVu Sans';-inkscape-font-specification:'DejaVu Sans Bold'"
           y="-8.2548828"
           x="146.48828"
           sodipodi:role="line"
           id="tspan924">object-rotate-right</tspan></text>
      <rect
         style="display:inline;overflow:visible;visibility:visible;fill:#cdcdcd;fill-opacity:1;fill-rule:nonzero;stroke:none;stroke-width:2;marker:none;enable-background:accumulate"
         id="rect16x16"
         width="16"
         height="16"
         x="320"
         y="236"
         inkscape:label="16x16" />
      <rect
         style="display:inline;overflow:visible;visibility:visible;fill:#cdcdcd;fill-opacity:1;fill-rule:nonzero;stroke:none;stroke-width:2;marker:none;enable-background:accumulate"
         id="rect24x24"
         width="24"
         height="24"
         x="320"
         y="188"
         inkscape:label="24x24" />
      <rect
         style="display:inline;overflow:visible;visibility:visible;fill:#cdcdcd;fill-opacity:1;fill-rule:nonzero;stroke:none;stroke-width:2;marker:none;enable-background:accumulate"
         id="rect32x32"
         width="32"
         height="32"
         x="320"
         y="132"
         inkscape:label="32x32" />
      <rect
         inkscape:label="48x48"
         y="60"
         x="320"
         height="48"
         width="48"
         id="rect48x48"
         style="display:inline;overflow:visible;visibility:visible;fill:#cdcdcd;fill-opacity:1;fill-rule:nonzero;stroke:none;stroke-width:2;marker:none;enable-background:accumulate" />
      <rect
         style="display:inline;overflow:visible;visibility:visible;fill:#cdcdcd;fill-opacity:1;fill-rule:nonzero;stroke:none;stroke-width:2;marker:none;enable-background:accumulate"
         id="rect3951"
         width="256"
         height="256"
         x="24"
         y="28"
         inkscape:label="48x48" />
      <rect
         style="display:inline;overflow:visible;visibility:visible;fill:#cdcdcd;fill-opacity:1;fill-rule:nonzero;stroke:none;stroke-width:1.83333;marker:none;enable-background:accumulate"
         id="rect24x24-1"
         width="22"
         height="22"
         x="372"
         y="190"
         inkscape:label="24x24" />
    </g>
    <g
       inkscape:groupmode="layer"
       id="layer2"
       inkscape:label="Background"
       style="display:inline" />
    <g
       inkscape:groupmode="layer"
       id="layer6"
       inkscape:label="Pictogram"
       style="display:inline">
      <g
         transform="matrix(0.99832773,0,0,1.0006064,288.55654,15.987272)"
         id="g10">
        <path
           fill="#808080"
           d="m 47.022097,235.37 h -10 v -5 l 10,4 z"
           id="path2"
           style="fill:#1a7fd4;fill-opacity:1" />
        <path
           fill="#808080"
           opacity="0.5"
           d="m 36.996971,220.37909 v 10 h -5 l 4,-10 z"
           id="path4"
           style="fill:#1a7fd4;fill-opacity:1" />
        <path
           fill="#808080"
           d="m 39.012228,221.36218 c 1.487955,0 2.570868,-0.0195 3.40625,0.0312 0.835382,0.0507 1.484412,0.16931 1.9375,0.625 0.453088,0.45569 0.574871,1.09872 0.625,1.9375 0.05013,0.83878 0.03125,1.94285 0.03125,3.4375 h -1 c 0,-1.50817 0.01412,-2.61584 -0.03125,-3.375 -0.04537,-0.75916 -0.171261,-1.10777 -0.34375,-1.28125 -0.172489,-0.17348 -0.526402,-0.29793 -1.28125,-0.34375 -0.754848,-0.0458 -1.842243,-0.0312 -3.34375,-0.0312 z"
           id="path6"
           style="fill:#e95420;fill-opacity:1" />
        <path
           fill="#808080"
           d="m 44.527301,229.3622 -2.508233,-3 h 5"
           id="path8"
           style="fill:#e95420;fill-opacity:1" />
      </g>
      <g
         transform="matrix(1.3311036,0,0,1.3341418,330.40872,-103.01696)"
         id="g3952">
        <path
           fill="#808080"
           d="m 47.022097,235.37 h -10 v -5 l 10,4 z"
           id="path3944"
           style="fill:#1a7fd4;fill-opacity:1" />
        <path
           fill="#808080"
           opacity="0.5"
           d="m 36.996971,220.37909 v 10 h -5 l 4,-10 z"
           id="path3946"
           style="fill:#1a7fd4;fill-opacity:1" />
        <path
           fill="#808080"
           d="m 39.012228,221.36218 c 1.487955,0 2.570868,-0.0195 3.40625,0.0312 0.835382,0.0507 1.484412,0.16931 1.9375,0.625 0.453088,0.45569 0.574871,1.09872 0.625,1.9375 0.05013,0.83878 0.03125,1.94285 0.03125,3.4375 h -1 c 0,-1.50817 0.01412,-2.61584 -0.03125,-3.375 -0.04537,-0.75916 -0.171261,-1.10777 -0.34375,-1.28125 -0.172489,-0.17348 -0.526402,-0.29793 -1.28125,-0.34375 -0.754848,-0.0458 -1.842243,-0.0312 -3.34375,-0.0312 z"
           id="path3948"
           style="fill:#e95420;fill-opacity:1" />
        <path
           fill="#808080"
           d="m 44.527301,229.3622 -2.508233,-3 h 5"
           id="path3950"
           style="fill:#e95420;fill-opacity:1" />
      </g>
      <g
         transform="matrix(1.464214,0,0,1.467556,274.14959,-134.41866)"
         id="g3962">
        <path
           fill="#808080"
           d="m 47.022097,235.37 h -10 v -5 l 10,4 z"
           id="path3954"
           style="fill:#1a7fd4;fill-opacity:1" />
        <path
           fill="#808080"
           opacity="0.5"
           d="m 36.996971,220.37909 v 10 h -5 l 4,-10 z"
           id="path3956"
           style="fill:#1a7fd4;fill-opacity:1" />
        <path
           fill="#808080"
           d="m 39.012228,221.36218 c 1.487955,0 2.570868,-0.0195 3.40625,0.0312 0.835382,0.0507 1.484412,0.16931 1.9375,0.625 0.453088,0.45569 0.574871,1.09872 0.625,1.9375 0.05013,0.83878 0.03125,1.94285 0.03125,3.4375 h -1 c 0,-1.50817 0.01412,-2.61584 -0.03125,-3.375 -0.04537,-0.75916 -0.171261,-1.10777 -0.34375,-1.28125 -0.172489,-0.17348 -0.526402,-0.29793 -1.28125,-0.34375 -0.754848,-0.0458 -1.842243,-0.0312 -3.34375,-0.0312 z"
           id="path3958"
           style="fill:#e95420;fill-opacity:1" />
        <path
           fill="#808080"
           d="m 44.527301,229.3622 -2.508233,-3 h 5"
           id="path3960"
           style="fill:#e95420;fill-opacity:1" />
      </g>
      <g
         transform="matrix(1.9966555,0,0,2.0012127,257.11307,-308.02543)"
         id="g3972">
        <path
           fill="#808080"
           d="m 47.022097,235.37 h -10 v -5 l 10,4 z"
           id="path3964"
           style="fill:#1a7fd4;fill-opacity:1" />
        <path
           fill="#808080"
           opacity="0.5"
           d="m 36.996971,220.37909 v 10 h -5 l 4,-10 z"
           id="path3966"
           style="fill:#1a7fd4;fill-opacity:1" />
        <path
           fill="#808080"
           d="m 39.012228,221.36218 c 1.487955,0 2.570868,-0.0195 3.40625,0.0312 0.835382,0.0507 1.484412,0.16931 1.9375,0.625 0.453088,0.45569 0.574871,1.09872 0.625,1.9375 0.05013,0.83878 0.03125,1.94285 0.03125,3.4375 h -1 c 0,-1.50817 0.01412,-2.61584 -0.03125,-3.375 -0.04537,-0.75916 -0.171261,-1.10777 -0.34375,-1.28125 -0.172489,-0.17348 -0.526402,-0.29793 -1.28125,-0.34375 -0.754848,-0.0458 -1.842243,-0.0312 -3.34375,-0.0312 z"
           id="path3968"
           style="fill:#e95420;fill-opacity:1" />
        <path
           fill="#808080"
           d="m 44.527301,229.3622 -2.508233,-3 h 5"
           id="path3970"
           style="fill:#e95420;fill-opacity:1" />
      </g>
      <g
         transform="matrix(3.0615385,0,0,3.0685262,223.04004,-615.23901)"
         id="g3982">
        <path
           fill="#808080"
           d="m 47.022097,235.37 h -10 v -5 l 10,4 z"
           id="path3974"
           style="fill:#1a7fd4;fill-opacity:1" />
        <path
           fill="#808080"
           opacity="0.5"
           d="m 36.996971,220.37909 v 10 h -5 l 4,-10 z"
           id="path3976"
           style="fill:#1a7fd4;fill-opacity:1" />
        <path
           fill="#808080"
           d="m 39.012228,221.36218 c 1.487955,0 2.570868,-0.0195 3.40625,0.0312 0.835382,0.0507 1.484412,0.16931 1.9375,0.625 0.453088,0.45569 0.574871,1.09872 0.625,1.9375 0.05013,0.83878 0.03125,1.94285 0.03125,3.4375 h -1 c 0,-1.50817 0.01412,-2.61584 -0.03125,-3.375 -0.04537,-0.75916 -0.171261,-1.10777 -0.34375,-1.28125 -0.172489,-0.17348 -0.526402,-0.29793 -1.28125,-0.34375 -0.754848,-0.0458 -1.842243,-0.0312 -3.34375,-0.0312 z"
           id="path3978"
           style="fill:#e95420;fill-opacity:1" />
        <path
           fill="#808080"
           d="m 44.527301,229.3622 -2.508233,-3 h 5"
           id="path3980"
           style="fill:#e95420;fill-opacity:1" />
      </g>
      <g
         transform="matrix(14.908361,0,0,14.942388,-437.0224,-3248.9899)"
         id="g3992">
        <path
           fill="#808080"
           d="m 47.022097,235.37 h -10 v -5 l 10,4 z"
           id="path3984"
           style="fill:#1a7fd4;fill-opacity:1" />
        <path
           fill="#808080"
           opacity="0.5"
           d="m 36.996971,220.37909 v 10 h -5 l 4,-10 z"
           id="path3986"
           style="fill:#1a7fd4;fill-opacity:1" />
        <path
           fill="#808080"
           d="m 39.012228,221.36218 c 1.487955,0 2.570868,-0.0195 3.40625,0.0312 0.835382,0.0507 1.484412,0.16931 1.9375,0.625 0.453088,0.45569 0.574871,1.09872 0.625,1.9375 0.05013,0.83878 0.03125,1.94285 0.03125,3.4375 h -1 c 0,-1.50817 0.01412,-2.61584 -0.03125,-3.375 -0.04537,-0.75916 -0.171261,-1.10777 -0.34375,-1.28125 -0.172489,-0.17348 -0.526402,-0.29793 -1.28125,-0.34375 -0.754848,-0.0458 -1.842243,-0.0312 -3.34375,-0.0312 z"
           id="path3988"
           style="fill:#e95420;fill-opacity:1" />
        <path
           fill="#808080"
           d="m 44.527301,229.3622 -2.508233,-3 h 5"
           id="path3990"
           style="fill:#e95420;fill-opacity:1" />
      </g>
    </g>
  </g>
</svg>
