<?xml version="1.0" encoding="UTF-8" standalone="no"?>
<svg
   inkscape:export-ydpi="90.000000"
   inkscape:export-xdpi="90.000000"
   width="400"
   height="300"
   id="svg11300"
   sodipodi:version="0.32"
   inkscape:version="1.1.2 (0a00cf5339, 2022-02-04)"
   sodipodi:docname="object-locked.svg"
   inkscape:output_extension="org.inkscape.output.svg.inkscape"
   version="1.0"
   style="display:inline;enable-background:new"
   inkscape:export-filename="/home/sam/suru-template.png"
   xmlns:inkscape="http://www.inkscape.org/namespaces/inkscape"
   xmlns:sodipodi="http://sodipodi.sourceforge.net/DTD/sodipodi-0.dtd"
   xmlns="http://www.w3.org/2000/svg"
   xmlns:svg="http://www.w3.org/2000/svg"
   xmlns:rdf="http://www.w3.org/1999/02/22-rdf-syntax-ns#"
   xmlns:cc="http://creativecommons.org/ns#"
   xmlns:dc="http://purl.org/dc/elements/1.1/">
  <title
     id="title3004">Suru Icon Theme Template</title>
  <sodipodi:namedview
     stroke="#ef2929"
     fill="#f57900"
     id="base"
     pagecolor="#ffffff"
     bordercolor="#000000"
     borderopacity="0.25490196"
     inkscape:pageopacity="0"
     inkscape:pageshadow="2"
     inkscape:zoom="1.4142136"
     inkscape:cx="225.56706"
     inkscape:cy="74.953319"
     inkscape:current-layer="layer6"
     showgrid="false"
     inkscape:grid-bbox="true"
     inkscape:document-units="px"
     inkscape:showpageshadow="false"
     inkscape:window-width="1920"
     inkscape:window-height="1020"
     inkscape:window-x="0"
     inkscape:window-y="32"
     width="400px"
     height="300px"
     inkscape:snap-nodes="true"
     inkscape:snap-bbox="true"
     gridtolerance="10000"
     inkscape:object-nodes="true"
     inkscape:snap-grids="true"
     showguides="true"
     inkscape:guide-bbox="true"
     inkscape:window-maximized="1"
     inkscape:bbox-paths="true"
     inkscape:snap-bbox-midpoints="true"
     inkscape:snap-global="true"
     inkscape:object-paths="true"
     inkscape:snap-intersection-paths="true"
     inkscape:snap-smooth-nodes="true"
     inkscape:pagecheckerboard="false"
     showborder="false"
     inkscape:document-rotation="0">
    <inkscape:grid
       spacingy="1"
       spacingx="1"
       id="grid5883"
       type="xygrid"
       enabled="true"
       visible="true"
       empspacing="4"
       snapvisiblegridlinesonly="true"
       originx="0"
       originy="0" />
    <inkscape:grid
       type="xygrid"
       id="grid11592"
       empspacing="2"
       visible="true"
       enabled="false"
       spacingx="0.5"
       spacingy="0.5"
       color="#ff0000"
       opacity="0.1254902"
       empcolor="#ff0000"
       empopacity="0.25098039"
       snapvisiblegridlinesonly="true"
       originx="0"
       originy="0" />
  </sodipodi:namedview>
  <defs
     id="defs3" />
  <metadata
     id="metadata4">
    <rdf:RDF>
      <cc:Work
         rdf:about="">
        <dc:format>image/svg+xml</dc:format>
        <dc:type
           rdf:resource="http://purl.org/dc/dcmitype/StillImage" />
        <dc:creator>
          <cc:Agent>
            <dc:title>Sam Hewitt</dc:title>
          </cc:Agent>
        </dc:creator>
        <dc:source />
        <cc:license
           rdf:resource="http://creativecommons.org/licenses/by-sa/4.0/" />
        <dc:title>Suru Icon Theme Template</dc:title>
        <dc:subject>
          <rdf:Bag />
        </dc:subject>
        <dc:date />
        <dc:rights>
          <cc:Agent>
            <dc:title />
          </cc:Agent>
        </dc:rights>
        <dc:publisher>
          <cc:Agent>
            <dc:title />
          </cc:Agent>
        </dc:publisher>
        <dc:identifier />
        <dc:relation />
        <dc:language />
        <dc:coverage />
        <dc:description />
        <dc:contributor>
          <cc:Agent>
            <dc:title />
          </cc:Agent>
        </dc:contributor>
      </cc:Work>
      <cc:Work
         rdf:about="">
        <dc:format>image/svg+xml</dc:format>
        <dc:type
           rdf:resource="http://purl.org/dc/dcmitype/StillImage" />
      </cc:Work>
      <cc:License
         rdf:about="http://creativecommons.org/licenses/by-sa/4.0/">
        <cc:permits
           rdf:resource="http://creativecommons.org/ns#Reproduction" />
        <cc:permits
           rdf:resource="http://creativecommons.org/ns#Distribution" />
        <cc:requires
           rdf:resource="http://creativecommons.org/ns#Notice" />
        <cc:requires
           rdf:resource="http://creativecommons.org/ns#Attribution" />
        <cc:permits
           rdf:resource="http://creativecommons.org/ns#DerivativeWorks" />
        <cc:requires
           rdf:resource="http://creativecommons.org/ns#ShareAlike" />
      </cc:License>
    </rdf:RDF>
  </metadata>
  <g
     style="display:inline"
     inkscape:groupmode="layer"
     inkscape:label="Icon"
     id="layer1">
    <g
       style="display:none"
       inkscape:label="Baseplate"
       id="layer7"
       inkscape:groupmode="layer">
      <text
         y="-8.2548828"
         xml:space="preserve"
         x="19.006836"
         style="font-style:normal;font-variant:normal;font-weight:normal;font-stretch:normal;line-height:0%;font-family:'DejaVu Sans';-inkscape-font-specification:'DejaVu Sans';display:inline;fill:#000000;fill-opacity:1;stroke:none;enable-background:new"
         inkscape:label="context"
         id="context"><tspan
           style="font-style:normal;font-variant:normal;font-weight:normal;font-stretch:normal;font-size:18px;line-height:1.25;font-family:'DejaVu Sans';-inkscape-font-specification:'DejaVu Sans'"
           y="-8.2548828"
           x="19.006836"
           sodipodi:role="line"
           id="tspan3933">legacy</tspan></text>
      <text
         y="-8.2548828"
         xml:space="preserve"
         x="146.48828"
         style="font-style:normal;font-variant:normal;font-weight:bold;font-stretch:normal;line-height:0%;font-family:'DejaVu Sans';-inkscape-font-specification:'DejaVu Sans Bold';text-align:start;writing-mode:lr-tb;text-anchor:start;display:inline;fill:#000000;fill-opacity:1;stroke:none;enable-background:new"
         inkscape:label="icon-name"
         id="icon-name"><tspan
           style="font-style:normal;font-variant:normal;font-weight:bold;font-stretch:normal;font-size:18px;line-height:1.25;font-family:'DejaVu Sans';-inkscape-font-specification:'DejaVu Sans Bold'"
           y="-8.2548828"
           x="146.48828"
           sodipodi:role="line"
           id="tspan924">object-locked</tspan></text>
      <rect
         style="display:inline;overflow:visible;visibility:visible;fill:#cdcdcd;fill-opacity:1;fill-rule:nonzero;stroke:none;stroke-width:2;marker:none;enable-background:accumulate"
         id="rect16x16"
         width="16"
         height="16"
         x="320"
         y="236"
         inkscape:label="16x16" />
      <rect
         style="display:inline;overflow:visible;visibility:visible;fill:#cdcdcd;fill-opacity:1;fill-rule:nonzero;stroke:none;stroke-width:2;marker:none;enable-background:accumulate"
         id="rect24x24"
         width="24"
         height="24"
         x="320"
         y="188"
         inkscape:label="24x24" />
      <rect
         style="display:inline;overflow:visible;visibility:visible;fill:#cdcdcd;fill-opacity:1;fill-rule:nonzero;stroke:none;stroke-width:2;marker:none;enable-background:accumulate"
         id="rect32x32"
         width="32"
         height="32"
         x="320"
         y="132"
         inkscape:label="32x32" />
      <rect
         inkscape:label="48x48"
         y="60"
         x="320"
         height="48"
         width="48"
         id="rect48x48"
         style="display:inline;overflow:visible;visibility:visible;fill:#cdcdcd;fill-opacity:1;fill-rule:nonzero;stroke:none;stroke-width:2;marker:none;enable-background:accumulate" />
      <rect
         style="display:inline;overflow:visible;visibility:visible;fill:#cdcdcd;fill-opacity:1;fill-rule:nonzero;stroke:none;stroke-width:2;marker:none;enable-background:accumulate"
         id="rect3951"
         width="256"
         height="256"
         x="24"
         y="28"
         inkscape:label="48x48" />
      <rect
         style="display:inline;overflow:visible;visibility:visible;fill:#cdcdcd;fill-opacity:1;fill-rule:nonzero;stroke:none;stroke-width:1.83333;marker:none;enable-background:accumulate"
         id="rect24x24-1"
         width="22"
         height="22"
         x="372"
         y="190"
         inkscape:label="24x24" />
    </g>
    <g
       inkscape:groupmode="layer"
       id="layer2"
       inkscape:label="Background"
       style="display:inline" />
    <g
       inkscape:groupmode="layer"
       id="layer6"
       inkscape:label="Pictogram"
       style="display:inline">
      <g
         id="g990"
         style="display:inline"
         transform="translate(319.95666,235.95495)">
        <path
           inkscape:connector-curvature="0"
           id="path3689-6"
           style="color:#000000;display:inline;opacity:1;fill:#c7162b;fill-opacity:1;stroke-width:1.5;stroke-dashoffset:0.8;enable-background:new"
           d="m 8.0433398,0.04505873 c -4.4093907,0 -7.99999071,3.59058997 -7.99999071,7.99999007 0,4.4093902 3.59060001,7.9999902 7.99999071,7.9999902 4.4094002,0 7.9999902,-3.5906 7.9999902,-7.9999902 0,-4.4094001 -3.59059,-7.99999007 -7.9999902,-7.99999007 z"
           inkscape:export-filename="/home/stuart/yaru/icons/Suru/16x16/actions/window-close.png"
           inkscape:export-xdpi="96"
           inkscape:export-ydpi="96" />
        <path
           inkscape:connector-curvature="0"
           style="display:inline;opacity:1;fill:#ffffff;fill-opacity:1;stroke:none;stroke-width:0.604082;stroke-miterlimit:4;stroke-dasharray:none;stroke-opacity:0.745098"
           class="ColorScheme-Text"
           d="m 7.9958666,3.0036263 c -1.661179,0 -3.0014252,1.30639 -2.9985176,2.9134823 l 0.00377,2.0837966 c 2.0687923,-0.00879 3.2056019,0.01834 5.991472,0.00556 l 0.0018,-2.0893578 C 10.995791,4.3106599 9.6570444,3.0036266 7.9958666,3.0036263 Z m 0,1.4343299 c 0.8305899,0 1.4992584,0.639711 1.4992584,1.4343295 l -0.0018,2.1230576 -2.9929559,0.00556 -0.00378,-2.1286193 c -0.0014,-0.79462 0.6686811,-1.4343322 1.4992708,-1.4343322 z"
           id="path5-3"
           sodipodi:nodetypes="ssccsscsccssc" />
        <rect
           style="opacity:1;vector-effect:none;fill:#ffffff;fill-opacity:1;stroke:none;stroke-width:1.02706;stroke-linecap:round;stroke-linejoin:miter;stroke-miterlimit:4;stroke-dasharray:none;stroke-dashoffset:0;stroke-opacity:1;paint-order:stroke fill markers"
           id="rect826"
           width="8.006587"
           height="5"
           x="3.9973192"
           y="8"
           rx="0"
           ry="0" />
      </g>
      <g
         id="g8223"
         style="display:inline"
         transform="matrix(1.3750017,0,0,1.3750017,371.94039,189.93804)">
        <path
           inkscape:connector-curvature="0"
           id="path8217"
           style="color:#000000;display:inline;opacity:1;fill:#c7162b;fill-opacity:1;stroke-width:1.5;stroke-dashoffset:0.8;enable-background:new"
           d="m 8.0433398,0.04505873 c -4.4093907,0 -7.99999071,3.59058997 -7.99999071,7.99999007 0,4.4093902 3.59060001,7.9999902 7.99999071,7.9999902 4.4094002,0 7.9999902,-3.5906 7.9999902,-7.9999902 0,-4.4094001 -3.59059,-7.99999007 -7.9999902,-7.99999007 z"
           inkscape:export-filename="/home/stuart/yaru/icons/Suru/16x16/actions/window-close.png"
           inkscape:export-xdpi="96"
           inkscape:export-ydpi="96" />
        <path
           inkscape:connector-curvature="0"
           style="display:inline;opacity:1;fill:#ffffff;fill-opacity:1;stroke:none;stroke-width:0.604082;stroke-miterlimit:4;stroke-dasharray:none;stroke-opacity:0.745098"
           class="ColorScheme-Text"
           d="m 7.9958666,3.0036263 c -1.661179,0 -3.0014252,1.30639 -2.9985176,2.9134823 l 0.00377,2.0837966 c 2.0687923,-0.00879 3.2056019,0.01834 5.991472,0.00556 l 0.0018,-2.0893578 C 10.995791,4.3106599 9.6570444,3.0036266 7.9958666,3.0036263 Z m 0,1.4343299 c 0.8305899,0 1.4992584,0.639711 1.4992584,1.4343295 l -0.0018,2.1230576 -2.9929559,0.00556 -0.00378,-2.1286193 c -0.0014,-0.79462 0.6686811,-1.4343322 1.4992708,-1.4343322 z"
           id="path8219"
           sodipodi:nodetypes="ssccsscsccssc" />
        <rect
           style="opacity:1;vector-effect:none;fill:#ffffff;fill-opacity:1;stroke:none;stroke-width:1.02706;stroke-linecap:round;stroke-linejoin:miter;stroke-miterlimit:4;stroke-dasharray:none;stroke-dashoffset:0;stroke-opacity:1;paint-order:stroke fill markers"
           id="rect8221"
           width="8.006587"
           height="5"
           x="3.9973192"
           y="8"
           rx="0"
           ry="0" />
      </g>
      <g
         id="g8231"
         style="display:inline"
         transform="matrix(1.5000018,0,0,1.5000018,319.93498,187.93241)">
        <path
           inkscape:connector-curvature="0"
           id="path8225"
           style="color:#000000;display:inline;opacity:1;fill:#c7162b;fill-opacity:1;stroke-width:1.5;stroke-dashoffset:0.8;enable-background:new"
           d="m 8.0433398,0.04505873 c -4.4093907,0 -7.99999071,3.59058997 -7.99999071,7.99999007 0,4.4093902 3.59060001,7.9999902 7.99999071,7.9999902 4.4094002,0 7.9999902,-3.5906 7.9999902,-7.9999902 0,-4.4094001 -3.59059,-7.99999007 -7.9999902,-7.99999007 z"
           inkscape:export-filename="/home/stuart/yaru/icons/Suru/16x16/actions/window-close.png"
           inkscape:export-xdpi="96"
           inkscape:export-ydpi="96" />
        <path
           inkscape:connector-curvature="0"
           style="display:inline;opacity:1;fill:#ffffff;fill-opacity:1;stroke:none;stroke-width:0.604082;stroke-miterlimit:4;stroke-dasharray:none;stroke-opacity:0.745098"
           class="ColorScheme-Text"
           d="m 7.9958666,3.0036263 c -1.661179,0 -3.0014252,1.30639 -2.9985176,2.9134823 l 0.00377,2.0837966 c 2.0687923,-0.00879 3.2056019,0.01834 5.991472,0.00556 l 0.0018,-2.0893578 C 10.995791,4.3106599 9.6570444,3.0036266 7.9958666,3.0036263 Z m 0,1.4343299 c 0.8305899,0 1.4992584,0.639711 1.4992584,1.4343295 l -0.0018,2.1230576 -2.9929559,0.00556 -0.00378,-2.1286193 c -0.0014,-0.79462 0.6686811,-1.4343322 1.4992708,-1.4343322 z"
           id="path8227"
           sodipodi:nodetypes="ssccsscsccssc" />
        <rect
           style="opacity:1;vector-effect:none;fill:#ffffff;fill-opacity:1;stroke:none;stroke-width:1.02706;stroke-linecap:round;stroke-linejoin:miter;stroke-miterlimit:4;stroke-dasharray:none;stroke-dashoffset:0;stroke-opacity:1;paint-order:stroke fill markers"
           id="rect8229"
           width="8.006587"
           height="5"
           x="3.9973192"
           y="8"
           rx="0"
           ry="0" />
      </g>
      <g
         id="g8239"
         style="display:inline"
         transform="matrix(2.0000025,0,0,2.0000025,319.9133,131.90988)">
        <path
           inkscape:connector-curvature="0"
           id="path8233"
           style="color:#000000;display:inline;opacity:1;fill:#c7162b;fill-opacity:1;stroke-width:1.5;stroke-dashoffset:0.8;enable-background:new"
           d="m 8.0433398,0.04505873 c -4.4093907,0 -7.99999071,3.59058997 -7.99999071,7.99999007 0,4.4093902 3.59060001,7.9999902 7.99999071,7.9999902 4.4094002,0 7.9999902,-3.5906 7.9999902,-7.9999902 0,-4.4094001 -3.59059,-7.99999007 -7.9999902,-7.99999007 z"
           inkscape:export-filename="/home/stuart/yaru/icons/Suru/16x16/actions/window-close.png"
           inkscape:export-xdpi="96"
           inkscape:export-ydpi="96" />
        <path
           inkscape:connector-curvature="0"
           style="display:inline;opacity:1;fill:#ffffff;fill-opacity:1;stroke:none;stroke-width:0.604082;stroke-miterlimit:4;stroke-dasharray:none;stroke-opacity:0.745098"
           class="ColorScheme-Text"
           d="m 7.9958666,3.0036263 c -1.661179,0 -3.0014252,1.30639 -2.9985176,2.9134823 l 0.00377,2.0837966 c 2.0687923,-0.00879 3.2056019,0.01834 5.991472,0.00556 l 0.0018,-2.0893578 C 10.995791,4.3106599 9.6570444,3.0036266 7.9958666,3.0036263 Z m 0,1.4343299 c 0.8305899,0 1.4992584,0.639711 1.4992584,1.4343295 l -0.0018,2.1230576 -2.9929559,0.00556 -0.00378,-2.1286193 c -0.0014,-0.79462 0.6686811,-1.4343322 1.4992708,-1.4343322 z"
           id="path8235"
           sodipodi:nodetypes="ssccsscsccssc" />
        <rect
           style="opacity:1;vector-effect:none;fill:#ffffff;fill-opacity:1;stroke:none;stroke-width:1.02706;stroke-linecap:round;stroke-linejoin:miter;stroke-miterlimit:4;stroke-dasharray:none;stroke-dashoffset:0;stroke-opacity:1;paint-order:stroke fill markers"
           id="rect8237"
           width="8.006587"
           height="5"
           x="3.9973192"
           y="8"
           rx="0"
           ry="0" />
      </g>
      <g
         id="g8247"
         style="display:inline"
         transform="matrix(3.0000037,0,0,3.0000037,319.86995,59.864824)">
        <path
           inkscape:connector-curvature="0"
           id="path8241"
           style="color:#000000;display:inline;opacity:1;fill:#c7162b;fill-opacity:1;stroke-width:1.5;stroke-dashoffset:0.8;enable-background:new"
           d="m 8.0433398,0.04505873 c -4.4093907,0 -7.99999071,3.59058997 -7.99999071,7.99999007 0,4.4093902 3.59060001,7.9999902 7.99999071,7.9999902 4.4094002,0 7.9999902,-3.5906 7.9999902,-7.9999902 0,-4.4094001 -3.59059,-7.99999007 -7.9999902,-7.99999007 z"
           inkscape:export-filename="/home/stuart/yaru/icons/Suru/16x16/actions/window-close.png"
           inkscape:export-xdpi="96"
           inkscape:export-ydpi="96" />
        <path
           inkscape:connector-curvature="0"
           style="display:inline;opacity:1;fill:#ffffff;fill-opacity:1;stroke:none;stroke-width:0.604082;stroke-miterlimit:4;stroke-dasharray:none;stroke-opacity:0.745098"
           class="ColorScheme-Text"
           d="m 7.9958666,3.0036263 c -1.661179,0 -3.0014252,1.30639 -2.9985176,2.9134823 l 0.00377,2.0837966 c 2.0687923,-0.00879 3.2056019,0.01834 5.991472,0.00556 l 0.0018,-2.0893578 C 10.995791,4.3106599 9.6570444,3.0036266 7.9958666,3.0036263 Z m 0,1.4343299 c 0.8305899,0 1.4992584,0.639711 1.4992584,1.4343295 l -0.0018,2.1230576 -2.9929559,0.00556 -0.00378,-2.1286193 c -0.0014,-0.79462 0.6686811,-1.4343322 1.4992708,-1.4343322 z"
           id="path8243"
           sodipodi:nodetypes="ssccsscsccssc" />
        <rect
           style="opacity:1;vector-effect:none;fill:#ffffff;fill-opacity:1;stroke:none;stroke-width:1.02706;stroke-linecap:round;stroke-linejoin:miter;stroke-miterlimit:4;stroke-dasharray:none;stroke-dashoffset:0;stroke-opacity:1;paint-order:stroke fill markers"
           id="rect8245"
           width="8.006587"
           height="5"
           x="3.9973192"
           y="8"
           rx="0"
           ry="0" />
      </g>
      <g
         id="g8255"
         style="display:inline"
         transform="matrix(14.000017,0,0,14.000017,39.39311,43.369179)">
        <path
           inkscape:connector-curvature="0"
           id="path8249"
           style="color:#000000;display:inline;opacity:1;fill:#c7162b;fill-opacity:1;stroke-width:1.5;stroke-dashoffset:0.8;enable-background:new"
           d="m 8.0433398,0.04505873 c -4.4093907,0 -7.99999071,3.59058997 -7.99999071,7.99999007 0,4.4093902 3.59060001,7.9999902 7.99999071,7.9999902 4.4094002,0 7.9999902,-3.5906 7.9999902,-7.9999902 0,-4.4094001 -3.59059,-7.99999007 -7.9999902,-7.99999007 z"
           inkscape:export-filename="/home/stuart/yaru/icons/Suru/16x16/actions/window-close.png"
           inkscape:export-xdpi="96"
           inkscape:export-ydpi="96" />
        <path
           inkscape:connector-curvature="0"
           style="display:inline;opacity:1;fill:#ffffff;fill-opacity:1;stroke:none;stroke-width:0.604082;stroke-miterlimit:4;stroke-dasharray:none;stroke-opacity:0.745098"
           class="ColorScheme-Text"
           d="m 7.9958666,3.0036263 c -1.661179,0 -3.0014252,1.30639 -2.9985176,2.9134823 l 0.00377,2.0837966 c 2.0687923,-0.00879 3.2056019,0.01834 5.991472,0.00556 l 0.0018,-2.0893578 C 10.995791,4.3106599 9.6570444,3.0036266 7.9958666,3.0036263 Z m 0,1.4343299 c 0.8305899,0 1.4992584,0.639711 1.4992584,1.4343295 l -0.0018,2.1230576 -2.9929559,0.00556 -0.00378,-2.1286193 c -0.0014,-0.79462 0.6686811,-1.4343322 1.4992708,-1.4343322 z"
           id="path8251"
           sodipodi:nodetypes="ssccsscsccssc" />
        <rect
           style="opacity:1;vector-effect:none;fill:#ffffff;fill-opacity:1;stroke:none;stroke-width:1.02706;stroke-linecap:round;stroke-linejoin:miter;stroke-miterlimit:4;stroke-dasharray:none;stroke-dashoffset:0;stroke-opacity:1;paint-order:stroke fill markers"
           id="rect8253"
           width="8.006587"
           height="5"
           x="3.9973192"
           y="8"
           rx="0"
           ry="0" />
      </g>
    </g>
  </g>
</svg>
