<?xml version="1.0" encoding="UTF-8" standalone="no"?>
<svg
   inkscape:export-ydpi="90.000000"
   inkscape:export-xdpi="90.000000"
   width="400"
   height="300"
   id="svg11300"
   sodipodi:version="0.32"
   inkscape:version="1.1.2 (0a00cf5339, 2022-02-04)"
   sodipodi:docname="search.svg"
   inkscape:output_extension="org.inkscape.output.svg.inkscape"
   version="1.0"
   style="display:inline;enable-background:new"
   inkscape:export-filename="/home/sam/suru-template.png"
   xmlns:inkscape="http://www.inkscape.org/namespaces/inkscape"
   xmlns:sodipodi="http://sodipodi.sourceforge.net/DTD/sodipodi-0.dtd"
   xmlns:xlink="http://www.w3.org/1999/xlink"
   xmlns="http://www.w3.org/2000/svg"
   xmlns:svg="http://www.w3.org/2000/svg"
   xmlns:rdf="http://www.w3.org/1999/02/22-rdf-syntax-ns#"
   xmlns:cc="http://creativecommons.org/ns#"
   xmlns:dc="http://purl.org/dc/elements/1.1/">
  <title
     id="title3004">Suru Icon Theme Template</title>
  <sodipodi:namedview
     stroke="#ef2929"
     fill="#f57900"
     id="base"
     pagecolor="#ffffff"
     bordercolor="#000000"
     borderopacity="0.25490196"
     inkscape:pageopacity="0"
     inkscape:pageshadow="2"
     inkscape:zoom="2"
     inkscape:cx="198"
     inkscape:cy="117"
     inkscape:current-layer="layer6"
     showgrid="false"
     inkscape:grid-bbox="true"
     inkscape:document-units="px"
     inkscape:showpageshadow="false"
     inkscape:window-width="1920"
     inkscape:window-height="1020"
     inkscape:window-x="0"
     inkscape:window-y="32"
     width="400px"
     height="300px"
     inkscape:snap-nodes="true"
     inkscape:snap-bbox="true"
     gridtolerance="10000"
     inkscape:object-nodes="true"
     inkscape:snap-grids="true"
     showguides="true"
     inkscape:guide-bbox="true"
     inkscape:window-maximized="1"
     inkscape:bbox-paths="true"
     inkscape:snap-bbox-midpoints="true"
     inkscape:snap-global="true"
     inkscape:object-paths="true"
     inkscape:snap-intersection-paths="true"
     inkscape:snap-smooth-nodes="true"
     inkscape:pagecheckerboard="false"
     showborder="false"
     inkscape:document-rotation="0">
    <inkscape:grid
       spacingy="1"
       spacingx="1"
       id="grid5883"
       type="xygrid"
       enabled="true"
       visible="true"
       empspacing="4"
       snapvisiblegridlinesonly="true"
       originx="0"
       originy="0" />
    <inkscape:grid
       type="xygrid"
       id="grid11592"
       empspacing="2"
       visible="true"
       enabled="false"
       spacingx="0.5"
       spacingy="0.5"
       color="#ff0000"
       opacity="0.1254902"
       empcolor="#ff0000"
       empopacity="0.25098039"
       snapvisiblegridlinesonly="true"
       originx="0"
       originy="0" />
  </sodipodi:namedview>
  <defs
     id="defs3">
    <linearGradient
       id="a"
       x2="1"
       gradientTransform="matrix(0,-112,112,0,479.30136,120)"
       gradientUnits="userSpaceOnUse">
      <stop
         stop-color="#006783"
         offset="0"
         id="stop2" />
      <stop
         stop-color="#20ccff"
         offset="1"
         id="stop4" />
    </linearGradient>
    <linearGradient
       inkscape:collect="always"
       xlink:href="#a"
       id="linearGradient4242"
       gradientUnits="userSpaceOnUse"
       gradientTransform="matrix(0,-46,46,0,514.57021,107)"
       x2="1" />
    <linearGradient
       inkscape:collect="always"
       xlink:href="#a"
       id="linearGradient4250"
       gradientUnits="userSpaceOnUse"
       gradientTransform="matrix(0,-30,30,0,447.24143,163)"
       x2="1" />
    <linearGradient
       inkscape:collect="always"
       xlink:href="#a"
       id="linearGradient4258"
       gradientUnits="userSpaceOnUse"
       gradientTransform="matrix(0,-22,22,0,413.57705,211)"
       x2="1" />
    <linearGradient
       inkscape:collect="always"
       xlink:href="#a"
       id="linearGradient4266"
       gradientUnits="userSpaceOnUse"
       gradientTransform="matrix(0,-20,20,0,457.16096,211)"
       x2="1" />
    <linearGradient
       inkscape:collect="always"
       xlink:href="#a"
       id="linearGradient4274"
       gradientUnits="userSpaceOnUse"
       gradientTransform="matrix(0,-15,15,0,383.62072,251.5)"
       x2="1" />
    <linearGradient
       inkscape:collect="always"
       xlink:href="#a"
       id="linearGradient4323"
       gradientUnits="userSpaceOnUse"
       gradientTransform="matrix(0,-224,224,0,982.60272,268)"
       x2="1" />
  </defs>
  <metadata
     id="metadata4">
    <rdf:RDF>
      <cc:Work
         rdf:about="">
        <dc:format>image/svg+xml</dc:format>
        <dc:type
           rdf:resource="http://purl.org/dc/dcmitype/StillImage" />
        <dc:creator>
          <cc:Agent>
            <dc:title>Sam Hewitt</dc:title>
          </cc:Agent>
        </dc:creator>
        <dc:source />
        <cc:license
           rdf:resource="http://creativecommons.org/licenses/by-sa/4.0/" />
        <dc:title>Suru Icon Theme Template</dc:title>
        <dc:subject>
          <rdf:Bag />
        </dc:subject>
        <dc:date />
        <dc:rights>
          <cc:Agent>
            <dc:title />
          </cc:Agent>
        </dc:rights>
        <dc:publisher>
          <cc:Agent>
            <dc:title />
          </cc:Agent>
        </dc:publisher>
        <dc:identifier />
        <dc:relation />
        <dc:language />
        <dc:coverage />
        <dc:description />
        <dc:contributor>
          <cc:Agent>
            <dc:title />
          </cc:Agent>
        </dc:contributor>
      </cc:Work>
      <cc:Work
         rdf:about="">
        <dc:format>image/svg+xml</dc:format>
        <dc:type
           rdf:resource="http://purl.org/dc/dcmitype/StillImage" />
      </cc:Work>
      <cc:License
         rdf:about="http://creativecommons.org/licenses/by-sa/4.0/">
        <cc:permits
           rdf:resource="http://creativecommons.org/ns#Reproduction" />
        <cc:permits
           rdf:resource="http://creativecommons.org/ns#Distribution" />
        <cc:requires
           rdf:resource="http://creativecommons.org/ns#Notice" />
        <cc:requires
           rdf:resource="http://creativecommons.org/ns#Attribution" />
        <cc:permits
           rdf:resource="http://creativecommons.org/ns#DerivativeWorks" />
        <cc:requires
           rdf:resource="http://creativecommons.org/ns#ShareAlike" />
      </cc:License>
    </rdf:RDF>
  </metadata>
  <g
     style="display:inline"
     inkscape:groupmode="layer"
     inkscape:label="Icon"
     id="layer1">
    <g
       style="display:none"
       inkscape:label="Baseplate"
       id="layer7"
       inkscape:groupmode="layer">
      <text
         y="-8.2548828"
         xml:space="preserve"
         x="19.006836"
         style="font-style:normal;font-variant:normal;font-weight:normal;font-stretch:normal;line-height:0%;font-family:'DejaVu Sans';-inkscape-font-specification:'DejaVu Sans';display:inline;fill:#000000;fill-opacity:1;stroke:none;enable-background:new"
         inkscape:label="context"
         id="context"><tspan
           style="font-style:normal;font-variant:normal;font-weight:normal;font-stretch:normal;font-size:18px;line-height:1.25;font-family:'DejaVu Sans';-inkscape-font-specification:'DejaVu Sans'"
           y="-8.2548828"
           x="19.006836"
           sodipodi:role="line"
           id="tspan3933">legacy</tspan></text>
      <text
         y="-8.2548828"
         xml:space="preserve"
         x="146.48828"
         style="font-style:normal;font-variant:normal;font-weight:bold;font-stretch:normal;line-height:0%;font-family:'DejaVu Sans';-inkscape-font-specification:'DejaVu Sans Bold';text-align:start;writing-mode:lr-tb;text-anchor:start;display:inline;fill:#000000;fill-opacity:1;stroke:none;enable-background:new"
         inkscape:label="icon-name"
         id="icon-name"><tspan
           style="font-style:normal;font-variant:normal;font-weight:bold;font-stretch:normal;font-size:18px;line-height:1.25;font-family:'DejaVu Sans';-inkscape-font-specification:'DejaVu Sans Bold'"
           y="-8.2548828"
           x="146.48828"
           sodipodi:role="line"
           id="tspan924">search</tspan></text>
      <rect
         style="display:inline;overflow:visible;visibility:visible;fill:#cdcdcd;fill-opacity:1;fill-rule:nonzero;stroke:none;stroke-width:2;marker:none;enable-background:accumulate"
         id="rect16x16"
         width="16"
         height="16"
         x="320"
         y="236"
         inkscape:label="16x16" />
      <rect
         style="display:inline;overflow:visible;visibility:visible;fill:#cdcdcd;fill-opacity:1;fill-rule:nonzero;stroke:none;stroke-width:2;marker:none;enable-background:accumulate"
         id="rect24x24"
         width="24"
         height="24"
         x="320"
         y="188"
         inkscape:label="24x24" />
      <rect
         style="display:inline;overflow:visible;visibility:visible;fill:#cdcdcd;fill-opacity:1;fill-rule:nonzero;stroke:none;stroke-width:2;marker:none;enable-background:accumulate"
         id="rect32x32"
         width="32"
         height="32"
         x="320"
         y="132"
         inkscape:label="32x32" />
      <rect
         inkscape:label="48x48"
         y="60"
         x="320"
         height="48"
         width="48"
         id="rect48x48"
         style="display:inline;overflow:visible;visibility:visible;fill:#cdcdcd;fill-opacity:1;fill-rule:nonzero;stroke:none;stroke-width:2;marker:none;enable-background:accumulate" />
      <rect
         style="display:inline;overflow:visible;visibility:visible;fill:#cdcdcd;fill-opacity:1;fill-rule:nonzero;stroke:none;stroke-width:2;marker:none;enable-background:accumulate"
         id="rect3951"
         width="256"
         height="256"
         x="24"
         y="28"
         inkscape:label="48x48" />
      <rect
         style="display:inline;overflow:visible;visibility:visible;fill:#cdcdcd;fill-opacity:1;fill-rule:nonzero;stroke:none;stroke-width:1.83333;marker:none;enable-background:accumulate"
         id="rect24x24-1"
         width="22"
         height="22"
         x="372"
         y="190"
         inkscape:label="24x24" />
    </g>
    <g
       inkscape:groupmode="layer"
       id="layer2"
       inkscape:label="Background"
       style="display:inline">
      <circle
         cx="152"
         cy="156"
         r="112"
         fill="url(#a)"
         id="circle7"
         style="fill:url(#linearGradient4323);stroke-width:4.92006" />
      <circle
         cx="344"
         cy="84"
         r="23"
         fill="url(#a)"
         id="circle4236"
         style="fill:url(#linearGradient4242);stroke-width:1.01037" />
      <circle
         cx="336"
         cy="148"
         r="15"
         fill="url(#a)"
         id="circle4244"
         style="fill:url(#linearGradient4250);stroke-width:0.658937" />
      <circle
         cx="332"
         cy="200"
         r="11"
         fill="url(#a)"
         id="circle4252"
         style="fill:url(#linearGradient4258);stroke-width:0.48322" />
      <circle
         cx="383"
         cy="201"
         r="10"
         fill="url(#a)"
         id="circle4260"
         style="fill:url(#linearGradient4266);stroke-width:0.439291" />
      <circle
         cx="328"
         cy="244"
         r="7.5"
         fill="url(#a)"
         id="circle4268"
         style="fill:url(#linearGradient4274);stroke-width:0.329468" />
    </g>
    <g
       inkscape:groupmode="layer"
       id="layer6"
       inkscape:label="Pictogram"
       style="display:inline">
      <path
         d="m 212.75532,207.63956 -30.93465,-23.14138 c 6.60112,-9.53041 13.44067,-24.41528 13.44067,-36.13244 0,-7.60934 -1.47827,-14.8985 -4.43481,-21.84704 -2.95654,-6.94855 -6.94855,-12.93656 -11.98284,-17.97085 -5.03429,-5.03429 -11.0223,-9.026302 -17.97084,-11.98284 -6.94855,-2.956538 -14.2309,-4.434808 -21.84705,-4.434808 -7.61615,0 -14.8985,1.47827 -21.84705,4.434808 -6.95536,2.956538 -12.94337,6.94855 -17.977658,11.98284 -5.027478,5.03429 -9.026298,11.0223 -11.982836,17.97085 -2.949726,6.95535 -4.427994,14.2377 -4.427994,21.84704 0,7.61615 1.478268,14.8985 4.427994,21.84705 2.956538,6.95536 6.955358,12.94337 11.982836,17.97766 5.034288,5.02748 11.029118,9.02629 17.977658,11.98283 6.94855,2.94973 14.2309,4.428 21.84705,4.428 11.71715,0 25.33494,-4.79586 34.87216,-11.40379 l 24.40166,28.81602 c 1.91426,2.02325 4.30538,3.03829 7.18698,3.03829 2.76579,0 5.16372,-1.01504 7.18698,-3.03829 2.02325,-2.02325 3.03828,-4.41436 3.03828,-7.18697 0,-2.82029 -0.98778,-5.21822 -2.95654,-7.18698 z m -48.44907,-33.99337 c -7.00305,7.00304 -15.42987,10.50456 -25.28045,10.50456 -9.85059,0 -18.2774,-3.50152 -25.28045,-10.50456 -7.00304,-7.00305 -10.50456,-15.42986 -10.50456,-25.28045 0,-9.85058 3.50152,-18.2774 10.50456,-25.28045 6.99624,-7.00304 15.42986,-10.50456 25.28045,-10.50456 9.85058,0 18.2774,3.50152 25.28045,10.50456 7.00304,7.00305 10.50456,15.42987 10.50456,25.28045 0,9.85059 -3.50152,18.2774 -10.50456,25.28045 z"
         fill="#ffffff"
         fill-opacity="0.85"
         fill-rule="nonzero"
         id="path9"
         style="display:inline;stroke-width:6.8123;enable-background:new" />
      <path
         d="m 356.47654,94.604553 -6.35265,-4.752248 c 1.35559,-1.957138 2.76014,-5.013853 2.76014,-7.420055 0,-1.562632 -0.30357,-3.059514 -0.91072,-4.486447 -0.60715,-1.426934 -1.42693,-2.656615 -2.46076,-3.690442 -1.03383,-1.033827 -2.26351,-1.853615 -3.69044,-2.460761 -1.42694,-0.607147 -2.92242,-0.91072 -4.48645,-0.91072 -1.56403,0 -3.05951,0.303573 -4.48645,0.91072 -1.42833,0.607146 -2.65801,1.426934 -3.69184,2.460761 -1.03243,1.033827 -1.85361,2.263508 -2.46076,3.690442 -0.60575,1.428333 -0.90932,2.923815 -0.90932,4.486447 0,1.564031 0.30357,3.059514 0.90932,4.486447 0.60715,1.428333 1.42833,2.658014 2.46076,3.691841 1.03383,1.032429 2.26491,1.853614 3.69184,2.460761 1.42694,0.605747 2.92242,0.90932 4.48645,0.90932 2.4062,0 5.20271,-0.984864 7.16125,-2.34185 l 5.01105,5.917577 c 0.39311,0.415489 0.88414,0.623935 1.4759,0.623935 0.56798,0 1.06041,-0.208446 1.4759,-0.623935 0.41549,-0.41549 0.62393,-0.906522 0.62393,-1.475896 0,-0.579167 -0.20285,-1.071599 -0.60715,-1.475897 z m -9.94936,-6.980783 c -1.43813,1.438125 -3.16863,2.157188 -5.19152,2.157188 -2.02289,0 -3.7534,-0.719063 -5.19152,-2.157188 -1.43813,-1.438125 -2.15719,-3.168632 -2.15719,-5.19152 0,-2.022888 0.71906,-3.753395 2.15719,-5.19152 1.43673,-1.438126 3.16863,-2.157188 5.19152,-2.157188 2.02289,0 3.75339,0.719062 5.19152,2.157188 1.43812,1.438125 2.15719,3.168632 2.15719,5.19152 0,2.022888 -0.71907,3.753395 -2.15719,5.19152 z"
         fill="#ffffff"
         fill-opacity="0.85"
         fill-rule="nonzero"
         id="path4238"
         style="display:inline;stroke-width:1.39895;enable-background:new" />
      <path
         d="m 344.13687,154.91601 -4.14303,-3.09929 c 0.88407,-1.2764 1.80009,-3.26991 1.80009,-4.83917 0,-1.01911 -0.19799,-1.99533 -0.59395,-2.92594 -0.39597,-0.93061 -0.93061,-1.73258 -1.60485,-2.40681 -0.67423,-0.67424 -1.4762,-1.20888 -2.40681,-1.60485 -0.9306,-0.39596 -1.90592,-0.59394 -2.92594,-0.59394 -1.02002,0 -1.99533,0.19798 -2.92594,0.59394 -0.93152,0.39597 -1.73349,0.93061 -2.40773,1.60485 -0.67332,0.67423 -1.20887,1.4762 -1.60484,2.40681 -0.39505,0.93152 -0.59303,1.90683 -0.59303,2.92594 0,1.02002 0.19798,1.99534 0.59303,2.92595 0.39597,0.93152 0.93152,1.73348 1.60484,2.40772 0.67424,0.67332 1.47712,1.20888 2.40773,1.60484 0.93061,0.39505 1.90592,0.59304 2.92594,0.59304 1.56926,0 3.39307,-0.64231 4.67038,-1.5273 l 3.26808,3.85929 c 0.25637,0.27097 0.57661,0.40692 0.96254,0.40692 0.37042,0 0.69157,-0.13595 0.96254,-0.40692 0.27097,-0.27097 0.40691,-0.59121 0.40691,-0.96254 0,-0.37772 -0.13229,-0.69887 -0.39596,-0.96254 z m -6.48872,-4.55268 c -0.9379,0.9379 -2.06649,1.40686 -3.38577,1.40686 -1.31927,0 -2.44787,-0.46896 -3.38577,-1.40686 -0.93791,-0.93791 -1.40686,-2.0665 -1.40686,-3.38578 0,-1.31927 0.46895,-2.44786 1.40686,-3.38577 0.93699,-0.93791 2.0665,-1.40686 3.38577,-1.40686 1.31928,0 2.44787,0.46895 3.38577,1.40686 0.93791,0.93791 1.40687,2.0665 1.40687,3.38577 0,1.31928 -0.46896,2.44787 -1.40687,3.38578 z"
         fill="#ffffff"
         fill-opacity="0.85"
         fill-rule="nonzero"
         id="path4246"
         style="display:inline;stroke-width:0.912362;enable-background:new" />
      <path
         d="m 337.96704,205.07174 -3.03823,-2.27281 c 0.64833,-0.93603 1.32007,-2.39793 1.32007,-3.54872 0,-0.74735 -0.14519,-1.46325 -0.43556,-2.1457 -0.29038,-0.68244 -0.68245,-1.27055 -1.17689,-1.76499 -0.49444,-0.49444 -1.08254,-0.88651 -1.76499,-1.17689 -0.68245,-0.29037 -1.39768,-0.43556 -2.14569,-0.43556 -0.74802,0 -1.46325,0.14519 -2.1457,0.43556 -0.68311,0.29038 -1.27122,0.68245 -1.76566,1.17689 -0.49377,0.49444 -0.88651,1.08255 -1.17688,1.76499 -0.28971,0.68312 -0.4349,1.39835 -0.4349,2.1457 0,0.74801 0.14519,1.46324 0.4349,2.14569 0.29037,0.68311 0.68311,1.27122 1.17688,1.76566 0.49444,0.49377 1.08322,0.88651 1.76566,1.17689 0.68245,0.2897 1.39768,0.43489 2.1457,0.43489 1.15079,0 2.48825,-0.47102 3.42494,-1.12002 l 2.39659,2.83015 c 0.18801,0.19871 0.42285,0.2984 0.70587,0.2984 0.27164,0 0.50715,-0.0997 0.70586,-0.2984 0.19871,-0.19871 0.2984,-0.43356 0.2984,-0.70586 0,-0.277 -0.097,-0.51251 -0.29037,-0.70587 z m -4.75839,-3.33863 c -0.6878,0.6878 -1.51544,1.03169 -2.4829,1.03169 -0.96747,0 -1.79511,-0.34389 -2.4829,-1.03169 -0.6878,-0.6878 -1.0317,-1.51544 -1.0317,-2.4829 0,-0.96747 0.3439,-1.79511 1.0317,-2.48291 0.68713,-0.68779 1.51543,-1.03169 2.4829,-1.03169 0.96746,0 1.7951,0.3439 2.4829,1.03169 0.6878,0.6878 1.0317,1.51544 1.0317,2.48291 0,0.96746 -0.3439,1.7951 -1.0317,2.4829 z"
         fill="#ffffff"
         fill-opacity="0.85"
         fill-rule="nonzero"
         id="path4254"
         style="display:inline;stroke-width:0.669065;enable-background:new" />
      <path
         d="m 388.42458,205.61068 -2.76202,-2.0662 c 0.58939,-0.85093 1.20006,-2.17993 1.20006,-3.22611 0,-0.6794 -0.13199,-1.33022 -0.39596,-1.95063 -0.26398,-0.6204 -0.62041,-1.15505 -1.0699,-1.60454 -0.44949,-0.44949 -0.98413,-0.80592 -1.60454,-1.06989 -0.62041,-0.26398 -1.27062,-0.39597 -1.95063,-0.39597 -0.68001,0 -1.33022,0.13199 -1.95063,0.39597 -0.62101,0.26397 -1.15566,0.6204 -1.60515,1.06989 -0.44888,0.44949 -0.80592,0.98414 -1.06989,1.60454 -0.26337,0.62102 -0.39536,1.27123 -0.39536,1.95063 0,0.68001 0.13199,1.33022 0.39536,1.95063 0.26397,0.62101 0.62101,1.15566 1.06989,1.60515 0.44949,0.44888 0.98475,0.80592 1.60515,1.06989 0.62041,0.26337 1.27062,0.39536 1.95063,0.39536 1.04618,0 2.26205,-0.4282 3.11359,-1.01819 l 2.17872,2.57286 c 0.17091,0.18064 0.3844,0.27127 0.64169,0.27127 0.24695,0 0.46105,-0.0906 0.6417,-0.27127 0.18064,-0.18065 0.27127,-0.39414 0.27127,-0.6417 0,-0.25181 -0.0882,-0.46591 -0.26398,-0.64169 z m -4.32581,-3.03513 c -0.62527,0.62528 -1.37766,0.93791 -2.25718,0.93791 -0.87952,0 -1.63191,-0.31263 -2.25718,-0.93791 -0.62527,-0.62527 -0.93791,-1.37766 -0.93791,-2.25718 0,-0.87952 0.31264,-1.63191 0.93791,-2.25718 0.62466,-0.62527 1.37766,-0.93791 2.25718,-0.93791 0.87952,0 1.63191,0.31264 2.25718,0.93791 0.62528,0.62527 0.93791,1.37766 0.93791,2.25718 0,0.87952 -0.31263,1.63191 -0.93791,2.25718 z"
         fill="#ffffff"
         fill-opacity="0.85"
         fill-rule="nonzero"
         id="path4262"
         style="display:inline;stroke-width:0.608241;enable-background:new" />
      <path
         d="m 332.06844,247.458 -2.07152,-1.54964 c 0.44204,-0.6382 0.90004,-1.63495 0.90004,-2.41958 0,-0.50956 -0.099,-0.99767 -0.29697,-1.46298 -0.19798,-0.4653 -0.46531,-0.86628 -0.80242,-1.2034 -0.33712,-0.33712 -0.7381,-0.60444 -1.20341,-0.80242 -0.4653,-0.19799 -0.95296,-0.29698 -1.46297,-0.29698 -0.51001,0 -0.99767,0.099 -1.46297,0.29698 -0.46576,0.19798 -0.86675,0.4653 -1.20386,0.80242 -0.33666,0.33712 -0.60444,0.7381 -0.80242,1.2034 -0.19753,0.46576 -0.29652,0.95342 -0.29652,1.46298 0,0.51001 0.099,0.99766 0.29652,1.46297 0.19798,0.46576 0.46576,0.86674 0.80242,1.20386 0.33711,0.33666 0.73855,0.60444 1.20386,0.80242 0.4653,0.19753 0.95296,0.29652 1.46297,0.29652 0.78463,0 1.69654,-0.32115 2.33519,-0.76365 l 1.63404,1.92965 c 0.12819,0.13548 0.28831,0.20345 0.48127,0.20345 0.18521,0 0.34579,-0.068 0.48127,-0.20345 0.13549,-0.13549 0.20346,-0.29561 0.20346,-0.48127 0,-0.18886 -0.0661,-0.34944 -0.19798,-0.48128 z m -3.24436,-2.27634 c -0.46896,0.46896 -1.03325,0.70343 -1.69289,0.70343 -0.65964,0 -1.22393,-0.23447 -1.69289,-0.70343 -0.46895,-0.46895 -0.70343,-1.03325 -0.70343,-1.69288 0,-0.65964 0.23448,-1.22394 0.70343,-1.69289 0.4685,-0.46896 1.03325,-0.70343 1.69289,-0.70343 0.65964,0 1.22393,0.23447 1.69289,0.70343 0.46895,0.46895 0.70343,1.03325 0.70343,1.69289 0,0.65963 -0.23448,1.22393 -0.70343,1.69288 z"
         fill="#ffffff"
         fill-opacity="0.85"
         fill-rule="nonzero"
         id="path4270"
         style="display:inline;stroke-width:0.456181;enable-background:new" />
    </g>
  </g>
</svg>
