<?xml version="1.0" encoding="UTF-8" standalone="no"?>
<svg
   inkscape:export-ydpi="90.000000"
   inkscape:export-xdpi="90.000000"
   width="400"
   height="300"
   id="svg11300"
   sodipodi:version="0.32"
   inkscape:version="1.1.2 (0a00cf5339, 2022-02-04)"
   sodipodi:docname="tool-pointer.svg"
   inkscape:output_extension="org.inkscape.output.svg.inkscape"
   version="1.0"
   style="display:inline;enable-background:new"
   inkscape:export-filename="/home/sam/suru-template.png"
   xmlns:inkscape="http://www.inkscape.org/namespaces/inkscape"
   xmlns:sodipodi="http://sodipodi.sourceforge.net/DTD/sodipodi-0.dtd"
   xmlns="http://www.w3.org/2000/svg"
   xmlns:svg="http://www.w3.org/2000/svg"
   xmlns:rdf="http://www.w3.org/1999/02/22-rdf-syntax-ns#"
   xmlns:cc="http://creativecommons.org/ns#"
   xmlns:dc="http://purl.org/dc/elements/1.1/">
  <title
     id="title3004">Suru Icon Theme Template</title>
  <sodipodi:namedview
     stroke="#ef2929"
     fill="#f57900"
     id="base"
     pagecolor="#ffffff"
     bordercolor="#000000"
     borderopacity="0.25490196"
     inkscape:pageopacity="0"
     inkscape:pageshadow="2"
     inkscape:zoom="1.4142136"
     inkscape:cx="94.752309"
     inkscape:cy="116.67262"
     inkscape:current-layer="layer6"
     showgrid="false"
     inkscape:grid-bbox="true"
     inkscape:document-units="px"
     inkscape:showpageshadow="false"
     inkscape:window-width="1920"
     inkscape:window-height="1020"
     inkscape:window-x="0"
     inkscape:window-y="32"
     width="400px"
     height="300px"
     inkscape:snap-nodes="true"
     inkscape:snap-bbox="true"
     gridtolerance="10000"
     inkscape:object-nodes="true"
     inkscape:snap-grids="true"
     showguides="true"
     inkscape:guide-bbox="true"
     inkscape:window-maximized="1"
     inkscape:bbox-paths="true"
     inkscape:snap-bbox-midpoints="true"
     inkscape:snap-global="true"
     inkscape:object-paths="true"
     inkscape:snap-intersection-paths="true"
     inkscape:snap-smooth-nodes="true"
     inkscape:pagecheckerboard="false"
     showborder="false"
     inkscape:document-rotation="0">
    <inkscape:grid
       spacingy="1"
       spacingx="1"
       id="grid5883"
       type="xygrid"
       enabled="true"
       visible="true"
       empspacing="4"
       snapvisiblegridlinesonly="true"
       originx="0"
       originy="0" />
    <inkscape:grid
       type="xygrid"
       id="grid11592"
       empspacing="2"
       visible="true"
       enabled="false"
       spacingx="0.5"
       spacingy="0.5"
       color="#ff0000"
       opacity="0.1254902"
       empcolor="#ff0000"
       empopacity="0.25098039"
       snapvisiblegridlinesonly="true"
       originx="0"
       originy="0" />
  </sodipodi:namedview>
  <defs
     id="defs3">
    <filter
       id="a"
       color-interpolation-filters="sRGB"
       height="1.2715281"
       width="1.4406217"
       x="-0.22031085"
       y="-0.13576404">
      <feGaussianBlur
         stdDeviation=".90509356"
         id="feGaussianBlur2" />
    </filter>
  </defs>
  <metadata
     id="metadata4">
    <rdf:RDF>
      <cc:Work
         rdf:about="">
        <dc:format>image/svg+xml</dc:format>
        <dc:type
           rdf:resource="http://purl.org/dc/dcmitype/StillImage" />
        <dc:creator>
          <cc:Agent>
            <dc:title>Sam Hewitt</dc:title>
          </cc:Agent>
        </dc:creator>
        <dc:source />
        <cc:license
           rdf:resource="http://creativecommons.org/licenses/by-sa/4.0/" />
        <dc:title>Suru Icon Theme Template</dc:title>
        <dc:subject>
          <rdf:Bag />
        </dc:subject>
        <dc:date />
        <dc:rights>
          <cc:Agent>
            <dc:title />
          </cc:Agent>
        </dc:rights>
        <dc:publisher>
          <cc:Agent>
            <dc:title />
          </cc:Agent>
        </dc:publisher>
        <dc:identifier />
        <dc:relation />
        <dc:language />
        <dc:coverage />
        <dc:description />
        <dc:contributor>
          <cc:Agent>
            <dc:title />
          </cc:Agent>
        </dc:contributor>
      </cc:Work>
      <cc:Work
         rdf:about="">
        <dc:format>image/svg+xml</dc:format>
        <dc:type
           rdf:resource="http://purl.org/dc/dcmitype/StillImage" />
      </cc:Work>
      <cc:License
         rdf:about="http://creativecommons.org/licenses/by-sa/4.0/">
        <cc:permits
           rdf:resource="http://creativecommons.org/ns#Reproduction" />
        <cc:permits
           rdf:resource="http://creativecommons.org/ns#Distribution" />
        <cc:requires
           rdf:resource="http://creativecommons.org/ns#Notice" />
        <cc:requires
           rdf:resource="http://creativecommons.org/ns#Attribution" />
        <cc:permits
           rdf:resource="http://creativecommons.org/ns#DerivativeWorks" />
        <cc:requires
           rdf:resource="http://creativecommons.org/ns#ShareAlike" />
      </cc:License>
    </rdf:RDF>
  </metadata>
  <g
     style="display:inline"
     inkscape:groupmode="layer"
     inkscape:label="Icon"
     id="layer1">
    <g
       style="display:none"
       inkscape:label="Baseplate"
       id="layer7"
       inkscape:groupmode="layer">
      <text
         y="-8.2548828"
         xml:space="preserve"
         x="19.006836"
         style="font-style:normal;font-variant:normal;font-weight:normal;font-stretch:normal;line-height:0%;font-family:'DejaVu Sans';-inkscape-font-specification:'DejaVu Sans';display:inline;fill:#000000;fill-opacity:1;stroke:none;enable-background:new"
         inkscape:label="context"
         id="context"><tspan
           style="font-style:normal;font-variant:normal;font-weight:normal;font-stretch:normal;font-size:18px;line-height:1.25;font-family:'DejaVu Sans';-inkscape-font-specification:'DejaVu Sans'"
           y="-8.2548828"
           x="19.006836"
           sodipodi:role="line"
           id="tspan3933">legacy</tspan></text>
      <text
         y="-8.2548828"
         xml:space="preserve"
         x="146.48828"
         style="font-style:normal;font-variant:normal;font-weight:bold;font-stretch:normal;line-height:0%;font-family:'DejaVu Sans';-inkscape-font-specification:'DejaVu Sans Bold';text-align:start;writing-mode:lr-tb;text-anchor:start;display:inline;fill:#000000;fill-opacity:1;stroke:none;enable-background:new"
         inkscape:label="icon-name"
         id="icon-name"><tspan
           style="font-style:normal;font-variant:normal;font-weight:bold;font-stretch:normal;font-size:18px;line-height:1.25;font-family:'DejaVu Sans';-inkscape-font-specification:'DejaVu Sans Bold'"
           y="-8.2548828"
           x="146.48828"
           sodipodi:role="line"
           id="tspan924">tool-pointer</tspan></text>
      <rect
         style="display:inline;overflow:visible;visibility:visible;fill:#cdcdcd;fill-opacity:1;fill-rule:nonzero;stroke:none;stroke-width:2;marker:none;enable-background:accumulate"
         id="rect16x16"
         width="16"
         height="16"
         x="320"
         y="236"
         inkscape:label="16x16" />
      <rect
         style="display:inline;overflow:visible;visibility:visible;fill:#cdcdcd;fill-opacity:1;fill-rule:nonzero;stroke:none;stroke-width:2;marker:none;enable-background:accumulate"
         id="rect24x24"
         width="24"
         height="24"
         x="320"
         y="188"
         inkscape:label="24x24" />
      <rect
         style="display:inline;overflow:visible;visibility:visible;fill:#cdcdcd;fill-opacity:1;fill-rule:nonzero;stroke:none;stroke-width:2;marker:none;enable-background:accumulate"
         id="rect32x32"
         width="32"
         height="32"
         x="320"
         y="132"
         inkscape:label="32x32" />
      <rect
         inkscape:label="48x48"
         y="60"
         x="320"
         height="48"
         width="48"
         id="rect48x48"
         style="display:inline;overflow:visible;visibility:visible;fill:#cdcdcd;fill-opacity:1;fill-rule:nonzero;stroke:none;stroke-width:2;marker:none;enable-background:accumulate" />
      <rect
         style="display:inline;overflow:visible;visibility:visible;fill:#cdcdcd;fill-opacity:1;fill-rule:nonzero;stroke:none;stroke-width:2;marker:none;enable-background:accumulate"
         id="rect3951"
         width="256"
         height="256"
         x="24"
         y="28"
         inkscape:label="48x48" />
      <rect
         style="display:inline;overflow:visible;visibility:visible;fill:#cdcdcd;fill-opacity:1;fill-rule:nonzero;stroke:none;stroke-width:1.83333;marker:none;enable-background:accumulate"
         id="rect24x24-1"
         width="22"
         height="22"
         x="372"
         y="190"
         inkscape:label="24x24" />
    </g>
    <g
       inkscape:groupmode="layer"
       id="layer2"
       inkscape:label="Background"
       style="display:inline" />
    <g
       inkscape:groupmode="layer"
       id="layer6"
       inkscape:label="Pictogram"
       style="display:inline">
      <g
         stroke-width="0.758851"
         id="g11"
         transform="matrix(1.1264315,0,0,1.0813802,322.80392,190.08808)">
        <path
           d="M 3.2341734,2.0073307 V 14.148945 c 3.8e-5,0.397319 0.3615318,0.758813 0.7588509,0.758851 0,0 2.9462994,-0.955727 2.8277289,-0.922262 l 1.9388034,2.961674 c 0.223603,0.224058 0.5944686,0.284197 0.8774214,0.142284 l 0.765271,-0.363929 c 0.248857,-0.120991 0.420092,-0.387363 0.426853,-0.663995 l -0.663903,-3.53346 2.720609,-1.272282 c 0.277345,-0.280532 0.277345,-0.786602 0,-1.067134 L 4.5384484,1.4619066 C 3.9161983,0.83965641 3.2214247,1.2838726 3.2341734,2.0073307 Z"
           filter="url(#a)"
           opacity="0.2"
           id="path5" />
        <path
           d="M 3.2341734,2.0073307 V 14.148945 c 3.8e-5,0.397319 0.3615318,0.758813 0.7588509,0.758851 0,0 2.9462994,-0.955727 2.8277289,-0.922262 l 1.9388034,2.961674 c 0.223603,0.224058 0.5944686,0.284197 0.8774214,0.142284 l 0.765271,-0.363929 c 0.248857,-0.120991 0.420092,-0.387363 0.426853,-0.663995 l -0.663903,-3.53346 2.720609,-1.272282 c 0.277345,-0.280532 0.277345,-0.786602 0,-1.067134 L 4.5384484,1.4619066 C 3.9161983,0.83965641 3.2214247,1.2838726 3.2341734,2.0073307 Z"
           id="path7" />
        <path
           d="M 3.9930243,14.139217 V 1.9976022 l 8.3473597,8.7267858 -2.934036,1.485708 0.692224,3.866308 -0.7935913,0.339365 -2.1759443,-3.198814 z"
           fill="#12a327"
           id="path9" />
      </g>
      <g
         stroke-width="0.758851"
         id="g6465"
         transform="matrix(1.0240247,0,0,0.98306911,374.63996,191.9892)">
        <path
           d="M 3.2341734,2.0073307 V 14.148945 c 3.8e-5,0.397319 0.3615318,0.758813 0.7588509,0.758851 0,0 2.9462994,-0.955727 2.8277289,-0.922262 l 1.9388034,2.961674 c 0.223603,0.224058 0.5944686,0.284197 0.8774214,0.142284 l 0.765271,-0.363929 c 0.248857,-0.120991 0.420092,-0.387363 0.426853,-0.663995 l -0.663903,-3.53346 2.720609,-1.272282 c 0.277345,-0.280532 0.277345,-0.786602 0,-1.067134 L 4.5384484,1.4619066 C 3.9161983,0.83965641 3.2214247,1.2838726 3.2341734,2.0073307 Z"
           filter="url(#a)"
           opacity="0.2"
           id="path6459" />
        <path
           d="M 3.2341734,2.0073307 V 14.148945 c 3.8e-5,0.397319 0.3615318,0.758813 0.7588509,0.758851 0,0 2.9462994,-0.955727 2.8277289,-0.922262 l 1.9388034,2.961674 c 0.223603,0.224058 0.5944686,0.284197 0.8774214,0.142284 l 0.765271,-0.363929 c 0.248857,-0.120991 0.420092,-0.387363 0.426853,-0.663995 l -0.663903,-3.53346 2.720609,-1.272282 c 0.277345,-0.280532 0.277345,-0.786602 0,-1.067134 L 4.5384484,1.4619066 C 3.9161983,0.83965641 3.2214247,1.2838726 3.2341734,2.0073307 Z"
           id="path6461" />
        <path
           d="M 3.9930243,14.139217 V 1.9976022 l 8.3473597,8.7267858 -2.934036,1.485708 0.692224,3.866308 -0.7935913,0.339365 -2.1759443,-3.198814 z"
           fill="#12a327"
           id="path6463" />
      </g>
      <g
         stroke-width="0.758851"
         id="g6473"
         transform="matrix(0.76801853,0,0,0.73730184,321.72997,237.2419)">
        <path
           d="M 3.2341734,2.0073307 V 14.148945 c 3.8e-5,0.397319 0.3615318,0.758813 0.7588509,0.758851 0,0 2.9462994,-0.955727 2.8277289,-0.922262 l 1.9388034,2.961674 c 0.223603,0.224058 0.5944686,0.284197 0.8774214,0.142284 l 0.765271,-0.363929 c 0.248857,-0.120991 0.420092,-0.387363 0.426853,-0.663995 l -0.663903,-3.53346 2.720609,-1.272282 c 0.277345,-0.280532 0.277345,-0.786602 0,-1.067134 L 4.5384484,1.4619066 C 3.9161983,0.83965641 3.2214247,1.2838726 3.2341734,2.0073307 Z"
           filter="url(#a)"
           opacity="0.2"
           id="path6467" />
        <path
           d="M 3.2341734,2.0073307 V 14.148945 c 3.8e-5,0.397319 0.3615318,0.758813 0.7588509,0.758851 0,0 2.9462994,-0.955727 2.8277289,-0.922262 l 1.9388034,2.961674 c 0.223603,0.224058 0.5944686,0.284197 0.8774214,0.142284 l 0.765271,-0.363929 c 0.248857,-0.120991 0.420092,-0.387363 0.426853,-0.663995 l -0.663903,-3.53346 2.720609,-1.272282 c 0.277345,-0.280532 0.277345,-0.786602 0,-1.067134 L 4.5384484,1.4619066 C 3.9161983,0.83965641 3.2214247,1.2838726 3.2341734,2.0073307 Z"
           id="path6469" />
        <path
           d="M 3.9930243,14.139217 V 1.9976022 l 8.3473597,8.7267858 -2.934036,1.485708 0.692224,3.866308 -0.7935913,0.339365 -2.1759443,-3.198814 z"
           fill="#12a327"
           id="path6471" />
      </g>
      <g
         stroke-width="0.758851"
         id="g6481"
         transform="matrix(1.5360371,0,0,1.4746037,323.45993,134.4838)">
        <path
           d="M 3.2341734,2.0073307 V 14.148945 c 3.8e-5,0.397319 0.3615318,0.758813 0.7588509,0.758851 0,0 2.9462994,-0.955727 2.8277289,-0.922262 l 1.9388034,2.961674 c 0.223603,0.224058 0.5944686,0.284197 0.8774214,0.142284 l 0.765271,-0.363929 c 0.248857,-0.120991 0.420092,-0.387363 0.426853,-0.663995 l -0.663903,-3.53346 2.720609,-1.272282 c 0.277345,-0.280532 0.277345,-0.786602 0,-1.067134 L 4.5384484,1.4619066 C 3.9161983,0.83965641 3.2214247,1.2838726 3.2341734,2.0073307 Z"
           filter="url(#a)"
           opacity="0.2"
           id="path6475" />
        <path
           d="M 3.2341734,2.0073307 V 14.148945 c 3.8e-5,0.397319 0.3615318,0.758813 0.7588509,0.758851 0,0 2.9462994,-0.955727 2.8277289,-0.922262 l 1.9388034,2.961674 c 0.223603,0.224058 0.5944686,0.284197 0.8774214,0.142284 l 0.765271,-0.363929 c 0.248857,-0.120991 0.420092,-0.387363 0.426853,-0.663995 l -0.663903,-3.53346 2.720609,-1.272282 c 0.277345,-0.280532 0.277345,-0.786602 0,-1.067134 L 4.5384484,1.4619066 C 3.9161983,0.83965641 3.2214247,1.2838726 3.2341734,2.0073307 Z"
           id="path6477" />
        <path
           d="M 3.9930243,14.139217 V 1.9976022 l 8.3473597,8.7267858 -2.934036,1.485708 0.692224,3.866308 -0.7935913,0.339365 -2.1759443,-3.198814 z"
           fill="#12a327"
           id="path6479" />
      </g>
      <g
         stroke-width="0.758851"
         id="g6489"
         transform="matrix(2.3552568,0,0,2.261059,324.7719,63.275161)">
        <path
           d="M 3.2341734,2.0073307 V 14.148945 c 3.8e-5,0.397319 0.3615318,0.758813 0.7588509,0.758851 0,0 2.9462994,-0.955727 2.8277289,-0.922262 l 1.9388034,2.961674 c 0.223603,0.224058 0.5944686,0.284197 0.8774214,0.142284 l 0.765271,-0.363929 c 0.248857,-0.120991 0.420092,-0.387363 0.426853,-0.663995 l -0.663903,-3.53346 2.720609,-1.272282 c 0.277345,-0.280532 0.277345,-0.786602 0,-1.067134 L 4.5384484,1.4619066 C 3.9161983,0.83965641 3.2214247,1.2838726 3.2341734,2.0073307 Z"
           filter="url(#a)"
           opacity="0.2"
           id="path6483" />
        <path
           d="M 3.2341734,2.0073307 V 14.148945 c 3.8e-5,0.397319 0.3615318,0.758813 0.7588509,0.758851 0,0 2.9462994,-0.955727 2.8277289,-0.922262 l 1.9388034,2.961674 c 0.223603,0.224058 0.5944686,0.284197 0.8774214,0.142284 l 0.765271,-0.363929 c 0.248857,-0.120991 0.420092,-0.387363 0.426853,-0.663995 l -0.663903,-3.53346 2.720609,-1.272282 c 0.277345,-0.280532 0.277345,-0.786602 0,-1.067134 L 4.5384484,1.4619066 C 3.9161983,0.83965641 3.2214247,1.2838726 3.2341734,2.0073307 Z"
           id="path6485" />
        <path
           d="M 3.9930243,14.139217 V 1.9976022 l 8.3473597,8.7267858 -2.934036,1.485708 0.692224,3.866308 -0.7935913,0.339365 -2.1759443,-3.198814 z"
           fill="#12a327"
           id="path6487" />
      </g>
      <g
         stroke-width="0.758851"
         id="g6497"
         transform="matrix(11.469076,0,0,11.010374,58.36751,55.079049)">
        <path
           d="M 3.2341734,2.0073307 V 14.148945 c 3.8e-5,0.397319 0.3615318,0.758813 0.7588509,0.758851 0,0 2.9462994,-0.955727 2.8277289,-0.922262 l 1.9388034,2.961674 c 0.223603,0.224058 0.5944686,0.284197 0.8774214,0.142284 l 0.765271,-0.363929 c 0.248857,-0.120991 0.420092,-0.387363 0.426853,-0.663995 l -0.663903,-3.53346 2.720609,-1.272282 c 0.277345,-0.280532 0.277345,-0.786602 0,-1.067134 L 4.5384484,1.4619066 C 3.9161983,0.83965641 3.2214247,1.2838726 3.2341734,2.0073307 Z"
           filter="url(#a)"
           opacity="0.2"
           id="path6491" />
        <path
           d="M 3.2341734,2.0073307 V 14.148945 c 3.8e-5,0.397319 0.3615318,0.758813 0.7588509,0.758851 0,0 2.9462994,-0.955727 2.8277289,-0.922262 l 1.9388034,2.961674 c 0.223603,0.224058 0.5944686,0.284197 0.8774214,0.142284 l 0.765271,-0.363929 c 0.248857,-0.120991 0.420092,-0.387363 0.426853,-0.663995 l -0.663903,-3.53346 2.720609,-1.272282 c 0.277345,-0.280532 0.277345,-0.786602 0,-1.067134 L 4.5384484,1.4619066 C 3.9161983,0.83965641 3.2214247,1.2838726 3.2341734,2.0073307 Z"
           id="path6493" />
        <path
           d="M 3.9930243,14.139217 V 1.9976022 l 8.3473597,8.7267858 -2.934036,1.485708 0.692224,3.866308 -0.7935913,0.339365 -2.1759443,-3.198814 z"
           fill="#12a327"
           id="path6495" />
      </g>
    </g>
  </g>
</svg>
