<?xml version="1.0" encoding="UTF-8" standalone="no"?>
<svg
   inkscape:export-ydpi="96"
   inkscape:export-xdpi="96"
   width="400"
   height="300"
   id="svg11300"
   sodipodi:version="0.32"
   inkscape:version="1.2.2 (b0a8486541, 2022-12-01)"
   sodipodi:docname="bluetooth-active.svg"
   inkscape:output_extension="org.inkscape.output.svg.inkscape"
   version="1.0"
   style="display:inline;enable-background:new"
   inkscape:export-filename="C:\Users\sblav\Pictures\bluetooth oblong.png"
   xmlns:inkscape="http://www.inkscape.org/namespaces/inkscape"
   xmlns:sodipodi="http://sodipodi.sourceforge.net/DTD/sodipodi-0.dtd"
   xmlns:xlink="http://www.w3.org/1999/xlink"
   xmlns="http://www.w3.org/2000/svg"
   xmlns:svg="http://www.w3.org/2000/svg"
   xmlns:rdf="http://www.w3.org/1999/02/22-rdf-syntax-ns#"
   xmlns:cc="http://creativecommons.org/ns#"
   xmlns:dc="http://purl.org/dc/elements/1.1/">
  <title
     id="title3004">Suru Icon Theme Template</title>
  <sodipodi:namedview
     stroke="#ef2929"
     fill="#f57900"
     id="base"
     pagecolor="#ffffff"
     bordercolor="#000000"
     borderopacity="0.25490196"
     inkscape:pageopacity="0"
     inkscape:pageshadow="2"
     inkscape:zoom="2.8284272"
     inkscape:cx="321.02647"
     inkscape:cy="248.54803"
     inkscape:current-layer="layer8"
     showgrid="false"
     inkscape:grid-bbox="true"
     inkscape:document-units="px"
     inkscape:showpageshadow="false"
     inkscape:window-width="1920"
     inkscape:window-height="1020"
     inkscape:window-x="0"
     inkscape:window-y="32"
     width="400px"
     height="300px"
     inkscape:snap-nodes="true"
     inkscape:snap-bbox="true"
     gridtolerance="10000"
     inkscape:object-nodes="true"
     inkscape:snap-grids="true"
     showguides="true"
     inkscape:guide-bbox="true"
     inkscape:window-maximized="1"
     inkscape:bbox-paths="true"
     inkscape:snap-bbox-midpoints="true"
     inkscape:snap-global="true"
     inkscape:object-paths="true"
     inkscape:snap-intersection-paths="true"
     inkscape:snap-smooth-nodes="true"
     inkscape:pagecheckerboard="false"
     showborder="false"
     inkscape:document-rotation="0"
     inkscape:deskcolor="#d1d1d1">
    <inkscape:grid
       spacingy="1"
       spacingx="1"
       id="grid5883"
       type="xygrid"
       enabled="true"
       visible="true"
       empspacing="4"
       snapvisiblegridlinesonly="true"
       originx="0"
       originy="0" />
    <inkscape:grid
       type="xygrid"
       id="grid11592"
       empspacing="2"
       visible="true"
       enabled="false"
       spacingx="0.5"
       spacingy="0.5"
       color="#ff0000"
       opacity="0.1254902"
       empcolor="#ff0000"
       empopacity="0.25098039"
       snapvisiblegridlinesonly="true"
       originx="0"
       originy="0" />
  </sodipodi:namedview>
  <defs
     id="defs3">
    <linearGradient
       id="a"
       x2="1"
       gradientTransform="matrix(-3.4903633,-223.91966,223.91966,-3.4903633,152,267.99999)"
       gradientUnits="userSpaceOnUse">
      <stop
         stop-color="#026e8b"
         offset="0"
         id="stop2" />
      <stop
         stop-color="#1dc2f3"
         offset="1"
         id="stop4" />
    </linearGradient>
    <linearGradient
       inkscape:collect="always"
       xlink:href="#a"
       id="linearGradient321"
       gradientUnits="userSpaceOnUse"
       gradientTransform="matrix(-0.70118907,-44.983861,44.983861,-0.70118907,344,106.5)"
       x2="1" />
    <linearGradient
       inkscape:collect="always"
       xlink:href="#a"
       id="linearGradient341"
       gradientUnits="userSpaceOnUse"
       gradientTransform="matrix(-0.45187737,-28.989598,28.989598,-0.45187737,336,162.5)"
       x2="1" />
    <linearGradient
       inkscape:collect="always"
       xlink:href="#a"
       id="linearGradient343"
       gradientUnits="userSpaceOnUse"
       gradientTransform="matrix(-0.35838551,-22.99175,22.99175,-0.35838551,332,211.5)"
       x2="1" />
    <linearGradient
       inkscape:collect="always"
       xlink:href="#a"
       id="linearGradient345"
       gradientUnits="userSpaceOnUse"
       gradientTransform="matrix(-0.2337297,-14.994621,14.994621,-0.2337297,328,251.5)"
       x2="1" />
    <linearGradient
       inkscape:collect="always"
       xlink:href="#a"
       id="linearGradient347"
       gradientUnits="userSpaceOnUse"
       gradientTransform="matrix(-3.4903633,-223.91966,223.91966,-3.4903633,152,267.99999)"
       x2="1" />
  </defs>
  <metadata
     id="metadata4">
    <rdf:RDF>
      <cc:Work
         rdf:about="">
        <dc:format>image/svg+xml</dc:format>
        <dc:type
           rdf:resource="http://purl.org/dc/dcmitype/StillImage" />
        <dc:creator>
          <cc:Agent>
            <dc:title>Sam Hewitt</dc:title>
          </cc:Agent>
        </dc:creator>
        <dc:source />
        <cc:license
           rdf:resource="http://creativecommons.org/licenses/by-sa/4.0/" />
        <dc:title>Suru Icon Theme Template</dc:title>
        <dc:subject>
          <rdf:Bag />
        </dc:subject>
        <dc:date />
        <dc:rights>
          <cc:Agent>
            <dc:title />
          </cc:Agent>
        </dc:rights>
        <dc:publisher>
          <cc:Agent>
            <dc:title />
          </cc:Agent>
        </dc:publisher>
        <dc:identifier />
        <dc:relation />
        <dc:language />
        <dc:coverage />
        <dc:description />
        <dc:contributor>
          <cc:Agent>
            <dc:title />
          </cc:Agent>
        </dc:contributor>
      </cc:Work>
      <cc:Work
         rdf:about="">
        <dc:format>image/svg+xml</dc:format>
        <dc:type
           rdf:resource="http://purl.org/dc/dcmitype/StillImage" />
      </cc:Work>
      <cc:License
         rdf:about="http://creativecommons.org/licenses/by-sa/4.0/">
        <cc:permits
           rdf:resource="http://creativecommons.org/ns#Reproduction" />
        <cc:permits
           rdf:resource="http://creativecommons.org/ns#Distribution" />
        <cc:requires
           rdf:resource="http://creativecommons.org/ns#Notice" />
        <cc:requires
           rdf:resource="http://creativecommons.org/ns#Attribution" />
        <cc:permits
           rdf:resource="http://creativecommons.org/ns#DerivativeWorks" />
        <cc:requires
           rdf:resource="http://creativecommons.org/ns#ShareAlike" />
      </cc:License>
    </rdf:RDF>
  </metadata>
  <g
     style="display:inline"
     inkscape:groupmode="layer"
     inkscape:label="Icon"
     id="layer1">
    <g
       style="display:none"
       inkscape:label="Baseplate"
       id="layer7"
       inkscape:groupmode="layer"
       sodipodi:insensitive="true">
      <text
         y="-8.2548828"
         xml:space="preserve"
         x="19.006836"
         style="font-style:normal;font-variant:normal;font-weight:normal;font-stretch:normal;line-height:0%;font-family:'DejaVu Sans';-inkscape-font-specification:'DejaVu Sans';display:inline;fill:#000000;fill-opacity:1;stroke:none;enable-background:new"
         inkscape:label="context"
         id="context"><tspan
           style="font-style:normal;font-variant:normal;font-weight:normal;font-stretch:normal;font-size:18px;line-height:1.25;font-family:'DejaVu Sans';-inkscape-font-specification:'DejaVu Sans'"
           y="-8.2548828"
           x="19.006836"
           sodipodi:role="line"
           id="tspan3933">status</tspan></text>
      <text
         y="-8.2548828"
         xml:space="preserve"
         x="146.48828"
         style="font-style:normal;font-variant:normal;font-weight:bold;font-stretch:normal;line-height:0%;font-family:'DejaVu Sans';-inkscape-font-specification:'DejaVu Sans Bold';text-align:start;writing-mode:lr-tb;text-anchor:start;display:inline;fill:#000000;fill-opacity:1;stroke:none;enable-background:new"
         inkscape:label="icon-name"
         id="icon-name"><tspan
           style="font-style:normal;font-variant:normal;font-weight:bold;font-stretch:normal;font-size:18px;line-height:1.25;font-family:'DejaVu Sans';-inkscape-font-specification:'DejaVu Sans Bold'"
           y="-8.2548828"
           x="146.48828"
           sodipodi:role="line"
           id="tspan3937">bluetooth-active</tspan></text>
      <rect
         style="display:inline;overflow:visible;visibility:visible;fill:#cdcdcd;fill-opacity:1;fill-rule:nonzero;stroke:none;stroke-width:2;marker:none;enable-background:accumulate"
         id="rect16x16"
         width="16"
         height="16"
         x="320"
         y="236"
         inkscape:label="16x16" />
      <rect
         style="display:inline;overflow:visible;visibility:visible;fill:#cdcdcd;fill-opacity:1;fill-rule:nonzero;stroke:none;stroke-width:2;marker:none;enable-background:accumulate"
         id="rect24x24"
         width="24"
         height="24"
         x="320"
         y="188"
         inkscape:label="24x24" />
      <rect
         style="display:inline;overflow:visible;visibility:visible;fill:#cdcdcd;fill-opacity:1;fill-rule:nonzero;stroke:none;stroke-width:2;marker:none;enable-background:accumulate"
         id="rect32x32"
         width="32"
         height="32"
         x="320"
         y="132"
         inkscape:label="32x32" />
      <rect
         inkscape:label="48x48"
         y="60"
         x="320"
         height="48"
         width="48"
         id="rect48x48"
         style="display:inline;overflow:visible;visibility:visible;fill:#cdcdcd;fill-opacity:1;fill-rule:nonzero;stroke:none;stroke-width:2;marker:none;enable-background:accumulate" />
      <rect
         style="display:inline;overflow:visible;visibility:visible;fill:#cdcdcd;fill-opacity:1;fill-rule:nonzero;stroke:none;stroke-width:2;marker:none;enable-background:accumulate"
         id="rect3951"
         width="256"
         height="256"
         x="24"
         y="28"
         inkscape:label="48x48" />
    </g>
    <g
       inkscape:groupmode="layer"
       id="layer8"
       inkscape:label="Backgrounds"
       style="display:inline">
      <path
         d="m 152,76.000001 c -29.45739,0 -53.332177,23.878262 -53.332177,53.332179 v 53.33565 C 98.667823,212.12174 122.54261,236 152,236 c 29.45739,0 53.33218,-23.87826 53.33218,-53.33217 V 129.33218 C 205.33218,99.878263 181.45739,76.000001 152,76.000001 Z"
         fill="url(#a)"
         fill-rule="nonzero"
         id="path203"
         style="display:inline;fill:#00ff00;fill-opacity:1;stroke-width:3.47826;enable-background:new"
         sodipodi:nodetypes="sssssss" />
      <path
         d="m 152,43.999998 c -41.24035,0 -74.66505,33.429567 -74.66505,74.665052 v 74.6699 C 77.33495,234.57043 110.75965,268 152,268 c 41.24035,0 74.66505,-33.42957 74.66505,-74.66505 v -74.6699 c 0,-41.235485 -33.4247,-74.665052 -74.66505,-74.665052 z m 43.16383,139.459482 c 1.68,1.34887 2.65878,3.38922 2.65878,5.54644 0,2.1572 -0.97878,4.19755 -2.65878,5.54642 l -44.58575,35.73774 c -1.28556,1.03235 -2.85843,1.56313 -4.44591,1.56313 -1.04696,0 -2.09878,-0.22887 -3.07756,-0.70122 -2.464,-1.1833 -4.032,-3.67165 -4.032,-6.40834 v -51.03791 l -21.27027,17.19443 c -1.31478,1.06643 -2.89252,1.5826 -4.46539,1.5826 -2.06956,0 -4.12452,-0.90086 -5.53183,-2.63929 -2.46886,-3.05322 -1.99165,-7.53322 1.06157,-9.99722 l 29.48522,-23.83652 -29.48522,-23.83652 c -3.05322,-2.46887 -3.53043,-6.944 -1.06157,-9.99722 2.46888,-3.05321 6.94401,-3.52556 9.99722,-1.0567 l 21.27027,17.18957 V 87.256346 c 0,-2.731821 1.568,-5.22504 4.032,-6.408348 2.464,-1.183301 5.39061,-0.847302 7.52347,0.861915 l 44.58575,35.742607 c 1.68,1.34887 2.65878,3.38922 2.65878,5.54644 0,2.15722 -0.97878,4.19756 -2.65878,5.54644 L 160.9113,156 Z m -15.81635,5.54644 -26.10574,-20.93426 v 41.86363 z m 0,-66.00696 -26.10574,-20.93426 v 41.86365 z"
         fill="url(#a)"
         fill-rule="nonzero"
         id="path9"
         style="display:inline;fill:url(#linearGradient347);stroke-width:4.86957;enable-background:new" />
      <path
         d="m 344,67.928572 c -5.91777,0 -10.71405,4.796972 -10.71405,10.714054 v 10.714751 c 0,5.91708 4.79628,10.714053 10.71405,10.714053 5.91778,0 10.71406,-4.796973 10.71406,-10.714053 V 78.642626 c 0,-5.917082 -4.79628,-10.714054 -10.71406,-10.714054 z"
         fill="url(#a)"
         fill-rule="nonzero"
         id="path315"
         style="display:inline;fill:#00ff00;fill-opacity:1;stroke-width:0.698758;enable-background:new"
         sodipodi:nodetypes="sssssss" />
      <path
         d="m 344,61.499999 c -8.28489,0 -14.99967,6.715762 -14.99967,14.999676 v 15.00065 c 0,8.283914 6.71478,14.999675 14.99967,14.999675 8.2849,0 14.99968,-6.715761 14.99968,-14.999675 v -15.00065 c 0,-8.283914 -6.71478,-14.999676 -14.99968,-14.999676 z m 8.67131,28.016415 c 0.3375,0.270978 0.53413,0.68087 0.53413,1.11424 0,0.433366 -0.19663,0.843258 -0.53413,1.114236 l -8.95696,7.179457 c -0.25826,0.207392 -0.57424,0.314021 -0.89315,0.314021 -0.21033,0 -0.42163,-0.04598 -0.61826,-0.14087 -0.495,-0.237716 -0.81,-0.737608 -0.81,-1.287389 V 87.556957 l -4.27305,3.454238 c -0.26413,0.214238 -0.58108,0.317933 -0.89706,0.317933 -0.41576,0 -0.82859,-0.180976 -1.11131,-0.530214 -0.49597,-0.61337 -0.4001,-1.51337 0.21327,-2.00837 l 5.92337,-4.788587 -5.92337,-4.788587 c -0.61337,-0.495978 -0.70924,-1.395 -0.21327,-2.00837 0.49598,-0.613368 1.39501,-0.70826 2.00837,-0.212283 l 4.27305,3.453261 V 70.189891 c 0,-0.548803 0.315,-1.049673 0.81,-1.287391 0.495,-0.237717 1.08293,-0.170217 1.51141,0.173152 l 8.95696,7.180435 c 0.3375,0.270978 0.53413,0.68087 0.53413,1.11424 0,0.43337 -0.19663,0.84326 -0.53413,1.11424 L 345.79022,84 Z m -3.17739,1.11424 -5.24446,-4.205544 v 8.410105 z m 0,-13.260327 -5.24446,-4.205544 v 8.410109 z"
         fill="url(#a)"
         fill-rule="nonzero"
         id="path317"
         style="display:inline;fill:url(#linearGradient321);stroke-width:0.978262;enable-background:new" />
      <path
         d="m 328,238.64286 c -1.97259,0 -3.57135,1.59899 -3.57135,3.57135 v 3.57158 c 0,1.97236 1.59876,3.57135 3.57135,3.57135 1.9726,0 3.57135,-1.59899 3.57135,-3.57135 v -3.57158 c 0,-1.97236 -1.59875,-3.57135 -3.57135,-3.57135 z"
         fill="url(#a)"
         fill-rule="nonzero"
         id="path323"
         style="display:inline;fill:#00ff00;fill-opacity:1;stroke-width:0.232919;enable-background:new"
         sodipodi:nodetypes="sssssss" />
      <path
         d="m 328,236.5 c -2.76163,0 -4.99989,2.23859 -4.99989,4.99989 v 5.00022 c 0,2.7613 2.23826,4.99989 4.99989,4.99989 2.76163,0 4.99989,-2.23859 4.99989,-4.99989 v -5.00022 c 0,-2.7613 -2.23826,-4.99989 -4.99989,-4.99989 z m 2.89044,9.3388 c 0.1125,0.0903 0.17804,0.22696 0.17804,0.37142 0,0.14445 -0.0655,0.28108 -0.17804,0.37141 l -2.98566,2.39315 c -0.0861,0.0691 -0.19141,0.10468 -0.29771,0.10468 -0.0701,0 -0.14055,-0.0153 -0.20609,-0.047 -0.165,-0.0792 -0.27,-0.24587 -0.27,-0.42913 v -3.41772 l -1.42435,1.15141 c -0.088,0.0714 -0.19369,0.10598 -0.29902,0.10598 -0.13859,0 -0.2762,-0.0603 -0.37043,-0.17674 -0.16533,-0.20445 -0.13337,-0.50445 0.0711,-0.66945 l 1.97446,-1.5962 -1.97446,-1.59619 c -0.20445,-0.16533 -0.23641,-0.465 -0.0711,-0.66946 0.16532,-0.20446 0.465,-0.23609 0.66945,-0.0708 l 1.42435,1.15109 v -3.4187 c 0,-0.18294 0.105,-0.34989 0.27,-0.42913 0.165,-0.0792 0.36098,-0.0567 0.5038,0.0577 l 2.98566,2.39347 c 0.1125,0.0903 0.17804,0.22696 0.17804,0.37142 0,0.14445 -0.0655,0.28108 -0.17804,0.37141 L 328.59674,244 Z m -1.05913,0.37142 -1.74816,-1.40185 v 2.80337 z m 0,-4.42011 -1.74816,-1.40185 v 2.80337 z"
         fill="url(#a)"
         fill-rule="nonzero"
         id="path325"
         style="display:inline;fill:url(#linearGradient345);stroke-width:0.326087;enable-background:new" />
      <path
         d="m 332,191.78571 c -3.02464,0 -5.47607,2.45179 -5.47607,5.47607 v 5.47643 c 0,3.02429 2.45143,5.47607 5.47607,5.47607 3.02465,0 5.47607,-2.45178 5.47607,-5.47607 v -5.47643 c 0,-3.02428 -2.45142,-5.47607 -5.47607,-5.47607 z"
         fill="url(#a)"
         fill-rule="nonzero"
         id="path329"
         style="display:inline;fill:#00ff00;fill-opacity:1;stroke-width:0.357143;enable-background:new"
         sodipodi:nodetypes="sssssss" />
      <path
         d="m 332,188.5 c -4.2345,0 -7.6665,3.4325 -7.6665,7.6665 v 7.667 c 0,4.234 3.432,7.6665 7.6665,7.6665 4.2345,0 7.6665,-3.4325 7.6665,-7.6665 v -7.667 c 0,-4.234 -3.432,-7.6665 -7.6665,-7.6665 z m 4.432,14.3195 c 0.1725,0.1385 0.273,0.348 0.273,0.5695 0,0.2215 -0.1005,0.431 -0.273,0.5695 l -4.578,3.6695 c -0.132,0.106 -0.2935,0.1605 -0.4565,0.1605 -0.1075,0 -0.2155,-0.0235 -0.316,-0.072 -0.253,-0.1215 -0.414,-0.377 -0.414,-0.658 v -5.2405 l -2.184,1.7655 c -0.135,0.1095 -0.297,0.1625 -0.4585,0.1625 -0.2125,0 -0.4235,-0.0925 -0.568,-0.271 -0.2535,-0.3135 -0.2045,-0.7735 0.109,-1.0265 l 3.0275,-2.4475 -3.0275,-2.4475 c -0.3135,-0.2535 -0.3625,-0.713 -0.109,-1.0265 0.2535,-0.3135 0.713,-0.362 1.0265,-0.1085 l 2.184,1.765 v -5.242 c 0,-0.2805 0.161,-0.5365 0.414,-0.658 0.253,-0.1215 0.5535,-0.087 0.7725,0.0885 l 4.578,3.67 c 0.1725,0.1385 0.273,0.348 0.273,0.5695 0,0.2215 -0.1005,0.431 -0.273,0.5695 L 332.915,200 Z m -1.624,0.5695 -2.6805,-2.1495 v 4.2985 z m 0,-6.7775 -2.6805,-2.1495 v 4.2985 z"
         fill="url(#a)"
         fill-rule="nonzero"
         id="path331"
         style="display:inline;fill:url(#linearGradient343);stroke-width:0.5;enable-background:new" />
      <path
         d="m 336,137.64286 c -3.81368,0 -6.90461,3.09138 -6.90461,6.90461 v 6.90506 c 0,3.81323 3.09093,6.90461 6.90461,6.90461 3.81368,0 6.90461,-3.09138 6.90461,-6.90461 v -6.90506 c 0,-3.81323 -3.09093,-6.90461 -6.90461,-6.90461 z"
         fill="url(#a)"
         fill-rule="nonzero"
         id="path335"
         style="display:inline;fill:#00ff00;fill-opacity:1;stroke-width:0.45031;enable-background:new"
         sodipodi:nodetypes="sssssss" />
      <path
         d="m 336,133.5 c -5.33915,0 -9.66646,4.32793 -9.66646,9.66646 v 9.66708 c 0,5.33852 4.32731,9.66646 9.66646,9.66646 5.33915,0 9.66646,-4.32794 9.66646,-9.66646 v -9.66708 C 345.66646,137.82793 341.33915,133.5 336,133.5 Z m 5.58817,18.05502 c 0.2175,0.17463 0.34422,0.43878 0.34422,0.71807 0,0.27928 -0.12672,0.54343 -0.34422,0.71806 l -5.77226,4.62676 c -0.16643,0.13365 -0.37006,0.20237 -0.57558,0.20237 -0.13555,0 -0.27172,-0.0296 -0.39844,-0.0908 -0.319,-0.1532 -0.522,-0.47535 -0.522,-0.82966 v -6.60758 l -2.75374,2.22606 c -0.17022,0.13807 -0.37448,0.20489 -0.57811,0.20489 -0.26793,0 -0.53397,-0.11663 -0.71617,-0.34169 -0.31963,-0.39528 -0.25785,-0.97528 0.13743,-1.29428 l 3.81729,-3.08598 -3.81729,-3.08598 c -0.39528,-0.31963 -0.45706,-0.899 -0.13743,-1.29428 0.31963,-0.39528 0.899,-0.45644 1.29428,-0.13681 l 2.75374,2.22544 v -6.60948 c 0,-0.35367 0.203,-0.67646 0.522,-0.82965 0.319,-0.1532 0.69789,-0.1097 0.97402,0.11159 l 5.77226,4.62739 c 0.2175,0.17463 0.34422,0.43878 0.34422,0.71806 0,0.27928 -0.12672,0.54344 -0.34422,0.71807 L 337.1537,148 Z m -2.04765,0.71807 -3.37976,-2.71024 v 5.41984 z m 0,-8.54555 -3.37976,-2.71024 v 5.41985 z"
         fill="url(#a)"
         fill-rule="nonzero"
         id="path337"
         style="display:inline;fill:url(#linearGradient341);stroke-width:0.630435;enable-background:new" />
    </g>
    <g
       inkscape:groupmode="layer"
       id="layer6"
       inkscape:label="Pictograms"
       style="display:inline" />
    <g
       inkscape:groupmode="layer"
       id="layer5"
       inkscape:label="Highlights"
       style="display:inline" />
  </g>
</svg>
