<?xml version="1.0" encoding="UTF-8" standalone="no"?>
<svg
   inkscape:export-ydpi="90.000000"
   inkscape:export-xdpi="90.000000"
   width="400"
   height="300"
   id="svg11300"
   sodipodi:version="0.32"
   inkscape:version="1.1.2 (0a00cf5339, 2022-02-04)"
   sodipodi:docname="redshift-status-off.svg"
   inkscape:output_extension="org.inkscape.output.svg.inkscape"
   version="1.0"
   style="display:inline;enable-background:new"
   inkscape:export-filename="/home/sam/suru-template.png"
   xmlns:inkscape="http://www.inkscape.org/namespaces/inkscape"
   xmlns:sodipodi="http://sodipodi.sourceforge.net/DTD/sodipodi-0.dtd"
   xmlns="http://www.w3.org/2000/svg"
   xmlns:svg="http://www.w3.org/2000/svg"
   xmlns:rdf="http://www.w3.org/1999/02/22-rdf-syntax-ns#"
   xmlns:cc="http://creativecommons.org/ns#"
   xmlns:dc="http://purl.org/dc/elements/1.1/">
  <title
     id="title3004">Suru Icon Theme Template</title>
  <sodipodi:namedview
     stroke="#ef2929"
     fill="#f57900"
     id="base"
     pagecolor="#ffffff"
     bordercolor="#000000"
     borderopacity="0.25490196"
     inkscape:pageopacity="0"
     inkscape:pageshadow="2"
     inkscape:zoom="1"
     inkscape:cx="171"
     inkscape:cy="249"
     inkscape:current-layer="layer2"
     showgrid="false"
     inkscape:grid-bbox="true"
     inkscape:document-units="px"
     inkscape:showpageshadow="false"
     inkscape:window-width="1920"
     inkscape:window-height="1020"
     inkscape:window-x="0"
     inkscape:window-y="32"
     width="400px"
     height="300px"
     inkscape:snap-nodes="true"
     inkscape:snap-bbox="true"
     gridtolerance="10000"
     inkscape:object-nodes="true"
     inkscape:snap-grids="true"
     showguides="true"
     inkscape:guide-bbox="true"
     inkscape:window-maximized="1"
     inkscape:bbox-paths="true"
     inkscape:snap-bbox-midpoints="true"
     inkscape:snap-global="true"
     inkscape:object-paths="true"
     inkscape:snap-intersection-paths="true"
     inkscape:snap-smooth-nodes="true"
     inkscape:pagecheckerboard="false"
     showborder="false"
     inkscape:document-rotation="0">
    <inkscape:grid
       spacingy="1"
       spacingx="1"
       id="grid5883"
       type="xygrid"
       enabled="true"
       visible="true"
       empspacing="4"
       snapvisiblegridlinesonly="true"
       originx="0"
       originy="0" />
    <inkscape:grid
       type="xygrid"
       id="grid11592"
       empspacing="2"
       visible="true"
       enabled="false"
       spacingx="0.5"
       spacingy="0.5"
       color="#ff0000"
       opacity="0.1254902"
       empcolor="#ff0000"
       empopacity="0.25098039"
       snapvisiblegridlinesonly="true"
       originx="0"
       originy="0" />
  </sodipodi:namedview>
  <defs
     id="defs3" />
  <metadata
     id="metadata4">
    <rdf:RDF>
      <cc:Work
         rdf:about="">
        <dc:format>image/svg+xml</dc:format>
        <dc:type
           rdf:resource="http://purl.org/dc/dcmitype/StillImage" />
        <dc:creator>
          <cc:Agent>
            <dc:title>Sam Hewitt</dc:title>
          </cc:Agent>
        </dc:creator>
        <dc:source />
        <cc:license
           rdf:resource="http://creativecommons.org/licenses/by-sa/4.0/" />
        <dc:title>Suru Icon Theme Template</dc:title>
        <dc:subject>
          <rdf:Bag />
        </dc:subject>
        <dc:date />
        <dc:rights>
          <cc:Agent>
            <dc:title />
          </cc:Agent>
        </dc:rights>
        <dc:publisher>
          <cc:Agent>
            <dc:title />
          </cc:Agent>
        </dc:publisher>
        <dc:identifier />
        <dc:relation />
        <dc:language />
        <dc:coverage />
        <dc:description />
        <dc:contributor>
          <cc:Agent>
            <dc:title />
          </cc:Agent>
        </dc:contributor>
      </cc:Work>
      <cc:Work
         rdf:about="">
        <dc:format>image/svg+xml</dc:format>
        <dc:type
           rdf:resource="http://purl.org/dc/dcmitype/StillImage" />
      </cc:Work>
      <cc:License
         rdf:about="http://creativecommons.org/licenses/by-sa/4.0/">
        <cc:permits
           rdf:resource="http://creativecommons.org/ns#Reproduction" />
        <cc:permits
           rdf:resource="http://creativecommons.org/ns#Distribution" />
        <cc:requires
           rdf:resource="http://creativecommons.org/ns#Notice" />
        <cc:requires
           rdf:resource="http://creativecommons.org/ns#Attribution" />
        <cc:permits
           rdf:resource="http://creativecommons.org/ns#DerivativeWorks" />
        <cc:requires
           rdf:resource="http://creativecommons.org/ns#ShareAlike" />
      </cc:License>
    </rdf:RDF>
  </metadata>
  <g
     style="display:inline"
     inkscape:groupmode="layer"
     inkscape:label="Icon"
     id="layer1">
    <g
       style="display:none"
       inkscape:label="Baseplate"
       id="layer7"
       inkscape:groupmode="layer">
      <text
         y="-8.2548828"
         xml:space="preserve"
         x="19.006836"
         style="font-style:normal;font-variant:normal;font-weight:normal;font-stretch:normal;line-height:0%;font-family:'DejaVu Sans';-inkscape-font-specification:'DejaVu Sans';display:inline;fill:#000000;fill-opacity:1;stroke:none;enable-background:new"
         inkscape:label="context"
         id="context"><tspan
           style="font-style:normal;font-variant:normal;font-weight:normal;font-stretch:normal;font-size:18px;line-height:1.25;font-family:'DejaVu Sans';-inkscape-font-specification:'DejaVu Sans'"
           y="-8.2548828"
           x="19.006836"
           sodipodi:role="line"
           id="tspan3933">status</tspan></text>
      <text
         y="-8.2548828"
         xml:space="preserve"
         x="146.48828"
         style="font-style:normal;font-variant:normal;font-weight:bold;font-stretch:normal;line-height:0%;font-family:'DejaVu Sans';-inkscape-font-specification:'DejaVu Sans Bold';text-align:start;writing-mode:lr-tb;text-anchor:start;display:inline;fill:#000000;fill-opacity:1;stroke:none;enable-background:new"
         inkscape:label="icon-name"
         id="icon-name"><tspan
           style="font-style:normal;font-variant:normal;font-weight:bold;font-stretch:normal;font-size:18px;line-height:1.25;font-family:'DejaVu Sans';-inkscape-font-specification:'DejaVu Sans Bold'"
           y="-8.2548828"
           x="146.48828"
           sodipodi:role="line"
           id="tspan924">redshift-status-off</tspan></text>
      <rect
         style="display:inline;overflow:visible;visibility:visible;fill:#cdcdcd;fill-opacity:1;fill-rule:nonzero;stroke:none;stroke-width:2;marker:none;enable-background:accumulate"
         id="rect16x16"
         width="16"
         height="16"
         x="320"
         y="236"
         inkscape:label="16x16" />
      <rect
         style="display:inline;overflow:visible;visibility:visible;fill:#cdcdcd;fill-opacity:1;fill-rule:nonzero;stroke:none;stroke-width:2;marker:none;enable-background:accumulate"
         id="rect24x24"
         width="24"
         height="24"
         x="320"
         y="188"
         inkscape:label="24x24" />
      <rect
         style="display:inline;overflow:visible;visibility:visible;fill:#cdcdcd;fill-opacity:1;fill-rule:nonzero;stroke:none;stroke-width:2;marker:none;enable-background:accumulate"
         id="rect32x32"
         width="32"
         height="32"
         x="320"
         y="132"
         inkscape:label="32x32" />
      <rect
         inkscape:label="48x48"
         y="60"
         x="320"
         height="48"
         width="48"
         id="rect48x48"
         style="display:inline;overflow:visible;visibility:visible;fill:#cdcdcd;fill-opacity:1;fill-rule:nonzero;stroke:none;stroke-width:2;marker:none;enable-background:accumulate" />
      <rect
         style="display:inline;overflow:visible;visibility:visible;fill:#cdcdcd;fill-opacity:1;fill-rule:nonzero;stroke:none;stroke-width:2;marker:none;enable-background:accumulate"
         id="rect3951"
         width="256"
         height="256"
         x="24"
         y="28"
         inkscape:label="48x48" />
    </g>
    <g
       inkscape:groupmode="layer"
       id="layer2"
       inkscape:label="Background"
       style="display:inline">
      <path
         id="path8992"
         d="m 152,44 a 78.400018,78.400018 0 0 1 78.40002,78.40002 c 0,26.656 -13.32792,50.06389 -33.59999,64.28801 v 25.31188 a 11.200003,11.200003 0 0 1 -11.20005,11.20005 H 118.40002 A 11.200003,11.200003 0 0 1 107.19996,211.99991 V 186.68803 C 86.92789,172.46391 73.59998,149.05602 73.59998,122.40002 A 78.400018,78.400018 0 0 1 152,44 m -33.59998,212.79995 v -11.19988 h 67.19996 v 11.19988 A 11.200003,11.200003 0 0 1 174.39993,268 H 129.60007 A 11.200003,11.200003 0 0 1 118.40002,256.79995 M 152,66.39993 a 56.000013,56.000013 0 0 0 -56.00009,56.00009 c 0,22.95996 13.77601,42.67199 33.60016,51.29591 v 27.10411 h 44.79986 v -27.10411 c 19.82414,-8.62392 33.60016,-28.33595 33.60016,-51.29591 A 56.000013,56.000013 0 0 0 152,66.39993 Z"
         inkscape:connector-curvature="0"
         style="display:inline;fill:#2a7fff;fill-opacity:1;stroke-width:17.9672;enable-background:new" />
      <path
         id="path9048"
         d="m 344,61 a 16.100004,16.100004 0 0 1 16.1,16.100004 c 0,5.474 -2.73698,10.280978 -6.89999,13.202002 v 5.197976 a 2.3000006,2.3000006 0 0 1 -2.30002,2.30001 H 337.1 a 2.3000006,2.3000006 0 0 1 -2.30001,-2.30001 v -5.197976 c -4.16301,-2.921024 -6.9,-7.728002 -6.9,-13.202002 A 16.100004,16.100004 0 0 1 344,61 m -6.9,43.69999 v -2.29998 h 13.79999 v 2.29998 A 2.3000006,2.3000006 0 0 1 348.59998,107 h -9.19997 A 2.3000006,2.3000006 0 0 1 337.1,104.69999 M 344,65.599986 a 11.500003,11.500003 0 0 0 -11.50002,11.500018 c 0,4.714992 2.829,8.762998 6.90003,10.533982 v 5.566022 h 9.19997 v -5.566022 c 4.07103,-1.770984 6.90004,-5.81899 6.90004,-10.533982 A 11.500003,11.500003 0 0 0 344,65.599986 Z"
         inkscape:connector-curvature="0"
         style="display:inline;fill:#2a7fff;fill-opacity:1;stroke-width:3.68969;enable-background:new" />
      <path
         id="path9052"
         d="m 336.00001,133.5 a 10.150003,10.150003 0 0 1 10.15,10.15 c 0,3.451 -1.72549,6.48149 -4.35001,8.323 v 3.27699 a 1.4500004,1.4500004 0 0 1 -1.45001,1.45 h -8.69998 a 1.4500004,1.4500004 0 0 1 -1.45002,-1.45 V 151.973 c -2.6245,-1.84151 -4.35,-4.872 -4.35,-8.323 a 10.150003,10.150003 0 0 1 10.15002,-10.15 m -4.35,27.54999 v -1.44998 H 340.35 v 1.44998 A 1.4500004,1.4500004 0 0 1 338.89999,162.5 H 333.1 a 1.4500004,1.4500004 0 0 1 -1.44999,-1.45001 m 4.35,-24.65 a 7.2500019,7.2500019 0 0 0 -7.25002,7.25001 c 0,2.9725 1.7835,5.5245 4.35001,6.64099 V 153.8 h 5.79999 v -3.50901 c 2.56652,-1.11649 4.35003,-3.66849 4.35003,-6.64099 a 7.2500019,7.2500019 0 0 0 -7.25001,-7.25001 z"
         inkscape:connector-curvature="0"
         style="display:inline;fill:#2a7fff;fill-opacity:1;stroke-width:2.32611;enable-background:new" />
      <path
         id="path9054"
         d="m 332.00001,188.5 a 8.0500024,8.0500024 0 0 1 8.05,8.05 c 0,2.737 -1.3685,5.14049 -3.45001,6.601 v 2.59899 a 1.1500003,1.1500003 0 0 1 -1.15001,1.15 h -6.89998 a 1.1500003,1.1500003 0 0 1 -1.15002,-1.15 V 203.151 c -2.0815,-1.46051 -3.45,-3.864 -3.45,-6.601 a 8.0500024,8.0500024 0 0 1 8.05002,-8.05 m -3.45,21.84999 v -1.14998 H 335.45 v 1.14998 A 1.1500003,1.1500003 0 0 1 334.29999,211.5 H 329.7 a 1.1500003,1.1500003 0 0 1 -1.14999,-1.15001 m 3.45,-19.55 a 5.7500015,5.7500015 0 0 0 -5.75002,5.75001 c 0,2.3575 1.4145,4.3815 3.45001,5.26699 V 204.6 h 4.59999 v -2.78301 c 2.03552,-0.88549 3.45002,-2.90949 3.45002,-5.26699 a 5.7500015,5.7500015 0 0 0 -5.75,-5.75001 z"
         inkscape:connector-curvature="0"
         style="display:inline;fill:#2a7fff;fill-opacity:1;stroke-width:1.84485;enable-background:new" />
      <path
         id="path9056"
         d="m 328,236.5 a 5.2500016,5.2500016 0 0 1 5.25,5.25 c 0,1.785 -0.8925,3.35249 -2.25,4.305 v 1.69499 a 0.7500002,0.7500002 0 0 1 -0.75,0.75 h -4.5 a 0.7500002,0.7500002 0 0 1 -0.75,-0.75 V 246.055 c -1.35751,-0.95251 -2.25,-2.52 -2.25,-4.305 A 5.2500016,5.2500016 0 0 1 328,236.5 m -2.25,14.24999 v -0.74998 h 4.5 v 0.74998 A 0.7500002,0.7500002 0 0 1 329.5,251.5 h -3 a 0.7500002,0.7500002 0 0 1 -0.75,-0.75001 m 2.25,-12.75 a 3.750001,3.750001 0 0 0 -3.75,3.75001 c 0,1.5375 0.9225,2.8575 2.25,3.43499 V 247 h 3 v -1.81501 c 1.3275,-0.57749 2.25,-1.89749 2.25,-3.43499 A 3.750001,3.750001 0 0 0 328,237.99999 Z"
         inkscape:connector-curvature="0"
         style="display:inline;fill:#2a7fff;fill-opacity:1;stroke-width:1.20316;enable-background:new" />
    </g>
    <g
       inkscape:groupmode="layer"
       id="layer6"
       inkscape:label="Pictogram"
       style="display:inline" />
  </g>
</svg>
