<?xml version="1.0" encoding="UTF-8" standalone="no"?>
<svg
   inkscape:export-ydpi="90.000000"
   inkscape:export-xdpi="90.000000"
   width="400"
   height="300"
   id="svg11300"
   sodipodi:version="0.32"
   inkscape:version="1.2.2 (b0a8486541, 2022-12-01)"
   sodipodi:docname="audio-speakers.svg"
   inkscape:output_extension="org.inkscape.output.svg.inkscape"
   version="1.0"
   style="display:inline;enable-background:new"
   inkscape:export-filename="/home/sam/suru-template.png"
   xmlns:inkscape="http://www.inkscape.org/namespaces/inkscape"
   xmlns:sodipodi="http://sodipodi.sourceforge.net/DTD/sodipodi-0.dtd"
   xmlns:xlink="http://www.w3.org/1999/xlink"
   xmlns="http://www.w3.org/2000/svg"
   xmlns:svg="http://www.w3.org/2000/svg"
   xmlns:rdf="http://www.w3.org/1999/02/22-rdf-syntax-ns#"
   xmlns:cc="http://creativecommons.org/ns#"
   xmlns:dc="http://purl.org/dc/elements/1.1/">
  <title
     id="title3004">Suru Icon Theme Template</title>
  <sodipodi:namedview
     stroke="#ef2929"
     fill="#f57900"
     id="base"
     pagecolor="#ffffff"
     bordercolor="#000000"
     borderopacity="0.25490196"
     inkscape:pageopacity="0"
     inkscape:pageshadow="2"
     inkscape:zoom="2.8284271"
     inkscape:cx="219.91021"
     inkscape:cy="159.45258"
     inkscape:current-layer="layer6"
     showgrid="false"
     inkscape:grid-bbox="true"
     inkscape:document-units="px"
     inkscape:showpageshadow="false"
     inkscape:window-width="1920"
     inkscape:window-height="1016"
     inkscape:window-x="0"
     inkscape:window-y="32"
     width="400px"
     height="300px"
     inkscape:snap-nodes="true"
     inkscape:snap-bbox="true"
     gridtolerance="10000"
     inkscape:object-nodes="true"
     inkscape:snap-grids="true"
     showguides="true"
     inkscape:guide-bbox="true"
     inkscape:window-maximized="1"
     inkscape:bbox-paths="true"
     inkscape:snap-bbox-midpoints="true"
     inkscape:snap-global="true"
     inkscape:object-paths="true"
     inkscape:snap-intersection-paths="true"
     inkscape:snap-smooth-nodes="true"
     inkscape:pagecheckerboard="false"
     showborder="false"
     inkscape:document-rotation="0"
     inkscape:deskcolor="#d1d1d1">
    <inkscape:grid
       spacingy="1"
       spacingx="1"
       id="grid5883"
       type="xygrid"
       enabled="true"
       visible="true"
       empspacing="4"
       snapvisiblegridlinesonly="true"
       originx="0"
       originy="0" />
    <inkscape:grid
       type="xygrid"
       id="grid11592"
       empspacing="2"
       visible="true"
       enabled="false"
       spacingx="0.5"
       spacingy="0.5"
       color="#ff0000"
       opacity="0.1254902"
       empcolor="#ff0000"
       empopacity="0.25098039"
       snapvisiblegridlinesonly="true"
       originx="0"
       originy="0" />
  </sodipodi:namedview>
  <defs
     id="defs3">
    <linearGradient
       id="a"
       gradientUnits="userSpaceOnUse"
       x1="31.88851"
       x2="32.239643"
       y1="58.761456"
       y2="5.7100277"
       gradientTransform="matrix(4.2678001,0,0,4.2678001,15.430399,19.430385)">
      <stop
         offset="0"
         stop-color="#1365f4"
         id="stop22" />
      <stop
         offset="1"
         stop-color="#05b2fc"
         id="stop24" />
    </linearGradient>
    <linearGradient
       id="b"
       gradientUnits="userSpaceOnUse"
       x1="30.211172"
       x2="30.211172"
       y1="55.406651"
       y2="8.440731"
       gradientTransform="translate(84.999954,89.999958)">
      <stop
         offset="0"
         stop-color="#3889e9"
         id="stop27" />
      <stop
         offset="1"
         stop-color="#5ea5fb"
         id="stop29" />
    </linearGradient>
    <linearGradient
       inkscape:collect="always"
       xlink:href="#a"
       id="linearGradient199"
       gradientUnits="userSpaceOnUse"
       gradientTransform="matrix(0.87642322,0,0,0.87642322,315.95446,55.954455)"
       x1="31.88851"
       y1="58.761456"
       x2="32.239643"
       y2="5.7100277" />
    <linearGradient
       inkscape:collect="always"
       xlink:href="#a"
       id="linearGradient207"
       gradientUnits="userSpaceOnUse"
       gradientTransform="matrix(0.57158037,0,0,0.57158037,317.70942,129.70942)"
       x1="31.88851"
       y1="58.761456"
       x2="32.239643"
       y2="5.7100277" />
    <linearGradient
       inkscape:collect="always"
       xlink:href="#a"
       id="linearGradient215"
       gradientUnits="userSpaceOnUse"
       gradientTransform="matrix(0.43821156,0,0,0.43821156,317.9772,185.97719)"
       x1="31.88851"
       y1="58.761456"
       x2="32.239643"
       y2="5.7100277" />
    <linearGradient
       inkscape:collect="always"
       xlink:href="#a"
       id="linearGradient223"
       gradientUnits="userSpaceOnUse"
       gradientTransform="matrix(0.28579012,0,0,0.28579012,318.85472,234.85471)"
       x1="31.88851"
       y1="58.761456"
       x2="32.239643"
       y2="5.7100277" />
  </defs>
  <metadata
     id="metadata4">
    <rdf:RDF>
      <cc:Work
         rdf:about="">
        <dc:format>image/svg+xml</dc:format>
        <dc:type
           rdf:resource="http://purl.org/dc/dcmitype/StillImage" />
        <dc:creator>
          <cc:Agent>
            <dc:title>Sam Hewitt</dc:title>
          </cc:Agent>
        </dc:creator>
        <dc:source />
        <cc:license
           rdf:resource="http://creativecommons.org/licenses/by-sa/4.0/" />
        <dc:title>Suru Icon Theme Template</dc:title>
        <dc:subject>
          <rdf:Bag />
        </dc:subject>
        <dc:date />
        <dc:rights>
          <cc:Agent>
            <dc:title />
          </cc:Agent>
        </dc:rights>
        <dc:publisher>
          <cc:Agent>
            <dc:title />
          </cc:Agent>
        </dc:publisher>
        <dc:identifier />
        <dc:relation />
        <dc:language />
        <dc:coverage />
        <dc:description />
        <dc:contributor>
          <cc:Agent>
            <dc:title />
          </cc:Agent>
        </dc:contributor>
      </cc:Work>
      <cc:Work
         rdf:about="">
        <dc:format>image/svg+xml</dc:format>
        <dc:type
           rdf:resource="http://purl.org/dc/dcmitype/StillImage" />
      </cc:Work>
      <cc:License
         rdf:about="http://creativecommons.org/licenses/by-sa/4.0/">
        <cc:permits
           rdf:resource="http://creativecommons.org/ns#Reproduction" />
        <cc:permits
           rdf:resource="http://creativecommons.org/ns#Distribution" />
        <cc:requires
           rdf:resource="http://creativecommons.org/ns#Notice" />
        <cc:requires
           rdf:resource="http://creativecommons.org/ns#Attribution" />
        <cc:permits
           rdf:resource="http://creativecommons.org/ns#DerivativeWorks" />
        <cc:requires
           rdf:resource="http://creativecommons.org/ns#ShareAlike" />
      </cc:License>
    </rdf:RDF>
  </metadata>
  <g
     style="display:inline"
     inkscape:groupmode="layer"
     inkscape:label="Icon"
     id="layer1">
    <g
       style="display:none"
       inkscape:label="Baseplate"
       id="layer7"
       inkscape:groupmode="layer"
       sodipodi:insensitive="true">
      <text
         y="-8.2548828"
         xml:space="preserve"
         x="19.006836"
         style="font-style:normal;font-variant:normal;font-weight:normal;font-stretch:normal;line-height:0%;font-family:'DejaVu Sans';-inkscape-font-specification:'DejaVu Sans';display:inline;fill:#000000;fill-opacity:1;stroke:none;enable-background:new"
         inkscape:label="context"
         id="context"><tspan
           style="font-style:normal;font-variant:normal;font-weight:normal;font-stretch:normal;font-size:18px;line-height:1.25;font-family:'DejaVu Sans';-inkscape-font-specification:'DejaVu Sans'"
           y="-8.2548828"
           x="19.006836"
           sodipodi:role="line"
           id="tspan1445">devices</tspan></text>
      <text
         y="-8.2548828"
         xml:space="preserve"
         x="146.48828"
         style="font-style:normal;font-variant:normal;font-weight:bold;font-stretch:normal;line-height:0%;font-family:'DejaVu Sans';-inkscape-font-specification:'DejaVu Sans Bold';text-align:start;writing-mode:lr-tb;text-anchor:start;display:inline;fill:#000000;fill-opacity:1;stroke:none;enable-background:new"
         inkscape:label="icon-name"
         id="icon-name"><tspan
           style="font-style:normal;font-variant:normal;font-weight:bold;font-stretch:normal;font-size:18px;line-height:1.25;font-family:'DejaVu Sans';-inkscape-font-specification:'DejaVu Sans Bold'"
           y="-8.2548828"
           x="146.48828"
           sodipodi:role="line"
           id="tspan924">audio-speakers</tspan></text>
      <rect
         style="display:inline;overflow:visible;visibility:visible;fill:#cdcdcd;fill-opacity:1;fill-rule:nonzero;stroke:none;stroke-width:2;marker:none;enable-background:accumulate"
         id="rect16x16"
         width="16"
         height="16"
         x="320"
         y="236"
         inkscape:label="16x16" />
      <rect
         style="display:inline;overflow:visible;visibility:visible;fill:#cdcdcd;fill-opacity:1;fill-rule:nonzero;stroke:none;stroke-width:2;marker:none;enable-background:accumulate"
         id="rect24x24"
         width="24"
         height="24"
         x="320"
         y="188"
         inkscape:label="24x24" />
      <rect
         style="display:inline;overflow:visible;visibility:visible;fill:#cdcdcd;fill-opacity:1;fill-rule:nonzero;stroke:none;stroke-width:2;marker:none;enable-background:accumulate"
         id="rect32x32"
         width="32"
         height="32"
         x="320"
         y="132"
         inkscape:label="32x32" />
      <rect
         inkscape:label="48x48"
         y="60"
         x="320"
         height="48"
         width="48"
         id="rect48x48"
         style="display:inline;overflow:visible;visibility:visible;fill:#cdcdcd;fill-opacity:1;fill-rule:nonzero;stroke:none;stroke-width:2;marker:none;enable-background:accumulate" />
      <rect
         style="display:inline;overflow:visible;visibility:visible;fill:#cdcdcd;fill-opacity:1;fill-rule:nonzero;stroke:none;stroke-width:2;marker:none;enable-background:accumulate"
         id="rect256x256"
         width="256"
         height="256"
         x="24"
         y="28"
         inkscape:label="256x256" />
      <circle
         cx="116.88838"
         cy="121.92355"
         fill="url(#b)"
         r="0"
         stroke-width="1.67735"
         id="circle32"
         style="fill:url(#b)" />
    </g>
    <g
       inkscape:groupmode="layer"
       id="layer2"
       inkscape:label="Background"
       style="display:inline">
      <path
         d="M 263.99983,156 A 111.99983,111.99983 0 0 1 151.99999,267.99983 111.99983,111.99983 0 0 1 40.000172,156 111.99983,111.99983 0 0 1 151.99999,44.000165 111.99983,111.99983 0 0 1 263.99983,156"
         fill="url(#a)"
         id="path34"
         style="display:inline;fill:url(#a);stroke-width:4.2678;enable-background:new" />
      <circle
         cx="152.00043"
         cy="156.00034"
         fill="none"
         r="111.99983"
         stroke-width="8.00003"
         id="circle36"
         style="display:inline;enable-background:new" />
      <path
         d="M 366.99996,84 A 22.999965,22.999965 0 0 1 344,106.99997 22.999965,22.999965 0 0 1 321.00004,84 22.999965,22.999965 0 0 1 344,61.000035 22.999965,22.999965 0 0 1 366.99996,84"
         fill="url(#a)"
         id="path193"
         style="display:inline;fill:url(#linearGradient199);stroke-width:0.876423;enable-background:new" />
      <circle
         cx="344.00009"
         cy="84.000069"
         fill="none"
         r="22.999966"
         stroke-width="1.64286"
         id="circle195"
         style="display:inline;enable-background:new" />
      <path
         d="M 350.99997,148 A 14.999977,14.999977 0 0 1 335.99999,162.99997 14.999977,14.999977 0 0 1 321.00002,148 14.999977,14.999977 0 0 1 335.99999,133.00002 14.999977,14.999977 0 0 1 350.99997,148"
         fill="url(#a)"
         id="path201"
         style="display:inline;fill:url(#linearGradient207);stroke-width:0.57158;enable-background:new" />
      <circle
         cx="336.00003"
         cy="148.00005"
         fill="none"
         r="14.999978"
         stroke-width="1.07143"
         id="circle203"
         style="display:inline;enable-background:new" />
      <path
         d="m 343.49995,199.99996 a 11.499981,11.499981 0 0 1 -11.49998,11.49998 11.499981,11.499981 0 0 1 -11.49998,-11.49998 11.499981,11.499981 0 0 1 11.49998,-11.49998 11.499981,11.499981 0 0 1 11.49998,11.49998"
         fill="url(#a)"
         id="path209"
         style="display:inline;fill:url(#linearGradient215);stroke-width:0.438211;enable-background:new" />
      <circle
         cx="332"
         cy="200"
         fill="none"
         r="11.499982"
         stroke-width="0.82143"
         id="circle211"
         style="display:inline;enable-background:new" />
      <path
         d="m 335.49999,244 a 7.499987,7.499987 0 0 1 -7.49998,7.49998 A 7.499987,7.499987 0 0 1 320.50002,244 7.499987,7.499987 0 0 1 328.00001,236.50001 7.499987,7.499987 0 0 1 335.49999,244"
         fill="url(#a)"
         id="path217"
         style="display:inline;fill:url(#linearGradient223);stroke-width:0.28579;enable-background:new" />
      <circle
         cx="328.00003"
         cy="244.00003"
         fill="none"
         r="7.4999876"
         stroke-width="0.535715"
         id="circle219"
         style="display:inline;enable-background:new" />
    </g>
    <g
       inkscape:groupmode="layer"
       id="layer6"
       inkscape:label="Pictogram"
       style="display:inline">
      <path
         d="m 115.58144,87.715195 c -18.209253,0 -18.209253,18.209295 -18.209253,18.209295 V 206.0755 c 0,18.2093 17.237523,18.17622 18.209253,18.2093 h 72.83714 c 0,0 18.20925,-0.0341 18.20925,-18.2093 V 105.92449 c 0,-18.209295 -18.20925,-18.209295 -18.20925,-18.209295 z m 36.41855,18.209295 c 5.04463,0 9.10467,4.09205 9.10467,9.10462 0,5.01339 -4.06004,9.10463 -9.10467,9.10463 -5.04612,0 -9.10463,-4.09124 -9.10463,-9.10463 0,-5.01257 4.05851,-9.10462 9.10463,-9.10462 z m 0,27.31392 c 20.11346,0 36.41859,16.30513 36.41859,36.41855 0,20.11341 -16.30513,36.41854 -36.41859,36.41854 -20.11342,0 -36.41855,-16.30513 -36.41855,-36.41854 0,-20.11342 16.30513,-36.41855 36.41855,-36.41855 z m 0,18.20925 c -10.05669,0 -18.20925,8.15257 -18.20925,18.2093 0,10.05668 8.15256,18.20925 18.20925,18.20925 10.05673,0 18.20929,-8.15257 18.20929,-18.20925 0,-10.05673 -8.15256,-18.2093 -18.20929,-18.2093 z"
         fill-opacity="0.941176"
         id="path38"
         style="display:inline;enable-background:new;stroke-width:4.2678" />
      <path
         d="m 336.52119,69.977228 c -3.7394,0 -3.7394,3.739408 -3.7394,3.739408 v 20.566725 c 0,3.739411 3.53985,3.732618 3.7394,3.739411 h 14.95763 c 0,0 3.73939,-0.007 3.73939,-3.739411 V 73.716636 c 0,-3.739408 -3.73939,-3.739408 -3.73939,-3.739408 z M 344,73.716636 c 1.03595,0 1.86971,0.840332 1.86971,1.869699 0,1.029535 -0.83376,1.869701 -1.86971,1.869701 -1.03626,0 -1.8697,-0.840166 -1.8697,-1.869701 0,-1.029367 0.83344,-1.869699 1.8697,-1.869699 z m 0,5.609109 c 4.13044,0 7.47882,3.348375 7.47882,7.478809 0,4.130432 -3.34838,7.478807 -7.47882,7.478807 -4.13044,0 -7.47881,-3.348375 -7.47881,-7.478807 0,-4.130434 3.34837,-7.478809 7.47881,-7.478809 z m 0,3.7394 c -2.06522,0 -3.7394,1.674188 -3.7394,3.73941 0,2.065211 1.67418,3.7394 3.7394,3.7394 2.06522,0 3.73941,-1.674189 3.73941,-3.7394 0,-2.065221 -1.67419,-3.73941 -3.73941,-3.73941 z"
         fill-opacity="0.941176"
         id="path197"
         style="display:inline;enable-background:new;stroke-width:0.876423" />
      <path
         d="m 331.12251,138.85471 c -2.43874,0 -2.43874,2.43874 -2.43874,2.43874 v 13.41308 c 0,2.43875 2.3086,2.43433 2.43874,2.43875 h 9.75498 c 0,0 2.43873,-0.005 2.43873,-2.43875 v -13.41308 c 0,-2.43874 -2.43873,-2.43874 -2.43873,-2.43874 z m 4.87748,2.43874 c 0.67562,0 1.21938,0.54804 1.21938,1.21937 0,0.67144 -0.54376,1.21937 -1.21938,1.21937 -0.67582,0 -1.21937,-0.54793 -1.21937,-1.21937 0,-0.67133 0.54355,-1.21937 1.21937,-1.21937 z m 0,3.65812 c 2.69377,0 4.8775,2.18372 4.8775,4.87748 0,2.69376 -2.18373,4.87748 -4.8775,4.87748 -2.69376,0 -4.87748,-2.18372 -4.87748,-4.87748 0,-2.69376 2.18372,-4.87748 4.87748,-4.87748 z m 0,2.43874 c -1.34688,0 -2.43874,1.09186 -2.43874,2.43874 0,1.34688 1.09186,2.43874 2.43874,2.43874 1.34689,0 2.43875,-1.09186 2.43875,-2.43874 0,-1.34688 -1.09186,-2.43874 -2.43875,-2.43874 z"
         fill-opacity="0.941176"
         id="path205"
         style="display:inline;enable-background:new;stroke-width:0.57158" />
      <path
         d="m 328.26056,192.98858 c -1.8697,0 -1.8697,1.8697 -1.8697,1.8697 v 10.28336 c 0,1.8697 1.76993,1.86631 1.8697,1.8697 h 7.47882 c 0,0 1.86969,-0.004 1.86969,-1.8697 v -10.28336 c 0,-1.8697 -1.86969,-1.8697 -1.86969,-1.8697 z m 3.73941,1.8697 c 0.51797,0 0.93485,0.42016 0.93485,0.93485 0,0.51477 -0.41688,0.93485 -0.93485,0.93485 -0.51813,0 -0.93485,-0.42008 -0.93485,-0.93485 0,-0.51469 0.41672,-0.93485 0.93485,-0.93485 z m 0,2.80455 c 2.06522,0 3.73941,1.67419 3.73941,3.7394 0,2.06522 -1.67419,3.73941 -3.73941,3.73941 -2.06522,0 -3.73941,-1.67419 -3.73941,-3.73941 0,-2.06521 1.67419,-3.7394 3.73941,-3.7394 z m 0,1.8697 c -1.03261,0 -1.8697,0.8371 -1.8697,1.8697 0,1.03261 0.83709,1.86971 1.8697,1.86971 1.03261,0 1.8697,-0.8371 1.8697,-1.86971 0,-1.0326 -0.83709,-1.8697 -1.8697,-1.8697 z"
         fill-opacity="0.941176"
         id="path213"
         style="display:inline;enable-background:new;stroke-width:0.438211" />
      <path
         d="m 325.56126,239.42736 c -1.21937,0 -1.21937,1.21937 -1.21937,1.21937 v 6.70654 c 0,1.21937 1.1543,1.21715 1.21937,1.21937 h 4.87749 c 0,0 1.21936,-0.003 1.21936,-1.21937 v -6.70654 c 0,-1.21937 -1.21936,-1.21937 -1.21936,-1.21937 z m 2.43875,1.21937 c 0.3378,0 0.60968,0.27401 0.60968,0.60968 0,0.33572 -0.27188,0.60969 -0.60968,0.60969 -0.33791,0 -0.60969,-0.27397 -0.60969,-0.60969 0,-0.33567 0.27178,-0.60968 0.60969,-0.60968 z m 0,1.82905 c 1.34688,0 2.43874,1.09186 2.43874,2.43874 0,1.34688 -1.09186,2.43875 -2.43874,2.43875 -1.34689,0 -2.43875,-1.09187 -2.43875,-2.43875 0,-1.34688 1.09186,-2.43874 2.43875,-2.43874 z m 0,1.21937 c -0.67344,0 -1.21937,0.54594 -1.21937,1.21937 0,0.67344 0.54593,1.21938 1.21937,1.21938 0.67344,0 1.21937,-0.54594 1.21937,-1.21938 0,-0.67343 -0.54593,-1.21937 -1.21937,-1.21937 z"
         fill-opacity="0.941176"
         id="path221"
         style="display:inline;enable-background:new;stroke-width:0.28579" />
    </g>
  </g>
</svg>
