<?xml version="1.0" encoding="UTF-8" standalone="no"?>
<svg
   inkscape:export-ydpi="90.000000"
   inkscape:export-xdpi="90.000000"
   width="400"
   height="300"
   id="svg11300"
   sodipodi:version="0.32"
   inkscape:version="1.2.2 (b0a8486541, 2022-12-01)"
   sodipodi:docname="audio-headphones.svg"
   inkscape:output_extension="org.inkscape.output.svg.inkscape"
   version="1.0"
   style="display:inline;enable-background:new"
   inkscape:export-filename="/home/sam/suru-template.png"
   xmlns:inkscape="http://www.inkscape.org/namespaces/inkscape"
   xmlns:sodipodi="http://sodipodi.sourceforge.net/DTD/sodipodi-0.dtd"
   xmlns:xlink="http://www.w3.org/1999/xlink"
   xmlns="http://www.w3.org/2000/svg"
   xmlns:svg="http://www.w3.org/2000/svg"
   xmlns:rdf="http://www.w3.org/1999/02/22-rdf-syntax-ns#"
   xmlns:cc="http://creativecommons.org/ns#"
   xmlns:dc="http://purl.org/dc/elements/1.1/">
  <title
     id="title3004">Suru Icon Theme Template</title>
  <sodipodi:namedview
     stroke="#ef2929"
     fill="#f57900"
     id="base"
     pagecolor="#ffffff"
     bordercolor="#000000"
     borderopacity="0.25490196"
     inkscape:pageopacity="0"
     inkscape:pageshadow="2"
     inkscape:zoom="4"
     inkscape:cx="355.5"
     inkscape:cy="177.5"
     inkscape:current-layer="layer6"
     showgrid="false"
     inkscape:grid-bbox="true"
     inkscape:document-units="px"
     inkscape:showpageshadow="false"
     inkscape:window-width="1920"
     inkscape:window-height="1016"
     inkscape:window-x="0"
     inkscape:window-y="32"
     width="400px"
     height="300px"
     inkscape:snap-nodes="true"
     inkscape:snap-bbox="true"
     gridtolerance="10000"
     inkscape:object-nodes="true"
     inkscape:snap-grids="true"
     showguides="true"
     inkscape:guide-bbox="true"
     inkscape:window-maximized="1"
     inkscape:bbox-paths="true"
     inkscape:snap-bbox-midpoints="true"
     inkscape:snap-global="true"
     inkscape:object-paths="true"
     inkscape:snap-intersection-paths="true"
     inkscape:snap-smooth-nodes="true"
     inkscape:pagecheckerboard="false"
     showborder="false"
     inkscape:document-rotation="0"
     inkscape:deskcolor="#d1d1d1">
    <inkscape:grid
       spacingy="1"
       spacingx="1"
       id="grid5883"
       type="xygrid"
       enabled="true"
       visible="true"
       empspacing="4"
       snapvisiblegridlinesonly="true"
       originx="0"
       originy="0" />
    <inkscape:grid
       type="xygrid"
       id="grid11592"
       empspacing="2"
       visible="true"
       enabled="false"
       spacingx="0.5"
       spacingy="0.5"
       color="#ff0000"
       opacity="0.1254902"
       empcolor="#ff0000"
       empopacity="0.25098039"
       snapvisiblegridlinesonly="true"
       originx="0"
       originy="0" />
  </sodipodi:namedview>
  <defs
     id="defs3">
    <linearGradient
       id="linearGradient6059"
       inkscape:swatch="solid">
      <stop
         style="stop-color:#000000;stop-opacity:1;"
         offset="0"
         id="stop6057" />
    </linearGradient>
    <linearGradient
       id="c"
       gradientUnits="userSpaceOnUse"
       x1="400.5119"
       x2="400.69922"
       xlink:href="#a"
       y1="546.07446"
       y2="517.77289"
       gradientTransform="matrix(7.7757237,0,0,7.7757237,-2962.7324,-3979.1136)" />
    <linearGradient
       id="a">
      <stop
         offset="0"
         stop-color="#1365f4"
         id="stop22" />
      <stop
         offset="1"
         stop-color="#05b2fc"
         id="stop24" />
    </linearGradient>
    <linearGradient
       id="d"
       gradientUnits="userSpaceOnUse"
       x1="394.81812"
       x2="396.73026"
       xlink:href="#a"
       y1="546.72809"
       y2="518.37012"
       gradientTransform="matrix(7.7757237,0,0,7.7757237,-2962.7324,-3979.1136)" />
    <linearGradient
       inkscape:collect="always"
       xlink:href="#a"
       id="linearGradient6352"
       gradientUnits="userSpaceOnUse"
       gradientTransform="matrix(1.5968005,0,0,1.5968005,-295.63258,-765.17514)"
       x1="400.5119"
       y1="546.07446"
       x2="400.69922"
       y2="517.77289" />
    <linearGradient
       inkscape:collect="always"
       xlink:href="#a"
       id="linearGradient6354"
       gradientUnits="userSpaceOnUse"
       gradientTransform="matrix(1.5968005,0,0,1.5968005,-295.63258,-765.17514)"
       x1="394.81812"
       y1="546.72809"
       x2="396.73026"
       y2="518.37012" />
    <linearGradient
       inkscape:collect="always"
       xlink:href="#a"
       id="linearGradient6362"
       gradientUnits="userSpaceOnUse"
       gradientTransform="matrix(1.0413917,0,0,1.0413917,-81.151662,-405.8099)"
       x1="400.5119"
       y1="546.07446"
       x2="400.69922"
       y2="517.77289" />
    <linearGradient
       inkscape:collect="always"
       xlink:href="#a"
       id="linearGradient6364"
       gradientUnits="userSpaceOnUse"
       gradientTransform="matrix(1.0413917,0,0,1.0413917,-81.151662,-405.8099)"
       x1="394.81812"
       y1="546.72809"
       x2="396.73026"
       y2="518.37012" />
    <linearGradient
       inkscape:collect="always"
       xlink:href="#a"
       id="linearGradient6372"
       gradientUnits="userSpaceOnUse"
       gradientTransform="matrix(0.7984003,0,0,0.7984003,12.183753,-224.58759)"
       x1="400.5119"
       y1="546.07446"
       x2="400.69922"
       y2="517.77289" />
    <linearGradient
       inkscape:collect="always"
       xlink:href="#a"
       id="linearGradient6374"
       gradientUnits="userSpaceOnUse"
       gradientTransform="matrix(0.7984003,0,0,0.7984003,12.183753,-224.58759)"
       x1="394.81812"
       y1="546.72809"
       x2="396.73026"
       y2="518.37012" />
    <linearGradient
       inkscape:collect="always"
       xlink:href="#a"
       id="linearGradient6382"
       gradientUnits="userSpaceOnUse"
       gradientTransform="matrix(0.52069583,0,0,0.52069583,119.42416,-32.904941)"
       x1="400.5119"
       y1="546.07446"
       x2="400.69922"
       y2="517.77289" />
    <linearGradient
       inkscape:collect="always"
       xlink:href="#a"
       id="linearGradient6384"
       gradientUnits="userSpaceOnUse"
       gradientTransform="matrix(0.52069583,0,0,0.52069583,119.42416,-32.904941)"
       x1="394.81812"
       y1="546.72809"
       x2="396.73026"
       y2="518.37012" />
  </defs>
  <metadata
     id="metadata4">
    <rdf:RDF>
      <cc:Work
         rdf:about="">
        <dc:format>image/svg+xml</dc:format>
        <dc:type
           rdf:resource="http://purl.org/dc/dcmitype/StillImage" />
        <dc:creator>
          <cc:Agent>
            <dc:title>Sam Hewitt</dc:title>
          </cc:Agent>
        </dc:creator>
        <dc:source />
        <cc:license
           rdf:resource="http://creativecommons.org/licenses/by-sa/4.0/" />
        <dc:title>Suru Icon Theme Template</dc:title>
        <dc:subject>
          <rdf:Bag />
        </dc:subject>
        <dc:date />
        <dc:rights>
          <cc:Agent>
            <dc:title />
          </cc:Agent>
        </dc:rights>
        <dc:publisher>
          <cc:Agent>
            <dc:title />
          </cc:Agent>
        </dc:publisher>
        <dc:identifier />
        <dc:relation />
        <dc:language />
        <dc:coverage />
        <dc:description />
        <dc:contributor>
          <cc:Agent>
            <dc:title />
          </cc:Agent>
        </dc:contributor>
      </cc:Work>
      <cc:Work
         rdf:about="">
        <dc:format>image/svg+xml</dc:format>
        <dc:type
           rdf:resource="http://purl.org/dc/dcmitype/StillImage" />
      </cc:Work>
      <cc:License
         rdf:about="http://creativecommons.org/licenses/by-sa/4.0/">
        <cc:permits
           rdf:resource="http://creativecommons.org/ns#Reproduction" />
        <cc:permits
           rdf:resource="http://creativecommons.org/ns#Distribution" />
        <cc:requires
           rdf:resource="http://creativecommons.org/ns#Notice" />
        <cc:requires
           rdf:resource="http://creativecommons.org/ns#Attribution" />
        <cc:permits
           rdf:resource="http://creativecommons.org/ns#DerivativeWorks" />
        <cc:requires
           rdf:resource="http://creativecommons.org/ns#ShareAlike" />
      </cc:License>
    </rdf:RDF>
  </metadata>
  <g
     style="display:inline"
     inkscape:groupmode="layer"
     inkscape:label="Icon"
     id="layer1">
    <g
       style="display:none"
       inkscape:label="Baseplate"
       id="layer7"
       inkscape:groupmode="layer"
       sodipodi:insensitive="true">
      <text
         y="-8.2548828"
         xml:space="preserve"
         x="19.006836"
         style="font-style:normal;font-variant:normal;font-weight:normal;font-stretch:normal;line-height:0%;font-family:'DejaVu Sans';-inkscape-font-specification:'DejaVu Sans';display:inline;fill:#000000;fill-opacity:1;stroke:none;enable-background:new"
         inkscape:label="context"
         id="context"><tspan
           style="font-style:normal;font-variant:normal;font-weight:normal;font-stretch:normal;font-size:18px;line-height:1.25;font-family:'DejaVu Sans';-inkscape-font-specification:'DejaVu Sans'"
           y="-8.2548828"
           x="19.006836"
           sodipodi:role="line"
           id="tspan1445">devices</tspan></text>
      <text
         y="-8.2548828"
         xml:space="preserve"
         x="146.48828"
         style="font-style:normal;font-variant:normal;font-weight:bold;font-stretch:normal;line-height:0%;font-family:'DejaVu Sans';-inkscape-font-specification:'DejaVu Sans Bold';text-align:start;writing-mode:lr-tb;text-anchor:start;display:inline;fill:#000000;fill-opacity:1;stroke:none;enable-background:new"
         inkscape:label="icon-name"
         id="icon-name"><tspan
           style="font-style:normal;font-variant:normal;font-weight:bold;font-stretch:normal;font-size:18px;line-height:1.25;font-family:'DejaVu Sans';-inkscape-font-specification:'DejaVu Sans Bold'"
           y="-8.2548828"
           x="146.48828"
           sodipodi:role="line"
           id="tspan924">audio-headphones</tspan></text>
      <rect
         style="display:inline;overflow:visible;visibility:visible;fill:#cdcdcd;fill-opacity:1;fill-rule:nonzero;stroke:none;stroke-width:2;marker:none;enable-background:accumulate"
         id="rect16x16"
         width="16"
         height="16"
         x="320"
         y="236"
         inkscape:label="16x16" />
      <rect
         style="display:inline;overflow:visible;visibility:visible;fill:#cdcdcd;fill-opacity:1;fill-rule:nonzero;stroke:none;stroke-width:2;marker:none;enable-background:accumulate"
         id="rect24x24"
         width="24"
         height="24"
         x="320"
         y="188"
         inkscape:label="24x24" />
      <rect
         style="display:inline;overflow:visible;visibility:visible;fill:#cdcdcd;fill-opacity:1;fill-rule:nonzero;stroke:none;stroke-width:2;marker:none;enable-background:accumulate"
         id="rect32x32"
         width="32"
         height="32"
         x="320"
         y="132"
         inkscape:label="32x32" />
      <rect
         inkscape:label="48x48"
         y="60"
         x="320"
         height="48"
         width="48"
         id="rect48x48"
         style="display:inline;overflow:visible;visibility:visible;fill:#cdcdcd;fill-opacity:1;fill-rule:nonzero;stroke:none;stroke-width:2;marker:none;enable-background:accumulate" />
      <rect
         style="display:inline;overflow:visible;visibility:visible;fill:#cdcdcd;fill-opacity:1;fill-rule:nonzero;stroke:none;stroke-width:2;marker:none;enable-background:accumulate"
         id="rect256x256"
         width="256"
         height="256"
         x="24"
         y="28"
         inkscape:label="256x256" />
    </g>
    <g
       inkscape:groupmode="layer"
       id="layer2"
       inkscape:label="Background"
       style="display:inline">
      <circle
         cx="152"
         cy="156"
         fill="url(#c)"
         r="108.8598"
         stroke="url(#d)"
         stroke-width="6.28039"
         id="circle42"
         style="display:inline;fill:url(#c);stroke:url(#d)" />
      <circle
         cx="344"
         cy="84"
         fill="url(#c)"
         r="22.355139"
         stroke="url(#d)"
         stroke-width="1.28972"
         id="circle6346"
         style="display:inline;fill:url(#linearGradient6352);stroke:url(#linearGradient6354)" />
      <circle
         cx="336.00006"
         cy="148"
         fill="url(#c)"
         r="14.579439"
         stroke="url(#d)"
         stroke-width="0.841122"
         id="circle6356"
         style="display:inline;fill:url(#linearGradient6362);stroke:url(#linearGradient6364)" />
      <circle
         cx="332.00006"
         cy="200"
         fill="url(#c)"
         r="11.17757"
         stroke="url(#d)"
         stroke-width="0.64486"
         id="circle6366"
         style="display:inline;fill:url(#linearGradient6372);stroke:url(#linearGradient6374)" />
      <circle
         cx="328"
         cy="244"
         fill="url(#c)"
         r="7.2897196"
         stroke="url(#d)"
         stroke-width="0.420561"
         id="circle6376"
         style="display:inline;fill:url(#linearGradient6382);stroke:url(#linearGradient6384)" />
    </g>
    <g
       inkscape:groupmode="layer"
       id="layer6"
       inkscape:label="Pictogram"
       style="display:inline">
      <path
         style="display:inline;enable-background:new;fill:none;fill-rule:evenodd;stroke:#00ff00;stroke-width:2.84302;stroke-linecap:square;stroke-linejoin:round;stroke-miterlimit:4;stroke-dasharray:none;stroke-opacity:1"
         d="m 75.238765,188.499 h 51.174375 l 9.95057,-39.80228 14.21511,78.18307 12.79358,-55.43891 7.21941,33.07956 4.15268,-16.02144 h 54.01739"
         id="path925"
         inkscape:connector-curvature="0"
         sodipodi:nodetypes="cccccccc" />
      <path
         id="path3292"
         style="display:inline;enable-background:new;fill:#000000;fill-opacity:1;fill-rule:evenodd;stroke:none;stroke-width:5.00026"
         d="m 151.05757,93.404 c -15.82707,0.22652 -30.48238,6.41043 -41.53538,17.49115 -11.251575,11.27973 -17.334885,26.40306 -17.334885,42.58028 v 6.83632 c 0,0.63907 0.005,1.25157 0.17583,1.83603 -10.31086,0.8172 -18.5459,11.81567 -18.54588,25.21615 0,13.46099 8.23834,24.49667 18.61423,25.22591 2.77387,3.73788 7.24789,6.00616 12.012355,6.00616 8.28243,0 15.01053,-6.74236 15.01053,-15.03008 v -32.41376 c 0,-8.03003 -6.15647,-14.60896 -14.07299,-15.01054 v -2.66619 c -3.9e-4,-25.97658 19.89538,-46.38611 45.67619,-46.8774 h 1.88484 c 25.78084,0.49152 45.6766,20.90082 45.6762,46.8774 v 2.66619 c -7.91654,0.40153 -14.07296,6.98051 -14.07296,15.01054 v 32.41376 c 0,8.28772 6.7281,15.03008 15.01051,15.03008 4.76445,0 9.23844,-2.26828 12.01232,-6.00616 10.37588,-0.72924 18.61427,-11.76492 18.61427,-25.22591 0,-13.40048 -8.23508,-24.39895 -18.54591,-25.21615 0.17151,-0.58446 0.176,-1.19696 0.176,-1.83603 v -6.83632 c 0,-16.17722 -6.08331,-31.30055 -17.33489,-42.58028 C 183.42498,99.81443 168.76968,93.63052 152.94261,93.404 Z" />
      <path
         style="display:inline;enable-background:new;fill:none;fill-rule:evenodd;stroke:#00ff00;stroke-width:0.583834;stroke-linecap:square;stroke-linejoin:round;stroke-miterlimit:4;stroke-dasharray:none;stroke-opacity:1"
         d="m 328.23653,90.673904 h 10.50902 l 2.04342,-8.17368 2.91917,16.05545 2.62726,-11.38478 1.48255,6.79313 0.85279,-3.29012 h 11.09285"
         id="path6348"
         inkscape:connector-curvature="0"
         sodipodi:nodetypes="cccccccc" />
      <path
         id="path6350"
         style="display:inline;enable-background:new;fill:#000000;fill-opacity:1;fill-rule:evenodd;stroke:none;stroke-width:1.02684"
         d="m 343.80646,71.145467 c -3.2502,0.04652 -6.25978,1.316427 -8.52959,3.591932 -2.31059,2.316374 -3.55984,5.422058 -3.55984,8.744165 v 1.40389 c 0,0.13124 10e-4,0.25702 0.0361,0.37704 -2.11741,0.16782 -3.80853,2.42643 -3.80853,5.17832 0,2.76431 1.6918,5.03056 3.82257,5.18032 0.56963,0.7676 1.4884,1.23341 2.46682,1.23341 1.70085,0 3.08252,-1.3846 3.08252,-3.08654 v -6.6564 c 0,-1.64902 -1.26428,-3.00005 -2.88999,-3.08252 v -0.54752 c -8e-5,-5.334476 4.08566,-9.525719 9.37993,-9.626609 h 0.38707 c 5.29428,0.100937 9.38001,4.292133 9.37993,9.626609 v 0.54752 c -1.62572,0.0825 -2.88998,1.4335 -2.88998,3.08252 v 6.6564 c 0,1.70194 1.38166,3.08654 3.08251,3.08654 0.97842,0 1.89718,-0.46581 2.46682,-1.23341 2.13076,-0.14976 3.82257,-2.41601 3.82257,-5.18032 0,-2.75189 -1.69113,-5.0105 -3.80853,-5.17832 0.0352,-0.12002 0.0361,-0.2458 0.0361,-0.37704 v -1.40389 c 0,-3.322107 -1.24925,-6.427791 -3.55985,-8.744165 -2.2698,-2.275505 -5.27937,-3.545415 -8.52958,-3.591932 z" />
      <path
         style="display:inline;enable-background:new;fill:none;fill-rule:evenodd;stroke:#00ff00;stroke-width:0.380761;stroke-linecap:square;stroke-linejoin:round;stroke-miterlimit:4;stroke-dasharray:none;stroke-opacity:1"
         d="m 325.71953,152.35255 h 6.8537 l 1.33266,-5.33066 1.90381,10.47095 1.71344,-7.42486 0.96688,4.43029 0.55617,-2.14572 h 7.23446"
         id="path6358"
         inkscape:connector-curvature="0"
         sodipodi:nodetypes="cccccccc" />
      <path
         id="path6360"
         style="display:inline;enable-background:new;fill:#000000;fill-opacity:1;fill-rule:evenodd;stroke:none;stroke-width:0.669678"
         d="m 335.87382,139.61661 c -2.1197,0.0303 -4.08247,0.85854 -5.56277,2.34257 -1.5069,1.51068 -2.32164,3.53612 -2.32164,5.7027 v 0.91559 c 0,0.0856 6.6e-4,0.16763 0.0235,0.2459 -1.38092,0.10945 -2.48382,1.58245 -2.48382,3.37716 0,1.80282 1.10335,3.2808 2.49298,3.37847 0.3715,0.50061 0.97069,0.80439 1.60879,0.80439 1.10924,0 2.01034,-0.90299 2.01034,-2.01295 v -4.34113 c 0,-1.07545 -0.82453,-1.95655 -1.88478,-2.01035 v -0.35708 c -6e-5,-3.479 2.66456,-6.21242 6.11735,-6.27822 h 0.25243 c 3.45279,0.0658 6.1174,2.79922 6.11735,6.27822 v 0.35708 c -1.06026,0.0538 -1.88477,0.93489 -1.88477,2.01035 v 4.34113 c 0,1.10996 0.90108,2.01295 2.01033,2.01295 0.6381,0 1.23729,-0.30378 1.60879,-0.80439 1.38963,-0.0977 2.493,-1.57565 2.493,-3.37847 0,-1.79471 -1.10292,-3.26771 -2.48384,-3.37716 0.023,-0.0783 0.0235,-0.1603 0.0235,-0.2459 v -0.91559 c 0,-2.16659 -0.81473,-4.19202 -2.32164,-5.7027 -1.4803,-1.48403 -3.44307,-2.31223 -5.56277,-2.34257 z" />
      <path
         style="display:inline;enable-background:new;fill:none;fill-rule:evenodd;stroke:#00ff00;stroke-width:0.291917;stroke-linecap:square;stroke-linejoin:round;stroke-miterlimit:4;stroke-dasharray:none;stroke-opacity:1"
         d="m 324.11833,203.33695 h 5.2545 l 1.02171,-4.08683 1.45959,8.02772 1.31363,-5.69239 0.74128,3.39656 0.4264,-1.64506 h 5.54642"
         id="path6368"
         inkscape:connector-curvature="0"
         sodipodi:nodetypes="cccccccc" />
      <path
         id="path6370"
         style="display:inline;enable-background:new;fill:#000000;fill-opacity:1;fill-rule:evenodd;stroke:none;stroke-width:0.51342"
         d="m 331.90329,193.57273 c -1.62511,0.0232 -3.1299,0.65822 -4.26479,1.79597 -1.15529,1.15819 -1.77993,2.71103 -1.77993,4.37207 v 0.70196 c 0,0.0656 5.1e-4,0.12851 0.018,0.18852 -1.05871,0.0839 -1.90426,1.21321 -1.90426,2.58916 0,1.38216 0.8459,2.51528 1.91128,2.59016 0.28482,0.3838 0.7442,0.6167 1.23341,0.6167 0.85041,0 1.54126,-0.6923 1.54126,-1.54327 v -3.3282 c 0,-0.82451 -0.63214,-1.50002 -1.445,-1.54126 v -0.27377 c -5e-5,-2.66723 2.04283,-4.76285 4.68997,-4.8133 h 0.19353 c 2.64714,0.0505 4.69,2.14607 4.68997,4.8133 v 0.27377 c -0.81287,0.0412 -1.44499,0.71674 -1.44499,1.54126 v 3.3282 c 0,0.85097 0.69082,1.54327 1.54125,1.54327 0.48921,0 0.94859,-0.2329 1.2334,-0.6167 1.06539,-0.0749 1.9113,-1.208 1.9113,-2.59016 0,-1.37595 -0.84557,-2.50525 -1.90427,-2.58916 0.0176,-0.06 0.018,-0.1229 0.018,-0.18852 v -0.70196 c 0,-1.66105 -0.62462,-3.21388 -1.77992,-4.37207 -1.1349,-1.13775 -2.63969,-1.77271 -4.26479,-1.79597 z" />
      <path
         style="display:inline;enable-background:new;fill:none;fill-rule:evenodd;stroke:#00ff00;stroke-width:0.190381;stroke-linecap:square;stroke-linejoin:round;stroke-miterlimit:4;stroke-dasharray:none;stroke-opacity:1"
         d="m 322.85974,246.17627 h 3.42685 l 0.66633,-2.66532 0.95191,5.23547 0.85671,-3.71243 0.48345,2.21515 0.27808,-1.07287 h 3.61723"
         id="path6378"
         inkscape:connector-curvature="0"
         sodipodi:nodetypes="cccccccc" />
      <path
         id="path6380"
         style="display:inline;enable-background:new;fill:#000000;fill-opacity:1;fill-rule:evenodd;stroke:none;stroke-width:0.334839"
         d="m 327.93689,239.8083 c -1.05986,0.0151 -2.04124,0.42928 -2.78139,1.17129 -0.75345,0.75534 -1.16082,1.76806 -1.16082,2.85135 v 0.4578 c 0,0.0428 3.3e-4,0.0838 0.0117,0.12294 -0.69046,0.0547 -1.24191,0.79123 -1.24191,1.68859 0,0.90141 0.55167,1.6404 1.24649,1.68923 0.18575,0.25031 0.48535,0.4022 0.8044,0.4022 0.55461,0 1.00517,-0.4515 1.00517,-1.00648 v -2.17057 c 0,-0.53772 -0.41227,-0.97827 -0.9424,-1.00517 v -0.17854 c -3e-5,-1.7395 1.33228,-3.10621 3.05868,-3.13911 h 0.12622 c 1.72639,0.0329 3.05869,1.39961 3.05867,3.13911 v 0.17854 c -0.53013,0.0269 -0.94238,0.46744 -0.94238,1.00517 v 2.17057 c 0,0.55498 0.45053,1.00648 1.00516,1.00648 0.31905,0 0.61865,-0.15189 0.80439,-0.4022 0.69482,-0.0489 1.2465,-0.78782 1.2465,-1.68923 0,-0.89736 -0.55146,-1.63386 -1.24191,-1.68859 0.0115,-0.0391 0.0117,-0.0802 0.0117,-0.12294 v -0.4578 c 0,-1.0833 -0.40736,-2.09601 -1.16081,-2.85135 -0.74015,-0.74201 -1.72154,-1.15612 -2.78139,-1.17129 z" />
    </g>
  </g>
</svg>
