<?xml version="1.0" encoding="UTF-8" standalone="no"?>
<svg
   inkscape:export-ydpi="90.000000"
   inkscape:export-xdpi="90.000000"
   width="400"
   height="300"
   id="svg11300"
   sodipodi:version="0.32"
   inkscape:version="1.2.2 (b0a8486541, 2022-12-01)"
   sodipodi:docname="audio-headset.svg"
   inkscape:output_extension="org.inkscape.output.svg.inkscape"
   version="1.0"
   style="display:inline;enable-background:new"
   inkscape:export-filename="/home/sam/suru-template.png"
   xmlns:inkscape="http://www.inkscape.org/namespaces/inkscape"
   xmlns:sodipodi="http://sodipodi.sourceforge.net/DTD/sodipodi-0.dtd"
   xmlns:xlink="http://www.w3.org/1999/xlink"
   xmlns="http://www.w3.org/2000/svg"
   xmlns:svg="http://www.w3.org/2000/svg"
   xmlns:rdf="http://www.w3.org/1999/02/22-rdf-syntax-ns#"
   xmlns:cc="http://creativecommons.org/ns#"
   xmlns:dc="http://purl.org/dc/elements/1.1/">
  <title
     id="title3004">Suru Icon Theme Template</title>
  <sodipodi:namedview
     stroke="#ef2929"
     fill="#f57900"
     id="base"
     pagecolor="#ffffff"
     bordercolor="#000000"
     borderopacity="0.25490196"
     inkscape:pageopacity="0"
     inkscape:pageshadow="2"
     inkscape:zoom="0.70710678"
     inkscape:cx="784.88853"
     inkscape:cy="1.4142136"
     inkscape:current-layer="layer6"
     showgrid="false"
     inkscape:grid-bbox="true"
     inkscape:document-units="px"
     inkscape:showpageshadow="false"
     inkscape:window-width="1920"
     inkscape:window-height="1016"
     inkscape:window-x="0"
     inkscape:window-y="32"
     width="400px"
     height="300px"
     inkscape:snap-nodes="true"
     inkscape:snap-bbox="true"
     gridtolerance="10000"
     inkscape:object-nodes="true"
     inkscape:snap-grids="true"
     showguides="true"
     inkscape:guide-bbox="true"
     inkscape:window-maximized="1"
     inkscape:bbox-paths="true"
     inkscape:snap-bbox-midpoints="true"
     inkscape:snap-global="true"
     inkscape:object-paths="true"
     inkscape:snap-intersection-paths="true"
     inkscape:snap-smooth-nodes="true"
     inkscape:pagecheckerboard="false"
     showborder="false"
     inkscape:document-rotation="0"
     inkscape:deskcolor="#d1d1d1">
    <inkscape:grid
       spacingy="1"
       spacingx="1"
       id="grid5883"
       type="xygrid"
       enabled="true"
       visible="true"
       empspacing="4"
       snapvisiblegridlinesonly="true"
       originx="0"
       originy="0" />
    <inkscape:grid
       type="xygrid"
       id="grid11592"
       empspacing="2"
       visible="true"
       enabled="false"
       spacingx="0.5"
       spacingy="0.5"
       color="#ff0000"
       opacity="0.1254902"
       empcolor="#ff0000"
       empopacity="0.25098039"
       snapvisiblegridlinesonly="true"
       originx="0"
       originy="0" />
  </sodipodi:namedview>
  <defs
     id="defs3">
    <linearGradient
       id="c"
       gradientUnits="userSpaceOnUse"
       x1="400.5119"
       x2="400.69922"
       xlink:href="#a"
       y1="546.07446"
       y2="517.77289"
       gradientTransform="matrix(7.7757241,0,0,7.7757241,-2962.7326,-3979.114)" />
    <linearGradient
       id="a">
      <stop
         offset="0"
         stop-color="#1365f4"
         id="stop22" />
      <stop
         offset="1"
         stop-color="#05b2fc"
         id="stop24" />
    </linearGradient>
    <linearGradient
       id="d"
       gradientUnits="userSpaceOnUse"
       x1="394.81812"
       x2="396.73026"
       xlink:href="#a"
       y1="546.72809"
       y2="518.37012"
       gradientTransform="matrix(7.7757241,0,0,7.7757241,-2962.7326,-3979.114)" />
    <linearGradient
       inkscape:collect="always"
       xlink:href="#a"
       id="linearGradient576"
       gradientUnits="userSpaceOnUse"
       gradientTransform="matrix(1.5968005,0,0,1.5968005,-295.63256,-765.17514)"
       x1="400.5119"
       y1="546.07446"
       x2="400.69922"
       y2="517.77289" />
    <linearGradient
       inkscape:collect="always"
       xlink:href="#a"
       id="linearGradient578"
       gradientUnits="userSpaceOnUse"
       gradientTransform="matrix(1.5968005,0,0,1.5968005,-295.63256,-765.17514)"
       x1="394.81812"
       y1="546.72809"
       x2="396.73026"
       y2="518.37012" />
    <linearGradient
       inkscape:collect="always"
       xlink:href="#a"
       id="linearGradient586"
       gradientUnits="userSpaceOnUse"
       gradientTransform="matrix(1.0413917,0,0,1.0413917,-81.151629,-405.80989)"
       x1="400.5119"
       y1="546.07446"
       x2="400.69922"
       y2="517.77289" />
    <linearGradient
       inkscape:collect="always"
       xlink:href="#a"
       id="linearGradient588"
       gradientUnits="userSpaceOnUse"
       gradientTransform="matrix(1.0413917,0,0,1.0413917,-81.151629,-405.80989)"
       x1="394.81812"
       y1="546.72809"
       x2="396.73026"
       y2="518.37012" />
    <linearGradient
       inkscape:collect="always"
       xlink:href="#a"
       id="linearGradient596"
       gradientUnits="userSpaceOnUse"
       gradientTransform="matrix(0.7984003,0,0,0.7984003,12.183739,-224.58759)"
       x1="400.5119"
       y1="546.07446"
       x2="400.69922"
       y2="517.77289" />
    <linearGradient
       inkscape:collect="always"
       xlink:href="#a"
       id="linearGradient598"
       gradientUnits="userSpaceOnUse"
       gradientTransform="matrix(0.7984003,0,0,0.7984003,12.183739,-224.58759)"
       x1="394.81812"
       y1="546.72809"
       x2="396.73026"
       y2="518.37012" />
    <linearGradient
       inkscape:collect="always"
       xlink:href="#a"
       id="linearGradient606"
       gradientUnits="userSpaceOnUse"
       gradientTransform="matrix(0.52069583,0,0,0.52069583,119.42417,-32.904931)"
       x1="400.5119"
       y1="546.07446"
       x2="400.69922"
       y2="517.77289" />
    <linearGradient
       inkscape:collect="always"
       xlink:href="#a"
       id="linearGradient608"
       gradientUnits="userSpaceOnUse"
       gradientTransform="matrix(0.52069583,0,0,0.52069583,119.42417,-32.904931)"
       x1="394.81812"
       y1="546.72809"
       x2="396.73026"
       y2="518.37012" />
  </defs>
  <metadata
     id="metadata4">
    <rdf:RDF>
      <cc:Work
         rdf:about="">
        <dc:format>image/svg+xml</dc:format>
        <dc:type
           rdf:resource="http://purl.org/dc/dcmitype/StillImage" />
        <dc:creator>
          <cc:Agent>
            <dc:title>Sam Hewitt</dc:title>
          </cc:Agent>
        </dc:creator>
        <dc:source />
        <cc:license
           rdf:resource="http://creativecommons.org/licenses/by-sa/4.0/" />
        <dc:title>Suru Icon Theme Template</dc:title>
        <dc:subject>
          <rdf:Bag />
        </dc:subject>
        <dc:date />
        <dc:rights>
          <cc:Agent>
            <dc:title />
          </cc:Agent>
        </dc:rights>
        <dc:publisher>
          <cc:Agent>
            <dc:title />
          </cc:Agent>
        </dc:publisher>
        <dc:identifier />
        <dc:relation />
        <dc:language />
        <dc:coverage />
        <dc:description />
        <dc:contributor>
          <cc:Agent>
            <dc:title />
          </cc:Agent>
        </dc:contributor>
      </cc:Work>
      <cc:Work
         rdf:about="">
        <dc:format>image/svg+xml</dc:format>
        <dc:type
           rdf:resource="http://purl.org/dc/dcmitype/StillImage" />
      </cc:Work>
      <cc:License
         rdf:about="http://creativecommons.org/licenses/by-sa/4.0/">
        <cc:permits
           rdf:resource="http://creativecommons.org/ns#Reproduction" />
        <cc:permits
           rdf:resource="http://creativecommons.org/ns#Distribution" />
        <cc:requires
           rdf:resource="http://creativecommons.org/ns#Notice" />
        <cc:requires
           rdf:resource="http://creativecommons.org/ns#Attribution" />
        <cc:permits
           rdf:resource="http://creativecommons.org/ns#DerivativeWorks" />
        <cc:requires
           rdf:resource="http://creativecommons.org/ns#ShareAlike" />
      </cc:License>
    </rdf:RDF>
  </metadata>
  <g
     style="display:inline"
     inkscape:groupmode="layer"
     inkscape:label="Icon"
     id="layer1">
    <g
       style="display:none"
       inkscape:label="Baseplate"
       id="layer7"
       inkscape:groupmode="layer"
       sodipodi:insensitive="true">
      <text
         y="-8.2548828"
         xml:space="preserve"
         x="19.006836"
         style="font-style:normal;font-variant:normal;font-weight:normal;font-stretch:normal;line-height:0%;font-family:'DejaVu Sans';-inkscape-font-specification:'DejaVu Sans';display:inline;fill:#000000;fill-opacity:1;stroke:none;enable-background:new"
         inkscape:label="context"
         id="context"><tspan
           style="font-style:normal;font-variant:normal;font-weight:normal;font-stretch:normal;font-size:18px;line-height:1.25;font-family:'DejaVu Sans';-inkscape-font-specification:'DejaVu Sans'"
           y="-8.2548828"
           x="19.006836"
           sodipodi:role="line"
           id="tspan1445">devices</tspan></text>
      <text
         y="-8.2548828"
         xml:space="preserve"
         x="146.48828"
         style="font-style:normal;font-variant:normal;font-weight:bold;font-stretch:normal;line-height:0%;font-family:'DejaVu Sans';-inkscape-font-specification:'DejaVu Sans Bold';text-align:start;writing-mode:lr-tb;text-anchor:start;display:inline;fill:#000000;fill-opacity:1;stroke:none;enable-background:new"
         inkscape:label="icon-name"
         id="icon-name"><tspan
           style="font-style:normal;font-variant:normal;font-weight:bold;font-stretch:normal;font-size:18px;line-height:1.25;font-family:'DejaVu Sans';-inkscape-font-specification:'DejaVu Sans Bold'"
           y="-8.2548828"
           x="146.48828"
           sodipodi:role="line"
           id="tspan924">audio-headset</tspan></text>
      <rect
         style="display:inline;overflow:visible;visibility:visible;fill:#cdcdcd;fill-opacity:1;fill-rule:nonzero;stroke:none;stroke-width:2;marker:none;enable-background:accumulate"
         id="rect16x16"
         width="16"
         height="16"
         x="320"
         y="236"
         inkscape:label="16x16" />
      <rect
         style="display:inline;overflow:visible;visibility:visible;fill:#cdcdcd;fill-opacity:1;fill-rule:nonzero;stroke:none;stroke-width:2;marker:none;enable-background:accumulate"
         id="rect24x24"
         width="24"
         height="24"
         x="320"
         y="188"
         inkscape:label="24x24" />
      <rect
         style="display:inline;overflow:visible;visibility:visible;fill:#cdcdcd;fill-opacity:1;fill-rule:nonzero;stroke:none;stroke-width:2;marker:none;enable-background:accumulate"
         id="rect32x32"
         width="32"
         height="32"
         x="320"
         y="132"
         inkscape:label="32x32" />
      <rect
         inkscape:label="48x48"
         y="60"
         x="320"
         height="48"
         width="48"
         id="rect48x48"
         style="display:inline;overflow:visible;visibility:visible;fill:#cdcdcd;fill-opacity:1;fill-rule:nonzero;stroke:none;stroke-width:2;marker:none;enable-background:accumulate" />
      <rect
         style="display:inline;overflow:visible;visibility:visible;fill:#cdcdcd;fill-opacity:1;fill-rule:nonzero;stroke:none;stroke-width:2;marker:none;enable-background:accumulate"
         id="rect256x256"
         width="256"
         height="256"
         x="24"
         y="28"
         inkscape:label="256x256" />
    </g>
    <g
       inkscape:groupmode="layer"
       id="layer2"
       inkscape:label="Background"
       style="display:inline">
      <circle
         cx="151.99988"
         cy="155.99979"
         fill="url(#c)"
         r="108.85981"
         stroke="url(#d)"
         stroke-width="6.28038"
         id="circle42"
         style="fill:url(#c);stroke:url(#d)" />
      <circle
         cx="344"
         cy="84"
         fill="url(#c)"
         r="22.355139"
         stroke="url(#d)"
         stroke-width="1.28972"
         id="circle570"
         style="fill:url(#linearGradient576);stroke:url(#linearGradient578)" />
      <circle
         cx="336.00006"
         cy="148.00002"
         fill="url(#c)"
         r="14.579439"
         stroke="url(#d)"
         stroke-width="0.841122"
         id="circle580"
         style="fill:url(#linearGradient586);stroke:url(#linearGradient588)" />
      <circle
         cx="332.00003"
         cy="199.99998"
         fill="url(#c)"
         r="11.17757"
         stroke="url(#d)"
         stroke-width="0.64486"
         id="circle590"
         style="fill:url(#linearGradient596);stroke:url(#linearGradient598)" />
      <circle
         cx="328"
         cy="244"
         fill="url(#c)"
         r="7.2897196"
         stroke="url(#d)"
         stroke-width="0.420561"
         id="circle600"
         style="fill:url(#linearGradient606);stroke:url(#linearGradient608)" />
    </g>
    <g
       inkscape:groupmode="layer"
       id="layer6"
       inkscape:label="Pictogram"
       style="display:inline">
      <path
         style="display:inline;fill:none;fill-rule:evenodd;stroke:#ffff00;stroke-width:2.84302;stroke-linecap:square;stroke-linejoin:round;stroke-miterlimit:4;stroke-dasharray:none;stroke-opacity:1;enable-background:new"
         d="m 75.237734,170.25269 h 51.174376 l 9.95057,-39.80228 14.21511,78.18307 12.79358,-55.43891 7.21941,33.07956 4.15268,-16.02144 h 54.01739"
         id="path925"
         inkscape:connector-curvature="0"
         sodipodi:nodetypes="cccccccc" />
      <path
         d="m 211.63315,144.76013 c 0.16949,-0.58444 0.1765,-1.20015 0.1765,-1.83875 v -6.83689 c 0,-16.17615 -6.10775,-31.29728 -17.3592,-42.576431 -11.2616,-11.290179 -26.32509,-17.508275 -42.49557,-17.508275 -16.17089,0 -31.16798,6.218096 -42.42998,17.508275 C 98.273865,104.78721 92.188115,119.90789 92.188115,136.08449 v 6.83689 c 0,0.63906 0.005,1.25431 0.176507,1.83875 -10.310354,0.81716 -18.548398,11.8109 -18.548398,25.21069 0,13.46049 8.242902,24.49643 18.618291,25.22564 2.773743,3.73768 7.2481,6.00873 12.012295,6.00873 8.28204,0 15.00854,-6.74238 15.00854,-15.02968 v -32.40948 c 0,-8.0296 -6.15699,-14.6088 -14.07315,-15.01035 v -2.67124 c -3.9e-4,-26.29423 20.377,-46.891181 46.61723,-46.891181 26.23977,0 46.61677,20.596951 46.61677,46.891181 v 2.67124 c -7.91614,0.403 -14.07314,6.98161 -14.07314,15.01035 v 32.40948 c 0,5.42034 2.88325,10.17839 7.19489,12.82283 -4.91329,7.22831 -11.81924,12.9473 -19.99308,16.43695 -2.23676,-2.49225 -5.48016,-4.0636 -9.08459,-4.0636 h -16.9247 c -6.73135,0 -12.20754,5.4762 -12.20754,12.20755 v 0.213 c 0,6.73135 5.47619,12.20755 12.20754,12.20755 h 16.9247 c 4.95238,0 9.22224,-2.9659 11.13489,-7.21335 8.08193,-2.93911 15.46503,-7.59995 21.68008,-13.7996 4.62915,-4.6173 8.40385,-9.88195 11.2484,-15.60049 1.89635,-1.0238 3.56795,-2.4443 4.86353,-4.1898 10.375,-0.73095 18.59635,-11.76598 18.59635,-25.22558 0,-13.40075 -8.23809,-24.39449 -18.55014,-25.21068 z"
         fill-opacity="0.85"
         id="path50"
         style="display:inline;stroke-width:5;enable-background:new" />
      <path
         style="display:inline;fill:none;fill-rule:evenodd;stroke:#ffff00;stroke-width:0.583834;stroke-linecap:square;stroke-linejoin:round;stroke-miterlimit:4;stroke-dasharray:none;stroke-opacity:1;enable-background:new"
         d="m 328.23635,86.926936 h 10.50902 l 2.04342,-8.173682 2.91917,16.055452 2.62726,-11.384777 1.48256,6.793124 0.85278,-3.290117 h 11.09285"
         id="path572"
         inkscape:connector-curvature="0"
         sodipodi:nodetypes="cccccccc" />
      <path
         d="m 356.24612,81.691857 c 0.0348,-0.120019 0.0362,-0.246459 0.0362,-0.377601 v -1.404004 c 0,-3.321888 -1.25427,-6.42712 -3.56484,-8.743374 -2.31265,-2.318519 -5.40604,-3.595449 -8.72676,-3.595449 -3.32081,0 -6.40057,1.27693 -8.7133,3.595449 -2.31048,2.316254 -3.56024,5.421394 -3.56024,8.743374 v 1.404004 c 0,0.131236 10e-4,0.257582 0.0362,0.377601 -2.1173,0.16781 -3.80904,2.425453 -3.80904,5.177195 0,2.764208 1.69274,5.030517 3.8234,5.180266 0.5696,0.767559 1.48845,1.233935 2.46681,1.233935 1.70077,0 3.08211,-1.384596 3.08211,-3.086452 v -6.655518 c 0,-1.648936 -1.26438,-3.000022 -2.89002,-3.082483 v -0.548558 c -8e-5,-5.399708 4.18456,-9.629439 9.57318,-9.629439 5.38852,0 9.57308,4.229731 9.57308,9.629439 V 80.4588 c -1.62563,0.08276 -2.89002,1.433724 -2.89002,3.082483 v 6.655518 c 0,1.113106 0.5921,2.090205 1.47753,2.63326 -1.00898,1.484385 -2.42717,2.65882 -4.10573,3.375445 -0.45933,-0.511801 -1.12539,-0.834489 -1.86558,-0.834489 h -3.47561 c -1.38233,0 -2.5069,1.124576 -2.5069,2.506907 v 0.04374 c 0,1.382331 1.12457,2.506906 2.5069,2.506906 h 3.47561 c 1.01701,0 1.89385,-0.609067 2.28663,-1.481311 1.65968,-0.603567 3.17585,-1.560704 4.45216,-2.833847 0.95063,-0.948195 1.72579,-2.029329 2.30994,-3.203672 0.38943,-0.210244 0.7327,-0.501954 0.99876,-0.860405 2.13058,-0.150106 3.81889,-2.416228 3.81889,-5.180253 0,-2.75194 -1.69175,-5.009583 -3.8094,-5.177193 z"
         fill-opacity="0.85"
         id="path574"
         style="display:inline;stroke-width:1.02679;enable-background:new" />
      <path
         style="display:inline;fill:none;fill-rule:evenodd;stroke:#ffff00;stroke-width:0.380761;stroke-linecap:square;stroke-linejoin:round;stroke-miterlimit:4;stroke-dasharray:none;stroke-opacity:1;enable-background:new"
         d="m 325.71942,149.90888 h 6.85371 l 1.33266,-5.33067 1.90381,10.47096 1.71343,-7.42485 0.96689,4.43029 0.55616,-2.14573 h 7.23447"
         id="path582"
         inkscape:connector-curvature="0"
         sodipodi:nodetypes="cccccccc" />
      <path
         d="m 343.98666,146.4947 c 0.0227,-0.0783 0.0236,-0.16074 0.0236,-0.24626 v -0.91566 c 0,-2.16645 -0.818,-4.1916 -2.3249,-5.7022 -1.50825,-1.51207 -3.52567,-2.34485 -5.69136,-2.34485 -2.16575,0 -4.17429,0.83278 -5.68259,2.34485 -1.50683,1.5106 -2.32189,3.5357 -2.32189,5.7022 v 0.91566 c 0,0.0856 6.5e-4,0.16798 0.0236,0.24626 -1.38084,0.10945 -2.48415,1.58182 -2.48415,3.37643 0,1.80274 1.10396,3.28077 2.49352,3.37844 0.37148,0.50057 0.97073,0.80473 1.60879,0.80473 1.1092,0 2.01007,-0.903 2.01007,-2.0129 v -4.34055 c 0,-1.0754 -0.82459,-1.95654 -1.88479,-2.01032 v -0.35776 c -6e-5,-3.52155 2.72906,-6.28007 6.24337,-6.28007 3.51426,0 6.24332,2.75852 6.24332,6.28007 v 0.35776 c -1.0602,0.054 -1.8848,0.93503 -1.8848,2.01032 v 4.34055 c 0,0.72594 0.38615,1.36318 0.96361,1.71734 -0.65803,0.96809 -1.58294,1.73401 -2.67765,2.20138 -0.29957,-0.33377 -0.73395,-0.54423 -1.21668,-0.54423 h -2.26671 c -0.90152,0 -1.63493,0.73342 -1.63493,1.63494 v 0.0285 c 0,0.90152 0.73341,1.63493 1.63493,1.63493 h 2.26671 c 0.66326,0 1.23511,-0.39722 1.49128,-0.96608 1.0824,-0.39363 2.0712,-1.01785 2.90358,-1.84816 0.61997,-0.61839 1.12551,-1.32346 1.50648,-2.08935 0.25398,-0.13712 0.47785,-0.32736 0.65137,-0.56113 1.38951,-0.0979 2.49058,-1.5758 2.49058,-3.37843 0,-1.79473 -1.10332,-3.26712 -2.48439,-3.37643 z"
         fill-opacity="0.85"
         id="path584"
         style="display:inline;stroke-width:0.669646;enable-background:new" />
      <path
         style="display:inline;fill:none;fill-rule:evenodd;stroke:#ffff00;stroke-width:0.291917;stroke-linecap:square;stroke-linejoin:round;stroke-miterlimit:4;stroke-dasharray:none;stroke-opacity:1;enable-background:new"
         d="m 324.11821,201.46345 h 5.25451 l 1.0217,-4.08685 1.45959,8.02774 1.31363,-5.69239 0.74128,3.39656 0.42639,-1.64506 h 5.54643"
         id="path592"
         inkscape:connector-curvature="0"
         sodipodi:nodetypes="cccccccc" />
      <path
         d="m 338.12309,198.84591 c 0.0174,-0.06 0.0181,-0.12323 0.0181,-0.1888 v -0.70201 c 0,-1.66094 -0.62713,-3.21356 -1.78242,-4.37168 -1.15632,-1.15925 -2.70301,-1.79772 -4.36338,-1.79772 -1.6604,0 -3.20028,0.63847 -4.35665,1.79772 -1.15523,1.15812 -1.78011,2.7107 -1.78011,4.37168 v 0.70201 c 0,0.0656 4.9e-4,0.1288 0.0181,0.1888 -1.05864,0.0839 -1.90452,1.21273 -1.90452,2.5886 0,1.38211 0.84637,2.51526 1.9117,2.59013 0.2848,0.38377 0.74423,0.61696 1.23341,0.61696 0.85039,0 1.54105,-0.6923 1.54105,-1.54322 v -3.32775 c 0,-0.82448 -0.63218,-1.50002 -1.445,-1.54125 v -0.27428 c -5e-5,-2.69986 2.09228,-4.81472 4.78658,-4.81472 2.69427,0 4.78655,2.11486 4.78655,4.81472 v 0.27428 c -0.81282,0.0414 -1.44502,0.71686 -1.44502,1.54125 v 3.32775 c 0,0.55655 0.29605,1.0451 0.73877,1.31663 -0.50449,0.7422 -1.21359,1.32941 -2.05286,1.68773 -0.22968,-0.25589 -0.5627,-0.41724 -0.93279,-0.41724 h -1.73781 c -0.69117,0 -1.25345,0.56229 -1.25345,1.25345 v 0.0219 c 0,0.69117 0.56228,1.25345 1.25345,1.25345 h 1.73781 c 0.5085,0 0.94691,-0.30454 1.14331,-0.74066 0.82984,-0.30178 1.58792,-0.78035 2.22608,-1.41692 0.47531,-0.4741 0.86289,-1.01466 1.15497,-1.60184 0.19472,-0.10512 0.36635,-0.25098 0.49938,-0.4302 1.06529,-0.0751 1.90945,-1.20811 1.90945,-2.59013 0,-1.37596 -0.84588,-2.50479 -1.9047,-2.5886 z"
         fill-opacity="0.85"
         id="path594"
         style="display:inline;stroke-width:0.513395;enable-background:new" />
      <path
         style="display:inline;fill:none;fill-rule:evenodd;stroke:#ffff00;stroke-width:0.190381;stroke-linecap:square;stroke-linejoin:round;stroke-miterlimit:4;stroke-dasharray:none;stroke-opacity:1;enable-background:new"
         d="m 322.85968,244.95444 h 3.42686 l 0.66632,-2.66534 0.95191,5.23548 0.85671,-3.71242 0.48345,2.21514 0.27808,-1.07286 h 3.61724"
         id="path602"
         inkscape:connector-curvature="0"
         sodipodi:nodetypes="cccccccc" />
      <path
         d="m 331.9933,243.24735 c 0.0113,-0.0391 0.0118,-0.0804 0.0118,-0.12313 v -0.45784 c 0,-1.08322 -0.40899,-2.0958 -1.16244,-2.85109 -0.75413,-0.75603 -1.76284,-1.17243 -2.84569,-1.17243 -1.08287,0 -2.08714,0.4164 -2.84129,1.17243 -0.75341,0.75529 -1.16094,1.76785 -1.16094,2.85109 v 0.45784 c 0,0.0428 3.2e-4,0.084 0.0118,0.12313 -0.69041,0.0547 -1.24207,0.79091 -1.24207,1.68821 0,0.90138 0.55198,1.64039 1.24676,1.68922 0.18574,0.25028 0.48536,0.40236 0.80439,0.40236 0.55461,0 1.00504,-0.4515 1.00504,-1.00644 v -2.17027 c 0,-0.53771 -0.41229,-0.97828 -0.94239,-1.00517 v -0.17888 c -4e-5,-1.76077 1.36453,-3.14003 3.12168,-3.14003 1.75713,0 3.12166,1.37926 3.12166,3.14003 v 0.17888 c -0.5301,0.027 -0.9424,0.46752 -0.9424,1.00517 v 2.17027 c 0,0.36296 0.19307,0.68158 0.4818,0.85867 -0.32901,0.48404 -0.79147,0.86701 -1.33882,1.10069 -0.14979,-0.16688 -0.36698,-0.27211 -0.60834,-0.27211 h -1.13335 c -0.45077,0 -0.81747,0.36671 -0.81747,0.81747 v 0.0143 c 0,0.45076 0.3667,0.81747 0.81747,0.81747 h 1.13335 c 0.33163,0 0.61755,-0.19862 0.74564,-0.48304 0.5412,-0.19682 1.0356,-0.50893 1.45179,-0.92408 0.30998,-0.3092 0.56275,-0.66174 0.75324,-1.04468 0.12699,-0.0686 0.23892,-0.16368 0.32568,-0.28056 0.69476,-0.049 1.2453,-0.7879 1.2453,-1.68922 0,-0.89736 -0.55167,-1.63356 -1.2422,-1.68822 z"
         fill-opacity="0.85"
         id="path604"
         style="display:inline;stroke-width:0.334823;enable-background:new" />
    </g>
  </g>
</svg>
