<?xml version="1.0" encoding="UTF-8" standalone="no"?>
<svg
   inkscape:export-ydpi="90.000000"
   inkscape:export-xdpi="90.000000"
   width="400"
   height="300"
   id="svg11300"
   sodipodi:version="0.32"
   inkscape:version="1.2.2 (b0a8486541, 2022-12-01)"
   sodipodi:docname="drive-harddisk.svg"
   inkscape:output_extension="org.inkscape.output.svg.inkscape"
   version="1.0"
   style="display:inline;enable-background:new"
   inkscape:export-filename="/home/sam/suru-template.png"
   xmlns:inkscape="http://www.inkscape.org/namespaces/inkscape"
   xmlns:sodipodi="http://sodipodi.sourceforge.net/DTD/sodipodi-0.dtd"
   xmlns:xlink="http://www.w3.org/1999/xlink"
   xmlns="http://www.w3.org/2000/svg"
   xmlns:svg="http://www.w3.org/2000/svg"
   xmlns:rdf="http://www.w3.org/1999/02/22-rdf-syntax-ns#"
   xmlns:cc="http://creativecommons.org/ns#"
   xmlns:dc="http://purl.org/dc/elements/1.1/">
  <title
     id="title3004">Suru Icon Theme Template</title>
  <sodipodi:namedview
     stroke="#ef2929"
     fill="#f57900"
     id="base"
     pagecolor="#ffffff"
     bordercolor="#000000"
     borderopacity="0.25490196"
     inkscape:pageopacity="0"
     inkscape:pageshadow="2"
     inkscape:zoom="2.8284271"
     inkscape:cx="350.01786"
     inkscape:cy="193.74726"
     inkscape:current-layer="layer6"
     showgrid="false"
     inkscape:grid-bbox="true"
     inkscape:document-units="px"
     inkscape:showpageshadow="false"
     inkscape:window-width="1920"
     inkscape:window-height="1016"
     inkscape:window-x="0"
     inkscape:window-y="32"
     width="400px"
     height="300px"
     inkscape:snap-nodes="true"
     inkscape:snap-bbox="true"
     gridtolerance="10000"
     inkscape:object-nodes="true"
     inkscape:snap-grids="true"
     showguides="true"
     inkscape:guide-bbox="true"
     inkscape:window-maximized="1"
     inkscape:bbox-paths="true"
     inkscape:snap-bbox-midpoints="true"
     inkscape:snap-global="true"
     inkscape:object-paths="true"
     inkscape:snap-intersection-paths="true"
     inkscape:snap-smooth-nodes="true"
     inkscape:pagecheckerboard="false"
     showborder="false"
     inkscape:document-rotation="0"
     inkscape:deskcolor="#d1d1d1">
    <inkscape:grid
       spacingy="1"
       spacingx="1"
       id="grid5883"
       type="xygrid"
       enabled="true"
       visible="true"
       empspacing="4"
       snapvisiblegridlinesonly="true"
       originx="0"
       originy="0" />
    <inkscape:grid
       type="xygrid"
       id="grid11592"
       empspacing="2"
       visible="true"
       enabled="false"
       spacingx="0.5"
       spacingy="0.5"
       color="#ff0000"
       opacity="0.1254902"
       empcolor="#ff0000"
       empopacity="0.25098039"
       snapvisiblegridlinesonly="true"
       originx="0"
       originy="0" />
  </sodipodi:namedview>
  <defs
     id="defs3">
    <linearGradient
       id="d"
       gradientUnits="userSpaceOnUse"
       x1="52.000313"
       x2="52.000313"
       y1="56.345066"
       y2="52.345085"
       gradientTransform="matrix(4.2479466,0,0,4.2479466,16.675533,9.80259)">
      <stop
         offset="0"
         stop-color="#040404"
         id="stop553" />
      <stop
         offset="1"
         stop-color="#121212"
         stop-opacity=".908163"
         id="stop555" />
    </linearGradient>
    <linearGradient
       id="c"
       gradientTransform="matrix(4.0458576,0,0,8.0053263,-1667.9068,-4112.0428)"
       gradientUnits="userSpaceOnUse"
       x1="451.02078"
       x2="451.02078"
       y1="544.14978"
       y2="543.0885">
      <stop
         offset="0"
         stop-color="#197cf1"
         id="stop548" />
      <stop
         offset="1"
         stop-color="#20bcfa"
         id="stop550" />
    </linearGradient>
    <linearGradient
       id="b"
       gradientUnits="userSpaceOnUse"
       x1="31.144558"
       x2="31.373112"
       y1="48.629539"
       y2="6.5311131"
       gradientTransform="matrix(4.2479466,0,0,4.2479466,16.675533,9.80259)">
      <stop
         offset="0"
         stop-color="#bbbec4"
         id="stop543" />
      <stop
         offset="1"
         stop-color="#dddfe2"
         id="stop545" />
    </linearGradient>
    <linearGradient
       id="a"
       gradientTransform="matrix(1.988646,0,0,1.9555313,20.536322,27.65416)"
       gradientUnits="userSpaceOnUse"
       x1="10.09375"
       x2="122.719"
       y1="107.36093"
       y2="107.36093">
      <stop
         offset="0"
         stop-color="#1a1a1a"
         id="stop528" />
      <stop
         offset=".11054216"
         stop-color="#2c2c2e"
         id="stop530" />
      <stop
         offset=".29001436"
         stop-color="#2b2b2d"
         id="stop532" />
      <stop
         offset=".5118711"
         stop-color="#2a2b2d"
         id="stop534" />
      <stop
         offset=".75173318"
         stop-color="#2b2b2d"
         id="stop536" />
      <stop
         offset=".89659214"
         stop-color="#323232"
         id="stop538" />
      <stop
         offset="1"
         stop-color="#171717"
         id="stop540" />
    </linearGradient>
    <linearGradient
       inkscape:collect="always"
       xlink:href="#a"
       id="linearGradient236"
       gradientUnits="userSpaceOnUse"
       gradientTransform="matrix(0.40838266,0,0,0.40158231,316.87777,59.750863)"
       x1="10.09375"
       y1="107.36093"
       x2="122.719"
       y2="107.36093" />
    <linearGradient
       inkscape:collect="always"
       xlink:href="#b"
       id="linearGradient238"
       gradientUnits="userSpaceOnUse"
       gradientTransform="matrix(0.87234616,0,0,0.87234616,316.08493,56.084916)"
       x1="31.144558"
       y1="48.629539"
       x2="31.373112"
       y2="6.5311131" />
    <linearGradient
       inkscape:collect="always"
       xlink:href="#c"
       id="linearGradient240"
       gradientUnits="userSpaceOnUse"
       gradientTransform="matrix(0.83084575,0,0,1.6439509,-29.85608,-790.36546)"
       x1="451.02078"
       y1="544.14978"
       x2="451.02078"
       y2="543.0885" />
    <linearGradient
       inkscape:collect="always"
       xlink:href="#d"
       id="linearGradient242"
       gradientUnits="userSpaceOnUse"
       gradientTransform="matrix(0.87234616,0,0,0.87234616,316.08493,56.084916)"
       x1="52.000313"
       y1="56.345066"
       x2="52.000313"
       y2="52.345085" />
    <linearGradient
       inkscape:collect="always"
       xlink:href="#a"
       id="linearGradient260"
       gradientUnits="userSpaceOnUse"
       gradientTransform="matrix(0.26633652,0,0,0.26190151,318.31159,132.18534)"
       x1="10.09375"
       y1="107.36093"
       x2="122.719"
       y2="107.36093" />
    <linearGradient
       inkscape:collect="always"
       xlink:href="#b"
       id="linearGradient262"
       gradientUnits="userSpaceOnUse"
       gradientTransform="matrix(0.56892141,0,0,0.56892141,317.79452,129.79451)"
       x1="31.144558"
       y1="48.629539"
       x2="31.373112"
       y2="6.5311131" />
    <linearGradient
       inkscape:collect="always"
       xlink:href="#c"
       id="linearGradient264"
       gradientUnits="userSpaceOnUse"
       gradientTransform="matrix(0.54185592,0,0,1.0721419,92.180817,-422.23835)"
       x1="451.02078"
       y1="544.14978"
       x2="451.02078"
       y2="543.0885" />
    <linearGradient
       inkscape:collect="always"
       xlink:href="#d"
       id="linearGradient266"
       gradientUnits="userSpaceOnUse"
       gradientTransform="matrix(0.56892141,0,0,0.56892141,317.79452,129.79451)"
       x1="52.000313"
       y1="56.345066"
       x2="52.000313"
       y2="52.345085" />
    <linearGradient
       inkscape:collect="always"
       xlink:href="#a"
       id="linearGradient284"
       gradientUnits="userSpaceOnUse"
       gradientTransform="matrix(0.20419133,0,0,0.20079116,318.43888,187.87543)"
       x1="10.09375"
       y1="107.36093"
       x2="122.719"
       y2="107.36093" />
    <linearGradient
       inkscape:collect="always"
       xlink:href="#b"
       id="linearGradient286"
       gradientUnits="userSpaceOnUse"
       gradientTransform="matrix(0.43617308,0,0,0.43617308,318.04246,186.04246)"
       x1="31.144558"
       y1="48.629539"
       x2="31.373112"
       y2="6.5311131" />
    <linearGradient
       inkscape:collect="always"
       xlink:href="#c"
       id="linearGradient288"
       gradientUnits="userSpaceOnUse"
       gradientTransform="matrix(0.41542287,0,0,0.82197546,145.07195,-237.18273)"
       x1="451.02078"
       y1="544.14978"
       x2="451.02078"
       y2="543.0885" />
    <linearGradient
       inkscape:collect="always"
       xlink:href="#d"
       id="linearGradient290"
       gradientUnits="userSpaceOnUse"
       gradientTransform="matrix(0.43617308,0,0,0.43617308,318.04246,186.04246)"
       x1="52.000313"
       y1="56.345066"
       x2="52.000313"
       y2="52.345085" />
    <linearGradient
       inkscape:collect="always"
       xlink:href="#a"
       id="linearGradient308"
       gradientUnits="userSpaceOnUse"
       gradientTransform="matrix(0.13316825,0,0,0.13095075,319.15579,236.09267)"
       x1="10.09375"
       y1="107.36093"
       x2="122.719"
       y2="107.36093" />
    <linearGradient
       inkscape:collect="always"
       xlink:href="#b"
       id="linearGradient310"
       gradientUnits="userSpaceOnUse"
       gradientTransform="matrix(0.28446069,0,0,0.28446069,318.89726,234.89725)"
       x1="31.144558"
       y1="48.629539"
       x2="31.373112"
       y2="6.5311131" />
    <linearGradient
       inkscape:collect="always"
       xlink:href="#c"
       id="linearGradient312"
       gradientUnits="userSpaceOnUse"
       gradientTransform="matrix(0.27092794,0,0,0.53607091,206.09041,-41.119155)"
       x1="451.02078"
       y1="544.14978"
       x2="451.02078"
       y2="543.0885" />
    <linearGradient
       inkscape:collect="always"
       xlink:href="#d"
       id="linearGradient314"
       gradientUnits="userSpaceOnUse"
       gradientTransform="matrix(0.28446069,0,0,0.28446069,318.89726,234.89725)"
       x1="52.000313"
       y1="56.345066"
       x2="52.000313"
       y2="52.345085" />
    <linearGradient
       inkscape:collect="always"
       xlink:href="#a"
       id="linearGradient416"
       gradientUnits="userSpaceOnUse"
       gradientTransform="matrix(1.988646,0,0,1.9555313,19.926524,37.917245)"
       x1="10.09375"
       y1="107.36093"
       x2="122.719"
       y2="107.36093" />
    <linearGradient
       inkscape:collect="always"
       xlink:href="#b"
       id="linearGradient418"
       gradientUnits="userSpaceOnUse"
       gradientTransform="matrix(4.2479466,0,0,4.2479466,16.065736,20.065675)"
       x1="31.144558"
       y1="48.629539"
       x2="31.373112"
       y2="6.5311131" />
    <linearGradient
       inkscape:collect="always"
       xlink:href="#c"
       id="linearGradient420"
       gradientUnits="userSpaceOnUse"
       gradientTransform="matrix(4.0458576,0,0,8.0053263,-1668.5166,-4101.7797)"
       x1="451.02078"
       y1="544.14978"
       x2="451.02078"
       y2="543.0885" />
    <linearGradient
       inkscape:collect="always"
       xlink:href="#d"
       id="linearGradient422"
       gradientUnits="userSpaceOnUse"
       gradientTransform="matrix(4.2479466,0,0,4.2479466,16.065736,20.065675)"
       x1="52.000313"
       y1="56.345066"
       x2="52.000313"
       y2="52.345085" />
  </defs>
  <metadata
     id="metadata4">
    <rdf:RDF>
      <cc:Work
         rdf:about="">
        <dc:format>image/svg+xml</dc:format>
        <dc:type
           rdf:resource="http://purl.org/dc/dcmitype/StillImage" />
        <dc:creator>
          <cc:Agent>
            <dc:title>Sam Hewitt</dc:title>
          </cc:Agent>
        </dc:creator>
        <dc:source />
        <cc:license
           rdf:resource="http://creativecommons.org/licenses/by-sa/4.0/" />
        <dc:title>Suru Icon Theme Template</dc:title>
        <dc:subject>
          <rdf:Bag />
        </dc:subject>
        <dc:date />
        <dc:rights>
          <cc:Agent>
            <dc:title />
          </cc:Agent>
        </dc:rights>
        <dc:publisher>
          <cc:Agent>
            <dc:title />
          </cc:Agent>
        </dc:publisher>
        <dc:identifier />
        <dc:relation />
        <dc:language />
        <dc:coverage />
        <dc:description />
        <dc:contributor>
          <cc:Agent>
            <dc:title />
          </cc:Agent>
        </dc:contributor>
      </cc:Work>
      <cc:Work
         rdf:about="">
        <dc:format>image/svg+xml</dc:format>
        <dc:type
           rdf:resource="http://purl.org/dc/dcmitype/StillImage" />
      </cc:Work>
      <cc:License
         rdf:about="http://creativecommons.org/licenses/by-sa/4.0/">
        <cc:permits
           rdf:resource="http://creativecommons.org/ns#Reproduction" />
        <cc:permits
           rdf:resource="http://creativecommons.org/ns#Distribution" />
        <cc:requires
           rdf:resource="http://creativecommons.org/ns#Notice" />
        <cc:requires
           rdf:resource="http://creativecommons.org/ns#Attribution" />
        <cc:permits
           rdf:resource="http://creativecommons.org/ns#DerivativeWorks" />
        <cc:requires
           rdf:resource="http://creativecommons.org/ns#ShareAlike" />
      </cc:License>
    </rdf:RDF>
  </metadata>
  <g
     style="display:inline"
     inkscape:groupmode="layer"
     inkscape:label="Icon"
     id="layer1">
    <g
       style="display:none"
       inkscape:label="Baseplate"
       id="layer7"
       inkscape:groupmode="layer"
       sodipodi:insensitive="true">
      <text
         y="-8.2548828"
         xml:space="preserve"
         x="19.006836"
         style="font-style:normal;font-variant:normal;font-weight:normal;font-stretch:normal;line-height:0%;font-family:'DejaVu Sans';-inkscape-font-specification:'DejaVu Sans';display:inline;fill:#000000;fill-opacity:1;stroke:none;enable-background:new"
         inkscape:label="context"
         id="context"><tspan
           style="font-style:normal;font-variant:normal;font-weight:normal;font-stretch:normal;font-size:18px;line-height:1.25;font-family:'DejaVu Sans';-inkscape-font-specification:'DejaVu Sans'"
           y="-8.2548828"
           x="19.006836"
           sodipodi:role="line"
           id="tspan1445">devices</tspan></text>
      <text
         y="-8.2548828"
         xml:space="preserve"
         x="146.48828"
         style="font-style:normal;font-variant:normal;font-weight:bold;font-stretch:normal;line-height:0%;font-family:'DejaVu Sans';-inkscape-font-specification:'DejaVu Sans Bold';text-align:start;writing-mode:lr-tb;text-anchor:start;display:inline;fill:#000000;fill-opacity:1;stroke:none;enable-background:new"
         inkscape:label="icon-name"
         id="icon-name"><tspan
           style="font-style:normal;font-variant:normal;font-weight:bold;font-stretch:normal;font-size:18px;line-height:1.25;font-family:'DejaVu Sans';-inkscape-font-specification:'DejaVu Sans Bold'"
           y="-8.2548828"
           x="146.48828"
           sodipodi:role="line"
           id="tspan924">drive-harddisk</tspan></text>
      <rect
         style="display:inline;overflow:visible;visibility:visible;fill:#cdcdcd;fill-opacity:1;fill-rule:nonzero;stroke:none;stroke-width:2;marker:none;enable-background:accumulate"
         id="rect16x16"
         width="16"
         height="16"
         x="320"
         y="236"
         inkscape:label="16x16" />
      <rect
         style="display:inline;overflow:visible;visibility:visible;fill:#cdcdcd;fill-opacity:1;fill-rule:nonzero;stroke:none;stroke-width:2;marker:none;enable-background:accumulate"
         id="rect24x24"
         width="24"
         height="24"
         x="320"
         y="188"
         inkscape:label="24x24" />
      <rect
         style="display:inline;overflow:visible;visibility:visible;fill:#cdcdcd;fill-opacity:1;fill-rule:nonzero;stroke:none;stroke-width:2;marker:none;enable-background:accumulate"
         id="rect32x32"
         width="32"
         height="32"
         x="320"
         y="132"
         inkscape:label="32x32" />
      <rect
         inkscape:label="48x48"
         y="60"
         x="320"
         height="48"
         width="48"
         id="rect48x48"
         style="display:inline;overflow:visible;visibility:visible;fill:#cdcdcd;fill-opacity:1;fill-rule:nonzero;stroke:none;stroke-width:2;marker:none;enable-background:accumulate" />
      <rect
         style="display:inline;overflow:visible;visibility:visible;fill:#cdcdcd;fill-opacity:1;fill-rule:nonzero;stroke:none;stroke-width:2;marker:none;enable-background:accumulate"
         id="rect256x256"
         width="256"
         height="256"
         x="24"
         y="28"
         inkscape:label="256x256" />
    </g>
    <g
       inkscape:groupmode="layer"
       id="layer2"
       inkscape:label="Background"
       style="display:inline">
      <path
         d="m 39.999997,229.25974 1.988591,31.34331 c 0,3.25027 2.66075,5.86696 5.965939,5.86696 H 256.01653 c 3.30515,0 5.96611,-2.61669 5.96611,-5.86696 l 1.98855,-31.34331 z"
         fill="url(#a)"
         id="path558"
         style="display:inline;fill:url(#linearGradient416);stroke-width:4.24795;enable-background:new" />
      <path
         d="M 57.911808,45.529985 H 244.11269 c 3.30524,0 5.96607,2.61669 5.96607,5.86684 L 264,228.31292 c 0,3.25019 -2.6607,5.86698 -5.96586,5.86698 H 45.980807 c -3.30511,0 -5.9659,-2.61679 -5.9659,-5.86698 l 11.931,-176.915585 c 0,-3.25019 2.66082,-5.86735 5.965901,-5.86735 z"
         fill="url(#b)"
         id="path560"
         style="display:inline;fill:url(#linearGradient418);stroke-width:4.24795;enable-background:new" />
      <path
         d="m 321,99.044412 0.40837,6.436568 c 0,0.66747 0.54641,1.20483 1.22515,1.20483 h 42.72702 c 0.67874,0 1.22518,-0.53736 1.22518,-1.20483 l 0.40837,-6.436568 z"
         fill="url(#a)"
         id="path220"
         style="display:inline;fill:url(#linearGradient236);stroke-width:0.872347;enable-background:new" />
      <path
         d="M 324.67832,61.314194 H 362.916 c 0.67876,0 1.22518,0.537356 1.22518,1.204797 L 367,98.849976 c 0,0.667449 -0.54639,1.204824 -1.22513,1.204824 H 322.2282 c -0.67872,0 -1.22514,-0.537375 -1.22514,-1.204824 l 2.45012,-36.33088 c 0,-0.66745 0.54642,-1.204902 1.22514,-1.204902 z"
         fill="url(#b)"
         id="path222"
         style="display:inline;fill:url(#linearGradient238);stroke-width:0.872347;enable-background:new" />
      <path
         d="m 321,157.81157 0.26633,4.19776 c 0,0.43531 0.35635,0.78576 0.79901,0.78576 h 27.86545 c 0.44265,0 0.79903,-0.35045 0.79903,-0.78576 l 0.26632,-4.19776 z"
         fill="url(#a)"
         id="path244"
         style="display:inline;fill:url(#linearGradient260);stroke-width:0.568922;enable-background:new" />
      <path
         d="m 323.3989,133.20491 h 24.93762 c 0.44267,0 0.79903,0.35045 0.79903,0.78573 L 351,157.68476 c 0,0.4353 -0.35634,0.78576 -0.799,0.78576 h -28.4 c -0.44265,0 -0.799,-0.35046 -0.799,-0.78576 l 1.5979,-23.69405 c 0,-0.43529 0.35636,-0.7858 0.799,-0.7858 z"
         fill="url(#b)"
         id="path246"
         style="display:inline;fill:url(#linearGradient262);stroke-width:0.568922;enable-background:new" />
      <path
         d="m 320.5,207.5222 0.20418,3.21829 c 0,0.33373 0.2732,0.60241 0.61258,0.60241 h 21.3635 c 0.33937,0 0.6126,-0.26868 0.6126,-0.60241 l 0.20418,-3.21829 z"
         fill="url(#a)"
         id="path268"
         style="display:inline;fill:url(#linearGradient284);stroke-width:0.436173;enable-background:new" />
      <path
         d="M 322.33915,188.65709 H 341.458 c 0.33937,0 0.61258,0.26868 0.61258,0.6024 l 1.42942,18.1655 c 0,0.33372 -0.2732,0.60241 -0.61257,0.60241 H 321.1141 c -0.33937,0 -0.61257,-0.26869 -0.61257,-0.60241 l 1.22505,-18.16544 c 0,-0.33373 0.27321,-0.60246 0.61257,-0.60246 z"
         fill="url(#b)"
         id="path270"
         style="display:inline;fill:url(#linearGradient286);stroke-width:0.436173;enable-background:new" />
      <path
         d="m 320.5,248.90578 0.13316,2.09889 c 0,0.21765 0.17818,0.39287 0.39951,0.39287 h 13.93272 c 0.22132,0 0.39951,-0.17522 0.39951,-0.39287 l 0.13317,-2.09889 z"
         fill="url(#a)"
         id="path292"
         style="display:inline;fill:url(#linearGradient308);stroke-width:0.284461;enable-background:new" />
      <path
         d="m 321.69945,236.60245 h 12.46881 c 0.22133,0 0.39951,0.17523 0.39951,0.39287 l 0.93222,11.84706 c 0,0.21765 -0.17817,0.39288 -0.39949,0.39288 h -14.2 c -0.22133,0 -0.39951,-0.17523 -0.39951,-0.39288 l 0.79895,-11.84702 c 0,-0.21765 0.17818,-0.39291 0.39951,-0.39291 z"
         fill="url(#b)"
         id="path294"
         style="display:inline;fill:url(#linearGradient310);stroke-width:0.284461;enable-background:new" />
    </g>
    <g
       inkscape:groupmode="layer"
       id="layer6"
       inkscape:label="Pictogram"
       style="display:inline">
      <path
         d="m 109.54088,248.68424 h 85.61222 c 1.70495,0 3.0775,1.37256 3.0775,3.07751 v 5e-5 c 0,1.70495 -1.37255,3.07751 -3.0775,3.07751 h -85.61222 c -1.70495,0 -3.07755,-1.37256 -3.07755,-3.07751 v -5e-5 c 0,-1.70495 1.3726,-3.07751 3.07755,-3.07751 z"
         fill="url(#c)"
         id="path562"
         style="display:inline;enable-background:new;fill:url(#linearGradient420);stroke-width:4.24795" />
      <path
         d="m 244.77388,251.9804 a 8.4958931,8.4958422 0 0 1 -8.49589,8.4958 8.4958931,8.4958422 0 0 1 -8.4959,-8.4958 8.4958931,8.4958422 0 0 1 8.4959,-8.49585 8.4958931,8.4958422 0 0 1 8.49589,8.49585"
         fill="url(#d)"
         opacity="0.452"
         id="path564"
         style="display:inline;enable-background:new;fill:url(#linearGradient422);stroke-width:4.24795" />
      <path
         d="m 236.25941,252.20108 c 0.19158,0 0.35769,-0.0701 0.49778,-0.21028 0.14018,-0.14018 0.21027,-0.30627 0.21027,-0.49777 v -3.54007 c 0,-0.19201 -0.0701,-0.35768 -0.21027,-0.49773 -0.13976,-0.14018 -0.30586,-0.21028 -0.49778,-0.21028 -0.192,0 -0.35768,0.0701 -0.49781,0.21028 -0.14019,0.14018 -0.21028,0.30585 -0.21028,0.49773 v 3.54007 c 0,0.19158 0.0701,0.35768 0.21028,0.49777 0.14018,0.14019 0.30627,0.21028 0.49781,0.21028 z"
         fill="#e3e8ea"
         stroke-width="0.0678907"
         id="path566"
         style="display:inline;enable-background:new" />
      <path
         d="m 240.06223,250.30382 c -0.29694,-0.59361 -0.71443,-1.09147 -1.25277,-1.49337 -0.15506,-0.11809 -0.33006,-0.16397 -0.52547,-0.13848 -0.1954,0.0255 -0.35045,0.11809 -0.46464,0.27655 -0.11809,0.15504 -0.16312,0.3292 -0.13551,0.52267 0.0297,0.1937 0.11895,0.3496 0.274,0.46744 0.36107,0.27272 0.64071,0.60661 0.83786,1.00116 0.19711,0.39463 0.29566,0.81496 0.29566,1.26108 0,0.38359 -0.0748,0.7495 -0.22387,1.09797 -0.1491,0.34833 -0.3513,0.64989 -0.60571,0.90439 -0.25446,0.25445 -0.5558,0.45627 -0.90426,0.60563 -0.34834,0.14953 -0.71451,0.22429 -1.09801,0.22429 -0.38359,0 -0.74943,-0.0748 -1.09793,-0.22429 -0.34833,-0.14953 -0.6499,-0.35132 -0.90434,-0.60563 -0.25445,-0.25445 -0.45627,-0.55593 -0.60563,-0.90439 -0.14954,-0.34833 -0.22387,-0.71442 -0.22387,-1.09797 0,-0.44612 0.0986,-0.86649 0.29608,-1.26108 0.19711,-0.39464 0.47658,-0.72823 0.83795,-1.00116 0.15505,-0.11809 0.24596,-0.27357 0.27357,-0.46744 0.0297,-0.19372 -0.017,-0.36789 -0.13551,-0.52267 -0.11427,-0.15845 -0.26847,-0.25063 -0.46188,-0.27655 -0.1937,-0.0255 -0.36957,0.0212 -0.52823,0.13848 -0.53843,0.40186 -0.95596,0.89976 -1.25286,1.49337 -0.29692,0.59369 -0.44527,1.22608 -0.44527,1.89717 0,0.5753 0.11257,1.12469 0.33729,1.64833 0.22515,0.52365 0.52731,0.97529 0.90715,1.35514 0.37977,0.37977 0.83149,0.68222 1.35514,0.90702 0.52364,0.22514 1.07307,0.33771 1.64828,0.33771 0.57527,0 1.12469,-0.11257 1.64835,-0.33771 0.5236,-0.22471 0.97537,-0.52725 1.35512,-0.90702 0.37977,-0.37977 0.6821,-0.83149 0.90707,-1.35514 0.22514,-0.52364 0.33728,-1.07307 0.33728,-1.64833 0,-0.67109 -0.14825,-1.30348 -0.44504,-1.89717 z"
         fill="#e3e8ea"
         stroke-width="0.0678907"
         id="path568"
         style="display:inline;enable-background:new" />
      <path
         d="m 151.38604,94.993795 c -33.81981,0 -61.611793,16.074495 -61.611793,35.634615 0,19.56014 27.791983,35.63467 61.611783,35.63467 33.82003,0 61.62012,-16.07453 61.62012,-35.63467 0,-19.56012 -27.80009,-35.634615 -61.62011,-35.634615 z m 0,25.454515 c 9.67045,0 17.60575,4.5871 17.60575,10.1801 0,5.59281 -7.9353,10.18017 -17.60575,10.18017 -9.67015,0 -17.59741,-4.58736 -17.59741,-10.18017 0,-5.593 7.92726,-10.1801 17.59741,-10.1801 z"
         fill-opacity="0.235294"
         id="path570"
         style="display:inline;enable-background:new;stroke-width:4.24795" />
      <path
         d="m 335.28072,103.03337 h 17.58108 c 0.35012,0 0.63199,0.28187 0.63199,0.63199 v 10e-6 c 0,0.35012 -0.28187,0.63199 -0.63199,0.63199 h -17.58108 c -0.35013,0 -0.632,-0.28187 -0.632,-0.63199 v -10e-6 c 0,-0.35012 0.28187,-0.63199 0.632,-0.63199 z"
         fill="url(#c)"
         id="path224"
         style="display:inline;enable-background:new;fill:url(#linearGradient240);stroke-width:0.872347" />
      <path
         d="m 363.05178,103.71026 a 1.7446923,1.7446819 0 0 1 -1.74469,1.74467 1.7446923,1.7446819 0 0 1 -1.74469,-1.74467 1.7446923,1.7446819 0 0 1 1.74469,-1.74468 1.7446923,1.7446819 0 0 1 1.74469,1.74468"
         fill="url(#d)"
         opacity="0.452"
         id="path226"
         style="display:inline;enable-background:new;fill:url(#linearGradient242);stroke-width:0.872347" />
      <path
         d="m 361.30327,103.75558 c 0.0394,0 0.0735,-0.0144 0.10223,-0.0432 0.0288,-0.0288 0.0432,-0.0629 0.0432,-0.10222 v -0.72698 c 0,-0.0394 -0.0144,-0.0735 -0.0432,-0.10221 -0.0287,-0.0288 -0.0628,-0.0432 -0.10223,-0.0432 -0.0394,0 -0.0734,0.0144 -0.10223,0.0432 -0.0288,0.0288 -0.0432,0.0628 -0.0432,0.10221 v 0.72698 c 0,0.0393 0.0144,0.0734 0.0432,0.10222 0.0288,0.0288 0.0629,0.0432 0.10223,0.0432 z"
         fill="#e3e8ea"
         stroke-width="0.0139418"
         id="path228"
         style="display:inline;enable-background:new" />
      <path
         d="m 362.08421,103.36596 c -0.061,-0.1219 -0.14671,-0.22414 -0.25727,-0.30667 -0.0318,-0.0243 -0.0678,-0.0337 -0.1079,-0.0284 -0.0401,0.005 -0.072,0.0242 -0.0954,0.0568 -0.0242,0.0318 -0.0335,0.0676 -0.0278,0.10734 0.006,0.0398 0.0244,0.0718 0.0563,0.096 0.0741,0.056 0.13157,0.12457 0.17206,0.20559 0.0405,0.081 0.0607,0.16736 0.0607,0.25897 0,0.0788 -0.0154,0.15392 -0.046,0.22548 -0.0306,0.0715 -0.0721,0.13346 -0.12439,0.18572 -0.0523,0.0523 -0.11413,0.0937 -0.18569,0.12437 -0.0715,0.0307 -0.14673,0.0461 -0.22549,0.0461 -0.0788,0 -0.1539,-0.0154 -0.22546,-0.0461 -0.0715,-0.0307 -0.13347,-0.0721 -0.18572,-0.12437 -0.0523,-0.0523 -0.0937,-0.11416 -0.12437,-0.18572 -0.0307,-0.0715 -0.046,-0.14671 -0.046,-0.22548 0,-0.0916 0.0203,-0.17794 0.0608,-0.25897 0.0405,-0.081 0.0979,-0.14954 0.17208,-0.20559 0.0318,-0.0242 0.0505,-0.0562 0.0562,-0.096 0.006,-0.0398 -0.003,-0.0756 -0.0278,-0.10734 -0.0235,-0.0325 -0.0551,-0.0515 -0.0949,-0.0568 -0.0398,-0.005 -0.0759,0.004 -0.10847,0.0284 -0.11057,0.0825 -0.19632,0.18477 -0.25729,0.30667 -0.061,0.12192 -0.0914,0.25179 -0.0914,0.3896 0,0.11814 0.0231,0.23096 0.0693,0.3385 0.0462,0.10753 0.10829,0.20028 0.18629,0.27829 0.078,0.078 0.17075,0.14009 0.27829,0.18626 0.10753,0.0462 0.22036,0.0694 0.33848,0.0694 0.11814,0 0.23096,-0.0231 0.3385,-0.0694 0.10753,-0.0461 0.2003,-0.10828 0.27829,-0.18626 0.078,-0.078 0.14007,-0.17076 0.18627,-0.27829 0.0462,-0.10754 0.0693,-0.22036 0.0693,-0.3385 0,-0.13781 -0.0304,-0.26768 -0.0914,-0.3896 z"
         fill="#e3e8ea"
         stroke-width="0.0139418"
         id="path230"
         style="display:inline;enable-background:new" />
      <path
         d="m 343.87392,71.47194 c -6.94514,0 -12.65242,3.301012 -12.65242,7.317824 0,4.016814 5.70728,7.317834 12.65242,7.317834 6.94518,0 12.65413,-3.30102 12.65413,-7.317834 0,-4.016812 -5.70895,-7.317824 -12.65413,-7.317824 z m 0,5.227266 c 1.9859,0 3.61547,0.941993 3.61547,2.090558 0,1.148523 -1.62957,2.090571 -3.61547,2.090571 -1.98583,0 -3.61375,-0.942048 -3.61375,-2.090571 0,-1.148565 1.62792,-2.090558 3.61375,-2.090558 z"
         fill-opacity="0.235294"
         id="path232"
         style="display:inline;enable-background:new;stroke-width:0.872347" />
      <path
         d="m 330.31351,160.41307 h 11.46593 c 0.22834,0 0.41216,0.18382 0.41216,0.41216 v 1e-5 c 0,0.22834 -0.18382,0.41216 -0.41216,0.41216 h -11.46593 c -0.22834,0 -0.41217,-0.18382 -0.41217,-0.41216 v -1e-5 c 0,-0.22834 0.18383,-0.41216 0.41217,-0.41216 z"
         fill="url(#c)"
         id="path248"
         style="display:inline;enable-background:new;fill:url(#linearGradient264);stroke-width:0.568922" />
      <path
         d="m 348.42508,160.85452 a 1.1378428,1.137836 0 0 1 -1.13785,1.13783 1.1378428,1.137836 0 0 1 -1.13784,-1.13783 1.1378428,1.137836 0 0 1 1.13784,-1.13784 1.1378428,1.137836 0 0 1 1.13785,1.13784"
         fill="url(#d)"
         opacity="0.452"
         id="path250"
         style="display:inline;enable-background:new;fill:url(#linearGradient266);stroke-width:0.568922" />
      <path
         d="m 347.28474,160.88407 c 0.0257,0 0.0479,-0.009 0.0667,-0.0282 0.0188,-0.0188 0.0282,-0.041 0.0282,-0.0667 v -0.47411 c 0,-0.0257 -0.009,-0.0479 -0.0282,-0.0667 -0.0187,-0.0188 -0.041,-0.0282 -0.0667,-0.0282 -0.0257,0 -0.0479,0.009 -0.0667,0.0282 -0.0188,0.0188 -0.0282,0.041 -0.0282,0.0667 v 0.47411 c 0,0.0257 0.009,0.0479 0.0282,0.0667 0.0188,0.0188 0.041,0.0282 0.0667,0.0282 z"
         fill="#e3e8ea"
         stroke-width="0.00909251"
         id="path252"
         style="display:inline;enable-background:new" />
      <path
         d="m 347.79405,160.62997 c -0.0398,-0.0795 -0.0957,-0.14618 -0.16778,-0.2 -0.0208,-0.0158 -0.0442,-0.022 -0.0704,-0.0186 -0.0262,0.003 -0.0469,0.0158 -0.0622,0.037 -0.0158,0.0208 -0.0219,0.0441 -0.0181,0.07 0.004,0.0259 0.0159,0.0468 0.0367,0.0626 0.0484,0.0365 0.0858,0.0812 0.11222,0.13409 0.0264,0.0529 0.0396,0.10914 0.0396,0.16889 0,0.0514 -0.01,0.10038 -0.03,0.14705 -0.02,0.0466 -0.0471,0.087 -0.0811,0.12112 -0.0341,0.0341 -0.0744,0.0611 -0.12111,0.0811 -0.0466,0.02 -0.0957,0.03 -0.14705,0.03 -0.0514,0 -0.10037,-0.01 -0.14705,-0.03 -0.0466,-0.02 -0.087,-0.0471 -0.12111,-0.0811 -0.0341,-0.0341 -0.0611,-0.0744 -0.0811,-0.12112 -0.02,-0.0466 -0.03,-0.0957 -0.03,-0.14705 0,-0.0598 0.0132,-0.11605 0.0397,-0.16889 0.0264,-0.0529 0.0638,-0.0975 0.11222,-0.13409 0.0208,-0.0158 0.0329,-0.0366 0.0366,-0.0626 0.004,-0.0259 -0.002,-0.0493 -0.0181,-0.07 -0.0153,-0.0212 -0.036,-0.0336 -0.0619,-0.037 -0.0259,-0.003 -0.0495,0.003 -0.0707,0.0186 -0.0721,0.0538 -0.12803,0.1205 -0.1678,0.2 -0.0398,0.0795 -0.0596,0.16421 -0.0596,0.25409 0,0.077 0.0151,0.15063 0.0452,0.22076 0.0302,0.0701 0.0706,0.13062 0.1215,0.18149 0.0509,0.0509 0.11136,0.0914 0.18149,0.12147 0.0701,0.0302 0.14371,0.0452 0.22075,0.0452 0.0771,0 0.15063,-0.0151 0.22076,-0.0452 0.0701,-0.0301 0.13063,-0.0706 0.18149,-0.12147 0.0509,-0.0509 0.0913,-0.11136 0.12148,-0.18149 0.0302,-0.0701 0.0452,-0.14372 0.0452,-0.22076 0,-0.0899 -0.0199,-0.17457 -0.0596,-0.25409 z"
         fill="#e3e8ea"
         stroke-width="0.00909251"
         id="path254"
         style="display:inline;enable-background:new" />
      <path
         d="m 335.91778,139.82952 c -4.52944,0 -8.25158,2.15284 -8.25158,4.7725 0,2.61966 3.72214,4.7725 8.25157,4.7725 4.52947,0 8.2527,-2.15284 8.2527,-4.7725 0,-2.61966 -3.72323,-4.7725 -8.25269,-4.7725 z m 0,3.40909 c 1.29515,0 2.35791,0.61434 2.35791,1.36341 0,0.74903 -1.06276,1.36341 -2.35791,1.36341 -1.29511,0 -2.3568,-0.61438 -2.3568,-1.36341 0,-0.74907 1.06169,-1.36341 2.3568,-1.36341 z"
         fill-opacity="0.235294"
         id="path256"
         style="display:inline;enable-background:new;stroke-width:0.568922" />
      <path
         d="m 327.64035,209.51668 h 8.79054 c 0.17507,0 0.316,0.14094 0.316,0.316 v 0 c 0,0.17507 -0.14093,0.316 -0.316,0.316 h -8.79054 c -0.17506,0 -0.31599,-0.14093 -0.31599,-0.316 v 0 c 0,-0.17506 0.14093,-0.316 0.31599,-0.316 z"
         fill="url(#c)"
         id="path272"
         style="display:inline;enable-background:new;fill:url(#linearGradient288);stroke-width:0.436173" />
      <path
         d="m 341.52589,209.85513 a 0.87234615,0.87234093 0 0 1 -0.87235,0.87234 0.87234615,0.87234093 0 0 1 -0.87235,-0.87234 0.87234615,0.87234093 0 0 1 0.87235,-0.87234 0.87234615,0.87234093 0 0 1 0.87235,0.87234"
         fill="url(#d)"
         opacity="0.452"
         id="path274"
         style="display:inline;enable-background:new;fill:url(#linearGradient290);stroke-width:0.436173" />
      <path
         d="m 340.65163,209.87779 c 0.0197,0 0.0367,-0.007 0.0511,-0.0216 0.0144,-0.0144 0.0216,-0.0315 0.0216,-0.0511 v -0.36349 c 0,-0.0197 -0.007,-0.0367 -0.0216,-0.0511 -0.0143,-0.0144 -0.0314,-0.0216 -0.0511,-0.0216 -0.0197,0 -0.0367,0.007 -0.0511,0.0216 -0.0144,0.0144 -0.0216,0.0314 -0.0216,0.0511 v 0.36349 c 0,0.0197 0.007,0.0367 0.0216,0.0511 0.0144,0.0144 0.0314,0.0216 0.0511,0.0216 z"
         fill="#e3e8ea"
         stroke-width="0.00697092"
         id="path276"
         style="display:inline;enable-background:new" />
      <path
         d="m 341.0421,209.68298 c -0.0305,-0.0609 -0.0734,-0.11207 -0.12863,-0.15334 -0.0159,-0.0121 -0.0339,-0.0168 -0.054,-0.0142 -0.0201,0.003 -0.036,0.0121 -0.0477,0.0284 -0.0121,0.0159 -0.0167,0.0338 -0.0139,0.0537 0.003,0.0199 0.0122,0.0359 0.0281,0.048 0.0371,0.028 0.0658,0.0623 0.086,0.1028 0.0202,0.0405 0.0304,0.0837 0.0304,0.12949 0,0.0394 -0.008,0.077 -0.023,0.11273 -0.0153,0.0358 -0.0361,0.0667 -0.0622,0.0929 -0.0261,0.0261 -0.0571,0.0469 -0.0928,0.0622 -0.0358,0.0154 -0.0734,0.023 -0.11274,0.023 -0.0394,0 -0.077,-0.008 -0.11273,-0.023 -0.0358,-0.0153 -0.0667,-0.0361 -0.0929,-0.0622 -0.0261,-0.0261 -0.0469,-0.0571 -0.0622,-0.0929 -0.0154,-0.0358 -0.023,-0.0734 -0.023,-0.11273 0,-0.0458 0.0101,-0.089 0.0304,-0.12949 0.0202,-0.0405 0.0489,-0.0748 0.086,-0.1028 0.0159,-0.0121 0.0253,-0.0281 0.0281,-0.048 0.003,-0.0199 -0.002,-0.0378 -0.0139,-0.0537 -0.0117,-0.0163 -0.0276,-0.0257 -0.0474,-0.0284 -0.0199,-0.003 -0.038,0.002 -0.0542,0.0142 -0.0553,0.0413 -0.0982,0.0924 -0.12864,0.15334 -0.0305,0.061 -0.0457,0.12589 -0.0457,0.1948 0,0.0591 0.0116,0.11548 0.0346,0.16925 0.0231,0.0538 0.0542,0.10014 0.0932,0.13914 0.039,0.039 0.0854,0.0701 0.13914,0.0931 0.0538,0.0231 0.11018,0.0347 0.16925,0.0347 0.0591,0 0.11548,-0.0116 0.16925,-0.0347 0.0538,-0.0231 0.10015,-0.0541 0.13914,-0.0931 0.039,-0.039 0.07,-0.0854 0.0931,-0.13914 0.0231,-0.0538 0.0346,-0.11018 0.0346,-0.16925 0,-0.0689 -0.0152,-0.13384 -0.0457,-0.1948 z"
         fill="#e3e8ea"
         stroke-width="0.00697092"
         id="path278"
         style="display:inline;enable-background:new" />
      <path
         d="m 331.93696,193.73597 c -3.47257,0 -6.32622,1.6505 -6.32622,3.65891 0,2.00841 2.85365,3.65892 6.32621,3.65892 3.4726,0 6.32707,-1.65051 6.32707,-3.65892 0,-2.00841 -2.85447,-3.65891 -6.32706,-3.65891 z m 0,2.61363 c 0.99294,0 1.80773,0.471 1.80773,1.04528 0,0.57426 -0.81479,1.04529 -1.80773,1.04529 -0.99292,0 -1.80688,-0.47103 -1.80688,-1.04529 0,-0.57428 0.81396,-1.04528 1.80688,-1.04528 z"
         fill-opacity="0.235294"
         id="path280"
         style="display:inline;enable-background:new;stroke-width:0.436173" />
      <path
         d="m 325.15675,250.20653 h 5.73296 c 0.11417,0 0.20608,0.0919 0.20608,0.20608 v 1e-5 c 0,0.11417 -0.0919,0.20608 -0.20608,0.20608 h -5.73296 c -0.11417,0 -0.20608,-0.0919 -0.20608,-0.20608 v -1e-5 c 0,-0.11417 0.0919,-0.20608 0.20608,-0.20608 z"
         fill="url(#c)"
         id="path296"
         style="display:inline;enable-background:new;fill:url(#linearGradient312);stroke-width:0.284461" />
      <path
         d="m 334.21253,250.42726 a 0.56892136,0.56891796 0 0 1 -0.56892,0.56891 0.56892136,0.56891796 0 0 1 -0.56892,-0.56891 0.56892136,0.56891796 0 0 1 0.56892,-0.56892 0.56892136,0.56891796 0 0 1 0.56892,0.56892"
         fill="url(#d)"
         opacity="0.452"
         id="path298"
         style="display:inline;enable-background:new;fill:url(#linearGradient314);stroke-width:0.284461" />
      <path
         d="m 333.64237,250.44203 c 0.0128,0 0.0239,-0.005 0.0333,-0.0141 0.009,-0.009 0.0141,-0.0205 0.0141,-0.0333 v -0.23706 c 0,-0.0129 -0.005,-0.0239 -0.0141,-0.0333 -0.009,-0.009 -0.0205,-0.0141 -0.0333,-0.0141 -0.0129,0 -0.024,0.005 -0.0333,0.0141 -0.009,0.009 -0.0141,0.0205 -0.0141,0.0333 v 0.23706 c 0,0.0128 0.005,0.0239 0.0141,0.0333 0.009,0.009 0.0205,0.0141 0.0333,0.0141 z"
         fill="#e3e8ea"
         stroke-width="0.00454625"
         id="path300"
         style="display:inline;enable-background:new" />
      <path
         d="m 333.89702,250.31499 c -0.0199,-0.0398 -0.0478,-0.0731 -0.0839,-0.10001 -0.0104,-0.008 -0.0221,-0.011 -0.0352,-0.009 -0.0131,0.002 -0.0235,0.008 -0.0311,0.0185 -0.008,0.0104 -0.0109,0.022 -0.009,0.035 0.002,0.013 0.008,0.0234 0.0183,0.0313 0.0242,0.0183 0.0429,0.0406 0.0561,0.067 0.0132,0.0264 0.0198,0.0546 0.0198,0.0845 0,0.0257 -0.005,0.0502 -0.015,0.0735 -0.01,0.0233 -0.0235,0.0435 -0.0406,0.0606 -0.017,0.017 -0.0372,0.0306 -0.0606,0.0405 -0.0233,0.01 -0.0478,0.015 -0.0735,0.015 -0.0257,0 -0.0502,-0.005 -0.0735,-0.015 -0.0233,-0.01 -0.0435,-0.0235 -0.0606,-0.0405 -0.017,-0.017 -0.0306,-0.0372 -0.0405,-0.0606 -0.01,-0.0233 -0.015,-0.0478 -0.015,-0.0735 0,-0.0299 0.007,-0.058 0.0198,-0.0845 0.0132,-0.0264 0.0319,-0.0488 0.0561,-0.067 0.0104,-0.008 0.0165,-0.0183 0.0183,-0.0313 0.002,-0.013 -10e-4,-0.0246 -0.009,-0.035 -0.008,-0.0106 -0.018,-0.0168 -0.0309,-0.0185 -0.013,-0.002 -0.0247,10e-4 -0.0354,0.009 -0.0361,0.0269 -0.064,0.0602 -0.0839,0.10001 -0.0199,0.0397 -0.0298,0.0821 -0.0298,0.12704 0,0.0385 0.008,0.0753 0.0226,0.11038 0.0151,0.0351 0.0353,0.0653 0.0608,0.0907 0.0254,0.0254 0.0557,0.0457 0.0907,0.0607 0.0351,0.0151 0.0719,0.0226 0.11038,0.0226 0.0385,0 0.0753,-0.008 0.11038,-0.0226 0.0351,-0.0151 0.0653,-0.0353 0.0907,-0.0607 0.0254,-0.0254 0.0457,-0.0557 0.0608,-0.0907 0.0151,-0.0351 0.0226,-0.0719 0.0226,-0.11038 0,-0.0449 -0.01,-0.0873 -0.0298,-0.12704 z"
         fill="#e3e8ea"
         stroke-width="0.00454625"
         id="path302"
         style="display:inline;enable-background:new" />
      <path
         d="m 327.95888,239.91476 c -2.26472,0 -4.12579,1.07642 -4.12579,2.38625 0,1.30983 1.86107,2.38625 4.12579,2.38625 2.26474,0 4.12635,-1.07642 4.12635,-2.38625 0,-1.30983 -1.86161,-2.38625 -4.12635,-2.38625 z m 0,1.70454 c 0.64758,0 1.17896,0.30718 1.17896,0.68171 0,0.37452 -0.53138,0.68171 -1.17896,0.68171 -0.64755,0 -1.1784,-0.30719 -1.1784,-0.68171 0,-0.37453 0.53085,-0.68171 1.1784,-0.68171 z"
         fill-opacity="0.235294"
         id="path304"
         style="display:inline;enable-background:new;stroke-width:0.284461" />
    </g>
  </g>
</svg>
