<?xml version="1.0" encoding="UTF-8" standalone="no"?>
<svg
   inkscape:export-ydpi="90.000000"
   inkscape:export-xdpi="90.000000"
   width="400"
   height="300"
   id="svg11300"
   sodipodi:version="0.32"
   inkscape:version="1.2.2 (b0a8486541, 2022-12-01)"
   sodipodi:docname="drive-optical.svg"
   inkscape:output_extension="org.inkscape.output.svg.inkscape"
   version="1.0"
   style="display:inline;enable-background:new"
   inkscape:export-filename="/home/sam/suru-template.png"
   xmlns:inkscape="http://www.inkscape.org/namespaces/inkscape"
   xmlns:sodipodi="http://sodipodi.sourceforge.net/DTD/sodipodi-0.dtd"
   xmlns:xlink="http://www.w3.org/1999/xlink"
   xmlns="http://www.w3.org/2000/svg"
   xmlns:svg="http://www.w3.org/2000/svg"
   xmlns:rdf="http://www.w3.org/1999/02/22-rdf-syntax-ns#"
   xmlns:cc="http://creativecommons.org/ns#"
   xmlns:dc="http://purl.org/dc/elements/1.1/">
  <title
     id="title3004">Suru Icon Theme Template</title>
  <sodipodi:namedview
     stroke="#ef2929"
     fill="#f57900"
     id="base"
     pagecolor="#ffffff"
     bordercolor="#000000"
     borderopacity="0.25490196"
     inkscape:pageopacity="0"
     inkscape:pageshadow="2"
     inkscape:zoom="2.8284271"
     inkscape:cx="261.62951"
     inkscape:cy="144.24978"
     inkscape:current-layer="layer6"
     showgrid="false"
     inkscape:grid-bbox="true"
     inkscape:document-units="px"
     inkscape:showpageshadow="false"
     inkscape:window-width="1920"
     inkscape:window-height="1016"
     inkscape:window-x="0"
     inkscape:window-y="32"
     width="400px"
     height="300px"
     inkscape:snap-nodes="true"
     inkscape:snap-bbox="true"
     gridtolerance="10000"
     inkscape:object-nodes="true"
     inkscape:snap-grids="true"
     showguides="true"
     inkscape:guide-bbox="true"
     inkscape:window-maximized="1"
     inkscape:bbox-paths="true"
     inkscape:snap-bbox-midpoints="true"
     inkscape:snap-global="true"
     inkscape:object-paths="true"
     inkscape:snap-intersection-paths="true"
     inkscape:snap-smooth-nodes="true"
     inkscape:pagecheckerboard="false"
     showborder="false"
     inkscape:document-rotation="0"
     inkscape:deskcolor="#d1d1d1">
    <inkscape:grid
       spacingy="1"
       spacingx="1"
       id="grid5883"
       type="xygrid"
       enabled="true"
       visible="true"
       empspacing="4"
       snapvisiblegridlinesonly="true"
       originx="0"
       originy="0" />
    <inkscape:grid
       type="xygrid"
       id="grid11592"
       empspacing="2"
       visible="true"
       enabled="false"
       spacingx="0.5"
       spacingy="0.5"
       color="#ff0000"
       opacity="0.1254902"
       empcolor="#ff0000"
       empopacity="0.25098039"
       snapvisiblegridlinesonly="true"
       originx="0"
       originy="0" />
  </sodipodi:namedview>
  <defs
     id="defs3">
    <filter
       id="h"
       x="-0.022228117"
       y="-0.094621452"
       width="1.0444562"
       height="1.1892429"
       color-interpolation-filters="sRGB">
      <feGaussianBlur
         stdDeviation="0.28293785"
         id="feGaussianBlur336" />
    </filter>
    <radialGradient
       id="a"
       cx="502.62"
       cy="372.04999"
       r="74.884003"
       gradientTransform="matrix(0.19224,0,0,0.047917,-79.69,275.86)"
       gradientUnits="userSpaceOnUse">
      <stop
         stop-color="#dfe5e8"
         offset="0"
         id="stop302" />
      <stop
         stop-color="#c3cacc"
         offset="1"
         id="stop304" />
    </radialGradient>
    <linearGradient
       id="b"
       x1="500.54999"
       x2="504.38"
       y1="216.14"
       y2="349.10001"
       gradientTransform="matrix(0.20398,0,0,0.20398,-85.589,219.91)"
       gradientUnits="userSpaceOnUse">
      <stop
         stop-color="#d7e1e5"
         offset="0"
         id="stop307" />
      <stop
         stop-color="#a1a1a2"
         offset="1"
         id="stop309" />
    </linearGradient>
    <linearGradient
       id="f"
       x1="63.721001"
       x2="64.939003"
       y1="168.64999"
       y2="249.61"
       gradientTransform="matrix(0.27192,0,0,0.27192,-1.4468,218.36)"
       gradientUnits="userSpaceOnUse">
      <stop
         stop-color="#fff"
         offset="0"
         id="stop312" />
      <stop
         stop-color="#e5e5e6"
         offset="1"
         id="stop314" />
    </linearGradient>
    <linearGradient
       id="e"
       x1="-17.940001"
       x2="-17.940001"
       y1="351.10001"
       y2="361.98001"
       gradientTransform="matrix(0.18197,0,0,0.085108,19.129,264.03)"
       gradientUnits="userSpaceOnUse">
      <stop
         stop-color="#4c4c4c"
         offset="0"
         id="stop317" />
      <stop
         stop-color="#828282"
         offset="1"
         id="stop319" />
    </linearGradient>
    <filter
       id="g"
       x="-0.036379681"
       y="-0.14529982"
       width="1.0727594"
       height="1.2905996"
       color-interpolation-filters="sRGB">
      <feGaussianBlur
         stdDeviation="1.0061407"
         id="feGaussianBlur339" />
    </filter>
    <linearGradient
       id="c"
       x1="-82.240997"
       x2="-50.209"
       y1="32.694"
       y2="-0.51547998"
       gradientTransform="matrix(1.0481,0,0,1.0481,118.15,54.986)"
       gradientUnits="userSpaceOnUse">
      <stop
         stop-color="#dde1ed"
         offset="0"
         id="stop322" />
      <stop
         stop-color="#bbbbb6"
         offset=".48509"
         id="stop324" />
      <stop
         stop-color="#d9d7d6"
         offset="1"
         id="stop326" />
    </linearGradient>
    <linearGradient
       id="d"
       x1="-53.606998"
       x2="-12.256"
       y1="-8.0132999"
       y2="24.827"
       gradientTransform="matrix(-1.0743,0,0,-1.0743,11.265,124.19)"
       gradientUnits="userSpaceOnUse">
      <stop
         stop-color="#fff"
         stop-opacity="0"
         offset="0"
         id="stop329" />
      <stop
         stop-color="#fff"
         stop-opacity=".7"
         offset=".53114"
         id="stop331" />
      <stop
         stop-color="#fff"
         stop-opacity="0"
         offset="1"
         id="stop333" />
    </linearGradient>
    <radialGradient
       inkscape:collect="always"
       xlink:href="#a"
       id="radialGradient976"
       gradientUnits="userSpaceOnUse"
       gradientTransform="matrix(0.22339272,0,0,0.06185871,231.71869,76.956409)"
       cx="502.62"
       cy="372.04999"
       r="74.884003" />
    <linearGradient
       inkscape:collect="always"
       xlink:href="#b"
       id="linearGradient978"
       gradientUnits="userSpaceOnUse"
       gradientTransform="matrix(0.2370352,0,0,0.26332906,224.86375,4.72746)"
       x1="500.54999"
       y1="216.14"
       x2="504.38"
       y2="349.10001" />
    <linearGradient
       inkscape:collect="always"
       xlink:href="#f"
       id="linearGradient980"
       gradientUnits="userSpaceOnUse"
       gradientTransform="matrix(0.31598496,0,0,0.35103657,322.64129,2.7264793)"
       x1="63.721001"
       y1="168.64999"
       x2="64.939003"
       y2="249.61" />
    <linearGradient
       inkscape:collect="always"
       xlink:href="#e"
       id="linearGradient982"
       gradientUnits="userSpaceOnUse"
       gradientTransform="matrix(0.21145846,0,0,0.10987062,346.55143,61.684408)"
       x1="-17.940001"
       y1="351.10001"
       x2="-17.940001"
       y2="361.98001" />
    <linearGradient
       inkscape:collect="always"
       xlink:href="#c"
       id="linearGradient984"
       gradientUnits="userSpaceOnUse"
       gradientTransform="matrix(0.32634298,0,0,0.3625289,360.86013,79.541462)"
       x1="-82.240997"
       y1="32.694"
       x2="-50.209"
       y2="-0.51547998" />
    <linearGradient
       inkscape:collect="always"
       xlink:href="#d"
       id="linearGradient986"
       gradientUnits="userSpaceOnUse"
       gradientTransform="matrix(-0.33450077,0,0,-0.37159126,327.57975,103.47854)"
       x1="-53.606998"
       y1="-8.0132999"
       x2="-12.256"
       y2="24.827" />
    <radialGradient
       inkscape:collect="always"
       xlink:href="#a"
       id="radialGradient1016"
       gradientUnits="userSpaceOnUse"
       gradientTransform="matrix(0.14569091,0,0,0.04034263,262.77305,143.40635)"
       cx="502.62"
       cy="372.04999"
       r="74.884003" />
    <linearGradient
       inkscape:collect="always"
       xlink:href="#b"
       id="linearGradient1018"
       gradientUnits="userSpaceOnUse"
       gradientTransform="matrix(0.15458818,0,0,0.17173634,258.30243,96.300514)"
       x1="500.54999"
       y1="216.14"
       x2="504.38"
       y2="349.10001" />
    <linearGradient
       inkscape:collect="always"
       xlink:href="#f"
       id="linearGradient1020"
       gradientUnits="userSpaceOnUse"
       gradientTransform="matrix(0.20607715,0,0,0.22893689,322.0704,94.995526)"
       x1="63.721001"
       y1="168.64999"
       x2="64.939003"
       y2="249.61" />
    <linearGradient
       inkscape:collect="always"
       xlink:href="#e"
       id="linearGradient1022"
       gradientUnits="userSpaceOnUse"
       gradientTransform="matrix(0.13790769,0,0,0.07165475,337.66396,133.44635)"
       x1="-17.940001"
       y1="351.10001"
       x2="-17.940001"
       y2="361.98001" />
    <linearGradient
       inkscape:collect="always"
       xlink:href="#c"
       id="linearGradient1024"
       gradientUnits="userSpaceOnUse"
       gradientTransform="matrix(0.21283238,0,0,0.23643189,346.99574,145.09225)"
       x1="-82.240997"
       y1="32.694"
       x2="-50.209"
       y2="-0.51547998" />
    <linearGradient
       inkscape:collect="always"
       xlink:href="#d"
       id="linearGradient1026"
       gradientUnits="userSpaceOnUse"
       gradientTransform="matrix(-0.21815269,0,0,-0.24234212,325.29114,160.70339)"
       x1="-53.606998"
       y1="-8.0132999"
       x2="-12.256"
       y2="24.827" />
    <radialGradient
       inkscape:collect="always"
       xlink:href="#a"
       id="radialGradient1056"
       gradientUnits="userSpaceOnUse"
       gradientTransform="matrix(0.11169636,0,0,0.03092935,275.85935,196.47821)"
       cx="502.62"
       cy="372.04999"
       r="74.884003" />
    <linearGradient
       inkscape:collect="always"
       xlink:href="#b"
       id="linearGradient1058"
       gradientUnits="userSpaceOnUse"
       gradientTransform="matrix(0.1185176,0,0,0.13166453,272.43188,160.36373)"
       x1="500.54999"
       y1="216.14"
       x2="504.38"
       y2="349.10001" />
    <linearGradient
       inkscape:collect="always"
       xlink:href="#f"
       id="linearGradient1060"
       gradientUnits="userSpaceOnUse"
       gradientTransform="matrix(0.15799248,0,0,0.17551828,321.32065,159.36324)"
       x1="63.721001"
       y1="168.64999"
       x2="64.939003"
       y2="249.61" />
    <linearGradient
       inkscape:collect="always"
       xlink:href="#e"
       id="linearGradient1062"
       gradientUnits="userSpaceOnUse"
       gradientTransform="matrix(0.10572923,0,0,0.05493531,333.27572,188.84221)"
       x1="-17.940001"
       y1="351.10001"
       x2="-17.940001"
       y2="361.98001" />
    <linearGradient
       inkscape:collect="always"
       xlink:href="#c"
       id="linearGradient1064"
       gradientUnits="userSpaceOnUse"
       gradientTransform="matrix(0.16317149,0,0,0.18126444,340.43007,197.77074)"
       x1="-82.240997"
       y1="32.694"
       x2="-50.209"
       y2="-0.51547998" />
    <linearGradient
       inkscape:collect="always"
       xlink:href="#d"
       id="linearGradient1066"
       gradientUnits="userSpaceOnUse"
       gradientTransform="matrix(-0.16725039,0,0,-0.18579562,323.78988,209.73927)"
       x1="-53.606998"
       y1="-8.0132999"
       x2="-12.256"
       y2="24.827" />
    <radialGradient
       inkscape:collect="always"
       xlink:href="#a"
       id="radialGradient1096"
       gradientUnits="userSpaceOnUse"
       gradientTransform="matrix(0.07284545,0,0,0.02017132,291.38652,241.70317)"
       cx="502.62"
       cy="372.04999"
       r="74.884003" />
    <linearGradient
       inkscape:collect="always"
       xlink:href="#b"
       id="linearGradient1098"
       gradientUnits="userSpaceOnUse"
       gradientTransform="matrix(0.07729409,0,0,0.08586817,289.15121,218.15025)"
       x1="500.54999"
       y1="216.14"
       x2="504.38"
       y2="349.10001" />
    <linearGradient
       inkscape:collect="always"
       xlink:href="#f"
       id="linearGradient1100"
       gradientUnits="userSpaceOnUse"
       gradientTransform="matrix(0.10303857,0,0,0.11446844,321.03519,217.49776)"
       x1="63.721001"
       y1="168.64999"
       x2="64.939003"
       y2="249.61" />
    <linearGradient
       inkscape:collect="always"
       xlink:href="#e"
       id="linearGradient1102"
       gradientUnits="userSpaceOnUse"
       gradientTransform="matrix(0.06895384,0,0,0.03582738,328.83198,236.72317)"
       x1="-17.940001"
       y1="351.10001"
       x2="-17.940001"
       y2="361.98001" />
    <linearGradient
       inkscape:collect="always"
       xlink:href="#c"
       id="linearGradient1104"
       gradientUnits="userSpaceOnUse"
       gradientTransform="matrix(0.10641619,0,0,0.11821594,333.49786,242.54612)"
       x1="-82.240997"
       y1="32.694"
       x2="-50.209"
       y2="-0.51547998" />
    <linearGradient
       inkscape:collect="always"
       xlink:href="#d"
       id="linearGradient1106"
       gradientUnits="userSpaceOnUse"
       gradientTransform="matrix(-0.10907634,0,0,-0.12117106,322.64556,250.35169)"
       x1="-53.606998"
       y1="-8.0132999"
       x2="-12.256"
       y2="24.827" />
    <radialGradient
       inkscape:collect="always"
       xlink:href="#a"
       id="radialGradient1245"
       gradientUnits="userSpaceOnUse"
       gradientTransform="matrix(1.0878255,0,0,0.30122501,-394.76122,121.7008)"
       cx="502.62"
       cy="372.04999"
       r="74.884003" />
    <linearGradient
       inkscape:collect="always"
       xlink:href="#b"
       id="linearGradient1247"
       gradientUnits="userSpaceOnUse"
       gradientTransform="matrix(1.1542584,0,0,1.2822981,-428.1418,-230.02279)"
       x1="500.54999"
       y1="216.14"
       x2="504.38"
       y2="349.10001" />
    <linearGradient
       inkscape:collect="always"
       xlink:href="#f"
       id="linearGradient1249"
       gradientUnits="userSpaceOnUse"
       gradientTransform="matrix(1.5387094,0,0,1.7093955,47.99235,-239.7667)"
       x1="63.721001"
       y1="168.64999"
       x2="64.939003"
       y2="249.61" />
    <linearGradient
       inkscape:collect="always"
       xlink:href="#e"
       id="linearGradient1251"
       gradientUnits="userSpaceOnUse"
       gradientTransform="matrix(1.0297108,0,0,0.53502219,164.42431,47.332795)"
       x1="-17.940001"
       y1="351.10001"
       x2="-17.940001"
       y2="361.98001" />
    <linearGradient
       inkscape:collect="always"
       xlink:href="#c"
       id="linearGradient1253"
       gradientUnits="userSpaceOnUse"
       gradientTransform="matrix(1.5891485,0,0,1.7653582,234.10151,134.28882)"
       x1="-82.240997"
       y1="32.694"
       x2="-50.209"
       y2="-0.51547998" />
    <linearGradient
       inkscape:collect="always"
       xlink:href="#d"
       id="linearGradient1255"
       gradientUnits="userSpaceOnUse"
       gradientTransform="matrix(-1.6288734,0,0,-1.809488,72.040507,250.85198)"
       x1="-53.606998"
       y1="-8.0132999"
       x2="-12.256"
       y2="24.827" />
  </defs>
  <metadata
     id="metadata4">
    <rdf:RDF>
      <cc:Work
         rdf:about="">
        <dc:format>image/svg+xml</dc:format>
        <dc:type
           rdf:resource="http://purl.org/dc/dcmitype/StillImage" />
        <dc:creator>
          <cc:Agent>
            <dc:title>Sam Hewitt</dc:title>
          </cc:Agent>
        </dc:creator>
        <dc:source />
        <cc:license
           rdf:resource="http://creativecommons.org/licenses/by-sa/4.0/" />
        <dc:title>Suru Icon Theme Template</dc:title>
        <dc:subject>
          <rdf:Bag />
        </dc:subject>
        <dc:date />
        <dc:rights>
          <cc:Agent>
            <dc:title />
          </cc:Agent>
        </dc:rights>
        <dc:publisher>
          <cc:Agent>
            <dc:title />
          </cc:Agent>
        </dc:publisher>
        <dc:identifier />
        <dc:relation />
        <dc:language />
        <dc:coverage />
        <dc:description />
        <dc:contributor>
          <cc:Agent>
            <dc:title />
          </cc:Agent>
        </dc:contributor>
      </cc:Work>
      <cc:Work
         rdf:about="">
        <dc:format>image/svg+xml</dc:format>
        <dc:type
           rdf:resource="http://purl.org/dc/dcmitype/StillImage" />
      </cc:Work>
      <cc:License
         rdf:about="http://creativecommons.org/licenses/by-sa/4.0/">
        <cc:permits
           rdf:resource="http://creativecommons.org/ns#Reproduction" />
        <cc:permits
           rdf:resource="http://creativecommons.org/ns#Distribution" />
        <cc:requires
           rdf:resource="http://creativecommons.org/ns#Notice" />
        <cc:requires
           rdf:resource="http://creativecommons.org/ns#Attribution" />
        <cc:permits
           rdf:resource="http://creativecommons.org/ns#DerivativeWorks" />
        <cc:requires
           rdf:resource="http://creativecommons.org/ns#ShareAlike" />
      </cc:License>
    </rdf:RDF>
  </metadata>
  <g
     style="display:inline"
     inkscape:groupmode="layer"
     inkscape:label="Icon"
     id="layer1">
    <g
       style="display:none"
       inkscape:label="Baseplate"
       id="layer7"
       inkscape:groupmode="layer"
       sodipodi:insensitive="true">
      <text
         y="-8.2548828"
         xml:space="preserve"
         x="19.006836"
         style="font-style:normal;font-variant:normal;font-weight:normal;font-stretch:normal;line-height:0%;font-family:'DejaVu Sans';-inkscape-font-specification:'DejaVu Sans';display:inline;fill:#000000;fill-opacity:1;stroke:none;enable-background:new"
         inkscape:label="context"
         id="context"><tspan
           style="font-style:normal;font-variant:normal;font-weight:normal;font-stretch:normal;font-size:18px;line-height:1.25;font-family:'DejaVu Sans';-inkscape-font-specification:'DejaVu Sans'"
           y="-8.2548828"
           x="19.006836"
           sodipodi:role="line"
           id="tspan1445">devices</tspan></text>
      <text
         y="-8.2548828"
         xml:space="preserve"
         x="146.48828"
         style="font-style:normal;font-variant:normal;font-weight:bold;font-stretch:normal;line-height:0%;font-family:'DejaVu Sans';-inkscape-font-specification:'DejaVu Sans Bold';text-align:start;writing-mode:lr-tb;text-anchor:start;display:inline;fill:#000000;fill-opacity:1;stroke:none;enable-background:new"
         inkscape:label="icon-name"
         id="icon-name"><tspan
           style="font-style:normal;font-variant:normal;font-weight:bold;font-stretch:normal;font-size:18px;line-height:1.25;font-family:'DejaVu Sans';-inkscape-font-specification:'DejaVu Sans Bold'"
           y="-8.2548828"
           x="146.48828"
           sodipodi:role="line"
           id="tspan924">drive-optical</tspan></text>
      <rect
         style="display:inline;overflow:visible;visibility:visible;fill:#cdcdcd;fill-opacity:1;fill-rule:nonzero;stroke:none;stroke-width:2;marker:none;enable-background:accumulate"
         id="rect16x16"
         width="16"
         height="16"
         x="320"
         y="236"
         inkscape:label="16x16" />
      <rect
         style="display:inline;overflow:visible;visibility:visible;fill:#cdcdcd;fill-opacity:1;fill-rule:nonzero;stroke:none;stroke-width:2;marker:none;enable-background:accumulate"
         id="rect24x24"
         width="24"
         height="24"
         x="320"
         y="188"
         inkscape:label="24x24" />
      <rect
         style="display:inline;overflow:visible;visibility:visible;fill:#cdcdcd;fill-opacity:1;fill-rule:nonzero;stroke:none;stroke-width:2;marker:none;enable-background:accumulate"
         id="rect32x32"
         width="32"
         height="32"
         x="320"
         y="132"
         inkscape:label="32x32" />
      <rect
         inkscape:label="48x48"
         y="60"
         x="320"
         height="48"
         width="48"
         id="rect48x48"
         style="display:inline;overflow:visible;visibility:visible;fill:#cdcdcd;fill-opacity:1;fill-rule:nonzero;stroke:none;stroke-width:2;marker:none;enable-background:accumulate" />
      <rect
         style="display:inline;overflow:visible;visibility:visible;fill:#cdcdcd;fill-opacity:1;fill-rule:nonzero;stroke:none;stroke-width:2;marker:none;enable-background:accumulate"
         id="rect256x256"
         width="256"
         height="256"
         x="24"
         y="28"
         inkscape:label="256x256" />
    </g>
    <g
       inkscape:groupmode="layer"
       id="layer2"
       inkscape:label="Background"
       style="display:inline">
      <path
         d="m 2.1494,289.98 c -0.53375,0.0924 -0.52136,0.9588 -0.4635,1.8243 0.020882,1.1229 0.080718,2.426 0.18058,3.5949 0.054723,0.97142 0.65112,1.7573 1.4599,1.7573 h 27.214 c 0.80879,0 1.4052,-0.78588 1.4599,-1.7573 0.09986,-1.1689 0.15969,-2.472 0.18058,-3.5949 0.05787,-0.86551 0.07025,-1.7318 -0.4635,-1.8243 h -27.426 z"
         filter="url(#h)"
         opacity="0.5"
         id="path344"
         transform="matrix(5.6586843,0,0,6.2863913,56.179334,-1612.4631)"
         style="stroke-width:2.3477" />
      <path
         d="m 68.34211,207.13286 c -3.020323,0.58086 -2.950212,6.02739 -2.6228,11.46827 0.118165,7.05898 0.456758,15.25078 1.021845,22.59894 0.30966,6.10673 3.684483,11.04708 8.261113,11.04708 H 228.9977 c 4.57669,0 7.95159,-4.94035 8.26112,-11.04708 0.56507,-7.34816 0.90363,-15.53996 1.02184,-22.59894 0.32747,-5.44094 0.39752,-10.88678 -2.6228,-11.46827 H 80.462785 Z"
         fill="url(#a)"
         id="path346"
         style="fill:url(#radialGradient1245);stroke-width:14.0024" />
      <path
         d="m 87.063301,46.075517 c -1.740837,-0.0033 -3.2465,0.316834 -4.469908,0.991992 -1.990442,0.819871 -2.833529,2.356643 -3.407603,4.859758 L 65.451598,213.58811 c -0.06741,0.79378 -0.02331,1.56405 0.116331,2.29931 0.05591,0.2942 0.126862,0.58274 0.212336,0.86469 0.04272,0.14144 0.08923,0.28037 0.138977,0.41804 0.149316,0.41302 0.329896,0.81095 0.538011,1.19071 0.346861,0.63329 0.770374,1.21635 1.255549,1.7375 0.09708,0.10372 0.196424,0.20619 0.298247,0.30489 0.509157,0.49599 1.076791,0.92724 1.686797,1.28217 0.121984,0.071 0.24514,0.13893 0.370417,0.20368 1.127437,0.58275 2.382759,0.9092 3.674807,0.9092 h 156.51355 c 3.01432,0 5.82901,-1.77893 7.28612,-4.43775 0.20813,-0.3797 0.3887,-0.77763 0.53803,-1.19071 0.0492,-0.13767 0.0962,-0.27723 0.13898,-0.41805 0.0854,-0.28163 0.15651,-0.5708 0.21231,-0.86469 0.13966,-0.73525 0.18379,-1.50553 0.11634,-2.29931 L 224.81421,51.926953 c -0.57413,-2.503116 -1.41722,-4.039887 -3.4076,-4.859821 -1.22341,-0.67497 -2.7297,-0.995324 -4.47048,-0.99193 l -64.9334,0.118813 z"
         fill="#f3fdff"
         opacity="0.5"
         id="path348"
         style="stroke-width:14.0024" />
      <path
         d="m 87.063301,44.001008 c -1.740837,-0.0034 -3.2465,0.316834 -4.469908,0.991992 -1.990442,0.819808 -2.833529,2.35658 -3.407603,4.859695 L 65.451598,211.51353 c -0.06741,0.79372 -0.02331,1.56399 0.116331,2.29931 0.05591,0.29421 0.126862,0.58212 0.212336,0.86476 0.04272,0.14144 0.08923,0.28037 0.138977,0.41805 0.149316,0.41301 0.329896,0.81088 0.538011,1.19076 0.346861,0.63329 0.770374,1.21623 1.255549,1.73744 0.09708,0.10372 0.196424,0.20556 0.298247,0.30426 0.509157,0.49599 1.076791,0.9273 1.686797,1.28223 0.121984,0.0704 0.24514,0.13893 0.370417,0.20368 1.127437,0.58275 2.382759,0.90914 3.674807,0.90914 h 156.51355 c 3.01432,0 5.82901,-1.77886 7.28612,-4.43763 0.20813,-0.37969 0.3887,-0.77769 0.53803,-1.19083 0.0492,-0.13767 0.0962,-0.27723 0.13898,-0.41804 0.0854,-0.28226 0.15651,-0.57081 0.21231,-0.86476 0.13966,-0.73532 0.18379,-1.50559 0.11634,-2.29931 L 224.81421,49.851752 c -0.57413,-2.503115 -1.41722,-4.039887 -3.4076,-4.859695 -1.22341,-0.675033 -2.7297,-0.995387 -4.47048,-0.991992 l -64.9334,0.118184 z"
         fill="url(#b)"
         id="path350"
         style="fill:url(#linearGradient1247);stroke-width:14.0024" />
      <path
         d="m 2.1494,289.98 c -0.53375,0.0924 -0.52136,0.9588 -0.4635,1.8243 0.020882,1.1229 0.080718,2.426 0.18058,3.5949 0.054723,0.97142 0.65112,1.7573 1.4599,1.7573 h 27.214 c 0.80879,0 1.4052,-0.78588 1.4599,-1.7573 0.09986,-1.1689 0.15969,-2.472 0.18058,-3.5949 0.05787,-0.86551 0.07025,-1.7318 -0.4635,-1.8243 h -27.426 z"
         filter="url(#h)"
         opacity="0.5"
         id="path948"
         transform="matrix(1.1620512,0,0,1.2909553,324.32255,-279.16652)"
         style="stroke-width:2.3477" />
      <path
         d="m 326.82026,94.500492 c -0.62024,0.119284 -0.60584,1.237768 -0.53861,2.355089 0.0243,1.449614 0.0938,3.131858 0.20985,4.640859 0.0636,1.25406 0.75663,2.26859 1.69647,2.26859 h 31.62407 c 0.93985,0 1.63291,-1.01453 1.69647,-2.26859 0.11605,-1.509001 0.18557,-3.191245 0.20985,-4.640859 0.0672,-1.117334 0.0816,-2.235676 -0.53861,-2.355089 h -31.87042 z"
         fill="url(#a)"
         id="path950"
         style="fill:url(#radialGradient976);stroke-width:2.87548" />
      <path
         d="m 330.66479,61.426217 c -0.35749,-6.84e-4 -0.66669,0.06506 -0.91792,0.203713 -0.40876,0.168366 -0.58189,0.483953 -0.69978,0.997985 l -2.82041,33.198207 c -0.0138,0.163009 -0.005,0.32119 0.0239,0.47218 0.0115,0.06042 0.0261,0.119671 0.0436,0.177571 0.009,0.02905 0.0183,0.05758 0.0285,0.08585 0.0307,0.08482 0.0678,0.166533 0.11048,0.24452 0.0712,0.130051 0.15821,0.249787 0.25784,0.356807 0.0199,0.0213 0.0403,0.04234 0.0612,0.06261 0.10456,0.101857 0.22112,0.190416 0.34639,0.263304 0.025,0.01459 0.0503,0.02853 0.0761,0.04183 0.23153,0.119671 0.48932,0.186711 0.75465,0.186711 h 32.14117 c 0.61902,0 1.19703,-0.365315 1.49626,-0.911325 0.0427,-0.07797 0.0798,-0.159691 0.11049,-0.244519 0.0101,-0.02827 0.0198,-0.05693 0.0285,-0.08585 0.0175,-0.05783 0.0321,-0.117219 0.0436,-0.177571 0.0287,-0.15099 0.0377,-0.309171 0.0239,-0.47218 l -2.82042,-33.198206 c -0.1179,-0.514033 -0.29103,-0.82962 -0.69977,-0.997999 -0.25124,-0.13861 -0.56056,-0.204397 -0.91804,-0.2037 l -13.33454,0.0244 z"
         fill="#f3fdff"
         opacity="0.5"
         id="path952"
         style="stroke-width:2.87548" />
      <path
         d="m 330.66479,61.000202 c -0.35749,-6.98e-4 -0.66669,0.06506 -0.91792,0.203712 -0.40876,0.168354 -0.58189,0.483941 -0.69978,0.997973 l -2.82041,33.198207 c -0.0138,0.162996 -0.005,0.321177 0.0239,0.47218 0.0115,0.06042 0.0261,0.119542 0.0436,0.177583 0.009,0.02905 0.0183,0.05758 0.0285,0.08585 0.0307,0.08482 0.0678,0.16652 0.11048,0.244533 0.0712,0.130051 0.15821,0.249761 0.25784,0.356794 0.0199,0.0213 0.0403,0.04221 0.0612,0.06248 0.10456,0.101857 0.22112,0.190429 0.34639,0.263316 0.025,0.01446 0.0503,0.02853 0.0761,0.04183 0.23153,0.119672 0.48932,0.186698 0.75465,0.186698 h 32.14117 c 0.61902,0 1.19703,-0.365301 1.49626,-0.911298 0.0427,-0.07797 0.0798,-0.159704 0.11049,-0.244546 0.0101,-0.02827 0.0198,-0.05693 0.0285,-0.08585 0.0175,-0.05796 0.0321,-0.117219 0.0436,-0.177584 0.0287,-0.151003 0.0377,-0.309184 0.0239,-0.47218 l -2.82042,-33.198206 c -0.1179,-0.514033 -0.29103,-0.82962 -0.69977,-0.997973 -0.25124,-0.138623 -0.56056,-0.20441 -0.91804,-0.203713 l -13.33454,0.02427 z"
         fill="url(#b)"
         id="path954"
         style="fill:url(#linearGradient978);stroke-width:2.87548" />
      <path
         d="m 2.1494,289.98 c -0.53375,0.0924 -0.52136,0.9588 -0.4635,1.8243 0.020882,1.1229 0.080718,2.426 0.18058,3.5949 0.054723,0.97142 0.65112,1.7573 1.4599,1.7573 h 27.214 c 0.80879,0 1.4052,-0.78588 1.4599,-1.7573 0.09986,-1.1689 0.15969,-2.472 0.18058,-3.5949 0.05787,-0.86551 0.07025,-1.7318 -0.4635,-1.8243 h -27.426 z"
         filter="url(#h)"
         opacity="0.5"
         id="path988"
         transform="matrix(0.75785948,0,0,0.84192736,323.16687,-88.847732)"
         style="stroke-width:2.3477" />
      <path
         d="m 324.79581,154.84814 c -0.4045,0.0778 -0.39511,0.80724 -0.35126,1.53593 0.0158,0.9454 0.0612,2.04252 0.13685,3.02665 0.0415,0.81786 0.49346,1.47951 1.1064,1.47951 h 20.62439 c 0.61295,0 1.06494,-0.66165 1.1064,-1.47951 0.0757,-0.98413 0.12102,-2.08125 0.13685,-3.02665 0.0439,-0.7287 0.0532,-1.45805 -0.35127,-1.53593 h -20.78505 z"
         fill="url(#a)"
         id="path990"
         style="fill:url(#radialGradient1016);stroke-width:1.87532" />
      <path
         d="m 327.30312,133.27796 c -0.23315,-4.4e-4 -0.4348,0.0424 -0.59865,0.13286 -0.26658,0.1098 -0.37949,0.31562 -0.45638,0.65086 l -1.8394,21.651 c -0.009,0.10631 -0.003,0.20948 0.0156,0.30795 0.007,0.0394 0.017,0.078 0.0284,0.1158 0.006,0.019 0.0119,0.0376 0.0186,0.056 0.02,0.0553 0.0442,0.10861 0.0721,0.15947 0.0464,0.0848 0.10317,0.16291 0.16815,0.2327 0.013,0.0139 0.0263,0.0276 0.0399,0.0408 0.0682,0.0664 0.14422,0.12418 0.22591,0.17172 0.0163,0.01 0.0328,0.0186 0.0496,0.0273 0.151,0.078 0.31912,0.12177 0.49217,0.12177 h 20.96163 c 0.40371,0 0.78067,-0.23825 0.97582,-0.59434 0.0279,-0.0509 0.0521,-0.10415 0.0721,-0.15947 0.007,-0.0184 0.0129,-0.0371 0.0186,-0.056 0.0115,-0.0377 0.021,-0.0764 0.0284,-0.1158 0.0187,-0.0985 0.0246,-0.20164 0.0156,-0.30795 l -1.8394,-21.651 c -0.0769,-0.33524 -0.18981,-0.54106 -0.45638,-0.65087 -0.16385,-0.0904 -0.36558,-0.1333 -0.59872,-0.13285 l -8.69644,0.0159 z"
         fill="#f3fdff"
         opacity="0.5"
         id="path992"
         style="stroke-width:1.87532" />
      <path
         d="m 327.30312,133.00013 c -0.23315,-4.6e-4 -0.4348,0.0424 -0.59865,0.13285 -0.26658,0.1098 -0.37949,0.31562 -0.45638,0.65086 l -1.8394,21.651 c -0.009,0.1063 -0.003,0.20946 0.0156,0.30794 0.007,0.0394 0.017,0.078 0.0284,0.11582 0.006,0.0189 0.0119,0.0376 0.0186,0.056 0.02,0.0553 0.0442,0.1086 0.0721,0.15947 0.0464,0.0848 0.10317,0.16289 0.16815,0.2327 0.013,0.0139 0.0263,0.0275 0.0399,0.0408 0.0682,0.0664 0.14422,0.12419 0.22591,0.17172 0.0163,0.009 0.0328,0.0186 0.0496,0.0273 0.151,0.078 0.31912,0.12176 0.49217,0.12176 h 20.96163 c 0.40371,0 0.78067,-0.23824 0.97582,-0.59432 0.0279,-0.0509 0.0521,-0.10416 0.0721,-0.15949 0.007,-0.0184 0.0129,-0.0371 0.0186,-0.056 0.0115,-0.0378 0.021,-0.0764 0.0284,-0.11581 0.0187,-0.0985 0.0246,-0.20165 0.0156,-0.30795 l -1.8394,-21.651 c -0.0769,-0.33524 -0.18981,-0.54106 -0.45638,-0.65085 -0.16385,-0.0904 -0.36558,-0.13331 -0.59872,-0.13286 l -8.69644,0.0158 z"
         fill="url(#b)"
         id="path994"
         style="fill:url(#linearGradient1018);stroke-width:1.87532" />
      <path
         d="m 2.1494,289.98 c -0.53375,0.0924 -0.52136,0.9588 -0.4635,1.8243 0.020882,1.1229 0.080718,2.426 0.18058,3.5949 0.054723,0.97142 0.65112,1.7573 1.4599,1.7573 h 27.214 c 0.80879,0 1.4052,-0.78588 1.4599,-1.7573 0.09986,-1.1689 0.15969,-2.472 0.18058,-3.5949 0.05787,-0.86551 0.07025,-1.7318 -0.4635,-1.8243 h -27.426 z"
         filter="url(#h)"
         opacity="0.5"
         id="path1028"
         transform="matrix(0.58102559,0,0,0.64547764,322.16128,18.416745)"
         style="stroke-width:2.3477" />
      <path
         d="m 323.41014,205.25025 c -0.31013,0.0596 -0.30293,0.61888 -0.26931,1.17754 0.0121,0.72481 0.0469,1.56593 0.10492,2.32043 0.0318,0.62703 0.37832,1.1343 0.84824,1.1343 h 15.81203 c 0.46993,0 0.81646,-0.50727 0.84824,-1.1343 0.058,-0.7545 0.0928,-1.59562 0.10492,-2.32043 0.0336,-0.55866 0.0408,-1.11784 -0.2693,-1.17754 h -15.93521 z"
         fill="url(#a)"
         id="path1030"
         style="fill:url(#radialGradient1056);stroke-width:1.43774" />
      <path
         d="m 325.3324,188.71311 c -0.17875,-3.4e-4 -0.33334,0.0325 -0.45896,0.10186 -0.20438,0.0842 -0.29095,0.24197 -0.34989,0.49899 l -1.41021,16.5991 c -0.007,0.0815 -0.002,0.1606 0.012,0.23609 0.006,0.0302 0.013,0.0598 0.0218,0.0888 0.004,0.0145 0.009,0.0288 0.0143,0.0429 0.0153,0.0424 0.0339,0.0833 0.0552,0.12226 0.0356,0.065 0.0791,0.1249 0.12892,0.17841 0.01,0.0107 0.0202,0.0212 0.0306,0.0313 0.0523,0.0509 0.11057,0.0952 0.1732,0.13165 0.0125,0.007 0.0252,0.0143 0.038,0.0209 0.11576,0.0598 0.24465,0.0933 0.37732,0.0933 h 16.07059 c 0.3095,0 0.59851,-0.18265 0.74812,-0.45566 0.0214,-0.039 0.0399,-0.0798 0.0553,-0.12226 0.005,-0.0141 0.01,-0.0285 0.0143,-0.0429 0.009,-0.0289 0.0161,-0.0586 0.0218,-0.0888 0.0143,-0.0755 0.0189,-0.15458 0.0119,-0.23609 l -1.4102,-16.5991 c -0.0589,-0.25702 -0.14552,-0.41481 -0.34989,-0.499 -0.12562,-0.0693 -0.28028,-0.1022 -0.45902,-0.10185 l -6.66727,0.0122 z"
         fill="#f3fdff"
         opacity="0.5"
         id="path1032"
         style="stroke-width:1.43774" />
      <path
         d="m 325.3324,188.5001 c -0.17875,-3.5e-4 -0.33334,0.0325 -0.45896,0.10186 -0.20438,0.0842 -0.29095,0.24197 -0.34989,0.49899 l -1.41021,16.5991 c -0.007,0.0815 -0.002,0.16059 0.012,0.23609 0.006,0.0302 0.013,0.0598 0.0218,0.0888 0.004,0.0145 0.009,0.0288 0.0143,0.0429 0.0153,0.0424 0.0339,0.0833 0.0552,0.12226 0.0356,0.065 0.0791,0.12488 0.12892,0.1784 0.01,0.0106 0.0202,0.0211 0.0306,0.0312 0.0523,0.0509 0.11057,0.0952 0.1732,0.13166 0.0125,0.007 0.0252,0.0143 0.038,0.0209 0.11576,0.0598 0.24465,0.0933 0.37732,0.0933 h 16.07059 c 0.3095,0 0.59851,-0.18265 0.74812,-0.45565 0.0214,-0.039 0.0399,-0.0798 0.0553,-0.12227 0.005,-0.0141 0.01,-0.0285 0.0143,-0.0429 0.009,-0.029 0.0161,-0.0586 0.0218,-0.0888 0.0143,-0.0755 0.0189,-0.15459 0.0119,-0.23609 l -1.4102,-16.5991 c -0.0589,-0.25702 -0.14552,-0.41481 -0.34989,-0.49899 -0.12562,-0.0693 -0.28028,-0.1022 -0.45902,-0.10185 l -6.66727,0.0121 z"
         fill="url(#b)"
         id="path1034"
         style="fill:url(#linearGradient1058);stroke-width:1.43774" />
      <path
         d="m 2.1494,289.98 c -0.53375,0.0924 -0.52136,0.9588 -0.4635,1.8243 0.020882,1.1229 0.080718,2.426 0.18058,3.5949 0.054723,0.97142 0.65112,1.7573 1.4599,1.7573 h 27.214 c 0.80879,0 1.4052,-0.78588 1.4599,-1.7573 0.09986,-1.1689 0.15969,-2.472 0.18058,-3.5949 0.05787,-0.86551 0.07025,-1.7318 -0.4635,-1.8243 h -27.426 z"
         filter="url(#h)"
         opacity="0.5"
         id="path1068"
         transform="matrix(0.37892974,0,0,0.42096368,321.58343,125.57613)"
         style="stroke-width:2.3477" />
      <path
         d="m 322.3979,247.42407 c -0.20225,0.0389 -0.19756,0.40362 -0.17563,0.76796 0.008,0.4727 0.0306,1.02126 0.0684,1.51332 0.0207,0.40894 0.24673,0.73976 0.5532,0.73976 h 10.3122 c 0.30647,0 0.53247,-0.33082 0.5532,-0.73976 0.0378,-0.49206 0.0605,-1.04062 0.0684,-1.51332 0.0219,-0.36435 0.0266,-0.72902 -0.17563,-0.76796 h -10.39253 z"
         fill="url(#a)"
         id="path1070"
         style="fill:url(#radialGradient1096);stroke-width:0.937658" />
      <path
         d="m 323.65155,236.63898 c -0.11657,-2.3e-4 -0.2174,0.0212 -0.29932,0.0664 -0.13329,0.0549 -0.18975,0.15781 -0.22819,0.32543 l -0.9197,10.8255 c -0.005,0.0532 -0.002,0.10473 0.008,0.15397 0.004,0.0197 0.009,0.039 0.0142,0.0579 0.003,0.009 0.006,0.0188 0.009,0.028 0.01,0.0276 0.0221,0.0543 0.036,0.0797 0.0232,0.0424 0.0516,0.0814 0.0841,0.11635 0.007,0.007 0.0132,0.0138 0.02,0.0204 0.0341,0.0332 0.0721,0.0621 0.11296,0.0859 0.008,0.005 0.0164,0.009 0.0248,0.0136 0.0755,0.039 0.15956,0.0609 0.24608,0.0609 h 10.48082 c 0.20185,0 0.39034,-0.11912 0.48791,-0.29717 0.0139,-0.0254 0.026,-0.0521 0.036,-0.0797 0.003,-0.009 0.006,-0.0186 0.009,-0.028 0.006,-0.0189 0.0105,-0.0382 0.0142,-0.0579 0.009,-0.0492 0.0123,-0.10082 0.008,-0.15397 l -0.9197,-10.82551 c -0.0384,-0.16761 -0.0949,-0.27052 -0.22818,-0.32543 -0.0819,-0.0452 -0.1828,-0.0666 -0.29937,-0.0664 l -4.34821,0.008 z"
         fill="#f3fdff"
         opacity="0.5"
         id="path1072"
         style="stroke-width:0.937658" />
      <path
         d="m 323.65155,236.50006 c -0.11657,-2.3e-4 -0.2174,0.0212 -0.29932,0.0664 -0.13329,0.0549 -0.18975,0.1578 -0.22819,0.32542 l -0.9197,10.82551 c -0.005,0.0531 -0.002,0.10473 0.008,0.15397 0.004,0.0197 0.009,0.039 0.0142,0.0579 0.003,0.009 0.006,0.0188 0.009,0.028 0.01,0.0277 0.0221,0.0543 0.036,0.0797 0.0232,0.0424 0.0516,0.0814 0.0841,0.11634 0.007,0.007 0.0132,0.0138 0.02,0.0204 0.0341,0.0332 0.0721,0.0621 0.11296,0.0859 0.008,0.005 0.0164,0.009 0.0248,0.0136 0.0755,0.039 0.15956,0.0609 0.24608,0.0609 h 10.48082 c 0.20185,0 0.39034,-0.11912 0.48791,-0.29716 0.0139,-0.0254 0.026,-0.0521 0.036,-0.0797 0.003,-0.009 0.006,-0.0186 0.009,-0.028 0.006,-0.0189 0.0105,-0.0382 0.0142,-0.0579 0.009,-0.0492 0.0123,-0.10082 0.008,-0.15397 l -0.9197,-10.8255 c -0.0384,-0.16762 -0.0949,-0.27053 -0.22818,-0.32543 -0.0819,-0.0452 -0.1828,-0.0666 -0.29937,-0.0664 l -4.34821,0.008 z"
         fill="url(#b)"
         id="path1074"
         style="fill:url(#linearGradient1098);stroke-width:0.937658" />
    </g>
    <g
       inkscape:groupmode="layer"
       id="layer6"
       inkscape:label="Pictogram"
       style="display:inline">
      <path
         d="m 90.362314,47.332795 c -3.399398,0.02515 -7.390807,0.577091 -8.24923,4.539592 L 71.727701,177.86424 c -0.06247,0.61795 -0.02184,1.21856 0.107713,1.7915 0.05183,0.22945 0.117706,0.45325 0.196967,0.67365 0.03955,0.11001 0.08294,0.21813 0.129103,0.32626 0.13848,0.32186 0.305614,0.63134 0.498644,0.92749 0.08263,0.12699 0.170592,0.25146 0.262421,0.37342 0.02784,0.0377 0.0583,0.0717 0.08694,0.10812 0.06539,0.083 0.130948,0.16533 0.200521,0.2458 0.03723,0.044 0.07694,0.0842 0.115409,0.12636 0.06647,0.0736 0.132634,0.14584 0.202338,0.21625 0.03627,0.0377 0.07462,0.0717 0.11186,0.10812 0.0614,0.0566 0.121408,0.11945 0.185056,0.17728 0.0163,0.0126 0.03356,0.0251 0.05002,0.044 0.02173,0.0189 0.04403,0.0377 0.06617,0.0566 0.05342,0.044 0.105857,0.093 0.160673,0.13705 0.02784,0.0251 0.05789,0.044 0.08632,0.066 0.05754,0.044 0.115862,0.0899 0.17495,0.13453 0.06586,0.0503 0.132334,0.0981 0.19995,0.14522 0.06278,0.044 0.12663,0.0867 0.190997,0.1295 0.06786,0.044 0.136329,0.0886 0.205903,0.13138 0.06617,0.0377 0.132951,0.0805 0.200538,0.11944 0.07017,0.0377 0.141405,0.0798 0.213015,0.11819 0.06862,0.0377 0.137257,0.0742 0.207074,0.10938 0.02897,0.0126 0.05659,0.0314 0.08571,0.044 0.07986,0.0377 0.161012,0.0754 0.242203,0.11189 0.0163,0.006 0.03231,0.0126 0.04895,0.0189 0.01771,0.006 0.03458,0.0189 0.05229,0.0251 0.13063,0.0566 0.263242,0.11064 0.397505,0.16093 h 5.69e-4 c 0.145712,0.0503 0.294365,0.10498 0.44393,0.15213 0.0485,0.0126 0.09756,0.0251 0.146356,0.044 0.105269,0.0314 0.210894,0.0566 0.317775,0.0874 0.05432,0.0126 0.10889,0.0251 0.163643,0.0377 0.102694,0.0251 0.205982,0.044 0.31004,0.066 0.05313,0.0126 0.106072,0.0189 0.15945,0.0314 0.112059,0.0189 0.224797,0.0377 0.33801,0.0503 0.049,0.006 0.09777,0.0126 0.146979,0.0188 0.121978,0.0126 0.244625,0.0251 0.367769,0.0314 0.04035,0.003 0.08041,0.006 0.120773,0.006 0.164566,0.0126 0.329636,0.0126 0.495701,0.0126 H 224.58015 c 0.16609,0 0.33109,-0.006 0.49571,-0.0126 0.0407,-0.003 0.0805,-0.006 0.12075,-0.006 0.12302,-0.006 0.24576,-0.0189 0.36776,-0.0314 0.0487,-0.005 0.098,-0.0126 0.14696,-0.0188 0.11317,-0.0126 0.226,-0.0314 0.33799,-0.0503 0.0538,-0.006 0.1065,-0.0189 0.15952,-0.0314 0.10406,-0.0189 0.20727,-0.0377 0.31004,-0.066 0.0549,-0.0126 0.10944,-0.0251 0.16365,-0.0377 0.10904,-0.0251 0.21735,-0.0566 0.32492,-0.0893 0.0453,-0.0126 0.0912,-0.0252 0.13637,-0.0377 0.15081,-0.044 0.29997,-0.0981 0.44687,-0.15339 h 5.9e-4 c 0.13433,-0.0503 0.2668,-0.10372 0.39746,-0.16093 0.0164,-0.006 0.0317,-0.0126 0.0481,-0.0189 0.0232,-0.0126 0.0453,-0.0189 0.0679,-0.0314 0.0761,-0.0314 0.1525,-0.0685 0.2273,-0.10498 0.0289,-0.0126 0.0566,-0.0314 0.0851,-0.044 0.0711,-0.0314 0.1409,-0.0742 0.21067,-0.11127 0.0691,-0.0377 0.13802,-0.0754 0.20592,-0.11441 0.0693,-0.0377 0.13762,-0.0811 0.2053,-0.12258 0.0711,-0.044 0.14119,-0.088 0.21067,-0.1339 0.0617,-0.0377 0.12274,-0.0823 0.18329,-0.1251 0.0685,-0.044 0.13569,-0.0968 0.2023,-0.14647 0.0591,-0.044 0.11741,-0.0886 0.17491,-0.13453 0.0283,-0.0189 0.0582,-0.044 0.0864,-0.066 0.0549,-0.044 0.1074,-0.0918 0.16065,-0.13704 0.0215,-0.0189 0.0441,-0.0377 0.0662,-0.0566 0.0164,-0.0126 0.0334,-0.0251 0.0498,-0.044 0.0638,-0.0566 0.12359,-0.11755 0.1851,-0.17727 0.0373,-0.0377 0.0756,-0.071 0.11181,-0.10813 0.0697,-0.0704 0.13592,-0.14333 0.2023,-0.21625 0.0385,-0.0377 0.0782,-0.0836 0.11549,-0.12636 0.0885,-0.10184 0.1735,-0.20619 0.25527,-0.31306 0.008,-0.0126 0.0181,-0.0189 0.0272,-0.0314 4.7e-4,-6.9e-4 7.3e-4,-10e-4 10e-4,-0.003 0.0934,-0.12321 0.18261,-0.24957 0.26664,-0.37844 0.19302,-0.29609 0.3608,-0.60601 0.49921,-0.92756 0.0464,-0.10687 0.0888,-0.21625 0.12851,-0.32626 0.0794,-0.2194 0.14531,-0.44445 0.19703,-0.67365 0.0972,-0.42936 0.14453,-0.87488 0.1357,-1.33139 -0.003,-0.15214 -0.0125,-0.30552 -0.0277,-0.46017 L 221.88492,51.870061 c -0.98093,-4.528779 -6.05422,-4.596987 -9.6588,-4.528339 l -60.22538,0.09178 -60.225381,-0.09178 c -0.450641,-0.0063 -0.924063,-0.01257 -1.409692,-0.01257 z"
         fill="url(#f)"
         id="path352"
         style="display:inline;fill:url(#linearGradient1249);stroke-width:14.0024;enable-background:new" />
      <rect
         x="85.892517"
         y="234.35294"
         width="132.21516"
         height="6.2876487"
         ry="3.1437614"
         fill="url(#e)"
         id="rect354"
         style="display:inline;fill:url(#linearGradient1251);stroke-width:14.0024;enable-background:new" />
      <path
         transform="matrix(1.5162184,0,0,1.6843414,54.960307,43.201487)"
         d="m 32.182,114.43 c 7.5581,10.09 19.61,16.619 33.188,16.619 13.577,0 25.629,-6.5288 33.188,-16.619 z"
         filter="url(#g)"
         opacity="0.35"
         id="path358"
         style="stroke-width:9.2161" />
      <path
         d="m 106.15391,234.41281 c 11.24624,15.60458 28.52764,25.61041 47.92008,25.61041 19.39395,0 36.67429,-10.00633 47.92008,-25.61041 z"
         fill="#e6e6e6"
         id="path360"
         style="stroke-width:14.728" />
      <path
         d="m 108.08405,234.41281 c 10.98,14.62514 27.50269,23.93618 45.98994,23.93618 18.48725,0 35.00948,-9.31087 45.98993,-23.93618 z"
         fill="url(#c)"
         id="path362"
         style="fill:url(#linearGradient1253);stroke-width:14.728" />
      <path
         d="m 106.13571,234.41281 c 11.38028,15.81294 28.83696,25.61041 47.93828,25.61041 v -25.61041 z"
         fill="url(#d)"
         opacity="0.7"
         id="path364"
         style="fill:url(#linearGradient1255);stroke-width:14.728" />
      <path
         d="m 331.34227,61.684408 c -0.69809,0.0052 -1.51776,0.11851 -1.69404,0.932237 l -2.13271,25.873327 c -0.0128,0.1269 -0.004,0.250238 0.0221,0.367896 0.0106,0.04712 0.0242,0.09308 0.0404,0.138339 0.008,0.02259 0.017,0.0448 0.0265,0.067 0.0284,0.0661 0.0628,0.129651 0.1024,0.190468 0.017,0.02608 0.035,0.05164 0.0539,0.07668 0.006,0.0077 0.012,0.01472 0.0179,0.0222 0.0134,0.01704 0.0269,0.03395 0.0412,0.05048 0.008,0.009 0.0158,0.0173 0.0237,0.02595 0.0137,0.0151 0.0272,0.02995 0.0416,0.04441 0.007,0.0077 0.0153,0.01472 0.023,0.0222 0.0126,0.01162 0.0249,0.02453 0.038,0.03641 0.003,0.0026 0.007,0.0052 0.0103,0.009 0.004,0.0039 0.009,0.0077 0.0136,0.01162 0.011,0.009 0.0217,0.01911 0.033,0.02814 0.006,0.0052 0.0119,0.009 0.0177,0.01355 0.0118,0.009 0.0238,0.01846 0.0359,0.02763 0.0135,0.01033 0.0272,0.02014 0.0411,0.02982 0.0129,0.009 0.026,0.01782 0.0392,0.02659 0.0139,0.009 0.028,0.0182 0.0423,0.02698 0.0136,0.0077 0.0273,0.01652 0.0412,0.02453 0.0144,0.0077 0.029,0.0164 0.0437,0.02427 0.0141,0.0077 0.0282,0.01523 0.0425,0.02246 0.006,0.0026 0.0116,0.0065 0.0176,0.009 0.0164,0.0077 0.0331,0.01549 0.0497,0.02298 0.003,0.0013 0.007,0.0026 0.01,0.0039 0.004,0.0013 0.007,0.0039 0.0107,0.0052 0.0268,0.01162 0.0541,0.02272 0.0816,0.03305 h 1.2e-4 c 0.0299,0.01033 0.0605,0.02156 0.0912,0.03124 0.01,0.0026 0.02,0.0052 0.0301,0.009 0.0216,0.0065 0.0433,0.01162 0.0652,0.01794 0.0112,0.0026 0.0224,0.0052 0.0336,0.0077 0.0211,0.0052 0.0423,0.009 0.0637,0.01356 0.0109,0.0026 0.0218,0.0039 0.0327,0.0065 0.023,0.0039 0.0462,0.0077 0.0694,0.01033 0.0101,0.0013 0.0201,0.0026 0.0302,0.0039 0.0251,0.0026 0.0502,0.0052 0.0755,0.0065 0.008,6.97e-4 0.0165,0.0013 0.0248,0.0013 0.0338,0.0026 0.0677,0.0026 0.1018,0.0026 h 29.8101 c 0.0341,0 0.068,-0.0013 0.1018,-0.0026 0.008,-6.98e-4 0.0165,-0.0013 0.0248,-0.0013 0.0253,-0.0013 0.0505,-0.0039 0.0755,-0.0065 0.01,-0.001 0.0201,-0.0026 0.0302,-0.0039 0.0232,-0.0026 0.0464,-0.0065 0.0694,-0.01033 0.011,-0.0013 0.0219,-0.0039 0.0328,-0.0065 0.0214,-0.0039 0.0426,-0.0077 0.0637,-0.01356 0.0113,-0.0026 0.0225,-0.0052 0.0336,-0.0077 0.0224,-0.0052 0.0446,-0.01162 0.0667,-0.01833 0.009,-0.0026 0.0187,-0.0052 0.028,-0.0077 0.031,-0.009 0.0616,-0.02014 0.0918,-0.0315 h 1.3e-4 c 0.0276,-0.01033 0.0548,-0.0213 0.0816,-0.03305 0.003,-0.0013 0.007,-0.0026 0.01,-0.0039 0.005,-0.0026 0.009,-0.0039 0.0139,-0.0065 0.0156,-0.0065 0.0313,-0.01407 0.0467,-0.02156 0.006,-0.0026 0.0116,-0.0065 0.0175,-0.009 0.0146,-0.0065 0.0289,-0.01523 0.0433,-0.02285 0.0142,-0.0077 0.0283,-0.01549 0.0423,-0.0235 0.0142,-0.0077 0.0283,-0.01665 0.0422,-0.02517 0.0146,-0.009 0.029,-0.01807 0.0433,-0.0275 0.0127,-0.0077 0.0252,-0.01691 0.0376,-0.02569 0.0141,-0.009 0.0279,-0.01988 0.0415,-0.03008 0.0121,-0.009 0.0241,-0.0182 0.0359,-0.02763 0.006,-0.0039 0.012,-0.009 0.0177,-0.01356 0.0113,-0.009 0.0221,-0.01885 0.033,-0.02814 0.004,-0.0039 0.009,-0.0077 0.0136,-0.01162 0.003,-0.0026 0.007,-0.0052 0.0102,-0.009 0.0131,-0.01162 0.0254,-0.02414 0.038,-0.03641 0.008,-0.0077 0.0155,-0.01459 0.023,-0.0222 0.0143,-0.01446 0.0279,-0.02943 0.0415,-0.04441 0.008,-0.0077 0.0161,-0.01717 0.0237,-0.02595 0.0182,-0.02091 0.0356,-0.04234 0.0524,-0.06429 0.002,-0.0026 0.004,-0.0039 0.006,-0.0065 9e-5,-1.42e-4 1.5e-4,-2.72e-4 2.4e-4,-7.11e-4 0.0192,-0.0253 0.0375,-0.05125 0.0548,-0.07771 0.0396,-0.0608 0.0741,-0.124448 0.10252,-0.19048 0.01,-0.02195 0.0182,-0.04441 0.0264,-0.067 0.0163,-0.04505 0.0298,-0.09127 0.0405,-0.138339 0.0199,-0.08817 0.0297,-0.179662 0.0279,-0.273411 -6.2e-4,-0.03124 -0.003,-0.06274 -0.006,-0.0945 l -2.13282,-25.874617 c -0.20145,-0.930017 -1.24328,-0.944024 -1.98351,-0.929927 l -12.36771,0.01885 -12.36771,-0.01885 c -0.0925,-0.0013 -0.18977,-0.0026 -0.28949,-0.0026 z"
         fill="url(#f)"
         id="path956"
         style="display:inline;fill:url(#linearGradient980);stroke-width:2.87548;enable-background:new" />
      <rect
         x="330.42438"
         y="100.09032"
         width="27.151325"
         height="1.2912135"
         ry="0.64559382"
         fill="url(#e)"
         id="rect958"
         style="display:inline;fill:url(#linearGradient982);stroke-width:2.87548;enable-background:new" />
      <path
         transform="matrix(0.31136626,0,0,0.34589152,324.07221,60.836029)"
         d="m 32.182,114.43 c 7.5581,10.09 19.61,16.619 33.188,16.619 13.577,0 25.629,-6.5288 33.188,-16.619 z"
         filter="url(#g)"
         opacity="0.35"
         id="path962"
         style="stroke-width:9.2161" />
      <path
         d="m 334.58518,100.10264 c 2.3095,3.20451 5.85836,5.25928 9.84073,5.25928 3.98269,0 7.53133,-2.05487 9.84073,-5.25928 z"
         fill="#e6e6e6"
         id="path964"
         style="stroke-width:3.0245" />
      <path
         d="m 334.98155,100.10264 c 2.25482,3.00337 5.64787,4.91546 9.44436,4.91546 3.79649,0 7.18945,-1.91205 9.44436,-4.91546 z"
         fill="url(#c)"
         id="path966"
         style="fill:url(#linearGradient984);stroke-width:3.0245" />
      <path
         d="m 334.58144,100.10264 c 2.33703,3.2473 5.92188,5.25928 9.84447,5.25928 v -5.25928 z"
         fill="url(#d)"
         opacity="0.7"
         id="path968"
         style="fill:url(#linearGradient986);stroke-width:3.0245" />
      <path
         d="m 327.74495,133.44635 c -0.45528,0.003 -0.98984,0.0773 -1.10481,0.60798 l -1.3909,16.87391 c -0.008,0.0828 -0.003,0.1632 0.0144,0.23993 0.007,0.0307 0.0158,0.0607 0.0264,0.0902 0.005,0.0147 0.0111,0.0292 0.0173,0.0437 0.0185,0.0431 0.0409,0.0846 0.0668,0.12422 0.0111,0.017 0.0229,0.0337 0.0351,0.05 0.004,0.005 0.008,0.01 0.0116,0.0145 0.009,0.0111 0.0175,0.0221 0.0269,0.0329 0.005,0.006 0.0103,0.0113 0.0155,0.0169 0.009,0.01 0.0178,0.0195 0.0271,0.029 0.005,0.005 0.01,0.01 0.015,0.0145 0.008,0.008 0.0163,0.016 0.0248,0.0237 0.002,0.002 0.004,0.003 0.007,0.006 0.003,0.003 0.006,0.005 0.009,0.008 0.007,0.006 0.0142,0.0125 0.0215,0.0183 0.004,0.003 0.008,0.006 0.0116,0.009 0.008,0.006 0.0155,0.012 0.0234,0.018 0.009,0.007 0.0177,0.0131 0.0268,0.0195 0.008,0.006 0.017,0.0116 0.0256,0.0173 0.009,0.006 0.0183,0.0119 0.0276,0.0176 0.009,0.005 0.0178,0.0108 0.0269,0.016 0.009,0.005 0.0189,0.0107 0.0285,0.0158 0.009,0.005 0.0184,0.01 0.0277,0.0146 0.004,0.002 0.008,0.004 0.0115,0.006 0.0107,0.005 0.0216,0.0101 0.0324,0.015 0.002,8.4e-4 0.004,0.002 0.007,0.003 0.002,8.4e-4 0.005,0.003 0.007,0.003 0.0175,0.008 0.0352,0.0148 0.0532,0.0216 h 8e-5 c 0.0195,0.007 0.0394,0.0141 0.0595,0.0204 0.007,0.002 0.0131,0.003 0.0196,0.006 0.0141,0.004 0.0282,0.008 0.0426,0.0117 0.007,0.002 0.0146,0.003 0.0219,0.005 0.0138,0.003 0.0276,0.006 0.0415,0.009 0.007,0.002 0.0142,0.003 0.0214,0.004 0.015,0.003 0.0301,0.005 0.0453,0.007 0.007,8.5e-4 0.0131,0.002 0.0197,0.003 0.0163,0.002 0.0328,0.003 0.0493,0.004 0.005,4.5e-4 0.0108,8.4e-4 0.0162,8.4e-4 0.022,0.002 0.0442,0.002 0.0664,0.002 h 19.44137 c 0.0222,0 0.0443,-8.5e-4 0.0664,-0.002 0.005,-4.5e-4 0.0108,-8.4e-4 0.0162,-8.4e-4 0.0165,-8.4e-4 0.0329,-0.003 0.0493,-0.004 0.007,-6.8e-4 0.0131,-0.002 0.0197,-0.003 0.0152,-0.002 0.0303,-0.004 0.0453,-0.007 0.007,-8.4e-4 0.0143,-0.003 0.0214,-0.004 0.0139,-0.003 0.0278,-0.005 0.0415,-0.009 0.007,-0.002 0.0147,-0.003 0.0219,-0.005 0.0146,-0.003 0.0291,-0.008 0.0435,-0.012 0.006,-0.002 0.0122,-0.003 0.0183,-0.005 0.0202,-0.006 0.0402,-0.0131 0.0598,-0.0205 h 8e-5 c 0.018,-0.007 0.0357,-0.0139 0.0532,-0.0216 0.002,-8.4e-4 0.004,-0.002 0.006,-0.003 0.003,-0.002 0.006,-0.003 0.009,-0.004 0.0102,-0.004 0.0204,-0.009 0.0305,-0.0141 0.004,-0.002 0.008,-0.004 0.0114,-0.006 0.01,-0.004 0.0189,-0.01 0.0282,-0.0149 0.009,-0.005 0.0185,-0.0101 0.0276,-0.0153 0.009,-0.005 0.0184,-0.0109 0.0275,-0.0164 0.01,-0.006 0.0189,-0.0118 0.0282,-0.0179 0.008,-0.005 0.0164,-0.011 0.0246,-0.0168 0.009,-0.006 0.0182,-0.013 0.0271,-0.0196 0.008,-0.006 0.0157,-0.0119 0.0234,-0.018 0.004,-0.003 0.008,-0.006 0.0116,-0.009 0.007,-0.006 0.0144,-0.0123 0.0215,-0.0183 0.003,-0.003 0.006,-0.005 0.009,-0.008 0.002,-0.002 0.004,-0.003 0.007,-0.006 0.009,-0.008 0.0165,-0.0157 0.0248,-0.0238 0.005,-0.005 0.0101,-0.01 0.015,-0.0145 0.009,-0.009 0.0182,-0.0192 0.0271,-0.029 0.005,-0.005 0.0105,-0.0112 0.0155,-0.0169 0.0119,-0.0136 0.0232,-0.0276 0.0342,-0.0419 10e-4,-0.002 0.002,-0.003 0.004,-0.004 7e-5,-9e-5 10e-5,-1.8e-4 1.6e-4,-4.6e-4 0.0125,-0.0165 0.0245,-0.0334 0.0357,-0.0507 0.0259,-0.0396 0.0483,-0.0812 0.0669,-0.12422 0.006,-0.0143 0.0119,-0.029 0.0172,-0.0437 0.0106,-0.0294 0.0195,-0.0595 0.0264,-0.0902 0.013,-0.0575 0.0193,-0.11717 0.0182,-0.17831 -4.1e-4,-0.0204 -0.002,-0.0409 -0.004,-0.0616 l -1.39098,-16.87475 c -0.13137,-0.60653 -0.81083,-0.61567 -1.29359,-0.60648 l -8.0659,0.0123 -8.0659,-0.0123 c -0.0604,-8.4e-4 -0.12375,-0.002 -0.18879,-0.002 z"
         fill="url(#f)"
         id="path996"
         style="display:inline;fill:url(#linearGradient1020);stroke-width:1.87532;enable-background:new" />
      <rect
         x="327.1463"
         y="158.49368"
         width="17.707386"
         height="0.84209579"
         ry="0.42103946"
         fill="url(#e)"
         id="rect998"
         style="display:inline;fill:url(#linearGradient1022);stroke-width:1.87532;enable-background:new" />
      <path
         transform="matrix(0.20306496,0,0,0.22558142,323.00361,132.89306)"
         d="m 32.182,114.43 c 7.5581,10.09 19.61,16.619 33.188,16.619 13.577,0 25.629,-6.5288 33.188,-16.619 z"
         filter="url(#g)"
         opacity="0.35"
         id="path1002"
         style="stroke-width:9.2161" />
      <path
         d="m 329.8599,158.50171 c 1.50619,2.0899 3.82066,3.42997 6.41786,3.42997 2.59741,0 4.91174,-1.34014 6.41787,-3.42997 z"
         fill="#e6e6e6"
         id="path1004"
         style="stroke-width:1.9725" />
      <path
         d="m 330.1184,158.50171 c 1.47053,1.95873 3.68339,3.20574 6.15936,3.20574 2.47597,0 4.68877,-1.24699 6.15937,-3.20574 z"
         fill="url(#c)"
         id="path1006"
         style="fill:url(#linearGradient1024);stroke-width:1.9725" />
      <path
         d="m 329.85746,158.50171 c 1.52414,2.11781 3.86209,3.42997 6.4203,3.42997 v -3.42997 z"
         fill="url(#d)"
         opacity="0.7"
         id="path1008"
         style="fill:url(#linearGradient1026);stroke-width:1.9725" />
      <path
         d="m 325.67114,188.84221 c -0.34905,0.003 -0.75888,0.0592 -0.84702,0.46612 l -1.06636,12.93666 c -0.006,0.0634 -0.002,0.12512 0.0111,0.18395 0.005,0.0236 0.0121,0.0465 0.0202,0.0692 0.004,0.0113 0.009,0.0224 0.0133,0.0335 0.0142,0.033 0.0314,0.0648 0.0512,0.0952 0.008,0.013 0.0175,0.0258 0.0269,0.0383 0.003,0.004 0.006,0.007 0.009,0.0111 0.007,0.009 0.0134,0.017 0.0206,0.0252 0.004,0.005 0.008,0.009 0.0119,0.013 0.007,0.008 0.0136,0.015 0.0208,0.0222 0.004,0.004 0.008,0.007 0.0115,0.0111 0.006,0.006 0.0125,0.0123 0.019,0.0182 0.002,0.001 0.003,0.003 0.005,0.005 0.002,0.002 0.005,0.004 0.007,0.006 0.005,0.005 0.0109,0.01 0.0165,0.0141 0.003,0.003 0.006,0.005 0.009,0.007 0.006,0.005 0.0119,0.009 0.018,0.0138 0.007,0.005 0.0136,0.0101 0.0205,0.0149 0.006,0.005 0.013,0.009 0.0196,0.0133 0.007,0.005 0.014,0.009 0.0212,0.0135 0.007,0.004 0.0136,0.008 0.0206,0.0123 0.007,0.004 0.0145,0.008 0.0219,0.0121 0.007,0.004 0.0141,0.008 0.0213,0.0112 0.003,0.001 0.006,0.003 0.009,0.005 0.008,0.004 0.0165,0.008 0.0249,0.0115 0.002,6.5e-4 0.003,0.001 0.005,0.002 0.002,6.4e-4 0.004,0.002 0.005,0.003 0.0134,0.006 0.027,0.0114 0.0408,0.0165 h 6e-5 c 0.015,0.005 0.0302,0.0108 0.0456,0.0156 0.005,0.001 0.01,0.003 0.015,0.005 0.0108,0.003 0.0217,0.006 0.0326,0.009 0.006,0.001 0.0112,0.003 0.0168,0.004 0.0105,0.003 0.0211,0.005 0.0318,0.007 0.005,0.001 0.0109,0.002 0.0164,0.003 0.0115,0.002 0.0231,0.004 0.0347,0.005 0.005,6.4e-4 0.01,0.001 0.0151,0.002 0.0125,10e-4 0.0251,0.003 0.0378,0.003 0.004,3.5e-4 0.008,6.4e-4 0.0124,6.4e-4 0.0169,0.001 0.0338,0.001 0.0509,0.001 h 14.90504 c 0.0171,0 0.034,-6.5e-4 0.0509,-0.001 0.004,-3.4e-4 0.008,-6.4e-4 0.0124,-6.4e-4 0.0126,-6.5e-4 0.0252,-0.002 0.0378,-0.003 0.005,-5.2e-4 0.0101,-0.001 0.0151,-0.002 0.0116,-0.001 0.0232,-0.003 0.0347,-0.005 0.006,-6.4e-4 0.0109,-0.002 0.0164,-0.003 0.0107,-0.002 0.0213,-0.004 0.0318,-0.007 0.006,-10e-4 0.0112,-0.003 0.0168,-0.004 0.0112,-0.003 0.0223,-0.006 0.0334,-0.009 0.005,-0.001 0.009,-0.003 0.014,-0.004 0.0155,-0.005 0.0308,-0.0101 0.0459,-0.0157 h 6e-5 c 0.0138,-0.005 0.0274,-0.0106 0.0408,-0.0165 0.002,-6.4e-4 0.003,-0.001 0.005,-0.002 0.002,-0.001 0.005,-0.002 0.007,-0.003 0.008,-0.003 0.0157,-0.007 0.0233,-0.0108 0.003,-10e-4 0.006,-0.003 0.009,-0.005 0.007,-0.003 0.0145,-0.008 0.0216,-0.0114 0.007,-0.004 0.0142,-0.008 0.0211,-0.0117 0.007,-0.004 0.0141,-0.008 0.0211,-0.0126 0.007,-0.005 0.0145,-0.009 0.0216,-0.0137 0.006,-0.004 0.0126,-0.008 0.0188,-0.0128 0.007,-0.005 0.0139,-0.01 0.0208,-0.015 0.006,-0.005 0.0121,-0.009 0.018,-0.0138 0.003,-0.002 0.006,-0.005 0.009,-0.007 0.006,-0.005 0.011,-0.009 0.0165,-0.0141 0.002,-0.002 0.005,-0.004 0.007,-0.006 0.002,-0.001 0.003,-0.003 0.005,-0.005 0.007,-0.006 0.0127,-0.0121 0.019,-0.0182 0.004,-0.004 0.008,-0.007 0.0115,-0.0111 0.007,-0.007 0.014,-0.0147 0.0208,-0.0222 0.004,-0.004 0.008,-0.009 0.0119,-0.013 0.009,-0.0104 0.0178,-0.0212 0.0262,-0.0321 8.1e-4,-0.001 0.002,-0.002 0.003,-0.003 5e-5,-7e-5 7e-5,-1.3e-4 1.2e-4,-3.5e-4 0.01,-0.0127 0.0188,-0.0256 0.0274,-0.0389 0.0198,-0.0304 0.037,-0.0622 0.0512,-0.0952 0.005,-0.011 0.009,-0.0222 0.0132,-0.0335 0.008,-0.0225 0.0149,-0.0456 0.0202,-0.0692 0.01,-0.0441 0.0148,-0.0898 0.0139,-0.13671 -3.1e-4,-0.0156 -10e-4,-0.0314 -0.003,-0.0473 l -1.06642,-12.9373 c -0.10072,-0.46501 -0.62164,-0.47202 -0.99175,-0.46497 l -6.18386,0.009 -6.18385,-0.009 c -0.0463,-6.4e-4 -0.0949,-10e-4 -0.14475,-10e-4 z"
         fill="url(#f)"
         id="path1036"
         style="display:inline;fill:url(#linearGradient1060);stroke-width:1.43774;enable-background:new" />
      <rect
         x="325.21219"
         y="208.04517"
         width="13.575663"
         height="0.64560676"
         ry="0.32279691"
         fill="url(#e)"
         id="rect1038"
         style="display:inline;fill:url(#linearGradient1062);stroke-width:1.43774;enable-background:new" />
      <path
         transform="matrix(0.15568313,0,0,0.17294575,322.03611,188.41802)"
         d="m 32.182,114.43 c 7.5581,10.09 19.61,16.619 33.188,16.619 13.577,0 25.629,-6.5288 33.188,-16.619 z"
         filter="url(#g)"
         opacity="0.35"
         id="path1042"
         style="stroke-width:9.2161" />
      <path
         d="m 327.2926,208.05132 c 1.15474,1.60226 2.92917,2.62964 4.92036,2.62964 1.99134,0 3.76566,-1.02743 4.92037,-2.62964 z"
         fill="#e6e6e6"
         id="path1044"
         style="stroke-width:1.51225" />
      <path
         d="m 327.49078,208.05132 c 1.12741,1.50169 2.82394,2.45773 4.72218,2.45773 1.89824,0 3.59472,-0.95602 4.72218,-2.45773 z"
         fill="url(#c)"
         id="path1046"
         style="fill:url(#linearGradient1064);stroke-width:1.51225" />
      <path
         d="m 327.29073,208.05132 c 1.16851,1.62365 2.96093,2.62964 4.92223,2.62964 v -2.62964 z"
         fill="url(#d)"
         opacity="0.7"
         id="path1048"
         style="fill:url(#linearGradient1066);stroke-width:1.51225" />
      <path
         d="m 323.87247,236.72317 c -0.22764,0.002 -0.49492,0.0386 -0.55241,0.30399 l -0.69544,8.43696 c -0.004,0.0414 -10e-4,0.0816 0.007,0.11996 0.003,0.0154 0.008,0.0303 0.0132,0.0451 0.003,0.007 0.006,0.0146 0.009,0.0219 0.009,0.0216 0.0205,0.0423 0.0334,0.0621 0.006,0.008 0.0114,0.0168 0.0176,0.025 0.002,0.003 0.004,0.005 0.006,0.007 0.004,0.006 0.009,0.0111 0.0134,0.0165 0.002,0.003 0.005,0.006 0.008,0.008 0.004,0.005 0.009,0.01 0.0135,0.0145 0.002,0.003 0.005,0.005 0.007,0.007 0.004,0.004 0.008,0.008 0.0124,0.0119 10e-4,8.4e-4 0.002,0.002 0.003,0.003 10e-4,0.001 0.003,0.003 0.004,0.004 0.004,0.003 0.007,0.006 0.0108,0.009 0.002,0.002 0.004,0.003 0.006,0.004 0.004,0.003 0.008,0.006 0.0117,0.009 0.004,0.003 0.009,0.007 0.0134,0.01 0.004,0.003 0.008,0.006 0.0128,0.009 0.005,0.003 0.009,0.006 0.0138,0.009 0.004,0.003 0.009,0.005 0.0134,0.008 0.005,0.003 0.009,0.005 0.0143,0.008 0.005,0.003 0.009,0.005 0.0139,0.007 0.002,8.4e-4 0.004,0.002 0.006,0.003 0.005,0.003 0.0108,0.005 0.0162,0.007 10e-4,4.2e-4 0.002,8.4e-4 0.003,0.001 10e-4,4.2e-4 0.002,0.001 0.003,0.002 0.009,0.004 0.0176,0.007 0.0266,0.0108 h 3e-5 c 0.01,0.003 0.0197,0.007 0.0297,0.0102 0.003,8.4e-4 0.007,0.002 0.01,0.003 0.007,0.002 0.0141,0.004 0.0213,0.006 0.004,8.4e-4 0.007,0.002 0.011,0.003 0.007,0.002 0.0138,0.003 0.0208,0.004 0.004,8.4e-4 0.007,0.001 0.0107,0.002 0.007,0.001 0.015,0.003 0.0226,0.003 0.003,4.2e-4 0.007,8.4e-4 0.01,10e-4 0.008,8.4e-4 0.0164,0.002 0.0246,0.002 0.003,2.2e-4 0.005,4.2e-4 0.008,4.2e-4 0.011,8.4e-4 0.0221,8.4e-4 0.0332,8.4e-4 h 9.72068 c 0.0111,0 0.0222,-4.2e-4 0.0332,-8.4e-4 0.003,-2.3e-4 0.005,-4.2e-4 0.008,-4.2e-4 0.008,-4.2e-4 0.0165,-0.001 0.0246,-0.002 0.003,-3.4e-4 0.007,-8.4e-4 0.01,-10e-4 0.008,-8.4e-4 0.0151,-0.002 0.0226,-0.003 0.004,-4.2e-4 0.007,-0.001 0.0107,-0.002 0.007,-10e-4 0.0139,-0.003 0.0208,-0.004 0.004,-8.5e-4 0.007,-0.002 0.011,-0.003 0.007,-0.002 0.0146,-0.004 0.0218,-0.006 0.003,-8.4e-4 0.006,-0.002 0.009,-0.003 0.0101,-0.003 0.0201,-0.007 0.0299,-0.0103 h 4e-5 c 0.009,-0.003 0.0179,-0.007 0.0266,-0.0108 10e-4,-4.2e-4 0.002,-8.4e-4 0.003,-0.001 0.002,-8.5e-4 0.003,-0.001 0.005,-0.002 0.005,-0.002 0.0102,-0.005 0.0152,-0.007 0.002,-8.4e-4 0.004,-0.002 0.006,-0.003 0.005,-0.002 0.009,-0.005 0.0141,-0.007 0.005,-0.003 0.009,-0.005 0.0138,-0.008 0.005,-0.003 0.009,-0.005 0.0138,-0.008 0.005,-0.003 0.009,-0.006 0.0141,-0.009 0.004,-0.003 0.008,-0.006 0.0123,-0.008 0.005,-0.003 0.009,-0.006 0.0135,-0.01 0.004,-0.003 0.008,-0.006 0.0117,-0.009 0.002,-0.001 0.004,-0.003 0.006,-0.004 0.004,-0.003 0.007,-0.006 0.0108,-0.009 10e-4,-0.001 0.003,-0.003 0.004,-0.004 10e-4,-8.5e-4 0.002,-0.002 0.003,-0.003 0.004,-0.004 0.008,-0.008 0.0124,-0.0119 0.002,-0.003 0.005,-0.005 0.007,-0.007 0.005,-0.005 0.009,-0.01 0.0136,-0.0145 0.003,-0.003 0.005,-0.006 0.008,-0.008 0.006,-0.007 0.0116,-0.0138 0.0171,-0.021 5.3e-4,-8.4e-4 0.001,-0.001 0.002,-0.002 3e-5,-5e-5 5e-5,-9e-5 8e-5,-2.4e-4 0.006,-0.008 0.0122,-0.0167 0.0179,-0.0253 0.0129,-0.0198 0.0242,-0.0406 0.0334,-0.0621 0.003,-0.007 0.006,-0.0145 0.009,-0.0219 0.005,-0.0147 0.01,-0.0298 0.0132,-0.0451 0.007,-0.0288 0.01,-0.0586 0.009,-0.0892 -2e-4,-0.0102 -8.3e-4,-0.0205 -0.002,-0.0308 l -0.69548,-8.43737 c -0.0657,-0.30327 -0.40542,-0.30784 -0.6468,-0.30324 l -4.03295,0.006 -4.03295,-0.006 c -0.0302,-4.2e-4 -0.0619,-8.4e-4 -0.0944,-8.4e-4 z"
         fill="url(#f)"
         id="path1076"
         style="display:inline;fill:url(#linearGradient1100);stroke-width:0.937658;enable-background:new" />
      <rect
         x="323.57315"
         y="249.24684"
         width="8.853693"
         height="0.4210479"
         ry="0.21051973"
         fill="url(#e)"
         id="rect1078"
         style="display:inline;fill:url(#linearGradient1102);stroke-width:0.937658;enable-background:new" />
      <path
         transform="matrix(0.10153248,0,0,0.11279071,321.5018,236.44653)"
         d="m 32.182,114.43 c 7.5581,10.09 19.61,16.619 33.188,16.619 13.577,0 25.629,-6.5288 33.188,-16.619 z"
         filter="url(#g)"
         opacity="0.35"
         id="path1082"
         style="stroke-width:9.2161" />
      <path
         d="m 324.92994,249.25085 c 0.7531,1.04495 1.91034,1.71498 3.20894,1.71498 1.2987,0 2.45586,-0.67006 3.20893,-1.71498 z"
         fill="#e6e6e6"
         id="path1084"
         style="stroke-width:0.986248" />
      <path
         d="m 325.05919,249.25085 c 0.73527,0.97936 1.8417,1.60287 3.07969,1.60287 1.23798,0 2.34438,-0.6235 3.07968,-1.60287 z"
         fill="url(#c)"
         id="path1086"
         style="fill:url(#linearGradient1104);stroke-width:0.986248" />
      <path
         d="m 324.92872,249.25085 c 0.76208,1.0589 1.93105,1.71498 3.21016,1.71498 v -1.71498 z"
         fill="url(#d)"
         opacity="0.7"
         id="path1088"
         style="fill:url(#linearGradient1106);stroke-width:0.986248" />
    </g>
  </g>
</svg>
