<?xml version="1.0" encoding="UTF-8" standalone="no"?>
<svg
   inkscape:export-ydpi="90.000000"
   inkscape:export-xdpi="90.000000"
   width="400"
   height="300"
   id="svg11300"
   sodipodi:version="0.32"
   inkscape:version="1.2.2 (b0a8486541, 2022-12-01)"
   sodipodi:docname="drive-multidisk.svg"
   inkscape:output_extension="org.inkscape.output.svg.inkscape"
   version="1.0"
   style="display:inline;enable-background:new"
   inkscape:export-filename="/home/sam/suru-template.png"
   xmlns:inkscape="http://www.inkscape.org/namespaces/inkscape"
   xmlns:sodipodi="http://sodipodi.sourceforge.net/DTD/sodipodi-0.dtd"
   xmlns:xlink="http://www.w3.org/1999/xlink"
   xmlns="http://www.w3.org/2000/svg"
   xmlns:svg="http://www.w3.org/2000/svg"
   xmlns:rdf="http://www.w3.org/1999/02/22-rdf-syntax-ns#"
   xmlns:cc="http://creativecommons.org/ns#"
   xmlns:dc="http://purl.org/dc/elements/1.1/">
  <title
     id="title3004">Suru Icon Theme Template</title>
  <sodipodi:namedview
     stroke="#ef2929"
     fill="#f57900"
     id="base"
     pagecolor="#ffffff"
     bordercolor="#000000"
     borderopacity="0.25490196"
     inkscape:pageopacity="0"
     inkscape:pageshadow="2"
     inkscape:zoom="1.4142136"
     inkscape:cx="324.56201"
     inkscape:cy="107.48023"
     inkscape:current-layer="layer6"
     showgrid="false"
     inkscape:grid-bbox="true"
     inkscape:document-units="px"
     inkscape:showpageshadow="false"
     inkscape:window-width="1920"
     inkscape:window-height="1016"
     inkscape:window-x="0"
     inkscape:window-y="32"
     width="400px"
     height="300px"
     inkscape:snap-nodes="true"
     inkscape:snap-bbox="true"
     gridtolerance="10000"
     inkscape:object-nodes="true"
     inkscape:snap-grids="true"
     showguides="true"
     inkscape:guide-bbox="true"
     inkscape:window-maximized="1"
     inkscape:bbox-paths="true"
     inkscape:snap-bbox-midpoints="true"
     inkscape:snap-global="true"
     inkscape:object-paths="true"
     inkscape:snap-intersection-paths="true"
     inkscape:snap-smooth-nodes="true"
     inkscape:pagecheckerboard="false"
     showborder="false"
     inkscape:document-rotation="0"
     inkscape:deskcolor="#d1d1d1">
    <inkscape:grid
       spacingy="1"
       spacingx="1"
       id="grid5883"
       type="xygrid"
       enabled="true"
       visible="true"
       empspacing="4"
       snapvisiblegridlinesonly="true"
       originx="0"
       originy="0" />
    <inkscape:grid
       type="xygrid"
       id="grid11592"
       empspacing="2"
       visible="true"
       enabled="false"
       spacingx="0.5"
       spacingy="0.5"
       color="#ff0000"
       opacity="0.1254902"
       empcolor="#ff0000"
       empopacity="0.25098039"
       snapvisiblegridlinesonly="true"
       originx="0"
       originy="0" />
  </sodipodi:namedview>
  <defs
     id="defs3">
    <linearGradient
       id="_Linear8"
       x2="1"
       gradientTransform="matrix(0,-3.48937,3.48937,0,188.4055,164.2541)"
       gradientUnits="userSpaceOnUse">
      <stop
         style="stop-color:#040404;stop-opacity:.45"
         offset="0"
         id="stop329" />
      <stop
         style="stop-color:#121212;stop-opacity:.41"
         offset="1"
         id="stop331" />
    </linearGradient>
    <linearGradient
       id="_Linear7"
       x2="1"
       gradientTransform="matrix(18.8308,0,0,18.8308,165.3493,162.8454)"
       gradientUnits="userSpaceOnUse">
      <stop
         style="stop-color:#197cf1"
         offset="0"
         id="stop324" />
      <stop
         style="stop-color:#20bcfa"
         offset="1"
         id="stop326" />
    </linearGradient>
    <linearGradient
       id="_Linear6"
       x2="1"
       gradientTransform="matrix(-0.00154162,-38.7406,38.7406,-0.00154162,174.695,159.3333)"
       gradientUnits="userSpaceOnUse">
      <stop
         style="stop-color:#bbbec4"
         offset="0"
         id="stop319" />
      <stop
         style="stop-color:#dcdee1"
         offset="1"
         id="stop321" />
    </linearGradient>
    <linearGradient
       id="_Linear5"
       x2="1"
       gradientTransform="matrix(44.2944,-0.186744,0.186744,44.2944,152.55515,162.2109)"
       gradientUnits="userSpaceOnUse">
      <stop
         style="stop-color:#1a1a1a"
         offset="0"
         id="stop304" />
      <stop
         style="stop-color:#2c2c2e"
         offset=".11"
         id="stop306" />
      <stop
         style="stop-color:#2b2b2d"
         offset=".29"
         id="stop308" />
      <stop
         style="stop-color:#2a2b2d"
         offset=".51"
         id="stop310" />
      <stop
         style="stop-color:#2b2b2d"
         offset=".75"
         id="stop312" />
      <stop
         style="stop-color:#323232"
         offset=".9"
         id="stop314" />
      <stop
         style="stop-color:#171717"
         offset="1"
         id="stop316" />
    </linearGradient>
    <linearGradient
       id="_Linear4"
       x2="1"
       gradientTransform="matrix(0,-3.48937,3.48937,0,188.482,172.5306)"
       gradientUnits="userSpaceOnUse">
      <stop
         style="stop-color:#040404;stop-opacity:.45"
         offset="0"
         id="stop299" />
      <stop
         style="stop-color:#121212;stop-opacity:.41"
         offset="1"
         id="stop301" />
    </linearGradient>
    <linearGradient
       id="_Linear3"
       x2="1"
       gradientTransform="matrix(18.8308,0,0,18.8308,165.4258,171.1219)"
       gradientUnits="userSpaceOnUse">
      <stop
         style="stop-color:#197cf1"
         offset="0"
         id="stop294" />
      <stop
         style="stop-color:#20bcfa"
         offset="1"
         id="stop296" />
    </linearGradient>
    <linearGradient
       id="_Linear2"
       x2="1"
       gradientTransform="matrix(-0.00154162,-38.7406,38.7406,-0.00154162,174.7715,167.6098)"
       gradientUnits="userSpaceOnUse">
      <stop
         style="stop-color:#bbbec4"
         offset="0"
         id="stop289" />
      <stop
         style="stop-color:#dcdee1"
         offset="1"
         id="stop291" />
    </linearGradient>
    <linearGradient
       id="_Linear1"
       x2="1"
       gradientTransform="matrix(44.2944,-0.186744,0.186744,44.2944,152.63165,170.4874)"
       gradientUnits="userSpaceOnUse">
      <stop
         style="stop-color:#1a1a1a"
         offset="0"
         id="stop274" />
      <stop
         style="stop-color:#2c2c2e"
         offset=".11"
         id="stop276" />
      <stop
         style="stop-color:#2b2b2d"
         offset=".29"
         id="stop278" />
      <stop
         style="stop-color:#2a2b2d"
         offset=".51"
         id="stop280" />
      <stop
         style="stop-color:#2b2b2d"
         offset=".75"
         id="stop282" />
      <stop
         style="stop-color:#323232"
         offset=".9"
         id="stop284" />
      <stop
         style="stop-color:#171717"
         offset="1"
         id="stop286" />
    </linearGradient>
    <linearGradient
       inkscape:collect="always"
       xlink:href="#_Linear1"
       id="linearGradient354"
       gradientUnits="userSpaceOnUse"
       gradientTransform="matrix(44.814638,-0.18893731,0.18893731,44.814638,321.63907,103.14768)"
       x2="1" />
    <linearGradient
       inkscape:collect="always"
       xlink:href="#_Linear2"
       id="linearGradient356"
       gradientUnits="userSpaceOnUse"
       gradientTransform="matrix(-0.00155973,-39.195608,39.195608,-0.00155973,344.03895,100.23628)"
       x2="1" />
    <linearGradient
       inkscape:collect="always"
       xlink:href="#_Linear3"
       id="linearGradient358"
       gradientUnits="userSpaceOnUse"
       gradientTransform="matrix(19.051968,0,0,19.051968,334.58349,103.78963)"
       x2="1" />
    <linearGradient
       inkscape:collect="always"
       xlink:href="#_Linear4"
       id="linearGradient360"
       gradientUnits="userSpaceOnUse"
       gradientTransform="matrix(0,-3.5303527,3.5303527,0,357.91048,105.21488)"
       x2="1" />
    <linearGradient
       inkscape:collect="always"
       xlink:href="#_Linear5"
       id="linearGradient362"
       gradientUnits="userSpaceOnUse"
       gradientTransform="matrix(44.814638,-0.18893731,0.18893731,44.814638,321.56167,94.773971)"
       x2="1" />
    <linearGradient
       inkscape:collect="always"
       xlink:href="#_Linear6"
       id="linearGradient364"
       gradientUnits="userSpaceOnUse"
       gradientTransform="matrix(-0.00155973,-39.195608,39.195608,-0.00155973,343.96155,91.862574)"
       x2="1" />
    <linearGradient
       inkscape:collect="always"
       xlink:href="#_Linear7"
       id="linearGradient366"
       gradientUnits="userSpaceOnUse"
       gradientTransform="matrix(19.051968,0,0,19.051968,334.50609,95.415923)"
       x2="1" />
    <linearGradient
       inkscape:collect="always"
       xlink:href="#_Linear8"
       id="linearGradient368"
       gradientUnits="userSpaceOnUse"
       gradientTransform="matrix(0,-3.5303527,3.5303527,0,357.83308,96.841168)"
       x2="1" />
    <linearGradient
       inkscape:collect="always"
       xlink:href="#_Linear1"
       id="linearGradient394"
       gradientUnits="userSpaceOnUse"
       gradientTransform="matrix(29.226939,-0.12321999,0.12321999,29.226939,321.41678,160.48762)"
       x2="1" />
    <linearGradient
       inkscape:collect="always"
       xlink:href="#_Linear2"
       id="linearGradient396"
       gradientUnits="userSpaceOnUse"
       gradientTransform="matrix(-0.00101721,-25.562354,25.562354,-0.00101721,336.0254,158.58888)"
       x2="1" />
    <linearGradient
       inkscape:collect="always"
       xlink:href="#_Linear3"
       id="linearGradient398"
       gradientUnits="userSpaceOnUse"
       gradientTransform="matrix(12.425197,0,0,12.425197,329.85879,160.90628)"
       x2="1" />
    <linearGradient
       inkscape:collect="always"
       xlink:href="#_Linear4"
       id="linearGradient400"
       gradientUnits="userSpaceOnUse"
       gradientTransform="matrix(0,-2.302404,2.302404,0,345.07205,161.83579)"
       x2="1" />
    <linearGradient
       inkscape:collect="always"
       xlink:href="#_Linear5"
       id="linearGradient402"
       gradientUnits="userSpaceOnUse"
       gradientTransform="matrix(29.226939,-0.12321999,0.12321999,29.226939,321.3663,155.0265)"
       x2="1" />
    <linearGradient
       inkscape:collect="always"
       xlink:href="#_Linear6"
       id="linearGradient404"
       gradientUnits="userSpaceOnUse"
       gradientTransform="matrix(-0.00101721,-25.562354,25.562354,-0.00101721,335.97492,153.12777)"
       x2="1" />
    <linearGradient
       inkscape:collect="always"
       xlink:href="#_Linear7"
       id="linearGradient406"
       gradientUnits="userSpaceOnUse"
       gradientTransform="matrix(12.425197,0,0,12.425197,329.80831,155.44517)"
       x2="1" />
    <linearGradient
       inkscape:collect="always"
       xlink:href="#_Linear8"
       id="linearGradient408"
       gradientUnits="userSpaceOnUse"
       gradientTransform="matrix(0,-2.302404,2.302404,0,345.02157,156.37468)"
       x2="1" />
    <linearGradient
       inkscape:collect="always"
       xlink:href="#_Linear1"
       id="linearGradient434"
       gradientUnits="userSpaceOnUse"
       gradientTransform="matrix(22.40732,-0.09446866,0.09446866,22.40732,320.81954,209.57384)"
       x2="1" />
    <linearGradient
       inkscape:collect="always"
       xlink:href="#_Linear2"
       id="linearGradient436"
       gradientUnits="userSpaceOnUse"
       gradientTransform="matrix(-7.7986319e-4,-19.597805,19.597805,-7.7986319e-4,332.01948,208.11814)"
       x2="1" />
    <linearGradient
       inkscape:collect="always"
       xlink:href="#_Linear3"
       id="linearGradient438"
       gradientUnits="userSpaceOnUse"
       gradientTransform="matrix(9.5259842,0,0,9.5259842,327.29175,209.89482)"
       x2="1" />
    <linearGradient
       inkscape:collect="always"
       xlink:href="#_Linear4"
       id="linearGradient440"
       gradientUnits="userSpaceOnUse"
       gradientTransform="matrix(0,-1.7651764,1.7651764,0,338.95524,210.60744)"
       x2="1" />
    <linearGradient
       inkscape:collect="always"
       xlink:href="#_Linear5"
       id="linearGradient442"
       gradientUnits="userSpaceOnUse"
       gradientTransform="matrix(22.40732,-0.09446866,0.09446866,22.40732,320.78084,205.38699)"
       x2="1" />
    <linearGradient
       inkscape:collect="always"
       xlink:href="#_Linear6"
       id="linearGradient444"
       gradientUnits="userSpaceOnUse"
       gradientTransform="matrix(-7.7986319e-4,-19.597805,19.597805,-7.7986319e-4,331.98078,203.93129)"
       x2="1" />
    <linearGradient
       inkscape:collect="always"
       xlink:href="#_Linear7"
       id="linearGradient446"
       gradientUnits="userSpaceOnUse"
       gradientTransform="matrix(9.5259842,0,0,9.5259842,327.25305,205.70796)"
       x2="1" />
    <linearGradient
       inkscape:collect="always"
       xlink:href="#_Linear8"
       id="linearGradient448"
       gradientUnits="userSpaceOnUse"
       gradientTransform="matrix(0,-1.7651764,1.7651764,0,338.91655,206.42059)"
       x2="1" />
    <linearGradient
       inkscape:collect="always"
       xlink:href="#_Linear1"
       id="linearGradient474"
       gradientUnits="userSpaceOnUse"
       gradientTransform="matrix(14.613469,-0.06160999,0.06160999,14.613469,320.70839,250.24381)"
       x2="1" />
    <linearGradient
       inkscape:collect="always"
       xlink:href="#_Linear2"
       id="linearGradient476"
       gradientUnits="userSpaceOnUse"
       gradientTransform="matrix(-5.0860643e-4,-12.781177,12.781177,-5.0860643e-4,328.0127,249.29444)"
       x2="1" />
    <linearGradient
       inkscape:collect="always"
       xlink:href="#_Linear3"
       id="linearGradient478"
       gradientUnits="userSpaceOnUse"
       gradientTransform="matrix(6.2125984,0,0,6.2125984,324.9294,250.45314)"
       x2="1" />
    <linearGradient
       inkscape:collect="always"
       xlink:href="#_Linear4"
       id="linearGradient480"
       gradientUnits="userSpaceOnUse"
       gradientTransform="matrix(0,-1.151202,1.151202,0,332.53603,250.91789)"
       x2="1" />
    <linearGradient
       inkscape:collect="always"
       xlink:href="#_Linear5"
       id="linearGradient482"
       gradientUnits="userSpaceOnUse"
       gradientTransform="matrix(14.613469,-0.06160999,0.06160999,14.613469,320.68316,247.51325)"
       x2="1" />
    <linearGradient
       inkscape:collect="always"
       xlink:href="#_Linear6"
       id="linearGradient484"
       gradientUnits="userSpaceOnUse"
       gradientTransform="matrix(-5.0860643e-4,-12.781177,12.781177,-5.0860643e-4,327.98747,246.56388)"
       x2="1" />
    <linearGradient
       inkscape:collect="always"
       xlink:href="#_Linear7"
       id="linearGradient486"
       gradientUnits="userSpaceOnUse"
       gradientTransform="matrix(6.2125984,0,0,6.2125984,324.90416,247.72258)"
       x2="1" />
    <linearGradient
       inkscape:collect="always"
       xlink:href="#_Linear8"
       id="linearGradient488"
       gradientUnits="userSpaceOnUse"
       gradientTransform="matrix(0,-1.151202,1.151202,0,332.51079,248.18734)"
       x2="1" />
    <linearGradient
       inkscape:collect="always"
       xlink:href="#_Linear1"
       id="linearGradient501"
       gradientUnits="userSpaceOnUse"
       gradientTransform="matrix(218.22781,-0.92004259,0.92004259,218.22781,43.111989,249.24088)"
       x2="1" />
    <linearGradient
       inkscape:collect="always"
       xlink:href="#_Linear2"
       id="linearGradient503"
       gradientUnits="userSpaceOnUse"
       gradientTransform="matrix(-0.00759519,-190.86558,190.86558,-0.00759519,152.18968,235.06364)"
       x2="1" />
    <linearGradient
       inkscape:collect="always"
       xlink:href="#_Linear3"
       id="linearGradient505"
       gradientUnits="userSpaceOnUse"
       gradientTransform="matrix(92.774804,0,0,92.774804,106.14568,252.36691)"
       x2="1" />
    <linearGradient
       inkscape:collect="always"
       xlink:href="#_Linear4"
       id="linearGradient507"
       gradientUnits="userSpaceOnUse"
       gradientTransform="matrix(0,-17.191283,17.191283,0,219.73801,259.30723)"
       x2="1" />
    <linearGradient
       inkscape:collect="always"
       xlink:href="#_Linear5"
       id="linearGradient509"
       gradientUnits="userSpaceOnUse"
       gradientTransform="matrix(218.22781,-0.92004259,0.92004259,218.22781,42.735092,208.46456)"
       x2="1" />
    <linearGradient
       inkscape:collect="always"
       xlink:href="#_Linear6"
       id="linearGradient511"
       gradientUnits="userSpaceOnUse"
       gradientTransform="matrix(-0.00759519,-190.86558,190.86558,-0.00759519,151.81279,194.28732)"
       x2="1" />
    <linearGradient
       inkscape:collect="always"
       xlink:href="#_Linear7"
       id="linearGradient513"
       gradientUnits="userSpaceOnUse"
       gradientTransform="matrix(92.774804,0,0,92.774804,105.76878,211.59059)"
       x2="1" />
    <linearGradient
       inkscape:collect="always"
       xlink:href="#_Linear8"
       id="linearGradient515"
       gradientUnits="userSpaceOnUse"
       gradientTransform="matrix(0,-17.191283,17.191283,0,219.36111,218.53091)"
       x2="1" />
  </defs>
  <metadata
     id="metadata4">
    <rdf:RDF>
      <cc:Work
         rdf:about="">
        <dc:format>image/svg+xml</dc:format>
        <dc:type
           rdf:resource="http://purl.org/dc/dcmitype/StillImage" />
        <dc:creator>
          <cc:Agent>
            <dc:title>Sam Hewitt</dc:title>
          </cc:Agent>
        </dc:creator>
        <dc:source />
        <cc:license
           rdf:resource="http://creativecommons.org/licenses/by-sa/4.0/" />
        <dc:title>Suru Icon Theme Template</dc:title>
        <dc:subject>
          <rdf:Bag />
        </dc:subject>
        <dc:date />
        <dc:rights>
          <cc:Agent>
            <dc:title />
          </cc:Agent>
        </dc:rights>
        <dc:publisher>
          <cc:Agent>
            <dc:title />
          </cc:Agent>
        </dc:publisher>
        <dc:identifier />
        <dc:relation />
        <dc:language />
        <dc:coverage />
        <dc:description />
        <dc:contributor>
          <cc:Agent>
            <dc:title />
          </cc:Agent>
        </dc:contributor>
      </cc:Work>
      <cc:Work
         rdf:about="">
        <dc:format>image/svg+xml</dc:format>
        <dc:type
           rdf:resource="http://purl.org/dc/dcmitype/StillImage" />
      </cc:Work>
      <cc:License
         rdf:about="http://creativecommons.org/licenses/by-sa/4.0/">
        <cc:permits
           rdf:resource="http://creativecommons.org/ns#Reproduction" />
        <cc:permits
           rdf:resource="http://creativecommons.org/ns#Distribution" />
        <cc:requires
           rdf:resource="http://creativecommons.org/ns#Notice" />
        <cc:requires
           rdf:resource="http://creativecommons.org/ns#Attribution" />
        <cc:permits
           rdf:resource="http://creativecommons.org/ns#DerivativeWorks" />
        <cc:requires
           rdf:resource="http://creativecommons.org/ns#ShareAlike" />
      </cc:License>
    </rdf:RDF>
  </metadata>
  <g
     style="display:inline"
     inkscape:groupmode="layer"
     inkscape:label="Icon"
     id="layer1">
    <g
       style="display:none"
       inkscape:label="Baseplate"
       id="layer7"
       inkscape:groupmode="layer"
       sodipodi:insensitive="true">
      <text
         y="-8.2548828"
         xml:space="preserve"
         x="19.006836"
         style="font-style:normal;font-variant:normal;font-weight:normal;font-stretch:normal;line-height:0%;font-family:'DejaVu Sans';-inkscape-font-specification:'DejaVu Sans';display:inline;fill:#000000;fill-opacity:1;stroke:none;enable-background:new"
         inkscape:label="context"
         id="context"><tspan
           style="font-style:normal;font-variant:normal;font-weight:normal;font-stretch:normal;font-size:18px;line-height:1.25;font-family:'DejaVu Sans';-inkscape-font-specification:'DejaVu Sans'"
           y="-8.2548828"
           x="19.006836"
           sodipodi:role="line"
           id="tspan1445">devices</tspan></text>
      <text
         y="-8.2548828"
         xml:space="preserve"
         x="146.48828"
         style="font-style:normal;font-variant:normal;font-weight:bold;font-stretch:normal;line-height:0%;font-family:'DejaVu Sans';-inkscape-font-specification:'DejaVu Sans Bold';text-align:start;writing-mode:lr-tb;text-anchor:start;display:inline;fill:#000000;fill-opacity:1;stroke:none;enable-background:new"
         inkscape:label="icon-name"
         id="icon-name"><tspan
           style="font-style:normal;font-variant:normal;font-weight:bold;font-stretch:normal;font-size:18px;line-height:1.25;font-family:'DejaVu Sans';-inkscape-font-specification:'DejaVu Sans Bold'"
           y="-8.2548828"
           x="146.48828"
           sodipodi:role="line"
           id="tspan924">drive-multidisk</tspan></text>
      <rect
         style="display:inline;overflow:visible;visibility:visible;fill:#cdcdcd;fill-opacity:1;fill-rule:nonzero;stroke:none;stroke-width:2;marker:none;enable-background:accumulate"
         id="rect16x16"
         width="16"
         height="16"
         x="320"
         y="236"
         inkscape:label="16x16" />
      <rect
         style="display:inline;overflow:visible;visibility:visible;fill:#cdcdcd;fill-opacity:1;fill-rule:nonzero;stroke:none;stroke-width:2;marker:none;enable-background:accumulate"
         id="rect24x24"
         width="24"
         height="24"
         x="320"
         y="188"
         inkscape:label="24x24" />
      <rect
         style="display:inline;overflow:visible;visibility:visible;fill:#cdcdcd;fill-opacity:1;fill-rule:nonzero;stroke:none;stroke-width:2;marker:none;enable-background:accumulate"
         id="rect32x32"
         width="32"
         height="32"
         x="320"
         y="132"
         inkscape:label="32x32" />
      <rect
         inkscape:label="48x48"
         y="60"
         x="320"
         height="48"
         width="48"
         id="rect48x48"
         style="display:inline;overflow:visible;visibility:visible;fill:#cdcdcd;fill-opacity:1;fill-rule:nonzero;stroke:none;stroke-width:2;marker:none;enable-background:accumulate" />
      <rect
         style="display:inline;overflow:visible;visibility:visible;fill:#cdcdcd;fill-opacity:1;fill-rule:nonzero;stroke:none;stroke-width:2;marker:none;enable-background:accumulate"
         id="rect256x256"
         width="256"
         height="256"
         x="24"
         y="28"
         inkscape:label="256x256" />
    </g>
    <g
       inkscape:groupmode="layer"
       id="layer2"
       inkscape:label="Background"
       style="display:inline">
      <path
         d="M 242.58338,267.73396 H 61.795982 c -9.410109,0 -17.869353,-5.8185 -18.450711,-15.20398 -0.468042,-7.61677 -2.960982,-33.83205 -2.965909,-33.88624 H 264 c -0.005,0.0542 -2.49786,26.26947 -2.9659,33.88624 -0.58136,9.38548 -9.04061,15.20398 -18.45072,15.20398 z"
         style="clip-rule:evenodd;fill:url(#linearGradient501);fill-rule:nonzero;stroke-width:4.92676;stroke-linejoin:round;stroke-miterlimit:2"
         id="path252" />
      <path
         d="m 242.15476,74.836582 c -0.6799,-9.025821 -7.53794,-15.967624 -15.78041,-15.967624 H 78.005017 c -8.242467,0 -15.100515,6.941803 -15.780407,15.967624 -2.635816,35.039108 -18.687195,103.870848 -21.786126,141.393038 -0.399068,4.84793 1.246469,9.64167 4.537544,13.2185 3.296002,3.58175 7.937008,5.6165 12.799719,5.6165 H 246.60362 c 4.86271,0 9.50372,-2.03475 12.79972,-5.6165 3.29107,-3.57683 4.93661,-8.37057 4.53754,-13.2185 -3.09893,-37.52219 -19.15031,-106.35393 -21.78612,-141.393038 z"
         style="clip-rule:evenodd;fill:url(#linearGradient503);fill-rule:evenodd;stroke-width:4.92676;stroke-linejoin:round;stroke-miterlimit:2"
         id="path254" />
      <path
         d="m 242.20895,226.9601 -180.792329,-0.005 c -9.410109,0 -17.869353,-5.8185 -18.45071,-15.20398 -0.468042,-7.61677 -2.960982,-33.83205 -2.965909,-33.88624 H 263.62557 c -0.01,0.0542 -2.50279,26.26947 -2.96591,33.88624 -0.58628,9.38548 -9.04553,15.20398 -18.45071,15.20398 z"
         style="clip-rule:evenodd;fill:url(#linearGradient509);fill-rule:nonzero;stroke-width:4.92676;stroke-linejoin:round;stroke-miterlimit:2"
         id="path262" />
      <path
         d="M 241.5192,60.23367 C 239.74065,51.360578 234.03053,44.266046 225.84719,44.266046 H 78.542034 c -8.183346,0 -13.804778,7.109312 -15.667092,15.967624 -7.380285,35.039107 -16.046453,78.06449 -22.815819,115.2221 -0.399067,4.84793 1.24647,9.64167 4.537545,13.21849 3.296001,3.57683 7.937008,5.61651 12.799718,5.61651 H 246.22426 c 4.86271,0 9.50372,-2.03475 12.79972,-5.61651 3.29107,-3.57682 4.93661,-8.37056 4.53754,-13.21849 C 256.4325,137.93358 248.52998,95.272777 241.5192,60.23367 Z"
         style="clip-rule:evenodd;fill:url(#linearGradient511);fill-rule:evenodd;stroke-width:4.92676;stroke-linejoin:round;stroke-miterlimit:2"
         id="path264" />
      <path
         d="m 362.60194,106.94536 h -37.12598 c -1.93243,0 -3.6696,-1.19487 -3.78899,-3.12224 -0.0961,-1.56416 -0.60805,-6.947653 -0.60907,-6.958783 H 367 c -10e-4,0.01113 -0.51296,5.394623 -0.60907,6.958783 -0.11939,1.92737 -1.85655,3.12224 -3.78899,3.12224 z"
         style="clip-rule:evenodd;fill:url(#linearGradient354);fill-rule:nonzero;stroke-width:1.01174;stroke-linejoin:round;stroke-miterlimit:2"
         id="path330" />
      <path
         d="m 362.51392,67.332513 c -0.13962,-1.853517 -1.54797,-3.279066 -3.24062,-3.279066 h -30.4687 c -1.69265,0 -3.101,1.425549 -3.24062,3.279066 -0.54128,7.19553 -3.83755,21.330619 -4.47393,29.036069 -0.082,0.995557 0.25597,1.979985 0.93181,2.714512 0.67686,0.735539 1.62992,1.153386 2.62852,1.153386 h 38.77715 c 0.99859,0 1.95165,-0.417847 2.62851,-1.153386 0.67585,-0.734527 1.01377,-1.718955 0.93182,-2.714512 -0.63639,-7.70545 -3.93266,-21.840539 -4.47394,-29.036069 z"
         style="clip-rule:evenodd;fill:url(#linearGradient356);fill-rule:evenodd;stroke-width:1.01174;stroke-linejoin:round;stroke-miterlimit:2"
         id="path332" />
      <path
         d="m 362.52505,98.572163 -37.12699,-0.001 c -1.93244,0 -3.6696,-1.194871 -3.78899,-3.122245 C 321.51297,93.88476 321.00101,88.501265 321,88.490136 h 45.92311 c -0.002,0.01113 -0.51397,5.394624 -0.60907,6.958782 -0.1204,1.927374 -1.85757,3.122245 -3.78899,3.122245 z"
         style="clip-rule:evenodd;fill:url(#linearGradient362);fill-rule:nonzero;stroke-width:1.01174;stroke-linejoin:round;stroke-miterlimit:2"
         id="path340" />
      <path
         d="m 362.38341,64.3337 c -0.36524,-1.822152 -1.53786,-3.279065 -3.21837,-3.279065 h -30.25016 c -1.68051,0 -2.83491,1.459948 -3.21735,3.279065 -1.51559,7.195531 -3.29525,16.0311 -4.68539,23.661681 -0.082,0.995557 0.25597,1.979985 0.93182,2.714512 0.67686,0.734526 1.62992,1.153389 2.62851,1.153389 h 38.77715 c 0.99859,0 1.95166,-0.417851 2.62852,-1.153389 0.67584,-0.734527 1.01376,-1.718955 0.93181,-2.714512 -1.46399,-7.70545 -3.08683,-16.46615 -4.52654,-23.661681 z"
         style="clip-rule:evenodd;fill:url(#linearGradient364);fill-rule:evenodd;stroke-width:1.01174;stroke-linejoin:round;stroke-miterlimit:2"
         id="path342" />
      <path
         d="m 348.1317,162.96437 h -24.2126 c -1.26028,0 -2.39322,-0.77926 -2.47108,-2.03625 -0.0627,-1.0201 -0.39656,-4.53108 -0.39722,-4.53833 H 351 c -6.6e-4,0.007 -0.33454,3.51823 -0.39722,4.53833 -0.0779,1.25699 -1.2108,2.03625 -2.47108,2.03625 z"
         style="clip-rule:evenodd;fill:url(#linearGradient394);fill-rule:nonzero;stroke-width:0.659834;stroke-linejoin:round;stroke-miterlimit:2"
         id="path370" />
      <path
         d="m 348.07429,137.1299 c -0.091,-1.20882 -1.00954,-2.13852 -2.11344,-2.13852 h -19.8709 c -1.1039,0 -2.02239,0.9297 -2.11344,2.13852 -0.35302,4.69274 -2.50275,13.91127 -2.91779,18.93657 -0.0534,0.64927 0.16694,1.29129 0.60771,1.77033 0.44143,0.4797 1.06299,0.75221 1.71425,0.75221 h 25.28944 c 0.65126,0 1.27282,-0.27251 1.71425,-0.75221 0.44077,-0.47904 0.66115,-1.12106 0.60771,-1.77033 -0.41504,-5.0253 -2.56478,-14.24383 -2.91779,-18.93657 z"
         style="clip-rule:evenodd;fill:url(#linearGradient396);fill-rule:evenodd;stroke-width:0.659834;stroke-linejoin:round;stroke-miterlimit:2"
         id="path372" />
      <path
         d="m 348.08155,157.50359 -24.21326,-6.6e-4 c -1.26028,0 -2.39321,-0.77927 -2.47107,-2.03625 -0.0627,-1.0201 -0.39656,-4.53108 -0.39722,-4.53834 h 29.94985 c -0.001,0.007 -0.3352,3.51824 -0.39722,4.53834 -0.0785,1.25698 -1.21146,2.03625 -2.47108,2.03625 z"
         style="clip-rule:evenodd;fill:url(#linearGradient402);fill-rule:nonzero;stroke-width:0.659834;stroke-linejoin:round;stroke-miterlimit:2"
         id="path380" />
      <path
         d="m 347.98917,135.17415 c -0.2382,-1.18836 -1.00294,-2.13852 -2.09893,-2.13852 h -19.72837 c -1.09598,0 -1.84885,0.95214 -2.09827,2.13852 -0.98843,4.69274 -2.14908,10.45507 -3.05569,15.43153 -0.0534,0.64928 0.16694,1.2913 0.60771,1.77034 0.44143,0.47904 1.06299,0.75221 1.71425,0.75221 h 25.28945 c 0.65125,0 1.27281,-0.27251 1.71424,-0.75221 0.44077,-0.47904 0.66116,-1.12106 0.60771,-1.77034 -0.95478,-5.02529 -2.01315,-10.73879 -2.9521,-15.43153 z"
         style="clip-rule:evenodd;fill:url(#linearGradient404);fill-rule:evenodd;stroke-width:0.659834;stroke-linejoin:round;stroke-miterlimit:2"
         id="path382" />
      <path
         d="m 341.30098,211.47268 h -18.563 c -0.96621,0 -1.8348,-0.59743 -1.89449,-1.56112 -0.0481,-0.78208 -0.30403,-3.47383 -0.30453,-3.47939 H 343.5 c -5e-4,0.006 -0.25647,2.69731 -0.30453,3.47939 -0.0597,0.96369 -0.92828,1.56112 -1.89449,1.56112 z"
         style="clip-rule:evenodd;fill:url(#linearGradient434);fill-rule:nonzero;stroke-width:0.505873;stroke-linejoin:round;stroke-miterlimit:2"
         id="path410" />
      <path
         d="m 341.25696,191.66626 c -0.0698,-0.92676 -0.77398,-1.63954 -1.62031,-1.63954 H 324.4023 c -0.84632,0 -1.5505,0.71278 -1.62031,1.63954 -0.27064,3.59776 -1.91877,10.66531 -2.23696,14.51803 -0.041,0.49778 0.12798,0.98999 0.4659,1.35726 0.33843,0.36777 0.81496,0.57669 1.31426,0.57669 h 19.38858 c 0.49929,0 0.97583,-0.20892 1.31425,-0.57669 0.33793,-0.36727 0.50689,-0.85948 0.46591,-1.35726 -0.31819,-3.85272 -1.96632,-10.92027 -2.23697,-14.51803 z"
         style="clip-rule:evenodd;fill:url(#linearGradient436);fill-rule:evenodd;stroke-width:0.505873;stroke-linejoin:round;stroke-miterlimit:2"
         id="path412" />
      <path
         d="m 341.26253,207.28608 -18.5635,-5e-4 c -0.96622,0 -1.8348,-0.59744 -1.89449,-1.56113 -0.0481,-0.78207 -0.30403,-3.47382 -0.30454,-3.47939 h 22.96156 c -0.001,0.006 -0.25699,2.69732 -0.30454,3.47939 -0.0602,0.96369 -0.92878,1.56113 -1.89449,1.56113 z"
         style="clip-rule:evenodd;fill:url(#linearGradient442);fill-rule:nonzero;stroke-width:0.505873;stroke-linejoin:round;stroke-miterlimit:2"
         id="path420" />
      <path
         d="m 341.19171,190.16685 c -0.18262,-0.91108 -0.76893,-1.63953 -1.60918,-1.63953 h -15.12509 c -0.84025,0 -1.41745,0.72997 -1.60867,1.63953 -0.7578,3.59777 -1.64763,8.01555 -2.3427,11.83084 -0.041,0.49778 0.12799,0.98999 0.46591,1.35726 0.33843,0.36726 0.81496,0.57669 1.31426,0.57669 h 19.38857 c 0.4993,0 0.97583,-0.20892 1.31426,-0.57669 0.33792,-0.36727 0.50689,-0.85948 0.46591,-1.35726 -0.732,-3.85272 -1.54342,-8.23307 -2.26327,-11.83084 z"
         style="clip-rule:evenodd;fill:url(#linearGradient444);fill-rule:evenodd;stroke-width:0.505873;stroke-linejoin:round;stroke-miterlimit:2"
         id="path422" />
      <path
         d="m 334.06585,251.48218 h -12.1063 c -0.63014,0 -1.1966,-0.38963 -1.23553,-1.01812 -0.0313,-0.51005 -0.19828,-2.26554 -0.19861,-2.26917 H 335.5 c -3.3e-4,0.004 -0.16727,1.75912 -0.19861,2.26917 -0.0389,0.62849 -0.60539,1.01812 -1.23554,1.01812 z"
         style="clip-rule:evenodd;fill:url(#linearGradient474);fill-rule:nonzero;stroke-width:0.329917;stroke-linejoin:round;stroke-miterlimit:2"
         id="path450" />
      <path
         d="m 334.03715,238.56495 c -0.0455,-0.60441 -0.50477,-1.06926 -1.05672,-1.06926 h -9.93545 c -0.55195,0 -1.01119,0.46485 -1.05672,1.06926 -0.17651,2.34637 -1.25138,6.95564 -1.45889,9.46828 -0.0267,0.32464 0.0835,0.64565 0.30385,0.88517 0.22071,0.23985 0.53149,0.3761 0.85712,0.3761 h 12.64473 c 0.32562,0 0.63641,-0.13625 0.85712,-0.3761 0.22038,-0.23952 0.33058,-0.56053 0.30385,-0.88517 -0.20751,-2.51264 -1.28238,-7.12191 -1.45889,-9.46828 z"
         style="clip-rule:evenodd;fill:url(#linearGradient476);fill-rule:evenodd;stroke-width:0.329917;stroke-linejoin:round;stroke-miterlimit:2"
         id="path452" />
      <path
         d="m 334.04078,248.75179 -12.10663,-3.3e-4 c -0.63014,0 -1.19661,-0.38963 -1.23554,-1.01812 -0.0313,-0.51005 -0.19828,-2.26554 -0.19861,-2.26917 h 14.97493 c -6.6e-4,0.004 -0.1676,1.75912 -0.19861,2.26917 -0.0393,0.62849 -0.60573,1.01812 -1.23554,1.01812 z"
         style="clip-rule:evenodd;fill:url(#linearGradient482);fill-rule:nonzero;stroke-width:0.329917;stroke-linejoin:round;stroke-miterlimit:2"
         id="path460" />
      <path
         d="m 333.99459,237.58708 c -0.1191,-0.59419 -0.50147,-1.06927 -1.04946,-1.06927 h -9.86419 c -0.54799,0 -0.92442,0.47607 -1.04913,1.06927 -0.49422,2.34636 -1.07454,5.22753 -1.52785,7.71576 -0.0267,0.32464 0.0835,0.64565 0.30386,0.88517 0.22071,0.23952 0.53149,0.3761 0.85712,0.3761 h 12.64472 c 0.32563,0 0.63641,-0.13625 0.85713,-0.3761 0.22038,-0.23952 0.33057,-0.56053 0.30385,-0.88517 -0.47739,-2.51265 -1.00658,-5.3694 -1.47605,-7.71576 z"
         style="clip-rule:evenodd;fill:url(#linearGradient484);fill-rule:evenodd;stroke-width:0.329917;stroke-linejoin:round;stroke-miterlimit:2"
         id="path462" />
    </g>
    <g
       inkscape:groupmode="layer"
       id="layer6"
       inkscape:label="Pictogram"
       style="display:inline">
      <path
         d="m 198.95694,252.83051 c 0,-0.81784 -0.32517,-1.60612 -0.90653,-2.18748 -0.58135,-0.57643 -1.36963,-0.90652 -2.18748,-0.90652 h -86.65675 c -0.82277,0 -1.61105,0.33009 -2.18748,0.90652 -0.58136,0.58136 -0.90653,1.36964 -0.90653,2.18748 v 0.0394 c 0,0.82277 0.32517,1.61105 0.90653,2.18748 0.57643,0.58136 1.36471,0.90652 2.18748,0.90652 h 86.65675 c 0.81785,0 1.60613,-0.32516 2.18748,-0.90652 0.58136,-0.57643 0.90653,-1.36471 0.90653,-2.18748 z"
         style="display:inline;enable-background:new;clip-rule:evenodd;fill:url(#linearGradient505);fill-rule:evenodd;stroke-width:4.92676;stroke-linejoin:round;stroke-miterlimit:2"
         id="path256" />
      <circle
         cx="219.04823"
         cy="251.78114"
         r="8.5971937"
         style="display:inline;enable-background:new;clip-rule:evenodd;fill:url(#linearGradient507);fill-rule:evenodd;stroke-width:4.92676;stroke-linejoin:round;stroke-miterlimit:2"
         id="circle258" />
      <path
         d="m 222.87635,250.08631 c -0.30053,-0.60107 -0.72423,-1.1036 -1.26618,-1.50759 -0.15765,-0.12317 -0.33502,-0.16751 -0.53209,-0.14288 -0.19707,0.0246 -0.35472,0.11825 -0.47296,0.28083 -0.11825,0.15766 -0.16259,0.33009 -0.13303,0.52716 0.0246,0.19707 0.11824,0.35473 0.2759,0.47297 0.36458,0.2759 0.64541,0.61585 0.8474,1.01491 0.19707,0.39907 0.30054,0.82277 0.30054,1.27603 0,0.38922 -0.0788,0.75873 -0.22664,1.10853 -0.15272,0.35472 -0.35472,0.66018 -0.61584,0.91637 -0.25619,0.25619 -0.56165,0.46312 -0.91145,0.61092 -0.35473,0.15273 -0.72423,0.22663 -1.11345,0.22663 -0.38921,0 -0.75872,-0.0739 -1.10852,-0.22663 -0.35472,-0.1478 -0.66018,-0.35473 -0.91638,-0.61092 -0.25619,-0.25619 -0.46311,-0.56165 -0.61091,-0.91637 -0.15273,-0.3498 -0.22663,-0.71931 -0.22663,-1.10853 0,-0.45326 0.0985,-0.87696 0.2956,-1.27603 0.202,-0.39906 0.48282,-0.73901 0.8474,-1.01491 0.15766,-0.11824 0.25127,-0.2759 0.28083,-0.47297 0.0246,-0.19214 -0.0197,-0.3695 -0.13795,-0.52716 -0.11824,-0.16258 -0.27097,-0.25619 -0.46804,-0.28083 -0.19707,-0.0246 -0.37444,0.0197 -0.53702,0.14288 -0.54194,0.40399 -0.96564,0.90652 -1.26618,1.50759 -0.30053,0.60106 -0.44833,1.24154 -0.44833,1.92143 0,0.58136 0.11331,1.13809 0.33995,1.66525 0.22663,0.53209 0.53209,0.99028 0.91637,1.37456 0.38429,0.38429 0.84248,0.68975 1.37457,0.91638 0.52716,0.22663 1.08388,0.33995 1.66524,0.33995 0.58136,0 1.13808,-0.11332 1.67017,-0.33995 0.52717,-0.22663 0.98536,-0.53209 1.36964,-0.91638 0.38429,-0.38428 0.68975,-0.84247 0.91638,-1.37456 0.22663,-0.52716 0.33995,-1.08389 0.33995,-1.66525 0,-0.67989 -0.14781,-1.32037 -0.44834,-1.92143 z m -3.8478,1.92143 c 0.19215,0 0.36458,-0.0739 0.50253,-0.21185 0.14288,-0.14287 0.21678,-0.31038 0.21678,-0.50745 v -3.58176 c 0,-0.19214 -0.0739,-0.35965 -0.21678,-0.50252 -0.13795,-0.14288 -0.31038,-0.21186 -0.50253,-0.21186 -0.19214,0 -0.35965,0.069 -0.50253,0.21186 -0.14287,0.14287 -0.21185,0.31038 -0.21185,0.50252 v 3.58176 c 0,0.19707 0.069,0.36458 0.21185,0.50745 0.14288,0.13795 0.31039,0.21185 0.50253,0.21185 z"
         style="display:inline;enable-background:new;clip-rule:evenodd;fill:#e3e8ea;fill-rule:nonzero;stroke-width:4.92676;stroke-linejoin:round;stroke-miterlimit:2"
         id="path260" />
      <path
         d="m 198.5825,212.05666 c 0,-0.81784 -0.32516,-1.60612 -0.90652,-2.18748 -0.58136,-0.57643 -1.36964,-0.90652 -2.18748,-0.90652 h -86.65675 c -0.82277,0 -1.61106,0.33009 -2.18749,0.90652 -0.58135,0.58136 -0.90652,1.36964 -0.90652,2.18748 v 0.0394 c 0,0.82277 0.32517,1.61105 0.90652,2.18748 0.57643,0.58136 1.36472,0.90653 2.18749,0.90653 h 86.65675 c 0.81784,0 1.60612,-0.32517 2.18748,-0.90653 0.58136,-0.57643 0.90652,-1.36471 0.90652,-2.18748 z"
         style="display:inline;enable-background:new;clip-rule:evenodd;fill:url(#linearGradient513);fill-rule:evenodd;stroke-width:4.92676;stroke-linejoin:round;stroke-miterlimit:2"
         id="path266" />
      <circle
         cx="218.67378"
         cy="211.00728"
         r="8.5971937"
         style="display:inline;enable-background:new;clip-rule:evenodd;fill:url(#linearGradient515);fill-rule:evenodd;stroke-width:4.92676;stroke-linejoin:round;stroke-miterlimit:2"
         id="circle268" />
      <path
         d="m 222.50192,209.31246 c -0.30546,-0.606 -0.72916,-1.1036 -1.27111,-1.50759 -0.15273,-0.1281 -0.33009,-0.17244 -0.52716,-0.14781 -0.19707,0.0246 -0.35473,0.11825 -0.47297,0.28083 -0.11824,0.15766 -0.16258,0.33009 -0.13302,0.52716 0.0246,0.19707 0.11824,0.35473 0.2759,0.47297 0.36458,0.2759 0.6454,0.61585 0.8474,1.01491 0.19707,0.39907 0.30053,0.82277 0.30053,1.27603 0,0.38922 -0.0788,0.75873 -0.22663,1.10853 -0.15273,0.35472 -0.35473,0.66018 -0.61584,0.91637 -0.25619,0.25619 -0.56165,0.46312 -0.91145,0.61092 -0.35473,0.15273 -0.72424,0.22663 -1.11345,0.22663 -0.38922,0 -0.75872,-0.0739 -1.10852,-0.22663 -0.35473,-0.1478 -0.66019,-0.35473 -0.91638,-0.61092 -0.25619,-0.25619 -0.46311,-0.56165 -0.61092,-0.91637 -0.15273,-0.3498 -0.22663,-0.71931 -0.22663,-1.10853 0,-0.45326 0.0985,-0.87696 0.29561,-1.27603 0.20199,-0.39906 0.48282,-0.73901 0.8474,-1.01491 0.15766,-0.11824 0.25126,-0.2759 0.28083,-0.47297 0.0246,-0.19214 -0.0197,-0.3695 -0.13795,-0.52716 -0.11825,-0.16258 -0.27098,-0.25619 -0.46805,-0.28083 -0.19707,-0.0246 -0.37443,0.0197 -0.53701,0.14288 -0.54195,0.40399 -0.96565,0.90652 -1.26618,1.50759 -0.30053,0.60106 -0.44833,1.24154 -0.44833,1.92143 0,0.58136 0.11331,1.13809 0.33994,1.66525 0.22663,0.53209 0.53209,0.99028 0.91638,1.37456 0.38429,0.38429 0.84247,0.68975 1.37456,0.91638 0.52717,0.22663 1.08389,0.33995 1.66525,0.33995 0.58136,0 1.13808,-0.11332 1.67017,-0.33995 0.52716,-0.22663 0.98535,-0.53209 1.36964,-0.91638 0.38429,-0.38428 0.68974,-0.84247 0.91638,-1.37456 0.22663,-0.52716 0.33994,-1.08389 0.33994,-1.66525 0,-0.67989 -0.1478,-1.32037 -0.44833,-1.92143 z m -3.85273,1.92143 c 0.19707,0 0.36951,-0.0739 0.50253,-0.21185 0.1478,-0.14288 0.21678,-0.31039 0.21678,-0.50746 l 0.005,-3.58175 c 0,-0.19214 -0.0739,-0.35965 -0.21678,-0.50253 -0.13795,-0.14287 -0.31039,-0.21185 -0.50253,-0.21185 -0.19214,0 -0.35965,0.069 -0.50253,0.21185 -0.14288,0.14288 -0.21185,0.31039 -0.21185,0.50253 v 3.58175 c 0,0.19707 0.069,0.36458 0.21185,0.50746 0.14288,0.13795 0.31039,0.21185 0.50253,0.21185 z"
         style="display:inline;enable-background:new;clip-rule:evenodd;fill:#e3e8ea;fill-rule:nonzero;stroke-width:4.92676;stroke-linejoin:round;stroke-miterlimit:2"
         id="path270" />
      <path
         d="m 152.18722,84.192497 c -29.4226,0 -53.593279,13.987067 -53.593279,30.999163 0,17.0121 24.170679,30.99424 53.593279,30.99424 29.41767,0 53.59821,-13.98214 53.59821,-30.99424 0,-17.012096 -24.18054,-30.999163 -53.59821,-30.999163 z m -0.37936,19.889323 c 8.4149,0 15.31729,3.99068 15.31729,8.85831 0,4.86271 -6.90239,8.85339 -15.31729,8.85339 -8.40998,0 -15.30744,-3.99068 -15.30744,-8.85339 0,-4.86763 6.89746,-8.85831 15.30744,-8.85831 z"
         style="display:inline;enable-background:new;clip-rule:evenodd;fill-opacity:0.23;fill-rule:nonzero;stroke-width:4.92676;stroke-linejoin:round;stroke-miterlimit:2"
         id="path272" />
      <path
         d="m 353.64294,103.88484 c 0,-0.16795 -0.0668,-0.32983 -0.18616,-0.44922 -0.11939,-0.11837 -0.28127,-0.18616 -0.44922,-0.18616 h -17.79558 c -0.16896,0 -0.33084,0.0678 -0.44921,0.18616 -0.11939,0.11939 -0.18616,0.28127 -0.18616,0.44922 v 0.008 c 0,0.16896 0.0668,0.33084 0.18616,0.44921 0.11837,0.11939 0.28025,0.18617 0.44921,0.18617 h 17.79558 c 0.16795,0 0.32983,-0.0668 0.44922,-0.18617 0.11939,-0.11837 0.18616,-0.28025 0.18616,-0.44921 z"
         style="display:inline;enable-background:new;clip-rule:evenodd;fill:url(#linearGradient358);fill-rule:evenodd;stroke-width:1.01174;stroke-linejoin:round;stroke-miterlimit:2"
         id="path334" />
      <circle
         cx="357.76883"
         cy="103.66934"
         r="1.7654951"
         style="display:inline;enable-background:new;clip-rule:evenodd;fill:url(#linearGradient360);fill-rule:evenodd;stroke-width:1.01174;stroke-linejoin:round;stroke-miterlimit:2"
         id="circle336" />
      <path
         d="m 358.55496,103.32129 c -0.0617,-0.12343 -0.14872,-0.22663 -0.26002,-0.30959 -0.0324,-0.0253 -0.0688,-0.0344 -0.10926,-0.0293 -0.0405,0.005 -0.0729,0.0243 -0.0971,0.0577 -0.0243,0.0324 -0.0334,0.0678 -0.0273,0.10826 0.005,0.0405 0.0243,0.0728 0.0567,0.0971 0.0749,0.0567 0.13254,0.12647 0.17402,0.20842 0.0405,0.082 0.0617,0.16896 0.0617,0.26204 0,0.0799 -0.0162,0.15581 -0.0465,0.22765 -0.0314,0.0728 -0.0729,0.13557 -0.12647,0.18818 -0.0526,0.0526 -0.11534,0.0951 -0.18718,0.12546 -0.0728,0.0314 -0.14872,0.0465 -0.22865,0.0465 -0.0799,0 -0.15581,-0.0152 -0.22764,-0.0465 -0.0729,-0.0303 -0.13558,-0.0729 -0.18819,-0.12546 -0.0526,-0.0526 -0.0951,-0.11534 -0.12545,-0.18818 -0.0314,-0.0718 -0.0465,-0.14772 -0.0465,-0.22765 0,-0.0931 0.0202,-0.18009 0.0607,-0.26204 0.0415,-0.0819 0.0992,-0.15176 0.17402,-0.20842 0.0324,-0.0243 0.0516,-0.0567 0.0577,-0.0971 0.005,-0.0395 -0.004,-0.0759 -0.0283,-0.10826 -0.0243,-0.0334 -0.0556,-0.0526 -0.0961,-0.0577 -0.0405,-0.005 -0.0769,0.004 -0.11028,0.0293 -0.1113,0.083 -0.19831,0.18616 -0.26002,0.30959 -0.0617,0.12344 -0.0921,0.25496 -0.0921,0.39458 0,0.11939 0.0233,0.23372 0.0698,0.34197 0.0465,0.10927 0.10927,0.20337 0.18818,0.28228 0.0789,0.0789 0.17301,0.14165 0.28228,0.18819 0.10826,0.0465 0.22258,0.0698 0.34197,0.0698 0.11939,0 0.23371,-0.0233 0.34298,-0.0698 0.10826,-0.0465 0.20235,-0.10927 0.28127,-0.18819 0.0789,-0.0789 0.14164,-0.17301 0.18818,-0.28228 0.0465,-0.10825 0.0698,-0.22258 0.0698,-0.34197 0,-0.13962 -0.0303,-0.27114 -0.0921,-0.39458 z m -0.79017,0.39458 c 0.0395,0 0.0749,-0.0152 0.1032,-0.0435 0.0293,-0.0293 0.0445,-0.0637 0.0445,-0.10421 v -0.73554 c 0,-0.0395 -0.0152,-0.0739 -0.0445,-0.1032 -0.0283,-0.0293 -0.0637,-0.0435 -0.1032,-0.0435 -0.0395,0 -0.0739,0.0142 -0.1032,0.0435 -0.0293,0.0293 -0.0435,0.0637 -0.0435,0.1032 v 0.73554 c 0,0.0405 0.0142,0.0749 0.0435,0.10421 0.0293,0.0283 0.0637,0.0435 0.1032,0.0435 z"
         style="display:inline;enable-background:new;clip-rule:evenodd;fill:#e3e8ea;fill-rule:nonzero;stroke-width:1.01174;stroke-linejoin:round;stroke-miterlimit:2"
         id="path338" />
      <path
         d="m 353.56605,95.511634 c 0,-0.167949 -0.0668,-0.329829 -0.18616,-0.449214 -0.11939,-0.118375 -0.28127,-0.186162 -0.44922,-0.186162 h -17.79558 c -0.16896,0 -0.33084,0.06779 -0.44922,0.186162 -0.11938,0.119385 -0.18616,0.281265 -0.18616,0.449214 v 0.0081 c 0,0.168962 0.0668,0.330841 0.18616,0.449215 0.11838,0.119386 0.28026,0.186161 0.44922,0.186161 h 17.79558 c 0.16795,0 0.32983,-0.06677 0.44922,-0.186161 0.11938,-0.118374 0.18616,-0.280253 0.18616,-0.449215 z"
         style="display:inline;enable-background:new;clip-rule:evenodd;fill:url(#linearGradient366);fill-rule:evenodd;stroke-width:1.01174;stroke-linejoin:round;stroke-miterlimit:2"
         id="path344" />
      <circle
         cx="357.69193"
         cy="95.296135"
         r="1.7654951"
         style="display:inline;enable-background:new;clip-rule:evenodd;fill:url(#linearGradient368);fill-rule:evenodd;stroke-width:1.01174;stroke-linejoin:round;stroke-miterlimit:2"
         id="circle346" />
      <path
         d="m 358.47807,94.948092 c -0.0627,-0.124444 -0.14974,-0.226631 -0.26103,-0.309594 -0.0314,-0.0263 -0.0678,-0.03541 -0.10826,-0.03035 -0.0405,0.0051 -0.0728,0.02428 -0.0971,0.05767 -0.0243,0.03238 -0.0334,0.06779 -0.0273,0.108257 0.005,0.04047 0.0243,0.07285 0.0567,0.09713 0.0749,0.05666 0.13253,0.126468 0.17402,0.208419 0.0405,0.08195 0.0617,0.168962 0.0617,0.262042 0,0.07993 -0.0162,0.155809 -0.0465,0.227643 -0.0314,0.07285 -0.0728,0.135574 -0.12647,0.188184 -0.0526,0.05261 -0.11533,0.0951 -0.18717,0.125457 -0.0728,0.03136 -0.14872,0.04654 -0.22865,0.04654 -0.0799,0 -0.15581,-0.01518 -0.22765,-0.04654 -0.0728,-0.03035 -0.13557,-0.07285 -0.18818,-0.125457 -0.0526,-0.05261 -0.0951,-0.115339 -0.12546,-0.188184 -0.0314,-0.07183 -0.0465,-0.147715 -0.0465,-0.227643 0,-0.09308 0.0202,-0.18009 0.0607,-0.262042 0.0415,-0.08195 0.0992,-0.151762 0.17402,-0.208419 0.0324,-0.02428 0.0516,-0.05666 0.0577,-0.09713 0.005,-0.03946 -0.004,-0.07588 -0.0283,-0.108257 -0.0243,-0.03339 -0.0557,-0.05261 -0.0961,-0.05767 -0.0405,-0.0051 -0.0769,0.004 -0.11028,0.02934 -0.11129,0.08296 -0.1983,0.186161 -0.26002,0.309594 -0.0617,0.123432 -0.0921,0.254959 -0.0921,0.39458 0,0.119386 0.0233,0.233713 0.0698,0.34197 0.0465,0.109268 0.10926,0.203361 0.18818,0.282277 0.0789,0.07892 0.17301,0.141644 0.28228,0.188184 0.10825,0.04654 0.22258,0.06981 0.34197,0.06981 0.11938,0 0.23371,-0.02327 0.34298,-0.06981 0.10826,-0.04654 0.20235,-0.109268 0.28126,-0.188184 0.0789,-0.07892 0.14165,-0.173009 0.18819,-0.282277 0.0465,-0.108257 0.0698,-0.222584 0.0698,-0.34197 0,-0.139621 -0.0303,-0.271148 -0.0921,-0.39458 z m -0.79118,0.394581 c 0.0405,0 0.0759,-0.01518 0.10319,-0.04351 0.0304,-0.02934 0.0445,-0.06374 0.0445,-0.10421 l 10e-4,-0.735539 c 0,-0.03946 -0.0152,-0.07386 -0.0445,-0.103197 -0.0283,-0.02934 -0.0637,-0.04351 -0.1032,-0.04351 -0.0395,0 -0.0739,0.01417 -0.1032,0.04351 -0.0293,0.02934 -0.0435,0.06374 -0.0435,0.103197 v 0.735539 c 0,0.04047 0.0142,0.07487 0.0435,0.10421 0.0293,0.02833 0.0637,0.04351 0.1032,0.04351 z"
         style="display:inline;enable-background:new;clip-rule:evenodd;fill:#e3e8ea;fill-rule:nonzero;stroke-width:1.01174;stroke-linejoin:round;stroke-miterlimit:2"
         id="path348" />
      <path
         d="m 344.03845,69.253816 c -6.04215,0 -11.00577,2.872344 -11.00577,6.3659 0,3.493555 4.96362,6.364888 11.00577,6.364888 6.04112,0 11.00677,-2.871333 11.00677,-6.364888 0,-3.493556 -4.96565,-6.3659 -11.00677,-6.3659 z m -0.0779,4.084415 c 1.72806,0 3.14552,0.819513 3.14552,1.819117 0,0.998593 -1.41746,1.818106 -3.14552,1.818106 -1.72705,0 -3.14349,-0.819513 -3.14349,-1.818106 0,-0.999604 1.41644,-1.819117 3.14349,-1.819117 z"
         style="display:inline;enable-background:new;clip-rule:evenodd;fill-opacity:0.23;fill-rule:nonzero;stroke-width:1.01174;stroke-linejoin:round;stroke-miterlimit:2"
         id="path350" />
      <path
         d="m 342.28887,160.96837 c 0,-0.10953 -0.0435,-0.2151 -0.12141,-0.29296 -0.0779,-0.0772 -0.18343,-0.12141 -0.29296,-0.12141 h -11.60582 c -0.11019,0 -0.21577,0.0442 -0.29297,0.12141 -0.0779,0.0779 -0.12141,0.18343 -0.12141,0.29296 v 0.005 c 0,0.11019 0.0435,0.21577 0.12141,0.29297 0.0772,0.0779 0.18278,0.12141 0.29297,0.12141 h 11.60582 c 0.10953,0 0.2151,-0.0435 0.29296,-0.12141 0.0779,-0.0772 0.12141,-0.18278 0.12141,-0.29297 z"
         style="display:inline;enable-background:new;clip-rule:evenodd;fill:url(#linearGradient398);fill-rule:evenodd;stroke-width:0.659834;stroke-linejoin:round;stroke-miterlimit:2"
         id="path374" />
      <circle
         cx="344.97968"
         cy="160.82784"
         r="1.1514099"
         style="display:inline;enable-background:new;clip-rule:evenodd;fill:url(#linearGradient400);fill-rule:evenodd;stroke-width:0.659834;stroke-linejoin:round;stroke-miterlimit:2"
         id="circle376" />
      <path
         d="m 345.49236,160.60084 c -0.0403,-0.0805 -0.097,-0.1478 -0.16957,-0.2019 -0.0211,-0.0165 -0.0449,-0.0224 -0.0713,-0.0191 -0.0264,0.003 -0.0475,0.0158 -0.0633,0.0376 -0.0158,0.0211 -0.0218,0.0442 -0.0178,0.0706 0.003,0.0264 0.0158,0.0475 0.037,0.0633 0.0488,0.037 0.0864,0.0825 0.11349,0.13592 0.0264,0.0535 0.0403,0.1102 0.0403,0.1709 0,0.0521 -0.0106,0.10161 -0.0304,0.14846 -0.0204,0.0475 -0.0475,0.0884 -0.0825,0.12273 -0.0343,0.0343 -0.0752,0.062 -0.12206,0.0818 -0.0475,0.0205 -0.097,0.0303 -0.14913,0.0303 -0.0521,0 -0.10161,-0.01 -0.14846,-0.0303 -0.0475,-0.0198 -0.0884,-0.0475 -0.12273,-0.0818 -0.0343,-0.0343 -0.062,-0.0752 -0.0818,-0.12273 -0.0204,-0.0469 -0.0303,-0.0963 -0.0303,-0.14846 0,-0.0607 0.0132,-0.11745 0.0396,-0.1709 0.027,-0.0534 0.0647,-0.099 0.11349,-0.13592 0.0211,-0.0158 0.0336,-0.0369 0.0376,-0.0633 0.003,-0.0257 -0.003,-0.0495 -0.0185,-0.0706 -0.0158,-0.0218 -0.0363,-0.0343 -0.0627,-0.0376 -0.0264,-0.003 -0.0501,0.003 -0.0719,0.0191 -0.0726,0.0541 -0.12933,0.12141 -0.16958,0.2019 -0.0403,0.0805 -0.06,0.16628 -0.06,0.25734 0,0.0779 0.0152,0.15242 0.0455,0.22302 0.0303,0.0713 0.0713,0.13263 0.12273,0.1841 0.0515,0.0515 0.11283,0.0924 0.18409,0.12273 0.0706,0.0304 0.14516,0.0455 0.22302,0.0455 0.0779,0 0.15242,-0.0152 0.22369,-0.0455 0.0706,-0.0304 0.13196,-0.0713 0.18343,-0.12273 0.0515,-0.0515 0.0924,-0.11283 0.12273,-0.1841 0.0303,-0.0706 0.0455,-0.14516 0.0455,-0.22302 0,-0.0911 -0.0198,-0.17684 -0.06,-0.25734 z m -0.51533,0.25734 c 0.0257,0 0.0488,-0.01 0.0673,-0.0284 0.0191,-0.0191 0.029,-0.0416 0.029,-0.068 v -0.47969 c 0,-0.0257 -0.01,-0.0482 -0.029,-0.0673 -0.0185,-0.0191 -0.0416,-0.0284 -0.0673,-0.0284 -0.0257,0 -0.0482,0.009 -0.0673,0.0284 -0.0191,0.0191 -0.0284,0.0416 -0.0284,0.0673 v 0.47969 c 0,0.0264 0.009,0.0488 0.0284,0.068 0.0191,0.0185 0.0416,0.0284 0.0673,0.0284 z"
         style="display:inline;enable-background:new;clip-rule:evenodd;fill:#e3e8ea;fill-rule:nonzero;stroke-width:0.659834;stroke-linejoin:round;stroke-miterlimit:2"
         id="path378" />
      <path
         d="m 342.23872,155.50759 c 0,-0.10953 -0.0435,-0.21511 -0.12141,-0.29297 -0.0779,-0.0772 -0.18343,-0.12141 -0.29296,-0.12141 h -11.60582 c -0.11019,0 -0.21576,0.0442 -0.29296,0.12141 -0.0779,0.0779 -0.12141,0.18344 -0.12141,0.29297 v 0.005 c 0,0.11019 0.0435,0.21576 0.12141,0.29296 0.0772,0.0779 0.18277,0.12141 0.29296,0.12141 h 11.60582 c 0.10953,0 0.2151,-0.0436 0.29296,-0.12141 0.0779,-0.0772 0.12141,-0.18277 0.12141,-0.29296 z"
         style="display:inline;enable-background:new;clip-rule:evenodd;fill:url(#linearGradient406);fill-rule:evenodd;stroke-width:0.659834;stroke-linejoin:round;stroke-miterlimit:2"
         id="path384" />
      <circle
         cx="344.9295"
         cy="155.36705"
         r="1.1514099"
         style="display:inline;enable-background:new;clip-rule:evenodd;fill:url(#linearGradient408);fill-rule:evenodd;stroke-width:0.659834;stroke-linejoin:round;stroke-miterlimit:2"
         id="circle386" />
      <path
         d="m 345.44222,155.14006 c -0.0409,-0.0812 -0.0977,-0.1478 -0.17024,-0.20191 -0.0205,-0.0172 -0.0442,-0.0231 -0.0706,-0.0198 -0.0264,0.003 -0.0475,0.0158 -0.0633,0.0376 -0.0158,0.0211 -0.0218,0.0442 -0.0178,0.0706 0.003,0.0264 0.0158,0.0475 0.0369,0.0633 0.0488,0.0369 0.0864,0.0825 0.11349,0.13593 0.0264,0.0534 0.0402,0.11019 0.0402,0.1709 0,0.0521 -0.0106,0.10161 -0.0303,0.14846 -0.0205,0.0475 -0.0475,0.0884 -0.0825,0.12273 -0.0343,0.0343 -0.0752,0.062 -0.12207,0.0818 -0.0475,0.0204 -0.097,0.0303 -0.14912,0.0303 -0.0521,0 -0.10162,-0.01 -0.14847,-0.0303 -0.0475,-0.0198 -0.0884,-0.0475 -0.12273,-0.0818 -0.0343,-0.0343 -0.062,-0.0752 -0.0818,-0.12273 -0.0204,-0.0469 -0.0303,-0.0963 -0.0303,-0.14846 0,-0.0607 0.0132,-0.11745 0.0396,-0.1709 0.0271,-0.0534 0.0647,-0.099 0.11349,-0.13593 0.0211,-0.0158 0.0337,-0.0369 0.0376,-0.0633 0.003,-0.0257 -0.003,-0.0495 -0.0185,-0.0706 -0.0158,-0.0218 -0.0363,-0.0343 -0.0627,-0.0376 -0.0264,-0.003 -0.0501,0.003 -0.0719,0.0191 -0.0726,0.0541 -0.12932,0.12141 -0.16957,0.20191 -0.0403,0.0805 -0.06,0.16628 -0.06,0.25734 0,0.0779 0.0152,0.15242 0.0455,0.22302 0.0303,0.0713 0.0713,0.13263 0.12273,0.18409 0.0515,0.0515 0.11283,0.0924 0.18409,0.12273 0.0706,0.0304 0.14517,0.0455 0.22303,0.0455 0.0779,0 0.15242,-0.0152 0.22368,-0.0455 0.0706,-0.0303 0.13197,-0.0713 0.18343,-0.12273 0.0515,-0.0515 0.0924,-0.11283 0.12273,-0.18409 0.0303,-0.0706 0.0455,-0.14516 0.0455,-0.22302 0,-0.0911 -0.0198,-0.17684 -0.06,-0.25734 z m -0.51599,0.25734 c 0.0264,0 0.0495,-0.01 0.0673,-0.0284 0.0198,-0.0191 0.029,-0.0416 0.029,-0.068 l 6.6e-4,-0.4797 c 0,-0.0257 -0.01,-0.0482 -0.029,-0.0673 -0.0185,-0.0191 -0.0416,-0.0284 -0.0673,-0.0284 -0.0257,0 -0.0482,0.009 -0.0673,0.0284 -0.0191,0.0191 -0.0284,0.0416 -0.0284,0.0673 v 0.4797 c 0,0.0264 0.009,0.0488 0.0284,0.068 0.0191,0.0185 0.0416,0.0284 0.0673,0.0284 z"
         style="display:inline;enable-background:new;clip-rule:evenodd;fill:#e3e8ea;fill-rule:nonzero;stroke-width:0.659834;stroke-linejoin:round;stroke-miterlimit:2"
         id="path388" />
      <path
         d="m 336.02507,138.38292 c -3.94053,0 -7.17767,1.87327 -7.17767,4.15168 0,2.2784 3.23714,4.15101 7.17767,4.15101 3.93987,0 7.17833,-1.87261 7.17833,-4.15101 0,-2.27841 -3.23846,-4.15168 -7.17833,-4.15168 z m -0.0508,2.66375 c 1.127,0 2.05142,0.53447 2.05142,1.18638 0,0.65126 -0.92442,1.18572 -2.05142,1.18572 -1.12633,0 -2.0501,-0.53446 -2.0501,-1.18572 0,-0.65191 0.92377,-1.18638 2.0501,-1.18638 z"
         style="display:inline;enable-background:new;clip-rule:evenodd;fill-opacity:0.23;fill-rule:nonzero;stroke-width:0.659834;stroke-linejoin:round;stroke-miterlimit:2"
         id="path390" />
      <path
         d="m 336.82147,209.94242 c 0,-0.084 -0.0334,-0.16492 -0.0931,-0.22461 -0.0597,-0.0592 -0.14063,-0.0931 -0.2246,-0.0931 h -8.8978 c -0.0845,0 -0.16542,0.0339 -0.2246,0.0931 -0.0597,0.0597 -0.0931,0.14063 -0.0931,0.22461 v 0.004 c 0,0.0845 0.0334,0.16542 0.0931,0.2246 0.0592,0.0597 0.14012,0.0931 0.2246,0.0931 h 8.8978 c 0.084,0 0.16491,-0.0334 0.2246,-0.0931 0.0597,-0.0592 0.0931,-0.14012 0.0931,-0.2246 z"
         style="display:inline;enable-background:new;clip-rule:evenodd;fill:url(#linearGradient438);fill-rule:evenodd;stroke-width:0.505873;stroke-linejoin:round;stroke-miterlimit:2"
         id="path414" />
      <circle
         cx="338.88443"
         cy="209.83467"
         r="0.88274753"
         style="display:inline;enable-background:new;clip-rule:evenodd;fill:url(#linearGradient440);fill-rule:evenodd;stroke-width:0.505873;stroke-linejoin:round;stroke-miterlimit:2"
         id="circle416" />
      <path
         d="m 339.27749,209.66065 c -0.0309,-0.0617 -0.0744,-0.11332 -0.13001,-0.1548 -0.0162,-0.0127 -0.0344,-0.0172 -0.0546,-0.0147 -0.0202,0.003 -0.0364,0.0121 -0.0486,0.0288 -0.0121,0.0162 -0.0167,0.0339 -0.0137,0.0541 0.003,0.0202 0.0121,0.0364 0.0283,0.0486 0.0374,0.0283 0.0663,0.0632 0.087,0.10421 0.0202,0.041 0.0309,0.0845 0.0309,0.13102 0,0.04 -0.008,0.0779 -0.0233,0.11382 -0.0157,0.0364 -0.0364,0.0678 -0.0632,0.0941 -0.0263,0.0263 -0.0577,0.0476 -0.0936,0.0627 -0.0364,0.0157 -0.0744,0.0233 -0.11433,0.0233 -0.04,0 -0.0779,-0.008 -0.11382,-0.0233 -0.0364,-0.0152 -0.0678,-0.0364 -0.0941,-0.0627 -0.0263,-0.0263 -0.0476,-0.0577 -0.0627,-0.0941 -0.0157,-0.0359 -0.0233,-0.0739 -0.0233,-0.11382 0,-0.0465 0.0101,-0.0901 0.0303,-0.13102 0.0207,-0.041 0.0496,-0.0759 0.087,-0.10421 0.0162,-0.0121 0.0258,-0.0283 0.0288,-0.0486 0.003,-0.0197 -0.002,-0.0379 -0.0142,-0.0541 -0.0121,-0.0167 -0.0278,-0.0263 -0.0481,-0.0288 -0.0202,-0.003 -0.0384,0.002 -0.0551,0.0147 -0.0556,0.0415 -0.0992,0.0931 -0.13001,0.1548 -0.0309,0.0617 -0.046,0.12748 -0.046,0.19729 0,0.0597 0.0116,0.11686 0.0349,0.17098 0.0233,0.0546 0.0546,0.10168 0.0941,0.14114 0.0394,0.0395 0.0865,0.0708 0.14113,0.0941 0.0541,0.0233 0.1113,0.0349 0.17099,0.0349 0.0597,0 0.11686,-0.0116 0.17149,-0.0349 0.0541,-0.0233 0.10117,-0.0546 0.14063,-0.0941 0.0395,-0.0395 0.0708,-0.0865 0.0941,-0.14114 0.0233,-0.0541 0.0349,-0.11129 0.0349,-0.17098 0,-0.0698 -0.0152,-0.13558 -0.046,-0.19729 z m -0.39509,0.19729 c 0.0197,0 0.0374,-0.008 0.0516,-0.0218 0.0147,-0.0147 0.0223,-0.0319 0.0223,-0.0521 v -0.36777 c 0,-0.0197 -0.008,-0.0369 -0.0223,-0.0516 -0.0142,-0.0147 -0.0319,-0.0217 -0.0516,-0.0217 -0.0197,0 -0.0369,0.007 -0.0516,0.0217 -0.0147,0.0147 -0.0217,0.0319 -0.0217,0.0516 v 0.36777 c 0,0.0202 0.007,0.0374 0.0217,0.0521 0.0147,0.0142 0.0319,0.0218 0.0516,0.0218 z"
         style="display:inline;enable-background:new;clip-rule:evenodd;fill:#e3e8ea;fill-rule:nonzero;stroke-width:0.505873;stroke-linejoin:round;stroke-miterlimit:2"
         id="path418" />
      <path
         d="m 336.78303,205.75582 c 0,-0.084 -0.0334,-0.16492 -0.0931,-0.22461 -0.0597,-0.0592 -0.14064,-0.0931 -0.22461,-0.0931 h -8.89779 c -0.0845,0 -0.16542,0.0339 -0.22461,0.0931 -0.0597,0.0597 -0.0931,0.14063 -0.0931,0.22461 v 0.004 c 0,0.0845 0.0334,0.16542 0.0931,0.2246 0.0592,0.0597 0.14013,0.0931 0.22461,0.0931 h 8.89779 c 0.084,0 0.16491,-0.0334 0.22461,-0.0931 0.0597,-0.0592 0.0931,-0.14012 0.0931,-0.2246 z"
         style="display:inline;enable-background:new;clip-rule:evenodd;fill:url(#linearGradient446);fill-rule:evenodd;stroke-width:0.505873;stroke-linejoin:round;stroke-miterlimit:2"
         id="path424" />
      <circle
         cx="338.84598"
         cy="205.64807"
         r="0.88274753"
         style="display:inline;enable-background:new;clip-rule:evenodd;fill:url(#linearGradient448);fill-rule:evenodd;stroke-width:0.505873;stroke-linejoin:round;stroke-miterlimit:2"
         id="circle426" />
      <path
         d="m 339.23904,205.47405 c -0.0314,-0.0622 -0.0749,-0.11332 -0.13052,-0.1548 -0.0157,-0.0132 -0.0339,-0.0177 -0.0541,-0.0152 -0.0202,0.003 -0.0364,0.0121 -0.0486,0.0288 -0.0121,0.0162 -0.0167,0.0339 -0.0137,0.0541 0.003,0.0202 0.0121,0.0364 0.0283,0.0486 0.0374,0.0283 0.0663,0.0632 0.087,0.10421 0.0202,0.041 0.0309,0.0845 0.0309,0.13102 0,0.04 -0.008,0.0779 -0.0233,0.11382 -0.0157,0.0364 -0.0364,0.0678 -0.0632,0.0941 -0.0263,0.0263 -0.0577,0.0476 -0.0936,0.0627 -0.0364,0.0157 -0.0744,0.0233 -0.11433,0.0233 -0.04,0 -0.0779,-0.008 -0.11382,-0.0233 -0.0364,-0.0152 -0.0678,-0.0364 -0.0941,-0.0627 -0.0263,-0.0263 -0.0476,-0.0577 -0.0627,-0.0941 -0.0157,-0.0359 -0.0233,-0.0738 -0.0233,-0.11382 0,-0.0465 0.0101,-0.09 0.0303,-0.13102 0.0207,-0.041 0.0496,-0.0759 0.087,-0.10421 0.0162,-0.0121 0.0258,-0.0283 0.0288,-0.0486 0.003,-0.0197 -0.002,-0.0379 -0.0142,-0.0541 -0.0121,-0.0167 -0.0278,-0.0263 -0.048,-0.0288 -0.0202,-0.003 -0.0385,0.002 -0.0551,0.0147 -0.0557,0.0415 -0.0992,0.0931 -0.13001,0.1548 -0.0309,0.0617 -0.046,0.12748 -0.046,0.19729 0,0.0597 0.0116,0.11686 0.0349,0.17099 0.0233,0.0546 0.0546,0.10168 0.0941,0.14114 0.0395,0.0395 0.0865,0.0708 0.14114,0.0941 0.0541,0.0233 0.11129,0.0349 0.17098,0.0349 0.0597,0 0.11686,-0.0116 0.17149,-0.0349 0.0541,-0.0233 0.10118,-0.0546 0.14064,-0.0941 0.0395,-0.0395 0.0708,-0.0865 0.0941,-0.14114 0.0233,-0.0541 0.0349,-0.1113 0.0349,-0.17099 0,-0.0698 -0.0152,-0.13557 -0.046,-0.19729 z m -0.39559,0.19729 c 0.0202,0 0.0379,-0.008 0.0516,-0.0217 0.0152,-0.0147 0.0222,-0.0319 0.0222,-0.0521 l 5.1e-4,-0.36777 c 0,-0.0197 -0.008,-0.0369 -0.0223,-0.0516 -0.0142,-0.0147 -0.0319,-0.0217 -0.0516,-0.0217 -0.0197,0 -0.0369,0.007 -0.0516,0.0217 -0.0147,0.0147 -0.0217,0.0319 -0.0217,0.0516 v 0.36777 c 0,0.0202 0.007,0.0374 0.0217,0.0521 0.0147,0.0142 0.0319,0.0217 0.0516,0.0217 z"
         style="display:inline;enable-background:new;clip-rule:evenodd;fill:#e3e8ea;fill-rule:nonzero;stroke-width:0.505873;stroke-linejoin:round;stroke-miterlimit:2"
         id="path428" />
      <path
         d="m 332.01923,192.62691 c -3.02107,0 -5.50289,1.43617 -5.50289,3.18295 0,1.74678 2.48182,3.18244 5.50289,3.18244 3.02056,0 5.50338,-1.43566 5.50338,-3.18244 0,-1.74678 -2.48282,-3.18295 -5.50338,-3.18295 z m -0.039,2.04221 c 0.86403,0 1.57276,0.40975 1.57276,0.90956 0,0.49929 -0.70873,0.90905 -1.57276,0.90905 -0.86352,0 -1.57174,-0.40976 -1.57174,-0.90905 0,-0.49981 0.70822,-0.90956 1.57174,-0.90956 z"
         style="display:inline;enable-background:new;clip-rule:evenodd;fill-opacity:0.23;fill-rule:nonzero;stroke-width:0.505873;stroke-linejoin:round;stroke-miterlimit:2"
         id="path430" />
      <path
         d="m 331.14444,250.48419 c 0,-0.0548 -0.0218,-0.10756 -0.0607,-0.14649 -0.0389,-0.0386 -0.0917,-0.0607 -0.14649,-0.0607 h -5.80291 c -0.0551,0 -0.10788,0.0221 -0.14648,0.0607 -0.0389,0.0389 -0.0607,0.0917 -0.0607,0.14649 v 0.003 c 0,0.0551 0.0218,0.10789 0.0607,0.14649 0.0386,0.0389 0.0914,0.0607 0.14648,0.0607 h 5.80291 c 0.0548,0 0.10756,-0.0218 0.14649,-0.0607 0.0389,-0.0386 0.0607,-0.0914 0.0607,-0.14649 z"
         style="display:inline;enable-background:new;clip-rule:evenodd;fill:url(#linearGradient478);fill-rule:evenodd;stroke-width:0.329917;stroke-linejoin:round;stroke-miterlimit:2"
         id="path454" />
      <circle
         cx="332.48984"
         cy="250.41391"
         r="0.57570493"
         style="display:inline;enable-background:new;clip-rule:evenodd;fill:url(#linearGradient480);fill-rule:evenodd;stroke-width:0.329917;stroke-linejoin:round;stroke-miterlimit:2"
         id="circle456" />
      <path
         d="m 332.74619,250.30042 c -0.0201,-0.0403 -0.0485,-0.0739 -0.0848,-0.10095 -0.0106,-0.008 -0.0224,-0.0112 -0.0356,-0.01 -0.0132,0.002 -0.0238,0.008 -0.0317,0.0188 -0.008,0.0106 -0.0109,0.0221 -0.009,0.0353 0.002,0.0132 0.008,0.0238 0.0185,0.0317 0.0244,0.0185 0.0432,0.0412 0.0568,0.068 0.0132,0.0267 0.0201,0.0551 0.0201,0.0855 0,0.0261 -0.005,0.0508 -0.0152,0.0742 -0.0102,0.0238 -0.0238,0.0442 -0.0412,0.0614 -0.0172,0.0172 -0.0376,0.031 -0.061,0.0409 -0.0238,0.0102 -0.0485,0.0152 -0.0746,0.0152 -0.0261,0 -0.0508,-0.005 -0.0742,-0.0152 -0.0238,-0.01 -0.0442,-0.0238 -0.0614,-0.0409 -0.0172,-0.0172 -0.031,-0.0376 -0.0409,-0.0614 -0.0102,-0.0234 -0.0152,-0.0482 -0.0152,-0.0742 0,-0.0303 0.007,-0.0587 0.0198,-0.0855 0.0135,-0.0267 0.0323,-0.0495 0.0568,-0.068 0.0106,-0.008 0.0168,-0.0185 0.0188,-0.0317 0.002,-0.0129 -0.001,-0.0248 -0.009,-0.0353 -0.008,-0.0109 -0.0181,-0.0171 -0.0313,-0.0188 -0.0132,-0.002 -0.0251,0.001 -0.036,0.01 -0.0363,0.0271 -0.0647,0.0607 -0.0848,0.10095 -0.0201,0.0402 -0.03,0.0831 -0.03,0.12867 0,0.0389 0.008,0.0762 0.0228,0.11151 0.0152,0.0356 0.0356,0.0663 0.0614,0.0921 0.0257,0.0257 0.0564,0.0462 0.092,0.0614 0.0353,0.0152 0.0726,0.0228 0.11151,0.0228 0.0389,0 0.0762,-0.008 0.11184,-0.0228 0.0353,-0.0152 0.066,-0.0356 0.0917,-0.0614 0.0257,-0.0257 0.0462,-0.0564 0.0614,-0.0921 0.0152,-0.0353 0.0228,-0.0726 0.0228,-0.11151 0,-0.0455 -0.01,-0.0884 -0.03,-0.12867 z m -0.25767,0.12867 c 0.0129,0 0.0244,-0.005 0.0337,-0.0142 0.01,-0.01 0.0145,-0.0208 0.0145,-0.034 v -0.23985 c 0,-0.0129 -0.005,-0.0241 -0.0145,-0.0337 -0.009,-0.01 -0.0208,-0.0142 -0.0337,-0.0142 -0.0129,0 -0.0241,0.005 -0.0336,0.0142 -0.01,0.01 -0.0142,0.0208 -0.0142,0.0337 v 0.23985 c 0,0.0132 0.005,0.0244 0.0142,0.034 0.01,0.009 0.0208,0.0142 0.0336,0.0142 z"
         style="display:inline;enable-background:new;clip-rule:evenodd;fill:#e3e8ea;fill-rule:nonzero;stroke-width:0.329917;stroke-linejoin:round;stroke-miterlimit:2"
         id="path458" />
      <path
         d="m 331.11937,247.75379 c 0,-0.0548 -0.0218,-0.10755 -0.0607,-0.14648 -0.0389,-0.0386 -0.0917,-0.0607 -0.14648,-0.0607 h -5.80291 c -0.0551,0 -0.10788,0.0221 -0.14648,0.0607 -0.0389,0.0389 -0.0607,0.0917 -0.0607,0.14648 v 0.003 c 0,0.0551 0.0218,0.10789 0.0607,0.14649 0.0386,0.0389 0.0914,0.0607 0.14648,0.0607 h 5.80291 c 0.0548,0 0.10755,-0.0218 0.14648,-0.0607 0.0389,-0.0386 0.0607,-0.0914 0.0607,-0.14649 z"
         style="display:inline;enable-background:new;clip-rule:evenodd;fill:url(#linearGradient486);fill-rule:evenodd;stroke-width:0.329917;stroke-linejoin:round;stroke-miterlimit:2"
         id="path464" />
      <circle
         cx="332.46475"
         cy="247.68352"
         r="0.57570493"
         style="display:inline;enable-background:new;clip-rule:evenodd;fill:url(#linearGradient488);fill-rule:evenodd;stroke-width:0.329917;stroke-linejoin:round;stroke-miterlimit:2"
         id="circle466" />
      <path
         d="m 332.72111,247.57003 c -0.0204,-0.0406 -0.0488,-0.0739 -0.0851,-0.10096 -0.0102,-0.009 -0.0221,-0.0115 -0.0353,-0.01 -0.0132,0.002 -0.0238,0.008 -0.0317,0.0188 -0.008,0.0106 -0.0109,0.0221 -0.009,0.0353 0.002,0.0132 0.008,0.0238 0.0185,0.0317 0.0244,0.0185 0.0432,0.0412 0.0567,0.068 0.0132,0.0267 0.0201,0.0551 0.0201,0.0855 0,0.0261 -0.005,0.0508 -0.0152,0.0742 -0.0102,0.0237 -0.0238,0.0442 -0.0412,0.0614 -0.0172,0.0172 -0.0376,0.031 -0.061,0.0409 -0.0238,0.0102 -0.0485,0.0152 -0.0746,0.0152 -0.0261,0 -0.0508,-0.005 -0.0742,-0.0152 -0.0238,-0.01 -0.0442,-0.0237 -0.0614,-0.0409 -0.0172,-0.0171 -0.031,-0.0376 -0.0409,-0.0614 -0.0102,-0.0234 -0.0152,-0.0482 -0.0152,-0.0742 0,-0.0304 0.007,-0.0587 0.0198,-0.0855 0.0135,-0.0267 0.0323,-0.0495 0.0568,-0.068 0.0105,-0.008 0.0168,-0.0185 0.0188,-0.0317 0.002,-0.0129 -10e-4,-0.0247 -0.009,-0.0353 -0.008,-0.0109 -0.0181,-0.0172 -0.0313,-0.0188 -0.0132,-0.002 -0.0251,0.001 -0.036,0.01 -0.0363,0.0271 -0.0647,0.0607 -0.0848,0.10095 -0.0201,0.0402 -0.03,0.0831 -0.03,0.12867 0,0.0389 0.008,0.0762 0.0228,0.11151 0.0152,0.0356 0.0356,0.0663 0.0614,0.0921 0.0257,0.0257 0.0564,0.0462 0.0921,0.0614 0.0353,0.0152 0.0726,0.0228 0.11151,0.0228 0.0389,0 0.0762,-0.008 0.11184,-0.0228 0.0353,-0.0152 0.066,-0.0356 0.0917,-0.0614 0.0257,-0.0257 0.0462,-0.0564 0.0614,-0.0921 0.0152,-0.0353 0.0228,-0.0726 0.0228,-0.11151 0,-0.0455 -0.01,-0.0884 -0.03,-0.12867 z m -0.25799,0.12867 c 0.0132,0 0.0247,-0.005 0.0337,-0.0142 0.01,-0.01 0.0145,-0.0208 0.0145,-0.034 l 3.3e-4,-0.23985 c 0,-0.0129 -0.005,-0.0241 -0.0145,-0.0337 -0.009,-0.01 -0.0208,-0.0142 -0.0336,-0.0142 -0.0129,0 -0.0241,0.005 -0.0337,0.0142 -0.01,0.01 -0.0142,0.0208 -0.0142,0.0337 v 0.23985 c 0,0.0132 0.005,0.0244 0.0142,0.034 0.01,0.009 0.0208,0.0142 0.0337,0.0142 z"
         style="display:inline;enable-background:new;clip-rule:evenodd;fill:#e3e8ea;fill-rule:nonzero;stroke-width:0.329917;stroke-linejoin:round;stroke-miterlimit:2"
         id="path468" />
      <path
         d="m 328.01254,239.19146 c -1.97026,0 -3.58884,0.93663 -3.58884,2.07584 0,1.1392 1.61858,2.0755 3.58884,2.0755 1.96993,0 3.58917,-0.9363 3.58917,-2.0755 0,-1.13921 -1.61924,-2.07584 -3.58917,-2.07584 z m -0.0254,1.33188 c 0.56349,0 1.02571,0.26723 1.02571,0.59319 0,0.32562 -0.46222,0.59286 -1.02571,0.59286 -0.56317,0 -1.02506,-0.26724 -1.02506,-0.59286 0,-0.32596 0.46189,-0.59319 1.02506,-0.59319 z"
         style="display:inline;enable-background:new;clip-rule:evenodd;fill-opacity:0.23;fill-rule:nonzero;stroke-width:0.329917;stroke-linejoin:round;stroke-miterlimit:2"
         id="path470" />
    </g>
  </g>
</svg>
