<?xml version="1.0" encoding="UTF-8" standalone="no"?>
<svg
   inkscape:export-ydpi="90.000000"
   inkscape:export-xdpi="90.000000"
   width="400"
   height="300"
   id="svg11300"
   sodipodi:version="0.32"
   inkscape:version="1.2.2 (b0a8486541, 2022-12-01)"
   sodipodi:docname="drive-harddisk-ieee1394.svg"
   inkscape:output_extension="org.inkscape.output.svg.inkscape"
   version="1.0"
   style="display:inline;enable-background:new"
   inkscape:export-filename="/home/sam/suru-template.png"
   xmlns:inkscape="http://www.inkscape.org/namespaces/inkscape"
   xmlns:sodipodi="http://sodipodi.sourceforge.net/DTD/sodipodi-0.dtd"
   xmlns:xlink="http://www.w3.org/1999/xlink"
   xmlns="http://www.w3.org/2000/svg"
   xmlns:svg="http://www.w3.org/2000/svg"
   xmlns:rdf="http://www.w3.org/1999/02/22-rdf-syntax-ns#"
   xmlns:cc="http://creativecommons.org/ns#"
   xmlns:dc="http://purl.org/dc/elements/1.1/">
  <title
     id="title3004">Suru Icon Theme Template</title>
  <sodipodi:namedview
     stroke="#ef2929"
     fill="#f57900"
     id="base"
     pagecolor="#ffffff"
     bordercolor="#000000"
     borderopacity="0.25490196"
     inkscape:pageopacity="0"
     inkscape:pageshadow="2"
     inkscape:zoom="2.8284271"
     inkscape:cx="217.08178"
     inkscape:cy="139.30004"
     inkscape:current-layer="layer6"
     showgrid="false"
     inkscape:grid-bbox="true"
     inkscape:document-units="px"
     inkscape:showpageshadow="false"
     inkscape:window-width="1920"
     inkscape:window-height="1016"
     inkscape:window-x="0"
     inkscape:window-y="32"
     width="400px"
     height="300px"
     inkscape:snap-nodes="true"
     inkscape:snap-bbox="true"
     gridtolerance="10000"
     inkscape:object-nodes="true"
     inkscape:snap-grids="true"
     showguides="true"
     inkscape:guide-bbox="true"
     inkscape:window-maximized="1"
     inkscape:bbox-paths="true"
     inkscape:snap-bbox-midpoints="true"
     inkscape:snap-global="true"
     inkscape:object-paths="true"
     inkscape:snap-intersection-paths="true"
     inkscape:snap-smooth-nodes="true"
     inkscape:pagecheckerboard="false"
     showborder="false"
     inkscape:document-rotation="0"
     inkscape:deskcolor="#d1d1d1">
    <inkscape:grid
       spacingy="1"
       spacingx="1"
       id="grid5883"
       type="xygrid"
       enabled="true"
       visible="true"
       empspacing="4"
       snapvisiblegridlinesonly="true"
       originx="0"
       originy="0" />
    <inkscape:grid
       type="xygrid"
       id="grid11592"
       empspacing="2"
       visible="true"
       enabled="false"
       spacingx="0.5"
       spacingy="0.5"
       color="#ff0000"
       opacity="0.1254902"
       empcolor="#ff0000"
       empopacity="0.25098039"
       snapvisiblegridlinesonly="true"
       originx="0"
       originy="0" />
  </sodipodi:namedview>
  <defs
     id="defs3">
    <linearGradient
       id="_Linear4"
       x2="1"
       gradientTransform="matrix(0,-3.48937,3.48937,0,175.7105,195.9756)"
       gradientUnits="userSpaceOnUse">
      <stop
         style="stop-color:#040404;stop-opacity:.45"
         offset="0"
         id="stop39" />
      <stop
         style="stop-color:#121212;stop-opacity:.41"
         offset="1"
         id="stop41" />
    </linearGradient>
    <linearGradient
       id="_Linear3"
       x2="1"
       gradientTransform="matrix(18.8308,0,0,18.8308,152.6543,194.5669)"
       gradientUnits="userSpaceOnUse">
      <stop
         style="stop-color:#197cf1"
         offset="0"
         id="stop34" />
      <stop
         style="stop-color:#20bcfa"
         offset="1"
         id="stop36" />
    </linearGradient>
    <linearGradient
       id="_Linear2"
       x2="1"
       gradientTransform="matrix(-0.00154162,-38.7406,38.7406,-0.00154162,162,191.0548)"
       gradientUnits="userSpaceOnUse">
      <stop
         style="stop-color:#bbbec4"
         offset="0"
         id="stop29" />
      <stop
         style="stop-color:#dcdee1"
         offset="1"
         id="stop31" />
    </linearGradient>
    <linearGradient
       id="_Linear1"
       x2="1"
       gradientTransform="matrix(44.2944,-0.186744,0.186744,44.2944,139.86015,193.9324)"
       gradientUnits="userSpaceOnUse">
      <stop
         style="stop-color:#1a1a1a"
         offset="0"
         id="stop14" />
      <stop
         style="stop-color:#2c2c2e"
         offset=".11"
         id="stop16" />
      <stop
         style="stop-color:#2b2b2d"
         offset=".29"
         id="stop18" />
      <stop
         style="stop-color:#2a2b2d"
         offset=".51"
         id="stop20" />
      <stop
         style="stop-color:#2b2b2d"
         offset=".75"
         id="stop22" />
      <stop
         style="stop-color:#323232"
         offset=".9"
         id="stop24" />
      <stop
         style="stop-color:#171717"
         offset="1"
         id="stop26" />
    </linearGradient>
    <linearGradient
       inkscape:collect="always"
       xlink:href="#_Linear1"
       id="linearGradient225"
       gradientUnits="userSpaceOnUse"
       gradientTransform="matrix(44.890665,-0.18925784,0.18925784,44.890665,321.56211,103.18726)"
       x2="1" />
    <linearGradient
       inkscape:collect="always"
       xlink:href="#_Linear2"
       id="linearGradient227"
       gradientUnits="userSpaceOnUse"
       gradientTransform="matrix(-0.00156237,-39.262103,39.262103,-0.00156237,344,100.27092)"
       x2="1" />
    <linearGradient
       inkscape:collect="always"
       xlink:href="#_Linear3"
       id="linearGradient229"
       gradientUnits="userSpaceOnUse"
       gradientTransform="matrix(19.084289,0,0,19.084289,334.52849,103.8303)"
       x2="1" />
    <linearGradient
       inkscape:collect="always"
       xlink:href="#_Linear4"
       id="linearGradient231"
       gradientUnits="userSpaceOnUse"
       gradientTransform="matrix(0,-3.5363418,3.5363418,0,357.89506,105.25796)"
       x2="1" />
    <linearGradient
       inkscape:collect="always"
       xlink:href="#_Linear1"
       id="linearGradient247"
       gradientUnits="userSpaceOnUse"
       gradientTransform="matrix(29.276521,-0.12342902,0.12342902,29.276521,321.3666,160.51343)"
       x2="1" />
    <linearGradient
       inkscape:collect="always"
       xlink:href="#_Linear2"
       id="linearGradient249"
       gradientUnits="userSpaceOnUse"
       gradientTransform="matrix(-0.00101894,-25.605719,25.605719,-0.00101894,336,158.61147)"
       x2="1" />
    <linearGradient
       inkscape:collect="always"
       xlink:href="#_Linear3"
       id="linearGradient251"
       gradientUnits="userSpaceOnUse"
       gradientTransform="matrix(12.446275,0,0,12.446275,329.82293,160.9328)"
       x2="1" />
    <linearGradient
       inkscape:collect="always"
       xlink:href="#_Linear4"
       id="linearGradient253"
       gradientUnits="userSpaceOnUse"
       gradientTransform="matrix(0,-2.3063099,2.3063099,0,345.062,161.86389)"
       x2="1" />
    <linearGradient
       inkscape:collect="always"
       xlink:href="#_Linear1"
       id="linearGradient269"
       gradientUnits="userSpaceOnUse"
       gradientTransform="matrix(22.445333,-0.09462892,0.09462892,22.445333,320.78105,209.59363)"
       x2="1" />
    <linearGradient
       inkscape:collect="always"
       xlink:href="#_Linear2"
       id="linearGradient271"
       gradientUnits="userSpaceOnUse"
       gradientTransform="matrix(-7.811862e-4,-19.631052,19.631052,-7.811862e-4,332,208.13546)"
       x2="1" />
    <linearGradient
       inkscape:collect="always"
       xlink:href="#_Linear3"
       id="linearGradient273"
       gradientUnits="userSpaceOnUse"
       gradientTransform="matrix(9.5421447,0,0,9.5421447,327.26424,209.91515)"
       x2="1" />
    <linearGradient
       inkscape:collect="always"
       xlink:href="#_Linear4"
       id="linearGradient275"
       gradientUnits="userSpaceOnUse"
       gradientTransform="matrix(0,-1.7681709,1.7681709,0,338.94753,210.62898)"
       x2="1" />
    <linearGradient
       inkscape:collect="always"
       xlink:href="#_Linear1"
       id="linearGradient291"
       gradientUnits="userSpaceOnUse"
       gradientTransform="matrix(14.63826,-0.06171451,0.06171451,14.63826,320.6833,250.25671)"
       x2="1" />
    <linearGradient
       inkscape:collect="always"
       xlink:href="#_Linear2"
       id="linearGradient293"
       gradientUnits="userSpaceOnUse"
       gradientTransform="matrix(-5.0946926e-4,-12.80286,12.80286,-5.0946926e-4,328,249.30573)"
       x2="1" />
    <linearGradient
       inkscape:collect="always"
       xlink:href="#_Linear3"
       id="linearGradient295"
       gradientUnits="userSpaceOnUse"
       gradientTransform="matrix(6.2231378,0,0,6.2231378,324.91147,250.4664)"
       x2="1" />
    <linearGradient
       inkscape:collect="always"
       xlink:href="#_Linear4"
       id="linearGradient297"
       gradientUnits="userSpaceOnUse"
       gradientTransform="matrix(0,-1.153155,1.153155,0,332.531,250.93194)"
       x2="1" />
    <linearGradient
       inkscape:collect="always"
       xlink:href="#_Linear1"
       id="linearGradient387"
       gradientUnits="userSpaceOnUse"
       gradientTransform="matrix(218.59802,-0.92160338,0.92160338,218.59802,42.73726,249.4336)"
       x2="1" />
    <linearGradient
       inkscape:collect="always"
       xlink:href="#_Linear2"
       id="linearGradient389"
       gradientUnits="userSpaceOnUse"
       gradientTransform="matrix(-0.00760807,-191.18937,191.18937,-0.00760807,152,235.23231)"
       x2="1" />
    <linearGradient
       inkscape:collect="always"
       xlink:href="#_Linear3"
       id="linearGradient391"
       gradientUnits="userSpaceOnUse"
       gradientTransform="matrix(92.93219,0,0,92.93219,105.87788,252.56493)"
       x2="1" />
    <linearGradient
       inkscape:collect="always"
       xlink:href="#_Linear4"
       id="linearGradient393"
       gradientUnits="userSpaceOnUse"
       gradientTransform="matrix(0,-17.220447,17.220447,0,219.66291,259.51703)"
       x2="1" />
  </defs>
  <metadata
     id="metadata4">
    <rdf:RDF>
      <cc:Work
         rdf:about="">
        <dc:format>image/svg+xml</dc:format>
        <dc:type
           rdf:resource="http://purl.org/dc/dcmitype/StillImage" />
        <dc:creator>
          <cc:Agent>
            <dc:title>Sam Hewitt</dc:title>
          </cc:Agent>
        </dc:creator>
        <dc:source />
        <cc:license
           rdf:resource="http://creativecommons.org/licenses/by-sa/4.0/" />
        <dc:title>Suru Icon Theme Template</dc:title>
        <dc:subject>
          <rdf:Bag />
        </dc:subject>
        <dc:date />
        <dc:rights>
          <cc:Agent>
            <dc:title />
          </cc:Agent>
        </dc:rights>
        <dc:publisher>
          <cc:Agent>
            <dc:title />
          </cc:Agent>
        </dc:publisher>
        <dc:identifier />
        <dc:relation />
        <dc:language />
        <dc:coverage />
        <dc:description />
        <dc:contributor>
          <cc:Agent>
            <dc:title />
          </cc:Agent>
        </dc:contributor>
      </cc:Work>
      <cc:Work
         rdf:about="">
        <dc:format>image/svg+xml</dc:format>
        <dc:type
           rdf:resource="http://purl.org/dc/dcmitype/StillImage" />
      </cc:Work>
      <cc:License
         rdf:about="http://creativecommons.org/licenses/by-sa/4.0/">
        <cc:permits
           rdf:resource="http://creativecommons.org/ns#Reproduction" />
        <cc:permits
           rdf:resource="http://creativecommons.org/ns#Distribution" />
        <cc:requires
           rdf:resource="http://creativecommons.org/ns#Notice" />
        <cc:requires
           rdf:resource="http://creativecommons.org/ns#Attribution" />
        <cc:permits
           rdf:resource="http://creativecommons.org/ns#DerivativeWorks" />
        <cc:requires
           rdf:resource="http://creativecommons.org/ns#ShareAlike" />
      </cc:License>
    </rdf:RDF>
  </metadata>
  <g
     style="display:inline"
     inkscape:groupmode="layer"
     inkscape:label="Icon"
     id="layer1">
    <g
       style="display:none"
       inkscape:label="Baseplate"
       id="layer7"
       inkscape:groupmode="layer"
       sodipodi:insensitive="true">
      <text
         y="-8.2548828"
         xml:space="preserve"
         x="19.006836"
         style="font-style:normal;font-variant:normal;font-weight:normal;font-stretch:normal;line-height:0%;font-family:'DejaVu Sans';-inkscape-font-specification:'DejaVu Sans';display:inline;fill:#000000;fill-opacity:1;stroke:none;enable-background:new"
         inkscape:label="context"
         id="context"><tspan
           style="font-style:normal;font-variant:normal;font-weight:normal;font-stretch:normal;font-size:18px;line-height:1.25;font-family:'DejaVu Sans';-inkscape-font-specification:'DejaVu Sans'"
           y="-8.2548828"
           x="19.006836"
           sodipodi:role="line"
           id="tspan1445">devices</tspan></text>
      <text
         y="-8.2548828"
         xml:space="preserve"
         x="146.48828"
         style="font-style:normal;font-variant:normal;font-weight:bold;font-stretch:normal;line-height:0%;font-family:'DejaVu Sans';-inkscape-font-specification:'DejaVu Sans Bold';text-align:start;writing-mode:lr-tb;text-anchor:start;display:inline;fill:#000000;fill-opacity:1;stroke:none;enable-background:new"
         inkscape:label="icon-name"
         id="icon-name"><tspan
           style="font-style:normal;font-variant:normal;font-weight:bold;font-stretch:normal;font-size:18px;line-height:1.25;font-family:'DejaVu Sans';-inkscape-font-specification:'DejaVu Sans Bold'"
           y="-8.2548828"
           x="146.48828"
           sodipodi:role="line"
           id="tspan924">drive-harddisk-ieee1394</tspan></text>
      <rect
         style="display:inline;overflow:visible;visibility:visible;fill:#cdcdcd;fill-opacity:1;fill-rule:nonzero;stroke:none;stroke-width:2;marker:none;enable-background:accumulate"
         id="rect16x16"
         width="16"
         height="16"
         x="320"
         y="236"
         inkscape:label="16x16" />
      <rect
         style="display:inline;overflow:visible;visibility:visible;fill:#cdcdcd;fill-opacity:1;fill-rule:nonzero;stroke:none;stroke-width:2;marker:none;enable-background:accumulate"
         id="rect24x24"
         width="24"
         height="24"
         x="320"
         y="188"
         inkscape:label="24x24" />
      <rect
         style="display:inline;overflow:visible;visibility:visible;fill:#cdcdcd;fill-opacity:1;fill-rule:nonzero;stroke:none;stroke-width:2;marker:none;enable-background:accumulate"
         id="rect32x32"
         width="32"
         height="32"
         x="320"
         y="132"
         inkscape:label="32x32" />
      <rect
         inkscape:label="48x48"
         y="60"
         x="320"
         height="48"
         width="48"
         id="rect48x48"
         style="display:inline;overflow:visible;visibility:visible;fill:#cdcdcd;fill-opacity:1;fill-rule:nonzero;stroke:none;stroke-width:2;marker:none;enable-background:accumulate" />
      <rect
         style="display:inline;overflow:visible;visibility:visible;fill:#cdcdcd;fill-opacity:1;fill-rule:nonzero;stroke:none;stroke-width:2;marker:none;enable-background:accumulate"
         id="rect256x256"
         width="256"
         height="256"
         x="24"
         y="28"
         inkscape:label="256x256" />
    </g>
    <g
       inkscape:groupmode="layer"
       id="layer2"
       inkscape:label="Background"
       style="display:inline">
      <path
         d="M 242.54704,267.95805 H 61.452949 c -9.426073,0 -17.899668,-5.82837 -18.482011,-15.22977 -0.468836,-7.62969 -2.966005,-33.88944 -2.97094,-33.94373 H 264 c -0.005,0.0543 -2.50211,26.31404 -2.97094,33.94373 -0.58235,9.4014 -9.05594,15.22977 -18.48202,15.22977 z"
         style="clip-rule:evenodd;fill:url(#linearGradient387);fill-rule:nonzero;stroke-width:4.93512;stroke-linejoin:round;stroke-miterlimit:2"
         id="path2" />
      <path
         d="m 251.02557,60.036662 c -0.75013,-9.041134 -8.30086,-15.994713 -17.3716,-15.994713 H 70.346028 c -9.070744,0 -16.621472,6.953579 -17.371609,15.994713 -2.896914,35.098547 -9.811012,118.743838 -12.9152,156.329678 -0.399744,4.85616 1.248585,9.65803 4.545242,13.24092 3.301593,3.58783 7.950473,5.62603 12.821433,5.62603 H 246.5741 c 4.87096,0 9.51984,-2.0382 12.82143,-5.62603 3.29666,-3.58289 4.94499,-8.38476 4.54524,-13.24092 C 260.83659,178.7805 253.92249,95.135209 251.02557,60.036662 Z"
         style="clip-rule:evenodd;fill:url(#linearGradient389);fill-rule:evenodd;stroke-width:4.93512;stroke-linejoin:round;stroke-miterlimit:2"
         id="path4" />
      <path
         d="m 362.59448,106.99139 h -37.18897 c -1.93571,0 -3.67582,-1.1969 -3.79541,-3.12755 -0.0963,-1.56681 -0.60909,-6.959436 -0.6101,-6.970584 h 46 c -10e-4,0.01115 -0.51383,5.403774 -0.61011,6.970584 -0.11959,1.93065 -1.8597,3.12755 -3.79541,3.12755 z"
         style="clip-rule:evenodd;fill:url(#linearGradient225);fill-rule:nonzero;stroke-width:1.01346;stroke-linejoin:round;stroke-miterlimit:2"
         id="path211" />
      <path
         d="m 364.33561,64.293243 c -0.15405,-1.856661 -1.70465,-3.284628 -3.56739,-3.284628 h -33.53645 c -1.86274,0 -3.41334,1.427967 -3.56738,3.284628 -0.5949,7.207738 -2.01476,24.384895 -2.65223,32.103417 -0.0821,0.997246 0.2564,1.983344 0.9334,2.719117 0.678,0.736786 1.63268,1.155343 2.63297,1.155343 h 38.84293 c 1.00029,0 1.95497,-0.418557 2.63298,-1.155343 0.67699,-0.735773 1.01549,-1.721871 0.9334,-2.719117 -0.63747,-7.718522 -2.05733,-24.895679 -2.65223,-32.103417 z"
         style="clip-rule:evenodd;fill:url(#linearGradient227);fill-rule:evenodd;stroke-width:1.01346;stroke-linejoin:round;stroke-miterlimit:2"
         id="path213" />
      <path
         d="m 348.12684,162.99438 h -24.25368 c -1.26242,0 -2.39727,-0.78058 -2.47527,-2.0397 -0.0628,-1.02183 -0.39723,-4.53876 -0.39789,-4.54604 h 30 c -6.6e-4,0.007 -0.3351,3.52421 -0.39789,4.54604 -0.078,1.25912 -1.21285,2.0397 -2.47527,2.0397 z"
         style="clip-rule:evenodd;fill:url(#linearGradient247);fill-rule:nonzero;stroke-width:0.660953;stroke-linejoin:round;stroke-miterlimit:2"
         id="path233" />
      <path
         d="m 349.26235,135.14777 c -0.10046,-1.21087 -1.11172,-2.14215 -2.32655,-2.14215 h -21.8716 c -1.21483,0 -2.22609,0.93128 -2.32655,2.14215 -0.38798,4.7007 -1.31398,15.90319 -1.72972,20.93701 -0.0535,0.65038 0.16722,1.29348 0.60874,1.77334 0.44218,0.48051 1.0648,0.75348 1.71716,0.75348 h 25.33235 c 0.65236,0 1.27497,-0.27297 1.71715,-0.75348 0.44152,-0.47986 0.66228,-1.12296 0.60874,-1.77334 -0.41574,-5.03382 -1.34174,-16.23631 -1.72972,-20.93701 z"
         style="clip-rule:evenodd;fill:url(#linearGradient249);fill-rule:evenodd;stroke-width:0.660953;stroke-linejoin:round;stroke-miterlimit:2"
         id="path235" />
      <path
         d="m 341.29724,211.4957 h -18.59449 c -0.96785,0 -1.83791,-0.59845 -1.8977,-1.56377 -0.0481,-0.78341 -0.30455,-3.47972 -0.30506,-3.4853 H 343.5 c -5.1e-4,0.006 -0.25692,2.70189 -0.30506,3.4853 -0.0598,0.96532 -0.92985,1.56377 -1.8977,1.56377 z"
         style="clip-rule:evenodd;fill:url(#linearGradient269);fill-rule:nonzero;stroke-width:0.506731;stroke-linejoin:round;stroke-miterlimit:2"
         id="path255" />
      <path
         d="m 342.1678,190.14663 c -0.077,-0.92834 -0.85232,-1.64232 -1.78369,-1.64232 h -16.76823 c -0.93137,0 -1.70667,0.71398 -1.78369,1.64232 -0.29745,3.60386 -1.00738,12.19244 -1.32611,16.0517 -0.041,0.49863 0.1282,0.99168 0.46669,1.35956 0.33901,0.3684 0.81635,0.57768 1.31649,0.57768 h 19.42147 c 0.50014,0 0.97748,-0.20928 1.31649,-0.57768 0.33849,-0.36788 0.50774,-0.86093 0.46669,-1.35956 -0.31873,-3.85926 -1.02866,-12.44784 -1.32611,-16.0517 z"
         style="clip-rule:evenodd;fill:url(#linearGradient271);fill-rule:evenodd;stroke-width:0.506731;stroke-linejoin:round;stroke-miterlimit:2"
         id="path257" />
      <path
         d="m 334.06342,251.49719 h -12.12684 c -0.63121,0 -1.19864,-0.3903 -1.23763,-1.01985 -0.0314,-0.51092 -0.19862,-2.26939 -0.19895,-2.27302 h 15 c -3.3e-4,0.004 -0.16755,1.7621 -0.19895,2.27302 -0.039,0.62955 -0.60642,1.01985 -1.23763,1.01985 z"
         style="clip-rule:evenodd;fill:url(#linearGradient291);fill-rule:nonzero;stroke-width:0.330477;stroke-linejoin:round;stroke-miterlimit:2"
         id="path277" />
      <path
         d="m 334.63118,237.57388 c -0.0502,-0.60543 -0.55586,-1.07107 -1.16328,-1.07107 h -10.9358 c -0.60741,0 -1.11304,0.46564 -1.16328,1.07107 -0.19399,2.35035 -0.65698,7.9516 -0.86485,10.46851 -0.0268,0.32518 0.0836,0.64674 0.30437,0.88666 0.22108,0.24026 0.53239,0.37675 0.85857,0.37675 h 12.66618 c 0.32618,0 0.63749,-0.13649 0.85858,-0.37675 0.22075,-0.23992 0.33113,-0.56148 0.30437,-0.88666 -0.20787,-2.51691 -0.67087,-8.11816 -0.86486,-10.46851 z"
         style="clip-rule:evenodd;fill:url(#linearGradient293);fill-rule:evenodd;stroke-width:0.330477;stroke-linejoin:round;stroke-miterlimit:2"
         id="path279" />
    </g>
    <g
       inkscape:groupmode="layer"
       id="layer6"
       inkscape:label="Pictogram"
       style="display:inline">
      <path
         d="m 198.84659,253.02932 c 0,-0.81923 -0.32572,-1.60884 -0.90806,-2.19119 -0.58235,-0.57741 -1.37196,-0.90806 -2.19119,-0.90806 h -86.80377 c -0.82416,0 -1.61378,0.33065 -2.19119,0.90806 -0.58234,0.58235 -0.90806,1.37196 -0.90806,2.19119 v 0.0395 c 0,0.82417 0.32572,1.61379 0.90806,2.1912 0.57741,0.58234 1.36703,0.90806 2.19119,0.90806 h 86.80377 c 0.81923,0 1.60884,-0.32572 2.19119,-0.90806 0.58234,-0.57741 0.90806,-1.36703 0.90806,-2.1912 z"
         style="display:inline;enable-background:new;clip-rule:evenodd;fill:url(#linearGradient391);fill-rule:evenodd;stroke-width:4.93512;stroke-linejoin:round;stroke-miterlimit:2"
         id="path6" />
      <circle
         cx="218.97197"
         cy="251.97813"
         r="8.6117783"
         style="display:inline;enable-background:new;clip-rule:evenodd;fill:url(#linearGradient393);fill-rule:evenodd;stroke-width:4.93512;stroke-linejoin:round;stroke-miterlimit:2"
         id="circle8" />
      <path
         d="m 222.80658,250.28046 c -0.30104,-0.60208 -0.72546,-1.10546 -1.26833,-1.51014 -0.15792,-0.12338 -0.33558,-0.1678 -0.53299,-0.14312 -0.1974,0.0247 -0.35533,0.11844 -0.47377,0.2813 -0.11844,0.15793 -0.16286,0.33065 -0.13325,0.52806 0.0247,0.1974 0.11845,0.35533 0.27637,0.47377 0.3652,0.27637 0.6465,0.61689 0.84884,1.01663 0.1974,0.39975 0.30104,0.82417 0.30104,1.2782 0,0.38987 -0.079,0.76001 -0.22701,1.1104 -0.15299,0.35533 -0.35533,0.66131 -0.61689,0.91793 -0.25663,0.25663 -0.56261,0.4639 -0.913,0.61196 -0.35533,0.15298 -0.72546,0.22701 -1.11534,0.22701 -0.38987,0 -0.76,-0.074 -1.1104,-0.22701 -0.35533,-0.14806 -0.6613,-0.35533 -0.91793,-0.61196 -0.25663,-0.25662 -0.4639,-0.5626 -0.61195,-0.91793 -0.15299,-0.35039 -0.22702,-0.72053 -0.22702,-1.1104 0,-0.45403 0.0987,-0.87845 0.29611,-1.2782 0.20234,-0.39974 0.48364,-0.74026 0.84884,-1.01663 0.15792,-0.11844 0.25169,-0.27637 0.2813,-0.47377 0.0247,-0.19247 -0.0197,-0.37013 -0.13818,-0.52806 -0.11845,-0.16286 -0.27144,-0.25662 -0.46884,-0.2813 -0.1974,-0.0247 -0.37507,0.0197 -0.53793,0.14312 -0.54286,0.40468 -0.96728,0.90806 -1.26832,1.51014 -0.30104,0.60209 -0.4491,1.24365 -0.4491,1.9247 0,0.58234 0.11351,1.14001 0.34052,1.66807 0.22702,0.53299 0.533,0.99196 0.91794,1.3769 0.38494,0.38493 0.8439,0.69091 1.37689,0.91793 0.52806,0.22701 1.08573,0.34052 1.66807,0.34052 0.58235,0 1.14002,-0.11351 1.67301,-0.34052 0.52806,-0.22702 0.98702,-0.533 1.37196,-0.91793 0.38494,-0.38494 0.69092,-0.84391 0.91793,-1.3769 0.22702,-0.52806 0.34052,-1.08573 0.34052,-1.66807 0,-0.68105 -0.14805,-1.32261 -0.44909,-1.9247 z m -3.85433,1.9247 c 0.19247,0 0.3652,-0.074 0.50339,-0.21221 0.14311,-0.14312 0.21714,-0.31091 0.21714,-0.50832 v -3.58783 c 0,-0.19247 -0.074,-0.36026 -0.21714,-0.50338 -0.13819,-0.14312 -0.31092,-0.21221 -0.50339,-0.21221 -0.19247,0 -0.36026,0.0691 -0.50338,0.21221 -0.14312,0.14312 -0.21221,0.31091 -0.21221,0.50338 v 3.58783 c 0,0.19741 0.0691,0.3652 0.21221,0.50832 0.14312,0.13818 0.31091,0.21221 0.50338,0.21221 z"
         style="display:inline;enable-background:new;clip-rule:evenodd;fill:#e3e8ea;fill-rule:nonzero;stroke-width:4.93512;stroke-linejoin:round;stroke-miterlimit:2"
         id="path10" />
      <path
         d="m 137.28595,182.62989 h 29.6107 v 8.78451 h -29.6107 z m 0,-17.56408 h 29.6107 v 8.78451 h -29.6107 z m 14.80535,-52.69717 m 0,0 c -13.53703,0 -24.67559,9.90971 -24.67559,21.95633 0,12.04662 11.13856,21.95633 24.67559,21.95633 13.53702,0 24.67558,-9.90971 24.67558,-21.95633 0,-12.04662 -11.13856,-21.95633 -24.67558,-21.95633 z m 0,8.77957 c 8.11826,0 14.80535,5.94681 14.80535,13.17676 0,7.22501 -6.68709,13.17676 -14.80535,13.17676 -8.12321,0 -14.80535,-5.95175 -14.80535,-13.17676 0,-7.22995 6.68214,-13.17676 14.80535,-13.17676 z m -34.69387,0.67117 -6.97826,-6.20837 20.9397,-18.635002 6.97826,6.213312 z m 48.85765,-18.63006 20.93476,-18.635 20.9397,18.635 -20.9397,18.63006 z m -62.81416,6.20838 -6.978256,-6.20838 20.934766,-18.635 6.97825,6.213311 z"
         style="display:inline;enable-background:new;clip-rule:evenodd;fill-opacity:0.3;fill-rule:nonzero;stroke-width:4.93512;stroke-linejoin:round;stroke-miterlimit:2"
         id="path12" />
      <path
         d="m 353.62028,103.92566 c 0,-0.16823 -0.0669,-0.33038 -0.18648,-0.44997 -0.11959,-0.11858 -0.28174,-0.18648 -0.44997,-0.18648 h -17.82578 c -0.16925,0 -0.3314,0.0679 -0.44997,0.18648 -0.11959,0.11959 -0.18648,0.28174 -0.18648,0.44997 v 0.008 c 0,0.16925 0.0669,0.3314 0.18648,0.44998 0.11857,0.11959 0.28072,0.18648 0.44997,0.18648 h 17.82578 c 0.16823,0 0.33038,-0.0669 0.44997,-0.18648 0.11959,-0.11858 0.18648,-0.28073 0.18648,-0.44998 z"
         style="display:inline;enable-background:new;clip-rule:evenodd;fill:url(#linearGradient229);fill-rule:evenodd;stroke-width:1.01346;stroke-linejoin:round;stroke-miterlimit:2"
         id="path215" />
      <circle
         cx="357.75317"
         cy="103.70979"
         r="1.7684902"
         style="display:inline;enable-background:new;clip-rule:evenodd;fill:url(#linearGradient231);fill-rule:evenodd;stroke-width:1.01346;stroke-linejoin:round;stroke-miterlimit:2"
         id="circle217" />
      <path
         d="m 358.54063,103.36117 c -0.0618,-0.12365 -0.14897,-0.22702 -0.26046,-0.31012 -0.0324,-0.0253 -0.0689,-0.0345 -0.10945,-0.0294 -0.0405,0.005 -0.073,0.0243 -0.0973,0.0578 -0.0243,0.0324 -0.0334,0.0679 -0.0274,0.10844 0.005,0.0405 0.0243,0.073 0.0568,0.0973 0.075,0.0567 0.13276,0.12668 0.17431,0.20877 0.0405,0.0821 0.0618,0.16925 0.0618,0.26249 0,0.0801 -0.0162,0.15607 -0.0466,0.22803 -0.0314,0.073 -0.073,0.1358 -0.12669,0.1885 -0.0527,0.0527 -0.11553,0.0953 -0.18749,0.12567 -0.073,0.0314 -0.14898,0.0466 -0.22904,0.0466 -0.0801,0 -0.15607,-0.0152 -0.22803,-0.0466 -0.073,-0.0304 -0.1358,-0.073 -0.1885,-0.12567 -0.0527,-0.0527 -0.0953,-0.11554 -0.12567,-0.1885 -0.0314,-0.072 -0.0466,-0.14797 -0.0466,-0.22803 0,-0.0932 0.0203,-0.1804 0.0608,-0.26249 0.0415,-0.0821 0.0993,-0.15202 0.17431,-0.20877 0.0324,-0.0243 0.0517,-0.0568 0.0578,-0.0973 0.005,-0.0395 -0.004,-0.076 -0.0284,-0.10844 -0.0243,-0.0334 -0.0557,-0.0527 -0.0963,-0.0578 -0.0405,-0.005 -0.077,0.004 -0.11046,0.0294 -0.11148,0.0831 -0.19864,0.18647 -0.26046,0.31012 -0.0618,0.12364 -0.0922,0.25539 -0.0922,0.39525 0,0.11958 0.0233,0.23411 0.0699,0.34255 0.0466,0.10945 0.10946,0.2037 0.18851,0.28275 0.079,0.079 0.1733,0.14189 0.28275,0.18851 0.10844,0.0466 0.22296,0.0699 0.34255,0.0699 0.11959,0 0.23411,-0.0233 0.34356,-0.0699 0.10844,-0.0466 0.2027,-0.10946 0.28175,-0.18851 0.079,-0.079 0.14188,-0.1733 0.1885,-0.28275 0.0466,-0.10844 0.0699,-0.22297 0.0699,-0.34255 0,-0.13986 -0.0304,-0.27161 -0.0922,-0.39525 z m -0.79151,0.39525 c 0.0395,0 0.075,-0.0152 0.10337,-0.0436 0.0294,-0.0294 0.0446,-0.0639 0.0446,-0.10439 v -0.73679 c 0,-0.0395 -0.0152,-0.074 -0.0446,-0.10337 -0.0284,-0.0294 -0.0638,-0.0436 -0.10337,-0.0436 -0.0395,0 -0.074,0.0142 -0.10337,0.0436 -0.0294,0.0294 -0.0436,0.0639 -0.0436,0.10337 v 0.73679 c 0,0.0405 0.0142,0.075 0.0436,0.10439 0.0294,0.0284 0.0639,0.0436 0.10337,0.0436 z"
         style="display:inline;enable-background:new;clip-rule:evenodd;fill:#e3e8ea;fill-rule:nonzero;stroke-width:1.01346;stroke-linejoin:round;stroke-miterlimit:2"
         id="path219" />
      <path
         d="m 340.97836,89.468638 h 6.08077 v 1.803961 h -6.08077 z m 0,-3.606909 h 6.08077 v 1.803961 h -6.08077 z m 3.04039,-10.821741 m 0,0 c -2.77993,0 -5.06731,2.03503 -5.06731,4.50889 0,2.473859 2.28738,4.508889 5.06731,4.508889 2.77992,0 5.0673,-2.03503 5.0673,-4.508889 0,-2.47386 -2.28738,-4.50889 -5.0673,-4.50889 z m 0,1.802948 c 1.66714,0 3.04038,1.221221 3.04038,2.705942 0,1.483707 -1.37324,2.705941 -3.04038,2.705941 -1.66816,0 -3.04039,-1.222234 -3.04039,-2.705941 0,-1.484721 1.37223,-2.705942 3.04039,-2.705942 z m -7.12464,0.13783 -1.43303,-1.274934 4.30011,-3.82683 1.43304,1.275948 z m 10.03327,-3.825816 4.2991,-3.826831 4.30012,3.826831 -4.30012,3.825816 z m -12.89934,1.274934 -1.43303,-1.274934 4.2991,-3.826831 1.43304,1.275948 z"
         style="display:inline;enable-background:new;clip-rule:evenodd;fill-opacity:0.3;fill-rule:nonzero;stroke-width:1.01346;stroke-linejoin:round;stroke-miterlimit:2"
         id="path221" />
      <path
         d="m 342.2741,160.995 c 0,-0.10972 -0.0436,-0.21547 -0.12162,-0.29346 -0.078,-0.0773 -0.18374,-0.12162 -0.29346,-0.12162 h -11.6255 c -0.11038,0 -0.21614,0.0443 -0.29347,0.12162 -0.078,0.078 -0.12161,0.18374 -0.12161,0.29346 V 161 c 0,0.11038 0.0436,0.21613 0.12161,0.29346 0.0773,0.078 0.18309,0.12161 0.29347,0.12161 h 11.6255 c 0.10972,0 0.21547,-0.0436 0.29346,-0.12161 0.078,-0.0773 0.12162,-0.18308 0.12162,-0.29346 z"
         style="display:inline;enable-background:new;clip-rule:evenodd;fill:url(#linearGradient251);fill-rule:evenodd;stroke-width:0.660953;stroke-linejoin:round;stroke-miterlimit:2"
         id="path237" />
      <circle
         cx="344.96945"
         cy="160.85422"
         r="1.1533631"
         style="display:inline;enable-background:new;clip-rule:evenodd;fill:url(#linearGradient253);fill-rule:evenodd;stroke-width:0.660953;stroke-linejoin:round;stroke-miterlimit:2"
         id="circle239" />
      <path
         d="m 345.48303,160.62685 c -0.0403,-0.0806 -0.0972,-0.14806 -0.16987,-0.20225 -0.0211,-0.0165 -0.0449,-0.0225 -0.0714,-0.0192 -0.0264,0.003 -0.0476,0.0159 -0.0634,0.0377 -0.0159,0.0212 -0.0218,0.0443 -0.0179,0.0707 0.003,0.0264 0.0159,0.0476 0.037,0.0635 0.0489,0.037 0.0866,0.0826 0.11369,0.13615 0.0264,0.0535 0.0403,0.11038 0.0403,0.17119 0,0.0522 -0.0106,0.10179 -0.0304,0.14871 -0.0205,0.0476 -0.0476,0.0886 -0.0826,0.12294 -0.0344,0.0344 -0.0754,0.0621 -0.12227,0.082 -0.0476,0.0205 -0.0972,0.0304 -0.14938,0.0304 -0.0522,0 -0.10179,-0.01 -0.14871,-0.0304 -0.0476,-0.0198 -0.0886,-0.0476 -0.12294,-0.082 -0.0344,-0.0344 -0.0621,-0.0754 -0.082,-0.12294 -0.0205,-0.0469 -0.0304,-0.0965 -0.0304,-0.14871 0,-0.0608 0.0132,-0.11765 0.0396,-0.17119 0.0271,-0.0535 0.0648,-0.0991 0.11369,-0.13615 0.0211,-0.0159 0.0337,-0.037 0.0377,-0.0635 0.003,-0.0258 -0.003,-0.0496 -0.0185,-0.0707 -0.0159,-0.0218 -0.0364,-0.0344 -0.0628,-0.0377 -0.0264,-0.003 -0.0502,0.003 -0.072,0.0192 -0.0727,0.0542 -0.12955,0.12161 -0.16986,0.20225 -0.0403,0.0806 -0.0602,0.16656 -0.0602,0.25777 0,0.078 0.0152,0.15268 0.0456,0.2234 0.0304,0.0714 0.0714,0.13285 0.12293,0.18441 0.0516,0.0515 0.11303,0.0925 0.18441,0.12293 0.0707,0.0304 0.14541,0.0456 0.2234,0.0456 0.078,0 0.15268,-0.0152 0.22406,-0.0456 0.0707,-0.0304 0.13219,-0.0714 0.18375,-0.12293 0.0515,-0.0516 0.0925,-0.11303 0.12294,-0.18441 0.0304,-0.0707 0.0456,-0.14541 0.0456,-0.2234 0,-0.0912 -0.0198,-0.17714 -0.0601,-0.25777 z m -0.51621,0.25777 c 0.0258,0 0.0489,-0.01 0.0674,-0.0284 0.0192,-0.0192 0.0291,-0.0416 0.0291,-0.0681 v -0.48051 c 0,-0.0258 -0.01,-0.0483 -0.0291,-0.0674 -0.0185,-0.0192 -0.0416,-0.0284 -0.0674,-0.0284 -0.0258,0 -0.0482,0.009 -0.0674,0.0284 -0.0192,0.0192 -0.0284,0.0416 -0.0284,0.0674 v 0.48051 c 0,0.0264 0.009,0.0489 0.0284,0.0681 0.0192,0.0185 0.0416,0.0284 0.0674,0.0284 z"
         style="display:inline;enable-background:new;clip-rule:evenodd;fill:#e3e8ea;fill-rule:nonzero;stroke-width:0.660953;stroke-linejoin:round;stroke-miterlimit:2"
         id="path241" />
      <path
         d="m 334.02937,151.5665 h 3.96572 v 1.1765 h -3.96572 z m 0,-2.35233 h 3.96572 v 1.1765 h -3.96572 z m 1.98286,-7.05766 m 0,0 c -1.813,0 -3.30477,1.3272 -3.30477,2.94058 0,1.61339 1.49177,2.94058 3.30477,2.94058 1.81299,0 3.30476,-1.32719 3.30476,-2.94058 0,-1.61338 -1.49177,-2.94058 -3.30476,-2.94058 z m 0,1.17584 c 1.08727,0 1.98286,0.79645 1.98286,1.76474 0,0.96764 -0.89559,1.76475 -1.98286,1.76475 -1.08793,0 -1.98286,-0.79711 -1.98286,-1.76475 0,-0.96829 0.89493,-1.76474 1.98286,-1.76474 z m -4.6465,0.0899 -0.93459,-0.83148 2.80442,-2.49576 0.93459,0.83214 z m 6.54343,-2.4951 2.80377,-2.49576 2.80442,2.49576 -2.80442,2.4951 z m -8.41261,0.83148 -0.93459,-0.83148 2.80377,-2.49576 0.93459,0.83214 z"
         style="display:inline;enable-background:new;clip-rule:evenodd;fill-opacity:0.3;fill-rule:nonzero;stroke-width:0.660953;stroke-linejoin:round;stroke-miterlimit:2"
         id="path243" />
      <path
         d="m 336.81014,209.96284 c 0,-0.0841 -0.0335,-0.1652 -0.0932,-0.22499 -0.0598,-0.0593 -0.14087,-0.0932 -0.22499,-0.0932 h -8.91289 c -0.0846,0 -0.1657,0.034 -0.22499,0.0932 -0.0598,0.0598 -0.0932,0.14087 -0.0932,0.22499 v 0.004 c 0,0.0846 0.0334,0.1657 0.0932,0.22499 0.0593,0.0598 0.14037,0.0932 0.22499,0.0932 h 8.91289 c 0.0841,0 0.16519,-0.0335 0.22499,-0.0932 0.0598,-0.0593 0.0932,-0.14037 0.0932,-0.22499 z"
         style="display:inline;enable-background:new;clip-rule:evenodd;fill:url(#linearGradient273);fill-rule:evenodd;stroke-width:0.506731;stroke-linejoin:round;stroke-miterlimit:2"
         id="path259" />
      <circle
         cx="338.87659"
         cy="209.8549"
         r="0.8842451"
         style="display:inline;enable-background:new;clip-rule:evenodd;fill:url(#linearGradient275);fill-rule:evenodd;stroke-width:0.506731;stroke-linejoin:round;stroke-miterlimit:2"
         id="circle261" />
      <path
         d="m 339.27031,209.68059 c -0.0309,-0.0618 -0.0745,-0.11351 -0.13023,-0.15506 -0.0162,-0.0127 -0.0344,-0.0172 -0.0547,-0.0147 -0.0203,0.003 -0.0365,0.0122 -0.0486,0.0289 -0.0122,0.0162 -0.0167,0.034 -0.0137,0.0542 0.003,0.0203 0.0122,0.0365 0.0284,0.0486 0.0375,0.0284 0.0664,0.0633 0.0872,0.10439 0.0203,0.041 0.0309,0.0846 0.0309,0.13124 0,0.04 -0.008,0.078 -0.0233,0.11402 -0.0157,0.0365 -0.0365,0.0679 -0.0633,0.0942 -0.0264,0.0264 -0.0578,0.0476 -0.0937,0.0628 -0.0365,0.0157 -0.0745,0.0233 -0.11452,0.0233 -0.04,0 -0.078,-0.008 -0.11402,-0.0233 -0.0365,-0.0152 -0.0679,-0.0365 -0.0942,-0.0628 -0.0263,-0.0264 -0.0476,-0.0578 -0.0628,-0.0942 -0.0157,-0.036 -0.0233,-0.074 -0.0233,-0.11402 0,-0.0466 0.0101,-0.0902 0.0304,-0.13124 0.0208,-0.0411 0.0497,-0.076 0.0872,-0.10439 0.0162,-0.0122 0.0258,-0.0284 0.0289,-0.0486 0.003,-0.0198 -0.002,-0.038 -0.0142,-0.0542 -0.0122,-0.0167 -0.0279,-0.0263 -0.0481,-0.0289 -0.0203,-0.003 -0.0385,0.002 -0.0552,0.0147 -0.0557,0.0416 -0.0993,0.0932 -0.13023,0.15506 -0.0309,0.0618 -0.0461,0.12769 -0.0461,0.19762 0,0.0598 0.0117,0.11706 0.035,0.17128 0.0233,0.0547 0.0547,0.10185 0.0942,0.14138 0.0395,0.0395 0.0867,0.0709 0.14138,0.0943 0.0542,0.0233 0.11148,0.035 0.17128,0.035 0.0598,0 0.11705,-0.0117 0.17178,-0.035 0.0542,-0.0233 0.10135,-0.0547 0.14087,-0.0943 0.0395,-0.0395 0.0709,-0.0867 0.0942,-0.14138 0.0233,-0.0542 0.035,-0.11148 0.035,-0.17128 0,-0.0699 -0.0152,-0.1358 -0.0461,-0.19762 z m -0.39575,0.19762 c 0.0198,0 0.0375,-0.008 0.0517,-0.0218 0.0147,-0.0147 0.0223,-0.0319 0.0223,-0.0522 v -0.36839 c 0,-0.0198 -0.008,-0.037 -0.0223,-0.0517 -0.0142,-0.0147 -0.0319,-0.0218 -0.0517,-0.0218 -0.0198,0 -0.037,0.007 -0.0517,0.0218 -0.0147,0.0147 -0.0218,0.0319 -0.0218,0.0517 v 0.36839 c 0,0.0203 0.007,0.0375 0.0218,0.0522 0.0147,0.0142 0.0319,0.0218 0.0517,0.0218 z"
         style="display:inline;enable-background:new;clip-rule:evenodd;fill:#e3e8ea;fill-rule:nonzero;stroke-width:0.506731;stroke-linejoin:round;stroke-miterlimit:2"
         id="path263" />
      <path
         d="m 330.48918,202.73432 h 3.04038 v 0.90198 h -3.04038 z m 0,-1.80345 h 3.04038 v 0.90198 h -3.04038 z m 1.52019,-5.41087 m 0,0 c -1.38996,0 -2.53365,1.01751 -2.53365,2.25444 0,1.23693 1.14369,2.25445 2.53365,2.25445 1.38996,0 2.53365,-1.01752 2.53365,-2.25445 0,-1.23693 -1.14369,-2.25444 -2.53365,-2.25444 z m 0,0.90147 c 0.83357,0 1.52019,0.61061 1.52019,1.35297 0,0.74186 -0.68662,1.35297 -1.52019,1.35297 -0.83408,0 -1.52019,-0.61111 -1.52019,-1.35297 0,-0.74236 0.68611,-1.35297 1.52019,-1.35297 z m -3.56232,0.0689 -0.71651,-0.63747 2.15005,-1.91342 0.71652,0.63798 z m 5.01664,-1.91291 2.14955,-1.91342 2.15006,1.91342 -2.15006,1.91291 z m -6.44967,0.63747 -0.71652,-0.63747 2.14955,-1.91342 0.71652,0.63798 z"
         style="display:inline;enable-background:new;clip-rule:evenodd;fill-opacity:0.3;fill-rule:nonzero;stroke-width:0.506731;stroke-linejoin:round;stroke-miterlimit:2"
         id="path265" />
      <path
         d="m 331.13705,250.4975 c 0,-0.0549 -0.0218,-0.10774 -0.0608,-0.14674 -0.039,-0.0387 -0.0919,-0.0608 -0.14673,-0.0608 h -5.81275 c -0.0552,0 -0.10807,0.0221 -0.14673,0.0608 -0.039,0.039 -0.0608,0.0919 -0.0608,0.14674 v 0.003 c 0,0.0552 0.0218,0.10807 0.0608,0.14673 0.0387,0.039 0.0915,0.0608 0.14673,0.0608 h 5.81275 c 0.0549,0 0.10774,-0.0218 0.14673,-0.0608 0.039,-0.0387 0.0608,-0.0915 0.0608,-0.14673 z"
         style="display:inline;enable-background:new;clip-rule:evenodd;fill:url(#linearGradient295);fill-rule:evenodd;stroke-width:0.330477;stroke-linejoin:round;stroke-miterlimit:2"
         id="path281" />
      <circle
         cx="332.48474"
         cy="250.42711"
         r="0.57668155"
         style="display:inline;enable-background:new;clip-rule:evenodd;fill:url(#linearGradient297);fill-rule:evenodd;stroke-width:0.330477;stroke-linejoin:round;stroke-miterlimit:2"
         id="circle283" />
      <path
         d="m 332.74151,250.31342 c -0.0202,-0.0403 -0.0486,-0.074 -0.0849,-0.10113 -0.0106,-0.008 -0.0225,-0.0112 -0.0357,-0.01 -0.0132,0.002 -0.0238,0.008 -0.0317,0.0188 -0.008,0.0106 -0.0109,0.0221 -0.009,0.0354 0.002,0.0132 0.008,0.0238 0.0185,0.0317 0.0245,0.0185 0.0433,0.0413 0.0568,0.0681 0.0132,0.0268 0.0202,0.0552 0.0202,0.0856 0,0.0261 -0.005,0.0509 -0.0152,0.0744 -0.0102,0.0238 -0.0238,0.0443 -0.0413,0.0615 -0.0172,0.0172 -0.0377,0.0311 -0.0611,0.041 -0.0238,0.0102 -0.0486,0.0152 -0.0747,0.0152 -0.0261,0 -0.0509,-0.005 -0.0744,-0.0152 -0.0238,-0.01 -0.0443,-0.0238 -0.0615,-0.041 -0.0172,-0.0172 -0.0311,-0.0377 -0.041,-0.0615 -0.0102,-0.0235 -0.0152,-0.0482 -0.0152,-0.0744 0,-0.0304 0.007,-0.0588 0.0198,-0.0856 0.0135,-0.0268 0.0324,-0.0496 0.0568,-0.0681 0.0106,-0.008 0.0169,-0.0185 0.0188,-0.0317 0.002,-0.0129 -10e-4,-0.0248 -0.009,-0.0354 -0.008,-0.0109 -0.0182,-0.0172 -0.0314,-0.0188 -0.0132,-0.002 -0.0251,0.001 -0.036,0.01 -0.0364,0.0271 -0.0648,0.0608 -0.0849,0.10113 -0.0202,0.0403 -0.0301,0.0833 -0.0301,0.12889 0,0.039 0.008,0.0763 0.0228,0.1117 0.0152,0.0357 0.0357,0.0664 0.0615,0.0922 0.0258,0.0258 0.0565,0.0463 0.0922,0.0615 0.0354,0.0152 0.0727,0.0228 0.1117,0.0228 0.039,0 0.0763,-0.008 0.11203,-0.0228 0.0354,-0.0152 0.0661,-0.0357 0.0919,-0.0615 0.0258,-0.0258 0.0463,-0.0565 0.0615,-0.0922 0.0152,-0.0354 0.0228,-0.0727 0.0228,-0.1117 0,-0.0456 -0.01,-0.0886 -0.0301,-0.12889 z m -0.2581,0.12889 c 0.0129,0 0.0245,-0.005 0.0337,-0.0142 0.01,-0.01 0.0145,-0.0208 0.0145,-0.034 v -0.24026 c 0,-0.0129 -0.005,-0.0241 -0.0145,-0.0337 -0.009,-0.01 -0.0208,-0.0142 -0.0337,-0.0142 -0.0129,0 -0.0241,0.005 -0.0337,0.0142 -0.01,0.01 -0.0142,0.0208 -0.0142,0.0337 v 0.24026 c 0,0.0132 0.005,0.0245 0.0142,0.034 0.01,0.009 0.0208,0.0142 0.0337,0.0142 z"
         style="display:inline;enable-background:new;clip-rule:evenodd;fill:#e3e8ea;fill-rule:nonzero;stroke-width:0.330477;stroke-linejoin:round;stroke-miterlimit:2"
         id="path285" />
      <path
         d="m 327.01469,245.78325 h 1.98285 v 0.58825 h -1.98285 z m 0,-1.17617 h 1.98285 v 0.58825 h -1.98285 z m 0.99142,-3.52883 m 0,0 c -0.90649,0 -1.65238,0.6636 -1.65238,1.47029 0,0.8067 0.74589,1.47029 1.65238,1.47029 0.9065,0 1.65239,-0.66359 1.65239,-1.47029 0,-0.80669 -0.74589,-1.47029 -1.65239,-1.47029 z m 0,0.58792 c 0.54364,0 0.99143,0.39823 0.99143,0.88237 0,0.48382 -0.44779,0.88238 -0.99143,0.88238 -0.54396,0 -0.99142,-0.39856 -0.99142,-0.88238 0,-0.48414 0.44746,-0.88237 0.99142,-0.88237 z m -2.32325,0.045 -0.46729,-0.41574 1.40221,-1.24788 0.4673,0.41607 z m 3.27172,-1.24755 1.40188,-1.24788 1.40222,1.24788 -1.40222,1.24755 z m -4.2063,0.41574 -0.4673,-0.41574 1.40188,-1.24788 0.4673,0.41607 z"
         style="display:inline;enable-background:new;clip-rule:evenodd;fill-opacity:0.3;fill-rule:nonzero;stroke-width:0.330477;stroke-linejoin:round;stroke-miterlimit:2"
         id="path287" />
    </g>
  </g>
</svg>
