<svg clip-rule="evenodd" fill-rule="evenodd" stroke-linecap="round" stroke-linejoin="round" stroke-miterlimit="1.5" viewBox="0 0 48 48" xmlns="http://www.w3.org/2000/svg">
 <path d="m33.525 38.857c-6.525 4.002-15.389 3.003-21.274-2.882-5.904-5.904-6.89-14.809-2.84-21.341" fill="none" stroke="#848484" stroke-width="3.5px"/>
 <path d="m27.76 33.029c-2.83 1.518-7.021 0.576-10.082-2.486-3.073-3.072-4.01-7.281-2.47-10.112" fill="none" stroke="#848484" stroke-width="3px"/>
 <path d="m11.739 9.605 15.859-0.303 4.175-4.175c0.707-0.707 1.414 0 1.414 0l9.9 9.899s0.707 0.707 0 1.415l-4.176 4.175-0.302 15.859c-10.076-7.613-19.04-16.562-26.87-26.87z" fill="url(#a)" fill-rule="nonzero"/>
 <path d="m41.611 17.916-11.314-11.313-2.699 2.699 11.313 11.314 2.7-2.7z" fill="#6e6e6e"/>
 <defs>
  <linearGradient id="a" x2="1" gradientTransform="matrix(12.963 -12.963 12.963 12.963 87.562 85.428)" gradientUnits="userSpaceOnUse">
   <stop stop-color="#7e7e7e" offset="0"/>
   <stop stop-color="#9f9f9f" offset="1"/>
  </linearGradient>
 </defs>
</svg>
