<svg version="1.1" viewBox="0 0 16 16" xmlns="http://www.w3.org/2000/svg">
 <path d="m8 0.5c-2.7616 0-5 2.2385-5 5v5c0 2.7615 2.2384 5 5 5 2.7614 0 5-2.2385 5-5v-5c0-2.7615-2.2386-5-5-5zm-0.33935 2.4244c0.087458 0.010025 0.17272 0.042847 0.24414 0.1001l2.9859 2.395c0.11271 0.090334 0.17822 0.22668 0.17822 0.3711 0 0.14443-0.06551 0.28072-0.17822 0.3711l-2.2949 1.8384 2.2949 1.8384c0.11271 0.09034 0.17822 0.22664 0.17822 0.3711s-0.06551 0.28316-0.17822 0.37354l-2.9859 2.3926c-0.086125 0.06904-0.19156 0.10499-0.29785 0.10499-0.07 0-0.13954-0.01741-0.20508-0.04883-0.16504-0.07921-0.271-0.24418-0.271-0.42725v-3.418l-1.4234 1.1499c-0.088084 0.07121-0.19516 0.10742-0.30029 0.10742-0.13879 0-0.27701-0.06185-0.3711-0.17823-0.16529-0.20446-0.13121-0.50365 0.073242-0.66895l1.9726-1.5966-1.9726-1.5942c-0.20446-0.16529-0.23854-0.46692-0.073242-0.67139 0.16529-0.2045 0.46698-0.23605 0.67139-0.070801l1.4234 1.1524v-3.418c0-0.18309 0.10596-0.35048 0.271-0.42969 0.082541-0.039604 0.17132-0.053971 0.25879-0.043945zm0.42236 1.4649v2.8028l1.748-1.4014zm0 4.419v2.8028l1.748-1.4014z" fill="#bebebe" stroke-width="1.25"/>
</svg>
