<svg version="1.1" viewBox="0 0 16 16" xmlns="http://www.w3.org/2000/svg">
 <path class="ColorScheme-Text" d="m7.0625 0.0097656c-0.4543 0.0495-0.88397 0.2214-1.25 0.5-0.48804 0.37146-0.8125 0.95486-0.8125 1.6875v3.8125h-2.2734c-0.40276 0-0.72656 0.3238-0.72656 0.72656v6.5449c0 0.40276 0.3238 0.72852 0.72656 0.72852h5.5469c0.40276 0 0.72656-0.32576 0.72656-0.72852v-6.5449c0-0.40276-0.3238-0.72656-0.72656-0.72656h-2.2734v-3.8125c0-0.4491 0.17164-0.70389 0.4375-0.90625s0.66376-0.30023 1.0625-0.28125c0.39874 0.019 0.78428 0.15409 1.0625 0.40625s0.46875 0.5845 0.46875 1.125c0 2.1653 1.4638 3.5091 3 3.4688 0.85672-0.0225 1.6882-0.47696 2.25-1.3125l-0.5625-1c-0.37537 0.9157-1.0678 1.2954-1.7188 1.3125-0.96046 0.0252-1.9688-0.72975-1.9688-2.4688 0-0.79197-0.33682-1.4439-0.8125-1.875-0.47568-0.43112-1.081-0.62738-1.6875-0.65625-0.15162-7e-3 -0.31732-0.0165-0.46875 0zm6.9375 2c0 0.0455 8.9e-4 0.0807 0 0.125l0.78125 1.375c0.0114-0.0408 0.02085-0.0833 0.03125-0.125l-0.8125-1.375zm0 0.34375c-6e-3 0.10599-0.02025 0.21386-0.03125 0.3125l0.71875 1.2188c0.0234-0.0625 0.0415-0.12233 0.0625-0.1875l-0.75-1.3438zm-0.0625 0.5c-0.0138 0.0899-0.0444 0.16659-0.0625 0.25l0.65625 1.125c0.0293-0.0609 0.06705-0.12359 0.09375-0.1875l-0.6875-1.1875zm-0.09375 0.4375c-0.0237 0.0889-0.06545 0.16899-0.09375 0.25l0.59375 1.0312c0.0401-0.0651 0.088-0.1182 0.125-0.1875l-0.625-1.0938z" fill="#bebebe"/>
</svg>
