<svg version="1.1" viewBox="0 0 16 16" xmlns="http://www.w3.org/2000/svg">
 <path d="m2.9531 0.5c-0.34899 0-0.6832 0.13758-0.9082 0.37305-0.22501 0.23547-0.33907 0.54302-0.37109 0.86328v-0.011719l-1.2852 10.137a0.47594 0.47594 0 0 0-0.0019531 0.060547h-0.0019531l0.0019531 0.023437a0.47594 0.47594 0 0 0 0.0058594 0.058594l0.23047 2.7324c0.04759 0.39105 0.33074 0.70508 0.80664 0.70508h13.188c0.4759 0 0.761-0.31402 0.80859-0.70508l0.1875-2.7969 0.001953-0.017578h-0.001953a0.47594 0.47594 0 0 0-0.001953-0.060547l-1.2852-10.137a0.47594 0.47594 0 0 0-0.00586-0.033203c-0.058256-0.29129-0.1632-0.57664-0.37695-0.81055-0.21375-0.2339-0.54749-0.38086-0.89648-0.38086h-10.094zm0 0.95117h10.094c0.1269 0 0.14813 0.020632 0.19531 0.072266 0.04657 0.050961 0.10551 0.1691 0.14258 0.34961l1.2617 9.9453-0.0625 0.10352h-13.236l-0.0039062-0.017578 1.2754-10.059a0.47594 0.47594 0 0 0 0.0019532-0.013672c0.015562-0.15564 0.065436-0.25071 0.11328-0.30078s0.091844-0.080078 0.21875-0.080078zm2.4434 1.5332-1.5 1.2109 0.5 0.40234 1.502-1.2109-0.50195-0.40234zm5.0059 0-1.502 1.2109 1.502 1.209 1.502-1.209-1.502-1.2109zm-4.0039 0.80664-1.502 1.2109 0.5 0.40234 1.502-1.209-0.5-0.4043zm1.5039 0.99414c-0.97724 0-1.7695 0.63786-1.7695 1.4258s0.7923 1.4277 1.7695 1.4277c0.97724 0 1.7695-0.63982 1.7695-1.4277s-0.7923-1.4258-1.7695-1.4258zm0 0.57031c0.58634 0 1.0605 0.38272 1.0605 0.85547s-0.4742 0.85547-1.0605 0.85547c-0.58634 0-1.0625-0.38272-1.0625-0.85547s0.47616-0.85547 1.0625-0.85547zm-1.0625 2.8535v0.57031h2.123v-0.57031h-2.123zm0 1.1406v0.57031h2.123v-0.57031h-2.123z" fill="#bebebe"/>
</svg>
