<svg version="1.1" viewBox="0 0 16 16" xmlns="http://www.w3.org/2000/svg">
 <path d="m3.197 0a2.217 2.217 0 0 0-2.197 2.201v11.599c0 1.199 0.995 2.2 2.197 2.2h9.607a2.215 2.215 0 0 0 2.196-2.201v-11.599c0-1.199-0.994-2.2-2.196-2.2zm0 2h9.607c0.124 0 0.196 0.07 0.196 0.201v11.599c0 0.13-0.072 0.201-0.196 0.201h-9.607c-0.124-1e-3 -0.197-0.071-0.197-0.202v-11.599c0-0.13 0.073-0.201 0.197-0.201z" color="#bebebe" fill="#bebebe" font-weight="400" overflow="visible" style="font-feature-settings:normal;font-variant-alternates:normal;font-variant-caps:normal;font-variant-ligatures:normal;font-variant-numeric:normal;font-variant-position:normal;isolation:auto;mix-blend-mode:normal;shape-padding:0;text-decoration-color:#000000;text-decoration-line:none;text-decoration-style:solid;text-indent:0;text-orientation:mixed;text-transform:none"/>
 <path d="m8 4.6685-3 2.915v0.416h6v-0.416zm-3 4.3315v1h6v-1z" color="#000000" fill="#bebebe" font-weight="400" overflow="visible" style="font-feature-settings:normal;font-variant-alternates:normal;font-variant-caps:normal;font-variant-ligatures:normal;font-variant-numeric:normal;font-variant-position:normal;isolation:auto;mix-blend-mode:normal;shape-padding:0;text-decoration-color:#000000;text-decoration-line:none;text-decoration-style:solid;text-indent:0;text-orientation:mixed;text-transform:none;white-space:normal"/>
</svg>
