<svg version="1.1" viewBox="0 0 16 16" xmlns="http://www.w3.org/2000/svg">
 <path d="m7.6309 1c-0.95457 0.0098934-1.9823 0.093563-2.6816 0.70508-1.0712 0.93662-0.9358 1.5833-1.041 2.8652-0.21477 2.6169-0.13295 6.2046 0.4375 8.7812 0.16733 0.75579 0.93339 1.2861 1.7441 1.4316 0.62225 0.11172 1.2658 0.19637 1.9102 0.2168 0.64437-0.02042 1.2879-0.10507 1.9102-0.2168 0.81075-0.14557 1.5768-0.67585 1.7441-1.4316 0.57045-2.5766 0.65227-6.1644 0.4375-8.7812-0.10522-1.2819 0.030165-1.9286-1.041-2.8652-0.69936-0.61152-1.7251-0.69519-2.6797-0.70508-0.12476-0.001213-0.24965-1.491e-4 -0.37109 0-0.12145-1.491e-4 -0.24438-0.001213-0.36914 0zm0.36914 2c0.33252 0 0.59961 0.2738 0.59961 0.61523v1.7676c0 0.34143-0.26709 0.61719-0.59961 0.61719-0.33253 0-0.59961-0.27576-0.59961-0.61719v-1.7676c0-0.34143 0.26708-0.61523 0.59961-0.61523z" fill="#bebebe" stroke-width=".31512"/>
</svg>
