<svg version="1.1" viewBox="0 0 16 16" xmlns="http://www.w3.org/2000/svg">
 <g transform="matrix(1.0834 0 0 1.0834 13.158 -.45686)">
  <g fill="#bebebe">
   <path d="m-7.4316 3.3438v8.7949c-6e-6 0.17248 0.20128 0.31055 0.45312 0.31055h4.4336c0.25184 0 0.45312-0.13806 0.45312-0.31055l0.00195-8.7949zm1.2305 0.46484c0.41421 0 0.75 0.33579 0.75 0.75s-0.33579 0.75-0.75 0.75-0.75-0.33579-0.75-0.75 0.33579-0.75 0.75-0.75zm2.3869 0.5175-1.2461 2.9414 2.0801 1.1035v0.017578l-2.9141 3.1738 1.2461-2.9414-2.082-1.1055z" enable-background="new" fill-opacity=".66667" stroke-width=".70938"/>
   <path d="m-8.2709 12.826c0 0.28587 0.23255 0.51758 0.51758 0.51758h5.9844c0.2863 0 0.51758-0.2317 0.51758-0.51758v-10.041c0-0.28628-0.2317-0.51758-0.51758-0.51758h-5.9844c-0.28503 0-0.51758 0.23128-0.51758 0.51758zm0.83984-0.83008v-8.1094c0-0.25183 0.20129-0.45703 0.45312-0.45703h4.4336c0.25183 0 0.45312 0.2052 0.45312 0.45703v8.1094c0 0.25183-0.2013 0.45312-0.45312 0.45312h-4.4336c-0.25183 0-0.45312-0.20129-0.45312-0.45312z" enable-background="new" stroke-width=".85714"/>
  </g>
 </g>
</svg>
