<svg version="1.1" viewBox="0 0 16 16" xmlns="http://www.w3.org/2000/svg">
 <g fill="#bebebe">
  <path d="m8.5327 3.4733c-0.35194-1e-6 -0.66611 0.28818-0.63693 0.63891v6.2368c0 0.35194 0.28499 0.63693 0.63693 0.63693l5.8284 1.6e-5c0.35367 1e-6 0.63891-0.28645 0.63891-0.63693v-6.2368c0-0.35367-0.28524-0.63891-0.63891-0.63891zm0.21363 0.84661 5.4011 1.59e-5v5.8194l-5.4011-1.6e-5z" stroke-width=".50069"/>
  <path d="m10.697 10.312v2.3687l-1.4996-3.96e-4v0.62906l4.4989 3.97e-4v-0.62907h-1.4001v-2.3687z" stroke-width=".49426"/>
  <path d="m1.6467 5.4493c-0.35907 0-0.64665 0.28959-0.64665 0.64866v4.2394c0 0.35731 0.29057 0.67627 0.64665 0.64665h5.9143c0.35731 0 0.64665-0.28934 0.64665-0.64665v-4.2394c0-0.35907-0.29082-0.64866-0.64665-0.64866zm0.21287 0.79125h5.4886v3.9562h-5.4886z" stroke-width=".50833"/>
  <path d="m3.854 10.312v2.3687l-1.4996-3.96e-4v0.62906l4.4989 3.97e-4v-0.62907h-1.4001v-2.3687z" stroke-width=".49426"/>
 </g>
</svg>
