<svg version="1.1" viewBox="0 0 16 16" xmlns="http://www.w3.org/2000/svg">
 <path d="m2.2734 2.0234c-0.70636 0-1.2734 0.56512-1.2734 1.2715v7.6367a1.2727 1.2727 0 0 0 1.2734 1.2734h4.4531v1.2715h-1.2715v1.2734h5.0898v-1.2734h-1.2715v-1.2715h4.4531a1.2727 1.2727 0 0 0 1.2734-1.2734v-7.6367c0-0.70636-0.57344-1.2715-1.2734-1.2715zm0 1.2715h11.453v7.6367h-11.453z" fill="#bebebe"/>
 <path transform="matrix(.65844 0 0 .65844 28.852 7.3984)" d="m-30.645 3.3644h-1.5052v-5.8021l-1.7969 0.55729v-1.224l3.1406-1.125h0.16146z" fill="#bebebe"/>
</svg>
