<svg version="1.1" viewBox="0 0 16 16" xmlns="http://www.w3.org/2000/svg">
 <g transform="matrix(-1 0 0 1 15.998 0)" fill="#bebebe">
  <path d="m5 4v4h3.5c1 0 1.5 0 1.5-1v-3c0-1-0.5-1-1.5-1h-2c-1 0-1.5 0-1.5 1zm1 0h3v1h-3zm0 2h3v1h-3z"/>
  <path d="m4 7v-1c0-0.55078-0.44922-1-1-1h-2c0-1 0.5-1 1.5-1h1.5c0.55078 0 1 0.44922 1 1h1v2z"/>
  <path d="m15 3-1 1h-4v2h6v-1.5c0-1 0-1.5-1-1.5z"/>
  <path d="m8 8c-1.1328 1.3947-0.052483 2.0183 0 3-1.5 0-2-1.5-2-3z"/>
  <path d="m4.2773 6.0527s-4.2773 2.0663-4.2773 5.9473c0 0.5-0.036708 0.91877 0.17773 1.3477 0.10722 0.21444 0.30618 0.41126 0.54102 0.51562s0.48958 0.13672 0.78125 0.13672h2c0.29167 0 0.54642-0.03235 0.78125-0.13672s0.43379-0.30118 0.54102-0.51562c0.21444-0.42888 0.17773-0.84766 0.17773-1.3477v-2.5c0-0.41667 0.11213-0.82933 0.29102-1.0977 0.17888-0.26833 0.37565-0.40234 0.70898-0.40234v-1c-0.21148 0-0.41084 0.037847-0.5957 0.10352l-0.9043-0.60352z" color="#000000" stroke-linejoin="round" stroke-width="1px" style="-inkscape-stroke:none"/>
 </g>
</svg>
