<svg version="1.1" viewBox="0 0 16 16" xmlns="http://www.w3.org/2000/svg">
 <g fill="#bebebe">
  <path d="m15.07 1.0703-12.199 12.199 0.70703 0.70703 4.9238-4.9238c0.083097 0.73706-0.46674 1.252-0.50391 1.9473 1.5 0 2-1.5 2-3 0.33333 0 0.5301 0.13401 0.70898 0.40234 0.17889 0.26837 0.29102 0.68095 0.29102 1.0977v2.5c0 0.50004-0.036702 0.91874 0.17773 1.3477 0.10723 0.21444 0.30619 0.41126 0.54102 0.51562 0.23483 0.10437 0.48958 0.13672 0.78125 0.13672h2c0.29167 0 0.54641-0.032358 0.78125-0.13672s0.4338-0.30118 0.54102-0.51562c0.21444-0.42893 0.17774-0.84762 0.17774-1.3477 0-3.2876-3.0615-5.2666-4-5.7969v-0.20312c0-0.55078 0.44922-1 1-1h2c0-0.97986-0.48319-0.9996-1.4434-1l2.2227-2.2227-0.70703-0.70703zm-14.072 1.9297c-1 0-1 0.5-1 1.5v1.5h6v1c0 0.64767 0.21334 0.87272 0.63281 0.95312l0.95312-0.95312h-0.58594v-1h1.5859l1-1h-2.5859v-1h3v0.58594l0.96484-0.96484c-0.12615-0.61831-0.61296-0.62109-1.4648-0.62109h-2c-1 0-1.5 0-1.5 1h-4l-1-1z"/>
 </g>
</svg>
