<svg version="1.1" viewBox="0 0 16 16" xmlns="http://www.w3.org/2000/svg">
 <path d="m2.9531 0.5c-0.34899 0-0.6832 0.13758-0.9082 0.37305-0.22501 0.23547-0.33907 0.54302-0.37109 0.86328v-0.011719l-1.2852 10.137a0.47594 0.47594 0 0 0-0.0019531 0.060547h-0.0019531l0.0019531 0.023437a0.47594 0.47594 0 0 0 0.0058594 0.058594l0.23047 2.7324c0.04759 0.39105 0.33074 0.70508 0.80664 0.70508h13.188c0.4759 0 0.761-0.31402 0.80859-0.70508l0.1875-2.7969 0.001953-0.017578h-0.001953a0.47594 0.47594 0 0 0-0.001953-0.060547l-1.2852-10.137a0.47594 0.47594 0 0 0-0.00586-0.033203c-0.058256-0.29129-0.1632-0.57664-0.37695-0.81055-0.21375-0.2339-0.54749-0.38086-0.89648-0.38086h-10.094zm0 0.95117h10.094c0.1269 0 0.14813 0.020632 0.19531 0.072266 0.04657 0.050961 0.10551 0.1691 0.14258 0.34961l1.2617 9.9453-0.0625 0.10352h-3.252-0.47656-9.5078l-0.0039062-0.017578 1.2754-10.059a0.47594 0.47594 0 0 0 0.0019532-0.013672c0.015562-0.15564 0.065436-0.25071 0.11328-0.30078s0.091844-0.080078 0.21875-0.080078zm5.0605 1.3262c-0.047197 7.52e-5 -0.089528 0.018675-0.11133 0.048828l-0.81641 1.1289c-0.02025 0.028106-0.018884 0.062705 0.0039063 0.089844 0.022894 0.02723 0.063362 0.042914 0.10742 0.042969h0.41211l-0.0078125 3.2363-1.2715-0.61719v-0.48633c0.19737-0.093699 0.32766-0.25466 0.32812-0.4375 8.802e-4 -0.29012-0.32514-0.52503-0.72852-0.52539-0.40261-6.418e-4 -0.7296 0.23332-0.73047 0.52344-6.238e-4 0.18297 0.12924 0.34526 0.32617 0.43945v0.63867c-3.121e-4 0.096437 0.064646 0.18638 0.17578 0.24023l1.8984 0.92188-0.0019532 0.99805c-0.26763 0.10327-0.45256 0.30507-0.45312 0.53906-6.141e-4 0.33916 0.38045 0.61451 0.85156 0.61523 0.47165 5.77e-4 0.85466-0.27401 0.85547-0.61328 6.644e-4 -0.23395-0.18403-0.43498-0.45117-0.53906l0.0058594-1.8984 1.8086-0.87305c0.021706-0.010496 0.042378-0.022121 0.060547-0.035156 0.074722-0.053609 0.11704-0.12558 0.11719-0.20312l0.001953-0.76562h0.15625c0.042468-2.26e-5 0.083229-0.011643 0.11328-0.033203 0.030029-0.021544 0.046721-0.051442 0.046876-0.082031v-0.80273c2.68e-4 -0.063639-0.069829-0.11519-0.1582-0.11523l-1.1152-0.0019531c-0.042468 2.26e-5 -0.083252 0.011659-0.11328 0.033203-0.030052 0.02156-0.046709 0.05145-0.046875 0.082031l-0.0019532 0.80273c-3.613e-4 0.063572 0.071828 0.11526 0.16016 0.11523h0.1543v0.61133l-1.1816 0.57031 0.0039063-2.3359h0.41211c0.044083 5.46e-5 0.084584-0.015929 0.10742-0.042969 0.023024-0.027174 0.024102-0.061613 0.0039063-0.089844l-0.81055-1.1309c-0.021691-0.030065-0.06419-0.048711-0.11133-0.048828z" fill="#bebebe"/>
</svg>
