<svg version="1.1" viewBox="0 0 16 16" xmlns="http://www.w3.org/2000/svg">
 <path d="m2.9531 0.5c-0.34899 0-0.6832 0.13758-0.9082 0.37305-0.22501 0.23547-0.33907 0.54302-0.37109 0.86328v-0.011719l-1.2852 10.137a0.47594 0.47594 0 0 0-0.0019531 0.060547h-0.0019531l0.0019531 0.023437a0.47594 0.47594 0 0 0 0.0058594 0.058594l0.22852 2.7324c0.04759 0.39105 0.3327 0.70508 0.80859 0.70508h13.188c0.4759 0 0.761-0.31402 0.80859-0.70508l0.1875-2.7969 0.001953-0.017578h-0.001953a0.47594 0.47594 0 0 0-0.001953-0.060547l-1.2852-10.137a0.47594 0.47594 0 0 0-0.00586-0.033203c-0.058257-0.29129-0.1632-0.57664-0.37695-0.81055-0.21375-0.2339-0.54749-0.38086-0.89648-0.38086h-10.094zm0 0.95117h10.094c0.1269 0 0.14813 0.020632 0.19531 0.072266 0.046571 0.050961 0.10551 0.1691 0.14258 0.34961l1.2617 9.9453-0.0625 0.10352h-3.252-0.47656-9.5078l-0.0039062-0.017578 1.2754-10.059a0.47594 0.47594 0 0 0 0.0019532-0.013672c0.015562-0.15564 0.065436-0.25071 0.11328-0.30078s0.091844-0.080078 0.21875-0.080078zm5.0977 1.373c-2.3364 0-4.2578 1.1096-4.2578 2.4609 0 1.3513 1.9214 2.4629 4.2578 2.4629 2.3364 0 4.2559-1.1116 4.2559-2.4629 0-1.3513-1.9194-2.4609-4.2559-2.4609zm0 1.7578c0.66808 0 1.2148 0.31674 1.2148 0.70312 0 0.38638-0.54676 0.70312-1.2148 0.70312-0.66806 0-1.2168-0.31674-1.2168-0.70312 0-0.38639 0.54874-0.70312 1.2168-0.70312z" fill="#bebebe"/>
</svg>
