<svg version="1.1" viewBox="0 0 16 16" xmlns="http://www.w3.org/2000/svg">
 <path d="m0.94922 1.0039c-0.6096-0.0199-1.0293 0.58742-0.9375 1.1562 3e-3 3.6638-0.011 7.3364 0 11 0.0413 0.59291 0.67435 0.92654 1.2188 0.84375 3.9844-3e-3 7.9533 0.0114 11.938 0 0.59291-0.0413 0.92654-0.67435 0.84375-1.2188 8e-5 -1.9688-3e-4 -3.9375 0-5.9062l-2 2c-3e-3 1.0378 0 2.078 0 3.125h-10v-9h10c4e-4 0.0421-3.8e-4 0.0829 0 0.125l1.5625-1.5625c0.0702-0.0702 0.14049-0.13116 0.21875-0.1875-0.14224-0.20054-0.36779-0.375-0.78125-0.375-1.7281 1.01e-5 -5.6159 8e-5 -12.063 0zm14.063 1c-0.277 0-0.538 0.1005-0.71875 0.28125l-6 6c-0.18075 0.18075-0.28125 0.44175-0.28125 0.71875v1h1c0.277 0 0.538-0.1005 0.71875-0.28125l6-6c0.18075-0.18075 0.28125-0.44175 0.28125-0.71875 0-0.554-0.446-1-1-1z" fill="#bebebe"/>
</svg>
