<svg version="1.1" viewBox="0 0 16 16" xmlns="http://www.w3.org/2000/svg">
 <path d="m8 2a6 6 0 0 0-6 6 6 6 0 0 0 6 6 6 6 0 0 0 6-6 6 6 0 0 0-6-6zm-1.8555 2.9004c0.13025 0.009192 0.25538 0.068137 0.34375 0.17383l0.88867 1.0645c0.17672 0.21166 0.14151 0.53313-0.078125 0.7168l-0.17578 0.14844-0.35938 0.29883c0.014548 0.031701 0.027688 0.065041 0.042969 0.099609 0.14492 0.32635 0.3432 0.77478 0.75195 1.2637 0.40751 0.48783 0.81208 0.76101 1.1074 0.96094 0.032134 0.022009 0.06224 0.042589 0.091797 0.0625l0.53711-0.44727c0.2193-0.1834 0.54153-0.16035 0.71875 0.050781l0.88867 1.0625c0.1766 0.21196 0.14304 0.53509-0.076172 0.71875l-0.30273 0.24805-0.00586-0.00586c-0.12593 0.081583-0.26965 0.1457-0.41992 0.18945-0.13985 0.040415-0.27576 0.062217-0.41602 0.066407-0.064322 0.001066-1.5536 0.00812-3.2227-1.9883-1.2074-1.4444-1.6073-2.4658-1.3828-3.5234 0.026973-0.13198 0.071354-0.26178 0.13672-0.39648 0.070482-0.14135 0.1589-0.27133 0.26172-0.38086l-0.0058594-0.0078125 0.29883-0.25195c0.10982-0.091831 0.2467-0.13224 0.37695-0.12305z" fill="#bebebe"/>
</svg>
