<svg version="1.1" viewBox="0 0 16 16" xmlns="http://www.w3.org/2000/svg">
 <path d="m8 0.5c-4.155 0-7.5 3.345-7.5 7.5s3.345 7.5 7.5 7.5 7.5-3.345 7.5-7.5-3.345-7.5-7.5-7.5zm5.1929 5.1654c0.27841-0.034184 0.5698 0.023951 0.7782 0.18677 0.41679 0.32563 0.50691 1.0682 0.18127 1.485l-0.21606 0.27832-1.7377 2.2229c-0.43418 0.55573-1.4236 0.67771-1.9794 0.24353-0.55572-0.43418-0.67771-1.4236-0.24353-1.9794l1.7377-2.2229 0.27649 0.21606-1.7358 2.2229c-0.32564 0.41679-0.23552 1.1593 0.18127 1.485 0.4168 0.32563 1.1594 0.23552 1.485-0.18127l1.7377-2.2229 0.21606-0.27832c0.21709-0.27786 0.15701-0.77351-0.12085-0.9906-0.27786-0.21709-0.77351-0.15518-0.9906 0.12268l-0.21606 0.27649-1.3037 1.6681-0.21606 0.27832c-0.10855 0.13893-0.07851 0.38584 0.06042 0.49438 0.13893 0.10854 0.38584 0.078506 0.49438-0.060422l1.5198-1.9464 0.27832 0.2179-1.5198 1.9446c-0.21709 0.27787-0.71091 0.33977-0.98877 0.12268-0.27786-0.21709-0.33977-0.71274-0.12268-0.9906l0.21789-0.27832 1.5198-1.9446c0.16282-0.2084 0.42838-0.33569 0.70679-0.36988zm-5.1929 1.3971c0.51937 0 0.9375 0.41813 0.9375 0.9375s-0.41813 0.9375-0.9375 0.9375-0.9375-0.41813-0.9375-0.9375 0.41813-0.9375 0.9375-0.9375z" fill="#bebebe"/>
</svg>
