<svg version="1.1" viewBox="0 0 16 16" xmlns="http://www.w3.org/2000/svg">
 <path d="m3 2.0039c-2 0-2 2-2 2v8s0 2 2 2h10s2 0 2-2v-8c0-2-2-2-2-2h-10zm2 4c1.1046 0 2 0.89543 2 2 0 0.36497-0.11049 0.70546-0.28125 1h2.5625c-0.17076-0.29454-0.28125-0.63503-0.28125-1 0-1.1046 0.89543-2 2-2s2 0.89543 2 2c0 1.1046-0.89543 2-2 2h-6c-1.1046 0-2-0.89543-2-2 0-1.1046 0.89543-2 2-2zm0 1c-0.55228 0-1 0.44772-1 1 0 0.55228 0.44772 1 1 1s1-0.44772 1-1c0-0.55228-0.44772-1-1-1zm6 0c-0.55228 0-1 0.44772-1 1 0 0.55228 0.44772 1 1 1s1-0.44772 1-1c0-0.55228-0.44772-1-1-1z" fill="#bebebe"/>
</svg>
