<svg version="1.1" viewBox="0 0 16 16" xmlns="http://www.w3.org/2000/svg">
 <path d="m8 0.5c-4.155 0-7.5 3.345-7.5 7.5s3.345 7.5 7.5 7.5 7.5-3.345 7.5-7.5-3.345-7.5-7.5-7.5zm4.0741 5.1562c0.04638 0 0.09643 0.00326 0.14832 0.00916h0.0019c0.70375 0.059505 1.2018 0.29841 1.4795 0.71045 0.30868 0.45797 0.26564 1.0168 0.2124 1.3092-0.0048 0.026381-0.02669 0.046584-0.0531 0.051272-0.02651 0.00469-0.05234-0.00619-0.06592-0.029297-0.05528-0.094281-0.14818-0.23762-0.282-0.38086-0.32464-0.34746-0.72917-0.53101-1.1682-0.53101-0.03652-2e-7 -0.07432 0.00116-0.1117 0.00367v2.5964c0 0.48127-0.3608 0.87648-0.85876 0.93933-0.04516 0.0057-0.09039 0.0092-0.1355 0.0092-0.4804 0-0.88496-0.32536-0.93933-0.75623-0.0293-0.23209 0.04363-0.46292 0.20508-0.65002 0.16143-0.1871 0.39243-0.30807 0.65002-0.34058 0.14782-0.018675 0.29808-0.00544 0.43762 0.036619v-2.6477c-4.7e-5 -0.15214 0.1249-0.32965 0.47969-0.32965zm-6.85 0.00916c0.27841-0.034188 0.5698 0.023947 0.7782 0.18676 0.41679 0.32563 0.50691 1.0682 0.18127 1.485l-0.21606 0.27832-1.7377 2.2229c-0.43418 0.55573-1.4236 0.67771-1.9794 0.24353-0.55572-0.43418-0.67771-1.4236-0.24353-1.9794l1.7377-2.2229 0.27649 0.21606-1.7358 2.2229c-0.32564 0.41679-0.23552 1.1593 0.18127 1.485 0.4168 0.32563 1.1593 0.23552 1.485-0.18127l1.7377-2.2229 0.21606-0.27832c0.21709-0.27786 0.15701-0.77351-0.12085-0.9906-0.27786-0.21709-0.77351-0.15518-0.9906 0.12268l-0.21606 0.27649-1.3037 1.6681-0.21606 0.27832c-0.10855 0.13893-0.078505 0.38584 0.060425 0.49438 0.13893 0.10854 0.38584 0.078506 0.49438-0.060422l1.5198-1.9464 0.27832 0.2179-1.5198 1.9446c-0.21709 0.27787-0.71091 0.33977-0.98877 0.12268-0.27786-0.21709-0.33977-0.71274-0.12268-0.9906l0.2179-0.27832 1.5198-1.9446c0.16282-0.2084 0.42838-0.33569 0.70679-0.36987zm2.7759 1.3971c0.51937 0 0.9375 0.41813 0.9375 0.9375s-0.41813 0.9375-0.9375 0.9375-0.9375-0.41813-0.9375-0.9375 0.41813-0.9375 0.9375-0.9375z" fill="#bebebe"/>
</svg>
