<svg version="1.1" viewBox="0 0 16 16" xmlns="http://www.w3.org/2000/svg">
 <path d="m6.4004 0-4.8008 4.8008v9.5996a1.6 1.6 0 0 0 1.5996 1.5996h9.6016c0.888 0 1.5996-0.71961 1.5996-1.5996v-12.801a1.6 1.6 0 0 0-1.5996-1.5996h-6.4004zm-2.4004 7.1992h1.5996v3.2012h-1.5996v-3.2012zm3.1992 0h1.6016v1.6016h-1.6016v-1.6016zm3.2012 0h1.5996v3.2012h-1.5996v-3.2012zm-3.2012 3.2012h1.6016v3.1992h-1.6016v-3.1992zm-3.1992 1.5996h1.5996v1.5996h-1.5996v-1.5996zm6.4004 0h1.5996v1.5996h-1.5996v-1.5996z" fill="#bebebe"/>
</svg>
