<svg version="1.1" viewBox="0 0 16 16" xmlns="http://www.w3.org/2000/svg">
 <path d="m8 0.5c-4.155 0-7.5 3.345-7.5 7.5s3.345 7.5 7.5 7.5 7.5-3.345 7.5-7.5-3.345-7.5-7.5-7.5zm4.0741 5.1562c0.04638 0 0.09643 0.00326 0.14832 0.00916h0.0019c0.70375 0.059505 1.2018 0.29841 1.4795 0.71045 0.30868 0.45797 0.26564 1.0168 0.2124 1.3092-0.0048 0.026381-0.02669 0.046584-0.0531 0.051272-0.02651 0.00469-0.05234-0.00619-0.06592-0.029297-0.05526-0.094281-0.14816-0.23762-0.28198-0.38086-0.32464-0.34746-0.72917-0.53101-1.1682-0.53101-0.03652-2e-7 -0.07432 0.00116-0.1117 0.00367v2.5964c0 0.48127-0.3608 0.87648-0.85876 0.93933-0.04516 0.0057-0.09039 0.0092-0.1355 0.0092-0.4804 0-0.88496-0.32536-0.93933-0.75623-0.0293-0.23209 0.04363-0.46293 0.20508-0.65002 0.16143-0.1871 0.39243-0.30807 0.65002-0.34058 0.14782-0.018675 0.29808-0.00544 0.43762 0.036619v-2.6477c-6.8e-5 -0.15214 0.12487-0.32965 0.47967-0.32965zm-4.0741 1.4062c0.51937 0 0.9375 0.41813 0.9375 0.9375s-0.41813 0.9375-0.9375 0.9375-0.9375-0.41813-0.9375-0.9375 0.41813-0.9375 0.9375-0.9375z" fill="#bebebe"/>
</svg>
