<svg version="1.1" viewBox="0 0 16 16" xmlns="http://www.w3.org/2000/svg">
 <path d="m8 0.5c-4.155 0-7.5 3.345-7.5 7.5 0 4.155 3.345 7.5 7.5 7.5 4.155 0 7.5-3.345 7.5-7.5 0-4.155-3.345-7.5-7.5-7.5zm1.6791 2.7191c0.060244 0.54941-0.15987 1.099-0.48706 1.496-0.32754 0.39606-0.86547 0.70572-1.3916 0.66467-0.071175-0.53842 0.19464-1.0989 0.49805-1.4502 0.33814-0.39606 0.90932-0.69126 1.3806-0.71045zm-0.0091875 2.2668c0.30569 0.012762 1.1632 0.1225 1.7139 0.92834-0.04378 0.02829-1.0244 0.59801-1.0126 1.7853 0.01234 1.4181 1.2437 1.8905 1.2579 1.897-0.01099 0.03283-0.19603 0.67229-0.64819 1.333-0.39104 0.57127-0.79673 1.1399-1.4355 1.1517-0.62822 0.01179-0.82954-0.3717-1.5472-0.3717-0.71772 0-0.94261 0.359-1.5363 0.38269-0.61643 0.02285-1.0857-0.61516-1.4795-1.1847-0.80581-1.1635-1.42-3.2895-0.59326-4.7241 0.40973-0.71266 1.1433-1.1637 1.9391-1.1755 0.60547-0.011004 1.1758 0.40833 1.5454 0.40833 0.37051 0 1.0662-0.50422 1.7963-0.4303z" fill="#bebebe"/>
</svg>
