<svg version="1.1" viewBox="0 0 16 16" xmlns="http://www.w3.org/2000/svg">
 <path d="m3.6364 2a0.54545 0.54545 0 0 0-0.54545 0.54545v2.1818a0.54545 0.54545 0 0 0 0.54545 0.54545h8.7273a0.54545 0.54545 0 0 0 0.54546-0.54545v-2.1818a0.54545 0.54545 0 0 0-0.54546-0.54545zm0.54545 1.0909h1.0909v1.0909h-1.0909zm2.1818 0h0.54545v1.0909h-0.54545zm-2.7273 3.2727a0.54545 0.54545 0 0 0-0.54545 0.54545v2.1818a0.54545 0.54545 0 0 0 0.54545 0.54546h8.7273a0.54545 0.54545 0 0 0 0.54546-0.54546v-2.1818a0.54545 0.54545 0 0 0-0.54546-0.54545zm0.54545 1.0909h1.0909v1.0909h-1.0909zm2.1818 0h0.54545v1.0909h-0.54545zm-2.7273 3.2727a0.54545 0.54545 0 0 0-0.54545 0.54545v2.1818a0.54545 0.54545 0 0 0 0.54545 0.54546h8.7273a0.54545 0.54545 0 0 0 0.54546-0.54546v-2.1818a0.54545 0.54545 0 0 0-0.54546-0.54545zm0.54545 1.0909h1.0909v1.0909h-1.0909zm2.1818 0h0.54545v1.0909h-0.54545z" fill="#bebebe"/>
</svg>
