<svg version="1.1" viewBox="0 0 16 16" xmlns="http://www.w3.org/2000/svg">
 <g fill="#bebebe">
  <path d="m2.75 5c-0.41378 0.0015332-0.75 0.33617-0.75 0.75v3.75c0 0.4146 0.33619 0.75 0.75 0.75h1.5v3c0 0.4146 0.33619 0.75 0.75 0.75h6c0.41462 0 0.75-0.3354 0.75-0.75v-3h1.5c0.41448 0 0.75-0.3354 0.75-0.75v-3.75c0-0.41383-0.33555-0.75-0.75-0.75l-2.2114 0.011985c-0.16744 9.073e-4 -0.41364 0.11757-0.41364 0.28502v1.703h-5.25v-1.703c0-0.15176-0.18617-0.30604-0.33792-0.30547zm9.75 0.75c0.41462 0 0.75 0.33619 0.75 0.75 2.5e-5 0.41455-0.33538 0.75-0.75 0.75-0.4146 0-0.75-0.33543-0.75-0.75 0-0.41378 0.3354-0.75 0.75-0.75zm-7.5 3.75h6v3.75h-6z"/>
  <g stroke-width=".01037">
   <path d="m8 4.5022c-0.51386 0-0.99895 0.2266-1.3308 0.62166-0.10297 0.12248-0.087128 0.30523 0.035548 0.40819 0.054277 0.045586 0.12034 0.067996 0.18622 0.067996 0.08268 0 0.16479-0.035154 0.22197-0.10335 0.22158-0.2637 0.54496-0.41496 0.88709-0.41496s0.66551 0.15127 0.88709 0.41496c0.057377 0.06839 0.13948 0.10335 0.22197 0.10335 0.06588 0 0.13195-0.022212 0.18622-0.067996 0.12268-0.10297 0.13851-0.28572 0.035548-0.40819-0.33189-0.39505-0.81697-0.62166-1.3308-0.62166z"/>
   <path d="m7.9999 3.2274c-0.85599 0-1.6643 0.37766-2.2179 1.0362-0.10296 0.12248-0.087128 0.30523 0.035548 0.40819 0.054277 0.045586 0.12034 0.068006 0.18622 0.068006 0.082679 0 0.16479-0.035165 0.22197-0.10336 0.44296-0.52719 1.0897-0.82952 1.7742-0.82952s1.3312 0.30234 1.7744 0.82952c0.057377 0.06839 0.13948 0.10336 0.22196 0.10336 0.065881 0 0.13195-0.022223 0.18623-0.068006 0.12267-0.10296 0.1385-0.2859 0.03555-0.40819-0.55386-0.65855-1.3621-1.0362-2.2181-1.0362z"/>
   <path d="m11.105 3.451c-0.77504-0.92225-1.9069-1.451-3.1052-1.451-1.1983 0-2.33 0.52874-3.1052 1.451-0.10297 0.12248-0.087128 0.30523 0.035548 0.40819 0.054277 0.045586 0.12016 0.068006 0.18603 0.068006 0.08268 0 0.16479-0.035165 0.22216-0.10336 0.66455-0.79069 1.6347-1.2443 2.6615-1.2443 1.0268 0 1.9969 0.45359 2.6615 1.2441 0.05738 0.068193 0.13948 0.10336 0.22217 0.10336 0.06588 0 0.13195-0.022223 0.18622-0.068006 0.12248-0.10279 0.13834-0.28572 0.03536-0.408z"/>
  </g>
 </g>
</svg>
