<svg version="1.1" viewBox="0 0 16 16" xmlns="http://www.w3.org/2000/svg">
 <path transform="matrix(.87587 0 0 .87587 -280.16 -478.11)" d="m328.85 553h3.6932l-4.3381 6.2415 1.6717 0.17395-4.1844 3.5777 1.9639-1.0362c0.31822 0.0382 1.0107 0.0637 1.337 0.0637 3.8685 0 7.0045-3.1359 7.0045-7.0054-0.0155-2.4684-1.2809-5.0075-4.0034-6.3294l0.16016-1.6768zm-6.8522 2.0151c0 2.6273 1.4412 4.9194 3.581 6.1135l0.31868-3.7191 1.0112 1.2054 1.8027-3.615-3.7135-5e-5 3.1602-6.9342c-3.4702 0.41296-6.1602 3.3674-6.1602 6.9493" fill="#bebebe"/>
</svg>
