<?xml version="1.0" encoding="UTF-8" standalone="no"?>
<svg
   inkscape:export-ydpi="96"
   inkscape:export-xdpi="96"
   width="400"
   height="300"
   id="svg11300"
   sodipodi:version="0.32"
   inkscape:version="1.2.2 (b0a8486541, 2022-12-01)"
   sodipodi:docname="address-book-new.svg"
   inkscape:output_extension="org.inkscape.output.svg.inkscape"
   version="1.0"
   style="display:inline;enable-background:new"
   inkscape:export-filename="C:\Users\sblav\Pictures\accessories-address-book.png"
   xmlns:inkscape="http://www.inkscape.org/namespaces/inkscape"
   xmlns:sodipodi="http://sodipodi.sourceforge.net/DTD/sodipodi-0.dtd"
   xmlns="http://www.w3.org/2000/svg"
   xmlns:svg="http://www.w3.org/2000/svg"
   xmlns:rdf="http://www.w3.org/1999/02/22-rdf-syntax-ns#"
   xmlns:cc="http://creativecommons.org/ns#"
   xmlns:dc="http://purl.org/dc/elements/1.1/">
  <title
     id="title3004">Suru Icon Theme Template</title>
  <sodipodi:namedview
     stroke="#ef2929"
     fill="#f57900"
     id="base"
     pagecolor="#ffffff"
     bordercolor="#000000"
     borderopacity="0.25490196"
     inkscape:pageopacity="0"
     inkscape:pageshadow="2"
     inkscape:zoom="2"
     inkscape:cx="316.5"
     inkscape:cy="106"
     inkscape:current-layer="layer7"
     showgrid="false"
     inkscape:grid-bbox="true"
     inkscape:document-units="px"
     inkscape:showpageshadow="false"
     inkscape:window-width="1920"
     inkscape:window-height="1020"
     inkscape:window-x="0"
     inkscape:window-y="32"
     width="400px"
     height="300px"
     inkscape:snap-nodes="true"
     inkscape:snap-bbox="true"
     gridtolerance="10000"
     inkscape:object-nodes="true"
     inkscape:snap-grids="true"
     showguides="true"
     inkscape:guide-bbox="true"
     inkscape:window-maximized="1"
     inkscape:bbox-paths="true"
     inkscape:snap-bbox-midpoints="true"
     inkscape:snap-global="true"
     inkscape:object-paths="true"
     inkscape:snap-intersection-paths="true"
     inkscape:snap-smooth-nodes="true"
     inkscape:pagecheckerboard="false"
     showborder="false"
     inkscape:bbox-nodes="true"
     inkscape:snap-bbox-edge-midpoints="true"
     inkscape:document-rotation="0"
     inkscape:deskcolor="#d1d1d1">
    <inkscape:grid
       spacingy="1"
       spacingx="1"
       id="grid5883"
       type="xygrid"
       enabled="true"
       visible="true"
       empspacing="4"
       snapvisiblegridlinesonly="true"
       originx="0"
       originy="0" />
    <inkscape:grid
       type="xygrid"
       id="grid11592"
       empspacing="2"
       visible="true"
       enabled="false"
       spacingx="0.5"
       spacingy="0.5"
       color="#ff0000"
       opacity="0.1254902"
       empcolor="#ff0000"
       empopacity="0.25098039"
       snapvisiblegridlinesonly="true"
       originx="0"
       originy="0" />
  </sodipodi:namedview>
  <defs
     id="defs3">
    <clipPath
       clipPathUnits="userSpaceOnUse"
       id="clipPath9430">
      <path
         sodipodi:nodetypes="sssssssss"
         inkscape:connector-curvature="0"
         id="path9432"
         d="m 166.0625,-196 h 179.875 C 491.2348,-196 512,-175.28677 512,-30.125 v 148.25 C 512,263.28618 491.2348,284 345.9375,284 H 166.0625 C 20.7652,284 0,263.28618 0,118.125 V -30.125 C 0,-175.28677 20.7652,-196 166.0625,-196 Z"
         style="color:#000000;display:inline;overflow:visible;visibility:visible;fill:#ffffff;fill-opacity:1;fill-rule:nonzero;stroke:none;stroke-width:1;marker:none;enable-background:new" />
    </clipPath>
    <clipPath
       clipPathUnits="userSpaceOnUse"
       id="clipPath1082">
      <path
         sodipodi:nodetypes="sssssssss"
         inkscape:connector-curvature="0"
         id="path1084"
         d="M 361.9375,-212 C 507.2348,-212 528,-191.28677 528,-46.125 V 70.125 C 528,215.28618 507.2348,236 361.9375,236 H 214.0625 C 68.7652,236 48,215.28618 48,70.125 V -46.125 C 48,-191.28677 68.7652,-212 214.0625,-212 Z"
         style="display:inline;opacity:1;fill:#8c59d9;fill-opacity:1;stroke:none;stroke-width:2;stroke-linecap:round;stroke-linejoin:round;stroke-miterlimit:4;stroke-dasharray:none;stroke-dashoffset:0;stroke-opacity:1;enable-background:new" />
    </clipPath>
    <clipPath
       clipPathUnits="userSpaceOnUse"
       id="clipPath994">
      <path
         style="color:#000000;display:inline;overflow:visible;visibility:visible;fill:#cdcdcd;fill-opacity:1;fill-rule:nonzero;stroke:none;stroke-width:2;stroke-miterlimit:4;stroke-dasharray:none;stroke-opacity:1;marker:none;enable-background:accumulate"
         d="m 335.73108,62 c -8.82418,0 -9.77365,0.90635 -9.7304,9.74838 V 84 96.25162 c -0.0433,8.84203 0.90622,9.74838 9.7304,9.74838 h 16.53919 c 8.82418,0 9.7304,-0.90625 9.7304,-9.74838 V 84 71.74838 C 362.00067,62.90625 361.09445,62 352.27027,62 Z"
         id="path996"
         inkscape:connector-curvature="0"
         sodipodi:nodetypes="scccssscsss" />
    </clipPath>
    <clipPath
       clipPathUnits="userSpaceOnUse"
       id="clipPath959">
      <path
         style="color:#000000;display:inline;overflow:visible;visibility:visible;opacity:1;fill:#46a926;fill-opacity:1;fill-rule:nonzero;stroke:none;stroke-width:2;stroke-miterlimit:4;stroke-dasharray:none;stroke-opacity:1;marker:none;enable-background:accumulate"
         d="m 330.1929,133.99999 c -5.61538,0 -6.21958,0.57678 -6.19206,6.20352 v 7.79648 7.79648 c -0.0276,5.62673 0.57668,6.20351 6.19206,6.20351 h 11.615 c 5.6154,0 6.19208,-0.5767 6.19208,-6.20351 v -7.79648 -7.79648 c 0,-5.6268 -0.5767,-6.20352 -6.19208,-6.20352 z"
         id="path961"
         inkscape:connector-curvature="0"
         sodipodi:nodetypes="scccssscsss" />
    </clipPath>
    <clipPath
       clipPathUnits="userSpaceOnUse"
       id="clipPath971">
      <path
         style="color:#000000;display:inline;overflow:visible;visibility:visible;opacity:1;fill:#46a926;fill-opacity:1;fill-rule:nonzero;stroke:none;stroke-width:2;stroke-miterlimit:4;stroke-dasharray:none;stroke-opacity:1;marker:none;enable-background:accumulate"
         d="m 327.8652,189 c -4.41209,0 -4.88682,0.45318 -4.8652,4.87419 V 200 206.12581 C 322.9783,210.54682 323.45311,211 327.8652,211 h 8.2696 C 340.54689,211 341,210.54688 341,206.12581 V 200 193.87419 C 341,189.45313 340.54688,189 336.13479,189 Z"
         id="path973"
         inkscape:connector-curvature="0"
         sodipodi:nodetypes="scccssscsss" />
    </clipPath>
    <clipPath
       clipPathUnits="userSpaceOnUse"
       id="clipPath983">
      <path
         sodipodi:nodetypes="scccssscsss"
         inkscape:connector-curvature="0"
         id="path985"
         d="m 325.09646,237 c -2.80769,0 -3.10979,0.28839 -3.09603,3.10176 V 244 v 3.89824 c -0.0138,2.81337 0.28834,3.10176 3.09603,3.10176 h 5.8075 C 333.71166,251 334,250.71165 334,247.89824 V 244 240.10176 C 334,237.28836 333.71165,237 330.90396,237 Z"
         style="color:#000000;display:inline;overflow:visible;visibility:visible;opacity:1;fill:#46a926;fill-opacity:1;fill-rule:nonzero;stroke:none;stroke-width:2;stroke-miterlimit:4;stroke-dasharray:none;stroke-opacity:1;marker:none;enable-background:accumulate" />
    </clipPath>
    <linearGradient
       id="linearGradient4336-3">
      <stop
         style="stop-color:#5884f4;stop-opacity:1"
         offset="0"
         id="stop4338-8" />
      <stop
         id="stop4344-3"
         offset="0.27800092"
         style="stop-color:#5884f4;stop-opacity:1" />
      <stop
         style="stop-color:#2f5fdd;stop-opacity:1"
         offset="0.27800092"
         id="stop4346-3" />
      <stop
         id="stop4350-1"
         offset="0.70735365"
         style="stop-color:#2f5fdd;stop-opacity:1" />
      <stop
         id="stop4348-6"
         offset="0.70936078"
         style="stop-color:#234db8;stop-opacity:1" />
      <stop
         style="stop-color:#234db8;stop-opacity:1"
         offset="1"
         id="stop4340-0" />
    </linearGradient>
    <clipPath
       clipPathUnits="userSpaceOnUse"
       id="clipPath994-1">
      <path
         style="color:#000000;display:inline;overflow:visible;visibility:visible;fill:#cdcdcd;fill-opacity:1;fill-rule:nonzero;stroke:none;stroke-width:2;stroke-miterlimit:4;stroke-dasharray:none;stroke-opacity:1;marker:none;enable-background:accumulate"
         d="m 335.73108,62 c -8.82418,0 -9.77365,0.90635 -9.7304,9.74838 V 84 96.25162 c -0.0433,8.84203 0.90622,9.74838 9.7304,9.74838 h 16.53919 c 8.82418,0 9.7304,-0.90625 9.7304,-9.74838 V 84 71.74838 C 362.00067,62.90625 361.09445,62 352.27027,62 Z"
         id="path996-8"
         inkscape:connector-curvature="0"
         sodipodi:nodetypes="scccssscsss" />
    </clipPath>
    <linearGradient
       id="linearGradient3650-7-9">
      <stop
         style="stop-color:#5884f4;stop-opacity:1"
         offset="0"
         id="stop4366-9" />
      <stop
         id="stop4368"
         offset="1"
         style="stop-color:#80a3fa;stop-opacity:1" />
    </linearGradient>
    <clipPath
       clipPathUnits="userSpaceOnUse"
       id="clipPath968">
      <path
         style="opacity:1;fill:#80a3fa;fill-opacity:1;stroke:none;stroke-width:2;stroke-linecap:round;stroke-linejoin:round;stroke-miterlimit:4;stroke-dasharray:none;stroke-dashoffset:0;stroke-opacity:1"
         d="m 341.12109,133.5 c 9.08109,0 10.37891,1.29458 10.37891,10.36719 v 8.26562 c 0,9.07258 -1.29782,10.36719 -10.37891,10.36719 H 330.87891 C 321.79783,162.5 320.5,161.20539 320.5,152.13281 v -8.26562 c 0,-9.07261 1.29783,-10.36719 10.37891,-10.36719 z"
         id="path971"
         inkscape:connector-curvature="0"
         sodipodi:nodetypes="sssssssss" />
    </clipPath>
    <clipPath
       clipPathUnits="userSpaceOnUse"
       id="clipPath934">
      <path
         style="opacity:1;fill:#80a3fa;fill-opacity:1;stroke:none;stroke-width:2;stroke-linecap:round;stroke-linejoin:round;stroke-miterlimit:4;stroke-dasharray:none;stroke-dashoffset:0;stroke-opacity:1"
         d="m 281.96875,-25.666667 c 72.64864,0 83.03125,10.35664 83.03125,82.937494 v 63.458343 c 0,72.58059 -10.38261,82.9375 -83.03125,82.9375 h -84.60416 c -72.64864,0 -83.03126,-10.35691 -83.03126,-82.9375 V 57.270827 c 0,-72.580854 10.38262,-82.937494 83.03126,-82.937494 z"
         id="path936"
         inkscape:connector-curvature="0"
         sodipodi:nodetypes="sssssssss" />
    </clipPath>
    <filter
       inkscape:collect="always"
       style="color-interpolation-filters:sRGB"
       id="filter11348"
       x="-0.048000001"
       width="1.096"
       y="-0.048000001"
       height="1.096">
      <feGaussianBlur
         inkscape:collect="always"
         stdDeviation="1.36"
         id="feGaussianBlur11350" />
    </filter>
  </defs>
  <metadata
     id="metadata4">
    <rdf:RDF>
      <cc:Work
         rdf:about="">
        <dc:format>image/svg+xml</dc:format>
        <dc:type
           rdf:resource="http://purl.org/dc/dcmitype/StillImage" />
        <dc:creator>
          <cc:Agent>
            <dc:title>Sam Hewitt</dc:title>
          </cc:Agent>
        </dc:creator>
        <dc:source />
        <cc:license
           rdf:resource="http://creativecommons.org/licenses/by-sa/4.0/" />
        <dc:title>Suru Icon Theme Template</dc:title>
        <dc:subject>
          <rdf:Bag />
        </dc:subject>
        <dc:date />
        <dc:rights>
          <cc:Agent>
            <dc:title />
          </cc:Agent>
        </dc:rights>
        <dc:publisher>
          <cc:Agent>
            <dc:title />
          </cc:Agent>
        </dc:publisher>
        <dc:identifier />
        <dc:relation />
        <dc:language />
        <dc:coverage />
        <dc:description />
        <dc:contributor>
          <cc:Agent>
            <dc:title />
          </cc:Agent>
        </dc:contributor>
      </cc:Work>
      <cc:Work
         rdf:about="">
        <dc:format>image/svg+xml</dc:format>
        <dc:type
           rdf:resource="http://purl.org/dc/dcmitype/StillImage" />
      </cc:Work>
      <cc:License
         rdf:about="http://creativecommons.org/licenses/by-sa/4.0/">
        <cc:permits
           rdf:resource="http://creativecommons.org/ns#Reproduction" />
        <cc:permits
           rdf:resource="http://creativecommons.org/ns#Distribution" />
        <cc:requires
           rdf:resource="http://creativecommons.org/ns#Notice" />
        <cc:requires
           rdf:resource="http://creativecommons.org/ns#Attribution" />
        <cc:permits
           rdf:resource="http://creativecommons.org/ns#DerivativeWorks" />
        <cc:requires
           rdf:resource="http://creativecommons.org/ns#ShareAlike" />
      </cc:License>
    </rdf:RDF>
  </metadata>
  <g
     style="display:inline"
     inkscape:groupmode="layer"
     inkscape:label="Icon"
     id="layer1">
    <g
       style="display:none"
       inkscape:label="Baseplate"
       id="layer7"
       inkscape:groupmode="layer"
       sodipodi:insensitive="true">
      <text
         y="-8.2548828"
         xml:space="preserve"
         x="19.006836"
         style="font-style:normal;font-variant:normal;font-weight:normal;font-stretch:normal;line-height:0%;font-family:'DejaVu Sans';-inkscape-font-specification:'DejaVu Sans';display:inline;fill:#000000;fill-opacity:1;stroke:none;enable-background:new"
         inkscape:label="context"
         id="context"><tspan
           style="font-style:normal;font-variant:normal;font-weight:normal;font-stretch:normal;font-size:18px;line-height:1.25;font-family:'DejaVu Sans';-inkscape-font-specification:'DejaVu Sans'"
           y="-8.2548828"
           x="19.006836"
           sodipodi:role="line"
           id="tspan3933">actions</tspan></text>
      <text
         y="-8.2548828"
         xml:space="preserve"
         x="146.48828"
         style="font-style:normal;font-variant:normal;font-weight:bold;font-stretch:normal;line-height:0%;font-family:'DejaVu Sans';-inkscape-font-specification:'DejaVu Sans Bold';text-align:start;writing-mode:lr-tb;text-anchor:start;display:inline;fill:#000000;fill-opacity:1;stroke:none;enable-background:new"
         inkscape:label="icon-name"
         id="icon-name"><tspan
           style="font-style:normal;font-variant:normal;font-weight:bold;font-stretch:normal;font-size:18px;line-height:1.25;font-family:'DejaVu Sans';-inkscape-font-specification:'DejaVu Sans Bold'"
           y="-8.2548828"
           x="146.48828"
           sodipodi:role="line"
           id="tspan3937">address-book-new</tspan></text>
      <rect
         style="display:inline;overflow:visible;visibility:visible;fill:#cdcdcd;fill-opacity:1;fill-rule:nonzero;stroke:none;stroke-width:2;marker:none;enable-background:accumulate"
         id="rect16x16"
         width="16"
         height="16"
         x="320"
         y="236"
         inkscape:label="16x16" />
      <rect
         style="display:inline;overflow:visible;visibility:visible;fill:#cdcdcd;fill-opacity:1;fill-rule:nonzero;stroke:none;stroke-width:1.83333;marker:none;enable-background:accumulate"
         id="rect24x24-1"
         width="22"
         height="22"
         x="372"
         y="190"
         inkscape:label="22x22" />
      <rect
         style="display:inline;overflow:visible;visibility:visible;fill:#cdcdcd;fill-opacity:1;fill-rule:nonzero;stroke:none;stroke-width:2;marker:none;enable-background:accumulate"
         id="rect24x24"
         width="24"
         height="24"
         x="320"
         y="188"
         inkscape:label="24x24" />
      <rect
         style="display:inline;overflow:visible;visibility:visible;fill:#cdcdcd;fill-opacity:1;fill-rule:nonzero;stroke:none;stroke-width:2;marker:none;enable-background:accumulate"
         id="rect32x32"
         width="32"
         height="32"
         x="320"
         y="132"
         inkscape:label="32x32" />
      <rect
         inkscape:label="48x48"
         y="60"
         x="320"
         height="48"
         width="48"
         id="rect48x48"
         style="display:inline;overflow:visible;visibility:visible;fill:#cdcdcd;fill-opacity:1;fill-rule:nonzero;stroke:none;stroke-width:2;marker:none;enable-background:accumulate" />
      <rect
         style="display:inline;overflow:visible;visibility:visible;fill:#cdcdcd;fill-opacity:1;fill-rule:nonzero;stroke:none;stroke-width:2;marker:none;enable-background:accumulate"
         id="rect3951"
         width="256"
         height="256"
         x="24"
         y="28"
         inkscape:label="256x256" />
    </g>
    <g
       inkscape:groupmode="layer"
       id="layer8"
       inkscape:label="Backgrounds"
       style="display:inline" />
    <g
       inkscape:groupmode="layer"
       id="layer6"
       inkscape:label="Pictograms"
       style="display:inline">
      <g
         transform="matrix(9.7391304,0,0,9.7391304,44.869566,-9971.7217)"
         id="g42">
        <path
           d="m 5,1028.4 c -1.1046,0 -2,0.9 -2,2 v 19 c 0,1.1 0.8954,2 2,2 h 14 c 1.105,0 2,-0.9 2,-2 v -19 c 0,-1.1 -0.895,-2 -2,-2 z"
           fill="#16a085"
           id="path2" />
        <path
           d="m 6,1028.4 c -1.1046,0 -2,0.9 -2,2 v 18 c 0,1.1 0.8954,2 2,2 h 12 c 1.105,0 2,-0.9 2,-2 v -18 c 0,-1.1 -0.895,-2 -2,-2 z"
           fill="#ecf0f1"
           id="path4" />
        <path
           d="m 15,1042.4 v 7 h 4 c 1.105,0 2,-0.9 2,-2 v -5 z"
           fill="#2ecc71"
           id="path6" />
        <path
           d="m 15,1037.4 v 7 h 4 c 1.105,0 2,-0.9 2,-2 v -5 z"
           fill="#e74c3c"
           id="path8" />
        <path
           d="m 15,1032.4 v 7 h 4 c 1.105,0 2,-0.9 2,-2 v -5 z"
           fill="#f1c40f"
           id="path10" />
        <path
           d="m 15,0 v 2 h 4 v 4 c 1.105,0 2,-0.8954 2,-2 V 2 C 21,0.8954 20.105,0 19,0 Z"
           fill="#2980b9"
           id="path12"
           transform="translate(0,1028.4)" />
        <path
           d="m 5,1028.4 c -1.1046,0 -2,0.9 -2,2 v 17 h 1 v 4 c 0,-1.1 0.8954,-2 2,-2 h 11.281 c 0.74,0 1.373,-0.4 1.719,-1 v -18 c 0,-1.1 -0.895,-2 -2,-2 z"
           fill="#1abc9c"
           id="path14" />
        <g
           transform="translate(0,-2)"
           fill="#16a085"
           id="g18">
          <path
             d="m 10.439,1041 c 0,0.5 0.108,0.9 0.323,1.2 0.22,0.3 0.516,0.5 0.889,0.5 0.368,0 0.663,-0.2 0.882,-0.5 0.22,-0.3 0.329,-0.7 0.329,-1.2 0,-0.5 -0.112,-0.9 -0.335,-1.2 -0.22,-0.3 -0.516,-0.4 -0.889,-0.4 -0.364,0 -0.656,0.1 -0.876,0.4 -0.215,0.3 -0.323,0.7 -0.323,1.2 m 2.548,1.9 c -0.125,0.3 -0.326,0.5 -0.603,0.7 -0.273,0.1 -0.594,0.2 -0.963,0.2 -0.712,0 -1.292,-0.2 -1.7395,-0.8 -0.4431,-0.5 -0.6647,-1.1 -0.6647,-2 0,-0.8 0.2236,-1.5 0.6709,-2 0.4473,-0.5 1.0253,-0.8 1.7333,-0.8 0.369,0 0.69,0.1 0.963,0.3 0.277,0.1 0.478,0.4 0.603,0.7 v -0.8 h 1.298 v 4.3 c 0.514,-0.1 0.917,-0.4 1.211,-0.8 0.294,-0.4 0.441,-0.9 0.441,-1.6 0,-0.4 -0.06,-0.8 -0.18,-1.1 -0.12,-0.4 -0.302,-0.7 -0.546,-1 -0.394,-0.5 -0.887,-0.9 -1.479,-1.2 -0.588,-0.3 -1.226,-0.4 -1.913,-0.4 -0.481,0 -0.941,0 -1.38,0.2 -0.439,0.1 -0.8445,0.3 -1.2172,0.5 -0.613,0.4 -1.0913,1 -1.4351,1.6 -0.3396,0.6 -0.5094,1.3 -0.5094,2.1 0,0.6 0.1098,1.2 0.3293,1.7 0.2236,0.6 0.5446,1 0.9629,1.5 0.4142,0.4 0.8884,0.7 1.4226,0.9 0.5389,0.2 1.1119,0.3 1.7209,0.3 0.522,0 1.044,-0.1 1.566,-0.3 0.521,-0.2 0.967,-0.4 1.335,-0.8 l 0.665,1 c -0.518,0.4 -1.083,0.7 -1.696,1 -0.609,0.2 -1.228,0.3 -1.858,0.3 -0.766,0 -1.489,-0.2 -2.1677,-0.4 -0.6793,-0.3 -1.2839,-0.7 -1.8141,-1.2 -0.5301,-0.5 -0.9339,-1.1 -1.2114,-1.8 -0.2775,-0.7 -0.4162,-1.4 -0.4162,-2.2 0,-0.8 0.1408,-1.5 0.4224,-2.2 0.2816,-0.7 0.6834,-1.3 1.2052,-1.8 0.5219,-0.5 1.1286,-0.9 1.8203,-1.2 0.6955,-0.2 1.4165,-0.4 2.1615,-0.4 0.928,0 1.771,0.2 2.529,0.6 0.758,0.3 1.391,0.8 1.901,1.5 0.311,0.4 0.545,0.8 0.702,1.3 0.161,0.5 0.242,1 0.242,1.5 0,1.1 -0.337,2 -1.012,2.6 -0.676,0.6 -1.628,0.9 -2.858,0.9 h -0.242 v -0.9"
             id="path16" />
        </g>
        <path
           d="m 2,1031.4 v 1 h 2 v -1 z m 0,3 v 1 h 2 v -1 z m 0,3 v 1 h 2 v -1 z m 0,3 v 1 h 2 v -1 z m 0,3 v 1 h 2 v -1 z m 0,3 v 1 h 2 v -1 z"
           fill="#95a5a6"
           id="path20" />
        <path
           d="m 5,1028.4 c -1.1046,0 -2,0.9 -2,2 v 19 c 0,1.1 0.8954,2 2,2 h 1 c -1.1046,0 -2,-0.9 -2,-2 v -19 c 0,-1.1 0.8954,-2 2,-2 z"
           fill="#16a085"
           id="path22" />
        <g
           fill="#bdc3c7"
           id="g38">
          <path
             d="m 2,1030.4 v 1 h 1 v -1 z m 0,3 v 1 h 1 v -1 z m 0,3 v 1 h 1 v -1 z m 0,3 v 1 h 1 v -1 z m 0,3 v 1 h 1 v -1 z m 0,3 v 1 h 1 v -1 z"
             id="path24" />
          <path
             d="m 2,1030.4 c -0.5523,0 -1,0.4 -1,1 0,0.5 0.4477,1 1,1 z"
             id="path26" />
          <path
             d="m 2,1033.4 c -0.5523,0 -1,0.4 -1,1 0,0.5 0.4477,1 1,1 z"
             id="path28" />
          <path
             d="m 2,1036.4 c -0.5523,0 -1,0.4 -1,1 0,0.5 0.4477,1 1,1 z"
             id="path30" />
          <path
             d="m 2,1039.4 c -0.5523,0 -1,0.4 -1,1 0,0.5 0.4477,1 1,1 z"
             id="path32" />
          <path
             d="m 2,1042.4 c -0.5523,0 -1,0.4 -1,1 0,0.5 0.4477,1 1,1 z"
             id="path34" />
          <path
             d="m 2,1045.4 c -0.5523,0 -1,0.4 -1,1 0,0.5 0.4477,1 1,1 z"
             id="path36" />
        </g>
        <path
           d="m 3,1030.4 v 1 h 1 v -1 z m 0,3 v 1 h 1 v -1 z m 0,3 v 1 h 1 v -1 z m 0,3 v 1 h 1 v -1 z m 0,3 v 1 h 1 v -1 z m 0,3 v 1 h 1 v -1 z"
           fill="#95a5a6"
           id="path40" />
      </g>
      <g
         transform="matrix(2.0869565,0,0,2.0869565,321.04348,-2086.2261)"
         id="g1546">
        <path
           d="m 5,1028.4 c -1.1046,0 -2,0.9 -2,2 v 19 c 0,1.1 0.8954,2 2,2 h 14 c 1.105,0 2,-0.9 2,-2 v -19 c 0,-1.1 -0.895,-2 -2,-2 z"
           fill="#16a085"
           id="path1506" />
        <path
           d="m 6,1028.4 c -1.1046,0 -2,0.9 -2,2 v 18 c 0,1.1 0.8954,2 2,2 h 12 c 1.105,0 2,-0.9 2,-2 v -18 c 0,-1.1 -0.895,-2 -2,-2 z"
           fill="#ecf0f1"
           id="path1508" />
        <path
           d="m 15,1042.4 v 7 h 4 c 1.105,0 2,-0.9 2,-2 v -5 z"
           fill="#2ecc71"
           id="path1510" />
        <path
           d="m 15,1037.4 v 7 h 4 c 1.105,0 2,-0.9 2,-2 v -5 z"
           fill="#e74c3c"
           id="path1512" />
        <path
           d="m 15,1032.4 v 7 h 4 c 1.105,0 2,-0.9 2,-2 v -5 z"
           fill="#f1c40f"
           id="path1514" />
        <path
           d="m 15,0 v 2 h 4 v 4 c 1.105,0 2,-0.8954 2,-2 V 2 C 21,0.8954 20.105,0 19,0 Z"
           fill="#2980b9"
           id="path1516"
           transform="translate(0,1028.4)" />
        <path
           d="m 5,1028.4 c -1.1046,0 -2,0.9 -2,2 v 17 h 1 v 4 c 0,-1.1 0.8954,-2 2,-2 h 11.281 c 0.74,0 1.373,-0.4 1.719,-1 v -18 c 0,-1.1 -0.895,-2 -2,-2 z"
           fill="#1abc9c"
           id="path1518" />
        <g
           transform="translate(0,-2)"
           fill="#16a085"
           id="g1522">
          <path
             d="m 10.439,1041 c 0,0.5 0.108,0.9 0.323,1.2 0.22,0.3 0.516,0.5 0.889,0.5 0.368,0 0.663,-0.2 0.882,-0.5 0.22,-0.3 0.329,-0.7 0.329,-1.2 0,-0.5 -0.112,-0.9 -0.335,-1.2 -0.22,-0.3 -0.516,-0.4 -0.889,-0.4 -0.364,0 -0.656,0.1 -0.876,0.4 -0.215,0.3 -0.323,0.7 -0.323,1.2 m 2.548,1.9 c -0.125,0.3 -0.326,0.5 -0.603,0.7 -0.273,0.1 -0.594,0.2 -0.963,0.2 -0.712,0 -1.292,-0.2 -1.7395,-0.8 -0.4431,-0.5 -0.6647,-1.1 -0.6647,-2 0,-0.8 0.2236,-1.5 0.6709,-2 0.4473,-0.5 1.0253,-0.8 1.7333,-0.8 0.369,0 0.69,0.1 0.963,0.3 0.277,0.1 0.478,0.4 0.603,0.7 v -0.8 h 1.298 v 4.3 c 0.514,-0.1 0.917,-0.4 1.211,-0.8 0.294,-0.4 0.441,-0.9 0.441,-1.6 0,-0.4 -0.06,-0.8 -0.18,-1.1 -0.12,-0.4 -0.302,-0.7 -0.546,-1 -0.394,-0.5 -0.887,-0.9 -1.479,-1.2 -0.588,-0.3 -1.226,-0.4 -1.913,-0.4 -0.481,0 -0.941,0 -1.38,0.2 -0.439,0.1 -0.8445,0.3 -1.2172,0.5 -0.613,0.4 -1.0913,1 -1.4351,1.6 -0.3396,0.6 -0.5094,1.3 -0.5094,2.1 0,0.6 0.1098,1.2 0.3293,1.7 0.2236,0.6 0.5446,1 0.9629,1.5 0.4142,0.4 0.8884,0.7 1.4226,0.9 0.5389,0.2 1.1119,0.3 1.7209,0.3 0.522,0 1.044,-0.1 1.566,-0.3 0.521,-0.2 0.967,-0.4 1.335,-0.8 l 0.665,1 c -0.518,0.4 -1.083,0.7 -1.696,1 -0.609,0.2 -1.228,0.3 -1.858,0.3 -0.766,0 -1.489,-0.2 -2.1677,-0.4 -0.6793,-0.3 -1.2839,-0.7 -1.8141,-1.2 -0.5301,-0.5 -0.9339,-1.1 -1.2114,-1.8 -0.2775,-0.7 -0.4162,-1.4 -0.4162,-2.2 0,-0.8 0.1408,-1.5 0.4224,-2.2 0.2816,-0.7 0.6834,-1.3 1.2052,-1.8 0.5219,-0.5 1.1286,-0.9 1.8203,-1.2 0.6955,-0.2 1.4165,-0.4 2.1615,-0.4 0.928,0 1.771,0.2 2.529,0.6 0.758,0.3 1.391,0.8 1.901,1.5 0.311,0.4 0.545,0.8 0.702,1.3 0.161,0.5 0.242,1 0.242,1.5 0,1.1 -0.337,2 -1.012,2.6 -0.676,0.6 -1.628,0.9 -2.858,0.9 h -0.242 v -0.9"
             id="path1520" />
        </g>
        <path
           d="m 2,1031.4 v 1 h 2 v -1 z m 0,3 v 1 h 2 v -1 z m 0,3 v 1 h 2 v -1 z m 0,3 v 1 h 2 v -1 z m 0,3 v 1 h 2 v -1 z m 0,3 v 1 h 2 v -1 z"
           fill="#95a5a6"
           id="path1524" />
        <path
           d="m 5,1028.4 c -1.1046,0 -2,0.9 -2,2 v 19 c 0,1.1 0.8954,2 2,2 h 1 c -1.1046,0 -2,-0.9 -2,-2 v -19 c 0,-1.1 0.8954,-2 2,-2 z"
           fill="#16a085"
           id="path1526" />
        <g
           fill="#bdc3c7"
           id="g1542">
          <path
             d="m 2,1030.4 v 1 h 1 v -1 z m 0,3 v 1 h 1 v -1 z m 0,3 v 1 h 1 v -1 z m 0,3 v 1 h 1 v -1 z m 0,3 v 1 h 1 v -1 z m 0,3 v 1 h 1 v -1 z"
             id="path1528" />
          <path
             d="m 2,1030.4 c -0.5523,0 -1,0.4 -1,1 0,0.5 0.4477,1 1,1 z"
             id="path1530" />
          <path
             d="m 2,1033.4 c -0.5523,0 -1,0.4 -1,1 0,0.5 0.4477,1 1,1 z"
             id="path1532" />
          <path
             d="m 2,1036.4 c -0.5523,0 -1,0.4 -1,1 0,0.5 0.4477,1 1,1 z"
             id="path1534" />
          <path
             d="m 2,1039.4 c -0.5523,0 -1,0.4 -1,1 0,0.5 0.4477,1 1,1 z"
             id="path1536" />
          <path
             d="m 2,1042.4 c -0.5523,0 -1,0.4 -1,1 0,0.5 0.4477,1 1,1 z"
             id="path1538" />
          <path
             d="m 2,1045.4 c -0.5523,0 -1,0.4 -1,1 0,0.5 0.4477,1 1,1 z"
             id="path1540" />
        </g>
        <path
           d="m 3,1030.4 v 1 h 1 v -1 z m 0,3 v 1 h 1 v -1 z m 0,3 v 1 h 1 v -1 z m 0,3 v 1 h 1 v -1 z m 0,3 v 1 h 1 v -1 z m 0,3 v 1 h 1 v -1 z"
           fill="#95a5a6"
           id="path1544" />
      </g>
      <g
         transform="matrix(1.2173913,0,0,1.2173913,322.6087,-1117.9652)"
         id="g1588">
        <path
           d="m 5,1028.4 c -1.1046,0 -2,0.9 -2,2 v 19 c 0,1.1 0.8954,2 2,2 h 14 c 1.105,0 2,-0.9 2,-2 v -19 c 0,-1.1 -0.895,-2 -2,-2 z"
           fill="#16a085"
           id="path1548" />
        <path
           d="m 6,1028.4 c -1.1046,0 -2,0.9 -2,2 v 18 c 0,1.1 0.8954,2 2,2 h 12 c 1.105,0 2,-0.9 2,-2 v -18 c 0,-1.1 -0.895,-2 -2,-2 z"
           fill="#ecf0f1"
           id="path1550" />
        <path
           d="m 15,1042.4 v 7 h 4 c 1.105,0 2,-0.9 2,-2 v -5 z"
           fill="#2ecc71"
           id="path1552" />
        <path
           d="m 15,1037.4 v 7 h 4 c 1.105,0 2,-0.9 2,-2 v -5 z"
           fill="#e74c3c"
           id="path1554" />
        <path
           d="m 15,1032.4 v 7 h 4 c 1.105,0 2,-0.9 2,-2 v -5 z"
           fill="#f1c40f"
           id="path1556" />
        <path
           d="m 15,0 v 2 h 4 v 4 c 1.105,0 2,-0.8954 2,-2 V 2 C 21,0.8954 20.105,0 19,0 Z"
           fill="#2980b9"
           id="path1558"
           transform="translate(0,1028.4)" />
        <path
           d="m 5,1028.4 c -1.1046,0 -2,0.9 -2,2 v 17 h 1 v 4 c 0,-1.1 0.8954,-2 2,-2 h 11.281 c 0.74,0 1.373,-0.4 1.719,-1 v -18 c 0,-1.1 -0.895,-2 -2,-2 z"
           fill="#1abc9c"
           id="path1560" />
        <g
           transform="translate(0,-2)"
           fill="#16a085"
           id="g1564">
          <path
             d="m 10.439,1041 c 0,0.5 0.108,0.9 0.323,1.2 0.22,0.3 0.516,0.5 0.889,0.5 0.368,0 0.663,-0.2 0.882,-0.5 0.22,-0.3 0.329,-0.7 0.329,-1.2 0,-0.5 -0.112,-0.9 -0.335,-1.2 -0.22,-0.3 -0.516,-0.4 -0.889,-0.4 -0.364,0 -0.656,0.1 -0.876,0.4 -0.215,0.3 -0.323,0.7 -0.323,1.2 m 2.548,1.9 c -0.125,0.3 -0.326,0.5 -0.603,0.7 -0.273,0.1 -0.594,0.2 -0.963,0.2 -0.712,0 -1.292,-0.2 -1.7395,-0.8 -0.4431,-0.5 -0.6647,-1.1 -0.6647,-2 0,-0.8 0.2236,-1.5 0.6709,-2 0.4473,-0.5 1.0253,-0.8 1.7333,-0.8 0.369,0 0.69,0.1 0.963,0.3 0.277,0.1 0.478,0.4 0.603,0.7 v -0.8 h 1.298 v 4.3 c 0.514,-0.1 0.917,-0.4 1.211,-0.8 0.294,-0.4 0.441,-0.9 0.441,-1.6 0,-0.4 -0.06,-0.8 -0.18,-1.1 -0.12,-0.4 -0.302,-0.7 -0.546,-1 -0.394,-0.5 -0.887,-0.9 -1.479,-1.2 -0.588,-0.3 -1.226,-0.4 -1.913,-0.4 -0.481,0 -0.941,0 -1.38,0.2 -0.439,0.1 -0.8445,0.3 -1.2172,0.5 -0.613,0.4 -1.0913,1 -1.4351,1.6 -0.3396,0.6 -0.5094,1.3 -0.5094,2.1 0,0.6 0.1098,1.2 0.3293,1.7 0.2236,0.6 0.5446,1 0.9629,1.5 0.4142,0.4 0.8884,0.7 1.4226,0.9 0.5389,0.2 1.1119,0.3 1.7209,0.3 0.522,0 1.044,-0.1 1.566,-0.3 0.521,-0.2 0.967,-0.4 1.335,-0.8 l 0.665,1 c -0.518,0.4 -1.083,0.7 -1.696,1 -0.609,0.2 -1.228,0.3 -1.858,0.3 -0.766,0 -1.489,-0.2 -2.1677,-0.4 -0.6793,-0.3 -1.2839,-0.7 -1.8141,-1.2 -0.5301,-0.5 -0.9339,-1.1 -1.2114,-1.8 -0.2775,-0.7 -0.4162,-1.4 -0.4162,-2.2 0,-0.8 0.1408,-1.5 0.4224,-2.2 0.2816,-0.7 0.6834,-1.3 1.2052,-1.8 0.5219,-0.5 1.1286,-0.9 1.8203,-1.2 0.6955,-0.2 1.4165,-0.4 2.1615,-0.4 0.928,0 1.771,0.2 2.529,0.6 0.758,0.3 1.391,0.8 1.901,1.5 0.311,0.4 0.545,0.8 0.702,1.3 0.161,0.5 0.242,1 0.242,1.5 0,1.1 -0.337,2 -1.012,2.6 -0.676,0.6 -1.628,0.9 -2.858,0.9 h -0.242 v -0.9"
             id="path1562" />
        </g>
        <path
           d="m 2,1031.4 v 1 h 2 v -1 z m 0,3 v 1 h 2 v -1 z m 0,3 v 1 h 2 v -1 z m 0,3 v 1 h 2 v -1 z m 0,3 v 1 h 2 v -1 z m 0,3 v 1 h 2 v -1 z"
           fill="#95a5a6"
           id="path1566" />
        <path
           d="m 5,1028.4 c -1.1046,0 -2,0.9 -2,2 v 19 c 0,1.1 0.8954,2 2,2 h 1 c -1.1046,0 -2,-0.9 -2,-2 v -19 c 0,-1.1 0.8954,-2 2,-2 z"
           fill="#16a085"
           id="path1568" />
        <g
           fill="#bdc3c7"
           id="g1584">
          <path
             d="m 2,1030.4 v 1 h 1 v -1 z m 0,3 v 1 h 1 v -1 z m 0,3 v 1 h 1 v -1 z m 0,3 v 1 h 1 v -1 z m 0,3 v 1 h 1 v -1 z m 0,3 v 1 h 1 v -1 z"
             id="path1570" />
          <path
             d="m 2,1030.4 c -0.5523,0 -1,0.4 -1,1 0,0.5 0.4477,1 1,1 z"
             id="path1572" />
          <path
             d="m 2,1033.4 c -0.5523,0 -1,0.4 -1,1 0,0.5 0.4477,1 1,1 z"
             id="path1574" />
          <path
             d="m 2,1036.4 c -0.5523,0 -1,0.4 -1,1 0,0.5 0.4477,1 1,1 z"
             id="path1576" />
          <path
             d="m 2,1039.4 c -0.5523,0 -1,0.4 -1,1 0,0.5 0.4477,1 1,1 z"
             id="path1578" />
          <path
             d="m 2,1042.4 c -0.5523,0 -1,0.4 -1,1 0,0.5 0.4477,1 1,1 z"
             id="path1580" />
          <path
             d="m 2,1045.4 c -0.5523,0 -1,0.4 -1,1 0,0.5 0.4477,1 1,1 z"
             id="path1582" />
        </g>
        <path
           d="m 3,1030.4 v 1 h 1 v -1 z m 0,3 v 1 h 1 v -1 z m 0,3 v 1 h 1 v -1 z m 0,3 v 1 h 1 v -1 z m 0,3 v 1 h 1 v -1 z m 0,3 v 1 h 1 v -1 z"
           fill="#95a5a6"
           id="path1586" />
      </g>
      <g
         transform="matrix(0.95652174,0,0,0.95652174,321.47826,-794.68696)"
         id="g1630">
        <path
           d="m 5,1028.4 c -1.1046,0 -2,0.9 -2,2 v 19 c 0,1.1 0.8954,2 2,2 h 14 c 1.105,0 2,-0.9 2,-2 v -19 c 0,-1.1 -0.895,-2 -2,-2 z"
           fill="#16a085"
           id="path1590" />
        <path
           d="m 6,1028.4 c -1.1046,0 -2,0.9 -2,2 v 18 c 0,1.1 0.8954,2 2,2 h 12 c 1.105,0 2,-0.9 2,-2 v -18 c 0,-1.1 -0.895,-2 -2,-2 z"
           fill="#ecf0f1"
           id="path1592" />
        <path
           d="m 15,1042.4 v 7 h 4 c 1.105,0 2,-0.9 2,-2 v -5 z"
           fill="#2ecc71"
           id="path1594" />
        <path
           d="m 15,1037.4 v 7 h 4 c 1.105,0 2,-0.9 2,-2 v -5 z"
           fill="#e74c3c"
           id="path1596" />
        <path
           d="m 15,1032.4 v 7 h 4 c 1.105,0 2,-0.9 2,-2 v -5 z"
           fill="#f1c40f"
           id="path1598" />
        <path
           d="m 15,0 v 2 h 4 v 4 c 1.105,0 2,-0.8954 2,-2 V 2 C 21,0.8954 20.105,0 19,0 Z"
           fill="#2980b9"
           id="path1600"
           transform="translate(0,1028.4)" />
        <path
           d="m 5,1028.4 c -1.1046,0 -2,0.9 -2,2 v 17 h 1 v 4 c 0,-1.1 0.8954,-2 2,-2 h 11.281 c 0.74,0 1.373,-0.4 1.719,-1 v -18 c 0,-1.1 -0.895,-2 -2,-2 z"
           fill="#1abc9c"
           id="path1602" />
        <g
           transform="translate(0,-2)"
           fill="#16a085"
           id="g1606">
          <path
             d="m 10.439,1041 c 0,0.5 0.108,0.9 0.323,1.2 0.22,0.3 0.516,0.5 0.889,0.5 0.368,0 0.663,-0.2 0.882,-0.5 0.22,-0.3 0.329,-0.7 0.329,-1.2 0,-0.5 -0.112,-0.9 -0.335,-1.2 -0.22,-0.3 -0.516,-0.4 -0.889,-0.4 -0.364,0 -0.656,0.1 -0.876,0.4 -0.215,0.3 -0.323,0.7 -0.323,1.2 m 2.548,1.9 c -0.125,0.3 -0.326,0.5 -0.603,0.7 -0.273,0.1 -0.594,0.2 -0.963,0.2 -0.712,0 -1.292,-0.2 -1.7395,-0.8 -0.4431,-0.5 -0.6647,-1.1 -0.6647,-2 0,-0.8 0.2236,-1.5 0.6709,-2 0.4473,-0.5 1.0253,-0.8 1.7333,-0.8 0.369,0 0.69,0.1 0.963,0.3 0.277,0.1 0.478,0.4 0.603,0.7 v -0.8 h 1.298 v 4.3 c 0.514,-0.1 0.917,-0.4 1.211,-0.8 0.294,-0.4 0.441,-0.9 0.441,-1.6 0,-0.4 -0.06,-0.8 -0.18,-1.1 -0.12,-0.4 -0.302,-0.7 -0.546,-1 -0.394,-0.5 -0.887,-0.9 -1.479,-1.2 -0.588,-0.3 -1.226,-0.4 -1.913,-0.4 -0.481,0 -0.941,0 -1.38,0.2 -0.439,0.1 -0.8445,0.3 -1.2172,0.5 -0.613,0.4 -1.0913,1 -1.4351,1.6 -0.3396,0.6 -0.5094,1.3 -0.5094,2.1 0,0.6 0.1098,1.2 0.3293,1.7 0.2236,0.6 0.5446,1 0.9629,1.5 0.4142,0.4 0.8884,0.7 1.4226,0.9 0.5389,0.2 1.1119,0.3 1.7209,0.3 0.522,0 1.044,-0.1 1.566,-0.3 0.521,-0.2 0.967,-0.4 1.335,-0.8 l 0.665,1 c -0.518,0.4 -1.083,0.7 -1.696,1 -0.609,0.2 -1.228,0.3 -1.858,0.3 -0.766,0 -1.489,-0.2 -2.1677,-0.4 -0.6793,-0.3 -1.2839,-0.7 -1.8141,-1.2 -0.5301,-0.5 -0.9339,-1.1 -1.2114,-1.8 -0.2775,-0.7 -0.4162,-1.4 -0.4162,-2.2 0,-0.8 0.1408,-1.5 0.4224,-2.2 0.2816,-0.7 0.6834,-1.3 1.2052,-1.8 0.5219,-0.5 1.1286,-0.9 1.8203,-1.2 0.6955,-0.2 1.4165,-0.4 2.1615,-0.4 0.928,0 1.771,0.2 2.529,0.6 0.758,0.3 1.391,0.8 1.901,1.5 0.311,0.4 0.545,0.8 0.702,1.3 0.161,0.5 0.242,1 0.242,1.5 0,1.1 -0.337,2 -1.012,2.6 -0.676,0.6 -1.628,0.9 -2.858,0.9 h -0.242 v -0.9"
             id="path1604" />
        </g>
        <path
           d="m 2,1031.4 v 1 h 2 v -1 z m 0,3 v 1 h 2 v -1 z m 0,3 v 1 h 2 v -1 z m 0,3 v 1 h 2 v -1 z m 0,3 v 1 h 2 v -1 z m 0,3 v 1 h 2 v -1 z"
           fill="#95a5a6"
           id="path1608" />
        <path
           d="m 5,1028.4 c -1.1046,0 -2,0.9 -2,2 v 19 c 0,1.1 0.8954,2 2,2 h 1 c -1.1046,0 -2,-0.9 -2,-2 v -19 c 0,-1.1 0.8954,-2 2,-2 z"
           fill="#16a085"
           id="path1610" />
        <g
           fill="#bdc3c7"
           id="g1626">
          <path
             d="m 2,1030.4 v 1 h 1 v -1 z m 0,3 v 1 h 1 v -1 z m 0,3 v 1 h 1 v -1 z m 0,3 v 1 h 1 v -1 z m 0,3 v 1 h 1 v -1 z m 0,3 v 1 h 1 v -1 z"
             id="path1612" />
          <path
             d="m 2,1030.4 c -0.5523,0 -1,0.4 -1,1 0,0.5 0.4477,1 1,1 z"
             id="path1614" />
          <path
             d="m 2,1033.4 c -0.5523,0 -1,0.4 -1,1 0,0.5 0.4477,1 1,1 z"
             id="path1616" />
          <path
             d="m 2,1036.4 c -0.5523,0 -1,0.4 -1,1 0,0.5 0.4477,1 1,1 z"
             id="path1618" />
          <path
             d="m 2,1039.4 c -0.5523,0 -1,0.4 -1,1 0,0.5 0.4477,1 1,1 z"
             id="path1620" />
          <path
             d="m 2,1042.4 c -0.5523,0 -1,0.4 -1,1 0,0.5 0.4477,1 1,1 z"
             id="path1622" />
          <path
             d="m 2,1045.4 c -0.5523,0 -1,0.4 -1,1 0,0.5 0.4477,1 1,1 z"
             id="path1624" />
        </g>
        <path
           d="m 3,1030.4 v 1 h 1 v -1 z m 0,3 v 1 h 1 v -1 z m 0,3 v 1 h 1 v -1 z m 0,3 v 1 h 1 v -1 z m 0,3 v 1 h 1 v -1 z m 0,3 v 1 h 1 v -1 z"
           fill="#95a5a6"
           id="path1628" />
      </g>
      <g
         transform="matrix(0.86956522,0,0,0.86956522,373.43478,-703.26087)"
         id="g1752">
        <path
           d="m 5,1028.4 c -1.1046,0 -2,0.9 -2,2 v 19 c 0,1.1 0.8954,2 2,2 h 14 c 1.105,0 2,-0.9 2,-2 v -19 c 0,-1.1 -0.895,-2 -2,-2 z"
           fill="#16a085"
           id="path1712" />
        <path
           d="m 6,1028.4 c -1.1046,0 -2,0.9 -2,2 v 18 c 0,1.1 0.8954,2 2,2 h 12 c 1.105,0 2,-0.9 2,-2 v -18 c 0,-1.1 -0.895,-2 -2,-2 z"
           fill="#ecf0f1"
           id="path1714" />
        <path
           d="m 15,1042.4 v 7 h 4 c 1.105,0 2,-0.9 2,-2 v -5 z"
           fill="#2ecc71"
           id="path1716" />
        <path
           d="m 15,1037.4 v 7 h 4 c 1.105,0 2,-0.9 2,-2 v -5 z"
           fill="#e74c3c"
           id="path1718" />
        <path
           d="m 15,1032.4 v 7 h 4 c 1.105,0 2,-0.9 2,-2 v -5 z"
           fill="#f1c40f"
           id="path1720" />
        <path
           d="m 15,0 v 2 h 4 v 4 c 1.105,0 2,-0.8954 2,-2 V 2 C 21,0.8954 20.105,0 19,0 Z"
           fill="#2980b9"
           id="path1722"
           transform="translate(0,1028.4)" />
        <path
           d="m 5,1028.4 c -1.1046,0 -2,0.9 -2,2 v 17 h 1 v 4 c 0,-1.1 0.8954,-2 2,-2 h 11.281 c 0.74,0 1.373,-0.4 1.719,-1 v -18 c 0,-1.1 -0.895,-2 -2,-2 z"
           fill="#1abc9c"
           id="path1724" />
        <g
           transform="translate(0,-2)"
           fill="#16a085"
           id="g1728">
          <path
             d="m 10.439,1041 c 0,0.5 0.108,0.9 0.323,1.2 0.22,0.3 0.516,0.5 0.889,0.5 0.368,0 0.663,-0.2 0.882,-0.5 0.22,-0.3 0.329,-0.7 0.329,-1.2 0,-0.5 -0.112,-0.9 -0.335,-1.2 -0.22,-0.3 -0.516,-0.4 -0.889,-0.4 -0.364,0 -0.656,0.1 -0.876,0.4 -0.215,0.3 -0.323,0.7 -0.323,1.2 m 2.548,1.9 c -0.125,0.3 -0.326,0.5 -0.603,0.7 -0.273,0.1 -0.594,0.2 -0.963,0.2 -0.712,0 -1.292,-0.2 -1.7395,-0.8 -0.4431,-0.5 -0.6647,-1.1 -0.6647,-2 0,-0.8 0.2236,-1.5 0.6709,-2 0.4473,-0.5 1.0253,-0.8 1.7333,-0.8 0.369,0 0.69,0.1 0.963,0.3 0.277,0.1 0.478,0.4 0.603,0.7 v -0.8 h 1.298 v 4.3 c 0.514,-0.1 0.917,-0.4 1.211,-0.8 0.294,-0.4 0.441,-0.9 0.441,-1.6 0,-0.4 -0.06,-0.8 -0.18,-1.1 -0.12,-0.4 -0.302,-0.7 -0.546,-1 -0.394,-0.5 -0.887,-0.9 -1.479,-1.2 -0.588,-0.3 -1.226,-0.4 -1.913,-0.4 -0.481,0 -0.941,0 -1.38,0.2 -0.439,0.1 -0.8445,0.3 -1.2172,0.5 -0.613,0.4 -1.0913,1 -1.4351,1.6 -0.3396,0.6 -0.5094,1.3 -0.5094,2.1 0,0.6 0.1098,1.2 0.3293,1.7 0.2236,0.6 0.5446,1 0.9629,1.5 0.4142,0.4 0.8884,0.7 1.4226,0.9 0.5389,0.2 1.1119,0.3 1.7209,0.3 0.522,0 1.044,-0.1 1.566,-0.3 0.521,-0.2 0.967,-0.4 1.335,-0.8 l 0.665,1 c -0.518,0.4 -1.083,0.7 -1.696,1 -0.609,0.2 -1.228,0.3 -1.858,0.3 -0.766,0 -1.489,-0.2 -2.1677,-0.4 -0.6793,-0.3 -1.2839,-0.7 -1.8141,-1.2 -0.5301,-0.5 -0.9339,-1.1 -1.2114,-1.8 -0.2775,-0.7 -0.4162,-1.4 -0.4162,-2.2 0,-0.8 0.1408,-1.5 0.4224,-2.2 0.2816,-0.7 0.6834,-1.3 1.2052,-1.8 0.5219,-0.5 1.1286,-0.9 1.8203,-1.2 0.6955,-0.2 1.4165,-0.4 2.1615,-0.4 0.928,0 1.771,0.2 2.529,0.6 0.758,0.3 1.391,0.8 1.901,1.5 0.311,0.4 0.545,0.8 0.702,1.3 0.161,0.5 0.242,1 0.242,1.5 0,1.1 -0.337,2 -1.012,2.6 -0.676,0.6 -1.628,0.9 -2.858,0.9 h -0.242 v -0.9"
             id="path1726" />
        </g>
        <path
           d="m 2,1031.4 v 1 h 2 v -1 z m 0,3 v 1 h 2 v -1 z m 0,3 v 1 h 2 v -1 z m 0,3 v 1 h 2 v -1 z m 0,3 v 1 h 2 v -1 z m 0,3 v 1 h 2 v -1 z"
           fill="#95a5a6"
           id="path1730" />
        <path
           d="m 5,1028.4 c -1.1046,0 -2,0.9 -2,2 v 19 c 0,1.1 0.8954,2 2,2 h 1 c -1.1046,0 -2,-0.9 -2,-2 v -19 c 0,-1.1 0.8954,-2 2,-2 z"
           fill="#16a085"
           id="path1732" />
        <g
           fill="#bdc3c7"
           id="g1748">
          <path
             d="m 2,1030.4 v 1 h 1 v -1 z m 0,3 v 1 h 1 v -1 z m 0,3 v 1 h 1 v -1 z m 0,3 v 1 h 1 v -1 z m 0,3 v 1 h 1 v -1 z m 0,3 v 1 h 1 v -1 z"
             id="path1734" />
          <path
             d="m 2,1030.4 c -0.5523,0 -1,0.4 -1,1 0,0.5 0.4477,1 1,1 z"
             id="path1736" />
          <path
             d="m 2,1033.4 c -0.5523,0 -1,0.4 -1,1 0,0.5 0.4477,1 1,1 z"
             id="path1738" />
          <path
             d="m 2,1036.4 c -0.5523,0 -1,0.4 -1,1 0,0.5 0.4477,1 1,1 z"
             id="path1740" />
          <path
             d="m 2,1039.4 c -0.5523,0 -1,0.4 -1,1 0,0.5 0.4477,1 1,1 z"
             id="path1742" />
          <path
             d="m 2,1042.4 c -0.5523,0 -1,0.4 -1,1 0,0.5 0.4477,1 1,1 z"
             id="path1744" />
          <path
             d="m 2,1045.4 c -0.5523,0 -1,0.4 -1,1 0,0.5 0.4477,1 1,1 z"
             id="path1746" />
        </g>
        <path
           d="m 3,1030.4 v 1 h 1 v -1 z m 0,3 v 1 h 1 v -1 z m 0,3 v 1 h 1 v -1 z m 0,3 v 1 h 1 v -1 z m 0,3 v 1 h 1 v -1 z m 0,3 v 1 h 1 v -1 z"
           fill="#95a5a6"
           id="path1750" />
      </g>
      <g
         transform="matrix(0.60869565,0,0,0.60869565,321.30435,-388.98261)"
         id="g1794">
        <path
           d="m 5,1028.4 c -1.1046,0 -2,0.9 -2,2 v 19 c 0,1.1 0.8954,2 2,2 h 14 c 1.105,0 2,-0.9 2,-2 v -19 c 0,-1.1 -0.895,-2 -2,-2 z"
           fill="#16a085"
           id="path1754" />
        <path
           d="m 6,1028.4 c -1.1046,0 -2,0.9 -2,2 v 18 c 0,1.1 0.8954,2 2,2 h 12 c 1.105,0 2,-0.9 2,-2 v -18 c 0,-1.1 -0.895,-2 -2,-2 z"
           fill="#ecf0f1"
           id="path1756" />
        <path
           d="m 15,1042.4 v 7 h 4 c 1.105,0 2,-0.9 2,-2 v -5 z"
           fill="#2ecc71"
           id="path1758" />
        <path
           d="m 15,1037.4 v 7 h 4 c 1.105,0 2,-0.9 2,-2 v -5 z"
           fill="#e74c3c"
           id="path1760" />
        <path
           d="m 15,1032.4 v 7 h 4 c 1.105,0 2,-0.9 2,-2 v -5 z"
           fill="#f1c40f"
           id="path1762" />
        <path
           d="m 15,0 v 2 h 4 v 4 c 1.105,0 2,-0.8954 2,-2 V 2 C 21,0.8954 20.105,0 19,0 Z"
           fill="#2980b9"
           id="path1764"
           transform="translate(0,1028.4)" />
        <path
           d="m 5,1028.4 c -1.1046,0 -2,0.9 -2,2 v 17 h 1 v 4 c 0,-1.1 0.8954,-2 2,-2 h 11.281 c 0.74,0 1.373,-0.4 1.719,-1 v -18 c 0,-1.1 -0.895,-2 -2,-2 z"
           fill="#1abc9c"
           id="path1766" />
        <g
           transform="translate(0,-2)"
           fill="#16a085"
           id="g1770">
          <path
             d="m 10.439,1041 c 0,0.5 0.108,0.9 0.323,1.2 0.22,0.3 0.516,0.5 0.889,0.5 0.368,0 0.663,-0.2 0.882,-0.5 0.22,-0.3 0.329,-0.7 0.329,-1.2 0,-0.5 -0.112,-0.9 -0.335,-1.2 -0.22,-0.3 -0.516,-0.4 -0.889,-0.4 -0.364,0 -0.656,0.1 -0.876,0.4 -0.215,0.3 -0.323,0.7 -0.323,1.2 m 2.548,1.9 c -0.125,0.3 -0.326,0.5 -0.603,0.7 -0.273,0.1 -0.594,0.2 -0.963,0.2 -0.712,0 -1.292,-0.2 -1.7395,-0.8 -0.4431,-0.5 -0.6647,-1.1 -0.6647,-2 0,-0.8 0.2236,-1.5 0.6709,-2 0.4473,-0.5 1.0253,-0.8 1.7333,-0.8 0.369,0 0.69,0.1 0.963,0.3 0.277,0.1 0.478,0.4 0.603,0.7 v -0.8 h 1.298 v 4.3 c 0.514,-0.1 0.917,-0.4 1.211,-0.8 0.294,-0.4 0.441,-0.9 0.441,-1.6 0,-0.4 -0.06,-0.8 -0.18,-1.1 -0.12,-0.4 -0.302,-0.7 -0.546,-1 -0.394,-0.5 -0.887,-0.9 -1.479,-1.2 -0.588,-0.3 -1.226,-0.4 -1.913,-0.4 -0.481,0 -0.941,0 -1.38,0.2 -0.439,0.1 -0.8445,0.3 -1.2172,0.5 -0.613,0.4 -1.0913,1 -1.4351,1.6 -0.3396,0.6 -0.5094,1.3 -0.5094,2.1 0,0.6 0.1098,1.2 0.3293,1.7 0.2236,0.6 0.5446,1 0.9629,1.5 0.4142,0.4 0.8884,0.7 1.4226,0.9 0.5389,0.2 1.1119,0.3 1.7209,0.3 0.522,0 1.044,-0.1 1.566,-0.3 0.521,-0.2 0.967,-0.4 1.335,-0.8 l 0.665,1 c -0.518,0.4 -1.083,0.7 -1.696,1 -0.609,0.2 -1.228,0.3 -1.858,0.3 -0.766,0 -1.489,-0.2 -2.1677,-0.4 -0.6793,-0.3 -1.2839,-0.7 -1.8141,-1.2 -0.5301,-0.5 -0.9339,-1.1 -1.2114,-1.8 -0.2775,-0.7 -0.4162,-1.4 -0.4162,-2.2 0,-0.8 0.1408,-1.5 0.4224,-2.2 0.2816,-0.7 0.6834,-1.3 1.2052,-1.8 0.5219,-0.5 1.1286,-0.9 1.8203,-1.2 0.6955,-0.2 1.4165,-0.4 2.1615,-0.4 0.928,0 1.771,0.2 2.529,0.6 0.758,0.3 1.391,0.8 1.901,1.5 0.311,0.4 0.545,0.8 0.702,1.3 0.161,0.5 0.242,1 0.242,1.5 0,1.1 -0.337,2 -1.012,2.6 -0.676,0.6 -1.628,0.9 -2.858,0.9 h -0.242 v -0.9"
             id="path1768" />
        </g>
        <path
           d="m 2,1031.4 v 1 h 2 v -1 z m 0,3 v 1 h 2 v -1 z m 0,3 v 1 h 2 v -1 z m 0,3 v 1 h 2 v -1 z m 0,3 v 1 h 2 v -1 z m 0,3 v 1 h 2 v -1 z"
           fill="#95a5a6"
           id="path1772" />
        <path
           d="m 5,1028.4 c -1.1046,0 -2,0.9 -2,2 v 19 c 0,1.1 0.8954,2 2,2 h 1 c -1.1046,0 -2,-0.9 -2,-2 v -19 c 0,-1.1 0.8954,-2 2,-2 z"
           fill="#16a085"
           id="path1774" />
        <g
           fill="#bdc3c7"
           id="g1790">
          <path
             d="m 2,1030.4 v 1 h 1 v -1 z m 0,3 v 1 h 1 v -1 z m 0,3 v 1 h 1 v -1 z m 0,3 v 1 h 1 v -1 z m 0,3 v 1 h 1 v -1 z m 0,3 v 1 h 1 v -1 z"
             id="path1776" />
          <path
             d="m 2,1030.4 c -0.5523,0 -1,0.4 -1,1 0,0.5 0.4477,1 1,1 z"
             id="path1778" />
          <path
             d="m 2,1033.4 c -0.5523,0 -1,0.4 -1,1 0,0.5 0.4477,1 1,1 z"
             id="path1780" />
          <path
             d="m 2,1036.4 c -0.5523,0 -1,0.4 -1,1 0,0.5 0.4477,1 1,1 z"
             id="path1782" />
          <path
             d="m 2,1039.4 c -0.5523,0 -1,0.4 -1,1 0,0.5 0.4477,1 1,1 z"
             id="path1784" />
          <path
             d="m 2,1042.4 c -0.5523,0 -1,0.4 -1,1 0,0.5 0.4477,1 1,1 z"
             id="path1786" />
          <path
             d="m 2,1045.4 c -0.5523,0 -1,0.4 -1,1 0,0.5 0.4477,1 1,1 z"
             id="path1788" />
        </g>
        <path
           d="m 3,1030.4 v 1 h 1 v -1 z m 0,3 v 1 h 1 v -1 z m 0,3 v 1 h 1 v -1 z m 0,3 v 1 h 1 v -1 z m 0,3 v 1 h 1 v -1 z m 0,3 v 1 h 1 v -1 z"
           fill="#95a5a6"
           id="path1792" />
      </g>
    </g>
    <g
       inkscape:groupmode="layer"
       id="layer4"
       inkscape:label="Highlights"
       style="display:inline" />
    <g
       inkscape:groupmode="layer"
       id="layer2"
       inkscape:label="Emblems"
       style="display:inline"
       sodipodi:insensitive="true">
      <circle
         style="display:inline;opacity:1;vector-effect:none;fill:#0f8420;fill-opacity:1;stroke:none;stroke-width:4.5;stroke-linecap:butt;stroke-linejoin:round;stroke-miterlimit:4;stroke-dasharray:none;stroke-dashoffset:0;stroke-opacity:1;enable-background:new"
         id="path2644-5-3"
         cy="207.5"
         cx="389.5"
         r="4.5" />
      <path
         inkscape:connector-curvature="0"
         id="path1063-0-6"
         overflow="visible"
         font-weight="400"
         style="color:#000000;font-weight:400;line-height:normal;font-family:sans-serif;text-indent:0;text-align:start;text-decoration:none;text-decoration-line:none;text-decoration-style:solid;text-decoration-color:#000000;text-transform:none;white-space:normal;display:inline;overflow:visible;opacity:1;isolation:auto;mix-blend-mode:normal;fill:#ffffff;fill-opacity:1;marker:none;enable-background:new"
         d="m 389,205 v 2 h -2 v 1 h 2 v 2 h 1 v -2 h 2 v -1 h -2 v -2 z" />
      <circle
         style="display:inline;opacity:1;vector-effect:none;fill:#0f8420;fill-opacity:1;stroke:none;stroke-width:3.5;stroke-linecap:butt;stroke-linejoin:round;stroke-miterlimit:4;stroke-dasharray:none;stroke-dashoffset:0;stroke-opacity:1;enable-background:new"
         id="path2644"
         cy="248.5"
         cx="332.5"
         r="3.5" />
      <path
         inkscape:connector-curvature="0"
         id="path1063"
         overflow="visible"
         font-weight="400"
         style="color:#000000;font-weight:400;line-height:normal;font-family:sans-serif;text-indent:0;text-align:start;text-decoration:none;text-decoration-line:none;text-decoration-style:solid;text-decoration-color:#000000;text-transform:none;white-space:normal;display:inline;overflow:visible;opacity:1;isolation:auto;mix-blend-mode:normal;fill:#ffffff;fill-opacity:1;marker:none;enable-background:new"
         d="m 332,246 v 2 h -2 v 1 h 2 v 2 h 1 v -2 h 2 v -1 h -2 v -2 z" />
      <circle
         style="display:inline;opacity:0.2;vector-effect:none;fill:#000000;fill-opacity:1;stroke:none;stroke-width:34;stroke-linecap:butt;stroke-linejoin:round;stroke-miterlimit:4;stroke-dasharray:none;stroke-dashoffset:0;stroke-opacity:1;filter:url(#filter11348);enable-background:new"
         id="path2644-5-5-7-5-9"
         cy="244.00002"
         cx="222"
         r="34" />
      <circle
         style="display:inline;opacity:1;vector-effect:none;fill:#0f8420;fill-opacity:1;stroke:none;stroke-width:4.5;stroke-linecap:butt;stroke-linejoin:round;stroke-miterlimit:4;stroke-dasharray:none;stroke-dashoffset:0;stroke-opacity:1;enable-background:new"
         id="path2644-5-3-6"
         cy="207.50002"
         cx="389.50003"
         r="4.5" />
      <path
         inkscape:connector-curvature="0"
         id="path1063-0-6-2"
         overflow="visible"
         font-weight="400"
         style="color:#000000;font-weight:400;line-height:normal;font-family:sans-serif;text-indent:0;text-align:start;text-decoration:none;text-decoration-line:none;text-decoration-style:solid;text-decoration-color:#000000;text-transform:none;white-space:normal;display:inline;overflow:visible;opacity:1;isolation:auto;mix-blend-mode:normal;fill:#ffffff;fill-opacity:1;marker:none;enable-background:new"
         d="m 389.00001,205 v 2 h -2 v 1 h 2 v 2 h 1 v -2 h 2 v -1 h -2 v -2 z" />
      <circle
         style="display:inline;opacity:1;vector-effect:none;fill:#0f8420;fill-opacity:1;stroke:none;stroke-width:4.5;stroke-linecap:butt;stroke-linejoin:round;stroke-miterlimit:4;stroke-dasharray:none;stroke-dashoffset:0;stroke-opacity:1;enable-background:new"
         id="path2644-5"
         cy="207.50002"
         cx="339.50003"
         r="4.5" />
      <path
         inkscape:connector-curvature="0"
         id="path1063-0"
         overflow="visible"
         font-weight="400"
         style="color:#000000;font-weight:400;line-height:normal;font-family:sans-serif;text-indent:0;text-align:start;text-decoration:none;text-decoration-line:none;text-decoration-style:solid;text-decoration-color:#000000;text-transform:none;white-space:normal;display:inline;overflow:visible;opacity:1;isolation:auto;mix-blend-mode:normal;fill:#ffffff;fill-opacity:1;marker:none;enable-background:new"
         d="m 339.00001,205 v 2 h -2 v 1 h 2 v 2 h 1 v -2 h 2 v -1 h -2 v -2 z" />
      <circle
         style="display:inline;opacity:1;vector-effect:none;fill:#0f8420;fill-opacity:1;stroke:none;stroke-width:3.5;stroke-linecap:butt;stroke-linejoin:round;stroke-miterlimit:4;stroke-dasharray:none;stroke-dashoffset:0;stroke-opacity:1;enable-background:new"
         id="path2644-9"
         cy="248.50002"
         cx="332.50003"
         r="3.5" />
      <path
         inkscape:connector-curvature="0"
         id="path1063-1"
         overflow="visible"
         font-weight="400"
         style="color:#000000;font-weight:400;line-height:normal;font-family:sans-serif;text-indent:0;text-align:start;text-decoration:none;text-decoration-line:none;text-decoration-style:solid;text-decoration-color:#000000;text-transform:none;white-space:normal;display:inline;overflow:visible;opacity:1;isolation:auto;mix-blend-mode:normal;fill:#ffffff;fill-opacity:1;marker:none;enable-background:new"
         d="m 332.00001,246 v 2 h -2 v 1 h 2 v 2 h 1 v -2 h 2 v -1 h -2 v -2 z" />
      <circle
         style="display:inline;opacity:1;vector-effect:none;fill:#0f8420;fill-opacity:1;stroke:none;stroke-width:4.5;stroke-linecap:butt;stroke-linejoin:round;stroke-miterlimit:4;stroke-dasharray:none;stroke-dashoffset:0;stroke-opacity:1;enable-background:new"
         id="path2644-5-5"
         cy="159.5"
         cx="345.50003"
         r="4.5" />
      <path
         inkscape:connector-curvature="0"
         id="path1063-0-4"
         overflow="visible"
         font-weight="400"
         style="color:#000000;font-weight:400;line-height:normal;font-family:sans-serif;text-indent:0;text-align:start;text-decoration:none;text-decoration-line:none;text-decoration-style:solid;text-decoration-color:#000000;text-transform:none;white-space:normal;display:inline;overflow:visible;opacity:1;isolation:auto;mix-blend-mode:normal;fill:#ffffff;fill-opacity:1;marker:none;enable-background:new"
         d="m 345.00001,157 v 2 h -2 v 1 h 2 v 2 h 1 v -2 h 2 v -1 h -2 v -2 z"
         sodipodi:nodetypes="ccccccccccccc" />
      <circle
         style="display:inline;opacity:1;vector-effect:none;fill:#0f8420;fill-opacity:1;stroke:none;stroke-width:6.5;stroke-linecap:butt;stroke-linejoin:round;stroke-miterlimit:4;stroke-dasharray:none;stroke-dashoffset:0;stroke-opacity:1;enable-background:new"
         id="path2644-5-5-7"
         cy="101.5"
         cx="358.50003"
         r="6.5" />
      <path
         inkscape:connector-curvature="0"
         id="path1063-0-4-6"
         overflow="visible"
         font-weight="400"
         style="color:#000000;font-weight:400;line-height:normal;font-family:sans-serif;text-indent:0;text-align:start;text-decoration:none;text-decoration-line:none;text-decoration-style:solid;text-decoration-color:#000000;text-transform:none;white-space:normal;display:inline;overflow:visible;opacity:1;isolation:auto;mix-blend-mode:normal;fill:#ffffff;fill-opacity:1;marker:none;enable-background:new"
         d="M 358.00001,98.000004 V 101 h -3 v 1 h 3 v 3 h 1 v -3 h 3 v -1 h -3 v -2.999996 z"
         sodipodi:nodetypes="ccccccccccccc" />
      <circle
         style="display:inline;opacity:1;vector-effect:none;fill:#0f8420;fill-opacity:1;stroke:none;stroke-width:34;stroke-linecap:butt;stroke-linejoin:round;stroke-miterlimit:4;stroke-dasharray:none;stroke-dashoffset:0;stroke-opacity:1;enable-background:new"
         id="path2644-5-5-7-5"
         cy="242.00002"
         cx="222"
         r="34" />
      <path
         inkscape:connector-curvature="0"
         id="path1063-0-4-6-6"
         overflow="visible"
         font-weight="400"
         style="color:#000000;font-weight:400;line-height:normal;font-family:sans-serif;text-indent:0;text-align:start;text-decoration:none;text-decoration-line:none;text-decoration-style:solid;text-decoration-color:#000000;text-transform:none;white-space:normal;display:inline;overflow:visible;opacity:1;isolation:auto;mix-blend-mode:normal;fill:#ffffff;fill-opacity:1;stroke-width:6;marker:none;enable-background:new"
         d="m 220.00001,220 v 20 h -20 v 4 h 20 v 20 h 4 v -20 h 20 v -4 h -20 v -20 z"
         sodipodi:nodetypes="ccccccccccccc" />
    </g>
  </g>
</svg>
