<?xml version="1.0" encoding="UTF-8" standalone="no"?>
<svg
   inkscape:export-ydpi="96"
   inkscape:export-xdpi="96"
   width="400"
   height="300"
   id="svg11300"
   sodipodi:version="0.32"
   inkscape:version="1.2.2 (b0a8486541, 2022-12-01)"
   sodipodi:docname="document-open.svg"
   inkscape:output_extension="org.inkscape.output.svg.inkscape"
   version="1.0"
   style="display:inline;enable-background:new"
   inkscape:export-filename="C:\Users\sblav\Pictures\vertical oblong template.png"
   xmlns:inkscape="http://www.inkscape.org/namespaces/inkscape"
   xmlns:sodipodi="http://sodipodi.sourceforge.net/DTD/sodipodi-0.dtd"
   xmlns:xlink="http://www.w3.org/1999/xlink"
   xmlns="http://www.w3.org/2000/svg"
   xmlns:svg="http://www.w3.org/2000/svg"
   xmlns:rdf="http://www.w3.org/1999/02/22-rdf-syntax-ns#"
   xmlns:cc="http://creativecommons.org/ns#"
   xmlns:dc="http://purl.org/dc/elements/1.1/">
  <title
     id="title3004">Sucharu Icon Theme Template</title>
  <sodipodi:namedview
     stroke="#ef2929"
     fill="#f57900"
     id="base"
     pagecolor="#ffffff"
     bordercolor="#000000"
     borderopacity="0.25490196"
     inkscape:pageopacity="0"
     inkscape:pageshadow="2"
     inkscape:zoom="2.0000001"
     inkscape:cx="345.24999"
     inkscape:cy="166.75"
     inkscape:current-layer="layer7"
     showgrid="false"
     inkscape:grid-bbox="true"
     inkscape:document-units="px"
     inkscape:showpageshadow="false"
     inkscape:window-width="1920"
     inkscape:window-height="1020"
     inkscape:window-x="0"
     inkscape:window-y="32"
     width="400px"
     height="300px"
     inkscape:snap-nodes="true"
     inkscape:snap-bbox="true"
     gridtolerance="10000"
     inkscape:object-nodes="true"
     inkscape:snap-grids="true"
     showguides="false"
     inkscape:guide-bbox="true"
     inkscape:window-maximized="1"
     inkscape:bbox-paths="true"
     inkscape:snap-bbox-midpoints="true"
     inkscape:snap-global="true"
     inkscape:object-paths="true"
     inkscape:snap-intersection-paths="true"
     inkscape:snap-smooth-nodes="true"
     inkscape:pagecheckerboard="false"
     showborder="false"
     inkscape:document-rotation="0"
     inkscape:deskcolor="#d1d1d1" />
  <defs
     id="defs3">
    <filter
       id="e"
       x="-0.011000694"
       y="-0.22000834"
       width="1.0220014"
       height="1.4400167"
       color-interpolation-filters="sRGB">
      <feGaussianBlur
         stdDeviation="0.072761339"
         id="feGaussianBlur21" />
    </filter>
    <linearGradient
       id="c"
       x1="25"
       x2="25"
       y1="155"
       y2="166"
       gradientTransform="matrix(3.6903995,0,0,3.7022295,24.836985,-521.40207)"
       gradientUnits="userSpaceOnUse">
      <stop
         stop-color="#12a327"
         offset="0"
         id="stop2" />
      <stop
         stop-color="#208a2f"
         offset="1"
         id="stop4" />
    </linearGradient>
    <filter
       id="d"
       x="-0.014849913"
       y="-0.14849988"
       width="1.0296998"
       height="1.2969998"
       color-interpolation-filters="sRGB">
      <feGaussianBlur
         stdDeviation="0.098224626"
         id="feGaussianBlur24" />
    </filter>
    <linearGradient
       id="b"
       x1="5"
       x2="65"
       y1="185"
       y2="185"
       gradientTransform="matrix(3.6903995,0,0,3.7022295,24.836845,-521.40207)"
       gradientUnits="userSpaceOnUse">
      <stop
         stop-color="#12a327"
         offset="0"
         id="stop7" />
      <stop
         stop-color="#28bd3d"
         offset=".083713"
         id="stop9" />
      <stop
         stop-color="#28bd3d"
         offset=".91237"
         id="stop11" />
      <stop
         stop-color="#12a327"
         offset="1"
         id="stop13" />
    </linearGradient>
    <linearGradient
       id="a"
       x1="-9.6169996"
       x2="-9.6169996"
       y1="1138.4"
       y2="1140.2"
       gradientTransform="matrix(2.5340986,0,0,5.7309136,164.23794,-6296.5608)"
       gradientUnits="userSpaceOnUse">
      <stop
         stop-color="#12a327"
         stop-opacity="0"
         offset="0"
         id="stop16" />
      <stop
         stop-color="#12a327"
         offset="1"
         id="stop18" />
    </linearGradient>
    <linearGradient
       inkscape:collect="always"
       xlink:href="#c"
       id="linearGradient1396"
       gradientUnits="userSpaceOnUse"
       gradientTransform="matrix(0.74455441,0,0,0.74694117,317.94079,-50.449552)"
       x1="25"
       y1="155"
       x2="25"
       y2="166" />
    <linearGradient
       inkscape:collect="always"
       xlink:href="#b"
       id="linearGradient1398"
       gradientUnits="userSpaceOnUse"
       gradientTransform="matrix(0.74455441,0,0,0.74694117,317.94076,-50.449552)"
       x1="5"
       y1="185"
       x2="65"
       y2="185" />
    <linearGradient
       inkscape:collect="always"
       xlink:href="#a"
       id="linearGradient1400"
       gradientUnits="userSpaceOnUse"
       gradientTransform="matrix(0.51126559,0,0,1.1562371,346.06555,-1215.6134)"
       x1="-9.6169996"
       y1="1138.4"
       x2="-9.6169996"
       y2="1140.2" />
    <linearGradient
       inkscape:collect="always"
       xlink:href="#c"
       id="linearGradient1510"
       gradientUnits="userSpaceOnUse"
       gradientTransform="matrix(0.51795089,0,0,0.51961124,317.87185,54.46988)"
       x1="25"
       y1="155"
       x2="25"
       y2="166" />
    <linearGradient
       inkscape:collect="always"
       xlink:href="#b"
       id="linearGradient1512"
       gradientUnits="userSpaceOnUse"
       gradientTransform="matrix(0.51795089,0,0,0.51961124,317.87183,54.46988)"
       x1="5"
       y1="185"
       x2="65"
       y2="185" />
    <linearGradient
       inkscape:collect="always"
       xlink:href="#a"
       id="linearGradient1514"
       gradientUnits="userSpaceOnUse"
       gradientTransform="matrix(0.35566302,0,0,0.80433888,337.4369,-756.07885)"
       x1="-9.6169996"
       y1="1138.4"
       x2="-9.6169996"
       y2="1140.2" />
    <linearGradient
       inkscape:collect="always"
       xlink:href="#c"
       id="linearGradient1630"
       gradientUnits="userSpaceOnUse"
       gradientTransform="matrix(0.3237193,0,0,0.32475702,371.66991,142.54367)"
       x1="25"
       y1="155"
       x2="25"
       y2="166" />
    <linearGradient
       inkscape:collect="always"
       xlink:href="#b"
       id="linearGradient1632"
       gradientUnits="userSpaceOnUse"
       gradientTransform="matrix(0.3237193,0,0,0.32475702,371.6699,142.54367)"
       x1="5"
       y1="185"
       x2="65"
       y2="185" />
    <linearGradient
       inkscape:collect="always"
       xlink:href="#a"
       id="linearGradient1634"
       gradientUnits="userSpaceOnUse"
       gradientTransform="matrix(0.22228938,0,0,0.50271179,383.89807,-364.04927)"
       x1="-9.6169996"
       y1="1138.4"
       x2="-9.6169996"
       y2="1140.2" />
    <linearGradient
       inkscape:collect="always"
       xlink:href="#c"
       id="linearGradient1824"
       gradientUnits="userSpaceOnUse"
       gradientTransform="matrix(0.35609126,0,0,0.35723275,319.5369,135.69803)"
       x1="25"
       y1="155"
       x2="25"
       y2="166" />
    <linearGradient
       inkscape:collect="always"
       xlink:href="#b"
       id="linearGradient1826"
       gradientUnits="userSpaceOnUse"
       gradientTransform="matrix(0.35609126,0,0,0.35723275,319.53689,135.69803)"
       x1="5"
       y1="185"
       x2="65"
       y2="185" />
    <linearGradient
       inkscape:collect="always"
       xlink:href="#a"
       id="linearGradient1828"
       gradientUnits="userSpaceOnUse"
       gradientTransform="matrix(0.24451834,0,0,0.55298302,332.98787,-421.55425)"
       x1="-9.6169996"
       y1="1138.4"
       x2="-9.6169996"
       y2="1140.2" />
    <linearGradient
       inkscape:collect="always"
       xlink:href="#c"
       id="linearGradient1938"
       gradientUnits="userSpaceOnUse"
       gradientTransform="matrix(0.25897545,0,0,0.25980562,318.93593,197.23494)"
       x1="25"
       y1="155"
       x2="25"
       y2="166" />
    <linearGradient
       inkscape:collect="always"
       xlink:href="#b"
       id="linearGradient1940"
       gradientUnits="userSpaceOnUse"
       gradientTransform="matrix(0.25897545,0,0,0.25980562,318.93592,197.23494)"
       x1="5"
       y1="185"
       x2="65"
       y2="185" />
    <linearGradient
       inkscape:collect="always"
       xlink:href="#a"
       id="linearGradient1942"
       gradientUnits="userSpaceOnUse"
       gradientTransform="matrix(0.17783151,0,0,0.40216944,328.71845,-208.03943)"
       x1="-9.6169996"
       y1="1138.4"
       x2="-9.6169996"
       y2="1140.2" />
    <linearGradient
       inkscape:collect="always"
       xlink:href="#c"
       id="linearGradient703"
       gradientUnits="userSpaceOnUse"
       gradientTransform="matrix(3.6903995,0,0,3.7022295,22.83698,-510.40201)"
       x1="25"
       y1="155"
       x2="25"
       y2="166" />
    <linearGradient
       inkscape:collect="always"
       xlink:href="#b"
       id="linearGradient705"
       gradientUnits="userSpaceOnUse"
       gradientTransform="matrix(3.6903995,0,0,3.7022295,22.83684,-510.40201)"
       x1="5"
       y1="185"
       x2="65"
       y2="185" />
    <linearGradient
       inkscape:collect="always"
       xlink:href="#a"
       id="linearGradient707"
       gradientUnits="userSpaceOnUse"
       gradientTransform="matrix(2.5340986,0,0,5.7309136,162.23794,-6285.5607)"
       x1="-9.6169996"
       y1="1138.4"
       x2="-9.6169996"
       y2="1140.2" />
    <linearGradient
       id="b-3"
       x2="1"
       gradientTransform="matrix(-0.47046387,-44.446665,44.106944,-0.47408748,266.09825,209.20452)"
       gradientUnits="userSpaceOnUse">
      <stop
         stop-color="#cfdaf0"
         offset="0"
         id="stop7-6" />
      <stop
         stop-color="#fdfdfe"
         offset="1"
         id="stop9-7" />
    </linearGradient>
    <linearGradient
       id="b-3-5"
       x2="1"
       gradientTransform="matrix(-0.47046387,-43.012902,44.106944,-0.45879434,500.76981,92.72139)"
       gradientUnits="userSpaceOnUse">
      <stop
         stop-color="#cfdaf0"
         offset="0"
         id="stop7-6-3" />
      <stop
         stop-color="#fdfdfe"
         offset="1"
         id="stop9-7-5" />
    </linearGradient>
    <linearGradient
       id="b-3-5-6"
       x2="1"
       gradientTransform="matrix(-2.2582268,-206.46194,211.71335,-2.202213,542.53326,313.46411)"
       gradientUnits="userSpaceOnUse">
      <stop
         stop-color="#cfdaf0"
         offset="0"
         id="stop7-6-3-2" />
      <stop
         stop-color="#fdfdfe"
         offset="1"
         id="stop9-7-5-9" />
    </linearGradient>
    <linearGradient
       id="b-3-5-7"
       x2="1"
       gradientTransform="matrix(-0.2352319,-21.506448,22.053468,-0.22939713,444.75673,237.07811)"
       gradientUnits="userSpaceOnUse">
      <stop
         stop-color="#cfdaf0"
         offset="0"
         id="stop7-6-3-0" />
      <stop
         stop-color="#fdfdfe"
         offset="1"
         id="stop9-7-5-93" />
    </linearGradient>
    <linearGradient
       id="b-3-5-62"
       x2="1"
       gradientTransform="matrix(-0.3010969,-27.528259,28.228446,-0.2936284,463.01395,170.12381)"
       gradientUnits="userSpaceOnUse">
      <stop
         stop-color="#cfdaf0"
         offset="0"
         id="stop7-6-3-6" />
      <stop
         stop-color="#fdfdfe"
         offset="1"
         id="stop9-7-5-1" />
    </linearGradient>
    <linearGradient
       id="b-3-5-9"
       x2="1"
       gradientTransform="matrix(-0.21954982,-20.072689,20.583242,-0.21410404,510.79212,236.90064)"
       gradientUnits="userSpaceOnUse">
      <stop
         stop-color="#cfdaf0"
         offset="0"
         id="stop7-6-3-20" />
      <stop
         stop-color="#fdfdfe"
         offset="1"
         id="stop9-7-5-2" />
    </linearGradient>
    <linearGradient
       id="b-3-5-62-9"
       x2="1"
       gradientTransform="matrix(-0.15054844,-13.764129,14.114222,-0.14681419,426.20833,292.29583)"
       gradientUnits="userSpaceOnUse">
      <stop
         stop-color="#cfdaf0"
         offset="0"
         id="stop7-6-3-6-2" />
      <stop
         stop-color="#fdfdfe"
         offset="1"
         id="stop9-7-5-1-2" />
    </linearGradient>
  </defs>
  <metadata
     id="metadata4">
    <rdf:RDF>
      <cc:Work
         rdf:about="">
        <dc:format>image/svg+xml</dc:format>
        <dc:type
           rdf:resource="http://purl.org/dc/dcmitype/StillImage" />
        <dc:creator>
          <cc:Agent>
            <dc:title>Himadri Sekhar Basu</dc:title>
          </cc:Agent>
        </dc:creator>
        <dc:source />
        <cc:license
           rdf:resource="http://creativecommons.org/licenses/by-sa/4.0/" />
        <dc:title>Sucharu Icon Theme Template</dc:title>
        <dc:subject>
          <rdf:Bag />
        </dc:subject>
        <dc:date />
        <dc:rights>
          <cc:Agent>
            <dc:title />
          </cc:Agent>
        </dc:rights>
        <dc:publisher>
          <cc:Agent>
            <dc:title />
          </cc:Agent>
        </dc:publisher>
        <dc:identifier />
        <dc:relation />
        <dc:language />
        <dc:coverage />
        <dc:description />
        <dc:contributor>
          <cc:Agent>
            <dc:title />
          </cc:Agent>
        </dc:contributor>
      </cc:Work>
      <cc:Work
         rdf:about="">
        <dc:format>image/svg+xml</dc:format>
        <dc:type
           rdf:resource="http://purl.org/dc/dcmitype/StillImage" />
      </cc:Work>
      <cc:License
         rdf:about="http://creativecommons.org/licenses/by-sa/4.0/">
        <cc:permits
           rdf:resource="http://creativecommons.org/ns#Reproduction" />
        <cc:permits
           rdf:resource="http://creativecommons.org/ns#Distribution" />
        <cc:requires
           rdf:resource="http://creativecommons.org/ns#Notice" />
        <cc:requires
           rdf:resource="http://creativecommons.org/ns#Attribution" />
        <cc:permits
           rdf:resource="http://creativecommons.org/ns#DerivativeWorks" />
        <cc:requires
           rdf:resource="http://creativecommons.org/ns#ShareAlike" />
      </cc:License>
    </rdf:RDF>
  </metadata>
  <g
     style="display:inline"
     inkscape:groupmode="layer"
     inkscape:label="Icon"
     id="layer1">
    <g
       style="display:none"
       inkscape:label="Baseplate"
       id="layer7"
       inkscape:groupmode="layer">
      <text
         y="-8.2548828"
         xml:space="preserve"
         x="19.006836"
         style="font-style:normal;font-variant:normal;font-weight:normal;font-stretch:normal;line-height:0%;font-family:'DejaVu Sans';-inkscape-font-specification:'DejaVu Sans';display:inline;fill:#000000;fill-opacity:1;stroke:none;enable-background:new"
         inkscape:label="context"
         id="context"><tspan
           style="font-style:normal;font-variant:normal;font-weight:normal;font-stretch:normal;font-size:18px;line-height:1.25;font-family:'DejaVu Sans';-inkscape-font-specification:'DejaVu Sans'"
           y="-8.2548828"
           x="19.006836"
           sodipodi:role="line"
           id="tspan3933">actions</tspan></text>
      <text
         y="-8.2548828"
         xml:space="preserve"
         x="146.48828"
         style="font-style:normal;font-variant:normal;font-weight:bold;font-stretch:normal;font-size:16px;line-height:0%;font-family:'DejaVu Sans';-inkscape-font-specification:'DejaVu Sans, Bold';font-variant-ligatures:normal;font-variant-caps:normal;font-variant-numeric:normal;font-variant-east-asian:normal;text-align:start;writing-mode:lr-tb;text-anchor:start;display:inline;fill:#000000;fill-opacity:1;stroke:none;enable-background:new"
         inkscape:label="icon-name"
         id="icon-name"><tspan
           sodipodi:role="line"
           id="tspan1027"
           x="146.48828"
           y="-8.2548828">document-open</tspan></text>
      <rect
         style="display:inline;overflow:visible;visibility:visible;fill:#cdcdcd;fill-opacity:1;fill-rule:nonzero;stroke:none;stroke-width:2;marker:none;enable-background:accumulate"
         id="rect16x16"
         width="16"
         height="16"
         x="320"
         y="236"
         inkscape:label="16x16" />
      <rect
         style="display:inline;overflow:visible;visibility:visible;fill:#cdcdcd;fill-opacity:1;fill-rule:nonzero;stroke:none;stroke-width:2;marker:none;enable-background:accumulate"
         id="rect22x2"
         width="22"
         height="22"
         x="372"
         y="190"
         inkscape:label="22x2" />
      <rect
         style="display:inline;overflow:visible;visibility:visible;fill:#cdcdcd;fill-opacity:1;fill-rule:nonzero;stroke:none;stroke-width:2;marker:none;enable-background:accumulate"
         id="rect24x24"
         width="24"
         height="24"
         x="320"
         y="188"
         inkscape:label="24x24" />
      <rect
         style="display:inline;overflow:visible;visibility:visible;fill:#cdcdcd;fill-opacity:1;fill-rule:nonzero;stroke:none;stroke-width:2;marker:none;enable-background:accumulate"
         id="rect32x32"
         width="32"
         height="32"
         x="320"
         y="132"
         inkscape:label="32x32" />
      <rect
         inkscape:label="48x48"
         y="60"
         x="320"
         height="48"
         width="48"
         id="rect48x48"
         style="display:inline;overflow:visible;visibility:visible;fill:#cdcdcd;fill-opacity:1;fill-rule:nonzero;stroke:none;stroke-width:2;marker:none;enable-background:accumulate" />
      <rect
         style="display:inline;overflow:visible;visibility:visible;fill:#cdcdcd;fill-opacity:1;fill-rule:nonzero;stroke:none;stroke-width:2;marker:none;enable-background:accumulate"
         id="rect256x256"
         width="256"
         height="256"
         x="24"
         y="28"
         inkscape:label="256x256" />
    </g>
    <g
       inkscape:groupmode="layer"
       id="layer8"
       inkscape:label="Backgrounds"
       style="display:inline" />
    <g
       inkscape:groupmode="layer"
       id="layer2"
       inkscape:label="Highlights"
       style="display:inline">
      <path
         d="m 2.6458,41.0099 c -0.7328866,0 -1.3229,0.590013 -1.3229,1.3229 V 52.916 c 0,0.732887 0.5900134,1.3229 1.3229,1.3229 h 13.229 c 0.732887,0 1.3229,-0.590013 1.3229,-1.3229 v -9.52488 c 0,-0.219866 -0.08855,-0.418248 -0.232023,-0.561703 -0.143469,-0.143456 -0.341838,-0.232024 -0.561704,-0.232024 H 8.2019932 c -0.198435,0 -0.39687,-0.06615 -0.5870501,-0.169495 C 7.4247763,42.324545 7.2428907,42.183987 7.0775282,42.035155 6.7468032,41.737503 6.4822232,41.406778 6.3499332,41.274488 6.2347668,41.159322 6.0572813,41.093465 5.8801979,41.0559 5.7107556,41.019957 5.5468271,41.01176 5.4337191,41.009908 H 5.2916106 Z"
         opacity="0.5"
         stroke-width="0.0531832"
         id="path29"
         style="stroke-opacity:0.95294;filter:url(#e)"
         transform="matrix(13.948144,0,0,13.992854,22.836981,-510.40201)" />
      <path
         d="M 1.9579978,43.6557 C 1.6062123,43.6557 1.3229,43.939012 1.3229,44.290798 v 8.625308 c 0,0.732886 0.5900134,1.3229 1.3229,1.3229 h 13.229 c 0.732887,0 1.3229,-0.590014 1.3229,-1.3229 v -8.625308 c 0,-0.351786 -0.283312,-0.635098 -0.635098,-0.635098 z"
         opacity="0.5"
         stroke-width="0.0475688"
         id="path31"
         style="stroke-opacity:0.95294;filter:url(#e)"
         transform="matrix(13.948144,0,0,13.992854,22.836981,-510.40201)" />
      <path
         d="M 1.9579978,43.6557 C 1.6062123,43.6557 1.3229,43.939012 1.3229,44.290798 v 0.26458 c 0,-0.351786 0.2833123,-0.635098 0.6350978,-0.635098 H 16.562549 c 0.351786,0 0.635098,0.283312 0.635098,0.635098 v -0.26458 c 0,-0.351786 -0.283312,-0.635098 -0.635098,-0.635098 z"
         opacity="0.5"
         stroke-width="0.0475688"
         id="path33"
         style="stroke-opacity:0.95294;filter:url(#e)"
         transform="matrix(13.948144,0,0,13.992854,22.836981,-510.40201)" />
      <path
         d="m 1.3229,52.916 c 0.037387,0.72117 0.52916,1.3229 1.3188,1.3229 h 13.233 c 0.79328,0 1.3224,-0.64408 1.3224,-1.3229 z"
         color="#000000"
         opacity="0.25"
         stroke-width="0.27278"
         style="text-indent:0;text-transform:none;filter:url(#e)"
         id="path37"
         transform="matrix(13.948144,0,0,13.992854,22.836981,-510.40201)" />
      <path
         d="m 1.3237,52.916 3.337e-4,0.26458 H 17.198034 L 17.1977,52.916 H 1.3226997 Z m 0.26376,0.79373 h 15.346 c 0.05347,-0.07329 0.11377,-0.15529 0.15166,-0.26458 h -15.653 c 0.046511,0.1129 0.09263,0.17706 0.15532,0.26458 z"
         color="#000000"
         opacity="0.075"
         stroke-width="0.095585"
         style="text-indent:0;text-transform:none;filter:url(#e)"
         id="path39"
         transform="matrix(13.948144,0,0,13.992854,22.836981,-510.40201)" />
      <path
         d="m 59.740001,63.444963 c -10.222314,0 -18.452,8.255926 -18.452,18.511148 V 230.0425 c 0,10.25506 8.229546,18.51111 18.452,18.51111 H 244.26 c 10.22232,0 18.45199,-8.25591 18.45199,-18.51111 V 96.76335 c 0,-3.076467 -1.2351,-5.852509 -3.23625,-7.859925 -2.00114,-2.007555 -4.76818,-3.246623 -7.8348,-3.246623 H 137.23966 c -2.76774,0 -5.5356,-0.925584 -8.188,-2.371649 -2.65251,-1.44616 -5.18953,-3.412995 -7.496,-5.495414 -4.61295,-4.164971 -8.30335,-8.792686 -10.14853,-10.643803 -1.60641,-1.611557 -4.08178,-2.532987 -6.55184,-3.058698 -2.3634,-0.502946 -4.64977,-0.617648 -6.227594,-0.643562 h -1.982163 z"
         fill="url(#c)"
         stroke-width="0.742977"
         id="path43"
         style="fill:url(#linearGradient703)" />
      <path
         d="M 1.852,4.3131 C 1.66878,4.3131 1.49466,4.350202 1.33628,4.41697 1.1779,4.483736 1.0352,4.58008 0.91564,4.69963 0.79608,4.81919 0.69922,4.96189 0.63246,5.12027 0.56569,5.27865 0.52911,5.45277 0.52911,5.63599 v 0.26458 c 0,-0.18322 0.03658,-0.35734 0.10335,-0.51572 C 0.69922,5.22647 0.79608,5.08377 0.91564,4.96421 1.0352,4.84465 1.1779,4.74831 1.33628,4.68155 1.49466,4.614785 1.66878,4.57768 1.852,4.57768 h 13.229 c 0.18322,0 0.35734,0.037103 0.51572,0.10387 0.15838,0.066765 0.30108,0.16311 0.42064,0.28266 0.11956,0.11956 0.21642,0.26226 0.28318,0.42064 0.06676,0.15838 0.10335,0.3325 0.10335,0.51572 V 5.63599 c 0,-0.18322 -0.03659,-0.35734 -0.10335,-0.51572 C 16.23377,4.96189 16.13692,4.81919 16.01736,4.69963 15.8978,4.58007 15.7551,4.48373 15.59672,4.41697 15.43834,4.350205 15.26422,4.3131 15.081,4.3131 Z"
         filter="url(#d)"
         opacity="0.1"
         stroke-width="0.047568"
         id="path45"
         transform="matrix(13.948144,0,0,13.992854,33.908041,37.5302)" />
      <path
         d="m 59.741395,100.46866 c -2.555575,0 -4.984228,0.51916 -7.193335,1.45344 -2.209107,0.93426 -4.199647,2.28237 -5.867005,3.9555 -1.667642,1.67298 -3.018658,3.66976 -3.949838,5.88582 -0.931193,2.21589 -1.441542,4.65261 -1.441542,7.21639 V 230.0467 c 0,10.25521 8.229546,18.51112 18.452,18.51112 H 244.26166 c 10.22248,0 18.452,-8.25591 18.452,-18.51112 V 118.97981 c 0,-2.56378 -0.51035,-5.00022 -1.44153,-7.2164 -0.93132,-2.21619 -2.2822,-4.21311 -3.94984,-5.88581 -1.66763,-1.67299 -3.65806,-3.02106 -5.86699,-3.9555 -2.20912,-0.93422 -4.63778,-1.45344 -7.19335,-1.45344 H 59.741954 Z"
         fill="url(#b)"
         stroke-width="0.66456"
         id="path47"
         style="fill:url(#linearGradient705)" />
      <path
         d="m 41.288838,230.0439 c 0.521479,10.09122 7.380801,18.51111 18.394812,18.51111 h 184.57578 c 11.06479,0 18.44502,-9.0125 18.44502,-18.51111 z"
         color="#000000"
         fill="url(#a)"
         stroke-width="3.81087"
         style="text-indent:0;text-transform:none;fill:url(#linearGradient707)"
         id="path49" />
      <path
         d="m 41.300135,230.0439 0.0046,3.7022 H 262.71762 l -0.005,-3.7022 H 41.286184 Z m 3.678964,11.10653 H 259.02732 c 0.7458,-1.02554 1.58687,-2.17295 2.11536,-3.7022 H 42.812395 c 0.648742,1.57977 1.292017,2.47755 2.166425,3.7022 z"
         color="#000000"
         fill="#12a327"
         opacity="0.25"
         stroke-width="1.33535"
         style="text-indent:0;text-transform:none"
         id="path51" />
      <path
         d="m 59.740001,100.46726 c -2.555579,0 -4.98423,0.51916 -7.193337,1.45344 -2.209106,0.93425 -4.199506,2.28237 -5.867144,3.95522 -1.667641,1.67298 -3.018657,3.66976 -3.949838,5.88596 -0.931318,2.21617 -1.441541,4.65261 -1.441541,7.21639 v 3.70222 c 0,-2.56376 0.510238,-5.00034 1.441541,-7.21638 0.931251,-2.21623 2.282197,-4.21297 3.949838,-5.88596 1.667638,-1.67299 3.658038,-3.02106 5.867144,-3.95522 2.209107,-0.93425 4.637758,-1.45344 7.193337,-1.45344 H 244.26 c 2.55556,0 4.98423,0.51918 7.19334,1.45344 2.20908,0.93423 4.1995,2.28237 5.86714,3.95522 1.66763,1.67299 3.01865,3.66974 3.94984,5.88596 0.93117,2.21617 1.44152,4.65262 1.44152,7.21638 v -3.70222 c 0,-2.56378 -0.51035,-5.00022 -1.44152,-7.21639 -0.93132,-2.2162 -2.28235,-4.21298 -3.94984,-5.88596 -1.66764,-1.67299 -3.65806,-3.02106 -5.86714,-3.95522 -2.20911,-0.93424 -4.63778,-1.45344 -7.19334,-1.45344 z"
         fill="#6ae67c"
         stroke-width="0.664546"
         id="path53" />
      <path
         d="m 2.6458,41.0099 c -0.7328866,0 -1.3229,0.590013 -1.3229,1.3229 V 52.916 c 0,0.732887 0.5900134,1.3229 1.3229,1.3229 h 13.229 c 0.732887,0 1.3229,-0.590013 1.3229,-1.3229 v -9.52488 c 0,-0.219866 -0.08855,-0.418248 -0.232023,-0.561703 -0.143469,-0.143456 -0.341838,-0.232024 -0.561704,-0.232024 H 8.2019932 c -0.198435,0 -0.39687,-0.06615 -0.5870501,-0.169495 C 7.4247763,42.324545 7.2428907,42.183987 7.0775282,42.035155 6.7468032,41.737503 6.4822232,41.406778 6.3499332,41.274488 6.2347668,41.159322 6.0572813,41.093465 5.8801979,41.0559 5.7107556,41.019957 5.5468271,41.01176 5.4337191,41.009908 H 5.2916106 Z"
         opacity="0.5"
         stroke-width="0.0531832"
         id="path1368"
         style="stroke-opacity:0.95294;filter:url(#e)"
         transform="matrix(2.8140997,0,0,2.8231201,317.94079,-50.449552)" />
      <path
         d="M 1.9579978,43.6557 C 1.6062123,43.6557 1.3229,43.939012 1.3229,44.290798 v 8.625308 c 0,0.732886 0.5900134,1.3229 1.3229,1.3229 h 13.229 c 0.732887,0 1.3229,-0.590014 1.3229,-1.3229 v -8.625308 c 0,-0.351786 -0.283312,-0.635098 -0.635098,-0.635098 z"
         opacity="0.5"
         stroke-width="0.0475688"
         id="path1370"
         style="stroke-opacity:0.95294;filter:url(#e)"
         transform="matrix(2.8140997,0,0,2.8231201,317.94079,-50.449552)" />
      <path
         d="M 1.9579978,43.6557 C 1.6062123,43.6557 1.3229,43.939012 1.3229,44.290798 v 0.26458 c 0,-0.351786 0.2833123,-0.635098 0.6350978,-0.635098 H 16.562549 c 0.351786,0 0.635098,0.283312 0.635098,0.635098 v -0.26458 c 0,-0.351786 -0.283312,-0.635098 -0.635098,-0.635098 z"
         opacity="0.5"
         stroke-width="0.0475688"
         id="path1372"
         style="stroke-opacity:0.95294;filter:url(#e)"
         transform="matrix(2.8140997,0,0,2.8231201,317.94079,-50.449552)" />
      <path
         d="m 1.3229,52.916 c 0.037387,0.72117 0.52916,1.3229 1.3188,1.3229 h 13.233 c 0.79328,0 1.3224,-0.64408 1.3224,-1.3229 z"
         color="#000000"
         opacity="0.25"
         stroke-width="0.27278"
         style="text-indent:0;text-transform:none;filter:url(#e)"
         id="path1376"
         transform="matrix(2.8140997,0,0,2.8231201,317.94079,-50.449552)" />
      <path
         d="m 1.3237,52.916 3.337e-4,0.26458 H 17.198034 L 17.1977,52.916 H 1.3226997 Z m 0.26376,0.79373 h 15.346 c 0.05347,-0.07329 0.11377,-0.15529 0.15166,-0.26458 h -15.653 c 0.046511,0.1129 0.09263,0.17706 0.15532,0.26458 z"
         color="#000000"
         opacity="0.075"
         stroke-width="0.095585"
         style="text-indent:0;text-transform:none;filter:url(#e)"
         id="path1378"
         transform="matrix(2.8140997,0,0,2.8231201,317.94079,-50.449552)" />
      <path
         d="m 325.38614,65.326612 c -2.0624,0 -3.72277,1.66567 -3.72277,3.734706 v 29.877084 c 0,2.069008 1.66034,3.734698 3.72277,3.734698 h 37.22772 c 2.0624,0 3.72277,-1.66567 3.72277,-3.734698 V 72.048744 c 0,-0.620691 -0.24918,-1.18077 -0.65292,-1.585775 -0.40374,-0.405033 -0.96201,-0.65502 -1.58071,-0.65502 h -23.08096 c -0.55841,0 -1.11683,-0.186741 -1.65197,-0.478491 -0.53515,-0.291769 -1.04701,-0.688587 -1.51235,-1.108724 -0.93068,-0.840301 -1.67524,-1.773963 -2.04751,-2.147434 -0.3241,-0.325139 -0.82352,-0.511042 -1.32186,-0.617106 -0.47683,-0.101472 -0.93811,-0.124613 -1.25645,-0.129842 h -0.39991 z"
         fill="url(#c)"
         stroke-width="0.149899"
         id="path1382"
         style="fill:url(#linearGradient1396)" />
      <path
         d="M 1.852,4.3131 C 1.66878,4.3131 1.49466,4.350202 1.33628,4.41697 1.1779,4.483736 1.0352,4.58008 0.91564,4.69963 0.79608,4.81919 0.69922,4.96189 0.63246,5.12027 0.56569,5.27865 0.52911,5.45277 0.52911,5.63599 v 0.26458 c 0,-0.18322 0.03658,-0.35734 0.10335,-0.51572 C 0.69922,5.22647 0.79608,5.08377 0.91564,4.96421 1.0352,4.84465 1.1779,4.74831 1.33628,4.68155 1.49466,4.614785 1.66878,4.57768 1.852,4.57768 h 13.229 c 0.18322,0 0.35734,0.037103 0.51572,0.10387 0.15838,0.066765 0.30108,0.16311 0.42064,0.28266 0.11956,0.11956 0.21642,0.26226 0.28318,0.42064 0.06676,0.15838 0.10335,0.3325 0.10335,0.51572 V 5.63599 c 0,-0.18322 -0.03659,-0.35734 -0.10335,-0.51572 C 16.23377,4.96189 16.13692,4.81919 16.01736,4.69963 15.8978,4.58007 15.7551,4.48373 15.59672,4.41697 15.43834,4.350205 15.26422,4.3131 15.081,4.3131 Z"
         filter="url(#d)"
         opacity="0.1"
         stroke-width="0.047568"
         id="path1384"
         transform="matrix(2.8140997,0,0,2.8231201,320.17443,60.098194)" />
      <path
         d="m 325.38642,72.796306 c -0.5156,0 -1.00559,0.104744 -1.45129,0.293238 -0.44569,0.188491 -0.84729,0.460479 -1.18369,0.798039 -0.33646,0.337532 -0.60903,0.740392 -0.7969,1.18749 -0.18787,0.447066 -0.29084,0.938685 -0.29084,1.455939 V 98.93925 c 0,2.06903 1.66035,3.7347 3.72278,3.7347 h 37.22772 c 2.06243,0 3.72277,-1.66567 3.72277,-3.7347 V 76.531012 c 0,-0.517254 -0.10296,-1.008817 -0.29083,-1.455939 -0.1879,-0.447126 -0.46045,-0.850014 -0.7969,-1.18749 -0.33645,-0.337532 -0.73803,-0.609511 -1.18369,-0.798039 -0.4457,-0.188483 -0.9357,-0.293238 -1.45129,-0.293238 h -37.22773 z"
         fill="url(#b)"
         stroke-width="0.134078"
         id="path1386"
         style="fill:url(#linearGradient1398)" />
      <path
         d="m 321.66354,98.938685 c 0.10521,2.035945 1.4891,3.734695 3.71123,3.734695 h 37.23898 c 2.23237,0 3.72136,-1.81831 3.72136,-3.734695 z"
         color="#000000"
         fill="url(#a)"
         stroke-width="0.76886"
         style="text-indent:0;text-transform:none;fill:url(#linearGradient1400)"
         id="path1388" />
      <path
         d="m 321.66581,98.938685 9.3e-4,0.746935 h 44.67103 l -10e-4,-0.746935 H 321.663 Z m 0.74225,2.240795 h 43.18518 c 0.15046,-0.20691 0.32015,-0.43841 0.42678,-0.74694 h -44.0491 c 0.13089,0.31873 0.26067,0.49986 0.43709,0.74694 z"
         color="#000000"
         fill="#12a327"
         opacity="0.25"
         stroke-width="0.269413"
         style="text-indent:0;text-transform:none"
         id="path1390" />
      <path
         d="m 325.38614,72.796023 c -0.5156,0 -1.00559,0.104744 -1.45129,0.293239 -0.4457,0.188488 -0.84727,0.460478 -1.18372,0.797983 -0.33645,0.337532 -0.60903,0.740391 -0.7969,1.187518 -0.1879,0.447122 -0.29084,0.938684 -0.29084,1.455938 v 0.746939 c 0,-0.51725 0.10295,-1.00884 0.29084,-1.455936 0.18789,-0.447132 0.46045,-0.849986 0.7969,-1.187519 0.33645,-0.337532 0.73802,-0.609511 1.18372,-0.797983 0.4457,-0.188488 0.93569,-0.293237 1.45129,-0.293237 h 37.22772 c 0.5156,0 1.00559,0.104747 1.45129,0.293237 0.44569,0.188486 0.84727,0.460479 1.18372,0.797983 0.33645,0.337533 0.60903,0.740387 0.7969,1.187519 0.18787,0.447124 0.29083,0.938686 0.29083,1.455936 v -0.746939 c 0,-0.517254 -0.10296,-1.008816 -0.29083,-1.455938 -0.1879,-0.447127 -0.46047,-0.849986 -0.7969,-1.187518 -0.33645,-0.337533 -0.73803,-0.609512 -1.18372,-0.797983 -0.4457,-0.188486 -0.93569,-0.293239 -1.45129,-0.293239 z"
         fill="#6ae67c"
         stroke-width="0.134075"
         id="path1392" />
      <path
         d="m 2.6458,41.0099 c -0.7328866,0 -1.3229,0.590013 -1.3229,1.3229 V 52.916 c 0,0.732887 0.5900134,1.3229 1.3229,1.3229 h 13.229 c 0.732887,0 1.3229,-0.590013 1.3229,-1.3229 v -9.52488 c 0,-0.219866 -0.08855,-0.418248 -0.232023,-0.561703 -0.143469,-0.143456 -0.341838,-0.232024 -0.561704,-0.232024 H 8.2019932 c -0.198435,0 -0.39687,-0.06615 -0.5870501,-0.169495 C 7.4247763,42.324545 7.2428907,42.183987 7.0775282,42.035155 6.7468032,41.737503 6.4822232,41.406778 6.3499332,41.274488 6.2347668,41.159322 6.0572813,41.093465 5.8801979,41.0559 5.7107556,41.019957 5.5468271,41.01176 5.4337191,41.009908 H 5.2916106 Z"
         opacity="0.5"
         stroke-width="0.0531832"
         id="path1482"
         style="stroke-opacity:0.95294;filter:url(#e)"
         transform="matrix(1.9576346,0,0,1.9639097,317.87185,54.46988)" />
      <path
         d="M 1.9579978,43.6557 C 1.6062123,43.6557 1.3229,43.939012 1.3229,44.290798 v 8.625308 c 0,0.732886 0.5900134,1.3229 1.3229,1.3229 h 13.229 c 0.732887,0 1.3229,-0.590014 1.3229,-1.3229 v -8.625308 c 0,-0.351786 -0.283312,-0.635098 -0.635098,-0.635098 z"
         opacity="0.5"
         stroke-width="0.0475688"
         id="path1484"
         style="stroke-opacity:0.95294;filter:url(#e)"
         transform="matrix(1.9576346,0,0,1.9639097,317.87185,54.46988)" />
      <path
         d="M 1.9579978,43.6557 C 1.6062123,43.6557 1.3229,43.939012 1.3229,44.290798 v 0.26458 c 0,-0.351786 0.2833123,-0.635098 0.6350978,-0.635098 H 16.562549 c 0.351786,0 0.635098,0.283312 0.635098,0.635098 v -0.26458 c 0,-0.351786 -0.283312,-0.635098 -0.635098,-0.635098 z"
         opacity="0.5"
         stroke-width="0.0475688"
         id="path1486"
         style="stroke-opacity:0.95294;filter:url(#e)"
         transform="matrix(1.9576346,0,0,1.9639097,317.87185,54.46988)" />
      <path
         d="m 1.3229,52.916 c 0.037387,0.72117 0.52916,1.3229 1.3188,1.3229 h 13.233 c 0.79328,0 1.3224,-0.64408 1.3224,-1.3229 z"
         color="#000000"
         opacity="0.25"
         stroke-width="0.27278"
         style="text-indent:0;text-transform:none;filter:url(#e)"
         id="path1490"
         transform="matrix(1.9576346,0,0,1.9639097,317.87185,54.46988)" />
      <path
         d="m 1.3237,52.916 3.337e-4,0.26458 H 17.198034 L 17.1977,52.916 H 1.3226997 Z m 0.26376,0.79373 h 15.346 c 0.05347,-0.07329 0.11377,-0.15529 0.15166,-0.26458 h -15.653 c 0.046511,0.1129 0.09263,0.17706 0.15532,0.26458 z"
         color="#000000"
         opacity="0.075"
         stroke-width="0.095585"
         style="text-indent:0;text-transform:none;filter:url(#e)"
         id="path1492"
         transform="matrix(1.9576346,0,0,1.9639097,317.87185,54.46988)" />
      <path
         d="m 323.05123,135.00982 c -1.43472,0 -2.58976,1.15873 -2.58976,2.59806 v 20.78405 c 0,1.43931 1.15502,2.59806 2.58976,2.59806 h 25.89754 c 1.43471,0 2.58976,-1.15873 2.58976,-2.59806 v -18.70584 c 0,-0.43179 -0.17335,-0.82141 -0.45421,-1.10315 -0.28087,-0.28176 -0.66922,-0.45567 -1.09963,-0.45567 h -16.05632 c -0.38845,0 -0.77692,-0.1299 -1.14919,-0.33286 -0.37228,-0.20297 -0.72836,-0.47902 -1.05207,-0.77129 -0.64743,-0.58456 -1.16538,-1.23406 -1.42436,-1.49387 -0.22546,-0.22618 -0.57288,-0.3555 -0.91955,-0.42929 -0.33171,-0.0706 -0.6526,-0.0867 -0.87405,-0.0903 h -0.2782 z"
         fill="url(#c)"
         stroke-width="0.104277"
         id="path1496"
         style="fill:url(#linearGradient1510)" />
      <path
         d="M 1.852,4.3131 C 1.66878,4.3131 1.49466,4.350202 1.33628,4.41697 1.1779,4.483736 1.0352,4.58008 0.91564,4.69963 0.79608,4.81919 0.69922,4.96189 0.63246,5.12027 0.56569,5.27865 0.52911,5.45277 0.52911,5.63599 v 0.26458 c 0,-0.18322 0.03658,-0.35734 0.10335,-0.51572 C 0.69922,5.22647 0.79608,5.08377 0.91564,4.96421 1.0352,4.84465 1.1779,4.74831 1.33628,4.68155 1.49466,4.614785 1.66878,4.57768 1.852,4.57768 h 13.229 c 0.18322,0 0.35734,0.037103 0.51572,0.10387 0.15838,0.066765 0.30108,0.16311 0.42064,0.28266 0.11956,0.11956 0.21642,0.26226 0.28318,0.42064 0.06676,0.15838 0.10335,0.3325 0.10335,0.51572 V 5.63599 c 0,-0.18322 -0.03659,-0.35734 -0.10335,-0.51572 C 16.23377,4.96189 16.13692,4.81919 16.01736,4.69963 15.8978,4.58007 15.7551,4.48373 15.59672,4.41697 15.43834,4.350205 15.26422,4.3131 15.081,4.3131 Z"
         filter="url(#d)"
         opacity="0.1"
         stroke-width="0.047568"
         id="path1498"
         transform="matrix(1.9576346,0,0,1.9639097,319.42569,131.37266)" />
      <path
         d="m 323.05142,140.20613 c -0.35868,0 -0.69954,0.0729 -1.00959,0.20399 -0.31005,0.13112 -0.58942,0.32033 -0.82344,0.55516 -0.23405,0.2348 -0.42367,0.51505 -0.55436,0.82608 -0.1307,0.311 -0.20232,0.653 -0.20232,1.01283 v 15.58833 c 0,1.43933 1.15502,2.59806 2.58975,2.59806 h 25.89755 c 1.43473,0 2.58975,-1.15873 2.58975,-2.59806 v -15.58833 c 0,-0.35983 -0.0716,-0.70179 -0.20232,-1.01283 -0.13071,-0.31105 -0.32031,-0.59132 -0.55436,-0.82608 -0.23406,-0.23481 -0.51342,-0.42401 -0.82344,-0.55516 -0.31005,-0.13112 -0.65092,-0.20399 -1.00959,-0.20399 H 323.0515 Z"
         fill="url(#b)"
         stroke-width="0.0932716"
         id="path1500"
         style="fill:url(#linearGradient1512)" />
      <path
         d="m 320.46159,158.39213 c 0.0732,1.41631 1.0359,2.59805 2.58173,2.59805 h 25.90537 c 1.55296,0 2.58878,-1.26491 2.58878,-2.59805 z"
         color="#000000"
         fill="url(#a)"
         stroke-width="0.534859"
         style="text-indent:0;text-transform:none;fill:url(#linearGradient1514)"
         id="path1502" />
      <path
         d="m 320.46317,158.39213 6.5e-4,0.51961 h 31.0755 l -7.1e-4,-0.51961 h -31.07739 z m 0.51635,1.55881 h 30.04186 c 0.10467,-0.14393 0.22272,-0.30497 0.29689,-0.5196 h -30.64285 c 0.0911,0.22172 0.18134,0.34772 0.30406,0.5196 z"
         color="#000000"
         fill="#12a327"
         opacity="0.25"
         stroke-width="0.187418"
         style="text-indent:0;text-transform:none"
         id="path1504" />
      <path
         d="m 323.05123,140.20593 c -0.35868,0 -0.69955,0.0729 -1.0096,0.20399 -0.31005,0.13113 -0.5894,0.32034 -0.82345,0.55512 -0.23406,0.23481 -0.42368,0.51506 -0.55437,0.8261 -0.13071,0.31104 -0.20232,0.653 -0.20232,1.01283 v 0.51961 c 0,-0.35983 0.0716,-0.7018 0.20232,-1.01283 0.1307,-0.31105 0.32031,-0.59129 0.55437,-0.8261 0.23405,-0.2348 0.5134,-0.424 0.82345,-0.55511 0.31005,-0.13113 0.65092,-0.204 1.0096,-0.204 h 25.89754 c 0.35868,0 0.69954,0.0729 1.00959,0.204 0.31005,0.13112 0.58941,0.32033 0.82346,0.55511 0.23406,0.23481 0.42367,0.51505 0.55437,0.8261 0.13069,0.31105 0.20231,0.653 0.20231,1.01283 v -0.51961 c 0,-0.35983 -0.0716,-0.70179 -0.20231,-1.01283 -0.13072,-0.31104 -0.32033,-0.59129 -0.55437,-0.8261 -0.23405,-0.2348 -0.51341,-0.42401 -0.82346,-0.55512 -0.31005,-0.13112 -0.65091,-0.20399 -1.00959,-0.20399 z"
         fill="#6ae67c"
         stroke-width="0.0932696"
         id="path1506" />
      <path
         d="m 2.6458,41.0099 c -0.7328866,0 -1.3229,0.590013 -1.3229,1.3229 V 52.916 c 0,0.732887 0.5900134,1.3229 1.3229,1.3229 h 13.229 c 0.732887,0 1.3229,-0.590013 1.3229,-1.3229 v -9.52488 c 0,-0.219866 -0.08855,-0.418248 -0.232023,-0.561703 -0.143469,-0.143456 -0.341838,-0.232024 -0.561704,-0.232024 H 8.2019932 c -0.198435,0 -0.39687,-0.06615 -0.5870501,-0.169495 C 7.4247763,42.324545 7.2428907,42.183987 7.0775282,42.035155 6.7468032,41.737503 6.4822232,41.406778 6.3499332,41.274488 6.2347668,41.159322 6.0572813,41.093465 5.8801979,41.0559 5.7107556,41.019957 5.5468271,41.01176 5.4337191,41.009908 H 5.2916106 Z"
         opacity="0.5"
         stroke-width="0.0531832"
         id="path1596"
         style="stroke-opacity:0.95294;filter:url(#e)"
         transform="matrix(1.2235216,0,0,1.2274435,371.66991,142.54367)" />
      <path
         d="M 1.9579978,43.6557 C 1.6062123,43.6557 1.3229,43.939012 1.3229,44.290798 v 8.625308 c 0,0.732886 0.5900134,1.3229 1.3229,1.3229 h 13.229 c 0.732887,0 1.3229,-0.590014 1.3229,-1.3229 v -8.625308 c 0,-0.351786 -0.283312,-0.635098 -0.635098,-0.635098 z"
         opacity="0.5"
         stroke-width="0.0475688"
         id="path1598"
         style="stroke-opacity:0.95294;filter:url(#e)"
         transform="matrix(1.2235216,0,0,1.2274435,371.66991,142.54367)" />
      <path
         d="M 1.9579978,43.6557 C 1.6062123,43.6557 1.3229,43.939012 1.3229,44.290798 v 0.26458 c 0,-0.351786 0.2833123,-0.635098 0.6350978,-0.635098 H 16.562549 c 0.351786,0 0.635098,0.283312 0.635098,0.635098 v -0.26458 c 0,-0.351786 -0.283312,-0.635098 -0.635098,-0.635098 z"
         opacity="0.5"
         stroke-width="0.0475688"
         id="path1600"
         style="stroke-opacity:0.95294;filter:url(#e)"
         transform="matrix(1.2235216,0,0,1.2274435,371.66991,142.54367)" />
      <path
         d="m 1.3229,52.916 c 0.037387,0.72117 0.52916,1.3229 1.3188,1.3229 h 13.233 c 0.79328,0 1.3224,-0.64408 1.3224,-1.3229 z"
         color="#000000"
         opacity="0.25"
         stroke-width="0.27278"
         style="text-indent:0;text-transform:none;filter:url(#e)"
         id="path1604"
         transform="matrix(1.2235216,0,0,1.2274435,371.66991,142.54367)" />
      <path
         d="m 1.3237,52.916 3.337e-4,0.26458 H 17.198034 L 17.1977,52.916 H 1.3226997 Z m 0.26376,0.79373 h 15.346 c 0.05347,-0.07329 0.11377,-0.15529 0.15166,-0.26458 h -15.653 c 0.046511,0.1129 0.09263,0.17706 0.15532,0.26458 z"
         color="#000000"
         opacity="0.075"
         stroke-width="0.095585"
         style="text-indent:0;text-transform:none;filter:url(#e)"
         id="path1606"
         transform="matrix(1.2235216,0,0,1.2274435,371.66991,142.54367)" />
      <path
         d="m 374.90702,192.88113 c -0.89669,0 -1.6186,0.72421 -1.6186,1.62379 v 12.99003 c 0,0.89957 0.72189,1.62378 1.6186,1.62378 h 16.18597 c 0.89669,0 1.61859,-0.7242 1.61859,-1.62378 V 195.8038 c 0,-0.26987 -0.10834,-0.51338 -0.28388,-0.68947 -0.17554,-0.1761 -0.41826,-0.28479 -0.68726,-0.28479 h -10.0352 c -0.24279,0 -0.48558,-0.0812 -0.71825,-0.20804 -0.23268,-0.12686 -0.45522,-0.29939 -0.65754,-0.48206 -0.40465,-0.36534 -0.72837,-0.77128 -0.89022,-0.93366 -0.14092,-0.14137 -0.35806,-0.22219 -0.57473,-0.26831 -0.20731,-0.0441 -0.40787,-0.0542 -0.54628,-0.0564 h -0.17387 z"
         fill="url(#c)"
         stroke-width="0.0651734"
         id="path1610"
         style="fill:url(#linearGradient1630)" />
      <path
         d="M 1.852,4.3131 C 1.66878,4.3131 1.49466,4.350202 1.33628,4.41697 1.1779,4.483736 1.0352,4.58008 0.91564,4.69963 0.79608,4.81919 0.69922,4.96189 0.63246,5.12027 0.56569,5.27865 0.52911,5.45277 0.52911,5.63599 v 0.26458 c 0,-0.18322 0.03658,-0.35734 0.10335,-0.51572 C 0.69922,5.22647 0.79608,5.08377 0.91564,4.96421 1.0352,4.84465 1.1779,4.74831 1.33628,4.68155 1.49466,4.614785 1.66878,4.57768 1.852,4.57768 h 13.229 c 0.18322,0 0.35734,0.037103 0.51572,0.10387 0.15838,0.066765 0.30108,0.16311 0.42064,0.28266 0.11956,0.11956 0.21642,0.26226 0.28318,0.42064 0.06676,0.15838 0.10335,0.3325 0.10335,0.51572 V 5.63599 c 0,-0.18322 -0.03659,-0.35734 -0.10335,-0.51572 C 16.23377,4.96189 16.13692,4.81919 16.01736,4.69963 15.8978,4.58007 15.7551,4.48373 15.59672,4.41697 15.43834,4.350205 15.26422,4.3131 15.081,4.3131 Z"
         filter="url(#d)"
         opacity="0.1"
         stroke-width="0.047568"
         id="path1612"
         transform="matrix(1.2235216,0,0,1.2274435,372.64106,190.60791)" />
      <path
         d="m 374.90714,196.12882 c -0.22417,0 -0.43721,0.0455 -0.63099,0.1275 -0.19378,0.082 -0.36839,0.20021 -0.51465,0.34697 -0.14629,0.14676 -0.2648,0.32191 -0.34648,0.5163 -0.0817,0.19438 -0.12645,0.40813 -0.12645,0.63302 v 9.74271 c 0,0.89958 0.72189,1.62378 1.6186,1.62378 h 16.18596 c 0.89671,0 1.6186,-0.7242 1.6186,-1.62378 v -9.74271 c 0,-0.22489 -0.0448,-0.43862 -0.12645,-0.63302 -0.0817,-0.1944 -0.20019,-0.36957 -0.34648,-0.5163 -0.14628,-0.14675 -0.32088,-0.265 -0.51465,-0.34697 -0.19378,-0.0819 -0.40682,-0.1275 -0.63099,-0.1275 h -16.18597 z"
         fill="url(#b)"
         stroke-width="0.0582947"
         id="path1614"
         style="fill:url(#linearGradient1632)" />
      <path
         d="m 373.2885,207.49508 c 0.0457,0.88519 0.64744,1.62378 1.61358,1.62378 h 16.19086 c 0.97059,0 1.61798,-0.79057 1.61798,-1.62378 z"
         color="#000000"
         fill="url(#a)"
         stroke-width="0.334287"
         style="text-indent:0;text-transform:none;fill:url(#linearGradient1634)"
         id="path1616" />
      <path
         d="m 373.28949,207.49508 4e-4,0.32475 h 19.42219 l -4.4e-4,-0.32475 h -19.42338 z m 0.32271,0.97425 h 18.77617 c 0.0654,-0.09 0.1392,-0.19061 0.18555,-0.32475 h -19.15178 c 0.0569,0.13857 0.11334,0.21733 0.19004,0.32475 z"
         color="#000000"
         fill="#12a327"
         opacity="0.25"
         stroke-width="0.117136"
         style="text-indent:0;text-transform:none"
         id="path1618" />
      <path
         d="m 374.90702,196.1287 c -0.22417,0 -0.43721,0.0455 -0.63099,0.1275 -0.19379,0.082 -0.36838,0.2002 -0.51467,0.34695 -0.14628,0.14675 -0.26479,0.3219 -0.34647,0.51631 -0.0817,0.1944 -0.12645,0.40812 -0.12645,0.63301 v 0.32476 c 0,-0.22489 0.0448,-0.43863 0.12645,-0.63302 0.0817,-0.1944 0.20019,-0.36955 0.34647,-0.51631 0.14629,-0.14675 0.32088,-0.265 0.51467,-0.34695 0.19378,-0.082 0.40682,-0.12749 0.63099,-0.12749 h 16.18597 c 0.22417,0 0.43721,0.0455 0.63099,0.12749 0.19378,0.082 0.36838,0.20021 0.51466,0.34695 0.14629,0.14676 0.2648,0.32191 0.34648,0.51631 0.0817,0.19441 0.12645,0.40813 0.12645,0.63302 v -0.32476 c 0,-0.22489 -0.0448,-0.43861 -0.12645,-0.63301 -0.0817,-0.19441 -0.20021,-0.36956 -0.34648,-0.51631 -0.14628,-0.14676 -0.32088,-0.26501 -0.51466,-0.34695 -0.19378,-0.082 -0.40682,-0.1275 -0.63099,-0.1275 z"
         fill="#6ae67c"
         stroke-width="0.0582935"
         id="path1620" />
      <path
         d="m 2.6458,41.0099 c -0.7328866,0 -1.3229,0.590013 -1.3229,1.3229 V 52.916 c 0,0.732887 0.5900134,1.3229 1.3229,1.3229 h 13.229 c 0.732887,0 1.3229,-0.590013 1.3229,-1.3229 v -9.52488 c 0,-0.219866 -0.08855,-0.418248 -0.232023,-0.561703 -0.143469,-0.143456 -0.341838,-0.232024 -0.561704,-0.232024 H 8.2019932 c -0.198435,0 -0.39687,-0.06615 -0.5870501,-0.169495 C 7.4247763,42.324545 7.2428907,42.183987 7.0775282,42.035155 6.7468032,41.737503 6.4822232,41.406778 6.3499332,41.274488 6.2347668,41.159322 6.0572813,41.093465 5.8801979,41.0559 5.7107556,41.019957 5.5468271,41.01176 5.4337191,41.009908 H 5.2916106 Z"
         opacity="0.5"
         stroke-width="0.0531832"
         id="path1796"
         style="stroke-opacity:0.95294;filter:url(#e)"
         transform="matrix(1.3458738,0,0,1.350188,319.5369,135.69803)" />
      <path
         d="M 1.9579978,43.6557 C 1.6062123,43.6557 1.3229,43.939012 1.3229,44.290798 v 8.625308 c 0,0.732886 0.5900134,1.3229 1.3229,1.3229 h 13.229 c 0.732887,0 1.3229,-0.590014 1.3229,-1.3229 v -8.625308 c 0,-0.351786 -0.283312,-0.635098 -0.635098,-0.635098 z"
         opacity="0.5"
         stroke-width="0.0475688"
         id="path1798"
         style="stroke-opacity:0.95294;filter:url(#e)"
         transform="matrix(1.3458738,0,0,1.350188,319.5369,135.69803)" />
      <path
         d="M 1.9579978,43.6557 C 1.6062123,43.6557 1.3229,43.939012 1.3229,44.290798 v 0.26458 c 0,-0.351786 0.2833123,-0.635098 0.6350978,-0.635098 H 16.562549 c 0.351786,0 0.635098,0.283312 0.635098,0.635098 v -0.26458 c 0,-0.351786 -0.283312,-0.635098 -0.635098,-0.635098 z"
         opacity="0.5"
         stroke-width="0.0475688"
         id="path1800"
         style="stroke-opacity:0.95294;filter:url(#e)"
         transform="matrix(1.3458738,0,0,1.350188,319.5369,135.69803)" />
      <path
         d="m 1.3229,52.916 c 0.037387,0.72117 0.52916,1.3229 1.3188,1.3229 h 13.233 c 0.79328,0 1.3224,-0.64408 1.3224,-1.3229 z"
         color="#000000"
         opacity="0.25"
         stroke-width="0.27278"
         style="text-indent:0;text-transform:none;filter:url(#e)"
         id="path1804"
         transform="matrix(1.3458738,0,0,1.350188,319.5369,135.69803)" />
      <path
         d="m 1.3237,52.916 3.337e-4,0.26458 H 17.198034 L 17.1977,52.916 H 1.3226997 Z m 0.26376,0.79373 h 15.346 c 0.05347,-0.07329 0.11377,-0.15529 0.15166,-0.26458 h -15.653 c 0.046511,0.1129 0.09263,0.17706 0.15532,0.26458 z"
         color="#000000"
         opacity="0.075"
         stroke-width="0.095585"
         style="text-indent:0;text-transform:none;filter:url(#e)"
         id="path1806"
         transform="matrix(1.3458738,0,0,1.350188,319.5369,135.69803)" />
      <path
         d="m 323.09772,191.06924 c -0.98636,0 -1.78046,0.79663 -1.78046,1.78617 v 14.28904 c 0,0.98952 0.79408,1.78616 1.78046,1.78616 h 17.80457 c 0.98636,0 1.78045,-0.79662 1.78045,-1.78616 v -12.86027 c 0,-0.29685 -0.11918,-0.56472 -0.31227,-0.75842 -0.19309,-0.19371 -0.46009,-0.31327 -0.75599,-0.31327 h -11.03872 c -0.26706,0 -0.53414,-0.0893 -0.79007,-0.22884 -0.25595,-0.13954 -0.50075,-0.32932 -0.7233,-0.53026 -0.44511,-0.40188 -0.8012,-0.84842 -0.97924,-1.02703 -0.15501,-0.1555 -0.39386,-0.24441 -0.6322,-0.29514 -0.22805,-0.0485 -0.44866,-0.0596 -0.60091,-0.0621 h -0.19126 z"
         fill="url(#c)"
         stroke-width="0.0716908"
         id="path1810"
         style="fill:url(#linearGradient1824)" />
      <path
         d="M 1.852,4.3131 C 1.66878,4.3131 1.49466,4.350202 1.33628,4.41697 1.1779,4.483736 1.0352,4.58008 0.91564,4.69963 0.79608,4.81919 0.69922,4.96189 0.63246,5.12027 0.56569,5.27865 0.52911,5.45277 0.52911,5.63599 v 0.26458 c 0,-0.18322 0.03658,-0.35734 0.10335,-0.51572 C 0.69922,5.22647 0.79608,5.08377 0.91564,4.96421 1.0352,4.84465 1.1779,4.74831 1.33628,4.68155 1.49466,4.614785 1.66878,4.57768 1.852,4.57768 h 13.229 c 0.18322,0 0.35734,0.037103 0.51572,0.10387 0.15838,0.066765 0.30108,0.16311 0.42064,0.28266 0.11956,0.11956 0.21642,0.26226 0.28318,0.42064 0.06676,0.15838 0.10335,0.3325 0.10335,0.51572 V 5.63599 c 0,-0.18322 -0.03659,-0.35734 -0.10335,-0.51572 C 16.23377,4.96189 16.13692,4.81919 16.01736,4.69963 15.8978,4.58007 15.7551,4.48373 15.59672,4.41697 15.43834,4.350205 15.26422,4.3131 15.081,4.3131 Z"
         filter="url(#d)"
         opacity="0.1"
         stroke-width="0.047568"
         id="path1812"
         transform="matrix(1.3458738,0,0,1.350188,320.60516,188.5687)" />
      <path
         d="m 323.09785,194.64171 c -0.24659,0 -0.48093,0.0501 -0.69409,0.14024 -0.21316,0.0901 -0.40523,0.22023 -0.56611,0.38167 -0.16092,0.16143 -0.29128,0.3541 -0.38113,0.56793 -0.0899,0.21382 -0.13909,0.44894 -0.13909,0.69632 v 10.71699 c 0,0.98953 0.79407,1.78616 1.78045,1.78616 h 17.80457 c 0.98638,0 1.78045,-0.79663 1.78045,-1.78616 v -10.71699 c 0,-0.24738 -0.0492,-0.48248 -0.13909,-0.69632 -0.0899,-0.21384 -0.22022,-0.40653 -0.38113,-0.56793 -0.16091,-0.16143 -0.35297,-0.2915 -0.56611,-0.38167 -0.21316,-0.0901 -0.44751,-0.14024 -0.6941,-0.14024 h -17.80456 z"
         fill="url(#b)"
         stroke-width="0.0641242"
         id="path1814"
         style="fill:url(#linearGradient1826)" />
      <path
         d="m 321.31734,207.14458 c 0.0503,0.97372 0.71219,1.78617 1.77494,1.78617 h 17.80995 c 1.06766,0 1.77978,-0.86963 1.77978,-1.78617 z"
         color="#000000"
         fill="url(#a)"
         stroke-width="0.367716"
         style="text-indent:0;text-transform:none;fill:url(#linearGradient1828)"
         id="path1816" />
      <path
         d="m 321.31843,207.14458 4.5e-4,0.35723 h 21.3644 l -4.8e-4,-0.35723 h -21.36571 z m 0.35499,1.07169 h 20.65378 c 0.072,-0.099 0.15312,-0.20967 0.20412,-0.35723 h -21.06697 c 0.0626,0.15243 0.12467,0.23906 0.20905,0.35723 z"
         color="#000000"
         fill="#12a327"
         opacity="0.25"
         stroke-width="0.12885"
         style="text-indent:0;text-transform:none"
         id="path1818" />
      <path
         d="m 323.09772,194.64157 c -0.24659,0 -0.48093,0.0501 -0.69409,0.14025 -0.21316,0.0901 -0.40522,0.22023 -0.56613,0.38164 -0.16091,0.16143 -0.29128,0.3541 -0.38113,0.56794 -0.0899,0.21384 -0.13909,0.44894 -0.13909,0.69632 v 0.35723 c 0,-0.24738 0.0492,-0.48248 0.13909,-0.69631 0.0899,-0.21385 0.22022,-0.40652 0.38113,-0.56795 0.16091,-0.16143 0.35297,-0.2915 0.56613,-0.38164 0.21316,-0.0901 0.4475,-0.14024 0.69409,-0.14024 h 17.80457 c 0.24658,0 0.48093,0.0501 0.69409,0.14024 0.21316,0.0901 0.40521,0.22023 0.56613,0.38164 0.16091,0.16143 0.29127,0.3541 0.38112,0.56795 0.0899,0.21384 0.1391,0.44893 0.1391,0.69631 v -0.35723 c 0,-0.24738 -0.0492,-0.48248 -0.1391,-0.69632 -0.0899,-0.21384 -0.22022,-0.40651 -0.38112,-0.56794 -0.16092,-0.16143 -0.35297,-0.2915 -0.56613,-0.38164 -0.21316,-0.0902 -0.44751,-0.14025 -0.69409,-0.14025 z"
         fill="#6ae67c"
         stroke-width="0.0641229"
         id="path1820" />
      <path
         transform="matrix(0.25897548,0,0,0.25980561,318.93593,197.23494)"
         d="m 10,155 c -2.77,0 -5,2.23 -5,5 v 40 c 0,2.77 2.23,5 5,5 h 50 c 2.77,0 5,-2.23 5,-5 v -36 c 0,-0.831 -0.3347,-1.5808 -0.87695,-2.123 -0.54225,-0.5422 -1.292,-0.87695 -2.123,-0.87695 h -31 c -0.75,0 -1.5,-0.25001 -2.2188,-0.64062 -0.71875,-0.39063 -1.4062,-0.92188 -2.0312,-1.4844 -1.25,-1.125 -2.25,-2.375 -2.75,-2.875 -0.43528,-0.43528 -1.1061,-0.68419 -1.7754,-0.82617 -0.64042,-0.13585 -1.26,-0.16683 -1.6875,-0.17383 h -0.53711 z"
         opacity="0.5"
         stroke-width="0.20101"
         id="path1910"
         style="stroke-opacity:0.95294;filter:url(#e)" />
      <path
         transform="matrix(0.25897548,0,0,0.25980561,318.93593,197.23494)"
         d="M 7.4004,165 C 6.0708,165 5,166.0708 5,167.4004 v 32.6 c 0,2.77 2.23,5 5,5 h 50 c 2.77,0 5,-2.23 5,-5 v -32.6 C 65,166.0708 63.9292,165 62.5996,165 Z"
         opacity="0.5"
         stroke-width="0.17979"
         id="path1912"
         style="stroke-opacity:0.95294;filter:url(#e)" />
      <path
         transform="matrix(0.25897548,0,0,0.25980561,318.93593,197.23494)"
         d="M 7.4004,165 C 6.0708,165 5,166.0708 5,167.4004 v 1 C 5,167.0708 6.0708,166 7.4004,166 h 55.199 c 1.3296,0 2.4004,1.0708 2.4004,2.4004 v -1 C 64.9998,166.0708 63.929,165 62.5994,165 Z"
         opacity="0.5"
         stroke-width="0.17979"
         id="path1914"
         style="stroke-opacity:0.95294;filter:url(#e)" />
      <path
         d="m 1.3229,52.916 c 0.037387,0.72117 0.52916,1.3229 1.3188,1.3229 h 13.233 c 0.79328,0 1.3224,-0.64408 1.3224,-1.3229 z"
         color="#000000"
         opacity="0.25"
         stroke-width="0.27278"
         style="text-indent:0;text-transform:none;filter:url(#e)"
         id="path1918"
         transform="matrix(0.97881728,0,0,0.98195483,318.93593,197.23494)" />
      <path
         d="m 1.3237,52.916 3.337e-4,0.26458 H 17.198034 L 17.1977,52.916 H 1.3226997 Z m 0.26376,0.79373 h 15.346 c 0.05347,-0.07329 0.11377,-0.15529 0.15166,-0.26458 h -15.653 c 0.046511,0.1129 0.09263,0.17706 0.15532,0.26458 z"
         color="#000000"
         opacity="0.075"
         stroke-width="0.095585"
         style="text-indent:0;text-transform:none;filter:url(#e)"
         id="path1920"
         transform="matrix(0.97881728,0,0,0.98195483,318.93593,197.23494)" />
      <path
         d="m 321.52561,237.50491 c -0.71735,0 -1.29487,0.57936 -1.29487,1.29902 v 10.39203 c 0,0.71966 0.57751,1.29903 1.29487,1.29903 h 12.94878 c 0.71735,0 1.29487,-0.57936 1.29487,-1.29903 v -9.35292 c 0,-0.21589 -0.0867,-0.4107 -0.2271,-0.55158 -0.14043,-0.14088 -0.33461,-0.22783 -0.54981,-0.22783 h -8.02816 c -0.19423,0 -0.38847,-0.0649 -0.5746,-0.16643 -0.18614,-0.10149 -0.36418,-0.23951 -0.52604,-0.38564 -0.32371,-0.29228 -0.58269,-0.61703 -0.71217,-0.74694 -0.11273,-0.11309 -0.28644,-0.17775 -0.45978,-0.21464 -0.16585,-0.0353 -0.3263,-0.0434 -0.43703,-0.0452 h -0.1391 z"
         fill="url(#c)"
         stroke-width="0.0521387"
         id="path1924"
         style="fill:url(#linearGradient1938)" />
      <path
         d="M 1.852,4.3131 C 1.66878,4.3131 1.49466,4.350202 1.33628,4.41697 1.1779,4.483736 1.0352,4.58008 0.91564,4.69963 0.79608,4.81919 0.69922,4.96189 0.63246,5.12027 0.56569,5.27865 0.52911,5.45277 0.52911,5.63599 v 0.26458 c 0,-0.18322 0.03658,-0.35734 0.10335,-0.51572 C 0.69922,5.22647 0.79608,5.08377 0.91564,4.96421 1.0352,4.84465 1.1779,4.74831 1.33628,4.68155 1.49466,4.614785 1.66878,4.57768 1.852,4.57768 h 13.229 c 0.18322,0 0.35734,0.037103 0.51572,0.10387 0.15838,0.066765 0.30108,0.16311 0.42064,0.28266 0.11956,0.11956 0.21642,0.26226 0.28318,0.42064 0.06676,0.15838 0.10335,0.3325 0.10335,0.51572 V 5.63599 c 0,-0.18322 -0.03659,-0.35734 -0.10335,-0.51572 C 16.23377,4.96189 16.13692,4.81919 16.01736,4.69963 15.8978,4.58007 15.7551,4.48373 15.59672,4.41697 15.43834,4.350205 15.26422,4.3131 15.081,4.3131 Z"
         filter="url(#d)"
         opacity="0.1"
         stroke-width="0.047568"
         id="path1926"
         transform="matrix(0.97881728,0,0,0.98195483,319.71284,235.68632)" />
      <path
         d="m 321.52571,240.10306 c -0.17934,0 -0.34977,0.0364 -0.50479,0.102 -0.15503,0.0656 -0.29472,0.16016 -0.41172,0.27757 -0.11703,0.11741 -0.21184,0.25753 -0.27719,0.41304 -0.0653,0.15551 -0.10116,0.3265 -0.10116,0.50642 v 7.79417 c 0,0.71966 0.57751,1.29902 1.29488,1.29902 h 12.94877 c 0.71737,0 1.29488,-0.57936 1.29488,-1.29902 v -7.79417 c 0,-0.17992 -0.0358,-0.3509 -0.10116,-0.50642 -0.0654,-0.15552 -0.16015,-0.29565 -0.27718,-0.41304 -0.11703,-0.1174 -0.25671,-0.212 -0.41172,-0.27757 -0.15503,-0.0656 -0.32546,-0.102 -0.5048,-0.102 h -12.94877 z"
         fill="url(#b)"
         stroke-width="0.0466358"
         id="path1928"
         style="fill:url(#linearGradient1940)" />
      <path
         d="m 320.23079,249.19606 c 0.0366,0.70816 0.51796,1.29903 1.29087,1.29903 h 12.95269 c 0.77647,0 1.29438,-0.63246 1.29438,-1.29903 z"
         color="#000000"
         fill="url(#a)"
         stroke-width="0.26743"
         style="text-indent:0;text-transform:none;fill:url(#linearGradient1942)"
         id="path1930" />
      <path
         d="m 320.23159,249.19606 3.2e-4,0.2598 h 15.53775 l -3.5e-4,-0.2598 h -15.5387 z m 0.25817,0.77941 h 15.02093 c 0.0523,-0.072 0.11136,-0.15249 0.14845,-0.25981 h -15.32143 c 0.0455,0.11086 0.0907,0.17387 0.15203,0.25981 z"
         color="#000000"
         fill="#12a327"
         opacity="0.25"
         stroke-width="0.0937088"
         style="text-indent:0;text-transform:none"
         id="path1932" />
      <path
         d="m 321.52561,240.10296 c -0.17934,0 -0.34977,0.0364 -0.50479,0.102 -0.15503,0.0656 -0.29471,0.16016 -0.41173,0.27756 -0.11703,0.1174 -0.21184,0.25752 -0.27718,0.41305 -0.0654,0.15552 -0.10116,0.3265 -0.10116,0.50641 v 0.2598 c 0,-0.17991 0.0358,-0.3509 0.10116,-0.50641 0.0654,-0.15552 0.16015,-0.29565 0.27718,-0.41305 0.11702,-0.1174 0.2567,-0.212 0.41173,-0.27756 0.15502,-0.0656 0.32545,-0.10199 0.50479,-0.10199 h 12.94878 c 0.17933,0 0.34977,0.0364 0.50479,0.10199 0.15503,0.0656 0.2947,0.16017 0.41173,0.27756 0.11703,0.1174 0.21184,0.25753 0.27718,0.41305 0.0653,0.15552 0.10116,0.3265 0.10116,0.50641 v -0.2598 c 0,-0.17991 -0.0358,-0.35089 -0.10116,-0.50641 -0.0654,-0.15553 -0.16016,-0.29565 -0.27718,-0.41305 -0.11703,-0.11741 -0.2567,-0.21201 -0.41173,-0.27756 -0.15502,-0.0656 -0.32546,-0.102 -0.50479,-0.102 z"
         fill="#6ae67c"
         stroke-width="0.0466348"
         id="path1934" />
    </g>
    <g
       inkscape:groupmode="layer"
       id="layer6"
       inkscape:label="Pictograms"
       style="display:inline"
       transform="matrix(0.7330258,0,0,0.72253877,34.772687,40.531296)">
      <path
         d="m 446.40627,55.326475 c 0,-2.680007 -2.22776,-4.853468 -4.97593,-4.853468 h -25.51756 c -2.74817,0 -4.97593,2.173461 -4.97593,4.853468 v 31.813328 c 0,2.680006 2.22776,4.853467 4.97593,4.853467 h 25.51756 c 2.74817,0 4.97593,-2.173461 4.97593,-4.853467 z"
         fill="url(#b)"
         id="path14"
         style="display:inline;fill:url(#b-3-5);stroke-width:0.97516;enable-background:new" />
      <path
         d="m 442.96785,87.396922 h -28.07317 v -0.766539 h 28.07317 z m 0,-2.184058 h -28.07317 v -0.7935 h 28.07317 z m 0,-2.322736 H 414.89468 V 82.12359 h 28.07317 z m 0,-2.369913 h -28.07317 v -0.766538 h 28.07317 z m -15.85701,-3.718103 h -12.06409 v -0.766538 h 12.06409 z m 6.09179,-2.369922 h -18.15588 v -0.766539 h 18.15588 z m -6.14314,-1.76612 h -11.9209 v -0.766538 h 11.9209 z m 6.0987,-1.718942 H 414.948 v -0.7935 h 18.21019 z m 7.29059,-2.323693 H 414.948 v -0.766539 h 25.50078 z m 2.5724,-2.368957 H 414.948 v -0.766539 h 28.07318 z m 0.0987,-3.61891 H 415.04671 V 61.86903 h 28.07317 z m 0,-2.184067 h -28.07317 v -0.794458 h 28.07317 z m 0,-2.323694 h -28.07317 v -0.766539 h 28.07317 z m 0,-2.368955 h -28.07317 v -0.767497 h 28.07317 z"
         fill="#b0b0b0"
         id="path16"
         style="display:inline;stroke-width:0.97516;enable-background:new" />
      <path
         d="m 281.58826,133.96848 c 0,-12.864 -10.69325,-23.29662 -23.88447,-23.29662 H 135.2195 c -13.19122,0 -23.88447,10.43262 -23.88447,23.29662 v 152.70399 c 0,12.86405 10.69325,23.29665 23.88447,23.29665 h 122.48429 c 13.19122,0 23.88447,-10.4326 23.88447,-23.29665 z"
         fill="url(#b)"
         id="path14-1"
         style="display:inline;fill:url(#b-3-5-6);stroke-width:4.68076;enable-background:new" />
      <path
         d="M 265.08384,287.90665 H 130.33262 v -3.6794 h 134.75122 z m 0,-10.4835 H 130.33262 v -3.8088 h 134.75122 z m 0,-11.1491 H 130.33262 v -3.67939 h 134.75122 z m 0,-11.37561 H 130.33262 v -3.67934 h 134.75122 z m -76.11365,-17.84688 h -57.90764 v -3.6794 h 57.90764 z m 29.24059,-11.37562 h -87.14823 v -3.67939 h 87.14823 z m -29.48707,-8.47737 h -57.22033 v -3.6794 h 57.22033 z m 29.27376,-8.25092 h -87.40892 v -3.8088 h 87.40892 z M 252.9923,197.79389 H 130.58855 v -3.67934 H 252.9923 Z m 12.34752,-11.37096 H 130.58855 v -3.6794 h 134.75127 z m 0.47376,-17.37077 H 131.06236 v -3.67939 h 134.75122 z m 0,-10.48353 H 131.06236 v -3.81341 h 134.75122 z m 0,-11.15372 H 131.06236 v -3.67939 h 134.75122 z m 0,-11.37101 H 131.06236 v -3.68399 h 134.75122 z"
         fill="#b0b0b0"
         id="path16-2"
         style="display:inline;stroke-width:4.68076;enable-background:new" />
      <path
         d="m 417.57497,218.38065 c 0,-1.34 -1.11388,-2.42673 -2.48797,-2.42673 h -12.75878 c -1.37408,0 -2.48796,1.08673 -2.48796,2.42673 v 15.90667 c 0,1.34 1.11388,2.42673 2.48796,2.42673 H 415.087 c 1.37409,0 2.48797,-1.08673 2.48797,-2.42673 z"
         fill="url(#b)"
         id="path14-6"
         style="display:inline;fill:url(#b-3-5-7);stroke-width:0.48758;enable-background:new" />
      <path
         d="m 415.85576,234.41588 h -14.03659 v -0.38327 h 14.03659 z m 0,-1.09203 h -14.03659 v -0.39675 h 14.03659 z m 0,-1.16137 h -14.03659 v -0.38327 h 14.03659 z m 0,-1.18496 h -14.03659 v -0.38327 h 14.03659 z m -7.92851,-1.85905 h -6.03204 v -0.38327 h 6.03204 z m 3.0459,-1.18496 h -9.07794 v -0.38327 h 9.07794 z m -3.07157,-0.88306 h -5.96045 v -0.38327 h 5.96045 z m 3.04935,-0.85947 h -9.1051 v -0.39675 h 9.1051 z m 3.64529,-1.16185 h -12.75039 v -0.38327 h 12.75039 z m 1.2862,-1.18447 h -14.03659 v -0.38327 h 14.03659 z m 0.0494,-1.80946 h -14.03658 v -0.38327 h 14.03658 z m 0,-1.09203 h -14.03658 v -0.39723 h 14.03658 z m 0,-1.16185 h -14.03658 v -0.38327 h 14.03658 z m 0,-1.18448 h -14.03658 v -0.38375 h 14.03658 z"
         fill="#b0b0b0"
         id="path16-0"
         style="display:inline;stroke-width:0.48758;enable-background:new" />
      <path
         d="m 428.22128,146.19106 c 0,-1.7152 -1.42577,-3.10621 -3.18459,-3.10621 h -16.33124 c -1.75883,0 -3.1846,1.39101 -3.1846,3.10621 v 20.36054 c 0,1.7152 1.42577,3.10622 3.1846,3.10622 h 16.33124 c 1.75882,0 3.18459,-1.39102 3.18459,-3.10622 z"
         fill="url(#b)"
         id="path14-8"
         style="display:inline;fill:url(#b-3-5-62);stroke-width:0.624102;enable-background:new" />
      <path
         d="m 426.02069,166.71615 h -17.96683 v -0.49058 h 17.96683 z m 0,-1.39779 h -17.96683 v -0.50784 h 17.96683 z m 0,-1.48655 h -17.96683 v -0.49059 h 17.96683 z m 0,-1.51675 h -17.96683 v -0.49058 h 17.96683 z m -10.14849,-2.37958 h -7.72101 v -0.49059 h 7.72101 z m 3.89875,-1.51675 h -11.61976 v -0.49059 h 11.61976 z m -3.93161,-1.13032 h -7.62938 v -0.49059 h 7.62938 z m 3.90317,-1.10012 h -11.65452 v -0.50784 h 11.65452 z m 4.66598,-1.48717 h -16.3205 v -0.49058 h 16.3205 z m 1.64633,-1.51613 h -17.96683 v -0.49058 h 17.96683 z m 0.0632,-2.3161 h -17.96683 v -0.49059 h 17.96683 z m 0,-1.39781 h -17.96683 v -0.50845 h 17.96683 z m 0,-1.48716 h -17.96683 v -0.49058 h 17.96683 z m 0,-1.51613 h -17.96683 v -0.4912 h 17.96683 z"
         fill="#b0b0b0"
         id="path16-7"
         style="display:inline;stroke-width:0.624102;enable-background:new" />
      <path
         d="m 408.81199,280.32945 c 0,-0.8576 -0.71288,-1.5531 -1.59229,-1.5531 h -8.16562 c -0.87942,0 -1.5923,0.6955 -1.5923,1.5531 v 10.18027 c 0,0.8576 0.71288,1.55311 1.5923,1.55311 h 8.16562 c 0.87941,0 1.59229,-0.69551 1.59229,-1.55311 z"
         fill="url(#b)"
         id="path14-8-8"
         style="display:inline;fill:url(#b-3-5-62-9);stroke-width:0.312051;enable-background:new" />
      <path
         d="m 407.7117,290.592 h -8.98342 v -0.24529 h 8.98342 z m 0,-0.6989 h -8.98342 v -0.25392 h 8.98342 z m 0,-0.74327 h -8.98342 v -0.2453 h 8.98342 z m 0,-0.75838 h -8.98342 v -0.24529 h 8.98342 z m -5.07425,-1.18979 h -3.8605 v -0.24529 h 3.8605 z m 1.94938,-0.75837 h -5.80988 v -0.2453 h 5.80988 z m -1.96581,-0.56516 h -3.81469 v -0.2453 h 3.81469 z m 1.95159,-0.55006 h -5.82726 v -0.25392 h 5.82726 z m 2.33299,-0.74359 h -8.16025 v -0.24529 h 8.16025 z m 0.82316,-0.75806 h -8.98341 v -0.24529 h 8.98341 z m 0.0316,-1.15805 h -8.98341 v -0.2453 h 8.98341 z m 0,-0.69891 h -8.98341 v -0.25422 h 8.98341 z m 0,-0.74358 h -8.98341 v -0.24529 h 8.98341 z m 0,-0.75806 h -8.98341 v -0.2456 h 8.98341 z"
         fill="#b0b0b0"
         id="path16-7-9"
         style="display:inline;stroke-width:0.312051;enable-background:new" />
      <path
         d="m 485.42247,219.44967 c 0,-1.25067 -1.03962,-2.26495 -2.3221,-2.26495 h -11.9082 c -1.28248,0 -2.3221,1.01428 -2.3221,2.26495 v 14.84622 c 0,1.25067 1.03962,2.26495 2.3221,2.26495 h 11.9082 c 1.28248,0 2.3221,-1.01428 2.3221,-2.26495 z"
         fill="url(#b)"
         id="path14-3"
         style="display:inline;fill:url(#b-3-5-9);stroke-width:0.455075;enable-background:new" />
      <path
         d="m 483.81787,234.41588 h -13.10081 v -0.35772 h 13.10081 z m 0,-1.01923 h -13.10081 v -0.3703 h 13.10081 z m 0,-1.08394 h -13.10081 v -0.35772 h 13.10081 z m 0,-1.10596 h -13.10081 v -0.35772 h 13.10081 z m -7.39994,-1.73512 h -5.62991 v -0.35771 h 5.62991 z m 2.84284,-1.10596 h -8.47275 v -0.35772 h 8.47275 z m -2.8668,-0.82419 h -5.56309 v -0.35772 h 5.56309 z m 2.84606,-0.80217 h -8.49809 v -0.3703 h 8.49809 z m 3.40228,-1.08439 h -11.90037 v -0.35772 h 11.90037 z m 1.20045,-1.10551 h -13.10082 v -0.35772 h 13.10082 z m 0.0461,-1.68883 h -13.10082 v -0.35772 h 13.10082 z m 0,-1.01923 h -13.10082 v -0.37075 h 13.10082 z m 0,-1.08439 h -13.10082 v -0.35772 h 13.10082 z m 0,-1.10551 h -13.10082 v -0.35817 h 13.10082 z"
         fill="#b0b0b0"
         id="path16-75"
         style="display:inline;stroke-width:0.455075;enable-background:new" />
    </g>
    <g
       inkscape:groupmode="layer"
       id="layer3"
       inkscape:label="Emblems"
       style="display:inline"
       sodipodi:insensitive="true" />
  </g>
</svg>
