<?xml version="1.0" encoding="UTF-8" standalone="no"?>
<svg
   inkscape:export-ydpi="96"
   inkscape:export-xdpi="96"
   width="400"
   height="300"
   id="svg11300"
   sodipodi:version="0.32"
   inkscape:version="1.2.2 (b0a8486541, 2022-12-01)"
   sodipodi:docname="document-new.svg"
   inkscape:output_extension="org.inkscape.output.svg.inkscape"
   version="1.0"
   style="display:inline;enable-background:new"
   inkscape:export-filename="/home/stuart/fold.png"
   xmlns:inkscape="http://www.inkscape.org/namespaces/inkscape"
   xmlns:sodipodi="http://sodipodi.sourceforge.net/DTD/sodipodi-0.dtd"
   xmlns:xlink="http://www.w3.org/1999/xlink"
   xmlns="http://www.w3.org/2000/svg"
   xmlns:svg="http://www.w3.org/2000/svg"
   xmlns:rdf="http://www.w3.org/1999/02/22-rdf-syntax-ns#"
   xmlns:cc="http://creativecommons.org/ns#"
   xmlns:dc="http://purl.org/dc/elements/1.1/">
  <title
     id="title3004">Suru Icon Theme Template</title>
  <sodipodi:namedview
     stroke="#ef2929"
     fill="#f57900"
     id="base"
     pagecolor="#ffffff"
     bordercolor="#000000"
     borderopacity="0.25490196"
     inkscape:pageopacity="0"
     inkscape:pageshadow="2"
     inkscape:zoom="2"
     inkscape:cx="278.25"
     inkscape:cy="121.25"
     inkscape:current-layer="layer7"
     showgrid="false"
     inkscape:grid-bbox="true"
     inkscape:document-units="px"
     inkscape:showpageshadow="false"
     inkscape:window-width="1920"
     inkscape:window-height="1020"
     inkscape:window-x="0"
     inkscape:window-y="32"
     width="400px"
     height="300px"
     inkscape:snap-nodes="true"
     inkscape:snap-bbox="true"
     gridtolerance="10000"
     inkscape:object-nodes="true"
     inkscape:snap-grids="true"
     showguides="true"
     inkscape:guide-bbox="true"
     inkscape:window-maximized="1"
     inkscape:bbox-paths="true"
     inkscape:snap-bbox-midpoints="true"
     inkscape:snap-global="true"
     inkscape:object-paths="true"
     inkscape:snap-intersection-paths="true"
     inkscape:snap-smooth-nodes="true"
     inkscape:pagecheckerboard="false"
     showborder="false"
     inkscape:document-rotation="0"
     inkscape:deskcolor="#d1d1d1">
    <inkscape:grid
       spacingy="1"
       spacingx="1"
       id="grid5883"
       type="xygrid"
       enabled="true"
       visible="true"
       empspacing="4"
       snapvisiblegridlinesonly="true"
       originx="0"
       originy="0" />
    <inkscape:grid
       type="xygrid"
       id="grid11592"
       empspacing="2"
       visible="true"
       enabled="false"
       spacingx="0.5"
       spacingy="0.5"
       color="#ff0000"
       opacity="0.1254902"
       empcolor="#ff0000"
       empopacity="0.25098039"
       snapvisiblegridlinesonly="true"
       originx="0"
       originy="0" />
  </sodipodi:namedview>
  <defs
     id="defs3">
    <linearGradient
       id="a"
       x2="1"
       gradientTransform="matrix(-0.476427,-44.666,44.666,-0.476427,94.464,44.6444)"
       gradientUnits="userSpaceOnUse">
      <stop
         stop-color="#286cd8"
         offset="0"
         id="stop2" />
      <stop
         stop-color="#40a9fe"
         offset="1"
         id="stop4" />
    </linearGradient>
    <linearGradient
       id="b"
       x2="1"
       gradientTransform="matrix(-0.476427,-44.666,44.666,-0.476427,99.0526,47.7561)"
       gradientUnits="userSpaceOnUse">
      <stop
         stop-color="#cfdaf0"
         offset="0"
         id="stop7" />
      <stop
         stop-color="#fdfdfe"
         offset="1"
         id="stop9" />
    </linearGradient>
    <linearGradient
       inkscape:collect="always"
       xlink:href="#a"
       id="linearGradient460"
       gradientUnits="userSpaceOnUse"
       gradientTransform="matrix(-2.2909545,-216.43594,214.78164,-2.3085999,491.35163,256.58558)"
       x2="1" />
    <linearGradient
       inkscape:collect="always"
       xlink:href="#b"
       id="linearGradient462"
       gradientUnits="userSpaceOnUse"
       gradientTransform="matrix(-2.2909545,-216.43594,214.78164,-2.3085999,513.41644,271.6638)"
       x2="1" />
    <linearGradient
       inkscape:collect="always"
       xlink:href="#a"
       id="linearGradient478"
       gradientUnits="userSpaceOnUse"
       gradientTransform="matrix(-0.30682426,-28.986956,28.765398,-0.30918749,381.54285,161.47129)"
       x2="1" />
    <linearGradient
       inkscape:collect="always"
       xlink:href="#b"
       id="linearGradient480"
       gradientUnits="userSpaceOnUse"
       gradientTransform="matrix(-0.30682426,-28.986956,28.765398,-0.30918749,384.49796,163.49069)"
       x2="1" />
    <linearGradient
       inkscape:collect="always"
       xlink:href="#a"
       id="linearGradient496"
       gradientUnits="userSpaceOnUse"
       gradientTransform="matrix(-0.20454951,-19.324637,19.176932,-0.20612499,413.3619,209.98085)"
       x2="1" />
    <linearGradient
       inkscape:collect="always"
       xlink:href="#b"
       id="linearGradient498"
       gradientUnits="userSpaceOnUse"
       gradientTransform="matrix(-0.20454951,-19.324637,19.176932,-0.20612499,415.33197,211.32712)"
       x2="1" />
    <linearGradient
       inkscape:collect="always"
       xlink:href="#a"
       id="linearGradient514"
       gradientUnits="userSpaceOnUse"
       gradientTransform="matrix(-0.22500446,-21.257101,21.094625,-0.22673749,365.39809,209.87894)"
       x2="1" />
    <linearGradient
       inkscape:collect="always"
       xlink:href="#b"
       id="linearGradient516"
       gradientUnits="userSpaceOnUse"
       gradientTransform="matrix(-0.22500446,-21.257101,21.094625,-0.22673749,367.56517,211.35984)"
       x2="1" />
    <linearGradient
       inkscape:collect="always"
       xlink:href="#a"
       id="linearGradient532"
       gradientUnits="userSpaceOnUse"
       gradientTransform="matrix(-0.15341213,-14.493478,14.382699,-0.15459374,350.77143,250.73564)"
       x2="1" />
    <linearGradient
       inkscape:collect="always"
       xlink:href="#b"
       id="linearGradient534"
       gradientUnits="userSpaceOnUse"
       gradientTransform="matrix(-0.15341213,-14.493478,14.382699,-0.15459374,352.24898,251.74534)"
       x2="1" />
    <linearGradient
       inkscape:collect="always"
       xlink:href="#a"
       id="linearGradient577"
       gradientUnits="userSpaceOnUse"
       gradientTransform="matrix(-0.47046387,-44.446665,44.106944,-0.47408748,413.83237,104.65597)"
       x2="1" />
    <linearGradient
       inkscape:collect="always"
       xlink:href="#b"
       id="linearGradient579"
       gradientUnits="userSpaceOnUse"
       gradientTransform="matrix(-0.47046387,-44.446665,44.106944,-0.47408748,418.36354,107.75239)"
       x2="1" />
  </defs>
  <metadata
     id="metadata4">
    <rdf:RDF>
      <cc:Work
         rdf:about="">
        <dc:format>image/svg+xml</dc:format>
        <dc:type
           rdf:resource="http://purl.org/dc/dcmitype/StillImage" />
        <dc:creator>
          <cc:Agent>
            <dc:title>Sam Hewitt</dc:title>
          </cc:Agent>
        </dc:creator>
        <dc:source />
        <cc:license
           rdf:resource="http://creativecommons.org/licenses/by-sa/4.0/" />
        <dc:title>Suru Icon Theme Template</dc:title>
        <dc:subject>
          <rdf:Bag />
        </dc:subject>
        <dc:date />
        <dc:rights>
          <cc:Agent>
            <dc:title />
          </cc:Agent>
        </dc:rights>
        <dc:publisher>
          <cc:Agent>
            <dc:title />
          </cc:Agent>
        </dc:publisher>
        <dc:identifier />
        <dc:relation />
        <dc:language />
        <dc:coverage />
        <dc:description />
        <dc:contributor>
          <cc:Agent>
            <dc:title />
          </cc:Agent>
        </dc:contributor>
      </cc:Work>
      <cc:Work
         rdf:about="">
        <dc:format>image/svg+xml</dc:format>
        <dc:type
           rdf:resource="http://purl.org/dc/dcmitype/StillImage" />
      </cc:Work>
      <cc:License
         rdf:about="http://creativecommons.org/licenses/by-sa/4.0/">
        <cc:permits
           rdf:resource="http://creativecommons.org/ns#Reproduction" />
        <cc:permits
           rdf:resource="http://creativecommons.org/ns#Distribution" />
        <cc:requires
           rdf:resource="http://creativecommons.org/ns#Notice" />
        <cc:requires
           rdf:resource="http://creativecommons.org/ns#Attribution" />
        <cc:permits
           rdf:resource="http://creativecommons.org/ns#DerivativeWorks" />
        <cc:requires
           rdf:resource="http://creativecommons.org/ns#ShareAlike" />
      </cc:License>
    </rdf:RDF>
  </metadata>
  <g
     style="display:inline"
     inkscape:groupmode="layer"
     inkscape:label="Icon"
     id="layer1">
    <g
       style="display:none"
       inkscape:label="Baseplate"
       id="layer7"
       inkscape:groupmode="layer"
       sodipodi:insensitive="true">
      <text
         y="-8.2548828"
         xml:space="preserve"
         x="19.006836"
         style="font-style:normal;font-variant:normal;font-weight:normal;font-stretch:normal;line-height:0%;font-family:'DejaVu Sans';-inkscape-font-specification:'DejaVu Sans';display:inline;fill:#000000;fill-opacity:1;stroke:none;enable-background:new"
         inkscape:label="context"
         id="context"><tspan
           style="font-style:normal;font-variant:normal;font-weight:normal;font-stretch:normal;font-size:18px;line-height:1.25;font-family:'DejaVu Sans';-inkscape-font-specification:'DejaVu Sans'"
           y="-8.2548828"
           x="19.006836"
           sodipodi:role="line"
           id="tspan3933">actions</tspan></text>
      <text
         y="-8.2548828"
         xml:space="preserve"
         x="146.48828"
         style="font-style:normal;font-variant:normal;font-weight:bold;font-stretch:normal;line-height:0%;font-family:'DejaVu Sans';-inkscape-font-specification:'DejaVu Sans Bold';text-align:start;writing-mode:lr-tb;text-anchor:start;display:inline;fill:#000000;fill-opacity:1;stroke:none;enable-background:new"
         inkscape:label="icon-name"
         id="icon-name"><tspan
           style="font-style:normal;font-variant:normal;font-weight:bold;font-stretch:normal;font-size:18px;line-height:1.25;font-family:'DejaVu Sans';-inkscape-font-specification:'DejaVu Sans Bold'"
           y="-8.2548828"
           x="146.48828"
           sodipodi:role="line"
           id="tspan3937">document-new</tspan></text>
      <rect
         style="display:inline;overflow:visible;visibility:visible;fill:#cdcdcd;fill-opacity:1;fill-rule:nonzero;stroke:none;stroke-width:2;marker:none;enable-background:accumulate"
         id="rect16x16"
         width="16"
         height="16"
         x="320"
         y="236"
         inkscape:label="16x16" />
      <rect
         style="display:inline;overflow:visible;visibility:visible;fill:#cdcdcd;fill-opacity:1;fill-rule:nonzero;stroke:none;stroke-width:1.83333;marker:none;enable-background:accumulate"
         id="rect22x22"
         width="22"
         height="22"
         x="372"
         y="190"
         inkscape:label="22x22" />
      <rect
         style="display:inline;overflow:visible;visibility:visible;fill:#cdcdcd;fill-opacity:1;fill-rule:nonzero;stroke:none;stroke-width:2;marker:none;enable-background:accumulate"
         id="rect24x24"
         width="24"
         height="24"
         x="320"
         y="188"
         inkscape:label="24x24" />
      <rect
         style="display:inline;overflow:visible;visibility:visible;fill:#cdcdcd;fill-opacity:1;fill-rule:nonzero;stroke:none;stroke-width:2;marker:none;enable-background:accumulate"
         id="rect32x32"
         width="32"
         height="32"
         x="320"
         y="132"
         inkscape:label="32x32" />
      <rect
         inkscape:label="48x48"
         y="60"
         x="320"
         height="48"
         width="48"
         id="rect48x48"
         style="display:inline;overflow:visible;visibility:visible;fill:#cdcdcd;fill-opacity:1;fill-rule:nonzero;stroke:none;stroke-width:2;marker:none;enable-background:accumulate" />
      <rect
         style="display:inline;overflow:visible;visibility:visible;fill:#cdcdcd;fill-opacity:1;fill-rule:nonzero;stroke:none;stroke-width:2;marker:none;enable-background:accumulate"
         id="rect256x256"
         width="256"
         height="256"
         x="24"
         y="28"
         inkscape:label="256x256" />
    </g>
    <g
       inkscape:groupmode="layer"
       id="layer4"
       inkscape:label="Shadows"
       style="display:inline" />
    <g
       inkscape:groupmode="layer"
       id="layer2"
       inkscape:label="Background"
       style="display:inline">
      <path
         d="M 359.46844,66.015251 C 359.46844,63.245917 357.24067,61 354.49251,61 H 328.97593 C 326.22776,61 324,63.245917 324,66.015251 v 32.87278 c 0,2.769329 2.22776,5.015249 4.97593,5.015249 h 25.51658 c 2.74816,0 4.97593,-2.24592 4.97593,-5.015249 z"
         fill="url(#a)"
         id="path12"
         style="display:inline;fill:url(#linearGradient577);stroke-width:0.991279;enable-background:new" />
      <path
         d="m 364,69.110974 c 0,-2.769334 -2.22776,-5.015251 -4.97593,-5.015251 h -25.51756 c -2.74817,0 -4.97593,2.245917 -4.97593,5.015251 v 32.873776 c 0,2.76933 2.22776,5.01525 4.97593,5.01525 h 25.51756 C 361.77224,107 364,104.75408 364,101.98475 Z"
         fill="url(#b)"
         id="path14"
         style="display:inline;fill:url(#linearGradient579);stroke-width:0.991279;enable-background:new" />
      <path
         d="M 226.62289,68.422091 C 226.62289,54.936639 215.77465,44 202.39227,44 H 78.137637 C 64.755258,44 53.907021,54.936639 53.907021,68.422091 V 228.49824 c 0,13.48545 10.848237,24.42209 24.230616,24.42209 H 202.39227 c 13.38238,0 24.23062,-10.93664 24.23062,-24.42209 z"
         fill="url(#a)"
         id="path446"
         style="display:inline;fill:url(#linearGradient460);stroke-width:4.8271;enable-background:new" />
      <path
         d="m 248.68963,83.496917 c 0,-13.485452 -10.84824,-24.422091 -24.23062,-24.422091 H 100.19957 c -13.382381,0 -24.230619,10.936639 -24.230619,24.422091 V 243.57791 C 75.968951,257.06336 86.817189,268 100.19957,268 h 124.25944 c 13.38238,0 24.23062,-10.93664 24.23062,-24.42209 z"
         fill="url(#b)"
         id="path448"
         style="display:inline;fill:url(#linearGradient462);stroke-width:4.8271;enable-background:new" />
      <path
         d="m 346.08811,136.27082 c 0,-1.80609 -1.45289,-3.27082 -3.24517,-3.27082 h -16.64125 c -1.79228,0 -3.24517,1.46473 -3.24517,3.27082 v 21.43877 c 0,1.80609 1.45289,3.27082 3.24517,3.27082 h 16.64125 c 1.79228,0 3.24517,-1.46473 3.24517,-3.27082 z"
         fill="url(#a)"
         id="path464"
         style="display:inline;fill:url(#linearGradient478);stroke-width:0.646486;enable-background:new" />
      <path
         d="m 349.04348,138.28977 c 0,-1.80609 -1.45289,-3.27082 -3.24517,-3.27082 h -16.64189 c -1.79229,0 -3.24518,1.46473 -3.24518,3.27082 v 21.43942 c 0,1.80609 1.45289,3.27081 3.24518,3.27081 h 16.64189 c 1.79228,0 3.24517,-1.46472 3.24517,-3.27081 z"
         fill="url(#b)"
         id="path466"
         style="display:inline;fill:url(#linearGradient480);stroke-width:0.646486;enable-background:new" />
      <path
         d="m 389.72541,193.18054 c 0,-1.20406 -0.9686,-2.18054 -2.16345,-2.18054 h -11.09417 c -1.19485,0 -2.16344,0.97648 -2.16344,2.18054 v 14.29251 c 0,1.20406 0.96859,2.18055 2.16344,2.18055 h 11.09417 c 1.19485,0 2.16345,-0.97649 2.16345,-2.18055 z"
         fill="url(#a)"
         id="path482"
         style="display:inline;fill:url(#linearGradient496);stroke-width:0.430991;enable-background:new" />
      <path
         d="m 391.69565,194.52651 c 0,-1.20406 -0.96859,-2.18055 -2.16345,-2.18055 h -11.09459 c -1.19486,0 -2.16345,0.97649 -2.16345,2.18055 v 14.29294 c 0,1.20406 0.96859,2.18055 2.16345,2.18055 h 11.09459 c 1.19486,0 2.16345,-0.97649 2.16345,-2.18055 z"
         fill="url(#b)"
         id="path484"
         style="display:inline;fill:url(#linearGradient498);stroke-width:0.430991;enable-background:new" />
      <path
         d="m 339.39795,191.3986 c 0,-1.32447 -1.06545,-2.3986 -2.37979,-2.3986 h -12.20358 c -1.31434,0 -2.37979,1.07413 -2.37979,2.3986 v 15.72176 c 0,1.32447 1.06545,2.3986 2.37979,2.3986 h 12.20358 c 1.31434,0 2.37979,-1.07413 2.37979,-2.3986 z"
         fill="url(#a)"
         id="path500"
         style="display:inline;fill:url(#linearGradient514);stroke-width:0.47409;enable-background:new" />
      <path
         d="m 341.56522,192.87916 c 0,-1.32446 -1.06545,-2.3986 -2.37979,-2.3986 h -12.20405 c -1.31435,0 -2.3798,1.07414 -2.3798,2.3986 v 15.72224 c 0,1.32447 1.06545,2.3986 2.3798,2.3986 h 12.20405 c 1.31434,0 2.37979,-1.07413 2.37979,-2.3986 z"
         fill="url(#b)"
         id="path502"
         style="display:inline;fill:url(#linearGradient516);stroke-width:0.47409;enable-background:new" />
      <path
         d="m 333.04406,238.13541 c 0,-0.90305 -0.72644,-1.63541 -1.62259,-1.63541 h -8.32062 c -0.89614,0 -1.62258,0.73236 -1.62258,1.63541 v 10.71938 c 0,0.90304 0.72644,1.63541 1.62258,1.63541 h 8.32062 c 0.89615,0 1.62259,-0.73237 1.62259,-1.63541 z"
         fill="url(#a)"
         id="path518"
         style="display:inline;fill:url(#linearGradient532);stroke-width:0.323243;enable-background:new" />
      <path
         d="m 334.52174,239.14488 c 0,-0.90304 -0.72644,-1.63541 -1.62258,-1.63541 h -8.32095 c -0.89614,0 -1.62258,0.73237 -1.62258,1.63541 v 10.71971 c 0,0.90304 0.72644,1.63541 1.62258,1.63541 h 8.32095 c 0.89614,0 1.62258,-0.73237 1.62258,-1.63541 z"
         fill="url(#b)"
         id="path520"
         style="display:inline;fill:url(#linearGradient534);stroke-width:0.323243;enable-background:new" />
    </g>
    <g
       inkscape:groupmode="layer"
       id="layer6"
       inkscape:label="Pictogram"
       style="display:inline">
      <path
         d="M 231.94603,244.8717 H 95.241884 v -3.85714 H 231.94603 Z m 0,-10.98994 H 95.241884 v -3.99282 H 231.94603 Z m 0,-11.68772 H 95.241884 V 218.3369 H 231.94603 Z m 0,-11.92515 H 95.241884 v -3.85714 H 231.94603 Z M 154.72927,191.55982 H 95.982411 v -3.85713 h 58.746859 z m 29.66435,-11.92515 H 95.982411 v -3.85714 h 88.411209 z m -29.9144,-8.88692 H 96.429612 v -3.85714 h 58.049608 z m 29.69802,-8.6495 H 95.501549 v -3.99281 h 88.675691 z m 35.50201,-11.69256 H 95.501549 v -3.85714 H 219.67925 Z m 12.52644,-11.9203 H 95.501549 v -3.85714 H 232.20569 Z m 0.48086,-18.20997 H 95.982411 v -3.85714 H 232.68655 Z m 0,-10.98994 H 95.982411 v -3.99766 H 232.68655 Z m 0,-11.692558 H 95.982411 v -3.85714 H 232.68655 Z m 0,-11.920306 H 95.982411 V 81.81063 H 232.68655 Z"
         fill="#b0b0b0"
         id="path450"
         style="stroke-width:4.8271" />
      <path
         d="m 346.80103,159.90246 h -18.30859 v -0.51658 h 18.30859 z m 0,-1.47186 h -18.30859 v -0.53476 h 18.30859 z m 0,-1.56532 h -18.30859 v -0.51658 h 18.30859 z m 0,-1.59712 h -18.30859 v -0.51658 h 18.30859 z m -10.34153,-2.50568 h -7.86788 v -0.51658 h 7.86788 z m 3.97291,-1.59712 h -11.84079 v -0.51658 h 11.84079 z m -4.0064,-1.19021 h -7.7745 v -0.51658 h 7.7745 z m 3.97741,-1.15841 h -11.8762 v -0.53476 h 11.8762 z m 4.75474,-1.56597 h -16.63094 v -0.51658 h 16.63094 z m 1.67765,-1.59647 h -18.30859 v -0.51658 h 18.30859 z m 0.0644,-2.43884 h -18.30859 v -0.51658 h 18.30859 z m 0,-1.47186 h -18.30859 v -0.53541 h 18.30859 z m 0,-1.56597 h -18.30859 v -0.51658 h 18.30859 z m 0,-1.59647 h -18.30859 v -0.51723 h 18.30859 z"
         fill="#b0b0b0"
         id="path468"
         style="stroke-width:0.646486" />
      <path
         d="m 390.20069,208.93497 h -12.20573 v -0.34439 h 12.20573 z m 0,-0.98124 h -12.20573 v -0.35651 h 12.20573 z m 0,-1.04355 h -12.20573 v -0.34439 h 12.20573 z m 0,-1.06475 h -12.20573 v -0.34438 h 12.20573 z m -6.89436,-1.67045 h -5.24525 v -0.34439 h 5.24525 z m 2.64861,-1.06474 h -7.89386 v -0.34439 h 7.89386 z m -2.67093,-0.79348 h -5.183 v -0.34439 h 5.183 z m 2.65161,-0.77228 h -7.91748 v -0.3565 h 7.91748 z m 3.16982,-1.04397 h -11.0873 v -0.34439 h 11.0873 z m 1.11843,-1.06432 h -12.20573 v -0.34439 h 12.20573 z m 0.0429,-1.62589 h -12.20573 v -0.34439 h 12.20573 z m 0,-0.98124 h -12.20573 v -0.35694 h 12.20573 z m 0,-1.04398 h -12.20573 v -0.34439 h 12.20573 z m 0,-1.06431 h -12.20573 v -0.34482 h 12.20573 z"
         fill="#b0b0b0"
         id="path486"
         style="stroke-width:0.430991" />
      <path
         d="m 339.92076,208.72847 h -13.4263 v -0.37883 h 13.4263 z m 0,-1.07937 h -13.4263 v -0.39215 h 13.4263 z m 0,-1.1479 h -13.4263 v -0.37883 h 13.4263 z m 0,-1.17122 h -13.4263 v -0.37883 h 13.4263 z m -7.58379,-1.8375 h -5.76978 v -0.37882 h 5.76978 z m 2.91346,-1.17122 h -8.68324 v -0.37882 h 8.68324 z m -2.93802,-0.87282 h -5.7013 v -0.37883 h 5.7013 z m 2.91677,-0.8495 h -8.70922 v -0.39216 h 8.70922 z m 3.48681,-1.14838 h -12.19603 v -0.37883 h 12.19603 z m 1.23027,-1.17074 h -13.4263 v -0.37883 h 13.4263 z m 0.0472,-1.78848 h -13.4263 v -0.37883 h 13.4263 z m 0,-1.07937 h -13.4263 v -0.39263 h 13.4263 z m 0,-1.14838 h -13.4263 v -0.37883 h 13.4263 z m 0,-1.17074 h -13.4263 v -0.37931 h 13.4263 z"
         fill="#b0b0b0"
         id="path504"
         style="stroke-width:0.47409" />
      <path
         d="m 333.40052,249.95123 h -9.1543 v -0.25829 h 9.1543 z m 0,-0.73594 h -9.1543 v -0.26737 h 9.1543 z m 0,-0.78266 h -9.1543 v -0.25829 h 9.1543 z m 0,-0.79856 h -9.1543 v -0.25829 h 9.1543 z m -5.17076,-1.25283 h -3.93395 v -0.25829 h 3.93395 z m 1.98645,-0.79856 h -5.9204 v -0.25829 h 5.9204 z m -2.0032,-0.59511 h -3.88725 v -0.25829 h 3.88725 z m 1.98871,-0.57921 h -5.93811 v -0.26737 h 5.93811 z m 2.37736,-0.78298 h -8.31547 v -0.25829 h 8.31547 z m 0.83883,-0.79824 h -9.1543 v -0.25829 h 9.1543 z m 0.0322,-1.21941 h -9.1543 v -0.25829 h 9.1543 z m 0,-0.73594 h -9.1543 v -0.2677 h 9.1543 z m 0,-0.78298 h -9.1543 v -0.25829 h 9.1543 z m 0,-0.79824 h -9.1543 v -0.25861 h 9.1543 z"
         fill="#b0b0b0"
         id="path522"
         style="stroke-width:0.323243" />
      <path
         d="m 360.56158,102.25044 h -28.07317 v -0.79209 h 28.07317 z m 0,-2.256865 h -28.07317 v -0.819953 h 28.07317 z m 0,-2.400155 h -28.07317 v -0.792092 h 28.07317 z m 0,-2.448916 h -28.07317 v -0.792091 h 28.07317 z m -15.85701,-3.84204 h -12.06409 v -0.792091 h 12.06409 z m 6.09179,-2.448915 h -18.15588 v -0.792091 h 18.15588 z m -6.14314,-1.824994 h -11.9209 v -0.792091 h 11.9209 z m 6.0987,-1.776235 h -18.21019 v -0.819953 h 18.21019 z m 7.29059,-2.401151 h -25.50078 v -0.792091 h 25.50078 z m 2.5724,-2.44792 h -28.07318 v -0.792091 h 28.07318 z m 0.0987,-3.739546 h -28.07317 v -0.792091 h 28.07317 z m 0,-2.256863 h -28.07317 v -0.820948 h 28.07317 z m 0,-2.401151 h -28.07317 v -0.792091 h 28.07317 z m 0,-2.44792 h -28.07317 v -0.793086 h 28.07317 z"
         fill="#b0b0b0"
         id="path16"
         style="display:inline;stroke-width:0.991279;enable-background:new" />
    </g>
    <g
       inkscape:groupmode="layer"
       id="layer5"
       inkscape:label="Highlights"
       style="display:inline" />
    <g
       inkscape:groupmode="layer"
       id="layer8"
       inkscape:label="Emblems"
       style="display:inline">
      <ellipse
         style="display:inline;vector-effect:none;fill:#0f8420;fill-opacity:1;stroke:none;stroke-width:31.531;stroke-linecap:butt;stroke-linejoin:round;stroke-miterlimit:4;stroke-dasharray:none;stroke-dashoffset:0;stroke-opacity:1;enable-background:new"
         id="circle454"
         cy="236.34782"
         cx="217.2794"
         rx="31.410246"
         ry="31.652174" />
      <path
         inkscape:connector-curvature="0"
         id="path456"
         overflow="visible"
         font-weight="400"
         style="color:#000000;font-weight:400;line-height:normal;font-family:sans-serif;text-indent:0;text-align:start;text-decoration:none;text-decoration-line:none;text-decoration-style:solid;text-decoration-color:#000000;text-transform:none;white-space:normal;display:inline;overflow:visible;isolation:auto;mix-blend-mode:normal;fill:#ffffff;fill-opacity:1;stroke-width:4.85092;marker:none;enable-background:new"
         d="M 214.86309,219.30437 V 233.913 h -14.49704 v 4.86956 h 14.49704 v 14.6087 h 4.83235 v -14.6087 h 14.49703 V 233.913 h -14.49703 v -14.60863 z"
         sodipodi:nodetypes="ccccccccccccc" />
      <ellipse
         style="display:inline;vector-effect:none;fill:#0f8420;fill-opacity:1;stroke:none;stroke-width:4.2229;stroke-linecap:butt;stroke-linejoin:round;stroke-miterlimit:4;stroke-dasharray:none;stroke-dashoffset:0;stroke-opacity:1;enable-background:new"
         id="circle472"
         cy="158.76086"
         cx="344.83673"
         rx="4.2067294"
         ry="4.2391305" />
      <path
         inkscape:connector-curvature="0"
         id="path474"
         overflow="visible"
         font-weight="400"
         style="color:#000000;font-weight:400;line-height:normal;font-family:sans-serif;text-indent:0;text-align:start;text-decoration:none;text-decoration-line:none;text-decoration-style:solid;text-decoration-color:#000000;text-transform:none;white-space:normal;display:inline;overflow:visible;isolation:auto;mix-blend-mode:normal;fill:#ffffff;fill-opacity:1;stroke-width:0.649677;marker:none;enable-background:new"
         d="m 344.51313,156.47826 v 1.95652 h -1.94156 v 0.65217 h 1.94156 v 1.95652 h 0.64719 v -1.95652 h 1.94157 v -0.65217 h -1.94157 v -1.95652 z"
         sodipodi:nodetypes="ccccccccccccc" />
      <ellipse
         style="display:inline;vector-effect:none;fill:#0f8420;fill-opacity:1;stroke:none;stroke-width:2.81527;stroke-linecap:butt;stroke-linejoin:round;stroke-miterlimit:4;stroke-dasharray:none;stroke-dashoffset:0;stroke-opacity:1;enable-background:new"
         id="circle490"
         cy="208.1739"
         cx="388.89117"
         rx="2.8044863"
         ry="2.826087" />
      <path
         inkscape:connector-curvature="0"
         id="path492"
         overflow="visible"
         font-weight="400"
         style="color:#000000;font-weight:400;line-height:normal;font-family:sans-serif;text-indent:0;text-align:start;text-decoration:none;text-decoration-line:none;text-decoration-style:solid;text-decoration-color:#000000;text-transform:none;white-space:normal;display:inline;overflow:visible;isolation:auto;mix-blend-mode:normal;fill:#ffffff;fill-opacity:1;stroke-width:0.433118;marker:none;enable-background:new"
         d="m 388.67543,206.65217 v 1.30434 h -1.29438 v 0.43478 h 1.29438 v 1.30435 h 0.43146 v -1.30435 h 1.29438 v -0.43478 h -1.29438 v -1.30434 z"
         sodipodi:nodetypes="ccccccccccccc" />
      <ellipse
         style="display:inline;vector-effect:none;fill:#0f8420;fill-opacity:1;stroke:none;stroke-width:3.09679;stroke-linecap:butt;stroke-linejoin:round;stroke-miterlimit:4;stroke-dasharray:none;stroke-dashoffset:0;stroke-opacity:1;enable-background:new"
         id="circle508"
         cy="207.89131"
         cx="338.48029"
         rx="3.0849349"
         ry="3.1086957" />
      <path
         inkscape:connector-curvature="0"
         id="path510"
         overflow="visible"
         font-weight="400"
         style="color:#000000;font-weight:400;line-height:normal;font-family:sans-serif;text-indent:0;text-align:start;text-decoration:none;text-decoration-line:none;text-decoration-style:solid;text-decoration-color:#000000;text-transform:none;white-space:normal;display:inline;overflow:visible;isolation:auto;mix-blend-mode:normal;fill:#ffffff;fill-opacity:1;stroke-width:0.47643;marker:none;enable-background:new"
         d="m 338.24298,206.2174 v 1.43477 h -1.42382 v 0.47826 h 1.42382 v 1.43479 h 0.4746 v -1.43479 h 1.42382 v -0.47826 h -1.42382 v -1.43477 z"
         sodipodi:nodetypes="ccccccccccccc" />
      <ellipse
         style="display:inline;vector-effect:none;fill:#0f8420;fill-opacity:1;stroke:none;stroke-width:2.11145;stroke-linecap:butt;stroke-linejoin:round;stroke-miterlimit:4;stroke-dasharray:none;stroke-dashoffset:0;stroke-opacity:1;enable-background:new"
         id="circle526"
         cy="249.38043"
         cx="332.41837"
         rx="2.1033647"
         ry="2.1195652" />
      <path
         inkscape:connector-curvature="0"
         id="path528"
         overflow="visible"
         font-weight="400"
         style="color:#000000;font-weight:400;line-height:normal;font-family:sans-serif;text-indent:0;text-align:start;text-decoration:none;text-decoration-line:none;text-decoration-style:solid;text-decoration-color:#000000;text-transform:none;white-space:normal;display:inline;overflow:visible;isolation:auto;mix-blend-mode:normal;fill:#ffffff;fill-opacity:1;stroke-width:0.324838;marker:none;enable-background:new"
         d="m 332.25657,248.23913 v 0.97825 h -0.97079 v 0.32609 h 0.97079 v 0.97826 h 0.32359 v -0.97826 h 0.97078 v -0.32609 h -0.97078 v -0.97825 z"
         sodipodi:nodetypes="ccccccccccccc" />
      <ellipse
         style="display:inline;vector-effect:none;fill:#0f8420;fill-opacity:1;stroke:none;stroke-width:6.47511;stroke-linecap:butt;stroke-linejoin:round;stroke-miterlimit:4;stroke-dasharray:none;stroke-dashoffset:0;stroke-opacity:1;enable-background:new"
         id="path2644-5-5-7"
         cy="100.5"
         cx="357.54968"
         rx="6.4503183"
         ry="6.5" />
      <path
         inkscape:connector-curvature="0"
         id="path1063-0-4-6"
         overflow="visible"
         font-weight="400"
         style="color:#000000;font-weight:400;line-height:normal;font-family:sans-serif;text-indent:0;text-align:start;text-decoration:none;text-decoration-line:none;text-decoration-style:solid;text-decoration-color:#000000;text-transform:none;white-space:normal;display:inline;overflow:visible;isolation:auto;mix-blend-mode:normal;fill:#ffffff;fill-opacity:1;stroke-width:0.996171;marker:none;enable-background:new"
         d="m 357.05348,97.000005 v 2.999986 h -2.97707 v 0.999999 h 2.97707 v 3 h 0.99235 v -3 h 2.97707 v -0.999999 h -2.97707 v -2.999986 z"
         sodipodi:nodetypes="ccccccccccccc" />
    </g>
  </g>
</svg>
