<?xml version="1.0" encoding="UTF-8" standalone="no"?>
<svg
   inkscape:export-ydpi="96"
   inkscape:export-xdpi="96"
   width="400"
   height="300"
   id="svg11300"
   sodipodi:version="0.32"
   inkscape:version="1.2.2 (b0a8486541, 2022-12-01)"
   sodipodi:docname="folder-new.svg"
   inkscape:output_extension="org.inkscape.output.svg.inkscape"
   version="1.0"
   style="display:inline;enable-background:new"
   inkscape:export-filename="C:\Users\sblav\Pictures\vertical oblong template.png"
   xmlns:inkscape="http://www.inkscape.org/namespaces/inkscape"
   xmlns:sodipodi="http://sodipodi.sourceforge.net/DTD/sodipodi-0.dtd"
   xmlns:xlink="http://www.w3.org/1999/xlink"
   xmlns="http://www.w3.org/2000/svg"
   xmlns:svg="http://www.w3.org/2000/svg"
   xmlns:rdf="http://www.w3.org/1999/02/22-rdf-syntax-ns#"
   xmlns:cc="http://creativecommons.org/ns#"
   xmlns:dc="http://purl.org/dc/elements/1.1/">
  <title
     id="title3004">Sucharu Icon Theme Template</title>
  <sodipodi:namedview
     stroke="#ef2929"
     fill="#f57900"
     id="base"
     pagecolor="#ffffff"
     bordercolor="#000000"
     borderopacity="0.25490196"
     inkscape:pageopacity="0"
     inkscape:pageshadow="2"
     inkscape:zoom="1.4142136"
     inkscape:cx="199.40411"
     inkscape:cy="112.42998"
     inkscape:current-layer="layer7"
     showgrid="false"
     inkscape:grid-bbox="true"
     inkscape:document-units="px"
     inkscape:showpageshadow="false"
     inkscape:window-width="1920"
     inkscape:window-height="1020"
     inkscape:window-x="0"
     inkscape:window-y="32"
     width="400px"
     height="300px"
     inkscape:snap-nodes="true"
     inkscape:snap-bbox="true"
     gridtolerance="10000"
     inkscape:object-nodes="true"
     inkscape:snap-grids="true"
     showguides="false"
     inkscape:guide-bbox="true"
     inkscape:window-maximized="1"
     inkscape:bbox-paths="true"
     inkscape:snap-bbox-midpoints="true"
     inkscape:snap-global="true"
     inkscape:object-paths="true"
     inkscape:snap-intersection-paths="true"
     inkscape:snap-smooth-nodes="true"
     inkscape:pagecheckerboard="false"
     showborder="false"
     inkscape:document-rotation="0"
     inkscape:deskcolor="#d1d1d1" />
  <defs
     id="defs3">
    <filter
       inkscape:collect="always"
       style="color-interpolation-filters:sRGB"
       id="filter11348"
       x="-0.048000001"
       width="1.096"
       y="-0.048000001"
       height="1.096">
      <feGaussianBlur
         inkscape:collect="always"
         stdDeviation="1.36"
         id="feGaussianBlur11350" />
    </filter>
    <filter
       id="e"
       x="-0.010999908"
       y="-0.013200229"
       width="1.0219998"
       height="1.0264005"
       color-interpolation-filters="sRGB">
      <feGaussianBlur
         stdDeviation="0.072761339"
         id="feGaussianBlur21" />
    </filter>
    <linearGradient
       id="c"
       x1="25"
       x2="25"
       y1="155"
       y2="166"
       gradientTransform="matrix(3.6903995,0,0,3.7022295,24.836985,-521.40207)"
       gradientUnits="userSpaceOnUse">
      <stop
         stop-color="#12a327"
         offset="0"
         id="stop2" />
      <stop
         stop-color="#208a2f"
         offset="1"
         id="stop4" />
    </linearGradient>
    <filter
       id="d"
       x="-0.014849913"
       y="-0.14849988"
       width="1.0296998"
       height="1.2969998"
       color-interpolation-filters="sRGB">
      <feGaussianBlur
         stdDeviation="0.098224626"
         id="feGaussianBlur24" />
    </filter>
    <linearGradient
       id="b"
       x1="5"
       x2="65"
       y1="185"
       y2="185"
       gradientTransform="matrix(3.6903995,0,0,3.7022295,24.836845,-521.40207)"
       gradientUnits="userSpaceOnUse">
      <stop
         stop-color="#12a327"
         offset="0"
         id="stop7" />
      <stop
         stop-color="#28bd3d"
         offset=".083713"
         id="stop9" />
      <stop
         stop-color="#28bd3d"
         offset=".91237"
         id="stop11" />
      <stop
         stop-color="#12a327"
         offset="1"
         id="stop13" />
    </linearGradient>
    <linearGradient
       id="a"
       x1="-9.6169996"
       x2="-9.6169996"
       y1="1138.4"
       y2="1140.2"
       gradientTransform="matrix(2.5340986,0,0,5.7309136,164.23794,-6296.5608)"
       gradientUnits="userSpaceOnUse">
      <stop
         stop-color="#12a327"
         stop-opacity="0"
         offset="0"
         id="stop16" />
      <stop
         stop-color="#12a327"
         offset="1"
         id="stop18" />
    </linearGradient>
    <linearGradient
       inkscape:collect="always"
       xlink:href="#c"
       id="linearGradient1396"
       gradientUnits="userSpaceOnUse"
       gradientTransform="matrix(3.6903995,0,0,3.7022295,24.836985,-521.40207)"
       x1="25"
       y1="155"
       x2="25"
       y2="166" />
    <linearGradient
       inkscape:collect="always"
       xlink:href="#b"
       id="linearGradient1398"
       gradientUnits="userSpaceOnUse"
       gradientTransform="matrix(3.6903995,0,0,3.7022295,24.836845,-521.40207)"
       x1="5"
       y1="185"
       x2="65"
       y2="185" />
    <linearGradient
       inkscape:collect="always"
       xlink:href="#a"
       id="linearGradient1400"
       gradientUnits="userSpaceOnUse"
       gradientTransform="matrix(2.5340986,0,0,5.7309136,164.23794,-6296.5608)"
       x1="-9.6169996"
       y1="1138.4"
       x2="-9.6169996"
       y2="1140.2" />
    <linearGradient
       inkscape:collect="always"
       xlink:href="#c"
       id="linearGradient1510"
       gradientUnits="userSpaceOnUse"
       gradientTransform="matrix(3.6903995,0,0,3.7022295,24.836985,-521.40207)"
       x1="25"
       y1="155"
       x2="25"
       y2="166" />
    <linearGradient
       inkscape:collect="always"
       xlink:href="#b"
       id="linearGradient1512"
       gradientUnits="userSpaceOnUse"
       gradientTransform="matrix(3.6903995,0,0,3.7022295,24.836845,-521.40207)"
       x1="5"
       y1="185"
       x2="65"
       y2="185" />
    <linearGradient
       inkscape:collect="always"
       xlink:href="#a"
       id="linearGradient1514"
       gradientUnits="userSpaceOnUse"
       gradientTransform="matrix(2.5340986,0,0,5.7309136,164.23794,-6296.5608)"
       x1="-9.6169996"
       y1="1138.4"
       x2="-9.6169996"
       y2="1140.2" />
    <linearGradient
       inkscape:collect="always"
       xlink:href="#c"
       id="linearGradient1630"
       gradientUnits="userSpaceOnUse"
       gradientTransform="matrix(3.6903995,0,0,3.7022295,24.836985,-521.40207)"
       x1="25"
       y1="155"
       x2="25"
       y2="166" />
    <linearGradient
       inkscape:collect="always"
       xlink:href="#b"
       id="linearGradient1632"
       gradientUnits="userSpaceOnUse"
       gradientTransform="matrix(3.6903995,0,0,3.7022295,24.836845,-521.40207)"
       x1="5"
       y1="185"
       x2="65"
       y2="185" />
    <linearGradient
       inkscape:collect="always"
       xlink:href="#a"
       id="linearGradient1634"
       gradientUnits="userSpaceOnUse"
       gradientTransform="matrix(2.5340986,0,0,5.7309136,164.23794,-6296.5608)"
       x1="-9.6169996"
       y1="1138.4"
       x2="-9.6169996"
       y2="1140.2" />
    <linearGradient
       inkscape:collect="always"
       xlink:href="#c"
       id="linearGradient1824"
       gradientUnits="userSpaceOnUse"
       gradientTransform="matrix(3.6903995,0,0,3.7022295,24.836985,-521.40207)"
       x1="25"
       y1="155"
       x2="25"
       y2="166" />
    <linearGradient
       inkscape:collect="always"
       xlink:href="#b"
       id="linearGradient1826"
       gradientUnits="userSpaceOnUse"
       gradientTransform="matrix(3.6903995,0,0,3.7022295,24.836845,-521.40207)"
       x1="5"
       y1="185"
       x2="65"
       y2="185" />
    <linearGradient
       inkscape:collect="always"
       xlink:href="#a"
       id="linearGradient1828"
       gradientUnits="userSpaceOnUse"
       gradientTransform="matrix(2.5340986,0,0,5.7309136,164.23794,-6296.5608)"
       x1="-9.6169996"
       y1="1138.4"
       x2="-9.6169996"
       y2="1140.2" />
    <linearGradient
       inkscape:collect="always"
       xlink:href="#c"
       id="linearGradient1938"
       gradientUnits="userSpaceOnUse"
       gradientTransform="matrix(3.6903995,0,0,3.7022295,24.836985,-521.40207)"
       x1="25"
       y1="155"
       x2="25"
       y2="166" />
    <linearGradient
       inkscape:collect="always"
       xlink:href="#b"
       id="linearGradient1940"
       gradientUnits="userSpaceOnUse"
       gradientTransform="matrix(3.6903995,0,0,3.7022295,24.836845,-521.40207)"
       x1="5"
       y1="185"
       x2="65"
       y2="185" />
    <linearGradient
       inkscape:collect="always"
       xlink:href="#a"
       id="linearGradient1942"
       gradientUnits="userSpaceOnUse"
       gradientTransform="matrix(2.5340986,0,0,5.7309136,164.23794,-6296.5608)"
       x1="-9.6169996"
       y1="1138.4"
       x2="-9.6169996"
       y2="1140.2" />
  </defs>
  <metadata
     id="metadata4">
    <rdf:RDF>
      <cc:Work
         rdf:about="">
        <dc:format>image/svg+xml</dc:format>
        <dc:type
           rdf:resource="http://purl.org/dc/dcmitype/StillImage" />
        <dc:creator>
          <cc:Agent>
            <dc:title>Himadri Sekhar Basu</dc:title>
          </cc:Agent>
        </dc:creator>
        <dc:source />
        <cc:license
           rdf:resource="http://creativecommons.org/licenses/by-sa/4.0/" />
        <dc:title>Sucharu Icon Theme Template</dc:title>
        <dc:subject>
          <rdf:Bag />
        </dc:subject>
        <dc:date />
        <dc:rights>
          <cc:Agent>
            <dc:title />
          </cc:Agent>
        </dc:rights>
        <dc:publisher>
          <cc:Agent>
            <dc:title />
          </cc:Agent>
        </dc:publisher>
        <dc:identifier />
        <dc:relation />
        <dc:language />
        <dc:coverage />
        <dc:description />
        <dc:contributor>
          <cc:Agent>
            <dc:title />
          </cc:Agent>
        </dc:contributor>
      </cc:Work>
      <cc:Work
         rdf:about="">
        <dc:format>image/svg+xml</dc:format>
        <dc:type
           rdf:resource="http://purl.org/dc/dcmitype/StillImage" />
      </cc:Work>
      <cc:License
         rdf:about="http://creativecommons.org/licenses/by-sa/4.0/">
        <cc:permits
           rdf:resource="http://creativecommons.org/ns#Reproduction" />
        <cc:permits
           rdf:resource="http://creativecommons.org/ns#Distribution" />
        <cc:requires
           rdf:resource="http://creativecommons.org/ns#Notice" />
        <cc:requires
           rdf:resource="http://creativecommons.org/ns#Attribution" />
        <cc:permits
           rdf:resource="http://creativecommons.org/ns#DerivativeWorks" />
        <cc:requires
           rdf:resource="http://creativecommons.org/ns#ShareAlike" />
      </cc:License>
    </rdf:RDF>
  </metadata>
  <g
     style="display:inline"
     inkscape:groupmode="layer"
     inkscape:label="Icon"
     id="layer1">
    <g
       style="display:none"
       inkscape:label="Baseplate"
       id="layer7"
       inkscape:groupmode="layer"
       sodipodi:insensitive="true">
      <text
         y="-8.2548828"
         xml:space="preserve"
         x="19.006836"
         style="font-style:normal;font-variant:normal;font-weight:normal;font-stretch:normal;line-height:0%;font-family:'DejaVu Sans';-inkscape-font-specification:'DejaVu Sans';display:inline;fill:#000000;fill-opacity:1;stroke:none;enable-background:new"
         inkscape:label="context"
         id="context"><tspan
           style="font-style:normal;font-variant:normal;font-weight:normal;font-stretch:normal;font-size:18px;line-height:1.25;font-family:'DejaVu Sans';-inkscape-font-specification:'DejaVu Sans'"
           y="-8.2548828"
           x="19.006836"
           sodipodi:role="line"
           id="tspan3933">actions</tspan></text>
      <text
         y="-8.2548828"
         xml:space="preserve"
         x="146.48828"
         style="font-style:normal;font-variant:normal;font-weight:bold;font-stretch:normal;font-size:16px;line-height:0%;font-family:'DejaVu Sans';-inkscape-font-specification:'DejaVu Sans, Bold';font-variant-ligatures:normal;font-variant-caps:normal;font-variant-numeric:normal;font-variant-east-asian:normal;text-align:start;writing-mode:lr-tb;text-anchor:start;display:inline;fill:#000000;fill-opacity:1;stroke:none;enable-background:new"
         inkscape:label="icon-name"
         id="icon-name"><tspan
           sodipodi:role="line"
           id="tspan1027"
           x="146.48828"
           y="-8.2548828">folder-new</tspan></text>
      <rect
         style="display:inline;overflow:visible;visibility:visible;fill:#cdcdcd;fill-opacity:1;fill-rule:nonzero;stroke:none;stroke-width:2;marker:none;enable-background:accumulate"
         id="rect16x16"
         width="16"
         height="16"
         x="320"
         y="236"
         inkscape:label="16x16" />
      <rect
         style="display:inline;enable-background:accumulate;overflow:visible;visibility:visible;fill:#cdcdcd;fill-opacity:1;fill-rule:nonzero;stroke:none;stroke-width:2;marker:none"
         id="rect22x22"
         width="22"
         height="22"
         x="372"
         y="190"
         inkscape:label="22x22" />
      <rect
         style="display:inline;overflow:visible;visibility:visible;fill:#cdcdcd;fill-opacity:1;fill-rule:nonzero;stroke:none;stroke-width:2;marker:none;enable-background:accumulate"
         id="rect24x24"
         width="24"
         height="24"
         x="320"
         y="188"
         inkscape:label="24x24" />
      <rect
         style="display:inline;overflow:visible;visibility:visible;fill:#cdcdcd;fill-opacity:1;fill-rule:nonzero;stroke:none;stroke-width:2;marker:none;enable-background:accumulate"
         id="rect32x32"
         width="32"
         height="32"
         x="320"
         y="132"
         inkscape:label="32x32" />
      <rect
         inkscape:label="48x48"
         y="60"
         x="320"
         height="48"
         width="48"
         id="rect48x48"
         style="display:inline;overflow:visible;visibility:visible;fill:#cdcdcd;fill-opacity:1;fill-rule:nonzero;stroke:none;stroke-width:2;marker:none;enable-background:accumulate" />
      <rect
         style="display:inline;overflow:visible;visibility:visible;fill:#cdcdcd;fill-opacity:1;fill-rule:nonzero;stroke:none;stroke-width:2;marker:none;enable-background:accumulate"
         id="rect256x256"
         width="256"
         height="256"
         x="24"
         y="28"
         inkscape:label="256x256" />
    </g>
    <g
       inkscape:groupmode="layer"
       id="layer8"
       inkscape:label="Backgrounds"
       style="display:inline" />
    <g
       inkscape:groupmode="layer"
       id="layer6"
       inkscape:label="Pictograms"
       style="display:inline" />
    <g
       inkscape:groupmode="layer"
       id="layer2"
       inkscape:label="Highlights"
       style="display:inline">
      <g
         id="g2391"
         style="display:inline;enable-background:new"
         transform="translate(-2.0000045,11.000055)">
        <g
           transform="matrix(13.948144,0,0,13.992854,24.836986,-521.40207)"
           filter="url(#e)"
           opacity="0.5"
           id="g41">
          <g
             stroke-opacity="0.95294"
             id="g35">
            <path
               transform="scale(0.26458)"
               d="m 10,155 c -2.77,0 -5,2.23 -5,5 v 40 c 0,2.77 2.23,5 5,5 h 50 c 2.77,0 5,-2.23 5,-5 v -36 c 0,-0.831 -0.3347,-1.5808 -0.87695,-2.123 -0.54225,-0.5422 -1.292,-0.87695 -2.123,-0.87695 h -31 c -0.75,0 -1.5,-0.25001 -2.2188,-0.64062 -0.71875,-0.39063 -1.4062,-0.92188 -2.0312,-1.4844 -1.25,-1.125 -2.25,-2.375 -2.75,-2.875 -0.43528,-0.43528 -1.1061,-0.68419 -1.7754,-0.82617 -0.64042,-0.13585 -1.26,-0.16683 -1.6875,-0.17383 h -0.53711 z"
               opacity="1"
               stroke-width="0.20101"
               id="path29" />
            <path
               transform="scale(0.26458)"
               d="M 7.4004,165 C 6.0708,165 5,166.0708 5,167.4004 v 32.6 c 0,2.77 2.23,5 5,5 h 50 c 2.77,0 5,-2.23 5,-5 v -32.6 C 65,166.0708 63.9292,165 62.5996,165 Z"
               opacity="1"
               stroke-width="0.17979"
               id="path31" />
            <path
               transform="scale(0.26458)"
               d="M 7.4004,165 C 6.0708,165 5,166.0708 5,167.4004 v 1 C 5,167.0708 6.0708,166 7.4004,166 h 55.199 c 1.3296,0 2.4004,1.0708 2.4004,2.4004 v -1 C 64.9998,166.0708 63.929,165 62.5994,165 Z"
               opacity="1"
               stroke-width="0.17979"
               id="path33" />
          </g>
          <path
             d="m 1.3229,52.916 c 0.037387,0.72117 0.52916,1.3229 1.3188,1.3229 h 13.233 c 0.79328,0 1.3224,-0.64408 1.3224,-1.3229 z"
             color="#000000"
             opacity="0.5"
             stroke-width="0.27278"
             style="text-indent:0;text-transform:none"
             id="path37" />
          <path
             d="m 1.3237,52.916 3.337e-4,0.26458 H 17.198034 L 17.1977,52.916 H 1.3226997 Z m 0.26376,0.79373 h 15.346 c 0.05347,-0.07329 0.11377,-0.15529 0.15166,-0.26458 h -15.653 c 0.046511,0.1129 0.09263,0.17706 0.15532,0.26458 z"
             color="#000000"
             opacity="0.15"
             stroke-width="0.095585"
             style="text-indent:0;text-transform:none"
             id="path39" />
        </g>
        <path
           d="m 61.740006,52.444908 c -10.222314,0 -18.452,8.255926 -18.452,18.511148 V 219.04245 c 0,10.25506 8.229546,18.51111 18.452,18.51111 H 246.26 c 10.22232,0 18.45199,-8.25591 18.45199,-18.51111 V 85.763295 c 0,-3.076467 -1.2351,-5.852509 -3.23625,-7.859925 -2.00114,-2.007555 -4.76818,-3.246623 -7.8348,-3.246623 H 139.23966 c -2.76774,0 -5.5356,-0.925584 -8.188,-2.371649 -2.65251,-1.44616 -5.18953,-3.412995 -7.496,-5.495414 -4.61295,-4.164971 -8.30335,-8.792686 -10.14853,-10.643803 -1.60641,-1.611557 -4.08178,-2.532987 -6.55184,-3.058698 -2.3634,-0.502946 -4.64977,-0.617648 -6.22759,-0.643562 h -1.982163 z"
           fill="url(#c)"
           stroke-width="0.742977"
           id="path43"
           style="fill:url(#c)" />
        <path
           d="M 1.852,4.3131 C 1.66878,4.3131 1.49466,4.350202 1.33628,4.41697 1.1779,4.483736 1.0352,4.58008 0.91564,4.69963 0.79608,4.81919 0.69922,4.96189 0.63246,5.12027 0.56569,5.27865 0.52911,5.45277 0.52911,5.63599 v 0.26458 c 0,-0.18322 0.03658,-0.35734 0.10335,-0.51572 C 0.69922,5.22647 0.79608,5.08377 0.91564,4.96421 1.0352,4.84465 1.1779,4.74831 1.33628,4.68155 1.49466,4.614785 1.66878,4.57768 1.852,4.57768 h 13.229 c 0.18322,0 0.35734,0.037103 0.51572,0.10387 0.15838,0.066765 0.30108,0.16311 0.42064,0.28266 0.11956,0.11956 0.21642,0.26226 0.28318,0.42064 0.06676,0.15838 0.10335,0.3325 0.10335,0.51572 V 5.63599 c 0,-0.18322 -0.03659,-0.35734 -0.10335,-0.51572 C 16.23377,4.96189 16.13692,4.81919 16.01736,4.69963 15.8978,4.58007 15.7551,4.48373 15.59672,4.41697 15.43834,4.350205 15.26422,4.3131 15.081,4.3131 Z"
           filter="url(#d)"
           opacity="0.1"
           stroke-width="0.047568"
           id="path45"
           transform="matrix(13.948144,0,0,13.992854,35.908046,26.530145)" />
        <path
           d="m 61.7414,89.468601 c -2.555575,0 -4.984228,0.519165 -7.193335,1.453443 -2.209107,0.934259 -4.199647,2.282372 -5.867005,3.955498 -1.667642,1.672984 -3.018658,3.669765 -3.949839,5.885818 -0.931192,2.21589 -1.441542,4.65261 -1.441542,7.21639 v 111.0669 c 0,10.25521 8.229547,18.51112 18.452001,18.51112 h 184.51998 c 10.22248,0 18.452,-8.25591 18.452,-18.51112 v -111.0669 c 0,-2.56378 -0.51035,-5.00022 -1.44153,-7.21639 -0.93132,-2.216193 -2.2822,-4.213114 -3.94984,-5.885818 -1.66763,-1.672986 -3.65806,-3.021058 -5.86699,-3.955498 -2.20912,-0.934222 -4.63778,-1.453443 -7.19335,-1.453443 H 61.741959 Z"
           fill="url(#b)"
           stroke-width="0.66456"
           id="path47"
           style="fill:url(#b)" />
        <path
           d="m 43.288843,219.04385 c 0.521479,10.09122 7.380801,18.51111 18.394811,18.51111 H 246.25943 c 11.06479,0 18.44502,-9.0125 18.44502,-18.51111 z"
           color="#000000"
           fill="url(#a)"
           stroke-width="3.81087"
           style="text-indent:0;text-transform:none;fill:url(#a)"
           id="path49" />
        <path
           d="m 43.30014,219.04385 0.0046,3.7022 h 221.41288 l -0.005,-3.7022 H 43.286189 Z m 3.678964,11.10653 H 261.02732 c 0.7458,-1.02554 1.58687,-2.17295 2.11536,-3.7022 H 44.8124 c 0.648742,1.57977 1.292017,2.47755 2.166425,3.7022 z"
           color="#000000"
           fill="#12a327"
           opacity="0.25"
           stroke-width="1.33535"
           style="text-indent:0;text-transform:none"
           id="path51" />
        <path
           d="m 61.740006,89.467202 c -2.555579,0 -4.98423,0.519164 -7.193337,1.453443 -2.209106,0.934245 -4.199506,2.28237 -5.867144,3.955219 -1.667641,1.672984 -3.018657,3.669765 -3.949838,5.885956 -0.931318,2.21617 -1.441541,4.65261 -1.441541,7.21639 v 3.70222 c 0,-2.56376 0.510238,-5.00034 1.441541,-7.21638 0.931251,-2.21622 2.282197,-4.21297 3.949838,-5.88596 1.667638,-1.672985 3.658038,-3.021057 5.867144,-3.955219 2.209107,-0.934246 4.637758,-1.453436 7.193337,-1.453436 H 246.26 c 2.55556,0 4.98423,0.519177 7.19334,1.453436 2.20908,0.934232 4.1995,2.282373 5.86714,3.955219 1.66763,1.67299 3.01865,3.66974 3.94984,5.88596 0.93117,2.21618 1.44152,4.65262 1.44152,7.21638 v -3.70222 c 0,-2.56378 -0.51035,-5.00022 -1.44152,-7.21639 -0.93132,-2.216191 -2.28235,-4.212972 -3.94984,-5.885956 -1.66764,-1.672988 -3.65806,-3.021058 -5.86714,-3.955219 -2.20911,-0.934237 -4.63778,-1.453443 -7.19334,-1.453443 z"
           fill="#6ae67c"
           stroke-width="0.664546"
           id="path53" />
      </g>
      <g
         id="g1394"
         style="display:inline;enable-background:new"
         transform="matrix(0.20175442,0,0,0.20175442,312.92982,54.74562)">
        <g
           transform="matrix(13.948144,0,0,13.992854,24.836986,-521.40207)"
           filter="url(#e)"
           opacity="0.5"
           id="g1380">
          <g
             stroke-opacity="0.95294"
             id="g1374">
            <path
               transform="scale(0.26458)"
               d="m 10,155 c -2.77,0 -5,2.23 -5,5 v 40 c 0,2.77 2.23,5 5,5 h 50 c 2.77,0 5,-2.23 5,-5 v -36 c 0,-0.831 -0.3347,-1.5808 -0.87695,-2.123 -0.54225,-0.5422 -1.292,-0.87695 -2.123,-0.87695 h -31 c -0.75,0 -1.5,-0.25001 -2.2188,-0.64062 -0.71875,-0.39063 -1.4062,-0.92188 -2.0312,-1.4844 -1.25,-1.125 -2.25,-2.375 -2.75,-2.875 -0.43528,-0.43528 -1.1061,-0.68419 -1.7754,-0.82617 -0.64042,-0.13585 -1.26,-0.16683 -1.6875,-0.17383 h -0.53711 z"
               opacity="1"
               stroke-width="0.20101"
               id="path1368" />
            <path
               transform="scale(0.26458)"
               d="M 7.4004,165 C 6.0708,165 5,166.0708 5,167.4004 v 32.6 c 0,2.77 2.23,5 5,5 h 50 c 2.77,0 5,-2.23 5,-5 v -32.6 C 65,166.0708 63.9292,165 62.5996,165 Z"
               opacity="1"
               stroke-width="0.17979"
               id="path1370" />
            <path
               transform="scale(0.26458)"
               d="M 7.4004,165 C 6.0708,165 5,166.0708 5,167.4004 v 1 C 5,167.0708 6.0708,166 7.4004,166 h 55.199 c 1.3296,0 2.4004,1.0708 2.4004,2.4004 v -1 C 64.9998,166.0708 63.929,165 62.5994,165 Z"
               opacity="1"
               stroke-width="0.17979"
               id="path1372" />
          </g>
          <path
             d="m 1.3229,52.916 c 0.037387,0.72117 0.52916,1.3229 1.3188,1.3229 h 13.233 c 0.79328,0 1.3224,-0.64408 1.3224,-1.3229 z"
             color="#000000"
             opacity="0.5"
             stroke-width="0.27278"
             style="text-indent:0;text-transform:none"
             id="path1376" />
          <path
             d="m 1.3237,52.916 3.337e-4,0.26458 H 17.198034 L 17.1977,52.916 H 1.3226997 Z m 0.26376,0.79373 h 15.346 c 0.05347,-0.07329 0.11377,-0.15529 0.15166,-0.26458 h -15.653 c 0.046511,0.1129 0.09263,0.17706 0.15532,0.26458 z"
             color="#000000"
             opacity="0.15"
             stroke-width="0.095585"
             style="text-indent:0;text-transform:none"
             id="path1378" />
        </g>
        <path
           d="m 61.740006,52.444908 c -10.222314,0 -18.452,8.255926 -18.452,18.511148 V 219.04245 c 0,10.25506 8.229546,18.51111 18.452,18.51111 H 246.26 c 10.22232,0 18.45199,-8.25591 18.45199,-18.51111 V 85.763295 c 0,-3.076467 -1.2351,-5.852509 -3.23625,-7.859925 -2.00114,-2.007555 -4.76818,-3.246623 -7.8348,-3.246623 H 139.23966 c -2.76774,0 -5.5356,-0.925584 -8.188,-2.371649 -2.65251,-1.44616 -5.18953,-3.412995 -7.496,-5.495414 -4.61295,-4.164971 -8.30335,-8.792686 -10.14853,-10.643803 -1.60641,-1.611557 -4.08178,-2.532987 -6.55184,-3.058698 -2.3634,-0.502946 -4.64977,-0.617648 -6.22759,-0.643562 h -1.982163 z"
           fill="url(#c)"
           stroke-width="0.742977"
           id="path1382"
           style="fill:url(#linearGradient1396)" />
        <path
           d="M 1.852,4.3131 C 1.66878,4.3131 1.49466,4.350202 1.33628,4.41697 1.1779,4.483736 1.0352,4.58008 0.91564,4.69963 0.79608,4.81919 0.69922,4.96189 0.63246,5.12027 0.56569,5.27865 0.52911,5.45277 0.52911,5.63599 v 0.26458 c 0,-0.18322 0.03658,-0.35734 0.10335,-0.51572 C 0.69922,5.22647 0.79608,5.08377 0.91564,4.96421 1.0352,4.84465 1.1779,4.74831 1.33628,4.68155 1.49466,4.614785 1.66878,4.57768 1.852,4.57768 h 13.229 c 0.18322,0 0.35734,0.037103 0.51572,0.10387 0.15838,0.066765 0.30108,0.16311 0.42064,0.28266 0.11956,0.11956 0.21642,0.26226 0.28318,0.42064 0.06676,0.15838 0.10335,0.3325 0.10335,0.51572 V 5.63599 c 0,-0.18322 -0.03659,-0.35734 -0.10335,-0.51572 C 16.23377,4.96189 16.13692,4.81919 16.01736,4.69963 15.8978,4.58007 15.7551,4.48373 15.59672,4.41697 15.43834,4.350205 15.26422,4.3131 15.081,4.3131 Z"
           filter="url(#d)"
           opacity="0.1"
           stroke-width="0.047568"
           id="path1384"
           transform="matrix(13.948144,0,0,13.992854,35.908046,26.530145)" />
        <path
           d="m 61.7414,89.468601 c -2.555575,0 -4.984228,0.519165 -7.193335,1.453443 -2.209107,0.934259 -4.199647,2.282372 -5.867005,3.955498 -1.667642,1.672984 -3.018658,3.669765 -3.949839,5.885818 -0.931192,2.21589 -1.441542,4.65261 -1.441542,7.21639 v 111.0669 c 0,10.25521 8.229547,18.51112 18.452001,18.51112 h 184.51998 c 10.22248,0 18.452,-8.25591 18.452,-18.51112 v -111.0669 c 0,-2.56378 -0.51035,-5.00022 -1.44153,-7.21639 -0.93132,-2.216193 -2.2822,-4.213114 -3.94984,-5.885818 -1.66763,-1.672986 -3.65806,-3.021058 -5.86699,-3.955498 -2.20912,-0.934222 -4.63778,-1.453443 -7.19335,-1.453443 H 61.741959 Z"
           fill="url(#b)"
           stroke-width="0.66456"
           id="path1386"
           style="fill:url(#linearGradient1398)" />
        <path
           d="m 43.288843,219.04385 c 0.521479,10.09122 7.380801,18.51111 18.394811,18.51111 H 246.25943 c 11.06479,0 18.44502,-9.0125 18.44502,-18.51111 z"
           color="#000000"
           fill="url(#a)"
           stroke-width="3.81087"
           style="text-indent:0;text-transform:none;fill:url(#linearGradient1400)"
           id="path1388" />
        <path
           d="m 43.30014,219.04385 0.0046,3.7022 h 221.41288 l -0.005,-3.7022 H 43.286189 Z m 3.678964,11.10653 H 261.02732 c 0.7458,-1.02554 1.58687,-2.17295 2.11536,-3.7022 H 44.8124 c 0.648742,1.57977 1.292017,2.47755 2.166425,3.7022 z"
           color="#000000"
           fill="#12a327"
           opacity="0.25"
           stroke-width="1.33535"
           style="text-indent:0;text-transform:none"
           id="path1390" />
        <path
           d="m 61.740006,89.467202 c -2.555579,0 -4.98423,0.519164 -7.193337,1.453443 -2.209106,0.934245 -4.199506,2.28237 -5.867144,3.955219 -1.667641,1.672984 -3.018657,3.669765 -3.949838,5.885956 -0.931318,2.21617 -1.441541,4.65261 -1.441541,7.21639 v 3.70222 c 0,-2.56376 0.510238,-5.00034 1.441541,-7.21638 0.931251,-2.21622 2.282197,-4.21297 3.949838,-5.88596 1.667638,-1.672985 3.658038,-3.021057 5.867144,-3.955219 2.209107,-0.934246 4.637758,-1.453436 7.193337,-1.453436 H 246.26 c 2.55556,0 4.98423,0.519177 7.19334,1.453436 2.20908,0.934232 4.1995,2.282373 5.86714,3.955219 1.66763,1.67299 3.01865,3.66974 3.94984,5.88596 0.93117,2.21618 1.44152,4.65262 1.44152,7.21638 v -3.70222 c 0,-2.56378 -0.51035,-5.00022 -1.44152,-7.21639 -0.93132,-2.216191 -2.28235,-4.212972 -3.94984,-5.885956 -1.66764,-1.672988 -3.65806,-3.021058 -5.86714,-3.955219 -2.20911,-0.934237 -4.63778,-1.453443 -7.19334,-1.453443 z"
           fill="#6ae67c"
           stroke-width="0.664546"
           id="path1392" />
      </g>
      <g
         id="g1508"
         style="display:inline;enable-background:new"
         transform="matrix(0.1403509,0,0,0.1403509,314.38596,127.64913)">
        <g
           transform="matrix(13.948144,0,0,13.992854,24.836986,-521.40207)"
           filter="url(#e)"
           opacity="0.5"
           id="g1494">
          <g
             stroke-opacity="0.95294"
             id="g1488">
            <path
               transform="scale(0.26458)"
               d="m 10,155 c -2.77,0 -5,2.23 -5,5 v 40 c 0,2.77 2.23,5 5,5 h 50 c 2.77,0 5,-2.23 5,-5 v -36 c 0,-0.831 -0.3347,-1.5808 -0.87695,-2.123 -0.54225,-0.5422 -1.292,-0.87695 -2.123,-0.87695 h -31 c -0.75,0 -1.5,-0.25001 -2.2188,-0.64062 -0.71875,-0.39063 -1.4062,-0.92188 -2.0312,-1.4844 -1.25,-1.125 -2.25,-2.375 -2.75,-2.875 -0.43528,-0.43528 -1.1061,-0.68419 -1.7754,-0.82617 -0.64042,-0.13585 -1.26,-0.16683 -1.6875,-0.17383 h -0.53711 z"
               opacity="1"
               stroke-width="0.20101"
               id="path1482" />
            <path
               transform="scale(0.26458)"
               d="M 7.4004,165 C 6.0708,165 5,166.0708 5,167.4004 v 32.6 c 0,2.77 2.23,5 5,5 h 50 c 2.77,0 5,-2.23 5,-5 v -32.6 C 65,166.0708 63.9292,165 62.5996,165 Z"
               opacity="1"
               stroke-width="0.17979"
               id="path1484" />
            <path
               transform="scale(0.26458)"
               d="M 7.4004,165 C 6.0708,165 5,166.0708 5,167.4004 v 1 C 5,167.0708 6.0708,166 7.4004,166 h 55.199 c 1.3296,0 2.4004,1.0708 2.4004,2.4004 v -1 C 64.9998,166.0708 63.929,165 62.5994,165 Z"
               opacity="1"
               stroke-width="0.17979"
               id="path1486" />
          </g>
          <path
             d="m 1.3229,52.916 c 0.037387,0.72117 0.52916,1.3229 1.3188,1.3229 h 13.233 c 0.79328,0 1.3224,-0.64408 1.3224,-1.3229 z"
             color="#000000"
             opacity="0.5"
             stroke-width="0.27278"
             style="text-indent:0;text-transform:none"
             id="path1490" />
          <path
             d="m 1.3237,52.916 3.337e-4,0.26458 H 17.198034 L 17.1977,52.916 H 1.3226997 Z m 0.26376,0.79373 h 15.346 c 0.05347,-0.07329 0.11377,-0.15529 0.15166,-0.26458 h -15.653 c 0.046511,0.1129 0.09263,0.17706 0.15532,0.26458 z"
             color="#000000"
             opacity="0.15"
             stroke-width="0.095585"
             style="text-indent:0;text-transform:none"
             id="path1492" />
        </g>
        <path
           d="m 61.740006,52.444908 c -10.222314,0 -18.452,8.255926 -18.452,18.511148 V 219.04245 c 0,10.25506 8.229546,18.51111 18.452,18.51111 H 246.26 c 10.22232,0 18.45199,-8.25591 18.45199,-18.51111 V 85.763295 c 0,-3.076467 -1.2351,-5.852509 -3.23625,-7.859925 -2.00114,-2.007555 -4.76818,-3.246623 -7.8348,-3.246623 H 139.23966 c -2.76774,0 -5.5356,-0.925584 -8.188,-2.371649 -2.65251,-1.44616 -5.18953,-3.412995 -7.496,-5.495414 -4.61295,-4.164971 -8.30335,-8.792686 -10.14853,-10.643803 -1.60641,-1.611557 -4.08178,-2.532987 -6.55184,-3.058698 -2.3634,-0.502946 -4.64977,-0.617648 -6.22759,-0.643562 h -1.982163 z"
           fill="url(#c)"
           stroke-width="0.742977"
           id="path1496"
           style="fill:url(#linearGradient1510)" />
        <path
           d="M 1.852,4.3131 C 1.66878,4.3131 1.49466,4.350202 1.33628,4.41697 1.1779,4.483736 1.0352,4.58008 0.91564,4.69963 0.79608,4.81919 0.69922,4.96189 0.63246,5.12027 0.56569,5.27865 0.52911,5.45277 0.52911,5.63599 v 0.26458 c 0,-0.18322 0.03658,-0.35734 0.10335,-0.51572 C 0.69922,5.22647 0.79608,5.08377 0.91564,4.96421 1.0352,4.84465 1.1779,4.74831 1.33628,4.68155 1.49466,4.614785 1.66878,4.57768 1.852,4.57768 h 13.229 c 0.18322,0 0.35734,0.037103 0.51572,0.10387 0.15838,0.066765 0.30108,0.16311 0.42064,0.28266 0.11956,0.11956 0.21642,0.26226 0.28318,0.42064 0.06676,0.15838 0.10335,0.3325 0.10335,0.51572 V 5.63599 c 0,-0.18322 -0.03659,-0.35734 -0.10335,-0.51572 C 16.23377,4.96189 16.13692,4.81919 16.01736,4.69963 15.8978,4.58007 15.7551,4.48373 15.59672,4.41697 15.43834,4.350205 15.26422,4.3131 15.081,4.3131 Z"
           filter="url(#d)"
           opacity="0.1"
           stroke-width="0.047568"
           id="path1498"
           transform="matrix(13.948144,0,0,13.992854,35.908046,26.530145)" />
        <path
           d="m 61.7414,89.468601 c -2.555575,0 -4.984228,0.519165 -7.193335,1.453443 -2.209107,0.934259 -4.199647,2.282372 -5.867005,3.955498 -1.667642,1.672984 -3.018658,3.669765 -3.949839,5.885818 -0.931192,2.21589 -1.441542,4.65261 -1.441542,7.21639 v 111.0669 c 0,10.25521 8.229547,18.51112 18.452001,18.51112 h 184.51998 c 10.22248,0 18.452,-8.25591 18.452,-18.51112 v -111.0669 c 0,-2.56378 -0.51035,-5.00022 -1.44153,-7.21639 -0.93132,-2.216193 -2.2822,-4.213114 -3.94984,-5.885818 -1.66763,-1.672986 -3.65806,-3.021058 -5.86699,-3.955498 -2.20912,-0.934222 -4.63778,-1.453443 -7.19335,-1.453443 H 61.741959 Z"
           fill="url(#b)"
           stroke-width="0.66456"
           id="path1500"
           style="fill:url(#linearGradient1512)" />
        <path
           d="m 43.288843,219.04385 c 0.521479,10.09122 7.380801,18.51111 18.394811,18.51111 H 246.25943 c 11.06479,0 18.44502,-9.0125 18.44502,-18.51111 z"
           color="#000000"
           fill="url(#a)"
           stroke-width="3.81087"
           style="text-indent:0;text-transform:none;fill:url(#linearGradient1514)"
           id="path1502" />
        <path
           d="m 43.30014,219.04385 0.0046,3.7022 h 221.41288 l -0.005,-3.7022 H 43.286189 Z m 3.678964,11.10653 H 261.02732 c 0.7458,-1.02554 1.58687,-2.17295 2.11536,-3.7022 H 44.8124 c 0.648742,1.57977 1.292017,2.47755 2.166425,3.7022 z"
           color="#000000"
           fill="#12a327"
           opacity="0.25"
           stroke-width="1.33535"
           style="text-indent:0;text-transform:none"
           id="path1504" />
        <path
           d="m 61.740006,89.467202 c -2.555579,0 -4.98423,0.519164 -7.193337,1.453443 -2.209106,0.934245 -4.199506,2.28237 -5.867144,3.955219 -1.667641,1.672984 -3.018657,3.669765 -3.949838,5.885956 -0.931318,2.21617 -1.441541,4.65261 -1.441541,7.21639 v 3.70222 c 0,-2.56376 0.510238,-5.00034 1.441541,-7.21638 0.931251,-2.21622 2.282197,-4.21297 3.949838,-5.88596 1.667638,-1.672985 3.658038,-3.021057 5.867144,-3.955219 2.209107,-0.934246 4.637758,-1.453436 7.193337,-1.453436 H 246.26 c 2.55556,0 4.98423,0.519177 7.19334,1.453436 2.20908,0.934232 4.1995,2.282373 5.86714,3.955219 1.66763,1.67299 3.01865,3.66974 3.94984,5.88596 0.93117,2.21618 1.44152,4.65262 1.44152,7.21638 v -3.70222 c 0,-2.56378 -0.51035,-5.00022 -1.44152,-7.21639 -0.93132,-2.216191 -2.28235,-4.212972 -3.94984,-5.885956 -1.66764,-1.672988 -3.65806,-3.021058 -5.86714,-3.955219 -2.20911,-0.934237 -4.63778,-1.453443 -7.19334,-1.453443 z"
           fill="#6ae67c"
           stroke-width="0.664546"
           id="path1506" />
      </g>
      <g
         id="g1622"
         style="display:inline;enable-background:new"
         transform="matrix(0.08771931,0,0,0.08771931,369.49123,188.2807)">
        <g
           transform="matrix(13.948144,0,0,13.992854,24.836986,-521.40207)"
           filter="url(#e)"
           opacity="0.5"
           id="g1608">
          <g
             stroke-opacity="0.95294"
             id="g1602">
            <path
               transform="scale(0.26458)"
               d="m 10,155 c -2.77,0 -5,2.23 -5,5 v 40 c 0,2.77 2.23,5 5,5 h 50 c 2.77,0 5,-2.23 5,-5 v -36 c 0,-0.831 -0.3347,-1.5808 -0.87695,-2.123 -0.54225,-0.5422 -1.292,-0.87695 -2.123,-0.87695 h -31 c -0.75,0 -1.5,-0.25001 -2.2188,-0.64062 -0.71875,-0.39063 -1.4062,-0.92188 -2.0312,-1.4844 -1.25,-1.125 -2.25,-2.375 -2.75,-2.875 -0.43528,-0.43528 -1.1061,-0.68419 -1.7754,-0.82617 -0.64042,-0.13585 -1.26,-0.16683 -1.6875,-0.17383 h -0.53711 z"
               opacity="1"
               stroke-width="0.20101"
               id="path1596" />
            <path
               transform="scale(0.26458)"
               d="M 7.4004,165 C 6.0708,165 5,166.0708 5,167.4004 v 32.6 c 0,2.77 2.23,5 5,5 h 50 c 2.77,0 5,-2.23 5,-5 v -32.6 C 65,166.0708 63.9292,165 62.5996,165 Z"
               opacity="1"
               stroke-width="0.17979"
               id="path1598" />
            <path
               transform="scale(0.26458)"
               d="M 7.4004,165 C 6.0708,165 5,166.0708 5,167.4004 v 1 C 5,167.0708 6.0708,166 7.4004,166 h 55.199 c 1.3296,0 2.4004,1.0708 2.4004,2.4004 v -1 C 64.9998,166.0708 63.929,165 62.5994,165 Z"
               opacity="1"
               stroke-width="0.17979"
               id="path1600" />
          </g>
          <path
             d="m 1.3229,52.916 c 0.037387,0.72117 0.52916,1.3229 1.3188,1.3229 h 13.233 c 0.79328,0 1.3224,-0.64408 1.3224,-1.3229 z"
             color="#000000"
             opacity="0.5"
             stroke-width="0.27278"
             style="text-indent:0;text-transform:none"
             id="path1604" />
          <path
             d="m 1.3237,52.916 3.337e-4,0.26458 H 17.198034 L 17.1977,52.916 H 1.3226997 Z m 0.26376,0.79373 h 15.346 c 0.05347,-0.07329 0.11377,-0.15529 0.15166,-0.26458 h -15.653 c 0.046511,0.1129 0.09263,0.17706 0.15532,0.26458 z"
             color="#000000"
             opacity="0.15"
             stroke-width="0.095585"
             style="text-indent:0;text-transform:none"
             id="path1606" />
        </g>
        <path
           d="m 61.740006,52.444908 c -10.222314,0 -18.452,8.255926 -18.452,18.511148 V 219.04245 c 0,10.25506 8.229546,18.51111 18.452,18.51111 H 246.26 c 10.22232,0 18.45199,-8.25591 18.45199,-18.51111 V 85.763295 c 0,-3.076467 -1.2351,-5.852509 -3.23625,-7.859925 -2.00114,-2.007555 -4.76818,-3.246623 -7.8348,-3.246623 H 139.23966 c -2.76774,0 -5.5356,-0.925584 -8.188,-2.371649 -2.65251,-1.44616 -5.18953,-3.412995 -7.496,-5.495414 -4.61295,-4.164971 -8.30335,-8.792686 -10.14853,-10.643803 -1.60641,-1.611557 -4.08178,-2.532987 -6.55184,-3.058698 -2.3634,-0.502946 -4.64977,-0.617648 -6.22759,-0.643562 h -1.982163 z"
           fill="url(#c)"
           stroke-width="0.742977"
           id="path1610"
           style="fill:url(#linearGradient1630)" />
        <path
           d="M 1.852,4.3131 C 1.66878,4.3131 1.49466,4.350202 1.33628,4.41697 1.1779,4.483736 1.0352,4.58008 0.91564,4.69963 0.79608,4.81919 0.69922,4.96189 0.63246,5.12027 0.56569,5.27865 0.52911,5.45277 0.52911,5.63599 v 0.26458 c 0,-0.18322 0.03658,-0.35734 0.10335,-0.51572 C 0.69922,5.22647 0.79608,5.08377 0.91564,4.96421 1.0352,4.84465 1.1779,4.74831 1.33628,4.68155 1.49466,4.614785 1.66878,4.57768 1.852,4.57768 h 13.229 c 0.18322,0 0.35734,0.037103 0.51572,0.10387 0.15838,0.066765 0.30108,0.16311 0.42064,0.28266 0.11956,0.11956 0.21642,0.26226 0.28318,0.42064 0.06676,0.15838 0.10335,0.3325 0.10335,0.51572 V 5.63599 c 0,-0.18322 -0.03659,-0.35734 -0.10335,-0.51572 C 16.23377,4.96189 16.13692,4.81919 16.01736,4.69963 15.8978,4.58007 15.7551,4.48373 15.59672,4.41697 15.43834,4.350205 15.26422,4.3131 15.081,4.3131 Z"
           filter="url(#d)"
           opacity="0.1"
           stroke-width="0.047568"
           id="path1612"
           transform="matrix(13.948144,0,0,13.992854,35.908046,26.530145)" />
        <path
           d="m 61.7414,89.468601 c -2.555575,0 -4.984228,0.519165 -7.193335,1.453443 -2.209107,0.934259 -4.199647,2.282372 -5.867005,3.955498 -1.667642,1.672984 -3.018658,3.669765 -3.949839,5.885818 -0.931192,2.21589 -1.441542,4.65261 -1.441542,7.21639 v 111.0669 c 0,10.25521 8.229547,18.51112 18.452001,18.51112 h 184.51998 c 10.22248,0 18.452,-8.25591 18.452,-18.51112 v -111.0669 c 0,-2.56378 -0.51035,-5.00022 -1.44153,-7.21639 -0.93132,-2.216193 -2.2822,-4.213114 -3.94984,-5.885818 -1.66763,-1.672986 -3.65806,-3.021058 -5.86699,-3.955498 -2.20912,-0.934222 -4.63778,-1.453443 -7.19335,-1.453443 H 61.741959 Z"
           fill="url(#b)"
           stroke-width="0.66456"
           id="path1614"
           style="fill:url(#linearGradient1632)" />
        <path
           d="m 43.288843,219.04385 c 0.521479,10.09122 7.380801,18.51111 18.394811,18.51111 H 246.25943 c 11.06479,0 18.44502,-9.0125 18.44502,-18.51111 z"
           color="#000000"
           fill="url(#a)"
           stroke-width="3.81087"
           style="text-indent:0;text-transform:none;fill:url(#linearGradient1634)"
           id="path1616" />
        <path
           d="m 43.30014,219.04385 0.0046,3.7022 h 221.41288 l -0.005,-3.7022 H 43.286189 Z m 3.678964,11.10653 H 261.02732 c 0.7458,-1.02554 1.58687,-2.17295 2.11536,-3.7022 H 44.8124 c 0.648742,1.57977 1.292017,2.47755 2.166425,3.7022 z"
           color="#000000"
           fill="#12a327"
           opacity="0.25"
           stroke-width="1.33535"
           style="text-indent:0;text-transform:none"
           id="path1618" />
        <path
           d="m 61.740006,89.467202 c -2.555579,0 -4.98423,0.519164 -7.193337,1.453443 -2.209106,0.934245 -4.199506,2.28237 -5.867144,3.955219 -1.667641,1.672984 -3.018657,3.669765 -3.949838,5.885956 -0.931318,2.21617 -1.441541,4.65261 -1.441541,7.21639 v 3.70222 c 0,-2.56376 0.510238,-5.00034 1.441541,-7.21638 0.931251,-2.21622 2.282197,-4.21297 3.949838,-5.88596 1.667638,-1.672985 3.658038,-3.021057 5.867144,-3.955219 2.209107,-0.934246 4.637758,-1.453436 7.193337,-1.453436 H 246.26 c 2.55556,0 4.98423,0.519177 7.19334,1.453436 2.20908,0.934232 4.1995,2.282373 5.86714,3.955219 1.66763,1.67299 3.01865,3.66974 3.94984,5.88596 0.93117,2.21618 1.44152,4.65262 1.44152,7.21638 v -3.70222 c 0,-2.56378 -0.51035,-5.00022 -1.44152,-7.21639 -0.93132,-2.216191 -2.28235,-4.212972 -3.94984,-5.885956 -1.66764,-1.672988 -3.65806,-3.021058 -5.86714,-3.955219 -2.20911,-0.934237 -4.63778,-1.453443 -7.19334,-1.453443 z"
           fill="#6ae67c"
           stroke-width="0.664546"
           id="path1620" />
      </g>
      <g
         id="g1822"
         style="display:inline;enable-background:new"
         transform="matrix(0.09649125,0,0,0.09649125,317.14035,186.00877)">
        <g
           transform="matrix(13.948144,0,0,13.992854,24.836986,-521.40207)"
           filter="url(#e)"
           opacity="0.5"
           id="g1808">
          <g
             stroke-opacity="0.95294"
             id="g1802">
            <path
               transform="scale(0.26458)"
               d="m 10,155 c -2.77,0 -5,2.23 -5,5 v 40 c 0,2.77 2.23,5 5,5 h 50 c 2.77,0 5,-2.23 5,-5 v -36 c 0,-0.831 -0.3347,-1.5808 -0.87695,-2.123 -0.54225,-0.5422 -1.292,-0.87695 -2.123,-0.87695 h -31 c -0.75,0 -1.5,-0.25001 -2.2188,-0.64062 -0.71875,-0.39063 -1.4062,-0.92188 -2.0312,-1.4844 -1.25,-1.125 -2.25,-2.375 -2.75,-2.875 -0.43528,-0.43528 -1.1061,-0.68419 -1.7754,-0.82617 -0.64042,-0.13585 -1.26,-0.16683 -1.6875,-0.17383 h -0.53711 z"
               opacity="1"
               stroke-width="0.20101"
               id="path1796" />
            <path
               transform="scale(0.26458)"
               d="M 7.4004,165 C 6.0708,165 5,166.0708 5,167.4004 v 32.6 c 0,2.77 2.23,5 5,5 h 50 c 2.77,0 5,-2.23 5,-5 v -32.6 C 65,166.0708 63.9292,165 62.5996,165 Z"
               opacity="1"
               stroke-width="0.17979"
               id="path1798" />
            <path
               transform="scale(0.26458)"
               d="M 7.4004,165 C 6.0708,165 5,166.0708 5,167.4004 v 1 C 5,167.0708 6.0708,166 7.4004,166 h 55.199 c 1.3296,0 2.4004,1.0708 2.4004,2.4004 v -1 C 64.9998,166.0708 63.929,165 62.5994,165 Z"
               opacity="1"
               stroke-width="0.17979"
               id="path1800" />
          </g>
          <path
             d="m 1.3229,52.916 c 0.037387,0.72117 0.52916,1.3229 1.3188,1.3229 h 13.233 c 0.79328,0 1.3224,-0.64408 1.3224,-1.3229 z"
             color="#000000"
             opacity="0.5"
             stroke-width="0.27278"
             style="text-indent:0;text-transform:none"
             id="path1804" />
          <path
             d="m 1.3237,52.916 3.337e-4,0.26458 H 17.198034 L 17.1977,52.916 H 1.3226997 Z m 0.26376,0.79373 h 15.346 c 0.05347,-0.07329 0.11377,-0.15529 0.15166,-0.26458 h -15.653 c 0.046511,0.1129 0.09263,0.17706 0.15532,0.26458 z"
             color="#000000"
             opacity="0.15"
             stroke-width="0.095585"
             style="text-indent:0;text-transform:none"
             id="path1806" />
        </g>
        <path
           d="m 61.740006,52.444908 c -10.222314,0 -18.452,8.255926 -18.452,18.511148 V 219.04245 c 0,10.25506 8.229546,18.51111 18.452,18.51111 H 246.26 c 10.22232,0 18.45199,-8.25591 18.45199,-18.51111 V 85.763295 c 0,-3.076467 -1.2351,-5.852509 -3.23625,-7.859925 -2.00114,-2.007555 -4.76818,-3.246623 -7.8348,-3.246623 H 139.23966 c -2.76774,0 -5.5356,-0.925584 -8.188,-2.371649 -2.65251,-1.44616 -5.18953,-3.412995 -7.496,-5.495414 -4.61295,-4.164971 -8.30335,-8.792686 -10.14853,-10.643803 -1.60641,-1.611557 -4.08178,-2.532987 -6.55184,-3.058698 -2.3634,-0.502946 -4.64977,-0.617648 -6.22759,-0.643562 h -1.982163 z"
           fill="url(#c)"
           stroke-width="0.742977"
           id="path1810"
           style="fill:url(#linearGradient1824)" />
        <path
           d="M 1.852,4.3131 C 1.66878,4.3131 1.49466,4.350202 1.33628,4.41697 1.1779,4.483736 1.0352,4.58008 0.91564,4.69963 0.79608,4.81919 0.69922,4.96189 0.63246,5.12027 0.56569,5.27865 0.52911,5.45277 0.52911,5.63599 v 0.26458 c 0,-0.18322 0.03658,-0.35734 0.10335,-0.51572 C 0.69922,5.22647 0.79608,5.08377 0.91564,4.96421 1.0352,4.84465 1.1779,4.74831 1.33628,4.68155 1.49466,4.614785 1.66878,4.57768 1.852,4.57768 h 13.229 c 0.18322,0 0.35734,0.037103 0.51572,0.10387 0.15838,0.066765 0.30108,0.16311 0.42064,0.28266 0.11956,0.11956 0.21642,0.26226 0.28318,0.42064 0.06676,0.15838 0.10335,0.3325 0.10335,0.51572 V 5.63599 c 0,-0.18322 -0.03659,-0.35734 -0.10335,-0.51572 C 16.23377,4.96189 16.13692,4.81919 16.01736,4.69963 15.8978,4.58007 15.7551,4.48373 15.59672,4.41697 15.43834,4.350205 15.26422,4.3131 15.081,4.3131 Z"
           filter="url(#d)"
           opacity="0.1"
           stroke-width="0.047568"
           id="path1812"
           transform="matrix(13.948144,0,0,13.992854,35.908046,26.530145)" />
        <path
           d="m 61.7414,89.468601 c -2.555575,0 -4.984228,0.519165 -7.193335,1.453443 -2.209107,0.934259 -4.199647,2.282372 -5.867005,3.955498 -1.667642,1.672984 -3.018658,3.669765 -3.949839,5.885818 -0.931192,2.21589 -1.441542,4.65261 -1.441542,7.21639 v 111.0669 c 0,10.25521 8.229547,18.51112 18.452001,18.51112 h 184.51998 c 10.22248,0 18.452,-8.25591 18.452,-18.51112 v -111.0669 c 0,-2.56378 -0.51035,-5.00022 -1.44153,-7.21639 -0.93132,-2.216193 -2.2822,-4.213114 -3.94984,-5.885818 -1.66763,-1.672986 -3.65806,-3.021058 -5.86699,-3.955498 -2.20912,-0.934222 -4.63778,-1.453443 -7.19335,-1.453443 H 61.741959 Z"
           fill="url(#b)"
           stroke-width="0.66456"
           id="path1814"
           style="fill:url(#linearGradient1826)" />
        <path
           d="m 43.288843,219.04385 c 0.521479,10.09122 7.380801,18.51111 18.394811,18.51111 H 246.25943 c 11.06479,0 18.44502,-9.0125 18.44502,-18.51111 z"
           color="#000000"
           fill="url(#a)"
           stroke-width="3.81087"
           style="text-indent:0;text-transform:none;fill:url(#linearGradient1828)"
           id="path1816" />
        <path
           d="m 43.30014,219.04385 0.0046,3.7022 h 221.41288 l -0.005,-3.7022 H 43.286189 Z m 3.678964,11.10653 H 261.02732 c 0.7458,-1.02554 1.58687,-2.17295 2.11536,-3.7022 H 44.8124 c 0.648742,1.57977 1.292017,2.47755 2.166425,3.7022 z"
           color="#000000"
           fill="#12a327"
           opacity="0.25"
           stroke-width="1.33535"
           style="text-indent:0;text-transform:none"
           id="path1818" />
        <path
           d="m 61.740006,89.467202 c -2.555579,0 -4.98423,0.519164 -7.193337,1.453443 -2.209106,0.934245 -4.199506,2.28237 -5.867144,3.955219 -1.667641,1.672984 -3.018657,3.669765 -3.949838,5.885956 -0.931318,2.21617 -1.441541,4.65261 -1.441541,7.21639 v 3.70222 c 0,-2.56376 0.510238,-5.00034 1.441541,-7.21638 0.931251,-2.21622 2.282197,-4.21297 3.949838,-5.88596 1.667638,-1.672985 3.658038,-3.021057 5.867144,-3.955219 2.209107,-0.934246 4.637758,-1.453436 7.193337,-1.453436 H 246.26 c 2.55556,0 4.98423,0.519177 7.19334,1.453436 2.20908,0.934232 4.1995,2.282373 5.86714,3.955219 1.66763,1.67299 3.01865,3.66974 3.94984,5.88596 0.93117,2.21618 1.44152,4.65262 1.44152,7.21638 v -3.70222 c 0,-2.56378 -0.51035,-5.00022 -1.44152,-7.21639 -0.93132,-2.216191 -2.28235,-4.212972 -3.94984,-5.885956 -1.66764,-1.672988 -3.65806,-3.021058 -5.86714,-3.955219 -2.20911,-0.934237 -4.63778,-1.453443 -7.19334,-1.453443 z"
           fill="#6ae67c"
           stroke-width="0.664546"
           id="path1820" />
      </g>
      <g
         id="g1936"
         style="display:inline;enable-background:new"
         transform="matrix(0.07017545,0,0,0.07017545,317.19298,233.82456)">
        <g
           transform="matrix(13.948144,0,0,13.992854,24.836986,-521.40207)"
           filter="url(#e)"
           opacity="0.5"
           id="g1922">
          <g
             stroke-opacity="0.95294"
             id="g1916">
            <path
               transform="scale(0.26458)"
               d="m 10,155 c -2.77,0 -5,2.23 -5,5 v 40 c 0,2.77 2.23,5 5,5 h 50 c 2.77,0 5,-2.23 5,-5 v -36 c 0,-0.831 -0.3347,-1.5808 -0.87695,-2.123 -0.54225,-0.5422 -1.292,-0.87695 -2.123,-0.87695 h -31 c -0.75,0 -1.5,-0.25001 -2.2188,-0.64062 -0.71875,-0.39063 -1.4062,-0.92188 -2.0312,-1.4844 -1.25,-1.125 -2.25,-2.375 -2.75,-2.875 -0.43528,-0.43528 -1.1061,-0.68419 -1.7754,-0.82617 -0.64042,-0.13585 -1.26,-0.16683 -1.6875,-0.17383 h -0.53711 z"
               opacity="1"
               stroke-width="0.20101"
               id="path1910" />
            <path
               transform="scale(0.26458)"
               d="M 7.4004,165 C 6.0708,165 5,166.0708 5,167.4004 v 32.6 c 0,2.77 2.23,5 5,5 h 50 c 2.77,0 5,-2.23 5,-5 v -32.6 C 65,166.0708 63.9292,165 62.5996,165 Z"
               opacity="1"
               stroke-width="0.17979"
               id="path1912" />
            <path
               transform="scale(0.26458)"
               d="M 7.4004,165 C 6.0708,165 5,166.0708 5,167.4004 v 1 C 5,167.0708 6.0708,166 7.4004,166 h 55.199 c 1.3296,0 2.4004,1.0708 2.4004,2.4004 v -1 C 64.9998,166.0708 63.929,165 62.5994,165 Z"
               opacity="1"
               stroke-width="0.17979"
               id="path1914" />
          </g>
          <path
             d="m 1.3229,52.916 c 0.037387,0.72117 0.52916,1.3229 1.3188,1.3229 h 13.233 c 0.79328,0 1.3224,-0.64408 1.3224,-1.3229 z"
             color="#000000"
             opacity="0.5"
             stroke-width="0.27278"
             style="text-indent:0;text-transform:none"
             id="path1918" />
          <path
             d="m 1.3237,52.916 3.337e-4,0.26458 H 17.198034 L 17.1977,52.916 H 1.3226997 Z m 0.26376,0.79373 h 15.346 c 0.05347,-0.07329 0.11377,-0.15529 0.15166,-0.26458 h -15.653 c 0.046511,0.1129 0.09263,0.17706 0.15532,0.26458 z"
             color="#000000"
             opacity="0.15"
             stroke-width="0.095585"
             style="text-indent:0;text-transform:none"
             id="path1920" />
        </g>
        <path
           d="m 61.740006,52.444908 c -10.222314,0 -18.452,8.255926 -18.452,18.511148 V 219.04245 c 0,10.25506 8.229546,18.51111 18.452,18.51111 H 246.26 c 10.22232,0 18.45199,-8.25591 18.45199,-18.51111 V 85.763295 c 0,-3.076467 -1.2351,-5.852509 -3.23625,-7.859925 -2.00114,-2.007555 -4.76818,-3.246623 -7.8348,-3.246623 H 139.23966 c -2.76774,0 -5.5356,-0.925584 -8.188,-2.371649 -2.65251,-1.44616 -5.18953,-3.412995 -7.496,-5.495414 -4.61295,-4.164971 -8.30335,-8.792686 -10.14853,-10.643803 -1.60641,-1.611557 -4.08178,-2.532987 -6.55184,-3.058698 -2.3634,-0.502946 -4.64977,-0.617648 -6.22759,-0.643562 h -1.982163 z"
           fill="url(#c)"
           stroke-width="0.742977"
           id="path1924"
           style="fill:url(#linearGradient1938)" />
        <path
           d="M 1.852,4.3131 C 1.66878,4.3131 1.49466,4.350202 1.33628,4.41697 1.1779,4.483736 1.0352,4.58008 0.91564,4.69963 0.79608,4.81919 0.69922,4.96189 0.63246,5.12027 0.56569,5.27865 0.52911,5.45277 0.52911,5.63599 v 0.26458 c 0,-0.18322 0.03658,-0.35734 0.10335,-0.51572 C 0.69922,5.22647 0.79608,5.08377 0.91564,4.96421 1.0352,4.84465 1.1779,4.74831 1.33628,4.68155 1.49466,4.614785 1.66878,4.57768 1.852,4.57768 h 13.229 c 0.18322,0 0.35734,0.037103 0.51572,0.10387 0.15838,0.066765 0.30108,0.16311 0.42064,0.28266 0.11956,0.11956 0.21642,0.26226 0.28318,0.42064 0.06676,0.15838 0.10335,0.3325 0.10335,0.51572 V 5.63599 c 0,-0.18322 -0.03659,-0.35734 -0.10335,-0.51572 C 16.23377,4.96189 16.13692,4.81919 16.01736,4.69963 15.8978,4.58007 15.7551,4.48373 15.59672,4.41697 15.43834,4.350205 15.26422,4.3131 15.081,4.3131 Z"
           filter="url(#d)"
           opacity="0.1"
           stroke-width="0.047568"
           id="path1926"
           transform="matrix(13.948144,0,0,13.992854,35.908046,26.530145)" />
        <path
           d="m 61.7414,89.468601 c -2.555575,0 -4.984228,0.519165 -7.193335,1.453443 -2.209107,0.934259 -4.199647,2.282372 -5.867005,3.955498 -1.667642,1.672984 -3.018658,3.669765 -3.949839,5.885818 -0.931192,2.21589 -1.441542,4.65261 -1.441542,7.21639 v 111.0669 c 0,10.25521 8.229547,18.51112 18.452001,18.51112 h 184.51998 c 10.22248,0 18.452,-8.25591 18.452,-18.51112 v -111.0669 c 0,-2.56378 -0.51035,-5.00022 -1.44153,-7.21639 -0.93132,-2.216193 -2.2822,-4.213114 -3.94984,-5.885818 -1.66763,-1.672986 -3.65806,-3.021058 -5.86699,-3.955498 -2.20912,-0.934222 -4.63778,-1.453443 -7.19335,-1.453443 H 61.741959 Z"
           fill="url(#b)"
           stroke-width="0.66456"
           id="path1928"
           style="fill:url(#linearGradient1940)" />
        <path
           d="m 43.288843,219.04385 c 0.521479,10.09122 7.380801,18.51111 18.394811,18.51111 H 246.25943 c 11.06479,0 18.44502,-9.0125 18.44502,-18.51111 z"
           color="#000000"
           fill="url(#a)"
           stroke-width="3.81087"
           style="text-indent:0;text-transform:none;fill:url(#linearGradient1942)"
           id="path1930" />
        <path
           d="m 43.30014,219.04385 0.0046,3.7022 h 221.41288 l -0.005,-3.7022 H 43.286189 Z m 3.678964,11.10653 H 261.02732 c 0.7458,-1.02554 1.58687,-2.17295 2.11536,-3.7022 H 44.8124 c 0.648742,1.57977 1.292017,2.47755 2.166425,3.7022 z"
           color="#000000"
           fill="#12a327"
           opacity="0.25"
           stroke-width="1.33535"
           style="text-indent:0;text-transform:none"
           id="path1932" />
        <path
           d="m 61.740006,89.467202 c -2.555579,0 -4.98423,0.519164 -7.193337,1.453443 -2.209106,0.934245 -4.199506,2.28237 -5.867144,3.955219 -1.667641,1.672984 -3.018657,3.669765 -3.949838,5.885956 -0.931318,2.21617 -1.441541,4.65261 -1.441541,7.21639 v 3.70222 c 0,-2.56376 0.510238,-5.00034 1.441541,-7.21638 0.931251,-2.21622 2.282197,-4.21297 3.949838,-5.88596 1.667638,-1.672985 3.658038,-3.021057 5.867144,-3.955219 2.209107,-0.934246 4.637758,-1.453436 7.193337,-1.453436 H 246.26 c 2.55556,0 4.98423,0.519177 7.19334,1.453436 2.20908,0.934232 4.1995,2.282373 5.86714,3.955219 1.66763,1.67299 3.01865,3.66974 3.94984,5.88596 0.93117,2.21618 1.44152,4.65262 1.44152,7.21638 v -3.70222 c 0,-2.56378 -0.51035,-5.00022 -1.44152,-7.21639 -0.93132,-2.216191 -2.28235,-4.212972 -3.94984,-5.885956 -1.66764,-1.672988 -3.65806,-3.021058 -5.86714,-3.955219 -2.20911,-0.934237 -4.63778,-1.453443 -7.19334,-1.453443 z"
           fill="#6ae67c"
           stroke-width="0.664546"
           id="path1934" />
      </g>
    </g>
    <g
       inkscape:groupmode="layer"
       id="layer3"
       inkscape:label="Emblems"
       style="display:inline"
       sodipodi:insensitive="true">
      <circle
         style="display:inline;vector-effect:none;fill:#0f8420;fill-opacity:1;stroke:none;stroke-width:4.5;stroke-linecap:butt;stroke-linejoin:round;stroke-miterlimit:4;stroke-dasharray:none;stroke-dashoffset:0;stroke-opacity:1;enable-background:new"
         id="path2644-5-3"
         cy="207.49998"
         cx="389.5"
         r="4.5" />
      <path
         inkscape:connector-curvature="0"
         id="path1063-0-6"
         overflow="visible"
         font-weight="400"
         style="color:#000000;font-weight:400;line-height:normal;font-family:sans-serif;text-indent:0;text-align:start;text-decoration:none;text-decoration-line:none;text-decoration-style:solid;text-decoration-color:#000000;text-transform:none;white-space:normal;display:inline;overflow:visible;isolation:auto;mix-blend-mode:normal;fill:#ffffff;fill-opacity:1;marker:none;enable-background:new"
         d="m 389,204.99999 v 2 h -2 v 1 h 2 v 2 h 1 v -2 h 2 v -1 h -2 v -2 z" />
      <circle
         style="display:inline;vector-effect:none;fill:#0f8420;fill-opacity:1;stroke:none;stroke-width:3.5;stroke-linecap:butt;stroke-linejoin:round;stroke-miterlimit:4;stroke-dasharray:none;stroke-dashoffset:0;stroke-opacity:1;enable-background:new"
         id="path2644"
         cy="248.49998"
         cx="332.5"
         r="3.5" />
      <path
         inkscape:connector-curvature="0"
         id="path1063"
         overflow="visible"
         font-weight="400"
         style="color:#000000;font-weight:400;line-height:normal;font-family:sans-serif;text-indent:0;text-align:start;text-decoration:none;text-decoration-line:none;text-decoration-style:solid;text-decoration-color:#000000;text-transform:none;white-space:normal;display:inline;overflow:visible;isolation:auto;mix-blend-mode:normal;fill:#ffffff;fill-opacity:1;marker:none;enable-background:new"
         d="m 332,245.99999 v 2 h -2 v 1 h 2 v 2 h 1 v -2 h 2 v -1 h -2 v -2 z" />
      <circle
         style="display:inline;opacity:0.2;vector-effect:none;fill:#000000;fill-opacity:1;stroke:none;stroke-width:34;stroke-linecap:butt;stroke-linejoin:round;stroke-miterlimit:4;stroke-dasharray:none;stroke-dashoffset:0;stroke-opacity:1;filter:url(#filter11348);enable-background:new"
         id="path2644-5-5-7-5-9"
         cy="244.00002"
         cx="238"
         r="34" />
      <circle
         style="display:inline;vector-effect:none;fill:#0f8420;fill-opacity:1;stroke:none;stroke-width:4.5;stroke-linecap:butt;stroke-linejoin:round;stroke-miterlimit:4;stroke-dasharray:none;stroke-dashoffset:0;stroke-opacity:1;enable-background:new"
         id="path2644-5-3-6"
         cy="207.50002"
         cx="389.5"
         r="4.5" />
      <path
         inkscape:connector-curvature="0"
         id="path1063-0-6-2"
         overflow="visible"
         font-weight="400"
         style="color:#000000;font-weight:400;line-height:normal;font-family:sans-serif;text-indent:0;text-align:start;text-decoration:none;text-decoration-line:none;text-decoration-style:solid;text-decoration-color:#000000;text-transform:none;white-space:normal;display:inline;overflow:visible;isolation:auto;mix-blend-mode:normal;fill:#ffffff;fill-opacity:1;marker:none;enable-background:new"
         d="m 389.00001,204.99999 v 2 h -2 v 1 h 2 v 2 h 1 v -2 h 2 v -1 h -2 v -2 z" />
      <circle
         style="display:inline;vector-effect:none;fill:#0f8420;fill-opacity:1;stroke:none;stroke-width:4.5;stroke-linecap:butt;stroke-linejoin:round;stroke-miterlimit:4;stroke-dasharray:none;stroke-dashoffset:0;stroke-opacity:1;enable-background:new"
         id="path2644-5"
         cy="207.50002"
         cx="339.5"
         r="4.5" />
      <path
         inkscape:connector-curvature="0"
         id="path1063-0"
         overflow="visible"
         font-weight="400"
         style="color:#000000;font-weight:400;line-height:normal;font-family:sans-serif;text-indent:0;text-align:start;text-decoration:none;text-decoration-line:none;text-decoration-style:solid;text-decoration-color:#000000;text-transform:none;white-space:normal;display:inline;overflow:visible;isolation:auto;mix-blend-mode:normal;fill:#ffffff;fill-opacity:1;marker:none;enable-background:new"
         d="m 339.00001,204.99999 v 2 h -2 v 1 h 2 v 2 h 1 v -2 h 2 v -1 h -2 v -2 z" />
      <circle
         style="display:inline;vector-effect:none;fill:#0f8420;fill-opacity:1;stroke:none;stroke-width:3.5;stroke-linecap:butt;stroke-linejoin:round;stroke-miterlimit:4;stroke-dasharray:none;stroke-dashoffset:0;stroke-opacity:1;enable-background:new"
         id="path2644-9"
         cy="248.50002"
         cx="332.50003"
         r="3.5" />
      <path
         inkscape:connector-curvature="0"
         id="path1063-1"
         overflow="visible"
         font-weight="400"
         style="color:#000000;font-weight:400;line-height:normal;font-family:sans-serif;text-indent:0;text-align:start;text-decoration:none;text-decoration-line:none;text-decoration-style:solid;text-decoration-color:#000000;text-transform:none;white-space:normal;display:inline;overflow:visible;isolation:auto;mix-blend-mode:normal;fill:#ffffff;fill-opacity:1;marker:none;enable-background:new"
         d="m 332.00001,245.99999 v 2 h -2 v 1 h 2 v 2 h 1 v -2 h 2 v -1 h -2 v -2 z" />
      <circle
         style="display:inline;vector-effect:none;fill:#0f8420;fill-opacity:1;stroke:none;stroke-width:4.5;stroke-linecap:butt;stroke-linejoin:round;stroke-miterlimit:4;stroke-dasharray:none;stroke-dashoffset:0;stroke-opacity:1;enable-background:new"
         id="path2644-5-5"
         cy="159.49998"
         cx="347.5"
         r="4.5" />
      <path
         inkscape:connector-curvature="0"
         id="path1063-0-4"
         overflow="visible"
         font-weight="400"
         style="color:#000000;font-weight:400;line-height:normal;font-family:sans-serif;text-indent:0;text-align:start;text-decoration:none;text-decoration-line:none;text-decoration-style:solid;text-decoration-color:#000000;text-transform:none;white-space:normal;display:inline;overflow:visible;isolation:auto;mix-blend-mode:normal;fill:#ffffff;fill-opacity:1;marker:none;enable-background:new"
         d="m 347.00001,156.99999 v 2 h -2 v 1 h 2 v 2 h 1 v -2 h 2 v -1 h -2 v -2 z"
         sodipodi:nodetypes="ccccccccccccc" />
      <circle
         style="display:inline;vector-effect:none;fill:#0f8420;fill-opacity:1;stroke:none;stroke-width:6.5;stroke-linecap:butt;stroke-linejoin:round;stroke-miterlimit:4;stroke-dasharray:none;stroke-dashoffset:0;stroke-opacity:1;enable-background:new"
         id="path2644-5-5-7"
         cy="101.5"
         cx="361.5"
         r="6.5" />
      <path
         inkscape:connector-curvature="0"
         id="path1063-0-4-6"
         overflow="visible"
         font-weight="400"
         style="color:#000000;font-weight:400;line-height:normal;font-family:sans-serif;text-indent:0;text-align:start;text-decoration:none;text-decoration-line:none;text-decoration-style:solid;text-decoration-color:#000000;text-transform:none;white-space:normal;display:inline;overflow:visible;isolation:auto;mix-blend-mode:normal;fill:#ffffff;fill-opacity:1;marker:none;enable-background:new"
         d="m 360.99998,98.000004 v 2.999986 h -3 v 1 h 3 v 3 h 1 v -3 h 3 v -1 h -3 v -2.999986 z"
         sodipodi:nodetypes="ccccccccccccc" />
      <circle
         style="display:inline;vector-effect:none;fill:#0f8420;fill-opacity:1;stroke:none;stroke-width:34;stroke-linecap:butt;stroke-linejoin:round;stroke-miterlimit:4;stroke-dasharray:none;stroke-dashoffset:0;stroke-opacity:1;enable-background:new"
         id="path2644-5-5-7-5"
         cy="242.00002"
         cx="238"
         r="34" />
      <path
         inkscape:connector-curvature="0"
         id="path1063-0-4-6-6"
         overflow="visible"
         font-weight="400"
         style="color:#000000;font-weight:400;line-height:normal;font-family:sans-serif;text-indent:0;text-align:start;text-decoration:none;text-decoration-line:none;text-decoration-style:solid;text-decoration-color:#000000;text-transform:none;white-space:normal;display:inline;overflow:visible;isolation:auto;mix-blend-mode:normal;fill:#ffffff;fill-opacity:1;stroke-width:6;marker:none;enable-background:new"
         d="m 236.00001,219.99999 v 20 h -20 v 4 h 20 v 20 h 4 v -20 h 20 v -4 h -20 v -20 z"
         sodipodi:nodetypes="ccccccccccccc" />
    </g>
  </g>
</svg>
