<?xml version="1.0" encoding="UTF-8" standalone="no"?>
<svg
   inkscape:export-ydpi="96"
   inkscape:export-xdpi="96"
   width="400"
   height="300"
   id="svg11300"
   sodipodi:version="0.32"
   inkscape:version="1.1.2 (0a00cf5339, 2022-02-04)"
   sodipodi:docname="folder-new.svg"
   inkscape:output_extension="org.inkscape.output.svg.inkscape"
   version="1.0"
   style="display:inline;enable-background:new"
   inkscape:export-filename="C:\Users\sblav\Pictures\vertical oblong template.png"
   xmlns:inkscape="http://www.inkscape.org/namespaces/inkscape"
   xmlns:sodipodi="http://sodipodi.sourceforge.net/DTD/sodipodi-0.dtd"
   xmlns:xlink="http://www.w3.org/1999/xlink"
   xmlns="http://www.w3.org/2000/svg"
   xmlns:svg="http://www.w3.org/2000/svg"
   xmlns:rdf="http://www.w3.org/1999/02/22-rdf-syntax-ns#"
   xmlns:cc="http://creativecommons.org/ns#"
   xmlns:dc="http://purl.org/dc/elements/1.1/">
  <title
     id="title3004">Suru Icon Theme Template</title>
  <sodipodi:namedview
     stroke="#ef2929"
     fill="#f57900"
     id="base"
     pagecolor="#ffffff"
     bordercolor="#000000"
     borderopacity="0.25490196"
     inkscape:pageopacity="0"
     inkscape:pageshadow="2"
     inkscape:zoom="5.6568542"
     inkscape:cx="328.18594"
     inkscape:cy="228.39549"
     inkscape:current-layer="layer2"
     showgrid="false"
     inkscape:grid-bbox="true"
     inkscape:document-units="px"
     inkscape:showpageshadow="false"
     inkscape:window-width="1920"
     inkscape:window-height="1020"
     inkscape:window-x="0"
     inkscape:window-y="32"
     width="400px"
     height="300px"
     inkscape:snap-nodes="true"
     inkscape:snap-bbox="true"
     gridtolerance="10000"
     inkscape:object-nodes="true"
     inkscape:snap-grids="true"
     showguides="false"
     inkscape:guide-bbox="true"
     inkscape:window-maximized="1"
     inkscape:bbox-paths="true"
     inkscape:snap-bbox-midpoints="true"
     inkscape:snap-global="true"
     inkscape:object-paths="true"
     inkscape:snap-intersection-paths="true"
     inkscape:snap-smooth-nodes="true"
     inkscape:pagecheckerboard="false"
     showborder="false"
     inkscape:document-rotation="0">
    <inkscape:grid
       spacingy="1"
       spacingx="1"
       id="grid5883"
       type="xygrid"
       enabled="true"
       visible="true"
       empspacing="4"
       snapvisiblegridlinesonly="true"
       originx="0"
       originy="0" />
    <inkscape:grid
       type="xygrid"
       id="grid11592"
       empspacing="2"
       visible="true"
       enabled="false"
       spacingx="0.5"
       spacingy="0.5"
       color="#ff0000"
       opacity="0.1254902"
       empcolor="#ff0000"
       empopacity="0.25098039"
       snapvisiblegridlinesonly="true"
       originx="0"
       originy="0" />
  </sodipodi:namedview>
  <defs
     id="defs3">
    <clipPath
       clipPathUnits="userSpaceOnUse"
       id="clipPath9430">
      <path
         sodipodi:nodetypes="sssssssss"
         inkscape:connector-curvature="0"
         id="path9432"
         d="m 166.0625,-196 h 179.875 C 491.2348,-196 512,-175.28677 512,-30.125 v 148.25 C 512,263.28618 491.2348,284 345.9375,284 H 166.0625 C 20.7652,284 0,263.28618 0,118.125 V -30.125 C 0,-175.28677 20.7652,-196 166.0625,-196 Z"
         style="color:#000000;display:inline;overflow:visible;visibility:visible;fill:#ffffff;fill-opacity:1;fill-rule:nonzero;stroke:none;stroke-width:1;marker:none;enable-background:new" />
    </clipPath>
    <clipPath
       clipPathUnits="userSpaceOnUse"
       id="clipPath1082">
      <path
         sodipodi:nodetypes="sssssssss"
         inkscape:connector-curvature="0"
         id="path1084"
         d="M 361.9375,-212 C 507.2348,-212 528,-191.28677 528,-46.125 V 70.125 C 528,215.28618 507.2348,236 361.9375,236 H 214.0625 C 68.7652,236 48,215.28618 48,70.125 V -46.125 C 48,-191.28677 68.7652,-212 214.0625,-212 Z"
         style="display:inline;opacity:1;fill:#8c59d9;fill-opacity:1;stroke:none;stroke-width:2;stroke-linecap:round;stroke-linejoin:round;stroke-miterlimit:4;stroke-dasharray:none;stroke-dashoffset:0;stroke-opacity:1;enable-background:new" />
    </clipPath>
    <clipPath
       clipPathUnits="userSpaceOnUse"
       id="clipPath994">
      <path
         style="color:#000000;display:inline;overflow:visible;visibility:visible;fill:#cdcdcd;fill-opacity:1;fill-rule:nonzero;stroke:none;stroke-width:2;stroke-miterlimit:4;stroke-dasharray:none;stroke-opacity:1;marker:none;enable-background:accumulate"
         d="m 335.73108,62 c -8.82418,0 -9.77365,0.90635 -9.7304,9.74838 V 84 96.25162 c -0.0433,8.84203 0.90622,9.74838 9.7304,9.74838 h 16.53919 c 8.82418,0 9.7304,-0.90625 9.7304,-9.74838 V 84 71.74838 C 362.00067,62.90625 361.09445,62 352.27027,62 Z"
         id="path996"
         inkscape:connector-curvature="0"
         sodipodi:nodetypes="scccssscsss" />
    </clipPath>
    <clipPath
       clipPathUnits="userSpaceOnUse"
       id="clipPath959">
      <path
         style="color:#000000;display:inline;overflow:visible;visibility:visible;opacity:1;fill:#46a926;fill-opacity:1;fill-rule:nonzero;stroke:none;stroke-width:2;stroke-miterlimit:4;stroke-dasharray:none;stroke-opacity:1;marker:none;enable-background:accumulate"
         d="m 330.1929,133.99999 c -5.61538,0 -6.21958,0.57678 -6.19206,6.20352 v 7.79648 7.79648 c -0.0276,5.62673 0.57668,6.20351 6.19206,6.20351 h 11.615 c 5.6154,0 6.19208,-0.5767 6.19208,-6.20351 v -7.79648 -7.79648 c 0,-5.6268 -0.5767,-6.20352 -6.19208,-6.20352 z"
         id="path961"
         inkscape:connector-curvature="0"
         sodipodi:nodetypes="scccssscsss" />
    </clipPath>
    <clipPath
       clipPathUnits="userSpaceOnUse"
       id="clipPath971">
      <path
         style="color:#000000;display:inline;overflow:visible;visibility:visible;opacity:1;fill:#46a926;fill-opacity:1;fill-rule:nonzero;stroke:none;stroke-width:2;stroke-miterlimit:4;stroke-dasharray:none;stroke-opacity:1;marker:none;enable-background:accumulate"
         d="m 327.8652,189 c -4.41209,0 -4.88682,0.45318 -4.8652,4.87419 V 200 206.12581 C 322.9783,210.54682 323.45311,211 327.8652,211 h 8.2696 C 340.54689,211 341,210.54688 341,206.12581 V 200 193.87419 C 341,189.45313 340.54688,189 336.13479,189 Z"
         id="path973"
         inkscape:connector-curvature="0"
         sodipodi:nodetypes="scccssscsss" />
    </clipPath>
    <clipPath
       clipPathUnits="userSpaceOnUse"
       id="clipPath983">
      <path
         sodipodi:nodetypes="scccssscsss"
         inkscape:connector-curvature="0"
         id="path985"
         d="m 325.09646,237 c -2.80769,0 -3.10979,0.28839 -3.09603,3.10176 V 244 v 3.89824 c -0.0138,2.81337 0.28834,3.10176 3.09603,3.10176 h 5.8075 C 333.71166,251 334,250.71165 334,247.89824 V 244 240.10176 C 334,237.28836 333.71165,237 330.90396,237 Z"
         style="color:#000000;display:inline;overflow:visible;visibility:visible;opacity:1;fill:#46a926;fill-opacity:1;fill-rule:nonzero;stroke:none;stroke-width:2;stroke-miterlimit:4;stroke-dasharray:none;stroke-opacity:1;marker:none;enable-background:accumulate" />
    </clipPath>
    <linearGradient
       id="linearGradient4336-3">
      <stop
         style="stop-color:#5884f4;stop-opacity:1"
         offset="0"
         id="stop4338-8" />
      <stop
         id="stop4344-3"
         offset="0.27800092"
         style="stop-color:#5884f4;stop-opacity:1" />
      <stop
         style="stop-color:#2f5fdd;stop-opacity:1"
         offset="0.27800092"
         id="stop4346-3" />
      <stop
         id="stop4350-1"
         offset="0.70735365"
         style="stop-color:#2f5fdd;stop-opacity:1" />
      <stop
         id="stop4348-6"
         offset="0.70936078"
         style="stop-color:#234db8;stop-opacity:1" />
      <stop
         style="stop-color:#234db8;stop-opacity:1"
         offset="1"
         id="stop4340-0" />
    </linearGradient>
    <clipPath
       clipPathUnits="userSpaceOnUse"
       id="clipPath994-1">
      <path
         style="color:#000000;display:inline;overflow:visible;visibility:visible;fill:#cdcdcd;fill-opacity:1;fill-rule:nonzero;stroke:none;stroke-width:2;stroke-miterlimit:4;stroke-dasharray:none;stroke-opacity:1;marker:none;enable-background:accumulate"
         d="m 335.73108,62 c -8.82418,0 -9.77365,0.90635 -9.7304,9.74838 V 84 96.25162 c -0.0433,8.84203 0.90622,9.74838 9.7304,9.74838 h 16.53919 c 8.82418,0 9.7304,-0.90625 9.7304,-9.74838 V 84 71.74838 C 362.00067,62.90625 361.09445,62 352.27027,62 Z"
         id="path996-8"
         inkscape:connector-curvature="0"
         sodipodi:nodetypes="scccssscsss" />
    </clipPath>
    <clipPath
       clipPathUnits="userSpaceOnUse"
       id="clipPath1144">
      <path
         sodipodi:nodetypes="sssssssss"
         inkscape:connector-curvature="0"
         id="path1146"
         d="m 563.72139,-143.78206 c 77.49205,0 88.56678,11.04708 88.56678,88.466604 V 6.684672 c 0,77.419349 -11.07473,88.466603 -88.56678,88.466603 h -78.86661 c -77.49171,0 -88.56661,-11.047254 -88.56661,-88.466603 v -62.000128 c 0,-77.419524 11.0749,-88.466604 88.56678,-88.466604 z"
         style="display:inline;opacity:1;fill:#a3dbf0;fill-opacity:1;stroke:none;stroke-width:2;stroke-linecap:round;stroke-linejoin:round;stroke-miterlimit:4;stroke-dasharray:none;stroke-dashoffset:0;stroke-opacity:1;enable-background:new" />
    </clipPath>
    <clipPath
       clipPathUnits="userSpaceOnUse"
       id="clipPath1151">
      <path
         sodipodi:nodetypes="sssssssss"
         inkscape:connector-curvature="0"
         id="path1153"
         d="m 335.71582,189.50031 c 6.81081,10e-6 7.78418,0.97093 7.78418,7.77539 v 5.44891 c 0,6.80444 -0.97337,7.77539 -7.78418,7.77539 h -7.43164 c -6.81081,0 -7.78418,-0.97095 -7.78418,-7.77539 v -5.44892 c 0,-6.80446 0.97337,-7.7754 7.78418,-7.77539 z"
         style="display:inline;opacity:1;fill:#a3dbf0;fill-opacity:1;stroke:none;stroke-width:2;stroke-linecap:round;stroke-linejoin:round;stroke-miterlimit:4;stroke-dasharray:none;stroke-dashoffset:0;stroke-opacity:1;enable-background:new" />
    </clipPath>
    <clipPath
       clipPathUnits="userSpaceOnUse"
       id="clipPath1158">
      <path
         style="display:inline;opacity:1;fill:#a3dbf0;fill-opacity:1;stroke:none;stroke-width:2;stroke-linecap:round;stroke-linejoin:round;stroke-miterlimit:4;stroke-dasharray:none;stroke-dashoffset:0;stroke-opacity:1;enable-background:new"
         d="m 341.12109,133.5 c 9.08109,0 10.37891,1.29458 10.37891,10.36719 v 8.26562 c 0,9.07258 -1.29782,10.36719 -10.37891,10.36719 H 330.87891 C 321.79783,162.5 320.5,161.20539 320.5,152.13281 v -8.26562 c 0,-9.07261 1.29783,-10.36719 10.37891,-10.36719 z"
         id="path1160"
         inkscape:connector-curvature="0"
         sodipodi:nodetypes="sssssssss" />
    </clipPath>
    <clipPath
       clipPathUnits="userSpaceOnUse"
       id="clipPath1165">
      <path
         style="display:inline;opacity:1;fill:#a3dbf0;fill-opacity:1;stroke:none;stroke-width:2;stroke-linecap:round;stroke-linejoin:round;stroke-miterlimit:4;stroke-dasharray:none;stroke-dashoffset:0;stroke-opacity:1;enable-background:new"
         d="M 351.93164,62.5 C 365.55326,62.5 367.5,64.44187 367.5,78.05078 V 89.94922 C 367.5,103.55808 365.55326,105.5 351.93164,105.5 H 336.06836 C 322.44674,105.5 320.5,103.55808 320.5,89.94922 V 78.05078 C 320.5,64.44187 322.44674,62.5 336.06836,62.5 Z"
         id="path1167"
         inkscape:connector-curvature="0"
         sodipodi:nodetypes="sssssssss" />
    </clipPath>
    <clipPath
       clipPathUnits="userSpaceOnUse"
       id="clipPath1082-3">
      <path
         sodipodi:nodetypes="sssssssss"
         inkscape:connector-curvature="0"
         id="path1084-6"
         d="M 361.9375,-212 C 507.2348,-212 528,-191.28677 528,-46.125 V 70.125 C 528,215.28618 507.2348,236 361.9375,236 H 214.0625 C 68.7652,236 48,215.28618 48,70.125 V -46.125 C 48,-191.28677 68.7652,-212 214.0625,-212 Z"
         style="display:inline;opacity:1;fill:#8c59d9;fill-opacity:1;stroke:none;stroke-width:2;stroke-linecap:round;stroke-linejoin:round;stroke-miterlimit:4;stroke-dasharray:none;stroke-dashoffset:0;stroke-opacity:1;enable-background:new" />
    </clipPath>
    <clipPath
       clipPathUnits="userSpaceOnUse"
       id="clipPath1064">
      <path
         style="opacity:1;fill:#a3dbf0;fill-opacity:1;stroke:none;stroke-width:2;stroke-linecap:round;stroke-linejoin:round;stroke-miterlimit:4;stroke-dasharray:none;stroke-dashoffset:0;stroke-opacity:1"
         d="M 115.03125,44 C 42.3826,44 32,54.356615 32,126.9375 v 58.125 c 0,10.16582 0.217657,19.07051 0.767578,26.9375 3.376331,48.30069 19.790377,56 82.263672,56 h 73.9375 c 62.4733,0 78.88734,-7.69931 82.26367,-56 C 271.78234,204.13301 272,195.22832 272,185.0625 v -58.125 C 272,54.356615 261.6174,44 188.96875,44 Z"
         id="path1066"
         inkscape:connector-curvature="0" />
    </clipPath>
    <clipPath
       clipPathUnits="userSpaceOnUse"
       id="clipPath1064-8">
      <path
         style="opacity:1;fill:#a3dbf0;fill-opacity:1;stroke:none;stroke-width:2;stroke-linecap:round;stroke-linejoin:round;stroke-miterlimit:4;stroke-dasharray:none;stroke-dashoffset:0;stroke-opacity:1"
         d="M 115.03125,44 C 42.3826,44 32,54.356615 32,126.9375 v 58.125 c 0,10.16582 0.217657,19.07051 0.767578,26.9375 3.376331,48.30069 19.790377,56 82.263672,56 h 73.9375 c 62.4733,0 78.88734,-7.69931 82.26367,-56 C 271.78234,204.13301 272,195.22832 272,185.0625 v -58.125 C 272,54.356615 261.6174,44 188.96875,44 Z"
         id="path1066-4"
         inkscape:connector-curvature="0" />
    </clipPath>
    <clipPath
       clipPathUnits="userSpaceOnUse"
       id="clipPath1144-3">
      <path
         sodipodi:nodetypes="sssssssss"
         inkscape:connector-curvature="0"
         id="path1146-8"
         d="m 563.72139,-143.78206 c 77.49205,0 88.56678,11.04708 88.56678,88.466604 V 6.684672 c 0,77.419349 -11.07473,88.466603 -88.56678,88.466603 h -78.86661 c -77.49171,0 -88.56661,-11.047254 -88.56661,-88.466603 v -62.000128 c 0,-77.419524 11.0749,-88.466604 88.56678,-88.466604 z"
         style="display:inline;opacity:1;fill:#a3dbf0;fill-opacity:1;stroke:none;stroke-width:2;stroke-linecap:round;stroke-linejoin:round;stroke-miterlimit:4;stroke-dasharray:none;stroke-dashoffset:0;stroke-opacity:1;enable-background:new" />
    </clipPath>
    <clipPath
       clipPathUnits="userSpaceOnUse"
       id="clipPath1151-3">
      <path
         sodipodi:nodetypes="sssssssss"
         inkscape:connector-curvature="0"
         id="path1153-6"
         d="m 335.71582,189.50031 c 6.81081,10e-6 7.78418,0.97093 7.78418,7.77539 v 5.44891 c 0,6.80444 -0.97337,7.77539 -7.78418,7.77539 h -7.43164 c -6.81081,0 -7.78418,-0.97095 -7.78418,-7.77539 v -5.44892 c 0,-6.80446 0.97337,-7.7754 7.78418,-7.77539 z"
         style="display:inline;opacity:1;fill:#a3dbf0;fill-opacity:1;stroke:none;stroke-width:2;stroke-linecap:round;stroke-linejoin:round;stroke-miterlimit:4;stroke-dasharray:none;stroke-dashoffset:0;stroke-opacity:1;enable-background:new" />
    </clipPath>
    <clipPath
       clipPathUnits="userSpaceOnUse"
       id="clipPath1158-2">
      <path
         style="display:inline;opacity:1;fill:#a3dbf0;fill-opacity:1;stroke:none;stroke-width:2;stroke-linecap:round;stroke-linejoin:round;stroke-miterlimit:4;stroke-dasharray:none;stroke-dashoffset:0;stroke-opacity:1;enable-background:new"
         d="m 341.12109,133.5 c 9.08109,0 10.37891,1.29458 10.37891,10.36719 v 8.26562 c 0,9.07258 -1.29782,10.36719 -10.37891,10.36719 H 330.87891 C 321.79783,162.5 320.5,161.20539 320.5,152.13281 v -8.26562 c 0,-9.07261 1.29783,-10.36719 10.37891,-10.36719 z"
         id="path1160-3"
         inkscape:connector-curvature="0"
         sodipodi:nodetypes="sssssssss" />
    </clipPath>
    <clipPath
       clipPathUnits="userSpaceOnUse"
       id="clipPath1165-5">
      <path
         style="display:inline;opacity:1;fill:#a3dbf0;fill-opacity:1;stroke:none;stroke-width:2;stroke-linecap:round;stroke-linejoin:round;stroke-miterlimit:4;stroke-dasharray:none;stroke-dashoffset:0;stroke-opacity:1;enable-background:new"
         d="M 351.93164,62.5 C 365.55326,62.5 367.5,64.44187 367.5,78.05078 V 89.94922 C 367.5,103.55808 365.55326,105.5 351.93164,105.5 H 336.06836 C 322.44674,105.5 320.5,103.55808 320.5,89.94922 V 78.05078 C 320.5,64.44187 322.44674,62.5 336.06836,62.5 Z"
         id="path1167-1"
         inkscape:connector-curvature="0"
         sodipodi:nodetypes="sssssssss" />
    </clipPath>
    <clipPath
       clipPathUnits="userSpaceOnUse"
       id="clipPath4851">
      <path
         sodipodi:nodetypes="sssssssss"
         inkscape:connector-curvature="0"
         id="path4853"
         d="m 335.71582,189.50031 c 6.81081,10e-6 7.78418,0.97093 7.78418,7.77539 v 5.44891 c 0,6.80444 -0.97337,7.77539 -7.78418,7.77539 h -7.43164 c -6.81081,0 -7.78418,-0.97095 -7.78418,-7.77539 v -5.44892 c 0,-6.80446 0.97337,-7.7754 7.78418,-7.77539 z"
         style="display:inline;opacity:1;fill:#46a926;fill-opacity:1;stroke:none;stroke-width:2;stroke-linecap:round;stroke-linejoin:round;stroke-miterlimit:4;stroke-dasharray:none;stroke-dashoffset:0;stroke-opacity:1;enable-background:new" />
    </clipPath>
    <clipPath
       clipPathUnits="userSpaceOnUse"
       id="clipPath4824">
      <path
         style="display:inline;opacity:1;fill:#5bdbc1;fill-opacity:1;stroke:none;stroke-width:2;stroke-linecap:round;stroke-linejoin:round;stroke-miterlimit:4;stroke-dasharray:none;stroke-dashoffset:0;stroke-opacity:1;enable-background:new"
         d="m 341.12109,133.5 c 9.08109,0 10.37891,1.29458 10.37891,10.36719 v 8.26562 c 0,9.07258 -1.29782,10.36719 -10.37891,10.36719 H 330.87891 C 321.79783,162.5 320.5,161.20539 320.5,152.13281 v -8.26562 c 0,-9.07261 1.29783,-10.36719 10.37891,-10.36719 z"
         id="path4826"
         inkscape:connector-curvature="0"
         sodipodi:nodetypes="sssssssss" />
    </clipPath>
    <clipPath
       clipPathUnits="userSpaceOnUse"
       id="clipPath4783">
      <path
         style="display:inline;opacity:1;fill:#d64310;fill-opacity:1;stroke:none;stroke-width:2;stroke-linecap:round;stroke-linejoin:round;stroke-miterlimit:4;stroke-dasharray:none;stroke-dashoffset:0;stroke-opacity:1;enable-background:new"
         d="M 351.93164,61.5 C 365.55326,61.5 367.5,63.44187 367.5,77.05078 V 88.94922 C 367.5,102.55808 365.55326,104.5 351.93164,104.5 H 336.06836 C 322.44674,104.5 320.5,102.55808 320.5,88.94922 V 77.05078 C 320.5,63.44187 322.44674,61.5 336.06836,61.5 Z"
         id="path4785"
         inkscape:connector-curvature="0"
         sodipodi:nodetypes="sssssssss" />
    </clipPath>
    <clipPath
       clipPathUnits="userSpaceOnUse"
       id="clipPath4653">
      <path
         sodipodi:nodetypes="sssssssss"
         inkscape:connector-curvature="0"
         id="path4655"
         d="m 412.21109,-140.08377 c 90.81111,0 103.78933,12.94582 103.78933,103.671926 v 72.656487 c 0,90.725907 -12.97822,103.671927 -103.78933,103.671927 h -92.42191 c -90.81071,0 -103.78912,-12.94602 -103.78912,-103.671927 v -72.656487 c 0,-90.726106 12.97841,-103.671926 103.78932,-103.671926 z"
         style="display:inline;opacity:1;fill:#f22c42;fill-opacity:1;stroke:none;stroke-width:2;stroke-linecap:round;stroke-linejoin:round;stroke-miterlimit:4;stroke-dasharray:none;stroke-dashoffset:0;stroke-opacity:1;enable-background:new" />
    </clipPath>
    <clipPath
       clipPathUnits="userSpaceOnUse"
       id="clipPath4657">
      <path
         sodipodi:nodetypes="sssssssss"
         inkscape:connector-curvature="0"
         id="path4659"
         d="m 415.5445,-130.07962 c 90.81091,1.3e-4 103.78919,12.94575 103.78919,103.671988 v 72.652221 c 0,90.725971 -12.97828,103.671991 -103.78919,103.671991 h -99.08865 c -90.81091,0 -103.78919,-12.94602 -103.78919,-103.671991 v -72.652354 c 0,-90.726245 12.97828,-103.672125 103.78919,-103.671995 z"
         style="display:inline;opacity:1;fill:#f22c42;fill-opacity:1;stroke:none;stroke-width:2;stroke-linecap:round;stroke-linejoin:round;stroke-miterlimit:4;stroke-dasharray:none;stroke-dashoffset:0;stroke-opacity:1;enable-background:new" />
    </clipPath>
    <clipPath
       clipPathUnits="userSpaceOnUse"
       id="clipPath4661">
      <path
         style="display:inline;opacity:1;fill:#f22c42;fill-opacity:1;stroke:none;stroke-width:2;stroke-linecap:round;stroke-linejoin:round;stroke-miterlimit:4;stroke-dasharray:none;stroke-dashoffset:0;stroke-opacity:1;enable-background:new"
         d="m 417.2112,-135.08366 c 90.81101,0 103.78923,12.94581 103.78923,103.672022 v 82.656299 c 0,90.725909 -12.97822,103.672029 -103.78923,103.672029 H 314.78928 c -90.81091,0 -103.78923,-12.94612 -103.78923,-103.672029 v -82.656299 c 0,-90.726212 12.97832,-103.672022 103.78923,-103.672022 z"
         id="path4663"
         inkscape:connector-curvature="0"
         sodipodi:nodetypes="sssssssss" />
    </clipPath>
    <clipPath
       clipPathUnits="userSpaceOnUse"
       id="clipPath4665">
      <path
         style="display:inline;opacity:1;fill:#f22c42;fill-opacity:1;stroke:none;stroke-width:2;stroke-linecap:round;stroke-linejoin:round;stroke-miterlimit:4;stroke-dasharray:none;stroke-dashoffset:0;stroke-opacity:1;enable-background:new"
         d="m 418.87763,-133.41668 c 90.8108,0 103.78907,12.9458 103.78907,103.671871 V 49.57813 c 0,90.72574 -12.97827,103.67187 -103.78907,103.67187 H 313.12242 c -90.81081,0 -103.78907,-12.94613 -103.78907,-103.67187 v -79.322939 c 0,-90.726071 12.97826,-103.671871 103.78907,-103.671871 z"
         id="path4667"
         inkscape:connector-curvature="0"
         sodipodi:nodetypes="sssssssss" />
    </clipPath>
    <clipPath
       clipPathUnits="userSpaceOnUse"
       id="clipPath947">
      <path
         sodipodi:nodetypes="sssssssss"
         inkscape:connector-curvature="0"
         id="path949"
         d="m 191.43333,45.066672 c 77.49189,0 88.56666,11.047056 88.56666,88.466668 v 62 C 279.99999,272.95263 268.92522,284 191.43333,284 H 112.56666 C 35.074773,284 23.999999,272.95263 23.999999,195.53334 v -62 c 0,-77.419612 11.074774,-88.466668 88.566661,-88.466668 z"
         style="opacity:1;fill:#a4c1f9;fill-opacity:1;stroke:none;stroke-width:2;stroke-linecap:round;stroke-linejoin:round;stroke-miterlimit:4;stroke-dasharray:none;stroke-dashoffset:0;stroke-opacity:1" />
    </clipPath>
    <clipPath
       clipPathUnits="userSpaceOnUse"
       id="clipPath4657-5">
      <path
         sodipodi:nodetypes="sssssssss"
         inkscape:connector-curvature="0"
         id="path4659-3"
         d="m 415.5445,-130.07962 c 90.81091,1.3e-4 103.78919,12.94575 103.78919,103.671988 v 72.652221 c 0,90.725971 -12.97828,103.671991 -103.78919,103.671991 h -99.08865 c -90.81091,0 -103.78919,-12.94602 -103.78919,-103.671991 v -72.652354 c 0,-90.726245 12.97828,-103.672125 103.78919,-103.671995 z"
         style="display:inline;opacity:1;fill:#f22c42;fill-opacity:1;stroke:none;stroke-width:2;stroke-linecap:round;stroke-linejoin:round;stroke-miterlimit:4;stroke-dasharray:none;stroke-dashoffset:0;stroke-opacity:1;enable-background:new" />
    </clipPath>
    <clipPath
       clipPathUnits="userSpaceOnUse"
       id="clipPath4851-5">
      <path
         sodipodi:nodetypes="sssssssss"
         inkscape:connector-curvature="0"
         id="path4853-6"
         d="m 335.71582,189.50031 c 6.81081,10e-6 7.78418,0.97093 7.78418,7.77539 v 5.44891 c 0,6.80444 -0.97337,7.77539 -7.78418,7.77539 h -7.43164 c -6.81081,0 -7.78418,-0.97095 -7.78418,-7.77539 v -5.44892 c 0,-6.80446 0.97337,-7.7754 7.78418,-7.77539 z"
         style="display:inline;opacity:1;fill:#46a926;fill-opacity:1;stroke:none;stroke-width:2;stroke-linecap:round;stroke-linejoin:round;stroke-miterlimit:4;stroke-dasharray:none;stroke-dashoffset:0;stroke-opacity:1;enable-background:new" />
    </clipPath>
    <clipPath
       clipPathUnits="userSpaceOnUse"
       id="clipPath971-7">
      <path
         style="color:#000000;display:inline;overflow:visible;visibility:visible;opacity:1;fill:#46a926;fill-opacity:1;fill-rule:nonzero;stroke:none;stroke-width:2;stroke-miterlimit:4;stroke-dasharray:none;stroke-opacity:1;marker:none;enable-background:accumulate"
         d="m 327.8652,189 c -4.41209,0 -4.88682,0.45318 -4.8652,4.87419 V 200 206.12581 C 322.9783,210.54682 323.45311,211 327.8652,211 h 8.2696 C 340.54689,211 341,210.54688 341,206.12581 V 200 193.87419 C 341,189.45313 340.54688,189 336.13479,189 Z"
         id="path973-0"
         inkscape:connector-curvature="0"
         sodipodi:nodetypes="scccssscsss" />
    </clipPath>
    <clipPath
       clipPathUnits="userSpaceOnUse"
       id="clipPath977-5">
      <path
         id="path979-7"
         d="M 78.994141,52 C 43.625611,52 40,53.999146 40,89.296875 V 140 H 264 V 108.92188 C 264,73.624145 260.37439,68 225.00586,68 H 138 L 122,52 Z"
         style="color:#000000;display:inline;overflow:visible;visibility:visible;fill:#f6531e;fill-opacity:1;fill-rule:nonzero;stroke:none;stroke-width:1;marker:none;enable-background:accumulate"
         inkscape:connector-curvature="0" />
    </clipPath>
    <filter
       inkscape:collect="always"
       style="color-interpolation-filters:sRGB"
       id="filter11348"
       x="-0.048000001"
       width="1.096"
       y="-0.048000001"
       height="1.096">
      <feGaussianBlur
         inkscape:collect="always"
         stdDeviation="1.36"
         id="feGaussianBlur11350" />
    </filter>
    <filter
       id="e"
       x="-0.010999908"
       y="-0.013200229"
       width="1.0219998"
       height="1.0264005"
       color-interpolation-filters="sRGB">
      <feGaussianBlur
         stdDeviation="0.072761339"
         id="feGaussianBlur21" />
    </filter>
    <linearGradient
       id="c"
       x1="25"
       x2="25"
       y1="155"
       y2="166"
       gradientTransform="matrix(3.6903995,0,0,3.7022295,24.836985,-521.40207)"
       gradientUnits="userSpaceOnUse">
      <stop
         stop-color="#12a327"
         offset="0"
         id="stop2" />
      <stop
         stop-color="#208a2f"
         offset="1"
         id="stop4" />
    </linearGradient>
    <filter
       id="d"
       x="-0.014849913"
       y="-0.14849988"
       width="1.0296998"
       height="1.2969998"
       color-interpolation-filters="sRGB">
      <feGaussianBlur
         stdDeviation="0.098224626"
         id="feGaussianBlur24" />
    </filter>
    <linearGradient
       id="b"
       x1="5"
       x2="65"
       y1="185"
       y2="185"
       gradientTransform="matrix(3.6903995,0,0,3.7022295,24.836845,-521.40207)"
       gradientUnits="userSpaceOnUse">
      <stop
         stop-color="#12a327"
         offset="0"
         id="stop7" />
      <stop
         stop-color="#28bd3d"
         offset=".083713"
         id="stop9" />
      <stop
         stop-color="#28bd3d"
         offset=".91237"
         id="stop11" />
      <stop
         stop-color="#12a327"
         offset="1"
         id="stop13" />
    </linearGradient>
    <linearGradient
       id="a"
       x1="-9.6169996"
       x2="-9.6169996"
       y1="1138.4"
       y2="1140.2"
       gradientTransform="matrix(2.5340986,0,0,5.7309136,164.23794,-6296.5608)"
       gradientUnits="userSpaceOnUse">
      <stop
         stop-color="#12a327"
         stop-opacity="0"
         offset="0"
         id="stop16" />
      <stop
         stop-color="#12a327"
         offset="1"
         id="stop18" />
    </linearGradient>
    <linearGradient
       inkscape:collect="always"
       xlink:href="#c"
       id="linearGradient1396"
       gradientUnits="userSpaceOnUse"
       gradientTransform="matrix(3.6903995,0,0,3.7022295,24.836985,-521.40207)"
       x1="25"
       y1="155"
       x2="25"
       y2="166" />
    <linearGradient
       inkscape:collect="always"
       xlink:href="#b"
       id="linearGradient1398"
       gradientUnits="userSpaceOnUse"
       gradientTransform="matrix(3.6903995,0,0,3.7022295,24.836845,-521.40207)"
       x1="5"
       y1="185"
       x2="65"
       y2="185" />
    <linearGradient
       inkscape:collect="always"
       xlink:href="#a"
       id="linearGradient1400"
       gradientUnits="userSpaceOnUse"
       gradientTransform="matrix(2.5340986,0,0,5.7309136,164.23794,-6296.5608)"
       x1="-9.6169996"
       y1="1138.4"
       x2="-9.6169996"
       y2="1140.2" />
    <linearGradient
       inkscape:collect="always"
       xlink:href="#c"
       id="linearGradient1510"
       gradientUnits="userSpaceOnUse"
       gradientTransform="matrix(3.6903995,0,0,3.7022295,24.836985,-521.40207)"
       x1="25"
       y1="155"
       x2="25"
       y2="166" />
    <linearGradient
       inkscape:collect="always"
       xlink:href="#b"
       id="linearGradient1512"
       gradientUnits="userSpaceOnUse"
       gradientTransform="matrix(3.6903995,0,0,3.7022295,24.836845,-521.40207)"
       x1="5"
       y1="185"
       x2="65"
       y2="185" />
    <linearGradient
       inkscape:collect="always"
       xlink:href="#a"
       id="linearGradient1514"
       gradientUnits="userSpaceOnUse"
       gradientTransform="matrix(2.5340986,0,0,5.7309136,164.23794,-6296.5608)"
       x1="-9.6169996"
       y1="1138.4"
       x2="-9.6169996"
       y2="1140.2" />
    <linearGradient
       inkscape:collect="always"
       xlink:href="#c"
       id="linearGradient1630"
       gradientUnits="userSpaceOnUse"
       gradientTransform="matrix(3.6903995,0,0,3.7022295,24.836985,-521.40207)"
       x1="25"
       y1="155"
       x2="25"
       y2="166" />
    <linearGradient
       inkscape:collect="always"
       xlink:href="#b"
       id="linearGradient1632"
       gradientUnits="userSpaceOnUse"
       gradientTransform="matrix(3.6903995,0,0,3.7022295,24.836845,-521.40207)"
       x1="5"
       y1="185"
       x2="65"
       y2="185" />
    <linearGradient
       inkscape:collect="always"
       xlink:href="#a"
       id="linearGradient1634"
       gradientUnits="userSpaceOnUse"
       gradientTransform="matrix(2.5340986,0,0,5.7309136,164.23794,-6296.5608)"
       x1="-9.6169996"
       y1="1138.4"
       x2="-9.6169996"
       y2="1140.2" />
    <linearGradient
       inkscape:collect="always"
       xlink:href="#c"
       id="linearGradient1824"
       gradientUnits="userSpaceOnUse"
       gradientTransform="matrix(3.6903995,0,0,3.7022295,24.836985,-521.40207)"
       x1="25"
       y1="155"
       x2="25"
       y2="166" />
    <linearGradient
       inkscape:collect="always"
       xlink:href="#b"
       id="linearGradient1826"
       gradientUnits="userSpaceOnUse"
       gradientTransform="matrix(3.6903995,0,0,3.7022295,24.836845,-521.40207)"
       x1="5"
       y1="185"
       x2="65"
       y2="185" />
    <linearGradient
       inkscape:collect="always"
       xlink:href="#a"
       id="linearGradient1828"
       gradientUnits="userSpaceOnUse"
       gradientTransform="matrix(2.5340986,0,0,5.7309136,164.23794,-6296.5608)"
       x1="-9.6169996"
       y1="1138.4"
       x2="-9.6169996"
       y2="1140.2" />
    <linearGradient
       inkscape:collect="always"
       xlink:href="#c"
       id="linearGradient1938"
       gradientUnits="userSpaceOnUse"
       gradientTransform="matrix(3.6903995,0,0,3.7022295,24.836985,-521.40207)"
       x1="25"
       y1="155"
       x2="25"
       y2="166" />
    <linearGradient
       inkscape:collect="always"
       xlink:href="#b"
       id="linearGradient1940"
       gradientUnits="userSpaceOnUse"
       gradientTransform="matrix(3.6903995,0,0,3.7022295,24.836845,-521.40207)"
       x1="5"
       y1="185"
       x2="65"
       y2="185" />
    <linearGradient
       inkscape:collect="always"
       xlink:href="#a"
       id="linearGradient1942"
       gradientUnits="userSpaceOnUse"
       gradientTransform="matrix(2.5340986,0,0,5.7309136,164.23794,-6296.5608)"
       x1="-9.6169996"
       y1="1138.4"
       x2="-9.6169996"
       y2="1140.2" />
  </defs>
  <metadata
     id="metadata4">
    <rdf:RDF>
      <cc:Work
         rdf:about="">
        <dc:format>image/svg+xml</dc:format>
        <dc:type
           rdf:resource="http://purl.org/dc/dcmitype/StillImage" />
        <dc:creator>
          <cc:Agent>
            <dc:title>Sam Hewitt</dc:title>
          </cc:Agent>
        </dc:creator>
        <dc:source />
        <cc:license
           rdf:resource="http://creativecommons.org/licenses/by-sa/4.0/" />
        <dc:title>Suru Icon Theme Template</dc:title>
        <dc:subject>
          <rdf:Bag />
        </dc:subject>
        <dc:date />
        <dc:rights>
          <cc:Agent>
            <dc:title />
          </cc:Agent>
        </dc:rights>
        <dc:publisher>
          <cc:Agent>
            <dc:title />
          </cc:Agent>
        </dc:publisher>
        <dc:identifier />
        <dc:relation />
        <dc:language />
        <dc:coverage />
        <dc:description />
        <dc:contributor>
          <cc:Agent>
            <dc:title />
          </cc:Agent>
        </dc:contributor>
      </cc:Work>
      <cc:Work
         rdf:about="">
        <dc:format>image/svg+xml</dc:format>
        <dc:type
           rdf:resource="http://purl.org/dc/dcmitype/StillImage" />
      </cc:Work>
      <cc:License
         rdf:about="http://creativecommons.org/licenses/by-sa/4.0/">
        <cc:permits
           rdf:resource="http://creativecommons.org/ns#Reproduction" />
        <cc:permits
           rdf:resource="http://creativecommons.org/ns#Distribution" />
        <cc:requires
           rdf:resource="http://creativecommons.org/ns#Notice" />
        <cc:requires
           rdf:resource="http://creativecommons.org/ns#Attribution" />
        <cc:permits
           rdf:resource="http://creativecommons.org/ns#DerivativeWorks" />
        <cc:requires
           rdf:resource="http://creativecommons.org/ns#ShareAlike" />
      </cc:License>
    </rdf:RDF>
  </metadata>
  <g
     style="display:inline"
     inkscape:groupmode="layer"
     inkscape:label="Icon"
     id="layer1">
    <g
       style="display:inline"
       inkscape:label="Baseplate"
       id="layer7"
       inkscape:groupmode="layer"
       sodipodi:insensitive="true">
      <text
         y="-8.2548828"
         xml:space="preserve"
         x="19.006836"
         style="font-style:normal;font-variant:normal;font-weight:normal;font-stretch:normal;line-height:0%;font-family:'DejaVu Sans';-inkscape-font-specification:'DejaVu Sans';display:inline;fill:#000000;fill-opacity:1;stroke:none;enable-background:new"
         inkscape:label="context"
         id="context"><tspan
           style="font-style:normal;font-variant:normal;font-weight:normal;font-stretch:normal;font-size:18px;line-height:1.25;font-family:'DejaVu Sans';-inkscape-font-specification:'DejaVu Sans'"
           y="-8.2548828"
           x="19.006836"
           sodipodi:role="line"
           id="tspan3933">actions</tspan></text>
      <text
         y="-8.2548828"
         xml:space="preserve"
         x="146.48828"
         style="font-style:normal;font-variant:normal;font-weight:bold;font-stretch:normal;font-size:16px;line-height:0%;font-family:'DejaVu Sans';-inkscape-font-specification:'DejaVu Sans, Bold';font-variant-ligatures:normal;font-variant-caps:normal;font-variant-numeric:normal;font-variant-east-asian:normal;text-align:start;writing-mode:lr-tb;text-anchor:start;display:inline;fill:#000000;fill-opacity:1;stroke:none;enable-background:new"
         inkscape:label="icon-name"
         id="icon-name"><tspan
           sodipodi:role="line"
           id="tspan1027"
           x="146.48828"
           y="-8.2548828">folder-new</tspan></text>
      <rect
         style="display:inline;overflow:visible;visibility:visible;fill:#cdcdcd;fill-opacity:1;fill-rule:nonzero;stroke:none;stroke-width:2;marker:none;enable-background:accumulate"
         id="rect16x16"
         width="16"
         height="16"
         x="320"
         y="236"
         inkscape:label="16x16" />
      <rect
         style="display:inline;overflow:visible;visibility:visible;fill:#cdcdcd;fill-opacity:1;fill-rule:nonzero;stroke:none;stroke-width:2;marker:none;enable-background:accumulate"
         id="rect24x24"
         width="24"
         height="24"
         x="320"
         y="188"
         inkscape:label="24x24" />
      <rect
         style="display:inline;overflow:visible;visibility:visible;fill:#cdcdcd;fill-opacity:1;fill-rule:nonzero;stroke:none;stroke-width:2;marker:none;enable-background:accumulate"
         id="rect32x32"
         width="32"
         height="32"
         x="320"
         y="132"
         inkscape:label="32x32" />
      <rect
         inkscape:label="48x48"
         y="60"
         x="320"
         height="48"
         width="48"
         id="rect48x48"
         style="display:inline;overflow:visible;visibility:visible;fill:#cdcdcd;fill-opacity:1;fill-rule:nonzero;stroke:none;stroke-width:2;marker:none;enable-background:accumulate" />
      <rect
         style="display:inline;overflow:visible;visibility:visible;fill:#cdcdcd;fill-opacity:1;fill-rule:nonzero;stroke:none;stroke-width:2;marker:none;enable-background:accumulate"
         id="rect3951"
         width="256"
         height="256"
         x="24"
         y="28"
         inkscape:label="48x48" />
      <rect
         style="display:inline;overflow:visible;visibility:visible;fill:#cdcdcd;fill-opacity:1;fill-rule:nonzero;stroke:none;stroke-width:2;marker:none;enable-background:accumulate"
         id="rect24x24-9"
         width="22"
         height="22"
         x="372"
         y="190"
         inkscape:label="24x24" />
    </g>
    <g
       inkscape:groupmode="layer"
       id="layer8"
       inkscape:label="Backgrounds"
       style="display:inline" />
    <g
       inkscape:groupmode="layer"
       id="layer6"
       inkscape:label="Pictograms"
       style="display:inline" />
    <g
       inkscape:groupmode="layer"
       id="layer2"
       inkscape:label="Highlights"
       style="display:inline">
      <g
         id="g2391"
         style="display:inline;enable-background:new"
         transform="translate(-2.0000045,11.000055)">
        <g
           transform="matrix(13.948144,0,0,13.992854,24.836986,-521.40207)"
           filter="url(#e)"
           opacity="0.5"
           id="g41">
          <g
             stroke-opacity="0.95294"
             id="g35">
            <path
               transform="scale(0.26458)"
               d="m 10,155 c -2.77,0 -5,2.23 -5,5 v 40 c 0,2.77 2.23,5 5,5 h 50 c 2.77,0 5,-2.23 5,-5 v -36 c 0,-0.831 -0.3347,-1.5808 -0.87695,-2.123 -0.54225,-0.5422 -1.292,-0.87695 -2.123,-0.87695 h -31 c -0.75,0 -1.5,-0.25001 -2.2188,-0.64062 -0.71875,-0.39063 -1.4062,-0.92188 -2.0312,-1.4844 -1.25,-1.125 -2.25,-2.375 -2.75,-2.875 -0.43528,-0.43528 -1.1061,-0.68419 -1.7754,-0.82617 -0.64042,-0.13585 -1.26,-0.16683 -1.6875,-0.17383 h -0.53711 z"
               opacity="1"
               stroke-width="0.20101"
               id="path29" />
            <path
               transform="scale(0.26458)"
               d="M 7.4004,165 C 6.0708,165 5,166.0708 5,167.4004 v 32.6 c 0,2.77 2.23,5 5,5 h 50 c 2.77,0 5,-2.23 5,-5 v -32.6 C 65,166.0708 63.9292,165 62.5996,165 Z"
               opacity="1"
               stroke-width="0.17979"
               id="path31" />
            <path
               transform="scale(0.26458)"
               d="M 7.4004,165 C 6.0708,165 5,166.0708 5,167.4004 v 1 C 5,167.0708 6.0708,166 7.4004,166 h 55.199 c 1.3296,0 2.4004,1.0708 2.4004,2.4004 v -1 C 64.9998,166.0708 63.929,165 62.5994,165 Z"
               opacity="1"
               stroke-width="0.17979"
               id="path33" />
          </g>
          <path
             d="m 1.3229,52.916 c 0.037387,0.72117 0.52916,1.3229 1.3188,1.3229 h 13.233 c 0.79328,0 1.3224,-0.64408 1.3224,-1.3229 z"
             color="#000000"
             opacity="0.5"
             stroke-width="0.27278"
             style="text-indent:0;text-transform:none"
             id="path37" />
          <path
             d="m 1.3237,52.916 3.337e-4,0.26458 H 17.198034 L 17.1977,52.916 H 1.3226997 Z m 0.26376,0.79373 h 15.346 c 0.05347,-0.07329 0.11377,-0.15529 0.15166,-0.26458 h -15.653 c 0.046511,0.1129 0.09263,0.17706 0.15532,0.26458 z"
             color="#000000"
             opacity="0.15"
             stroke-width="0.095585"
             style="text-indent:0;text-transform:none"
             id="path39" />
        </g>
        <path
           d="m 61.740006,52.444908 c -10.222314,0 -18.452,8.255926 -18.452,18.511148 V 219.04245 c 0,10.25506 8.229546,18.51111 18.452,18.51111 H 246.26 c 10.22232,0 18.45199,-8.25591 18.45199,-18.51111 V 85.763295 c 0,-3.076467 -1.2351,-5.852509 -3.23625,-7.859925 -2.00114,-2.007555 -4.76818,-3.246623 -7.8348,-3.246623 H 139.23966 c -2.76774,0 -5.5356,-0.925584 -8.188,-2.371649 -2.65251,-1.44616 -5.18953,-3.412995 -7.496,-5.495414 -4.61295,-4.164971 -8.30335,-8.792686 -10.14853,-10.643803 -1.60641,-1.611557 -4.08178,-2.532987 -6.55184,-3.058698 -2.3634,-0.502946 -4.64977,-0.617648 -6.22759,-0.643562 h -1.982163 z"
           fill="url(#c)"
           stroke-width="0.742977"
           id="path43"
           style="fill:url(#c)" />
        <path
           d="M 1.852,4.3131 C 1.66878,4.3131 1.49466,4.350202 1.33628,4.41697 1.1779,4.483736 1.0352,4.58008 0.91564,4.69963 0.79608,4.81919 0.69922,4.96189 0.63246,5.12027 0.56569,5.27865 0.52911,5.45277 0.52911,5.63599 v 0.26458 c 0,-0.18322 0.03658,-0.35734 0.10335,-0.51572 C 0.69922,5.22647 0.79608,5.08377 0.91564,4.96421 1.0352,4.84465 1.1779,4.74831 1.33628,4.68155 1.49466,4.614785 1.66878,4.57768 1.852,4.57768 h 13.229 c 0.18322,0 0.35734,0.037103 0.51572,0.10387 0.15838,0.066765 0.30108,0.16311 0.42064,0.28266 0.11956,0.11956 0.21642,0.26226 0.28318,0.42064 0.06676,0.15838 0.10335,0.3325 0.10335,0.51572 V 5.63599 c 0,-0.18322 -0.03659,-0.35734 -0.10335,-0.51572 C 16.23377,4.96189 16.13692,4.81919 16.01736,4.69963 15.8978,4.58007 15.7551,4.48373 15.59672,4.41697 15.43834,4.350205 15.26422,4.3131 15.081,4.3131 Z"
           filter="url(#d)"
           opacity="0.1"
           stroke-width="0.047568"
           id="path45"
           transform="matrix(13.948144,0,0,13.992854,35.908046,26.530145)" />
        <path
           d="m 61.7414,89.468601 c -2.555575,0 -4.984228,0.519165 -7.193335,1.453443 -2.209107,0.934259 -4.199647,2.282372 -5.867005,3.955498 -1.667642,1.672984 -3.018658,3.669765 -3.949839,5.885818 -0.931192,2.21589 -1.441542,4.65261 -1.441542,7.21639 v 111.0669 c 0,10.25521 8.229547,18.51112 18.452001,18.51112 h 184.51998 c 10.22248,0 18.452,-8.25591 18.452,-18.51112 v -111.0669 c 0,-2.56378 -0.51035,-5.00022 -1.44153,-7.21639 -0.93132,-2.216193 -2.2822,-4.213114 -3.94984,-5.885818 -1.66763,-1.672986 -3.65806,-3.021058 -5.86699,-3.955498 -2.20912,-0.934222 -4.63778,-1.453443 -7.19335,-1.453443 H 61.741959 Z"
           fill="url(#b)"
           stroke-width="0.66456"
           id="path47"
           style="fill:url(#b)" />
        <path
           d="m 43.288843,219.04385 c 0.521479,10.09122 7.380801,18.51111 18.394811,18.51111 H 246.25943 c 11.06479,0 18.44502,-9.0125 18.44502,-18.51111 z"
           color="#000000"
           fill="url(#a)"
           stroke-width="3.81087"
           style="text-indent:0;text-transform:none;fill:url(#a)"
           id="path49" />
        <path
           d="m 43.30014,219.04385 0.0046,3.7022 h 221.41288 l -0.005,-3.7022 H 43.286189 Z m 3.678964,11.10653 H 261.02732 c 0.7458,-1.02554 1.58687,-2.17295 2.11536,-3.7022 H 44.8124 c 0.648742,1.57977 1.292017,2.47755 2.166425,3.7022 z"
           color="#000000"
           fill="#12a327"
           opacity="0.25"
           stroke-width="1.33535"
           style="text-indent:0;text-transform:none"
           id="path51" />
        <path
           d="m 61.740006,89.467202 c -2.555579,0 -4.98423,0.519164 -7.193337,1.453443 -2.209106,0.934245 -4.199506,2.28237 -5.867144,3.955219 -1.667641,1.672984 -3.018657,3.669765 -3.949838,5.885956 -0.931318,2.21617 -1.441541,4.65261 -1.441541,7.21639 v 3.70222 c 0,-2.56376 0.510238,-5.00034 1.441541,-7.21638 0.931251,-2.21622 2.282197,-4.21297 3.949838,-5.88596 1.667638,-1.672985 3.658038,-3.021057 5.867144,-3.955219 2.209107,-0.934246 4.637758,-1.453436 7.193337,-1.453436 H 246.26 c 2.55556,0 4.98423,0.519177 7.19334,1.453436 2.20908,0.934232 4.1995,2.282373 5.86714,3.955219 1.66763,1.67299 3.01865,3.66974 3.94984,5.88596 0.93117,2.21618 1.44152,4.65262 1.44152,7.21638 v -3.70222 c 0,-2.56378 -0.51035,-5.00022 -1.44152,-7.21639 -0.93132,-2.216191 -2.28235,-4.212972 -3.94984,-5.885956 -1.66764,-1.672988 -3.65806,-3.021058 -5.86714,-3.955219 -2.20911,-0.934237 -4.63778,-1.453443 -7.19334,-1.453443 z"
           fill="#6ae67c"
           stroke-width="0.664546"
           id="path53" />
      </g>
      <g
         id="g1394"
         style="display:inline;enable-background:new"
         transform="matrix(0.20175442,0,0,0.20175442,312.92982,54.74562)">
        <g
           transform="matrix(13.948144,0,0,13.992854,24.836986,-521.40207)"
           filter="url(#e)"
           opacity="0.5"
           id="g1380">
          <g
             stroke-opacity="0.95294"
             id="g1374">
            <path
               transform="scale(0.26458)"
               d="m 10,155 c -2.77,0 -5,2.23 -5,5 v 40 c 0,2.77 2.23,5 5,5 h 50 c 2.77,0 5,-2.23 5,-5 v -36 c 0,-0.831 -0.3347,-1.5808 -0.87695,-2.123 -0.54225,-0.5422 -1.292,-0.87695 -2.123,-0.87695 h -31 c -0.75,0 -1.5,-0.25001 -2.2188,-0.64062 -0.71875,-0.39063 -1.4062,-0.92188 -2.0312,-1.4844 -1.25,-1.125 -2.25,-2.375 -2.75,-2.875 -0.43528,-0.43528 -1.1061,-0.68419 -1.7754,-0.82617 -0.64042,-0.13585 -1.26,-0.16683 -1.6875,-0.17383 h -0.53711 z"
               opacity="1"
               stroke-width="0.20101"
               id="path1368" />
            <path
               transform="scale(0.26458)"
               d="M 7.4004,165 C 6.0708,165 5,166.0708 5,167.4004 v 32.6 c 0,2.77 2.23,5 5,5 h 50 c 2.77,0 5,-2.23 5,-5 v -32.6 C 65,166.0708 63.9292,165 62.5996,165 Z"
               opacity="1"
               stroke-width="0.17979"
               id="path1370" />
            <path
               transform="scale(0.26458)"
               d="M 7.4004,165 C 6.0708,165 5,166.0708 5,167.4004 v 1 C 5,167.0708 6.0708,166 7.4004,166 h 55.199 c 1.3296,0 2.4004,1.0708 2.4004,2.4004 v -1 C 64.9998,166.0708 63.929,165 62.5994,165 Z"
               opacity="1"
               stroke-width="0.17979"
               id="path1372" />
          </g>
          <path
             d="m 1.3229,52.916 c 0.037387,0.72117 0.52916,1.3229 1.3188,1.3229 h 13.233 c 0.79328,0 1.3224,-0.64408 1.3224,-1.3229 z"
             color="#000000"
             opacity="0.5"
             stroke-width="0.27278"
             style="text-indent:0;text-transform:none"
             id="path1376" />
          <path
             d="m 1.3237,52.916 3.337e-4,0.26458 H 17.198034 L 17.1977,52.916 H 1.3226997 Z m 0.26376,0.79373 h 15.346 c 0.05347,-0.07329 0.11377,-0.15529 0.15166,-0.26458 h -15.653 c 0.046511,0.1129 0.09263,0.17706 0.15532,0.26458 z"
             color="#000000"
             opacity="0.15"
             stroke-width="0.095585"
             style="text-indent:0;text-transform:none"
             id="path1378" />
        </g>
        <path
           d="m 61.740006,52.444908 c -10.222314,0 -18.452,8.255926 -18.452,18.511148 V 219.04245 c 0,10.25506 8.229546,18.51111 18.452,18.51111 H 246.26 c 10.22232,0 18.45199,-8.25591 18.45199,-18.51111 V 85.763295 c 0,-3.076467 -1.2351,-5.852509 -3.23625,-7.859925 -2.00114,-2.007555 -4.76818,-3.246623 -7.8348,-3.246623 H 139.23966 c -2.76774,0 -5.5356,-0.925584 -8.188,-2.371649 -2.65251,-1.44616 -5.18953,-3.412995 -7.496,-5.495414 -4.61295,-4.164971 -8.30335,-8.792686 -10.14853,-10.643803 -1.60641,-1.611557 -4.08178,-2.532987 -6.55184,-3.058698 -2.3634,-0.502946 -4.64977,-0.617648 -6.22759,-0.643562 h -1.982163 z"
           fill="url(#c)"
           stroke-width="0.742977"
           id="path1382"
           style="fill:url(#linearGradient1396)" />
        <path
           d="M 1.852,4.3131 C 1.66878,4.3131 1.49466,4.350202 1.33628,4.41697 1.1779,4.483736 1.0352,4.58008 0.91564,4.69963 0.79608,4.81919 0.69922,4.96189 0.63246,5.12027 0.56569,5.27865 0.52911,5.45277 0.52911,5.63599 v 0.26458 c 0,-0.18322 0.03658,-0.35734 0.10335,-0.51572 C 0.69922,5.22647 0.79608,5.08377 0.91564,4.96421 1.0352,4.84465 1.1779,4.74831 1.33628,4.68155 1.49466,4.614785 1.66878,4.57768 1.852,4.57768 h 13.229 c 0.18322,0 0.35734,0.037103 0.51572,0.10387 0.15838,0.066765 0.30108,0.16311 0.42064,0.28266 0.11956,0.11956 0.21642,0.26226 0.28318,0.42064 0.06676,0.15838 0.10335,0.3325 0.10335,0.51572 V 5.63599 c 0,-0.18322 -0.03659,-0.35734 -0.10335,-0.51572 C 16.23377,4.96189 16.13692,4.81919 16.01736,4.69963 15.8978,4.58007 15.7551,4.48373 15.59672,4.41697 15.43834,4.350205 15.26422,4.3131 15.081,4.3131 Z"
           filter="url(#d)"
           opacity="0.1"
           stroke-width="0.047568"
           id="path1384"
           transform="matrix(13.948144,0,0,13.992854,35.908046,26.530145)" />
        <path
           d="m 61.7414,89.468601 c -2.555575,0 -4.984228,0.519165 -7.193335,1.453443 -2.209107,0.934259 -4.199647,2.282372 -5.867005,3.955498 -1.667642,1.672984 -3.018658,3.669765 -3.949839,5.885818 -0.931192,2.21589 -1.441542,4.65261 -1.441542,7.21639 v 111.0669 c 0,10.25521 8.229547,18.51112 18.452001,18.51112 h 184.51998 c 10.22248,0 18.452,-8.25591 18.452,-18.51112 v -111.0669 c 0,-2.56378 -0.51035,-5.00022 -1.44153,-7.21639 -0.93132,-2.216193 -2.2822,-4.213114 -3.94984,-5.885818 -1.66763,-1.672986 -3.65806,-3.021058 -5.86699,-3.955498 -2.20912,-0.934222 -4.63778,-1.453443 -7.19335,-1.453443 H 61.741959 Z"
           fill="url(#b)"
           stroke-width="0.66456"
           id="path1386"
           style="fill:url(#linearGradient1398)" />
        <path
           d="m 43.288843,219.04385 c 0.521479,10.09122 7.380801,18.51111 18.394811,18.51111 H 246.25943 c 11.06479,0 18.44502,-9.0125 18.44502,-18.51111 z"
           color="#000000"
           fill="url(#a)"
           stroke-width="3.81087"
           style="text-indent:0;text-transform:none;fill:url(#linearGradient1400)"
           id="path1388" />
        <path
           d="m 43.30014,219.04385 0.0046,3.7022 h 221.41288 l -0.005,-3.7022 H 43.286189 Z m 3.678964,11.10653 H 261.02732 c 0.7458,-1.02554 1.58687,-2.17295 2.11536,-3.7022 H 44.8124 c 0.648742,1.57977 1.292017,2.47755 2.166425,3.7022 z"
           color="#000000"
           fill="#12a327"
           opacity="0.25"
           stroke-width="1.33535"
           style="text-indent:0;text-transform:none"
           id="path1390" />
        <path
           d="m 61.740006,89.467202 c -2.555579,0 -4.98423,0.519164 -7.193337,1.453443 -2.209106,0.934245 -4.199506,2.28237 -5.867144,3.955219 -1.667641,1.672984 -3.018657,3.669765 -3.949838,5.885956 -0.931318,2.21617 -1.441541,4.65261 -1.441541,7.21639 v 3.70222 c 0,-2.56376 0.510238,-5.00034 1.441541,-7.21638 0.931251,-2.21622 2.282197,-4.21297 3.949838,-5.88596 1.667638,-1.672985 3.658038,-3.021057 5.867144,-3.955219 2.209107,-0.934246 4.637758,-1.453436 7.193337,-1.453436 H 246.26 c 2.55556,0 4.98423,0.519177 7.19334,1.453436 2.20908,0.934232 4.1995,2.282373 5.86714,3.955219 1.66763,1.67299 3.01865,3.66974 3.94984,5.88596 0.93117,2.21618 1.44152,4.65262 1.44152,7.21638 v -3.70222 c 0,-2.56378 -0.51035,-5.00022 -1.44152,-7.21639 -0.93132,-2.216191 -2.28235,-4.212972 -3.94984,-5.885956 -1.66764,-1.672988 -3.65806,-3.021058 -5.86714,-3.955219 -2.20911,-0.934237 -4.63778,-1.453443 -7.19334,-1.453443 z"
           fill="#6ae67c"
           stroke-width="0.664546"
           id="path1392" />
      </g>
      <g
         id="g1508"
         style="display:inline;enable-background:new"
         transform="matrix(0.1403509,0,0,0.1403509,314.38596,127.64913)">
        <g
           transform="matrix(13.948144,0,0,13.992854,24.836986,-521.40207)"
           filter="url(#e)"
           opacity="0.5"
           id="g1494">
          <g
             stroke-opacity="0.95294"
             id="g1488">
            <path
               transform="scale(0.26458)"
               d="m 10,155 c -2.77,0 -5,2.23 -5,5 v 40 c 0,2.77 2.23,5 5,5 h 50 c 2.77,0 5,-2.23 5,-5 v -36 c 0,-0.831 -0.3347,-1.5808 -0.87695,-2.123 -0.54225,-0.5422 -1.292,-0.87695 -2.123,-0.87695 h -31 c -0.75,0 -1.5,-0.25001 -2.2188,-0.64062 -0.71875,-0.39063 -1.4062,-0.92188 -2.0312,-1.4844 -1.25,-1.125 -2.25,-2.375 -2.75,-2.875 -0.43528,-0.43528 -1.1061,-0.68419 -1.7754,-0.82617 -0.64042,-0.13585 -1.26,-0.16683 -1.6875,-0.17383 h -0.53711 z"
               opacity="1"
               stroke-width="0.20101"
               id="path1482" />
            <path
               transform="scale(0.26458)"
               d="M 7.4004,165 C 6.0708,165 5,166.0708 5,167.4004 v 32.6 c 0,2.77 2.23,5 5,5 h 50 c 2.77,0 5,-2.23 5,-5 v -32.6 C 65,166.0708 63.9292,165 62.5996,165 Z"
               opacity="1"
               stroke-width="0.17979"
               id="path1484" />
            <path
               transform="scale(0.26458)"
               d="M 7.4004,165 C 6.0708,165 5,166.0708 5,167.4004 v 1 C 5,167.0708 6.0708,166 7.4004,166 h 55.199 c 1.3296,0 2.4004,1.0708 2.4004,2.4004 v -1 C 64.9998,166.0708 63.929,165 62.5994,165 Z"
               opacity="1"
               stroke-width="0.17979"
               id="path1486" />
          </g>
          <path
             d="m 1.3229,52.916 c 0.037387,0.72117 0.52916,1.3229 1.3188,1.3229 h 13.233 c 0.79328,0 1.3224,-0.64408 1.3224,-1.3229 z"
             color="#000000"
             opacity="0.5"
             stroke-width="0.27278"
             style="text-indent:0;text-transform:none"
             id="path1490" />
          <path
             d="m 1.3237,52.916 3.337e-4,0.26458 H 17.198034 L 17.1977,52.916 H 1.3226997 Z m 0.26376,0.79373 h 15.346 c 0.05347,-0.07329 0.11377,-0.15529 0.15166,-0.26458 h -15.653 c 0.046511,0.1129 0.09263,0.17706 0.15532,0.26458 z"
             color="#000000"
             opacity="0.15"
             stroke-width="0.095585"
             style="text-indent:0;text-transform:none"
             id="path1492" />
        </g>
        <path
           d="m 61.740006,52.444908 c -10.222314,0 -18.452,8.255926 -18.452,18.511148 V 219.04245 c 0,10.25506 8.229546,18.51111 18.452,18.51111 H 246.26 c 10.22232,0 18.45199,-8.25591 18.45199,-18.51111 V 85.763295 c 0,-3.076467 -1.2351,-5.852509 -3.23625,-7.859925 -2.00114,-2.007555 -4.76818,-3.246623 -7.8348,-3.246623 H 139.23966 c -2.76774,0 -5.5356,-0.925584 -8.188,-2.371649 -2.65251,-1.44616 -5.18953,-3.412995 -7.496,-5.495414 -4.61295,-4.164971 -8.30335,-8.792686 -10.14853,-10.643803 -1.60641,-1.611557 -4.08178,-2.532987 -6.55184,-3.058698 -2.3634,-0.502946 -4.64977,-0.617648 -6.22759,-0.643562 h -1.982163 z"
           fill="url(#c)"
           stroke-width="0.742977"
           id="path1496"
           style="fill:url(#linearGradient1510)" />
        <path
           d="M 1.852,4.3131 C 1.66878,4.3131 1.49466,4.350202 1.33628,4.41697 1.1779,4.483736 1.0352,4.58008 0.91564,4.69963 0.79608,4.81919 0.69922,4.96189 0.63246,5.12027 0.56569,5.27865 0.52911,5.45277 0.52911,5.63599 v 0.26458 c 0,-0.18322 0.03658,-0.35734 0.10335,-0.51572 C 0.69922,5.22647 0.79608,5.08377 0.91564,4.96421 1.0352,4.84465 1.1779,4.74831 1.33628,4.68155 1.49466,4.614785 1.66878,4.57768 1.852,4.57768 h 13.229 c 0.18322,0 0.35734,0.037103 0.51572,0.10387 0.15838,0.066765 0.30108,0.16311 0.42064,0.28266 0.11956,0.11956 0.21642,0.26226 0.28318,0.42064 0.06676,0.15838 0.10335,0.3325 0.10335,0.51572 V 5.63599 c 0,-0.18322 -0.03659,-0.35734 -0.10335,-0.51572 C 16.23377,4.96189 16.13692,4.81919 16.01736,4.69963 15.8978,4.58007 15.7551,4.48373 15.59672,4.41697 15.43834,4.350205 15.26422,4.3131 15.081,4.3131 Z"
           filter="url(#d)"
           opacity="0.1"
           stroke-width="0.047568"
           id="path1498"
           transform="matrix(13.948144,0,0,13.992854,35.908046,26.530145)" />
        <path
           d="m 61.7414,89.468601 c -2.555575,0 -4.984228,0.519165 -7.193335,1.453443 -2.209107,0.934259 -4.199647,2.282372 -5.867005,3.955498 -1.667642,1.672984 -3.018658,3.669765 -3.949839,5.885818 -0.931192,2.21589 -1.441542,4.65261 -1.441542,7.21639 v 111.0669 c 0,10.25521 8.229547,18.51112 18.452001,18.51112 h 184.51998 c 10.22248,0 18.452,-8.25591 18.452,-18.51112 v -111.0669 c 0,-2.56378 -0.51035,-5.00022 -1.44153,-7.21639 -0.93132,-2.216193 -2.2822,-4.213114 -3.94984,-5.885818 -1.66763,-1.672986 -3.65806,-3.021058 -5.86699,-3.955498 -2.20912,-0.934222 -4.63778,-1.453443 -7.19335,-1.453443 H 61.741959 Z"
           fill="url(#b)"
           stroke-width="0.66456"
           id="path1500"
           style="fill:url(#linearGradient1512)" />
        <path
           d="m 43.288843,219.04385 c 0.521479,10.09122 7.380801,18.51111 18.394811,18.51111 H 246.25943 c 11.06479,0 18.44502,-9.0125 18.44502,-18.51111 z"
           color="#000000"
           fill="url(#a)"
           stroke-width="3.81087"
           style="text-indent:0;text-transform:none;fill:url(#linearGradient1514)"
           id="path1502" />
        <path
           d="m 43.30014,219.04385 0.0046,3.7022 h 221.41288 l -0.005,-3.7022 H 43.286189 Z m 3.678964,11.10653 H 261.02732 c 0.7458,-1.02554 1.58687,-2.17295 2.11536,-3.7022 H 44.8124 c 0.648742,1.57977 1.292017,2.47755 2.166425,3.7022 z"
           color="#000000"
           fill="#12a327"
           opacity="0.25"
           stroke-width="1.33535"
           style="text-indent:0;text-transform:none"
           id="path1504" />
        <path
           d="m 61.740006,89.467202 c -2.555579,0 -4.98423,0.519164 -7.193337,1.453443 -2.209106,0.934245 -4.199506,2.28237 -5.867144,3.955219 -1.667641,1.672984 -3.018657,3.669765 -3.949838,5.885956 -0.931318,2.21617 -1.441541,4.65261 -1.441541,7.21639 v 3.70222 c 0,-2.56376 0.510238,-5.00034 1.441541,-7.21638 0.931251,-2.21622 2.282197,-4.21297 3.949838,-5.88596 1.667638,-1.672985 3.658038,-3.021057 5.867144,-3.955219 2.209107,-0.934246 4.637758,-1.453436 7.193337,-1.453436 H 246.26 c 2.55556,0 4.98423,0.519177 7.19334,1.453436 2.20908,0.934232 4.1995,2.282373 5.86714,3.955219 1.66763,1.67299 3.01865,3.66974 3.94984,5.88596 0.93117,2.21618 1.44152,4.65262 1.44152,7.21638 v -3.70222 c 0,-2.56378 -0.51035,-5.00022 -1.44152,-7.21639 -0.93132,-2.216191 -2.28235,-4.212972 -3.94984,-5.885956 -1.66764,-1.672988 -3.65806,-3.021058 -5.86714,-3.955219 -2.20911,-0.934237 -4.63778,-1.453443 -7.19334,-1.453443 z"
           fill="#6ae67c"
           stroke-width="0.664546"
           id="path1506" />
      </g>
      <g
         id="g1622"
         style="display:inline;enable-background:new"
         transform="matrix(0.08771931,0,0,0.08771931,369.49123,188.2807)">
        <g
           transform="matrix(13.948144,0,0,13.992854,24.836986,-521.40207)"
           filter="url(#e)"
           opacity="0.5"
           id="g1608">
          <g
             stroke-opacity="0.95294"
             id="g1602">
            <path
               transform="scale(0.26458)"
               d="m 10,155 c -2.77,0 -5,2.23 -5,5 v 40 c 0,2.77 2.23,5 5,5 h 50 c 2.77,0 5,-2.23 5,-5 v -36 c 0,-0.831 -0.3347,-1.5808 -0.87695,-2.123 -0.54225,-0.5422 -1.292,-0.87695 -2.123,-0.87695 h -31 c -0.75,0 -1.5,-0.25001 -2.2188,-0.64062 -0.71875,-0.39063 -1.4062,-0.92188 -2.0312,-1.4844 -1.25,-1.125 -2.25,-2.375 -2.75,-2.875 -0.43528,-0.43528 -1.1061,-0.68419 -1.7754,-0.82617 -0.64042,-0.13585 -1.26,-0.16683 -1.6875,-0.17383 h -0.53711 z"
               opacity="1"
               stroke-width="0.20101"
               id="path1596" />
            <path
               transform="scale(0.26458)"
               d="M 7.4004,165 C 6.0708,165 5,166.0708 5,167.4004 v 32.6 c 0,2.77 2.23,5 5,5 h 50 c 2.77,0 5,-2.23 5,-5 v -32.6 C 65,166.0708 63.9292,165 62.5996,165 Z"
               opacity="1"
               stroke-width="0.17979"
               id="path1598" />
            <path
               transform="scale(0.26458)"
               d="M 7.4004,165 C 6.0708,165 5,166.0708 5,167.4004 v 1 C 5,167.0708 6.0708,166 7.4004,166 h 55.199 c 1.3296,0 2.4004,1.0708 2.4004,2.4004 v -1 C 64.9998,166.0708 63.929,165 62.5994,165 Z"
               opacity="1"
               stroke-width="0.17979"
               id="path1600" />
          </g>
          <path
             d="m 1.3229,52.916 c 0.037387,0.72117 0.52916,1.3229 1.3188,1.3229 h 13.233 c 0.79328,0 1.3224,-0.64408 1.3224,-1.3229 z"
             color="#000000"
             opacity="0.5"
             stroke-width="0.27278"
             style="text-indent:0;text-transform:none"
             id="path1604" />
          <path
             d="m 1.3237,52.916 3.337e-4,0.26458 H 17.198034 L 17.1977,52.916 H 1.3226997 Z m 0.26376,0.79373 h 15.346 c 0.05347,-0.07329 0.11377,-0.15529 0.15166,-0.26458 h -15.653 c 0.046511,0.1129 0.09263,0.17706 0.15532,0.26458 z"
             color="#000000"
             opacity="0.15"
             stroke-width="0.095585"
             style="text-indent:0;text-transform:none"
             id="path1606" />
        </g>
        <path
           d="m 61.740006,52.444908 c -10.222314,0 -18.452,8.255926 -18.452,18.511148 V 219.04245 c 0,10.25506 8.229546,18.51111 18.452,18.51111 H 246.26 c 10.22232,0 18.45199,-8.25591 18.45199,-18.51111 V 85.763295 c 0,-3.076467 -1.2351,-5.852509 -3.23625,-7.859925 -2.00114,-2.007555 -4.76818,-3.246623 -7.8348,-3.246623 H 139.23966 c -2.76774,0 -5.5356,-0.925584 -8.188,-2.371649 -2.65251,-1.44616 -5.18953,-3.412995 -7.496,-5.495414 -4.61295,-4.164971 -8.30335,-8.792686 -10.14853,-10.643803 -1.60641,-1.611557 -4.08178,-2.532987 -6.55184,-3.058698 -2.3634,-0.502946 -4.64977,-0.617648 -6.22759,-0.643562 h -1.982163 z"
           fill="url(#c)"
           stroke-width="0.742977"
           id="path1610"
           style="fill:url(#linearGradient1630)" />
        <path
           d="M 1.852,4.3131 C 1.66878,4.3131 1.49466,4.350202 1.33628,4.41697 1.1779,4.483736 1.0352,4.58008 0.91564,4.69963 0.79608,4.81919 0.69922,4.96189 0.63246,5.12027 0.56569,5.27865 0.52911,5.45277 0.52911,5.63599 v 0.26458 c 0,-0.18322 0.03658,-0.35734 0.10335,-0.51572 C 0.69922,5.22647 0.79608,5.08377 0.91564,4.96421 1.0352,4.84465 1.1779,4.74831 1.33628,4.68155 1.49466,4.614785 1.66878,4.57768 1.852,4.57768 h 13.229 c 0.18322,0 0.35734,0.037103 0.51572,0.10387 0.15838,0.066765 0.30108,0.16311 0.42064,0.28266 0.11956,0.11956 0.21642,0.26226 0.28318,0.42064 0.06676,0.15838 0.10335,0.3325 0.10335,0.51572 V 5.63599 c 0,-0.18322 -0.03659,-0.35734 -0.10335,-0.51572 C 16.23377,4.96189 16.13692,4.81919 16.01736,4.69963 15.8978,4.58007 15.7551,4.48373 15.59672,4.41697 15.43834,4.350205 15.26422,4.3131 15.081,4.3131 Z"
           filter="url(#d)"
           opacity="0.1"
           stroke-width="0.047568"
           id="path1612"
           transform="matrix(13.948144,0,0,13.992854,35.908046,26.530145)" />
        <path
           d="m 61.7414,89.468601 c -2.555575,0 -4.984228,0.519165 -7.193335,1.453443 -2.209107,0.934259 -4.199647,2.282372 -5.867005,3.955498 -1.667642,1.672984 -3.018658,3.669765 -3.949839,5.885818 -0.931192,2.21589 -1.441542,4.65261 -1.441542,7.21639 v 111.0669 c 0,10.25521 8.229547,18.51112 18.452001,18.51112 h 184.51998 c 10.22248,0 18.452,-8.25591 18.452,-18.51112 v -111.0669 c 0,-2.56378 -0.51035,-5.00022 -1.44153,-7.21639 -0.93132,-2.216193 -2.2822,-4.213114 -3.94984,-5.885818 -1.66763,-1.672986 -3.65806,-3.021058 -5.86699,-3.955498 -2.20912,-0.934222 -4.63778,-1.453443 -7.19335,-1.453443 H 61.741959 Z"
           fill="url(#b)"
           stroke-width="0.66456"
           id="path1614"
           style="fill:url(#linearGradient1632)" />
        <path
           d="m 43.288843,219.04385 c 0.521479,10.09122 7.380801,18.51111 18.394811,18.51111 H 246.25943 c 11.06479,0 18.44502,-9.0125 18.44502,-18.51111 z"
           color="#000000"
           fill="url(#a)"
           stroke-width="3.81087"
           style="text-indent:0;text-transform:none;fill:url(#linearGradient1634)"
           id="path1616" />
        <path
           d="m 43.30014,219.04385 0.0046,3.7022 h 221.41288 l -0.005,-3.7022 H 43.286189 Z m 3.678964,11.10653 H 261.02732 c 0.7458,-1.02554 1.58687,-2.17295 2.11536,-3.7022 H 44.8124 c 0.648742,1.57977 1.292017,2.47755 2.166425,3.7022 z"
           color="#000000"
           fill="#12a327"
           opacity="0.25"
           stroke-width="1.33535"
           style="text-indent:0;text-transform:none"
           id="path1618" />
        <path
           d="m 61.740006,89.467202 c -2.555579,0 -4.98423,0.519164 -7.193337,1.453443 -2.209106,0.934245 -4.199506,2.28237 -5.867144,3.955219 -1.667641,1.672984 -3.018657,3.669765 -3.949838,5.885956 -0.931318,2.21617 -1.441541,4.65261 -1.441541,7.21639 v 3.70222 c 0,-2.56376 0.510238,-5.00034 1.441541,-7.21638 0.931251,-2.21622 2.282197,-4.21297 3.949838,-5.88596 1.667638,-1.672985 3.658038,-3.021057 5.867144,-3.955219 2.209107,-0.934246 4.637758,-1.453436 7.193337,-1.453436 H 246.26 c 2.55556,0 4.98423,0.519177 7.19334,1.453436 2.20908,0.934232 4.1995,2.282373 5.86714,3.955219 1.66763,1.67299 3.01865,3.66974 3.94984,5.88596 0.93117,2.21618 1.44152,4.65262 1.44152,7.21638 v -3.70222 c 0,-2.56378 -0.51035,-5.00022 -1.44152,-7.21639 -0.93132,-2.216191 -2.28235,-4.212972 -3.94984,-5.885956 -1.66764,-1.672988 -3.65806,-3.021058 -5.86714,-3.955219 -2.20911,-0.934237 -4.63778,-1.453443 -7.19334,-1.453443 z"
           fill="#6ae67c"
           stroke-width="0.664546"
           id="path1620" />
      </g>
      <g
         id="g1822"
         style="display:inline;enable-background:new"
         transform="matrix(0.09649125,0,0,0.09649125,317.14035,186.00877)">
        <g
           transform="matrix(13.948144,0,0,13.992854,24.836986,-521.40207)"
           filter="url(#e)"
           opacity="0.5"
           id="g1808">
          <g
             stroke-opacity="0.95294"
             id="g1802">
            <path
               transform="scale(0.26458)"
               d="m 10,155 c -2.77,0 -5,2.23 -5,5 v 40 c 0,2.77 2.23,5 5,5 h 50 c 2.77,0 5,-2.23 5,-5 v -36 c 0,-0.831 -0.3347,-1.5808 -0.87695,-2.123 -0.54225,-0.5422 -1.292,-0.87695 -2.123,-0.87695 h -31 c -0.75,0 -1.5,-0.25001 -2.2188,-0.64062 -0.71875,-0.39063 -1.4062,-0.92188 -2.0312,-1.4844 -1.25,-1.125 -2.25,-2.375 -2.75,-2.875 -0.43528,-0.43528 -1.1061,-0.68419 -1.7754,-0.82617 -0.64042,-0.13585 -1.26,-0.16683 -1.6875,-0.17383 h -0.53711 z"
               opacity="1"
               stroke-width="0.20101"
               id="path1796" />
            <path
               transform="scale(0.26458)"
               d="M 7.4004,165 C 6.0708,165 5,166.0708 5,167.4004 v 32.6 c 0,2.77 2.23,5 5,5 h 50 c 2.77,0 5,-2.23 5,-5 v -32.6 C 65,166.0708 63.9292,165 62.5996,165 Z"
               opacity="1"
               stroke-width="0.17979"
               id="path1798" />
            <path
               transform="scale(0.26458)"
               d="M 7.4004,165 C 6.0708,165 5,166.0708 5,167.4004 v 1 C 5,167.0708 6.0708,166 7.4004,166 h 55.199 c 1.3296,0 2.4004,1.0708 2.4004,2.4004 v -1 C 64.9998,166.0708 63.929,165 62.5994,165 Z"
               opacity="1"
               stroke-width="0.17979"
               id="path1800" />
          </g>
          <path
             d="m 1.3229,52.916 c 0.037387,0.72117 0.52916,1.3229 1.3188,1.3229 h 13.233 c 0.79328,0 1.3224,-0.64408 1.3224,-1.3229 z"
             color="#000000"
             opacity="0.5"
             stroke-width="0.27278"
             style="text-indent:0;text-transform:none"
             id="path1804" />
          <path
             d="m 1.3237,52.916 3.337e-4,0.26458 H 17.198034 L 17.1977,52.916 H 1.3226997 Z m 0.26376,0.79373 h 15.346 c 0.05347,-0.07329 0.11377,-0.15529 0.15166,-0.26458 h -15.653 c 0.046511,0.1129 0.09263,0.17706 0.15532,0.26458 z"
             color="#000000"
             opacity="0.15"
             stroke-width="0.095585"
             style="text-indent:0;text-transform:none"
             id="path1806" />
        </g>
        <path
           d="m 61.740006,52.444908 c -10.222314,0 -18.452,8.255926 -18.452,18.511148 V 219.04245 c 0,10.25506 8.229546,18.51111 18.452,18.51111 H 246.26 c 10.22232,0 18.45199,-8.25591 18.45199,-18.51111 V 85.763295 c 0,-3.076467 -1.2351,-5.852509 -3.23625,-7.859925 -2.00114,-2.007555 -4.76818,-3.246623 -7.8348,-3.246623 H 139.23966 c -2.76774,0 -5.5356,-0.925584 -8.188,-2.371649 -2.65251,-1.44616 -5.18953,-3.412995 -7.496,-5.495414 -4.61295,-4.164971 -8.30335,-8.792686 -10.14853,-10.643803 -1.60641,-1.611557 -4.08178,-2.532987 -6.55184,-3.058698 -2.3634,-0.502946 -4.64977,-0.617648 -6.22759,-0.643562 h -1.982163 z"
           fill="url(#c)"
           stroke-width="0.742977"
           id="path1810"
           style="fill:url(#linearGradient1824)" />
        <path
           d="M 1.852,4.3131 C 1.66878,4.3131 1.49466,4.350202 1.33628,4.41697 1.1779,4.483736 1.0352,4.58008 0.91564,4.69963 0.79608,4.81919 0.69922,4.96189 0.63246,5.12027 0.56569,5.27865 0.52911,5.45277 0.52911,5.63599 v 0.26458 c 0,-0.18322 0.03658,-0.35734 0.10335,-0.51572 C 0.69922,5.22647 0.79608,5.08377 0.91564,4.96421 1.0352,4.84465 1.1779,4.74831 1.33628,4.68155 1.49466,4.614785 1.66878,4.57768 1.852,4.57768 h 13.229 c 0.18322,0 0.35734,0.037103 0.51572,0.10387 0.15838,0.066765 0.30108,0.16311 0.42064,0.28266 0.11956,0.11956 0.21642,0.26226 0.28318,0.42064 0.06676,0.15838 0.10335,0.3325 0.10335,0.51572 V 5.63599 c 0,-0.18322 -0.03659,-0.35734 -0.10335,-0.51572 C 16.23377,4.96189 16.13692,4.81919 16.01736,4.69963 15.8978,4.58007 15.7551,4.48373 15.59672,4.41697 15.43834,4.350205 15.26422,4.3131 15.081,4.3131 Z"
           filter="url(#d)"
           opacity="0.1"
           stroke-width="0.047568"
           id="path1812"
           transform="matrix(13.948144,0,0,13.992854,35.908046,26.530145)" />
        <path
           d="m 61.7414,89.468601 c -2.555575,0 -4.984228,0.519165 -7.193335,1.453443 -2.209107,0.934259 -4.199647,2.282372 -5.867005,3.955498 -1.667642,1.672984 -3.018658,3.669765 -3.949839,5.885818 -0.931192,2.21589 -1.441542,4.65261 -1.441542,7.21639 v 111.0669 c 0,10.25521 8.229547,18.51112 18.452001,18.51112 h 184.51998 c 10.22248,0 18.452,-8.25591 18.452,-18.51112 v -111.0669 c 0,-2.56378 -0.51035,-5.00022 -1.44153,-7.21639 -0.93132,-2.216193 -2.2822,-4.213114 -3.94984,-5.885818 -1.66763,-1.672986 -3.65806,-3.021058 -5.86699,-3.955498 -2.20912,-0.934222 -4.63778,-1.453443 -7.19335,-1.453443 H 61.741959 Z"
           fill="url(#b)"
           stroke-width="0.66456"
           id="path1814"
           style="fill:url(#linearGradient1826)" />
        <path
           d="m 43.288843,219.04385 c 0.521479,10.09122 7.380801,18.51111 18.394811,18.51111 H 246.25943 c 11.06479,0 18.44502,-9.0125 18.44502,-18.51111 z"
           color="#000000"
           fill="url(#a)"
           stroke-width="3.81087"
           style="text-indent:0;text-transform:none;fill:url(#linearGradient1828)"
           id="path1816" />
        <path
           d="m 43.30014,219.04385 0.0046,3.7022 h 221.41288 l -0.005,-3.7022 H 43.286189 Z m 3.678964,11.10653 H 261.02732 c 0.7458,-1.02554 1.58687,-2.17295 2.11536,-3.7022 H 44.8124 c 0.648742,1.57977 1.292017,2.47755 2.166425,3.7022 z"
           color="#000000"
           fill="#12a327"
           opacity="0.25"
           stroke-width="1.33535"
           style="text-indent:0;text-transform:none"
           id="path1818" />
        <path
           d="m 61.740006,89.467202 c -2.555579,0 -4.98423,0.519164 -7.193337,1.453443 -2.209106,0.934245 -4.199506,2.28237 -5.867144,3.955219 -1.667641,1.672984 -3.018657,3.669765 -3.949838,5.885956 -0.931318,2.21617 -1.441541,4.65261 -1.441541,7.21639 v 3.70222 c 0,-2.56376 0.510238,-5.00034 1.441541,-7.21638 0.931251,-2.21622 2.282197,-4.21297 3.949838,-5.88596 1.667638,-1.672985 3.658038,-3.021057 5.867144,-3.955219 2.209107,-0.934246 4.637758,-1.453436 7.193337,-1.453436 H 246.26 c 2.55556,0 4.98423,0.519177 7.19334,1.453436 2.20908,0.934232 4.1995,2.282373 5.86714,3.955219 1.66763,1.67299 3.01865,3.66974 3.94984,5.88596 0.93117,2.21618 1.44152,4.65262 1.44152,7.21638 v -3.70222 c 0,-2.56378 -0.51035,-5.00022 -1.44152,-7.21639 -0.93132,-2.216191 -2.28235,-4.212972 -3.94984,-5.885956 -1.66764,-1.672988 -3.65806,-3.021058 -5.86714,-3.955219 -2.20911,-0.934237 -4.63778,-1.453443 -7.19334,-1.453443 z"
           fill="#6ae67c"
           stroke-width="0.664546"
           id="path1820" />
      </g>
      <g
         id="g1936"
         style="display:inline;enable-background:new"
         transform="matrix(0.07017545,0,0,0.07017545,317.19298,233.82456)">
        <g
           transform="matrix(13.948144,0,0,13.992854,24.836986,-521.40207)"
           filter="url(#e)"
           opacity="0.5"
           id="g1922">
          <g
             stroke-opacity="0.95294"
             id="g1916">
            <path
               transform="scale(0.26458)"
               d="m 10,155 c -2.77,0 -5,2.23 -5,5 v 40 c 0,2.77 2.23,5 5,5 h 50 c 2.77,0 5,-2.23 5,-5 v -36 c 0,-0.831 -0.3347,-1.5808 -0.87695,-2.123 -0.54225,-0.5422 -1.292,-0.87695 -2.123,-0.87695 h -31 c -0.75,0 -1.5,-0.25001 -2.2188,-0.64062 -0.71875,-0.39063 -1.4062,-0.92188 -2.0312,-1.4844 -1.25,-1.125 -2.25,-2.375 -2.75,-2.875 -0.43528,-0.43528 -1.1061,-0.68419 -1.7754,-0.82617 -0.64042,-0.13585 -1.26,-0.16683 -1.6875,-0.17383 h -0.53711 z"
               opacity="1"
               stroke-width="0.20101"
               id="path1910" />
            <path
               transform="scale(0.26458)"
               d="M 7.4004,165 C 6.0708,165 5,166.0708 5,167.4004 v 32.6 c 0,2.77 2.23,5 5,5 h 50 c 2.77,0 5,-2.23 5,-5 v -32.6 C 65,166.0708 63.9292,165 62.5996,165 Z"
               opacity="1"
               stroke-width="0.17979"
               id="path1912" />
            <path
               transform="scale(0.26458)"
               d="M 7.4004,165 C 6.0708,165 5,166.0708 5,167.4004 v 1 C 5,167.0708 6.0708,166 7.4004,166 h 55.199 c 1.3296,0 2.4004,1.0708 2.4004,2.4004 v -1 C 64.9998,166.0708 63.929,165 62.5994,165 Z"
               opacity="1"
               stroke-width="0.17979"
               id="path1914" />
          </g>
          <path
             d="m 1.3229,52.916 c 0.037387,0.72117 0.52916,1.3229 1.3188,1.3229 h 13.233 c 0.79328,0 1.3224,-0.64408 1.3224,-1.3229 z"
             color="#000000"
             opacity="0.5"
             stroke-width="0.27278"
             style="text-indent:0;text-transform:none"
             id="path1918" />
          <path
             d="m 1.3237,52.916 3.337e-4,0.26458 H 17.198034 L 17.1977,52.916 H 1.3226997 Z m 0.26376,0.79373 h 15.346 c 0.05347,-0.07329 0.11377,-0.15529 0.15166,-0.26458 h -15.653 c 0.046511,0.1129 0.09263,0.17706 0.15532,0.26458 z"
             color="#000000"
             opacity="0.15"
             stroke-width="0.095585"
             style="text-indent:0;text-transform:none"
             id="path1920" />
        </g>
        <path
           d="m 61.740006,52.444908 c -10.222314,0 -18.452,8.255926 -18.452,18.511148 V 219.04245 c 0,10.25506 8.229546,18.51111 18.452,18.51111 H 246.26 c 10.22232,0 18.45199,-8.25591 18.45199,-18.51111 V 85.763295 c 0,-3.076467 -1.2351,-5.852509 -3.23625,-7.859925 -2.00114,-2.007555 -4.76818,-3.246623 -7.8348,-3.246623 H 139.23966 c -2.76774,0 -5.5356,-0.925584 -8.188,-2.371649 -2.65251,-1.44616 -5.18953,-3.412995 -7.496,-5.495414 -4.61295,-4.164971 -8.30335,-8.792686 -10.14853,-10.643803 -1.60641,-1.611557 -4.08178,-2.532987 -6.55184,-3.058698 -2.3634,-0.502946 -4.64977,-0.617648 -6.22759,-0.643562 h -1.982163 z"
           fill="url(#c)"
           stroke-width="0.742977"
           id="path1924"
           style="fill:url(#linearGradient1938)" />
        <path
           d="M 1.852,4.3131 C 1.66878,4.3131 1.49466,4.350202 1.33628,4.41697 1.1779,4.483736 1.0352,4.58008 0.91564,4.69963 0.79608,4.81919 0.69922,4.96189 0.63246,5.12027 0.56569,5.27865 0.52911,5.45277 0.52911,5.63599 v 0.26458 c 0,-0.18322 0.03658,-0.35734 0.10335,-0.51572 C 0.69922,5.22647 0.79608,5.08377 0.91564,4.96421 1.0352,4.84465 1.1779,4.74831 1.33628,4.68155 1.49466,4.614785 1.66878,4.57768 1.852,4.57768 h 13.229 c 0.18322,0 0.35734,0.037103 0.51572,0.10387 0.15838,0.066765 0.30108,0.16311 0.42064,0.28266 0.11956,0.11956 0.21642,0.26226 0.28318,0.42064 0.06676,0.15838 0.10335,0.3325 0.10335,0.51572 V 5.63599 c 0,-0.18322 -0.03659,-0.35734 -0.10335,-0.51572 C 16.23377,4.96189 16.13692,4.81919 16.01736,4.69963 15.8978,4.58007 15.7551,4.48373 15.59672,4.41697 15.43834,4.350205 15.26422,4.3131 15.081,4.3131 Z"
           filter="url(#d)"
           opacity="0.1"
           stroke-width="0.047568"
           id="path1926"
           transform="matrix(13.948144,0,0,13.992854,35.908046,26.530145)" />
        <path
           d="m 61.7414,89.468601 c -2.555575,0 -4.984228,0.519165 -7.193335,1.453443 -2.209107,0.934259 -4.199647,2.282372 -5.867005,3.955498 -1.667642,1.672984 -3.018658,3.669765 -3.949839,5.885818 -0.931192,2.21589 -1.441542,4.65261 -1.441542,7.21639 v 111.0669 c 0,10.25521 8.229547,18.51112 18.452001,18.51112 h 184.51998 c 10.22248,0 18.452,-8.25591 18.452,-18.51112 v -111.0669 c 0,-2.56378 -0.51035,-5.00022 -1.44153,-7.21639 -0.93132,-2.216193 -2.2822,-4.213114 -3.94984,-5.885818 -1.66763,-1.672986 -3.65806,-3.021058 -5.86699,-3.955498 -2.20912,-0.934222 -4.63778,-1.453443 -7.19335,-1.453443 H 61.741959 Z"
           fill="url(#b)"
           stroke-width="0.66456"
           id="path1928"
           style="fill:url(#linearGradient1940)" />
        <path
           d="m 43.288843,219.04385 c 0.521479,10.09122 7.380801,18.51111 18.394811,18.51111 H 246.25943 c 11.06479,0 18.44502,-9.0125 18.44502,-18.51111 z"
           color="#000000"
           fill="url(#a)"
           stroke-width="3.81087"
           style="text-indent:0;text-transform:none;fill:url(#linearGradient1942)"
           id="path1930" />
        <path
           d="m 43.30014,219.04385 0.0046,3.7022 h 221.41288 l -0.005,-3.7022 H 43.286189 Z m 3.678964,11.10653 H 261.02732 c 0.7458,-1.02554 1.58687,-2.17295 2.11536,-3.7022 H 44.8124 c 0.648742,1.57977 1.292017,2.47755 2.166425,3.7022 z"
           color="#000000"
           fill="#12a327"
           opacity="0.25"
           stroke-width="1.33535"
           style="text-indent:0;text-transform:none"
           id="path1932" />
        <path
           d="m 61.740006,89.467202 c -2.555579,0 -4.98423,0.519164 -7.193337,1.453443 -2.209106,0.934245 -4.199506,2.28237 -5.867144,3.955219 -1.667641,1.672984 -3.018657,3.669765 -3.949838,5.885956 -0.931318,2.21617 -1.441541,4.65261 -1.441541,7.21639 v 3.70222 c 0,-2.56376 0.510238,-5.00034 1.441541,-7.21638 0.931251,-2.21622 2.282197,-4.21297 3.949838,-5.88596 1.667638,-1.672985 3.658038,-3.021057 5.867144,-3.955219 2.209107,-0.934246 4.637758,-1.453436 7.193337,-1.453436 H 246.26 c 2.55556,0 4.98423,0.519177 7.19334,1.453436 2.20908,0.934232 4.1995,2.282373 5.86714,3.955219 1.66763,1.67299 3.01865,3.66974 3.94984,5.88596 0.93117,2.21618 1.44152,4.65262 1.44152,7.21638 v -3.70222 c 0,-2.56378 -0.51035,-5.00022 -1.44152,-7.21639 -0.93132,-2.216191 -2.28235,-4.212972 -3.94984,-5.885956 -1.66764,-1.672988 -3.65806,-3.021058 -5.86714,-3.955219 -2.20911,-0.934237 -4.63778,-1.453443 -7.19334,-1.453443 z"
           fill="#6ae67c"
           stroke-width="0.664546"
           id="path1934" />
      </g>
    </g>
    <g
       inkscape:groupmode="layer"
       id="layer3"
       inkscape:label="Emblems"
       style="display:inline"
       sodipodi:insensitive="true">
      <circle
         style="display:inline;vector-effect:none;fill:#0f8420;fill-opacity:1;stroke:none;stroke-width:4.5;stroke-linecap:butt;stroke-linejoin:round;stroke-miterlimit:4;stroke-dasharray:none;stroke-dashoffset:0;stroke-opacity:1;enable-background:new"
         id="path2644-5-3"
         cy="207.49998"
         cx="389.5"
         r="4.5" />
      <path
         inkscape:connector-curvature="0"
         id="path1063-0-6"
         overflow="visible"
         font-weight="400"
         style="color:#000000;font-weight:400;line-height:normal;font-family:sans-serif;text-indent:0;text-align:start;text-decoration:none;text-decoration-line:none;text-decoration-style:solid;text-decoration-color:#000000;text-transform:none;white-space:normal;display:inline;overflow:visible;isolation:auto;mix-blend-mode:normal;fill:#ffffff;fill-opacity:1;marker:none;enable-background:new"
         d="m 389,204.99999 v 2 h -2 v 1 h 2 v 2 h 1 v -2 h 2 v -1 h -2 v -2 z" />
      <circle
         style="display:inline;vector-effect:none;fill:#0f8420;fill-opacity:1;stroke:none;stroke-width:3.5;stroke-linecap:butt;stroke-linejoin:round;stroke-miterlimit:4;stroke-dasharray:none;stroke-dashoffset:0;stroke-opacity:1;enable-background:new"
         id="path2644"
         cy="248.49998"
         cx="332.5"
         r="3.5" />
      <path
         inkscape:connector-curvature="0"
         id="path1063"
         overflow="visible"
         font-weight="400"
         style="color:#000000;font-weight:400;line-height:normal;font-family:sans-serif;text-indent:0;text-align:start;text-decoration:none;text-decoration-line:none;text-decoration-style:solid;text-decoration-color:#000000;text-transform:none;white-space:normal;display:inline;overflow:visible;isolation:auto;mix-blend-mode:normal;fill:#ffffff;fill-opacity:1;marker:none;enable-background:new"
         d="m 332,245.99999 v 2 h -2 v 1 h 2 v 2 h 1 v -2 h 2 v -1 h -2 v -2 z" />
      <circle
         style="display:inline;opacity:0.2;vector-effect:none;fill:#000000;fill-opacity:1;stroke:none;stroke-width:34;stroke-linecap:butt;stroke-linejoin:round;stroke-miterlimit:4;stroke-dasharray:none;stroke-dashoffset:0;stroke-opacity:1;filter:url(#filter11348);enable-background:new"
         id="path2644-5-5-7-5-9"
         cy="244.00002"
         cx="238"
         r="34" />
      <circle
         style="display:inline;vector-effect:none;fill:#0f8420;fill-opacity:1;stroke:none;stroke-width:4.5;stroke-linecap:butt;stroke-linejoin:round;stroke-miterlimit:4;stroke-dasharray:none;stroke-dashoffset:0;stroke-opacity:1;enable-background:new"
         id="path2644-5-3-6"
         cy="207.50002"
         cx="389.5"
         r="4.5" />
      <path
         inkscape:connector-curvature="0"
         id="path1063-0-6-2"
         overflow="visible"
         font-weight="400"
         style="color:#000000;font-weight:400;line-height:normal;font-family:sans-serif;text-indent:0;text-align:start;text-decoration:none;text-decoration-line:none;text-decoration-style:solid;text-decoration-color:#000000;text-transform:none;white-space:normal;display:inline;overflow:visible;isolation:auto;mix-blend-mode:normal;fill:#ffffff;fill-opacity:1;marker:none;enable-background:new"
         d="m 389.00001,204.99999 v 2 h -2 v 1 h 2 v 2 h 1 v -2 h 2 v -1 h -2 v -2 z" />
      <circle
         style="display:inline;vector-effect:none;fill:#0f8420;fill-opacity:1;stroke:none;stroke-width:4.5;stroke-linecap:butt;stroke-linejoin:round;stroke-miterlimit:4;stroke-dasharray:none;stroke-dashoffset:0;stroke-opacity:1;enable-background:new"
         id="path2644-5"
         cy="207.50002"
         cx="339.5"
         r="4.5" />
      <path
         inkscape:connector-curvature="0"
         id="path1063-0"
         overflow="visible"
         font-weight="400"
         style="color:#000000;font-weight:400;line-height:normal;font-family:sans-serif;text-indent:0;text-align:start;text-decoration:none;text-decoration-line:none;text-decoration-style:solid;text-decoration-color:#000000;text-transform:none;white-space:normal;display:inline;overflow:visible;isolation:auto;mix-blend-mode:normal;fill:#ffffff;fill-opacity:1;marker:none;enable-background:new"
         d="m 339.00001,204.99999 v 2 h -2 v 1 h 2 v 2 h 1 v -2 h 2 v -1 h -2 v -2 z" />
      <circle
         style="display:inline;vector-effect:none;fill:#0f8420;fill-opacity:1;stroke:none;stroke-width:3.5;stroke-linecap:butt;stroke-linejoin:round;stroke-miterlimit:4;stroke-dasharray:none;stroke-dashoffset:0;stroke-opacity:1;enable-background:new"
         id="path2644-9"
         cy="248.50002"
         cx="332.50003"
         r="3.5" />
      <path
         inkscape:connector-curvature="0"
         id="path1063-1"
         overflow="visible"
         font-weight="400"
         style="color:#000000;font-weight:400;line-height:normal;font-family:sans-serif;text-indent:0;text-align:start;text-decoration:none;text-decoration-line:none;text-decoration-style:solid;text-decoration-color:#000000;text-transform:none;white-space:normal;display:inline;overflow:visible;isolation:auto;mix-blend-mode:normal;fill:#ffffff;fill-opacity:1;marker:none;enable-background:new"
         d="m 332.00001,245.99999 v 2 h -2 v 1 h 2 v 2 h 1 v -2 h 2 v -1 h -2 v -2 z" />
      <circle
         style="display:inline;vector-effect:none;fill:#0f8420;fill-opacity:1;stroke:none;stroke-width:4.5;stroke-linecap:butt;stroke-linejoin:round;stroke-miterlimit:4;stroke-dasharray:none;stroke-dashoffset:0;stroke-opacity:1;enable-background:new"
         id="path2644-5-5"
         cy="159.49998"
         cx="347.5"
         r="4.5" />
      <path
         inkscape:connector-curvature="0"
         id="path1063-0-4"
         overflow="visible"
         font-weight="400"
         style="color:#000000;font-weight:400;line-height:normal;font-family:sans-serif;text-indent:0;text-align:start;text-decoration:none;text-decoration-line:none;text-decoration-style:solid;text-decoration-color:#000000;text-transform:none;white-space:normal;display:inline;overflow:visible;isolation:auto;mix-blend-mode:normal;fill:#ffffff;fill-opacity:1;marker:none;enable-background:new"
         d="m 347.00001,156.99999 v 2 h -2 v 1 h 2 v 2 h 1 v -2 h 2 v -1 h -2 v -2 z"
         sodipodi:nodetypes="ccccccccccccc" />
      <circle
         style="display:inline;vector-effect:none;fill:#0f8420;fill-opacity:1;stroke:none;stroke-width:6.5;stroke-linecap:butt;stroke-linejoin:round;stroke-miterlimit:4;stroke-dasharray:none;stroke-dashoffset:0;stroke-opacity:1;enable-background:new"
         id="path2644-5-5-7"
         cy="101.5"
         cx="361.5"
         r="6.5" />
      <path
         inkscape:connector-curvature="0"
         id="path1063-0-4-6"
         overflow="visible"
         font-weight="400"
         style="color:#000000;font-weight:400;line-height:normal;font-family:sans-serif;text-indent:0;text-align:start;text-decoration:none;text-decoration-line:none;text-decoration-style:solid;text-decoration-color:#000000;text-transform:none;white-space:normal;display:inline;overflow:visible;isolation:auto;mix-blend-mode:normal;fill:#ffffff;fill-opacity:1;marker:none;enable-background:new"
         d="m 360.99998,98.000004 v 2.999986 h -3 v 1 h 3 v 3 h 1 v -3 h 3 v -1 h -3 v -2.999986 z"
         sodipodi:nodetypes="ccccccccccccc" />
      <circle
         style="display:inline;vector-effect:none;fill:#0f8420;fill-opacity:1;stroke:none;stroke-width:34;stroke-linecap:butt;stroke-linejoin:round;stroke-miterlimit:4;stroke-dasharray:none;stroke-dashoffset:0;stroke-opacity:1;enable-background:new"
         id="path2644-5-5-7-5"
         cy="242.00002"
         cx="238"
         r="34" />
      <path
         inkscape:connector-curvature="0"
         id="path1063-0-4-6-6"
         overflow="visible"
         font-weight="400"
         style="color:#000000;font-weight:400;line-height:normal;font-family:sans-serif;text-indent:0;text-align:start;text-decoration:none;text-decoration-line:none;text-decoration-style:solid;text-decoration-color:#000000;text-transform:none;white-space:normal;display:inline;overflow:visible;isolation:auto;mix-blend-mode:normal;fill:#ffffff;fill-opacity:1;stroke-width:6;marker:none;enable-background:new"
         d="m 236.00001,219.99999 v 20 h -20 v 4 h 20 v 20 h 4 v -20 h 20 v -4 h -20 v -20 z"
         sodipodi:nodetypes="ccccccccccccc" />
    </g>
  </g>
</svg>
