<?xml version="1.0" encoding="UTF-8" standalone="no"?>
<svg
   inkscape:export-ydpi="90.000000"
   inkscape:export-xdpi="90.000000"
   width="400"
   height="300"
   id="svg11300"
   sodipodi:version="0.32"
   inkscape:version="1.2.2 (b0a8486541, 2022-12-01)"
   sodipodi:docname="format-text-bold.svg"
   inkscape:output_extension="org.inkscape.output.svg.inkscape"
   version="1.0"
   style="display:inline;enable-background:new"
   inkscape:export-filename="/home/sam/suru-template.png"
   xmlns:inkscape="http://www.inkscape.org/namespaces/inkscape"
   xmlns:sodipodi="http://sodipodi.sourceforge.net/DTD/sodipodi-0.dtd"
   xmlns:xlink="http://www.w3.org/1999/xlink"
   xmlns="http://www.w3.org/2000/svg"
   xmlns:svg="http://www.w3.org/2000/svg"
   xmlns:rdf="http://www.w3.org/1999/02/22-rdf-syntax-ns#"
   xmlns:cc="http://creativecommons.org/ns#"
   xmlns:dc="http://purl.org/dc/elements/1.1/">
  <title
     id="title3004">Suru Icon Theme Template</title>
  <sodipodi:namedview
     stroke="#ef2929"
     fill="#f57900"
     id="base"
     pagecolor="#ffffff"
     bordercolor="#000000"
     borderopacity="0.25490196"
     inkscape:pageopacity="0"
     inkscape:pageshadow="2"
     inkscape:zoom="1"
     inkscape:cx="168"
     inkscape:cy="131"
     inkscape:current-layer="layer7"
     showgrid="false"
     inkscape:grid-bbox="true"
     inkscape:document-units="px"
     inkscape:showpageshadow="false"
     inkscape:window-width="1920"
     inkscape:window-height="1020"
     inkscape:window-x="0"
     inkscape:window-y="32"
     width="400px"
     height="300px"
     inkscape:snap-nodes="true"
     inkscape:snap-bbox="true"
     gridtolerance="10000"
     inkscape:object-nodes="true"
     inkscape:snap-grids="true"
     showguides="true"
     inkscape:guide-bbox="true"
     inkscape:window-maximized="1"
     inkscape:bbox-paths="true"
     inkscape:snap-bbox-midpoints="true"
     inkscape:snap-global="true"
     inkscape:object-paths="true"
     inkscape:snap-intersection-paths="true"
     inkscape:snap-smooth-nodes="true"
     inkscape:pagecheckerboard="false"
     showborder="false"
     inkscape:bbox-nodes="true"
     inkscape:document-rotation="0"
     inkscape:deskcolor="#d1d1d1">
    <inkscape:grid
       spacingy="1"
       spacingx="1"
       id="grid5883"
       type="xygrid"
       enabled="true"
       visible="true"
       empspacing="4"
       snapvisiblegridlinesonly="true"
       originx="0"
       originy="0" />
    <inkscape:grid
       type="xygrid"
       id="grid11592"
       empspacing="2"
       visible="true"
       enabled="false"
       spacingx="0.5"
       spacingy="0.5"
       color="#ff0000"
       opacity="0.1254902"
       empcolor="#ff0000"
       empopacity="0.25098039"
       snapvisiblegridlinesonly="true"
       originx="0"
       originy="0" />
  </sodipodi:namedview>
  <defs
     id="defs3">
    <linearGradient
       inkscape:collect="always"
       xlink:href="#linearGradient836"
       id="linearGradient838"
       x1="15"
       y1="4"
       x2="15"
       y2="28"
       gradientUnits="userSpaceOnUse"
       gradientTransform="translate(320,132.00019)" />
    <linearGradient
       inkscape:collect="always"
       id="linearGradient836">
      <stop
         style="stop-color:#151515;stop-opacity:1"
         offset="0"
         id="stop832" />
      <stop
         style="stop-color:#4d4d4d;stop-opacity:1"
         offset="1"
         id="stop834" />
    </linearGradient>
    <linearGradient
       inkscape:collect="always"
       xlink:href="#linearGradient836"
       id="linearGradient1737"
       gradientUnits="userSpaceOnUse"
       gradientTransform="matrix(0.75,0,0,0.75,319.75,188)"
       x1="15"
       y1="4"
       x2="15"
       y2="28" />
    <linearGradient
       inkscape:collect="always"
       xlink:href="#linearGradient836"
       id="linearGradient1865"
       gradientUnits="userSpaceOnUse"
       gradientTransform="matrix(0.75,0,0,0.75,363.75,189)"
       x1="15"
       y1="4"
       x2="15"
       y2="28" />
    <linearGradient
       inkscape:collect="always"
       xlink:href="#linearGradient836"
       id="linearGradient2010"
       gradientUnits="userSpaceOnUse"
       gradientTransform="matrix(0.5,0,0,0.5,320.5,236)"
       x1="15"
       y1="4"
       x2="15"
       y2="28" />
    <linearGradient
       inkscape:collect="always"
       xlink:href="#linearGradient836"
       id="linearGradient2073"
       gradientUnits="userSpaceOnUse"
       gradientTransform="matrix(1.6071428,0,0,1.5833333,317.75,58.666667)"
       x1="15"
       y1="4"
       x2="15"
       y2="28" />
    <linearGradient
       inkscape:collect="always"
       xlink:href="#linearGradient836"
       id="linearGradient2139"
       gradientUnits="userSpaceOnUse"
       gradientTransform="matrix(8.7368421,0,0,8.5833333,7.84211,18.666663)"
       x1="15"
       y1="4"
       x2="15"
       y2="28" />
  </defs>
  <metadata
     id="metadata4">
    <rdf:RDF>
      <cc:Work
         rdf:about="">
        <dc:format>image/svg+xml</dc:format>
        <dc:type
           rdf:resource="http://purl.org/dc/dcmitype/StillImage" />
        <dc:creator>
          <cc:Agent>
            <dc:title>Sam Hewitt</dc:title>
          </cc:Agent>
        </dc:creator>
        <dc:source />
        <cc:license
           rdf:resource="http://creativecommons.org/licenses/by-sa/4.0/" />
        <dc:title>Suru Icon Theme Template</dc:title>
        <dc:subject>
          <rdf:Bag />
        </dc:subject>
        <dc:date />
        <dc:rights>
          <cc:Agent>
            <dc:title />
          </cc:Agent>
        </dc:rights>
        <dc:publisher>
          <cc:Agent>
            <dc:title />
          </cc:Agent>
        </dc:publisher>
        <dc:identifier />
        <dc:relation />
        <dc:language />
        <dc:coverage />
        <dc:description />
        <dc:contributor>
          <cc:Agent>
            <dc:title />
          </cc:Agent>
        </dc:contributor>
      </cc:Work>
      <cc:Work
         rdf:about="">
        <dc:format>image/svg+xml</dc:format>
        <dc:type
           rdf:resource="http://purl.org/dc/dcmitype/StillImage" />
      </cc:Work>
      <cc:License
         rdf:about="http://creativecommons.org/licenses/by-sa/4.0/">
        <cc:permits
           rdf:resource="http://creativecommons.org/ns#Reproduction" />
        <cc:permits
           rdf:resource="http://creativecommons.org/ns#Distribution" />
        <cc:requires
           rdf:resource="http://creativecommons.org/ns#Notice" />
        <cc:requires
           rdf:resource="http://creativecommons.org/ns#Attribution" />
        <cc:permits
           rdf:resource="http://creativecommons.org/ns#DerivativeWorks" />
        <cc:requires
           rdf:resource="http://creativecommons.org/ns#ShareAlike" />
      </cc:License>
    </rdf:RDF>
  </metadata>
  <g
     style="display:inline"
     inkscape:groupmode="layer"
     inkscape:label="Icon"
     id="layer1">
    <g
       style="display:none;opacity:1"
       inkscape:label="Baseplate"
       id="layer7"
       inkscape:groupmode="layer">
      <text
         y="-8.2548828"
         xml:space="preserve"
         x="19.006836"
         style="font-style:normal;font-variant:normal;font-weight:normal;font-stretch:normal;line-height:0%;font-family:'DejaVu Sans';-inkscape-font-specification:'DejaVu Sans';display:inline;fill:#000000;fill-opacity:1;stroke:none;enable-background:new"
         inkscape:label="context"
         id="context"><tspan
           style="font-style:normal;font-variant:normal;font-weight:normal;font-stretch:normal;font-size:18px;line-height:1.25;font-family:'DejaVu Sans';-inkscape-font-specification:'DejaVu Sans'"
           y="-8.2548828"
           x="19.006836"
           sodipodi:role="line"
           id="tspan3933">actions</tspan></text>
      <text
         y="-8.2548828"
         xml:space="preserve"
         x="146.48828"
         style="font-style:normal;font-variant:normal;font-weight:bold;font-stretch:normal;line-height:0%;font-family:'DejaVu Sans';-inkscape-font-specification:'DejaVu Sans Bold';text-align:start;writing-mode:lr-tb;text-anchor:start;display:inline;fill:#000000;fill-opacity:1;stroke:none;enable-background:new"
         inkscape:label="icon-name"
         id="icon-name"><tspan
           style="font-style:normal;font-variant:normal;font-weight:bold;font-stretch:normal;font-size:18px;line-height:1.25;font-family:'DejaVu Sans';-inkscape-font-specification:'DejaVu Sans Bold'"
           y="-8.2548828"
           x="146.48828"
           sodipodi:role="line"
           id="tspan3937">format-text-bold</tspan></text>
      <rect
         style="display:inline;overflow:visible;visibility:visible;fill:#cdcdcd;fill-opacity:1;fill-rule:nonzero;stroke:none;stroke-width:2;marker:none;enable-background:accumulate"
         id="rect16x16"
         width="16"
         height="16"
         x="320"
         y="236"
         inkscape:label="16x16"
         inkscape:export-filename="/home/stuart/yaru/icons/Suru/16x16/legacy/document-revert.png"
         inkscape:export-xdpi="96"
         inkscape:export-ydpi="96" />
      <rect
         style="display:inline;enable-background:accumulate;opacity:1;overflow:visible;visibility:visible;fill:#cdcdcd;fill-opacity:1;fill-rule:nonzero;stroke:none;stroke-width:1.83333;marker:none"
         id="rect22x22"
         width="22"
         height="22"
         x="364"
         y="190"
         inkscape:label="22x22"
         inkscape:export-filename="/home/stuart/yaru/icons/Suru/22x22/legacy/document-revert.png"
         inkscape:export-xdpi="96"
         inkscape:export-ydpi="96" />
      <rect
         style="display:inline;overflow:visible;visibility:visible;fill:#cdcdcd;fill-opacity:1;fill-rule:nonzero;stroke:none;stroke-width:2;marker:none;enable-background:accumulate"
         id="rect24x24"
         width="24"
         height="24"
         x="320"
         y="188"
         inkscape:label="24x24"
         inkscape:export-filename="/home/stuart/yaru/icons/Suru/24x24/legacy/document-revert.png"
         inkscape:export-xdpi="96"
         inkscape:export-ydpi="96" />
      <rect
         style="display:inline;overflow:visible;visibility:visible;fill:#cdcdcd;fill-opacity:1;fill-rule:nonzero;stroke:none;stroke-width:2;marker:none;enable-background:accumulate"
         id="rect32x32"
         width="32"
         height="32"
         x="320"
         y="132"
         inkscape:label="32x32"
         inkscape:export-filename="/home/stuart/yaru/icons/Suru/32x32/legacy/document-revert.png"
         inkscape:export-xdpi="96"
         inkscape:export-ydpi="96" />
      <rect
         inkscape:label="48x48"
         y="60"
         x="320"
         height="48"
         width="48"
         id="rect48x48"
         style="display:inline;overflow:visible;visibility:visible;fill:#cdcdcd;fill-opacity:1;fill-rule:nonzero;stroke:none;stroke-width:2;marker:none;enable-background:accumulate"
         inkscape:export-filename="/home/stuart/yaru/icons/Suru/48x48/legacy/document-revert.png"
         inkscape:export-xdpi="96"
         inkscape:export-ydpi="96" />
      <rect
         style="display:inline;overflow:visible;visibility:visible;fill:#cdcdcd;fill-opacity:1;fill-rule:nonzero;stroke:none;stroke-width:2;marker:none;enable-background:accumulate"
         id="rect256x256"
         width="256"
         height="256"
         x="24"
         y="28"
         inkscape:label="256x256"
         inkscape:export-filename="/home/stuart/yaru/icons/Suru/256x256/legacy/document-revert.png"
         inkscape:export-xdpi="96"
         inkscape:export-ydpi="96" />
    </g>
    <g
       inkscape:groupmode="layer"
       id="layer4"
       inkscape:label="Shadows"
       style="display:inline" />
    <g
       inkscape:groupmode="layer"
       id="layer2"
       inkscape:label="Background"
       style="display:inline">
      <path
         style="display:inline;fill:#ffffff;fill-opacity:1;stroke:#ffffff;stroke-width:2;stroke-miterlimit:4;stroke-dasharray:none;enable-background:new"
         d="m 329,65 v 9.5 7.125 11.875 9.5 h 9.64285 4.82143 1.60714 1.60715 C 353.77937,103 359,97.947271 359,91.388891 358.996,86.572371 356.82602,81.82499 352,80 c 2.01165,-1.647998 2.99642,-3.838872 3,-6.291668 C 355,68.898842 350.39702,65 345.07142,65 h -6.42857 z m 6,5.932944 h 8 c 0.56719,0 1.5668,0.09162 2.07142,0.238112 v -0.0063 c 1.92403,0.558494 2.92573,2.451375 2.92858,4.126794 -0.002,1.676371 -1.00345,3.816805 -2.92858,4.37559 v -0.008 C 344.5668,79.80565 343.56714,79.89733 343,79.89733 h -8 z m 0,15.178166 h 9.76793 c 3.9942,0 6.73215,2.21719 6.73215,5.277781 -0.004,2.819789 -2.2714,5.264799 -5.92858,5.578109 H 342.66071 341.85714 335 Z"
         id="path842-5-73-2"
         inkscape:connector-curvature="0"
         sodipodi:nodetypes="ccccccccscccscccscccccscccscccccc" />
      <path
         style="display:inline;fill:#ffffff;fill-opacity:1;stroke:#ffffff;stroke-width:2;stroke-miterlimit:4;stroke-dasharray:none;enable-background:new"
         d="m 324,238 v 3 2.4503 3.5497 3 h 3 1.5 0.5 0.5 c 2.20914,0 3.66667,-1.5956 3.66667,-3.66667 -0.001,-1.521 -0.64962,-2.77351 -2.15105,-3.34982 0.62585,-0.52042 0.98326,-1.45894 0.98438,-2.23351 0,-1.51879 -1.34315,-2.75 -3,-2.75 h -2 z m 2,2 h 2.5 c 0.17646,0 0.343,0.0289 0.5,0.0752 v -0.002 c 0.59858,0.17637 0.99911,0.64768 1,1.17676 -4.8e-4,0.52938 -0.40108,1.40561 -1,1.58207 v -0.003 c -0.157,0.0463 -0.32368,0.0823 -0.5,0.0752 H 326 Z m 0,4.96682 h 2.75 c 1.24264,0 2.08334,0.49986 2.08334,1.46636 -0.001,0.89046 -0.69556,1.46788 -1.83334,1.56682 h -0.75 -0.25 -2 z"
         id="path842-5-7-2"
         inkscape:connector-curvature="0"
         sodipodi:nodetypes="ccccccccscccscccscccccscccscccccc" />
      <path
         style="display:inline;fill:#ffffff;fill-opacity:1;stroke:#ffffff;stroke-width:2;stroke-miterlimit:4;stroke-dasharray:none;enable-background:new"
         d="m 325,191 v 4.5 3.375 5.625 4.5 h 4.5 2.25 0.75 0.75 c 3.31371,0 5.75,-2.3934 5.75,-5.5 -0.002,-2.28151 -1.22442,-4.46072 -3.47656,-5.32519 0.93877,-0.78063 1.47489,-1.88796 1.47656,-3.04981 0,-2.27818 -2.01472,-4.125 -4.5,-4.125 h -3 z m 3,3 h 3.75 c 0.26469,0 0.51451,0.0434 0.75,0.11279 v -0.003 c 0.89788,0.26455 1.49867,0.97152 1.5,1.76514 -7.1e-4,0.79407 -0.60161,1.80796 -1.5,2.07265 v -0.004 c -0.23549,0.0694 -0.48619,0.13437 -0.75,0.11283 H 328 Z m 0,7 h 4.125 c 1.86396,0 3.375,1.05025 3.375,2.5 -0.002,1.33569 -1.29332,2.35159 -3,2.5 H 331.375 331 328 Z"
         id="path842-5-9"
         inkscape:connector-curvature="0"
         sodipodi:nodetypes="ccccccccscccscccscccccscccscccccc" />
      <path
         id="path2047"
         d="m 327,136.00019 v 6 4.5 7.5 6 h 6 3 1 1 c 4.41828,0 8,-3.35786 8,-7.5 -0.003,-3.04201 -1.96589,-5.78096 -4.96875,-6.93359 1.2517,-1.04083 1.96652,-2.51727 1.96875,-4.06641 0,-3.03757 -2.68629,-5.5 -6,-5.5 h -4 z m 4,4 h 5 c 0.35292,0 0.68601,0.0579 1,0.15039 v -0.004 c 1.19718,0.35273 1.99822,1.29535 2,2.35352 -9.5e-4,1.05876 -0.80214,2.00254 -2,2.35546 v -0.006 C 336.68601,144.94206 336.35292,145 336,145 h -5 z m 0,9 h 5.5 c 2.48528,0 4.5,1.567 4.5,3.5 -0.003,1.78092 -1.72442,3.30212 -4,3.5 h -1.5 -0.5 -4 z"
         style="fill:#000000;stroke:#ffffff;stroke-width:2;stroke-linejoin:round;stroke-miterlimit:4;stroke-dasharray:none"
         inkscape:connector-curvature="0"
         sodipodi:nodetypes="ccccccccscccscccscccccscccscccccc" />
      <path
         style="fill:url(#linearGradient838);fill-opacity:1"
         d="m 327,136.00019 v 6 4.5 7.5 6 h 6 3 1 1 c 4.41828,0 8,-3.35786 8,-7.5 -0.003,-3.04201 -1.96589,-5.78096 -4.96875,-6.93359 1.2517,-1.04083 1.96652,-2.51727 1.96875,-4.06641 0,-3.03757 -2.68629,-5.5 -6,-5.5 h -4 z m 4,4 h 5 c 0.35292,0 0.68601,0.0579 1,0.15039 v -0.004 c 1.19718,0.35273 1.99822,1.29535 2,2.35352 -9.5e-4,1.05876 -0.80214,2.00254 -2,2.35546 v -0.006 C 336.68601,144.94206 336.35292,145 336,145 h -5 z m 0,9 h 5.5 c 2.48528,0 4.5,1.567 4.5,3.5 -0.003,1.78092 -1.72442,3.30212 -4,3.5 h -1.5 -0.5 -4 z"
         id="path842"
         inkscape:connector-curvature="0"
         sodipodi:nodetypes="ccccccccscccscccscccccscccscccccc" />
      <path
         style="display:inline;fill:url(#linearGradient1737);fill-opacity:1;stroke-width:0.999997;enable-background:new"
         d="m 325,191 v 4.5 3.375 5.625 4.5 h 4.5 2.25 0.75 0.75 c 3.31371,0 5.75,-2.3934 5.75,-5.5 -0.002,-2.28151 -1.22442,-4.46072 -3.47656,-5.32519 0.93877,-0.78063 1.47489,-1.88796 1.47656,-3.04981 0,-2.27818 -2.01472,-4.125 -4.5,-4.125 h -3 z m 3,3 h 3.75 c 0.26469,0 0.51451,0.0434 0.75,0.11279 v -0.003 c 0.89788,0.26455 1.49867,0.97152 1.5,1.76514 -7.1e-4,0.79407 -0.60161,1.80796 -1.5,2.07265 v -0.004 c -0.23549,0.0694 -0.48619,0.13437 -0.75,0.11283 H 328 Z m 0,7 h 4.125 c 1.86396,0 3.375,1.05025 3.375,2.5 -0.002,1.33569 -1.29332,2.35159 -3,2.5 H 331.375 331 328 Z"
         id="path842-5"
         inkscape:connector-curvature="0"
         sodipodi:nodetypes="ccccccccscccscccscccccscccscccccc" />
      <path
         style="display:inline;fill:#ffffff;fill-opacity:1;stroke:#ffffff;stroke-width:2;stroke-miterlimit:4;stroke-dasharray:none;enable-background:new"
         d="m 369,192 v 4.5 3.375 5.625 4.5 h 4.5 2.25 0.75 0.75 c 3.31371,0 5.75,-2.3934 5.75,-5.5 -0.002,-2.28151 -1.22442,-4.46072 -3.47656,-5.32519 0.93877,-0.78063 1.47489,-1.88796 1.47656,-3.04981 0,-2.27818 -2.01472,-4.125 -4.5,-4.125 h -3 z m 3,3 h 3.75 c 0.26469,0 0.51451,0.0434 0.75,0.11279 v -0.003 c 0.89788,0.26455 1.49867,0.97152 1.5,1.76514 -7.1e-4,0.79407 -0.60161,1.80796 -1.5,2.07265 v -0.004 c -0.23549,0.0694 -0.48619,0.13437 -0.75,0.11283 H 372 Z m 0,7 h 4.125 c 1.86396,0 3.375,1.05025 3.375,2.5 -0.002,1.33569 -1.29332,2.35159 -3,2.5 H 375.375 375 372 Z"
         id="path842-5-9-0"
         inkscape:connector-curvature="0"
         sodipodi:nodetypes="ccccccccscccscccscccccscccscccccc" />
      <path
         style="display:inline;fill:url(#linearGradient1865);fill-opacity:1;stroke-width:0.999997;enable-background:new"
         d="m 369,192 v 4.5 3.375 5.625 4.5 h 4.5 2.25 0.75 0.75 c 3.31371,0 5.75,-2.3934 5.75,-5.5 -0.002,-2.28151 -1.22442,-4.46072 -3.47656,-5.32519 0.93877,-0.78063 1.47489,-1.88796 1.47656,-3.04981 0,-2.27818 -2.01472,-4.125 -4.5,-4.125 h -3 z m 3,3 h 3.75 c 0.26469,0 0.51451,0.0434 0.75,0.11279 v -0.003 c 0.89788,0.26455 1.49867,0.97152 1.5,1.76514 -7.1e-4,0.79407 -0.60161,1.80796 -1.5,2.07265 v -0.004 c -0.23549,0.0694 -0.48619,0.13437 -0.75,0.11283 H 372 Z m 0,7 h 4.125 c 1.86396,0 3.375,1.05025 3.375,2.5 -0.002,1.33569 -1.29332,2.35159 -3,2.5 H 375.375 375 372 Z"
         id="path842-5-6"
         inkscape:connector-curvature="0"
         sodipodi:nodetypes="ccccccccscccscccscccccscccscccccc" />
      <path
         style="display:inline;fill:url(#linearGradient2010);fill-opacity:1;stroke-width:1;enable-background:new"
         d="m 324,238 v 3 2.4503 3.5497 3 h 3 1.5 0.5 0.5 c 2.20914,0 3.66667,-1.5956 3.66667,-3.66667 -0.001,-1.521 -0.64962,-2.77351 -2.15105,-3.34982 0.62585,-0.52042 0.98326,-1.45894 0.98438,-2.23351 0,-1.51879 -1.34315,-2.75 -3,-2.75 h -2 z m 2,2 h 2.5 c 0.17646,0 0.343,0.0289 0.5,0.0752 v -0.002 c 0.59858,0.17637 0.99911,0.64768 1,1.17676 -4.8e-4,0.52938 -0.40108,1.40561 -1,1.58207 v -0.003 c -0.157,0.0463 -0.32368,0.0823 -0.5,0.0752 H 326 Z m 0,4.96682 h 2.75 c 1.24264,0 2.08334,0.49986 2.08334,1.46636 -0.001,0.89046 -0.69556,1.46788 -1.83334,1.56682 h -0.75 -0.25 -2 z"
         id="path842-5-7"
         inkscape:connector-curvature="0"
         sodipodi:nodetypes="ccccccccscccscccscccccscccscccccc" />
      <path
         style="display:inline;fill:url(#linearGradient2073);fill-opacity:1;stroke-width:0.999997;enable-background:new"
         d="m 329,65 v 9.5 7.125 11.875 9.5 h 9.64285 4.82143 1.60714 1.60715 C 353.77937,103 359,97.947271 359,91.388891 358.996,86.572371 356.82602,81.82499 352,80 c 2.01165,-1.647998 2.99642,-3.838872 3,-6.291668 C 355,68.898842 350.39702,65 345.07142,65 h -6.42857 z m 6,5.932944 h 8 c 0.56719,0 1.5668,0.09162 2.07142,0.238112 v -0.0063 c 1.92403,0.558494 2.92573,2.451375 2.92858,4.126794 -0.002,1.676371 -1.00345,3.816805 -2.92858,4.37559 v -0.008 C 344.5668,79.80565 343.56714,79.89733 343,79.89733 h -8 z m 0,15.178166 h 9.76793 c 3.9942,0 6.73215,2.21719 6.73215,5.277781 -0.004,2.819789 -2.2714,5.264799 -5.92858,5.578109 H 342.66071 341.85714 335 Z"
         id="path842-5-73"
         inkscape:connector-curvature="0"
         sodipodi:nodetypes="ccccccccscccscccscccccscccscccccc" />
      <path
         id="path2047-1"
         d="m 69,53 v 51.5 38.625 64.375 51.5 h 52.42106 26.21052 8.73685 8.73684 C 203.70708,259 235,230.17836 235,194.625 234.9738,168.51441 217.82433,145.00509 191.58882,135.11168 202.52473,126.17789 208.77,113.50511 208.78948,100.20833 208.78948,74.13585 185.31979,53 156.36843,53 h -34.94737 z m 34.94737,34.33333 h 43.68421 c 3.08341,0 5.99356,0.49697 8.73685,1.29085 v -0.0343 c 10.45957,3.0276 17.45813,11.11842 17.47368,20.20105 -0.008,9.08769 -7.00817,17.18847 -17.47368,20.2177 v -0.0515 c -2.74329,0.79396 -5.65344,1.29127 -8.73685,1.29127 h -43.68421 z m 0,77.25 H 152 c 21.7135,0 39.31579,13.45008 39.31579,30.04167 -0.0262,15.28623 -15.06598,28.34319 -34.94736,30.04166 h -13.10527 -4.36842 -34.94737 z"
         style="display:inline;fill:#ffffff;stroke:#ffffff;stroke-width:8;stroke-linejoin:round;stroke-miterlimit:4;stroke-dasharray:none;enable-background:new"
         inkscape:connector-curvature="0"
         sodipodi:nodetypes="ccccccccscccscccscccccscccscccccc" />
      <path
         style="display:inline;fill:url(#linearGradient2139);fill-opacity:1;stroke-width:1;enable-background:new"
         d="m 69,53 v 51.5 38.625 64.375 51.5 h 52.42106 26.21052 8.73685 8.73684 C 203.70708,259 235,230.17836 235,194.625 234.9738,168.51441 217.82433,145.00509 191.58882,135.11168 202.52473,126.17789 208.77,113.50511 208.78948,100.20833 208.78948,74.13585 185.31979,53 156.36843,53 h -34.94737 z m 34.94737,34.33333 h 43.68421 c 3.08341,0 5.99356,0.49697 8.73685,1.29085 v -0.0343 c 10.45957,3.0276 17.45813,11.11842 17.47368,20.20105 -0.008,9.08769 -7.00817,17.18847 -17.47368,20.2177 v -0.0515 c -2.74329,0.79396 -5.65344,1.29127 -8.73685,1.29127 h -43.68421 z m 0,77.25 H 152 c 21.7135,0 39.31579,13.45008 39.31579,30.04167 -0.0262,15.28623 -15.06598,28.34319 -34.94736,30.04166 h -13.10527 -4.36842 -34.94737 z"
         id="path842-9"
         inkscape:connector-curvature="0"
         sodipodi:nodetypes="ccccccccscccscccscccccscccscccccc" />
    </g>
    <g
       inkscape:groupmode="layer"
       id="layer6"
       inkscape:label="Pictogram"
       style="display:inline;opacity:1" />
    <g
       inkscape:groupmode="layer"
       id="layer3"
       inkscape:label="Folds"
       style="display:inline" />
    <g
       inkscape:groupmode="layer"
       id="layer5"
       inkscape:label="Highlights"
       style="display:inline" />
    <g
       inkscape:groupmode="layer"
       id="layer8"
       inkscape:label="Emblems" />
  </g>
</svg>
