<?xml version="1.0" encoding="UTF-8" standalone="no"?>
<svg
   xmlns:dc="http://purl.org/dc/elements/1.1/"
   xmlns:cc="http://creativecommons.org/ns#"
   xmlns:rdf="http://www.w3.org/1999/02/22-rdf-syntax-ns#"
   xmlns:svg="http://www.w3.org/2000/svg"
   xmlns="http://www.w3.org/2000/svg"
   xmlns:xlink="http://www.w3.org/1999/xlink"
   xmlns:sodipodi="http://sodipodi.sourceforge.net/DTD/sodipodi-0.dtd"
   xmlns:inkscape="http://www.inkscape.org/namespaces/inkscape"
   inkscape:export-ydpi="96"
   inkscape:export-xdpi="96"
   width="400"
   height="300"
   id="svg11300"
   sodipodi:version="0.32"
   inkscape:version="0.92.5 (2060ec1f9f, 2020-04-08)"
   sodipodi:docname="system-shutdown.svg"
   inkscape:output_extension="org.inkscape.output.svg.inkscape"
   version="1.0"
   style="display:inline;enable-background:new"
   inkscape:export-filename="C:\Users\sblav\Pictures\vertical oblong template.png">
  <title
     id="title3004">Yaru Icon Theme Template</title>
  <sodipodi:namedview
     stroke="#ef2929"
     fill="#f57900"
     id="base"
     pagecolor="#ffffff"
     bordercolor="#000000"
     borderopacity="0.25490196"
     inkscape:pageopacity="0"
     inkscape:pageshadow="2"
     inkscape:zoom="1"
     inkscape:cx="-49.871278"
     inkscape:cy="62.378358"
     inkscape:current-layer="layer6"
     showgrid="false"
     inkscape:grid-bbox="true"
     inkscape:document-units="px"
     inkscape:showpageshadow="false"
     inkscape:window-width="1904"
     inkscape:window-height="1006"
     inkscape:window-x="0"
     inkscape:window-y="32"
     width="400px"
     height="300px"
     inkscape:snap-nodes="true"
     inkscape:snap-bbox="true"
     gridtolerance="10000"
     inkscape:object-nodes="true"
     inkscape:snap-grids="true"
     showguides="true"
     inkscape:guide-bbox="true"
     inkscape:window-maximized="1"
     inkscape:bbox-paths="true"
     inkscape:snap-bbox-midpoints="true"
     inkscape:snap-global="true"
     inkscape:object-paths="true"
     inkscape:snap-intersection-paths="true"
     inkscape:snap-smooth-nodes="true"
     inkscape:pagecheckerboard="true"
     showborder="false"
     inkscape:document-rotation="0">
    <inkscape:grid
       spacingy="1"
       spacingx="1"
       id="grid5883"
       type="xygrid"
       enabled="true"
       visible="true"
       empspacing="4"
       snapvisiblegridlinesonly="true"
       originx="0"
       originy="0" />
    <inkscape:grid
       type="xygrid"
       id="grid11592"
       empspacing="2"
       visible="true"
       enabled="false"
       spacingx="0.5"
       spacingy="0.5"
       color="#ff0000"
       opacity="0.1254902"
       empcolor="#ff0000"
       empopacity="0.25098039"
       snapvisiblegridlinesonly="true"
       originx="0"
       originy="0" />
  </sodipodi:namedview>
  <defs
     id="defs3">
    <linearGradient
       id="linearGradient923"
       inkscape:collect="always">
      <stop
         style="stop-color:#e53c2a;stop-opacity:1"
         offset="0"
         id="stop919" />
      <stop
         style="stop-color:#cc0000;stop-opacity:1"
         offset="1"
         id="stop921" />
    </linearGradient>
    <linearGradient
       id="linearGradient917"
       inkscape:collect="always">
      <stop
         style="stop-color:#e53c2a;stop-opacity:1"
         offset="0"
         id="stop913" />
      <stop
         style="stop-color:#cc0000;stop-opacity:1"
         offset="1"
         id="stop915" />
    </linearGradient>
    <linearGradient
       id="linearGradient911"
       inkscape:collect="always">
      <stop
         style="stop-color:#e53c2a;stop-opacity:1"
         offset="0"
         id="stop907" />
      <stop
         style="stop-color:#cc0000;stop-opacity:1"
         offset="1"
         id="stop909" />
    </linearGradient>
    <linearGradient
       id="linearGradient905"
       inkscape:collect="always">
      <stop
         style="stop-color:#e53c2a;stop-opacity:1"
         offset="0"
         id="stop901" />
      <stop
         style="stop-color:#cc0000;stop-opacity:1"
         offset="1"
         id="stop903" />
    </linearGradient>
    <clipPath
       clipPathUnits="userSpaceOnUse"
       id="clipPath9430">
      <path
         sodipodi:nodetypes="sssssssss"
         inkscape:connector-curvature="0"
         id="path9432"
         d="m 166.0625,-196 h 179.875 C 491.2348,-196 512,-175.28677 512,-30.125 v 148.25 C 512,263.28618 491.2348,284 345.9375,284 H 166.0625 C 20.7652,284 0,263.28618 0,118.125 V -30.125 C 0,-175.28677 20.7652,-196 166.0625,-196 Z"
         style="color:#000000;display:inline;overflow:visible;visibility:visible;fill:#ffffff;fill-opacity:1;fill-rule:nonzero;stroke:none;stroke-width:1;marker:none;enable-background:new" />
    </clipPath>
    <clipPath
       clipPathUnits="userSpaceOnUse"
       id="clipPath1082">
      <path
         sodipodi:nodetypes="sssssssss"
         inkscape:connector-curvature="0"
         id="path1084"
         d="M 361.9375,-212 C 507.2348,-212 528,-191.28677 528,-46.125 V 70.125 C 528,215.28618 507.2348,236 361.9375,236 H 214.0625 C 68.7652,236 48,215.28618 48,70.125 V -46.125 C 48,-191.28677 68.7652,-212 214.0625,-212 Z"
         style="display:inline;opacity:1;fill:#8c59d9;fill-opacity:1;stroke:none;stroke-width:2;stroke-linecap:round;stroke-linejoin:round;stroke-miterlimit:4;stroke-dasharray:none;stroke-dashoffset:0;stroke-opacity:1;enable-background:new" />
    </clipPath>
    <linearGradient
       inkscape:collect="always"
       id="linearGradient927">
      <stop
         style="stop-color:#ffffff;stop-opacity:1;"
         offset="0"
         id="stop923" />
      <stop
         id="stop933"
         offset="0.125"
         style="stop-color:#ffffff;stop-opacity:0.09803922" />
      <stop
         id="stop931"
         offset="0.92500001"
         style="stop-color:#ffffff;stop-opacity:0.09803922" />
      <stop
         style="stop-color:#ffffff;stop-opacity:0.49803922"
         offset="1"
         id="stop925" />
    </linearGradient>
    <clipPath
       clipPathUnits="userSpaceOnUse"
       id="clipPath994">
      <path
         style="color:#000000;display:inline;overflow:visible;visibility:visible;fill:#cdcdcd;fill-opacity:1;fill-rule:nonzero;stroke:none;stroke-width:2;stroke-miterlimit:4;stroke-dasharray:none;stroke-opacity:1;marker:none;enable-background:accumulate"
         d="m 335.73108,62 c -8.82418,0 -9.77365,0.90635 -9.7304,9.74838 V 84 96.25162 c -0.0433,8.84203 0.90622,9.74838 9.7304,9.74838 h 16.53919 c 8.82418,0 9.7304,-0.90625 9.7304,-9.74838 V 84 71.74838 C 362.00067,62.90625 361.09445,62 352.27027,62 Z"
         id="path996"
         inkscape:connector-curvature="0"
         sodipodi:nodetypes="scccssscsss" />
    </clipPath>
    <clipPath
       clipPathUnits="userSpaceOnUse"
       id="clipPath959">
      <path
         style="color:#000000;display:inline;overflow:visible;visibility:visible;opacity:1;fill:#46a926;fill-opacity:1;fill-rule:nonzero;stroke:none;stroke-width:2;stroke-miterlimit:4;stroke-dasharray:none;stroke-opacity:1;marker:none;enable-background:accumulate"
         d="m 330.1929,133.99999 c -5.61538,0 -6.21958,0.57678 -6.19206,6.20352 v 7.79648 7.79648 c -0.0276,5.62673 0.57668,6.20351 6.19206,6.20351 h 11.615 c 5.6154,0 6.19208,-0.5767 6.19208,-6.20351 v -7.79648 -7.79648 c 0,-5.6268 -0.5767,-6.20352 -6.19208,-6.20352 z"
         id="path961"
         inkscape:connector-curvature="0"
         sodipodi:nodetypes="scccssscsss" />
    </clipPath>
    <clipPath
       clipPathUnits="userSpaceOnUse"
       id="clipPath971">
      <path
         style="color:#000000;display:inline;overflow:visible;visibility:visible;opacity:1;fill:#46a926;fill-opacity:1;fill-rule:nonzero;stroke:none;stroke-width:2;stroke-miterlimit:4;stroke-dasharray:none;stroke-opacity:1;marker:none;enable-background:accumulate"
         d="m 327.8652,189 c -4.41209,0 -4.88682,0.45318 -4.8652,4.87419 V 200 206.12581 C 322.9783,210.54682 323.45311,211 327.8652,211 h 8.2696 C 340.54689,211 341,210.54688 341,206.12581 V 200 193.87419 C 341,189.45313 340.54688,189 336.13479,189 Z"
         id="path973"
         inkscape:connector-curvature="0"
         sodipodi:nodetypes="scccssscsss" />
    </clipPath>
    <linearGradient
       id="linearGradient4336-3">
      <stop
         style="stop-color:#5884f4;stop-opacity:1"
         offset="0"
         id="stop4338-8" />
      <stop
         id="stop4344-3"
         offset="0.27800092"
         style="stop-color:#5884f4;stop-opacity:1" />
      <stop
         style="stop-color:#2f5fdd;stop-opacity:1"
         offset="0.27800092"
         id="stop4346-3" />
      <stop
         id="stop4350-1"
         offset="0.70735365"
         style="stop-color:#2f5fdd;stop-opacity:1" />
      <stop
         id="stop4348-6"
         offset="0.70936078"
         style="stop-color:#234db8;stop-opacity:1" />
      <stop
         style="stop-color:#234db8;stop-opacity:1"
         offset="1"
         id="stop4340-0" />
    </linearGradient>
    <clipPath
       clipPathUnits="userSpaceOnUse"
       id="clipPath994-1">
      <path
         style="color:#000000;display:inline;overflow:visible;visibility:visible;fill:#cdcdcd;fill-opacity:1;fill-rule:nonzero;stroke:none;stroke-width:2;stroke-miterlimit:4;stroke-dasharray:none;stroke-opacity:1;marker:none;enable-background:accumulate"
         d="m 335.73108,62 c -8.82418,0 -9.77365,0.90635 -9.7304,9.74838 V 84 96.25162 c -0.0433,8.84203 0.90622,9.74838 9.7304,9.74838 h 16.53919 c 8.82418,0 9.7304,-0.90625 9.7304,-9.74838 V 84 71.74838 C 362.00067,62.90625 361.09445,62 352.27027,62 Z"
         id="path996-8"
         inkscape:connector-curvature="0"
         sodipodi:nodetypes="scccssscsss" />
    </clipPath>
    <linearGradient
       id="linearGradient3797-5">
      <stop
         id="stop3801"
         offset="0"
         style="stop-color:#f7f7f7;stop-opacity:1" />
      <stop
         id="stop3799"
         offset="1"
         style="stop-color:#e6e6e6;stop-opacity:1" />
    </linearGradient>
    <linearGradient
       inkscape:collect="always"
       xlink:href="#linearGradient911"
       id="linearGradient1686"
       x1="320.99991"
       y1="92.000153"
       x2="366.99991"
       y2="76.000153"
       gradientUnits="userSpaceOnUse"
       gradientTransform="rotate(90,344.00003,84.000121)" />
    <linearGradient
       inkscape:collect="always"
       xlink:href="#linearGradient917"
       id="linearGradient1688"
       x1="321.00003"
       y1="153.00002"
       x2="351.00003"
       y2="143.00002"
       gradientUnits="userSpaceOnUse"
       gradientTransform="rotate(90,336.00002,148)" />
    <linearGradient
       inkscape:collect="always"
       xlink:href="#linearGradient923"
       id="linearGradient1690"
       x1="320.9993"
       y1="202.99928"
       x2="342.9993"
       y2="196.99928"
       gradientUnits="userSpaceOnUse"
       gradientTransform="rotate(90,331.99929,199.99999)" />
    <linearGradient
       inkscape:collect="always"
       xlink:href="#linearGradient905"
       id="linearGradient1694"
       x1="39.997601"
       y1="203.99699"
       x2="263.99759"
       y2="107.997"
       gradientUnits="userSpaceOnUse"
       gradientTransform="rotate(90,151.9973,155.9997)" />
    <linearGradient
       inkscape:collect="always"
       id="linearGradient4338-7">
      <stop
         id="stop4342-6"
         offset="0"
         style="stop-color:#e53c2a;stop-opacity:1" />
      <stop
         id="stop4340-2"
         offset="1"
         style="stop-color:#cc0000;stop-opacity:1" />
    </linearGradient>
    <linearGradient
       inkscape:collect="always"
       xlink:href="#linearGradient927"
       id="linearGradient1690-9"
       x1="320.9993"
       y1="199.99928"
       x2="342.9993"
       y2="199.99928"
       gradientUnits="userSpaceOnUse"
       gradientTransform="rotate(90,331.99929,199.99999)" />
    <linearGradient
       inkscape:collect="always"
       xlink:href="#linearGradient927"
       id="linearGradient1688-4"
       x1="322"
       y1="148.00002"
       x2="350"
       y2="148.00002"
       gradientUnits="userSpaceOnUse"
       gradientTransform="rotate(90,336.00001,148)" />
    <linearGradient
       inkscape:collect="always"
       xlink:href="#linearGradient927"
       id="linearGradient1686-0"
       x1="321.99991"
       y1="84.000153"
       x2="365.99991"
       y2="84.000153"
       gradientUnits="userSpaceOnUse"
       gradientTransform="rotate(90,344.00003,84.000125)" />
    <filter
       inkscape:collect="always"
       style="color-interpolation-filters:sRGB"
       id="filter58449"
       x="-0.047999425"
       width="1.0959988"
       y="-0.048000575"
       height="1.0960012">
      <feGaussianBlur
         inkscape:collect="always"
         stdDeviation="4.4800539"
         id="feGaussianBlur58451" />
    </filter>
    <filter
       inkscape:collect="always"
       style="color-interpolation-filters:sRGB"
       id="filter58492"
       x="-0.011999856"
       width="1.0239997"
       y="-0.012000144"
       height="1.0240003">
      <feGaussianBlur
         inkscape:collect="always"
         stdDeviation="1.1200135"
         id="feGaussianBlur58494" />
    </filter>
    <linearGradient
       inkscape:collect="always"
       xlink:href="#linearGradient4338-7"
       id="linearGradient1690-2"
       x1="320.9993"
       y1="202.99928"
       x2="342.9993"
       y2="196.99928"
       gradientUnits="userSpaceOnUse"
       gradientTransform="rotate(90,357.99929,225.99999)" />
    <linearGradient
       inkscape:collect="always"
       xlink:href="#linearGradient927"
       id="linearGradient1690-9-2"
       x1="323.9993"
       y1="199.99927"
       x2="342.9993"
       y2="199.99928"
       gradientUnits="userSpaceOnUse"
       gradientTransform="rotate(90,357.99928,225.99999)" />
  </defs>
  <metadata
     id="metadata4">
    <rdf:RDF>
      <cc:Work
         rdf:about="">
        <dc:format>image/svg+xml</dc:format>
        <dc:type
           rdf:resource="http://purl.org/dc/dcmitype/StillImage" />
        <dc:creator>
          <cc:Agent>
            <dc:title>Yaru Team, based on the Suru template by Sam Hewitt and original Suru designs by Matthieu James</dc:title>
          </cc:Agent>
        </dc:creator>
        <dc:source />
        <cc:license
           rdf:resource="http://creativecommons.org/licenses/by-sa/4.0/" />
        <dc:title>Yaru Icon Theme Template</dc:title>
        <dc:subject>
          <rdf:Bag />
        </dc:subject>
        <dc:date />
        <dc:rights>
          <cc:Agent>
            <dc:title />
          </cc:Agent>
        </dc:rights>
        <dc:publisher>
          <cc:Agent>
            <dc:title />
          </cc:Agent>
        </dc:publisher>
        <dc:identifier />
        <dc:relation />
        <dc:language />
        <dc:coverage />
        <dc:description />
        <dc:contributor>
          <cc:Agent>
            <dc:title />
          </cc:Agent>
        </dc:contributor>
      </cc:Work>
      <cc:Work
         rdf:about="">
        <dc:format>image/svg+xml</dc:format>
        <dc:type
           rdf:resource="http://purl.org/dc/dcmitype/StillImage" />
      </cc:Work>
      <cc:License
         rdf:about="http://creativecommons.org/licenses/by-sa/4.0/">
        <cc:permits
           rdf:resource="http://creativecommons.org/ns#Reproduction" />
        <cc:permits
           rdf:resource="http://creativecommons.org/ns#Distribution" />
        <cc:requires
           rdf:resource="http://creativecommons.org/ns#Notice" />
        <cc:requires
           rdf:resource="http://creativecommons.org/ns#Attribution" />
        <cc:permits
           rdf:resource="http://creativecommons.org/ns#DerivativeWorks" />
        <cc:requires
           rdf:resource="http://creativecommons.org/ns#ShareAlike" />
      </cc:License>
    </rdf:RDF>
  </metadata>
  <g
     style="display:inline"
     inkscape:groupmode="layer"
     inkscape:label="Icon"
     id="layer1">
    <g
       style="display:none"
       inkscape:label="Baseplate"
       id="layer7"
       inkscape:groupmode="layer">
      <text
         y="-8.2548828"
         xml:space="preserve"
         x="19.006836"
         style="font-style:normal;font-variant:normal;font-weight:normal;font-stretch:normal;line-height:0%;font-family:'DejaVu Sans';-inkscape-font-specification:'DejaVu Sans';display:inline;fill:#000000;fill-opacity:1;stroke:none;enable-background:new"
         inkscape:label="context"
         id="context"><tspan
           style="font-style:normal;font-variant:normal;font-weight:normal;font-stretch:normal;font-size:18px;line-height:1.25;font-family:'DejaVu Sans';-inkscape-font-specification:'DejaVu Sans'"
           y="-8.2548828"
           x="19.006836"
           sodipodi:role="line"
           id="tspan3933">actions</tspan></text>
      <text
         y="-8.2548828"
         xml:space="preserve"
         x="146.48828"
         style="font-style:normal;font-variant:normal;font-weight:bold;font-stretch:normal;line-height:0%;font-family:'DejaVu Sans';-inkscape-font-specification:'DejaVu Sans Bold';text-align:start;writing-mode:lr-tb;text-anchor:start;display:inline;fill:#000000;fill-opacity:1;stroke:none;enable-background:new"
         inkscape:label="icon-name"
         id="icon-name"><tspan
           style="font-style:normal;font-variant:normal;font-weight:bold;font-stretch:normal;font-size:18px;line-height:1.25;font-family:'DejaVu Sans';-inkscape-font-specification:'DejaVu Sans Bold'"
           y="-8.2548828"
           x="146.48828"
           sodipodi:role="line"
           id="tspan3937">system-shutdown</tspan></text>
      <rect
         style="display:inline;overflow:visible;visibility:visible;fill:#cdcdcd;fill-opacity:1;fill-rule:nonzero;stroke:none;stroke-width:2;marker:none;enable-background:accumulate"
         id="rect16x16"
         width="16"
         height="16"
         x="320"
         y="236"
         inkscape:label="16x16" />
      <rect
         style="display:inline;overflow:visible;visibility:visible;fill:#cdcdcd;fill-opacity:1;fill-rule:nonzero;stroke:none;stroke-width:2;marker:none;enable-background:accumulate"
         id="rect24x24"
         width="24"
         height="24"
         x="320"
         y="188"
         inkscape:label="24x24" />
      <rect
         style="display:inline;overflow:visible;visibility:visible;fill:#cdcdcd;fill-opacity:1;fill-rule:nonzero;stroke:none;stroke-width:2;marker:none;enable-background:accumulate"
         id="rect32x32"
         width="32"
         height="32"
         x="320"
         y="132"
         inkscape:label="32x32" />
      <rect
         inkscape:label="48x48"
         y="60"
         x="320"
         height="48"
         width="48"
         id="rect48x48"
         style="display:inline;overflow:visible;visibility:visible;fill:#cdcdcd;fill-opacity:1;fill-rule:nonzero;stroke:none;stroke-width:2;marker:none;enable-background:accumulate" />
      <rect
         style="display:inline;overflow:visible;visibility:visible;fill:#cdcdcd;fill-opacity:1;fill-rule:nonzero;stroke:none;stroke-width:2;marker:none;enable-background:accumulate"
         id="rect3951"
         width="256"
         height="256"
         x="24"
         y="28"
         inkscape:label="48x48" />
      <rect
         style="display:inline;overflow:visible;visibility:visible;fill:#cdcdcd;fill-opacity:1;fill-rule:nonzero;stroke:none;stroke-width:1.83333004;marker:none;enable-background:accumulate"
         id="rect24x24-1"
         width="22"
         height="22"
         x="372"
         y="190"
         inkscape:label="24x24" />
    </g>
    <g
       inkscape:groupmode="layer"
       id="layer9"
       inkscape:label="Optional outline for white icons"
       style="display:none">
      <path
         style="color:#000000;display:inline;overflow:visible;visibility:visible;opacity:0.2;fill:#000000;fill-opacity:1;fill-rule:nonzero;stroke:#000000;stroke-width:4;stroke-miterlimit:4;stroke-dasharray:none;marker:none;enable-background:accumulate"
         d="m 225.07297,43.99969 c 35.29673,0 39.09461,3.62542 38.92162,38.99353 v 73.00647 73.00648 c 0.17299,35.36812 -3.62489,38.99353 -38.92162,38.99353 H 78.916218 c -35.29671,0 -38.92161,-3.625 -38.92161,-38.99353 V 155.99969 82.99322 c 0,-35.36853 3.6249,-38.99353 38.92161,-38.99353 z"
         id="rect4158-9"
         inkscape:connector-curvature="0"
         sodipodi:nodetypes="scccssscsss" />
    </g>
    <g
       inkscape:groupmode="layer"
       id="layer8"
       inkscape:label="Backgrounds"
       style="display:inline;opacity:0.99618399">
      <path
         style="color:#000000;font-style:normal;font-variant:normal;font-weight:normal;font-stretch:normal;font-size:medium;line-height:normal;font-family:sans-serif;font-variant-ligatures:normal;font-variant-position:normal;font-variant-caps:normal;font-variant-numeric:normal;font-variant-alternates:normal;font-feature-settings:normal;text-indent:0;text-align:start;text-decoration:none;text-decoration-line:none;text-decoration-style:solid;text-decoration-color:#000000;letter-spacing:normal;word-spacing:normal;text-transform:none;writing-mode:lr-tb;direction:ltr;text-orientation:mixed;dominant-baseline:auto;baseline-shift:baseline;text-anchor:start;white-space:normal;shape-padding:0;clip-rule:nonzero;display:inline;overflow:visible;visibility:visible;opacity:0.1;isolation:auto;mix-blend-mode:normal;color-interpolation:sRGB;color-interpolation-filters:linearRGB;solid-color:#000000;solid-opacity:1;vector-effect:none;fill:#000000;fill-opacity:1;fill-rule:nonzero;stroke:none;stroke-width:2;stroke-linecap:butt;stroke-linejoin:miter;stroke-miterlimit:4;stroke-dasharray:none;stroke-dashoffset:0;stroke-opacity:1;marker:none;color-rendering:auto;image-rendering:auto;shape-rendering:auto;text-rendering:auto;enable-background:accumulate"
         d="m 378.45275,191 c -1.2321,0 -2.21668,0.0221 -3.06999,0.14144 -0.85332,0.11937 -1.62809,0.35533 -2.21066,0.83967 -0.58256,0.48436 -0.86983,1.13381 -1.01188,1.84587 -0.14202,0.71207 -0.16501,1.53239 -0.15897,2.56202 v 5.61066 4.6143 c -0.006,1.02762 0.0171,1.84735 0.15897,2.55843 0.14203,0.71208 0.42931,1.36152 1.01188,1.84587 0.58258,0.48434 1.35734,0.7203 2.21066,0.83967 0.85331,0.11936 1.83789,0.14144 3.06999,0.14144 h 9.09542 c 1.2321,0 2.21381,-0.022 3.0657,-0.14144 0.85187,-0.11947 1.62795,-0.35683 2.2085,-0.84146 0.58057,-0.48464 0.86451,-1.13152 1.00758,-1.84228 0.14307,-0.71077 -0.23943,-1.61626 0.16972,-2.56023 v -4.61429 -5.61425 c 0,-1.02883 -0.0266,-1.84946 -0.16972,-2.56023 -0.14307,-0.71076 -0.42701,-1.35765 -1.00758,-1.84228 -0.58055,-0.48464 -1.35661,-0.722 -2.2085,-0.84147 C 389.76197,191.02197 388.78028,191 387.54817,191 Z"
         id="path995-6"
         inkscape:connector-curvature="0"
         sodipodi:nodetypes="sccccccccssscccscscccss" />
      <path
         style="color:#000000;display:inline;overflow:visible;visibility:visible;opacity:0.6;fill:#000000;fill-opacity:1;fill-rule:nonzero;stroke:#000000;stroke-width:2;stroke-miterlimit:4;stroke-dasharray:none;marker:none;enable-background:accumulate"
         d="m 324.61253,237 c -3.27563,0 -3.62809,0.29118 -3.61203,3.13171 v 3.93588 3.93588 c -0.016,2.84054 0.3364,3.13172 3.61203,3.13172 h 6.77543 c 3.27564,0 3.61204,-0.29114 3.61204,-3.13172 v -3.93588 -3.93588 C 335,237.29114 334.66359,237 331.38796,237 Z"
         id="path918-3"
         inkscape:connector-curvature="0"
         sodipodi:nodetypes="scccssscsss" />
      <path
         style="color:#000000;display:inline;overflow:visible;visibility:visible;opacity:0.1;fill:#000000;fill-opacity:1;fill-rule:nonzero;stroke:none;stroke-width:1;marker:none;filter:url(#filter58492);enable-background:accumulate"
         d="m 225.07297,44.99999 c 35.29673,0 39.09461,3.62542 38.92162,38.99353 v 73.00647 73.00648 C 264.16758,265.37459 260.3697,269 225.07297,269 H 78.916218 c -35.29671,0 -38.92161,-3.625 -38.92161,-38.99353 V 156.99999 83.99352 c 0,-35.36853 3.6249,-38.99353 38.92161,-38.99353 z"
         id="rect4158-7"
         inkscape:connector-curvature="0"
         sodipodi:nodetypes="scccssscsss" />
      <path
         style="color:#000000;display:inline;overflow:visible;visibility:visible;opacity:0.2;fill:#000000;fill-opacity:1;fill-rule:nonzero;stroke:none;stroke-width:1;marker:none;filter:url(#filter58449);enable-background:accumulate"
         d="m 225.07297,44.99999 c 35.29673,0 39.09461,3.62542 38.92162,38.99353 v 73.00647 73.00648 C 264.16758,265.37459 260.3697,269 225.07297,269 H 78.916218 c -35.29671,0 -38.92161,-3.625 -38.92161,-38.99353 V 156.99999 83.99352 c 0,-35.36853 3.6249,-38.99353 38.92161,-38.99353 z"
         id="rect4158-1"
         inkscape:connector-curvature="0"
         sodipodi:nodetypes="scccssscsss" />
      <path
         style="color:#000000;font-style:normal;font-variant:normal;font-weight:normal;font-stretch:normal;font-size:medium;line-height:normal;font-family:sans-serif;font-variant-ligatures:normal;font-variant-position:normal;font-variant-caps:normal;font-variant-numeric:normal;font-variant-alternates:normal;font-feature-settings:normal;text-indent:0;text-align:start;text-decoration:none;text-decoration-line:none;text-decoration-style:solid;text-decoration-color:#000000;letter-spacing:normal;word-spacing:normal;text-transform:none;writing-mode:lr-tb;direction:ltr;text-orientation:mixed;dominant-baseline:auto;baseline-shift:baseline;text-anchor:start;white-space:normal;shape-padding:0;clip-rule:nonzero;display:inline;overflow:visible;visibility:visible;opacity:0.1;isolation:auto;mix-blend-mode:normal;color-interpolation:sRGB;color-interpolation-filters:linearRGB;solid-color:#000000;solid-opacity:1;vector-effect:none;fill:#000000;fill-opacity:1;fill-rule:nonzero;stroke:none;stroke-width:2;stroke-linecap:butt;stroke-linejoin:miter;stroke-miterlimit:4;stroke-dasharray:none;stroke-dashoffset:0;stroke-opacity:1;marker:none;color-rendering:auto;image-rendering:auto;shape-rendering:auto;text-rendering:auto;enable-background:accumulate"
         d="m 326.45275,189.00048 c -1.2321,0 -2.21668,0.0221 -3.06999,0.14144 -0.85332,0.11937 -1.62809,0.35533 -2.21066,0.83967 -0.58256,0.48436 -0.86983,1.13381 -1.01188,1.84587 -0.14202,0.71207 -0.16501,1.53239 -0.15897,2.56202 v 7.61066 4.6143 c -0.006,1.02762 0.0171,1.84735 0.15897,2.55843 0.14203,0.71208 0.42931,1.36152 1.01188,1.84587 0.58258,0.48434 1.35734,0.7203 2.21066,0.83967 0.85331,0.11936 1.83789,0.14144 3.06999,0.14144 h 11.09542 c 1.2321,0 2.21381,-0.022 3.0657,-0.14144 0.85187,-0.11947 1.62795,-0.35683 2.2085,-0.84146 0.58057,-0.48464 0.86451,-1.13152 1.00758,-1.84228 0.14307,-0.71077 0.16972,-1.5314 0.16972,-2.56023 v -4.61429 -7.61425 c 0,-1.02883 -0.0266,-1.84946 -0.16972,-2.56023 -0.14307,-0.71076 -0.42701,-1.35765 -1.00758,-1.84228 -0.58055,-0.48464 -1.35661,-0.722 -2.2085,-0.84147 -0.8519,-0.11947 -1.83359,-0.14144 -3.0657,-0.14144 z"
         id="path995"
         inkscape:connector-curvature="0"
         sodipodi:nodetypes="sccccccccssscccscscccss" />
      <path
         style="color:#000000;font-style:normal;font-variant:normal;font-weight:normal;font-stretch:normal;font-size:medium;line-height:normal;font-family:sans-serif;font-variant-ligatures:normal;font-variant-position:normal;font-variant-caps:normal;font-variant-numeric:normal;font-variant-alternates:normal;font-feature-settings:normal;text-indent:0;text-align:start;text-decoration:none;text-decoration-line:none;text-decoration-style:solid;text-decoration-color:#000000;letter-spacing:normal;word-spacing:normal;text-transform:none;writing-mode:lr-tb;direction:ltr;text-orientation:mixed;dominant-baseline:auto;baseline-shift:baseline;text-anchor:start;white-space:normal;shape-padding:0;clip-rule:nonzero;display:inline;overflow:visible;visibility:visible;opacity:0.1;isolation:auto;mix-blend-mode:normal;color-interpolation:sRGB;color-interpolation-filters:linearRGB;solid-color:#000000;solid-opacity:1;vector-effect:none;fill:#000000;fill-opacity:1;fill-rule:nonzero;stroke:none;stroke-width:2;stroke-linecap:butt;stroke-linejoin:miter;stroke-miterlimit:4;stroke-dasharray:none;stroke-dashoffset:0;stroke-opacity:1;marker:none;color-rendering:auto;image-rendering:auto;shape-rendering:auto;text-rendering:auto;enable-background:accumulate"
         d="m 329.30094,134 c -1.63949,0 -2.94082,0.0308 -4.04505,0.19141 -1.10422,0.16064 -2.06697,0.4726 -2.78308,1.09179 -0.71611,0.61919 -1.0805,1.45612 -1.26421,2.41407 -0.18374,0.95795 -0.21537,2.08705 -0.20733,3.51171 V 149 v 7.79688 c -0.009,1.42131 0.0239,2.5495 0.20733,3.50585 0.18371,0.95796 0.5481,1.79488 1.26421,2.41407 0.71611,0.61919 1.67886,0.93115 2.78308,1.09179 1.10423,0.16065 2.40556,0.19141 4.04505,0.19141 h 13.40164 c 1.63949,0 2.93835,-0.0307 4.04054,-0.19141 1.10219,-0.16075 2.06274,-0.47425 2.77633,-1.09375 0.71357,-0.6195 1.07457,-1.45363 1.25969,-2.41015 C 350.96429,159.34816 351,158.22066 351,156.79688 V 149 141.20312 c 0,-1.42378 -0.0358,-2.55128 -0.22086,-3.50781 -0.18512,-0.95653 -0.54612,-1.79065 -1.25969,-2.41015 -0.71359,-0.61951 -1.67414,-0.933 -2.77633,-1.09375 C 345.64093,134.03065 344.34207,134 342.70258,134 Z"
         id="path999"
         inkscape:connector-curvature="0"
         sodipodi:nodetypes="scscccccscsscccscscscss" />
      <path
         style="color:#000000;font-style:normal;font-variant:normal;font-weight:normal;font-stretch:normal;font-size:medium;line-height:normal;font-family:sans-serif;font-variant-ligatures:normal;font-variant-position:normal;font-variant-caps:normal;font-variant-numeric:normal;font-variant-alternates:normal;font-feature-settings:normal;text-indent:0;text-align:start;text-decoration:none;text-decoration-line:none;text-decoration-style:solid;text-decoration-color:#000000;letter-spacing:normal;word-spacing:normal;text-transform:none;writing-mode:lr-tb;direction:ltr;text-orientation:mixed;dominant-baseline:auto;baseline-shift:baseline;text-anchor:start;white-space:normal;shape-padding:0;clip-rule:nonzero;display:inline;overflow:visible;visibility:visible;opacity:0.1;isolation:auto;mix-blend-mode:normal;color-interpolation:sRGB;color-interpolation-filters:linearRGB;solid-color:#000000;solid-opacity:1;vector-effect:none;fill:#000000;fill-opacity:1;fill-rule:nonzero;stroke:none;stroke-width:2;stroke-linecap:butt;stroke-linejoin:miter;stroke-miterlimit:4;stroke-dasharray:none;stroke-dashoffset:0;stroke-opacity:1;marker:none;color-rendering:auto;image-rendering:auto;shape-rendering:auto;text-rendering:auto;enable-background:accumulate"
         d="m 333.65776,62 c -2.6221,0 -4.68675,0.05009 -6.38561,0.286735 -1.69887,0.236639 -3.08904,0.680503 -4.10735,1.523515 -1.0183,0.843013 -1.55577,1.996072 -1.83828,3.406406 -0.28252,1.410336 -0.33767,3.127346 -0.32482,5.308412 v 12.474816 12.480783 c -0.0127,2.177715 0.0426,3.893853 0.32482,5.302673 0.28251,1.41034 0.81998,2.5634 1.83828,3.40641 1.01831,0.84301 2.40848,1.28688 4.10735,1.52351 1.69888,0.23665 3.76351,0.28674 6.38561,0.28674 h 20.68618 c 2.62213,0 4.68568,-0.05 6.38104,-0.28674 1.69534,-0.23674 3.08126,-0.6821 4.09581,-1.52542 1.01457,-0.84331 1.54885,-1.99555 1.83367,-3.4045 C 366.93929,101.37441 367,99.660878 367,97.480667 V 84.999884 72.519333 c 0,-2.180211 -0.0608,-3.893733 -0.34554,-5.302677 -0.28482,-1.408942 -0.81911,-2.561177 -1.83368,-3.404494 -1.01455,-0.843317 -2.40047,-1.288685 -4.09582,-1.525427 C 359.02962,62.049992 356.96605,62 354.34394,62 Z"
         id="path1020"
         inkscape:connector-curvature="0"
         sodipodi:nodetypes="sccsccccccsscccscsccsss" />
      <path
         style="color:#000000;display:inline;overflow:visible;visibility:visible;fill:url(#linearGradient1686);fill-opacity:1;fill-rule:nonzero;stroke:none;stroke-width:1;marker:none;enable-background:accumulate"
         d="m 333.33517,61.500049 c -10.01116,0 -11.88667,0.90635 -11.83407,9.74838 v 12.75157 12.75181 c -0.0527,8.842031 1.82291,9.748381 11.83407,9.748381 h 21.3308 c 10.00866,0 11.83405,-0.90625 11.83405,-9.748381 v -12.75181 -12.75157 c 0,-8.84213 -1.82539,-9.74838 -11.83406,-9.74838 z"
         id="path964"
         inkscape:connector-curvature="0"
         sodipodi:nodetypes="scccssscsss" />
      <path
         style="color:#000000;display:inline;overflow:visible;visibility:visible;fill:url(#linearGradient1694);fill-opacity:1;fill-rule:nonzero;stroke:none;stroke-width:1;marker:none;enable-background:accumulate"
         d="m 225.07297,43.999694 c 35.29673,0 39.09461,3.62542 38.92162,38.99353 v 73.006466 73.00648 c 0.17299,35.36812 -3.62489,38.99353 -38.92162,38.99353 H 78.916218 c -35.29671,0 -38.92161,-3.625 -38.92161,-38.99353 V 155.99969 82.993224 c 0,-35.36853 3.6249,-38.99353 38.92161,-38.99353 z"
         id="rect4158"
         inkscape:connector-curvature="0"
         sodipodi:nodetypes="scccssscsss" />
      <path
         sodipodi:nodetypes="scccssscsss"
         inkscape:connector-curvature="0"
         id="path914"
         d="m 326.17688,188.49945 c -5.14666,0 -5.70043,0.43262 -5.67521,4.65309 v 5.84793 7.84761 c -0.0253,4.22046 0.52855,4.65307 5.67521,4.65307 h 11.64568 c 5.14665,0 5.67521,-0.43255 5.67521,-4.65307 v -7.84761 -5.84793 c 0,-4.22051 -0.52857,-4.65309 -5.67522,-4.65309 z"
         style="color:#000000;display:inline;overflow:visible;visibility:visible;fill:url(#linearGradient1690);fill-opacity:1;fill-rule:nonzero;stroke:none;stroke-width:1;marker:none;enable-background:accumulate" />
      <path
         style="color:#000000;display:inline;overflow:visible;visibility:visible;fill:url(#linearGradient1688);fill-opacity:1;fill-rule:nonzero;stroke:none;stroke-width:1;marker:none;enable-background:accumulate"
         d="m 329.12711,133.5 c -6.45163,0 -7.6603,0.58409 -7.62639,6.28227 v 8.21765 8.21781 c -0.034,5.69818 1.17476,6.28227 7.62639,6.28227 h 13.74651 c 6.45003,0 7.62639,-0.58403 7.62639,-6.28227 v -8.21781 -8.21765 c 0,-5.69824 -1.17636,-6.28227 -7.62639,-6.28227 z"
         id="path964-7"
         inkscape:connector-curvature="0"
         sodipodi:nodetypes="scccssscsss" />
      <path
         style="color:#000000;display:inline;overflow:visible;visibility:visible;fill:#cc0000;fill-opacity:1;fill-rule:nonzero;stroke:none;stroke-width:0.94234598;marker:none;enable-background:accumulate"
         d="m 324.61253,237 c -3.27563,0 -3.62809,0.29118 -3.61203,3.13171 v 3.93588 3.93588 c -0.016,2.84054 0.3364,3.13172 3.61203,3.13172 h 6.77543 c 3.27564,0 3.61204,-0.29114 3.61204,-3.13172 v -3.93588 -3.93588 C 335,237.29114 334.66359,237 331.38796,237 Z"
         id="path918"
         inkscape:connector-curvature="0"
         sodipodi:nodetypes="scccssscsss" />
      <path
         sodipodi:nodetypes="scccssscsss"
         inkscape:connector-curvature="0"
         id="path914-5"
         d="m 378.17688,190.49945 c -5.14666,0 -5.70043,0.43262 -5.67521,4.65309 v 3.84793 7.84761 c -0.0253,4.22046 0.52855,4.65307 5.67521,4.65307 h 9.64568 c 5.14665,0 5.67521,-0.43255 5.67521,-4.65307 v -7.84761 -3.84793 c 0,-4.22051 -0.52857,-4.65309 -5.67522,-4.65309 z"
         style="color:#000000;display:inline;overflow:visible;visibility:visible;opacity:1;fill:url(#linearGradient1690-2);fill-opacity:1;fill-rule:nonzero;stroke:none;stroke-width:1;marker:none;enable-background:accumulate" />
    </g>
    <g
       inkscape:groupmode="layer"
       id="layer6"
       inkscape:label="Pictograms and folds"
       style="display:inline">
      <path
         inkscape:connector-curvature="0"
         id="path4961"
         d="m 332.0001,193.50001 c -0.554,0 -1,0.446 -1,1 v 5 c 0,0.554 0.446,1 1,1 0.554,0 1,-0.446 1,-1 v -5 c 0,-0.554 -0.446,-1 -1,-1 z m -3.0625,1.78125 c -0.15536,0.0169 -0.30656,0.0709 -0.4375,0.15625 -1.05993,0.61135 -1.94797,1.50441 -2.5625,2.5625 -1.28538,2.21314 -1.20735,4.84868 -0.0312,6.9375 0.0109,0.0209 0.0186,0.0424 0.0312,0.0625 0.024,0.0413 0.0378,0.0844 0.0625,0.125 0.0388,0.0643 0.0841,0.12439 0.125,0.1875 0.0784,0.11995 0.16544,0.23006 0.25,0.34375 0.0687,0.0931 0.14517,0.19127 0.21875,0.28125 0.0584,0.071 0.12668,0.15048 0.1875,0.21875 0.0284,0.032 0.0647,0.0622 0.0937,0.0937 0.12607,0.13596 0.23983,0.25064 0.375,0.375 0.10085,0.0935 0.20538,0.19313 0.3125,0.28125 0.09,0.0736 0.18811,0.15001 0.28125,0.21875 0.11369,0.0846 0.2238,0.17162 0.34375,0.25 0.0631,0.0409 0.12324,0.0862 0.1875,0.125 0.0406,0.0247 0.0838,0.0385 0.125,0.0625 0.14255,0.0821 0.29002,0.14696 0.4375,0.21875 0.0639,0.0312 0.123,0.0647 0.1875,0.0937 0.1423,0.0642 0.29151,0.13292 0.4375,0.1875 0.20063,0.0746 0.42094,0.13253 0.625,0.1875 0.18718,0.0504 0.37345,0.0908 0.5625,0.125 0.25277,0.0464 0.52436,0.0752 0.78125,0.0937 0.15684,0.0101 0.31215,0.0317 0.46875,0.0312 0.1566,4.8e-4 0.31191,-0.0211 0.46875,-0.0312 0.1323,-0.01 0.27488,-0.0143 0.40625,-0.0312 0.12921,-0.0159 0.24628,-0.0392 0.375,-0.0625 0.18905,-0.0342 0.37532,-0.0746 0.5625,-0.125 0.20406,-0.055 0.42437,-0.11293 0.625,-0.1875 0.40725,-0.15226 0.81269,-0.33639 1.18749,-0.5625 0.0657,-0.04 0.12352,-0.0832 0.1875,-0.125 0.11936,-0.0773 0.22883,-0.1652 0.34375,-0.25 0.0919,-0.0684 0.19346,-0.14653 0.28125,-0.21875 0.10486,-0.0858 0.21224,-0.18901 0.3125,-0.28125 0.1677,-0.15551 0.31874,-0.29955 0.46875,-0.46875 0.12164,-0.13654 0.26315,-0.29002 0.375,-0.4375 0.0316,-0.0419 0.0632,-0.0824 0.0937,-0.125 0.10264,-0.14156 0.18815,-0.2865 0.28125,-0.4375 0.032,-0.0523 0.0632,-0.10322 0.0937,-0.15625 0.0127,-0.0201 0.0204,-0.0416 0.0312,-0.0625 1.1761,-2.08882 1.25413,-4.72436 -0.0312,-6.9375 -0.61453,-1.05809 -1.50257,-1.95115 -2.5625,-2.5625 -0.13094,-0.0854 -0.28214,-0.13935 -0.4375,-0.15625 -0.45306,-0.0384 -0.90058,0.28323 -1.03124,0.71875 -0.13065,0.43551 0.0693,0.93893 0.46875,1.15625 0.75716,0.43673 1.3735,1.05665 1.81249,1.8125 0.94758,1.63153 0.88793,3.55382 0,5.0625 -0.0116,0.0197 -0.0194,0.043 -0.0312,0.0625 -0.13367,0.22314 -0.2767,0.43113 -0.4375,0.625 -0.0933,0.11089 -0.20862,0.20919 -0.3125,0.3125 -0.10331,0.10388 -0.20161,0.21925 -0.3125,0.3125 -0.19387,0.1608 -0.40185,0.30383 -0.62499,0.4375 -0.0391,0.0238 -0.0853,0.0399 -0.125,0.0625 -0.2813,0.1585 -0.58005,0.27466 -0.875,0.375 -0.24169,0.0822 -0.4724,0.14327 -0.71875,0.1875 -0.13196,0.023 -0.27253,0.0501 -0.40625,0.0625 -0.15641,0.0148 -0.31271,0.0311 -0.46875,0.0312 -0.15604,-1.3e-4 -0.31234,-0.0164 -0.46875,-0.0312 -0.13372,-0.0124 -0.27429,-0.0395 -0.40625,-0.0625 -0.24635,-0.0442 -0.47706,-0.10528 -0.71875,-0.1875 -0.1868,-0.0636 -0.38063,-0.10075 -0.5625,-0.1875 -0.1074,-0.0513 -0.20875,-0.12837 -0.3125,-0.1875 -0.0198,-0.0112 -0.0428,-0.0198 -0.0625,-0.0312 -0.02,-0.0116 -0.0427,-0.0194 -0.0625,-0.0312 -0.12625,-0.0767 -0.25537,-0.16162 -0.375,-0.25 -0.007,-0.005 -0.0245,0.005 -0.0312,0 -0.0751,-0.0561 -0.14655,-0.12678 -0.21875,-0.1875 -0.11507,-0.0954 -0.208,-0.20858 -0.3125,-0.3125 -0.10392,-0.1045 -0.21706,-0.19743 -0.3125,-0.3125 -0.0665,-0.079 -0.12651,-0.16745 -0.1875,-0.25 -0.0994,-0.13708 -0.1942,-0.28762 -0.28125,-0.4375 -0.88793,-1.50868 -0.94758,-3.43097 0,-5.0625 0.43899,-0.75585 1.05533,-1.37577 1.8125,-1.8125 0.3994,-0.21732 0.5994,-0.72074 0.46875,-1.15625 -0.13066,-0.43552 -0.57818,-0.75717 -1.03125,-0.71875 z"
         style="color:#000000;font-style:normal;font-variant:normal;font-weight:normal;font-stretch:normal;font-size:medium;line-height:normal;font-family:Sans;-inkscape-font-specification:Sans;text-indent:0;text-align:start;text-decoration:none;text-decoration-line:none;letter-spacing:normal;word-spacing:normal;text-transform:none;writing-mode:lr-tb;direction:ltr;baseline-shift:baseline;text-anchor:start;display:inline;overflow:visible;visibility:visible;opacity:0.2;fill:#000000;fill-opacity:1;stroke:none;stroke-width:2.33333325;marker:none;enable-background:new" />
      <path
         style="color:#000000;font-style:normal;font-variant:normal;font-weight:normal;font-stretch:normal;font-size:medium;line-height:normal;font-family:Sans;-inkscape-font-specification:Sans;text-indent:0;text-align:start;text-decoration:none;text-decoration-line:none;letter-spacing:normal;word-spacing:normal;text-transform:none;writing-mode:lr-tb;direction:ltr;baseline-shift:baseline;text-anchor:start;display:inline;overflow:visible;visibility:visible;opacity:1;fill:#ffffff;fill-opacity:1;stroke:none;stroke-width:2.33333325;marker:none;enable-background:new"
         d="m 332.0001,192.5001 c -0.554,0 -1,0.446 -1,1 v 5 c 0,0.554 0.446,1 1,1 0.554,0 1,-0.446 1,-1 v -5 c 0,-0.554 -0.446,-1 -1,-1 z m -3.0625,1.78125 c -0.15536,0.0169 -0.30656,0.0709 -0.4375,0.15625 -1.05993,0.61135 -1.94797,1.50441 -2.5625,2.5625 -1.28538,2.21314 -1.20735,4.84868 -0.0312,6.9375 0.0109,0.0209 0.0186,0.0424 0.0312,0.0625 0.024,0.0413 0.0378,0.0844 0.0625,0.125 0.0388,0.0643 0.0841,0.12439 0.125,0.1875 0.0784,0.11995 0.16544,0.23006 0.25,0.34375 0.0687,0.0931 0.14517,0.19127 0.21875,0.28125 0.0584,0.071 0.12668,0.15048 0.1875,0.21875 0.0284,0.032 0.0647,0.0622 0.0937,0.0937 0.12607,0.13596 0.23983,0.25064 0.375,0.375 0.10085,0.0935 0.20538,0.19313 0.3125,0.28125 0.09,0.0736 0.18811,0.15001 0.28125,0.21875 0.11369,0.0846 0.2238,0.17162 0.34375,0.25 0.0631,0.0409 0.12324,0.0862 0.1875,0.125 0.0406,0.0247 0.0838,0.0385 0.125,0.0625 0.14255,0.0821 0.29002,0.14696 0.4375,0.21875 0.0639,0.0312 0.123,0.0647 0.1875,0.0937 0.1423,0.0642 0.29151,0.13292 0.4375,0.1875 0.20063,0.0746 0.42094,0.13253 0.625,0.1875 0.18718,0.0504 0.37345,0.0908 0.5625,0.125 0.25277,0.0464 0.52436,0.0752 0.78125,0.0937 0.15684,0.0101 0.31215,0.0317 0.46875,0.0312 0.1566,4.8e-4 0.31191,-0.0211 0.46875,-0.0312 0.1323,-0.01 0.27488,-0.0143 0.40625,-0.0312 0.12921,-0.0159 0.24628,-0.0392 0.375,-0.0625 0.18905,-0.0342 0.37532,-0.0746 0.5625,-0.125 0.20406,-0.055 0.42437,-0.11293 0.625,-0.1875 0.40725,-0.15226 0.81269,-0.33639 1.18749,-0.5625 0.0657,-0.04 0.12352,-0.0832 0.1875,-0.125 0.11936,-0.0773 0.22883,-0.1652 0.34375,-0.25 0.0919,-0.0684 0.19346,-0.14653 0.28125,-0.21875 0.10486,-0.0858 0.21224,-0.18901 0.3125,-0.28125 0.1677,-0.15551 0.31874,-0.29955 0.46875,-0.46875 0.12164,-0.13654 0.26315,-0.29002 0.375,-0.4375 0.0316,-0.0419 0.0632,-0.0824 0.0937,-0.125 0.10264,-0.14156 0.18815,-0.2865 0.28125,-0.4375 0.032,-0.0523 0.0632,-0.10322 0.0937,-0.15625 0.0127,-0.0201 0.0204,-0.0416 0.0312,-0.0625 1.1761,-2.08882 1.25413,-4.72436 -0.0312,-6.9375 -0.61453,-1.05809 -1.50257,-1.95115 -2.5625,-2.5625 -0.13094,-0.0854 -0.28214,-0.13935 -0.4375,-0.15625 -0.45306,-0.0384 -0.90058,0.28323 -1.03124,0.71875 -0.13065,0.43551 0.0693,0.93893 0.46875,1.15625 0.75716,0.43673 1.3735,1.05665 1.81249,1.8125 0.94758,1.63153 0.88793,3.55382 0,5.0625 -0.0116,0.0197 -0.0194,0.043 -0.0312,0.0625 -0.13367,0.22314 -0.2767,0.43113 -0.4375,0.625 -0.0933,0.11089 -0.20862,0.20919 -0.3125,0.3125 -0.10331,0.10388 -0.20161,0.21925 -0.3125,0.3125 -0.19387,0.1608 -0.40185,0.30383 -0.62499,0.4375 -0.0391,0.0238 -0.0853,0.0399 -0.125,0.0625 -0.2813,0.1585 -0.58005,0.27466 -0.875,0.375 -0.24169,0.0822 -0.4724,0.14327 -0.71875,0.1875 -0.13196,0.023 -0.27253,0.0501 -0.40625,0.0625 -0.15641,0.0148 -0.31271,0.0311 -0.46875,0.0312 -0.15604,-1.3e-4 -0.31234,-0.0164 -0.46875,-0.0312 -0.13372,-0.0124 -0.27429,-0.0395 -0.40625,-0.0625 -0.24635,-0.0442 -0.47706,-0.10528 -0.71875,-0.1875 -0.1868,-0.0636 -0.38063,-0.10075 -0.5625,-0.1875 -0.1074,-0.0513 -0.20875,-0.12837 -0.3125,-0.1875 -0.0198,-0.0112 -0.0428,-0.0198 -0.0625,-0.0312 -0.02,-0.0116 -0.0427,-0.0194 -0.0625,-0.0312 -0.12625,-0.0767 -0.25537,-0.16162 -0.375,-0.25 -0.007,-0.005 -0.0245,0.005 -0.0312,0 -0.0751,-0.0561 -0.14655,-0.12678 -0.21875,-0.1875 -0.11507,-0.0954 -0.208,-0.20858 -0.3125,-0.3125 -0.10392,-0.1045 -0.21706,-0.19743 -0.3125,-0.3125 -0.0665,-0.079 -0.12651,-0.16745 -0.1875,-0.25 -0.0994,-0.13708 -0.1942,-0.28762 -0.28125,-0.4375 -0.88793,-1.50868 -0.94758,-3.43097 0,-5.0625 0.43899,-0.75585 1.05533,-1.37577 1.8125,-1.8125 0.3994,-0.21732 0.5994,-0.72074 0.46875,-1.15625 -0.13066,-0.43552 -0.57818,-0.75717 -1.03125,-0.71875 z"
         id="path3983"
         inkscape:connector-curvature="0" />
      <path
         inkscape:connector-curvature="0"
         id="path4959"
         d="m 151.99731,83.008235 c -5.54027,0 -10,4.459736 -10,10 v 50.000015 c 0,5.54026 4.45973,10 10,10 5.54026,0 10,-4.45974 10,-10 V 93.008235 c 0,-5.540264 -4.45974,-10 -10,-10 z m -29.78124,17.781245 c -0.28281,-0.003 -0.56057,0.007 -0.84375,0.0312 -1.55368,0.16901 -3.06554,0.70896 -4.375,1.5625 -10.59981,6.1138 -19.479411,15.04362 -25.625005,25.62502 -12.703506,21.87261 -12.05676,47.88637 -0.6875,68.65624 0.190657,0.46562 0.416306,0.9127 0.6875,1.34375 0.316942,0.5457 0.67056,1.05971 1.000001,1.59375 0.595467,0.96528 1.208785,1.91694 1.84375,2.84375 0.647187,0.94465 1.313584,1.87708 2,2.78125 1.392919,1.83479 2.831906,3.5851 4.375004,5.25 0.01,0.0108 0.0213,0.0205 0.0312,0.0312 0.62263,0.67093 1.26094,1.32594 1.90625,1.96875 0.6428,0.6453 1.29782,1.28362 1.96875,1.90625 0.0108,0.01 0.0205,0.0214 0.0312,0.0312 1.6649,1.54309 3.41521,2.98208 5.25,4.375 0.90417,0.68642 1.8366,1.35281 2.78125,2 0.92681,0.63497 1.87847,1.24828 2.84375,1.84375 0.53404,0.32944 1.04805,0.68306 1.59375,1 10.57797,6.14363 22.1093,9.14908 33.56249,9.34375 0.95185,0.0162 1.92505,0.0227 2.875,0 11.44452,-0.19886 22.99267,-3.20484 33.5625,-9.34375 0.5457,-0.31694 1.05971,-0.67056 1.59375,-1 0.96528,-0.59547 1.91694,-1.20878 2.84375,-1.84375 1.89863,-1.30077 3.70344,-2.66947 5.4375,-4.125 0.87948,-0.73821 1.75741,-1.47485 2.59375,-2.25 0.0108,-0.01 0.0204,-0.0212 0.0312,-0.0312 0.80073,-0.74309 1.58311,-1.50601 2.34375,-2.28125 0.0977,-0.0996 0.1842,-0.2124 0.28125,-0.3125 0.56287,-0.5806 1.14715,-1.1525 1.6875,-1.75 0.63437,-0.69675 1.23467,-1.43014 1.84375,-2.15625 0.72637,-0.86592 1.43629,-1.74906 2.125,-2.65625 0.68642,-0.90417 1.35281,-1.8366 2,-2.78125 0.63497,-0.92681 1.24828,-1.87847 1.84375,-2.84375 0.32944,-0.53404 0.68306,-1.04805 1,-1.59375 0.27119,-0.43105 0.49684,-0.87813 0.6875,-1.34375 11.36926,-20.76987 12.01601,-46.78363 -0.6875,-68.65624 -6.14559,-10.5814 -15.02519,-19.51122 -25.625,-25.62502 -1.30946,-0.85354 -2.82132,-1.39349 -4.375,-1.5625 -4.53091,-0.38421 -9.13084,2.73834 -10.4375,7.09376 -1.30656,4.35531 0.81831,9.48296 4.8125,11.65626 7.57206,4.36751 13.73489,10.56614 18.125,18.125 9.13575,15.72983 8.91985,34.26232 0.9375,49.09374 -0.005,0.007 0.005,0.0243 0,0.0312 -0.36067,0.47179 -0.67605,0.95813 -0.9375,1.5 -2.14533,3.69381 -4.68288,7.0021 -7.53125,9.90625 -0.0624,0.0625 -0.12477,0.12531 -0.1875,0.1875 -0.10365,0.10455 -0.20805,0.20901 -0.3125,0.3125 -0.50787,0.49461 -1.03019,0.99342 -1.5625,1.46875 -2.48018,2.21466 -5.22093,4.19639 -8.21875,5.9375 -7.48485,4.34714 -15.59969,6.5868 -23.65625,6.875 -0.0104,3.7e-4 -0.0208,-3.7e-4 -0.0312,0 -0.0206,6.1e-4 -0.0419,-5.9e-4 -0.0625,0 -0.51713,0.0175 -1.04612,0.0297 -1.5625,0.0312 -0.54399,-0.001 -1.08018,-0.0121 -1.625,-0.0312 -8.06682,-0.28353 -16.19295,-2.52223 -23.68749,-6.875 -2.99782,-1.74111 -5.73857,-3.72284 -8.21875,-5.9375 -0.0495,-0.0442 -0.10697,-0.0806 -0.15625,-0.125 -0.47491,-0.4348 -0.94646,-0.88823 -1.40625,-1.34375 -0.10482,-0.10209 -0.20872,-0.20961 -0.3125,-0.3125 -0.10289,-0.10378 -0.21041,-0.20768 -0.3125,-0.3125 -0.50308,-0.50779 -0.99095,-1.0363 -1.46875,-1.5625 -2.21466,-2.48018 -4.19639,-5.22093 -5.9375,-8.21875 -0.23917,-0.4957 -0.55217,-0.93774 -0.875,-1.375 -0.0273,-0.0369 -0.0347,-0.0885 -0.0625,-0.125 -7.995406,-14.83552 -8.203319,-33.38645 0.9375,-49.12499 4.39011,-7.55886 10.55294,-13.75749 18.125,-18.125 3.99419,-2.1733 6.08781,-7.30095 4.78125,-11.65626 -1.22499,-4.08321 -5.32039,-7.0828 -9.5625,-7.12501 z"
         style="color:#000000;font-style:normal;font-variant:normal;font-weight:normal;font-stretch:normal;font-size:medium;line-height:normal;font-family:Sans;-inkscape-font-specification:Sans;text-indent:0;text-align:start;text-decoration:none;text-decoration-line:none;letter-spacing:normal;word-spacing:normal;text-transform:none;writing-mode:lr-tb;direction:ltr;baseline-shift:baseline;text-anchor:start;display:inline;overflow:visible;visibility:visible;opacity:0.2;fill:#000000;fill-opacity:1;stroke:none;stroke-width:2.33333325;marker:none;enable-background:new" />
      <path
         style="color:#000000;font-style:normal;font-variant:normal;font-weight:normal;font-stretch:normal;font-size:medium;line-height:normal;font-family:Sans;-inkscape-font-specification:Sans;text-indent:0;text-align:start;text-decoration:none;text-decoration-line:none;letter-spacing:normal;word-spacing:normal;text-transform:none;writing-mode:lr-tb;direction:ltr;baseline-shift:baseline;text-anchor:start;display:inline;overflow:visible;visibility:visible;opacity:1;fill:#ffffff;fill-opacity:1;stroke:none;stroke-width:2.33333325;marker:none;enable-background:new"
         d="m 151.99731,82.008327 c -5.54027,0 -10,4.459736 -10,10 v 50.000013 c 0,5.54026 4.45973,10 10,10 5.54026,0 10,-4.45974 10,-10 V 92.008327 c 0,-5.540264 -4.45974,-10 -10,-10 z m -29.78124,17.78125 c -0.28281,-0.0028 -0.56057,0.0072 -0.84375,0.03125 -1.55368,0.169008 -3.06554,0.708963 -4.375,1.562493 -10.59981,6.1138 -19.479411,15.04362 -25.625005,25.62502 -12.703506,21.87261 -12.05676,47.88637 -0.6875,68.65624 0.190657,0.46562 0.416306,0.9127 0.6875,1.34375 0.316942,0.5457 0.67056,1.05971 1.000001,1.59375 0.595467,0.96528 1.208785,1.91694 1.84375,2.84375 0.647187,0.94465 1.313584,1.87708 2,2.78125 1.392919,1.83479 2.831906,3.5851 4.375004,5.25 0.01,0.0108 0.0213,0.0205 0.0312,0.0312 0.62263,0.67093 1.26094,1.32594 1.90625,1.96875 0.6428,0.6453 1.29782,1.28362 1.96875,1.90625 0.0108,0.01 0.0205,0.0214 0.0312,0.0312 1.6649,1.54309 3.41521,2.98208 5.25,4.375 0.90417,0.68642 1.8366,1.35281 2.78125,2 0.92681,0.63497 1.87847,1.24828 2.84375,1.84375 0.53404,0.32944 1.04805,0.68306 1.59375,1 10.57797,6.14363 22.1093,9.14908 33.56249,9.34375 0.95185,0.0162 1.92505,0.0227 2.875,0 11.44452,-0.19886 22.99267,-3.20484 33.5625,-9.34375 0.5457,-0.31694 1.05971,-0.67056 1.59375,-1 0.96528,-0.59547 1.91694,-1.20878 2.84375,-1.84375 1.89863,-1.30077 3.70344,-2.66947 5.4375,-4.125 0.87948,-0.73821 1.75741,-1.47485 2.59375,-2.25 0.0108,-0.01 0.0204,-0.0212 0.0312,-0.0312 0.80073,-0.74309 1.58311,-1.50601 2.34375,-2.28125 0.0977,-0.0996 0.1842,-0.2124 0.28125,-0.3125 0.56287,-0.5806 1.14715,-1.1525 1.6875,-1.75 0.63437,-0.69675 1.23467,-1.43014 1.84375,-2.15625 0.72637,-0.86592 1.43629,-1.74906 2.125,-2.65625 0.68642,-0.90417 1.35281,-1.8366 2,-2.78125 0.63497,-0.92681 1.24828,-1.87847 1.84375,-2.84375 0.32944,-0.53404 0.68306,-1.04805 1,-1.59375 0.27119,-0.43105 0.49684,-0.87813 0.6875,-1.34375 11.36926,-20.76987 12.01601,-46.78363 -0.6875,-68.65624 -6.14559,-10.5814 -15.02519,-19.51122 -25.625,-25.62502 -1.30946,-0.85353 -2.82132,-1.393485 -4.375,-1.562493 -4.53091,-0.384219 -9.13084,2.738333 -10.4375,7.093753 -1.30656,4.35531 0.81831,9.48296 4.8125,11.65626 7.57206,4.36751 13.73489,10.56614 18.125,18.125 9.13575,15.72983 8.91985,34.26232 0.9375,49.09374 -0.005,0.007 0.005,0.0243 0,0.0312 -0.36067,0.47179 -0.67605,0.95813 -0.9375,1.5 -2.14533,3.69381 -4.68288,7.0021 -7.53125,9.90625 -0.0624,0.0625 -0.12477,0.12531 -0.1875,0.1875 -0.10365,0.10455 -0.20805,0.20901 -0.3125,0.3125 -0.50787,0.49461 -1.03019,0.99342 -1.5625,1.46875 -2.48018,2.21466 -5.22093,4.19639 -8.21875,5.9375 -7.48485,4.34714 -15.59969,6.5868 -23.65625,6.875 -0.0104,3.7e-4 -0.0208,-3.7e-4 -0.0312,0 -0.0206,6.1e-4 -0.0419,-5.9e-4 -0.0625,0 -0.51713,0.0175 -1.04612,0.0297 -1.5625,0.0312 -0.54399,-0.001 -1.08018,-0.0121 -1.625,-0.0312 -8.06682,-0.28353 -16.19295,-2.52223 -23.68749,-6.875 -2.99782,-1.74111 -5.73857,-3.72284 -8.21875,-5.9375 -0.0495,-0.0442 -0.10697,-0.0806 -0.15625,-0.125 -0.47491,-0.4348 -0.94646,-0.88823 -1.40625,-1.34375 -0.10482,-0.10209 -0.20872,-0.20961 -0.3125,-0.3125 -0.10289,-0.10378 -0.21041,-0.20768 -0.3125,-0.3125 -0.50308,-0.50779 -0.99095,-1.0363 -1.46875,-1.5625 -2.21466,-2.48018 -4.19639,-5.22093 -5.9375,-8.21875 -0.23917,-0.4957 -0.55217,-0.93774 -0.875,-1.375 -0.0273,-0.0369 -0.0347,-0.0885 -0.0625,-0.125 -7.995406,-14.83552 -8.203319,-33.38645 0.9375,-49.12499 4.39011,-7.55886 10.55294,-13.75749 18.125,-18.125 3.99419,-2.1733 6.08781,-7.30095 4.78125,-11.65626 -1.22499,-4.08321 -5.32039,-7.082795 -9.5625,-7.125003 z"
         id="path4013"
         inkscape:connector-curvature="0" />
      <path
         style="color:#000000;font-style:normal;font-variant:normal;font-weight:normal;font-stretch:normal;font-size:medium;line-height:normal;font-family:Sans;-inkscape-font-specification:Sans;text-indent:0;text-align:start;text-decoration:none;text-decoration-line:none;letter-spacing:normal;word-spacing:normal;text-transform:none;writing-mode:lr-tb;direction:ltr;baseline-shift:baseline;text-anchor:start;display:inline;overflow:visible;visibility:visible;opacity:0.2;fill:#000000;fill-opacity:1;stroke:none;stroke-width:2.33333325;marker:none;enable-background:new"
         d="m 383.0001,194.50001 c -0.554,0 -1,0.446 -1,1 v 5 c 0,0.554 0.446,1 1,1 0.554,0 1,-0.446 1,-1 v -5 c 0,-0.554 -0.446,-1 -1,-1 z m -3.0625,1.78125 c -0.15536,0.0169 -0.30656,0.0709 -0.4375,0.15625 -1.05993,0.61135 -1.94797,1.50441 -2.5625,2.5625 -1.28538,2.21314 -1.20735,4.84868 -0.0312,6.9375 0.0109,0.0209 0.0186,0.0424 0.0312,0.0625 0.024,0.0413 0.0378,0.0844 0.0625,0.125 0.0388,0.0643 0.0841,0.12439 0.125,0.1875 0.0784,0.11995 0.16544,0.23006 0.25,0.34375 0.0687,0.0931 0.14517,0.19127 0.21875,0.28125 0.0584,0.071 0.12668,0.15048 0.1875,0.21875 0.0284,0.032 0.0647,0.0622 0.0937,0.0937 0.12607,0.13596 0.23983,0.25064 0.375,0.375 0.10085,0.0935 0.20538,0.19313 0.3125,0.28125 0.09,0.0736 0.18811,0.15001 0.28125,0.21875 0.11369,0.0846 0.2238,0.17162 0.34375,0.25 0.0631,0.0409 0.12324,0.0862 0.1875,0.125 0.0406,0.0247 0.0838,0.0385 0.125,0.0625 0.14255,0.0821 0.29002,0.14696 0.4375,0.21875 0.0639,0.0312 0.123,0.0647 0.1875,0.0937 0.1423,0.0642 0.29151,0.13292 0.4375,0.1875 0.20063,0.0746 0.42094,0.13253 0.625,0.1875 0.18718,0.0504 0.37345,0.0908 0.5625,0.125 0.25277,0.0464 0.52436,0.0752 0.78125,0.0937 0.15684,0.0101 0.31215,0.0317 0.46875,0.0312 0.1566,4.8e-4 0.31191,-0.0211 0.46875,-0.0312 0.1323,-0.01 0.27488,-0.0143 0.40625,-0.0312 0.12921,-0.0159 0.24628,-0.0392 0.375,-0.0625 0.18905,-0.0342 0.37532,-0.0746 0.5625,-0.125 0.20406,-0.055 0.42437,-0.11293 0.625,-0.1875 0.40725,-0.15226 0.81269,-0.33639 1.18749,-0.5625 0.0657,-0.04 0.12352,-0.0832 0.1875,-0.125 0.11936,-0.0773 0.22883,-0.1652 0.34375,-0.25 0.0919,-0.0684 0.19346,-0.14653 0.28125,-0.21875 0.10486,-0.0858 0.21224,-0.18901 0.3125,-0.28125 0.1677,-0.15551 0.31874,-0.29955 0.46875,-0.46875 0.12164,-0.13654 0.26315,-0.29002 0.375,-0.4375 0.0316,-0.0419 0.0632,-0.0824 0.0937,-0.125 0.10264,-0.14156 0.18815,-0.2865 0.28125,-0.4375 0.032,-0.0523 0.0632,-0.10322 0.0937,-0.15625 0.0127,-0.0201 0.0204,-0.0416 0.0312,-0.0625 1.1761,-2.08882 1.25413,-4.72436 -0.0312,-6.9375 -0.61453,-1.05809 -1.50257,-1.95115 -2.5625,-2.5625 -0.13094,-0.0854 -0.28214,-0.13935 -0.4375,-0.15625 -0.45306,-0.0384 -0.90058,0.28323 -1.03124,0.71875 -0.13065,0.43551 0.0693,0.93893 0.46875,1.15625 0.75716,0.43673 1.3735,1.05665 1.81249,1.8125 0.94758,1.63153 0.88793,3.55382 0,5.0625 -0.0116,0.0197 -0.0194,0.043 -0.0312,0.0625 -0.13367,0.22314 -0.2767,0.43113 -0.4375,0.625 -0.0933,0.11089 -0.20862,0.20919 -0.3125,0.3125 -0.10331,0.10388 -0.20161,0.21925 -0.3125,0.3125 -0.19387,0.1608 -0.40185,0.30383 -0.62499,0.4375 -0.0391,0.0238 -0.0853,0.0399 -0.125,0.0625 -0.2813,0.1585 -0.58005,0.27466 -0.875,0.375 -0.24169,0.0822 -0.4724,0.14327 -0.71875,0.1875 -0.13196,0.023 -0.27253,0.0501 -0.40625,0.0625 -0.15641,0.0148 -0.31271,0.0311 -0.46875,0.0312 -0.15604,-1.3e-4 -0.31234,-0.0164 -0.46875,-0.0312 -0.13372,-0.0124 -0.27429,-0.0395 -0.40625,-0.0625 -0.24635,-0.0442 -0.47706,-0.10528 -0.71875,-0.1875 -0.1868,-0.0636 -0.38063,-0.10075 -0.5625,-0.1875 -0.1074,-0.0513 -0.20875,-0.12837 -0.3125,-0.1875 -0.0198,-0.0112 -0.0428,-0.0198 -0.0625,-0.0312 -0.02,-0.0116 -0.0427,-0.0194 -0.0625,-0.0312 -0.12625,-0.0767 -0.25537,-0.16162 -0.375,-0.25 -0.007,-0.005 -0.0245,0.005 -0.0312,0 -0.0751,-0.0561 -0.14655,-0.12678 -0.21875,-0.1875 -0.11507,-0.0954 -0.208,-0.20858 -0.3125,-0.3125 -0.10392,-0.1045 -0.21706,-0.19743 -0.3125,-0.3125 -0.0665,-0.079 -0.12651,-0.16745 -0.1875,-0.25 -0.0994,-0.13708 -0.1942,-0.28762 -0.28125,-0.4375 -0.88793,-1.50868 -0.94758,-3.43097 0,-5.0625 0.43899,-0.75585 1.05533,-1.37577 1.8125,-1.8125 0.3994,-0.21732 0.5994,-0.72074 0.46875,-1.15625 -0.13066,-0.43552 -0.57818,-0.75717 -1.03125,-0.71875 z"
         id="path962"
         inkscape:connector-curvature="0" />
      <path
         inkscape:connector-curvature="0"
         id="path965"
         d="m 383.0001,193.5001 c -0.554,0 -1,0.446 -1,1 v 5 c 0,0.554 0.446,1 1,1 0.554,0 1,-0.446 1,-1 v -5 c 0,-0.554 -0.446,-1 -1,-1 z m -3.0625,1.78125 c -0.15536,0.0169 -0.30656,0.0709 -0.4375,0.15625 -1.05993,0.61135 -1.94797,1.50441 -2.5625,2.5625 -1.28538,2.21314 -1.20735,4.84868 -0.0312,6.9375 0.0109,0.0209 0.0186,0.0424 0.0312,0.0625 0.024,0.0413 0.0378,0.0844 0.0625,0.125 0.0388,0.0643 0.0841,0.12439 0.125,0.1875 0.0784,0.11995 0.16544,0.23006 0.25,0.34375 0.0687,0.0931 0.14517,0.19127 0.21875,0.28125 0.0584,0.071 0.12668,0.15048 0.1875,0.21875 0.0284,0.032 0.0647,0.0622 0.0937,0.0937 0.12607,0.13596 0.23983,0.25064 0.375,0.375 0.10085,0.0935 0.20538,0.19313 0.3125,0.28125 0.09,0.0736 0.18811,0.15001 0.28125,0.21875 0.11369,0.0846 0.2238,0.17162 0.34375,0.25 0.0631,0.0409 0.12324,0.0862 0.1875,0.125 0.0406,0.0247 0.0838,0.0385 0.125,0.0625 0.14255,0.0821 0.29002,0.14696 0.4375,0.21875 0.0639,0.0312 0.123,0.0647 0.1875,0.0937 0.1423,0.0642 0.29151,0.13292 0.4375,0.1875 0.20063,0.0746 0.42094,0.13253 0.625,0.1875 0.18718,0.0504 0.37345,0.0908 0.5625,0.125 0.25277,0.0464 0.52436,0.0752 0.78125,0.0937 0.15684,0.0101 0.31215,0.0317 0.46875,0.0312 0.1566,4.8e-4 0.31191,-0.0211 0.46875,-0.0312 0.1323,-0.01 0.27488,-0.0143 0.40625,-0.0312 0.12921,-0.0159 0.24628,-0.0392 0.375,-0.0625 0.18905,-0.0342 0.37532,-0.0746 0.5625,-0.125 0.20406,-0.055 0.42437,-0.11293 0.625,-0.1875 0.40725,-0.15226 0.81269,-0.33639 1.18749,-0.5625 0.0657,-0.04 0.12352,-0.0832 0.1875,-0.125 0.11936,-0.0773 0.22883,-0.1652 0.34375,-0.25 0.0919,-0.0684 0.19346,-0.14653 0.28125,-0.21875 0.10486,-0.0858 0.21224,-0.18901 0.3125,-0.28125 0.1677,-0.15551 0.31874,-0.29955 0.46875,-0.46875 0.12164,-0.13654 0.26315,-0.29002 0.375,-0.4375 0.0316,-0.0419 0.0632,-0.0824 0.0937,-0.125 0.10264,-0.14156 0.18815,-0.2865 0.28125,-0.4375 0.032,-0.0523 0.0632,-0.10322 0.0937,-0.15625 0.0127,-0.0201 0.0204,-0.0416 0.0312,-0.0625 1.1761,-2.08882 1.25413,-4.72436 -0.0312,-6.9375 -0.61453,-1.05809 -1.50257,-1.95115 -2.5625,-2.5625 -0.13094,-0.0854 -0.28214,-0.13935 -0.4375,-0.15625 -0.45306,-0.0384 -0.90058,0.28323 -1.03124,0.71875 -0.13065,0.43551 0.0693,0.93893 0.46875,1.15625 0.75716,0.43673 1.3735,1.05665 1.81249,1.8125 0.94758,1.63153 0.88793,3.55382 0,5.0625 -0.0116,0.0197 -0.0194,0.043 -0.0312,0.0625 -0.13367,0.22314 -0.2767,0.43113 -0.4375,0.625 -0.0933,0.11089 -0.20862,0.20919 -0.3125,0.3125 -0.10331,0.10388 -0.20161,0.21925 -0.3125,0.3125 -0.19387,0.1608 -0.40185,0.30383 -0.62499,0.4375 -0.0391,0.0238 -0.0853,0.0399 -0.125,0.0625 -0.2813,0.1585 -0.58005,0.27466 -0.875,0.375 -0.24169,0.0822 -0.4724,0.14327 -0.71875,0.1875 -0.13196,0.023 -0.27253,0.0501 -0.40625,0.0625 -0.15641,0.0148 -0.31271,0.0311 -0.46875,0.0312 -0.15604,-1.3e-4 -0.31234,-0.0164 -0.46875,-0.0312 -0.13372,-0.0124 -0.27429,-0.0395 -0.40625,-0.0625 -0.24635,-0.0442 -0.47706,-0.10528 -0.71875,-0.1875 -0.1868,-0.0636 -0.38063,-0.10075 -0.5625,-0.1875 -0.1074,-0.0513 -0.20875,-0.12837 -0.3125,-0.1875 -0.0198,-0.0112 -0.0428,-0.0198 -0.0625,-0.0312 -0.02,-0.0116 -0.0427,-0.0194 -0.0625,-0.0312 -0.12625,-0.0767 -0.25537,-0.16162 -0.375,-0.25 -0.007,-0.005 -0.0245,0.005 -0.0312,0 -0.0751,-0.0561 -0.14655,-0.12678 -0.21875,-0.1875 -0.11507,-0.0954 -0.208,-0.20858 -0.3125,-0.3125 -0.10392,-0.1045 -0.21706,-0.19743 -0.3125,-0.3125 -0.0665,-0.079 -0.12651,-0.16745 -0.1875,-0.25 -0.0994,-0.13708 -0.1942,-0.28762 -0.28125,-0.4375 -0.88793,-1.50868 -0.94758,-3.43097 0,-5.0625 0.43899,-0.75585 1.05533,-1.37577 1.8125,-1.8125 0.3994,-0.21732 0.5994,-0.72074 0.46875,-1.15625 -0.13066,-0.43552 -0.57818,-0.75717 -1.03125,-0.71875 z"
         style="color:#000000;font-style:normal;font-variant:normal;font-weight:normal;font-stretch:normal;font-size:medium;line-height:normal;font-family:Sans;-inkscape-font-specification:Sans;text-indent:0;text-align:start;text-decoration:none;text-decoration-line:none;letter-spacing:normal;word-spacing:normal;text-transform:none;writing-mode:lr-tb;direction:ltr;baseline-shift:baseline;text-anchor:start;display:inline;overflow:visible;visibility:visible;opacity:1;fill:#ffffff;fill-opacity:1;stroke:none;stroke-width:2.33333325;marker:none;enable-background:new" />
      <path
         inkscape:connector-curvature="0"
         id="path4955"
         d="m 328.01567,239.00006 c -0.40462,0 -0.75,0.3035 -0.75,0.6875 v 3.46875 c 0,0.38402 0.34538,0.6875 0.75,0.6875 0.40462,0 0.71875,-0.30348 0.71875,-0.6875 v -3.46875 c 0,-0.38401 -0.31413,-0.6875 -0.71875,-0.6875 z m -2,1.34375 c -0.10157,0.0111 -0.19565,0.0693 -0.28125,0.125 -0.69294,0.39967 -1.28574,0.96452 -1.6875,1.65625 -0.79091,1.36178 -0.76893,2.98961 -0.125,4.3125 8.2e-4,0.0108 -10e-4,0.0205 0,0.0312 0.0109,0.0871 0.0465,0.17486 0.0937,0.25 0.25852,0.44512 0.60004,0.80336 0.96875,1.125 0.2329,0.20317 0.48519,0.38074 0.75,0.53125 0.20517,0.11661 0.40563,0.22889 0.625,0.3125 0.11323,0.0444 0.22868,0.0903 0.34375,0.125 0.1735,0.0507 0.35296,0.0949 0.53125,0.125 0.0724,0.0125 0.14616,0.0223 0.21875,0.0312 0.0202,0.002 0.0423,-0.002 0.0625,0 0.16688,0.0178 0.33153,0.0319 0.5,0.0312 0.15792,-5.1e-4 0.3123,-0.0145 0.46875,-0.0312 0.021,-0.002 0.0415,0.003 0.0625,0 0.0724,-0.009 0.14691,-0.0191 0.21875,-0.0312 0.17912,-0.0309 0.35486,-0.0718 0.53125,-0.125 0.11822,-0.0345 0.22853,-0.0811 0.34375,-0.125 0.21668,-0.0826 0.42215,-0.19771 0.625,-0.3125 0.26335,-0.14902 0.51804,-0.33023 0.75,-0.53125 0.23037,-0.19963 0.4346,-0.40786 0.625,-0.65625 0.11823,-0.15422 0.24372,-0.29652 0.34375,-0.46875 0.0473,-0.0751 0.0828,-0.16294 0.0937,-0.25 10e-4,-0.0107 -8.1e-4,-0.0205 0,-0.0312 0.64394,-1.32289 0.66591,-2.95072 -0.125,-4.3125 -0.40176,-0.69173 -0.99455,-1.25658 -1.6875,-1.65625 -0.0856,-0.0557 -0.17968,-0.1139 -0.28125,-0.125 -0.29619,-0.0251 -0.6021,0.18403 -0.6875,0.46875 -0.0854,0.28472 0.0514,0.63917 0.3125,0.78125 0.49501,0.28551 0.90051,0.69336 1.1875,1.1875 0.68293,1.17585 0.57392,2.5748 -0.1875,3.59375 -0.2538,0.33965 -0.57679,0.64736 -0.96875,0.875 -0.17513,0.10172 -0.34753,0.18317 -0.53125,0.25 -0.0308,0.0107 -0.0626,0.0215 -0.0937,0.0312 -0.19723,0.0651 -0.42379,0.0983 -0.625,0.125 -0.12675,0.0168 -0.24833,0.0293 -0.375,0.0312 -0.13711,-8.3e-4 -0.26898,-0.013 -0.40625,-0.0312 -0.21089,-0.028 -0.41861,-0.0548 -0.625,-0.125 -0.20639,-0.0702 -0.42903,-0.16743 -0.625,-0.28125 -0.39195,-0.22764 -0.71495,-0.53535 -0.96875,-0.875 -0.76141,-1.01895 -0.87043,-2.4179 -0.1875,-3.59375 0.28699,-0.49414 0.6925,-0.90199 1.1875,-1.1875 0.26112,-0.14208 0.39792,-0.49653 0.3125,-0.78125 -0.0854,-0.28472 -0.3913,-0.49387 -0.6875,-0.46875 z"
         style="color:#000000;font-style:normal;font-variant:normal;font-weight:normal;font-stretch:normal;font-size:medium;line-height:normal;font-family:Sans;-inkscape-font-specification:Sans;text-indent:0;text-align:start;text-decoration:none;text-decoration-line:none;letter-spacing:normal;word-spacing:normal;text-transform:none;writing-mode:lr-tb;direction:ltr;baseline-shift:baseline;text-anchor:start;display:inline;overflow:visible;visibility:visible;opacity:0.2;fill:#000000;fill-opacity:1;stroke:none;stroke-width:2.33333325;marker:none;enable-background:new" />
      <path
         style="color:#000000;font-style:normal;font-variant:normal;font-weight:normal;font-stretch:normal;font-size:medium;line-height:normal;font-family:Sans;-inkscape-font-specification:Sans;text-indent:0;text-align:start;text-decoration:none;text-decoration-line:none;letter-spacing:normal;word-spacing:normal;text-transform:none;writing-mode:lr-tb;direction:ltr;baseline-shift:baseline;text-anchor:start;display:inline;overflow:visible;visibility:visible;opacity:1;fill:#ffffff;fill-opacity:1;stroke:none;stroke-width:2.33333325;marker:none;enable-background:new"
         d="m 328.01567,238.00015 c -0.40462,0 -0.75,0.3035 -0.75,0.6875 v 3.46875 c 0,0.38402 0.34538,0.6875 0.75,0.6875 0.40462,0 0.71875,-0.30348 0.71875,-0.6875 v -3.46875 c 0,-0.38401 -0.31413,-0.6875 -0.71875,-0.6875 z m -2,1.34375 c -0.10157,0.0111 -0.19565,0.0693 -0.28125,0.125 -0.69294,0.39967 -1.28574,0.96452 -1.6875,1.65625 -0.79091,1.36178 -0.76893,2.98961 -0.125,4.3125 8.2e-4,0.0108 -10e-4,0.0205 0,0.0312 0.0109,0.0871 0.0465,0.17486 0.0937,0.25 0.25852,0.44512 0.60004,0.80336 0.96875,1.125 0.2329,0.20317 0.48519,0.38074 0.75,0.53125 0.20517,0.11661 0.40563,0.22889 0.625,0.3125 0.11323,0.0444 0.22868,0.0903 0.34375,0.125 0.1735,0.0507 0.35296,0.0949 0.53125,0.125 0.0724,0.0125 0.14616,0.0223 0.21875,0.0312 0.0202,0.002 0.0423,-0.002 0.0625,0 0.16688,0.0178 0.33153,0.0319 0.5,0.0312 0.15792,-5.1e-4 0.3123,-0.0145 0.46875,-0.0312 0.021,-0.002 0.0415,0.003 0.0625,0 0.0724,-0.009 0.14691,-0.0191 0.21875,-0.0312 0.17912,-0.0309 0.35486,-0.0718 0.53125,-0.125 0.11822,-0.0345 0.22853,-0.0811 0.34375,-0.125 0.21668,-0.0826 0.42215,-0.19771 0.625,-0.3125 0.26335,-0.14902 0.51804,-0.33023 0.75,-0.53125 0.23037,-0.19963 0.4346,-0.40786 0.625,-0.65625 0.11823,-0.15422 0.24372,-0.29652 0.34375,-0.46875 0.0473,-0.0751 0.0828,-0.16294 0.0937,-0.25 10e-4,-0.0107 -8.1e-4,-0.0205 0,-0.0312 0.64394,-1.32289 0.66591,-2.95072 -0.125,-4.3125 -0.40176,-0.69173 -0.99455,-1.25658 -1.6875,-1.65625 -0.0856,-0.0557 -0.17968,-0.1139 -0.28125,-0.125 -0.29619,-0.0251 -0.6021,0.18403 -0.6875,0.46875 -0.0854,0.28472 0.0514,0.63917 0.3125,0.78125 0.49501,0.28551 0.90051,0.69336 1.1875,1.1875 0.68293,1.17585 0.57392,2.5748 -0.1875,3.59375 -0.2538,0.33965 -0.57679,0.64736 -0.96875,0.875 -0.17513,0.10172 -0.34753,0.18317 -0.53125,0.25 -0.0308,0.0107 -0.0626,0.0215 -0.0937,0.0312 -0.19723,0.0651 -0.42379,0.0983 -0.625,0.125 -0.12675,0.0168 -0.24833,0.0293 -0.375,0.0312 -0.13711,-8.3e-4 -0.26898,-0.013 -0.40625,-0.0312 -0.21089,-0.028 -0.41861,-0.0548 -0.625,-0.125 -0.20639,-0.0702 -0.42903,-0.16743 -0.625,-0.28125 -0.39195,-0.22764 -0.71495,-0.53535 -0.96875,-0.875 -0.76141,-1.01895 -0.87043,-2.4179 -0.1875,-3.59375 0.28699,-0.49414 0.6925,-0.90199 1.1875,-1.1875 0.26112,-0.14208 0.39792,-0.49653 0.3125,-0.78125 -0.0854,-0.28472 -0.3913,-0.49387 -0.6875,-0.46875 z"
         id="path4043"
         inkscape:connector-curvature="0" />
      <path
         inkscape:connector-curvature="0"
         id="path4957"
         d="m 343.93381,69.977819 c -1.10805,0 -2,0.89195 -2,2 v 10 c 0,0.74193 0.40306,1.37345 1,1.71875 0.0717,0.0415 0.14173,0.0925 0.21875,0.125 0.0411,0.0208 0.0823,0.0445 0.125,0.0625 0.0804,0.0276 0.16522,0.0452 0.25,0.0625 0.17143,0.0476 0.34427,0.0937 0.53125,0.0937 1.10805,0 2,-0.89195 2,-2 v -10 c 0,-0.74193 -0.40306,-1.37346 -1,-1.71875 -0.0684,-0.0462 -0.1446,-0.0874 -0.21875,-0.125 -0.0419,-0.0177 -0.0817,-0.0477 -0.125,-0.0625 -0.0778,-0.0328 -0.16746,-0.0396 -0.25,-0.0625 -0.17143,-0.0476 -0.34427,-0.0937 -0.53125,-0.0937 z m -6.125,3.5625 c -0.31074,0.0338 -0.61311,0.14179 -0.875,0.3125 -2.11996,1.22276 -3.89588,3.00872 -5.125,5.125 -3.59922,6.19705 -1.80901,14.03317 3.8125,18.21875 0.36542,0.27208 0.72737,0.54168 1.125,0.78125 0.0652,0.0393 0.12145,0.0866 0.1875,0.125 0.32356,0.18792 0.66814,0.34109 1,0.5 0.34429,0.16486 0.67969,0.3034 1.03125,0.4375 0.10587,0.0414 0.20572,0.0862 0.3125,0.125 0.20946,0.074 0.41364,0.15537 0.625,0.21875 0.1764,0.0549 0.35289,0.10826 0.53125,0.15625 0.13296,0.0342 0.27277,0.0637 0.40625,0.0937 3.35523,0.797851 7.01452,0.392251 10.21875,-1.46875 6.66594,-3.87155 8.99654,-12.45907 5.125,-19.125 -1.22912,-2.11628 -3.00504,-3.90224 -5.125,-5.125 -0.26189,-0.17071 -0.56426,-0.2787 -0.875,-0.3125 -0.90618,-0.0769 -1.83242,0.53516 -2.09375,1.40625 -0.26131,0.87106 0.16991,1.90909 0.96875,2.34375 1.51441,0.8735 2.74698,2.11323 3.625,3.625 1.74111,2.99782 1.7871,6.51573 0.40625,9.40625 -0.006,0.0127 -0.0251,0.0186 -0.0312,0.0312 -0.208,0.16968 -0.38196,0.38036 -0.5,0.625 -2.78577,4.79651 -8.89099,6.34828 -13.6875,3.5625 -0.27976,-0.16248 -0.55503,-0.3471 -0.8125,-0.53125 -0.0181,-0.0135 -0.0445,-0.0176 -0.0625,-0.0312 -1.01637,-0.77047 -1.87819,-1.75926 -2.5625,-2.9375 -0.0918,-0.19027 -0.22608,-0.35422 -0.375,-0.5 -1.52491,-2.94294 -1.54914,-6.58975 0.25,-9.6875 0.87802,-1.51177 2.11059,-2.7515 3.625,-3.625 0.79884,-0.43466 1.23006,-1.47269 0.96875,-2.34375 -0.26133,-0.87109 -1.18757,-1.4831 -2.09375,-1.40625 z"
         style="color:#000000;font-style:normal;font-variant:normal;font-weight:normal;font-stretch:normal;font-size:medium;line-height:normal;font-family:Sans;-inkscape-font-specification:Sans;text-indent:0;text-align:start;text-decoration:none;text-decoration-line:none;letter-spacing:normal;word-spacing:normal;text-transform:none;writing-mode:lr-tb;direction:ltr;baseline-shift:baseline;text-anchor:start;display:inline;overflow:visible;visibility:visible;opacity:0.2;fill:#000000;fill-opacity:1;stroke:none;stroke-width:2.33333325;marker:none;enable-background:new" />
      <path
         style="color:#000000;font-style:normal;font-variant:normal;font-weight:normal;font-stretch:normal;font-size:medium;line-height:normal;font-family:Sans;-inkscape-font-specification:Sans;text-indent:0;text-align:start;text-decoration:none;text-decoration-line:none;letter-spacing:normal;word-spacing:normal;text-transform:none;writing-mode:lr-tb;direction:ltr;baseline-shift:baseline;text-anchor:start;display:inline;overflow:visible;visibility:visible;opacity:1;fill:#ffffff;fill-opacity:1;stroke:none;stroke-width:2.33333325;marker:none;enable-background:new"
         d="m 343.93381,68.977909 c -1.10805,0 -2,0.89195 -2,2 v 10 c 0,0.74193 0.40306,1.37345 1,1.71875 0.0717,0.0415 0.14173,0.0925 0.21875,0.125 0.0411,0.0208 0.0823,0.0445 0.125,0.0625 0.0804,0.0276 0.16522,0.0452 0.25,0.0625 0.17143,0.0476 0.34427,0.0937 0.53125,0.0937 1.10805,0 2,-0.89195 2,-2 v -10 c 0,-0.74193 -0.40306,-1.37346 -1,-1.71875 -0.0684,-0.0462 -0.1446,-0.0874 -0.21875,-0.125 -0.0419,-0.0177 -0.0817,-0.0477 -0.125,-0.0625 -0.0778,-0.0328 -0.16746,-0.0396 -0.25,-0.0625 -0.17143,-0.0476 -0.34427,-0.0937 -0.53125,-0.0937 z m -6.125,3.5625 c -0.31074,0.0338 -0.61311,0.14179 -0.875,0.3125 -2.11996,1.22276 -3.89588,3.00872 -5.125,5.125 -3.59922,6.19705 -1.80901,14.03317 3.8125,18.21875 0.36542,0.27208 0.72737,0.54168 1.125,0.78125 0.0652,0.0393 0.12145,0.0866 0.1875,0.125 0.32356,0.18792 0.66814,0.34109 1,0.5 0.34429,0.16486 0.67969,0.3034 1.03125,0.4375 0.10587,0.0414 0.20572,0.0862 0.3125,0.125 0.20946,0.074 0.41364,0.15537 0.625,0.21875 0.1764,0.0549 0.35289,0.10826 0.53125,0.15625 0.13296,0.0342 0.27277,0.0637 0.40625,0.0937 3.35523,0.79785 7.01452,0.39225 10.21875,-1.46875 6.66594,-3.87155 8.99654,-12.45907 5.125,-19.125 -1.22912,-2.11628 -3.00504,-3.90224 -5.125,-5.125 -0.26189,-0.17071 -0.56426,-0.2787 -0.875,-0.3125 -0.90618,-0.0769 -1.83242,0.53516 -2.09375,1.40625 -0.26131,0.87106 0.16991,1.90909 0.96875,2.34375 1.51441,0.8735 2.74698,2.11323 3.625,3.625 1.74111,2.99782 1.7871,6.51573 0.40625,9.40625 -0.006,0.0127 -0.0251,0.0186 -0.0312,0.0312 -0.208,0.16968 -0.38196,0.38036 -0.5,0.625 -2.78577,4.79651 -8.89099,6.34828 -13.6875,3.5625 -0.27976,-0.16248 -0.55503,-0.3471 -0.8125,-0.53125 -0.0181,-0.0135 -0.0445,-0.0176 -0.0625,-0.0312 -1.01637,-0.77047 -1.87819,-1.75926 -2.5625,-2.9375 -0.0918,-0.19027 -0.22608,-0.35422 -0.375,-0.5 -1.52491,-2.94294 -1.54914,-6.58975 0.25,-9.6875 0.87802,-1.51177 2.11059,-2.7515 3.625,-3.625 0.79884,-0.43466 1.23006,-1.47269 0.96875,-2.34375 -0.26133,-0.87109 -1.18757,-1.4831 -2.09375,-1.40625 z"
         id="path3993"
         inkscape:connector-curvature="0" />
      <path
         inkscape:connector-curvature="0"
         id="path4967"
         d="m 335.9197,138.98919 c -0.80924,0 -1.46875,0.60699 -1.46875,1.375 v 6.9375 c 0,0.61762 0.4454,1.13221 1.03125,1.3125 0.0516,0.0159 0.10227,0.0521 0.15625,0.0625 0.0399,0.0112 0.0837,0.0233 0.125,0.0312 0.0539,0.006 0.10074,0 0.15625,0 0.0446,0.004 0.0794,0.0312 0.125,0.0312 0.80924,0 1.46875,-0.63823 1.46875,-1.40625 v -6.90625 c 0,-0.6176 -0.41415,-1.13221 -1,-1.3125 -0.0121,-0.004 -0.019,-0.0278 -0.0312,-0.0312 -0.0437,-0.0175 -0.0792,-0.0178 -0.125,-0.0312 -0.13739,-0.0404 -0.28577,-0.0625 -0.4375,-0.0625 z m -3.96875,2.71875 c -0.20314,0.0221 -0.3913,0.0759 -0.5625,0.1875 -1.38588,0.79935 -2.54024,1.99153 -3.34375,3.375 -1.70302,2.93223 -1.56551,6.40829 0.0312,9.15625 0.005,0.008 -0.005,0.023 0,0.0312 0.0116,0.02 0.0195,0.0426 0.0312,0.0625 0.019,0.0318 0.0431,0.0621 0.0625,0.0937 0.13144,0.21646 0.29118,0.42321 0.4375,0.625 0.18008,0.24659 0.35674,0.48945 0.5625,0.71875 0.11313,0.12608 0.22301,0.25469 0.34375,0.375 0.0934,0.0938 0.18432,0.19207 0.28125,0.28125 0.0274,0.025 0.066,0.0377 0.0937,0.0625 0.19562,0.17565 0.41666,0.34301 0.625,0.5 0.0304,0.0226 0.063,0.0402 0.0937,0.0625 0.23531,0.17273 0.46965,0.32004 0.71875,0.46875 0.0248,0.0147 0.0375,0.048 0.0625,0.0625 0.1016,0.059 0.20959,0.10163 0.3125,0.15625 0.10311,0.0551 0.20754,0.10516 0.3125,0.15625 0.0709,0.0342 0.14738,0.0615 0.21875,0.0937 0.27467,0.12519 0.55883,0.24617 0.84375,0.34375 0.19632,0.0672 0.39348,0.13362 0.59375,0.1875 0.092,0.0238 0.18888,0.0417 0.28125,0.0625 0.29153,0.0686 0.57789,0.11625 0.875,0.15625 1.93244,0.26016 3.97144,-0.0739 5.78125,-1.125 4.3577,-2.53093 5.87468,-8.1423 3.34375,-12.5 -0.80351,-1.38347 -1.95787,-2.5444 -3.34375,-3.34375 -0.1712,-0.1116 -0.39061,-0.19665 -0.59375,-0.21875 -0.59239,-0.0502 -1.17291,0.36805 -1.34375,0.9375 -0.17083,0.56944 0.10278,1.2471 0.625,1.53125 0.99001,0.57103 1.80101,1.38672 2.375,2.375 1.14304,1.96807 1.16448,4.26208 0.25,6.15625 -0.006,0.0125 -0.0252,0.0188 -0.0312,0.0312 -0.12107,0.10572 -0.21052,0.2284 -0.28125,0.375 -1.36586,2.3517 -3.96917,3.52347 -6.5,3.1875 -0.84361,-0.11199 -1.6536,-0.38847 -2.4375,-0.84375 -0.008,-0.004 -0.0237,0.004 -0.0312,0 -0.29189,-0.17105 -0.55822,-0.38742 -0.8125,-0.59375 -0.0732,-0.0594 -0.14873,-0.12545 -0.21875,-0.1875 -0.006,-0.005 -0.0256,0.005 -0.0312,0 -0.14592,-0.1303 -0.27444,-0.2964 -0.40625,-0.4375 -0.28956,-0.32427 -0.55361,-0.7018 -0.78125,-1.09375 -0.0386,-0.08 -0.10133,-0.15052 -0.15625,-0.21875 -0.007,-0.0123 -0.0247,-0.0189 -0.0312,-0.0312 -1.02909,-1.93451 -1.06379,-4.3594 0.125,-6.40625 0.57399,-0.98828 1.38499,-1.80397 2.375,-2.375 0.52222,-0.28415 0.79583,-0.93056 0.625,-1.5 -0.17084,-0.56945 -0.78261,-0.98773 -1.375,-0.9375 z"
         style="color:#000000;font-style:normal;font-variant:normal;font-weight:normal;font-stretch:normal;font-size:medium;line-height:normal;font-family:Sans;-inkscape-font-specification:Sans;text-indent:0;text-align:start;text-decoration:none;text-decoration-line:none;letter-spacing:normal;word-spacing:normal;text-transform:none;writing-mode:lr-tb;direction:ltr;baseline-shift:baseline;text-anchor:start;display:inline;overflow:visible;visibility:visible;opacity:0.2;fill:#000000;fill-opacity:1;stroke:none;stroke-width:2.33333325;marker:none;enable-background:new" />
      <path
         style="color:#000000;font-style:normal;font-variant:normal;font-weight:normal;font-stretch:normal;font-size:medium;line-height:normal;font-family:Sans;-inkscape-font-specification:Sans;text-indent:0;text-align:start;text-decoration:none;text-decoration-line:none;letter-spacing:normal;word-spacing:normal;text-transform:none;writing-mode:lr-tb;direction:ltr;baseline-shift:baseline;text-anchor:start;display:inline;overflow:visible;visibility:visible;opacity:1;fill:#ffffff;fill-opacity:1;stroke:none;stroke-width:2.33333325;marker:none;enable-background:new"
         d="m 335.9197,137.98928 c -0.80924,0 -1.46875,0.607 -1.46875,1.375 v 6.9375 c 0,0.61762 0.4454,1.13222 1.03125,1.3125 0.0516,0.0159 0.10227,0.0521 0.15625,0.0625 0.0399,0.0112 0.0837,0.0233 0.125,0.0312 0.0539,0.006 0.10074,0 0.15625,0 0.0446,0.004 0.0794,0.0312 0.125,0.0312 0.80924,0 1.46875,-0.63823 1.46875,-1.40625 v -6.90625 c 0,-0.6176 -0.41415,-1.13221 -1,-1.3125 -0.0121,-0.004 -0.019,-0.0278 -0.0312,-0.0312 -0.0437,-0.0175 -0.0792,-0.0178 -0.125,-0.0312 -0.13739,-0.0404 -0.28577,-0.0625 -0.4375,-0.0625 z m -3.96875,2.71875 c -0.20314,0.0221 -0.3913,0.0759 -0.5625,0.1875 -1.38588,0.79935 -2.54024,1.99154 -3.34375,3.375 -1.70302,2.93223 -1.56551,6.4083 0.0312,9.15625 0.005,0.008 -0.005,0.023 0,0.0312 0.0116,0.02 0.0195,0.0426 0.0312,0.0625 0.019,0.0318 0.0431,0.0621 0.0625,0.0937 0.13144,0.21646 0.29118,0.42321 0.4375,0.625 0.18008,0.2466 0.35674,0.48945 0.5625,0.71875 0.11313,0.12608 0.22301,0.2547 0.34375,0.375 0.0934,0.0938 0.18432,0.19207 0.28125,0.28125 0.0274,0.025 0.066,0.0377 0.0937,0.0625 0.19562,0.17565 0.41666,0.34301 0.625,0.5 0.0304,0.0226 0.063,0.0402 0.0937,0.0625 0.23531,0.17273 0.46965,0.32004 0.71875,0.46875 0.0248,0.0147 0.0375,0.048 0.0625,0.0625 0.1016,0.059 0.20959,0.10164 0.3125,0.15625 0.10311,0.0551 0.20754,0.10516 0.3125,0.15625 0.0709,0.0342 0.14738,0.0615 0.21875,0.0937 0.27467,0.12519 0.55883,0.24617 0.84375,0.34375 0.19632,0.0672 0.39348,0.13362 0.59375,0.1875 0.092,0.0238 0.18888,0.0417 0.28125,0.0625 0.29153,0.0686 0.57789,0.11625 0.875,0.15625 1.93244,0.26017 3.97144,-0.0739 5.78125,-1.125 4.3577,-2.53093 5.87468,-8.1423 3.34375,-12.5 -0.80351,-1.38346 -1.95787,-2.5444 -3.34375,-3.34375 -0.1712,-0.1116 -0.39061,-0.19665 -0.59375,-0.21875 -0.59239,-0.0502 -1.17291,0.36806 -1.34375,0.9375 -0.17083,0.56944 0.10278,1.2471 0.625,1.53125 0.99001,0.57103 1.80101,1.38672 2.375,2.375 1.14304,1.96808 1.16448,4.26209 0.25,6.15625 -0.006,0.0125 -0.0252,0.0188 -0.0312,0.0312 -0.12107,0.10572 -0.21052,0.22841 -0.28125,0.375 -1.36586,2.35171 -3.96917,3.52347 -6.5,3.1875 -0.84361,-0.11199 -1.6536,-0.38846 -2.4375,-0.84375 -0.008,-0.004 -0.0237,0.004 -0.0312,0 -0.29189,-0.17105 -0.55822,-0.38742 -0.8125,-0.59375 -0.0732,-0.0594 -0.14873,-0.12545 -0.21875,-0.1875 -0.006,-0.005 -0.0256,0.005 -0.0312,0 -0.14592,-0.1303 -0.27444,-0.29639 -0.40625,-0.4375 -0.28956,-0.32427 -0.55361,-0.7018 -0.78125,-1.09375 -0.0386,-0.08 -0.10133,-0.15051 -0.15625,-0.21875 -0.007,-0.0123 -0.0247,-0.0189 -0.0312,-0.0312 -1.02909,-1.93451 -1.06379,-4.35939 0.125,-6.40625 0.57399,-0.98828 1.38499,-1.80397 2.375,-2.375 0.52222,-0.28415 0.79583,-0.93056 0.625,-1.5 -0.17084,-0.56944 -0.78261,-0.98773 -1.375,-0.9375 z"
         id="path4033"
         inkscape:connector-curvature="0" />
    </g>
    <g
       inkscape:groupmode="layer"
       id="layer4"
       inkscape:label="Borders"
       style="display:inline;opacity:1">
      <path
         style="color:#000000;display:inline;overflow:visible;visibility:visible;opacity:0.3;fill:#ffffff;fill-opacity:1;fill-rule:nonzero;stroke:none;stroke-width:1;marker:none;enable-background:accumulate"
         d="m 78.92188,43.999698 c -35.296728,0 -39.09487,3.62603 -38.92188,38.99414 v 2 c -0.17299,-35.36811 3.625152,-38.99414 38.92188,-38.99414 h 146.15624 c 35.29673,0 38.92188,3.62561 38.92188,38.99414 v -2 c 0,-35.36853 -3.62515,-38.99414 -38.92188,-38.99414 z"
         id="path931"
         inkscape:connector-curvature="0"
         sodipodi:nodetypes="sccsscsss" />
      <path
         style="color:#000000;display:inline;overflow:visible;visibility:visible;opacity:0.2;fill:#000000;fill-opacity:1;fill-rule:nonzero;stroke:none;stroke-width:1;marker:none;enable-background:accumulate"
         d="m 78.92728,267.9997 c -35.296731,0 -39.094875,-3.62603 -38.921885,-38.99414 v -2 c -0.17299,35.36811 3.625154,38.99414 38.921885,38.99414 h 146.15624 c 35.29673,0 38.92188,-3.62561 38.92188,-38.99414 v 2 c 0,35.36853 -3.62515,38.99414 -38.92188,38.99414 z"
         id="path931-8"
         inkscape:connector-curvature="0"
         sodipodi:nodetypes="sccsscsss" />
      <path
         style="color:#000000;display:inline;overflow:visible;visibility:visible;opacity:0.4;fill:none;fill-opacity:1;fill-rule:nonzero;stroke:#000000;stroke-width:1;stroke-miterlimit:4;stroke-dasharray:none;stroke-opacity:1;marker:none;enable-background:accumulate"
         d="m 333.33517,61.500047 c -10.01116,0 -11.88667,0.90635 -11.83407,9.74838 V 84 96.75181 c -0.0527,8.84203 1.82291,9.74838 11.83407,9.74838 h 21.3308 c 10.00866,0 11.83405,-0.90625 11.83405,-9.74838 V 84 71.248427 c 0,-8.84213 -1.82539,-9.74838 -11.83406,-9.74838 z"
         id="path958"
         inkscape:connector-curvature="0"
         sodipodi:nodetypes="scccssscsss" />
      <path
         style="color:#000000;display:inline;overflow:visible;visibility:visible;opacity:0.4;fill:none;fill-opacity:1;fill-rule:nonzero;stroke:#000000;stroke-width:1;stroke-miterlimit:4;stroke-dasharray:none;stroke-opacity:1;marker:none;enable-background:accumulate"
         d="m 329.12711,133.5 c -6.45163,0 -7.6603,0.58409 -7.62639,6.28227 v 8.21765 8.21781 c -0.034,5.69818 1.17476,6.28227 7.62639,6.28227 h 13.74651 c 6.45003,0 7.62639,-0.58403 7.62639,-6.28227 v -8.21781 -8.21765 c 0,-5.69824 -1.17636,-6.28227 -7.62639,-6.28227 z"
         id="path958-1"
         inkscape:connector-curvature="0"
         sodipodi:nodetypes="scccssscsss" />
      <path
         style="color:#000000;display:inline;overflow:visible;visibility:visible;opacity:0.4;fill:none;fill-opacity:1;fill-rule:nonzero;stroke:#000000;stroke-width:1;stroke-miterlimit:4;stroke-dasharray:none;stroke-opacity:1;marker:none;enable-background:accumulate"
         d="m 337.97659,211.50015 c 4.67187,0 5.5471,-0.42296 5.52255,-4.54923 v -7.95037 -5.95084 c 0.0245,-4.12627 -0.85068,-4.54923 -5.52255,-4.54923 h -11.95364 c -4.67071,0 -5.52256,0.42291 -5.52256,4.54923 v 5.95084 7.95037 c 0,4.12632 0.85185,4.54923 5.52256,4.54923 z"
         id="path958-6"
         inkscape:connector-curvature="0"
         sodipodi:nodetypes="scccssscsss" />
      <path
         style="color:#000000;display:inline;overflow:visible;visibility:visible;opacity:0.4;fill:none;fill-opacity:1;fill-rule:nonzero;stroke:#000000;stroke-width:1;stroke-miterlimit:4;stroke-dasharray:none;stroke-opacity:1;marker:none;enable-background:accumulate"
         d="m 387.97659,211.50015 c 4.67187,0 5.5471,-0.42296 5.52255,-4.54923 v -7.95037 -3.95084 c 0.0245,-4.12627 -0.85068,-4.54923 -5.52255,-4.54923 h -9.95364 c -4.67071,0 -5.52256,0.42291 -5.52256,4.54923 v 3.95084 7.95037 c 0,4.12632 0.85185,4.54923 5.52256,4.54923 z"
         id="path958-6-9"
         inkscape:connector-curvature="0"
         sodipodi:nodetypes="scccssscsss" />
    </g>
    <g
       inkscape:groupmode="layer"
       id="layer5"
       inkscape:label="Highlights"
       style="display:inline;opacity:0.7">
      <path
         style="color:#000000;display:inline;overflow:visible;visibility:visible;opacity:1;fill:url(#linearGradient1690-9);fill-opacity:1;fill-rule:nonzero;stroke:none;stroke-width:1;marker:none;enable-background:accumulate"
         d="m 326.02383,189.00048 c -2.32027,0 -3.60941,0.15494 -4.20703,0.62109 -0.29882,0.23308 -0.48964,0.54668 -0.625,1.09571 -0.13541,0.54902 -0.19141,1.31765 -0.19141,2.33203 v 5.95117 7.95084 c 0,1.01437 0.056,1.783 0.19141,2.33203 0.13536,0.54903 0.32618,0.86263 0.625,1.09571 0.59762,0.46615 1.88676,0.62109 4.20703,0.62109 h 11.9524 c 2.32085,0 3.61652,-0.15457 4.2168,-0.62109 0.30014,-0.23327 0.49095,-0.54754 0.625,-1.09571 0.13404,-0.54816 0.18764,-1.31623 0.18164,-2.33008 v -7.95279 -5.95312 c 0.006,-1.01386 -0.0476,-1.78191 -0.18164,-2.33008 -0.13406,-0.54817 -0.32486,-0.86244 -0.625,-1.09571 -0.60028,-0.46652 -1.89595,-0.62109 -4.2168,-0.62109 z m 4.95859,1.00977 c 1.5798,-0.002 4.16014,-3.9e-4 5.73991,0.0117 1.50021,0.0511 3.02236,-0.0712 4.5,0.28321 0.55111,0.0919 0.61303,0.71807 0.67773,1.16601 0.1117,4.30832 0.075,10.62608 0.0508,14.94108 -0.0716,0.99089 0.13687,2.07606 -0.30078,3.01366 -0.34356,0.40964 -0.9694,0.35958 -1.45117,0.45509 -3.95407,0.0823 -9.92936,0.0499 -13.89381,0.0371 -1.16908,-0.0622 -2.37292,0.11291 -3.51758,-0.22266 -0.57935,-0.098 -0.6137,-0.75914 -0.6875,-1.2207 -0.1146,-4.11835 -0.0751,-10.24472 -0.0547,-14.36881 0.0572,-1.06305 -0.0797,-2.16734 0.18164,-3.21485 0.10495,-0.6386 0.8614,-0.66043 1.36719,-0.74023 2.1305,-0.19658 5.24071,-0.10662 7.38828,-0.14062 z"
         id="path914-6"
         inkscape:connector-curvature="0"
         sodipodi:nodetypes="sccscsccsscccccccssccccccccccccccc" />
      <path
         style="color:#000000;display:inline;overflow:visible;visibility:visible;opacity:1;fill:url(#linearGradient1688-4);fill-opacity:1;fill-rule:nonzero;stroke:none;stroke-width:1;marker:none;enable-background:accumulate"
         d="m 329.12695,134 c -3.21072,0 -5.03255,0.19514 -5.9375,0.89844 -0.45247,0.35165 -0.74178,0.83286 -0.93359,1.61718 -0.19176,0.78433 -0.26386,1.85686 -0.25586,3.26368 v 0.002 8.21875 8.21875 0.002 c -0.008,1.40682 0.0641,2.47935 0.25586,3.26368 0.1918,0.78431 0.48112,1.26553 0.93359,1.61718 0.90496,0.7033 2.72678,0.89844 5.9375,0.89844 h 13.7461 c 3.20992,0 5.02461,-0.19551 5.92578,-0.89844 0.45058,-0.35146 0.73805,-0.83201 0.93164,-1.61718 C 349.9241,158.69918 350,157.62415 350,156.2168 V 148 139.7832 c 0,-1.40735 -0.0759,-2.48237 -0.26953,-3.26758 -0.19359,-0.78517 -0.48106,-1.26572 -0.93164,-1.61718 C 347.89766,134.19551 346.08297,134 342.87305,134 Z m 6.49805,1.04688 c 3.45647,0.0171 6.9142,-0.0268 10.36133,0.0918 0.8211,0.13276 1.80664,0.14835 2.39062,0.82617 0.67884,1.16473 0.51296,2.58781 0.56446,3.87305 0.0431,6.02893 0.0678,12.06719 -0.0332,18.08789 -0.0775,0.77792 -0.12055,1.67263 -0.67968,2.27539 -0.70249,0.51038 -1.61833,0.59683 -2.45899,0.67383 -4.04742,0.0864 -8.16222,0.0456 -12.24023,0.0606 -2.45188,-0.0199 -4.91402,0.0317 -7.35352,-0.0606 -0.87784,-0.12055 -1.915,-0.14021 -2.56055,-0.83398 -0.64775,-1.02591 -0.50264,-2.30525 -0.56054,-3.46485 -0.035,-5.65575 -0.0351,-11.35518 0,-17.00976 0.0632,-1.22153 -0.10864,-2.57724 0.59179,-3.65235 0.6025,-0.62665 1.55621,-0.63986 2.35938,-0.77344 2.73743,-0.10739 5.48083,-0.0704 8.22656,-0.0918 0.46403,-2.9e-4 0.92855,-0.002 1.39258,-0.002 z"
         id="path964-7-2"
         inkscape:connector-curvature="0" />
      <path
         style="color:#000000;display:inline;overflow:visible;visibility:visible;opacity:1;fill:url(#linearGradient1686-0);fill-opacity:1;fill-rule:nonzero;stroke:none;stroke-width:1;marker:none;enable-background:accumulate"
         d="m 333.33594,62 c -4.99049,0 -7.87051,0.276282 -9.38477,1.453125 -0.75713,0.588421 -1.23761,1.403518 -1.54492,2.660156 -0.3073,1.256638 -0.4173,2.940031 -0.4043,5.132813 V 84 96.753906 c -0.0131,2.19278 0.097,3.876174 0.4043,5.132814 0.30731,1.25663 0.78779,2.07172 1.54492,2.66016 1.51427,1.17683 4.39428,1.45312 9.38477,1.45312 h 21.33008 c 4.98923,0 7.85502,-0.27668 9.36328,-1.45312 0.75412,-0.58824 1.23293,-1.40461 1.54297,-2.66211 C 365.8823,100.62727 366,98.945281 366,96.751953 V 84 71.248047 c 0,-2.193329 -0.1177,-3.875313 -0.42773,-5.132813 -0.31004,-1.257499 -0.78884,-2.073874 -1.54297,-2.662109 C 362.52104,62.276656 359.65526,62 354.66602,62 Z m 2.40234,1.097656 c 6.94737,8.3e-4 13.91063,0.0034 20.84961,0.05469 2.14296,0.08293 4.46431,-0.147701 6.42383,0.93164 1.29609,0.695228 1.54862,2.250325 1.76953,3.564454 0.17551,2.202888 0.0915,4.442228 0.13867,6.669921 0.0227,8.479532 0.077,16.968993 -0.0801,25.447266 -0.16151,1.483233 -0.38135,3.305793 -1.79882,4.142573 -1.6055,0.82871 -3.47551,0.90643 -5.24805,0.95313 -9.49974,0.0678 -19.0243,0.0843 -28.52344,-0.0176 -1.57816,-0.11413 -3.27053,-0.24014 -4.63281,-1.12109 -1.22952,-0.99538 -1.36082,-2.72739 -1.50391,-4.193361 -0.1272,-8.998585 -0.0836,-18.004484 -0.0527,-27.007813 0.0997,-2.381275 -0.24538,-4.900002 0.70508,-7.160156 0.67165,-1.50972 2.46573,-1.859954 3.93945,-2.05664 2.66168,-0.316582 5.34184,-0.147022 8.01367,-0.207032 z"
         id="path964-3"
         inkscape:connector-curvature="0" />
      <path
         style="color:#000000;display:inline;overflow:visible;visibility:visible;opacity:1;fill:url(#linearGradient1690-9-2);fill-opacity:1;fill-rule:nonzero;stroke:none;stroke-width:1;marker:none;enable-background:accumulate"
         d="m 378.02383,191.00048 c -2.32027,0 -3.60941,0.15494 -4.20703,0.62109 -0.29882,0.23308 -0.48964,0.54668 -0.625,1.09571 -0.13541,0.54902 -0.19141,1.31765 -0.19141,2.33203 v 3.95117 7.95084 c 0,1.01437 0.056,1.783 0.19141,2.33203 0.13536,0.54903 0.32618,0.86263 0.625,1.09571 0.59762,0.46615 1.88676,0.62109 4.20703,0.62109 h 9.9524 c 2.32085,0 3.61652,-0.15457 4.2168,-0.62109 0.30014,-0.23327 0.49095,-0.54754 0.625,-1.09571 0.13404,-0.54816 0.18764,-1.31623 0.18164,-2.33008 v -7.95279 -3.95312 c 0.006,-1.01386 -0.0476,-1.78191 -0.18164,-2.33008 -0.13406,-0.54817 -0.32486,-0.86244 -0.625,-1.09571 -0.60028,-0.46652 -1.89595,-0.62109 -4.2168,-0.62109 z m 4.95859,1.00977 c 1.5798,-0.002 2.16014,-3.9e-4 3.73991,0.0117 1.50021,0.0511 3.02236,-0.0712 4.5,0.28321 0.55111,0.0919 0.61303,0.71807 0.67773,1.16601 0.1117,4.30832 0.075,8.62608 0.0508,12.94108 -0.0716,0.99089 0.13687,2.07606 -0.30078,3.01366 -0.34356,0.40964 -0.9694,0.35958 -1.45117,0.45509 -3.95407,0.0823 -7.92936,0.0499 -11.89381,0.0371 -1.16908,-0.0622 -2.37292,0.11291 -3.51758,-0.22266 -0.57935,-0.098 -0.6137,-0.75914 -0.6875,-1.2207 -0.1146,-4.11835 -0.0751,-8.24472 -0.0547,-12.36881 0.0572,-1.06305 -0.0797,-2.16734 0.18164,-3.21485 0.10495,-0.6386 0.8614,-0.66043 1.36719,-0.74023 2.1305,-0.19658 5.24071,-0.10662 7.38828,-0.14062 z"
         id="path914-6-3"
         inkscape:connector-curvature="0"
         sodipodi:nodetypes="sccscsccsscccccccssccccccccccccccc" />
    </g>
  </g>
</svg>
