<?xml version="1.0" encoding="UTF-8" standalone="no"?>
<svg
   inkscape:export-ydpi="96"
   inkscape:export-xdpi="96"
   width="400"
   height="300"
   id="svg11300"
   sodipodi:version="0.32"
   inkscape:version="1.2.2 (b0a8486541, 2022-12-01)"
   sodipodi:docname="system-reboot.svg"
   inkscape:output_extension="org.inkscape.output.svg.inkscape"
   version="1.0"
   style="display:inline;enable-background:new"
   inkscape:export-filename="C:\Users\sblav\Pictures\vertical oblong template.png"
   xmlns:inkscape="http://www.inkscape.org/namespaces/inkscape"
   xmlns:sodipodi="http://sodipodi.sourceforge.net/DTD/sodipodi-0.dtd"
   xmlns:xlink="http://www.w3.org/1999/xlink"
   xmlns="http://www.w3.org/2000/svg"
   xmlns:svg="http://www.w3.org/2000/svg"
   xmlns:rdf="http://www.w3.org/1999/02/22-rdf-syntax-ns#"
   xmlns:cc="http://creativecommons.org/ns#"
   xmlns:dc="http://purl.org/dc/elements/1.1/">
  <title
     id="title3004">Yaru Icon Theme Template</title>
  <sodipodi:namedview
     stroke="#ef2929"
     fill="#f57900"
     id="base"
     pagecolor="#ffffff"
     bordercolor="#000000"
     borderopacity="0.25490196"
     inkscape:pageopacity="0"
     inkscape:pageshadow="2"
     inkscape:zoom="2"
     inkscape:cx="314"
     inkscape:cy="170"
     inkscape:current-layer="layer7"
     showgrid="false"
     inkscape:grid-bbox="true"
     inkscape:document-units="px"
     inkscape:showpageshadow="false"
     inkscape:window-width="1920"
     inkscape:window-height="1020"
     inkscape:window-x="0"
     inkscape:window-y="32"
     width="400px"
     height="300px"
     inkscape:snap-nodes="true"
     inkscape:snap-bbox="true"
     gridtolerance="10000"
     inkscape:object-nodes="true"
     inkscape:snap-grids="true"
     showguides="true"
     inkscape:guide-bbox="true"
     inkscape:window-maximized="1"
     inkscape:bbox-paths="true"
     inkscape:snap-bbox-midpoints="true"
     inkscape:snap-global="true"
     inkscape:object-paths="true"
     inkscape:snap-intersection-paths="true"
     inkscape:snap-smooth-nodes="true"
     inkscape:pagecheckerboard="false"
     showborder="false"
     inkscape:document-rotation="0"
     inkscape:deskcolor="#d1d1d1">
    <inkscape:grid
       spacingy="1"
       spacingx="1"
       id="grid5883"
       type="xygrid"
       enabled="true"
       visible="true"
       empspacing="4"
       snapvisiblegridlinesonly="true"
       originx="0"
       originy="0" />
    <inkscape:grid
       type="xygrid"
       id="grid11592"
       empspacing="2"
       visible="true"
       enabled="false"
       spacingx="0.5"
       spacingy="0.5"
       color="#ff0000"
       opacity="0.1254902"
       empcolor="#ff0000"
       empopacity="0.25098039"
       snapvisiblegridlinesonly="true"
       originx="0"
       originy="0" />
  </sodipodi:namedview>
  <defs
     id="defs3">
    <linearGradient
       inkscape:collect="always"
       id="linearGradient927">
      <stop
         style="stop-color:#ffffff;stop-opacity:1;"
         offset="0"
         id="stop923" />
      <stop
         id="stop933"
         offset="0.125"
         style="stop-color:#ffffff;stop-opacity:0.09803922" />
      <stop
         id="stop931"
         offset="0.92500001"
         style="stop-color:#ffffff;stop-opacity:0.09803922" />
      <stop
         style="stop-color:#ffffff;stop-opacity:0.49803922"
         offset="1"
         id="stop925" />
    </linearGradient>
    <linearGradient
       inkscape:collect="always"
       xlink:href="#linearGradient927"
       id="linearGradient1690-9"
       x1="320.9993"
       y1="199.99928"
       x2="342.9993"
       y2="199.99928"
       gradientUnits="userSpaceOnUse"
       gradientTransform="rotate(90,331.99929,199.99999)" />
    <linearGradient
       inkscape:collect="always"
       xlink:href="#linearGradient927"
       id="linearGradient1688-4"
       x1="322"
       y1="148.00002"
       x2="350"
       y2="148.00002"
       gradientUnits="userSpaceOnUse"
       gradientTransform="rotate(90,336.00001,148)" />
    <linearGradient
       inkscape:collect="always"
       xlink:href="#linearGradient927"
       id="linearGradient1686-0"
       x1="321.99991"
       y1="84.000153"
       x2="365.99991"
       y2="84.000153"
       gradientUnits="userSpaceOnUse"
       gradientTransform="rotate(90,344.00003,84.000125)" />
    <filter
       inkscape:collect="always"
       style="color-interpolation-filters:sRGB"
       id="filter58449"
       x="-0.047999425"
       width="1.0959989"
       y="-0.048000575"
       height="1.0960012">
      <feGaussianBlur
         inkscape:collect="always"
         stdDeviation="4.4800539"
         id="feGaussianBlur58451" />
    </filter>
    <filter
       inkscape:collect="always"
       style="color-interpolation-filters:sRGB"
       id="filter58492"
       x="-0.011999856"
       width="1.0239997"
       y="-0.012000144"
       height="1.0240003">
      <feGaussianBlur
         inkscape:collect="always"
         stdDeviation="1.1200135"
         id="feGaussianBlur58494" />
    </filter>
    <linearGradient
       inkscape:collect="always"
       xlink:href="#linearGradient927"
       id="linearGradient1690-9-2"
       x1="323.9993"
       y1="199.99927"
       x2="342.9993"
       y2="199.99928"
       gradientUnits="userSpaceOnUse"
       gradientTransform="rotate(90,357.99928,225.99999)" />
    <linearGradient
       inkscape:collect="always"
       xlink:href="#linearGradient905"
       id="linearGradient1694"
       x1="39.997601"
       y1="203.99699"
       x2="263.99759"
       y2="107.997"
       gradientUnits="userSpaceOnUse"
       gradientTransform="rotate(90,151.99985,156.00255)" />
    <linearGradient
       id="linearGradient905"
       inkscape:collect="always">
      <stop
         style="stop-color:#e53c2a;stop-opacity:1"
         offset="0"
         id="stop901" />
      <stop
         style="stop-color:#cc0000;stop-opacity:1"
         offset="1"
         id="stop903" />
    </linearGradient>
    <linearGradient
       inkscape:collect="always"
       xlink:href="#linearGradient905"
       id="linearGradient1686"
       x1="320.99991"
       y1="92.000153"
       x2="366.99991"
       y2="76.000153"
       gradientUnits="userSpaceOnUse"
       gradientTransform="rotate(90,344.00003,84.000078)" />
    <linearGradient
       inkscape:collect="always"
       xlink:href="#linearGradient905"
       id="linearGradient1688"
       x1="321.00003"
       y1="153.00002"
       x2="351.00003"
       y2="143.00002"
       gradientUnits="userSpaceOnUse"
       gradientTransform="rotate(90,336.00001,147.99998)" />
    <linearGradient
       inkscape:collect="always"
       xlink:href="#linearGradient905"
       id="linearGradient1690"
       x1="320.9993"
       y1="202.99928"
       x2="342.9993"
       y2="196.99928"
       gradientUnits="userSpaceOnUse"
       gradientTransform="rotate(90,332.02359,199.97483)" />
    <linearGradient
       inkscape:collect="always"
       xlink:href="#linearGradient905"
       id="linearGradient1690-2"
       x1="320.9993"
       y1="202.99928"
       x2="342.9993"
       y2="196.99928"
       gradientUnits="userSpaceOnUse"
       gradientTransform="rotate(90,358.02359,225.97483)" />
  </defs>
  <metadata
     id="metadata4">
    <rdf:RDF>
      <cc:Work
         rdf:about="">
        <dc:format>image/svg+xml</dc:format>
        <dc:type
           rdf:resource="http://purl.org/dc/dcmitype/StillImage" />
        <dc:creator>
          <cc:Agent>
            <dc:title>Yaru Team, based on the Suru template by Sam Hewitt and original Suru designs by Matthieu James</dc:title>
          </cc:Agent>
        </dc:creator>
        <dc:source />
        <cc:license
           rdf:resource="http://creativecommons.org/licenses/by-sa/4.0/" />
        <dc:title>Yaru Icon Theme Template</dc:title>
        <dc:subject>
          <rdf:Bag />
        </dc:subject>
        <dc:date />
        <dc:rights>
          <cc:Agent>
            <dc:title />
          </cc:Agent>
        </dc:rights>
        <dc:publisher>
          <cc:Agent>
            <dc:title />
          </cc:Agent>
        </dc:publisher>
        <dc:identifier />
        <dc:relation />
        <dc:language />
        <dc:coverage />
        <dc:description />
        <dc:contributor>
          <cc:Agent>
            <dc:title />
          </cc:Agent>
        </dc:contributor>
      </cc:Work>
      <cc:Work
         rdf:about="">
        <dc:format>image/svg+xml</dc:format>
        <dc:type
           rdf:resource="http://purl.org/dc/dcmitype/StillImage" />
      </cc:Work>
      <cc:License
         rdf:about="http://creativecommons.org/licenses/by-sa/4.0/">
        <cc:permits
           rdf:resource="http://creativecommons.org/ns#Reproduction" />
        <cc:permits
           rdf:resource="http://creativecommons.org/ns#Distribution" />
        <cc:requires
           rdf:resource="http://creativecommons.org/ns#Notice" />
        <cc:requires
           rdf:resource="http://creativecommons.org/ns#Attribution" />
        <cc:permits
           rdf:resource="http://creativecommons.org/ns#DerivativeWorks" />
        <cc:requires
           rdf:resource="http://creativecommons.org/ns#ShareAlike" />
      </cc:License>
    </rdf:RDF>
  </metadata>
  <g
     style="display:inline"
     inkscape:groupmode="layer"
     inkscape:label="Icon"
     id="layer1">
    <g
       style="display:none"
       inkscape:label="Baseplate"
       id="layer7"
       inkscape:groupmode="layer">
      <text
         y="-8.2548828"
         xml:space="preserve"
         x="19.006836"
         style="font-style:normal;font-variant:normal;font-weight:normal;font-stretch:normal;line-height:0%;font-family:'DejaVu Sans';-inkscape-font-specification:'DejaVu Sans';display:inline;fill:#000000;fill-opacity:1;stroke:none;enable-background:new"
         inkscape:label="context"
         id="context"><tspan
           style="font-style:normal;font-variant:normal;font-weight:normal;font-stretch:normal;font-size:18px;line-height:1.25;font-family:'DejaVu Sans';-inkscape-font-specification:'DejaVu Sans'"
           y="-8.2548828"
           x="19.006836"
           sodipodi:role="line"
           id="tspan3933">actions</tspan></text>
      <text
         y="-8.2548828"
         xml:space="preserve"
         x="146.48828"
         style="font-style:normal;font-variant:normal;font-weight:bold;font-stretch:normal;line-height:0%;font-family:'DejaVu Sans';-inkscape-font-specification:'DejaVu Sans Bold';text-align:start;writing-mode:lr-tb;text-anchor:start;display:inline;fill:#000000;fill-opacity:1;stroke:none;enable-background:new"
         inkscape:label="icon-name"
         id="icon-name"><tspan
           style="font-style:normal;font-variant:normal;font-weight:bold;font-stretch:normal;font-size:18px;line-height:1.25;font-family:'DejaVu Sans';-inkscape-font-specification:'DejaVu Sans Bold'"
           y="-8.2548828"
           x="146.48828"
           sodipodi:role="line"
           id="tspan3937">system-reboot</tspan></text>
      <rect
         style="display:inline;overflow:visible;visibility:visible;fill:#cdcdcd;fill-opacity:1;fill-rule:nonzero;stroke:none;stroke-width:2;marker:none;enable-background:accumulate"
         id="rect16x16"
         width="16"
         height="16"
         x="320"
         y="236"
         inkscape:label="16x16" />
      <rect
         style="display:inline;enable-background:accumulate;overflow:visible;visibility:visible;fill:#cdcdcd;fill-opacity:1;fill-rule:nonzero;stroke:none;stroke-width:1.83333004;marker:none"
         id="rect22x22"
         width="22"
         height="22"
         x="372"
         y="190"
         inkscape:label="22x22" />
      <rect
         style="display:inline;overflow:visible;visibility:visible;fill:#cdcdcd;fill-opacity:1;fill-rule:nonzero;stroke:none;stroke-width:2;marker:none;enable-background:accumulate"
         id="rect24x24"
         width="24"
         height="24"
         x="320"
         y="188"
         inkscape:label="24x24" />
      <rect
         style="display:inline;overflow:visible;visibility:visible;fill:#cdcdcd;fill-opacity:1;fill-rule:nonzero;stroke:none;stroke-width:2;marker:none;enable-background:accumulate"
         id="rect32x32"
         width="32"
         height="32"
         x="320"
         y="132"
         inkscape:label="32x32" />
      <rect
         inkscape:label="48x48"
         y="60"
         x="320"
         height="48"
         width="48"
         id="rect48x48"
         style="display:inline;overflow:visible;visibility:visible;fill:#cdcdcd;fill-opacity:1;fill-rule:nonzero;stroke:none;stroke-width:2;marker:none;enable-background:accumulate" />
      <rect
         style="display:inline;overflow:visible;visibility:visible;fill:#cdcdcd;fill-opacity:1;fill-rule:nonzero;stroke:none;stroke-width:2;marker:none;enable-background:accumulate"
         id="rect256x256"
         width="256"
         height="256"
         x="24"
         y="28"
         inkscape:label="256x256" />
    </g>
    <g
       inkscape:groupmode="layer"
       id="layer9"
       inkscape:label="Optional outline for white icons"
       style="display:none">
      <path
         style="color:#000000;display:inline;overflow:visible;visibility:visible;opacity:0.2;fill:#000000;fill-opacity:1;fill-rule:nonzero;stroke:#000000;stroke-width:4;stroke-miterlimit:4;stroke-dasharray:none;marker:none;enable-background:accumulate"
         d="m 225.07297,43.99969 c 35.29673,0 39.09461,3.62542 38.92162,38.99353 v 73.00647 73.00648 c 0.17299,35.36812 -3.62489,38.99353 -38.92162,38.99353 H 78.916218 c -35.29671,0 -38.92161,-3.625 -38.92161,-38.99353 V 155.99969 82.99322 c 0,-35.36853 3.6249,-38.99353 38.92161,-38.99353 z"
         id="rect4158-9"
         inkscape:connector-curvature="0"
         sodipodi:nodetypes="scccssscsss" />
    </g>
    <g
       inkscape:groupmode="layer"
       id="layer8"
       inkscape:label="Backgrounds"
       style="display:inline;opacity:0.996184">
      <path
         style="color:#000000;font-style:normal;font-variant:normal;font-weight:normal;font-stretch:normal;font-size:medium;line-height:normal;font-family:sans-serif;font-variant-ligatures:normal;font-variant-position:normal;font-variant-caps:normal;font-variant-numeric:normal;font-variant-alternates:normal;font-feature-settings:normal;text-indent:0;text-align:start;text-decoration:none;text-decoration-line:none;text-decoration-style:solid;text-decoration-color:#000000;letter-spacing:normal;word-spacing:normal;text-transform:none;writing-mode:lr-tb;direction:ltr;text-orientation:mixed;dominant-baseline:auto;baseline-shift:baseline;text-anchor:start;white-space:normal;shape-padding:0;clip-rule:nonzero;display:inline;overflow:visible;visibility:visible;opacity:0.1;isolation:auto;mix-blend-mode:normal;color-interpolation:sRGB;color-interpolation-filters:linearRGB;solid-color:#000000;solid-opacity:1;vector-effect:none;fill:#000000;fill-opacity:1;fill-rule:nonzero;stroke:none;stroke-width:2;stroke-linecap:butt;stroke-linejoin:miter;stroke-miterlimit:4;stroke-dasharray:none;stroke-dashoffset:0;stroke-opacity:1;marker:none;color-rendering:auto;image-rendering:auto;shape-rendering:auto;text-rendering:auto;enable-background:accumulate"
         d="m 378.45275,191 c -1.2321,0 -2.21668,0.0221 -3.06999,0.14144 -0.85332,0.11937 -1.62809,0.35533 -2.21066,0.83967 -0.58256,0.48436 -0.86983,1.13381 -1.01188,1.84587 -0.14202,0.71207 -0.16501,1.53239 -0.15897,2.56202 v 5.61066 4.6143 c -0.006,1.02762 0.0171,1.84735 0.15897,2.55843 0.14203,0.71208 0.42931,1.36152 1.01188,1.84587 0.58258,0.48434 1.35734,0.7203 2.21066,0.83967 0.85331,0.11936 1.83789,0.14144 3.06999,0.14144 h 9.09542 c 1.2321,0 2.21381,-0.022 3.0657,-0.14144 0.85187,-0.11947 1.62795,-0.35683 2.2085,-0.84146 0.58057,-0.48464 0.86451,-1.13152 1.00758,-1.84228 0.14307,-0.71077 -0.23943,-1.61626 0.16972,-2.56023 v -4.61429 -5.61425 c 0,-1.02883 -0.0266,-1.84946 -0.16972,-2.56023 -0.14307,-0.71076 -0.42701,-1.35765 -1.00758,-1.84228 -0.58055,-0.48464 -1.35661,-0.722 -2.2085,-0.84147 C 389.76197,191.02197 388.78028,191 387.54817,191 Z"
         id="path995-6"
         inkscape:connector-curvature="0"
         sodipodi:nodetypes="sccccccccssscccscscccss" />
      <path
         style="color:#000000;display:inline;overflow:visible;visibility:visible;fill:#000000;fill-opacity:1;fill-rule:nonzero;stroke:#000000;stroke-width:2;stroke-miterlimit:4;stroke-dasharray:none;marker:none;enable-background:accumulate;opacity:0.6"
         d="m 324.61253,237 c -3.27563,0 -3.62809,0.29118 -3.61203,3.13171 v 3.93588 3.93588 c -0.016,2.84054 0.3364,3.13172 3.61203,3.13172 h 6.77543 c 3.27564,0 3.61204,-0.29114 3.61204,-3.13172 v -3.93588 -3.93588 C 335,237.29114 334.66359,237 331.38796,237 Z"
         id="path918-3"
         inkscape:connector-curvature="0"
         sodipodi:nodetypes="scccssscsss" />
      <path
         style="color:#000000;display:inline;overflow:visible;visibility:visible;opacity:0.1;fill:#000000;fill-opacity:1;fill-rule:nonzero;stroke:none;stroke-width:1;marker:none;filter:url(#filter58492);enable-background:accumulate"
         d="m 225.07297,44.99999 c 35.29673,0 39.09461,3.62542 38.92162,38.99353 v 73.00647 73.00648 C 264.16758,265.37459 260.3697,269 225.07297,269 H 78.916218 c -35.29671,0 -38.92161,-3.625 -38.92161,-38.99353 V 156.99999 83.99352 c 0,-35.36853 3.6249,-38.99353 38.92161,-38.99353 z"
         id="rect4158-7"
         inkscape:connector-curvature="0"
         sodipodi:nodetypes="scccssscsss" />
      <path
         style="color:#000000;display:inline;overflow:visible;visibility:visible;opacity:0.2;fill:#000000;fill-opacity:1;fill-rule:nonzero;stroke:none;stroke-width:1;marker:none;filter:url(#filter58449);enable-background:accumulate"
         d="m 225.07297,44.99999 c 35.29673,0 39.09461,3.62542 38.92162,38.99353 v 73.00647 73.00648 C 264.16758,265.37459 260.3697,269 225.07297,269 H 78.916218 c -35.29671,0 -38.92161,-3.625 -38.92161,-38.99353 V 156.99999 83.99352 c 0,-35.36853 3.6249,-38.99353 38.92161,-38.99353 z"
         id="rect4158-1"
         inkscape:connector-curvature="0"
         sodipodi:nodetypes="scccssscsss" />
      <path
         style="color:#000000;font-style:normal;font-variant:normal;font-weight:normal;font-stretch:normal;font-size:medium;line-height:normal;font-family:sans-serif;font-variant-ligatures:normal;font-variant-position:normal;font-variant-caps:normal;font-variant-numeric:normal;font-variant-alternates:normal;font-feature-settings:normal;text-indent:0;text-align:start;text-decoration:none;text-decoration-line:none;text-decoration-style:solid;text-decoration-color:#000000;letter-spacing:normal;word-spacing:normal;text-transform:none;writing-mode:lr-tb;direction:ltr;text-orientation:mixed;dominant-baseline:auto;baseline-shift:baseline;text-anchor:start;white-space:normal;shape-padding:0;clip-rule:nonzero;display:inline;overflow:visible;visibility:visible;opacity:0.1;isolation:auto;mix-blend-mode:normal;color-interpolation:sRGB;color-interpolation-filters:linearRGB;solid-color:#000000;solid-opacity:1;vector-effect:none;fill:#000000;fill-opacity:1;fill-rule:nonzero;stroke:none;stroke-width:2;stroke-linecap:butt;stroke-linejoin:miter;stroke-miterlimit:4;stroke-dasharray:none;stroke-dashoffset:0;stroke-opacity:1;marker:none;color-rendering:auto;image-rendering:auto;shape-rendering:auto;text-rendering:auto;enable-background:accumulate"
         d="m 326.45275,189.00048 c -1.2321,0 -2.21668,0.0221 -3.06999,0.14144 -0.85332,0.11937 -1.62809,0.35533 -2.21066,0.83967 -0.58256,0.48436 -0.86983,1.13381 -1.01188,1.84587 -0.14202,0.71207 -0.16501,1.53239 -0.15897,2.56202 v 7.61066 4.6143 c -0.006,1.02762 0.0171,1.84735 0.15897,2.55843 0.14203,0.71208 0.42931,1.36152 1.01188,1.84587 0.58258,0.48434 1.35734,0.7203 2.21066,0.83967 0.85331,0.11936 1.83789,0.14144 3.06999,0.14144 h 11.09542 c 1.2321,0 2.21381,-0.022 3.0657,-0.14144 0.85187,-0.11947 1.62795,-0.35683 2.2085,-0.84146 0.58057,-0.48464 0.86451,-1.13152 1.00758,-1.84228 0.14307,-0.71077 0.16972,-1.5314 0.16972,-2.56023 v -4.61429 -7.61425 c 0,-1.02883 -0.0266,-1.84946 -0.16972,-2.56023 -0.14307,-0.71076 -0.42701,-1.35765 -1.00758,-1.84228 -0.58055,-0.48464 -1.35661,-0.722 -2.2085,-0.84147 -0.8519,-0.11947 -1.83359,-0.14144 -3.0657,-0.14144 z"
         id="path995"
         inkscape:connector-curvature="0"
         sodipodi:nodetypes="sccccccccssscccscscccss" />
      <path
         style="color:#000000;font-style:normal;font-variant:normal;font-weight:normal;font-stretch:normal;font-size:medium;line-height:normal;font-family:sans-serif;font-variant-ligatures:normal;font-variant-position:normal;font-variant-caps:normal;font-variant-numeric:normal;font-variant-alternates:normal;font-feature-settings:normal;text-indent:0;text-align:start;text-decoration:none;text-decoration-line:none;text-decoration-style:solid;text-decoration-color:#000000;letter-spacing:normal;word-spacing:normal;text-transform:none;writing-mode:lr-tb;direction:ltr;text-orientation:mixed;dominant-baseline:auto;baseline-shift:baseline;text-anchor:start;white-space:normal;shape-padding:0;clip-rule:nonzero;display:inline;overflow:visible;visibility:visible;opacity:0.1;isolation:auto;mix-blend-mode:normal;color-interpolation:sRGB;color-interpolation-filters:linearRGB;solid-color:#000000;solid-opacity:1;vector-effect:none;fill:#000000;fill-opacity:1;fill-rule:nonzero;stroke:none;stroke-width:2;stroke-linecap:butt;stroke-linejoin:miter;stroke-miterlimit:4;stroke-dasharray:none;stroke-dashoffset:0;stroke-opacity:1;marker:none;color-rendering:auto;image-rendering:auto;shape-rendering:auto;text-rendering:auto;enable-background:accumulate"
         d="m 329.30094,134 c -1.63949,0 -2.94082,0.0308 -4.04505,0.19141 -1.10422,0.16064 -2.06697,0.4726 -2.78308,1.09179 -0.71611,0.61919 -1.0805,1.45612 -1.26421,2.41407 -0.18374,0.95795 -0.21537,2.08705 -0.20733,3.51171 V 149 v 7.79688 c -0.009,1.42131 0.0239,2.5495 0.20733,3.50585 0.18371,0.95796 0.5481,1.79488 1.26421,2.41407 0.71611,0.61919 1.67886,0.93115 2.78308,1.09179 1.10423,0.16065 2.40556,0.19141 4.04505,0.19141 h 13.40164 c 1.63949,0 2.93835,-0.0307 4.04054,-0.19141 1.10219,-0.16075 2.06274,-0.47425 2.77633,-1.09375 0.71357,-0.6195 1.07457,-1.45363 1.25969,-2.41015 C 350.96429,159.34816 351,158.22066 351,156.79688 V 149 141.20312 c 0,-1.42378 -0.0358,-2.55128 -0.22086,-3.50781 -0.18512,-0.95653 -0.54612,-1.79065 -1.25969,-2.41015 -0.71359,-0.61951 -1.67414,-0.933 -2.77633,-1.09375 C 345.64093,134.03065 344.34207,134 342.70258,134 Z"
         id="path999"
         inkscape:connector-curvature="0"
         sodipodi:nodetypes="scscccccscsscccscscscss" />
      <path
         style="color:#000000;font-style:normal;font-variant:normal;font-weight:normal;font-stretch:normal;font-size:medium;line-height:normal;font-family:sans-serif;font-variant-ligatures:normal;font-variant-position:normal;font-variant-caps:normal;font-variant-numeric:normal;font-variant-alternates:normal;font-feature-settings:normal;text-indent:0;text-align:start;text-decoration:none;text-decoration-line:none;text-decoration-style:solid;text-decoration-color:#000000;letter-spacing:normal;word-spacing:normal;text-transform:none;writing-mode:lr-tb;direction:ltr;text-orientation:mixed;dominant-baseline:auto;baseline-shift:baseline;text-anchor:start;white-space:normal;shape-padding:0;clip-rule:nonzero;display:inline;overflow:visible;visibility:visible;opacity:0.1;isolation:auto;mix-blend-mode:normal;color-interpolation:sRGB;color-interpolation-filters:linearRGB;solid-color:#000000;solid-opacity:1;vector-effect:none;fill:#000000;fill-opacity:1;fill-rule:nonzero;stroke:none;stroke-width:2;stroke-linecap:butt;stroke-linejoin:miter;stroke-miterlimit:4;stroke-dasharray:none;stroke-dashoffset:0;stroke-opacity:1;marker:none;color-rendering:auto;image-rendering:auto;shape-rendering:auto;text-rendering:auto;enable-background:accumulate"
         d="m 333.65776,62 c -2.6221,0 -4.68675,0.05009 -6.38561,0.286735 -1.69887,0.236639 -3.08904,0.680503 -4.10735,1.523515 -1.0183,0.843013 -1.55577,1.996072 -1.83828,3.406406 -0.28252,1.410336 -0.33767,3.127346 -0.32482,5.308412 v 12.474816 12.480783 c -0.0127,2.177715 0.0426,3.893853 0.32482,5.302673 0.28251,1.41034 0.81998,2.5634 1.83828,3.40641 1.01831,0.84301 2.40848,1.28688 4.10735,1.52351 1.69888,0.23665 3.76351,0.28674 6.38561,0.28674 h 20.68618 c 2.62213,0 4.68568,-0.05 6.38104,-0.28674 1.69534,-0.23674 3.08126,-0.6821 4.09581,-1.52542 1.01457,-0.84331 1.54885,-1.99555 1.83367,-3.4045 C 366.93929,101.37441 367,99.660878 367,97.480667 V 84.999884 72.519333 c 0,-2.180211 -0.0608,-3.893733 -0.34554,-5.302677 -0.28482,-1.408942 -0.81911,-2.561177 -1.83368,-3.404494 -1.01455,-0.843317 -2.40047,-1.288685 -4.09582,-1.525427 C 359.02962,62.049992 356.96605,62 354.34394,62 Z"
         id="path1020"
         inkscape:connector-curvature="0"
         sodipodi:nodetypes="sccsccccccsscccscsccsss" />
      <path
         style="color:#000000;display:inline;overflow:visible;visibility:visible;opacity:0.996184;fill:url(#linearGradient1694);fill-opacity:1;fill-rule:nonzero;stroke:none;stroke-width:1;marker:none;enable-background:accumulate"
         d="m 225.07836,44 c 35.29673,0 39.09461,3.62542 38.92162,38.99353 V 156 229.00648 c 0.17299,35.36812 -3.62489,38.99353 -38.92162,38.99353 H 78.92161 C 43.6249,268.00001 40,264.37501 40,229.00648 V 156 82.99353 C 40,47.625 43.6249,44 78.92161,44 Z"
         id="rect4158"
         inkscape:connector-curvature="0"
         sodipodi:nodetypes="scccssscsss" />
      <path
         style="color:#000000;display:inline;overflow:visible;visibility:visible;opacity:0.996184;fill:url(#linearGradient1686);fill-opacity:1;fill-rule:nonzero;stroke:none;stroke-width:1;marker:none;enable-background:accumulate"
         d="m 333.33513,61.5 c -10.01116,0 -11.88667,0.90635 -11.83407,9.74838 v 12.751573 12.75181 c -0.0527,8.842027 1.82291,9.748377 11.83407,9.748377 h 21.3308 c 10.00866,0 11.83405,-0.90625 11.83405,-9.748377 V 83.999953 71.24838 c 0,-8.84213 -1.82539,-9.74838 -11.83406,-9.74838 z"
         id="path964"
         inkscape:connector-curvature="0"
         sodipodi:nodetypes="scccssscsss" />
      <path
         style="color:#000000;display:inline;overflow:visible;visibility:visible;opacity:0.996184;fill:url(#linearGradient1688);fill-opacity:1;fill-rule:nonzero;stroke:none;stroke-width:1;marker:none;enable-background:accumulate"
         d="m 329.12708,133.5 c -6.45163,0 -7.6603,0.58409 -7.62639,6.28227 v 8.21765 8.21781 c -0.034,5.69818 1.17476,6.28227 7.62639,6.28227 h 13.74651 c 6.45003,0 7.62639,-0.58403 7.62639,-6.28227 v -8.21781 -8.21765 c 0,-5.69824 -1.17636,-6.28227 -7.62639,-6.28227 z"
         id="path964-7"
         inkscape:connector-curvature="0"
         sodipodi:nodetypes="scccssscsss" />
      <path
         sodipodi:nodetypes="scccssscsss"
         inkscape:connector-curvature="0"
         id="path914"
         d="m 326.176,188.45 c -5.14666,0 -5.70043,0.43262 -5.67521,4.65309 v 5.84793 7.84761 c -0.0253,4.22046 0.52855,4.65307 5.67521,4.65307 h 11.64568 c 5.14665,0 5.67521,-0.43255 5.67521,-4.65307 v -7.84761 -5.84793 c 0,-4.22051 -0.52857,-4.65309 -5.67522,-4.65309 z"
         style="color:#000000;display:inline;overflow:visible;visibility:visible;opacity:0.996184;fill:url(#linearGradient1690);fill-opacity:1;fill-rule:nonzero;stroke:none;stroke-width:1;marker:none;enable-background:accumulate" />
      <path
         sodipodi:nodetypes="scccssscsss"
         inkscape:connector-curvature="0"
         id="path914-5"
         d="m 378.176,190.45 c -5.14666,0 -5.70043,0.43262 -5.67521,4.65309 v 3.84793 7.84761 c -0.0253,4.22046 0.52855,4.65307 5.67521,4.65307 h 9.64568 c 5.14665,0 5.67521,-0.43255 5.67521,-4.65307 v -7.84761 -3.84793 c 0,-4.22051 -0.52857,-4.65309 -5.67522,-4.65309 z"
         style="color:#000000;display:inline;overflow:visible;visibility:visible;fill:url(#linearGradient1690-2);fill-opacity:1;fill-rule:nonzero;stroke:none;stroke-width:1;marker:none;enable-background:accumulate" />
      <path
         style="color:#000000;display:inline;overflow:visible;visibility:visible;opacity:0.996184;fill:#cc0000;fill-opacity:1;fill-rule:nonzero;stroke:none;stroke-width:0.942346;marker:none;enable-background:accumulate"
         d="m 324.61253,237 c -3.27563,0 -3.62809,0.29118 -3.61203,3.13171 v 3.93588 3.93588 c -0.016,2.84054 0.3364,3.13172 3.61203,3.13172 h 6.77543 c 3.27564,0 3.61204,-0.29114 3.61204,-3.13172 v -3.93588 -3.93588 C 335,237.29114 334.66359,237 331.38796,237 Z"
         id="path918"
         inkscape:connector-curvature="0"
         sodipodi:nodetypes="scccssscsss" />
    </g>
    <g
       inkscape:groupmode="layer"
       id="layer6"
       inkscape:label="Pictograms and folds"
       style="display:inline">
      <path
         style="display:inline;opacity:0.1;fill:#ffffff;fill-opacity:1;fill-rule:nonzero;stroke:none;enable-background:new"
         d="m 328.01001,240 c 1.0152,0 2.0104,0.30481 2.86,0.9 0.2716,0.19 0.33,0.55842 0.14,0.83 -0.1896,0.27162 -0.5588,0.34039 -0.83,0.15 -0.6564,-0.45962 -1.4248,-0.68719 -2.21,-0.68 -0.1128,0 -0.22,0 -0.33,0.01 -0.0336,0.003 -0.0664,0.0158 -0.1,0.02 -0.0904,0.0111 -0.182,0.0227 -0.27,0.04 -0.0392,0.008 -0.082,0.0111 -0.12,0.02 -0.0868,0.0196 -0.1756,0.0444 -0.26,0.07 -0.0268,0.009 -0.0532,0.0212 -0.08,0.03 -0.0964,0.0315 -0.18681,0.0612 -0.28001,0.1 -0.01,0.004 -0.0208,0.006 -0.03,0.01 -0.5592,0.24038 -1.0472,0.61681 -1.43001,1.08 -0.003,0.004 -0.008,0.007 -0.01,0.01 -0.53841,0.65558 -0.8596,1.48716 -0.85999,2.40001 h 0.99999 l -1.59999,2.4 -1.60001,-2.4 h 1 c 4e-4,-1.04881 0.3256,-2.01519 0.88,-2.82 0.008,-0.0138 0.0108,-0.0273 0.02,-0.04 0.0688,-0.0984 0.1452,-0.188 0.22,-0.28 0.009,-0.0111 0.0208,-0.0289 0.03,-0.04 0.5072,-0.61562 1.13799,-1.08923 1.86,-1.4 0.02,-0.009 0.04,-0.0215 0.06,-0.03 0.1152,-0.0476 0.2312,-0.0904 0.35,-0.13 0.0428,-0.0142 0.0864,-0.0269 0.13,-0.04 0.10359,-0.0315 0.21399,-0.0556 0.32,-0.08 0.0584,-0.0135 0.11079,-0.0285 0.16999,-0.04 0.0292,-0.005 0.0612,-0.015 0.09,-0.02 0.0792,-0.0139 0.1608,-0.0196 0.24,-0.03 0.0548,-0.007 0.1048,-0.0147 0.16,-0.02 0.13281,-0.0123 0.268,-0.0177 0.4,-0.02 0.024,0 0.046,0 0.07,0 h 0.01 z m 4.38999,2.6 1.60001,2.4 h -1 c 0,1.052 -0.3328,2.02362 -0.89,2.83 -0.007,0.0111 -0.0123,0.0189 -0.02,0.03 -0.0576,0.0824 -0.11801,0.162 -0.18,0.24 -0.0232,0.0296 -0.046,0.0612 -0.07,0.09 -0.0912,0.11077 -0.1904,0.20838 -0.29,0.31 -0.01,0.01 -0.0108,0.0207 -0.02,0.03 -0.3344,0.33477 -0.7188,0.62438 -1.13,0.85 -0.0108,0.007 -0.0183,0.0138 -0.03,0.02 -0.1184,0.0636 -0.2364,0.11562 -0.36,0.17 -0.0309,0.0131 -0.0688,0.0265 -0.1,0.04 -0.1056,0.0436 -0.2108,0.0836 -0.32,0.12 -0.0516,0.0177 -0.0976,0.0339 -0.15,0.05 -0.0956,0.0285 -0.2016,0.0568 -0.3,0.08 -0.0652,0.015 -0.1236,0.0273 -0.19001,0.04 -0.0276,0.005 -0.0528,0.0153 -0.08,0.02 -0.0928,0.0161 -0.18721,0.0289 -0.28,0.04 -0.0336,0.003 -0.0664,0.007 -0.1,0.01 -0.16681,0.0161 -0.334,0.03 -0.5,0.03 -1.01639,0 -2.00919,-0.314 -2.85999,-0.91 -0.2712,-0.19038 -0.34,-0.56843 -0.15,-0.84001 0.1904,-0.27199 0.56919,-0.33037 0.84,-0.13999 0.66119,0.46319 1.42919,0.69077 2.21999,0.68 0.1044,0 0.2076,0 0.31,-0.01 0.042,-0.004 0.088,-0.015 0.13,-0.02 0.0808,-0.0108 0.16121,-0.0246 0.24,-0.04 0.0484,-0.009 0.0924,-0.0189 0.14,-0.03 0.0772,-0.0181 0.1548,-0.0377 0.23001,-0.06 0.0363,-0.0112 0.074,-0.0181 0.10998,-0.03 0.0868,-0.0292 0.176,-0.0648 0.26,-0.1 0.0192,-0.008 0.0412,-0.0116 0.06,-0.02 0.0984,-0.0432 0.186,-0.0892 0.28001,-0.14001 0.004,-0.004 0.0156,-0.008 0.02,-0.01 0.318,-0.17478 0.6048,-0.39523 0.86,-0.65 0.004,-0.004 0.005,-0.005 0.01,-0.01 0.0792,-0.0795 0.15802,-0.16319 0.23001,-0.25 0.0152,-0.0184 0.0348,-0.0412 0.05,-0.06 0.51961,-0.65 0.83,-1.46523 0.83,-2.36 h -0.99999 l 1.59999,-2.4 z"
         id="path5118"
         inkscape:connector-curvature="0" />
      <path
         inkscape:connector-curvature="0"
         id="path3851"
         d="m 328.01001,239 c 1.0152,0 2.0104,0.30481 2.86,0.9 0.2716,0.19 0.33,0.55842 0.14,0.83 -0.1896,0.27162 -0.5588,0.34039 -0.83,0.15 -0.6564,-0.45962 -1.4248,-0.68719 -2.21,-0.68 -0.1128,0 -0.22,0 -0.33,0.01 -0.0336,0.003 -0.0664,0.0158 -0.1,0.02 -0.0904,0.0111 -0.182,0.0227 -0.27,0.04 -0.0392,0.008 -0.082,0.0111 -0.12,0.02 -0.0868,0.0196 -0.1756,0.0444 -0.26,0.07 -0.0268,0.009 -0.0532,0.0212 -0.08,0.03 -0.0964,0.0315 -0.18681,0.0612 -0.28001,0.1 -0.01,0.004 -0.0208,0.006 -0.03,0.01 -0.5592,0.24038 -1.0472,0.61681 -1.43001,1.08 -0.003,0.004 -0.008,0.007 -0.01,0.01 -0.53841,0.65558 -0.8596,1.48716 -0.85999,2.40001 h 0.99999 l -1.59999,2.4 -1.60001,-2.4 h 1 c 4e-4,-1.04881 0.3256,-2.01519 0.88,-2.82 0.008,-0.0138 0.0108,-0.0273 0.02,-0.04 0.0688,-0.0984 0.1452,-0.188 0.22,-0.28 0.009,-0.0111 0.0208,-0.0289 0.03,-0.04 0.5072,-0.61562 1.13799,-1.08923 1.86,-1.4 0.02,-0.009 0.04,-0.0215 0.06,-0.03 0.1152,-0.0476 0.2312,-0.0904 0.35,-0.13 0.0428,-0.0142 0.0864,-0.0269 0.13,-0.04 0.10359,-0.0315 0.21399,-0.0556 0.32,-0.08 0.0584,-0.0135 0.11079,-0.0285 0.16999,-0.04 0.0292,-0.005 0.0612,-0.015 0.09,-0.02 0.0792,-0.0139 0.1608,-0.0196 0.24,-0.03 0.0548,-0.007 0.1048,-0.0147 0.16,-0.02 0.13281,-0.0123 0.268,-0.0177 0.4,-0.02 0.024,0 0.046,0 0.07,0 h 0.01 z m 4.38999,2.6 1.60001,2.4 h -1 c 0,1.052 -0.3328,2.02362 -0.89,2.83 -0.007,0.0111 -0.0123,0.0189 -0.02,0.03 -0.0576,0.0824 -0.11801,0.162 -0.18,0.24 -0.0232,0.0296 -0.046,0.0612 -0.07,0.09 -0.0912,0.11077 -0.1904,0.20838 -0.29,0.31 -0.01,0.01 -0.0108,0.0207 -0.02,0.03 -0.3344,0.33477 -0.7188,0.62438 -1.13,0.85 -0.0108,0.007 -0.0183,0.0138 -0.03,0.02 -0.1184,0.0636 -0.2364,0.11562 -0.36,0.17 -0.0309,0.0131 -0.0688,0.0265 -0.1,0.04 -0.1056,0.0436 -0.2108,0.0836 -0.32,0.12 -0.0516,0.0177 -0.0976,0.0339 -0.15,0.05 -0.0956,0.0285 -0.2016,0.0568 -0.3,0.08 -0.0652,0.015 -0.1236,0.0273 -0.19001,0.04 -0.0276,0.005 -0.0528,0.0153 -0.08,0.02 -0.0928,0.0161 -0.18721,0.0289 -0.28,0.04 -0.0336,0.003 -0.0664,0.007 -0.1,0.01 -0.16681,0.0161 -0.334,0.03 -0.5,0.03 -1.01639,0 -2.00919,-0.314 -2.85999,-0.91 -0.2712,-0.19038 -0.34,-0.56843 -0.15,-0.84001 0.1904,-0.27199 0.56919,-0.33037 0.84,-0.13999 0.66119,0.46319 1.42919,0.69077 2.21999,0.68 0.1044,0 0.2076,0 0.31,-0.01 0.042,-0.004 0.088,-0.015 0.13,-0.02 0.0808,-0.0108 0.16121,-0.0246 0.24,-0.04 0.0484,-0.009 0.0924,-0.0189 0.14,-0.03 0.0772,-0.0181 0.1548,-0.0377 0.23001,-0.06 0.0363,-0.0112 0.074,-0.0181 0.10998,-0.03 0.0868,-0.0292 0.176,-0.0648 0.26,-0.1 0.0192,-0.008 0.0412,-0.0116 0.06,-0.02 0.0984,-0.0432 0.186,-0.0892 0.28001,-0.14001 0.004,-0.004 0.0156,-0.008 0.02,-0.01 0.318,-0.17478 0.6048,-0.39523 0.86,-0.65 0.004,-0.004 0.005,-0.005 0.01,-0.01 0.0792,-0.0795 0.15802,-0.16319 0.23001,-0.25 0.0152,-0.0184 0.0348,-0.0412 0.05,-0.06 0.51961,-0.65 0.83,-1.46523 0.83,-2.36 h -0.99999 l 1.59999,-2.4 z"
         style="display:inline;fill:#ffffff;fill-opacity:1;fill-rule:nonzero;stroke:none;enable-background:new" />
      <path
         inkscape:connector-curvature="0"
         id="path5116"
         d="m 383.0117,195.66636 c 1.1844,0 2.34546,0.35561 3.33666,1.05 0.31687,0.22167 0.385,0.65149 0.16333,0.96833 -0.2212,0.31689 -0.65193,0.39712 -0.96833,0.175 -0.7658,-0.53622 -1.66226,-0.80172 -2.57833,-0.79333 -0.1316,0 -0.25667,0 -0.385,0.0117 -0.0392,0.004 -0.0775,0.0184 -0.11667,0.0233 -0.10546,0.013 -0.21233,0.0265 -0.315,0.0467 -0.0457,0.009 -0.0957,0.013 -0.14,0.0233 -0.10126,0.0229 -0.20486,0.0518 -0.30333,0.0817 -0.0313,0.01 -0.0621,0.0247 -0.0933,0.035 -0.11247,0.0368 -0.21794,0.0714 -0.32667,0.11667 -0.0112,0.005 -0.0243,0.007 -0.035,0.0117 -0.6524,0.28044 -1.22173,0.71961 -1.66833,1.25999 -0.003,0.005 -0.009,0.008 -0.0117,0.0117 -0.62813,0.76484 -1.00286,1.73501 -1.00332,2.8 h 1.16666 l -1.86666,2.8 -1.86667,-2.8 h 1.16667 c 4.6e-4,-1.22361 0.37986,-2.35105 1.02666,-3.28999 0.009,-0.0161 0.0126,-0.0319 0.0233,-0.0467 0.0803,-0.11479 0.1694,-0.21934 0.25666,-0.32667 0.0103,-0.013 0.0243,-0.0337 0.035,-0.0467 0.59174,-0.71822 1.32766,-1.27077 2.17,-1.63333 0.0233,-0.0103 0.0467,-0.0251 0.07,-0.035 0.1344,-0.0555 0.26973,-0.10545 0.40833,-0.15167 0.0499,-0.0166 0.1008,-0.0314 0.15167,-0.0467 0.12086,-0.0368 0.24966,-0.0649 0.37333,-0.0933 0.0681,-0.0157 0.12926,-0.0332 0.19833,-0.0467 0.0341,-0.006 0.0714,-0.0175 0.105,-0.0233 0.0924,-0.0162 0.1876,-0.0229 0.28,-0.035 0.0639,-0.008 0.12226,-0.0171 0.18666,-0.0233 0.15494,-0.0143 0.31267,-0.0206 0.46667,-0.0233 0.028,0 0.0537,0 0.0817,0 h 0.0117 z m 5.12165,3.03333 1.86667,2.8 h -1.16667 c 0,1.22733 -0.38826,2.36088 -1.03833,3.30166 -0.008,0.013 -0.0144,0.022 -0.0233,0.035 -0.0672,0.0961 -0.13767,0.189 -0.21,0.28 -0.0271,0.0345 -0.0537,0.0714 -0.0817,0.105 -0.1064,0.12923 -0.22213,0.24311 -0.33833,0.36166 -0.0112,0.0117 -0.0126,0.0242 -0.0233,0.035 -0.39013,0.39057 -0.8386,0.72845 -1.31833,0.99167 -0.0126,0.008 -0.0214,0.0161 -0.035,0.0233 -0.13813,0.0742 -0.2758,0.13488 -0.42,0.19833 -0.036,0.0153 -0.0803,0.0309 -0.11667,0.0467 -0.1232,0.0509 -0.24593,0.0975 -0.37333,0.14 -0.0602,0.0207 -0.11387,0.0395 -0.175,0.0583 -0.11153,0.0332 -0.2352,0.0663 -0.35,0.0933 -0.0761,0.0175 -0.1442,0.0318 -0.22167,0.0467 -0.0322,0.006 -0.0616,0.0179 -0.0933,0.0233 -0.10827,0.0188 -0.2184,0.0337 -0.32667,0.0467 -0.0392,0.004 -0.0775,0.008 -0.11666,0.0117 -0.1946,0.0188 -0.38967,0.035 -0.58334,0.035 -1.18579,0 -2.34405,-0.36633 -3.33665,-1.06167 -0.3164,-0.22211 -0.39667,-0.66316 -0.175,-0.98 0.22213,-0.31733 0.66406,-0.38544 0.98,-0.16333 0.77139,0.54039 1.66739,0.8059 2.58999,0.79333 0.1218,0 0.2422,0 0.36166,-0.0117 0.049,-0.005 0.10267,-0.0175 0.15167,-0.0233 0.0943,-0.0126 0.18807,-0.0287 0.28,-0.0467 0.0565,-0.0108 0.1078,-0.022 0.16333,-0.035 0.0901,-0.0211 0.1806,-0.044 0.26834,-0.07 0.0424,-0.013 0.0863,-0.0211 0.12833,-0.035 0.10127,-0.0341 0.20533,-0.0756 0.30333,-0.11666 0.0224,-0.009 0.0481,-0.0135 0.07,-0.0233 0.1148,-0.0504 0.217,-0.10411 0.32668,-0.16334 0.005,-0.005 0.0182,-0.009 0.0233,-0.0117 0.371,-0.2039 0.7056,-0.4611 1.00333,-0.75833 0.005,-0.005 0.006,-0.006 0.0117,-0.0117 0.0924,-0.0928 0.18435,-0.19039 0.26834,-0.29167 0.0177,-0.0215 0.0406,-0.0481 0.0583,-0.07 0.6062,-0.75833 0.96833,-1.70943 0.96833,-2.75333 h -1.16665 l 1.86665,-2.79999 z"
         style="display:inline;opacity:0.1;fill:#ffffff;fill-opacity:1;fill-rule:nonzero;stroke:none;enable-background:new" />
      <path
         style="display:inline;fill:#ffffff;fill-opacity:1;fill-rule:nonzero;stroke:none;enable-background:new"
         d="m 383.0117,194.66636 c 1.1844,0 2.34546,0.35561 3.33666,1.05 0.31687,0.22167 0.385,0.65149 0.16333,0.96833 -0.2212,0.31689 -0.65193,0.39712 -0.96833,0.175 -0.7658,-0.53622 -1.66226,-0.80172 -2.57833,-0.79333 -0.1316,0 -0.25667,0 -0.385,0.0117 -0.0392,0.004 -0.0775,0.0184 -0.11667,0.0233 -0.10546,0.013 -0.21233,0.0265 -0.315,0.0467 -0.0457,0.009 -0.0957,0.013 -0.14,0.0233 -0.10126,0.0229 -0.20486,0.0518 -0.30333,0.0817 -0.0313,0.01 -0.0621,0.0247 -0.0933,0.035 -0.11247,0.0368 -0.21794,0.0714 -0.32667,0.11667 -0.0112,0.005 -0.0243,0.007 -0.035,0.0117 -0.6524,0.28044 -1.22173,0.71961 -1.66833,1.25999 -0.003,0.005 -0.009,0.008 -0.0117,0.0117 -0.62813,0.76484 -1.00286,1.73501 -1.00332,2.8 h 1.16666 l -1.86666,2.8 -1.86667,-2.8 h 1.16667 c 4.6e-4,-1.22361 0.37986,-2.35105 1.02666,-3.28999 0.009,-0.0161 0.0126,-0.0319 0.0233,-0.0467 0.0803,-0.11479 0.1694,-0.21934 0.25666,-0.32667 0.0103,-0.013 0.0243,-0.0337 0.035,-0.0467 0.59174,-0.71822 1.32766,-1.27077 2.17,-1.63333 0.0233,-0.0103 0.0467,-0.0251 0.07,-0.035 0.1344,-0.0555 0.26973,-0.10545 0.40833,-0.15167 0.0499,-0.0166 0.1008,-0.0314 0.15167,-0.0467 0.12086,-0.0368 0.24966,-0.0649 0.37333,-0.0933 0.0681,-0.0157 0.12926,-0.0332 0.19833,-0.0467 0.0341,-0.006 0.0714,-0.0175 0.105,-0.0233 0.0924,-0.0162 0.1876,-0.0229 0.28,-0.035 0.0639,-0.008 0.12226,-0.0171 0.18666,-0.0233 0.15494,-0.0143 0.31267,-0.0206 0.46667,-0.0233 0.028,0 0.0537,0 0.0817,0 h 0.0117 z m 5.12165,3.03333 1.86667,2.8 h -1.16667 c 0,1.22733 -0.38826,2.36088 -1.03833,3.30166 -0.008,0.013 -0.0144,0.022 -0.0233,0.035 -0.0672,0.0961 -0.13767,0.189 -0.21,0.28 -0.0271,0.0345 -0.0537,0.0714 -0.0817,0.105 -0.1064,0.12923 -0.22213,0.24311 -0.33833,0.36166 -0.0112,0.0117 -0.0126,0.0242 -0.0233,0.035 -0.39013,0.39057 -0.8386,0.72845 -1.31833,0.99167 -0.0126,0.008 -0.0214,0.0161 -0.035,0.0233 -0.13813,0.0742 -0.2758,0.13488 -0.42,0.19833 -0.036,0.0153 -0.0803,0.0309 -0.11667,0.0467 -0.1232,0.0509 -0.24593,0.0975 -0.37333,0.14 -0.0602,0.0207 -0.11387,0.0395 -0.175,0.0583 -0.11153,0.0332 -0.2352,0.0663 -0.35,0.0933 -0.0761,0.0175 -0.1442,0.0318 -0.22167,0.0467 -0.0322,0.006 -0.0616,0.0179 -0.0933,0.0233 -0.10827,0.0188 -0.2184,0.0337 -0.32667,0.0467 -0.0392,0.004 -0.0775,0.008 -0.11666,0.0117 -0.1946,0.0188 -0.38967,0.035 -0.58334,0.035 -1.18579,0 -2.34405,-0.36633 -3.33665,-1.06167 -0.3164,-0.22211 -0.39667,-0.66316 -0.175,-0.98 0.22213,-0.31733 0.66406,-0.38544 0.98,-0.16333 0.77139,0.54039 1.66739,0.8059 2.58999,0.79333 0.1218,0 0.2422,0 0.36166,-0.0117 0.049,-0.005 0.10267,-0.0175 0.15167,-0.0233 0.0943,-0.0126 0.18807,-0.0287 0.28,-0.0467 0.0565,-0.0108 0.1078,-0.022 0.16333,-0.035 0.0901,-0.0211 0.1806,-0.044 0.26834,-0.07 0.0424,-0.013 0.0863,-0.0211 0.12833,-0.035 0.10127,-0.0341 0.20533,-0.0756 0.30333,-0.11666 0.0224,-0.009 0.0481,-0.0135 0.07,-0.0233 0.1148,-0.0504 0.217,-0.10411 0.32668,-0.16334 0.005,-0.005 0.0182,-0.009 0.0233,-0.0117 0.371,-0.2039 0.7056,-0.4611 1.00333,-0.75833 0.005,-0.005 0.006,-0.006 0.0117,-0.0117 0.0924,-0.0928 0.18435,-0.19039 0.26834,-0.29167 0.0177,-0.0215 0.0406,-0.0481 0.0583,-0.07 0.6062,-0.75833 0.96833,-1.70943 0.96833,-2.75333 h -1.16665 l 1.86665,-2.79999 z"
         id="path3849"
         inkscape:connector-curvature="0" />
      <path
         inkscape:connector-curvature="0"
         id="path5116-3"
         d="m 332.01267,193.33361 c 1.3536,0 2.68053,0.40641 3.81333,1.2 0.36214,0.25334 0.44,0.74456 0.18666,1.10666 -0.2528,0.36216 -0.74506,0.45385 -1.10666,0.2 -0.8752,-0.61282 -1.89973,-0.91625 -2.94667,-0.90666 -0.1504,0 -0.29334,0 -0.44,0.0134 -0.0448,0.005 -0.0886,0.021 -0.13334,0.0266 -0.12052,0.0149 -0.24266,0.0303 -0.36,0.0534 -0.0522,0.0103 -0.10937,0.0149 -0.16,0.0266 -0.11572,0.0262 -0.23412,0.0592 -0.34666,0.0934 -0.0358,0.0114 -0.071,0.0282 -0.10663,0.04 -0.12854,0.0421 -0.24908,0.0816 -0.37334,0.13334 -0.0128,0.006 -0.0278,0.008 -0.04,0.0134 -0.7456,0.3205 -1.39626,0.82241 -1.90666,1.43999 -0.003,0.006 -0.0103,0.009 -0.0134,0.0134 -0.71786,0.87411 -1.14612,1.98287 -1.14665,3.20001 h 1.33333 l -2.13333,3.2 -2.13334,-3.2 h 1.33334 c 5.2e-4,-1.39842 0.43413,-2.68692 1.17333,-3.76 0.0103,-0.0184 0.0144,-0.0365 0.0266,-0.0534 0.0918,-0.13119 0.1936,-0.25067 0.29332,-0.37334 0.0118,-0.0148 0.0278,-0.0385 0.04,-0.0534 0.67628,-0.82082 1.51733,-1.45231 2.48,-1.86666 0.0266,-0.0118 0.0534,-0.0287 0.08,-0.04 0.15361,-0.0634 0.30827,-0.12052 0.46667,-0.17334 0.057,-0.019 0.1152,-0.0359 0.17334,-0.0534 0.13812,-0.0421 0.28532,-0.0742 0.42666,-0.10663 0.0778,-0.0179 0.14773,-0.0379 0.22666,-0.0534 0.039,-0.007 0.0816,-0.02 0.12,-0.0266 0.1056,-0.0185 0.2144,-0.0262 0.32,-0.04 0.073,-0.009 0.13973,-0.0195 0.21333,-0.0266 0.17707,-0.0163 0.35734,-0.0235 0.53334,-0.0266 0.032,0 0.0614,0 0.0934,0 h 0.0134 z m 5.85332,3.46666 2.13334,3.20001 h -1.33334 c 0,1.40266 -0.44373,2.69815 -1.18666,3.77333 -0.009,0.0149 -0.0165,0.0251 -0.0266,0.04 -0.0768,0.10983 -0.15734,0.216 -0.24,0.32 -0.031,0.0394 -0.0614,0.0816 -0.0934,0.12 -0.1216,0.14769 -0.25387,0.27784 -0.38667,0.41333 -0.0128,0.0134 -0.0144,0.0276 -0.0266,0.04 -0.44586,0.44636 -0.9584,0.83251 -1.50666,1.13334 -0.0144,0.009 -0.0245,0.0184 -0.04,0.0266 -0.15786,0.0848 -0.3152,0.15415 -0.48,0.22667 -0.0411,0.0175 -0.0918,0.0353 -0.13334,0.0534 -0.1408,0.0582 -0.28106,0.11143 -0.42666,0.16 -0.0688,0.0237 -0.13014,0.0451 -0.2,0.0666 -0.12747,0.0379 -0.2688,0.0758 -0.4,0.10663 -0.087,0.02 -0.1648,0.0363 -0.25334,0.0534 -0.0368,0.007 -0.0704,0.0205 -0.10663,0.0266 -0.12374,0.0215 -0.2496,0.0385 -0.37334,0.0534 -0.0448,0.005 -0.0886,0.009 -0.13332,0.0134 -0.2224,0.0215 -0.44534,0.04 -0.66668,0.04 -1.35519,0 -2.67892,-0.41866 -3.81332,-1.21334 -0.3616,-0.25384 -0.45334,-0.7579 -0.2,-1.12 0.25386,-0.36266 0.75893,-0.44049 1.12,-0.18666 0.88159,0.61759 1.90559,0.92103 2.96,0.90666 0.1392,0 0.2768,0 0.41332,-0.0134 0.056,-0.006 0.11734,-0.02 0.17334,-0.0266 0.10777,-0.0144 0.21494,-0.0328 0.32,-0.0534 0.0646,-0.0123 0.1232,-0.0251 0.18666,-0.04 0.10297,-0.0241 0.2064,-0.0503 0.30668,-0.08 0.0485,-0.0149 0.0986,-0.0241 0.14666,-0.04 0.11574,-0.039 0.23466,-0.0864 0.34666,-0.13333 0.0256,-0.0103 0.055,-0.0154 0.08,-0.0266 0.1312,-0.0576 0.248,-0.11898 0.37335,-0.18667 0.006,-0.006 0.0208,-0.0103 0.0266,-0.0134 0.424,-0.23303 0.8064,-0.52697 1.14667,-0.86667 0.006,-0.006 0.007,-0.007 0.0134,-0.0134 0.1056,-0.10605 0.21068,-0.21759 0.30667,-0.33333 0.0202,-0.0246 0.0464,-0.055 0.0666,-0.08 0.6928,-0.86666 1.10667,-1.95363 1.10667,-3.14666 h -1.33332 l 2.13332,-3.2 z"
         style="display:inline;opacity:0.1;fill:#ffffff;fill-opacity:1;fill-rule:nonzero;stroke:none;stroke-width:1.14285874;enable-background:new" />
      <path
         style="display:inline;fill:#ffffff;fill-opacity:1;fill-rule:nonzero;stroke:none;stroke-width:1.14285874;enable-background:new"
         d="m 332.01267,192.19075 c 1.3536,0 2.68053,0.40641 3.81333,1.2 0.36214,0.25334 0.44,0.74456 0.18666,1.10666 -0.2528,0.36216 -0.74506,0.45386 -1.10666,0.2 -0.8752,-0.61282 -1.89973,-0.91625 -2.94667,-0.90666 -0.1504,0 -0.29334,0 -0.44,0.0134 -0.0448,0.005 -0.0886,0.021 -0.13334,0.0266 -0.12052,0.0149 -0.24266,0.0303 -0.36,0.0534 -0.0522,0.0103 -0.10937,0.0149 -0.16,0.0266 -0.11572,0.0262 -0.23412,0.0592 -0.34666,0.0934 -0.0358,0.0114 -0.071,0.0282 -0.10663,0.04 -0.12854,0.0421 -0.24908,0.0816 -0.37334,0.13334 -0.0128,0.006 -0.0278,0.008 -0.04,0.0134 -0.7456,0.3205 -1.39626,0.82241 -1.90666,1.43999 -0.003,0.006 -0.0103,0.009 -0.0134,0.0134 -0.71786,0.87411 -1.14612,1.98287 -1.14665,3.20001 h 1.33333 l -2.13333,3.2 -2.13334,-3.2 h 1.33334 c 5.2e-4,-1.39842 0.43413,-2.68692 1.17333,-3.76 0.0103,-0.0184 0.0144,-0.0365 0.0266,-0.0534 0.0918,-0.13119 0.1936,-0.25067 0.29332,-0.37334 0.0118,-0.0149 0.0278,-0.0385 0.04,-0.0534 0.67628,-0.82082 1.51733,-1.45231 2.48,-1.86666 0.0266,-0.0118 0.0534,-0.0287 0.08,-0.04 0.15361,-0.0634 0.30827,-0.12052 0.46667,-0.17334 0.057,-0.019 0.1152,-0.0359 0.17334,-0.0534 0.13812,-0.0421 0.28532,-0.0742 0.42666,-0.10663 0.0778,-0.0179 0.14773,-0.0379 0.22666,-0.0534 0.039,-0.007 0.0816,-0.02 0.12,-0.0266 0.1056,-0.0185 0.2144,-0.0262 0.32,-0.04 0.073,-0.009 0.13973,-0.0195 0.21333,-0.0266 0.17707,-0.0163 0.35734,-0.0235 0.53334,-0.0266 0.032,0 0.0614,0 0.0934,0 h 0.0134 z m 5.85332,3.46667 2.13334,3.2 h -1.33334 c 0,1.40267 -0.44373,2.69815 -1.18666,3.77333 -0.009,0.0149 -0.0165,0.0251 -0.0266,0.04 -0.0768,0.10983 -0.15734,0.216 -0.24,0.32 -0.031,0.0394 -0.0614,0.0816 -0.0934,0.12 -0.1216,0.14769 -0.25387,0.27784 -0.38667,0.41333 -0.0128,0.0134 -0.0144,0.0277 -0.0266,0.04 -0.44586,0.44636 -0.9584,0.83251 -1.50666,1.13334 -0.0144,0.009 -0.0245,0.0184 -0.04,0.0266 -0.15786,0.0848 -0.3152,0.15414 -0.48,0.22666 -0.0411,0.0175 -0.0918,0.0353 -0.13334,0.0534 -0.1408,0.0582 -0.28106,0.11143 -0.42666,0.16 -0.0688,0.0237 -0.13014,0.0451 -0.2,0.0666 -0.12747,0.0379 -0.2688,0.0758 -0.4,0.10663 -0.087,0.02 -0.1648,0.0363 -0.25334,0.0534 -0.0368,0.007 -0.0704,0.0205 -0.10663,0.0266 -0.12374,0.0215 -0.2496,0.0385 -0.37334,0.0534 -0.0448,0.005 -0.0886,0.009 -0.13332,0.0134 -0.2224,0.0215 -0.44534,0.04 -0.66668,0.04 -1.35519,0 -2.67892,-0.41866 -3.81332,-1.21334 -0.3616,-0.25384 -0.45334,-0.7579 -0.2,-1.12 0.25386,-0.36266 0.75893,-0.44049 1.12,-0.18666 0.88159,0.61759 1.90559,0.92103 2.96,0.90666 0.1392,0 0.2768,0 0.41332,-0.0134 0.056,-0.006 0.11734,-0.02 0.17334,-0.0266 0.10777,-0.0144 0.21494,-0.0328 0.32,-0.0534 0.0646,-0.0123 0.1232,-0.0251 0.18666,-0.04 0.10297,-0.0241 0.2064,-0.0503 0.30668,-0.08 0.0485,-0.0149 0.0986,-0.0241 0.14666,-0.04 0.11574,-0.039 0.23466,-0.0864 0.34666,-0.13333 0.0256,-0.0103 0.055,-0.0154 0.08,-0.0266 0.1312,-0.0576 0.248,-0.11899 0.37335,-0.18668 0.006,-0.006 0.0208,-0.0103 0.0266,-0.0134 0.424,-0.23303 0.8064,-0.52697 1.14667,-0.86666 0.006,-0.006 0.007,-0.007 0.0134,-0.0134 0.1056,-0.10605 0.21068,-0.21758 0.30667,-0.33333 0.0202,-0.0246 0.0464,-0.055 0.0666,-0.08 0.6928,-0.86667 1.10667,-1.95364 1.10667,-3.14667 h -1.33332 l 2.13332,-3.19999 z"
         id="path3849-6"
         inkscape:connector-curvature="0" />
      <path
         inkscape:connector-curvature="0"
         id="path5112"
         d="m 152.13057,91.33341 c 13.53601,0 26.80539,4.06413 38.1334,12.00002 3.62132,2.53332 4.4,7.44564 1.86664,11.06669 -2.52804,3.62152 -7.45069,4.53844 -11.06665,2 -8.75201,-6.12825 -18.99742,-9.16257 -29.46671,-9.06669 -1.504,0 -2.93336,0 -4.40004,0.1332 -0.44821,0.0512 -0.88533,0.21 -1.33333,0.2668 -1.20532,0.1488 -2.42668,0.3024 -3.59996,0.53332 -0.52268,0.1028 -1.0934,0.1488 -1.6,0.2668 -1.15736,0.2616 -2.34136,0.5918 -3.46668,0.93336 -0.35761,0.1128 -0.70933,0.282 -1.06669,0.4 -1.28532,0.42048 -2.49064,0.8164 -3.73332,1.33332 -0.1284,0.0564 -0.2776,0.082 -0.4,0.1332 -7.45601,3.20513 -13.96269,8.22409 -19.0667,14.40002 -0.032,0.0512 -0.1016,0.0972 -0.1332,0.1332 -7.17869,8.74101 -11.46133,19.82874 -11.46669,32.00003 h 13.33337 l -21.333384,32.00004 -21.33334,-32.00004 h 13.33333 c 0.004,-13.98413 4.34137,-26.86927 11.73338,-37.60004 0.1068,-0.1844 0.144,-0.364 0.2668,-0.53332 0.91736,-1.3118 1.936,-2.50668 2.933364,-3.73336 0.1172,-0.1488 0.2776,-0.3848 0.4,-0.53332 6.76265,-8.20821 15.17333,-14.5231 24.80002,-18.6667 0.2668,-0.118 0.53332,-0.2872 0.8,-0.4 1.53601,-0.63488 3.08265,-1.20512 4.66665,-1.73332 0.57068,-0.1896 1.152,-0.3588 1.73336,-0.53332 1.38104,-0.42052 2.85304,-0.74156 4.26636,-1.06668 0.77869,-0.1796 1.47737,-0.3796 2.26669,-0.53332 0.3892,-0.0716 0.816,-0.2 1.2,-0.2668 1.056,-0.18441 2.144,-0.26161 3.2,-0.40001 0.73068,-0.0872 1.39732,-0.1948 2.13332,-0.2668 1.77069,-0.164 3.57337,-0.236 5.33337,-0.2668 0.32,0 0.61332,0 0.93332,0 h 0.1332 z m 58.53338,34.66672 21.33334,32.00003 h -13.33333 c 0,14.02666 -4.43733,26.98155 -11.8667,37.73335 -0.0908,0.1488 -0.1652,0.2512 -0.2668,0.4 -0.768,1.09844 -1.57332,2.16 -2.4,3.2 -0.3092,0.39481 -0.61332,0.81589 -0.93332,1.20001 -1.216,1.47692 -2.53868,2.77844 -3.86668,4.13332 -0.1284,0.1332 -0.144,0.2768 -0.2668,0.4 -4.45869,4.4636 -9.58401,8.32513 -15.0667,11.33337 -0.144,0.0872 -0.2452,0.1844 -0.4,0.2668 -1.57868,0.8482 -3.152,1.54152 -4.8,2.26664 -0.41076,0.1744 -0.91732,0.354 -1.33332,0.53336 -1.40801,0.58153 -2.81069,1.11489 -4.26669,1.60005 -0.688,0.236 -1.30132,0.45128 -2,0.66668 -1.27468,0.3796 -2.688,0.75744 -4,1.06664 -0.86933,0.2 -1.64801,0.364 -2.53333,0.53336 -0.3684,0.0716 -0.704,0.2052 -1.06668,0.2668 -1.23732,0.2156 -2.496,0.3848 -3.73332,0.53336 -0.44824,0.0512 -0.88536,0.0872 -1.33336,0.1332 -2.22401,0.2156 -4.45333,0.4 -6.66665,0.4 -13.55201,0 -26.78939,-4.18668 -38.1334,-12.13337 -3.616,-2.53848 -4.53332,-7.57901 -2,-11.20005 2.53868,-3.62661 7.58937,-4.40513 11.20001,-1.86665 8.81601,6.17593 19.05602,9.21025 29.60003,9.06669 1.392,0 2.768,0 4.13336,-0.1332 0.56001,-0.0564 1.17333,-0.2 1.73333,-0.2668 1.07732,-0.1436 2.14932,-0.328 3.2,-0.53332 0.64532,-0.1228 1.232,-0.2512 1.86668,-0.4 1.02932,-0.2412 2.064,-0.50256 3.06664,-0.8 0.48513,-0.1488 0.98669,-0.2412 1.46669,-0.4 1.15732,-0.3896 2.34668,-0.86412 3.46668,-1.33332 0.256,-0.1028 0.54932,-0.154 0.8,-0.2668 1.312,-0.57592 2.48,-1.18976 3.73332,-1.86668 0.0584,-0.0512 0.2084,-0.1028 0.2668,-0.1332 4.24001,-2.33028 8.06401,-5.26973 11.46666,-8.66669 0.0532,-0.0564 0.0748,-0.0716 0.1332,-0.1332 1.056,-1.061 2.10664,-2.17588 3.06664,-3.33331 0.2028,-0.246 0.46412,-0.54972 0.66668,-0.80001 6.92805,-8.66668 11.06669,-19.53641 11.06669,-31.46671 h -13.33337 l 21.33338,-32.00003 z"
         style="display:inline;opacity:0.1;fill:#ffffff;fill-opacity:1;fill-rule:nonzero;stroke:none;enable-background:new" />
      <path
         style="display:inline;opacity:0.99618399;fill:#ffffff;fill-opacity:1;fill-rule:nonzero;stroke:none;enable-background:new"
         d="m 152.13057,90.33341 c 13.53601,0 26.80539,4.06413 38.1334,12.00002 3.62132,2.53332 4.4,7.44564 1.86664,11.06669 -2.52804,3.62152 -7.45069,4.53844 -11.06665,2 -8.75201,-6.12825 -18.99742,-9.16257 -29.46671,-9.06669 -1.504,0 -2.93336,0 -4.40004,0.1332 -0.44821,0.0512 -0.88533,0.21 -1.33333,0.2668 -1.20532,0.1488 -2.42668,0.3024 -3.59996,0.53332 -0.52268,0.1028 -1.0934,0.1488 -1.6,0.2668 -1.15736,0.2616 -2.34136,0.5918 -3.46668,0.93336 -0.35761,0.1128 -0.70933,0.282 -1.06669,0.4 -1.28532,0.42048 -2.49064,0.8164 -3.73332,1.33332 -0.1284,0.0564 -0.2776,0.082 -0.4,0.1332 -7.45601,3.20513 -13.96269,8.22409 -19.0667,14.40002 -0.032,0.0512 -0.1016,0.0972 -0.1332,0.1332 -7.17869,8.74101 -11.46133,19.82874 -11.46669,32.00003 h 13.33337 l -21.333384,32.00004 -21.33334,-32.00004 h 13.33333 c 0.004,-13.98413 4.34137,-26.86927 11.73338,-37.60004 0.1068,-0.1844 0.144,-0.364 0.2668,-0.53332 0.91736,-1.3118 1.936,-2.50668 2.933364,-3.73336 0.1172,-0.1488 0.2776,-0.3848 0.4,-0.53332 6.76265,-8.20821 15.17333,-14.5231 24.80002,-18.6667 0.2668,-0.118 0.53332,-0.2872 0.8,-0.4 1.53601,-0.63488 3.08265,-1.20512 4.66665,-1.73332 0.57068,-0.1896 1.152,-0.3588 1.73336,-0.53332 1.38104,-0.42052 2.85304,-0.74156 4.26636,-1.06668 0.77869,-0.1796 1.47737,-0.3796 2.26669,-0.53332 0.3892,-0.0716 0.816,-0.2 1.2,-0.2668 1.056,-0.18441 2.144,-0.26161 3.2,-0.40001 0.73068,-0.0872 1.39732,-0.1948 2.13332,-0.2668 1.77069,-0.164 3.57337,-0.236 5.33337,-0.2668 0.32,0 0.61332,0 0.93332,0 h 0.1332 z m 58.53338,34.66672 21.33334,32.00003 h -13.33333 c 0,14.02666 -4.43733,26.98155 -11.8667,37.73335 -0.0908,0.1488 -0.1652,0.2512 -0.2668,0.4 -0.768,1.09844 -1.57332,2.16 -2.4,3.2 -0.3092,0.39481 -0.61332,0.81589 -0.93332,1.20001 -1.216,1.47692 -2.53868,2.77844 -3.86668,4.13332 -0.1284,0.1332 -0.144,0.2768 -0.2668,0.4 -4.45869,4.4636 -9.58401,8.32513 -15.0667,11.33337 -0.144,0.0872 -0.2452,0.1844 -0.4,0.2668 -1.57868,0.8482 -3.152,1.54152 -4.8,2.26664 -0.41076,0.1744 -0.91732,0.354 -1.33332,0.53336 -1.40801,0.58153 -2.81069,1.11489 -4.26669,1.60005 -0.688,0.236 -1.30132,0.45128 -2,0.66668 -1.27468,0.3796 -2.688,0.75744 -4,1.06664 -0.86933,0.2 -1.64801,0.364 -2.53333,0.53336 -0.3684,0.0716 -0.704,0.2052 -1.06668,0.2668 -1.23732,0.2156 -2.496,0.3848 -3.73332,0.53336 -0.44824,0.0512 -0.88536,0.0872 -1.33336,0.1332 -2.22401,0.2156 -4.45333,0.4 -6.66665,0.4 -13.55201,0 -26.78939,-4.18668 -38.1334,-12.13337 -3.616,-2.53848 -4.53332,-7.57901 -2,-11.20005 2.53868,-3.62661 7.58937,-4.40513 11.20001,-1.86665 8.81601,6.17593 19.05602,9.21025 29.60003,9.06669 1.392,0 2.768,0 4.13336,-0.1332 0.56001,-0.0564 1.17333,-0.2 1.73333,-0.2668 1.07732,-0.1436 2.14932,-0.328 3.2,-0.53332 0.64532,-0.1228 1.232,-0.2512 1.86668,-0.4 1.02932,-0.2412 2.064,-0.50256 3.06664,-0.8 0.48513,-0.1488 0.98669,-0.2412 1.46669,-0.4 1.15732,-0.3896 2.34668,-0.86412 3.46668,-1.33332 0.256,-0.1028 0.54932,-0.154 0.8,-0.2668 1.312,-0.57592 2.48,-1.18976 3.73332,-1.86668 0.0584,-0.0512 0.2084,-0.1028 0.2668,-0.1332 4.24001,-2.33028 8.06401,-5.26973 11.46666,-8.66669 0.0532,-0.0564 0.0748,-0.0716 0.1332,-0.1332 1.056,-1.061 2.10664,-2.17588 3.06664,-3.33331 0.2028,-0.246 0.46412,-0.54972 0.66668,-0.80001 6.92805,-8.66668 11.06669,-19.53641 11.06669,-31.46671 h -13.33337 l 21.33338,-32.00003 z"
         id="path3845"
         inkscape:connector-curvature="0" />
      <path
         style="display:inline;opacity:0.1;fill:#ffffff;fill-opacity:1;fill-rule:nonzero;stroke:none;enable-background:new"
         d="m 152.13057,91.33341 c 13.53601,0 26.80539,4.06413 38.1334,12.00002 3.62132,2.53332 4.4,7.44564 1.86664,11.06669 -2.52804,3.62152 -7.45069,4.53844 -11.06665,2 -8.75201,-6.12825 -18.99742,-9.16257 -29.46671,-9.06669 -1.504,0 -2.93336,0 -4.40004,0.1332 -0.44821,0.0512 -0.88533,0.21 -1.33333,0.2668 -1.20532,0.1488 -2.42668,0.3024 -3.59996,0.53332 -0.52268,0.1028 -1.0934,0.1488 -1.6,0.2668 -1.15736,0.2616 -2.34136,0.5918 -3.46668,0.93336 -0.35761,0.1128 -0.70933,0.282 -1.06669,0.4 -1.28532,0.42048 -2.49064,0.8164 -3.73332,1.33332 -0.1284,0.0564 -0.2776,0.082 -0.4,0.1332 -7.45601,3.20513 -13.96269,8.22409 -19.0667,14.40002 -0.032,0.0512 -0.1016,0.0972 -0.1332,0.1332 -7.17869,8.74101 -11.46133,19.82874 -11.46669,32.00003 h 13.33337 l -21.333384,32.00004 -21.33334,-32.00004 h 13.33333 c 0.004,-13.98413 4.34137,-26.86927 11.73338,-37.60004 0.1068,-0.1844 0.144,-0.364 0.2668,-0.53332 0.91736,-1.3118 1.936,-2.50668 2.933364,-3.73336 0.1172,-0.1488 0.2776,-0.3848 0.4,-0.53332 6.76265,-8.20821 15.17333,-14.5231 24.80002,-18.6667 0.2668,-0.118 0.53332,-0.2872 0.8,-0.4 1.53601,-0.63488 3.08265,-1.20512 4.66665,-1.73332 0.57068,-0.1896 1.152,-0.3588 1.73336,-0.53332 1.38104,-0.42052 2.85304,-0.74156 4.26636,-1.06668 0.77869,-0.1796 1.47737,-0.3796 2.26669,-0.53332 0.3892,-0.0716 0.816,-0.2 1.2,-0.2668 1.056,-0.18441 2.144,-0.26161 3.2,-0.40001 0.73068,-0.0872 1.39732,-0.1948 2.13332,-0.2668 1.77069,-0.164 3.57337,-0.236 5.33337,-0.2668 0.32,0 0.61332,0 0.93332,0 h 0.1332 z m 58.53338,34.66672 21.33334,32.00003 h -13.33333 c 0,14.02666 -4.43733,26.98155 -11.8667,37.73335 -0.0908,0.1488 -0.1652,0.2512 -0.2668,0.4 -0.768,1.09844 -1.57332,2.16 -2.4,3.2 -0.3092,0.39481 -0.61332,0.81589 -0.93332,1.20001 -1.216,1.47692 -2.53868,2.77844 -3.86668,4.13332 -0.1284,0.1332 -0.144,0.2768 -0.2668,0.4 -4.45869,4.4636 -9.58401,8.32513 -15.0667,11.33337 -0.144,0.0872 -0.2452,0.1844 -0.4,0.2668 -1.57868,0.8482 -3.152,1.54152 -4.8,2.26664 -0.41076,0.1744 -0.91732,0.354 -1.33332,0.53336 -1.40801,0.58153 -2.81069,1.11489 -4.26669,1.60005 -0.688,0.236 -1.30132,0.45128 -2,0.66668 -1.27468,0.3796 -2.688,0.75744 -4,1.06664 -0.86933,0.2 -1.64801,0.364 -2.53333,0.53336 -0.3684,0.0716 -0.704,0.2052 -1.06668,0.2668 -1.23732,0.2156 -2.496,0.3848 -3.73332,0.53336 -0.44824,0.0512 -0.88536,0.0872 -1.33336,0.1332 -2.22401,0.2156 -4.45333,0.4 -6.66665,0.4 -13.55201,0 -26.78939,-4.18668 -38.1334,-12.13337 -3.616,-2.53848 -4.53332,-7.57901 -2,-11.20005 2.53868,-3.62661 7.58937,-4.40513 11.20001,-1.86665 8.81601,6.17593 19.05602,9.21025 29.60003,9.06669 1.392,0 2.768,0 4.13336,-0.1332 0.56001,-0.0564 1.17333,-0.2 1.73333,-0.2668 1.07732,-0.1436 2.14932,-0.328 3.2,-0.53332 0.64532,-0.1228 1.232,-0.2512 1.86668,-0.4 1.02932,-0.2412 2.064,-0.50256 3.06664,-0.8 0.48513,-0.1488 0.98669,-0.2412 1.46669,-0.4 1.15732,-0.3896 2.34668,-0.86412 3.46668,-1.33332 0.256,-0.1028 0.54932,-0.154 0.8,-0.2668 1.312,-0.57592 2.48,-1.18976 3.73332,-1.86668 0.0584,-0.0512 0.2084,-0.1028 0.2668,-0.1332 4.24001,-2.33028 8.06401,-5.26973 11.46666,-8.66669 0.0532,-0.0564 0.0748,-0.0716 0.1332,-0.1332 1.056,-1.061 2.10664,-2.17588 3.06664,-3.33331 0.2028,-0.246 0.46412,-0.54972 0.66668,-0.80001 6.92805,-8.66668 11.06669,-19.53641 11.06669,-31.46671 h -13.33337 l 21.33338,-32.00003 z"
         id="path1579"
         inkscape:connector-curvature="0" />
      <path
         inkscape:connector-curvature="0"
         id="path1581"
         d="m 152.13057,90.33341 c 13.53601,0 26.80539,4.06413 38.1334,12.00002 3.62132,2.53332 4.4,7.44564 1.86664,11.06669 -2.52804,3.62152 -7.45069,4.53844 -11.06665,2 -8.75201,-6.12825 -18.99742,-9.16257 -29.46671,-9.06669 -1.504,0 -2.93336,0 -4.40004,0.1332 -0.44821,0.0512 -0.88533,0.21 -1.33333,0.2668 -1.20532,0.1488 -2.42668,0.3024 -3.59996,0.53332 -0.52268,0.1028 -1.0934,0.1488 -1.6,0.2668 -1.15736,0.2616 -2.34136,0.5918 -3.46668,0.93336 -0.35761,0.1128 -0.70933,0.282 -1.06669,0.4 -1.28532,0.42048 -2.49064,0.8164 -3.73332,1.33332 -0.1284,0.0564 -0.2776,0.082 -0.4,0.1332 -7.45601,3.20513 -13.96269,8.22409 -19.0667,14.40002 -0.032,0.0512 -0.1016,0.0972 -0.1332,0.1332 -7.17869,8.74101 -11.46133,19.82874 -11.46669,32.00003 h 13.33337 l -21.333384,32.00004 -21.33334,-32.00004 h 13.33333 c 0.004,-13.98413 4.34137,-26.86927 11.73338,-37.60004 0.1068,-0.1844 0.144,-0.364 0.2668,-0.53332 0.91736,-1.3118 1.936,-2.50668 2.933364,-3.73336 0.1172,-0.1488 0.2776,-0.3848 0.4,-0.53332 6.76265,-8.20821 15.17333,-14.5231 24.80002,-18.6667 0.2668,-0.118 0.53332,-0.2872 0.8,-0.4 1.53601,-0.63488 3.08265,-1.20512 4.66665,-1.73332 0.57068,-0.1896 1.152,-0.3588 1.73336,-0.53332 1.38104,-0.42052 2.85304,-0.74156 4.26636,-1.06668 0.77869,-0.1796 1.47737,-0.3796 2.26669,-0.53332 0.3892,-0.0716 0.816,-0.2 1.2,-0.2668 1.056,-0.18441 2.144,-0.26161 3.2,-0.40001 0.73068,-0.0872 1.39732,-0.1948 2.13332,-0.2668 1.77069,-0.164 3.57337,-0.236 5.33337,-0.2668 0.32,0 0.61332,0 0.93332,0 h 0.1332 z m 58.53338,34.66672 21.33334,32.00003 h -13.33333 c 0,14.02666 -4.43733,26.98155 -11.8667,37.73335 -0.0908,0.1488 -0.1652,0.2512 -0.2668,0.4 -0.768,1.09844 -1.57332,2.16 -2.4,3.2 -0.3092,0.39481 -0.61332,0.81589 -0.93332,1.20001 -1.216,1.47692 -2.53868,2.77844 -3.86668,4.13332 -0.1284,0.1332 -0.144,0.2768 -0.2668,0.4 -4.45869,4.4636 -9.58401,8.32513 -15.0667,11.33337 -0.144,0.0872 -0.2452,0.1844 -0.4,0.2668 -1.57868,0.8482 -3.152,1.54152 -4.8,2.26664 -0.41076,0.1744 -0.91732,0.354 -1.33332,0.53336 -1.40801,0.58153 -2.81069,1.11489 -4.26669,1.60005 -0.688,0.236 -1.30132,0.45128 -2,0.66668 -1.27468,0.3796 -2.688,0.75744 -4,1.06664 -0.86933,0.2 -1.64801,0.364 -2.53333,0.53336 -0.3684,0.0716 -0.704,0.2052 -1.06668,0.2668 -1.23732,0.2156 -2.496,0.3848 -3.73332,0.53336 -0.44824,0.0512 -0.88536,0.0872 -1.33336,0.1332 -2.22401,0.2156 -4.45333,0.4 -6.66665,0.4 -13.55201,0 -26.78939,-4.18668 -38.1334,-12.13337 -3.616,-2.53848 -4.53332,-7.57901 -2,-11.20005 2.53868,-3.62661 7.58937,-4.40513 11.20001,-1.86665 8.81601,6.17593 19.05602,9.21025 29.60003,9.06669 1.392,0 2.768,0 4.13336,-0.1332 0.56001,-0.0564 1.17333,-0.2 1.73333,-0.2668 1.07732,-0.1436 2.14932,-0.328 3.2,-0.53332 0.64532,-0.1228 1.232,-0.2512 1.86668,-0.4 1.02932,-0.2412 2.064,-0.50256 3.06664,-0.8 0.48513,-0.1488 0.98669,-0.2412 1.46669,-0.4 1.15732,-0.3896 2.34668,-0.86412 3.46668,-1.33332 0.256,-0.1028 0.54932,-0.154 0.8,-0.2668 1.312,-0.57592 2.48,-1.18976 3.73332,-1.86668 0.0584,-0.0512 0.2084,-0.1028 0.2668,-0.1332 4.24001,-2.33028 8.06401,-5.26973 11.46666,-8.66669 0.0532,-0.0564 0.0748,-0.0716 0.1332,-0.1332 1.056,-1.061 2.10664,-2.17588 3.06664,-3.33331 0.2028,-0.246 0.46412,-0.54972 0.66668,-0.80001 6.92805,-8.66668 11.06669,-19.53641 11.06669,-31.46671 h -13.33337 l 21.33338,-32.00003 z"
         style="display:inline;opacity:0.99618399;fill:#ffffff;fill-opacity:1;fill-rule:nonzero;stroke:none;enable-background:new" />
      <path
         inkscape:connector-curvature="0"
         id="path1601"
         d="m 336.0197,138.00006 c 2.0304,0 4.02081,0.60962 5.72001,1.8 0.54319,0.38 0.65999,1.11685 0.27999,1.66001 -0.37921,0.54322 -1.1176,0.68076 -1.65999,0.3 -1.31281,-0.91924 -2.84961,-1.37439 -4.42001,-1.36001 -0.2256,0 -0.44,0 -0.66,0.02 -0.0672,0.008 -0.1328,0.0315 -0.2,0.04 -0.1808,0.0223 -0.364,0.0453 -0.54,0.08 -0.0784,0.0154 -0.16401,0.0223 -0.24,0.04 -0.1736,0.0393 -0.3512,0.0888 -0.51999,0.14001 -0.0537,0.0169 -0.1064,0.0423 -0.16001,0.06 -0.1928,0.0631 -0.37359,0.12246 -0.56,0.19999 -0.0193,0.008 -0.0417,0.0123 -0.06,0.02 -1.1184,0.48077 -2.0944,1.23362 -2.86,2.16001 -0.005,0.008 -0.0153,0.0146 -0.02,0.02 -1.0768,1.31115 -1.7192,2.97431 -1.72,4.8 h 2 l -3.2,4.79999 -3.2,-4.79999 h 2 c 6e-4,-2.09762 0.6512,-4.03039 1.76,-5.64 0.016,-0.0277 0.0216,-0.0546 0.04,-0.08 0.1376,-0.19677 0.2904,-0.376 0.44,-0.56001 0.0176,-0.0223 0.0417,-0.0577 0.06,-0.08 1.0144,-1.23124 2.276,-2.17847 3.72001,-2.80001 0.04,-0.0177 0.08,-0.0431 0.12,-0.06 0.2304,-0.0952 0.46239,-0.18076 0.69999,-0.26 0.0856,-0.0285 0.1728,-0.0538 0.26001,-0.08 0.20715,-0.0631 0.42795,-0.11124 0.63995,-0.16001 0.1168,-0.0269 0.22161,-0.0569 0.34,-0.08 0.0584,-0.0107 0.1224,-0.03 0.18,-0.04 0.1584,-0.0277 0.3216,-0.0393 0.48,-0.06 0.1096,-0.0131 0.2096,-0.0292 0.32,-0.04 0.2656,-0.0246 0.536,-0.0354 0.8,-0.04 0.048,0 0.092,0 0.14,0 h 0.02 z m 8.78,5.20001 3.2,4.8 h -2 c 0,2.104 -0.6656,4.04723 -1.78,5.65999 -0.0136,0.0223 -0.0248,0.0377 -0.04,0.06 -0.1152,0.16477 -0.236,0.324 -0.36,0.48 -0.0464,0.0592 -0.092,0.12239 -0.14,0.18 -0.1824,0.22154 -0.3808,0.41677 -0.58,0.62 -0.0193,0.02 -0.0216,0.0415 -0.04,0.06 -0.66881,0.66954 -1.4376,1.24877 -2.26001,1.70001 -0.0216,0.0131 -0.0368,0.0277 -0.06,0.04 -0.2368,0.12722 -0.4728,0.23122 -0.72,0.33999 -0.0616,0.0261 -0.1376,0.0531 -0.2,0.08 -0.2112,0.0872 -0.4216,0.16723 -0.64,0.24 -0.1032,0.0354 -0.1952,0.0677 -0.3,0.1 -0.1912,0.0569 -0.4032,0.11362 -0.6,0.16 -0.1304,0.03 -0.2472,0.0546 -0.37999,0.08 -0.0553,0.0107 -0.1056,0.0308 -0.16,0.04 -0.1856,0.0323 -0.3744,0.0577 -0.56,0.08 -0.0672,0.008 -0.13281,0.0131 -0.20001,0.02 -0.3336,0.0323 -0.668,0.06 -0.99999,0.06 -2.0328,0 -4.01841,-0.628 -5.72001,-1.82001 -0.5424,-0.38077 -0.67999,-1.13685 -0.3,-1.68 0.3808,-0.54399 1.1384,-0.66077 1.68,-0.28 1.3224,0.92639 2.8584,1.38154 4.44,1.36001 0.2088,0 0.4152,0 0.62001,-0.02 0.084,-0.008 0.176,-0.03 0.26,-0.04 0.16159,-0.0215 0.32239,-0.0492 0.48,-0.08 0.0968,-0.0184 0.1848,-0.0377 0.28,-0.06 0.1544,-0.0362 0.30959,-0.0754 0.45999,-0.12 0.0728,-0.0223 0.148,-0.0362 0.22,-0.06 0.1736,-0.0585 0.352,-0.12962 0.52,-0.2 0.0384,-0.0154 0.0824,-0.0231 0.12,-0.04 0.1968,-0.0864 0.372,-0.17846 0.56,-0.28 0.009,-0.008 0.0313,-0.0154 0.04,-0.02 0.636,-0.34954 1.2096,-0.79046 1.72,-1.3 0.008,-0.008 0.0112,-0.0107 0.02,-0.02 0.1584,-0.15916 0.316,-0.32639 0.46,-0.5 0.0304,-0.0369 0.0696,-0.0825 0.1,-0.12 1.03921,-1.3 1.66,-2.93046 1.66,-4.72 h -2 l 3.2,-4.80001 z"
         style="display:inline;opacity:0.1;fill:#ffffff;fill-opacity:1;fill-rule:nonzero;stroke:none;stroke-width:0.14999987;enable-background:new" />
      <path
         style="display:inline;opacity:0.99618399;fill:#ffffff;fill-opacity:1;fill-rule:nonzero;stroke:none;stroke-width:0.14999987;enable-background:new"
         d="m 336.0197,137.85006 c 2.0304,0 4.02081,0.60962 5.72001,1.8 0.54319,0.38 0.65999,1.11685 0.27999,1.66001 -0.37921,0.54322 -1.1176,0.68076 -1.65999,0.3 -1.31281,-0.91924 -2.84961,-1.37439 -4.42001,-1.36001 -0.2256,0 -0.44,0 -0.66,0.02 -0.0672,0.008 -0.1328,0.0315 -0.2,0.04 -0.1808,0.0223 -0.364,0.0453 -0.54,0.08 -0.0784,0.0154 -0.16401,0.0223 -0.24,0.04 -0.1736,0.0393 -0.3512,0.0888 -0.51999,0.14001 -0.0537,0.0169 -0.1064,0.0423 -0.16001,0.06 -0.1928,0.0631 -0.37359,0.12246 -0.56,0.19999 -0.0193,0.008 -0.0417,0.0123 -0.06,0.02 -1.1184,0.48077 -2.0944,1.23362 -2.86,2.16001 -0.005,0.008 -0.0153,0.0146 -0.02,0.02 -1.0768,1.31115 -1.7192,2.97431 -1.72,4.8 h 2 l -3.2,4.79999 -3.2,-4.79999 h 2 c 6e-4,-2.09762 0.6512,-4.03039 1.76,-5.64 0.016,-0.0277 0.0216,-0.0546 0.04,-0.08 0.1376,-0.19677 0.2904,-0.376 0.44,-0.56001 0.0176,-0.0223 0.0417,-0.0577 0.06,-0.08 1.0144,-1.23124 2.276,-2.17847 3.72001,-2.80001 0.04,-0.0177 0.08,-0.0431 0.12,-0.06 0.2304,-0.0952 0.46239,-0.18076 0.69999,-0.26 0.0856,-0.0285 0.1728,-0.0538 0.26001,-0.08 0.20715,-0.0631 0.42795,-0.11124 0.63995,-0.16001 0.1168,-0.0269 0.22161,-0.0569 0.34,-0.08 0.0584,-0.0107 0.1224,-0.03 0.18,-0.04 0.1584,-0.0277 0.3216,-0.0393 0.48,-0.06 0.1096,-0.0131 0.2096,-0.0292 0.32,-0.04 0.2656,-0.0246 0.536,-0.0354 0.8,-0.04 0.048,0 0.092,0 0.14,0 h 0.02 z m 8.78,5.20001 3.2,4.8 h -2 c 0,2.104 -0.6656,4.04723 -1.78,5.65999 -0.0136,0.0223 -0.0248,0.0377 -0.04,0.06 -0.1152,0.16477 -0.236,0.324 -0.36,0.48 -0.0464,0.0592 -0.092,0.12239 -0.14,0.18 -0.1824,0.22154 -0.3808,0.41677 -0.58,0.62 -0.0193,0.02 -0.0216,0.0415 -0.04,0.06 -0.66881,0.66954 -1.4376,1.24877 -2.26001,1.70001 -0.0216,0.0131 -0.0368,0.0277 -0.06,0.04 -0.2368,0.12722 -0.4728,0.23122 -0.72,0.33999 -0.0616,0.0261 -0.1376,0.0531 -0.2,0.08 -0.2112,0.0872 -0.4216,0.16723 -0.64,0.24 -0.1032,0.0354 -0.1952,0.0677 -0.3,0.1 -0.1912,0.0569 -0.4032,0.11362 -0.6,0.16 -0.1304,0.03 -0.2472,0.0546 -0.37999,0.08 -0.0553,0.0107 -0.1056,0.0308 -0.16,0.04 -0.1856,0.0323 -0.3744,0.0577 -0.56,0.08 -0.0672,0.008 -0.13281,0.0131 -0.20001,0.02 -0.3336,0.0323 -0.668,0.06 -0.99999,0.06 -2.0328,0 -4.01841,-0.628 -5.72001,-1.82001 -0.5424,-0.38077 -0.67999,-1.13685 -0.3,-1.68 0.3808,-0.54399 1.1384,-0.66077 1.68,-0.28 1.3224,0.92639 2.8584,1.38154 4.44,1.36001 0.2088,0 0.4152,0 0.62001,-0.02 0.084,-0.008 0.176,-0.03 0.26,-0.04 0.16159,-0.0215 0.32239,-0.0492 0.48,-0.08 0.0968,-0.0184 0.1848,-0.0377 0.28,-0.06 0.1544,-0.0362 0.30959,-0.0754 0.45999,-0.12 0.0728,-0.0223 0.148,-0.0362 0.22,-0.06 0.1736,-0.0585 0.352,-0.12962 0.52,-0.2 0.0384,-0.0154 0.0824,-0.0231 0.12,-0.04 0.1968,-0.0864 0.372,-0.17846 0.56,-0.28 0.009,-0.008 0.0313,-0.0154 0.04,-0.02 0.636,-0.34954 1.2096,-0.79046 1.72,-1.3 0.008,-0.008 0.0112,-0.0107 0.02,-0.02 0.1584,-0.15916 0.316,-0.32639 0.46,-0.5 0.0304,-0.0369 0.0696,-0.0825 0.1,-0.12 1.03921,-1.3 1.66,-2.93046 1.66,-4.72 h -2 l 3.2,-4.80001 z"
         id="path1603"
         inkscape:connector-curvature="0" />
      <path
         style="display:inline;opacity:0.1;fill:#ffffff;fill-opacity:1;fill-rule:nonzero;stroke:none;stroke-width:0.14999987;enable-background:new"
         d="m 336.0197,138.00006 c 2.0304,0 4.02081,0.60962 5.72001,1.8 0.54319,0.38 0.65999,1.11685 0.27999,1.66001 -0.37921,0.54322 -1.1176,0.68076 -1.65999,0.3 -1.31281,-0.91924 -2.84961,-1.37439 -4.42001,-1.36001 -0.2256,0 -0.44,0 -0.66,0.02 -0.0672,0.008 -0.1328,0.0315 -0.2,0.04 -0.1808,0.0223 -0.364,0.0453 -0.54,0.08 -0.0784,0.0154 -0.16401,0.0223 -0.24,0.04 -0.1736,0.0393 -0.3512,0.0888 -0.51999,0.14001 -0.0537,0.0169 -0.1064,0.0423 -0.16001,0.06 -0.1928,0.0631 -0.37359,0.12246 -0.56,0.19999 -0.0193,0.008 -0.0417,0.0123 -0.06,0.02 -1.1184,0.48077 -2.0944,1.23362 -2.86,2.16001 -0.005,0.008 -0.0153,0.0146 -0.02,0.02 -1.0768,1.31115 -1.7192,2.97431 -1.72,4.8 h 2 l -3.2,4.79999 -3.2,-4.79999 h 2 c 6e-4,-2.09762 0.6512,-4.03039 1.76,-5.64 0.016,-0.0277 0.0216,-0.0546 0.04,-0.08 0.1376,-0.19677 0.2904,-0.376 0.44,-0.56001 0.0176,-0.0223 0.0417,-0.0577 0.06,-0.08 1.0144,-1.23124 2.276,-2.17847 3.72001,-2.80001 0.04,-0.0177 0.08,-0.0431 0.12,-0.06 0.2304,-0.0952 0.46239,-0.18076 0.69999,-0.26 0.0856,-0.0285 0.1728,-0.0538 0.26001,-0.08 0.20715,-0.0631 0.42795,-0.11124 0.63995,-0.16001 0.1168,-0.0269 0.22161,-0.0569 0.34,-0.08 0.0584,-0.0107 0.1224,-0.03 0.18,-0.04 0.1584,-0.0277 0.3216,-0.0393 0.48,-0.06 0.1096,-0.0131 0.2096,-0.0292 0.32,-0.04 0.2656,-0.0246 0.536,-0.0354 0.8,-0.04 0.048,0 0.092,0 0.14,0 h 0.02 z m 8.78,5.20001 3.2,4.8 h -2 c 0,2.104 -0.6656,4.04723 -1.78,5.65999 -0.0136,0.0223 -0.0248,0.0377 -0.04,0.06 -0.1152,0.16477 -0.236,0.324 -0.36,0.48 -0.0464,0.0592 -0.092,0.12239 -0.14,0.18 -0.1824,0.22154 -0.3808,0.41677 -0.58,0.62 -0.0193,0.02 -0.0216,0.0415 -0.04,0.06 -0.66881,0.66954 -1.4376,1.24877 -2.26001,1.70001 -0.0216,0.0131 -0.0368,0.0277 -0.06,0.04 -0.2368,0.12722 -0.4728,0.23122 -0.72,0.33999 -0.0616,0.0261 -0.1376,0.0531 -0.2,0.08 -0.2112,0.0872 -0.4216,0.16723 -0.64,0.24 -0.1032,0.0354 -0.1952,0.0677 -0.3,0.1 -0.1912,0.0569 -0.4032,0.11362 -0.6,0.16 -0.1304,0.03 -0.2472,0.0546 -0.37999,0.08 -0.0553,0.0107 -0.1056,0.0308 -0.16,0.04 -0.1856,0.0323 -0.3744,0.0577 -0.56,0.08 -0.0672,0.008 -0.13281,0.0131 -0.20001,0.02 -0.3336,0.0323 -0.668,0.06 -0.99999,0.06 -2.0328,0 -4.01841,-0.628 -5.72001,-1.82001 -0.5424,-0.38077 -0.67999,-1.13685 -0.3,-1.68 0.3808,-0.54399 1.1384,-0.66077 1.68,-0.28 1.3224,0.92639 2.8584,1.38154 4.44,1.36001 0.2088,0 0.4152,0 0.62001,-0.02 0.084,-0.008 0.176,-0.03 0.26,-0.04 0.16159,-0.0215 0.32239,-0.0492 0.48,-0.08 0.0968,-0.0184 0.1848,-0.0377 0.28,-0.06 0.1544,-0.0362 0.30959,-0.0754 0.45999,-0.12 0.0728,-0.0223 0.148,-0.0362 0.22,-0.06 0.1736,-0.0585 0.352,-0.12962 0.52,-0.2 0.0384,-0.0154 0.0824,-0.0231 0.12,-0.04 0.1968,-0.0864 0.372,-0.17846 0.56,-0.28 0.009,-0.008 0.0313,-0.0154 0.04,-0.02 0.636,-0.34954 1.2096,-0.79046 1.72,-1.3 0.008,-0.008 0.0112,-0.0107 0.02,-0.02 0.1584,-0.15916 0.316,-0.32639 0.46,-0.5 0.0304,-0.0369 0.0696,-0.0825 0.1,-0.12 1.03921,-1.3 1.66,-2.93046 1.66,-4.72 h -2 l 3.2,-4.80001 z"
         id="path1605"
         inkscape:connector-curvature="0" />
      <path
         inkscape:connector-curvature="0"
         id="path1607"
         d="m 336.0197,137.85006 c 2.0304,0 4.02081,0.60962 5.72001,1.8 0.54319,0.38 0.65999,1.11685 0.27999,1.66001 -0.37921,0.54322 -1.1176,0.68076 -1.65999,0.3 -1.31281,-0.91924 -2.84961,-1.37439 -4.42001,-1.36001 -0.2256,0 -0.44,0 -0.66,0.02 -0.0672,0.008 -0.1328,0.0315 -0.2,0.04 -0.1808,0.0223 -0.364,0.0453 -0.54,0.08 -0.0784,0.0154 -0.16401,0.0223 -0.24,0.04 -0.1736,0.0393 -0.3512,0.0888 -0.51999,0.14001 -0.0537,0.0169 -0.1064,0.0423 -0.16001,0.06 -0.1928,0.0631 -0.37359,0.12246 -0.56,0.19999 -0.0193,0.008 -0.0417,0.0123 -0.06,0.02 -1.1184,0.48077 -2.0944,1.23362 -2.86,2.16001 -0.005,0.008 -0.0153,0.0146 -0.02,0.02 -1.0768,1.31115 -1.7192,2.97431 -1.72,4.8 h 2 l -3.2,4.79999 -3.2,-4.79999 h 2 c 6e-4,-2.09762 0.6512,-4.03039 1.76,-5.64 0.016,-0.0277 0.0216,-0.0546 0.04,-0.08 0.1376,-0.19677 0.2904,-0.376 0.44,-0.56001 0.0176,-0.0223 0.0417,-0.0577 0.06,-0.08 1.0144,-1.23124 2.276,-2.17847 3.72001,-2.80001 0.04,-0.0177 0.08,-0.0431 0.12,-0.06 0.2304,-0.0952 0.46239,-0.18076 0.69999,-0.26 0.0856,-0.0285 0.1728,-0.0538 0.26001,-0.08 0.20715,-0.0631 0.42795,-0.11124 0.63995,-0.16001 0.1168,-0.0269 0.22161,-0.0569 0.34,-0.08 0.0584,-0.0107 0.1224,-0.03 0.18,-0.04 0.1584,-0.0277 0.3216,-0.0393 0.48,-0.06 0.1096,-0.0131 0.2096,-0.0292 0.32,-0.04 0.2656,-0.0246 0.536,-0.0354 0.8,-0.04 0.048,0 0.092,0 0.14,0 h 0.02 z m 8.78,5.20001 3.2,4.8 h -2 c 0,2.104 -0.6656,4.04723 -1.78,5.65999 -0.0136,0.0223 -0.0248,0.0377 -0.04,0.06 -0.1152,0.16477 -0.236,0.324 -0.36,0.48 -0.0464,0.0592 -0.092,0.12239 -0.14,0.18 -0.1824,0.22154 -0.3808,0.41677 -0.58,0.62 -0.0193,0.02 -0.0216,0.0415 -0.04,0.06 -0.66881,0.66954 -1.4376,1.24877 -2.26001,1.70001 -0.0216,0.0131 -0.0368,0.0277 -0.06,0.04 -0.2368,0.12722 -0.4728,0.23122 -0.72,0.33999 -0.0616,0.0261 -0.1376,0.0531 -0.2,0.08 -0.2112,0.0872 -0.4216,0.16723 -0.64,0.24 -0.1032,0.0354 -0.1952,0.0677 -0.3,0.1 -0.1912,0.0569 -0.4032,0.11362 -0.6,0.16 -0.1304,0.03 -0.2472,0.0546 -0.37999,0.08 -0.0553,0.0107 -0.1056,0.0308 -0.16,0.04 -0.1856,0.0323 -0.3744,0.0577 -0.56,0.08 -0.0672,0.008 -0.13281,0.0131 -0.20001,0.02 -0.3336,0.0323 -0.668,0.06 -0.99999,0.06 -2.0328,0 -4.01841,-0.628 -5.72001,-1.82001 -0.5424,-0.38077 -0.67999,-1.13685 -0.3,-1.68 0.3808,-0.54399 1.1384,-0.66077 1.68,-0.28 1.3224,0.92639 2.8584,1.38154 4.44,1.36001 0.2088,0 0.4152,0 0.62001,-0.02 0.084,-0.008 0.176,-0.03 0.26,-0.04 0.16159,-0.0215 0.32239,-0.0492 0.48,-0.08 0.0968,-0.0184 0.1848,-0.0377 0.28,-0.06 0.1544,-0.0362 0.30959,-0.0754 0.45999,-0.12 0.0728,-0.0223 0.148,-0.0362 0.22,-0.06 0.1736,-0.0585 0.352,-0.12962 0.52,-0.2 0.0384,-0.0154 0.0824,-0.0231 0.12,-0.04 0.1968,-0.0864 0.372,-0.17846 0.56,-0.28 0.009,-0.008 0.0313,-0.0154 0.04,-0.02 0.636,-0.34954 1.2096,-0.79046 1.72,-1.3 0.008,-0.008 0.0112,-0.0107 0.02,-0.02 0.1584,-0.15916 0.316,-0.32639 0.46,-0.5 0.0304,-0.0369 0.0696,-0.0825 0.1,-0.12 1.03921,-1.3 1.66,-2.93046 1.66,-4.72 h -2 l 3.2,-4.80001 z"
         style="display:inline;opacity:0.99618399;fill:#ffffff;fill-opacity:1;fill-rule:nonzero;stroke:none;stroke-width:0.14999987;enable-background:new" />
      <path
         style="display:inline;opacity:0.1;fill:#ffffff;fill-opacity:1;fill-rule:nonzero;stroke:none;stroke-width:0.22499999;enable-background:new"
         d="m 344.03045,68.999975 c 3.04561,0 6.03122,0.91443 8.58002,2.7 0.8148,0.57 0.99,1.67527 0.41999,2.49001 -0.56881,0.81484 -1.6764,1.02115 -2.48999,0.45 -1.96921,-1.37886 -4.27442,-2.06158 -6.63001,-2.04001 -0.3384,0 -0.66001,0 -0.99001,0.03 -0.10085,0.0115 -0.1992,0.0473 -0.3,0.06 -0.2712,0.0335 -0.546,0.068 -0.80999,0.12 -0.11761,0.0231 -0.24602,0.0335 -0.36,0.06 -0.26041,0.0589 -0.52681,0.13316 -0.78,0.21001 -0.0805,0.0254 -0.1596,0.0634 -0.24001,0.09 -0.2892,0.0946 -0.56039,0.18369 -0.84,0.29999 -0.0289,0.0127 -0.0625,0.0185 -0.09,0.03 -1.6776,0.72116 -3.1416,1.85043 -4.29,3.24001 -0.007,0.0115 -0.0229,0.0219 -0.03,0.03 -1.61521,1.96673 -2.5788,4.46147 -2.58001,7.20001 h 3.00001 l -4.80001,7.2 -4.8,-7.2 h 3 c 9e-4,-3.14643 0.9768,-6.04559 2.64001,-8.46001 0.024,-0.0415 0.0324,-0.0819 0.06,-0.12 0.2064,-0.29515 0.4356,-0.564 0.66,-0.84001 0.0264,-0.0335 0.0625,-0.0866 0.09,-0.11999 1.5216,-1.84685 3.414,-3.2677 5.58001,-4.20001 0.06,-0.0265 0.11999,-0.0646 0.18,-0.09 0.3456,-0.14285 0.69359,-0.27115 1.04999,-0.39 0.12841,-0.0427 0.2592,-0.0807 0.39001,-0.11999 0.31073,-0.0946 0.64193,-0.16686 0.95993,-0.24001 0.1752,-0.0404 0.33241,-0.0854 0.51,-0.11999 0.0876,-0.0161 0.18361,-0.045 0.27,-0.06 0.2376,-0.0415 0.48241,-0.0589 0.72001,-0.09 0.1644,-0.0196 0.31439,-0.0438 0.47999,-0.06 0.39841,-0.0369 0.80401,-0.0531 1.20001,-0.06 0.072,0 0.138,0 0.21,0 h 0.03 z m 13.17001,7.80001 4.80001,7.20001 h -3 c 0,3.156 -0.9984,6.07085 -2.67001,8.49 -0.0204,0.0335 -0.0372,0.0565 -0.06,0.09 -0.1728,0.24715 -0.354,0.486 -0.54,0.72 -0.0696,0.0888 -0.138,0.18358 -0.21,0.27 -0.2736,0.33231 -0.5712,0.62515 -0.87,0.93 -0.0289,0.03 -0.0324,0.0623 -0.06,0.09 -1.00321,1.00431 -2.1564,1.87316 -3.39001,2.55001 -0.0324,0.0196 -0.0552,0.0415 -0.09,0.06 -0.3552,0.19084 -0.7092,0.34684 -1.08,0.50999 -0.0924,0.0392 -0.2064,0.0796 -0.3,0.12001 -0.3168,0.13084 -0.6324,0.25085 -0.96,0.36001 -0.1548,0.0531 -0.2928,0.10154 -0.45,0.15 -0.2868,0.0854 -0.6048,0.17043 -0.9,0.24 -0.1956,0.045 -0.3708,0.0819 -0.57,0.12 -0.0829,0.0161 -0.1584,0.0462 -0.24,0.06 -0.2784,0.0485 -0.5616,0.0866 -0.84,0.12001 -0.10085,0.0115 -0.19921,0.0196 -0.30001,0.03 -0.5004,0.0485 -1.002,0.09 -1.49999,0.09 -3.0492,0 -6.02761,-0.942 -8.58002,-2.73001 -0.8136,-0.57116 -1.01999,-1.70528 -0.45,-2.52001 0.57121,-0.81599 1.70761,-0.99115 2.52001,-0.42 1.9836,1.38959 4.2876,2.07231 6.66,2.04001 0.3132,0 0.6228,0 0.93001,-0.03 0.126,-0.0127 0.264,-0.045 0.39,-0.06 0.24239,-0.0323 0.48359,-0.0738 0.72,-0.12 0.14519,-0.0276 0.2772,-0.0565 0.42,-0.09 0.2316,-0.0543 0.4644,-0.11307 0.68999,-0.18 0.10916,-0.0335 0.22201,-0.0543 0.33001,-0.09 0.2604,-0.0877 0.528,-0.19442 0.78,-0.29999 0.0576,-0.0231 0.1236,-0.0346 0.18,-0.06 0.2952,-0.12959 0.558,-0.2677 0.84,-0.42001 0.0131,-0.0115 0.0469,-0.0231 0.06,-0.03 0.954,-0.52431 1.8144,-1.18569 2.58,-1.95 0.012,-0.0127 0.0168,-0.0161 0.03,-0.03 0.2376,-0.23873 0.47399,-0.48958 0.68999,-0.75 0.0456,-0.0554 0.10443,-0.12368 0.15,-0.18 1.55882,-1.95 2.49001,-4.39569 2.49001,-7.08001 h -3.00001 l 4.80001,-7.20001 z"
         id="path1593"
         inkscape:connector-curvature="0" />
      <path
         inkscape:connector-curvature="0"
         id="path1595"
         d="m 344.03045,68.774975 c 3.04561,0 6.03122,0.91443 8.58002,2.7 0.8148,0.57 0.99,1.67527 0.41999,2.49001 -0.56881,0.81484 -1.6764,1.02115 -2.48999,0.45 -1.96921,-1.37886 -4.27442,-2.06158 -6.63001,-2.04001 -0.3384,0 -0.66001,0 -0.99001,0.03 -0.10085,0.0115 -0.1992,0.0472 -0.3,0.06 -0.2712,0.0335 -0.546,0.068 -0.80999,0.12 -0.11761,0.0231 -0.24602,0.0335 -0.36,0.06 -0.26041,0.0589 -0.52681,0.13316 -0.78,0.21001 -0.0805,0.0254 -0.1596,0.0634 -0.24001,0.09 -0.2892,0.0946 -0.56039,0.18369 -0.84,0.29999 -0.0289,0.0127 -0.0625,0.0185 -0.09,0.03 -1.6776,0.72116 -3.1416,1.85043 -4.29,3.24001 -0.007,0.0115 -0.0229,0.0219 -0.03,0.03 -1.61521,1.96673 -2.5788,4.46147 -2.58001,7.20001 h 3.00001 l -4.80001,7.2 -4.8,-7.2 h 3 c 9e-4,-3.14643 0.9768,-6.04559 2.64001,-8.46001 0.024,-0.0415 0.0324,-0.0819 0.06,-0.12 0.2064,-0.29515 0.4356,-0.564 0.66,-0.84001 0.0264,-0.0335 0.0625,-0.0866 0.09,-0.11999 1.5216,-1.84685 3.414,-3.2677 5.58001,-4.20001 0.06,-0.0265 0.11999,-0.0646 0.18,-0.09 0.3456,-0.14285 0.69359,-0.27115 1.04999,-0.39 0.12841,-0.0427 0.2592,-0.0807 0.39001,-0.11999 0.31073,-0.0946 0.64193,-0.16686 0.95993,-0.24001 0.1752,-0.0404 0.33241,-0.0854 0.51,-0.11999 0.0876,-0.0161 0.18361,-0.045 0.27,-0.06 0.2376,-0.0415 0.48241,-0.0589 0.72001,-0.09 0.1644,-0.0196 0.31439,-0.0438 0.47999,-0.06 0.39841,-0.0369 0.80401,-0.0531 1.20001,-0.06 0.072,0 0.138,0 0.21,0 h 0.03 z m 13.17001,7.80001 4.80001,7.20001 h -3 c 0,3.156 -0.9984,6.07085 -2.67001,8.49 -0.0204,0.0335 -0.0372,0.0565 -0.06,0.09 -0.1728,0.24715 -0.354,0.486 -0.54,0.72 -0.0696,0.0888 -0.138,0.18358 -0.21,0.27 -0.2736,0.33231 -0.5712,0.62515 -0.87,0.93 -0.0289,0.03 -0.0324,0.0623 -0.06,0.09 -1.00321,1.00431 -2.1564,1.87316 -3.39001,2.55001 -0.0324,0.0196 -0.0552,0.0415 -0.09,0.06 -0.3552,0.19084 -0.7092,0.34684 -1.08,0.50999 -0.0924,0.0392 -0.2064,0.0796 -0.3,0.12001 -0.3168,0.13084 -0.6324,0.25085 -0.96,0.36001 -0.1548,0.0531 -0.2928,0.10154 -0.45,0.15 -0.2868,0.0854 -0.6048,0.17043 -0.9,0.24 -0.1956,0.045 -0.3708,0.0819 -0.57,0.12 -0.0829,0.0161 -0.1584,0.0462 -0.24,0.06 -0.2784,0.0485 -0.5616,0.0866 -0.84,0.12001 -0.10085,0.0115 -0.19921,0.0196 -0.30001,0.03 -0.5004,0.0485 -1.002,0.09 -1.49999,0.09 -3.0492,0 -6.02761,-0.942 -8.58002,-2.73001 -0.8136,-0.57116 -1.01999,-1.70528 -0.45,-2.52001 0.57121,-0.81599 1.70761,-0.99115 2.52001,-0.42 1.9836,1.38959 4.2876,2.07231 6.66,2.04001 0.3132,0 0.6228,0 0.93001,-0.03 0.126,-0.0127 0.264,-0.045 0.39,-0.06 0.24239,-0.0323 0.48359,-0.0738 0.72,-0.12 0.14519,-0.0276 0.2772,-0.0565 0.42,-0.09 0.2316,-0.0543 0.4644,-0.11307 0.68999,-0.18 0.10916,-0.0335 0.22201,-0.0543 0.33001,-0.09 0.2604,-0.0877 0.528,-0.19442 0.78,-0.29999 0.0576,-0.0231 0.1236,-0.0346 0.18,-0.06 0.2952,-0.12959 0.558,-0.2677 0.84,-0.42001 0.0131,-0.0115 0.0469,-0.0231 0.06,-0.03 0.954,-0.52431 1.8144,-1.18569 2.58,-1.95 0.012,-0.0127 0.0168,-0.0161 0.03,-0.03 0.2376,-0.23873 0.47399,-0.48958 0.68999,-0.75 0.0456,-0.0554 0.10443,-0.12368 0.15,-0.18 1.55882,-1.95 2.49001,-4.39569 2.49001,-7.08001 h -3.00001 l 4.80001,-7.20001 z"
         style="display:inline;opacity:0.99618399;fill:#ffffff;fill-opacity:1;fill-rule:nonzero;stroke:none;stroke-width:0.22499999;enable-background:new" />
      <path
         inkscape:connector-curvature="0"
         id="path1597"
         d="m 344.03045,68.999975 c 3.04561,0 6.03122,0.91443 8.58002,2.7 0.8148,0.57 0.99,1.67527 0.41999,2.49001 -0.56881,0.81484 -1.6764,1.02115 -2.48999,0.45 -1.96921,-1.37886 -4.27442,-2.06158 -6.63001,-2.04001 -0.3384,0 -0.66001,0 -0.99001,0.03 -0.10085,0.0115 -0.1992,0.0473 -0.3,0.06 -0.2712,0.0335 -0.546,0.068 -0.80999,0.12 -0.11761,0.0231 -0.24602,0.0335 -0.36,0.06 -0.26041,0.0589 -0.52681,0.13316 -0.78,0.21001 -0.0805,0.0254 -0.1596,0.0634 -0.24001,0.09 -0.2892,0.0946 -0.56039,0.18369 -0.84,0.29999 -0.0289,0.0127 -0.0625,0.0185 -0.09,0.03 -1.6776,0.72116 -3.1416,1.85043 -4.29,3.24001 -0.007,0.0115 -0.0229,0.0219 -0.03,0.03 -1.61521,1.96673 -2.5788,4.46147 -2.58001,7.20001 h 3.00001 l -4.80001,7.2 -4.8,-7.2 h 3 c 9e-4,-3.14643 0.9768,-6.04559 2.64001,-8.46001 0.024,-0.0415 0.0324,-0.0819 0.06,-0.12 0.2064,-0.29515 0.4356,-0.564 0.66,-0.84001 0.0264,-0.0335 0.0625,-0.0866 0.09,-0.11999 1.5216,-1.84685 3.414,-3.2677 5.58001,-4.20001 0.06,-0.0265 0.11999,-0.0646 0.18,-0.09 0.3456,-0.14285 0.69359,-0.27115 1.04999,-0.39 0.12841,-0.0427 0.2592,-0.0807 0.39001,-0.11999 0.31073,-0.0946 0.64193,-0.16686 0.95993,-0.24001 0.1752,-0.0404 0.33241,-0.0854 0.51,-0.11999 0.0876,-0.0161 0.18361,-0.045 0.27,-0.06 0.2376,-0.0415 0.48241,-0.0589 0.72001,-0.09 0.1644,-0.0196 0.31439,-0.0438 0.47999,-0.06 0.39841,-0.0369 0.80401,-0.0531 1.20001,-0.06 0.072,0 0.138,0 0.21,0 h 0.03 z m 13.17001,7.80001 4.80001,7.20001 h -3 c 0,3.156 -0.9984,6.07085 -2.67001,8.49 -0.0204,0.0335 -0.0372,0.0565 -0.06,0.09 -0.1728,0.24715 -0.354,0.486 -0.54,0.72 -0.0696,0.0888 -0.138,0.18358 -0.21,0.27 -0.2736,0.33231 -0.5712,0.62515 -0.87,0.93 -0.0289,0.03 -0.0324,0.0623 -0.06,0.09 -1.00321,1.00431 -2.1564,1.87316 -3.39001,2.55001 -0.0324,0.0196 -0.0552,0.0415 -0.09,0.06 -0.3552,0.19084 -0.7092,0.34684 -1.08,0.50999 -0.0924,0.0392 -0.2064,0.0796 -0.3,0.12001 -0.3168,0.13084 -0.6324,0.25085 -0.96,0.36001 -0.1548,0.0531 -0.2928,0.10154 -0.45,0.15 -0.2868,0.0854 -0.6048,0.17043 -0.9,0.24 -0.1956,0.045 -0.3708,0.0819 -0.57,0.12 -0.0829,0.0161 -0.1584,0.0462 -0.24,0.06 -0.2784,0.0485 -0.5616,0.0866 -0.84,0.12001 -0.10085,0.0115 -0.19921,0.0196 -0.30001,0.03 -0.5004,0.0485 -1.002,0.09 -1.49999,0.09 -3.0492,0 -6.02761,-0.942 -8.58002,-2.73001 -0.8136,-0.57116 -1.01999,-1.70528 -0.45,-2.52001 0.57121,-0.81599 1.70761,-0.99115 2.52001,-0.42 1.9836,1.38959 4.2876,2.07231 6.66,2.04001 0.3132,0 0.6228,0 0.93001,-0.03 0.126,-0.0127 0.264,-0.045 0.39,-0.06 0.24239,-0.0323 0.48359,-0.0738 0.72,-0.12 0.14519,-0.0276 0.2772,-0.0565 0.42,-0.09 0.2316,-0.0543 0.4644,-0.11307 0.68999,-0.18 0.10916,-0.0335 0.22201,-0.0543 0.33001,-0.09 0.2604,-0.0877 0.528,-0.19442 0.78,-0.29999 0.0576,-0.0231 0.1236,-0.0346 0.18,-0.06 0.2952,-0.12959 0.558,-0.2677 0.84,-0.42001 0.0131,-0.0115 0.0469,-0.0231 0.06,-0.03 0.954,-0.52431 1.8144,-1.18569 2.58,-1.95 0.012,-0.0127 0.0168,-0.0161 0.03,-0.03 0.2376,-0.23873 0.47399,-0.48958 0.68999,-0.75 0.0456,-0.0554 0.10443,-0.12368 0.15,-0.18 1.55882,-1.95 2.49001,-4.39569 2.49001,-7.08001 h -3.00001 l 4.80001,-7.20001 z"
         style="display:inline;opacity:0.1;fill:#ffffff;fill-opacity:1;fill-rule:nonzero;stroke:none;stroke-width:0.22499999;enable-background:new" />
      <path
         style="display:inline;opacity:0.99618399;fill:#ffffff;fill-opacity:1;fill-rule:nonzero;stroke:none;stroke-width:0.22499999;enable-background:new"
         d="m 344.03045,68.774975 c 3.04561,0 6.03122,0.91443 8.58002,2.7 0.8148,0.57 0.99,1.67527 0.41999,2.49001 -0.56881,0.81484 -1.6764,1.02115 -2.48999,0.45 -1.96921,-1.37886 -4.27442,-2.06158 -6.63001,-2.04001 -0.3384,0 -0.66001,0 -0.99001,0.03 -0.10085,0.0115 -0.1992,0.0472 -0.3,0.06 -0.2712,0.0335 -0.546,0.068 -0.80999,0.12 -0.11761,0.0231 -0.24602,0.0335 -0.36,0.06 -0.26041,0.0589 -0.52681,0.13316 -0.78,0.21001 -0.0805,0.0254 -0.1596,0.0634 -0.24001,0.09 -0.2892,0.0946 -0.56039,0.18369 -0.84,0.29999 -0.0289,0.0127 -0.0625,0.0185 -0.09,0.03 -1.6776,0.72116 -3.1416,1.85043 -4.29,3.24001 -0.007,0.0115 -0.0229,0.0219 -0.03,0.03 -1.61521,1.96673 -2.5788,4.46147 -2.58001,7.20001 h 3.00001 l -4.80001,7.2 -4.8,-7.2 h 3 c 9e-4,-3.14643 0.9768,-6.04559 2.64001,-8.46001 0.024,-0.0415 0.0324,-0.0819 0.06,-0.12 0.2064,-0.29515 0.4356,-0.564 0.66,-0.84001 0.0264,-0.0335 0.0625,-0.0866 0.09,-0.11999 1.5216,-1.84685 3.414,-3.2677 5.58001,-4.20001 0.06,-0.0265 0.11999,-0.0646 0.18,-0.09 0.3456,-0.14285 0.69359,-0.27115 1.04999,-0.39 0.12841,-0.0427 0.2592,-0.0807 0.39001,-0.11999 0.31073,-0.0946 0.64193,-0.16686 0.95993,-0.24001 0.1752,-0.0404 0.33241,-0.0854 0.51,-0.11999 0.0876,-0.0161 0.18361,-0.045 0.27,-0.06 0.2376,-0.0415 0.48241,-0.0589 0.72001,-0.09 0.1644,-0.0196 0.31439,-0.0438 0.47999,-0.06 0.39841,-0.0369 0.80401,-0.0531 1.20001,-0.06 0.072,0 0.138,0 0.21,0 h 0.03 z m 13.17001,7.80001 4.80001,7.20001 h -3 c 0,3.156 -0.9984,6.07085 -2.67001,8.49 -0.0204,0.0335 -0.0372,0.0565 -0.06,0.09 -0.1728,0.24715 -0.354,0.486 -0.54,0.72 -0.0696,0.0888 -0.138,0.18358 -0.21,0.27 -0.2736,0.33231 -0.5712,0.62515 -0.87,0.93 -0.0289,0.03 -0.0324,0.0623 -0.06,0.09 -1.00321,1.00431 -2.1564,1.87316 -3.39001,2.55001 -0.0324,0.0196 -0.0552,0.0415 -0.09,0.06 -0.3552,0.19084 -0.7092,0.34684 -1.08,0.50999 -0.0924,0.0392 -0.2064,0.0796 -0.3,0.12001 -0.3168,0.13084 -0.6324,0.25085 -0.96,0.36001 -0.1548,0.0531 -0.2928,0.10154 -0.45,0.15 -0.2868,0.0854 -0.6048,0.17043 -0.9,0.24 -0.1956,0.045 -0.3708,0.0819 -0.57,0.12 -0.0829,0.0161 -0.1584,0.0462 -0.24,0.06 -0.2784,0.0485 -0.5616,0.0866 -0.84,0.12001 -0.10085,0.0115 -0.19921,0.0196 -0.30001,0.03 -0.5004,0.0485 -1.002,0.09 -1.49999,0.09 -3.0492,0 -6.02761,-0.942 -8.58002,-2.73001 -0.8136,-0.57116 -1.01999,-1.70528 -0.45,-2.52001 0.57121,-0.81599 1.70761,-0.99115 2.52001,-0.42 1.9836,1.38959 4.2876,2.07231 6.66,2.04001 0.3132,0 0.6228,0 0.93001,-0.03 0.126,-0.0127 0.264,-0.045 0.39,-0.06 0.24239,-0.0323 0.48359,-0.0738 0.72,-0.12 0.14519,-0.0276 0.2772,-0.0565 0.42,-0.09 0.2316,-0.0543 0.4644,-0.11307 0.68999,-0.18 0.10916,-0.0335 0.22201,-0.0543 0.33001,-0.09 0.2604,-0.0877 0.528,-0.19442 0.78,-0.29999 0.0576,-0.0231 0.1236,-0.0346 0.18,-0.06 0.2952,-0.12959 0.558,-0.2677 0.84,-0.42001 0.0131,-0.0115 0.0469,-0.0231 0.06,-0.03 0.954,-0.52431 1.8144,-1.18569 2.58,-1.95 0.012,-0.0127 0.0168,-0.0161 0.03,-0.03 0.2376,-0.23873 0.47399,-0.48958 0.68999,-0.75 0.0456,-0.0554 0.10443,-0.12368 0.15,-0.18 1.55882,-1.95 2.49001,-4.39569 2.49001,-7.08001 h -3.00001 l 4.80001,-7.20001 z"
         id="path1599"
         inkscape:connector-curvature="0" />
    </g>
    <g
       inkscape:groupmode="layer"
       id="layer4"
       inkscape:label="Borders"
       style="display:inline;opacity:1">
      <path
         style="color:#000000;display:inline;overflow:visible;visibility:visible;opacity:0.3;fill:#ffffff;fill-opacity:1;fill-rule:nonzero;stroke:none;stroke-width:1;marker:none;enable-background:accumulate"
         d="m 78.92188,43.999698 c -35.296728,0 -39.09487,3.62603 -38.92188,38.99414 v 2 c -0.17299,-35.36811 3.625152,-38.99414 38.92188,-38.99414 h 146.15624 c 35.29673,0 38.92188,3.62561 38.92188,38.99414 v -2 c 0,-35.36853 -3.62515,-38.99414 -38.92188,-38.99414 z"
         id="path931"
         inkscape:connector-curvature="0"
         sodipodi:nodetypes="sccsscsss" />
      <path
         style="color:#000000;display:inline;overflow:visible;visibility:visible;opacity:0.2;fill:#000000;fill-opacity:1;fill-rule:nonzero;stroke:none;stroke-width:1;marker:none;enable-background:accumulate"
         d="m 78.92728,267.9997 c -35.296731,0 -39.094875,-3.62603 -38.921885,-38.99414 v -2 c -0.17299,35.36811 3.625154,38.99414 38.921885,38.99414 h 146.15624 c 35.29673,0 38.92188,-3.62561 38.92188,-38.99414 v 2 c 0,35.36853 -3.62515,38.99414 -38.92188,38.99414 z"
         id="path931-8"
         inkscape:connector-curvature="0"
         sodipodi:nodetypes="sccsscsss" />
      <path
         style="color:#000000;display:inline;overflow:visible;visibility:visible;opacity:0.4;fill:none;fill-opacity:1;fill-rule:nonzero;stroke:#000000;stroke-width:1;stroke-miterlimit:4;stroke-dasharray:none;stroke-opacity:1;marker:none;enable-background:accumulate"
         d="m 333.33517,61.500047 c -10.01116,0 -11.88667,0.90635 -11.83407,9.74838 V 84 96.75181 c -0.0527,8.84203 1.82291,9.74838 11.83407,9.74838 h 21.3308 c 10.00866,0 11.83405,-0.90625 11.83405,-9.74838 V 84 71.248427 c 0,-8.84213 -1.82539,-9.74838 -11.83406,-9.74838 z"
         id="path958"
         inkscape:connector-curvature="0"
         sodipodi:nodetypes="scccssscsss" />
      <path
         style="color:#000000;display:inline;overflow:visible;visibility:visible;opacity:0.4;fill:none;fill-opacity:1;fill-rule:nonzero;stroke:#000000;stroke-width:1;stroke-miterlimit:4;stroke-dasharray:none;stroke-opacity:1;marker:none;enable-background:accumulate"
         d="m 329.12711,133.5 c -6.45163,0 -7.6603,0.58409 -7.62639,6.28227 v 8.21765 8.21781 c -0.034,5.69818 1.17476,6.28227 7.62639,6.28227 h 13.74651 c 6.45003,0 7.62639,-0.58403 7.62639,-6.28227 v -8.21781 -8.21765 c 0,-5.69824 -1.17636,-6.28227 -7.62639,-6.28227 z"
         id="path958-1"
         inkscape:connector-curvature="0"
         sodipodi:nodetypes="scccssscsss" />
      <path
         style="color:#000000;display:inline;overflow:visible;visibility:visible;opacity:0.4;fill:none;fill-opacity:1;fill-rule:nonzero;stroke:#000000;stroke-width:1;stroke-miterlimit:4;stroke-dasharray:none;stroke-opacity:1;marker:none;enable-background:accumulate"
         d="m 337.97659,211.50015 c 4.67187,0 5.5471,-0.42296 5.52255,-4.54923 v -7.95037 -5.95084 c 0.0245,-4.12627 -0.85068,-4.54923 -5.52255,-4.54923 h -11.95364 c -4.67071,0 -5.52256,0.42291 -5.52256,4.54923 v 5.95084 7.95037 c 0,4.12632 0.85185,4.54923 5.52256,4.54923 z"
         id="path958-6"
         inkscape:connector-curvature="0"
         sodipodi:nodetypes="scccssscsss" />
      <path
         style="color:#000000;display:inline;overflow:visible;visibility:visible;opacity:0.4;fill:none;fill-opacity:1;fill-rule:nonzero;stroke:#000000;stroke-width:1;stroke-miterlimit:4;stroke-dasharray:none;stroke-opacity:1;marker:none;enable-background:accumulate"
         d="m 387.97659,211.50015 c 4.67187,0 5.5471,-0.42296 5.52255,-4.54923 v -7.95037 -3.95084 c 0.0245,-4.12627 -0.85068,-4.54923 -5.52255,-4.54923 h -9.95364 c -4.67071,0 -5.52256,0.42291 -5.52256,4.54923 v 3.95084 7.95037 c 0,4.12632 0.85185,4.54923 5.52256,4.54923 z"
         id="path958-6-9"
         inkscape:connector-curvature="0"
         sodipodi:nodetypes="scccssscsss" />
    </g>
    <g
       inkscape:groupmode="layer"
       id="layer5"
       inkscape:label="Highlights"
       style="display:inline;opacity:0.7">
      <path
         style="color:#000000;display:inline;overflow:visible;visibility:visible;opacity:1;fill:url(#linearGradient1690-9);fill-opacity:1;fill-rule:nonzero;stroke:none;stroke-width:1;marker:none;enable-background:accumulate"
         d="m 326.02383,189.00048 c -2.32027,0 -3.60941,0.15494 -4.20703,0.62109 -0.29882,0.23308 -0.48964,0.54668 -0.625,1.09571 -0.13541,0.54902 -0.19141,1.31765 -0.19141,2.33203 v 5.95117 7.95084 c 0,1.01437 0.056,1.783 0.19141,2.33203 0.13536,0.54903 0.32618,0.86263 0.625,1.09571 0.59762,0.46615 1.88676,0.62109 4.20703,0.62109 h 11.9524 c 2.32085,0 3.61652,-0.15457 4.2168,-0.62109 0.30014,-0.23327 0.49095,-0.54754 0.625,-1.09571 0.13404,-0.54816 0.18764,-1.31623 0.18164,-2.33008 v -7.95279 -5.95312 c 0.006,-1.01386 -0.0476,-1.78191 -0.18164,-2.33008 -0.13406,-0.54817 -0.32486,-0.86244 -0.625,-1.09571 -0.60028,-0.46652 -1.89595,-0.62109 -4.2168,-0.62109 z m 4.95859,1.00977 c 1.5798,-0.002 4.16014,-3.9e-4 5.73991,0.0117 1.50021,0.0511 3.02236,-0.0712 4.5,0.28321 0.55111,0.0919 0.61303,0.71807 0.67773,1.16601 0.1117,4.30832 0.075,10.62608 0.0508,14.94108 -0.0716,0.99089 0.13687,2.07606 -0.30078,3.01366 -0.34356,0.40964 -0.9694,0.35958 -1.45117,0.45509 -3.95407,0.0823 -9.92936,0.0499 -13.89381,0.0371 -1.16908,-0.0622 -2.37292,0.11291 -3.51758,-0.22266 -0.57935,-0.098 -0.6137,-0.75914 -0.6875,-1.2207 -0.1146,-4.11835 -0.0751,-10.24472 -0.0547,-14.36881 0.0572,-1.06305 -0.0797,-2.16734 0.18164,-3.21485 0.10495,-0.6386 0.8614,-0.66043 1.36719,-0.74023 2.1305,-0.19658 5.24071,-0.10662 7.38828,-0.14062 z"
         id="path914-6"
         inkscape:connector-curvature="0"
         sodipodi:nodetypes="sccscsccsscccccccssccccccccccccccc" />
      <path
         style="color:#000000;display:inline;overflow:visible;visibility:visible;opacity:1;fill:url(#linearGradient1688-4);fill-opacity:1;fill-rule:nonzero;stroke:none;stroke-width:1;marker:none;enable-background:accumulate"
         d="m 329.12695,134 c -3.21072,0 -5.03255,0.19514 -5.9375,0.89844 -0.45247,0.35165 -0.74178,0.83286 -0.93359,1.61718 -0.19176,0.78433 -0.26386,1.85686 -0.25586,3.26368 v 0.002 8.21875 8.21875 0.002 c -0.008,1.40682 0.0641,2.47935 0.25586,3.26368 0.1918,0.78431 0.48112,1.26553 0.93359,1.61718 0.90496,0.7033 2.72678,0.89844 5.9375,0.89844 h 13.7461 c 3.20992,0 5.02461,-0.19551 5.92578,-0.89844 0.45058,-0.35146 0.73805,-0.83201 0.93164,-1.61718 C 349.9241,158.69918 350,157.62415 350,156.2168 V 148 139.7832 c 0,-1.40735 -0.0759,-2.48237 -0.26953,-3.26758 -0.19359,-0.78517 -0.48106,-1.26572 -0.93164,-1.61718 C 347.89766,134.19551 346.08297,134 342.87305,134 Z m 6.49805,1.04688 c 3.45647,0.0171 6.9142,-0.0268 10.36133,0.0918 0.8211,0.13276 1.80664,0.14835 2.39062,0.82617 0.67884,1.16473 0.51296,2.58781 0.56446,3.87305 0.0431,6.02893 0.0678,12.06719 -0.0332,18.08789 -0.0775,0.77792 -0.12055,1.67263 -0.67968,2.27539 -0.70249,0.51038 -1.61833,0.59683 -2.45899,0.67383 -4.04742,0.0864 -8.16222,0.0456 -12.24023,0.0606 -2.45188,-0.0199 -4.91402,0.0317 -7.35352,-0.0606 -0.87784,-0.12055 -1.915,-0.14021 -2.56055,-0.83398 -0.64775,-1.02591 -0.50264,-2.30525 -0.56054,-3.46485 -0.035,-5.65575 -0.0351,-11.35518 0,-17.00976 0.0632,-1.22153 -0.10864,-2.57724 0.59179,-3.65235 0.6025,-0.62665 1.55621,-0.63986 2.35938,-0.77344 2.73743,-0.10739 5.48083,-0.0704 8.22656,-0.0918 0.46403,-2.9e-4 0.92855,-0.002 1.39258,-0.002 z"
         id="path964-7-2"
         inkscape:connector-curvature="0" />
      <path
         style="color:#000000;display:inline;overflow:visible;visibility:visible;opacity:1;fill:url(#linearGradient1686-0);fill-opacity:1;fill-rule:nonzero;stroke:none;stroke-width:1;marker:none;enable-background:accumulate"
         d="m 333.33594,62 c -4.99049,0 -7.87051,0.276282 -9.38477,1.453125 -0.75713,0.588421 -1.23761,1.403518 -1.54492,2.660156 -0.3073,1.256638 -0.4173,2.940031 -0.4043,5.132813 V 84 96.753906 c -0.0131,2.19278 0.097,3.876174 0.4043,5.132814 0.30731,1.25663 0.78779,2.07172 1.54492,2.66016 1.51427,1.17683 4.39428,1.45312 9.38477,1.45312 h 21.33008 c 4.98923,0 7.85502,-0.27668 9.36328,-1.45312 0.75412,-0.58824 1.23293,-1.40461 1.54297,-2.66211 C 365.8823,100.62727 366,98.945281 366,96.751953 V 84 71.248047 c 0,-2.193329 -0.1177,-3.875313 -0.42773,-5.132813 -0.31004,-1.257499 -0.78884,-2.073874 -1.54297,-2.662109 C 362.52104,62.276656 359.65526,62 354.66602,62 Z m 2.40234,1.097656 c 6.94737,8.3e-4 13.91063,0.0034 20.84961,0.05469 2.14296,0.08293 4.46431,-0.147701 6.42383,0.93164 1.29609,0.695228 1.54862,2.250325 1.76953,3.564454 0.17551,2.202888 0.0915,4.442228 0.13867,6.669921 0.0227,8.479532 0.077,16.968993 -0.0801,25.447266 -0.16151,1.483233 -0.38135,3.305793 -1.79882,4.142573 -1.6055,0.82871 -3.47551,0.90643 -5.24805,0.95313 -9.49974,0.0678 -19.0243,0.0843 -28.52344,-0.0176 -1.57816,-0.11413 -3.27053,-0.24014 -4.63281,-1.12109 -1.22952,-0.99538 -1.36082,-2.72739 -1.50391,-4.193361 -0.1272,-8.998585 -0.0836,-18.004484 -0.0527,-27.007813 0.0997,-2.381275 -0.24538,-4.900002 0.70508,-7.160156 0.67165,-1.50972 2.46573,-1.859954 3.93945,-2.05664 2.66168,-0.316582 5.34184,-0.147022 8.01367,-0.207032 z"
         id="path964-3"
         inkscape:connector-curvature="0" />
      <path
         style="color:#000000;display:inline;overflow:visible;visibility:visible;opacity:1;fill:url(#linearGradient1690-9-2);fill-opacity:1;fill-rule:nonzero;stroke:none;stroke-width:1;marker:none;enable-background:accumulate"
         d="m 378.02383,191.00048 c -2.32027,0 -3.60941,0.15494 -4.20703,0.62109 -0.29882,0.23308 -0.48964,0.54668 -0.625,1.09571 -0.13541,0.54902 -0.19141,1.31765 -0.19141,2.33203 v 3.95117 7.95084 c 0,1.01437 0.056,1.783 0.19141,2.33203 0.13536,0.54903 0.32618,0.86263 0.625,1.09571 0.59762,0.46615 1.88676,0.62109 4.20703,0.62109 h 9.9524 c 2.32085,0 3.61652,-0.15457 4.2168,-0.62109 0.30014,-0.23327 0.49095,-0.54754 0.625,-1.09571 0.13404,-0.54816 0.18764,-1.31623 0.18164,-2.33008 v -7.95279 -3.95312 c 0.006,-1.01386 -0.0476,-1.78191 -0.18164,-2.33008 -0.13406,-0.54817 -0.32486,-0.86244 -0.625,-1.09571 -0.60028,-0.46652 -1.89595,-0.62109 -4.2168,-0.62109 z m 4.95859,1.00977 c 1.5798,-0.002 2.16014,-3.9e-4 3.73991,0.0117 1.50021,0.0511 3.02236,-0.0712 4.5,0.28321 0.55111,0.0919 0.61303,0.71807 0.67773,1.16601 0.1117,4.30832 0.075,8.62608 0.0508,12.94108 -0.0716,0.99089 0.13687,2.07606 -0.30078,3.01366 -0.34356,0.40964 -0.9694,0.35958 -1.45117,0.45509 -3.95407,0.0823 -7.92936,0.0499 -11.89381,0.0371 -1.16908,-0.0622 -2.37292,0.11291 -3.51758,-0.22266 -0.57935,-0.098 -0.6137,-0.75914 -0.6875,-1.2207 -0.1146,-4.11835 -0.0751,-8.24472 -0.0547,-12.36881 0.0572,-1.06305 -0.0797,-2.16734 0.18164,-3.21485 0.10495,-0.6386 0.8614,-0.66043 1.36719,-0.74023 2.1305,-0.19658 5.24071,-0.10662 7.38828,-0.14062 z"
         id="path914-6-3"
         inkscape:connector-curvature="0"
         sodipodi:nodetypes="sccscsccsscccccccssccccccccccccccc" />
    </g>
  </g>
</svg>
