<?xml version="1.0" encoding="UTF-8" standalone="no"?>
<svg
   inkscape:export-ydpi="90.000000"
   inkscape:export-xdpi="90.000000"
   width="400"
   height="300"
   id="svg11300"
   sodipodi:version="0.32"
   inkscape:version="1.1.2 (0a00cf5339, 2022-02-04)"
   sodipodi:docname="application-apk.svg"
   inkscape:output_extension="org.inkscape.output.svg.inkscape"
   version="1.0"
   style="display:inline;enable-background:new"
   inkscape:export-filename="/home/sam/suru-template.png"
   xmlns:inkscape="http://www.inkscape.org/namespaces/inkscape"
   xmlns:sodipodi="http://sodipodi.sourceforge.net/DTD/sodipodi-0.dtd"
   xmlns:xlink="http://www.w3.org/1999/xlink"
   xmlns="http://www.w3.org/2000/svg"
   xmlns:svg="http://www.w3.org/2000/svg"
   xmlns:rdf="http://www.w3.org/1999/02/22-rdf-syntax-ns#"
   xmlns:cc="http://creativecommons.org/ns#"
   xmlns:dc="http://purl.org/dc/elements/1.1/">
  <title
     id="title3004">Suru Icon Theme Template</title>
  <sodipodi:namedview
     stroke="#ef2929"
     fill="#f57900"
     id="base"
     pagecolor="#ffffff"
     bordercolor="#000000"
     borderopacity="0.25490196"
     inkscape:pageopacity="0"
     inkscape:pageshadow="2"
     inkscape:zoom="4"
     inkscape:cx="143.25"
     inkscape:cy="147.25"
     inkscape:current-layer="layer6"
     showgrid="false"
     inkscape:grid-bbox="true"
     inkscape:document-units="px"
     inkscape:showpageshadow="false"
     inkscape:window-width="1920"
     inkscape:window-height="1016"
     inkscape:window-x="0"
     inkscape:window-y="32"
     width="400px"
     height="300px"
     inkscape:snap-nodes="true"
     inkscape:snap-bbox="true"
     gridtolerance="10000"
     inkscape:object-nodes="true"
     inkscape:snap-grids="true"
     showguides="true"
     inkscape:guide-bbox="true"
     inkscape:window-maximized="1"
     inkscape:bbox-paths="true"
     inkscape:snap-bbox-midpoints="true"
     inkscape:snap-global="true"
     inkscape:object-paths="true"
     inkscape:snap-intersection-paths="true"
     inkscape:snap-smooth-nodes="true"
     inkscape:pagecheckerboard="false"
     showborder="false"
     inkscape:document-rotation="0"
     inkscape:deskcolor="#d1d1d1">
    <inkscape:grid
       spacingy="1"
       spacingx="1"
       id="grid5883"
       type="xygrid"
       enabled="true"
       visible="true"
       empspacing="4"
       snapvisiblegridlinesonly="true"
       originx="0"
       originy="0" />
    <inkscape:grid
       type="xygrid"
       id="grid11592"
       empspacing="2"
       visible="true"
       enabled="false"
       spacingx="0.5"
       spacingy="0.5"
       color="#ff0000"
       opacity="0.1254902"
       empcolor="#ff0000"
       empopacity="0.25098039"
       snapvisiblegridlinesonly="true"
       originx="0"
       originy="0" />
  </sodipodi:namedview>
  <defs
     id="defs3">
    <linearGradient
       id="linearGradient1468"
       x1="130.16949"
       x2="130.16949"
       y1="6.0432158"
       y2="48.237221"
       gradientTransform="matrix(4.797759,0,0,4.8053455,-464.06704,-274.48692)"
       gradientUnits="userSpaceOnUse">
      <stop
         id="stop1449"
         style="stop-color:#5ee626"
         offset="0" />
      <stop
         id="stop1451"
         style="stop-color:#8ded67"
         offset="1" />
    </linearGradient>
    <linearGradient
       id="linearGradient1455"
       x1="130.16949"
       x2="130.16949"
       y1="6.7796607"
       y2="47.728813"
       gradientTransform="matrix(4.797759,0,0,4.8053455,-486.92572,-293.56579)"
       gradientUnits="userSpaceOnUse">
      <stop
         id="stop1493"
         style="stop-color:#a8a8a8"
         offset="0" />
      <stop
         id="stop1495"
         style="stop-color:#d0d0d0"
         offset="1" />
    </linearGradient>
    <linearGradient
       inkscape:collect="always"
       xlink:href="#linearGradient1455"
       id="linearGradient8718"
       gradientUnits="userSpaceOnUse"
       gradientTransform="matrix(0.98525407,0,0,0.98681201,212.73491,-112.71995)"
       x1="130.16949"
       y1="6.7796607"
       x2="130.16949"
       y2="47.728813" />
    <linearGradient
       inkscape:collect="always"
       xlink:href="#linearGradient1468"
       id="linearGradient8720"
       gradientUnits="userSpaceOnUse"
       gradientTransform="matrix(0.98525407,0,0,0.98681201,217.4291,-108.80197)"
       x1="130.16949"
       y1="6.0432158"
       x2="130.16949"
       y2="48.237221" />
    <linearGradient
       inkscape:collect="always"
       xlink:href="#linearGradient1455"
       id="linearGradient8734"
       gradientUnits="userSpaceOnUse"
       gradientTransform="matrix(0.642557,0,0,0.64357305,250.39233,-166.73041)"
       x1="130.16949"
       y1="6.7796607"
       x2="130.16949"
       y2="47.728813" />
    <linearGradient
       inkscape:collect="always"
       xlink:href="#linearGradient1468"
       id="linearGradient8736"
       gradientUnits="userSpaceOnUse"
       gradientTransform="matrix(0.642557,0,0,0.64357305,253.45376,-164.1752)"
       x1="130.16949"
       y1="6.0432158"
       x2="130.16949"
       y2="48.237221" />
    <linearGradient
       inkscape:collect="always"
       xlink:href="#linearGradient1455"
       id="linearGradient8750"
       gradientUnits="userSpaceOnUse"
       gradientTransform="matrix(0.47120849,0,0,0.4719536,269.22104,-213.73564)"
       x1="130.16949"
       y1="6.7796607"
       x2="130.16949"
       y2="47.728813" />
    <linearGradient
       inkscape:collect="always"
       xlink:href="#linearGradient1468"
       id="linearGradient8752"
       gradientUnits="userSpaceOnUse"
       gradientTransform="matrix(0.47120849,0,0,0.4719536,271.46609,-211.86182)"
       x1="130.16949"
       y1="6.0432158"
       x2="130.16949"
       y2="48.237221" />
    <linearGradient
       inkscape:collect="always"
       xlink:href="#linearGradient1455"
       id="linearGradient8766"
       gradientUnits="userSpaceOnUse"
       gradientTransform="matrix(0.32127853,0,0,0.32178655,285.19616,-253.3652)"
       x1="130.16949"
       y1="6.7796607"
       x2="130.16949"
       y2="47.728813" />
    <linearGradient
       inkscape:collect="always"
       xlink:href="#linearGradient1468"
       id="linearGradient8768"
       gradientUnits="userSpaceOnUse"
       gradientTransform="matrix(0.32127853,0,0,0.32178655,286.72688,-252.0876)"
       x1="130.16949"
       y1="6.0432158"
       x2="130.16949"
       y2="48.237221" />
    <linearGradient
       inkscape:collect="always"
       xlink:href="#linearGradient1455"
       id="linearGradient8770"
       gradientUnits="userSpaceOnUse"
       gradientTransform="matrix(4.797759,0,0,4.8053455,-487.20394,-295.85369)"
       x1="130.16949"
       y1="6.7796607"
       x2="130.16949"
       y2="47.728813" />
    <linearGradient
       inkscape:collect="always"
       xlink:href="#linearGradient1468"
       id="linearGradient8772"
       gradientUnits="userSpaceOnUse"
       gradientTransform="matrix(4.797759,0,0,4.8053455,-464.34526,-276.77482)"
       x1="130.16949"
       y1="6.0432158"
       x2="130.16949"
       y2="48.237221" />
  </defs>
  <metadata
     id="metadata4">
    <rdf:RDF>
      <cc:Work
         rdf:about="">
        <dc:format>image/svg+xml</dc:format>
        <dc:type
           rdf:resource="http://purl.org/dc/dcmitype/StillImage" />
        <dc:creator>
          <cc:Agent>
            <dc:title>Sam Hewitt</dc:title>
          </cc:Agent>
        </dc:creator>
        <dc:source />
        <cc:license
           rdf:resource="http://creativecommons.org/licenses/by-sa/4.0/" />
        <dc:title>Suru Icon Theme Template</dc:title>
        <dc:subject>
          <rdf:Bag />
        </dc:subject>
        <dc:date />
        <dc:rights>
          <cc:Agent>
            <dc:title />
          </cc:Agent>
        </dc:rights>
        <dc:publisher>
          <cc:Agent>
            <dc:title />
          </cc:Agent>
        </dc:publisher>
        <dc:identifier />
        <dc:relation />
        <dc:language />
        <dc:coverage />
        <dc:description />
        <dc:contributor>
          <cc:Agent>
            <dc:title />
          </cc:Agent>
        </dc:contributor>
      </cc:Work>
      <cc:Work
         rdf:about="">
        <dc:format>image/svg+xml</dc:format>
        <dc:type
           rdf:resource="http://purl.org/dc/dcmitype/StillImage" />
      </cc:Work>
      <cc:License
         rdf:about="http://creativecommons.org/licenses/by-sa/4.0/">
        <cc:permits
           rdf:resource="http://creativecommons.org/ns#Reproduction" />
        <cc:permits
           rdf:resource="http://creativecommons.org/ns#Distribution" />
        <cc:requires
           rdf:resource="http://creativecommons.org/ns#Notice" />
        <cc:requires
           rdf:resource="http://creativecommons.org/ns#Attribution" />
        <cc:permits
           rdf:resource="http://creativecommons.org/ns#DerivativeWorks" />
        <cc:requires
           rdf:resource="http://creativecommons.org/ns#ShareAlike" />
      </cc:License>
    </rdf:RDF>
  </metadata>
  <g
     style="display:inline"
     inkscape:groupmode="layer"
     inkscape:label="Icon"
     id="layer1">
    <g
       style="display:none"
       inkscape:label="Baseplate"
       id="layer7"
       inkscape:groupmode="layer">
      <text
         y="-8.2548828"
         xml:space="preserve"
         x="19.006836"
         style="font-style:normal;font-variant:normal;font-weight:normal;font-stretch:normal;line-height:0%;font-family:'DejaVu Sans';-inkscape-font-specification:'DejaVu Sans';display:inline;fill:#000000;fill-opacity:1;stroke:none;enable-background:new"
         inkscape:label="context"
         id="context"><tspan
           style="font-style:normal;font-variant:normal;font-weight:normal;font-stretch:normal;font-size:18px;line-height:1.25;font-family:'DejaVu Sans';-inkscape-font-specification:'DejaVu Sans'"
           y="-8.2548828"
           x="19.006836"
           sodipodi:role="line"
           id="tspan3933">mimetypes</tspan></text>
      <text
         y="-8.2548828"
         xml:space="preserve"
         x="146.48828"
         style="font-style:normal;font-variant:normal;font-weight:bold;font-stretch:normal;line-height:0%;font-family:'DejaVu Sans';-inkscape-font-specification:'DejaVu Sans Bold';text-align:start;writing-mode:lr-tb;text-anchor:start;display:inline;fill:#000000;fill-opacity:1;stroke:none;enable-background:new"
         inkscape:label="icon-name"
         id="icon-name"><tspan
           style="font-style:normal;font-variant:normal;font-weight:bold;font-stretch:normal;font-size:18px;line-height:1.25;font-family:'DejaVu Sans';-inkscape-font-specification:'DejaVu Sans Bold'"
           y="-8.2548828"
           x="146.48828"
           sodipodi:role="line"
           id="tspan924">application-apk</tspan><tspan
           style="font-style:normal;font-variant:normal;font-weight:bold;font-stretch:normal;font-size:18px;line-height:1.25;font-family:'DejaVu Sans';-inkscape-font-specification:'DejaVu Sans Bold'"
           y="1.4365234"
           x="146.48828"
           sodipodi:role="line"
           id="tspan3979" /></text>
      <rect
         style="display:inline;overflow:visible;visibility:visible;fill:#cdcdcd;fill-opacity:1;fill-rule:nonzero;stroke:none;stroke-width:2;marker:none;enable-background:accumulate"
         id="rect16x16"
         width="16"
         height="16"
         x="320"
         y="236"
         inkscape:label="16x16" />
      <rect
         style="display:inline;overflow:visible;visibility:visible;fill:#cdcdcd;fill-opacity:1;fill-rule:nonzero;stroke:none;stroke-width:2;marker:none;enable-background:accumulate"
         id="rect24x24"
         width="24"
         height="24"
         x="320"
         y="188"
         inkscape:label="24x24" />
      <rect
         style="display:inline;overflow:visible;visibility:visible;fill:#cdcdcd;fill-opacity:1;fill-rule:nonzero;stroke:none;stroke-width:2;marker:none;enable-background:accumulate"
         id="rect32x32"
         width="32"
         height="32"
         x="320"
         y="132"
         inkscape:label="32x32" />
      <rect
         inkscape:label="48x48"
         y="60"
         x="320"
         height="48"
         width="48"
         id="rect48x48"
         style="display:inline;overflow:visible;visibility:visible;fill:#cdcdcd;fill-opacity:1;fill-rule:nonzero;stroke:none;stroke-width:2;marker:none;enable-background:accumulate" />
      <rect
         style="display:inline;overflow:visible;visibility:visible;fill:#cdcdcd;fill-opacity:1;fill-rule:nonzero;stroke:none;stroke-width:2;marker:none;enable-background:accumulate"
         id="rect256x256"
         width="256"
         height="256"
         x="24"
         y="28"
         inkscape:label="256x256" />
    </g>
    <g
       inkscape:groupmode="layer"
       id="layer2"
       inkscape:label="Background"
       style="display:inline">
      <text
         id="text879"
         x="-442.54877"
         y="142.91618"
         style="font-size:149.333px;line-height:1.25;font-family:sans-serif;letter-spacing:0px;word-spacing:0px;fill:#000000;stroke-width:3.73333"
         xml:space="preserve"><tspan
           id="tspan877"
           x="-442.54877"
           y="275.04114"
           style="stroke-width:3.73333" /></text>
      <rect
         id="rect1243"
         transform="scale(1,-1)"
         x="62.400002"
         y="-268"
         width="156.34137"
         height="204.92102"
         style="fill:url(#linearGradient8770);stroke-width:3.73333;paint-order:stroke fill markers" />
      <rect
         id="rect1466"
         transform="scale(1,-1)"
         x="85.258629"
         y="-248.92102"
         width="156.34137"
         height="204.92102"
         style="fill:url(#linearGradient8772);stroke-width:3.73333;paint-order:stroke fill markers" />
      <text
         id="text8708"
         x="221.90517"
         y="81.313141"
         style="font-size:30.6666px;line-height:1.25;font-family:sans-serif;letter-spacing:0px;word-spacing:0px;fill:#000000;stroke-width:0.766666"
         xml:space="preserve"><tspan
           id="tspan8706"
           x="221.90517"
           y="108.44595"
           style="stroke-width:0.766666" /></text>
      <rect
         id="rect8710"
         transform="scale(1,-1)"
         x="325.60001"
         y="-107"
         width="32.105816"
         height="42.081993"
         style="fill:url(#linearGradient8718);stroke-width:0.766666;paint-order:stroke fill markers" />
      <rect
         id="rect8712"
         transform="scale(1,-1)"
         x="330.29419"
         y="-103.08199"
         width="32.105816"
         height="42.081993"
         style="fill:url(#linearGradient8720);stroke-width:0.766666;paint-order:stroke fill markers" />
      <text
         id="text8724"
         x="256.37292"
         y="146.24771"
         style="font-size:20px;line-height:1.25;font-family:sans-serif;letter-spacing:0px;word-spacing:0px;fill:#000000;stroke-width:0.5"
         xml:space="preserve"><tspan
           id="tspan8722"
           x="256.37292"
           y="163.94301"
           style="stroke-width:0.5" /></text>
      <rect
         id="rect8726"
         transform="scale(1,-1)"
         x="324"
         y="-163"
         width="20.938576"
         height="27.444778"
         style="fill:url(#linearGradient8734);stroke-width:0.5;paint-order:stroke fill markers" />
      <rect
         id="rect8728"
         transform="scale(1,-1)"
         x="327.06143"
         y="-160.44478"
         width="20.938576"
         height="27.444778"
         style="fill:url(#linearGradient8736);stroke-width:0.5;paint-order:stroke fill markers" />
      <text
         id="text8740"
         x="273.60681"
         y="198.71498"
         style="font-size:14.6666px;line-height:1.25;font-family:sans-serif;letter-spacing:0px;word-spacing:0px;fill:#000000;stroke-width:0.366666"
         xml:space="preserve"><tspan
           id="tspan8738"
           x="273.60681"
           y="211.69154"
           style="stroke-width:0.366666" /></text>
      <rect
         id="rect8742"
         transform="scale(1,-1)"
         x="323.20001"
         y="-211"
         width="15.354957"
         height="20.126173"
         style="fill:url(#linearGradient8750);stroke-width:0.366666;paint-order:stroke fill markers" />
      <rect
         id="rect8744"
         transform="scale(1,-1)"
         x="325.44504"
         y="-209.12617"
         width="15.354957"
         height="20.126173"
         style="fill:url(#linearGradient8752);stroke-width:0.366666;paint-order:stroke fill markers" />
      <text
         id="text8756"
         x="288.18646"
         y="243.12386"
         style="font-size:9.99998px;line-height:1.25;font-family:sans-serif;letter-spacing:0px;word-spacing:0px;fill:#000000;stroke-width:0.25"
         xml:space="preserve"><tspan
           id="tspan8754"
           x="288.18646"
           y="251.97151"
           style="stroke-width:0.25" /></text>
      <rect
         id="rect8758"
         transform="scale(1,-1)"
         x="322"
         y="-251.5"
         width="10.469289"
         height="13.72239"
         style="fill:url(#linearGradient8766);stroke-width:0.25;paint-order:stroke fill markers" />
      <rect
         id="rect8760"
         transform="scale(1,-1)"
         x="323.5307"
         y="-250.2224"
         width="10.469289"
         height="13.72239"
         style="fill:url(#linearGradient8768);stroke-width:0.25;paint-order:stroke fill markers" />
    </g>
    <g
       inkscape:groupmode="layer"
       id="layer6"
       inkscape:label="Pictogram"
       style="display:inline">
      <path
         id="path19"
         d="m 185.58866,127.88315 7.49432,-12.07192 c 0.48175,-0.76137 0.26843,-1.80245 -0.46801,-2.29816 -0.7293,-0.50273 -1.72722,-0.29419 -2.20228,0.48839 l -7.76933,12.48871 c -5.8287,-2.49192 -12.33882,-3.89222 -19.21393,-3.89222 -6.8818,0 -13.37821,1.4003 -19.22061,3.89222 l -7.75562,-12.48871 c -0.47469,-0.78273 -1.47967,-0.99112 -2.21596,-0.48839 -0.73632,0.49537 -0.94976,1.53679 -0.46805,2.29816 l 7.50106,12.07192 c -13.52273,6.91589 -22.64095,19.95026 -22.64095,34.902 0,0.91918 0.0553,1.82411 0.13066,2.72167 h 89.34539 c 0.0758,-0.89756 0.12395,-1.80249 0.12395,-2.72167 3e-4,-14.95174 -9.1249,-27.98611 -22.64064,-34.902 z m -42.87321,21.61622 c -2.37422,0 -4.30118,-1.99654 -4.30118,-4.48119 0,-2.48461 1.92696,-4.47418 4.30118,-4.47418 2.38795,0 4.30117,1.98924 4.30117,4.47418 0,2.48498 -1.92696,4.48119 -4.30117,4.48119 z m 41.42128,0 c -2.37421,0 -4.30117,-1.99654 -4.30117,-4.48119 0,-2.48461 1.92696,-4.47418 4.30117,-4.47418 2.38092,0 4.29415,1.98924 4.29415,4.47418 0,2.48465 -1.91323,4.48119 -4.29415,4.48119 z"
         style="display:inline;fill:#ffffff;stroke-width:0.345616;enable-background:new" />
      <path
         id="path8714"
         d="m 350.89768,78.226004 1.53901,-2.479055 c 0.0989,-0.156352 0.0551,-0.370146 -0.0961,-0.471943 -0.14977,-0.103239 -0.3547,-0.06041 -0.45226,0.100294 l -1.59548,2.564646 c -1.19697,-0.511734 -2.53387,-0.799295 -3.94572,-0.799295 -1.41323,0 -2.74731,0.287561 -3.94709,0.799295 L 340.80735,75.3753 c -0.0975,-0.160739 -0.30386,-0.203533 -0.45506,-0.100294 -0.15121,0.101728 -0.19504,0.315591 -0.0961,0.471943 l 1.5404,2.479055 c -2.77699,1.420228 -4.64948,4.096929 -4.64948,7.167375 0,0.18876 0.0113,0.374594 0.0268,0.558915 h 18.34772 c 0.0156,-0.184321 0.0255,-0.370155 0.0255,-0.558915 7e-5,-3.070446 -1.87386,-5.747147 -4.64941,-7.167375 z m -8.80433,4.439045 c -0.48756,0 -0.88327,-0.410003 -0.88327,-0.920244 0,-0.510232 0.39571,-0.918805 0.88327,-0.918805 0.49039,0 0.88328,0.408505 0.88328,0.918805 0,0.510308 -0.39572,0.920244 -0.88328,0.920244 z m 8.50616,0 c -0.48756,0 -0.88328,-0.410003 -0.88328,-0.920244 0,-0.510232 0.39572,-0.918805 0.88328,-0.918805 0.48894,0 0.88184,0.408505 0.88184,0.918805 0,0.510241 -0.3929,0.920244 -0.88184,0.920244 z"
         style="display:inline;fill:#ffffff;stroke-width:0.0709747;enable-background:new" />
      <path
         id="path8730"
         d="m 340.49849,144.23435 1.0037,-1.61677 c 0.0645,-0.10197 0.036,-0.2414 -0.0627,-0.30779 -0.0977,-0.0673 -0.23132,-0.0394 -0.29495,0.0654 l -1.04053,1.67259 c -0.78063,-0.33374 -1.65252,-0.52128 -2.5733,-0.52128 -0.92167,0 -1.79172,0.18754 -2.57419,0.52128 l -1.0387,-1.67259 c -0.0636,-0.10483 -0.19817,-0.13274 -0.29678,-0.0654 -0.0986,0.0663 -0.1272,0.20582 -0.0627,0.30779 l 1.0046,1.61677 c -1.81108,0.92624 -3.03227,2.67191 -3.03227,4.67438 0,0.1231 0.007,0.2443 0.0175,0.36451 h 11.96591 c 0.0102,-0.12021 0.0166,-0.24141 0.0166,-0.36451 4e-5,-2.00247 -1.22209,-3.74814 -3.03223,-4.67438 z m -5.74195,2.89503 c -0.31798,0 -0.57605,-0.26739 -0.57605,-0.60016 0,-0.33276 0.25807,-0.59922 0.57605,-0.59922 0.31981,0 0.57605,0.26642 0.57605,0.59922 0,0.33281 -0.25808,0.60016 -0.57605,0.60016 z m 5.54749,0 c -0.31797,0 -0.57605,-0.26739 -0.57605,-0.60016 0,-0.33276 0.25808,-0.59922 0.57605,-0.59922 0.31888,0 0.57511,0.26642 0.57511,0.59922 0,0.33277 -0.25623,0.60016 -0.57511,0.60016 z"
         style="display:inline;fill:#ffffff;stroke-width:0.0462879;enable-background:new" />
      <path
         id="path8746"
         d="m 335.29889,197.23853 0.73605,-1.18564 c 0.0473,-0.0748 0.0264,-0.17702 -0.046,-0.22571 -0.0716,-0.0494 -0.16964,-0.0289 -0.2163,0.048 l -0.76305,1.22657 c -0.57247,-0.24474 -1.21185,-0.38227 -1.88709,-0.38227 -0.67589,0 -1.31393,0.13753 -1.88774,0.38227 l -0.76171,-1.22657 c -0.0466,-0.0769 -0.14533,-0.0973 -0.21764,-0.048 -0.0723,0.0487 -0.0933,0.15094 -0.046,0.22571 l 0.73671,1.18564 c -1.32812,0.67924 -2.22366,1.9594 -2.22366,3.42787 0,0.0903 0.005,0.17916 0.0128,0.26731 h 8.775 c 0.007,-0.0881 0.0122,-0.17703 0.0122,-0.26731 3e-5,-1.46847 -0.89619,-2.74863 -2.22363,-3.42787 z m -4.21077,2.12302 c -0.23318,0 -0.42243,-0.19609 -0.42243,-0.44012 0,-0.24402 0.18925,-0.43943 0.42243,-0.43943 0.23453,0 0.42244,0.19538 0.42244,0.43943 0,0.24406 -0.18926,0.44012 -0.42244,0.44012 z m 4.06817,0 c -0.23319,0 -0.42244,-0.19609 -0.42244,-0.44012 0,-0.24402 0.18925,-0.43943 0.42244,-0.43943 0.23384,0 0.42174,0.19538 0.42174,0.43943 0,0.24403 -0.1879,0.44012 -0.42174,0.44012 z"
         style="display:inline;fill:#ffffff;stroke-width:0.0339444;enable-background:new" />
      <path
         id="path8762"
         d="m 330.24924,242.11718 0.50186,-0.80839 c 0.0323,-0.051 0.018,-0.1207 -0.0313,-0.1539 -0.0488,-0.0337 -0.11567,-0.0197 -0.14748,0.0327 l -0.52026,0.8363 c -0.39032,-0.16687 -0.82627,-0.26064 -1.28665,-0.26064 -0.46084,0 -0.89587,0.0938 -1.2871,0.26064 l -0.51935,-0.8363 c -0.0318,-0.0524 -0.0991,-0.0664 -0.14839,-0.0327 -0.0493,0.0332 -0.0636,0.10291 -0.0313,0.1539 l 0.5023,0.80839 c -0.90554,0.46311 -1.51613,1.33595 -1.51613,2.33718 0,0.0616 0.004,0.12215 0.009,0.18226 h 5.98295 c 0.005,-0.0601 0.008,-0.1207 0.008,-0.18226 2e-5,-1.00123 -0.61104,-1.87407 -1.51612,-2.33718 z m -2.87097,1.44751 c -0.15899,0 -0.28803,-0.1337 -0.28803,-0.30008 0,-0.16638 0.12904,-0.29961 0.28803,-0.29961 0.15991,0 0.28803,0.13321 0.28803,0.29961 0,0.16641 -0.12904,0.30008 -0.28803,0.30008 z m 2.77375,0 c -0.15899,0 -0.28803,-0.1337 -0.28803,-0.30008 0,-0.16638 0.12904,-0.29961 0.28803,-0.29961 0.15943,0 0.28755,0.13321 0.28755,0.29961 0,0.16638 -0.12812,0.30008 -0.28755,0.30008 z"
         style="display:inline;fill:#ffffff;stroke-width:0.0231439;enable-background:new" />
      <text
         xml:space="preserve"
         style="font-style:normal;font-weight:normal;font-size:45.8065px;line-height:1.25;font-family:sans-serif;letter-spacing:0px;word-spacing:0px;display:inline;fill:#ffffff;fill-opacity:1;stroke:none;stroke-width:0.954302;enable-background:new"
         x="118.27144"
         y="216.63312"
         id="text6051"><tspan
           sodipodi:role="line"
           id="tspan6049"
           x="118.27144"
           y="216.63312"
           style="font-size:45.8065px;stroke-width:0.954302">APK</tspan></text>
    </g>
  </g>
</svg>
