<?xml version="1.0" encoding="UTF-8" standalone="no"?>
<svg
   inkscape:export-ydpi="90.000000"
   inkscape:export-xdpi="90.000000"
   width="400"
   height="300"
   id="svg11300"
   sodipodi:version="0.32"
   inkscape:version="1.1.2 (0a00cf5339, 2022-02-04)"
   sodipodi:docname="application-pdf.svg"
   inkscape:output_extension="org.inkscape.output.svg.inkscape"
   version="1.0"
   style="display:inline;enable-background:new"
   inkscape:export-filename="/home/sam/suru-template.png"
   xmlns:inkscape="http://www.inkscape.org/namespaces/inkscape"
   xmlns:sodipodi="http://sodipodi.sourceforge.net/DTD/sodipodi-0.dtd"
   xmlns:xlink="http://www.w3.org/1999/xlink"
   xmlns="http://www.w3.org/2000/svg"
   xmlns:svg="http://www.w3.org/2000/svg"
   xmlns:rdf="http://www.w3.org/1999/02/22-rdf-syntax-ns#"
   xmlns:cc="http://creativecommons.org/ns#"
   xmlns:dc="http://purl.org/dc/elements/1.1/">
  <title
     id="title3004">Suru Icon Theme Template</title>
  <sodipodi:namedview
     stroke="#ef2929"
     fill="#f57900"
     id="base"
     pagecolor="#ffffff"
     bordercolor="#000000"
     borderopacity="0.25490196"
     inkscape:pageopacity="0"
     inkscape:pageshadow="2"
     inkscape:zoom="0.25"
     inkscape:cx="-664"
     inkscape:cy="-300"
     inkscape:current-layer="layer7"
     showgrid="false"
     inkscape:grid-bbox="true"
     inkscape:document-units="px"
     inkscape:showpageshadow="false"
     inkscape:window-width="1920"
     inkscape:window-height="1016"
     inkscape:window-x="0"
     inkscape:window-y="32"
     width="400px"
     height="300px"
     inkscape:snap-nodes="true"
     inkscape:snap-bbox="true"
     gridtolerance="10000"
     inkscape:object-nodes="true"
     inkscape:snap-grids="true"
     showguides="true"
     inkscape:guide-bbox="true"
     inkscape:window-maximized="1"
     inkscape:bbox-paths="true"
     inkscape:snap-bbox-midpoints="true"
     inkscape:snap-global="true"
     inkscape:object-paths="true"
     inkscape:snap-intersection-paths="true"
     inkscape:snap-smooth-nodes="true"
     inkscape:pagecheckerboard="false"
     showborder="false"
     inkscape:document-rotation="0"
     inkscape:deskcolor="#d1d1d1">
    <inkscape:grid
       spacingy="1"
       spacingx="1"
       id="grid5883"
       type="xygrid"
       enabled="true"
       visible="true"
       empspacing="4"
       snapvisiblegridlinesonly="true"
       originx="0"
       originy="0" />
    <inkscape:grid
       type="xygrid"
       id="grid11592"
       empspacing="2"
       visible="true"
       enabled="false"
       spacingx="0.5"
       spacingy="0.5"
       color="#ff0000"
       opacity="0.1254902"
       empcolor="#ff0000"
       empopacity="0.25098039"
       snapvisiblegridlinesonly="true"
       originx="0"
       originy="0" />
  </sodipodi:namedview>
  <defs
     id="defs3">
    <linearGradient
       id="linearGradient1455"
       x1="130.16949"
       x2="130.16949"
       y1="6.7796607"
       y2="47.728813"
       gradientTransform="matrix(0.34001978,0,0,0.34055744,-36.834059,-18.37819)"
       gradientUnits="userSpaceOnUse">
      <stop
         style="stop-color:#a8a8a8"
         offset="0"
         id="stop2" />
      <stop
         style="stop-color:#d0d0d0"
         offset="1"
         id="stop4" />
    </linearGradient>
    <linearGradient
       id="linearGradient1004"
       x1="9.3536682"
       x2="9.3536682"
       y1="-294.99213"
       y2="-280.74127"
       gradientTransform="translate(0,280.06665)"
       gradientUnits="userSpaceOnUse">
      <stop
         style="stop-color:#e63a3a"
         offset="0"
         id="stop7" />
      <stop
         style="stop-color:#fd7070"
         offset="1"
         id="stop9" />
    </linearGradient>
    <linearGradient
       id="e-5-2"
       x1="15.122512"
       x2="28.881227"
       y1="1024.7061"
       y2="1024.7061"
       gradientTransform="matrix(0.42306515,0,0,0.43229677,-0.03153526,-435.186)"
       gradientUnits="userSpaceOnUse">
      <stop
         stop-color="#f6fbff"
         offset="0"
         id="stop12" />
      <stop
         stop-color="#eaeff2"
         offset="1"
         id="stop14" />
    </linearGradient>
    <linearGradient
       inkscape:collect="always"
       xlink:href="#linearGradient1455"
       id="linearGradient880"
       gradientUnits="userSpaceOnUse"
       gradientTransform="matrix(0.98525379,0,0,-0.98681174,212.73495,112.71998)"
       x1="130.16949"
       y1="6.7796607"
       x2="130.16949"
       y2="47.728813" />
    <linearGradient
       inkscape:collect="always"
       xlink:href="#linearGradient1004"
       id="linearGradient882"
       gradientUnits="userSpaceOnUse"
       gradientTransform="matrix(2.8976367,0,0,-2.8976367,319.46667,-752.06474)"
       x1="9.3536682"
       y1="-294.99213"
       x2="9.3536682"
       y2="-280.74127" />
    <linearGradient
       inkscape:collect="always"
       xlink:href="#e-5-2"
       id="linearGradient884"
       gradientUnits="userSpaceOnUse"
       gradientTransform="matrix(1.2258891,0,0,1.252639,319.37529,-1201.5443)"
       x1="15.122512"
       y1="1024.7061"
       x2="28.881227"
       y2="1024.7061" />
    <linearGradient
       inkscape:collect="always"
       xlink:href="#linearGradient1455"
       id="linearGradient894"
       gradientUnits="userSpaceOnUse"
       gradientTransform="matrix(0.64255683,0,0,-0.64357288,250.39236,166.73043)"
       x1="130.16949"
       y1="6.7796607"
       x2="130.16949"
       y2="47.728813" />
    <linearGradient
       inkscape:collect="always"
       xlink:href="#linearGradient1004"
       id="linearGradient896"
       gradientUnits="userSpaceOnUse"
       gradientTransform="matrix(1.8897631,0,0,-1.8897631,320.00001,-397.25962)"
       x1="9.3536682"
       y1="-294.99213"
       x2="9.3536682"
       y2="-280.74127" />
    <linearGradient
       inkscape:collect="always"
       xlink:href="#e-5-2"
       id="linearGradient898"
       gradientUnits="userSpaceOnUse"
       gradientTransform="matrix(0.79949291,0,0,0.81693848,319.94042,-690.39844)"
       x1="15.122512"
       y1="1024.7061"
       x2="28.881227"
       y2="1024.7061" />
    <linearGradient
       inkscape:collect="always"
       xlink:href="#linearGradient1455"
       id="linearGradient908"
       gradientUnits="userSpaceOnUse"
       gradientTransform="matrix(0.47120832,0,0,-0.47195342,269.22107,213.73564)"
       x1="130.16949"
       y1="6.7796607"
       x2="130.16949"
       y2="47.728813" />
    <linearGradient
       inkscape:collect="always"
       xlink:href="#linearGradient1004"
       id="linearGradient910"
       gradientUnits="userSpaceOnUse"
       gradientTransform="matrix(1.3858262,0,0,-1.3858262,320.26667,-199.85704)"
       x1="9.3536682"
       y1="-294.99213"
       x2="9.3536682"
       y2="-280.74127" />
    <linearGradient
       inkscape:collect="always"
       xlink:href="#e-5-2"
       id="linearGradient912"
       gradientUnits="userSpaceOnUse"
       gradientTransform="matrix(0.58629477,0,0,0.59908819,320.22297,-414.8255)"
       x1="15.122512"
       y1="1024.7061"
       x2="28.881227"
       y2="1024.7061" />
    <linearGradient
       inkscape:collect="always"
       xlink:href="#linearGradient1455"
       id="linearGradient922"
       gradientUnits="userSpaceOnUse"
       gradientTransform="matrix(0.32127841,0,0,-0.32178643,285.19618,253.36521)"
       x1="130.16949"
       y1="6.7796607"
       x2="130.16949"
       y2="47.728813" />
    <linearGradient
       inkscape:collect="always"
       xlink:href="#linearGradient1004"
       id="linearGradient924"
       gradientUnits="userSpaceOnUse"
       gradientTransform="matrix(0.94488153,0,0,-0.94488153,320,-28.629805)"
       x1="9.3536682"
       y1="-294.99213"
       x2="9.3536682"
       y2="-280.74127" />
    <linearGradient
       inkscape:collect="always"
       xlink:href="#e-5-2"
       id="linearGradient926"
       gradientUnits="userSpaceOnUse"
       gradientTransform="matrix(0.39974645,0,0,0.40846923,319.9702,-175.19921)"
       x1="15.122512"
       y1="1024.7061"
       x2="28.881227"
       y2="1024.7061" />
    <linearGradient
       inkscape:collect="always"
       xlink:href="#linearGradient1455"
       id="linearGradient948"
       gradientUnits="userSpaceOnUse"
       gradientTransform="matrix(4.7977576,0,0,-4.8053441,-487.20371,295.85381)"
       x1="130.16949"
       y1="6.7796607"
       x2="130.16949"
       y2="47.728813" />
    <linearGradient
       inkscape:collect="always"
       xlink:href="#linearGradient1004"
       id="linearGradient950"
       gradientUnits="userSpaceOnUse"
       gradientTransform="matrix(14.110231,0,0,-14.110231,32.533373,-3915.2718)"
       x1="9.3536682"
       y1="-294.99213"
       x2="9.3536682"
       y2="-280.74127" />
    <linearGradient
       inkscape:collect="always"
       xlink:href="#e-5-2"
       id="linearGradient952"
       gradientUnits="userSpaceOnUse"
       gradientTransform="matrix(5.969547,0,0,6.0998073,32.088403,-6104.0417)"
       x1="15.122512"
       y1="1024.7061"
       x2="28.881227"
       y2="1024.7061" />
  </defs>
  <metadata
     id="metadata4">
    <rdf:RDF>
      <cc:Work
         rdf:about="">
        <dc:format>image/svg+xml</dc:format>
        <dc:type
           rdf:resource="http://purl.org/dc/dcmitype/StillImage" />
        <dc:creator>
          <cc:Agent>
            <dc:title>Sam Hewitt</dc:title>
          </cc:Agent>
        </dc:creator>
        <dc:source />
        <cc:license
           rdf:resource="http://creativecommons.org/licenses/by-sa/4.0/" />
        <dc:title>Suru Icon Theme Template</dc:title>
        <dc:subject>
          <rdf:Bag />
        </dc:subject>
        <dc:date />
        <dc:rights>
          <cc:Agent>
            <dc:title />
          </cc:Agent>
        </dc:rights>
        <dc:publisher>
          <cc:Agent>
            <dc:title />
          </cc:Agent>
        </dc:publisher>
        <dc:identifier />
        <dc:relation />
        <dc:language />
        <dc:coverage />
        <dc:description />
        <dc:contributor>
          <cc:Agent>
            <dc:title />
          </cc:Agent>
        </dc:contributor>
      </cc:Work>
      <cc:Work
         rdf:about="">
        <dc:format>image/svg+xml</dc:format>
        <dc:type
           rdf:resource="http://purl.org/dc/dcmitype/StillImage" />
      </cc:Work>
      <cc:License
         rdf:about="http://creativecommons.org/licenses/by-sa/4.0/">
        <cc:permits
           rdf:resource="http://creativecommons.org/ns#Reproduction" />
        <cc:permits
           rdf:resource="http://creativecommons.org/ns#Distribution" />
        <cc:requires
           rdf:resource="http://creativecommons.org/ns#Notice" />
        <cc:requires
           rdf:resource="http://creativecommons.org/ns#Attribution" />
        <cc:permits
           rdf:resource="http://creativecommons.org/ns#DerivativeWorks" />
        <cc:requires
           rdf:resource="http://creativecommons.org/ns#ShareAlike" />
      </cc:License>
    </rdf:RDF>
  </metadata>
  <g
     style="display:inline"
     inkscape:groupmode="layer"
     inkscape:label="Icon"
     id="layer1">
    <g
       style="display:none"
       inkscape:label="Baseplate"
       id="layer7"
       inkscape:groupmode="layer">
      <text
         y="-8.2548828"
         xml:space="preserve"
         x="19.006836"
         style="font-style:normal;font-variant:normal;font-weight:normal;font-stretch:normal;line-height:0%;font-family:'DejaVu Sans';-inkscape-font-specification:'DejaVu Sans';display:inline;fill:#000000;fill-opacity:1;stroke:none;enable-background:new"
         inkscape:label="context"
         id="context"><tspan
           style="font-style:normal;font-variant:normal;font-weight:normal;font-stretch:normal;font-size:18px;line-height:1.25;font-family:'DejaVu Sans';-inkscape-font-specification:'DejaVu Sans'"
           y="-8.2548828"
           x="19.006836"
           sodipodi:role="line"
           id="tspan3933">context</tspan></text>
      <text
         y="-8.2548828"
         xml:space="preserve"
         x="146.48828"
         style="font-style:normal;font-variant:normal;font-weight:bold;font-stretch:normal;line-height:0%;font-family:'DejaVu Sans';-inkscape-font-specification:'DejaVu Sans Bold';text-align:start;writing-mode:lr-tb;text-anchor:start;display:inline;fill:#000000;fill-opacity:1;stroke:none;enable-background:new"
         inkscape:label="icon-name"
         id="icon-name"><tspan
           style="font-style:normal;font-variant:normal;font-weight:bold;font-stretch:normal;font-size:18px;line-height:1.25;font-family:'DejaVu Sans';-inkscape-font-specification:'DejaVu Sans Bold'"
           y="-8.2548828"
           x="146.48828"
           sodipodi:role="line"
           id="tspan924">application-pdf</tspan></text>
      <rect
         style="display:inline;overflow:visible;visibility:visible;fill:#cdcdcd;fill-opacity:1;fill-rule:nonzero;stroke:none;stroke-width:2;marker:none;enable-background:accumulate"
         id="rect16x16"
         width="16"
         height="16"
         x="320"
         y="236"
         inkscape:label="16x16" />
      <rect
         style="display:inline;overflow:visible;visibility:visible;fill:#cdcdcd;fill-opacity:1;fill-rule:nonzero;stroke:none;stroke-width:2;marker:none;enable-background:accumulate"
         id="rect24x24"
         width="24"
         height="24"
         x="320"
         y="188"
         inkscape:label="24x24" />
      <rect
         style="display:inline;overflow:visible;visibility:visible;fill:#cdcdcd;fill-opacity:1;fill-rule:nonzero;stroke:none;stroke-width:2;marker:none;enable-background:accumulate"
         id="rect32x32"
         width="32"
         height="32"
         x="320"
         y="132"
         inkscape:label="32x32" />
      <rect
         inkscape:label="48x48"
         y="60"
         x="320"
         height="48"
         width="48"
         id="rect48x48"
         style="display:inline;overflow:visible;visibility:visible;fill:#cdcdcd;fill-opacity:1;fill-rule:nonzero;stroke:none;stroke-width:2;marker:none;enable-background:accumulate" />
      <rect
         style="display:inline;overflow:visible;visibility:visible;fill:#cdcdcd;fill-opacity:1;fill-rule:nonzero;stroke:none;stroke-width:2;marker:none;enable-background:accumulate"
         id="rect256x256"
         width="256"
         height="256"
         x="24"
         y="28"
         inkscape:label="256x256" />
    </g>
    <g
       inkscape:groupmode="layer"
       id="layer2"
       inkscape:label="Background"
       style="display:inline">
      <path
         d="m 322,251.5 h 10.46928 V 237.77762 H 322 Z"
         style="fill:url(#linearGradient922);stroke-width:0.944882;paint-order:stroke fill markers"
         id="path914" />
      <path
         d="m 323.53071,250.22239 h 10.46928 V 236.5 h -10.46928 z"
         style="fill:url(#linearGradient924);stroke-width:0.944882;paint-order:stroke fill markers"
         id="path916" />
      <path
         d="m 323.2,211 h 15.35495 V 190.87383 H 323.2 Z"
         style="fill:url(#linearGradient908);stroke-width:1.38583;paint-order:stroke fill markers"
         id="path900" />
      <path
         d="M 325.44505,209.12616 H 340.8 V 189 h -15.35495 z"
         style="fill:url(#linearGradient910);stroke-width:1.38583;paint-order:stroke fill markers"
         id="path902" />
      <path
         d="m 324.00001,163 h 20.93857 v -27.44477 h -20.93857 z"
         style="fill:url(#linearGradient894);stroke-width:1.88976;paint-order:stroke fill markers"
         id="path886" />
      <path
         d="M 327.06143,160.44477 H 348 V 133 h -20.93857 z"
         style="fill:url(#linearGradient896);stroke-width:1.88976;paint-order:stroke fill markers"
         id="path888" />
      <path
         d="m 325.6,107 h 32.10581 V 64.918016 H 325.6 Z"
         style="fill:url(#linearGradient880);stroke-width:2.89764;paint-order:stroke fill markers"
         id="path872" />
      <path
         d="m 330.29418,103.08198 h 32.10581 V 61 h -32.10581 z"
         style="fill:url(#linearGradient882);stroke-width:2.89764;paint-order:stroke fill markers"
         id="path874" />
      <path
         d="M 62.400033,268 H 218.74134 V 63.079035 H 62.400033 Z"
         style="fill:url(#linearGradient948);stroke-width:14.1102;paint-order:stroke fill markers"
         id="path19" />
      <path
         d="M 85.258657,248.92095 H 241.59997 V 43.999999 H 85.258657 Z"
         style="fill:url(#linearGradient950);stroke-width:14.1102;paint-order:stroke fill markers"
         id="path21" />
    </g>
    <g
       inkscape:groupmode="layer"
       id="layer6"
       inkscape:label="Pictogram"
       style="display:inline">
      <path
         d="m 331.42636,244.00062 c -0.10995,-0.11063 -0.35377,-0.16927 -0.7248,-0.17425 -0.25116,-0.005 -0.55345,0.0197 -0.87141,0.0653 -0.14237,-0.084 -0.28909,-0.17528 -0.4043,-0.28528 -0.30985,-0.29564 -0.56849,-0.70603 -0.72966,-1.15731 0.0105,-0.0421 0.0194,-0.0792 0.0278,-0.11698 0,0 0.17453,-1.01301 0.12833,-1.35547 -0.006,-0.047 -0.0103,-0.0607 -0.0226,-0.0971 l -0.0152,-0.0396 c -0.0475,-0.1119 -0.14055,-0.23043 -0.28649,-0.22397 l -0.0856,-0.005 -0.002,-5e-5 c -0.16273,0 -0.29536,0.085 -0.33018,0.21217 -0.10582,0.39866 0.003,0.99511 0.20126,1.76761 l -0.0507,0.12585 c -0.1417,0.35292 -0.31926,0.7084 -0.47593,1.02199 l -0.0204,0.0409 c -0.16482,0.32959 -0.31437,0.60939 -0.44994,0.84638 l -0.13998,0.0757 c -0.0102,0.006 -0.25009,0.13512 -0.30636,0.16992 -0.47735,0.29124 -0.79367,0.62186 -0.84615,0.88421 -0.0167,0.0837 -0.004,0.19084 0.0807,0.24048 l 0.13539,0.0696 c 0.0587,0.0302 0.12065,0.0453 0.1841,0.0453 0.33999,0 0.7347,-0.43276 1.27843,-1.40239 0.62778,-0.20885 1.34254,-0.38241 1.96896,-0.47816 0.47739,0.27466 1.06452,0.46542 1.4351,0.46542 0.0658,0 0.12252,-0.007 0.16861,-0.0188 0.0711,-0.0192 0.13097,-0.0607 0.16749,-0.11682 0.0719,-0.11063 0.0865,-0.26285 0.067,-0.4188 -0.006,-0.0462 -0.042,-0.10348 -0.0811,-0.14251 z m -5.07813,1.84857 c 0.062,-0.17323 0.30741,-0.51565 0.67027,-0.81951 0.0228,-0.0188 0.079,-0.0728 0.13047,-0.12267 -0.37946,0.61843 -0.63357,0.8649 -0.80074,0.94218 z m 2.1492,-5.05721 c 0.1093,0 0.17146,0.28151 0.17662,0.54537 0.005,0.26393 -0.0552,0.44911 -0.13017,0.58616 -0.062,-0.20289 -0.092,-0.52267 -0.092,-0.7318 0,0 -0.005,-0.39973 0.0456,-0.39973 z m -0.64111,3.60387 c 0.0761,-0.13924 0.15533,-0.28609 0.23627,-0.44184 0.1973,-0.38126 0.32191,-0.67957 0.41471,-0.92482 0.18457,0.34316 0.41443,0.63485 0.68464,0.86858 0.0337,0.029 0.0694,0.0584 0.10692,0.0877 -0.54949,0.11109 -1.02441,0.24623 -1.44255,0.41042 z m 3.46446,-0.0314 c -0.0335,0.0213 -0.12934,0.0339 -0.19101,0.0339 -0.19901,0 -0.44525,-0.093 -0.79045,-0.24419 0.13263,-0.0104 0.25425,-0.0151 0.36331,-0.0151 0.19962,0 0.25875,0 0.45395,0.05 0.19519,0.0509 0.19765,0.15422 0.1642,0.17559 z"
         style="display:inline;fill:url(#linearGradient926);stroke-width:0.439818;enable-background:new"
         id="path918" />
      <path
         d="m 337.02532,200.00091 c -0.16124,-0.16227 -0.51885,-0.24827 -1.06303,-0.25558 -0.36836,-0.007 -0.81172,0.0288 -1.27806,0.0958 -0.20882,-0.1232 -0.42401,-0.25707 -0.59297,-0.4184 -0.45446,-0.43362 -0.8338,-1.03552 -1.07018,-1.69739 0.0154,-0.0618 0.0285,-0.11613 0.0407,-0.17158 0,0 0.25598,-1.48575 0.18821,-1.98802 -0.009,-0.0689 -0.0151,-0.089 -0.0332,-0.14245 l -0.0222,-0.0581 c -0.0696,-0.16412 -0.20614,-0.33796 -0.42018,-0.3285 l -0.12552,-0.007 -0.003,-7e-5 c -0.23867,0 -0.4332,0.12472 -0.48426,0.31117 -0.15521,0.58471 0.005,1.4595 0.29518,2.59249 l -0.0743,0.18458 c -0.20782,0.51762 -0.46825,1.039 -0.69803,1.49892 l -0.0299,0.06 c -0.24173,0.48339 -0.46108,0.89377 -0.65991,1.24135 l -0.2053,0.11101 c -0.015,0.008 -0.3668,0.19817 -0.44933,0.24921 -0.70011,0.42715 -1.16405,0.91206 -1.24102,1.29684 -0.0245,0.12279 -0.006,0.2799 0.1183,0.3527 l 0.19857,0.10213 c 0.0861,0.0444 0.17696,0.0664 0.27002,0.0664 0.49864,0 1.07755,-0.63472 1.87503,-2.05684 0.92075,-0.30631 1.96905,-0.56087 2.88781,-0.7013 0.70016,0.40283 1.56129,0.68262 2.10481,0.68262 0.0965,0 0.17969,-0.01 0.24729,-0.0276 0.10424,-0.0281 0.1921,-0.089 0.24566,-0.17133 0.10543,-0.16227 0.12683,-0.38552 0.0982,-0.61425 -0.008,-0.0678 -0.0616,-0.15176 -0.11899,-0.20901 z m -7.44791,2.71123 c 0.0909,-0.25407 0.45087,-0.75629 0.98306,-1.20194 0.0335,-0.0276 0.11588,-0.10671 0.19135,-0.17992 -0.55653,0.90702 -0.92923,1.26851 -1.17441,1.38186 z m 3.15216,-7.41725 c 0.1603,0 0.25147,0.41289 0.25905,0.79989 0.008,0.38709 -0.081,0.65869 -0.19092,0.85969 -0.091,-0.29756 -0.135,-0.76658 -0.135,-1.0733 0,0 -0.007,-0.58628 0.0669,-0.58628 z m -0.9403,5.28568 c 0.11165,-0.20421 0.22783,-0.4196 0.34654,-0.64803 0.28937,-0.55918 0.47212,-0.9967 0.60824,-1.3564 0.2707,0.5033 0.60782,0.93111 1.00414,1.27392 0.0494,0.0425 0.10181,0.0856 0.15681,0.12861 -0.80592,0.16293 -1.50247,0.36113 -2.11574,0.60194 z m 5.08121,-0.046 c -0.0491,0.0312 -0.1897,0.0497 -0.28014,0.0497 -0.2919,0 -0.65305,-0.13636 -1.15934,-0.35814 0.19453,-0.0152 0.37291,-0.0222 0.53286,-0.0222 0.29277,0 0.3795,0 0.66579,0.0733 0.28629,0.0747 0.28989,0.2262 0.24083,0.25753 z"
         style="display:inline;fill:url(#linearGradient912);stroke-width:0.645066;enable-background:new"
         id="path904" />
      <path
         d="m 342.85272,148.00125 c -0.21988,-0.22127 -0.70753,-0.33855 -1.44959,-0.34851 -0.50231,-0.009 -1.1069,0.0393 -1.74281,0.13058 -0.28475,-0.168 -0.5782,-0.35055 -0.8086,-0.57056 -0.61971,-0.59128 -1.137,-1.41207 -1.45933,-2.31462 0.021,-0.0843 0.0389,-0.15836 0.0555,-0.23397 0,0 0.34906,-2.02601 0.25666,-2.71094 -0.0127,-0.0939 -0.0205,-0.12132 -0.0453,-0.19425 l -0.0303,-0.0792 c -0.0949,-0.2238 -0.2811,-0.46086 -0.57296,-0.44795 l -0.17116,-0.009 -0.005,-9e-5 c -0.32546,0 -0.59072,0.17008 -0.66035,0.42433 -0.21166,0.79732 0.007,1.99022 0.40251,3.53521 l -0.10131,0.2517 c -0.28339,0.70585 -0.63851,1.41681 -0.95185,2.04399 l -0.0407,0.0818 c -0.32964,0.65917 -0.62874,1.21879 -0.89989,1.69276 l -0.27995,0.15137 c -0.0204,0.0113 -0.50018,0.27024 -0.61272,0.33984 -0.9547,0.58248 -1.58734,1.24371 -1.6923,1.76842 -0.0334,0.16743 -0.009,0.38167 0.16132,0.48094 l 0.27077,0.13928 c 0.11746,0.0605 0.24132,0.0905 0.36821,0.0905 0.67997,0 1.46939,-0.86553 2.55686,-2.80479 1.25557,-0.41769 2.68508,-0.76482 3.93793,-0.95631 0.95476,0.54931 2.12903,0.93084 2.87019,0.93084 0.1316,0 0.24503,-0.0132 0.33722,-0.0376 0.14214,-0.0384 0.26195,-0.12132 0.33499,-0.23363 0.14377,-0.22127 0.17295,-0.52571 0.13391,-0.83762 -0.0115,-0.0924 -0.084,-0.20695 -0.16226,-0.28501 z m -10.15625,3.69713 c 0.12399,-0.34645 0.61482,-1.0313 1.34055,-1.63901 0.0456,-0.0376 0.15801,-0.14551 0.26093,-0.24535 -0.75892,1.23685 -1.26714,1.7298 -1.60148,1.88436 z m 4.29841,-10.11443 c 0.21858,0 0.34291,0.56304 0.35324,1.09075 0.0103,0.52785 -0.1105,0.89823 -0.26035,1.17232 -0.12411,-0.40577 -0.18409,-1.04534 -0.18409,-1.4636 0,0 -0.009,-0.79947 0.0912,-0.79947 z m -1.28224,7.20775 c 0.15226,-0.27848 0.31068,-0.57218 0.47256,-0.88367 0.3946,-0.76252 0.64381,-1.35914 0.82941,-1.84965 0.36914,0.68633 0.82886,1.2697 1.36929,1.73717 0.0674,0.058 0.13884,0.11678 0.21383,0.17537 -1.09897,0.22218 -2.04882,0.49245 -2.8851,0.82083 z m 6.92892,-0.0627 c -0.0669,0.0425 -0.25867,0.0678 -0.382,0.0678 -0.39804,0 -0.89052,-0.18595 -1.58092,-0.48837 0.26527,-0.0208 0.50851,-0.0302 0.72663,-0.0302 0.39924,0 0.5175,0 0.90789,0.1 0.3904,0.10186 0.39532,0.30845 0.3284,0.35118 z"
         style="display:inline;fill:url(#linearGradient898);stroke-width:0.879636;enable-background:new"
         id="path890" />
      <path
         d="m 354.5075,84.001906 c -0.33716,-0.339284 -1.08488,-0.519111 -2.22271,-0.534382 -0.77021,-0.01449 -1.69724,0.06027 -2.67232,0.200227 -0.43661,-0.2576 -0.88656,-0.537512 -1.23985,-0.874855 -0.95022,-0.906641 -1.74339,-2.165172 -2.23764,-3.549083 0.0322,-0.129235 0.0596,-0.242822 0.0851,-0.358757 0,0 0.53523,-3.106556 0.39354,-4.156775 -0.0194,-0.144013 -0.0315,-0.186029 -0.0694,-0.297848 l -0.0465,-0.121411 c -0.14556,-0.343167 -0.43102,-0.706647 -0.87855,-0.686856 l -0.26244,-0.01449 -0.007,-1.45e-4 c -0.49904,0 -0.90577,0.260787 -1.01254,0.650635 -0.32454,1.222571 0.0103,3.051675 0.61719,5.420667 l -0.15534,0.385936 c -0.43453,1.082297 -0.97906,2.172445 -1.45951,3.134113 l -0.0625,0.125468 c -0.50545,1.010724 -0.96407,1.868802 -1.37982,2.595558 l -0.42927,0.232101 c -0.0313,0.01739 -0.76694,0.414362 -0.9395,0.521082 -1.46388,0.893138 -2.43393,1.907021 -2.59486,2.711579 -0.0512,0.256731 -0.0131,0.585236 0.24736,0.737449 l 0.41518,0.213555 c 0.1801,0.09272 0.37002,0.138797 0.56459,0.138797 1.04262,0 2.25306,-1.327146 3.92052,-4.300672 1.9252,-0.640465 4.11712,-1.172732 6.03815,-1.466349 1.46397,0.842285 3.26451,1.427289 4.40096,1.427289 0.20179,0 0.37572,-0.02028 0.51707,-0.05766 0.21796,-0.05882 0.40166,-0.186029 0.51365,-0.358235 0.22045,-0.339284 0.26519,-0.806094 0.20533,-1.284349 -0.0177,-0.141694 -0.12877,-0.31732 -0.24879,-0.437021 z m -15.57292,5.668937 c 0.19011,-0.531224 0.94272,-1.581328 2.0555,-2.51315 0.07,-0.05766 0.24229,-0.223118 0.40009,-0.3762 -1.16367,1.896503 -1.94294,2.652352 -2.45559,2.88935 z m 6.59089,-15.508789 c 0.33516,0 0.52579,0.863321 0.54163,1.672486 0.0158,0.809368 -0.16943,1.377276 -0.39919,1.797549 -0.1903,-0.62218 -0.28228,-1.602856 -0.28228,-2.24419 0,0 -0.014,-1.225845 0.13984,-1.225845 z m -1.9661,11.051876 c 0.23347,-0.426996 0.47637,-0.877347 0.72459,-1.354964 0.60505,-1.169197 0.98717,-2.08401 1.27177,-2.83612 0.56601,1.052364 1.27091,1.946864 2.09957,2.663652 0.10339,0.08896 0.21289,0.179074 0.32787,0.268901 -1.68509,0.340675 -3.14152,0.755095 -4.42381,1.258618 z m 10.62435,-0.0962 c -0.10264,0.0652 -0.39663,0.104025 -0.58575,0.104025 -0.61032,0 -1.36545,-0.285127 -2.42406,-0.748836 0.40674,-0.03187 0.77971,-0.04636 1.11415,-0.04636 0.61217,0 0.79351,0 1.39211,0.153285 0.5986,0.156182 0.60615,0.472952 0.50355,0.538468 z"
         style="display:inline;fill:url(#linearGradient884);stroke-width:1.34877;enable-background:new"
         id="path876" />
      <path
         d="m 203.16696,156.00928 c -1.64181,-1.65216 -5.28289,-2.52784 -10.82361,-2.6022 -3.7506,-0.0706 -8.26484,0.29349 -13.01303,0.97501 -2.12613,-1.2544 -4.31717,-2.61745 -6.03752,-4.26016 -4.62717,-4.41495 -8.48958,-10.54345 -10.89636,-17.28249 0.15676,-0.62932 0.2903,-1.18244 0.41459,-1.74699 0,0 2.60634,-15.12758 1.91641,-20.24169 -0.0945,-0.70128 -0.15338,-0.90588 -0.33794,-1.45039 l -0.22633,-0.59122 c -0.70883,-1.67107 -2.09885,-3.44106 -4.27813,-3.34469 l -1.278,-0.0705 -0.0356,-7.1e-4 c -2.43012,0 -4.41075,1.26993 -4.93067,3.16832 -1.58036,5.95338 0.0504,14.86033 3.00547,26.39629 l -0.75645,1.87934 c -2.11599,5.27031 -4.7676,10.57886 -7.10717,15.26177 l -0.30422,0.61097 c -2.46129,4.92179 -4.69461,9.10025 -6.71912,12.63924 l -2.09035,1.13023 c -0.15227,0.0847 -3.73467,2.01776 -4.57497,2.53744 -7.12842,4.3492 -11.85215,9.28637 -12.63584,13.20421 -0.24946,1.25017 -0.0638,2.84985 1.20454,3.59106 l 2.02175,1.03992 c 0.87702,0.45153 1.80185,0.67588 2.74932,0.67588 5.07712,0 10.97143,-6.46263 19.09121,-20.9424 9.37491,-3.11879 20.04857,-5.7107 29.40317,-7.14049 7.12891,4.10157 15.89677,6.95028 21.43077,6.95028 0.98264,0 1.82958,-0.0988 2.51789,-0.28079 1.06137,-0.28644 1.9559,-0.90588 2.50128,-1.74445 1.07351,-1.65217 1.29137,-3.92533 0.99985,-6.25422 -0.0861,-0.68999 -0.62706,-1.54521 -1.2115,-2.1281 z m -75.83334,27.60526 c 0.92575,-2.58683 4.59066,-7.70038 10.00939,-12.23794 0.34071,-0.2808 1.17985,-1.08649 1.9483,-1.83194 -5.66657,9.23515 -9.46129,12.9158 -11.95769,14.06988 z m 32.09476,-75.52106 c 1.6321,0 2.56039,4.204 2.63753,8.14428 0.0769,3.94127 -0.82504,6.70674 -1.94391,8.75329 -0.92667,-3.02975 -1.37455,-7.80522 -1.37455,-10.92824 0,0 -0.0681,-5.96933 0.68093,-5.96933 z m -9.57402,53.81783 c 1.13688,-2.07928 2.31972,-4.27229 3.52842,-6.59808 2.94634,-5.69348 4.8071,-10.14822 6.19296,-13.81067 2.75626,5.12455 6.18881,9.48038 10.224,12.97083 0.50345,0.43318 1.03668,0.87201 1.59661,1.30943 -8.20568,1.65893 -15.29784,3.67698 -21.54207,6.12891 z m 51.73595,-0.46846 c -0.49979,0.31748 -1.93141,0.50656 -2.85233,0.50656 -2.97199,0 -6.64916,-1.38845 -11.80414,-3.64651 1.98066,-0.15521 3.79685,-0.22576 5.42546,-0.22576 2.98098,0 3.86404,0 6.77895,0.74643 2.91493,0.76054 2.95167,2.30307 2.45206,2.6221 z"
         style="display:inline;fill:url(#linearGradient952);stroke-width:6.56795;enable-background:new"
         id="path23" />
    </g>
  </g>
</svg>
