<?xml version="1.0" encoding="UTF-8" standalone="no"?>
<svg
   inkscape:export-ydpi="90.000000"
   inkscape:export-xdpi="90.000000"
   width="400"
   height="300"
   id="svg11300"
   sodipodi:version="0.32"
   inkscape:version="1.1.2 (0a00cf5339, 2022-02-04)"
   sodipodi:docname="text-markdown.svg"
   inkscape:output_extension="org.inkscape.output.svg.inkscape"
   version="1.0"
   style="display:inline;enable-background:new"
   inkscape:export-filename="/home/sam/suru-template.png"
   xmlns:inkscape="http://www.inkscape.org/namespaces/inkscape"
   xmlns:sodipodi="http://sodipodi.sourceforge.net/DTD/sodipodi-0.dtd"
   xmlns:xlink="http://www.w3.org/1999/xlink"
   xmlns="http://www.w3.org/2000/svg"
   xmlns:svg="http://www.w3.org/2000/svg"
   xmlns:rdf="http://www.w3.org/1999/02/22-rdf-syntax-ns#"
   xmlns:cc="http://creativecommons.org/ns#"
   xmlns:dc="http://purl.org/dc/elements/1.1/">
  <title
     id="title3004">Suru Icon Theme Template</title>
  <sodipodi:namedview
     stroke="#ef2929"
     fill="#f57900"
     id="base"
     pagecolor="#ffffff"
     bordercolor="#000000"
     borderopacity="0.25490196"
     inkscape:pageopacity="0"
     inkscape:pageshadow="2"
     inkscape:zoom="2.8284271"
     inkscape:cx="218.496"
     inkscape:cy="125.1579"
     inkscape:current-layer="layer6"
     showgrid="false"
     inkscape:grid-bbox="true"
     inkscape:document-units="px"
     inkscape:showpageshadow="false"
     inkscape:window-width="1920"
     inkscape:window-height="1016"
     inkscape:window-x="0"
     inkscape:window-y="32"
     width="400px"
     height="300px"
     inkscape:snap-nodes="false"
     inkscape:snap-bbox="true"
     gridtolerance="10000"
     inkscape:object-nodes="true"
     inkscape:snap-grids="true"
     showguides="true"
     inkscape:guide-bbox="true"
     inkscape:window-maximized="1"
     inkscape:bbox-paths="true"
     inkscape:snap-bbox-midpoints="true"
     inkscape:snap-global="true"
     inkscape:object-paths="true"
     inkscape:snap-intersection-paths="true"
     inkscape:snap-smooth-nodes="true"
     inkscape:pagecheckerboard="false"
     showborder="false"
     inkscape:document-rotation="0"
     inkscape:deskcolor="#d1d1d1"
     inkscape:snap-others="false">
    <inkscape:grid
       spacingy="1"
       spacingx="1"
       id="grid5883"
       type="xygrid"
       enabled="true"
       visible="true"
       empspacing="4"
       snapvisiblegridlinesonly="true"
       originx="0"
       originy="0" />
    <inkscape:grid
       type="xygrid"
       id="grid11592"
       empspacing="2"
       visible="true"
       enabled="false"
       spacingx="0.5"
       spacingy="0.5"
       color="#ff0000"
       opacity="0.1254902"
       empcolor="#ff0000"
       empopacity="0.25098039"
       snapvisiblegridlinesonly="true"
       originx="0"
       originy="0" />
  </sodipodi:namedview>
  <defs
     id="defs3">
    <linearGradient
       id="linearGradient1455"
       x1="130.16949"
       x2="130.16949"
       y1="6.7796607"
       y2="47.728813"
       gradientTransform="matrix(0.34001978,0,0,0.34055744,-36.83406,-18.37819)"
       gradientUnits="userSpaceOnUse">
      <stop
         id="stop1493"
         style="stop-color:#a8a8a8"
         offset="0" />
      <stop
         id="stop1495"
         style="stop-color:#d0d0d0"
         offset="1" />
    </linearGradient>
    <linearGradient
       id="linearGradient1468"
       x1="130.16949"
       x2="130.16949"
       y1="6.7796607"
       y2="47.728813"
       gradientTransform="matrix(0.34001978,0,0,0.34055744,-35.214053,-17.02606)"
       gradientUnits="userSpaceOnUse">
      <stop
         id="stop1449"
         style="stop-color:#758b9a;stop-opacity:1"
         offset="0" />
      <stop
         id="stop1451"
         style="stop-color:#b5bdc2;stop-opacity:1"
         offset="1" />
    </linearGradient>
    <linearGradient
       inkscape:collect="always"
       xlink:href="#linearGradient1455"
       id="linearGradient10080"
       gradientUnits="userSpaceOnUse"
       gradientTransform="matrix(0.98525383,0,0,0.98681177,212.73494,-112.71998)"
       x1="130.16949"
       y1="6.7796607"
       x2="130.16949"
       y2="47.728813" />
    <linearGradient
       inkscape:collect="always"
       xlink:href="#linearGradient1468"
       id="linearGradient10082"
       gradientUnits="userSpaceOnUse"
       gradientTransform="matrix(0.98525383,0,0,0.98681177,217.42913,-108.802)"
       x1="130.16949"
       y1="6.7796607"
       x2="130.16949"
       y2="47.728813" />
    <linearGradient
       inkscape:collect="always"
       xlink:href="#linearGradient1455"
       id="linearGradient10094"
       gradientUnits="userSpaceOnUse"
       gradientTransform="matrix(0.64255683,0,0,0.64357288,250.39236,-166.73043)"
       x1="130.16949"
       y1="6.7796607"
       x2="130.16949"
       y2="47.728813" />
    <linearGradient
       inkscape:collect="always"
       xlink:href="#linearGradient1468"
       id="linearGradient10096"
       gradientUnits="userSpaceOnUse"
       gradientTransform="matrix(0.64255683,0,0,0.64357288,253.45379,-164.17522)"
       x1="130.16949"
       y1="6.7796607"
       x2="130.16949"
       y2="47.728813" />
    <linearGradient
       inkscape:collect="always"
       xlink:href="#linearGradient1455"
       id="linearGradient10108"
       gradientUnits="userSpaceOnUse"
       gradientTransform="matrix(0.49262691,0,0,0.49340589,266.36748,-214.35999)"
       x1="130.16949"
       y1="6.7796607"
       x2="130.16949"
       y2="47.728813" />
    <linearGradient
       inkscape:collect="always"
       xlink:href="#linearGradient1468"
       id="linearGradient10110"
       gradientUnits="userSpaceOnUse"
       gradientTransform="matrix(0.49262691,0,0,0.49340589,268.71457,-212.401)"
       x1="130.16949"
       y1="6.7796607"
       x2="130.16949"
       y2="47.728813" />
    <linearGradient
       inkscape:collect="always"
       xlink:href="#linearGradient1455"
       id="linearGradient10122"
       gradientUnits="userSpaceOnUse"
       gradientTransform="matrix(0.32127842,0,0,0.32178644,285.19618,-253.36521)"
       x1="130.16949"
       y1="6.7796607"
       x2="130.16949"
       y2="47.728813" />
    <linearGradient
       inkscape:collect="always"
       xlink:href="#linearGradient1468"
       id="linearGradient10124"
       gradientUnits="userSpaceOnUse"
       gradientTransform="matrix(0.32127842,0,0,0.32178644,286.72689,-252.08761)"
       x1="130.16949"
       y1="6.7796607"
       x2="130.16949"
       y2="47.728813" />
    <linearGradient
       inkscape:collect="always"
       xlink:href="#linearGradient1455"
       id="linearGradient10126"
       gradientUnits="userSpaceOnUse"
       gradientTransform="matrix(4.7977576,0,0,4.8053441,-487.20372,-295.85381)"
       x1="130.16949"
       y1="6.7796607"
       x2="130.16949"
       y2="47.728813" />
    <linearGradient
       inkscape:collect="always"
       xlink:href="#linearGradient1468"
       id="linearGradient10128"
       gradientUnits="userSpaceOnUse"
       gradientTransform="matrix(4.7977576,0,0,4.8053441,-464.34505,-276.77494)"
       x1="130.16949"
       y1="6.7796607"
       x2="130.16949"
       y2="47.728813" />
  </defs>
  <metadata
     id="metadata4">
    <rdf:RDF>
      <cc:Work
         rdf:about="">
        <dc:format>image/svg+xml</dc:format>
        <dc:type
           rdf:resource="http://purl.org/dc/dcmitype/StillImage" />
        <dc:creator>
          <cc:Agent>
            <dc:title>Sam Hewitt</dc:title>
          </cc:Agent>
        </dc:creator>
        <dc:source />
        <cc:license
           rdf:resource="http://creativecommons.org/licenses/by-sa/4.0/" />
        <dc:title>Suru Icon Theme Template</dc:title>
        <dc:subject>
          <rdf:Bag />
        </dc:subject>
        <dc:date />
        <dc:rights>
          <cc:Agent>
            <dc:title />
          </cc:Agent>
        </dc:rights>
        <dc:publisher>
          <cc:Agent>
            <dc:title />
          </cc:Agent>
        </dc:publisher>
        <dc:identifier />
        <dc:relation />
        <dc:language />
        <dc:coverage />
        <dc:description />
        <dc:contributor>
          <cc:Agent>
            <dc:title />
          </cc:Agent>
        </dc:contributor>
      </cc:Work>
      <cc:Work
         rdf:about="">
        <dc:format>image/svg+xml</dc:format>
        <dc:type
           rdf:resource="http://purl.org/dc/dcmitype/StillImage" />
      </cc:Work>
      <cc:License
         rdf:about="http://creativecommons.org/licenses/by-sa/4.0/">
        <cc:permits
           rdf:resource="http://creativecommons.org/ns#Reproduction" />
        <cc:permits
           rdf:resource="http://creativecommons.org/ns#Distribution" />
        <cc:requires
           rdf:resource="http://creativecommons.org/ns#Notice" />
        <cc:requires
           rdf:resource="http://creativecommons.org/ns#Attribution" />
        <cc:permits
           rdf:resource="http://creativecommons.org/ns#DerivativeWorks" />
        <cc:requires
           rdf:resource="http://creativecommons.org/ns#ShareAlike" />
      </cc:License>
    </rdf:RDF>
  </metadata>
  <g
     style="display:inline"
     inkscape:groupmode="layer"
     inkscape:label="Icon"
     id="layer1">
    <g
       style="display:none"
       inkscape:label="Baseplate"
       id="layer7"
       inkscape:groupmode="layer">
      <text
         y="-8.2548828"
         xml:space="preserve"
         x="19.006836"
         style="font-style:normal;font-variant:normal;font-weight:normal;font-stretch:normal;line-height:0%;font-family:'DejaVu Sans';-inkscape-font-specification:'DejaVu Sans';display:inline;fill:#000000;fill-opacity:1;stroke:none;enable-background:new"
         inkscape:label="context"
         id="context"><tspan
           style="font-style:normal;font-variant:normal;font-weight:normal;font-stretch:normal;font-size:18px;line-height:1.25;font-family:'DejaVu Sans';-inkscape-font-specification:'DejaVu Sans'"
           y="-8.2548828"
           x="19.006836"
           sodipodi:role="line"
           id="tspan1445">mimetypes</tspan></text>
      <text
         y="-8.2548828"
         xml:space="preserve"
         x="146.48828"
         style="font-style:normal;font-variant:normal;font-weight:bold;font-stretch:normal;line-height:0%;font-family:'DejaVu Sans';-inkscape-font-specification:'DejaVu Sans Bold';text-align:start;writing-mode:lr-tb;text-anchor:start;display:inline;fill:#000000;fill-opacity:1;stroke:none;enable-background:new"
         inkscape:label="icon-name"
         id="icon-name"><tspan
           style="font-style:normal;font-variant:normal;font-weight:bold;font-stretch:normal;font-size:18px;line-height:1.25;font-family:'DejaVu Sans';-inkscape-font-specification:'DejaVu Sans Bold'"
           y="-8.2548828"
           x="146.48828"
           sodipodi:role="line"
           id="tspan924">text-markdown</tspan></text>
      <rect
         style="display:inline;overflow:visible;visibility:visible;fill:#cdcdcd;fill-opacity:1;fill-rule:nonzero;stroke:none;stroke-width:2;marker:none;enable-background:accumulate"
         id="rect16x16"
         width="16"
         height="16"
         x="320"
         y="236"
         inkscape:label="16x16" />
      <rect
         style="display:inline;overflow:visible;visibility:visible;fill:#cdcdcd;fill-opacity:1;fill-rule:nonzero;stroke:none;stroke-width:2;marker:none;enable-background:accumulate"
         id="rect24x24"
         width="24"
         height="24"
         x="320"
         y="188"
         inkscape:label="24x24" />
      <rect
         style="display:inline;overflow:visible;visibility:visible;fill:#cdcdcd;fill-opacity:1;fill-rule:nonzero;stroke:none;stroke-width:2;marker:none;enable-background:accumulate"
         id="rect32x32"
         width="32"
         height="32"
         x="320"
         y="132"
         inkscape:label="32x32" />
      <rect
         inkscape:label="48x48"
         y="60"
         x="320"
         height="48"
         width="48"
         id="rect48x48"
         style="display:inline;overflow:visible;visibility:visible;fill:#cdcdcd;fill-opacity:1;fill-rule:nonzero;stroke:none;stroke-width:2;marker:none;enable-background:accumulate" />
      <rect
         style="display:inline;overflow:visible;visibility:visible;fill:#cdcdcd;fill-opacity:1;fill-rule:nonzero;stroke:none;stroke-width:2;marker:none;enable-background:accumulate"
         id="rect256x256"
         width="256"
         height="256"
         x="24"
         y="28"
         inkscape:label="256x256" />
    </g>
    <g
       inkscape:groupmode="layer"
       id="layer2"
       inkscape:label="Background"
       style="display:inline">
      <rect
         id="rect1243"
         transform="scale(1,-1)"
         x="62.400028"
         y="-268"
         width="156.34132"
         height="204.92096"
         style="fill:url(#linearGradient10126);stroke-width:14.1102;paint-order:stroke fill markers" />
      <rect
         id="rect1466"
         transform="scale(1,-1)"
         x="85.258652"
         y="-248.92096"
         width="156.34132"
         height="204.92096"
         style="fill:url(#linearGradient10128);stroke-width:14.1102;paint-order:stroke fill markers" />
      <rect
         id="rect10070"
         transform="scale(1,-1)"
         x="325.60001"
         y="-107"
         width="32.105808"
         height="42.081982"
         style="fill:url(#linearGradient10080);stroke-width:2.89764;paint-order:stroke fill markers" />
      <rect
         id="rect10072"
         transform="scale(1,-1)"
         x="330.29419"
         y="-103.08199"
         width="32.105808"
         height="42.081982"
         style="fill:url(#linearGradient10082);stroke-width:2.89764;paint-order:stroke fill markers" />
      <rect
         id="rect10084"
         transform="scale(1,-1)"
         x="324"
         y="-163"
         width="20.93857"
         height="27.444771"
         style="fill:url(#linearGradient10094);stroke-width:1.88976;paint-order:stroke fill markers" />
      <rect
         id="rect10086"
         transform="scale(1,-1)"
         x="327.06143"
         y="-160.44478"
         width="20.93857"
         height="27.444771"
         style="fill:url(#linearGradient10096);stroke-width:1.88976;paint-order:stroke fill markers" />
      <rect
         id="rect10098"
         transform="scale(1,-1)"
         x="322.80002"
         y="-211.5"
         width="16.052904"
         height="21.040991"
         style="fill:url(#linearGradient10108);stroke-width:1.44882;paint-order:stroke fill markers" />
      <rect
         id="rect10100"
         transform="scale(1,-1)"
         x="325.14709"
         y="-209.54099"
         width="16.052904"
         height="21.040991"
         style="fill:url(#linearGradient10110);stroke-width:1.44882;paint-order:stroke fill markers" />
      <rect
         id="rect10112"
         transform="scale(1,-1)"
         x="322"
         y="-251.5"
         width="10.469285"
         height="13.722385"
         style="fill:url(#linearGradient10122);stroke-width:0.944882;paint-order:stroke fill markers" />
      <rect
         id="rect10114"
         transform="scale(1,-1)"
         x="323.5307"
         y="-250.22238"
         width="10.469285"
         height="13.722385"
         style="fill:url(#linearGradient10124);stroke-width:0.944882;paint-order:stroke fill markers" />
    </g>
    <g
       inkscape:groupmode="layer"
       id="layer6"
       inkscape:label="Pictogram"
       style="display:inline">
      <path
         d="m 204.96262,116.59383 c 3.83787,0 7.00001,3.16213 7.00001,7 v 45.73332 c 0,3.83785 -3.16214,6.99998 -7.00001,6.99998 h -83.06663 c -3.83787,0 -7,-3.16213 -7,-6.99998 v -45.73332 c 0,-3.83787 3.16213,-7 7,-7 z m 0,55.06664 c 1.33286,0 2.33334,-1.00056 2.33334,-2.33332 v -45.73332 c 0,-1.33285 -1.00055,-2.33334 -2.33334,-2.33334 h -83.06663 c -1.3328,0 -2.33333,1.00056 -2.33333,2.33334 v 45.73332 c 0,1.33285 1.00052,2.33332 2.33333,2.33332 z m -13.06666,-24.73705 h 9.33334 l -14,15.39999 -13.99999,-15.39999 h 9.33332 v -16.33333 h 9.33333 z m -53.66664,15.39999 h -9.33333 v -31.73332 h 9.33333 l 9.33333,11.66666 9.33333,-11.66666 h 9.33333 v 31.73332 h -9.33333 v -18.2 l -9.33333,11.66666 -9.33333,-11.66666 z"
         style="clip-rule:evenodd;display:inline;fill:#464d55;fill-rule:nonzero;stroke-width:3.73333;stroke-linejoin:round;stroke-miterlimit:2;enable-background:new"
         id="path4" />
      <path
         d="m 129.61219,239.24236 v -24.99253 h 4.49318 v 3.47255 h 0.19916 c 0.71567,-1.19471 1.80474,-2.1968 3.2672,-3.01204 1.49359,-0.85268 2.97471,-1.2757 4.43718,-1.2757 3.87708,0 6.50951,1.59939 7.90352,4.79189 2.04123,-3.19253 4.94748,-4.79189 8.72499,-4.79189 2.95604,0 5.18397,0.95202 6.67755,2.85647 1.49981,1.87318 2.24659,4.41851 2.24659,7.64837 v 15.30295 h -4.69233 v -14.58728 c 0,-2.51419 -0.46052,-4.30026 -1.37534,-5.35198 -0.92105,-1.05799 -2.31505,-1.5807 -4.18203,-1.5807 -1.84208,0 -3.36677,0.77804 -4.59275,2.33994 -1.18865,1.56818 -1.78607,3.35433 -1.78607,5.35822 v 13.82182 h -4.69233 v -14.58729 c 0,-2.51419 -0.46051,-4.30026 -1.37534,-5.35198 -0.92104,-1.05798 -2.31504,-1.5807 -4.18202,-1.5807 -1.83586,0 -3.36677,0.77804 -4.59275,2.33996 -1.18865,1.56817 -1.78608,3.35431 -1.78608,5.3582 v 13.82182 z m 67.63424,-0.81514 h -4.48695 v -3.46635 h -0.20545 c -0.74685,1.21983 -1.88563,2.24039 -3.41655,3.05562 -1.49982,0.81529 -3.19875,1.22604 -5.10307,1.22604 -3.22986,0 -6.01788,-1.2757 -8.36405,-3.82728 -2.34611,-2.54535 -3.51609,-5.71297 -3.51609,-9.48428 0,-3.77127 1.16997,-6.9389 3.51614,-9.48421 2.34616,-2.55154 5.13417,-3.82731 8.36403,-3.82731 1.90432,0 3.60328,0.41075 5.10307,1.22604 1.53091,0.81528 2.66976,1.83585 3.41656,3.05561 h 0.20545 l -0.2054,-3.46642 v -11.52556 h 4.69231 z m -12.44649,-3.46635 c 2.20925,0 4.08245,-0.82164 5.61337,-2.45195 1.56203,-1.63044 2.34617,-3.82107 2.34617,-6.57797 0,-2.75691 -0.78411,-4.94748 -2.34617,-6.57797 -1.53093,-1.63044 -3.40412,-2.45197 -5.61337,-2.45197 -2.17814,0 -4.04511,0.83392 -5.60714,2.50175 -1.56825,1.63043 -2.34617,3.80862 -2.34617,6.52819 0,2.71957 0.7779,4.91014 2.34617,6.57797 1.56203,1.63044 3.429,2.45195 5.60714,2.45195 z"
         style="clip-rule:evenodd;display:inline;fill:#ffffff;fill-rule:nonzero;stroke-width:6.22325;stroke-linejoin:round;stroke-miterlimit:2;enable-background:new"
         id="path6" />
      <path
         d="m 354.87625,75.907661 c 0.78813,0 1.4375,0.649366 1.4375,1.4375 v 9.391664 c 0,0.788131 -0.64937,1.437497 -1.4375,1.437497 h -17.05833 c -0.78813,0 -1.4375,-0.649366 -1.4375,-1.437497 v -9.391664 c 0,-0.788134 0.64937,-1.4375 1.4375,-1.4375 z m 0,11.308329 c 0.27371,0 0.47917,-0.205472 0.47917,-0.479165 v -9.391664 c 0,-0.273711 -0.20547,-0.479168 -0.47917,-0.479168 h -17.05833 c -0.2737,0 -0.47916,0.205472 -0.47916,0.479168 v 9.391664 c 0,0.273711 0.20546,0.479165 0.47916,0.479165 z m -2.68333,-5.079931 h 1.91666 l -2.875,3.162498 -2.87499,-3.162498 h 1.91666 v -3.354166 h 1.91667 z m -11.02083,3.162498 h -1.91667 v -6.516664 h 1.91667 l 1.91666,2.395833 1.91667,-2.395833 h 1.91667 v 6.516664 h -1.91667 v -3.7375 l -1.91667,2.395833 -1.91666,-2.395833 z"
         style="clip-rule:evenodd;display:inline;fill:#464d55;fill-rule:nonzero;stroke-width:0.766665;stroke-linejoin:round;stroke-miterlimit:2;enable-background:new"
         id="path10074" />
      <path
         d="m 339.4025,101.09441 v -5.132391 h 0.92271 v 0.713114 h 0.0409 c 0.14697,-0.245343 0.37062,-0.45113 0.67095,-0.618544 0.30672,-0.175104 0.61088,-0.261975 0.9112,-0.261975 0.79619,0 1.33678,0.328447 1.62305,0.984049 0.41918,-0.655608 1.016,-0.984049 1.79174,-0.984049 0.60704,0 1.06456,0.195503 1.37128,0.586597 0.308,0.38467 0.46135,0.907372 0.46135,1.570647 v 3.142572 h -0.9636 v -2.995604 c 0,-0.516307 -0.0946,-0.88309 -0.28244,-1.099068 -0.18914,-0.217265 -0.47541,-0.324608 -0.8588,-0.324608 -0.37829,0 -0.6914,0.159776 -0.94316,0.480524 -0.2441,0.322038 -0.36678,0.688835 -0.36678,1.100349 v 2.838407 h -0.9636 v -2.995601 c 0,-0.516307 -0.0946,-0.88309 -0.28244,-1.099068 -0.18914,-0.217265 -0.47541,-0.324608 -0.85881,-0.324608 -0.377,0 -0.69139,0.159776 -0.94315,0.480527 -0.2441,0.322035 -0.36679,0.688832 -0.36679,1.100346 v 2.838404 z m 13.88917,-0.16739 h -0.92142 v -0.71184 h -0.0422 c -0.15338,0.2505 -0.38723,0.46008 -0.70162,0.62749 -0.308,0.16743 -0.65688,0.25178 -1.04795,0.25178 -0.66327,0 -1.23581,-0.26198 -1.71762,-0.78596 -0.48179,-0.522706 -0.72205,-1.1732 -0.72205,-1.947665 0,-0.774458 0.24026,-1.424954 0.72206,-1.94765 0.4818,-0.523977 1.05434,-0.785967 1.71762,-0.785967 0.39106,0 0.73996,0.08435 1.04795,0.251776 0.31438,0.167426 0.54825,0.377006 0.70161,0.627492 h 0.0422 l -0.0422,-0.711854 v -2.366856 h 0.9636 z m -2.55597,-0.71184 c 0.45368,0 0.83836,-0.16873 1.15274,-0.503526 0.32078,-0.334822 0.48181,-0.784683 0.48181,-1.350832 0,-0.566152 -0.16103,-1.016002 -0.48181,-1.350835 -0.31438,-0.334822 -0.69906,-0.503528 -1.15274,-0.503528 -0.4473,0 -0.83069,0.17125 -1.15147,0.513751 -0.32205,0.334822 -0.4818,0.782127 -0.4818,1.340612 0,0.558481 0.15975,1.008331 0.4818,1.350832 0.32078,0.334826 0.70417,0.503526 1.15147,0.503526 z"
         style="clip-rule:evenodd;display:inline;fill:#ffffff;fill-rule:nonzero;stroke-width:1.27799;stroke-linejoin:round;stroke-miterlimit:2;enable-background:new"
         id="path10076" />
      <path
         d="m 343.09321,142.72239 c 0.514,0 0.9375,0.4235 0.9375,0.9375 v 6.125 c 0,0.514 -0.4235,0.9375 -0.9375,0.9375 h -11.12499 c -0.514,0 -0.9375,-0.4235 -0.9375,-0.9375 v -6.125 c 0,-0.514 0.4235,-0.9375 0.9375,-0.9375 z m 0,7.375 c 0.17851,0 0.3125,-0.134 0.3125,-0.3125 v -6.125 c 0,-0.17851 -0.134,-0.3125 -0.3125,-0.3125 h -11.12499 c -0.1785,0 -0.3125,0.134 -0.3125,0.3125 v 6.125 c 0,0.17851 0.134,0.3125 0.3125,0.3125 z m -1.75,-3.313 h 1.25 l -1.875,2.0625 -1.87499,-2.0625 h 1.24999 v -2.1875 h 1.25 z m -7.18749,2.0625 h -1.25 v -4.25 h 1.25 l 1.25,1.5625 1.25,-1.5625 h 1.25 v 4.25 h -1.25 v -2.4375 l -1.25,1.5625 -1.25,-1.5625 z"
         style="clip-rule:evenodd;display:inline;fill:#464d55;fill-rule:nonzero;stroke-width:0.499999;stroke-linejoin:round;stroke-miterlimit:2;enable-background:new"
         id="path10088" />
      <path
         d="m 333.00164,159.14854 v -3.34722 h 0.60176 v 0.46508 h 0.0267 c 0.0958,-0.16001 0.2417,-0.29422 0.43757,-0.4034 0.20003,-0.1142 0.3984,-0.17086 0.59426,-0.17086 0.51925,0 0.87181,0.21421 1.05851,0.64177 0.27338,-0.42757 0.66261,-0.64177 1.16853,-0.64177 0.39589,0 0.69428,0.12751 0.89431,0.38257 0.20087,0.25087 0.30088,0.59176 0.30088,1.02433 v 2.0495 h -0.62844 v -1.95365 c 0,-0.33672 -0.0617,-0.57593 -0.18419,-0.71678 -0.12336,-0.1417 -0.31005,-0.2117 -0.56009,-0.2117 -0.24671,0 -0.45091,0.1042 -0.61511,0.31338 -0.15919,0.21003 -0.2392,0.44924 -0.2392,0.71762 v 1.85114 h -0.62844 v -1.95366 c 0,-0.33672 -0.0617,-0.57593 -0.1842,-0.71678 -0.12335,-0.1417 -0.31005,-0.2117 -0.56009,-0.2117 -0.24587,0 -0.4509,0.1042 -0.6151,0.31339 -0.15919,0.21002 -0.2392,0.44923 -0.2392,0.71761 v 1.85114 z m 9.05815,-0.10918 h -0.60093 v -0.46424 h -0.0275 c -0.10003,0.16337 -0.25254,0.30005 -0.45758,0.40924 -0.20086,0.10919 -0.4284,0.1642 -0.68344,0.1642 -0.43257,0 -0.80597,-0.17086 -1.12019,-0.51259 -0.31421,-0.34089 -0.4709,-0.76512 -0.4709,-1.27021 0,-0.50508 0.15669,-0.92932 0.47091,-1.27021 0.31422,-0.34172 0.68761,-0.51258 1.12018,-0.51258 0.25504,0 0.48258,0.055 0.68345,0.1642 0.20503,0.10919 0.35756,0.24587 0.45757,0.40923 h 0.0275 l -0.0275,-0.46425 v -1.5436 h 0.62843 z m -1.66694,-0.46424 c 0.29589,0 0.54676,-0.11004 0.75179,-0.32839 0.20921,-0.21836 0.31422,-0.51175 0.31422,-0.88097 0,-0.36923 -0.10501,-0.66261 -0.31422,-0.88098 -0.20503,-0.21836 -0.4559,-0.32839 -0.75179,-0.32839 -0.29171,0 -0.54175,0.11169 -0.75095,0.33506 -0.21004,0.21836 -0.31422,0.51008 -0.31422,0.87431 0,0.36422 0.10418,0.6576 0.31422,0.88097 0.2092,0.21837 0.45924,0.32839 0.75095,0.32839 z"
         style="clip-rule:evenodd;display:inline;fill:#ffffff;fill-rule:nonzero;stroke-width:0.833471;stroke-linejoin:round;stroke-miterlimit:2;enable-background:new"
         id="path10090" />
      <path
         d="m 337.43813,195.95383 c 0.39407,0 0.71875,0.32468 0.71875,0.71875 v 4.69583 c 0,0.39407 -0.32468,0.71875 -0.71875,0.71875 h -8.52916 c -0.39407,0 -0.71875,-0.32468 -0.71875,-0.71875 v -4.69583 c 0,-0.39407 0.32468,-0.71875 0.71875,-0.71875 z m 0,5.65416 c 0.13686,0 0.23958,-0.10273 0.23958,-0.23958 v -4.69583 c 0,-0.13685 -0.10273,-0.23958 -0.23958,-0.23958 h -8.52916 c -0.13685,0 -0.23959,0.10273 -0.23959,0.23958 v 4.69583 c 0,0.13686 0.10274,0.23958 0.23959,0.23958 z m -1.34167,-2.53996 h 0.95834 l -1.4375,1.58125 -1.4375,-1.58125 h 0.95833 v -1.67708 h 0.95833 z m -5.51041,1.58125 h -0.95833 v -3.25833 h 0.95833 l 0.95833,1.19791 0.95833,-1.19791 h 0.95834 v 3.25833 h -0.95834 v -1.86875 l -0.95833,1.19792 -0.95833,-1.19792 z"
         style="clip-rule:evenodd;display:inline;fill:#464d55;fill-rule:nonzero;stroke-width:0.383333;stroke-linejoin:round;stroke-miterlimit:2;enable-background:new"
         id="path10102" />
      <path
         d="m 329.70125,208.54721 v -2.5662 h 0.46136 v 0.35656 h 0.0205 c 0.0735,-0.12267 0.18531,-0.22557 0.33547,-0.30928 0.15336,-0.0875 0.30544,-0.13098 0.4556,-0.13098 0.3981,0 0.66839,0.16422 0.81152,0.49202 0.20959,-0.3278 0.508,-0.49202 0.89587,-0.49202 0.30353,0 0.53229,0.0977 0.68564,0.2933 0.154,0.19233 0.23068,0.45368 0.23068,0.78532 v 1.57128 h -0.4818 v -1.4978 c 0,-0.25815 -0.0473,-0.44154 -0.14122,-0.54953 -0.0946,-0.10863 -0.2377,-0.1623 -0.4294,-0.1623 -0.18914,0 -0.3457,0.0799 -0.47158,0.24026 -0.12205,0.16102 -0.18339,0.34441 -0.18339,0.55017 v 1.41921 h -0.4818 v -1.49781 c 0,-0.25815 -0.0473,-0.44154 -0.14122,-0.54953 -0.0946,-0.10863 -0.23771,-0.1623 -0.4294,-0.1623 -0.18851,0 -0.3457,0.0799 -0.47158,0.24026 -0.12205,0.16102 -0.18339,0.34442 -0.18339,0.55017 v 1.41921 z m 6.94459,-0.0837 h -0.46071 v -0.35592 h -0.0211 c -0.0767,0.12525 -0.19361,0.23004 -0.3508,0.31375 -0.154,0.0837 -0.32845,0.12588 -0.52398,0.12588 -0.33164,0 -0.61791,-0.13098 -0.85881,-0.39298 -0.24089,-0.26135 -0.36102,-0.58659 -0.36102,-0.97383 0,-0.38723 0.12013,-0.71247 0.36103,-0.97382 0.2409,-0.26199 0.52717,-0.39299 0.8588,-0.39299 0.19554,0 0.36998,0.0422 0.52398,0.12589 0.15719,0.0837 0.27413,0.1885 0.35081,0.31375 h 0.0211 l -0.0211,-0.35593 v -1.18343 h 0.4818 z m -1.27799,-0.35592 c 0.22685,0 0.41918,-0.0844 0.57638,-0.25176 0.16038,-0.16741 0.2409,-0.39234 0.2409,-0.67542 0,-0.28308 -0.0805,-0.508 -0.2409,-0.67542 -0.1572,-0.16741 -0.34953,-0.25176 -0.57638,-0.25176 -0.22364,0 -0.41534,0.0856 -0.57573,0.25687 -0.16103,0.16742 -0.2409,0.39107 -0.2409,0.67031 0,0.27924 0.0799,0.50417 0.2409,0.67542 0.16039,0.16741 0.35209,0.25176 0.57573,0.25176 z"
         style="clip-rule:evenodd;display:inline;fill:#ffffff;fill-rule:nonzero;stroke-width:0.638994;stroke-linejoin:round;stroke-miterlimit:2;enable-background:new"
         id="path10104" />
      <path
         d="m 331.5466,241.3612 c 0.257,0 0.46875,0.21175 0.46875,0.46875 v 3.06249 c 0,0.257 -0.21175,0.46875 -0.46875,0.46875 h -5.5625 c -0.257,0 -0.46875,-0.21175 -0.46875,-0.46875 v -3.06249 c 0,-0.257 0.21175,-0.46875 0.46875,-0.46875 z m 0,3.68749 c 0.0893,0 0.15625,-0.067 0.15625,-0.15625 v -3.06249 c 0,-0.0893 -0.067,-0.15625 -0.15625,-0.15625 h -5.5625 c -0.0892,0 -0.15625,0.067 -0.15625,0.15625 v 3.06249 c 0,0.0893 0.067,0.15625 0.15625,0.15625 z m -0.875,-1.65649 h 0.625 l -0.9375,1.03124 -0.9375,-1.03124 h 0.625 v -1.09375 h 0.625 z m -3.59375,1.03124 h -0.625 v -2.12499 h 0.625 l 0.625,0.78125 0.625,-0.78125 h 0.625 v 2.12499 h -0.625 v -1.21875 l -0.625,0.78125 -0.625,-0.78125 z"
         style="clip-rule:evenodd;display:inline;fill:#464d55;fill-rule:nonzero;stroke-width:0.25;stroke-linejoin:round;stroke-miterlimit:2;enable-background:new"
         id="path10116" />
      <path
         d="m 326.50081,249.57427 v -1.67361 h 0.30089 v 0.23254 h 0.0133 c 0.0479,-0.08 0.12086,-0.14711 0.21879,-0.2017 0.10002,-0.0571 0.1992,-0.0854 0.29713,-0.0854 0.25963,0 0.43591,0.1071 0.52925,0.32089 0.13669,-0.21379 0.33131,-0.32089 0.58427,-0.32089 0.19795,0 0.34714,0.0637 0.44715,0.19128 0.10044,0.12544 0.15045,0.29589 0.15045,0.51217 v 1.02475 h -0.31422 v -0.97682 c 0,-0.16837 -0.0308,-0.28797 -0.0921,-0.3584 -0.0617,-0.0708 -0.15503,-0.10585 -0.28005,-0.10585 -0.12335,0 -0.22545,0.0521 -0.30755,0.1567 -0.0796,0.10501 -0.1196,0.22462 -0.1196,0.35881 v 0.92556 h -0.31422 v -0.97682 c 0,-0.16836 -0.0308,-0.28797 -0.0921,-0.3584 -0.0617,-0.0708 -0.15502,-0.10585 -0.28004,-0.10585 -0.12294,0 -0.22546,0.0521 -0.30755,0.1567 -0.0796,0.10501 -0.11961,0.22462 -0.11961,0.35881 v 0.92556 z m 4.52908,-0.0546 h -0.30046 v -0.23212 h -0.0138 c -0.05,0.0817 -0.12627,0.15003 -0.22879,0.20462 -0.10043,0.0546 -0.2142,0.0821 -0.34172,0.0821 -0.21629,0 -0.40298,-0.0854 -0.56009,-0.25629 -0.15711,-0.17045 -0.23546,-0.38257 -0.23546,-0.63511 0,-0.25254 0.0784,-0.46466 0.23546,-0.6351 0.15711,-0.17087 0.34381,-0.2563 0.56009,-0.2563 0.12752,0 0.24129,0.0275 0.34172,0.0821 0.10252,0.0546 0.17878,0.12294 0.22879,0.20462 h 0.0138 l -0.0138,-0.23213 v -0.7718 h 0.31422 z m -0.83347,-0.23212 c 0.14794,0 0.27338,-0.055 0.3759,-0.16419 0.1046,-0.10918 0.15711,-0.25588 0.15711,-0.44049 0,-0.18462 -0.0525,-0.33131 -0.15711,-0.44049 -0.10252,-0.10918 -0.22796,-0.16419 -0.3759,-0.16419 -0.14586,0 -0.27088,0.0558 -0.37548,0.16752 -0.10501,0.10918 -0.15711,0.25504 -0.15711,0.43716 0,0.18211 0.0521,0.3288 0.15711,0.44049 0.1046,0.10918 0.22962,0.16419 0.37548,0.16419 z"
         style="clip-rule:evenodd;display:inline;fill:#ffffff;fill-rule:nonzero;stroke-width:0.416735;stroke-linejoin:round;stroke-miterlimit:2;enable-background:new"
         id="path10118" />
    </g>
  </g>
</svg>
