<svg viewBox="0 0 16 16" xmlns="http://www.w3.org/2000/svg">
 <g transform="matrix(.59445 0 0 .59112 .82586 .99533)" fill="#bebebe">
  <path d="m12 20c-3.866 0-7-3.134-7-7 0-3.866 3.134-7 7-7 3.866 0 7 3.134 7 7 0 3.866-3.134 7-7 7m0-16c-4.9706 0-9 4.0294-9 9 0 4.9706 4.0294 9 9 9 4.9706 0 9-4.0294 9-9 0-4.9706-4.0294-9-9-9"/>
  <path d="m15.855 14.988-2.7117-1.6744c-0.05617-0.31704-0.22781-0.59052-0.46874-0.78421l0.12388-3.4024c0.015213-0.43462-0.32387-0.79943-0.75796-0.8157-0.43305-0.020022-0.79943 0.32334-0.8157 0.75796l-0.1244 3.4061c-0.33646 0.23726-0.55797 0.62779-0.55797 1.0713 0 0.72489 0.58737 1.3117 1.3123 1.3117 0.20629 0 0.39893-0.05196 0.57214-0.13647l2.6009 1.6073c0.12912 0.07873 0.27243 0.11705 0.4131 0.11705 0.26403 0 0.52123-0.13227 0.67083-0.37321 0.22886-0.37111 0.11339-0.85612-0.25668-1.085z"/>
  <rect transform="matrix(.7686 -.63973 .63973 .7686 0 0)" x="-2.1073" y="5.1958" width="6.0023" height="2.5493" rx=".84523" ry=".57712"/>
  <rect transform="matrix(.79069 .61222 -.61222 .79069 0 0)" x="14.847" y="-9.7047" width="6.0023" height="2.5493" rx=".84523" ry=".57712"/>
 </g>
</svg>
