<?xml version="1.0" encoding="UTF-8" standalone="no"?>
<svg
   enable-background="new"
   viewBox="0 0 16 16"
   version="1.1"
   id="svg10"
   sodipodi:docname="audio-volume-muted-rtl-symbolic.svg"
   inkscape:version="1.1.2 (0a00cf5339, 2022-02-04)"
   xmlns:inkscape="http://www.inkscape.org/namespaces/inkscape"
   xmlns:sodipodi="http://sodipodi.sourceforge.net/DTD/sodipodi-0.dtd"
   xmlns="http://www.w3.org/2000/svg"
   xmlns:svg="http://www.w3.org/2000/svg">
  <defs
     id="defs14">
    <inkscape:path-effect
       effect="fillet_chamfer"
       id="path-effect1613"
       is_visible="true"
       lpeversion="1"
       satellites_param="F,0,0,1,0,1,0,1 @ F,0,0,1,0,1,0,1 @ F,0,0,1,0,1,0,1 @ F,0,0,1,0,1,0,1"
       unit="px"
       method="auto"
       mode="F"
       radius="1"
       chamfer_steps="1"
       flexible="false"
       use_knot_distance="true"
       apply_no_radius="true"
       apply_with_radius="true"
       only_selected="false"
       hide_knots="false" />
  </defs>
  <sodipodi:namedview
     id="namedview12"
     pagecolor="#ffffff"
     bordercolor="#666666"
     borderopacity="1.0"
     inkscape:pageshadow="2"
     inkscape:pageopacity="0.0"
     inkscape:pagecheckerboard="0"
     showgrid="false"
     inkscape:zoom="47.5625"
     inkscape:cx="8"
     inkscape:cy="7.9894875"
     inkscape:window-width="1920"
     inkscape:window-height="1020"
     inkscape:window-x="0"
     inkscape:window-y="32"
     inkscape:window-maximized="1"
     inkscape:current-layer="svg10"
     inkscape:object-paths="true"
     inkscape:snap-intersection-paths="true"
     inkscape:snap-smooth-nodes="true"
     inkscape:snap-midpoints="true" />
  <path
     id="path1258"
     style="fill:#565656;fill-opacity:0.34902;stroke-width:0.139475"
     d="m 8,1.0917969 c 0.1969386,0 0.3677808,0.071046 0.5117188,0.2148437 l 3.7832032,3.7851563 h 2.978516 c 0.197077,0 0.365827,0.071046 0.509765,0.2148437 C 15.927141,5.4505787 16,5.6214209 16,5.8183594 v 4.3632816 c 0,0.196939 -0.07286,0.36792 -0.216797,0.511718 -0.144077,0.143938 -0.312827,0.216797 -0.509765,0.216797 H 12.294922 L 12.113281,11.09375 7.2734375,6.2539062 V 1.8183594 c 0,-0.1969385 0.071045,-0.3677807 0.2148437,-0.5117188 C 7.632359,1.162842 7.802922,1.0917969 8,1.0917969 Z M 1.298828,1.7207031 14.279297,14.701172 a 1.0198193,1.0198193 0 0 1 -1.443359,0 L 10.669922,12.535156 8.5117188,14.693359 C 8.3677807,14.837157 8.1969385,14.910156 8,14.910156 c -0.197078,0 -0.3677807,-0.073 -0.5117188,-0.216797 C 7.3443433,14.54956 7.2734375,14.378579 7.2734375,14.181641 V 9.1386719 L 4.978516,6.84375 C 4.928984,6.8779255 4.879626,6.9128087 4.830078,6.9492188 4.701204,7.0439217 4.590938,7.1773584 4.5,7.3515625 4.40934,7.5259061 4.363281,7.7423899 4.363281,8 4.363281,8.2576101 4.409203,8.4740939 4.5,8.6484375 4.59094,8.8227811 4.701204,8.9559384 4.830078,9.0507812 4.958953,9.1454844 5.088201,9.2329993 5.216797,9.3125 5.345672,9.391861 5.453984,9.4859363 5.544922,9.5957031 5.635862,9.7057487 5.681641,9.8408591 5.681641,10 c 0,0.20461 -0.071047,0.377406 -0.214844,0.517578 -0.143798,0.140173 -0.31478,0.208985 -0.511719,0.208984 -0.113532,0 -0.209421,-0.01898 -0.285156,-0.05664 C 4.139499,10.457501 3.714626,10.103673 3.392578,9.6074219 3.070531,9.1113098 2.908203,8.5757523 2.908203,8 2.908203,7.4242477 3.070531,6.8867361 3.392578,6.3867188 3.543728,6.152142 3.717197,5.9488248 3.914062,5.7792969 L 2.898438,4.7636719 C 2.498416,5.1206142 2.173234,5.5413315 1.925781,6.0273438 1.611405,6.6447991 1.455078,7.303044 1.455078,8 c 0,0.696956 0.156327,1.3532478 0.470703,1.9707031 0.314377,0.6175949 0.75195,1.1319359 1.3125,1.5410159 0.15147,0.113672 0.43914,0.280327 0.863281,0.5 0.295548,0.151609 0.44336,0.374375 0.44336,0.669922 0,0.196939 -0.071046,0.367919 -0.214844,0.511718 -0.144077,0.144077 -0.318828,0.214844 -0.523437,0.214844 -0.09094,0 -0.184874,-0.01898 -0.283203,-0.05664 C 2.46301,12.904408 1.610752,12.192002 0.966797,11.210938 0.322841,10.23001 0,9.1591757 0,8 0,6.8408243 0.322841,5.7705472 0.966797,4.7890625 1.22934,4.3891348 1.52755,4.0357893 1.859375,3.7246094 L 1.298828,3.1640625 a 1.0198193,1.0198193 0 0 1 0,-1.4433594 z m 2.519531,0.8691407 c 0.196938,0 0.367642,0.072859 0.511719,0.2167968 0.143799,0.1439381 0.214844,0.3147803 0.214844,0.5117188 0,0.065282 -0.00902,0.125345 -0.023438,0.1835937 L 3.632812,2.6132812 c 0.061467,-0.01475 0.124164,-0.023437 0.185547,-0.023437 z" />
</svg>
