<?xml version="1.0" encoding="UTF-8" standalone="no"?>
<svg
   enable-background="new"
   viewBox="0 0 16 16"
   version="1.1"
   id="svg10"
   sodipodi:docname="audio-volume-muted-symbolic.svg"
   inkscape:version="1.1.2 (0a00cf5339, 2022-02-04)"
   xmlns:inkscape="http://www.inkscape.org/namespaces/inkscape"
   xmlns:sodipodi="http://sodipodi.sourceforge.net/DTD/sodipodi-0.dtd"
   xmlns="http://www.w3.org/2000/svg"
   xmlns:svg="http://www.w3.org/2000/svg">
  <defs
     id="defs14">
    <inkscape:path-effect
       effect="fillet_chamfer"
       id="path-effect1613"
       is_visible="true"
       lpeversion="1"
       satellites_param="F,0,0,1,0,1,0,1 @ F,0,0,1,0,1,0,1 @ F,0,0,1,0,1,0,1 @ F,0,0,1,0,1,0,1"
       unit="px"
       method="auto"
       mode="F"
       radius="1"
       chamfer_steps="1"
       flexible="false"
       use_knot_distance="true"
       apply_no_radius="true"
       apply_with_radius="true"
       only_selected="false"
       hide_knots="false" />
  </defs>
  <sodipodi:namedview
     id="namedview12"
     pagecolor="#ffffff"
     bordercolor="#666666"
     borderopacity="1.0"
     inkscape:pageshadow="2"
     inkscape:pageopacity="0.0"
     inkscape:pagecheckerboard="0"
     showgrid="false"
     inkscape:zoom="47.5625"
     inkscape:cx="8"
     inkscape:cy="7.9894875"
     inkscape:window-width="1920"
     inkscape:window-height="1020"
     inkscape:window-x="0"
     inkscape:window-y="32"
     inkscape:window-maximized="1"
     inkscape:current-layer="svg10"
     inkscape:object-paths="true"
     inkscape:snap-intersection-paths="true"
     inkscape:snap-smooth-nodes="true"
     inkscape:snap-midpoints="true" />
  <path
     id="path1258"
     style="fill:#565656;fill-opacity:0.34902;stroke-width:0.139475"
     d="M 8 1.0917969 C 7.8030614 1.0917969 7.6322192 1.1628425 7.4882812 1.3066406 L 3.7050781 5.0917969 L 0.7265625 5.0917969 C 0.5294845 5.0917969 0.36073494 5.1628425 0.21679688 5.3066406 C 0.07285879 5.4505787 1.8503717e-17 5.6214209 0 5.8183594 L 0 10.181641 C 0 10.37858 0.07285879 10.549561 0.21679688 10.693359 C 0.36087441 10.837297 0.52962397 10.910156 0.7265625 10.910156 L 3.7050781 10.910156 L 3.8867188 11.09375 L 8.7265625 6.2539062 L 8.7265625 1.8183594 C 8.7265625 1.6214209 8.6555174 1.4505787 8.5117188 1.3066406 C 8.367641 1.162842 8.197078 1.0917969 8 1.0917969 z M 14.701172 1.7207031 L 1.7207031 14.701172 A 1.0198193 1.0198193 0 0 0 3.1640625 14.701172 L 5.3300781 12.535156 L 7.4882812 14.693359 C 7.6322193 14.837157 7.8030615 14.910156 8 14.910156 C 8.197078 14.910156 8.3677807 14.837156 8.5117188 14.693359 C 8.6556567 14.54956 8.7265625 14.378579 8.7265625 14.181641 L 8.7265625 9.1386719 L 11.021484 6.84375 C 11.071016 6.8779255 11.120374 6.9128087 11.169922 6.9492188 C 11.298796 7.0439217 11.409062 7.1773584 11.5 7.3515625 C 11.59066 7.5259061 11.636719 7.7423899 11.636719 8 C 11.636719 8.2576101 11.590797 8.4740939 11.5 8.6484375 C 11.40906 8.8227811 11.298796 8.9559384 11.169922 9.0507812 C 11.041047 9.1454844 10.911799 9.2329993 10.783203 9.3125 C 10.654328 9.391861 10.546016 9.4859363 10.455078 9.5957031 C 10.364138 9.7057487 10.318359 9.8408591 10.318359 10 C 10.318359 10.20461 10.389406 10.377406 10.533203 10.517578 C 10.677001 10.657751 10.847983 10.726563 11.044922 10.726562 C 11.158454 10.726562 11.254343 10.707582 11.330078 10.669922 C 11.860501 10.457501 12.285374 10.103673 12.607422 9.6074219 C 12.929469 9.1113098 13.091797 8.5757523 13.091797 8 C 13.091797 7.4242477 12.929469 6.8867361 12.607422 6.3867188 C 12.456272 6.152142 12.282803 5.9488248 12.085938 5.7792969 L 13.101562 4.7636719 C 13.501584 5.1206142 13.826766 5.5413315 14.074219 6.0273438 C 14.388595 6.6447991 14.544922 7.303044 14.544922 8 C 14.544922 8.696956 14.388595 9.3532478 14.074219 9.9707031 C 13.759842 10.588298 13.322269 11.102639 12.761719 11.511719 C 12.610249 11.625391 12.322579 11.792046 11.898438 12.011719 C 11.60289 12.163328 11.455078 12.386094 11.455078 12.681641 C 11.455078 12.87858 11.526124 13.04956 11.669922 13.193359 C 11.813999 13.337436 11.98875 13.408203 12.193359 13.408203 C 12.284299 13.408203 12.378233 13.389224 12.476562 13.351562 C 13.53699 12.904408 14.389248 12.192002 15.033203 11.210938 C 15.677159 10.23001 16 9.1591757 16 8 C 16 6.8408243 15.677159 5.7705472 15.033203 4.7890625 C 14.77066 4.3891348 14.47245 4.0357893 14.140625 3.7246094 L 14.701172 3.1640625 A 1.0198193 1.0198193 0 0 0 14.701172 1.7207031 z M 12.181641 2.5898438 C 11.984703 2.5898438 11.813999 2.6627025 11.669922 2.8066406 C 11.526123 2.9505787 11.455078 3.1214209 11.455078 3.3183594 C 11.455078 3.3836415 11.464101 3.4437044 11.478516 3.5019531 L 12.367188 2.6132812 C 12.305721 2.5985311 12.243024 2.5898438 12.181641 2.5898438 z " />
</svg>
