<svg version="1.1" viewBox="0 0 16 16" xmlns="http://www.w3.org/2000/svg">
 <g transform="matrix(-.13947 0 0 .13948 16.03 -.089559)">
  <path d="m57.572 8.464c-1.412 0-2.634 0.517-3.666 1.548l-27.131 27.131h-21.346c-1.413 0-2.635 0.517-3.667 1.548-1.032 1.032-1.548 2.255-1.548 3.667v31.285c0 1.412 0.516 2.635 1.548 3.666 1.033 1.032 2.255 1.549 3.667 1.549h21.345l27.131 27.131c1.032 1.031 2.254 1.548 3.666 1.548 1.413 0 2.635-0.517 3.667-1.548s1.548-2.254 1.548-3.666v-88.644c0-1.412-0.516-2.635-1.547-3.667-1.033-1.031-2.254-1.548-3.667-1.548z" fill="#bebebe"/>
  <path d="m90.609 69.527c2.309-3.557 3.463-7.399 3.463-11.527s-1.154-7.988-3.463-11.573c-2.31-3.585-5.363-6.11-9.166-7.577-0.543-0.271-1.223-0.407-2.037-0.407-1.412 0-2.635 0.503-3.666 1.507-1.031 1.005-1.549 2.241-1.549 3.707 0 1.141 0.326 2.105 0.979 2.893 0.652 0.788 1.439 1.467 2.363 2.037 0.922 0.57 1.846 1.195 2.77 1.874s1.711 1.643 2.363 2.892c0.65 1.25 0.977 2.798 0.977 4.645s-0.326 3.395-0.977 4.645c-0.652 1.25-1.439 2.213-2.363 2.893-0.924 0.679-1.848 1.304-2.77 1.874-0.924 0.569-1.711 1.249-2.363 2.036-0.652 0.789-0.979 1.752-0.979 2.893 0 1.467 0.518 2.702 1.549 3.707s2.254 1.508 3.666 1.508c0.814 0 1.494-0.136 2.037-0.406 3.803-1.523 6.857-4.063 9.166-7.621z" fill="#bebebe"/>
  <path d="m108 81.016c4.617-7.033 6.926-14.705 6.926-23.016s-2.309-15.982-6.926-23.019c-4.617-7.033-10.729-12.152-18.332-15.357-0.705-0.271-1.412-0.407-2.117-0.407-1.412 0-2.635 0.516-3.668 1.548-1.031 1.032-1.547 2.254-1.547 3.666 0 2.119 1.059 3.721 3.178 4.808 3.041 1.575 5.105 2.77 6.191 3.584 4.02 2.934 7.156 6.613 9.41 11.04s3.381 9.139 3.381 14.136-1.127 9.709-3.381 14.136c-2.254 4.428-5.391 8.106-9.41 11.039-1.086 0.815-3.15 2.01-6.191 3.585-2.119 1.087-3.178 2.689-3.178 4.808 0 1.412 0.516 2.635 1.547 3.666 1.033 1.033 2.281 1.549 3.748 1.549 0.652 0 1.332-0.137 2.037-0.407 7.603-3.206 13.715-8.325 18.332-15.359z" fill="#565656" fill-opacity=".34902"/>
 </g>
</svg>
