<svg enable-background="new" viewBox="0 0 16 16" xmlns="http://www.w3.org/2000/svg">
 <filter color-interpolation-filters="sRGB">
  <feBlend in2="BackgroundImage" mode="darken"/>
 </filter>
 <g transform="matrix(.031888 0 0 .031888 2 2)" fill="#bebebe">
  <path d="m299.02 161.26h-185.84v-46.285c0-41.344 33.635-74.979 74.979-74.979 33.758 0 63.513 22.716 72.359 55.241 2.898 10.657 13.888 16.946 24.547 14.05 10.659-2.898 16.949-13.889 14.05-24.548-13.57-49.896-59.196-84.744-110.96-84.744-63.4 0-114.98 51.58-114.98 114.98v46.715c-9.061 1.902-15.888 9.952-15.888 19.571v175.05c0 11.028 8.972 20 20 20h221.73c11.028 0 20-8.972 20-20v-175.05c0-11.029-8.972-20-20-20z"/>
  <path d="m215.02 310.91c0.408 2.162-1.058 3.931-3.258 3.931h-46.677c-2.2 0-3.666-1.769-3.258-3.931l7.432-39.387c-5.626-5.131-9.157-12.52-9.157-20.734 0-15.495 12.561-28.056 28.056-28.056s28.056 12.561 28.056 28.056c0 7.991-3.346 15.195-8.707 20.305z"/>
 </g>
</svg>
