<svg version="1.1" viewBox="0 0 16 16" xmlns="http://www.w3.org/2000/svg">
 <path transform="matrix(.095025 0 0 .095025 2.2514 4.4699)" d="m121.36 2.1137-11.08-11.08c-1.52-1.521-3.368-2.281-5.54-2.281-2.173 0-4.021 0.76-5.541 2.281l-53.446 53.528-23.953-24.035c-1.521-1.521-3.368-2.281-5.54-2.281-2.173 0-4.02 0.76-5.541 2.281l-11.08 11.08c-1.521 1.521-2.281 3.368-2.281 5.541 0 2.172 0.76 4.02 2.281 5.54l29.493 29.493 11.081 11.08c1.52 1.521 3.367 2.281 5.54 2.281 2.172 0 4.019-0.761 5.54-2.281l11.081-11.08 58.986-58.986c1.52-1.521 2.281-3.368 2.281-5.541 1e-3 -2.172-0.761-4.019-2.281-5.54z" fill="#bebebe"/>
</svg>
