<svg enable-background="new" viewBox="0 0 16 16" xmlns="http://www.w3.org/2000/svg">
 <path transform="matrix(.75 0 0 .75 -.25 -.24999)" d="m11 3a8 8 0 0 0-8 8 8 8 0 0 0 8 8 8 8 0 0 0 8-8 8 8 0 0 0-8-8zm-0.0059 3.5c0.76408 0 1.3847 0.21918 1.8633 0.6582 0.4786 0.43089 0.71875 0.98341 0.71875 1.6582 0 0.29268-0.0807 0.58981-0.24023 0.89062s-0.30179 0.5164-0.42774 0.64648c-0.11755 0.12195-0.2856 0.28144-0.50391 0.47656l-0.0625 0.06055c-0.51218 0.44715-0.76953 0.89464-0.76953 1.3418v0.48633h-1.1836v-0.57227c0-0.36585 0.0807-0.67929 0.24023-0.93945 0.15953-0.26829 0.44072-0.58173 0.84375-0.93945 0.2267-0.20325 0.38616-0.35361 0.47852-0.45117 0.10076-0.10569 0.1967-0.24692 0.28906-0.42578 0.10076-0.18699 0.15234-0.3791 0.15234-0.57422 0-0.37398-0.12701-0.6747-0.37891-0.90234-0.2435-0.22764-0.58292-0.3418-1.0195-0.3418-0.7221 0-1.2176 0.39139-1.4863 1.1719l-1.0839-0.43946c0.17633-0.46341 0.47998-0.87829 0.9082-1.2441 0.43662-0.37398 0.99039-0.56055 1.6621-0.56055zm-0.01367 7.3418c0.2435 0 0.44594 0.08154 0.60547 0.24414 0.16793 0.1626 0.25195 0.35634 0.25195 0.58398s-0.08403 0.42334-0.25195 0.58594c-0.15949 0.1626-0.36193 0.24414-0.60543 0.24414s-0.44926-0.081539-0.61719-0.24414c-0.15953-0.1626-0.23828-0.3583-0.23828-0.58594s0.07875-0.42138 0.23828-0.58398c0.16793-0.1626 0.37369-0.24414 0.61719-0.24414z" fill="#bebebe" fill-rule="evenodd"/>
</svg>
