<svg enable-background="new" viewBox="0 0 16 16" xmlns="http://www.w3.org/2000/svg">
 <filter color-interpolation-filters="sRGB">
  <feBlend in2="BackgroundImage" mode="darken"/>
 </filter>
 <g transform="translate(-365 291)">
  <path d="m373-290.28c-0.76797 0.75782-1.5007 1.6278-2.2812 2.3722h-2.6278v2.6278c-0.74462 0.78061-1.6143 1.5133-2.3722 2.2812 0.75788 0.76803 1.6277 1.5318 2.3722 2.3125v2.5968h2.6278c0.78061 0.74462 1.5133 1.6141 2.2812 2.372 0.76803-0.75788 1.5318-1.6274 2.3125-2.372l2.5965-5e-4v-2.5968c0.74462-0.78062 1.6143-1.544 2.3722-2.312-0.75788-0.76803-1.6277-1.5011-2.3722-2.2818v-2.6278l-2.5965 5e-4c-0.78062-0.74462-1.5445-1.6143-2.3125-2.3722zm0 3.2812c2.2091 0 4 1.7909 4 4s-1.7909 4-4 4-4-1.7909-4-4 1.7909-4 4-4zm0 1c-1.6568 0-3 1.3432-3 3s1.3432 3 3 3z" fill="#bebebe"/>
 </g>
</svg>
