<svg enable-background="new" viewBox="0 0 16 16" xmlns="http://www.w3.org/2000/svg">
 <path transform="translate(-321 223)" d="m329.68-221c-1.2607 0-2.2862 0.99625-2.3201 2.2211a0.46406 0.46158 0 0 0 0 0.0289c-1.4e-4 0.0103 0 0.0185 0 0.0288 0 7e-3 -7e-5 0.0214 0 0.0289a0.46933 0.45639 0 0 0 0 0.11539v4.8749a0.46406 0.46158 0 0 0 0 0.0289 0.46406 0.46158 0 0 0 0 0.0287 0.46406 0.46158 0 0 0 0 0.0289c-2e-3 0.75921 0.62874 1.3827 1.392 1.3846 0.76244 9.2e-4 1.3902-0.62601 1.392-1.3846a0.46406 0.46158 0 0 0 0-0.0577v-3.1727a0.46406 0.46158 0 0 0-0.55102-0.46154 0.46406 0.46158 0 0 0-0.37701 0.46154v3.2019a0.46406 0.46158 0 0 0 0 0.0865c-0.03 0.22937-0.22347 0.40446-0.46401 0.40383-0.26176-6.6e-4 -0.46468-0.20117-0.46401-0.46152a0.46406 0.46158 0 0 0 0-0.0865v-4.8461a0.46933 0.45639 0 0 0 0-0.0577v-0.0865a0.46406 0.46158 0 0 0 0-0.0577c0.0167-0.75118 0.63439-1.3269 1.392-1.3269 0.74712 0 1.3593 0.56184 1.392 1.2981a0.46406 0.46158 0 0 0 0 0.0289c2.3e-4 0.0104 0 0.0184 0 0.0287a0.46933 0.45639 0 0 0 0 0.14424v6.173a0.46406 0.46158 0 0 0 0 0.0865v0.0865c0 1.2799-1.0332 2.3076-2.3201 2.3076-1.2571 0-2.2739-0.9825-2.3201-2.2211-7.2e-4 -0.0195 2.4e-4 -0.038 0-0.0577a0.46406 0.46158 0 0 0 0-0.0285c0-7e-3 -7e-5 -0.0213 0-0.0289v-5.5096a0.46406 0.46158 0 0 0-0.55101-0.46162 0.46406 0.46158 0 0 0-0.37701 0.46153v5.5384a0.46406 0.46158 0 0 0 0 0.11537c7e-4 0.0199 0.028 0.0379 0.029 0.0577 0.0915 1.6985 1.4894 3.0576 3.2191 3.0576 1.7884 0 3.2481-1.4519 3.2481-3.2307v-0.1442a0.46406 0.46158 0 0 0 0-0.0287v-6.2884a0.46933 0.45639 0 0 0 0-0.0289 0.46406 0.46158 0 0 0 0-0.0287c-0.0172-1.2391-1.0488-2.25-2.3201-2.25z" fill="#bebebe" stroke-width="7.755"/>
</svg>
