<svg version="1.1" viewBox="0 0 16.05 16" xmlns="http://www.w3.org/2000/svg">
 <g fill="#bebebe">
  <path d="M15.343 4.926l.707.707-.354.354a2.999 2.999 0 0 0 0 4.242l.354.353-.707.707-.354-.353a4 4 0 0 1 0-5.656z" font-family="sans-serif" font-weight="400" opacity=".5" overflow="visible" style="font-feature-settings:normal;font-variant-alternates:normal;font-variant-caps:normal;font-variant-ligatures:normal;font-variant-numeric:normal;font-variant-position:normal;isolation:auto;mix-blend-mode:normal;shape-padding:0;text-decoration-color:#000;text-decoration-line:none;text-decoration-style:solid;text-indent:0;text-orientation:mixed;text-transform:none" white-space="normal"/>
  <path d="M13.221 2.805l.707.707-.353.353a5.999 5.999 0 0 0 0 8.485l.353.353-.707.707-.353-.353a7 7 0 0 1 0-9.899z" font-family="sans-serif" font-weight="400" opacity=".5" overflow="visible" style="font-feature-settings:normal;font-variant-alternates:normal;font-variant-caps:normal;font-variant-ligatures:normal;font-variant-numeric:normal;font-variant-position:normal;isolation:auto;mix-blend-mode:normal;shape-padding:0;text-decoration-color:#000;text-decoration-line:none;text-decoration-style:solid;text-indent:0;text-orientation:mixed;text-transform:none" white-space="normal"/>
  <g transform="matrix(.095889 0 0 .11802 -.0068081 -.025256)" fill="#bebebe">
   <path d="m47 94.07c7.17 0 13.307-2.553 18.412-7.657s7.658-11.243 7.658-18.413v-41.714c0-7.17-2.551-13.307-7.658-18.413-5.105-5.105-11.242-7.659-18.412-7.659s-13.307 2.554-18.413 7.659-7.659 11.243-7.659 18.413v41.714c0 7.17 2.554 13.309 7.659 18.413s11.243 7.657 18.413 7.657z"/>
   <path d="m92.38 53.905c-1.03-1.032-2.254-1.548-3.666-1.548s-2.634 0.516-3.666 1.548-1.548 2.254-1.548 3.666v10.429c0 10.049-3.572 18.643-10.714 25.786-7.141 7.143-15.737 10.714-25.786 10.714s-18.644-3.571-25.787-10.714c-7.142-7.141-10.713-15.737-10.713-25.786v-10.429c0-1.412-0.516-2.634-1.548-3.666s-2.253-1.548-3.666-1.548-2.635 0.516-3.667 1.548-1.548 2.254-1.548 3.666v10.429c0 12.004 4.006 22.446 12.017 31.326s17.91 13.972 29.697 15.275v10.756h-20.857c-1.412 0-2.634 0.516-3.666 1.548s-1.548 2.254-1.548 3.666c0 1.411 0.516 2.635 1.548 3.666 1.032 1.032 2.254 1.549 3.666 1.549h52.142c1.412 0 2.636-0.517 3.666-1.549 1.033-1.031 1.55-2.255 1.55-3.666 0-1.412-0.517-2.634-1.55-3.666-1.03-1.032-2.254-1.548-3.666-1.548h-20.855v-10.756c11.785-1.303 21.684-6.395 29.696-15.275s12.019-19.322 12.019-31.326v-10.429c0-1.412-0.517-2.633-1.55-3.666z"/>
  </g>
 </g>
</svg>
