<?xml version="1.0" encoding="UTF-8" standalone="no"?>
<svg
   version="1.1"
   viewBox="0 0 16.05 16"
   id="svg10"
   sodipodi:docname="microphone-disabled-symbolic.svg"
   inkscape:version="1.1.2 (0a00cf5339, 2022-02-04)"
   xmlns:inkscape="http://www.inkscape.org/namespaces/inkscape"
   xmlns:sodipodi="http://sodipodi.sourceforge.net/DTD/sodipodi-0.dtd"
   xmlns="http://www.w3.org/2000/svg"
   xmlns:svg="http://www.w3.org/2000/svg">
  <defs
     id="defs14" />
  <sodipodi:namedview
     id="namedview12"
     pagecolor="#ffffff"
     bordercolor="#666666"
     borderopacity="1.0"
     inkscape:pageshadow="2"
     inkscape:pageopacity="0.0"
     inkscape:pagecheckerboard="0"
     showgrid="false"
     inkscape:zoom="47.5625"
     inkscape:cx="8.021025"
     inkscape:cy="8"
     inkscape:window-width="1904"
     inkscape:window-height="1011"
     inkscape:window-x="0"
     inkscape:window-y="32"
     inkscape:window-maximized="1"
     inkscape:current-layer="g8" />
  <g
     fill="#bebebe"
     id="g8">
    <path
       id="path6-3"
       style="fill:#bebebe;stroke-width:0.106381"
       d="M 8,0 C 7.3124759,0 6.7239843,0.30180478 6.234375,0.90429688 5.7447658,1.506789 5.5,2.2299685 5.5,3.0761719 V 8 c 0,0.8462034 0.2448617,1.571454 0.734375,2.173828 0.4895134,0.602374 1.0781009,0.902344 1.765625,0.902344 0.3605852,0 0.6938938,-0.08232 1,-0.248047 V 9 h 1.371094 C 10.457114,8.6880887 10.5,8.3547053 10.5,8 V 3.0761719 C 10.5,2.2299685 10.25533,1.506907 9.765625,0.90429688 9.2761117,0.30180478 8.6875241,0 8,0 Z" />
    <path
       id="path8"
       style="fill:#bebebe;stroke-width:0.106381"
       d="m 4,6.1542969 c -0.1354911,0 -0.252605,0.059844 -0.3515625,0.1816406 C 3.5494801,6.4577342 3.5,6.6028871 3.5,6.7695312 V 8 c 0,1.4167121 0.384177,2.649249 1.1523438,3.697266 C 5.4205105,12.745284 6.3697564,13.34622 7.5,13.5 v 1.269531 h -2 c -0.1353953,0 -0.2526051,0.05985 -0.3515625,0.181641 C 5.0494795,15.072968 5,15.218122 5,15.384766 c 0,0.166526 0.04948,0.311915 0.1484375,0.433593 C 5.2473945,15.940156 5.3646047,16 5.5,16 H 9 V 14.769531 H 8.5 V 13.5 c 0.170796,-0.02324 0.3374666,-0.05789 0.5,-0.101562 v -1.259766 c -0.3147757,0.112462 -0.6480382,0.169922 -1,0.169922 -0.9635886,0 -1.7877211,-0.422608 -2.4726562,-1.265625 C 4.8425045,10.200189 4.5,9.185983 4.5,8 V 6.7695312 C 4.5,6.602887 4.45052,6.4577342 4.3515625,6.3359375 4.252605,6.2141409 4.1354912,6.1542969 4,6.1542969 Z m 8,0 c -0.135395,0 -0.252605,0.059844 -0.351562,0.1816406 C 11.549481,6.4577342 11.5,6.6028871 11.5,6.7695312 V 8 c 0,0.3480866 -0.03084,0.681486 -0.08984,1 h 1.021485 C 12.47707,8.6773255 12.5,8.3444722 12.5,8 V 6.7695312 C 12.5,6.602887 12.450616,6.4578522 12.351563,6.3359375 12.252797,6.2141409 12.135395,6.1542969 12,6.1542969 Z" />
    <path
       d="m10.502 9.795-0.707 0.707 0.353 0.354 4 4 0.354 0.353 0.707-0.707-4.354-4.354z"
       color="#000000"
       fill-rule="evenodd"
       overflow="visible"
       style="font-feature-settings:normal;font-variant-alternates:normal;font-variant-caps:normal;font-variant-ligatures:normal;font-variant-numeric:normal;font-variant-position:normal;isolation:auto;mix-blend-mode:normal;shape-padding:0;text-decoration-color:#000000;text-decoration-line:none;text-decoration-style:solid;text-indent:0;text-orientation:mixed;text-transform:none;white-space:normal"
       id="path4" />
    <path
       d="m14.502 9.795-4.707 4.707 0.707 0.707 0.354-0.353 4-4 0.353-0.354z"
       color="#000000"
       fill-rule="evenodd"
       overflow="visible"
       style="font-feature-settings:normal;font-variant-alternates:normal;font-variant-caps:normal;font-variant-ligatures:normal;font-variant-numeric:normal;font-variant-position:normal;isolation:auto;mix-blend-mode:normal;shape-padding:0;text-decoration-color:#000000;text-decoration-line:none;text-decoration-style:solid;text-indent:0;text-orientation:mixed;text-transform:none;white-space:normal"
       id="path6" />
  </g>
</svg>
