<svg version="1.1" viewBox="0 0 16 16" xmlns="http://www.w3.org/2000/svg">
 <g transform="translate(-283 -629)" fill="#bebebe">
  <path d="m295.67 637h-1.3333v-2h1.3333zm0-3.3333h-10.667v6.6667c0 1.4728 1.1939 2.6667 2.6667 2.6667h4c1.4727 0 2.6667-1.1939 2.6667-2.6667v-2h1.3333c0.73637 0 1.3333-0.59696 1.3333-1.3333v-2c0-0.74-0.6-1.3333-1.3333-1.3333z"/>
  <path d="m286.60282 630.482s-.1458.10908-.2912.27273c-.14524.16348-.31893.38933-.32139.69986-.002.30445.15695.51985.26266.6772.1057.15735.16404.25422.15944.38182-.009.24106-.36504.47832-.36504.47832l.26769.49007s.63208-.30182.65539-.94825c.0114-.31566-.1435-.54965-.25343-.71329s-.16942-.26-.16867-.36168c.00033-.0661.0767-.21546.18126-.33314.10456-.11769.20811-.19637.20811-.19637z"/>
  <path d="m288.60282 630.482s-.1458.10908-.2912.27273c-.14524.16348-.31893.38933-.32139.69986-.002.30445.15695.51985.26266.6772.1057.15735.16404.25422.15944.38182-.009.24106-.36504.47832-.36504.47832l.26769.49007s.63208-.30182.65539-.94825c.0114-.31566-.1435-.54965-.25343-.71329s-.16942-.26-.16867-.36168c.00033-.0661.0767-.21546.18126-.33314.10456-.11769.20811-.19637.20811-.19637z"/>
  <path d="m290.60282 630.482s-.1458.10908-.2912.27273c-.14524.16348-.31893.38933-.32139.69986-.002.30445.15695.51985.26266.6772.1057.15735.16404.25422.15944.38182-.009.24106-.36504.47832-.36504.47832l.26769.49007s.63208-.30182.65539-.94825c.0114-.31566-.1435-.54965-.25343-.71329s-.16942-.26-.16867-.36168c.00033-.0661.0767-.21546.18126-.33314.10456-.11769.20811-.19637.20811-.19637z"/>
  <path d="m292.60282 630.482s-.1458.10908-.2912.27273c-.14524.16348-.31893.38933-.32139.69986-.002.30445.15695.51985.26266.6772.1057.15735.16404.25422.15944.38182-.009.24106-.36504.47832-.36504.47832l.26769.49007s.63208-.30182.65539-.94825c.0114-.31566-.1435-.54965-.25343-.71329s-.16942-.26-.16867-.36168c.00033-.0661.0767-.21546.18126-.33314.10456-.11769.20811-.19637.20811-.19637z"/>
 </g>
</svg>
