<svg version="1.1" viewBox="0 0 16 16" xmlns="http://www.w3.org/2000/svg">
 <g transform="translate(-365 251)">
  <g fill="#bebebe">
   <path transform="matrix(-.013552 -5.6011e-5 -4.8996e-5 .015492 370.82 -246.49)" d="m345.44 248.29-194.29 194.28c-12.359 12.365-32.397 12.365-44.75 0-12.354-12.354-12.354-32.391 0-44.744l171.91-171.91-171.91-171.9c-12.354-12.359-12.354-32.394 0-44.748 12.354-12.359 32.391-12.359 44.75 0l194.29 194.28c6.177 6.18 9.262 14.271 9.262 22.366 0 8.099-3.091 16.196-9.267 22.373z"/>
   <path transform="matrix(.013552 5.6011e-5 4.8996e-5 -.015492 375.18 -239.51)" d="m345.44 248.29-194.29 194.28c-12.359 12.365-32.397 12.365-44.75 0-12.354-12.354-12.354-32.391 0-44.744l171.91-171.91-171.91-171.9c-12.354-12.359-12.354-32.394 0-44.748 12.354-12.359 32.391-12.359 44.75 0l194.29 194.28c6.177 6.18 9.262 14.271 9.262 22.366 0 8.099-3.091 16.196-9.267 22.373z"/>
   <circle transform="matrix(-.064329 -.99793 .99793 -.064329 0 0)" cx="208.81" cy="373.69" r="0"/>
   <text x="356.32224" y="-224.6696" font-family="sans-serif" font-size="20.899" letter-spacing="0" word-spacing="0" xml:space="preserve">
    <tspan x="356.32224" y="-224.6696" fill="#bebebe"/> 
   </text>
  </g>
  <path d="m373-239.5a3.5 3.5 0 0 1-3.5-3.5 3.5 3.5 0 0 1 3.5-3.5 3.5 3.5 0 0 1 3.5 3.5 3.5 3.5 0 0 1-3.5 3.5zm-0.0872-1.5313a0.4375 0.4375 0 0 0 0.4375-0.43749 0.4375 0.4375 0 0 0-0.4375-0.4375 0.4375 0.4375 0 0 0-0.4375 0.4375 0.4375 0.4375 0 0 0 0.4375 0.43749zm-0.047-1.3125h0.0932c0.15581 0 0.28198-0.12532 0.28198-0.28113v-2.0628c0-0.15581-0.12617-0.28112-0.28198-0.28112h-0.0932c-0.15581 0-0.28113 0.12531-0.28113 0.28112v2.0628c0 0.15581 0.12532 0.28113 0.28113 0.28113z" fill="#e74c3c" fill-rule="evenodd"/>
 </g>
</svg>
