<svg version="1.1" viewBox="0 0 16 16" xmlns="http://www.w3.org/2000/svg">
 <g fill="#bebebe">
  <circle transform="matrix(-.064329 -.99793 .99793 -.064329 0 0)" cx="-21.385" cy="-12.871" r="0"/>
  <text x="-16.888233" y="35.451305" font-family="sans-serif" font-size="35.826" letter-spacing="0" word-spacing="0" xml:space="preserve">
   <tspan x="-16.888233" y="35.451305" fill="#bebebe"/> 
  </text>
  <circle transform="matrix(-.064329 -.99793 .99793 -.064329 0 0)" cx="-7.9928" cy="-50.058" r="0"/>
  <text x="-52.602039" y="18.944498" font-family="sans-serif" font-size="20.899" letter-spacing="0" word-spacing="0" xml:space="preserve">
   <tspan x="-52.602039" y="18.944498" fill="#bebebe"/> 
  </text>
  <path d="m1.1245 8.3344 2.6234 3.0207c0.16688 0.19225 0.43843 0.19337 0.60644 0.0025 0.16802-0.1907 0.16901-0.50111 0.0022-0.69317l-2.3213-2.6728 2.3381-2.6535c0.16802-0.19077 0.16901-0.50115 0.0022-0.69323-0.16681-0.19216-0.43835-0.19328-0.60644-0.00251l-2.6425 2.999c-0.08401 0.095394-0.12622 0.22057-0.12661 0.34597-3.9698e-4 0.12547 0.04109 0.25108 0.12449 0.34712z"/>
  <path d="m14.875 7.6656-2.6234-3.0207c-0.16688-0.19225-0.43843-0.19337-0.60644-0.00251-0.16802 0.1907-0.16901 0.50111-0.0022 0.69317l2.3213 2.6728-2.3381 2.6535c-0.16802 0.19077-0.16901 0.50116-0.0022 0.69323 0.16681 0.19216 0.43835 0.19328 0.60644 0.0025l2.6425-2.999c0.08401-0.095394 0.12622-0.22057 0.12661-0.34597 3.97e-4 -0.12547-0.04109-0.25108-0.12449-0.34712z"/>
  <path d="m8 4.5a3.5 3.5 0 0 0 -3.5 3.5 3.5 3.5 0 0 0 3.5 3.5 3.5 3.5 0 0 0 3.5-3.5 3.5 3.5 0 0 0 -3.5-3.5zm-.0026 1.53125c.334284 0 .605799.095891.815186.2879638.209386.1885163.314453.4302403.314453.7254639 0 .1280488-.03531.2580427-.105102.3896485-.0698.1316056-.132033.2259262-.187135.2828371-.05143.053353-.124949.12313-.220458.2084958l-.02734.02649c-.224086.1956301-.336676.3914061-.336676.5870369v.212768h-.517822v-.250366c0-.160061.0353-.2971897.105102-.411011.0698-.1173778.192815-.2545065.369141-.4110107.09918-.088923.168943-.1547048.20935-.1973877.04408-.04624.08606-.1080272.126465-.1862792.04408-.081809.06665-.1658549.06665-.2512208 0-.1636179-.05557-.2951819-.165772-.3947754-.106529-.099593-.255026-.1495361-.446045-.1495361-.315916 0-.532718.1712319-.650269.5126953l-.474203-.1922616c.077142-.2027439.209993-.3842506.397338-.5443115.19102-.163618.433298-.2452393.727174-.2452393zm-.006 3.212036c.10653 0 .195097.03567.264892.106812.07347.07114.11023.155899.11023.255493 0 .09959-.03676.18521-.11023.256347-.06978.07114-.158345.106812-.264875.106812s-.196551-.03567-.27002-.106812c-.0698-.07114-.104251-.156754-.104251-.256347 0-.09959.03445-.184355.104248-.255493.07347-.07114.16349-.106812.27002-.106812z" fill-rule="evenodd"/>
 </g>
</svg>
