<?xml version="1.0" encoding="UTF-8" standalone="no"?>
<svg
   height="16"
   width="16"
   version="1.1"
   id="svg4"
   sodipodi:docname="network-cellular-no-route-rtl-symbolic.svg"
   inkscape:version="1.1.2 (0a00cf5339, 2022-02-04)"
   xmlns:inkscape="http://www.inkscape.org/namespaces/inkscape"
   xmlns:sodipodi="http://sodipodi.sourceforge.net/DTD/sodipodi-0.dtd"
   xmlns="http://www.w3.org/2000/svg"
   xmlns:svg="http://www.w3.org/2000/svg">
  <defs
     id="defs8" />
  <sodipodi:namedview
     id="namedview6"
     pagecolor="#ffffff"
     bordercolor="#666666"
     borderopacity="1.0"
     inkscape:pageshadow="2"
     inkscape:pageopacity="0.0"
     inkscape:pagecheckerboard="0"
     showgrid="false"
     inkscape:zoom="48.1875"
     inkscape:cx="8"
     inkscape:cy="8"
     inkscape:window-width="1904"
     inkscape:window-height="1011"
     inkscape:window-x="0"
     inkscape:window-y="32"
     inkscape:window-maximized="1"
     inkscape:current-layer="svg4" />
  <path
     id="path2"
     style="line-height:normal;font-variant-ligatures:normal;font-variant-position:normal;font-variant-caps:normal;font-variant-numeric:normal;font-variant-alternates:normal;font-feature-settings:normal;text-indent:0;text-align:start;text-decoration-line:none;text-decoration-style:solid;text-decoration-color:#000000;text-transform:none;text-orientation:mixed;shape-padding:0;isolation:auto;mix-blend-mode:normal;fill:#bebebe;fill-opacity:1;stroke-width:1.01992;marker:none"
     d="M 0.5 0.5 L 0.5 15.5 L 15.5 15.5 L 14.630859 14.628906 L 8.7324219 8.7324219 C 8.7121951 8.7713955 8.6909406 8.8096987 8.671875 8.8496094 C 8.516875 9.1596094 8.4394531 9.5133906 8.4394531 9.9003906 L 8.4394531 10.087891 C 8.4394531 10.111891 8.4482188 10.131297 8.4492188 10.154297 L 7.3613281 10.154297 C 7.3293281 9.9632969 7.3066406 9.7685469 7.3066406 9.5605469 A 2.378 2.378 0 0 1 7.4824219 8.6269531 A 3.66 3.66 0 0 1 7.9179688 7.9179688 L 0.5 0.5 z M 7.9179688 7.9179688 L 8.7324219 8.7324219 C 8.8713305 8.4647675 9.0356056 8.217602 9.2285156 7.9941406 L 9.2304688 7.9921875 C 9.4484687 7.7281875 9.6881719 7.4782812 9.9511719 7.2382812 A 7.23 7.23 0 0 0 10.652344 6.5039062 C 10.862344 6.2509062 11.036688 5.9822656 11.179688 5.6972656 C 11.317687 5.4092656 11.388672 5.0838438 11.388672 4.7148438 A 3.06 3.06 0 0 0 11.240234 3.8007812 L 11.240234 3.7988281 L 11.240234 3.796875 A 2.04 2.04 0 0 0 10.757812 2.9296875 C 10.523813 2.6746875 10.205781 2.4647813 9.8007812 2.3007812 L 9.8007812 2.2988281 C 9.4157813 2.1268281 8.9064375 2.0371094 8.2734375 2.0371094 L 8.2714844 2.0371094 C 7.7384844 2.0371094 7.2347656 2.0987031 6.7597656 2.2207031 A 5.853 5.853 0 0 0 5.5917969 2.6660156 L 4.9335938 3.1230469 L 5.5 4 L 5.9511719 3.6640625 C 6.6391719 3.3140625 7.3463594 3.1230469 8.0683594 3.1230469 C 8.6753594 3.1230469 9.1572813 3.2842344 9.4882812 3.6152344 C 9.8152812 3.9312344 9.9824219 4.3525625 9.9824219 4.8515625 C 9.9824219 5.1625625 9.909625 5.45375 9.765625 5.71875 C 9.635625 5.97675 9.4668125 6.2220781 9.2578125 6.4550781 C 9.0528125 6.6820781 8.837375 6.9097188 8.609375 7.1367188 L 8.609375 7.1386719 A 6.392 6.392 0 0 0 7.9765625 7.8378906 L 7.9746094 7.8398438 A 3.66 3.66 0 0 0 7.9179688 7.9179688 z M 8 12 L 8.0019531 12 C 8.3259156 12.000415 8.5625621 12.101197 8.7421875 12.300781 C 8.9281875 12.506781 9.0175781 12.737578 9.0175781 13.017578 C 9.0175781 13.295578 8.9281875 13.530328 8.7421875 13.736328 C 8.5611875 13.937328 8.325 14.035156 8 14.035156 C 7.675 14.035156 7.4378125 13.936328 7.2578125 13.736328 C 7.0718125 13.530328 6.9824219 13.296578 6.9824219 13.017578 A 1.025 1.025 0 0 1 7.2578125 12.300781 C 7.438442 12.101191 7.6750349 12.000409 8 12 z " />
</svg>
