<svg version="1.1" viewBox="0 0 16 16" xmlns="http://www.w3.org/2000/svg">
 <path d="m1.0004 3.0625-4.375e-4 9.9375c-8.837e-5 2 1.75 2 1.75 2h10.5c1.75 0 1.75-2 1.75-2v-10s1e-5 -2-1.75-2h-10.5s-1.7495 4.3e-4 -1.7496 2.0625zm1.7497-0.06248h3.5c0.58309 0.0162 1.0213 0.83815 0.76606 1.4375l-1.2031 2.7812c0.31026 0.11552 0.65549 0.19557 0.84766 0.4375 0.29083 0.36614 0.46484 0.8102 0.46484 1.3438v2c0 1.1124-0.7939 2-1.75 2h-2.625l-4.375e-4 -2h2.625v-2h-0.87456c-0.58309-0.0162-1.0209-0.83815-0.76562-1.4375l1.0938-2.5625h-2.0781zm8.75 0c1.75 0 1.75 2 1.75 2v1h-1.75v-1h-1.75v6h1.75v-2h-0.875l7e-4 -1.9688 1.7493-0.03125 0.8757 0.0312v3.9375c0 5.1e-5 -7e-4 2.0313-1.7507 2.0313l-1.7493-5e-5s-1.7507 5e-5 -1.7507-1.9999v-6c0-2 1.75-2 1.75-2z" fill="#bebebe" stroke-width=".93542"/>
</svg>
