<svg version="1.1" viewBox="0 0 24 24" xmlns="http://www.w3.org/2000/svg">
 <g transform="translate(3e-6 -1e-6)" fill="#bebebe" fill-opacity=".66667">
  <path d="m7 11c-.8284271 0-1 .447715-1 1s.1715729 1 1 1c.052869-.000306.1056774-.0025.1582031-.0065.038928.0014.075646.0065.1152344.0065h9.4531245c.03826 0 .07369-.0052.111329-.0065.05382.0041.107936.0063.162109.0065.828427 0 1-.447715 1-1s-.171573-1-1-1c-.05287.000306-.105677.0025-.158203.0065-.038928-.001415-.075646-.0065-.115235-.0065h-9.4531245c-.038257 0-.073688.0052-.1113281.0065-.0538208-.004117-.1079365-.006286-.1621094-.0065z"/>
  <path transform="matrix(-.023232 -9.6018e-5 -8.3994e-5 .026558 8.2595 6.0124)" d="m345.44 248.29-194.29 194.28c-12.359 12.365-32.397 12.365-44.75 0-12.354-12.354-12.354-32.391 0-44.744l171.91-171.91-171.91-171.9c-12.354-12.359-12.354-32.394 0-44.748 12.354-12.359 32.391-12.359 44.75 0l194.29 194.28c6.177 6.18 9.262 14.271 9.262 22.366 0 8.099-3.091 16.196-9.267 22.373z"/>
  <path transform="matrix(.023232 9.6018e-5 8.3994e-5 -.026558 15.741 17.988)" d="m345.44 248.29-194.29 194.28c-12.359 12.365-32.397 12.365-44.75 0-12.354-12.354-12.354-32.391 0-44.744l171.91-171.91-171.91-171.9c-12.354-12.359-12.354-32.394 0-44.748 12.354-12.359 32.391-12.359 44.75 0l194.29 194.28c6.177 6.18 9.262 14.271 9.262 22.366 0 8.099-3.091 16.196-9.267 22.373z"/>
 </g>
</svg>
