<svg version="1.1" viewBox="0 0 16 16" xmlns="http://www.w3.org/2000/svg">
 <path d="m8 1c-0.73831 0.72855-1.4427 1.5657-2.1931 2.2814h-2.5255v2.5255c-0.71586 0.75046-1.5527 1.4548-2.2814 2.1931 0.72861 0.73836 1.5656 1.4727 2.2814 2.2232v2.4973h2.5255c0.75046 0.71586 1.4548 1.5509 2.1931 2.2795 0.73836-0.72861 1.4727-1.5637 2.2232-2.2795l2.4954-0.0019v-2.4954c0.71586-0.75049 1.5527-1.4849 2.2814-2.2232-0.7286-0.73836-1.5656-1.4426-2.2814-2.1931v-2.5274l-2.4954 0.00192c-0.75047-0.71586-1.4849-1.5527-2.2232-2.2814z" fill="#bebebe"/>
</svg>
