<svg version="1.1" viewBox="0 0 16 16" xmlns="http://www.w3.org/2000/svg">
 <g fill="#bebebe">
  <path d="m8 2-4.8 1.5922v5.6c0 1.6573 1.2599 2.8174 2.35 3.575 1.0901 0.75754 2.45 1.2328 2.45 1.2328s1.3634-0.49338 2.45-1.2578c1.0866-0.76444 2.35-1.9146 2.35-3.55v-5.6zm0 1.6859 3.2 1.061v4.4453c0 0.81144-0.72405 1.5765-1.6703 2.2422-0.62029 0.43641-1.1458 0.62206-1.539 0.78594-0.39206-0.15902-0.90984-0.33753-1.5282-0.76718-0.93584-0.6504-1.6625-1.4146-1.6625-2.261v-4.4453l3.2-1.061z"/>
  <path d="m8 3.6859 3.2 1.061v4.4453c0 0.81144-0.72405 1.5765-1.6703 2.2422-0.62029 0.43641-1.1458 0.62206-1.539 0.78594-0.39206-0.15902-0.90984-0.33753-1.5282-0.76718-0.93584-0.6504-1.6625-1.4146-1.6625-2.261v-4.4453l3.2-1.061z" opacity=".35"/>
 </g>
</svg>
