<svg version="1.1" viewBox="0 0 16 16" xmlns="http://www.w3.org/2000/svg">
 <g fill="#bebebe">
  <path d="m12.286 2.5s1.7143 0 1.7143 1.6923h-12c0-1.6923 1.6875-1.6923 1.6875-1.6923zm1.7143 6.7692c0 1.6923-1.7143 1.6923-1.7143 1.6923h-0.85714l-1.7143 2.5385-1.7143-2.5385h-4.2857c-0.94971 0-1.7143-0.75477-1.7143-1.6923z" opacity=".35"/>
  <path d="m3.7143 5.0714c-0.94971 0-1.7143 0.76457-1.7143 1.7143 0 0.94971 0.76457 1.7143 1.7143 1.7143 0.94971 0 1.7143-0.76457 1.7143-1.7143 0-0.94971-0.76457-1.7143-1.7143-1.7143zm4.2857 0c-0.94971 0-1.7143 0.76457-1.7143 1.7143 0 0.94971 0.76457 1.7143 1.7143 1.7143s1.7143-0.76457 1.7143-1.7143c0-0.94971-0.76457-1.7143-1.7143-1.7143zm4.2857 0c-0.94971 0-1.7143 0.76457-1.7143 1.7143 0 0.94971 0.76457 1.7143 1.7143 1.7143s1.7143-0.76457 1.7143-1.7143c0-0.94971-0.76457-1.7143-1.7143-1.7143z"/>
 </g>
</svg>
