<svg version="1.1" viewBox="0 0 16 16" xmlns="http://www.w3.org/2000/svg">
 <path transform="translate(0 -2.2765)" d="m8 4c-1.574 0-2.8858 1.0301-3.375 2.4374-1.477 0.18716-2.625 1.4347-2.625 2.9626 0 1.6568 1.3432 3 3 3h6.6c1.3255 0 2.4-1.0745 2.4-2.4s-1.0745-2.4-2.4-2.4c0-1.9882-1.6118-3.6-3.6-3.6z" fill="#bebebe"/>
 <g transform="matrix(.58333 0 0 .58333 -266.06 211.76)">
  <ellipse transform="matrix(-.064329 -.99793 .99793 -.064329 0 0)" cx="314.33" cy="491.24" rx="6" ry="6" fill="url(#b)"/>
  <path d="m469.99822-348.54912c-.30124 0-.54297.2418-.54297.543v3.8223c0 .3013.24173.5429.54297.5429h.004c.30123 0 .54297-.2416.54297-.5429v-3.8223c0-.3012-.24174-.543-.54297-.543zm.002 6c-.30219 0-.54492.2428-.54492.545 0 .3021.24273.5449.54492.5449.30218 0 .54492-.2428.54492-.5449 0-.3022-.24274-.545-.54492-.545z" fill="#fff"/>
 </g>
</svg>
