<svg version="1.1" viewBox="0 0 16 16" xmlns="http://www.w3.org/2000/svg">
 <path d="m2 0c-1.1999 0-2 0.7984-2 2v9.875c0 1.2016 0.80008 2.125 2 2.125v-11.75c0-0.1238 0.0566-0.25 0.1875-0.25h11.625c0.1309 0 0.1875 0.1262 0.1875 0.25v3.75h2v-4c0-1.2016-0.80008-2-2-2h-12zm7 6v1h4v-1h-4zm-5 2c-0.55201 0-1 0.45004-1 1v6c0 0.54996 0.44799 1 1 1h10c0.55201 0 1-0.45004 1-1v-6c0-0.54996-0.44799-1-1-1h-10zm0 1h2v1h-2v-1zm7 0c1.6568 0 3 1.3432 3 3s-1.3432 3-3 3c-1.6569 0-3-1.3432-3-3s1.3431-3 3-3zm0 1c-1.1046 0-2 0.89543-2 2s0.89543 2 2 2c1.1046 0 2-0.89543 2-2s-0.89543-2-2-2z" fill="#bebebe"/>
</svg>
