<svg version="1.1" viewBox="0 0 16 16" xmlns="http://www.w3.org/2000/svg">
 <path d="m8 2a6 6 0 0 0-6 6 6 6 0 0 0 6 6 6 6 0 0 0 6-6 6 6 0 0 0-6-6zm-2.0428 3c0.69642 0.65779 1.3623 1.3477 2.0428 2.0217 0.68059-0.67403 1.3464-1.3638 2.0428-2.0217l0.95716 0.95716c-0.65782 0.69644-1.3477 1.3622-2.0217 2.0428 0.67403 0.68059 1.3638 1.3464 2.0217 2.0428l-0.95716 0.95716c-0.69644-0.65782-1.3622-1.3477-2.0428-2.0217-0.68058 0.67403-1.3464 1.3638-2.0428 2.0217l-0.95716-0.95716c0.65782-0.69644 1.3477-1.3622 2.0217-2.0428-0.67403-0.68059-1.3638-1.3464-2.0217-2.0428z" fill="#bebebe"/>
</svg>
