<svg version="1.1" viewBox="0 0 16 16" xmlns="http://www.w3.org/2000/svg">
 <path d="m3.0046 3.0003h1.2495c0.01666-1e-4 0.02665-6e-4 0.03832 0 0.31871 0.01419 0.63708 0.16067 0.85916 0.39061l2.8504 2.8515 2.8895-2.8515c0.33187-0.28811 0.55811-0.38187 0.85899-0.39061h1.2495v1.25c0 0.35808-0.04332 0.68829-0.31238 0.93747l-2.8504 2.8515 2.8114 2.8124c0.23508 0.23521 0.35137 0.5668 0.35137 0.89842v1.25h-1.2495c-0.33153-1.8e-5 -0.6629-0.11634-0.89814-0.35156l-2.8504-2.8515-2.8504 2.8515c-0.23524 0.23524-0.56661 0.35156-0.89815 0.35156h-1.2495v-1.25c0-0.33161 0.11662-0.66322 0.35136-0.89842l2.8506-2.8124-2.8506-2.8515c-0.26323-0.24329-0.37868-0.58655-0.35136-0.93747v-1.25z" color="#000000" enable-background="new" fill="#bebebe" stroke-width=".1" style="text-decoration-line:none;text-indent:0;text-transform:none"/>
</svg>
