<svg version="1.1" viewBox="0 0 16 16" xmlns="http://www.w3.org/2000/svg">
 <path d="m8 1.0918c0.19694 0 0.36778 0.071046 0.51172 0.21484l3.7832 3.7852h2.9785c0.19708 0 0.36583 0.071046 0.50976 0.21484 0.14394 0.14394 0.2168 0.31478 0.2168 0.51172v4.3633c0 0.19694-0.07286 0.36792-0.2168 0.51172-0.14408 0.14394-0.31283 0.2168-0.50976 0.2168h-2.9785l-0.18164 0.18359-4.8398-4.8398v-4.4355c0-0.19694 0.071045-0.36778 0.21484-0.51172 0.14408-0.1438 0.31464-0.21484 0.51172-0.21484zm-6.7012 0.62891 12.98 12.98a1.0198 1.0198 0 0 1-1.4434 0l-2.166-2.166-2.1582 2.1582c-0.14394 0.1438-0.31478 0.2168-0.51172 0.2168-0.19708 0-0.36778-0.073-0.51172-0.2168s-0.21484-0.31478-0.21484-0.51172v-5.043l-2.2949-2.2949c-0.049532 0.034176-0.09889 0.069059-0.14844 0.10547-0.12887 0.094703-0.23914 0.22814-0.33008 0.40234-0.09066 0.17434-0.13672 0.39083-0.13672 0.64844s0.045922 0.47409 0.13672 0.64844c0.09094 0.17434 0.2012 0.3075 0.33008 0.40234 0.12888 0.094703 0.25812 0.18222 0.38672 0.26172 0.12888 0.079361 0.23719 0.17344 0.32812 0.2832 0.09094 0.11005 0.13672 0.24516 0.13672 0.4043 0 0.20461-0.071047 0.37741-0.21484 0.51758-0.1438 0.14017-0.31478 0.20898-0.51172 0.20898-0.11353 0-0.20942-0.01898-0.28516-0.05664-0.53042-0.21242-0.9553-0.56625-1.2773-1.0625-0.32205-0.49611-0.48438-1.0317-0.48438-1.6074s0.16233-1.1133 0.48438-1.6133c0.15115-0.23458 0.32462-0.43789 0.52148-0.60742l-1.0156-1.0156c-0.40002 0.35694-0.7252 0.77766-0.97266 1.2637-0.31438 0.61746-0.4707 1.2757-0.4707 1.9727s0.15633 1.3532 0.4707 1.9707c0.31438 0.61759 0.75195 1.1319 1.3125 1.541 0.15147 0.11367 0.43914 0.28033 0.86328 0.5 0.29555 0.15161 0.44336 0.37438 0.44336 0.66992 0 0.19694-0.071046 0.36792-0.21484 0.51172-0.14408 0.14408-0.31883 0.21484-0.52344 0.21484-0.09094 0-0.18487-0.01898-0.2832-0.05664-1.0604-0.44716-1.9127-1.1596-2.5566-2.1406-0.64396-0.98093-0.9668-2.0518-0.9668-3.2109s0.32284-2.2295 0.9668-3.2109c0.26254-0.39993 0.56075-0.75327 0.89258-1.0645l-0.56055-0.56055a1.0198 1.0198 0 0 1 0-1.4434zm2.5195 0.86914c0.19694 0 0.36764 0.072859 0.51172 0.2168 0.1438 0.14394 0.21484 0.31478 0.21484 0.51172 0 0.065282-0.00902 0.12534-0.023438 0.18359l-0.88867-0.88867c0.061467-0.01475 0.12416-0.023437 0.18555-0.023437z" fill="#565656" fill-opacity=".34902" stroke-width=".13948"/>
</svg>
