<svg version="1.1" viewBox="0 0 16 16" xmlns="http://www.w3.org/2000/svg">
 <path d="m8 0.5c-2.7616 0-5 2.2385-5 5v5c0 2.7615 2.2384 5 5 5 0.3424 0 0.67694-0.034046 1-0.099609v-3.3008l-1.0957 0.87695c-0.086125 0.06904-0.19059 0.10352-0.29688 0.10352-0.07 0-0.13954-0.017408-0.20508-0.048828-0.16504-0.07921-0.27148-0.24271-0.27148-0.42578v-3.418l-1.4238 1.1484c-0.088084 0.071209-0.19565 0.10742-0.30078 0.10742-0.13879 0-0.277-0.061354-0.37109-0.17773-0.16529-0.20446-0.13023-0.50267 0.074219-0.66797l1.9727-1.5977-1.9727-1.5938c-0.20446-0.16529-0.23952-0.46741-0.074219-0.67188 0.16529-0.2045 0.46747-0.23556 0.67188-0.070312l1.4238 1.1523v-3.418c0-0.18309 0.10644-0.35048 0.27148-0.42969 0.082541-0.039604 0.17034-0.054948 0.25781-0.044922 0.087458 0.010025 0.17272 0.04431 0.24414 0.10156l2.9863 2.3945c0.11271 0.090334 0.17773 0.22667 0.17773 0.37109 0 0.14443-0.065024 0.28071-0.17773 0.37109l-2.2949 1.8379 2.2949 1.8379c0.11271 0.09034 0.17773 0.22663 0.17773 0.37109s-0.065024 0.28462-0.17773 0.375l-1.1426 0.91602h3.1523c0.065566-0.32306 0.099609-0.65758 0.099609-1v-5c0-2.7615-2.2386-5-5-5zm0.083984 3.8887v2.8027l1.7461-1.4004-1.7461-1.4023zm0 4.4199v2.8027l1.7461-1.4023-1.7461-1.4004z" fill="#bebebe"/>
 <path d="m12.708 12-1.4583 1.4583-1.4583-1.4583-0.29167 0.29167 1.4583 1.4583-1.4583 1.4583 0.29167 0.29167 1.4583-1.4583 1.4583 1.4583 0.29167-0.29167-1.4583-1.4583 1.4583-1.4583z" fill="#a6a6a6"/>
</svg>
