<svg version="1.1" viewBox="0 0 16 16" xmlns="http://www.w3.org/2000/svg">
 <g fill="#bebebe">
  <path x="1" y="8" width="13" height="1" d="m1.5 8h12a0.5 0.5 45 0 1 0.5 0.5 0.5 0.5 135 0 1-0.5 0.5h-12a0.5 0.5 45 0 1-0.5-0.5 0.5 0.5 135 0 1 0.5-0.5z" fill-rule="evenodd" stroke-linecap="round" stroke-width="2.8284"/>
  <path d="m7.5 0c-0.68752 0-1.276 0.3018-1.7656 0.9043-0.48961 0.60249-0.73438 1.3257-0.73438 2.1719v3.9238h5v-3.9238c0-0.8462-0.24467-1.5693-0.73438-2.1719-0.48951-0.60249-1.0781-0.9043-1.7656-0.9043zm-2.5 8c0 0.8462 0.24486 1.5715 0.73438 2.1738 0.48951 0.60237 1.0781 0.90234 1.7656 0.90234s1.2761-0.29997 1.7656-0.90234c0.48951-0.60237 0.73438-1.3276 0.73438-2.1738h-5z" stroke-width=".10638"/>
  <path d="m3.5 6.1543c-0.13549 0-0.25261 0.059844-0.35156 0.18164-0.098958 0.1218-0.14844 0.26695-0.14844 0.43359v0.23047h1v-0.23047c0-0.16664-0.04948-0.3118-0.14844-0.43359-0.098957-0.1218-0.21607-0.18164-0.35156-0.18164zm8 0c-0.1354 0-0.2526 0.059844-0.35156 0.18164-0.09896 0.1218-0.14844 0.26695-0.14844 0.43359v0.23047h1v-0.23047c0-0.16664-0.04939-0.31168-0.14844-0.43359-0.09877-0.1218-0.21617-0.18164-0.35156-0.18164zm-8.5 1.8457c0 1.4167 0.38418 2.6492 1.1523 3.6973 0.76817 1.048 1.7174 1.649 2.8477 1.8027v1.2695h-2c-0.1354 0-0.2526 0.059846-0.35156 0.18164-0.098957 0.1218-0.14844 0.26695-0.14844 0.43359 0 0.16653 0.04948 0.31192 0.14844 0.43359 0.098958 0.1218 0.21617 0.18164 0.35156 0.18164h5c0.1354 0 0.2528-0.059848 0.35156-0.18164 0.099051-0.12168 0.14844-0.26707 0.14844-0.43359 0-0.16664-0.049379-0.3118-0.14844-0.43359-0.09877-0.1218-0.21617-0.18164-0.35156-0.18164h-2v-1.2695c1.1301-0.15378 2.0794-0.75472 2.8477-1.8027 0.76826-1.048 1.1523-2.2806 1.1523-3.6973h-1c0 1.186-0.3425 2.2-1.0273 3.043-0.68474 0.84302-1.5091 1.2656-2.4727 1.2656s-1.7877-0.42261-2.4727-1.2656c-0.68484-0.84278-1.0273-1.857-1.0273-3.043h-1z" stroke-width=".10638"/>
 </g>
</svg>
