<svg version="1.1" viewBox="0 0 16.05 16" xmlns="http://www.w3.org/2000/svg">
 <g fill="#bebebe">
  <path d="m8 0c-0.68752 0-1.276 0.3018-1.7656 0.9043-0.48961 0.60249-0.73438 1.3257-0.73438 2.1719v4.9238c0 0.8462 0.24486 1.5715 0.73438 2.1738 0.48951 0.60237 1.0781 0.90234 1.7656 0.90234 0.36059 0 0.69389-0.08232 1-0.24805v-1.8281h1.3711c0.08602-0.31191 0.12891-0.64529 0.12891-1v-4.9238c0-0.8462-0.24467-1.5693-0.73438-2.1719-0.48951-0.60249-1.0781-0.9043-1.7656-0.9043z" fill="#bebebe" stroke-width=".10638"/>
  <path d="m4 6.1543c-0.13549 0-0.2526 0.059844-0.35156 0.18164-0.098957 0.1218-0.14844 0.26695-0.14844 0.43359v1.2305c0 1.4167 0.38418 2.6492 1.1523 3.6973 0.76817 1.048 1.7174 1.649 2.8477 1.8027v1.2695h-2c-0.1354 0-0.25261 0.05985-0.35156 0.18164-0.098958 0.1218-0.14844 0.26695-0.14844 0.43359 0 0.16653 0.04948 0.31192 0.14844 0.43359 0.098957 0.1218 0.21617 0.18164 0.35156 0.18164h3.5v-1.2305h-0.5v-1.2695c0.1708-0.02324 0.33747-0.05789 0.5-0.10156v-1.2598c-0.31478 0.11246-0.64804 0.16992-1 0.16992-0.96359 0-1.7877-0.42261-2.4727-1.2656-0.68484-0.84278-1.0273-1.857-1.0273-3.043v-1.2305c0-0.16664-0.04948-0.3118-0.14844-0.43359-0.098958-0.1218-0.21607-0.18164-0.35156-0.18164zm8 0c-0.1354 0-0.2526 0.059844-0.35156 0.18164-0.098957 0.1218-0.14844 0.26695-0.14844 0.43359v1.2305c0 0.34809-0.03084 0.68149-0.08984 1h1.0215c0.045425-0.32267 0.068355-0.65553 0.068355-1v-1.2305c0-0.16664-0.049384-0.31168-0.14844-0.43359-0.098766-0.1218-0.21617-0.18164-0.35156-0.18164z" fill="#bebebe" stroke-width=".10638"/>
  <path d="m10.502 9.795-0.707 0.707 0.353 0.354 4 4 0.354 0.353 0.707-0.707-4.354-4.354z" color="#000000" fill-rule="evenodd" overflow="visible" style="font-feature-settings:normal;font-variant-alternates:normal;font-variant-caps:normal;font-variant-ligatures:normal;font-variant-numeric:normal;font-variant-position:normal;isolation:auto;mix-blend-mode:normal;shape-padding:0;text-decoration-color:#000000;text-decoration-line:none;text-decoration-style:solid;text-indent:0;text-orientation:mixed;text-transform:none;white-space:normal"/>
  <path d="m14.502 9.795-4.707 4.707 0.707 0.707 0.354-0.353 4-4 0.353-0.354z" color="#000000" fill-rule="evenodd" overflow="visible" style="font-feature-settings:normal;font-variant-alternates:normal;font-variant-caps:normal;font-variant-ligatures:normal;font-variant-numeric:normal;font-variant-position:normal;isolation:auto;mix-blend-mode:normal;shape-padding:0;text-decoration-color:#000000;text-decoration-line:none;text-decoration-style:solid;text-indent:0;text-orientation:mixed;text-transform:none;white-space:normal"/>
 </g>
</svg>
