<svg version="1.1" viewBox="0 0 16 16" xmlns="http://www.w3.org/2000/svg">
 <path d="m15.5 0.5-4.2754 4.2754c-0.011518 0.32895-0.081353 0.62248-0.20703 0.88477-0.143 0.285-0.31734 0.55364-0.52734 0.80664a7.23 7.23 0 0 1-0.69922 0.73438c-0.263 0.24-0.5027 0.49186-0.7207 0.75586l-0.0019531 0.0019532c-0.221 0.256-0.40664 0.54147-0.55664 0.85547-0.155 0.31-0.23242 0.66183-0.23242 1.0488v0.1875c0 0.024 0.0087656 0.04536 0.0097656 0.06836h-1.0879c-0.032-0.191-0.056641-0.38575-0.056641-0.59375a2.378 2.378 0 0 1 0.14062-0.81055l-6.7852 6.7852h15v-15zm-8.2148 8.2148 3.9395-3.9395c0.00113-0.032252 0.001953-0.064707 0.001953-0.097656a3.06 3.06 0 0 0-0.14648-0.91406l-0.001953-0.0019531v-0.0019532a2.04 2.04 0 0 0-0.48047-0.86719c-0.234-0.255-0.55203-0.46491-0.95703-0.62891v-0.0019531c-0.385-0.172-0.8963-0.26172-1.5293-0.26172h-0.0019531c-0.533 0-1.0367 0.061594-1.5117 0.18359a5.853 5.853 0 0 0-1.166 0.44531l-0.6582 0.45898 0.56641 0.875 0.45117-0.33594c0.688-0.35 1.3932-0.53906 2.1152-0.53906 0.607 0 1.0909 0.15923 1.4219 0.49023 0.327 0.316 0.49219 0.73733 0.49219 1.2363 0 0.311-0.072797 0.60219-0.2168 0.86719-0.13 0.258-0.29881 0.50333-0.50781 0.73633-0.205 0.227-0.42044 0.45464-0.64844 0.68164v0.0019531a6.392 6.392 0 0 0-0.63281 0.69922v0.0019532a3.66 3.66 0 0 0-0.49219 0.78711 2.378 2.378 0 0 0-0.037109 0.125zm0.55469 3.248c0.325 0 0.56219 0.10078 0.74219 0.30078 0.186 0.206 0.27539 0.43875 0.27539 0.71875 0 0.278-0.089391 0.5108-0.27539 0.7168-0.181 0.201-0.41719 0.30078-0.74219 0.30078s-0.56219-0.10078-0.74219-0.30078c-0.186-0.206-0.27539-0.4378-0.27539-0.7168a1.025 1.025 0 0 1 0.27539-0.71875c0.181-0.2 0.41619-0.30078 0.74219-0.30078z" fill="#bebebe" stroke-width="1.0714"/>
</svg>
