<svg version="1.1" viewBox="0 0 16 16" xmlns="http://www.w3.org/2000/svg">
 <path d="m2.8052 1a1.792 1.792 0 0 0-1.8051 1.8051v10.39c0 1.0071 0.79799 1.8051 1.8051 1.8051h10.39a1.792 1.792 0 0 0 1.8051-1.8051v-10.39a1.792 1.792 0 0 0-1.8051-1.8051zm1.6949 2.625h0.87499s0.40162-0.01225 0.82862 0.20125c0.42787 0.21437 0.92137 0.81987 0.92137 1.5487v1.75a0.87499 0.87499 0 0 1-0.175 0.525l-2.2312 2.975h2.4062v1.75h-4.375v-1.75a0.87499 0.87499 0 0 1 0.175-0.525l2.45-3.2672v-1.4577h-0.87499v1.75h-1.75v-1.75c0-0.72887 0.4935-1.3344 0.92137-1.5487 0.42612-0.2135 0.82862-0.20125 0.82862-0.20125zm5.25 0h1.75c0.72887 0 1.3344 0.4935 1.5487 0.92137 0.2135 0.427 0.20125 0.82862 0.20125 0.82862v0.87499h-1.75v-0.87499h-1.75v5.25h1.75v-1.75h-0.87499v-1.75h2.625v3.5s0.01225 0.40162-0.20125 0.82862c-0.21437 0.42787-0.81987 0.92137-1.5487 0.92137h-1.75s-0.40162 0.01225-0.82862-0.20125c-0.42787-0.21437-0.92137-0.81987-0.92137-1.5487v-5.25s-0.01225-0.40162 0.20125-0.82862c0.21437-0.42787 0.81987-0.92137 1.5487-0.92137z" fill="#bebebe" stroke-width=".87499"/>
</svg>
