<svg version="1.1" viewBox="0 0 16 16" xmlns="http://www.w3.org/2000/svg">
 <path d="m0.5 0.5v15h15l-0.86914-0.87109-5.8984-5.8965c-0.020227 0.038974-0.041481 0.077277-0.060547 0.11719-0.155 0.31-0.23242 0.66378-0.23242 1.0508v0.1875c0 0.024 0.0087657 0.043406 0.0097657 0.066406h-1.0879c-0.032-0.191-0.054688-0.38575-0.054688-0.59375a2.378 2.378 0 0 1 0.17578-0.93359 3.66 3.66 0 0 1 0.43555-0.70898l-7.418-7.418zm7.418 7.418 0.81445 0.81445c0.13891-0.26765 0.30318-0.51482 0.49609-0.73828l0.0019532-0.0019531c0.218-0.264 0.4577-0.51391 0.7207-0.75391a7.23 7.23 0 0 0 0.70117-0.73438c0.21-0.253 0.38434-0.52164 0.52734-0.80664 0.138-0.288 0.20898-0.61342 0.20898-0.98242a3.06 3.06 0 0 0-0.14844-0.91406v-0.0039062a2.04 2.04 0 0 0-0.48242-0.86719c-0.234-0.255-0.55203-0.46491-0.95703-0.62891v-0.0019531c-0.385-0.172-0.89434-0.26172-1.5273-0.26172h-0.0019531c-0.533 0-1.0367 0.061594-1.5117 0.18359a5.853 5.853 0 0 0-1.168 0.44531l-0.6582 0.45703 0.56641 0.87695 0.45117-0.33594c0.688-0.35 1.3952-0.54102 2.1172-0.54102 0.607 0 1.0889 0.16119 1.4199 0.49219 0.327 0.316 0.49414 0.73733 0.49414 1.2363 0 0.311-0.072797 0.60219-0.2168 0.86719-0.13 0.258-0.29881 0.50333-0.50781 0.73633-0.205 0.227-0.42044 0.45464-0.64844 0.68164v0.0019531a6.392 6.392 0 0 0-0.63281 0.69922l-0.0019531 0.0019532a3.66 3.66 0 0 0-0.056641 0.078125zm0.082031 4.082h0.0019531c0.32396 4.15e-4 0.56061 0.1012 0.74023 0.30078 0.186 0.206 0.27539 0.4368 0.27539 0.7168 0 0.278-0.089391 0.51275-0.27539 0.71875-0.181 0.201-0.41719 0.29883-0.74219 0.29883s-0.56219-0.098828-0.74219-0.29883c-0.186-0.206-0.27539-0.43975-0.27539-0.71875a1.025 1.025 0 0 1 0.27539-0.7168c0.18063-0.19959 0.41722-0.30037 0.74219-0.30078z" fill="#bebebe" stroke-width="1.0199" style="font-feature-settings:normal;font-variant-alternates:normal;font-variant-caps:normal;font-variant-ligatures:normal;font-variant-numeric:normal;font-variant-position:normal;isolation:auto;mix-blend-mode:normal;shape-padding:0;text-decoration-color:#000000;text-decoration-line:none;text-decoration-style:solid;text-indent:0;text-orientation:mixed;text-transform:none"/>
</svg>
