<svg version="1.1" viewBox="0 0 16 16" xmlns="http://www.w3.org/2000/svg">
 <g transform="translate(-445 435)">
  <path d="m457.2-427.97a0.7619 0.7619 0 0 0 0.7619-0.76191c0-0.42286-0.34286-0.76191-0.7619-0.76191a0.7619 0.7619 0 0 0-0.76191 0.76191 0.7619 0.7619 0 0 0 0.76191 0.76191m2.2857-3.4286a0.7619 0.7619 0 0 1 0.76191 0.7619v3.8095a0.7619 0.7619 0 0 1-0.76191 0.7619h-4.5714a0.7619 0.7619 0 0 1-0.7619-0.7619v-3.8095c0-0.42285 0.34285-0.7619 0.7619-0.7619h0.38095v-0.76191a1.9048 1.9048 0 0 1 1.9048-1.9048 1.9048 1.9048 0 0 1 1.9048 1.9048v0.76191zm-2.2857-1.9048a1.1429 1.1429 0 0 0-1.1429 1.1428v0.76191h2.2857v-0.76191a1.1429 1.1429 0 0 0-1.1428-1.1428z" fill="#bebebe" stroke-width=".38095"/>
 </g>
</svg>
