<svg version="1.1" viewBox="0 0 16 16" xmlns="http://www.w3.org/2000/svg">
 <path d="m7.8014 5.257e-5c-1.7441 0-2.9076 0.89236-3.5112 2.1004-0.60461 1.2081-0.77116 2.6894-0.91517 4.1272s-0.26193 2.8426-0.60937 3.7924c-0.064482 0.17606-0.13834 0.32942-0.21651 0.47098l1.6831-1.6831c0.12924-0.79582 0.1984-1.6374 0.28124-2.4665 0.14172-1.4195 0.33274-2.795 0.80133-3.7299 0.46517-0.9349 1.0865-1.4688 2.4866-1.4688 1.399 0 2.0214 0.53378 2.4888 1.4688 0.01515 0.030296 0.02784 0.064775 0.04241 0.095981l0.85044-0.85044c-0.63633-1.0839-1.7576-1.8571-3.3817-1.8571zm6.8883 0.03125-14.286 14.286 0.80803 0.80803 2.5536-2.5536h10.893v-1.1428c-0.53717 0-0.87405-0.13307-1.1496-0.35937-0.27431-0.22744-0.49814-0.57478-0.67187-1.0491-0.34745-0.94861-0.46537-2.3546-0.60937-3.7924-0.06293-0.62829-0.13067-1.2633-0.2366-1.8817l3.5067-3.5067-0.80803-0.80803zm-3.7098 5.3259c0.04138 0.32286 0.07614 0.65145 0.10937 0.98437 0.14172 1.4195 0.24082 2.8761 0.67857 4.0691 0.14401 0.39545 0.42157 0.6967 0.67187 1.0178h-7.5312l6.0714-6.0714zm-5.4911 8.3571c0.014298 1.267 1.0455 2.2857 2.3124 2.2857 1.2671 0 2.2982-1.0187 2.3124-2.2857h-4.625z" fill="#bebebe" stroke-width="1.1428" style="font-feature-settings:normal;font-variant-alternates:normal;font-variant-caps:normal;font-variant-east-asian:normal;font-variant-ligatures:normal;font-variant-numeric:normal;font-variant-position:normal;font-variation-settings:normal;inline-size:0;isolation:auto;mix-blend-mode:normal;shape-margin:0;shape-padding:0;text-decoration-color:#000000;text-decoration-line:none;text-decoration-style:solid;text-indent:0;text-orientation:mixed;text-transform:none;white-space:normal"/>
</svg>
