<svg version="1.1" viewBox="0 0 16 16" xmlns="http://www.w3.org/2000/svg">
 <path d="m13.223 2.0003-2.295 2.295c-0.44229-0.60158-1.076-1.0487-1.8193-1.2414 2.812e-4 -0.00892 0-0.016895 0-0.025889 0-0.45909-0.36959-0.82868-0.82868-0.82868s-0.82868 0.36959-0.82868 0.82868c0 9e-3 -2.82e-4 0.01697 0 0.025889-1.432 0.37131-2.486 1.6683-2.486 3.237 0 0.01765-2.653e-4 0.034204 0 0.051794 0 1.6617 5.726e-4 4.9721-1.4761 4.9721-0.098375 0-0.18128 0.0924-0.18128 0.20717v0.3933l-1.3078 1.3078 0.77527 0.77689 11.225-11.225-0.77689-0.77527zm-1.6283 4.2875-5.8575 5.8558h7.3335c0.09838 0 0.18128-0.0924 0.18128-0.20717v-0.41434c0-0.11476-0.0829-0.20717-0.18128-0.20717-1.4825 0-1.4761-3.3107-1.4761-4.9721 2.66e-4 -0.017575 0-0.034166 0-0.051794v-0.00324zm-4.8685 6.6845c0.22642 0.4843 0.83071 0.82868 1.5538 0.82868 0.72307 0 1.3274-0.34438 1.5538-0.82868z" fill="#bebebe" opacity=".4" stroke-width=".99998"/>
</svg>
