<svg version="1.1" viewBox="0 0 16 16" xmlns="http://www.w3.org/2000/svg">
 <g fill="#bebebe">
  <circle transform="matrix(-.064329 -.99793 .99793 -.064329 0 0)" cx="-13.67" cy="12.54" r="0"/>
  <text x="10.232385" y="20.583439" font-family="sans-serif" font-size="20.899" letter-spacing="0" word-spacing="0" xml:space="preserve">
   <tspan x="10.232385" y="20.583439" fill="#bebebe"/> 
  </text>
  <path d="m2.75 5c-.413782 0-.75.3361685-.75.75v3.75c0 .4145985.3361933.75.75.75h1.5v3c0 .414599.3361933.75.75.75h6c.414623 0 .75-.335401.75-.75v-3h1.5c.414475 0 .75-.3354015.75-.75v-3.75c0-.4138315-.33555-.75-.75-.75zm9.75.75c.414623 0 .75.3361933.75.75.000025.4145487-.335377.75-.75.75-.414598 0-.75-.3354266-.75-.75 0-.4137821.335402-.75.75-.75zm-7.5 3.75h5.802568v3.75h-5.802568zm0-7.5c-.413782 0-.75.3361933-.75.75v1.5h.75v-1.5h6v1.5h.75v-1.5c0-.4138067-.335377-.75-.75-.75z"/>
 </g>
 <path d="m11.352 14.559a3.5 3.5 0 0 1-3.5-3.5 3.5 3.5 0 0 1 3.5-3.5 3.5 3.5 0 0 1 3.5 3.5 3.5 3.5 0 0 1-3.5 3.5zm-0.0872-1.5313a0.4375 0.4375 0 0 0 0.4375-0.43749 0.4375 0.4375 0 0 0-0.4375-0.4375 0.4375 0.4375 0 0 0-0.4375 0.4375 0.4375 0.4375 0 0 0 0.4375 0.43749zm-0.047-1.3125h0.0932c0.15581 0 0.28198-0.12532 0.28198-0.28113v-2.0628c0-0.15581-0.12617-0.28112-0.28198-0.28112h-0.0932c-0.15581 0-0.28113 0.12531-0.28113 0.28112v2.0628c0 0.15581 0.12532 0.28113 0.28113 0.28113z" fill="#e74c3c" fill-rule="evenodd"/>
</svg>
