<svg version="1.1" viewBox="0 0 16 16" xmlns="http://www.w3.org/2000/svg">
 <g fill="#bebebe">
  <circle transform="matrix(-.064329 -.99793 .99793 -.064329 0 0)" cx="-13.67" cy="12.54" r="0"/>
  <text x="10.232381" y="20.583155" font-family="sans-serif" font-size="20.899" letter-spacing="0" word-spacing="0" xml:space="preserve">
   <tspan x="10.232381" y="20.583155" fill="#bebebe"/> 
  </text>
  <path d="m2.75 4.999715c-.41378 0-.75.33617-.75.75v3.75c0 .4146.33619.75.75.75h1.5v3.000002c0 .414599.33619.75.75.75h6c.41462 0 .75-.335401.75-.75v-3.000002h1.5c.41447 0 .75-.3354.75-.75v-3.75c0-.41383-.33555-.75-.75-.75zm9.75.75c.41462 0 .75.33619.75.75.00002.41455-.33538.75-.75.75-.4146 0-.75-.33543-.75-.75 0-.41378.3354-.75.75-.75zm-7.5 3.75h5.80257v3.750002h-5.80257zm0-7.5c-.41378 0-.75.33619-.75.75v1.5h.75v-1.5h6v1.5h.75v-1.5c0-.41381-.33538-.75-.75-.75z"/>
 </g>
 <path d="m11.352 14.559a3.5 3.5 0 0 1-3.5-3.5 3.5 3.5 0 0 1 3.5-3.5 3.5 3.5 0 0 1 3.5 3.5 3.5 3.5 0 0 1-3.5 3.5zm-0.0872-1.5313a0.4375 0.4375 0 0 0 0.4375-0.43749 0.4375 0.4375 0 0 0-0.4375-0.4375 0.4375 0.4375 0 0 0-0.4375 0.4375 0.4375 0.4375 0 0 0 0.4375 0.43749zm-0.047-1.3125h0.0932c0.15581 0 0.28198-0.12532 0.28198-0.28113v-2.0628c0-0.15581-0.12617-0.28112-0.28198-0.28112h-0.0932c-0.15581 0-0.28113 0.12531-0.28113 0.28112v2.0628c0 0.15581 0.12532 0.28113 0.28113 0.28113z" fill="#f67d42" fill-rule="evenodd"/>
</svg>
