<svg version="1.1" viewBox="0 0 16 16" xmlns="http://www.w3.org/2000/svg">
 <g transform="translate(-525.02 275)">
  <path d="m533.02-272.99c-2.3838-0.0303-4.6716 1.5254-5.5537 3.7341-0.90443 2.1211-0.41023 4.736 1.199 6.3858 1.1074 1.1758 2.7071 1.8674 4.3229 1.8626v-1.7132c-1.9682 0.0297-3.8104-1.4815-4.1731-3.4147-0.43154-1.9349 0.70373-4.0525 2.5352-4.8002 1.786-0.8001 4.0606-0.15536 5.1658 1.4608 0.51327 0.7177 0.79289 1.5981 0.78942 2.4803 0.56938-3e-3 1.1477 4e-3 1.7115-3e-3 0.0327-2.3556-1.4813-4.6273-3.6586-5.5196-0.73676-0.31383-1.541-0.4705-2.3384-0.47243z" fill="#bebebe"/>
 </g>
</svg>
