<svg version="1.1" viewBox="0 0 16.001 16" xmlns="http://www.w3.org/2000/svg">
 <g fill="#bebebe">
  <path d="m11.254 1.8374a1.322 1.322 0 0 0-1.3223 1.3223v0.26367a0.52881 0.52881 0 0 0-0.5293 0.5293v2.1152a0.52881 0.52881 0 0 0 0.5293 0.5293h2.6445a0.52881 0.52881 0 0 0 0.5293-0.5293v-2.1152a0.52881 0.52881 0 0 0-0.5293-0.5293v-0.26367a1.322 1.322 0 0 0-1.3223-1.3223zm0 0.42383c0.49708 0 0.89844 0.40136 0.89844 0.89844v0.26367h-1.7969v-0.26367c0-0.49708 0.40136-0.89844 0.89844-0.89844z"/>
  <path d="m13.766 8.5902-1.359-1.359-0.74562 0.74562 1.1792 1.174-2.9984 2.9984-5.9914-5.9914 2.9983-2.9984 1.1105 1.1158 0.74562-0.74562-1.2956-1.2956c-0.31199-0.312-0.81437-0.312-1.1211 0l-3.3632 3.3632c-0.312 0.312-0.312 0.81437 0 1.1211l6.3563 6.3563c0.312 0.312 0.81437 0.312 1.1211 0l3.3632-3.3632c0.312-0.312 0.312-0.81437 0-1.1211zm-7.8158 4.0877c-1.7292-0.82493-2.9666-2.5066-3.157-4.4949h-0.79322c0.26441 3.2575 2.9931 5.8169 6.3193 5.8169l0.34901-0.0159-2.0148-2.02-0.70332 0.71389" opacity=".35"/>
 </g>
</svg>
