<svg version="1.1" viewBox="0 0 16 16" xmlns="http://www.w3.org/2000/svg">
 <path d="m5.9502 12.678c-1.7292-0.82493-2.9666-2.5065-3.157-4.4949h-0.79322c0.26441 3.2575 2.9931 5.8169 6.3193 5.8169l0.34901-0.0159-2.0148-2.02-0.70332 0.71389m1.4595-10.444c-0.31199-0.312-0.81437-0.312-1.1211 0l-3.3632 3.3632c-0.312 0.312-0.312 0.81437 0 1.1211l6.3563 6.3563c0.312 0.312 0.81437 0.312 1.1211 0l3.3632-3.3632c0.312-0.312 0.312-0.81437 0-1.1211l-6.3563-6.3563zm5.4309 6.9168-2.9984 2.9983-5.9914-5.9914 2.9983-2.9984c1.9932 2.001 3.9925 3.996 5.9914 5.9914z" fill="#bebebe"/>
</svg>
