<svg version="1.1" viewBox="0 0 16 16" xmlns="http://www.w3.org/2000/svg">
 <path d="m8 2c-0.63283 0.62447-1.2366 1.342-1.8798 1.9555h-2.1647v2.1647c-0.61359 0.64325-1.3309 1.247-1.9555 1.8798 0.62452 0.63288 1.3419 1.2623 1.9555 1.9056v2.1406h2.1647c0.64325 0.61359 1.247 1.3293 1.8798 1.9539 0.63288-0.62452 1.2623-1.3403 1.9056-1.9539l2.139-2e-3v-2.1389c0.61359-0.64326 1.3309-1.2727 1.9555-1.9056-0.62452-0.63289-1.3419-1.2365-1.9555-1.8798v-2.1663l-2.139 2e-3c-0.64326-0.61359-1.2727-1.3309-1.9056-1.9555zm0 2.8294 2.1116 3.1674h-1.2876v3.3476l-1.6481-0.0257v-3.3219h-1.2876c0.96092-1.4028 1.8501-2.7653 2.1116-3.1674z" fill="#bebebe"/>
</svg>
