<svg version="1.1" viewBox="0 0 16 16.003" xmlns="http://www.w3.org/2000/svg">
 <g transform="translate(-385.03 235)">
  <g fill="#bebebe">
   <circle transform="matrix(-.064329 -.99793 .99793 -.064329 0 0)" cx="197.24" cy="394.25" r="0"/>
   <path d="m396.03166-228.2h-6v-1.2h6m0 3.6h-6v-1.2h6m-1.8 3.6h-4.2v-1.2h4.2m-1.2-7.2a.6.6 0 0 1 .6.6.6.6 0 0 1 -.6.6.6.6 0 0 1 -.6-.6.6.6 0 0 1 .6-.6m4.2 0h-2.508c-.252-.696-.912-1.2-1.692-1.2s-1.44.504-1.692 1.2h-2.508a1.2 1.2 0 0 0 -1.2 1.2v8.4a1.2 1.2 0 0 0 1.2 1.2h8.4a1.2 1.2 0 0 0 1.2-1.2v-8.4a1.2 1.2 0 0 0 -1.2-1.2z"/>
  </g>
  <path d="m396.45-219.47a3.5 3.5 0 0 1-3.5-3.5 3.5 3.5 0 0 1 3.5-3.5 3.5 3.5 0 0 1 3.5 3.5 3.5 3.5 0 0 1-3.5 3.5zm-0.0872-1.5313a0.4375 0.4375 0 0 0 0.4375-0.43749 0.4375 0.4375 0 0 0-0.4375-0.4375 0.4375 0.4375 0 0 0-0.4375 0.4375 0.4375 0.4375 0 0 0 0.4375 0.43749zm-0.047-1.3125h0.0932c0.15581 0 0.28198-0.12532 0.28198-0.28113v-2.0628c0-0.15581-0.12617-0.28112-0.28198-0.28112h-0.0932c-0.15581 0-0.28113 0.12531-0.28113 0.28112v2.0628c0 0.15581 0.12532 0.28113 0.28113 0.28113z" fill="#f67d42" fill-rule="evenodd"/>
 </g>
</svg>
