<svg version="1.1" viewBox="0 0 16 16" xmlns="http://www.w3.org/2000/svg">
 <g fill="#bebebe">
  <path d="m7.6680848 12.312695-.718762-1.243813-.718761 1.243813c-.32306.508486-.40271 1.024617 0 1.432425.209002.219197.463882.25488.718761.25488.25488 0 .50976-.03568.718762-.25488.40271-.407808.368917-.861821 0-1.432425z"/>
  <path d="m4.7273 10.857a0.54545 0.57143 0 0 1 0.54545 0.57143 0.54545 0.57143 0 0 1-0.54545 0.57143 2.7273 2.8571 0 0 1-2.7273-2.8571 2.7273 2.8571 0 0 1 2.7273-2.8571c0.54545-1.3429 1.8-2.2857 3.2727-2.2857 1.8709 0 3.4036 1.52 3.5455 3.4457l0.27273-0.017143a2.1818 2.2857 0 0 1 2.1818 2.2857 2.1818 2.2857 0 0 1-2.1818 2.2857h-0.54546a0.54545 0.57143 0 0 1-0.54545-0.57143 0.54545 0.57143 0 0 1 0.54545-0.57143h0.54546a1.0909 1.1429 0 0 0 1.0909-1.1429 1.0909 1.1429 0 0 0-1.0909-1.1429h-1.0909v-0.57143a2.7273 2.8571 0 0 0-2.7273-2.8571c-1.3636 0-2.4818 1.04-2.6945 2.3943-0.18-0.068572-0.37636-0.10857-0.57818-0.10857a1.6364 1.7143 0 0 0-1.6364 1.7143 1.6364 1.7143 0 0 0 1.6364 1.7143"/>
  <path d="m9.6681 10.875-0.71876-1.2438-0.71876 1.2438c-0.32306 0.50849-0.40271 1.0246 0 1.4324 0.209 0.2192 0.46388 0.25488 0.71876 0.25488s0.50976-0.03568 0.71876-0.25488c0.40271-0.40781 0.36892-0.86182 0-1.4324z"/>
 </g>
</svg>
