<svg version="1.1" viewBox="0 0 16 16" xmlns="http://www.w3.org/2000/svg">
 <g fill="#bebebe">
  <path d="m9.4817 7.4028c-1.1853 0-2.1731 0.77838-2.5415 1.8418-1.1122 0.14143-1.9767 1.0841-1.9767 2.2385 0 1.252 1.0115 2.2669 2.2591 2.2669h4.9701c0.99815 0 1.8073-0.81193 1.8073-1.8135 0-1.0016-0.80916-1.8135-1.8073-1.8135 0-1.5023-1.2137-2.7203-2.711-2.7203z"/>
  <path d="m6.6954 4.9702c1.4972 0 2.711 1.2179 2.711 2.7202s-1.2137 2.7202-2.711 2.7202c-1.4972 0-2.711-1.2179-2.711-2.7202s1.2137-2.7202 2.711-2.7202m0-2.7202 1.2958 1.8607c-0.40122-0.14689-0.8404-0.2285-1.2958-0.2285s-0.89462 0.081608-1.2958 0.2285zm-4.6954 2.7202 2.2555-0.19042c-0.32532 0.27747-0.6181 0.61478-0.84582 1.0065-0.23857 0.4026-0.37411 0.81607-0.45002 1.2459zm0.010844 5.4405 0.95426-2.0511c0.075907 0.41892 0.2223 0.84328 0.45002 1.235 0.22772 0.4026 0.52051 0.73991 0.8404 1.0174l-2.2447-0.2013m9.3745-5.4405-0.95968 2.0619c-0.075907-0.4298-0.2223-0.84872-0.45002-1.2459-0.22772-0.39172-0.51508-0.73447-0.8404-1.0119zm-0.0054 5.4405-2.2447 0.19586c0.31987-0.27747 0.60723-0.62022 0.83496-1.0119 0.22772-0.39716 0.37411-0.81607 0.45002-1.2459l0.95968 2.0619m-4.6846 2.7202-1.3067-1.8715c0.40122 0.14689 0.8404 0.23938 1.3067 0.23938 0.4446 0 0.88378-0.09248 1.285-0.23938z" opacity=".666"/>
 </g>
</svg>
