<svg version="1.1" viewBox="0 0 16 16" xmlns="http://www.w3.org/2000/svg">
 <g fill="#bebebe">
  <path d="m4.7273 8.8571a0.54545 0.57143 0 0 1 0.54545 0.57143 0.54545 0.57143 0 0 1-0.54545 0.57143 2.7273 2.8571 0 0 1-2.7273-2.8571 2.7273 2.8571 0 0 1 2.7273-2.8571c0.54545-1.3429 1.8-2.2857 3.2727-2.2857 1.8709 0 3.4036 1.52 3.5455 3.4457l0.27273-0.017143a2.1818 2.2857 0 0 1 2.1818 2.2857 2.1818 2.2857 0 0 1-2.1818 2.2857h-0.54546a0.54545 0.57143 0 0 1-0.54545-0.57143 0.54545 0.57143 0 0 1 0.54545-0.57143h0.54546a1.0909 1.1429 0 0 0 1.0909-1.1429 1.0909 1.1429 0 0 0-1.0909-1.1429h-1.0909v-0.57143a2.7273 2.8571 0 0 0-2.7273-2.8571c-1.3636 0-2.4818 1.04-2.6945 2.3943-0.18-0.068572-0.37636-0.10857-0.57818-0.10857a1.6364 1.7143 0 0 0-1.6364 1.7143 1.6364 1.7143 0 0 0 1.6364 1.7143"/>
  <path d="m5.3880015 10.709977.5628597-.146498-.4137923-.416363c-.1002375-.09766-.1002375-.2621535 0-.3649597.1002374-.1002374.2672949-.1002374.3649598 0l.4163623.4137927.1464987-.5628613c.035975-.1387875.1773399-.2184612.3135573-.18248.1387875.035987.2184612.17734.1824799.3161274l-.1516386.5628609.5628609-.151639c.1387875-.03597.2801449.04369.3161274.18248.035975.136218-.043687.277577-.1824799.313558l-.562861.146499.4137923.416362c.1002375.09766.1002375.264725 0 .36496-.1002374.100238-.2672949.100238-.3649598 0l-.4163623-.413792-.1464987.56286c-.035988.138788-.1773387.218462-.3135561.182481-.1387887-.03599-.2184624-.17734-.1824799-.316128l.1516374-.562861-.562861.151639c-.1387874.03597-.2801448-.04369-.3161273-.18248-.035988-.136218.043687-.277576.1824812-.313558z" opacity=".5"/>
  <path d="m8.4180811 12.09193.5628597-.146499-.4137923-.416362c-.1002375-.09766-.1002375-.262154 0-.36496.1002374-.100237.2672949-.100237.3649598 0l.4163623.413792.1464987-.562861c.035975-.138787.1773399-.218461.3135578-.18248.138787.03599.2184609.17734.182479.316128l-.151638.562861.5628609-.151639c.138787-.03598.280145.04369.316127.18248.03597.136217-.04369.277576-.18248.313557l-.5628609.146499.4137929.416362c.100237.09766.100237.264725 0 .36496-.100238.100238-.267295.100238-.36496 0l-.4163625-.413792-.1464987.56286c-.0359875.138788-.1773387.218462-.3135561.182481-.1387887-.035988-.2184624-.17734-.1824799-.316128l.1516374-.562861-.562861.151639c-.1387874.03597-.2801448-.04369-.3161273-.18248-.035987-.136217.043688-.277576.1824812-.313557z" opacity=".5"/>
  <path d="m7.903 8.9847 0.56286-0.1465-0.41379-0.41636c-0.10024-0.097662-0.10024-0.26215 0-0.36496 0.10024-0.10024 0.26729-0.10024 0.36496 0l0.41636 0.41379 0.1465-0.56286c0.035975-0.13879 0.17734-0.21846 0.31356-0.18248 0.13879 0.035988 0.21846 0.17734 0.18248 0.31613l-0.15164 0.56286 0.56286-0.15164c0.13879-0.035975 0.28014 0.043687 0.31613 0.18248 0.03598 0.13622-0.04369 0.27758-0.18248 0.31356l-0.56286 0.1465 0.41379 0.41636c0.10024 0.097662 0.10024 0.26472 0 0.36496s-0.2673 0.10024-0.36496 0l-0.41636-0.41379-0.1465 0.56286c-0.035988 0.13879-0.17734 0.21846-0.31356 0.18248-0.13879-0.035987-0.21846-0.17734-0.18248-0.31613l0.15164-0.56286-0.56286 0.15164c-0.13879 0.035975-0.28014-0.043688-0.31613-0.18248-0.035988-0.13622 0.043688-0.27758 0.18248-0.31356z" opacity=".5"/>
 </g>
</svg>
