<svg enable-background="new" viewBox="0 0 16 16" xmlns="http://www.w3.org/2000/svg">
 <path d="m6.5 2-0.13226 1.5804a4.7143 4.7143 0 0 0-1.3778 0.79688l-1.4364-0.67634-1.5 2.5982 1.3041 0.9057a4.7143 4.7143 0 0 0-0.072 0.7952 4.7143 4.7143 0 0 0 0.068657 0.79855l-1.3008 0.90235 1.5 2.5982 1.433-0.67466a4.7143 4.7143 0 0 0 1.3811 0.79184l0.13226 1.5837h3l0.13226-1.5804a4.7143 4.7143 0 0 0 1.3778-0.79688l1.4364 0.67634 1.5-2.5982-1.3041-0.9057a4.7143 4.7143 0 0 0 0.071999-0.7952 4.7143 4.7143 0 0 0-0.068656-0.79855l1.3008-0.90235-1.5-2.5982-1.433 0.67466a4.7143 4.7143 0 0 0-1.3811-0.79185l-0.13226-1.5837zm1.5 4.2857a1.7143 1.7143 0 0 1 1.7143 1.7143 1.7143 1.7143 0 0 1-1.7143 1.7143 1.7143 1.7143 0 0 1-1.7143-1.7143 1.7143 1.7143 0 0 1 1.7143-1.7143z" fill="#bebebe" stroke-width=".85714"/>
</svg>
