<svg enable-background="new" viewBox="0 0 16 16" xmlns="http://www.w3.org/2000/svg">
 <path d="m6.9241 3.429c-0.39661 0.11125-0.7159 0.5539-0.7159 0.98384v6.8168c-0.40218-0.2205-0.91869-0.30969-1.4542-0.16398-0.9663 0.26289-1.5718 1.1125-1.3647 1.8975 0.20713 0.78489 1.159 1.2233 2.1253 0.96044 0.77092-0.20974 1.3023-0.80319 1.3871-1.429l0.022378-6.442 5.0114-1.4055v5.0833c-0.40218-0.2205-0.9187-0.30965-1.4542-0.16398-0.96632 0.26289-1.5718 1.1125-1.3647 1.8975 0.20713 0.78493 1.159 1.2234 2.1253 0.96044 0.77091-0.20971 1.3023-0.80317 1.3871-1.429l0.02238-8.3863c0-0.32247-0.19033-0.56371-0.44745-0.60908z" fill="#bebebe" stroke-width=".51681"/>
</svg>
