<svg enable-background="new" viewBox="0 0 16 16" xmlns="http://www.w3.org/2000/svg">
 <path d="m7.8952 2.0012c-1.1551 0.022734-2.3143 0.38247-3.334 1.0958-2.7192 1.9023-3.3765 5.6274-1.4725 8.3442 1.904 2.7168 5.6309 3.3734 8.3501 1.4711 1.9555-1.368 2.8439-3.6736 2.4821-5.8795-0.084317-0.51541-0.24472-0.9951-0.45281-1.4594l-5.4538 6.2263-0.59033 0.69702-0.67082-0.64341-2.576-2.5736c-0.32319-0.32284-0.32317-0.91033 0-1.2332 0.32317-0.32286 0.91118-0.32289 1.2343 0l1.932 1.9302 5.1721-5.913c-0.92462-1.0649-2.1546-1.7418-3.4715-1.9738-0.37872-0.066743-0.76374-0.096391-1.1488-0.088807z" fill="#bebebe" stroke-width=".85827"/>
</svg>
