<?xml version="1.0" encoding="UTF-8" standalone="no"?>
<svg
   inkscape:export-ydpi="90.000000"
   inkscape:export-xdpi="90.000000"
   width="400"
   height="300"
   id="svg11300"
   sodipodi:version="0.32"
   inkscape:version="1.2.2 (b0a8486541, 2022-12-01)"
   sodipodi:docname="user-desktop.svg"
   inkscape:output_extension="org.inkscape.output.svg.inkscape"
   version="1.0"
   style="display:inline;enable-background:new"
   inkscape:export-filename="/home/sam/suru-template.png"
   xmlns:inkscape="http://www.inkscape.org/namespaces/inkscape"
   xmlns:sodipodi="http://sodipodi.sourceforge.net/DTD/sodipodi-0.dtd"
   xmlns:xlink="http://www.w3.org/1999/xlink"
   xmlns="http://www.w3.org/2000/svg"
   xmlns:svg="http://www.w3.org/2000/svg"
   xmlns:rdf="http://www.w3.org/1999/02/22-rdf-syntax-ns#"
   xmlns:cc="http://creativecommons.org/ns#"
   xmlns:dc="http://purl.org/dc/elements/1.1/">
  <title
     id="title3004">Suru Icon Theme Template</title>
  <sodipodi:namedview
     stroke="#ef2929"
     fill="#f57900"
     id="base"
     pagecolor="#ffffff"
     bordercolor="#000000"
     borderopacity="0.25490196"
     inkscape:pageopacity="0"
     inkscape:pageshadow="2"
     inkscape:zoom="2.0000001"
     inkscape:cx="348.24998"
     inkscape:cy="181.74999"
     inkscape:current-layer="layer7"
     showgrid="false"
     inkscape:grid-bbox="true"
     inkscape:document-units="px"
     inkscape:showpageshadow="false"
     inkscape:window-width="1920"
     inkscape:window-height="1020"
     inkscape:window-x="0"
     inkscape:window-y="32"
     width="400px"
     height="300px"
     inkscape:snap-nodes="true"
     inkscape:snap-bbox="true"
     gridtolerance="10000"
     inkscape:object-nodes="true"
     inkscape:snap-grids="true"
     showguides="true"
     inkscape:guide-bbox="true"
     inkscape:window-maximized="1"
     inkscape:bbox-paths="true"
     inkscape:snap-bbox-midpoints="true"
     inkscape:snap-global="true"
     inkscape:object-paths="true"
     inkscape:snap-intersection-paths="true"
     inkscape:snap-smooth-nodes="true"
     inkscape:pagecheckerboard="false"
     showborder="false"
     inkscape:document-rotation="0"
     inkscape:deskcolor="#d1d1d1">
    <inkscape:grid
       spacingy="1"
       spacingx="1"
       id="grid5883"
       type="xygrid"
       enabled="true"
       visible="true"
       empspacing="4"
       snapvisiblegridlinesonly="true"
       originx="0"
       originy="0" />
    <inkscape:grid
       type="xygrid"
       id="grid11592"
       empspacing="2"
       visible="true"
       enabled="false"
       spacingx="0.5"
       spacingy="0.5"
       color="#ff0000"
       opacity="0.1254902"
       empcolor="#ff0000"
       empopacity="0.25098039"
       snapvisiblegridlinesonly="true"
       originx="0"
       originy="0" />
  </sodipodi:namedview>
  <defs
     id="defs3">
    <filter
       inkscape:collect="always"
       style="color-interpolation-filters:sRGB"
       id="filter4346"
       x="-0.013249797"
       width="1.0264996"
       y="-0.011357288"
       height="1.0227146">
      <feGaussianBlur
         inkscape:collect="always"
         stdDeviation="2.120027"
         id="feGaussianBlur4348" />
    </filter>
    <linearGradient
       inkscape:collect="always"
       id="linearGradient927-3-6">
      <stop
         style="stop-color:#ffffff;stop-opacity:1;"
         offset="0"
         id="stop923-3" />
      <stop
         id="stop933-6"
         offset="0.125"
         style="stop-color:#ffffff;stop-opacity:0.09803922" />
      <stop
         id="stop931-7"
         offset="0.92500001"
         style="stop-color:#ffffff;stop-opacity:0.09803922" />
      <stop
         style="stop-color:#000000;stop-opacity:0.49803922"
         offset="1"
         id="stop925-5" />
    </linearGradient>
    <linearGradient
       inkscape:collect="always"
       xlink:href="#linearGradient927-3-6"
       id="linearGradient945"
       x1="348"
       y1="65"
       x2="348"
       y2="105"
       gradientUnits="userSpaceOnUse" />
    <filter
       inkscape:collect="always"
       style="color-interpolation-filters:sRGB"
       id="filter965"
       x="-0.025999608"
       width="1.0519992"
       y="-0.022286005"
       height="1.044572">
      <feGaussianBlur
         inkscape:collect="always"
         stdDeviation="4.160054"
         id="feGaussianBlur967" />
    </filter>
    <linearGradient
       id="e"
       x1="0.52932"
       x2="16.403999"
       y1="7.9903002"
       y2="7.9903002"
       gradientTransform="matrix(14.11,0,0,16.125916,32.533997,28.467211)"
       gradientUnits="userSpaceOnUse"
       xlink:href="#a-3" />
    <linearGradient
       id="a-3"
       x1="0.52932"
       x2="16.403999"
       y1="7.9903002"
       y2="7.9903002"
       gradientTransform="matrix(1,0,0,1.1111,-1.6649e-4,-0.94068)"
       gradientUnits="userSpaceOnUse">
      <stop
         stop-color="#00ff01"
         offset="0"
         id="stop19" />
      <stop
         stop-color="#0101ff"
         offset=".066667"
         id="stop21" />
      <stop
         stop-color="#0101ff"
         offset=".93389"
         id="stop23" />
      <stop
         stop-color="#00ff01"
         offset="1"
         id="stop25" />
    </linearGradient>
    <linearGradient
       id="d"
       x1="-9.6169996"
       x2="-9.6169996"
       y1="1138.4"
       y2="1140.2"
       gradientTransform="matrix(2.5635,0,0,5.9441691,162.363,-6516.2659)"
       gradientUnits="userSpaceOnUse"
       xlink:href="#b-6" />
    <linearGradient
       id="b-6"
       x1="-9.6169996"
       x2="-9.6169996"
       y1="1138.4"
       y2="1140.2"
       gradientTransform="matrix(0.18168,0,0,0.40956,9.201,-451.88)"
       gradientUnits="userSpaceOnUse">
      <stop
         stop-color="#00ff01"
         stop-opacity="0"
         offset="0"
         id="stop28" />
      <stop
         stop-color="#00ff01"
         offset="1"
         id="stop30" />
    </linearGradient>
    <linearGradient
       id="m"
       x1="0.52932"
       x2="16.403999"
       y1="7.9903002"
       y2="7.9903002"
       gradientTransform="matrix(2.8976,0,0,3.3116,319.47,56.962)"
       gradientUnits="userSpaceOnUse"
       xlink:href="#a-3" />
    <linearGradient
       id="l"
       x1="-9.6169996"
       x2="-9.6169996"
       y1="1138.4"
       y2="1140.2"
       gradientTransform="matrix(0.52644,0,0,1.2207,346.13,-1287)"
       gradientUnits="userSpaceOnUse"
       xlink:href="#b-6" />
    <linearGradient
       id="k"
       x1="0.52932"
       x2="16.403999"
       y1="7.9903002"
       y2="7.9903002"
       gradientTransform="matrix(1.8268,0,0,2.0877,320.53,131.32)"
       gradientUnits="userSpaceOnUse"
       xlink:href="#a-3" />
    <linearGradient
       id="j"
       x1="-9.6169996"
       x2="-9.6169996"
       y1="1138.4"
       y2="1140.2"
       gradientTransform="matrix(0.33189,0,0,0.76956,337.34,-715.98)"
       gradientUnits="userSpaceOnUse"
       xlink:href="#b-6" />
    <linearGradient
       id="i"
       x1="0.52932"
       x2="16.403999"
       y1="7.9903002"
       y2="7.9903002"
       gradientTransform="matrix(1.4488,0,0,1.6558,319.73,186.98)"
       gradientUnits="userSpaceOnUse"
       xlink:href="#a-3" />
    <linearGradient
       id="h"
       x1="-9.6169996"
       x2="-9.6169996"
       y1="1138.4"
       y2="1140.2"
       gradientTransform="matrix(0.26322,0,0,0.61034,333.06,-485.02)"
       gradientUnits="userSpaceOnUse"
       xlink:href="#b-6" />
    <linearGradient
       id="g"
       x1="0.52932"
       x2="16.403999"
       y1="7.9903002"
       y2="7.9903002"
       gradientTransform="matrix(0.94488,0,0,1.0799,320,234.86)"
       gradientUnits="userSpaceOnUse"
       xlink:href="#a-3" />
    <linearGradient
       id="f"
       x1="-9.6169996"
       x2="-9.6169996"
       y1="1138.4"
       y2="1140.2"
       gradientTransform="matrix(0.17167,0,0,0.39805,328.69,-203.41)"
       gradientUnits="userSpaceOnUse"
       xlink:href="#b-6" />
  </defs>
  <metadata
     id="metadata4">
    <rdf:RDF>
      <cc:Work
         rdf:about="">
        <dc:format>image/svg+xml</dc:format>
        <dc:type
           rdf:resource="http://purl.org/dc/dcmitype/StillImage" />
        <dc:creator>
          <cc:Agent>
            <dc:title>Sam Hewitt</dc:title>
          </cc:Agent>
        </dc:creator>
        <dc:source />
        <cc:license
           rdf:resource="http://creativecommons.org/licenses/by-sa/4.0/" />
        <dc:title>Suru Icon Theme Template</dc:title>
        <dc:subject>
          <rdf:Bag />
        </dc:subject>
        <dc:date />
        <dc:rights>
          <cc:Agent>
            <dc:title />
          </cc:Agent>
        </dc:rights>
        <dc:publisher>
          <cc:Agent>
            <dc:title />
          </cc:Agent>
        </dc:publisher>
        <dc:identifier />
        <dc:relation />
        <dc:language />
        <dc:coverage />
        <dc:description />
        <dc:contributor>
          <cc:Agent>
            <dc:title />
          </cc:Agent>
        </dc:contributor>
      </cc:Work>
      <cc:Work
         rdf:about="">
        <dc:format>image/svg+xml</dc:format>
        <dc:type
           rdf:resource="http://purl.org/dc/dcmitype/StillImage" />
      </cc:Work>
      <cc:License
         rdf:about="http://creativecommons.org/licenses/by-sa/4.0/">
        <cc:permits
           rdf:resource="http://creativecommons.org/ns#Reproduction" />
        <cc:permits
           rdf:resource="http://creativecommons.org/ns#Distribution" />
        <cc:requires
           rdf:resource="http://creativecommons.org/ns#Notice" />
        <cc:requires
           rdf:resource="http://creativecommons.org/ns#Attribution" />
        <cc:permits
           rdf:resource="http://creativecommons.org/ns#DerivativeWorks" />
        <cc:requires
           rdf:resource="http://creativecommons.org/ns#ShareAlike" />
      </cc:License>
    </rdf:RDF>
  </metadata>
  <g
     style="display:inline"
     inkscape:groupmode="layer"
     inkscape:label="Icon"
     id="layer1">
    <g
       style="display:none"
       inkscape:label="Baseplate"
       id="layer7"
       inkscape:groupmode="layer"
       sodipodi:insensitive="true">
      <text
         y="-8.2548828"
         xml:space="preserve"
         x="19.006836"
         style="font-style:normal;font-variant:normal;font-weight:normal;font-stretch:normal;line-height:0%;font-family:'DejaVu Sans';-inkscape-font-specification:'DejaVu Sans';display:inline;fill:#000000;fill-opacity:1;stroke:none;enable-background:new"
         inkscape:label="context"
         id="context"><tspan
           style="font-style:normal;font-variant:normal;font-weight:normal;font-stretch:normal;font-size:18px;line-height:1.25;font-family:'DejaVu Sans';-inkscape-font-specification:'DejaVu Sans'"
           y="-8.2548828"
           x="19.006836"
           sodipodi:role="line"
           id="tspan3933">places</tspan></text>
      <text
         y="-8.2548828"
         xml:space="preserve"
         x="146.48828"
         style="font-style:normal;font-variant:normal;font-weight:bold;font-stretch:normal;line-height:0%;font-family:'DejaVu Sans';-inkscape-font-specification:'DejaVu Sans Bold';text-align:start;writing-mode:lr-tb;text-anchor:start;display:inline;fill:#000000;fill-opacity:1;stroke:none;enable-background:new"
         inkscape:label="icon-name"
         id="icon-name"><tspan
           style="font-style:normal;font-variant:normal;font-weight:bold;font-stretch:normal;font-size:18px;line-height:1.25;font-family:'DejaVu Sans';-inkscape-font-specification:'DejaVu Sans Bold'"
           y="-8.2548828"
           x="146.48828"
           sodipodi:role="line"
           id="tspan924">user-desktop</tspan></text>
      <rect
         style="display:inline;overflow:visible;visibility:visible;fill:#cdcdcd;fill-opacity:1;fill-rule:nonzero;stroke:none;stroke-width:2;marker:none;enable-background:accumulate"
         id="rect16x16"
         width="16"
         height="16"
         x="320"
         y="236"
         inkscape:label="16x16"
         inkscape:export-xdpi="95.996666"
         inkscape:export-ydpi="95.996666" />
      <rect
         style="display:inline;overflow:visible;visibility:visible;fill:#cdcdcd;fill-opacity:1;fill-rule:nonzero;stroke:none;stroke-width:2;marker:none;enable-background:accumulate"
         id="rect24x24"
         width="24"
         height="24"
         x="320"
         y="188"
         inkscape:label="24x24"
         inkscape:export-xdpi="95.996666"
         inkscape:export-ydpi="95.996666" />
      <rect
         style="display:inline;overflow:visible;visibility:visible;fill:#cdcdcd;fill-opacity:1;fill-rule:nonzero;stroke:none;stroke-width:2;marker:none;enable-background:accumulate"
         id="rect32x32"
         width="32"
         height="32"
         x="320"
         y="132"
         inkscape:label="32x32"
         inkscape:export-xdpi="95.996666"
         inkscape:export-ydpi="95.996666" />
      <rect
         inkscape:label="48x48"
         y="60"
         x="320"
         height="48"
         width="48"
         id="rect48x48"
         style="display:inline;overflow:visible;visibility:visible;fill:#cdcdcd;fill-opacity:1;fill-rule:nonzero;stroke:none;stroke-width:2;marker:none;enable-background:accumulate"
         inkscape:export-xdpi="95.996666"
         inkscape:export-ydpi="95.996666" />
      <rect
         style="display:inline;overflow:visible;visibility:visible;fill:#cdcdcd;fill-opacity:1;fill-rule:nonzero;stroke:none;stroke-width:2;marker:none;enable-background:accumulate"
         id="rect256x256"
         width="256"
         height="256"
         x="24"
         y="28"
         inkscape:label="256x256"
         inkscape:export-xdpi="95.996666"
         inkscape:export-ydpi="95.996666" />
    </g>
    <g
       inkscape:groupmode="layer"
       id="layer4"
       inkscape:label="Shadows"
       style="display:inline"
       sodipodi:insensitive="true">
      <path
         style="color:#000000;font-style:normal;font-variant:normal;font-weight:normal;font-stretch:normal;font-size:medium;line-height:normal;font-family:sans-serif;font-variant-ligatures:normal;font-variant-position:normal;font-variant-caps:normal;font-variant-numeric:normal;font-variant-alternates:normal;font-feature-settings:normal;text-indent:0;text-align:start;text-decoration:none;text-decoration-line:none;text-decoration-style:solid;text-decoration-color:#000000;letter-spacing:normal;word-spacing:normal;text-transform:none;writing-mode:lr-tb;direction:ltr;text-orientation:mixed;dominant-baseline:auto;baseline-shift:baseline;text-anchor:start;white-space:normal;shape-padding:0;clip-rule:nonzero;display:inline;overflow:visible;visibility:visible;opacity:0.1;isolation:auto;mix-blend-mode:normal;color-interpolation:sRGB;color-interpolation-filters:linearRGB;solid-color:#000000;solid-opacity:1;vector-effect:none;fill:#000000;fill-opacity:1;fill-rule:nonzero;stroke:none;stroke-width:1;stroke-linecap:butt;stroke-linejoin:miter;stroke-miterlimit:4;stroke-dasharray:none;stroke-dashoffset:0;stroke-opacity:1;marker:none;color-rendering:auto;image-rendering:auto;shape-rendering:auto;text-rendering:auto;enable-background:accumulate"
         d="m 324.10156,238 c -0.71915,0 -1.30483,0.0125 -1.83594,0.10156 -0.53547,0.0898 -1.06731,0.277 -1.47656,0.68555 -0.40957,0.4089 -0.59739,0.93918 -0.6875,1.47461 -0.0893,0.5307 -0.10156,1.11632 -0.10156,1.83398 v 5.8086 c 0,0.7177 0.0124,1.30264 0.10156,1.83398 0.09,0.53651 0.27895,1.06902 0.6875,1.47852 0.40843,0.40938 0.93899,0.59618 1.47656,0.68554 0.53194,0.0884 1.11889,0.10116 1.8379,0.0977 H 328 h 3.89648 c 0.71856,0.003 1.30564,-0.009 1.8379,-0.0977 0.53758,-0.0893 1.06814,-0.27615 1.47656,-0.68554 0.40854,-0.40951 0.59548,-0.94204 0.68554,-1.47852 C 335.98565,249.20693 336,248.622 336,247.9043 v -5.8086 c 0,-0.71766 -0.0142,-1.30328 -0.10352,-1.83398 -0.0901,-0.53541 -0.27596,-1.0657 -0.68554,-1.47461 -0.40926,-0.40854 -0.94112,-0.59573 -1.47656,-0.68555 C 333.20327,238.0125 332.61759,238 331.89844,238 H 328 Z"
         id="path1036"
         inkscape:connector-curvature="0"
         sodipodi:nodetypes="scccsscscccccscsscccscs" />
      <path
         style="color:#000000;font-style:normal;font-variant:normal;font-weight:normal;font-stretch:normal;font-size:medium;line-height:normal;font-family:sans-serif;font-variant-ligatures:normal;font-variant-position:normal;font-variant-caps:normal;font-variant-numeric:normal;font-variant-alternates:normal;font-feature-settings:normal;text-indent:0;text-align:start;text-decoration:none;text-decoration-line:none;text-decoration-style:solid;text-decoration-color:#000000;letter-spacing:normal;word-spacing:normal;text-transform:none;writing-mode:lr-tb;direction:ltr;text-orientation:mixed;dominant-baseline:auto;baseline-shift:baseline;text-anchor:start;white-space:normal;shape-padding:0;clip-rule:nonzero;display:inline;overflow:visible;visibility:visible;opacity:0.1;isolation:auto;mix-blend-mode:normal;color-interpolation:sRGB;color-interpolation-filters:linearRGB;solid-color:#000000;solid-opacity:1;vector-effect:none;fill:#000000;fill-opacity:1;fill-rule:nonzero;stroke:none;stroke-width:2;stroke-linecap:butt;stroke-linejoin:miter;stroke-miterlimit:4;stroke-dasharray:none;stroke-dashoffset:0;stroke-opacity:1;marker:none;color-rendering:auto;image-rendering:auto;shape-rendering:auto;text-rendering:auto;enable-background:accumulate"
         d="m 320.99928,95.268807 c 0,2.22316 0.0512,3.97368 0.29297,5.414063 0.24178,1.44039 0.69529,2.61905 1.55664,3.48243 0.86134,0.86337 2.03947,1.31906 3.48046,1.55859 1.441,0.23953 3.19535,0.28629 5.42383,0.27539 h 12.2461 12.25195 c 2.22506,0.0108 3.97852,-0.0361 5.41797,-0.27539 1.441,-0.23953 2.61913,-0.69522 3.48047,-1.55859 0.86134,-0.86338 1.31486,-2.04204 1.55664,-3.48243 0.24179,-1.440393 0.29297,-3.190903 0.29297,-5.414063 v -16.53906 c 0,-2.22316 -0.0511,-3.97276 -0.29297,-5.41016 -0.24189,-1.4374 -0.69694,-2.61246 -1.55859,-3.47265 -0.86165,-0.8602 -2.03894,-1.3132 -3.47852,-1.55469 -1.43957,-0.24149 -3.19036,-0.29297 -5.41797,-0.29297 h -12.25195 -12.25196 c -2.22761,0 -3.97839,0.0515 -5.41797,0.29297 -1.43957,0.24149 -2.61686,0.69449 -3.47851,1.55469 -0.86165,0.86019 -1.31671,2.03525 -1.55859,3.47265 -0.24189,1.4374 -0.29297,3.187 -0.29297,5.41016 z"
         id="path1020"
         inkscape:connector-curvature="0"
         sodipodi:nodetypes="sccsccccccsscccscsccsss" />
      <path
         style="color:#000000;display:inline;overflow:visible;visibility:visible;opacity:0.1;fill:#000000;fill-opacity:1;fill-rule:nonzero;stroke:none;stroke-width:2;marker:none;filter:url(#filter4346);enable-background:accumulate"
         d="M 189.84323,74 C 119.24979,74 111.65402,81.250835 112,151.98706 V 298 444.01294 C 111.65402,514.74917 119.24979,522 189.84323,522 H 418.15677 C 488.75021,522 494.0629,514.72348 496,444.01294 V 298 151.98706 C 496,81.249993 488.75021,74 418.15677,74 Z"
         id="rect4158-9"
         inkscape:connector-curvature="0"
         sodipodi:nodetypes="scccssscsss"
         transform="matrix(0,-0.5,0.5,0,2.9973021,316.9973)" />
      <path
         sodipodi:nodetypes="scccssscsss"
         inkscape:connector-curvature="0"
         id="path4350"
         d="M 189.84323,74 C 119.24979,74 111.65402,81.250835 112,151.98706 V 298 444.01294 C 111.65402,514.74917 119.24979,522 189.84323,522 H 418.15677 C 488.75021,522 496,514.75001 496,444.01294 V 298 151.98706 C 496,81.249993 488.75021,74 418.15677,74 Z"
         style="color:#000000;display:inline;overflow:visible;visibility:visible;opacity:0.2;fill:#000000;fill-opacity:1;fill-rule:nonzero;stroke:none;stroke-width:2;marker:none;enable-background:accumulate;filter:url(#filter965)"
         transform="matrix(0,0.5,0.5,0,2.9973021,13.00269)" />
      <path
         style="color:#000000;font-style:normal;font-variant:normal;font-weight:normal;font-stretch:normal;font-size:medium;line-height:normal;font-family:sans-serif;font-variant-ligatures:normal;font-variant-position:normal;font-variant-caps:normal;font-variant-numeric:normal;font-variant-alternates:normal;font-feature-settings:normal;text-indent:0;text-align:start;text-decoration:none;text-decoration-line:none;text-decoration-style:solid;text-decoration-color:#000000;letter-spacing:normal;word-spacing:normal;text-transform:none;writing-mode:lr-tb;direction:ltr;text-orientation:mixed;dominant-baseline:auto;baseline-shift:baseline;text-anchor:start;white-space:normal;shape-padding:0;clip-rule:nonzero;display:inline;overflow:visible;visibility:visible;opacity:0.1;isolation:auto;mix-blend-mode:normal;color-interpolation:sRGB;color-interpolation-filters:linearRGB;solid-color:#000000;solid-opacity:1;vector-effect:none;fill:#000000;fill-opacity:1;fill-rule:nonzero;stroke:none;stroke-width:2;stroke-linecap:butt;stroke-linejoin:miter;stroke-miterlimit:4;stroke-dasharray:none;stroke-dashoffset:0;stroke-opacity:1;marker:none;color-rendering:auto;image-rendering:auto;shape-rendering:auto;text-rendering:auto;enable-background:accumulate"
         d="m 320.99951,155.80615 c 0,1.42096 0.0308,2.54883 0.19141,3.50586 0.16064,0.95703 0.4726,1.79146 1.09179,2.41211 0.61919,0.62065 1.45612,0.93647 2.41407,1.0957 0.95795,0.15924 2.08705,0.18666 3.51171,0.17969 h 7.79102 7.79688 c 1.42131,0.007 2.5495,-0.0207 3.50585,-0.17969 0.95796,-0.15923 1.79488,-0.47505 2.41407,-1.0957 0.61919,-0.62065 0.93115,-1.45508 1.09179,-2.41211 0.16065,-0.95703 0.19141,-2.0849 0.19141,-3.50586 v -11.61523 c 0,-1.42097 -0.0307,-2.54669 -0.19141,-3.50196 -0.16075,-0.95527 -0.47425,-1.78779 -1.09375,-2.40625 -0.6195,-0.61845 -1.45363,-0.93134 -2.41015,-1.09179 -0.95653,-0.16046 -2.08403,-0.19141 -3.50781,-0.19141 h -7.79688 -7.79688 c -1.42378,0 -2.55128,0.031 -3.50781,0.19141 -0.95653,0.16045 -1.79065,0.47334 -2.41015,1.09179 -0.61951,0.61846 -0.933,1.45098 -1.09375,2.40625 -0.16076,0.95527 -0.19141,2.08099 -0.19141,3.50196 z"
         id="path999"
         inkscape:connector-curvature="0"
         sodipodi:nodetypes="scscccccscsscccscscscss" />
      <path
         style="color:#000000;font-style:normal;font-variant:normal;font-weight:normal;font-stretch:normal;font-size:medium;line-height:normal;font-family:sans-serif;font-variant-ligatures:normal;font-variant-position:normal;font-variant-caps:normal;font-variant-numeric:normal;font-variant-alternates:normal;font-feature-settings:normal;text-indent:0;text-align:start;text-decoration:none;text-decoration-line:none;text-decoration-style:solid;text-decoration-color:#000000;letter-spacing:normal;word-spacing:normal;text-transform:none;writing-mode:lr-tb;direction:ltr;text-orientation:mixed;dominant-baseline:auto;baseline-shift:baseline;text-anchor:start;white-space:normal;shape-padding:0;clip-rule:nonzero;display:inline;overflow:visible;visibility:visible;opacity:0.1;isolation:auto;mix-blend-mode:normal;color-interpolation:sRGB;color-interpolation-filters:linearRGB;solid-color:#000000;solid-opacity:1;vector-effect:none;fill:#000000;fill-opacity:1;fill-rule:nonzero;stroke:none;stroke-width:1;stroke-linecap:butt;stroke-linejoin:miter;stroke-miterlimit:4;stroke-dasharray:none;stroke-dashoffset:0;stroke-opacity:1;marker:none;color-rendering:auto;image-rendering:auto;shape-rendering:auto;text-rendering:auto;enable-background:accumulate"
         d="m 325.875,192 c -1.1215,0 -2.02115,0.0225 -2.79492,0.15234 -0.77661,0.13029 -1.47821,0.38927 -2.00781,0.91797 -0.52965,0.52877 -0.78935,1.22994 -0.91993,2.00586 C 320.0223,195.84899 320,196.746 320,197.86523 v 8.26954 c 0,1.11925 0.0224,2.01501 0.15234,2.78906 0.13049,0.77729 0.39053,1.48303 0.91993,2.01367 0.52954,0.5308 1.23351,0.78862 2.01171,0.91797 0.77469,0.12878 1.67184,0.14998 2.79297,0.14453 H 332 h 6.12305 c 1.12086,0.005 2.01803,-0.0157 2.79297,-0.14453 0.77821,-0.12935 1.48217,-0.38716 2.01171,-0.91797 0.52939,-0.53064 0.78749,-1.23638 0.91797,-2.01367 0.12993,-0.77406 0.1543,-1.66981 0.1543,-2.78906 v -8.26954 c 0,-1.11922 -0.0242,-2.01621 -0.1543,-2.78906 -0.13058,-0.77592 -0.38832,-1.47709 -0.91797,-2.00586 -0.5296,-0.5287 -1.23315,-0.78768 -2.00976,-0.91797 C 340.14424,192.02256 339.24651,192 338.125,192 H 332 Z"
         id="path1065"
         inkscape:connector-curvature="0"
         sodipodi:nodetypes="scccsscccccccccsscccscs" />
    </g>
    <g
       inkscape:groupmode="layer"
       id="layer2"
       inkscape:label="Background"
       style="display:inline">
      <g
         fill="#5e4aa6"
         stroke-width="0.27889"
         id="g478"
         transform="matrix(2.8976378,0,0,2.9804561,319.46649,59.765751)"
         style="display:inline;enable-background:new">
        <circle
           cx="-302.94"
           cy="-362.51001"
           r="0"
           id="circle470" />
        <circle
           cx="-302.94"
           cy="-362.51001"
           r="0"
           id="circle472" />
        <circle
           cx="-330.35001"
           cy="-365.81"
           r="0"
           id="circle474" />
        <circle
           cx="-312.92999"
           cy="-380.10999"
           r="0"
           id="circle476" />
      </g>
      <g
         fill="#5e4aa6"
         stroke-width="0.27889"
         id="g26"
         transform="matrix(14.110236,0,0,14.513525,32.533129,42.12007)"
         style="display:inline;enable-background:new">
        <circle
           cx="-302.94"
           cy="-362.51001"
           r="0"
           id="circle18" />
        <circle
           cx="-302.94"
           cy="-362.51001"
           r="0"
           id="circle20" />
        <circle
           cx="-330.35001"
           cy="-365.81"
           r="0"
           id="circle22" />
        <circle
           cx="-312.92999"
           cy="-380.10999"
           r="0"
           id="circle24" />
      </g>
      <g
         fill="#5e4aa6"
         stroke-width="0.27889"
         id="g512"
         transform="matrix(1.8267717,0,0,1.8789832,320.5332,133.09146)"
         style="display:inline;enable-background:new">
        <circle
           cx="-302.94"
           cy="-362.51001"
           r="0"
           id="circle504" />
        <circle
           cx="-302.94"
           cy="-362.51001"
           r="0"
           id="circle506" />
        <circle
           cx="-330.35001"
           cy="-365.81"
           r="0"
           id="circle508" />
        <circle
           cx="-312.92999"
           cy="-380.10999"
           r="0"
           id="circle510" />
      </g>
      <g
         fill="#5e4aa6"
         stroke-width="0.27889"
         id="g546"
         transform="matrix(1.4488189,0,0,1.490228,319.73322,188.38289)">
        <circle
           cx="-302.94"
           cy="-362.51001"
           r="0"
           id="circle538" />
        <circle
           cx="-302.94"
           cy="-362.51001"
           r="0"
           id="circle540" />
        <circle
           cx="-330.35001"
           cy="-365.81"
           r="0"
           id="circle542" />
        <circle
           cx="-312.92999"
           cy="-380.10999"
           r="0"
           id="circle544" />
      </g>
      <g
         fill="#5e4aa6"
         stroke-width="0.27889"
         id="g580"
         transform="matrix(0.94488189,0,0,0.97188782,319.99994,235.77145)">
        <circle
           cx="-302.94"
           cy="-362.51001"
           r="0"
           id="circle572" />
        <circle
           cx="-302.94"
           cy="-362.51001"
           r="0"
           id="circle574" />
        <circle
           cx="-330.35001"
           cy="-365.81"
           r="0"
           id="circle576" />
        <circle
           cx="-312.92999"
           cy="-380.10999"
           r="0"
           id="circle578" />
      </g>
      <rect
         x="40"
         y="69.000999"
         width="224"
         height="191.99901"
         ry="17.286911"
         enable-background="new"
         fill="url(#e)"
         fill-rule="evenodd"
         stroke-width="15.085"
         style="fill:url(#e);paint-order:stroke fill markers"
         id="rect81" />
      <path
         d="m 40.008997,241.7991 c -0.0069,12.94794 7.4666,19.1999 18.609,19.1999 H 245.33799 c 11.19301,0 18.65901,-6.43626 18.65901,-19.1999 z"
         color="#000000"
         enable-background="new"
         fill="url(#d)"
         stroke-width="3.90359"
         style="text-indent:0;text-transform:none;fill:url(#d)"
         id="path83" />
      <path
         d="m 56.809997,69 c -9.3112,0 -16.807,7.71026 -16.807,17.28791 v 3.83998 c 0,-9.57725 7.4961,-17.28791 16.807,-17.28791 H 247.19 c 9.3112,0 16.807,7.71026 16.807,17.28791 V 86.28791 C 263.997,76.71066 256.5009,69 247.19,69 Z"
         enable-background="new"
         fill="#00ff01"
         fill-rule="evenodd"
         opacity="0.7"
         stroke-width="15.084"
         style="paint-order:stroke fill markers"
         id="path85" />
      <g
         id="g1895"
         transform="matrix(0.99996739,0,0,1,0.01196776,1.8572418e-5)">
        <rect
           x="321"
           y="65.286003"
           width="46"
           height="39.428001"
           ry="3.55"
           enable-background="new"
           fill="url(#m)"
           fill-rule="evenodd"
           stroke-width="3.0977"
           style="fill:url(#m);paint-order:stroke fill markers"
           id="rect97" />
        <path
           d="m 321,100.77 c -10e-4,2.6589 1.5333,3.9428 3.8214,3.9428 h 38.344 c 2.2986,0 3.8318,-1.3217 3.8318,-3.9428 z"
           color="#000000"
           enable-background="new"
           fill="url(#l)"
           stroke-width="0.80163"
           style="text-indent:0;text-transform:none;fill:url(#l)"
           id="path99" />
        <path
           d="m 324.45,65.286 c -1.9121,0 -3.4515,1.5834 -3.4515,3.5501 v 0.78857 c 0,-1.9668 1.5394,-3.5501 3.4515,-3.5501 h 39.096 c 1.9121,0 3.4515,1.5834 3.4515,3.5501 V 68.8361 c 0,-1.9668 -1.5394,-3.5501 -3.4515,-3.5501 z"
           enable-background="new"
           fill="#00ff01"
           fill-rule="evenodd"
           opacity="0.7"
           stroke-width="3.0977"
           style="paint-order:stroke fill markers"
           id="path101" />
        <rect
           x="328.67001"
           y="95.250999"
           width="30.666"
           height="7.8857002"
           ry="1.5771"
           enable-background="new"
           fill="#00ff01"
           opacity="0.7"
           stroke-opacity="0.95294"
           stroke-width="0.15454"
           id="rect209" />
        <g
           transform="matrix(2.8976,0,0,3.3116,319.47,-872.7)"
           enable-background="new"
           fill="#ffffff"
           id="g219">
          <rect
             x="4.4979"
             y="292.76999"
             width="1.3229001"
             height="1.3229001"
             ry="0.13229001"
             style="paint-order:stroke markers fill"
             id="rect211" />
          <rect
             x="6.7027998"
             y="292.76999"
             width="1.3229001"
             height="1.3229001"
             ry="0.13229001"
             style="paint-order:stroke markers fill"
             id="rect213" />
          <rect
             x="8.9076004"
             y="292.76999"
             width="1.3229001"
             height="1.3229001"
             ry="0.13229001"
             style="paint-order:stroke markers fill"
             id="rect215" />
          <rect
             x="11.112"
             y="292.76999"
             width="1.3229001"
             height="1.3229001"
             ry="0.13229001"
             style="paint-order:stroke markers fill"
             id="rect217" />
        </g>
      </g>
      <g
         id="g1982"
         transform="matrix(0.99986551,0,0,0.999879,0.04323915,0.01852497)">
        <rect
           x="321.5"
           y="136.57001"
           width="29"
           height="24.857"
           ry="2.2381001"
           enable-background="new"
           fill="url(#k)"
           fill-rule="evenodd"
           stroke-width="1.9529"
           style="fill:url(#k);paint-order:stroke fill markers"
           id="rect123" />
        <path
           d="m 321.5,158.94 c -8.9e-4,1.6762 0.96666,2.4857 2.4092,2.4857 h 24.174 c 1.4491,0 2.4157,-0.83327 2.4157,-2.4857 z"
           color="#000000"
           enable-background="new"
           fill="url(#j)"
           stroke-width="0.50538"
           style="text-indent:0;text-transform:none;fill:url(#j)"
           id="path125" />
        <path
           d="m 323.68,136.57 c -1.2055,0 -2.1759,0.99821 -2.1759,2.2381 v 0.49714 c 0,-1.2399 0.97048,-2.2381 2.1759,-2.2381 h 24.648 c 1.2055,0 2.1759,0.99821 2.1759,2.2381 v -0.49714 c 0,-1.2399 -0.97047,-2.2381 -2.1759,-2.2381 z"
           enable-background="new"
           fill="#00ff01"
           fill-rule="evenodd"
           opacity="0.7"
           stroke-width="1.9529"
           style="paint-order:stroke fill markers"
           id="path127" />
        <rect
           x="326.32999"
           y="155.46001"
           width="19.333"
           height="4.9713998"
           ry="0.99427998"
           fill="#00ff01"
           opacity="0.7"
           stroke-opacity="0.95294"
           stroke-width="0.097429"
           id="rect161" />
        <g
           transform="matrix(1.8268,0,0,2.0877,320.53,-454.77)"
           fill="#ffffff"
           id="g171">
          <rect
             x="4.4979"
             y="292.76999"
             width="1.3229001"
             height="1.3229001"
             ry="0.13229001"
             style="paint-order:stroke markers fill"
             id="rect163" />
          <rect
             x="6.7027998"
             y="292.76999"
             width="1.3229001"
             height="1.3229001"
             ry="0.13229001"
             style="paint-order:stroke markers fill"
             id="rect165" />
          <rect
             x="8.9076004"
             y="292.76999"
             width="1.3229001"
             height="1.3229001"
             ry="0.13229001"
             style="paint-order:stroke markers fill"
             id="rect167" />
          <rect
             x="11.112"
             y="292.76999"
             width="1.3229001"
             height="1.3229001"
             ry="0.13229001"
             style="paint-order:stroke markers fill"
             id="rect169" />
        </g>
      </g>
      <g
         id="g2069"
         transform="matrix(0.99983479,0,0,0.99983479,0.05258027,0.0325349)">
        <rect
           x="320.5"
           y="191.14"
           width="23"
           height="19.714001"
           ry="1.775"
           fill="url(#i)"
           fill-rule="evenodd"
           stroke-width="1.5489"
           style="fill:url(#i);paint-order:stroke fill markers"
           id="rect139" />
        <path
           d="m 320.5,208.89 c -7e-4,1.3294 0.76666,1.9714 1.9107,1.9714 h 19.172 c 1.1493,0 1.9159,-0.66087 1.9159,-1.9714 z"
           color="#000000"
           fill="url(#h)"
           stroke-width="0.40082"
           style="text-indent:0;text-transform:none;fill:url(#h)"
           id="path141" />
        <path
           d="m 322.23,191.14 c -0.95606,0 -1.7257,0.79169 -1.7257,1.7751 v 0.39429 c 0,-0.98339 0.76968,-1.7751 1.7257,-1.7751 h 19.548 c 0.95606,0 1.7258,0.79168 1.7258,1.7751 v -0.39429 c 0,-0.98338 -0.76969,-1.7751 -1.7258,-1.7751 z"
           fill="#00ff01"
           fill-rule="evenodd"
           opacity="0.7"
           stroke-width="1.5488"
           style="paint-order:stroke fill markers"
           id="path143" />
        <rect
           x="324.32999"
           y="206.13"
           width="15.333"
           height="3.9428"
           ry="0.78856999"
           enable-background="new"
           fill="#00ff01"
           opacity="0.7"
           stroke-opacity="0.95294"
           stroke-width="0.077272"
           id="rect173" />
        <g
           transform="matrix(1.4488,0,0,1.6558,319.73,-277.85)"
           enable-background="new"
           fill="#ffffff"
           id="g183">
          <rect
             x="4.4979"
             y="292.76999"
             width="1.3229001"
             height="1.3229001"
             ry="0.13229001"
             style="paint-order:stroke markers fill"
             id="rect175" />
          <rect
             x="6.7027998"
             y="292.76999"
             width="1.3229001"
             height="1.3229001"
             ry="0.13229001"
             style="paint-order:stroke markers fill"
             id="rect177" />
          <rect
             x="8.9076004"
             y="292.76999"
             width="1.3229001"
             height="1.3229001"
             ry="0.13229001"
             style="paint-order:stroke markers fill"
             id="rect179" />
          <rect
             x="11.112"
             y="292.76999"
             width="1.3229001"
             height="1.3229001"
             ry="0.13229001"
             style="paint-order:stroke markers fill"
             id="rect181" />
        </g>
      </g>
      <g
         id="g2156"
         transform="matrix(0.99970007,0,0,0.99970007,0.09589787,0.07469854)">
        <rect
           x="320.5"
           y="237.57001"
           width="15"
           height="12.857"
           ry="1.1576"
           fill="url(#g)"
           fill-rule="evenodd"
           stroke-width="1.0101"
           style="fill:url(#g);paint-order:stroke fill markers"
           id="rect155" />
        <path
           d="m 320.5,249.14 c -4.6e-4,0.86702 0.49999,1.2857 1.2461,1.2857 h 12.504 c 0.74956,0 1.2495,-0.431 1.2495,-1.2857 z"
           color="#000000"
           fill="url(#f)"
           stroke-width="0.2614"
           style="text-indent:0;text-transform:none;fill:url(#f)"
           id="path157" />
        <path
           d="m 321.63,237.57 c -0.62352,0 -1.1255,0.51632 -1.1255,1.1577 v 0.25714 c 0,-0.64134 0.50197,-1.1576 1.1255,-1.1576 h 12.749 c 0.62352,0 1.1255,0.51631 1.1255,1.1576 v -0.25714 c 0,-0.64134 -0.50196,-1.1577 -1.1255,-1.1577 z"
           fill="#00ff01"
           fill-rule="evenodd"
           opacity="0.7"
           stroke-width="1.0101"
           style="paint-order:stroke fill markers"
           id="path159" />
        <rect
           x="323"
           y="247.34"
           width="9.9996996"
           height="2.5713999"
           ry="0.51428002"
           enable-background="new"
           fill="#00ff01"
           opacity="0.7"
           stroke-opacity="0.95294"
           stroke-width="0.050394"
           id="rect185" />
        <g
           transform="matrix(0.94488,0,0,1.0799,320,-68.293)"
           enable-background="new"
           fill="#ffffff"
           id="g195">
          <rect
             x="4.4979"
             y="292.76999"
             width="1.3229001"
             height="1.3229001"
             ry="0.13229001"
             style="paint-order:stroke markers fill"
             id="rect187" />
          <rect
             x="6.7027998"
             y="292.76999"
             width="1.3229001"
             height="1.3229001"
             ry="0.13229001"
             style="paint-order:stroke markers fill"
             id="rect189" />
          <rect
             x="8.9076004"
             y="292.76999"
             width="1.3229001"
             height="1.3229001"
             ry="0.13229001"
             style="paint-order:stroke markers fill"
             id="rect191" />
          <rect
             x="11.112"
             y="292.76999"
             width="1.3229001"
             height="1.3229001"
             ry="0.13229001"
             style="paint-order:stroke markers fill"
             id="rect193" />
        </g>
      </g>
    </g>
    <g
       inkscape:groupmode="layer"
       id="layer3"
       inkscape:label="Folds"
       style="display:inline">
      <g
         id="g1034"
         transform="matrix(0,1,1,0,83.99978,-83.99978)"
         style="opacity:0.05" />
    </g>
    <g
       inkscape:groupmode="layer"
       id="layer6"
       inkscape:label="Pictogram"
       style="display:inline">
      <rect
         x="77.334999"
         y="214.91924"
         width="149.33"
         height="38.399803"
         ry="7.6799598"
         enable-background="new"
         fill="#00ff01"
         opacity="0.7"
         stroke-opacity="0.95294"
         stroke-width="0.752558"
         id="rect197"
         style="display:inline;enable-background:new" />
      <g
         transform="matrix(14.11,0,0,16.125916,32.537997,-4498.5764)"
         enable-background="new"
         fill="#ffffff"
         id="g207"
         style="display:inline;enable-background:new">
        <rect
           x="4.4979"
           y="292.76999"
           width="1.3229001"
           height="1.3229001"
           ry="0.13229001"
           style="paint-order:stroke markers fill"
           id="rect199" />
        <rect
           x="6.7027998"
           y="292.76999"
           width="1.3229001"
           height="1.3229001"
           ry="0.13229001"
           style="paint-order:stroke markers fill"
           id="rect201" />
        <rect
           x="8.9076004"
           y="292.76999"
           width="1.3229001"
           height="1.3229001"
           ry="0.13229001"
           style="paint-order:stroke markers fill"
           id="rect203" />
        <rect
           x="11.112"
           y="292.76999"
           width="1.3229001"
           height="1.3229001"
           ry="0.13229001"
           style="paint-order:stroke markers fill"
           id="rect205" />
      </g>
    </g>
    <g
       inkscape:groupmode="layer"
       id="layer9"
       inkscape:label="Borders"
       style="display:inline"
       sodipodi:insensitive="true">
      <path
         id="path901"
         d="m 321.49931,94.268843 c 0,2.21461 0.0547,3.94722 0.28711,5.33203 0.23246,1.384807 0.65434,2.445507 1.41797,3.210937 0.76363,0.76543 1.82234,1.1878 3.20703,1.41797 1.38469,0.23017 3.1184,0.28039 5.33789,0.26953 h 12.25 12.25196 c 2.21833,0.0108 3.95175,-0.0394 5.33593,-0.26953 1.38469,-0.23017 2.4434,-0.65253 3.20703,-1.41797 0.76363,-0.76544 1.18551,-1.82612 1.41797,-3.210937 0.23246,-1.38481 0.28711,-3.11742 0.28711,-5.33203 v -18.53906 c 0,-2.2146 -0.0546,-3.94454 -0.28711,-5.32617 -0.2325,-1.38163 -0.65418,-2.44064 -1.41797,-3.20313 -0.76378,-0.76249 -1.82305,-1.18385 -3.20703,-1.41601 -1.38398,-0.23217 -2.88549,-0.28516 -5.33593,-0.28516 h -12.25196 -12.25195 c -2.21907,0 -3.95196,0.053 -5.33594,0.28516 -1.38398,0.23216 -2.44325,0.65352 -3.20703,1.41601 -0.76378,0.76249 -1.18546,1.8215 -1.41797,3.20313 -0.2325,1.38163 -0.28711,3.11157 -0.28711,5.32617 z"
         style="color:#000000;display:inline;overflow:visible;visibility:visible;opacity:0.3;fill:none;fill-opacity:1;fill-rule:nonzero;stroke:url(#linearGradient945);stroke-width:1;stroke-opacity:1;marker:none;enable-background:accumulate"
         inkscape:connector-curvature="0"
         sodipodi:nodetypes="scssccccsssscccscssscss" />
      <path
         id="path1089"
         d="m 321.49954,154.80618 c 0,1.41241 0.0342,2.52238 0.18555,3.42383 0.15132,0.90145 0.43164,1.61987 0.95312,2.14258 0.52148,0.5227 1.23898,0.80325 2.14063,0.95312 0.90164,0.14988 2.0101,0.18075 3.42578,0.17383 h 7.79492 7.79688 c 1.41452,0.007 2.52269,-0.024 3.42382,-0.17383 0.90165,-0.14987 1.61915,-0.43041 2.14063,-0.95312 0.52148,-0.52272 0.8018,-1.24112 0.95312,-2.14258 0.15132,-0.90146 0.18555,-2.01142 0.18555,-3.42383 v -11.61523 c 0,-1.41241 -0.0342,-2.51847 -0.18555,-3.41797 -0.15137,-0.8995 -0.43149,-1.61597 -0.95312,-2.13672 -0.52163,-0.52075 -1.23774,-0.80004 -2.13867,-0.95117 -0.90094,-0.15113 -2.01055,-0.18555 -3.42578,-0.18555 h -7.79688 -7.79688 c -1.41524,0 -2.52484,0.0344 -3.42578,0.18555 -0.90093,0.15113 -1.61703,0.43042 -2.13867,0.95117 -0.52163,0.52075 -0.80175,1.23722 -0.95312,2.13672 -0.15137,0.8995 -0.18555,2.00556 -0.18555,3.41797 z"
         style="color:#000000;display:inline;overflow:visible;visibility:visible;opacity:0.3;fill:none;fill-opacity:1;fill-rule:nonzero;stroke:#000000;stroke-width:0.99999994;stroke-opacity:1;marker:none;enable-background:accumulate"
         inkscape:connector-curvature="0" />
      <path
         id="path1085"
         d="m 320.49963,205.1344 c 0,1.11158 0.0256,1.98683 0.14648,2.70703 0.1209,0.72019 0.34863,1.3105 0.7793,1.74218 0.43067,0.43169 1.01974,0.65954 1.74024,0.7793 0.72049,0.11977 1.59669,0.14217 2.71093,0.13672 h 6.12305 6.125 c 1.1131,0.005 1.989,-0.017 2.70898,-0.13672 0.72051,-0.11976 1.30957,-0.3476 1.74024,-0.7793 0.43067,-0.43169 0.6584,-1.02199 0.7793,-1.74218 0.12089,-0.7202 0.14648,-1.59545 0.14648,-2.70703 v -8.26954 c 0,-1.11158 -0.0255,-1.98637 -0.14648,-2.70507 -0.12095,-0.7187 -0.34848,-1.30623 -0.7793,-1.73633 -0.43083,-0.4301 -1.01849,-0.6566 -1.73828,-0.77735 -0.71979,-0.12074 -1.59713,-0.14648 -2.71094,-0.14648 h -6.125 -6.125 c -1.11381,0 -1.99115,0.0257 -2.71094,0.14648 -0.71979,0.12075 -1.30745,0.34725 -1.73828,0.77735 -0.43082,0.4301 -0.65835,1.01763 -0.7793,1.73633 -0.12094,0.7187 -0.14648,1.59349 -0.14648,2.70507 z"
         style="color:#000000;display:inline;overflow:visible;visibility:visible;opacity:0.3;fill:none;fill-opacity:1;fill-rule:nonzero;stroke:#000000;stroke-width:1;stroke-opacity:1;marker:none;enable-background:accumulate"
         inkscape:connector-curvature="0" />
      <path
         id="path1087"
         d="m 320.49977,246.90407 c 0,0.71048 0.0154,1.27344 0.0957,1.75195 0.0803,0.47851 0.23728,0.89671 0.54688,1.20703 0.30959,0.31032 0.7261,0.46726 1.20508,0.54688 0.47897,0.0796 1.04352,0.0933 1.75586,0.0898 h 3.89648 3.89844 c 0.71121,0.003 1.27546,-0.0103 1.7539,-0.0898 0.47898,-0.0796 0.89549,-0.23655 1.20508,-0.54688 0.3096,-0.31033 0.46655,-0.72851 0.54688,-1.20703 0.0803,-0.47852 0.0957,-1.04147 0.0957,-1.75195 v -5.8086 c 0,-0.71048 -0.0153,-1.27236 -0.0957,-1.75 -0.0804,-0.47763 -0.23713,-0.89584 -0.54688,-1.20508 -0.30975,-0.30921 -0.72681,-0.46469 -1.20508,-0.54492 -0.47826,-0.0802 -1.04201,-0.0957 -1.7539,-0.0957 h -3.89844 -3.89844 c -0.71189,0 -1.27564,0.0155 -1.7539,0.0957 -0.47827,0.0802 -0.89533,0.2357 -1.20508,0.54492 -0.30975,0.30924 -0.4665,0.72745 -0.54688,1.20508 -0.0804,0.47764 -0.0957,1.03952 -0.0957,1.75 z"
         style="color:#000000;display:inline;overflow:visible;visibility:visible;opacity:0.3;fill:none;fill-opacity:1;fill-rule:nonzero;stroke:#000000;stroke-width:1;stroke-opacity:1;marker:none;enable-background:accumulate"
         inkscape:connector-curvature="0" />
    </g>
    <g
       inkscape:groupmode="layer"
       id="layer5"
       inkscape:label="Highlights"
       style="display:inline" />
  </g>
</svg>
