<svg viewBox="0 0 48 48" xmlns="http://www.w3.org/2000/svg">
 <linearGradient id="a" x1="69.688" x2="69.688" y1="87.931" y2="48.121" gradientUnits="userSpaceOnUse">
  <stop stop-color="#2a2c2f" offset="0"/>
  <stop stop-color="#424649" offset="1"/>
 </linearGradient>
 <g transform="matrix(1.2279 0 0 1.2279 -82.739 -58.568)">
  <path d="m71.918 48.512a1.3636 1.3636 0 0 0-1.3951 1.3629v34.735a1.3636 1.3636 0 0 0 2.0451 1.1808l30.082-17.368a1.3636 1.3636 0 0 0 0-2.3616l-30.082-17.368a1.3636 1.3636 0 0 0-0.65002-0.18213z" fill="url(#a)"/>
  <path d="m82.306 62.316c-1.9502-0.0042-3.5201 2.2872-4.3135 4.7818-0.89897 2.8267-2.5141 3.8502-4.0271 4.2391l10.177 4.55e-4 0.62851-1.2263-2.3436-0.02924c-2.062-0.17608-2.4728-2.2105-2.353-2.8583 0.19822-1.2712 0.84583-3.2697 2.2318-4.9076zm0.75124 0-0.62851 1.2263 2.3436 0.02924c2.062 0.17608 2.4728 2.2105 2.353 2.8583-0.19822 1.2712-0.84568 3.2697-2.2316 4.9076 1.9502 0.0042 3.5201-2.2872 4.3135-4.7819 0.89897-2.8267 2.5141-3.8501 4.0271-4.239z" fill="#fff" fill-opacity=".52107"/>
 </g>
</svg>
