<svg clip-rule="evenodd" fill-rule="evenodd" stroke-linecap="round" viewBox="0 0 48 48" xmlns="http://www.w3.org/2000/svg">
 <g transform="matrix(1.1009 0 0 1.1009 -2.422 -2.4977)">
  <path d="m11.5 5.5 4.262 6.16" fill="none" stroke="#1ebb68" stroke-width="3"/>
  <path d="m36.5 5.5-4.262 6.16" fill="none" stroke="#1ebb68" stroke-width="3"/>
  <path d="m42 24v17c0 1.662-1.338 3-3 3h-30c-1.662 0-3-1.338-3-3v-17z" fill="#009647" fill-rule="nonzero"/>
  <path d="m24 6c-9.875 0-18 8.125-18 18h36c0-9.875-8.125-18-18-18z" fill="#01e56c" fill-rule="nonzero"/>
 </g>
 <circle cx="15.743" cy="16.768" r="2.7523" fill="#fff" stroke-width="1.1009"/>
 <circle cx="33.358" cy="16.768" r="2.7523" fill="#fff" stroke-width="1.1009"/>
 <path transform="matrix(1.1009 0 0 1.1009 -4.2384 -2.4977)" d="m17 28.487v10.513s0 1 1 1h15.3s1 0 1-1v-9c0-1-1-1-1-1h-8.3l-2-1.513h-5s-1 0-1 1z" fill="#fdff00" fill-rule="nonzero"/>
</svg>
