<svg viewBox="0 0 48 48" xmlns="http://www.w3.org/2000/svg">
 <linearGradient id="a" x1="408.09" x2="407.77" y1="547.95" y2="498.37" gradientUnits="userSpaceOnUse">
  <stop stop-color="#833cfc" offset="0"/>
  <stop stop-color="#cd87de" offset="1"/>
 </linearGradient>
 <linearGradient id="b" x1="410.57" x2="410.48" y1="503.76" y2="545.11" gradientUnits="userSpaceOnUse">
  <stop stop-color="#fff" offset="0"/>
  <stop stop-color="#ececec" offset="1"/>
 </linearGradient>
 <g transform="translate(-384.57 -499.8)">
  <rect x="385.57" y="500.8" width="46" height="46" ry="23" fill="url(#a)"/>
  <path d="m413.52 523.2a1.8333 1.8333 0 0 1-1.8334-1.8333 1.8333 1.8333 0 0 1 1.8334-1.8333 1.8333 1.8333 0 0 1 1.8333 1.8333 1.8333 1.8333 0 0 1-1.8333 1.8333m-3.6667-4.8889a1.8333 1.8333 0 0 1-1.8333-1.8333 1.8333 1.8333 0 0 1 1.8333-1.8333 1.8333 1.8333 0 0 1 1.8333 1.8333 1.8333 1.8333 0 0 1-1.8333 1.8333m-6.1111 0a1.8333 1.8333 0 0 1-1.8333-1.8333 1.8333 1.8333 0 0 1 1.8333-1.8333 1.8333 1.8333 0 0 1 1.8333 1.8333 1.8333 1.8333 0 0 1-1.8333 1.8333m-3.6667 4.8889a1.8333 1.8333 0 0 1-1.8333-1.8333 1.8333 1.8333 0 0 1 1.8333-1.8333 1.8333 1.8333 0 0 1 1.8333 1.8333 1.8333 1.8333 0 0 1-1.8333 1.8333m6.7222-11a11 11 0 0 0-11 11 11 11 0 0 0 11 11 1.8333 1.8333 0 0 0 1.8333-1.8333c0-0.47667-0.18331-0.90445-0.47665-1.2222-0.28112-0.32999-0.46445-0.75777-0.46445-1.2222a1.8333 1.8333 0 0 1 1.8333-1.8333h2.1633a6.1111 6.1111 0 0 0 6.1111-6.1111c0-5.4022-4.9256-9.7778-11-9.7778z" fill="url(#b)"/>
 </g>
</svg>
