<svg version="1.1" viewBox="0 0 32 32" xmlns="http://www.w3.org/2000/svg" xmlns:xlink="http://www.w3.org/1999/xlink">
 <defs>
  <linearGradient id="a" x2="0" y1="532.8" y2="527.8" gradientUnits="userSpaceOnUse">
   <stop stop-color="#ebf1f1" offset="0"/>
   <stop stop-color="#fcfcfc" offset="1"/>
  </linearGradient>
  <filter id="g" x="-.036" y="-.036" width="1.072" height="1.072" color-interpolation-filters="sRGB">
   <feGaussianBlur stdDeviation="0.45"/>
  </filter>
  <linearGradient id="b" x1="16" x2="16" y1="4" y2="11" gradientUnits="userSpaceOnUse">
   <stop stop-color="#fdfefe" offset="0"/>
   <stop stop-color="#dfe4e6" offset="1"/>
  </linearGradient>
  <linearGradient id="f" x1="16" x2="16" y1="1" y2="31" gradientUnits="userSpaceOnUse">
   <stop stop-color="#f71252" offset="0"/>
   <stop stop-color="#ff5c39" offset="1"/>
  </linearGradient>
  <filter id="j" x="-.04125" y="-.11" width="1.0825" height="1.22" color-interpolation-filters="sRGB">
   <feGaussianBlur stdDeviation="0.275"/>
  </filter>
  <linearGradient id="e" x1="7.5" x2="7.5" y1="12" y2="17" gradientUnits="userSpaceOnUse" xlink:href="#a"/>
  <linearGradient id="d" x1="7.5" x2="7.5" y1="12" y2="17" gradientTransform="translate(17)" gradientUnits="userSpaceOnUse" xlink:href="#a"/>
  <filter id="i" x="-.06" y="-.06" width="1.12" height="1.12" color-interpolation-filters="sRGB">
   <feGaussianBlur stdDeviation="0.125"/>
  </filter>
  <filter id="h" x="-.06" y="-.06" width="1.12" height="1.12" color-interpolation-filters="sRGB">
   <feGaussianBlur stdDeviation="0.125"/>
  </filter>
  <radialGradient id="c" cx="15.851" cy="20.863" r="13.734" gradientTransform="matrix(1 0 0 .32764 0 3.698)" gradientUnits="userSpaceOnUse">
   <stop stop-opacity=".62745" offset="0"/>
   <stop stop-color="#030303" stop-opacity="0" offset="1"/>
  </radialGradient>
  <linearGradient id="k" x2="1" gradientTransform="matrix(0 -11.357 11.357 0 16 24.166)" gradientUnits="userSpaceOnUse">
   <stop stop-color="#d3d3d3" stop-opacity=".9" offset="0"/>
   <stop stop-color="#fcf9f9" stop-opacity=".9" offset="1"/>
  </linearGradient>
 </defs>
 <circle cx="16" cy="16" r="15" fill-rule="evenodd" filter="url(#g)" opacity=".25" style="paint-order:fill markers stroke"/>
 <circle cx="16" cy="16" r="15" fill="url(#f)" fill-rule="evenodd" style="paint-order:fill markers stroke"/>
 <path d="m20.711 23.714-3.4385-3.4389c-0.03235-0.03235-0.06671-0.06111-0.10226-0.08788l0.60916-0.64112c0.03116-0.03156 0.06072-0.06471 0.08788-0.09826 0.80849 0.30478 1.7572 0.13342 2.4071-0.51649 0.47375-0.47415 0.71302-1.1296 0.6551-1.7991-0.0064-0.0755-0.05632-0.14101-0.12782-0.16697-0.0715-0.02597-0.15139-0.0084-0.20532 0.04554l-1.1021 1.1017-1.1157-0.28121-0.31636-1.1508 1.1017-1.1021c0.05393-0.05393 0.0715-0.13382 0.04554-0.20532-0.02597-0.0715-0.09147-0.12143-0.16737-0.12822-0.66908-0.05752-1.3246 0.18135-1.7991 0.6555-0.64911 0.64951-0.82087 1.5978-0.51649 2.4059-0.03315 0.02796-0.06591 0.05792-0.09826 0.08948l-0.89637 0.86122-1.6461-1.6461c-0.02077-0.02037-0.04234-0.03875-0.06511-0.05553 0.01917-0.03395 0.03795-0.0691 0.05553-0.10506 0.34792 0.06671 0.98345-0.61036 1.5231-1.1496l-1.5726-1.5726c-0.70303 0.70303-1.2163 1.1752-1.15 1.5227-0.16058 0.07869-0.30398 0.17456-0.40584 0.27642l-0.2213 0.2217c-0.1438 0.1438-0.23048 0.32316-0.26164 0.5097-0.02157 0.02437-0.04314 0.05033-0.06511 0.07789l-0.08229 0.10386c-0.0024 0.0024-0.0096 0.01278-0.01158 0.01518l-0.0747 0.10506c-0.04674 0.06231-0.08788 0.13022-0.12742 0.19573-0.01438 0.02397-0.02956 0.04833-0.04474 0.0727-0.0024 0.0044-0.0048 0.0084-0.0068 0.01238l-0.03315 0.06271c-0.04035 0.0755-0.08189 0.15339-0.11744 0.23927l-6e-3 0.01358c-0.04194 0.09986-0.08548 0.20332-0.11624 0.31317l-0.01438 0.04753c-0.01238 0.03915-0.02437 0.07789-0.03555 0.12423l-0.03076 0.15139c-0.02277 0.09467-0.03036 0.18814-0.03715 0.27083l-0.0044 0.05433c-0.01119 0.08588-8e-3 0.16657-0.0048 0.23807 8e-4 0.02357 2e-3 0.04713 0.0024 0.07869 8e-4 0.01318 0.0012 0.02597 0.0016 0.03875 8e-4 0.03195 0.0016 0.06791 0.0076 0.10625l0.01917 0.12263c0.0044 0.02397 0.0076 0.04673 0.01079 0.06911 0.0076 0.04993 0.01518 0.10146 0.02996 0.15019l0.08029 0.27922c0.02477 0.08468 0.10546 0.14101 0.19373 0.13501 0.04674-0.0036 0.08868-0.02357 0.11984-0.05473 0.02796-0.02796 0.04714-0.06471 0.05313-0.10625l0.04154-0.28361c0.0032-0.02237 0.01278-0.05553 0.02277-0.09028 0.0072-0.02437 0.01398-0.04913 0.01957-0.0699l0.02956-0.10625c0.0036-0.01398 0.01079-0.02796 0.01678-0.04234 6e-3 -0.01358 0.01158-0.02716 0.01718-0.04075 0.01-0.02237 0.01917-0.04474 0.02836-0.06791 0.01837-0.04514 0.03555-0.08788 0.06191-0.12982 0.01158-0.01917 0.02197-0.03835 0.03316-0.05792 0.02756-0.04953 0.05353-0.09587 0.08468-0.13422 0.0016-0.0024 0.0036-0.0048 0.0056-0.0076l0.0699-0.09667c0.01438-0.01797 0.03036-0.03515 0.04634-0.05233 0.01079-0.01238 0.02197-0.02437 0.03595-0.04075 0.04154-0.04953 0.08988-0.09307 0.13661-0.13541l0.02517-0.02277c0.03475-0.03195 0.0751-0.06231 0.11704-0.09427 0.01717-0.01318 0.03435-0.02597 0.05073-0.03835 0.02157-0.01398 0.04194-0.02756 0.06231-0.04154 0.03835-0.02557 0.0711-0.04793 0.10945-0.06791l0.08269-0.04713 0.08388-0.04114c0.02956-0.01518 0.05832-0.02676 0.08468-0.03755 0.01598-0.0064 0.03156-0.01278 0.04594-0.01917 0.01478-0.0048 0.02876-0.01039 0.04234-0.01558 0.01797-0.0064 0.03355-0.01278 0.05473-0.01797l0.02237-0.0052c0.02477 0.03995 0.05393 0.07789 0.08828 0.11264l1.6286 1.6282-3.476 3.3386c-0.0016 0.0012-0.0028 0.0028-4e-3 4e-3 -0.43261 0.4326-0.50291 1.0661-0.0703 1.4987 0.4326 0.4326 1.0258 0.32156 1.458-0.11065l0.0056-0.0056 3.0662-3.2288c0.01797 0.02117 0.03595 0.04234 0.05593 0.06231l3.4385 3.4389c0.38507 0.38547 1.0102 0.38547 1.3953 0 0.38547-0.38547 0.38547-1.0102 0-1.3953zm-8.41 0.77174c-0.15938 0.15938-0.41743 0.15938-0.57681 0s-0.15938-0.41743 0-0.57681c0.15898-0.15938 0.41743-0.15938 0.57681 0 0.15898 0.15938 0.15898 0.41743 0 0.57681z" fill="url(#k)" stroke-width=".39945"/>
 <g stroke-linecap="square" stroke-width=".1">
  <path d="m11 4c-1.662 0-3 1.338-3 3v3h2v-3c0-0.55401 0.44598-1 1-1h10c0.55402 0 1 0.44599 1 1v3h2v-3c0-1.662-1.338-3-3-3h-10z" filter="url(#j)" opacity=".25"/>
  <path d="m11 4c-1.662 0-3 1.338-3 3v3h2v-3c0-0.55401 0.44598-1 1-1h10c0.55402 0 1 0.44599 1 1v3h2v-3c0-1.662-1.338-3-3-3h-10z" fill="url(#b)"/>
 </g>
 <g fill-rule="evenodd">
  <path d="m7.5 12a2.5 2.5 0 0 0-2.5 2.5 2.5 2.5 0 0 0 2.5 2.5 2.5 2.5 0 0 0 2.5-2.5 2.5 2.5 0 0 0-2.5-2.5zm0 1a1.5 1.5 0 0 1 1.5 1.5 1.5 1.5 0 0 1-1.5 1.5 1.5 1.5 0 0 1-1.5-1.5 1.5 1.5 0 0 1 1.5-1.5z" filter="url(#i)" opacity=".25" style="paint-order:normal"/>
  <path d="m7.5 12a2.5 2.5 0 0 0-2.5 2.5 2.5 2.5 0 0 0 2.5 2.5 2.5 2.5 0 0 0 2.5-2.5 2.5 2.5 0 0 0-2.5-2.5zm0 1a1.5 1.5 0 0 1 1.5 1.5 1.5 1.5 0 0 1-1.5 1.5 1.5 1.5 0 0 1-1.5-1.5 1.5 1.5 0 0 1 1.5-1.5z" fill="url(#e)" style="paint-order:normal"/>
  <path d="m24.5 12a2.5 2.5 0 0 0-2.5 2.5 2.5 2.5 0 0 0 2.5 2.5 2.5 2.5 0 0 0 2.5-2.5 2.5 2.5 0 0 0-2.5-2.5zm0 1a1.5 1.5 0 0 1 1.5 1.5 1.5 1.5 0 0 1-1.5 1.5 1.5 1.5 0 0 1-1.5-1.5 1.5 1.5 0 0 1 1.5-1.5z" filter="url(#h)" opacity=".25" style="paint-order:normal"/>
  <path d="m24.5 12a2.5 2.5 0 0 0-2.5 2.5 2.5 2.5 0 0 0 2.5 2.5 2.5 2.5 0 0 0 2.5-2.5 2.5 2.5 0 0 0-2.5-2.5zm0 1a1.5 1.5 0 0 1 1.5 1.5 1.5 1.5 0 0 1-1.5 1.5 1.5 1.5 0 0 1-1.5-1.5 1.5 1.5 0 0 1 1.5-1.5z" fill="url(#d)" style="paint-order:normal"/>
 </g>
 <path d="m16 1a15 15 0 0 0-13.74 9h27.469a15 15 0 0 0-13.729-9z" fill="url(#c)" opacity=".35" style="paint-order:fill markers stroke"/>
</svg>
