<svg viewBox="0 0 48 48" xmlns="http://www.w3.org/2000/svg">
 <linearGradient id="a" x1="355.73" x2="355.69" y1="547" y2="505.33" gradientUnits="userSpaceOnUse">
  <stop stop-color="#1297ca" offset="0"/>
  <stop stop-color="#70e2ec" offset="1"/>
 </linearGradient>
 <linearGradient id="b" x1="374.54" x2="374.54" y1="507.15" y2="548.65" gradientTransform="matrix(-.56777 0 0 .61822 579.27 212.13)" gradientUnits="userSpaceOnUse">
  <stop stop-color="#fdcc59" offset="0"/>
  <stop stop-color="#f5a844" offset="1"/>
 </linearGradient>
 <g transform="matrix(.9746 0 0 .9746 -322.3 -489.31)">
  <path d="m372.72 511.01c-4.6438-3.7792-10.81-5.8604-17.362-5.8604-6.5523 0-12.718 2.0813-17.362 5.8604-4.6842 3.812-7.2638 8.8925-7.2638 14.306 0 5.1665 2.3515 10.029 6.6381 13.776-0.0773 0.17385-0.13864 0.35675-0.1778 0.54904l-1.4085 6.9283c-0.16748 0.8234 0.0576 1.3144 0.27567 1.5815 0.25214 0.30847 0.62586 0.47846 1.0524 0.47846 0.32207 0 0.66821-0.095 1.0289-0.28251l8.1925-4.2561c2.8364 0.91297 5.8857 1.3917 9.0243 1.3917 6.5523 0 12.718-2.0813 17.362-5.8604 4.684-3.8119 7.2637-8.8924 7.2637-14.306 0-5.4133-2.5796-10.494-7.2636-14.306z" fill="url(#a)"/>
  <path transform="matrix(1.1602 0 0 1.1602 -26.182 -92.59)" d="m325.55 521.88 2.0029 0.47687q-0.28612 0.76299-0.66762 1.4306h9.6328v7.5346h-14.306v1.2399h16.881v1.526h-16.881v1.2399h17.072q-0.28612 6.1993-0.95374 7.4392-0.57225 1.3352-2.1936 1.3352-0.763 0-2.3844-0.28612l-0.3815-1.9075q1.8121 0.28612 2.5751 0.28612 0.57224 0 0.76299-0.57224 0.28612-0.66762 0.47687-4.6734h-16.881v-13.162h4.4826q0.47687-0.95374 0.76299-1.9075zm-3.3381 3.4335v1.526h12.399v-1.526zm0 2.9566v1.526h12.399v-1.526zm4.1011 9.2513h1.9075v2.5751h4.6734v-2.3844h1.8121v3.9104h-12.971v1.6214h-1.9075v-5.4363h1.9075v2.289h4.578z" fill="#fff" opacity=".8"/>
  <path d="m358.65 529.15c2.3219-2.0575 5.4049-3.1906 8.6809-3.1906 3.2761 0 6.3591 1.1331 8.6809 3.1906 2.3421 2.0754 3.6319 4.8413 3.6319 7.7884 0 2.8128-1.1757 5.4601-3.3191 7.4998 0.0388 0.0947 0.0694 0.19423 0.0889 0.29891l0.70425 3.772c0.0837 0.44829-0.0287 0.7156-0.13788 0.861-0.12614 0.16793-0.31294 0.26049-0.52621 0.26049-0.16104 0-0.3341-0.0517-0.51444-0.15382l-4.0963-2.3171c-1.4182 0.49704-2.9428 0.75766-4.5121 0.75766-3.2761 0-6.359-1.1331-8.6809-3.1906-2.342-2.0753-3.6318-4.8412-3.6318-7.7883s1.2898-5.7131 3.6318-7.7884z" fill="url(#b)"/>
 </g>
 <g transform="matrix(.084036 0 0 .084036 18.91 15.738)" fill="#fff" fill-opacity=".85">
  <path d="m120.31878 192.70649h59.117c-1.666 10.675-7.326 22.046-16.84 33.827-6.064-9.714-9.964-19.135-12.188-25.408-.562-1.583-2.058-2.641-3.736-2.641h-9.728c-1.264 0-2.453.603-3.2 1.623-.746 1.021-.961 2.335-.579 3.542 2.305 7.258 7.614 21.507 17.429 35.986-11.594 11.271-23.143 19.394-27.611 22.387-1.778 1.192-2.289 3.581-1.153 5.396l4.882 7.808c.565.903 1.473 1.542 2.515 1.771.28.063.564.093.846.093.769 0 1.527-.224 2.178-.651 4.601-3.024 16.538-11.28 29.038-23.255 4.625 4.82 15.499 13.268 21.942 17.954.983.715 2.242.938 3.415.607 1.172-.334 2.124-1.188 2.586-2.312l3.642-8.903c.732-1.789.065-3.85-1.579-4.867-4.198-2.604-12.101-7.952-18.552-14.902 14.163-16.575 22.24-32.734 24.018-48.049h3.121c2.189 0 3.964-1.775 3.964-3.965v-10.567c0-2.189-1.774-3.964-3.964-3.964h-30.872v-5.426c0-2.19-1.774-3.965-3.964-3.965h-9.89c-2.189 0-3.964 1.774-3.964 3.965v5.426h-30.872c-2.189 0-3.964 1.774-3.964 3.964v10.567c-.001 2.184 1.774 3.959 3.963 3.959z"/>
  <path d="m256.10311 180.09731c-.516-1.66-2.049-2.791-3.787-2.791h-22.026c-1.743 0-3.281 1.139-3.791 2.805l-26.318 86.05c-.369 1.202-.145 2.508.604 3.521.748 1.009 1.93 1.604 3.188 1.604h13.664c1.779 0 3.342-1.188 3.819-2.901l5.9-21.229h26.923l6.389 21.307c.502 1.678 2.047 2.825 3.797 2.825h14.523c1.262 0 2.444-.599 3.19-1.61.748-1.015.969-2.323.594-3.526zm-25.697 51.186 9.917-38.067h.27l10.604 38.067z"/>
 </g>
</svg>
