<svg version="1.1" viewBox="0 0 1024 1024" xmlns="http://www.w3.org/2000/svg" xmlns:xlink="http://www.w3.org/1999/xlink">
 <defs>
  <linearGradient id="f" x1="540.14" x2="540.14" y1="29.77" y2="1055" gradientTransform="matrix(.99492 0 0 .99492 2.599 2.7429)" gradientUnits="userSpaceOnUse">
   <stop stop-color="#fff" stop-opacity=".58824" offset="0"/>
   <stop stop-color="#fff" stop-opacity="0" offset="1"/>
  </linearGradient>
  <linearGradient id="c" x1="264" x2="264" y1="-12" y2="528" gradientUnits="userSpaceOnUse">
   <stop stop-color="#f4fbfc" offset="0"/>
   <stop stop-color="#d6d6d6" offset="1"/>
  </linearGradient>
  <filter id="i" color-interpolation-filters="sRGB">
   <feFlood flood-color="rgb(0,0,0)" flood-opacity=".29412" result="flood"/>
   <feComposite in="flood" in2="SourceGraphic" operator="in" result="composite1"/>
   <feGaussianBlur in="composite1" result="blur" stdDeviation="3"/>
   <feOffset dx="0" dy="6" result="offset"/>
   <feComposite in="offset" in2="SourceGraphic" operator="out" result="composite2"/>
  </filter>
  <linearGradient id="d" x1="520" x2="520" y1="52.362" y2="1052.4" gradientTransform="matrix(1.0455 0 0 1.0455 -22.79 -25.123)" gradientUnits="userSpaceOnUse" xlink:href="#a"/>
  <linearGradient id="a">
   <stop stop-color="#f6f7f7" offset="0"/>
   <stop stop-color="#dce7f0" offset="1"/>
  </linearGradient>
  <linearGradient id="g" x1="264" x2="264" y1="-12" y2="528" gradientUnits="userSpaceOnUse" xlink:href="#a"/>
  <radialGradient id="b" cx="512" cy="540.36" r="450" gradientTransform="matrix(2.64 -.017778 .013888 2.0623 -847.18 -564.95)" gradientUnits="userSpaceOnUse">
   <stop stop-color="#38bb70" offset="0"/>
   <stop stop-color="#41e779" offset=".49495"/>
   <stop stop-color="#4bea95" offset="1"/>
  </radialGradient>
  <filter id="h" x="-.036" y="-.036" width="1.072" height="1.072" color-interpolation-filters="sRGB">
   <feGaussianBlur stdDeviation="13.928347"/>
  </filter>
 </defs>
 <g transform="translate(0 -28.362)">
  <circle cx="512" cy="540.36" r="490" color="#000000" fill="url(#d)"/>
  <circle cx="512" cy="540.36" r="450" fill="url(#b)" fill-rule="evenodd" style="paint-order:stroke fill markers"/>
  <circle cx="512" cy="540.36" r="487.51" color="#000000" fill="none" stroke="url(#f)" stroke-width="4.975"/>
  <g transform="translate(256 284.36)" fill="url(#c)" filter="url(#i)" opacity=".72">
   <path d="m256 180.95c-41.385 0-75.053 33.669-75.053 75.053s33.669 75.053 75.053 75.053 75.053-33.669 75.053-75.053-33.668-75.053-75.053-75.053z"/>
   <path d="m459.57 256c15.694-25.699 28.291-51.426 37.262-76.392 23.834-66.331 19.462-120.36-12.31-152.13-31.772-31.772-85.801-36.143-152.13-12.31-24.967 8.971-50.693 21.568-76.392 37.262-25.699-15.694-51.425-28.291-76.392-37.262-66.331-23.833-120.36-19.462-152.13 12.31-31.772 31.772-36.144 85.8-12.31 152.13 8.971 24.967 21.568 50.693 37.262 76.392-15.694 25.699-28.291 51.426-37.262 76.392-23.834 66.331-19.462 120.36 12.31 152.13 18.267 18.267 43.887 27.476 74.977 27.476 22.984 0 48.961-5.035 77.155-15.166 24.967-8.971 50.693-21.568 76.392-37.262 25.699 15.694 51.425 28.291 76.392 37.262 28.199 10.132 54.168 15.166 77.155 15.166 31.086 0 56.711-9.211 74.977-27.476 31.772-31.772 36.144-85.8 12.31-152.13-8.971-24.967-21.568-50.693-37.262-76.392zm-117.04-212.6c24.722-8.883 47.161-13.369 66.824-13.369 2.251 0 4.467 0.059 6.645 0.176 20.221 1.094 36.139 7.313 47.31 18.484s17.39 27.089 18.484 47.31c1.146 21.197-3.293 45.916-13.193 73.468-6.876 19.137-16.08 38.8-27.335 58.58-20.447-29.257-44.696-58.104-71.953-85.361s-56.104-51.506-85.361-71.953c19.78-11.255 39.443-20.459 58.579-27.335zm81.513 212.6c-20.837 31.435-46.519 62.683-75.942 92.106-29.424 29.424-60.671 55.105-92.106 75.942-31.435-20.837-62.683-46.518-92.106-75.942-29.424-29.423-55.105-60.671-75.942-92.106 20.837-31.435 46.519-62.683 75.942-92.106 29.424-29.424 60.671-55.105 92.106-75.942 31.435 20.837 62.682 46.518 92.106 75.942 29.424 29.423 55.105 60.671 75.942 92.106zm-380.65-86.535c-9.9-27.552-14.339-52.271-13.193-73.468 1.094-20.221 7.313-36.139 18.484-47.31s27.089-17.39 47.31-18.484c2.179-0.118 4.392-0.176 6.645-0.176 19.661 0 42.103 4.486 66.824 13.369 19.137 6.876 38.799 16.08 58.58 27.335-29.257 20.447-58.104 44.696-85.361 71.953s-51.506 56.104-71.953 85.361c-11.256-19.781-20.46-39.444-27.336-58.58zm126.07 299.14c-27.552 9.9-52.273 14.338-73.468 13.193-20.221-1.094-36.139-7.313-47.31-18.484s-17.39-27.089-18.484-47.31c-1.146-21.197 3.293-45.916 13.193-73.468 6.876-19.137 16.08-38.8 27.335-58.58 20.447 29.257 44.696 58.104 71.953 85.361s56.104 51.506 85.361 71.953c-19.781 11.255-39.444 20.459-58.58 27.335zm312.33-52.601c-1.094 20.221-7.313 36.139-18.484 47.31s-27.089 17.39-47.31 18.484c-21.195 1.142-45.916-3.293-73.468-13.193-19.137-6.876-38.799-16.08-58.58-27.335 29.257-20.447 58.104-44.696 85.361-71.953s51.506-56.104 71.953-85.361c11.255 19.78 20.459 39.443 27.335 58.58 9.9 27.552 14.339 52.27 13.193 73.468z"/>
  </g>
  <g transform="translate(256 284.36)" fill="url(#g)">
   <path d="m256 180.95c-41.385 0-75.053 33.669-75.053 75.053s33.669 75.053 75.053 75.053 75.053-33.669 75.053-75.053-33.668-75.053-75.053-75.053z"/>
   <path d="m459.57 256c15.694-25.699 28.291-51.426 37.262-76.392 23.834-66.331 19.462-120.36-12.31-152.13-31.772-31.772-85.801-36.143-152.13-12.31-24.967 8.971-50.693 21.568-76.392 37.262-25.699-15.694-51.425-28.291-76.392-37.262-66.331-23.833-120.36-19.462-152.13 12.31-31.772 31.772-36.144 85.8-12.31 152.13 8.971 24.967 21.568 50.693 37.262 76.392-15.694 25.699-28.291 51.426-37.262 76.392-23.834 66.331-19.462 120.36 12.31 152.13 18.267 18.267 43.887 27.476 74.977 27.476 22.984 0 48.961-5.035 77.155-15.166 24.967-8.971 50.693-21.568 76.392-37.262 25.699 15.694 51.425 28.291 76.392 37.262 28.199 10.132 54.168 15.166 77.155 15.166 31.086 0 56.711-9.211 74.977-27.476 31.772-31.772 36.144-85.8 12.31-152.13-8.971-24.967-21.568-50.693-37.262-76.392zm-117.04-212.6c24.722-8.883 47.161-13.369 66.824-13.369 2.251 0 4.467 0.059 6.645 0.176 20.221 1.094 36.139 7.313 47.31 18.484s17.39 27.089 18.484 47.31c1.146 21.197-3.293 45.916-13.193 73.468-6.876 19.137-16.08 38.8-27.335 58.58-20.447-29.257-44.696-58.104-71.953-85.361s-56.104-51.506-85.361-71.953c19.78-11.255 39.443-20.459 58.579-27.335zm81.513 212.6c-20.837 31.435-46.519 62.683-75.942 92.106-29.424 29.424-60.671 55.105-92.106 75.942-31.435-20.837-62.683-46.518-92.106-75.942-29.424-29.423-55.105-60.671-75.942-92.106 20.837-31.435 46.519-62.683 75.942-92.106 29.424-29.424 60.671-55.105 92.106-75.942 31.435 20.837 62.682 46.518 92.106 75.942 29.424 29.423 55.105 60.671 75.942 92.106zm-380.65-86.535c-9.9-27.552-14.339-52.271-13.193-73.468 1.094-20.221 7.313-36.139 18.484-47.31s27.089-17.39 47.31-18.484c2.179-0.118 4.392-0.176 6.645-0.176 19.661 0 42.103 4.486 66.824 13.369 19.137 6.876 38.799 16.08 58.58 27.335-29.257 20.447-58.104 44.696-85.361 71.953s-51.506 56.104-71.953 85.361c-11.256-19.781-20.46-39.444-27.336-58.58zm126.07 299.14c-27.552 9.9-52.273 14.338-73.468 13.193-20.221-1.094-36.139-7.313-47.31-18.484s-17.39-27.089-18.484-47.31c-1.146-21.197 3.293-45.916 13.193-73.468 6.876-19.137 16.08-38.8 27.335-58.58 20.447 29.257 44.696 58.104 71.953 85.361s56.104 51.506 85.361 71.953c-19.781 11.255-39.444 20.459-58.58 27.335zm312.33-52.601c-1.094 20.221-7.313 36.139-18.484 47.31s-27.089 17.39-47.31 18.484c-21.195 1.142-45.916-3.293-73.468-13.193-19.137-6.876-38.799-16.08-58.58-27.335 29.257-20.447 58.104-44.696 85.361-71.953s51.506-56.104 71.953-85.361c11.255 19.78 20.459 39.443 27.335 58.58 9.9 27.552 14.339 52.27 13.193 73.468z"/>
  </g>
  <circle cx="512" cy="540.36" r="434.15" fill="none" opacity=".4" stroke="#4cafb5" stroke-linecap="round" stroke-linejoin="round" stroke-width="25" style="paint-order:stroke fill markers"/>
  <circle cx="512" cy="540.36" r="464.28" fill="none" filter="url(#h)" opacity=".15" stroke="#3ed876" stroke-linecap="round" stroke-linejoin="round" stroke-width="21.444" style="paint-order:stroke markers fill"/>
 </g>
</svg>
