<svg viewBox="0 0 48 48" xmlns="http://www.w3.org/2000/svg">
 <linearGradient id="a" x1="401.18" x2="401.18" y1="549.91" y2="516.93" gradientUnits="userSpaceOnUse">
  <stop stop-color="#317a02" offset="0"/>
  <stop stop-color="#8cff58" offset="1"/>
 </linearGradient>
 <g transform="matrix(1.6335 0 0 1.6335 -630.17 -844.67)" fill="url(#a)" stroke="url(#a)" stroke-width="1.3848">
  <circle cx="400.57" cy="531.8" r="14"/>
  <circle cx="400.57" cy="531.8" r="14"/>
  <circle cx="400.57" cy="531.8" r="0"/>
 </g>
 <g transform="matrix(.05183 0 0 .05183 11.667 11.827)" fill="#fff" fill-opacity=".85">
  <path d="m420.49 352.01h-112.95v-35.567l-32.487 43.027-32.507 43.02 32.507 43.027 32.487 43.035v-24.616l60.198-2.275c53.211-3.215 65.931-25.188 65.931-25.188l59.783-111.08c-22.037 30.73-72.964 26.622-72.964 26.622z"/>
  <path d="m451.53 192.18-96.347 55.964 48.167 83.509c49.089 4.577 64.209-10.561 64.209-10.561 39.335-22.249 17.459-71.586 17.459-71.586z"/>
  <path d="m66.956 425.68c-14.868-34.753 15.083-76.187 15.083-76.187l58.553-96.576 30.396 18.444-19.966-50.102-19.918-50.093-53.647 5.485-53.645 5.498 21.028 12.737-29.22 52.668c-24.84 47.157-12.608 69.435-12.608 69.435z"/>
  <path d="m83.707 408.62c-1.347 45.192 52.169 52.021 52.169 52.021l66.432 1.099 2.072-111.42-96.383-2.076c-29.375 39.593-24.29 60.38-24.29 60.38z"/>
  <path d="m324.36 181.03 53.285 8.152 22.395-49.049 22.43-49.027-21.639 11.685-30.604-51.862c-28.113-45.297-53.517-46.026-53.517-46.026l-126.14 0.163c37.53 4.774 58.099 51.547 58.099 51.547l53.657 99.358-31.273 16.901z"/>
  <path d="m236.69 75.568c-19.295-45.371-39.812-51.511-39.812-51.511-38.274-24.011-71.256 18.677-71.256 18.677l-34.557 56.725 95.033 58.174z"/>
 </g>
</svg>
