<svg version="1.1" viewBox="0 0 48 48" xmlns="http://www.w3.org/2000/svg">
 <defs>
  <linearGradient id="a" x2="1" gradientTransform="matrix(-.71678 -45.984 45.984 -.71678 24.833 47)" gradientUnits="userSpaceOnUse">
   <stop stop-color="#026e8b" offset="0"/>
   <stop stop-color="#1dc2f3" offset="1"/>
  </linearGradient>
 </defs>
 <path d="m24.833 7.5714c-6.0493 0-10.952 4.9036-10.952 10.952v10.953c0 6.0486 4.9029 10.952 10.952 10.952 6.0493 0 10.952-4.9036 10.952-10.952v-10.953c0-6.0486-4.9029-10.952-10.952-10.952z" enable-background="new" fill="#c7162b" stroke-width=".71429"/>
 <path d="m24.833 1c-8.469 0-15.333 6.865-15.333 15.333v15.334c0 8.4681 6.8641 15.333 15.333 15.333 8.469 0 15.333-6.865 15.333-15.333v-15.334c0-8.4681-6.8641-15.333-15.333-15.333zm8.864 28.639c0.345 0.277 0.546 0.69601 0.546 1.139 0 0.443-0.201 0.86201-0.546 1.139l-9.156 7.3391c-0.264 0.212-0.58701 0.32101-0.913 0.32101-0.215 0-0.431-0.04699-0.63201-0.14401-0.50601-0.243-0.82801-0.754-0.82801-1.316v-10.481l-4.3681 3.531c-0.27 0.219-0.594 0.325-0.91701 0.325-0.425 0-0.847-0.185-1.136-0.542-0.507-0.627-0.409-1.547 0.218-2.053l6.055-4.8951-6.055-4.8951c-0.627-0.507-0.72501-1.426-0.218-2.053 0.507-0.627 1.426-0.724 2.053-0.21701l4.3681 3.53v-10.484c0-0.561 0.322-1.073 0.82801-1.316s1.107-0.174 1.545 0.177l9.156 7.34c0.345 0.277 0.546 0.69601 0.546 1.139 0 0.44295-0.201 0.86201-0.546 1.1391l-7.034 5.638zm-3.2481 1.139-5.3611-4.299v8.597zm0-13.555-5.3611-4.299v8.597z" enable-background="new" fill="url(#a)"/>
</svg>
