<svg viewBox="0 0 48 48" xmlns="http://www.w3.org/2000/svg" xmlns:xlink="http://www.w3.org/1999/xlink">
 <linearGradient id="a">
  <stop stop-color="#ff433a" offset="0"/>
  <stop stop-color="#ff9436" offset="1"/>
 </linearGradient>
 <linearGradient id="b" x1="389.96" x2="410.34" y1="509.78" y2="509.78" gradientTransform="matrix(1.0392 -.18754 .17482 1.1148 -109.45 16.916)" gradientUnits="userSpaceOnUse" xlink:href="#a"/>
 <linearGradient id="c" x1="412.34" x2="413.21" y1="548.16" y2="505.35" gradientTransform="matrix(1.151 0 0 1.1544 -61.695 -80.99)" gradientUnits="userSpaceOnUse" xlink:href="#a"/>
 <linearGradient id="d" x1="408.75" x2="408.57" y1="540.96" y2="506.8" gradientTransform="matrix(1.5293 0 0 1.5294 -592.82 -769.1)" gradientUnits="userSpaceOnUse">
  <stop stop-color="#8798a9" offset="0"/>
  <stop stop-color="#bfc8d1" offset="1"/>
 </linearGradient>
 <linearGradient id="e" x1="409.57" x2="409.57" y1="540.8" y2="506.8" gradientTransform="matrix(.52941 0 0 .52941 -184.3 -245.31)" gradientUnits="userSpaceOnUse">
  <stop stop-color="#3d434a" offset="0"/>
  <stop stop-color="#5f6974" offset="1"/>
 </linearGradient>
 <g transform="translate(-384.57 -499.8)">
  <path d="m407.19 501.72c-10.531 0.43133-11.115 1.4508-12.399 2.2177-2.9731 1.7761-3.7683 0.0129-2.4038-1.7127-1.3172 0.13559-2.6894 2.6008-2.537 4.0696 0.14413 1.389-0.34841 2.7246-1.1139 2.2502-1.2688-0.78628-3.968-0.31558-4.1092 1.6535 0.91986-0.48131 2.5876-0.73973 2.344 0.79292-0.20187 1.2703-0.45372 4.0336 1.8684 5.5905 2.3221 1.5568 11.332-0.0183 11.332-0.0183z" fill="url(#b)" fill-rule="evenodd"/>
  <g transform="matrix(.88468 0 0 .88462 380.26 495.49)">
   <path d="m32 6c-14.403 0-25.998 11.596-25.998 26s11.595 26 25.998 26 25.998-11.596 25.998-26-11.595-26-25.998-26zm0 23c1.662 0 3 1.338 3 3s-1.338 3-3 3-3-1.338-3-3 1.338-3 3-3z" fill="url(#d)"/>
   <path d="m32 23c-4.986 0-9 4.014-9 9s4.014 9 9 9 9-4.014 9-9-4.014-9-9-9zm0 6c1.662 0 3 1.338 3 3s-1.338 3-3 3-3-1.338-3-3 1.338-3 3-3z" fill="url(#e)"/>
   <path d="m32 24a8 8 0 0 0-8 8 8 8 0 0 0 8 8 8 8 0 0 0 8-8 8 8 0 0 0-8-8zm0 1a7 7 0 0 1 7 7 7 7 0 0 1-7 7 7 7 0 0 1-7-7 7 7 0 0 1 7-7z" fill="#9da9b5" stroke-linecap="round"/>
  </g>
  <path d="m418.3 502.8c0.72064 0.66388 1.6545 1.6214 2.2322 2.6561 1.0071 1.8038 0.86322 4.9425-2.23 5.5197-3.0933 0.57722-3.2115-0.47959-3.2011-1.7317-1.6444 0.22705-2.3797 3.8831 0.50355 5.159 2.4458 1.0823 3.345 0.64938 7.9488 0.36077 4.6038-0.28861 5.1433 5.3393 2.9853 6.2052-2.158 0.86584-2.9821-0.67753-2.8414-1.5152-1.7297 0.67752-1.9408 2.5678-1.079 3.4633 6.7295 6.9936 3.502 12.398 1.6545 12.952-2.2893 0.6863-3.9032-0.67414-2.7335-2.4893 0.95314-1.4791 0.13053-3.9185-1.0273-4.7824-1.1578-0.86393-3.4062-0.65736-4.3678-0.0157 1.386 0.52557 3.4169 1.3348 2.8774 3.1387-0.41662 1.393-1.7816 2.2702-3.4888 2.2367-3.1956-1.4253-5.0097-5.8035-2.9996-7.2268-2.5331 0.0488-2.8259 4.9523-1.8611 7.0907 0.76385 1.6931 2.9973 3.0022 1.8549 4.9704-1.1982 2.0644-2.0296 3.1747-4.907 2.5975-2.8774-0.57723-4.46-2.4171-4.1003-4.1127 0.35967-1.6956 1.1998-1.9219 2.6616-1.9481-0.91202-1.9382-3.9825-1.1371-6.171 1.407-1.0047 1.168-1.5237 1.037-3.2165 0.0723-2.2507-1.2827 1.6843-4.8682 3.0264-2.7779 0.10301-2.4498-3.6738-1.2627-4.2134-3.9684-0.53951-2.7057 2.3364-3.5121 2.3364-3.5121-3.409 0.89505-5.097 2.0974-8.5845 1.0554-1.2382-0.36993 0.19673-3.7471-3.7845-2.585 0.67245 12.177 10.667 21.781 22.981 21.781 12.753 0 23.019-10.298 23.019-23.089 0-9.2884-5.4264-17.24-13.274-20.911z" fill="url(#c)" fill-rule="evenodd"/>
 </g>
</svg>
