<svg viewBox="0 0 48 48" xmlns="http://www.w3.org/2000/svg">
 <linearGradient id="a" x1="406.83" x2="406.83" y1="550.07" y2="503.98" gradientUnits="userSpaceOnUse">
  <stop stop-color="#3889e9" offset="0"/>
  <stop stop-color="#5ea5fb" offset="1"/>
 </linearGradient>
 <linearGradient id="b" x1="409.01" x2="409.01" y1="545.32" y2="502.24" gradientUnits="userSpaceOnUse">
  <stop stop-color="#69159f" offset="0"/>
  <stop stop-color="#b92ff5" offset="1"/>
 </linearGradient>
 <linearGradient id="c" x1="404.44" x2="403.97" y1="545.32" y2="502.98" gradientUnits="userSpaceOnUse">
  <stop stop-color="#faf7f7" offset="0"/>
  <stop stop-color="#fcf9f9" offset="1"/>
 </linearGradient>
 <linearGradient id="d" x1="407.56" x2="408.56" y1="514.06" y2="501.27" gradientUnits="userSpaceOnUse">
  <stop stop-color="#abcd03" offset="0"/>
  <stop stop-color="#b3ff80" offset="1"/>
 </linearGradient>
 <g transform="matrix(1.0214 0 0 1.0214 -393.78 -511.02)">
  <circle cx="408.48" cy="527.03" r="0" fill="url(#a)"/>
  <path d="m409.97 503.74-1.3665 3.776c1.9357-2.6669 5.01-4.6737 8.5401-6.4431-2.581 2.0861-4.9341 4.1724-6.3765 6.2585 2.4293-2.3767 5.6934-3.6969 9.375-4.5684-4.8963 3.0368-8.7828 6.2954-11.743 9.5698l-2.3531-0.71288c0.41715-2.6143 1.8368-5.2919 3.9245-7.88z" fill="url(#d)"/>
  <path d="m405.02 508.4 4.4918 1.8635c0 1.1422-0.0928 4.6258 0.62137 5.6535 7.4704 9.621 6.2135 28.906-1.5133 29.401-11.766 0-16.254-7.9932-16.254-15.34 0-6.6995 8.0314-11.153 12.828-15.112 1.218-1.0658 1.0065-3.4213-0.17387-6.4666z" fill="#fffcdb"/>
  <path d="m409.51 510.2 1.6188 0.82577c-0.15217 1.0655 0.0761 3.426 1.1416 4.0347 4.7203 2.931 9.1736 6.1284 10.925 9.3258 6.2426 11.267-4.3775 21.697-13.551 20.707 4.9865-3.6924 6.433-11.267 4.5679-19.527-0.76118-3.2356-1.9415-6.1666-4.0352-9.4783-0.90699-1.6256-0.59033-3.6416-0.6667-5.8878z" fill="url(#b)"/>
  <path d="m406.99866 509.22529v.0209.0272.0147c0 .004-.003.004-.003.009v35.95232c.52901.0356 1.06009.0712 1.62201.0712 7.72679-.4947 8.98338-19.78044 1.51303-29.40142-.7142-1.02761-.6224-4.5118-.6224-5.65397l-2.51055-1.03941zm-13.24846 27.53633c.0184.0416.0398.082.0586.12373-.0189-.0415-.0401-.082-.0586-.12373zm.6308 1.25318c.0277.0493.0576.0976.086.14668-.0282-.0491-.0582-.0972-.086-.14668zm.75861 1.19868c.0354.0502.073.099.10884.14879-.0362-.0498-.0737-.0987-.10884-.14879zm.88853 1.12747c.0459.0522.0936.10333.1404.15504-.0468-.0515-.0946-.10271-.1404-.15504zm.9996 1.01845c.0721.0663.14593.13186.22004.197-.074-.0651-.14785-.13062-.22004-.197zm1.16306.9535c.0786.0574.15849.1136.23891.16975-.0805-.0562-.16027-.11222-.23891-.16975zm1.31395.84663c.0824.0469.16532.0927.24937.13832-.0839-.0456-.16709-.0913-.24937-.13832zm1.46484.72508c.0846.0363.1676.074.25356.10886-.0858-.0352-.16913-.0727-.25356-.10886zm1.64295.60145c.0723.022.14261.0458.21585.0671-.0732-.0213-.14357-.0449-.21585-.0671zm1.84833.45684c.0395.007.0775.0158.11735.023-.0397-.007-.0778-.0154-.11735-.023z" fill-opacity=".15686"/>
  <path d="m405.02 508.44c1.1804 3.0452 1.3919 5.4012 0.17394 6.467-4.7964 3.9586-12.829 8.412-12.829 15.111 0 6.9958 4.0852 14.56 14.634 15.269v-36.026z" fill="url(#c)"/>
 </g>
</svg>
