<svg enable-background="new 0 0 1024 1024" image-rendering="optimizeSpeed" style="background-color:#FFFFFF" version="1.1" viewBox="0 0 1024 1024" xmlns="http://www.w3.org/2000/svg" xmlns:xlink="http://www.w3.org/1999/xlink">
 <defs>
  <linearGradient id="c" x1="520" x2="520.03" y1="4" y2="1026" gradientTransform="matrix(.95703 0 0 .95703 22 22)" gradientUnits="userSpaceOnUse">
   <stop stop-color="#fb8c21" offset="0"/>
   <stop stop-color="#f15f19" offset="1"/>
  </linearGradient>
  <linearGradient x1="520" x2="520" y1="4" y2="1024" gradientUnits="userSpaceOnUse">
   <stop stop-color="#fec589" offset="0"/>
   <stop stop-color="#f34f17" offset="1"/>
  </linearGradient>
  <linearGradient id="d" x1="102.3" x2="102.3" y1="-.42687" y2="199.17" gradientTransform="matrix(2 0 0 2 483.69 484.09)" gradientUnits="userSpaceOnUse">
   <stop stop-color="#f6f7f7" offset="0"/>
   <stop stop-color="#dce7f0" offset="1"/>
  </linearGradient>
  <filter id="a" color-interpolation-filters="sRGB">
   <feFlood flood-color="rgb(0,0,0)" flood-opacity=".29412" result="flood"/>
   <feComposite in="flood" in2="SourceGraphic" operator="in" result="composite1"/>
   <feGaussianBlur in="composite1" result="blur" stdDeviation="3"/>
   <feOffset dx="0" dy="3" result="offset"/>
   <feComposite in="SourceGraphic" in2="offset" result="composite2"/>
  </filter>
  <filter id="f" color-interpolation-filters="sRGB">
   <feFlood flood-color="rgb(0,0,0)" flood-opacity=".29412" result="flood"/>
   <feComposite in="flood" in2="SourceGraphic" operator="in" result="composite1"/>
   <feGaussianBlur in="composite1" result="blur" stdDeviation="3"/>
   <feOffset dx="0" dy="3" result="offset"/>
   <feComposite in="SourceGraphic" in2="offset" result="composite2"/>
  </filter>
  <linearGradient id="b" x1="102.3" x2="102.3" y1="-.42687" y2="199.17" gradientTransform="matrix(2 0 0 2 1102.4 416.78)" gradientUnits="userSpaceOnUse">
   <stop stop-color="#fff" offset="0"/>
   <stop stop-color="#ccc" offset="1"/>
  </linearGradient>
  <linearGradient id="e" x1="540.14" x2="540.14" y1="29.77" y2="1055" gradientTransform="matrix(.99492 0 0 .99492 2.599 -25.619)" gradientUnits="userSpaceOnUse">
   <stop stop-color="#fff" stop-opacity=".58824" offset="0"/>
   <stop stop-color="#fff" stop-opacity="0" offset="1"/>
  </linearGradient>
 </defs>
 <path d="m966.34 324.41q-8.928-21.645-20.14-42.408c-4.2044-7.8379-8.6684-15.624-13.392-23.254-20.296-32.909-45.055-64.001-74.279-93.225-95.664-95.664-211.21-143.52-346.53-143.52s-250.81 47.858-346.48 143.52c-95.664 95.664-143.52 211.16-143.52 346.48s47.858 250.87 143.52 346.53c95.664 95.664 211.16 143.47 346.48 143.47s250.87-47.806 346.53-143.47c52.685-52.737 90.889-111.5 114.56-176.22 19.257-52.789 28.912-109.52 28.912-170.31 0-46.612-5.6579-90.889-17.025-132.83-1.2977-4.7235-2.6472-9.447-4.0487-14.119-4.2564-13.807-9.1356-27.355-14.586-40.643z" fill="url(#c)" stroke-width="1.0381"/>
 <circle cx="512" cy="512" r="487.51" color="#000000" enable-background="accumulate" fill="none" stroke="url(#e)" stroke-width="4.975"/>
 <circle cx="683.69" cy="684.09" r="200" color="#000000" enable-background="accumulate" fill="url(#d)" filter="url(#a)"/>
 <g filter="url(#f)">
  <path d="m740 724h-123.43c-5.6777 0-10.286-4.5977-10.286-10.286s4.608-10.286 10.286-10.286h123.43c5.6777 0 10.286 4.5977 10.286 10.286s-4.608 10.286-10.286 10.286z" stroke-width="10.286"/>
  <path d="m740 662.29h-123.43c-5.6777 0-10.286-4.5977-10.286-10.286s4.608-10.286 10.286-10.286h123.43c5.6777 0 10.286 4.5977 10.286 10.286s-4.608 10.286-10.286 10.286z" stroke-width="10.286"/>
  <g fill="#fff" stroke-width="9.9163">
   <path d="m340 704c-2.5386 0-5.0771-0.97179-7.0108-2.9055-3.8772-3.8772-3.8772-10.144 0-14.022l49.581-49.581c3.8773-3.8773 10.144-3.8773 14.022 0 3.8772 3.8772 3.8772 10.144 0 14.022l-49.581 49.581c-1.9337 1.9337-4.4722 2.9055-7.0108 2.9055z"/>
   <path d="m290.42 753.58c-2.5386 0-5.0771-0.97179-7.0108-2.9055-3.8772-3.8772-3.8772-10.144 0-14.022l49.581-49.581c3.8772-3.8773 10.144-3.8773 14.022 0 3.8772 3.8772 3.8772 10.144 0 14.022l-49.581 49.581c-1.9337 1.9337-4.4722 2.9055-7.0108 2.9055z"/>
   <path d="m389.58 753.58c-2.5386 0-5.0771-0.97179-7.0108-2.9055l-49.581-49.581c-3.8772-3.8772-3.8772-10.144 0-14.022 3.8772-3.8773 10.144-3.8773 14.022 0l49.581 49.581c3.8772 3.8773 3.8772 10.144 0 14.022-1.9337 1.9337-4.4722 2.9055-7.0108 2.9055z"/>
   <path d="m340 704c-2.5386 0-5.0771-0.97179-7.0108-2.9055l-49.581-49.581c-3.8772-3.8772-3.8772-10.144 0-14.022 3.8773-3.8773 10.144-3.8773 14.022 0l49.581 49.581c3.8772 3.8772 3.8772 10.144 0 14.022-1.9337 1.9337-4.4722 2.9055-7.0108 2.9055z"/>
  </g>
  <g stroke-width="10.286">
   <path d="m400 344h-123.43c-5.6777 0-10.286-4.5977-10.286-10.286s4.608-10.286 10.286-10.286h123.43c5.6777 0 10.286 4.5977 10.286 10.286s-4.608 10.286-10.286 10.286z" fill="#f1f1f1"/>
   <path d="m338.29 405.71c-5.6777 0-10.286-4.5977-10.286-10.286v-123.43c0-5.688 4.608-10.286 10.286-10.286s10.286 4.5977 10.286 10.286v123.43c0 5.688-4.608 10.286-10.286 10.286z" fill="#fff"/>
   <path d="m740 344h-123.43c-5.6777 0-10.286-4.5977-10.286-10.286s4.608-10.286 10.286-10.286h123.43c5.6777 0 10.286 4.5977 10.286 10.286s-4.608 10.286-10.286 10.286z" fill="#fff"/>
  </g>
 </g>
 <circle cx="1302.4" cy="616.78" r="200" color="#000000" enable-background="accumulate" fill="url(#b)" filter="url(#a)"/>
</svg>
