<svg width="1024" height="1024" version="1.1" viewBox="0 0 270.93 270.93" xmlns="http://www.w3.org/2000/svg" xmlns:xlink="http://www.w3.org/1999/xlink">
 <defs>
  <linearGradient id="a" x1="137.58" x2="137.58" y1="117.08" y2="334.04" gradientTransform="translate(2.128e-5)" gradientUnits="userSpaceOnUse">
   <stop stop-color="#f6f7f7" offset="0"/>
   <stop stop-color="#dce7f0" offset="1"/>
  </linearGradient>
  <filter id="c" x="-.011553" y="-.012483" width="1.0231" height="1.025" color-interpolation-filters="sRGB">
   <feGaussianBlur stdDeviation="1.1358682"/>
  </filter>
  <linearGradient id="b" x1="132.29" x2="132.29" y1="48.292" y2="122.37" gradientTransform="matrix(3.7795 0 0 3.7795 7.4331e-5 -98.52)" gradientUnits="userSpaceOnUse">
   <stop stop-color="#f85015" offset="0"/>
   <stop stop-color="#ee3009" offset="1"/>
  </linearGradient>
 </defs>
 <g transform="translate(0 -26.067)">
  <rect x="16.404" y="51.334" width="238.12" height="220.4" rx="11.4" fill="url(#a)" fill-rule="evenodd" style="paint-order:stroke markers fill"/>
  <g transform="matrix(.26355 0 0 .26355 8.2716 52.607)">
   <path d="m696.64 393.76 30.641-53.41-5.65-29.046-225.37 43.839 5.65 29.045 193.91-37.718c-19.085 32.462-34.667 62.846-46.962 91.475-14.438 37.698-23.722 66.02-28.226 84.48-6.699 27.261-10.605 54.537-11.611 82.366 0.286 37.346 1.693 66.1 4.219 86.263l33.887-6.591c-5.748-41.029-6.565-79.667-2.399-115.65 2.92-23.735 9.701-56.315 20.344-97.741 9.343-29.45 19.958-55.239 31.573-77.316zm-238.86 63.487c-3.191-16.405-8.706-30.405-16.76-41.678-8.002-11.003-17.572-20.027-28.876-26.481-11.52-6.133-24.288-10.069-38.251-11.54s-28.635-0.85-43.965 2.132c-18.825 3.662-34.655 9.812-47.706 18.77s-23.21 19.866-30.478 32.724c-7.268 12.857-11.481 27.074-13.071 43.293s-0.551 33.043 3.492 50.958l31.466-6.121c-2.832-13.126-4.163-25.707-3.454-37.846 0.44-12.088 3.024-23.197 7.7-33.597 4.46-10.078 11.384-18.961 20.558-26.328 9.226-7.098 21.074-12.193 35.328-14.966 10.488-2.04 21.022-2.415 31.01-1.287 10.041 1.396 19.268 4.347 27.732 9.12 8.465 4.773 15.578 11.205 21.338 19.295 6.029 8.038 10.116 17.57 12.366 29.135 2.668 13.716 2.602 26.289-0.251 37.451-3.122 11.213-8.448 22.577-15.978 34.089-7.799 11.566-17.047 22.854-27.527 33.546l-62.78 64.685c-10.107 11.177-18.66 23.168-26.032 35.488-7.321 12.589-12.228 26.103-15.313 40.38-3.032 14.546-3.277 30.503-0.198 47.768l230.75-44.885-5.65-29.046-194.71 37.875c-0.367-11.931 2.651-23.682 8.783-35.202 6.185-11.252 13.551-22.174 22.418-32.552l82.762-83.924c8.867-10.377 16.449-21.621 22.581-33.141 6.402-11.573 10.712-23.855 13.199-36.899s2.344-26.693-0.481-41.216z" fill="#333"/>
  </g>
  <path transform="matrix(.26458 0 0 .26458 0 26.067)" d="m105.09 95.5c-23.87 0-43.086 19.216-43.086 43.086v205.41h900v-205.41c0-23.87-19.216-43.086-43.086-43.086h-813.83zm285.88 66.609c9.5625 0 18.188 1.625 25.875 4.875 7.75 3.25 14.312 7.9062 19.688 13.969 5.375 6.0625 9.5 13.406 12.375 22.031 2.9375 8.625 4.4062 18.312 4.4062 29.062 0 10.75-1.4688 20.438-4.4062 29.062-2.875 8.625-7 15.969-12.375 22.031-5.375 6-11.938 10.625-19.688 13.875-7.6875 3.25-16.312 4.875-25.875 4.875-9.5625 0-18.219-1.625-25.969-4.875-7.6875-3.25-14.219-7.875-19.594-13.875-5.375-6.0625-9.5312-13.406-12.469-22.031-2.875-8.625-4.3125-18.313-4.3125-29.062 0-10.75 1.4375-20.438 4.3125-29.062 2.9375-8.625 7.0938-15.969 12.469-22.031 5.375-6.0625 11.906-10.719 19.594-13.969 7.75-3.25 16.406-4.875 25.969-4.875zm139.22 0c7.375 0 14.219 1.0938 20.531 3.2812 6.375 2.125 12.031 5.1563 16.969 9.0938 4.9375 3.875 9 8.5938 12.188 14.156 3.25 5.5 5.4062 11.625 6.4688 18.375h-17.062c-1.0625-4.4375-2.8125-8.4375-5.25-12-2.375-3.625-5.2812-6.7188-8.7188-9.2812-3.375-2.5625-7.2188-4.5313-11.531-5.9063-4.25-1.4375-8.7812-2.1562-13.594-2.1562-6.625-1e-5 -12.625 1.2812-18 3.8437-5.375 2.5625-9.9688 6.2188-13.781 10.969-3.75 4.75-6.6562 10.469-8.7188 17.156-2.0625 6.625-3.0938 14.063-3.0938 22.312 0 8.3125 1 15.813 3 22.5 2.0625 6.6875 5 12.406 8.8125 17.156 3.8125 4.6875 8.4062 8.3125 13.781 10.875 5.375 2.5625 11.406 3.8437 18.094 3.8437 4.9375 0 9.5312-0.5625 13.781-1.6875 4.25-1.1875 8.0312-2.9062 11.344-5.1562 3.3125-2.25 6.125-4.9688 8.4375-8.1563 2.375-3.25 4.1875-6.9375 5.4375-11.062h17.062c-3.125 13.438-9.5 23.75-19.125 30.938-9.625 7.125-21.969 10.688-37.031 10.688-9.3125 0-17.75-1.625-25.312-4.875-7.5-3.3125-13.906-8-19.219-14.062-5.25-6.0625-9.3125-13.406-12.188-22.031-2.8125-8.625-4.2188-18.281-4.2188-28.969 0-10.625 1.4375-20.219 4.3125-28.781 2.875-8.625 6.9688-15.969 12.281-22.031 5.3125-6.125 11.719-10.812 19.219-14.062 7.5-3.3125 15.875-4.9687 25.125-4.9687zm61.125 2.25h104.06v15.188h-43.594v120.09h-16.875v-120.09h-43.594v-15.188zm-200.34 13.312c-6.9375-1e-5 -13.188 1.2812-18.75 3.8437-5.5 2.5-10.219 6.125-14.156 10.875-3.875 4.6875-6.875 10.406-9 17.156-2.0625 6.6875-3.0938 14.188-3.0938 22.5 0 8.3125 1.0312 15.812 3.0938 22.5 2.125 6.6875 5.125 12.406 9 17.156 3.9375 4.6875 8.6562 8.3125 14.156 10.875 5.5625 2.5 11.812 3.75 18.75 3.75s13.156-1.25 18.656-3.75c5.5625-2.5625 10.281-6.1875 14.156-10.875 3.9375-4.75 6.9375-10.469 9-17.156 2.125-6.6875 3.1875-14.188 3.1875-22.5 0-8.3125-1.0625-15.813-3.1875-22.5-2.0625-6.75-5.0625-12.469-9-17.156-3.875-4.75-8.5938-8.375-14.156-10.875-5.5-2.5625-11.719-3.8438-18.656-3.8437z" fill="url(#b)" fill-rule="evenodd" style="paint-order:stroke markers fill"/>
  <rect transform="matrix(.9864 0 0 .9864 1.8427 2.1973)" x="17.488" y="52.338" width="235.96" height="218.39" rx="11.296" fill="none" filter="url(#c)" opacity=".2" stroke="#fff" stroke-linejoin="round" stroke-width="2.9998" style="paint-order:stroke fill markers"/>
 </g>
</svg>
