<svg clip-rule="evenodd" fill-rule="evenodd" stroke-linejoin="round" stroke-miterlimit="2" viewBox="0 0 48 48" xmlns="http://www.w3.org/2000/svg">
 <linearGradient id="a" x2="1" gradientTransform="matrix(0 -42.223 42.223 0 107.66 44.339)" gradientUnits="userSpaceOnUse">
  <stop stop-color="#d1d1d1" offset="0"/>
  <stop stop-color="#e3e3e3" offset="1"/>
 </linearGradient>
 <linearGradient id="b" x2="1" gradientTransform="matrix(.79491 41.495 -41.495 .79491 -47.225 6.0858)" gradientUnits="userSpaceOnUse">
  <stop stop-color="#2ba78e" offset="0"/>
  <stop stop-color="#178b6f" offset="1"/>
 </linearGradient>
 <linearGradient id="c" x2="1" gradientTransform="matrix(0 -45.529 45.529 0 58.113 46.116)" gradientUnits="userSpaceOnUse">
  <stop stop-color="#9d9d9d" offset="0"/>
  <stop stop-color="#e3e3e3" offset="1"/>
 </linearGradient>
 <path d="m6.399 45.363h19.042l-.001-43.099-18.857-.059c-3.166.058-4.486 1.251-4.569 4.417v34.223c.012 2.752 2.216 4.518 4.385 4.518z" fill="url(#a)"/>
 <path d="m42.397 45.363-12.085-.014v-43.099l12.431-.045c2.16.026 3.24 1.708 3.24 3.729v35.526c.094 2.219-1.372 3.855-3.586 3.903z" fill="url(#b)"/>
 <path d="m42.838 43.097c-.04 2.642-1.222 4.026-3.552 4.123l-16.083-1.878v-43.078l16.584-1.555c2.209-.223 3.174.962 3.191 3.337z" fill="url(#c)"/>
 <g transform="matrix(.047853 -.0065678 .0065678 .047853 10.08 13.759)" fill="#4d4d4d" fill-opacity=".84" fill-rule="nonzero">
  <path d="m306.67 92.094 90.873 90.87 13.057-13.046-90.868-90.872z"/>
  <path d="m294.88 103.88-256 256.02c-1.824 1.826-3.211 4.043-4.038 6.482l-33.957 101.26c-2.002 6.01-0.457 12.619 4.025 17.1 3.173 3.18 7.44 4.887 11.79 4.887 1.774 0 3.567-0.277 5.309-0.863l101.25-33.973c2.456-0.83 4.673-2.196 6.494-4.021l256-256.02z"/>
  <path d="m331.52 67.257 90.868 90.874 13.03-13.045-90.873-90.871z"/>
  <path d="m484.73 72.193-67.274-67.306c-3.129-3.127-7.382-4.887-11.795-4.887-4.414 0-8.663 1.76-11.79 4.887l-37.533 37.537 90.868 90.872 37.524-37.522c6.512-6.514 6.512-17.067 0-23.581z"/>
 </g>
</svg>
