<svg viewBox="0 0 48 48" xmlns="http://www.w3.org/2000/svg">
 <g transform="translate(0 -1004.4)">
  <path d="m24.001 1010.4c-11.55 0-20.999 9.4497-20.999 21.001-0.00508 1.7007 0 3.0001 0.10742 4.9026 0.30448 4.7956 3.2414 8.2155 5.8846 9.8733 2.7019 1.6948 5.3566 2.1464 5.369 2.1486 3.0702 0.5579 5.6404-2.0987 5.6385-4.8049v-15.237c2.95e-4 -1.7469-1.0522-3.4432-2.6562-4.2951 1.7743-1.5982 4.0928-2.5794 6.6541-2.584 2.5644 0 4.8854 0.9828 6.6619 2.5821-1.6062 0.8511-2.6605 2.5487-2.6601 4.297v15.241c-0.0019 2.7062 2.5683 5.3628 5.6385 4.8048 0.0014-2e-4 0.0025 3e-4 0.0039 0 0.01818 0 2.6661-0.4556 5.3651-2.1485 2.6466-1.66 5.5886-5.0856 5.8865-9.891 0.10547-1.8887 0.1055-3.2404 0.1055-4.8888-2.5e-5 -11.551-9.4491-21.001-20.999-21.001z" opacity=".2"/>
  <path d="m24.001 1009.4c-11.55 0-20.999 9.4497-20.999 21.001-0.00508 1.7007 0 3.0001 0.10742 4.9026 0.30448 4.7956 3.2414 8.2155 5.8846 9.8733 2.7019 1.6948 5.3566 2.1464 5.369 2.1486 3.0702 0.5579 5.6404-2.0987 5.6385-4.8049v-15.237c2.95e-4 -1.7469-1.0522-3.4432-2.6562-4.2951 1.7743-1.5982 4.0928-2.5794 6.6541-2.584 2.5644 0 4.8854 0.9828 6.6619 2.5821-1.6062 0.8511-2.6605 2.5487-2.6601 4.297v15.241c-0.0019 2.7062 2.5683 5.3628 5.6385 4.8048 0.0014-2e-4 0.0025 3e-4 0.0039 0 0.01818 0 2.6661-0.4556 5.3651-2.1485 2.6466-1.66 5.5886-5.0856 5.8865-9.891 0.10547-1.8887 0.1055-3.2404 0.1055-4.8888-2.5e-5 -11.551-9.4491-21.001-20.999-21.001z" fill="#0093b8"/>
  <path d="m24 1014.4a17 17 0 0 0-17 17v4h0.00586c-0.00105 0.062-0.00609 0.1221-0.00586 0.1855 0.013569 3.6597 2.1269 5.9529 4.1172 7.2012s3.959 1.6016 3.959 1.6016a0.79436 0.87825 0 0 0 0.92383-0.8672v-15.242a0.79436 0.87825 0 0 0-0.81641-0.8789 0.79436 0.87825 0 0 0-0.04492 0s-1.9851 0.1805-3.9961 1.2656c-0.32204 0.1738-0.64535 0.3861-0.96484 0.6172a14 14 0 0 1 13.822-11.883 14 14 0 0 1 13.83 11.891c-0.32201-0.2335-0.64799-0.4479-0.97266-0.623-2.011-1.0851-3.9961-1.2657-3.9961-1.2657a0.79436 0.87825 0 0 0-0.04492 0 0.79436 0.87825 0 0 0-0.81641 0.877v15.242a0.79436 0.87825 0 0 0 0.92383 0.8672s1.9687-0.3533 3.959-1.6016 4.1036-3.5415 4.1172-7.2012c2.35e-4 -0.063-0.0048-0.123-0.0059-0.1855h0.0059v-4a17 17 0 0 0-17-17z" opacity=".2"/>
  <g fill="#fff">
   <path d="m24 1013.4a17 17 0 0 0-17 17v4h0.00586c-0.00105 0.062-0.00609 0.1221-0.00586 0.1855 0.013569 3.6597 2.1269 5.9529 4.1172 7.2012s3.959 1.6016 3.959 1.6016a0.79436 0.87825 0 0 0 0.92383-0.8672v-15.242a0.79436 0.87825 0 0 0-0.81641-0.8789 0.79436 0.87825 0 0 0-0.04492 0s-1.9851 0.1805-3.9961 1.2656c-0.32204 0.1738-0.64535 0.3861-0.96484 0.6172a14 14 0 0 1 13.822-11.883 14 14 0 0 1 13.83 11.891c-0.32201-0.2334-0.64799-0.4479-0.97266-0.623-2.011-1.0851-3.9961-1.2657-3.9961-1.2657a0.79436 0.87825 0 0 0-0.04492 0 0.79436 0.87825 0 0 0-0.81641 0.877v15.242a0.79436 0.87825 0 0 0 0.92383 0.8672s1.9687-0.3533 3.959-1.6016 4.1036-3.5415 4.1172-7.2012c2.35e-4 -0.063-0.0048-0.123-0.0059-0.1855h0.0059v-4a17 17 0 0 0-17-17z"/>
   <path d="m24 1009.4c-11.55 0-20.998 9.449-20.998 21-8.953e-4 0.2997 0.00367 0.5576 0.00391 0.8379 0.088373-11.477 9.4983-20.838 20.994-20.838 11.488 0 20.895 9.3484 20.996 20.814 5.46e-4 -0.2716 0.0039-0.5295 0.0039-0.8145-2.5e-5 -11.551-9.4498-21-21-21zm5.9844 14.023c-1.2162 0.924-1.9847 2.3685-1.9844 3.8555v1c-3.8e-4 -1.7484 1.054-3.4457 2.6602-4.2969-0.21723-0.1955-0.44282-0.3822-0.67578-0.5586zm-11.963 0c-0.23345 0.1768-0.4601 0.3626-0.67773 0.5586 1.6039 0.8519 2.6565 2.5481 2.6562 4.295v-0.9961c2.51e-4 -1.4856-0.76435-2.9294-1.9785-3.8536z" opacity=".2"/>
  </g>
 </g>
</svg>
