<svg version="1" viewBox="0 0 48 48" xmlns="http://www.w3.org/2000/svg">
 <rect x="8" y="5" width="32" height="40" rx="2" ry="2" opacity=".2"/>
 <rect x="8" y="4" width="32" height="40" rx="2" ry="2" fill="#f06a05"/>
 <path d="m12 11.17h2.0729zm2.3769 0h1.9347zm2.2387 0h1.7136zm1.99 0h0.74623zm1.0503 0h1.6583zm1.99 0h4.3668zm4.6432 0h3.3442zm3.6206 0h1.0226zm-17.91 2.0746h3.2337zm3.593 0h1.5477zm1.8241 0h0.77387zm1.0779 0h1.4095zm1.7136 0h1.4372zm1.7136 0h2.294zm2.598 0h2.9849zm3.2613 0h1.99zm2.2663 0h0.49749zm-18.048 2.0603h2.7362zm3.0126 0h4.4774zm4.7538 0h2.1834zm2.4598 0h2.0452zm2.3216 0h1.7412zm2.0176 0 2.7362 0.02861zm2.9849 0.02861h4.4497zm-17.55 2.0603h3.7864zm4.0905 0h4.0905zm4.3668 0h1.6307zm1.907 0h3.8417zm4.0905 0h2.6256zm2.9296 0h1.0503zm1.3266 0h0.5804zm0.88442 0h1.6307zm-19.595 2.0746h1.4095zm1.8518 0h5.2236zm-1.8518 3.4576h2.0729zm2.3769 0h1.907zm2.2387 0h1.7136zm1.99 0h0.74623zm1.0503 0h1.6583zm1.99 0h4.3392zm4.6432 0h3.3166zm3.593 0h1.0503zm1.3266 0h2.4874zm-19.209 2.0746h3.4824zm3.7588 0h3.7312zm4.0075 0h1.4372zm1.7136 0h3.51zm3.7864 0h4.4221zm4.7261 0h1.6307zm-17.992 2.0746h3.7864zm4.0905 0h4.0905zm4.3668 0h1.6307zm1.907 0h3.8417zm4.0905 0h2.6256zm2.9296 0h1.0503zm1.3266 0h0.5804zm0.88442 0h1.6307zm-19.595 2.0746h3.2337zm3.593 0h1.5477zm1.8241 0h0.77387zm1.0779 0h1.4095zm1.7136 0h1.4372zm1.7136 0h2.294zm2.598 0h2.9849zm3.2613 0h1.99zm2.2663 0h0.49749zm-18.048 3.4433h2.7362zm3.0126 0h4.4774zm4.7538 0h2.1834zm2.4598 0h2.0452zm2.3216 0h1.7412zm2.0176 0 2.7362 0.02861zm2.9849 0.02861h4.4497zm-17.55 2.0603h3.2337zm3.593 0h1.5477zm1.8241 0h0.77387zm1.0779 0h1.4095zm1.7136 0h1.4372zm1.7136 0h2.294zm2.598 0h2.9849zm3.2613 0h1.99zm2.2663 0h0.49749zm-18.048 2.0746h3.4271zm3.7312 0h1.0779zm1.3543 0h2.4598zm2.7362 0h3.6206zm3.9246 0h2.4598zm2.7085 0h0.52512zm0.80151 0h3.1231zm3.4548 0h1.6307zm-18.711 2.0746h3.4271zm3.7312 0h1.5477zm1.8241 0h2.4322zm2.7085 0h2.6256zm2.9296 0h1.0503zm1.3266 0h0.5804zm0.88442 0h1.6307z" opacity=".7" stroke="#fafafa" stroke-opacity=".49711" stroke-width=".33924px"/>
 <path d="m24 13c-0.10625 0-0.21145-0.0012-0.31836 2e-3 -5.8385 0.17317-10.68 4.9798-10.682 10.852v5.1465h-0.32617c-0.37306 0-0.67383 0.291-0.67383 0.66602v5.6797c0 0.37502 0.30114 0.63759 0.67383 0.6543h1.3262v1.3223c0 0.37503 0.30663 0.67773 0.67969 0.67773h2.6738c0.37306 0 0.64648-0.30272 0.64648-0.67773v-8.6328c0-0.37502-0.27344-0.69271-0.64648-0.68945h-1.3438v-1.8848h-0.01953v-2.2617c0.22076-4.495 4.0098-7.8535 8.0098-7.8535s7.789 3.3585 8.0098 7.8535v2.2617h-0.01953v1.8848h-1.3438c-0.37304-0.003258-0.64649 0.31443-0.64649 0.68945v8.6328c0 0.37502 0.27343 0.67773 0.64648 0.67773h2.6738c0.37306 0 0.67969-0.30271 0.67969-0.67773v-1.3223h1.3262c0.37268-0.016707 0.67383-0.27928 0.67383-0.6543v-5.6797c0-0.37502-0.30077-0.66602-0.67383-0.66602h-0.32617v-5.1465c-0.001649-5.8718-4.8431-10.678-10.682-10.852-0.10691-0.0032-0.21211-0.001953-0.31836-0.001953z" opacity=".2"/>
 <path d="m24 12c-0.10625 0-0.21145-0.001247-0.31836 0.001953-5.8385 0.17322-10.68 4.9798-10.682 10.852v5.1465h-0.32617c-0.37306 0-0.67383 0.291-0.67383 0.66602v5.6797c0 0.37502 0.30114 0.63759 0.67383 0.6543h1.3262v1.3223c0 0.37503 0.30663 0.67773 0.67969 0.67773h2.6738c0.37306 0 0.64648-0.30272 0.64648-0.67773v-8.6328c0-0.37502-0.27344-0.69271-0.64648-0.68945h-1.3438v-1.8848h-0.019532v-2.2617c0.22076-4.495 4.0098-7.8535 8.0098-7.8535s7.789 3.3585 8.0098 7.8535v2.2617h-0.019532v1.8848h-1.3438c-0.37304-0.003258-0.64648 0.31443-0.64648 0.68945v8.6328c0 0.37502 0.27343 0.67773 0.64648 0.67773h2.6738c0.37306 0 0.67969-0.30271 0.67969-0.67773v-1.3223h1.3262c0.37268-0.016707 0.67383-0.27928 0.67383-0.6543v-5.6797c0-0.37502-0.30077-0.66602-0.67383-0.66602h-0.32617v-5.1465c-0.001649-5.8718-4.8431-10.678-10.682-10.852-0.10691-0.0032-0.21211-0.001953-0.31836-0.001953z" fill="#fff"/>
 <path d="m10 4c-1.108 0-2 0.892-2 2v1c0-1.108 0.892-2 2-2h28c1.108 0 2 0.892 2 2v-1c0-1.108-0.892-2-2-2h-28z" fill="#fff" opacity=".2"/>
</svg>
