<svg version="1.1" viewBox="0 0 1024 1024" xmlns="http://www.w3.org/2000/svg" xmlns:xlink="http://www.w3.org/1999/xlink">
 <defs>
  <linearGradient id="d" x1="99.036" x2="99.592" y1="-.50472" y2="204.49" gradientTransform="matrix(4.9 0 0 4.9 22 50.362)" gradientUnits="userSpaceOnUse">
   <stop stop-color="#00847b" offset="0"/>
   <stop stop-color="#065150" offset="1"/>
  </linearGradient>
  <linearGradient id="a" x1="500" x2="500" y1="292.36" y2="712.36" gradientUnits="userSpaceOnUse">
   <stop stop-color="#f6f7f7" offset="0"/>
   <stop stop-color="#dce7f0" offset="1"/>
  </linearGradient>
  <filter id="b" color-interpolation-filters="sRGB">
   <feFlood flood-color="rgb(0,0,0)" flood-opacity=".29412" result="flood"/>
   <feComposite in="flood" in2="SourceGraphic" operator="in" result="composite1"/>
   <feGaussianBlur in="composite1" result="blur" stdDeviation="3"/>
   <feOffset dx="0" dy="3" result="offset"/>
   <feComposite in="offset" in2="SourceGraphic" operator="out" result="composite2"/>
  </filter>
  <filter id="g" x="-.12" y="-.12" width="1.24" height="1.24" color-interpolation-filters="sRGB">
   <feGaussianBlur stdDeviation="14"/>
  </filter>
  <linearGradient id="e" x1="540.14" x2="540.14" y1="29.77" y2="1055" gradientTransform="matrix(.99492 0 0 .99492 2.599 2.7429)" gradientUnits="userSpaceOnUse">
   <stop stop-color="#fff" stop-opacity=".29412" offset="0"/>
   <stop stop-color="#fff" stop-opacity="0" offset="1"/>
  </linearGradient>
  <filter id="h" color-interpolation-filters="sRGB">
   <feFlood flood-color="rgb(0,79,78)" flood-opacity=".29412" result="flood"/>
   <feComposite in="flood" in2="SourceGraphic" operator="out" result="composite1"/>
   <feGaussianBlur in="composite1" result="blur" stdDeviation="30"/>
   <feOffset dx="0" dy="-15" result="offset"/>
   <feComposite in="offset" in2="SourceGraphic" operator="in" result="composite2"/>
  </filter>
  <filter id="f" x="-.36" y="-.36" width="1.72" height="1.72" color-interpolation-filters="sRGB">
   <feGaussianBlur stdDeviation="37.5"/>
  </filter>
 </defs>
 <g transform="translate(0 -28.362)" opacity=".98">
  <circle cx="512" cy="540.36" r="490" color="#000000" fill="url(#d)"/>
  <circle cx="512" cy="540.36" r="257.29" fill-rule="evenodd" opacity=".5" stroke="#fff" stroke-linecap="round" stroke-linejoin="round" stroke-opacity=".088889" stroke-width="5.4167" style="paint-order:stroke fill markers"/>
  <circle cx="512" cy="540.36" r="190" fill-rule="evenodd" opacity=".2" stroke="#fff" stroke-linecap="round" stroke-linejoin="round" stroke-opacity=".088889" stroke-width="4" style="paint-order:stroke fill markers"/>
  <path d="m-260 482.36c-0.92474-3.6566-1.9754-7.5653-3.0682-11.432-0.84058-2.858-1.6812-5.758-2.6479-8.8262-1.345-4.329-2.858-8.8262-4.4552-13.323-5.4218-15.341-11.894-30.303-19.46-45.098-3.1942-6.2204-6.6827-12.567-10.339-18.829-17.064-29-38.499-56.488-64.179-82.168-61.027-61.027-132.1-98.055-213.22-111-13.66-2.1855-27.571-3.6986-42.072-4.4972-8.1538-0.46231-16.686-0.71448-25.302-0.71448-7.8596 0-15.635 0.21006-23.452 0.63042-99.484 5.1276-185.18 43.669-257.09 115.58q-116.21 116.21-116.21 280.55c0 109.57 38.751 203.13 116.21 280.59 47.661 47.619 101.33 80.613 160.64 98.811 30.892 9.4566 62.876 15.005 96.458 16.77h0.33626c7.145 0.37825 13.954 0.58837 20.594 0.58837h2.5217c8.6581 0 17.232-0.25215 25.302-0.67244 2.1014-0.12609 3.9928-0.25219 5.8419-0.37828 16.98-1.2189 33.54-3.4044 49.343-6.4725 6.6827-1.3029 13.281-2.774 19.67-4.3291 67.92-17.064 127.9-51.78 180.43-104.32 40.853-40.853 70.946-86.16 90.237-136.01 15.509-40.054 24.083-83.05 25.68-129.03 0.16797-5.0856 0.25202-10.297 0.25202-15.551v-2.5218c-0.16798-34.17-4.161-66.827-12.02-98.349z" fill-opacity="0" opacity=".5" stroke="#000" stroke-width="56.483"/>
  <circle cx="512" cy="640.36" r="125" fill-rule="evenodd" filter="url(#f)" opacity=".5" style="paint-order:stroke markers fill"/>
  <g fill="url(#a)" fill-rule="evenodd">
   <g filter="url(#b)">
    <circle cx="512" cy="540.36" r="180" opacity="1" style="paint-order:stroke markers fill"/>
    <path d="m628.19 492.36c-4.6591 8.0697-106.87 8.1727-116.19 8.1727-9.3181 0-111.53-0.10301-116.19-8.1727s46.358-96.64 51.017-104.71c4.6591-8.0697 55.854-96.537 65.173-96.537s60.513 88.467 65.173 96.537c4.6591 8.0697 55.676 96.64 51.017 104.71z" opacity="1" style="paint-order:stroke markers fill"/>
   </g>
   <g transform="translate(-1.5259e-5 -1.0758e-5)" filter="url(#b)">
    <circle cx="512" cy="540.36" r="180" opacity="1" style="paint-order:stroke markers fill"/>
    <path d="m628.19 492.36c-4.6591 8.0697-106.87 8.1727-116.19 8.1727-9.3181 0-111.53-0.10301-116.19-8.1727s46.358-96.64 51.017-104.71c4.6591-8.0697 55.854-96.537 65.173-96.537s60.513 88.467 65.173 96.537c4.6591 8.0697 55.676 96.64 51.017 104.71z" opacity="1" style="paint-order:stroke markers fill"/>
   </g>
   <circle cx="512" cy="540.36" r="180" opacity="1" style="paint-order:stroke markers fill"/>
   <path d="m628.19 492.36c-4.6591 8.0697-106.87 8.1727-116.19 8.1727-9.3181 0-111.53-0.10301-116.19-8.1727s46.358-96.64 51.017-104.71c4.6591-8.0697 55.854-96.537 65.173-96.537s60.513 88.467 65.173 96.537c4.6591 8.0697 55.676 96.64 51.017 104.71z" opacity="1" style="paint-order:stroke markers fill"/>
  </g>
  <path class="shp38" d="m543.46 220.37-2.4703 24.374m64.245-12.105-7.0816 23.452m65.464 0.72464-11.792 21.475m64.146 13.521-15.678 18.824m60.226 25.691-18.989 15.481m53.985 36.874-21.591 11.578m45.783 46.804-23.517 6.8346m35.803 54.94-24.39 2.2233m24.39 60.754-24.374-2.4703m12.105 64.245-23.452-7.0816m-0.72463 65.464-21.475-11.792m-13.521 64.146-18.824-15.678m-25.691 60.21-15.481-18.989m-36.89 54.001-11.578-21.591m-46.788 45.783-6.8346-23.517m-54.94 35.787-2.2233-24.39m-60.753 24.407 2.4703-24.374m-64.245 12.105 7.0816-23.452m-65.464-0.72463 11.792-21.475m-64.146-13.521 15.678-18.824m-60.226-25.708 18.989-15.481m-53.985-36.874 21.591-11.578m-45.717-46.59 23.402-7.2463m-35.754-54.726 24.39-2.2233m-24.39-60.754 24.374 2.4703m-12.105-64.245 23.452 7.0816m0.72462-65.464 21.475 11.792m13.521-64.163 18.824 15.678m25.691-60.21 15.481 18.989m36.89-53.985 11.578 21.591m46.788-45.783 6.8346 23.517m54.94-35.803 2.2233 24.39" fill="none" stroke="#000" stroke-linecap="round" stroke-opacity=".53846" stroke-width="9.8813"/>
  <circle cx="506.43" cy="503.67" r="140" fill="#fff" fill-opacity=".98039" fill-rule="evenodd" filter="url(#g)" opacity=".25" style="paint-order:stroke markers fill"/>
  <circle cx="512" cy="540.36" r="487.51" color="#000000" fill="none" stroke="url(#e)" stroke-width="4.975"/>
  <g fill="url(#a)" fill-rule="evenodd" filter="url(#h)">
   <circle cx="512" cy="540.36" r="180" opacity="1" style="paint-order:stroke markers fill"/>
   <path d="m628.19 492.36c-4.6591 8.0697-106.87 8.1727-116.19 8.1727-9.3181 0-111.53-0.10301-116.19-8.1727s46.358-96.64 51.017-104.71c4.6591-8.0697 55.854-96.537 65.173-96.537s60.513 88.467 65.173 96.537c4.6591 8.0697 55.676 96.64 51.017 104.71z" opacity="1" style="paint-order:stroke markers fill"/>
  </g>
 </g>
</svg>
