<svg viewBox="0 0 48 48" xmlns="http://www.w3.org/2000/svg">
 <linearGradient id="a" x1="400.17" x2="400.48" y1="543.8" y2="518.47" gradientUnits="userSpaceOnUse">
  <stop stop-color="#2c5aa0" offset="0"/>
  <stop stop-color="#3771c8" offset="1"/>
 </linearGradient>
 <g transform="matrix(.95833 0 0 .95833 .67066 1.0001)">
  <path transform="matrix(1.9766 0 0 1.9766 -767.42 -1026.9)" d="m400.08 520.08-6.5893 11.492c-1.3847 2.4295-1.4916 5.5187 0 8.1201 2.2423 3.9106 7.2302 5.263 11.141 3.0206 3.9106-2.2423 5.263-7.2302 3.0206-11.141l-6.5893-11.492c-0.21767-0.37961-0.76514-0.37961-0.98278 0z" fill-opacity=".35294"/>
  <path transform="matrix(1.9766 0 0 1.9766 -767.42 -1027.4)" d="m400.08 520.08-6.5893 11.492c-1.3847 2.4295-1.4916 5.5187 0 8.1201 2.2423 3.9106 7.2302 5.263 11.141 3.0206 3.9106-2.2423 5.263-7.2302 3.0206-11.141l-6.5893-11.492c-0.21767-0.37961-0.76514-0.37961-0.98278 0z" fill="url(#a)"/>
  <path transform="matrix(1.9766 0 0 1.9766 -767.42 -1027.4)" d="m400.08 520.08-6.5893 11.492c-1.3847 2.4295-1.4916 5.5187 0 8.1201 2.2423 3.9106 7.2302 5.263 11.141 3.0206 3.9106-2.2423 5.263-7.2302 3.0206-11.141l-6.5893-11.492c-0.21767-0.37961-0.76514-0.37961-0.98278 0z" fill="url(#a)"/>
  <path d="m27.105 18.967c-4.3355 0-8.3851 1.6719-11.414 4.7051-3.0121 3.0205-4.6666 7.0497-4.6582 11.352 0.0054 3.8675 1.2569 6.8272 3.3398 8.9102l0.24414 0.24414c5.0017 3.7734 11.969 4.4328 17.748 1.1191 4.8855-2.8013 7.7422-7.7706 8.0703-13z" fill-opacity=".078431"/>
  <path d="m26.322 18.742c-4.8273 0-9.3364 1.7007-12.709 4.7871-3.1264 2.8651-4.9186 6.6258-5.1426 10.668 0.31867 1.7587 0.93467 3.4943 1.873 5.1309 4.4321 7.7295 14.292 10.401 22.021 5.9688 0.03345-0.01918 0.06244-0.04312 0.0957-0.0625-3.8733 0.39886-7.9336-0.1838-11.201-4.3379 0 0-0.0078-0.01015-0.0078-0.01367-0.49259-0.78337-0.73047-1.6368-0.73047-2.4805 0-1.7227 0.97727-3.3991 2.7227-4.3242 1.2606-0.66285 2.7307-0.84188 4.1387-0.49805 1.4041 0.34383 2.5814 1.1703 3.3105 2.3223l2.2715-1.1055-0.04297-0.07227c-1.0705-1.6979-2.7999-2.9095-4.8711-3.4199-2.0712-0.50689-4.2359-0.24591-6.0938 0.73242-2.5715 1.3576-4.0098 3.8312-4.0098 6.3691 0 1.1768 0.32102 2.3621 0.83718 3.1945 0.51616 0.8324 1.2232 1.7172 2.3894 2.6141-0.16782-0.09901-0.32913-0.17986-0.5-0.28711-4.5586-2.864-5.9801-7.9586-3.377-12.113 1.2201-1.9437 3.2529-3.3538 5.7266-3.9609 2.5363-0.62626 5.1594-0.32066 7.3906 0.85547l1.3848-2.1973c-2.8747-1.516-6.2492-1.9113-9.5-1.1094-3.1923 0.78664-5.8087 2.6246-7.4121 5.1504-2.4971 3.9336-2.3865 7.6946 1.3825 12.038-1.5309-1.0573-4.4101-3.2232-4.738-7.5183-0.27529-3.606 1.5121-7.0021 4.2812-9.5371 2.7832-2.5478 6.5151-3.9551 10.51-3.9551z" fill="#dff" fill-opacity=".85185"/>
 </g>
</svg>
