<svg width="1024" height="1024" version="1.1" viewBox="0 0 270.93 270.93" xmlns="http://www.w3.org/2000/svg" xmlns:xlink="http://www.w3.org/1999/xlink">
 <defs>
  <filter id="h" x="-.011553" y="-.012483" width="1.0231" height="1.025" color-interpolation-filters="sRGB">
   <feGaussianBlur stdDeviation="1.1358682"/>
  </filter>
  <linearGradient id="a">
   <stop stop-color="#8c9eff" offset="0"/>
   <stop stop-color="#7289da" offset="1"/>
  </linearGradient>
  <linearGradient id="d" x1="568.02" x2="837.19" y1="141.94" y2="1146.5" gradientTransform="matrix(.26458 0 0 .26458 -243.42 -85.058)" gradientUnits="userSpaceOnUse" xlink:href="#a"/>
  <linearGradient id="e" x1="500" x2="500" y1="24" y2="1004" gradientTransform="matrix(.26458 0 0 .26458 -31.75 -69.183)" gradientUnits="userSpaceOnUse" xlink:href="#a"/>
  <filter id="k" color-interpolation-filters="sRGB">
   <feFlood flood-color="rgb(0,0,0)" flood-opacity=".49804" result="flood"/>
   <feComposite in="flood" in2="SourceGraphic" operator="out" result="composite1"/>
   <feGaussianBlur in="composite1" result="blur" stdDeviation="3"/>
   <feOffset dx="0" dy="3" result="offset"/>
   <feComposite in="offset" in2="SourceGraphic" operator="in" result="composite2"/>
  </filter>
  <linearGradient id="f" x1="540.14" x2="540.14" y1="29.77" y2="652.93" gradientTransform="matrix(.26324 0 0 .26324 -31.062 -75.962)" gradientUnits="userSpaceOnUse">
   <stop stop-color="#fff" stop-opacity=".58824" offset="0"/>
   <stop stop-color="#fff" stop-opacity="0" offset="1"/>
  </linearGradient>
  <linearGradient id="c" x1="137.58" x2="137.58" y1="90.625" y2="233.5" gradientTransform="matrix(.91429 0 0 .91429 11.611 8.554)" gradientUnits="userSpaceOnUse">
   <stop stop-color="#fff" offset="0"/>
   <stop stop-color="#c7d0fe" stop-opacity=".97647" offset="1"/>
  </linearGradient>
  <linearGradient id="b" x1="137.58" x2="137.58" y1="95.917" y2="217.62" gradientTransform="translate(301.18 13.134)" gradientUnits="userSpaceOnUse">
   <stop stop-color="#fff" offset="0"/>
   <stop stop-color="#fff" offset="1"/>
  </linearGradient>
  <filter id="j" color-interpolation-filters="sRGB">
   <feFlood flood-color="rgb(0,0,0)" flood-opacity=".29412" result="flood"/>
   <feComposite in="flood" in2="SourceGraphic" operator="in" result="composite1"/>
   <feGaussianBlur in="composite1" result="blur" stdDeviation="3"/>
   <feOffset dx="0" dy="2" result="offset"/>
   <feComposite in="offset" in2="SourceGraphic" operator="out" result="composite2"/>
  </filter>
  <filter id="i" color-interpolation-filters="sRGB">
   <feFlood flood-color="rgb(0,0,0)" flood-opacity=".19608" result="flood"/>
   <feComposite in="flood" in2="SourceGraphic" operator="in" result="composite1"/>
   <feGaussianBlur in="composite1" result="blur" stdDeviation="3"/>
   <feOffset dx="0" dy="2" result="offset"/>
   <feComposite in="offset" in2="SourceGraphic" operator="out" result="composite2"/>
  </filter>
 </defs>
 <g transform="translate(0 -26.067)">
  <g transform="translate(31.75 95.25)">
   <g fill-rule="evenodd">
    <path transform="rotate(15 124.35 999.27)" d="m15.875 175.29-100.16-26.838 73.323-73.323 13.419 50.081z" fill="url(#d)" style="paint-order:stroke fill markers"/>
    <circle cx="103.72" cy="66.283" r="129.65" fill="url(#e)" style="paint-order:stroke fill markers"/>
    <circle cx="103.72" cy="66.283" r="115" opacity=".1" style="paint-order:stroke fill markers"/>
    <circle cx="103.72" cy="66.283" r="105.83" opacity=".2" style="paint-order:stroke fill markers"/>
   </g>
   <g transform="matrix(.26458 0 0 .26458 -.53285 -107.81)" fill="none">
    <circle cx="512" cy="540.36" r="175" style="paint-order:stroke markers fill"/>
    <circle cx="226.03" cy="825.61" r="125" style="paint-order:stroke markers fill"/>
    <path d="m360 452.36-235 300 180 170 315-245z"/>
   </g>
   <circle transform="matrix(.26458 0 0 .26458 -25.929 -63.363)" cx="490" cy="490" r="400" fill-rule="evenodd" filter="url(#k)" opacity=".2" style="paint-order:stroke fill markers"/>
   <circle cx="103.72" cy="66.283" r="128.99" color="#000000" fill="none" stroke="url(#f)" stroke-width="1.3163"/>
  </g>
  <rect transform="matrix(.9864 0 0 .9864 1020 1.9573)" x="17.488" y="52.338" width="235.96" height="218.39" rx="11.296" fill="none" filter="url(#h)" opacity=".2" stroke="#fff" stroke-linejoin="round" stroke-width="2.9998" style="paint-order:stroke fill markers"/>
  <path d="m193.65 112.61s-16.676-13.054-36.364-14.545l-1.7746 3.5526c17.796 4.3601 25.964 10.593 34.502 18.266-14.716-7.5127-29.236-14.546-54.545-14.546s-39.829 7.0328-54.545 14.546c8.5382-7.6727 18.254-14.604 34.502-18.266l-1.7745-3.5526c-20.655 1.9454-36.364 14.545-36.364 14.545s-18.622 27.004-21.818 80c18.764 21.647 47.273 21.818 47.273 21.818l5.9636-7.9418c-10.124-3.5199-21.542-9.8-31.418-21.149 11.775 8.9091 29.545 18.182 58.182 18.182 28.636 0 46.407-9.2726 58.182-18.182-9.8727 11.349-21.291 17.629-31.418 21.149l5.9637 7.9418s28.509-0.17057 47.273-21.818c-3.1964-52.996-21.818-80-21.818-80zm-81.818 65.455c-7.0326 0-12.727-6.509-12.727-14.545 0-8.0364 5.6946-14.546 12.727-14.546 7.0328 0 12.727 6.5092 12.727 14.546 0 8.0364-5.6946 14.545-12.727 14.545zm47.273 0c-7.0328 0-12.727-6.509-12.727-14.545 0-8.0364 5.6944-14.546 12.727-14.546s12.727 6.5092 12.727 14.546c0 8.0364-5.6946 14.545-12.727 14.545z" fill="url(#c)" filter="url(#i)" style="paint-order:stroke fill markers"/>
  <path d="m193.65 112.61s-16.676-13.054-36.364-14.545l-1.7746 3.5526c17.796 4.3601 25.964 10.593 34.502 18.266-14.716-7.5127-29.236-14.546-54.545-14.546s-39.829 7.0328-54.545 14.546c8.5382-7.6727 18.254-14.604 34.502-18.266l-1.7745-3.5526c-20.655 1.9454-36.364 14.545-36.364 14.545s-18.622 27.004-21.818 80c18.764 21.647 47.273 21.818 47.273 21.818l5.9636-7.9418c-10.124-3.5199-21.542-9.8-31.418-21.149 11.775 8.9091 29.545 18.182 58.182 18.182 28.636 0 46.407-9.2726 58.182-18.182-9.8727 11.349-21.291 17.629-31.418 21.149l5.9637 7.9418s28.509-0.17057 47.273-21.818c-3.1964-52.996-21.818-80-21.818-80zm-81.818 65.455c-7.0326 0-12.727-6.509-12.727-14.545 0-8.0364 5.6946-14.546 12.727-14.546 7.0328 0 12.727 6.5092 12.727 14.546 0 8.0364-5.6946 14.545-12.727 14.545zm47.273 0c-7.0328 0-12.727-6.509-12.727-14.545 0-8.0364 5.6944-14.546 12.727-14.546s12.727 6.5092 12.727 14.546c0 8.0364-5.6946 14.545-12.727 14.545z" fill="url(#c)" style="paint-order:stroke fill markers"/>
  <path d="m413.71 108.36s-21.973 1.5116-36.343 13.048a1.6082 1.6082 0 0 0-0.218 0.10696c-2.4916 2.3053-4.362 5.884-6.6847 11.002-2.3191 5.1213-4.7726 11.716-7.0089 19.088-4.4656 14.767-8.0893 32.885-8.0893 49.933a3.351 3.351 0 0 0 0.43172 1.7256c5.0385 8.8553 14.315 14.208 22.97 17.579 8.6553 3.3683 16.648 4.7176 20.706 4.8522 1.1452 0.04 2.2398-0.48261 2.9127-1.4011l8.4136-11.647c6.7779 1.6047 14.732 2.6952 23.94 2.6952 9.2074 0 17.162-1.0904 23.943-2.6952l8.4102 11.647c0.67304 0.91432 1.7668 1.4424 2.9127 1.4011 4.0584-0.13841 12.051-1.484 20.706-4.8522 8.6551-3.3716 17.928-8.7241 22.97-17.579a3.351 3.351 0 0 0 0.43172-1.7255c0-17.052-3.6237-35.17-8.0893-49.933-2.2363-7.3714-4.6934-13.966-7.009-19.088-2.3191-5.1213-4.1929-8.6966-6.6881-11.002a1.6082 1.6082 0 0 0-0.214-0.10304c-14.37-11.548-36.343-13.052-36.343-13.052a3.5339 3.5339 0 0 0-0.7552 0 3.451 3.451 0 0 0-2.6953 2.0499s-1.1739 2.5745-1.9429 6.2533c-6.7262-1.0767-12.389-1.4011-15.637-1.4011-3.2474 0-8.9105 0.3244-15.637 1.4011-0.76956-3.6788-1.9429-6.2533-1.9429-6.2533a3.4579 3.4579 0 0 0-3.451-2.0499zm-2.157 7.4404c0.2556 0.70055 0.43176 1.3632 0.64956 2.1569-7.7786 1.8083-16.299 4.7624-24.268 9.7078a3.4648 3.4648 0 0 0-2.1155 3.099c-0.028 1.3459 0.74216 2.6021 1.9568 3.1957 1.2248 0.57977 2.6814 0.40382 3.7202-0.47282 15.989-9.9045 36.329-11.323 43.245-11.323 6.9158 0 27.256 1.4149 43.245 11.323 1.0382 0.8765 2.4952 1.0526 3.7202 0.47282 1.2143-0.5936 1.9844-1.8463 1.9568-3.1957a3.4648 3.4648 0 0 0-2.1189-3.099c-7.965-4.9488-16.486-7.9029-24.261-9.7078 0.214-0.79381 0.39-1.4564 0.64564-2.1569 3.9341 0.48312 19.236 2.5503 29.655 10.784 0.67692 0.62125 3.023 4.0722 5.1765 8.845 2.1604 4.7728 4.4243 10.985 6.5812 18.118 4.2033 13.911 7.6025 31.073 7.7648 46.803-3.9238 6.3499-11.285 11.067-18.874 14.022-6.9021 2.6814-13.345 3.8825-16.717 4.2033l-5.8218-7.8684a85.758 85.758 0 0 0 7.9787-3.023c8.7104-3.8307 13.373-7.8719 13.373-7.8719a3.4752 3.4752 0 0 0-4.6347-5.1765s-3.6132 3.3027-11.54 6.795c-2.9127 1.2769-6.443 2.547-10.463 3.665-0.92868-0.10436-1.8601 0.16176-2.5883 0.75521-6.4293 1.5634-14.073 2.5883-23.077 2.5883-9.0728 0-16.731-1.1178-23.188-2.6953a3.4372 3.4372 0 0 0-2.4778-0.5413 77.931 77.931 0 0 1-10.463-3.772c-7.927-3.4923-11.54-6.795-11.54-6.795a3.4372 3.4372 0 0 0-2.9092-0.86216 3.4476 3.4476 0 1 0-1.7256 6.0393s4.6624 4.0447 13.373 7.8719c2.3466 1.0252 5.0142 2.0637 7.9787 3.0196l-5.8218 7.8753c-3.3717-0.3248-9.8148-1.5254-16.717-4.2102-7.5924-2.9507-14.95-7.6683-18.874-14.018 0.1616-15.73 3.5615-32.892 7.7648-46.803 2.157-7.1333 4.4243-13.345 6.5811-18.118 2.1534-4.7728 4.5002-8.2238 5.1766-8.845 10.419-8.2342 25.721-10.298 29.655-10.784zm0.75652 40.874c-8.8002 0-15.53 7.9926-15.53 17.255 0 9.2626 6.7296 17.255 15.53 17.255s15.53-7.9927 15.53-17.255c0-9.2626-6.7294-17.255-15.53-17.255zm44.863 0c-8.8002 0-15.53 7.9926-15.53 17.255 0 9.2626 6.7294 17.255 15.53 17.255s15.53-7.9927 15.53-17.255c0-9.2626-6.7296-17.255-15.53-17.255zm-44.863 6.9021c4.5416 0 8.6276 4.369 8.6276 10.353 0 5.9841-4.086 10.353-8.6276 10.353-4.5415 0-8.6276-4.369-8.6276-10.353 0-5.9841 4.0861-10.353 8.6276-10.353zm44.863 0c4.5415 0 8.6276 4.369 8.6276 10.353 0 5.9841-4.0861 10.353-8.6276 10.353-4.5416 0-8.6276-4.369-8.6276-10.353 0-5.9841 4.086-10.353 8.6276-10.353z" fill="url(#b)" filter="url(#j)" opacity=".95" stroke-width="3.451"/>
  <path d="m413.71 108.36s-21.973 1.5116-36.343 13.048a1.6082 1.6082 0 0 0-0.218 0.10696c-2.4916 2.3053-4.362 5.884-6.6847 11.002-2.3191 5.1213-4.7726 11.716-7.0089 19.088-4.4656 14.767-8.0893 32.885-8.0893 49.933a3.351 3.351 0 0 0 0.43172 1.7256c5.0385 8.8553 14.315 14.208 22.97 17.579 8.6553 3.3683 16.648 4.7176 20.706 4.8522 1.1452 0.04 2.2398-0.48261 2.9127-1.4011l8.4136-11.647c6.7779 1.6047 14.732 2.6952 23.94 2.6952 9.2074 0 17.162-1.0904 23.943-2.6952l8.4102 11.647c0.67304 0.91432 1.7668 1.4424 2.9127 1.4011 4.0584-0.13841 12.051-1.484 20.706-4.8522 8.6551-3.3716 17.928-8.7241 22.97-17.579a3.351 3.351 0 0 0 0.43172-1.7255c0-17.052-3.6237-35.17-8.0893-49.933-2.2363-7.3714-4.6934-13.966-7.009-19.088-2.3191-5.1213-4.1929-8.6966-6.6881-11.002a1.6082 1.6082 0 0 0-0.214-0.10304c-14.37-11.548-36.343-13.052-36.343-13.052a3.5339 3.5339 0 0 0-0.7552 0 3.451 3.451 0 0 0-2.6953 2.0499s-1.1739 2.5745-1.9429 6.2533c-6.7262-1.0767-12.389-1.4011-15.637-1.4011-3.2474 0-8.9105 0.3244-15.637 1.4011-0.76956-3.6788-1.9429-6.2533-1.9429-6.2533a3.4579 3.4579 0 0 0-3.451-2.0499zm-2.157 7.4404c0.2556 0.70055 0.43176 1.3632 0.64956 2.1569-7.7786 1.8083-16.299 4.7624-24.268 9.7078a3.4648 3.4648 0 0 0-2.1155 3.099c-0.028 1.3459 0.74216 2.6021 1.9568 3.1957 1.2248 0.57977 2.6814 0.40382 3.7202-0.47282 15.989-9.9045 36.329-11.323 43.245-11.323 6.9158 0 27.256 1.4149 43.245 11.323 1.0382 0.8765 2.4952 1.0526 3.7202 0.47282 1.2143-0.5936 1.9844-1.8463 1.9568-3.1957a3.4648 3.4648 0 0 0-2.1189-3.099c-7.965-4.9488-16.486-7.9029-24.261-9.7078 0.214-0.79381 0.39-1.4564 0.64564-2.1569 3.9341 0.48312 19.236 2.5503 29.655 10.784 0.67692 0.62125 3.023 4.0722 5.1765 8.845 2.1604 4.7728 4.4243 10.985 6.5812 18.118 4.2033 13.911 7.6025 31.073 7.7648 46.803-3.9238 6.3499-11.285 11.067-18.874 14.022-6.9021 2.6814-13.345 3.8825-16.717 4.2033l-5.8218-7.8684a85.758 85.758 0 0 0 7.9787-3.023c8.7104-3.8307 13.373-7.8719 13.373-7.8719a3.4752 3.4752 0 0 0-4.6347-5.1765s-3.6132 3.3027-11.54 6.795c-2.9127 1.2769-6.443 2.547-10.463 3.665-0.92868-0.10436-1.8601 0.16176-2.5883 0.75521-6.4293 1.5634-14.073 2.5883-23.077 2.5883-9.0728 0-16.731-1.1178-23.188-2.6953a3.4372 3.4372 0 0 0-2.4778-0.5413 77.931 77.931 0 0 1-10.463-3.772c-7.927-3.4923-11.54-6.795-11.54-6.795a3.4372 3.4372 0 0 0-2.9092-0.86216 3.4476 3.4476 0 1 0-1.7256 6.0393s4.6624 4.0447 13.373 7.8719c2.3466 1.0252 5.0142 2.0637 7.9787 3.0196l-5.8218 7.8753c-3.3717-0.3248-9.8148-1.5254-16.717-4.2102-7.5924-2.9507-14.95-7.6683-18.874-14.018 0.1616-15.73 3.5615-32.892 7.7648-46.803 2.157-7.1333 4.4243-13.345 6.5811-18.118 2.1534-4.7728 4.5002-8.2238 5.1766-8.845 10.419-8.2342 25.721-10.298 29.655-10.784zm0.75652 40.874c-8.8002 0-15.53 7.9926-15.53 17.255 0 9.2626 6.7296 17.255 15.53 17.255s15.53-7.9927 15.53-17.255c0-9.2626-6.7294-17.255-15.53-17.255zm44.863 0c-8.8002 0-15.53 7.9926-15.53 17.255 0 9.2626 6.7294 17.255 15.53 17.255s15.53-7.9927 15.53-17.255c0-9.2626-6.7296-17.255-15.53-17.255zm-44.863 6.9021c4.5416 0 8.6276 4.369 8.6276 10.353 0 5.9841-4.086 10.353-8.6276 10.353-4.5415 0-8.6276-4.369-8.6276-10.353 0-5.9841 4.0861-10.353 8.6276-10.353zm44.863 0c4.5415 0 8.6276 4.369 8.6276 10.353 0 5.9841-4.0861 10.353-8.6276 10.353-4.5416 0-8.6276-4.369-8.6276-10.353 0-5.9841 4.086-10.353 8.6276-10.353z" fill="url(#b)" opacity=".95" stroke-width="3.451"/>
 </g>
</svg>
