<svg viewBox="0 0 48 48" xmlns="http://www.w3.org/2000/svg">
 <path d="m36.962 33.948c-0.56048 6.0804-5.8023 11.052-12.96 11.052s-12.348-4.9765-12.96-11.052c-0.61489-6.104 5.6055-28.856 12.96-28.947 7.4035-0.091695 13.543 22.62 12.96 28.947z" opacity=".2"/>
 <path d="m36.962 32.948c-0.56048 6.0804-5.8023 11.052-12.96 11.052s-12.348-4.9765-12.96-11.052c-0.61489-6.104 5.6055-28.856 12.96-28.947 7.4035-0.091695 13.543 22.62 12.96 28.947z" fill="#f2ad32"/>
 <g fill="#c67427">
  <path d="m27.222 7.0079c-0.04257 0.00554 0.03272 0.21615 0.38482 1.2605 0.91134 2.7032 1.7043 5.7689 2.143 8.2843 0.32805 1.8811 0.47229 3.8629 0.52806 7.2553 0.02953 1.7963 0.08643 3.266 0.12625 3.266 0.08567 0 0.21146-0.57754 0.4011-1.8412 0.71047-4.7344 0.15159-9.574-1.6604-14.379-0.43795-1.1614-1.6707-3.702-1.8469-3.8063-0.03447-0.020402-0.06181-0.041405-0.076-0.039558z"/>
  <path d="m20.939 8.0004c-0.05428-0.012364-0.16774 0.29774-0.33889 0.92964-0.37216 1.374-0.52504 2.5657-0.58243 4.5412-0.06222 2.1415 0.02479 3.2929 0.4804 6.364 0.68065 4.588 1.0601 7.8008 1.0601 8.9746 0 0.32642 0.02803 0.72776 0.06237 0.89184l0.06255 0.29832 0.07481-0.26517c0.04115-0.14584 0.12299-1.1999 0.18188-2.3423 0.16219-3.1462 0.03326-4.9862-0.85426-12.198-0.20898-1.698-0.27872-4.8503-0.14187-6.4082 0.04509-0.51334 0.04322-0.77527-0.0047-0.78618z"/>
  <path d="m16.624 16.317c-0.11644-0.02754-1.4661 2.7899-1.7719 3.6987-0.06489 0.19289-0.18011 0.98199-0.25603 1.7536-0.07592 0.77156-0.25218 2.0144-0.39164 2.7618-0.19423 1.041-0.237 1.6155-0.18219 2.455 0.06661 1.0201 0.13519 1.3515 0.45921 2.2193 0.09053 0.24246 0.18235 0.32636 0.33421 0.30567 0.17699-0.02411 0.21353-0.15714 0.23552-0.86034 0.03882-1.2419 0.21213-2.0416 1.1214-5.1718l0.82769-2.8495-0.01665-1.7097c-0.01702-1.7476-0.12759-2.5479-0.35955-2.6028z"/>
  <path d="m33.682 16.632c0.0733 0.27405 0.13497 0.54058 0.18383 0.79749 0.18688 0.98266 0.32769 2.4787 0.32778 3.4852 9.2e-5 1.2648 0.20126 1.0324 0.32259-0.37263 0.04672-0.54103 0.0851-0.85958 0.12464-1.0143-0.29634-0.96917-0.61626-1.9396-0.95884-2.8958z"/>
  <path d="m27.456 21.813c-0.0503 0-0.06804 0.08898-0.03952 0.19779 0.22896 0.87362 0.37478 2.5593 0.37195 4.2989-0.0017 1.0531 0.031 1.8521 0.07278 1.7806 0.2413-0.41291 0.34346-2.9525 0.16934-4.2101-0.12046-0.87007-0.45326-2.0673-0.57455-2.0673z"/>
  <path d="m35.847 29.866c-0.01272-0.0016-0.02679 0.0058-0.0422 0.02089-0.0205 0.02009-0.12536 0.53792-0.23318 1.1508-0.63062 3.5842-2.0386 7.195-3.8563 9.8893-0.56594 0.83889-0.86336 1.2386-1.2056 1.51 1.4186-0.74892 2.6505-1.7373 3.6489-2.9014 0.04967-0.12015 0.10812-0.25355 0.17739-0.39712 1.0642-2.2057 1.6207-4.7854 1.6242-7.5283 0.0016-1.2848-0.02414-1.7331-0.11319-1.7441z"/>
  <path d="m15.227609 34.167956c-.0421.01134-.09168.12592-.142521.352937-.124276.554929.02672 2.814602.229428 3.43313.07254.221343.257952.566574.412005.76718.154054.200604.317724.364753.363723.364753.103001 0 .103822.01833-.01341-.351225-.408753-1.288501-.7264-2.948618-.728341-3.806958-.0012-.511059-.05071-.778721-.120883-.759817z"/>
 </g>
 <path d="m18.742 34.01c-0.80182-0.06872-1.6395 0.25654-2.1992 1.0039-0.35573 0.47497-0.63762 1.4706-0.51172 1.8047 0.09871 0.26196 0.21317 0.22548 0.47461-0.14844 0.12679-0.18134 0.47818-0.47338 0.78125-0.65039 0.98458-0.57508 2.2381-0.39303 3.0352 0.44141 0.1909 0.19985 0.3457 0.4027 0.3457 0.45117 0 0.04846 0.07206 0.08789 0.16016 0.08789 0.27213 0 0.20728-1.0004-0.10547-1.6289-0.41337-0.83076-1.1786-1.2926-1.9805-1.3613zm11.516 0c-0.80182 0.06872-1.5671 0.53057-1.9805 1.3613-0.31275 0.62854-0.3776 1.6289-0.10547 1.6289 0.0881 0 0.16016-0.03943 0.16016-0.08789 0-0.04847 0.1548-0.25132 0.3457-0.45117 0.79708-0.83444 2.0506-1.0165 3.0352-0.44141 0.30306 0.17702 0.65446 0.46905 0.78125 0.65039 0.26144 0.37392 0.3759 0.4104 0.47461 0.14844 0.1259-0.33413-0.15599-1.3297-0.51172-1.8047-0.55974-0.74736-1.3974-1.0726-2.1992-1.0039zm-3.7285 4.6133c-0.22281-0.03015-0.4048 0.13394-0.62891 0.53711-0.3307 0.59492-0.76891 0.86719-1.4004 0.86719-0.60302 0-1.0563-0.26782-1.3867-0.82031-0.33049-0.5527-0.56091-0.68026-0.88281-0.48828-0.26861 0.1602-0.3005 0.43381-0.10156 0.86719 0.2963 0.64547 1.0278 1.1817 1.8633 1.3652 1.0669 0.23435 2.4438-0.41579 2.877-1.3594 0.20203-0.44011 0.16993-0.71308-0.10156-0.875-0.08675-0.05173-0.16401-0.0837-0.23828-0.09375z" opacity=".1"/>
 <g fill="#453f3d">
  <path d="m23.993 39.952c-0.83551-0.18352-1.5686-0.72043-1.8649-1.3659-0.19894-0.43338-0.1667-0.70806 0.10192-0.86826 0.32191-0.19198 0.55366-0.06384 0.88415 0.48886 0.33037 0.55249 0.78298 0.8204 1.386 0.8204 0.63148 0 1.07-0.27112 1.4007-0.86605 0.29882-0.53756 0.52076-0.65119 0.86774-0.44425 0.27149 0.16192 0.303 0.43505 0.10097 0.87516-0.43315 0.94359-1.8097 1.5944-2.8766 1.36z"/>
  <path d="m16.03 35.818c-0.1259-0.33413 0.15688-1.3296 0.51261-1.8046 1.1195-1.4947 3.3537-1.3033 4.1804 0.35826 0.31275 0.62854 0.37737 1.6283 0.10524 1.6283-0.0881 0-0.1602-0.03965-0.1602-0.08811 0-0.04847-0.15619-0.25163-0.3471-0.45148-0.79708-0.83443-2.0495-1.0168-3.0341-0.44167-0.30306 0.17702-0.65477 0.47022-0.78156 0.65156-0.26144 0.37392-0.37659 0.40971-0.4753 0.14775z"/>
  <path d="m32.97 35.818c0.1259-0.33413-0.15688-1.3296-0.51261-1.8046-1.1195-1.4947-3.3537-1.3033-4.1804 0.35826-0.31275 0.62854-0.37737 1.6283-0.10524 1.6283 0.0881 0 0.1602-0.03965 0.1602-0.08811 0-0.04847 0.15619-0.25163 0.3471-0.45148 0.79708-0.83443 2.0495-1.0168 3.0341-0.44167 0.30306 0.17702 0.65477 0.47022 0.78156 0.65156 0.26144 0.37392 0.37659 0.40971 0.4753 0.14775z"/>
 </g>
 <path d="m24.002 4c-7.141 0.088444-13.193 21.498-12.977 28.33 0.33034-7.7225 6.1613-27.246 12.977-27.33 6.871-0.085099 12.645 19.451 12.975 27.322 0.19826-7.0242-5.7823-28.411-12.975-28.322z" fill="#fff" opacity=".2"/>
</svg>
