<svg version="1.1" viewBox="0 0 1024 1024" xmlns="http://www.w3.org/2000/svg">
 <defs>
  <linearGradient id="h" x1="-120" x2="3023.5" y1="232.36" y2="1520.4" gradientTransform="rotate(-30 -440.36 1675.3)" gradientUnits="userSpaceOnUse">
   <stop stop-color="#fff" offset="0"/>
   <stop stop-color="#d7d7d7" offset="1"/>
  </linearGradient>
  <linearGradient id="i" x1="540.14" x2="540.14" y1="29.77" y2="1055" gradientTransform="matrix(.99492 0 0 .99492 2.5991 2.743)" gradientUnits="userSpaceOnUse">
   <stop stop-color="#fff" stop-opacity=".58824" offset="0"/>
   <stop stop-color="#fff" stop-opacity="0" offset="1"/>
  </linearGradient>
  <filter id="k" color-interpolation-filters="sRGB">
   <feFlood flood-color="rgb(0,0,0)" flood-opacity=".29412" result="flood"/>
   <feComposite in="flood" in2="SourceGraphic" operator="in" result="composite1"/>
   <feGaussianBlur in="composite1" result="blur" stdDeviation="5"/>
   <feOffset dx="0" dy="10" result="offset"/>
   <feComposite in="offset" in2="SourceGraphic" operator="out" result="composite2"/>
  </filter>
  <linearGradient id="j" x1="500" x2="520" y1="52.362" y2="1052.4" gradientUnits="userSpaceOnUse">
   <stop stop-color="#5193e3" offset="0"/>
   <stop stop-color="#5158e3" offset="1"/>
  </linearGradient>
 </defs>
 <g transform="translate(0 -28.362)">
  <circle cx="512" cy="540.36" r="490" color="#000000" fill="url(#j)" style="paint-order:stroke markers fill"/>
  <path d="m529.04 50.773c-1.2383 8.0465-1.3139 16.186-0.2149 24.42 1.5372 11.517 5.267 22.406 11.191 32.668 6.1523 10.656 13.804 19.544 22.953 26.666 9.1161 7.0656 19.316 12.039 30.602 14.92 11.286 2.8811 22.61 3.4862 33.973 1.8125 11.395-1.6173 22.308-5.4368 32.738-11.459 8.57-4.9479 16.153-11.281 22.748-18.998 6.6844-7.6932 11.973-16.31 15.863-25.848l-13.031-4.9922c-3.227 7.9524-7.6645 15.175-13.312 21.668-5.5591 6.5173-11.977 11.877-19.25 16.076-8.852 5.1107-18.062 8.3608-27.633 9.752-9.5386 1.4476-18.962 0.9477-28.268-1.498-9.5962-2.4283-18.291-6.6154-26.086-12.564-7.7385-5.9816-14.195-13.455-19.371-22.42-6.2825-10.882-9.6295-22.407-10.039-34.574-0.1605-5.0993 0.19869-10.076 1.0625-14.934a490 490 0 0 0-13.926-0.69531zm43.814 3.3359c-1.6017 10.158 0.70781 20.643 6.9511 31.457 6.5104 11.276 14.816 18.695 24.918 22.26 10.126 3.4757 20.039 2.4154 29.736-3.1836 5.8074-3.3529 10.295-7.2977 13.465-11.834 3.1933-4.6252 5.2271-10.084 6.1035-16.379l7.5195 13.023c5.5244-3.3493 10.308-6.973 14.379-10.861a490 490 0 0 0-32.424-10.309c0.098 2.0429-0.032 4.0444-0.4082 6.002-1.2775 6.902-5.3854 12.355-12.32 16.359-6.9914 4.0365-13.806 4.9256-20.445 2.6699-6.6724-2.3121-12.337-7.4979-16.992-15.561-4.3669-7.5637-6.0461-14.668-5.0508-21.312a490 490 0 0 0-15.432-2.332zm-127.5 20.811c-2.4217-0.0211-4.8614 0.0628-7.3165 0.25391-13.037 0.9867-25.531 4.931-37.484 11.832-10.656 6.1523-19.642 13.895-26.957 23.23-7.3475 9.2789-12.591 19.599-15.73 30.959-3.0351 11.149-3.7833 22.482-2.2461 33.998 1.5371 11.517 5.2669 22.406 11.191 32.668 6.1523 10.656 13.804 19.544 22.953 26.666 9.1161 7.0656 19.316 12.039 30.602 14.92 11.286 2.8811 22.61 3.4862 33.973 1.8125 11.395-1.6173 22.308-5.4368 32.738-11.459 8.5701-4.9479 16.153-11.281 22.748-18.998 6.6844-7.6932 11.973-16.31 15.863-25.848l-13.031-4.9922c-3.227 7.9524-7.6645 15.175-13.312 21.668-5.5591 6.5173-11.977 11.877-19.25 16.076-8.852 5.1107-18.062 8.3608-27.633 9.752-9.5385 1.4476-18.962 0.9477-28.268-1.498-9.5961-2.4283-18.291-6.6154-26.086-12.564-7.7385-5.9816-14.195-13.455-19.371-22.42-6.2826-10.882-9.6296-22.407-10.039-34.574-0.3857-12.257 2.1871-23.816 7.7188-34.678 3.3293-6.7334 7.6587-12.842 12.988-18.324 5.297-5.539 11.415-10.311 18.35-14.314 9.9232-5.7292 20.223-9.0457 30.902-9.9492 10.703-0.99247 21.12 0.51306 31.248 4.5137 6.2126 2.4272 11.724 5.7854 16.531 10.076 4.8641 4.2582 9.0364 9.4046 12.52 15.438 5.7617 9.9796 8.1257 19.478 7.0918 28.494-1.01 8.9277-5.2715 16.388-12.787 22.381l-35.938-62.246-12.096 6.9824 6.3965 11.078c-5.8005-2.3644-11.501-3.3201-17.104-2.8672-5.6348 0.39655-11.355 2.2721-17.162 5.625-9.6413 5.5664-15.472 13.632-17.492 24.195-2.0203 10.563 0.2239 21.483 6.7343 32.76 6.5105 11.276 14.816 18.695 24.918 22.26 10.126 3.4757 20.039 2.4154 29.736-3.1836 5.8074-3.3529 10.295-7.2977 13.465-11.834 3.1933-4.6252 5.2271-10.084 6.1035-16.379l7.5195 13.023c15.592-9.4529 25.397-21.053 29.414-34.799 4.0168-13.746 1.7448-28.033-6.8164-42.861-4.0039-6.935-9.0051-12.992-15.004-18.174-5.9424-5.2144-12.624-9.3632-20.043-12.447-9.8664-4.0765-20.045-6.1605-30.539-6.252zm-4.959 60.396c2.5519-0.011 5.0953 0.42285 7.6308 1.2988 6.7288 2.2796 12.372 7.3663 16.93 15.26 4.6224 8.0062 6.2674 15.476 4.9336 22.41-1.2775 6.902-5.3853 12.355-12.32 16.359-6.9914 4.0365-13.806 4.9256-20.445 2.6699-6.6724-2.3121-12.337-7.4979-16.992-15.561-4.5898-7.9498-6.2167-15.394-4.8828-22.328 1.3902-6.9671 5.4961-12.419 12.318-16.357 4.2992-2.4821 8.5749-3.7336 12.828-3.752zm387.28 29.402c-1.6445 8.879-1.8642 17.872-0.64845 26.98 1.5371 11.517 5.2669 22.406 11.191 32.668 6.1523 10.656 13.804 19.546 22.953 26.668 9.1161 7.0656 19.316 12.039 30.602 14.92 9.4066 2.4013 18.841 3.214 28.301 2.4512a490 490 0 0 0-9.8066-13.713c-4.9197-0.21603-9.8098-0.94825-14.666-2.2246-9.5962-2.4283-18.291-6.6174-26.086-12.566-7.7385-5.9816-14.195-13.455-19.371-22.42-6.2826-10.882-9.6296-22.407-10.039-34.574-0.0703-2.2345-0.0385-4.4447 0.0879-6.6328a490 490 0 0 0-12.518-11.557zm-555.53 10.201c-2.4217-0.0211-4.8614 0.0628-7.3164 0.25391-13.037 0.9867-25.532 4.931-37.484 11.832-10.656 6.1523-19.642 13.895-26.957 23.23-7.3476 9.2789-12.591 19.599-15.73 30.959-3.0351 11.149-3.7832 22.482-2.2461 33.998 1.5371 11.517 5.2669 22.406 11.191 32.668 6.1523 10.656 13.804 19.544 22.953 26.666 9.1162 7.0656 19.316 12.039 30.602 14.92 11.286 2.8811 22.61 3.4862 33.973 1.8125 11.395-1.6173 22.308-5.4368 32.738-11.459 8.5701-4.9479 16.153-11.281 22.748-18.998 6.6843-7.6932 11.973-16.31 15.863-25.848l-13.031-4.9922c-3.227 7.9524-7.6645 15.175-13.312 21.668-5.5591 6.5173-11.977 11.877-19.25 16.076-8.8519 5.1107-18.062 8.3608-27.633 9.752-9.5385 1.4476-18.962 0.9477-28.268-1.498-9.5961-2.4283-18.291-6.6154-26.086-12.564-7.7385-5.9816-14.195-13.455-19.371-22.42-6.2826-10.882-9.6296-22.407-10.039-34.574-0.3856-12.257 2.1871-23.816 7.7188-34.678 3.3293-6.7334 7.6588-12.842 12.988-18.324 5.297-5.539 11.415-10.311 18.35-14.314 9.9232-5.7292 20.223-9.0457 30.902-9.9492 10.703-0.99247 21.12 0.51306 31.248 4.5137 6.2127 2.4272 11.724 5.7854 16.531 10.076 4.8641 4.2582 9.0365 9.4046 12.52 15.438 5.7617 9.9796 8.1257 19.478 7.0918 28.494-1.01 8.9277-5.2715 16.388-12.787 22.381l-35.938-62.246-12.096 6.9824 6.3965 11.078c-5.8005-2.3644-11.501-3.3201-17.104-2.8672-5.6348 0.39655-11.355 2.2721-17.162 5.625-9.6413 5.5664-15.472 13.632-17.492 24.195s0.224 21.483 6.7344 32.76c6.5104 11.276 14.816 18.695 24.918 22.26 10.126 3.4757 20.039 2.4154 29.736-3.1836 5.8073-3.3529 10.295-7.2977 13.465-11.834 3.1934-4.6252 5.2271-10.084 6.1035-16.379l7.5195 13.023c15.592-9.4529 25.397-21.053 29.414-34.799 4.0168-13.746 1.7448-28.033-6.8164-42.861-4.0039-6.935-9.0051-12.992-15.004-18.174-5.9424-5.2144-12.624-9.3632-20.043-12.447-9.8664-4.0765-20.045-6.1605-30.539-6.252zm471.41 16.506c-2.4216-0.0211-4.8613 0.0628-7.3164 0.25391-13.037 0.9867-25.531 4.931-37.484 11.832-10.656 6.1523-19.642 13.897-26.957 23.232-7.3475 9.2789-12.591 19.597-15.731 30.957-3.0351 11.149-3.7832 22.482-2.2461 33.998 1.5372 11.517 5.267 22.406 11.191 32.668 6.1523 10.656 13.804 19.546 22.953 26.668 9.1161 7.0656 19.316 12.039 30.602 14.92 11.286 2.8811 22.61 3.4843 33.973 1.8105 11.395-1.6173 22.308-5.4368 32.738-11.459 8.57-4.9479 16.153-11.281 22.748-18.998 6.6844-7.6932 11.973-16.308 15.863-25.846l-13.031-4.9941c-3.227 7.9524-7.6645 15.176-13.312 21.67-5.5591 6.5173-11.977 11.875-19.25 16.074-8.852 5.1107-18.062 8.3608-27.633 9.752-9.5386 1.4476-18.962 0.94965-28.268-1.4961-9.5962-2.4283-18.291-6.6174-26.086-12.566-7.7385-5.9816-14.195-13.455-19.371-22.42-6.2825-10.882-9.6295-22.407-10.039-34.574-0.38571-12.257 2.1871-23.816 7.7187-34.678 3.3294-6.7334 7.6588-12.842 12.988-18.324 5.2969-5.539 11.415-10.309 18.35-14.312 9.9232-5.7292 20.223-9.0457 30.902-9.9492 10.703-0.99246 21.12 0.51111 31.248 4.5117 6.2126 2.4272 11.724 5.7854 16.531 10.076 4.8641 4.2582 9.0365 9.4046 12.52 15.438 5.7617 9.9796 8.1257 19.478 7.0918 28.494-1.01 8.9277-5.2715 16.388-12.787 22.381l-35.937-62.246-12.096 6.9824 6.3965 11.08c-5.8005-2.3644-11.501-3.3201-17.104-2.8672-5.6347 0.39655-11.355 2.2702-17.162 5.623-9.6413 5.5664-15.472 13.632-17.492 24.195-2.0202 10.563 0.22401 21.483 6.7344 32.76 6.5104 11.276 14.816 18.697 24.918 22.262 10.126 3.4757 20.039 2.4134 29.736-3.1855 5.8074-3.3529 10.295-7.2977 13.465-11.834 3.1933-4.6252 5.2271-10.084 6.1035-16.379l7.5195 13.023c15.592-9.4529 25.397-21.051 29.414-34.797 4.0168-13.746 1.7448-28.033-6.8164-42.861-4.0039-6.935-9.0051-12.994-15.004-18.176-5.9424-5.2144-12.624-9.3632-20.043-12.447-9.8664-4.0765-20.045-6.1605-30.539-6.252zm-476.37 43.891c2.552-0.011 5.0954 0.42285 7.6308 1.2988 6.7288 2.2796 12.372 7.3663 16.93 15.26 4.6224 8.0062 6.2675 15.476 4.9336 22.41-1.2774 6.902-5.3853 12.355-12.32 16.359-6.9913 4.0365-13.806 4.9256-20.445 2.6699-6.6724-2.3121-12.337-7.4979-16.992-15.561-4.5898-7.9498-6.2166-15.394-4.8828-22.328 1.3902-6.9671 5.4962-12.419 12.318-16.357 4.2991-2.4821 8.5748-3.7336 12.828-3.752zm471.41 16.508c2.552-0.011 5.0954 0.42089 7.6309 1.2969 6.7288 2.2796 12.372 7.3663 16.93 15.26 4.6224 8.0062 6.2674 15.476 4.9336 22.41-1.2775 6.902-5.3854 12.355-12.32 16.359-6.9914 4.0365-13.806 4.9276-20.445 2.6719-6.6724-2.3121-12.337-7.4999-16.992-15.562-4.5899-7.9498-6.2167-15.392-4.8828-22.326 1.3902-6.9671 5.4961-12.421 12.318-16.359 4.2991-2.4821 8.5748-3.7317 12.828-3.75zm-637.57 23.143a490 490 0 0 0-8.6816 14.162c10.666-0.97283 21.048 0.53404 31.143 4.5215 6.2126 2.4272 11.724 5.7854 16.531 10.076 4.8641 4.2582 9.0365 9.4046 12.52 15.438 5.7617 9.9796 8.1256 19.478 7.0917 28.494-1.01 8.9277-5.2714 16.388-12.787 22.381l-35.937-62.246-12.096 6.9824 6.3965 11.078c-5.8005-2.3644-11.501-3.3201-17.103-2.8672-5.5189 0.3884-11.12 2.2052-16.805 5.4297a490 490 0 0 0-17.508 41.262c1.1647 5.2152 3.288 10.511 6.3926 15.889 6.5104 11.276 14.816 18.695 24.918 22.26 10.126 3.4757 20.039 2.4154 29.736-3.1836 5.8073-3.3529 10.295-7.2977 13.465-11.834 3.1934-4.6252 5.2271-10.084 6.1035-16.379l7.5196 13.023c15.592-9.4529 25.397-21.053 29.414-34.799 4.0168-13.746 1.7448-28.033-6.8164-42.861-4.0039-6.935-9.0051-12.992-15.004-18.174-5.9424-5.2144-12.624-9.3632-20.043-12.447-9.21-3.8052-18.693-5.8722-28.449-6.2051zm469.32 16.459c-2.4217-0.0211-4.8614 0.0628-7.3165 0.25391-13.037 0.9867-25.531 4.931-37.484 11.832-10.656 6.1523-19.642 13.897-26.957 23.232-7.3475 9.2789-12.591 19.597-15.73 30.957-3.0351 11.149-3.7833 22.482-2.2461 33.998 1.5371 11.517 5.2669 22.406 11.191 32.668 6.1523 10.656 13.804 19.546 22.953 26.668 9.1161 7.0656 19.316 12.039 30.602 14.92 11.286 2.8811 22.61 3.4843 33.973 1.8105 11.395-1.6173 22.308-5.4368 32.738-11.459 8.5701-4.9479 16.153-11.281 22.748-18.998 6.6844-7.6932 11.973-16.308 15.863-25.846l-13.031-4.9941c-3.227 7.9524-7.6645 15.176-13.312 21.67-5.5591 6.5173-11.977 11.875-19.25 16.074-8.852 5.1107-18.062 8.3608-27.633 9.752-9.5385 1.4476-18.962 0.94965-28.268-1.4961-9.5961-2.4283-18.291-6.6174-26.086-12.566-7.7385-5.9816-14.195-13.455-19.371-22.42-6.2826-10.882-9.6296-22.407-10.039-34.574-0.3857-12.257 2.1871-23.816 7.7188-34.678 3.3293-6.7334 7.6587-12.842 12.988-18.324 5.297-5.539 11.415-10.309 18.35-14.312 9.9232-5.7292 20.223-9.0457 30.902-9.9492 10.703-0.99246 21.12 0.51111 31.248 4.5117 6.2126 2.4272 11.724 5.7854 16.531 10.076 4.8641 4.2582 9.0364 9.4046 12.52 15.438 5.7617 9.9796 8.1257 19.478 7.0918 28.494-1.01 8.9277-5.2715 16.388-12.787 22.381l-35.938-62.246-12.096 6.9824 6.3965 11.08c-5.8005-2.3644-11.501-3.3201-17.104-2.8672-5.6348 0.39655-11.355 2.2702-17.162 5.623-9.6413 5.5664-15.472 13.632-17.492 24.195-2.0203 10.563 0.2239 21.483 6.7343 32.76 6.5105 11.276 14.816 18.697 24.918 22.262 10.126 3.4757 20.039 2.4134 29.736-3.1855 5.8074-3.3529 10.295-7.2977 13.465-11.834 3.1933-4.6252 5.2271-10.084 6.1035-16.379l7.5195 13.023c15.592-9.4529 25.397-21.051 29.414-34.797 4.0168-13.746 1.7448-28.033-6.8164-42.861-4.0039-6.935-9.0051-12.994-15.004-18.176-5.9424-5.2144-12.624-9.3632-20.043-12.447-9.8664-4.0765-20.045-6.1605-30.539-6.252zm-476.37 43.891c2.552-0.011 5.0954 0.42285 7.6309 1.2988 6.7287 2.2796 12.372 7.3663 16.93 15.26 4.6223 8.0062 6.2674 15.476 4.9336 22.41-1.2775 6.902-5.3854 12.355-12.32 16.359-6.9913 4.0365-13.805 4.9256-20.445 2.6699-6.6724-2.3121-12.337-7.4979-16.992-15.561-4.5898-7.9498-6.2166-15.394-4.8828-22.328 1.3902-6.9671 5.4962-12.419 12.318-16.357 4.2991-2.4821 8.5748-3.7336 12.828-3.752zm870.36 15.967c-4.4447 7.1029-7.8052 14.741-10.066 22.924-3.0351 11.149-3.7832 22.483-2.2461 34s5.2669 22.405 11.191 32.666c6.1523 10.656 13.804 19.546 22.953 26.668 3.6712 2.8455 7.5218 5.3449 11.545 7.5117a490 490 0 0 0-2.1738-17.9c-0.34096-0.25103-0.68977-0.4865-1.0274-0.74414-7.7385-5.9816-14.195-13.455-19.371-22.42-6.2826-10.882-9.6296-22.407-10.039-34.574-0.34588-10.992 1.6957-21.421 6.1094-31.291a490 490 0 0 0-6.875-16.84zm-398.95 0.54102c2.5519-0.011 5.0953 0.42089 7.6308 1.2969 6.7288 2.2796 12.372 7.3663 16.93 15.26 4.6224 8.0062 6.2674 15.476 4.9336 22.41-1.2774 6.902-5.3853 12.355-12.32 16.359-6.9914 4.0365-13.806 4.9276-20.445 2.6719-6.6724-2.3121-12.337-7.4999-16.992-15.562-4.5898-7.9498-6.2167-15.392-4.8828-22.326 1.3902-6.9671 5.4961-12.421 12.318-16.359 4.2992-2.4821 8.5749-3.7317 12.828-3.75zm-399.15 38.139c-3.227 7.9524-7.6645 15.175-13.312 21.668-5.559 6.5173-11.977 11.877-19.25 16.076-8.8519 5.1107-18.062 8.3608-27.633 9.752-9.5385 1.4476-18.962 0.9477-28.268-1.498-9.5961-2.4283-18.291-6.6154-26.086-12.564-4.2403-3.2776-8.0819-7.0201-11.553-11.193a490 490 0 0 0-4.0762 15.965c2.3135 2.2552 4.7397 4.3778 7.2852 6.3594 9.1161 7.0656 19.316 12.039 30.602 14.92 11.286 2.8811 22.61 3.4862 33.973 1.8125 11.395-1.6173 22.308-5.4368 32.738-11.459 8.57-4.9479 16.153-11.281 22.748-18.998 6.6844-7.6932 11.973-16.31 15.863-25.848zm230.9 1.4629c-2.4217-0.0211-4.8614 0.0628-7.3164 0.25391-13.037 0.9867-25.532 4.931-37.484 11.832-10.656 6.1523-19.642 13.897-26.957 23.232-7.3476 9.2789-12.591 19.597-15.73 30.957-3.0351 11.149-3.7832 22.482-2.2461 33.998s5.2669 22.406 11.191 32.668c6.1523 10.656 13.804 19.546 22.953 26.668 9.1162 7.0656 19.316 12.039 30.602 14.92 11.286 2.8811 22.61 3.4843 33.973 1.8105 11.395-1.6173 22.308-5.4368 32.738-11.459 8.5701-4.9479 16.153-11.281 22.748-18.998 6.6843-7.6932 11.973-16.308 15.863-25.846l-13.031-4.9941c-3.227 7.9524-7.6645 15.176-13.312 21.67-5.5591 6.5173-11.977 11.875-19.25 16.074-8.8519 5.1107-18.062 8.3608-27.633 9.752-9.5385 1.4476-18.962 0.94965-28.268-1.4961-9.5961-2.4283-18.291-6.6174-26.086-12.566-7.7385-5.9816-14.195-13.455-19.371-22.42-6.2826-10.882-9.6296-22.407-10.039-34.574-0.3856-12.257 2.1871-23.816 7.7188-34.678 3.3293-6.7334 7.6588-12.842 12.988-18.324 5.297-5.539 11.415-10.309 18.35-14.312 9.9232-5.7292 20.223-9.0457 30.902-9.9492 10.703-0.99246 21.12 0.51111 31.248 4.5117 6.2127 2.4272 11.724 5.7854 16.531 10.076 4.8641 4.2582 9.0365 9.4046 12.52 15.438 5.7617 9.9796 8.1257 19.478 7.0918 28.494-1.01 8.9277-5.2715 16.388-12.787 22.381l-35.938-62.246-12.096 6.9824 6.3965 11.08c-5.8005-2.3644-11.501-3.3201-17.104-2.8672-5.6348 0.39655-11.355 2.2702-17.162 5.623-9.6413 5.5664-15.472 13.632-17.492 24.195s0.224 21.483 6.7344 32.76c6.5104 11.276 14.816 18.697 24.918 22.262 10.126 3.4757 20.039 2.4134 29.736-3.1855 5.8073-3.3529 10.295-7.2977 13.465-11.834 3.1934-4.6252 5.2271-10.084 6.1035-16.379l7.5195 13.023c15.592-9.4529 25.397-21.051 29.414-34.797 4.0168-13.746 1.7448-28.033-6.8164-42.861-4.0039-6.935-9.0051-12.994-15.004-18.176-5.9424-5.2144-12.624-9.3632-20.043-12.447-9.8664-4.0765-20.045-6.1605-30.539-6.252zm471.41 16.506c-2.4216-0.0211-4.8614 0.0648-7.3164 0.25586-13.037 0.9867-25.531 4.929-37.484 11.83-10.656 6.1523-19.642 13.897-26.957 23.232-7.3475 9.2789-12.591 19.597-15.73 30.957-3.0352 11.149-3.7832 22.483-2.246 34 1.5371 11.517 5.2669 22.405 11.191 32.666 6.1523 10.656 13.804 19.546 22.953 26.668 9.1161 7.0656 19.316 12.039 30.602 14.92 11.286 2.8811 22.61 3.4843 33.973 1.8105 11.395-1.6173 22.308-5.4368 32.738-11.459 8.57-4.9479 16.153-11.281 22.748-18.998 6.6844-7.6932 11.973-16.308 15.863-25.846l-13.031-4.9941c-3.227 7.9524-7.6645 15.176-13.312 21.67-5.5591 6.5173-11.977 11.875-19.25 16.074-8.852 5.1107-18.062 8.3608-27.633 9.752-9.5385 1.4476-18.962 0.94965-28.268-1.4961-9.5961-2.4283-18.291-6.6174-26.086-12.566-7.7385-5.9816-14.195-13.455-19.371-22.42-6.2826-10.882-9.6296-22.407-10.039-34.574-0.38566-12.257 2.1871-23.814 7.7188-34.676 3.3293-6.7334 7.6588-12.842 12.988-18.324 5.2969-5.539 11.415-10.311 18.35-14.314 9.9232-5.7292 20.223-9.0457 30.902-9.9492 10.703-0.99247 21.12 0.51111 31.248 4.5117 6.2126 2.4272 11.724 5.7873 16.531 10.078 4.8641 4.2582 9.0365 9.4027 12.52 15.436 5.7617 9.9796 8.1257 19.478 7.0918 28.494-1.01 8.9277-5.2715 16.388-12.787 22.381l-35.938-62.244-12.096 6.9824 6.3965 11.078c-5.8005-2.3644-11.501-3.3201-17.104-2.8672-5.6348 0.39655-11.355 2.2721-17.162 5.625-9.6413 5.5664-15.472 13.63-17.492 24.193-2.0202 10.563 0.22396 21.483 6.7344 32.76 6.5104 11.276 14.816 18.697 24.918 22.262 10.126 3.4757 20.039 2.4134 29.736-3.1856 5.8073-3.3529 10.295-7.2977 13.465-11.834 3.1934-4.6252 5.2271-10.084 6.1035-16.379l7.5195 13.025c15.592-9.4529 25.397-21.053 29.414-34.799 4.0168-13.746 1.7448-28.033-6.8164-42.861-4.0039-6.935-9.0052-12.994-15.004-18.176-5.9424-5.2144-12.624-9.3632-20.043-12.447-9.8664-4.0765-20.045-6.1605-30.539-6.252zm-476.37 43.893c2.552-0.011 5.0954 0.42089 7.6308 1.2969 6.7288 2.2796 12.372 7.3663 16.93 15.26 4.6224 8.0062 6.2675 15.476 4.9336 22.41-1.2774 6.902-5.3853 12.355-12.32 16.359-6.9913 4.0365-13.806 4.9276-20.445 2.6719-6.6724-2.3121-12.337-7.4999-16.992-15.562-4.5898-7.9498-6.2166-15.392-4.8828-22.326 1.3902-6.9671 5.4962-12.421 12.318-16.359 4.2991-2.4821 8.5748-3.7317 12.828-3.75zm471.41 16.506c2.552-0.011 5.0954 0.42089 7.6308 1.2969 6.7288 2.2796 12.372 7.3663 16.93 15.26 4.6224 8.0062 6.2674 15.478 4.9336 22.412-1.2775 6.902-5.3854 12.354-12.32 16.357-6.9914 4.0365-13.805 4.9276-20.445 2.6719-6.6724-2.3121-12.337-7.4999-16.992-15.562-4.5898-7.9498-6.2166-15.392-4.8828-22.326 1.3902-6.9671 5.4962-12.421 12.318-16.359 4.2991-2.4821 8.5748-3.7317 12.828-3.75zm-639.66 23.096c-2.4216-0.0211-4.8614 0.0628-7.3164 0.25391-13.037 0.9867-25.531 4.931-37.484 11.832-10.656 6.1523-19.642 13.897-26.957 23.232-7.3476 9.2789-12.591 19.597-15.73 30.957-3.0351 11.149-3.7832 22.482-2.2461 33.998 1.5371 11.517 5.267 22.406 11.191 32.668 6.1524 10.656 13.805 19.546 22.953 26.668 9.1161 7.0656 19.316 12.039 30.601 14.92 11.286 2.8811 22.61 3.4843 33.973 1.8105 11.395-1.6173 22.308-5.4368 32.738-11.459 8.57-4.9479 16.153-11.281 22.748-18.998 6.6844-7.6932 11.973-16.308 15.863-25.846l-13.031-4.9941c-3.227 7.9524-7.6645 15.176-13.312 21.67-5.559 6.5173-11.977 11.875-19.25 16.074-8.8519 5.1107-18.062 8.3608-27.633 9.752-9.5385 1.4476-18.962 0.94965-28.268-1.4961-9.5961-2.4283-18.291-6.6174-26.086-12.566-7.7385-5.9816-14.195-13.455-19.371-22.42-6.2825-10.882-9.6296-22.407-10.039-34.574-0.3856-12.257 2.1872-23.816 7.7188-34.678 3.3293-6.7334 7.6588-12.842 12.988-18.324 5.2969-5.539 11.415-10.309 18.35-14.312 9.9232-5.7292 20.223-9.0457 30.902-9.9492 10.703-0.99246 21.12 0.51111 31.248 4.5117 6.2126 2.4272 11.723 5.7854 16.531 10.076 4.8641 4.2582 9.0365 9.4046 12.52 15.438 5.7617 9.9796 8.1256 19.478 7.0917 28.494-1.01 8.9277-5.2714 16.388-12.787 22.381l-35.938-62.246-12.096 6.9824 6.3965 11.08c-5.8005-2.3644-11.501-3.3201-17.104-2.8672-5.6348 0.39655-11.355 2.2702-17.162 5.623-9.6413 5.5664-15.472 13.632-17.492 24.195s0.224 21.483 6.7344 32.76c6.5104 11.276 14.816 18.697 24.918 22.262 10.126 3.4757 20.039 2.4134 29.736-3.1855 5.8073-3.3529 10.295-7.2977 13.465-11.834 3.1934-4.6252 5.2271-10.084 6.1035-16.379l7.5196 13.023c15.592-9.4529 25.397-21.051 29.414-34.797 4.0168-13.746 1.7448-28.033-6.8164-42.861-4.0039-6.935-9.0051-12.994-15.004-18.176-5.9424-5.2144-12.624-9.3632-20.043-12.447-9.8665-4.0765-20.045-6.1605-30.539-6.252zm471.41 16.506c-2.4217-0.0211-4.8614 0.0648-7.3165 0.25586-13.037 0.9867-25.531 4.929-37.484 11.83-10.656 6.1523-19.642 13.897-26.957 23.232-7.3475 9.2789-12.591 19.597-15.73 30.957-3.0351 11.149-3.7833 22.483-2.2461 34 1.5371 11.517 5.2669 22.405 11.191 32.666 6.1523 10.656 13.804 19.546 22.953 26.668 9.1161 7.0656 19.316 12.039 30.602 14.92 11.286 2.8811 22.61 3.4843 33.973 1.8105 11.395-1.6173 22.308-5.4368 32.738-11.459 8.5701-4.9479 16.153-11.281 22.748-18.998 6.6843-7.6932 11.973-16.308 15.863-25.846l-13.031-4.9941c-3.227 7.9524-7.6645 15.176-13.312 21.67-5.5591 6.5173-11.977 11.875-19.25 16.074-8.852 5.1107-18.062 8.3608-27.633 9.752-9.5385 1.4476-18.962 0.94965-28.268-1.4961-9.5961-2.4283-18.291-6.6174-26.086-12.566-7.7385-5.9816-14.195-13.455-19.371-22.42-6.2826-10.882-9.6296-22.407-10.039-34.574-0.3857-12.257 2.1871-23.814 7.7188-34.676 3.3293-6.7334 7.6587-12.842 12.988-18.324 5.297-5.539 11.415-10.311 18.35-14.314 9.9232-5.7292 20.223-9.0457 30.902-9.9492 10.703-0.99247 21.12 0.51111 31.248 4.5117 6.2126 2.4272 11.724 5.7873 16.531 10.078 4.8641 4.2582 9.0364 9.4027 12.52 15.436 5.7617 9.9796 8.1257 19.478 7.0918 28.494-1.01 8.9277-5.2715 16.388-12.787 22.381l-35.938-62.244-12.096 6.9824 6.3965 11.078c-5.8005-2.3644-11.501-3.3201-17.104-2.8672-5.6348 0.39655-11.355 2.2721-17.162 5.625-9.6413 5.5664-15.472 13.63-17.492 24.193-2.0203 10.563 0.2239 21.483 6.7343 32.76 6.5105 11.276 14.816 18.697 24.918 22.262 10.126 3.4757 20.039 2.4134 29.736-3.1856 5.8074-3.3529 10.295-7.2977 13.465-11.834 3.1933-4.6252 5.2271-10.084 6.1035-16.379l7.5195 13.025c15.592-9.4529 25.397-21.053 29.414-34.799 4.0168-13.746 1.7448-28.033-6.8164-42.861-4.0039-6.935-9.0051-12.994-15.004-18.176-5.9424-5.2144-12.624-9.3632-20.043-12.447-9.8664-4.0765-20.045-6.1605-30.539-6.252zm-476.37 43.893c2.552-0.011 5.0954 0.42089 7.6309 1.2969 6.7287 2.2796 12.372 7.3663 16.93 15.26 4.6223 8.0062 6.2674 15.476 4.9336 22.41-1.2775 6.902-5.3854 12.355-12.32 16.359-6.9913 4.0365-13.805 4.9276-20.445 2.6719-6.6724-2.3121-12.337-7.4999-16.992-15.562-4.5898-7.9498-6.2166-15.392-4.8828-22.326 1.3902-6.9671 5.4962-12.421 12.318-16.359 4.2991-2.4821 8.5748-3.7317 12.828-3.75zm471.41 16.506c2.5519-0.011 5.0953 0.42089 7.6308 1.2969 6.7288 2.2796 12.372 7.3663 16.93 15.26 4.6224 8.0062 6.2674 15.478 4.9336 22.412-1.2774 6.902-5.3853 12.354-12.32 16.357-6.9914 4.0365-13.806 4.9276-20.445 2.6719-6.6724-2.3121-12.337-7.4999-16.992-15.562-4.5898-7.9498-6.2167-15.392-4.8828-22.326 1.3902-6.9671 5.4961-12.421 12.318-16.359 4.2992-2.4821 8.5749-3.7317 12.828-3.75zm-639.66 23.096c-2.4216-0.0211-4.8614 0.0628-7.3164 0.25391-5.8195 0.44044-11.529 1.4748-17.133 3.0938a490 490 0 0 0 1.7168 14.137c5.2474-1.7145 10.591-2.805 16.035-3.2656 10.703-0.99246 21.12 0.51111 31.248 4.5117 6.2126 2.4272 11.724 5.7854 16.531 10.076 4.8642 4.2582 9.0365 9.4046 12.52 15.438 5.7617 9.9796 8.1256 19.478 7.0918 28.494-1.0101 8.9277-5.2715 16.388-12.787 22.381l-35.938-62.246-12.096 6.9824 6.3964 11.08c-5.8004-2.3644-11.501-3.3201-17.104-2.8672-2.0801 0.14639-4.1717 0.49565-6.2754 1.0449a490 490 0 0 0 2.9688 13.227c5.6441-2.3498 11.248-2.567 16.812-0.64453 6.7288 2.2796 12.372 7.3663 16.93 15.26 4.6224 8.0062 6.2674 15.476 4.9336 22.41-1.2775 6.902-5.3854 12.355-12.32 16.359-3.1375 1.8114-6.2381 2.9851-9.3047 3.5293a490 490 0 0 0 5.4316 13.895c2.5335-0.84076 5.0537-1.9796 7.5586-3.4258 5.8073-3.3529 10.295-7.2977 13.465-11.834 3.1933-4.6252 5.2271-10.084 6.1035-16.379l7.5195 13.023c15.592-9.4529 25.397-21.051 29.414-34.797 4.0168-13.746 1.7447-28.033-6.8165-42.861-4.0039-6.935-9.0051-12.994-15.004-18.176-5.9423-5.2144-12.624-9.3632-20.043-12.447-9.8665-4.0765-20.045-6.1605-30.539-6.252zm471.41 16.506c-2.4217-0.0211-4.8614 0.0648-7.3164 0.25586-13.037 0.9867-25.532 4.929-37.484 11.83-10.656 6.1523-19.642 13.897-26.957 23.232-7.3476 9.2789-12.591 19.597-15.73 30.957-3.0351 11.149-3.7832 22.483-2.2461 34s5.2669 22.405 11.191 32.666c6.1523 10.656 13.804 19.546 22.953 26.668 9.1162 7.0656 19.316 12.039 30.602 14.92 11.286 2.8811 22.61 3.4843 33.973 1.8105 11.395-1.6173 22.308-5.4368 32.738-11.459 8.5701-4.9479 16.153-11.281 22.748-18.998 6.6843-7.6932 11.973-16.308 15.863-25.846l-13.031-4.9941c-3.227 7.9524-7.6645 15.176-13.312 21.67-5.5591 6.5173-11.977 11.875-19.25 16.074-8.8519 5.1107-18.062 8.3608-27.633 9.752-9.5385 1.4476-18.962 0.94965-28.268-1.4961-9.5961-2.4283-18.291-6.6174-26.086-12.566-7.7385-5.9816-14.195-13.455-19.371-22.42-6.2826-10.882-9.6296-22.407-10.039-34.574-0.3856-12.257 2.1871-23.814 7.7188-34.676 3.3293-6.7334 7.6588-12.842 12.988-18.324 5.297-5.539 11.415-10.311 18.35-14.314 9.9232-5.7292 20.223-9.0457 30.902-9.9492 10.703-0.99247 21.12 0.51111 31.248 4.5117 6.2127 2.4272 11.724 5.7873 16.531 10.078 4.8641 4.2582 9.0365 9.4027 12.52 15.436 5.7617 9.9796 8.1257 19.478 7.0918 28.494-1.01 8.9277-5.2715 16.388-12.787 22.381l-35.938-62.244-12.096 6.9824 6.3965 11.078c-5.8005-2.3644-11.501-3.3201-17.104-2.8672-5.6348 0.39655-11.355 2.2721-17.162 5.625-9.6413 5.5664-15.472 13.63-17.492 24.193s0.224 21.483 6.7344 32.76c6.5104 11.276 14.816 18.697 24.918 22.262 10.126 3.4757 20.039 2.4134 29.736-3.1856 5.8073-3.3529 10.295-7.2977 13.465-11.834 3.1934-4.6252 5.2271-10.084 6.1035-16.379l7.5195 13.025c15.592-9.4529 25.397-21.053 29.414-34.799 4.0168-13.746 1.7448-28.033-6.8164-42.861-4.0039-6.935-9.0051-12.994-15.004-18.176-5.9424-5.2144-12.624-9.3632-20.043-12.447-9.8664-4.0765-20.045-6.1605-30.539-6.252zm471.41 16.506c-2.4216-0.0211-4.8614 0.0648-7.3164 0.25586-13.037 0.9867-25.531 4.931-37.484 11.832-10.656 6.1523-19.642 13.895-26.957 23.23-7.3476 9.2789-12.591 19.599-15.73 30.959-3.0351 11.149-3.7832 22.482-2.2461 33.998 1.5371 11.517 5.2669 22.406 11.191 32.668 6.0056 10.402 13.444 19.114 22.305 26.148a490 490 0 0 0 7.0273-12.215c-6.8672-5.7001-12.678-12.629-17.406-20.818-6.2826-10.882-9.6296-22.407-10.039-34.574-0.38566-12.257 2.1871-23.816 7.7188-34.678 3.3293-6.7334 7.6588-12.842 12.988-18.324 5.2969-5.539 11.415-10.311 18.35-14.314 9.9232-5.7292 20.223-9.0457 30.902-9.9492 1.9136-0.17744 3.8177-0.27122 5.7129-0.28906a490 490 0 0 0 2.2129-13.9c-0.40951-0.01-0.81806-0.0257-1.2285-0.0293zm-476.37 43.893c2.552-0.011 5.0954 0.42089 7.6308 1.2969 6.7288 2.2796 12.372 7.3663 16.93 15.26 4.6224 8.0062 6.2675 15.478 4.9336 22.412-1.2774 6.902-5.3853 12.354-12.32 16.357-6.9913 4.0365-13.806 4.9276-20.445 2.6719-6.6724-2.3121-12.337-7.4999-16.992-15.562-4.5898-7.9498-6.2166-15.392-4.8828-22.326 1.3902-6.9671 5.4962-12.421 12.318-16.359 4.2991-2.4821 8.5748-3.7317 12.828-3.75zm466.68 4.1191c-0.38289 0.0178-0.76646 0.0258-1.1484 0.0566-5.6348 0.39655-11.355 2.2721-17.162 5.625-9.6413 5.5664-15.472 13.63-17.492 24.193-2.0202 10.563 0.22396 21.483 6.7344 32.76 1.28 2.217 2.632 4.2803 4.0508 6.1992a490 490 0 0 0 7.6367-17.523c-3.1571-6.6388-4.1745-12.911-3.0391-18.814 1.3902-6.9671 5.4962-12.421 12.318-16.359 1.4414-0.83217 2.8802-1.517 4.3164-2.0723a490 490 0 0 0 3.7852-14.064zm-865.83 34.02c-3.227 7.9524-7.6646 15.176-13.312 21.67-5.5591 6.5173-11.977 11.875-19.25 16.074-4.7759 2.7574-9.6594 4.9543-14.645 6.6289a490 490 0 0 0 5.8809 12.75c5.3651-1.8966 10.614-4.3224 15.746-7.2852 8.57-4.9479 16.153-11.281 22.748-18.998 6.6844-7.6932 11.973-16.308 15.863-25.846zm230.9 1.4629c-2.4216-0.0211-4.8614 0.0648-7.3164 0.25586-13.037 0.9867-25.531 4.929-37.484 11.83-10.656 6.1523-19.642 13.897-26.957 23.232-7.3476 9.2789-12.591 19.597-15.73 30.957-3.0351 11.149-3.7832 22.483-2.2461 34s5.267 22.405 11.191 32.666c6.1524 10.656 13.804 19.546 22.953 26.668 9.1161 7.0656 19.316 12.039 30.602 14.92 11.286 2.8811 22.61 3.4843 33.973 1.8105 11.395-1.6173 22.308-5.4368 32.738-11.459 8.57-4.9479 16.153-11.281 22.748-18.998 6.6844-7.6932 11.973-16.308 15.863-25.846l-13.031-4.9941c-3.227 7.9524-7.6645 15.176-13.312 21.67-5.559 6.5173-11.977 11.875-19.25 16.074-8.8519 5.1107-18.062 8.3608-27.633 9.752-9.5385 1.4476-18.962 0.94965-28.268-1.4961-9.5961-2.4283-18.291-6.6174-26.086-12.566-7.7385-5.9816-14.195-13.455-19.371-22.42-6.2825-10.882-9.6296-22.407-10.039-34.574-0.3856-12.257 2.1872-23.814 7.7188-34.676 3.3293-6.7334 7.6588-12.842 12.988-18.324 5.2969-5.539 11.415-10.311 18.35-14.314 9.9232-5.7292 20.223-9.0457 30.902-9.9492 10.703-0.99247 21.12 0.51111 31.248 4.5117 6.2126 2.4272 11.724 5.7873 16.531 10.078 4.8641 4.2582 9.0365 9.4027 12.52 15.436 5.7617 9.9796 8.1256 19.478 7.0917 28.494-1.01 8.9277-5.2714 16.388-12.787 22.381l-35.938-62.244-12.096 6.9824 6.3965 11.078c-5.8005-2.3644-11.501-3.3201-17.104-2.8672-5.6348 0.39655-11.355 2.2721-17.162 5.625-9.6413 5.5664-15.472 13.63-17.492 24.193s0.224 21.483 6.7344 32.76c6.5104 11.276 14.816 18.697 24.918 22.262 10.126 3.4757 20.039 2.4134 29.736-3.1856 5.8073-3.3529 10.295-7.2977 13.465-11.834 3.1934-4.6252 5.2271-10.084 6.1035-16.379l7.5196 13.025c15.592-9.4529 25.397-21.053 29.414-34.799 4.0168-13.746 1.7448-28.033-6.8164-42.861-4.0039-6.935-9.0051-12.994-15.004-18.176-5.9424-5.2144-12.624-9.3632-20.043-12.447-9.8665-4.0765-20.045-6.1605-30.539-6.252zm471.41 16.506c-2.4216-0.0211-4.8614 0.0648-7.3164 0.25586-13.037 0.9867-25.531 4.931-37.484 11.832-10.656 6.1523-19.642 13.895-26.957 23.23-7.3475 9.2789-12.591 19.599-15.73 30.959-3.0351 11.149-3.7833 22.482-2.2461 33.998 1.5371 11.517 5.2669 22.406 11.191 32.668 6.1523 10.656 13.804 19.544 22.953 26.666 9.1161 7.0656 19.316 12.039 30.602 14.92 11.286 2.8811 22.61 3.4843 33.973 1.8106 6.8949-0.97862 13.612-2.768 20.154-5.3594a490 490 0 0 0 47.457-52.375l-9.293-3.5606c-3.227 7.9524-7.6645 15.175-13.312 21.668-5.5591 6.5173-11.977 11.875-19.25 16.074-8.852 5.1107-18.062 8.3627-27.633 9.7539-9.5385 1.4476-18.962 0.9477-28.268-1.498-9.5961-2.4283-18.291-6.6174-26.086-12.566-7.7385-5.9816-14.195-13.453-19.371-22.418-6.2826-10.882-9.6296-22.407-10.039-34.574-0.3857-12.257 2.1871-23.816 7.7188-34.678 3.3293-6.7334 7.6588-12.842 12.988-18.324 5.297-5.539 11.415-10.311 18.35-14.314 9.9232-5.7292 20.223-9.0457 30.902-9.9492 10.703-0.99247 21.12 0.51111 31.248 4.5117 6.2126 2.4272 11.724 5.7873 16.531 10.078 4.8641 4.2582 9.0365 9.4027 12.52 15.436 5.7617 9.9796 8.1257 19.478 7.0918 28.494-1.01 8.9277-5.2715 16.39-12.787 22.383l-35.938-62.246-12.096 6.9824 6.3965 11.078c-5.8005-2.3644-11.501-3.3201-17.104-2.8672-5.6348 0.39655-11.355 2.2721-17.162 5.625-9.6413 5.5664-15.472 13.63-17.492 24.193-2.0203 10.563 0.2239 21.483 6.7344 32.76 6.5104 11.276 14.816 18.697 24.918 22.262 10.126 3.4757 20.039 2.4154 29.736-3.1836 5.8073-3.3529 10.295-7.2977 13.465-11.834 3.1934-4.6252 5.2271-10.086 6.1035-16.381l7.5195 13.025c15.592-9.4529 25.397-21.053 29.414-34.799 4.0168-13.746 1.7448-28.033-6.8164-42.861-4.0039-6.935-9.0051-12.994-15.004-18.176-5.9424-5.2144-12.624-9.3632-20.043-12.447-9.8664-4.0765-20.045-6.1605-30.539-6.252zm-476.37 43.893c2.552-0.011 5.0954 0.42089 7.6309 1.2969 6.7287 2.2796 12.372 7.3663 16.93 15.26 4.6223 8.0062 6.2674 15.478 4.9336 22.412-1.2775 6.902-5.3854 12.354-12.32 16.357-6.9913 4.0365-13.805 4.9276-20.445 2.6719-6.6724-2.3121-12.337-7.4999-16.992-15.562-4.5898-7.9498-6.2166-15.392-4.8828-22.326 1.3903-6.9671 5.4962-12.421 12.318-16.359 4.2991-2.4821 8.5748-3.7317 12.828-3.75zm471.41 16.506c2.552-0.011 5.0954 0.42089 7.6309 1.2969 6.7288 2.2796 12.372 7.3663 16.93 15.26 4.6224 8.0062 6.2674 15.478 4.9336 22.412-1.2775 6.902-5.3854 12.355-12.32 16.359-6.9914 4.0365-13.805 4.9257-20.445 2.6699-6.6724-2.3121-12.337-7.4999-16.992-15.562-4.5898-7.9498-6.2166-15.392-4.8828-22.326 1.3902-6.9671 5.4962-12.421 12.318-16.359 4.2991-2.4821 8.5748-3.7317 12.828-3.75zm-639.66 23.096c-2.4216-0.0211-4.8613 0.0648-7.3164 0.25586-13.037 0.9867-25.531 4.929-37.484 11.83-4.7188 2.7244-9.1082 5.7647-13.172 9.1133a490 490 0 0 0 8.209 11.479c3.7278-3.1426 7.7823-5.98 12.164-8.5098 9.9232-5.7292 20.223-9.0457 30.902-9.9492 10.703-0.99247 21.12 0.51111 31.248 4.5117 6.2126 2.4272 11.724 5.7873 16.531 10.078 4.8642 4.2582 9.0365 9.4027 12.52 15.436 5.7617 9.9796 8.1256 19.478 7.0918 28.494-1.0101 8.9277-5.2715 16.388-12.787 22.381l-35.938-62.244-12.096 6.9824 6.3964 11.078c-5.8004-2.3644-11.501-3.3201-17.104-2.8672-5.6347 0.39655-11.355 2.2721-17.162 5.625-0.8832 0.50995-1.7236 1.0477-2.543 1.5996a490 490 0 0 0 9.6036 10.934c0.9779-0.73252 2.0225-1.4281 3.1484-2.0781 6.8786-3.9714 13.698-4.7891 20.459-2.4531 6.7288 2.2796 12.372 7.3663 16.93 15.26 4.6224 8.0062 6.2674 15.478 4.9336 22.412-0.5194 2.8063-1.516 5.3681-2.9707 7.6953a490 490 0 0 0 9.8281 7.4707c2.0405-3.8503 3.4029-8.1881 4.0762-13.023l7.5195 13.025c15.592-9.4529 25.397-21.053 29.414-34.799 4.0168-13.746 1.7447-28.033-6.8165-42.861-4.0039-6.935-9.0051-12.994-15.004-18.176-5.9423-5.2144-12.624-9.3632-20.043-12.447-9.8665-4.0765-20.045-6.1605-30.539-6.252zm471.41 16.506c-2.4217-0.0211-4.8614 0.0648-7.3164 0.25586-13.037 0.9867-25.532 4.931-37.484 11.832-10.656 6.1523-19.642 13.895-26.957 23.23-7.3476 9.2789-12.591 19.599-15.73 30.959-3.0351 11.149-3.7832 22.482-2.2461 33.998 1.5371 11.517 5.2669 22.406 11.191 32.668 6.1523 10.656 13.804 19.544 22.953 26.666 9.1162 7.0656 19.316 12.039 30.602 14.92s22.61 3.4842 33.973 1.8105c11.395-1.6173 22.308-5.4368 32.738-11.459 8.5701-4.9479 16.153-11.279 22.748-18.996 6.6843-7.6931 11.973-16.31 15.863-25.848l-13.031-4.9922c-3.227 7.9524-7.6645 15.175-13.312 21.668-5.5591 6.5172-11.977 11.875-19.25 16.074-8.8519 5.1107-18.062 8.3627-27.633 9.7539-9.5385 1.4476-18.962 0.9477-28.268-1.498-9.5961-2.4283-18.291-6.6174-26.086-12.566-7.7385-5.9816-14.195-13.453-19.371-22.418-6.2826-10.882-9.6296-22.407-10.039-34.574-0.3856-12.257 2.1871-23.816 7.7188-34.678 3.3293-6.7334 7.6588-12.842 12.988-18.324 5.297-5.539 11.415-10.311 18.35-14.314 9.9232-5.7292 20.223-9.0457 30.902-9.9492 10.703-0.99247 21.12 0.51111 31.248 4.5117 6.2127 2.4272 11.724 5.7873 16.531 10.078 4.8641 4.2582 9.0365 9.4027 12.52 15.436 5.7617 9.9796 8.1257 19.478 7.0918 28.494-1.01 8.9277-5.2715 16.39-12.787 22.383l-35.938-62.246-12.096 6.9824 6.3965 11.078c-5.8005-2.3644-11.501-3.3201-17.104-2.8672-5.6348 0.39655-11.355 2.2721-17.162 5.625-9.6413 5.5664-15.472 13.63-17.492 24.193-2.0202 10.563 0.224 21.483 6.7344 32.76 6.5104 11.276 14.816 18.697 24.918 22.262 10.126 3.4757 20.039 2.4154 29.736-3.1836 5.8073-3.3529 10.295-7.2977 13.465-11.834 3.1934-4.6252 5.2271-10.086 6.1035-16.381l7.5195 13.025c15.592-9.4528 25.397-21.053 29.414-34.799 4.0168-13.746 1.7448-28.033-6.8164-42.861-4.0039-6.935-9.0051-12.994-15.004-18.176-5.9424-5.2144-12.624-9.3632-20.043-12.447-9.8664-4.0765-20.045-6.1605-30.539-6.252zm-4.959 60.398c2.552-0.011 5.0954 0.42089 7.6308 1.2969 6.7288 2.2796 12.372 7.3663 16.93 15.26 4.6224 8.0062 6.2675 15.478 4.9336 22.412-1.2774 6.9019-5.3853 12.355-12.32 16.359-6.9913 4.0365-13.806 4.9257-20.445 2.67-6.6724-2.3121-12.337-7.4999-16.992-15.563-4.5898-7.9498-6.2166-15.392-4.8828-22.326 1.3902-6.9671 5.4962-12.421 12.318-16.359 4.2991-2.4821 8.5748-3.7317 12.828-3.75zm-399.15 38.139c-2.7267 6.7195-6.328 12.914-10.783 18.592a490 490 0 0 0 11.648 7.6836c4.9599-6.4964 9.0263-13.583 12.166-21.281zm230.9 1.4629c-2.4216-0.0211-4.8614 0.0648-7.3164 0.25586-13.037 0.9867-25.531 4.931-37.484 11.832-10.656 6.1523-19.642 13.895-26.957 23.23-7.3476 9.2789-12.591 19.599-15.73 30.959-1.9169 7.0416-2.9186 14.156-3.0117 21.344a490 490 0 0 0 13.838 3.5332c-0.3294-12.134 2.2428-23.584 7.7246-34.348 3.3293-6.7334 7.6588-12.842 12.988-18.324 5.2969-5.539 11.415-10.31 18.35-14.314 9.9232-5.7292 20.223-9.0457 30.902-9.9493 10.703-0.9924 21.12 0.5111 31.248 4.5118 6.2126 2.4272 11.724 5.7873 16.531 10.078 4.8641 4.2582 9.0365 9.4027 12.52 15.436 5.7617 9.9796 8.1256 19.478 7.0917 28.494-1.01 8.9276-5.2714 16.39-12.787 22.383l-35.938-62.246-12.096 6.9824 6.3965 11.078c-5.8005-2.3644-11.501-3.3201-17.104-2.8672-5.6348 0.3966-11.355 2.2722-17.162 5.625-9.6413 5.5664-15.472 13.63-17.492 24.193-1.2505 6.5389-0.8639 13.215 1.1543 20.027a490 490 0 0 0 17.912 2.7071c-3.6595-7.1213-4.8928-13.826-3.6836-20.113 1.3903-6.9671 5.4962-12.421 12.318-16.359 6.8786-3.9713 13.698-4.789 20.459-2.4531 6.7287 2.2796 12.372 7.3663 16.93 15.26 4.6223 8.0062 6.2674 15.478 4.9336 22.412-0.3508 1.8953-0.92379 3.6767-1.7012 5.3535a490 490 0 0 0 11.928 0.5977c0.2823-1.2362 0.5249-2.5003 0.707-3.8087l2.2852 3.9571a490 490 0 0 0 0.918 0.047 490 490 0 0 0 17.392-0.6152c8.1447-7.3865 13.594-15.773 16.338-25.162 4.0168-13.746 1.7448-28.033-6.8164-42.861-4.0039-6.935-9.0051-12.994-15.004-18.176-5.9424-5.2144-12.624-9.3632-20.043-12.447-9.8665-4.0764-20.045-6.1604-30.539-6.2519z" fill="url(#h)" opacity=".05"/>
  <g transform="translate(58 86.362)">
   <path class="st0" d="m708 908h-508c-110.5 0-200-89.5-200-200v-508c0-110.5 89.5-200 200-200h508c110.5 0 200 89.5 200 200v508c0 110.5-89.5 200-200 200z" fill="url(#BG_1_)"/>
   <linearGradient id="g" x1="377.95" x2="465.25" y1="142.39" y2="800.92" gradientUnits="userSpaceOnUse">
    <stop stop-color="#fff" offset="0"/>
    <stop stop-color="#DAE5F5" offset="1"/>
   </linearGradient>
   <path class="st1" d="m751.6 711.5-288-599.6c-3.9-8-15.3-8-19.2 0l-288 599.6c-4 8.3 3.8 16.1 12.1 12.2l216.6-100.2c1.7-0.8 3.6-0.9 5.2-0.3 2 0.7 3.7 2.2 4.4 4.3l54.3 156.9c1.7 4.7 8.3 4.7 10 0l54.2-156.8c0.8-2.1 2.4-3.7 4.4-4.3 1.7-0.6 3.5-0.5 5.2 0.3l216.6 100.2c8.4 3.9 16.2-4 12.2-12.3z" fill="url(#g)"/>
   <linearGradient id="c" x1="490.2" x2="236.39" y1="142.93" y2="756.83" gradientUnits="userSpaceOnUse">
    <stop stop-color="#DAE5F2" offset="0"/>
    <stop stop-color="#D5E2F1" offset=".2396"/>
    <stop stop-color="#C7D9EE" offset=".5219"/>
    <stop stop-color="#AFCBE9" offset=".8246"/>
    <stop stop-color="#9EC0E6" offset="1"/>
   </linearGradient>
   <path class="st2" d="m454 105.9c-3.8 0-7.6 2-9.6 6l-288 599.6c-4 8.3 3.8 16.1 12.1 12.2l216.6-100.2c1.7-0.8 3.6-0.9 5.2-0.3l55.7-504.7c0.4-3.7 4.8-6.5 8-6.5z" fill="url(#c)"/>
   <linearGradient id="f" x1="454" x2="454" y1="120.11" y2="778.4" gradientUnits="userSpaceOnUse">
    <stop stop-color="#FAFCFF" offset="0"/>
    <stop stop-color="#CEDCF2" offset="1"/>
   </linearGradient>
   <path class="st3" d="m517.7 623.2c-2 0.7-3.7 2.2-4.4 4.3l-54.3 156.9c-1.7 4.7-8.3 4.7-10 0l-54.2-156.8c-0.8-2.1-2.5-3.7-4.4-4.3l55.7-505.6c0.8-7.4 15.1-7.4 15.9 0z" fill="url(#f)"/>
   <linearGradient id="e" x1="454.27" x2="490.19" y1="125.38" y2="785.66" gradientUnits="userSpaceOnUse">
    <stop stop-color="#D0DEF2" offset="0"/>
    <stop stop-color="#72A0DC" offset="1"/>
   </linearGradient>
   <path class="st4" d="m461.9 117.6c-0.4-3.7-5.1-5.5-7.9-5.5v675.8c2.1 0 4.2-1.2 5-3.5l54.2-156.8c0.8-2.1 2.4-3.7 4.4-4.3z" fill="url(#e)"/>
   <linearGradient id="b" x1="-3038.4" x2="-3038.4" y1="120" y2="616.9" gradientTransform="matrix(-1 0 0 1 -2547.9 0)" gradientUnits="userSpaceOnUse">
    <stop stop-color="#fff" offset="0"/>
    <stop stop-color="#EBF0FF" offset="1"/>
   </linearGradient>
   <path class="st5" d="m461.6 115.1 54.3 509c0.5-0.4 1.1-0.6 1.7-0.8 0.5-0.2 1.1-0.3 1.7-0.3l-55.1-508.1c-0.1-0.8-0.5-1-1.4-0.9-0.9 0-1.2 0.3-1.2 1.1z" fill="url(#b)"/>
   <linearGradient id="d" x1="417.5" x2="417.5" y1="120.01" y2="616.9" gradientUnits="userSpaceOnUse">
    <stop stop-color="#fff" offset="0"/>
    <stop stop-color="#EBF0FF" offset="1"/>
   </linearGradient>
   <path class="st6" d="m446.4 115.1-54.3 509c-0.5-0.4-1.1-0.6-1.7-0.8-0.5-0.2-1.1-0.3-1.7-0.3l55.1-508.1c0.1-0.8 0.5-1 1.4-0.9s1.2 0.4 1.2 1.1z" fill="url(#d)"/>
   <g fill="#fff">
    <path class="st7" d="m446.7 124.3c5.9 8.7 7.3 25.1 7.3 35.6 0-10.5 1.4-26.9 7.3-35.6z"/>
    <circle class="st7" cx="454" cy="116.5" r="10.6"/>
   </g>
   <linearGradient id="a" x1="454" x2="454" y1="124.53" y2="778.46" gradientUnits="userSpaceOnUse">
    <stop stop-color="#fff" offset="0"/>
    <stop stop-color="#CEDCF2" offset="1"/>
   </linearGradient>
   <path class="st8" d="m454.1 787.9 1.7-669.6c0-1-0.8-1.8-1.8-1.8s-1.8 0.8-1.8 1.8l1.7 669.6z" fill="url(#a)"/>
  </g>
  <circle cx="512" cy="540.36" r="487.51" color="#000000" fill="none" stroke="url(#i)" stroke-width="4.975"/>
  <g transform="translate(58 86.362)" filter="url(#k)">
   <path class="st0" d="m708 908h-508c-110.5 0-200-89.5-200-200v-508c0-110.5 89.5-200 200-200h508c110.5 0 200 89.5 200 200v508c0 110.5-89.5 200-200 200z" fill="url(#BG_1_)"/>
   <path class="st1" d="m751.6 711.5-288-599.6c-3.9-8-15.3-8-19.2 0l-288 599.6c-4 8.3 3.8 16.1 12.1 12.2l216.6-100.2c1.7-0.8 3.6-0.9 5.2-0.3 2 0.7 3.7 2.2 4.4 4.3l54.3 156.9c1.7 4.7 8.3 4.7 10 0l54.2-156.8c0.8-2.1 2.4-3.7 4.4-4.3 1.7-0.6 3.5-0.5 5.2 0.3l216.6 100.2c8.4 3.9 16.2-4 12.2-12.3z" fill="url(#g)"/>
   <path class="st2" d="m454 105.9c-3.8 0-7.6 2-9.6 6l-288 599.6c-4 8.3 3.8 16.1 12.1 12.2l216.6-100.2c1.7-0.8 3.6-0.9 5.2-0.3l55.7-504.7c0.4-3.7 4.8-6.5 8-6.5z" fill="url(#c)"/>
   <path class="st3" d="m517.7 623.2c-2 0.7-3.7 2.2-4.4 4.3l-54.3 156.9c-1.7 4.7-8.3 4.7-10 0l-54.2-156.8c-0.8-2.1-2.5-3.7-4.4-4.3l55.7-505.6c0.8-7.4 15.1-7.4 15.9 0z" fill="url(#f)"/>
   <path class="st4" d="m461.9 117.6c-0.4-3.7-5.1-5.5-7.9-5.5v675.8c2.1 0 4.2-1.2 5-3.5l54.2-156.8c0.8-2.1 2.4-3.7 4.4-4.3z" fill="url(#e)"/>
   <path class="st5" d="m461.6 115.1 54.3 509c0.5-0.4 1.1-0.6 1.7-0.8 0.5-0.2 1.1-0.3 1.7-0.3l-55.1-508.1c-0.1-0.8-0.5-1-1.4-0.9-0.9 0-1.2 0.3-1.2 1.1z" fill="url(#b)"/>
   <path class="st6" d="m446.4 115.1-54.3 509c-0.5-0.4-1.1-0.6-1.7-0.8-0.5-0.2-1.1-0.3-1.7-0.3l55.1-508.1c0.1-0.8 0.5-1 1.4-0.9s1.2 0.4 1.2 1.1z" fill="url(#d)"/>
   <g fill="#fff">
    <path class="st7" d="m446.7 124.3c5.9 8.7 7.3 25.1 7.3 35.6 0-10.5 1.4-26.9 7.3-35.6z"/>
    <circle class="st7" cx="454" cy="116.5" r="10.6"/>
   </g>
   <path class="st8" d="m454.1 787.9 1.7-669.6c0-1-0.8-1.8-1.8-1.8s-1.8 0.8-1.8 1.8l1.7 669.6z" fill="url(#a)"/>
  </g>
 </g>
 <style type="text/css">.st0{fill:url(#BG_1_);}
	.st1{fill:url(#g);}
	.st2{fill:url(#c);}
	.st3{fill:url(#f);}
	.st4{fill:url(#e);}
	.st5{fill:url(#b);}
	.st6{fill:url(#d);}
	.st7{fill:#FFFFFF;}
	.st8{fill:url(#a);}</style>
</svg>
