<svg enable-background="new 0 0 1024 1024" image-rendering="optimizeSpeed" style="background-color:#ffffff" version="1.1" viewBox="0 0 1024 1024" xmlns="http://www.w3.org/2000/svg" xmlns:xlink="http://www.w3.org/1999/xlink">
 <defs>
  <linearGradient id="a" x1="515.66" x2="513.83" y1="-5.4857" y2="1025.8" gradientUnits="userSpaceOnUse">
   <stop stop-color="#fff" offset="0"/>
   <stop stop-color="#d7d7d7" offset="1"/>
  </linearGradient>
  <linearGradient id="c" x1="540" x2="540" y1="4" y2="1024" gradientUnits="userSpaceOnUse">
   <stop stop-color="#d7d7d7" offset="0"/>
   <stop stop-color="#fff" offset="1"/>
  </linearGradient>
  <filter id="e" x="-.033221" y="-.039286" width="1.0664" height="1.0786" color-interpolation-filters="sRGB">
   <feGaussianBlur stdDeviation="9.3018667"/>
  </filter>
 </defs>
 <g transform="matrix(.95703 0 0 .95703 22 22)" fill="url(#a)">
  <g fill="url(#a)">
   <path d="m986.74 315.99q-9.3288-22.617-21.044-44.312c-4.3932-8.1898-9.0576-16.325-13.993-24.298-21.207-34.386-47.078-66.875-77.614-97.41-99.959-99.959-220.69-149.97-362.09-149.97s-262.07 50.007-362.03 149.97-149.97 220.64-149.97 362.03 50.007 262.13 149.97 362.09c99.959 99.959 220.64 149.91 362.03 149.91s262.13-49.953 362.09-149.91c55.051-55.105 94.969-116.5 119.7-184.14 20.122-55.159 30.21-114.44 30.21-177.95 0-48.705-5.9119-94.969-17.79-138.79-1.356-4.9356-2.7661-9.8712-4.2305-14.753-4.4475-14.427-9.5458-28.583-15.241-42.468z" fill="url(#a)" stroke-width="1.0847"/>
  </g>
 </g>
 <g transform="matrix(.99609 0 0 .99609 1.9502 1.9502)">
  <path d="m966.1 378.45c-2.5-8.75-5.35-17.6-8.45-26.35-6.45-18.25-14.15-36.05-23.15-53.65-3.8-7.4-7.95-14.95-12.3-22.4-20.3-34.5-45.8-67.2-76.35-97.75-72.6-72.6-157.15-116.65-253.65-132.05-16.25-2.6-32.8-4.4-50.05-5.35-9.7-0.55-19.85-0.85-30.1-0.85-9.35 0-18.6 0.25-27.9 0.75-118.35 6.1-220.3 51.95-305.85 137.5q-138.25 138.25-138.25 333.75c0 130.35 46.1 241.65 138.25 333.8 85.55 85.5 187.5 131.35 305.85 137.5h0.4c8.5 0.45 16.6 0.7 24.5 0.7h8.45c8.55-0.1 16.8-0.4 24.65-0.8 2.5-0.15 4.75-0.3 6.95-0.45 20.2-1.45 39.9-4.05 58.7-7.7 7.95-1.55 15.8-3.3 23.4-5.15 80.8-20.3 152.15-61.6 214.65-124.1 48.6-48.6 84.4-102.5 107.35-161.8 16.6-42.9 26.55-88.65 29.75-137.45 0.35-5.2 0.6-10.6 0.8-16.05 0.2-6.05 0.3-12.25 0.3-18.5v-3c-0.2-40.65-4.95-79.5-14.3-117-1.1-4.35-2.35-9-3.65-13.6z" fill="url(#c)"/>
 </g>
 <g transform="matrix(.99609 0 0 .99609 1.9502 -5.8154)" fill="#262626" filter="url(#e)" opacity=".2">
  <g fill="#262626">
   <path d="m845.8 482.7c-1.2-7.35-2.85-14.7-4.95-22-0.95-3.25-2-6.5-3.3-10-14.2-39.65-43.55-75.5-87.9-106.95-65.6-46.45-144.8-69.7-237.6-69.7-69.3 0-131 12.95-185.1 38.9-18.4 8.75-35.9 19.05-52.5 30.8-44.15 31.25-73.45 66.9-87.9 106.95-1.2 3.3-2.3 6.65-3.25 10-2.2 7.35-3.9 14.85-4.95 22h-0.025 667.45"/>
   <path d="m838.05 572.05c6.65-18.9 10-38.95 10-60 0-9.95-0.75-19.7-2.25-29.35h-667.48 0.025c-1.6 9.9-2.3 19.5-2.3 29.35 0 21.1 3.4 41.25 10.05 60 9.2 26.05 24.55 50.15 45.65 72h560.6c21.3-22.05 36.55-46.1 45.7-72z"/>
   <path d="m749.65 680.35c16.2-11.45 30.4-23.5 42.7-36.3h-560.6c12.5 12.9 26.6 24.9 42.7 36.3 32.1 22.7 67.4 39.9 105.55 51.4 3.1 25.25 3.7 56.1 1.85 92.45-0.2 3.65 0.7 7.05 2.75 10.15 2 3.15 4.7 5.4 8.15 6.75s7 1.55 10.55 0.65c3.55-0.95 6.55-2.8 8.95-5.6l72.8-86.75c9 0.45 17.95 0.65 27 0.65 77.3 0 145.2-16.1 203.65-48.35q17.55-9.7 33.95-21.35z"/>
  </g>
 </g>
 <g transform="matrix(.99609 0 0 .99609 1.9502 -15.776)">
  <path d="m845.8 482.7c-1.2-7.35-2.85-14.7-4.95-22-0.95-3.25-2-6.5-3.3-10-14.2-39.65-43.55-75.5-87.9-106.95-65.6-46.45-144.8-69.7-237.6-69.7-69.3 0-131 12.95-185.1 38.9-18.4 8.75-35.9 19.05-52.5 30.8-44.15 31.25-73.45 66.9-87.9 106.95-1.2 3.3-2.3 6.65-3.25 10-2.2 7.35-3.9 14.85-4.95 22h-0.025 667.45" fill="#ff0050"/>
  <path d="m838.05 572.05c6.65-18.9 10-38.95 10-60 0-9.95-0.75-19.7-2.25-29.35h-667.48 0.025c-1.6 9.9-2.3 19.5-2.3 29.35 0 21.1 3.4 41.25 10.05 60 9.2 26.05 24.55 50.15 45.65 72h560.6c21.3-22.05 36.55-46.1 45.7-72z" fill="#ff3a58"/>
  <path d="m749.65 680.35c16.2-11.45 30.4-23.5 42.7-36.3h-560.6c12.5 12.9 26.6 24.9 42.7 36.3 32.1 22.7 67.4 39.9 105.55 51.4 3.1 25.25 3.7 56.1 1.85 92.45-0.2 3.65 0.7 7.05 2.75 10.15 2 3.15 4.7 5.4 8.15 6.75s7 1.55 10.55 0.65c3.55-0.95 6.55-2.8 8.95-5.6l72.8-86.75c9 0.45 17.95 0.65 27 0.65 77.3 0 145.2-16.1 203.65-48.35q17.55-9.7 33.95-21.35z" fill="#ff5059"/>
 </g>
</svg>
