<svg version="1.1" viewBox="0 0 256 256" xmlns="http://www.w3.org/2000/svg" xmlns:xlink="http://www.w3.org/1999/xlink">
 <defs>
  <linearGradient id="d" x1="132.29" x2="132.29" y1="43" y2="281.12" gradientTransform="matrix(.93525 0 0 1.0085 1.0676 -35.089)" gradientUnits="userSpaceOnUse">
   <stop stop-color="#1fd4ff" offset="0"/>
   <stop stop-color="#1f76f4" offset="1"/>
  </linearGradient>
  <filter id="a" x="-.094163" y="-.047742" width="1.1883" height="1.0955" color-interpolation-filters="sRGB">
   <feGaussianBlur result="blur" stdDeviation="5 4"/>
  </filter>
  <linearGradient id="e" x1="715.82" x2="715.82" y1="83.95" y2="943.95" gradientTransform="matrix(.24745 0 0 .26683 2.102 -8.7881)" gradientUnits="userSpaceOnUse">
   <stop stop-color="#fbfcfd" offset="0"/>
   <stop stop-color="#dee9f3" offset="1"/>
  </linearGradient>
 </defs>
 <title>Sucharu Hicolor Icon Theme Template</title>
 <rect width="256" height="256" fill-opacity="0" opacity=".7" stroke-width=".77402"/>
 <g fill-rule="evenodd">
  <rect x="16.41" y="16.68" width="222.7" height="222.27" rx="10.662" fill="url(#d)" stroke-width=".97118" style="paint-order:stroke markers fill"/>
  <path class="st1" transform="matrix(.93799 0 0 1.0114 25.618 -10.281)" d="m205.95 36.178-102.97 0.0412c-0.74653 3.9513-12.546 66.359-13.702 84.008-0.12038 1.82-1.9265 15.877 9.8735 16.356l24.443 1.0776s7.8265-0.83816 6.3094 9.5311c-0.21673 1.1734-8.3322 81.589-5.6832 89.013 0.0965 0.26343 0.24083 0.52685 0.40939 0.76633l79.493 0.28737c6.478 0.0239 12.051-4.1952 12.051-11.105l0.37516-177.87c0-6.6-4.1242-12.087-10.602-12.111z" fill="#666" filter="url(#a)" stroke-width=".24014"/>
  <path class="st1" d="m227.97 16.4-104.67-0.40024c-0.76709 4.4026-12.892 73.937-14.08 93.602-0.12373 2.0279-1.9796 17.691 10.145 18.224l25.116 1.2007s8.0421-0.93389 6.4832 10.62c-0.2227 1.3074-8.5618 90.907-5.8398 99.179 0.099 0.29351 0.24745 0.58702 0.42067 0.85384l81.683 0.32019c6.6564 0.0267 12.076-5.7634 12.1-12.941l0.66811-197.61c0-7.2043-5.3696-13.021-12.026-13.048z" fill="url(#e)" stroke-width=".25696"/>
 </g>
 <path d="m177.34 93.14c-2.6605 0-4.8536-2.3648-4.8536-5.2336v-15.895c0-2.8688 2.1931-5.2336 4.8536-5.2336 2.6605 0 4.8536 2.3648 4.8536 5.2336v15.895c0 2.9076-2.1931 5.2336-4.8536 5.2336z" stroke-width=".37334"/>
 <path d="m77.681 93.14c-2.6605 0-4.8536-2.3648-4.8536-5.2336v-15.895c0-2.8688 2.1931-5.2336 4.8536-5.2336s4.8536 2.3648 4.8536 5.2336v15.895c0 2.9076-2.1572 5.2336-4.8536 5.2336z" stroke-width=".37334"/>
 <path d="m59.852 158.17s19.869 28.84 68.16 28.861c45.359 0.0207 67.659-29.331 67.659-29.331" color="#000000" fill="none" stroke="#000" stroke-linecap="round" stroke-width="10.951"/>
 <rect x="16.953" y="17.224" width="221.62" height="221.18" rx="10.61" fill="none" opacity=".2" stroke="#fff" stroke-linecap="round" stroke-linejoin="round" stroke-width="1.9789" style="paint-order:markers fill stroke"/>
</svg>
