<svg clip-rule="evenodd" fill-rule="evenodd" stroke-linejoin="round" stroke-miterlimit="2" version="1.1" viewBox="0 0 48 48" xmlns="http://www.w3.org/2000/svg">
 <path d="m39.44 45.668c3.438 0 6.228-2.79 6.228-6.228v-30.88c0-3.438-2.79-6.228-6.228-6.228h-30.88c-3.438 0-6.228 2.79-6.228 6.228v30.88c0 3.438 2.79 6.228 6.228 6.228h30.88z" fill="url(#a)"/>
 <path d="m10 5.843c0-0.227-0.09-0.445-0.251-0.606-0.161-0.16-0.379-0.251-0.606-0.251h-2.286c-0.227 0-0.445 0.091-0.606 0.251-0.161 0.161-0.251 0.379-0.251 0.606v3.777c0 0.227 0.09 0.445 0.251 0.606s0.379 0.251 0.606 0.251h2.286c0.227 0 0.445-0.09 0.606-0.251s0.251-0.379 0.251-0.606v-3.777zm0 32.716c0-0.227-0.09-0.445-0.251-0.606s-0.379-0.251-0.606-0.251h-2.286c-0.227 0-0.445 0.09-0.606 0.251s-0.251 0.379-0.251 0.606v3.776c0 0.228 0.09 0.446 0.251 0.606 0.161 0.161 0.379 0.252 0.606 0.252h2.286c0.227 0 0.445-0.091 0.606-0.252 0.161-0.16 0.251-0.378 0.251-0.606v-3.776zm8-32.716c0-0.227-0.09-0.445-0.251-0.606-0.161-0.16-0.379-0.251-0.606-0.251h-2.286c-0.227 0-0.445 0.091-0.606 0.251-0.161 0.161-0.251 0.379-0.251 0.606v3.777c0 0.227 0.09 0.445 0.251 0.606s0.379 0.251 0.606 0.251h2.286c0.227 0 0.445-0.09 0.606-0.251s0.251-0.379 0.251-0.606v-3.777zm0 32.716c0-0.227-0.09-0.445-0.251-0.606s-0.379-0.251-0.606-0.251h-2.286c-0.227 0-0.445 0.09-0.606 0.251s-0.251 0.379-0.251 0.606v3.776c0 0.228 0.09 0.446 0.251 0.606 0.161 0.161 0.379 0.252 0.606 0.252h2.286c0.227 0 0.445-0.091 0.606-0.252 0.161-0.16 0.251-0.378 0.251-0.606v-3.776zm8-32.716c0-0.227-0.09-0.445-0.251-0.606-0.161-0.16-0.379-0.251-0.606-0.251h-2.286c-0.227 0-0.445 0.091-0.606 0.251-0.161 0.161-0.251 0.379-0.251 0.606v3.777c0 0.227 0.09 0.445 0.251 0.606s0.379 0.251 0.606 0.251h2.286c0.227 0 0.445-0.09 0.606-0.251s0.251-0.379 0.251-0.606v-3.777zm0 32.716c0-0.227-0.09-0.445-0.251-0.606s-0.379-0.251-0.606-0.251h-2.286c-0.227 0-0.445 0.09-0.606 0.251s-0.251 0.379-0.251 0.606v3.776c0 0.228 0.09 0.446 0.251 0.606 0.161 0.161 0.379 0.252 0.606 0.252h2.286c0.227 0 0.445-0.091 0.606-0.252 0.161-0.16 0.251-0.378 0.251-0.606v-3.776zm8-32.716c0-0.227-0.09-0.445-0.251-0.606-0.161-0.16-0.379-0.251-0.606-0.251h-2.286c-0.227 0-0.445 0.091-0.606 0.251-0.161 0.161-0.251 0.379-0.251 0.606v3.777c0 0.227 0.09 0.445 0.251 0.606s0.379 0.251 0.606 0.251h2.286c0.227 0 0.445-0.09 0.606-0.251s0.251-0.379 0.251-0.606v-3.777zm0 32.716c0-0.227-0.09-0.445-0.251-0.606s-0.379-0.251-0.606-0.251h-2.286c-0.227 0-0.445 0.09-0.606 0.251s-0.251 0.379-0.251 0.606v3.776c0 0.228 0.09 0.446 0.251 0.606 0.161 0.161 0.379 0.252 0.606 0.252h2.286c0.227 0 0.445-0.091 0.606-0.252 0.161-0.16 0.251-0.378 0.251-0.606v-3.776zm8-32.716c0-0.227-0.09-0.445-0.251-0.606-0.161-0.16-0.379-0.251-0.606-0.251h-2.286c-0.227 0-0.445 0.091-0.606 0.251-0.161 0.161-0.251 0.379-0.251 0.606v3.777c0 0.227 0.09 0.445 0.251 0.606s0.379 0.251 0.606 0.251h2.286c0.227 0 0.445-0.09 0.606-0.251s0.251-0.379 0.251-0.606v-3.777zm0 32.716c0-0.227-0.09-0.445-0.251-0.606s-0.379-0.251-0.606-0.251h-2.286c-0.227 0-0.445 0.09-0.606 0.251s-0.251 0.379-0.251 0.606v3.776c0 0.228 0.09 0.446 0.251 0.606 0.161 0.161 0.379 0.252 0.606 0.252h2.286c0.227 0 0.445-0.091 0.606-0.252 0.161-0.16 0.251-0.378 0.251-0.606v-3.776z" fill="#fff" fill-rule="nonzero"/>
 <rect x="2.264" y="14" width="43.404" height="20" fill="#723700"/>
 <g transform="translate(1.7381 3.3076)">
  <text x="9.469px" y="25.012px" fill="rgb(255,188,148)" font-family="'Firebox-Regular', 'Firebox'" font-size="12px">FILM</text>
 </g>
 <defs>
  <linearGradient id="a" x2="1" gradientTransform="matrix(2.6536e-15 -43.336 43.336 2.6536e-15 125.06 45.668)" gradientUnits="userSpaceOnUse">
   <stop stop-color="#d85300" offset="0"/>
   <stop stop-color="#f07f2e" offset="1"/>
  </linearGradient>
 </defs>
</svg>
