<svg viewBox="0 0 48 48" xmlns="http://www.w3.org/2000/svg" xmlns:xlink="http://www.w3.org/1999/xlink">
 <radialGradient id="a" cx="42.067" cy="30.945" r="22.655" gradientTransform="matrix(.60602 0 0 .6057 -5.8741 -43.632)" gradientUnits="userSpaceOnUse">
  <stop stop-color="#0df" stop-opacity=".4" offset=".1"/>
  <stop stop-color="#7542e5" stop-opacity=".25" offset=".9"/>
 </radialGradient>
 <linearGradient id="b" x1="18.726" x2="18.734" y1="-12.561" y2="-34.934" gradientUnits="userSpaceOnUse">
  <stop stop-color="#7542e5" offset="0"/>
  <stop stop-color="#4385fc" offset="1"/>
 </linearGradient>
 <linearGradient id="c" x1="5.7517" x2="43.945" y1="43.663" y2="9.6257" gradientTransform="matrix(.60698 -.79241 1.1573 .88651 -21.748 25.614)" gradientUnits="userSpaceOnUse">
  <stop stop-color="#0079e5" offset="0"/>
  <stop stop-color="#0db9f5" offset="1"/>
 </linearGradient>
 <linearGradient id="d" x1="11.633" x2="18.195" y1="13.401" y2="13.401" gradientUnits="userSpaceOnUse">
  <stop stop-color="#0090ed" offset="0"/>
  <stop stop-color="#00a2f1" offset="1"/>
 </linearGradient>
 <linearGradient id="e" x1="268.83" x2="436.7" y1="221.91" y2="-22.281" gradientTransform="matrix(.079381 0 0 .07926 .68737 6.7015)" gradientUnits="userSpaceOnUse">
  <stop stop-color="#0171d5" offset="0"/>
  <stop stop-color="#5de8ff" offset="1"/>
 </linearGradient>
 <radialGradient id="f" cx="25.477" cy="30.837" r="9.229" gradientTransform="matrix(.60698 -.79241 1.1573 .88651 -21.748 25.614)" gradientUnits="userSpaceOnUse">
  <stop stop-color="#5e87fc" offset="0"/>
  <stop stop-color="#00bff7" offset="1"/>
 </radialGradient>
 <linearGradient id="g" x1="10.041" x2="25.513" y1="26.202" y2="26.202" gradientUnits="userSpaceOnUse">
  <stop stop-color="#61ddfc" offset="0"/>
  <stop stop-color="#80ebff" offset="1"/>
 </linearGradient>
 <linearGradient id="h" x1="-108.42" x2="-108.42" y1="24.551" y2="-15.888" gradientUnits="userSpaceOnUse" xlink:href="#l"/>
 <linearGradient id="i" x1="-11.908" x2="-11.908" y1="23.711" y2="-18.149" gradientUnits="userSpaceOnUse" xlink:href="#l"/>
 <linearGradient id="j" x1="-54.779" x2="-54.779" y1="21.3" y2="-20.56" gradientUnits="userSpaceOnUse" xlink:href="#l"/>
 <linearGradient id="k" x1="276.07" x2="263.68" y1="521.3" y2="24.896" gradientTransform="matrix(.079381 0 0 .07926 .56651 9.4129)" gradientUnits="userSpaceOnUse">
  <stop stop-color="#0060df" offset="0"/>
  <stop stop-color="#00cbfb" offset="1"/>
 </linearGradient>
 <linearGradient id="l">
  <stop stop-color="#3889e9" offset="0"/>
  <stop stop-color="#5ea5fb" offset="1"/>
 </linearGradient>
 <linearGradient id="m" x1="-57.062" x2="-57.062" y1="37.67" y2="-2.7698" gradientUnits="userSpaceOnUse" xlink:href="#l"/>
 <linearGradient id="n" x1="-3.423" x2="-3.423" y1="34.419" y2="-7.4412" gradientUnits="userSpaceOnUse" xlink:href="#l"/>
 <linearGradient id="o" x1="-143.43" x2="-143.43" y1="37.532" y2="-9.8377" gradientUnits="userSpaceOnUse" xlink:href="#l"/>
 <linearGradient id="p" x1="39.448" x2="39.448" y1="36.83" y2="-5.0308" gradientUnits="userSpaceOnUse" xlink:href="#l"/>
 <linearGradient id="q" x1="-14.72" x2="-14.72" y1="40.33" y2="-1.5301" gradientUnits="userSpaceOnUse" xlink:href="#l"/>
 <g stroke-width=".086813">
  <path d="m29.052 5.3718c-3.072 6.9257-3.1252 10.71-2.1367 13.412-0.23523-0.0195-0.47103-0.03122-0.70703-0.03516-11.389 2.2968-22.289-15.495-20.914 11.355 1.3642 10.27 10.037 16.471 19.67 16.338 9.3426-0.12876 14.155-5.4383 16.699-10.207 2.5421-4.7641 2.2337-10.447 0.64648-14.998 0.01887 0.12465 0.02837 0.24863 0.04297 0.37305-1.2062-3.686-3.9538-6.6423-7.4043-12.123-0.63043 0.461-0.98438 1.5957-0.98438 1.5957-3.7141-2.9399-3.3513-3.6397-4.9121-5.7109zm13.258 15.865c-9.86e-4 -0.0065-9.55e-4 -0.01301-2e-3 -0.01953l-2e-3 -0.0332c-0.0032-0.0048 0 0.0041 0 0.01953v0.01953c0.0015 0.0044 0.0024 0.0093 0.0039 0.01367z" fill="url(#k)"/>
  <circle cx="-55.618" cy="17.45" r="0" fill="url(#m)"/>
  <circle cx="-141.74" cy="13.847" r="0" fill="url(#o)"/>
  <circle cx="-13.225" cy="19.4" r="0" fill="url(#q)"/>
  <circle cx="40.943" cy="15.899" r="0" fill="url(#p)"/>
  <circle cx="-1.9281" cy="13.489" r="0" fill="url(#n)"/>
  <path d="m35.069 6.7763c-0.63043 0.461-0.98418 1.5951-0.98418 1.5951-3.7141-2.9399-3.3512-3.6396-4.912-5.7109-9.8109 22.119 11.161 12.186-1.4369 37.358 8.2878-3.0205 14.607-6.7736 15.326-15.059 0.65264-7.519-2.9116-10.112-7.9932-18.183z" fill="url(#e)"/>
 </g>
 <path d="m17.639 16.324c0.2183 0.13905 0.39837 0.26002 0.55619 0.36917a12.492 12.492 0 0 1-0.07578-6.586 19.957 19.957 0 0 0-6.4859 5.0126c0.1314-0.0035 4.04-0.07369 6.0054 1.2041z" fill="url(#d)" stroke-width=".69524"/>
 <path d="m17.867 20.192a10.726 10.726 0 0 0-2.2637 6.5703 10.726 10.726 0 0 0 0.12891 1.6094c0.41335 0.94851 0.99266 1.854 1.7773 2.6387l6.1191 6.1191a10.726 10.726 0 0 0 2.6992 0.35938 10.726 10.726 0 0 0 9.8184-6.4238l-10.635-10.635c-2.4876 0.90123-5.2205 0.81029-7.6445-0.23828z" fill-opacity=".078431" stroke-width=".53719"/>
 <g transform="translate(6.1924 46.114)">
  <circle cx="18.475" cy="-19.171" r="11.445" fill="url(#b)" stroke-width=".049773"/>
  <path d="m29.916-17.955v-0.0048l-0.10542-3.474v-0.01212l-0.52225-1.7334v-0.0036l-1.494-2.8197-1.7218-1.82h-0.0036l-1.8139-1.2947h-0.0073l-1.5752-0.61797h-0.01091l-1.8903-0.6725h-0.01272l-3.1123-0.19812h-0.01332l-1.963 0.35443h-0.0073l-1.6001 0.49196h-0.0103l-2.8415 1.6528-1.7752 1.9805-1.6358 2.6591v0.0067l-0.64463 2.2635v0.0085l-0.12112 3.4346v0.01636l0.61373 2.3398v0.0078l1.3541 2.6658v0.0043l0.93666 1.3196v3e-3l1.3208 1.2117h0.0036l1.6498 1.116h0.0036l2.0345 0.88455h0.01272l3.4043 0.39926h0.0048l1.7776 0.049675h0.01394l2.6306-0.74157h9e-3l2.3507-1.2905 0.0043-3e-3h3e-3l1.5146-1.2905 1.1729-1.4001 0.0043-6e-3 1.6588-3.2474v-0.01272l0.36351-2.2205v-0.0055zm-18.58 7.698-0.34231-0.31383 0.76944 0.60283zm4.9935 1.3044-1.2026-0.56224 2.8475 0.25628zm0.43803-10.239-3.1565 0.33201 1.9466-3.2716zm-1.1014-2.9463 3.8569 1.9321-2.6531 0.98997zm1.1305 3.0463 0.36715 2.9081-3.514-2.5791zm0.3211 3.0038-3.8169 1.2008 0.25628-3.8169zm-0.21205-2.9554 2.9572 1.9636-2.5906 0.94029zm0.04726-0.09209 2.6537-0.9924 0.30717 2.959zm4.0768-3.4176 2.4592-1.1608-0.27748 2.7621zm2.0975 1.6667-3.3807 0.61798 1.2008-2.2193zm-3.477 0.57981-2.1993-4.0441 3.4116 1.8091zm-0.12117-0.01151-3.8823-1.9448 1.6685-2.1205zm-5.995 1.3886-0.49499-1.8891 2.3889-1.2929zm-0.32716 3.949-1.8879-3.0965 2.1387-0.65009zm3.8526-0.98088-1.9194 2.0502-1.757-0.89304zm2.8421-1.0221-0.68462 2.4658-1.8872-1.534zm-0.18539-3.0996 2.8536 2.2508-2.5446 0.70098zm0.05696-0.08604 3.4176-0.62403-0.54527 2.8905zm3.5412-0.76035 0.27385-2.7318 1.5789 2.1447zm1.8872-0.49075 0.08724 3.128-1.9484-2.5379zm-4.2162-1.2244 0.06543-2.3216 2.3816 1.1663zm-0.103 0-3.3989-1.803 3.4649-0.538zm-5.2928 0.289-0.63676-2.318 2.2726 0.24234zm-0.083 0.08664-2.4119 1.3032 1.774-3.6236zm-2.0545 3.4364-2.0932 0.63615 1.6001-2.521zm-0.37866 3.8308-2.6149-1.8515 0.77974-1.1578zm0.21084 0.26294 1.757 0.89303-2.1605 1.1935zm3.9508-1.2602 1.8866 1.5365-3.8339 0.54527zm2.7688-0.96937 2.7869 2.6924-3.477-0.19933zm0.07392-0.0715 2.5555-0.7028 0.22962 3.3964zm3.2062-3.6957 1.9648 2.5597-2.5046 0.30293zm2.0205-0.66644 1.6582 0.93968-1.5752 2.1744zm0.01757-0.10784 1.03-1.6909 0.6107 2.6197zm-0.07573-0.07392-1.5801-2.1459 2.6215 0.43319zm-4.1544-3.4788 1.8557-1.68 0.53255 2.8506zm-3.6727 0.5174 1.1778-2.0896 2.2683 1.5546zm-2.4586-0.23265 1.3329-2.7142 0.95362 2.9566zm-1.9872 3.826-1.6176-2.7009 3.4285-0.99967zm-1.7122 2.7161-0.78277-3.1474 2.4174 0.57254zm-0.86214 1.2856-0.71734-1.7812 1.4813 0.64827zm2.79 2.1569-0.4035 2.092-2.2417-3.9647zm1.9297 1.0209 0.61373 2.0732-2.7942-0.8688zm4.0592-0.59556-0.60889 2.6949-3.2771-2.1435zm3.6194 0.19448-1.5752 1.4268-1.8327-1.6225zm-0.05695-3.5025 2.4234 2.4513-2.1974 0.93181zm0.04967-0.09573 2.5004-0.30293-0.08482 2.747zm4.2289-2.5925 0.99845 3.3631-2.5955-1.1548zm-0.56648-2.8427 1.6292 1.2353-1.0184 1.3729zm-2.8039-0.62827 1.5146-1.7321 1.1166 2.1665zm-0.06846-0.07816-0.52891-2.8312 2.0393 1.1008zm-2.584-1.1996-2.2586-1.5474 4.1053-0.12481zm-3.6612 0.50892-0.94696-2.936 2.1175 0.8585zm-2.4622-0.22901-1.096-1.4868 2.4156-1.1966zm-0.07573 0.07028-3.3589 0.97907 2.2562-2.4737zm-1.926 3.8405-2.3931-0.56708 0.80943-2.0775zm-1.7061 2.7264-1.5146-0.66342 0.75308-2.4034zm-0.84456 1.325-1.3032 0.47681 0.58102-2.272zm2.3441 4.1671-2.8669-1.777 0.60586-2.2259zm2.9196 1.0663-2.7124 0.43016-0.01151-1.2771zm-0.34534-2.0908 3.1892 2.0854-2.5803-0.02908zm4.0368-0.60586 1.8509 1.6394-2.4513 1.0178zm3.6279 0.2072 0.97846 2.7118-2.5664-1.2723zm0.08724-0.06058 2.1811-0.92575-1.2032 3.6442zm2.4053-3.8678 2.5949 1.1548-2.6773 1.6031zm1.737-2.2938 1.6964 1.2075-0.72703 2.0678zm-0.01878-0.13995 1.0197-1.3741 0.6719 2.5785zm-0.68098-2.8621 0.46893-1.4692 1.1275 2.6827zm-0.07088-0.11451-1.0821-2.0938 1.5534 0.621zm-3.1971-3.3322 2.2592-0.14783-0.28475 1.2117zm-4.473 0.03938 1.5904-1.9733 2.5494 1.8473zm-0.09391-0.04726-0.81912-2.1453 2.3931 0.19266zm-0.10663 0.0097-2.092-0.8482 1.2826-1.2723zm-4.7002 0.35927 0.8997-2.5955 1.5274 1.3935zm-2.4131 2.5731 0.65857-2.6967 1.5637 0.25991zm-0.97785 2.3023-0.84457-1.3262 1.6322-0.69674zm-0.04483 0.12117-0.72218 2.3023-0.096937-3.5903zm-0.83184 2.6658-0.58889 2.3023-0.92393-2.3023zm-1.5365-0.10058 0.049072-2.2592 1.4595 2.2574zm2.3277 2.1205-0.58829 2.1429-0.71491-1.6704zm2.3483 4.1732-1.777 0.25143-1.0154-1.9824zm0.09694 0.08967 0.01151 1.259-1.757-1.0112zm2.9632 0.94029-0.90212 1.8794-1.8745-1.4432zm0.10542 0.01878 2.3738 2.192-3.2844-0.29566zm0.11632-0.03211 2.6052 0.02968-0.2375 2.155zm5.2316-1.03 0.09936 2.4343-2.5531-1.4219zm0.1036 9e-3 2.5749 1.2784-2.4755 1.1572zm3.9938-2.4949 1.2784 1.9993-2.484 1.6504zm0.08906-0.05211 2.461 0.36351-1.2014 1.6055zm0.04544-0.09694 2.6331-1.5752-0.17146 1.9387zm3.4776-3.7563 0.46469 1.6267-1.1663 0.37684zm-0.62161-2.7748 1.3329 1.6794-0.68462 0.80821zm-1.2481-3.059 1.7321 1.2687-0.59556 1.4341zm-1.7849-0.87183 0.2793-1.1905 1.2469 1.8006zm-2.2071-1.2032-0.30293-1.8176 2.6052 1.6685zm-0.11451-0.06058-2.484-1.7988 2.1811-0.01394zm-5.0498-2.0951 1.6207-0.99482 0.69613 1.1814zm-1.5564 1.3523-1.5007-1.3692 2.7754 0.10421zm-2.6397 1.302-1.5583-0.25931 2.4422-2.2901zm-2.4174 2.6215-1.5946-1.2947 2.2629-1.4407zm-0.06786 0.07755-1.6473 0.7028 0.079972-1.9757zm-1.6479 4.6845-1.4801-2.2895 1.3777-1.4856zm-0.6416 2.7045-0.28051 1.4007-0.55436-3.4782zm0.071496 0.16722 0.69371 1.6195-0.98876-0.13814zm1.7994 3.7921-1.0457-0.20296 0.06665-1.7097zm1.9757 1.2117-0.74278 0.71431-0.99785-1.7152zm0.08845 0.05696 1.7843 1.3759-2.5258-0.66039zm5.8211-0.42774 2.5446 1.4129-2.7869 0.74823zm5.2667 0.27809-0.13935 1.777-2.2968-0.63797zm2.5555-1.6813-1.4141 2.4798-0.99906-0.87607zm1.3935-1.7509 0.0073 1.2965-1.1311 0.21629zm0.28354-2.2084 1.1511-0.372-1.3111 2.2065zm0.79791-2.2804 0.65311-0.77004-0.20963 2.3101zm-0.73248-2.839 0.58647-1.4123 0.75974 3.1074zm-1.2475-2.9929 0.41198-0.71915 1.2414 1.9303zm-0.07149-0.08179-1.219-1.757 1.631 1.0397zm-4.0889-3.7194 1.2335-0.13147 1.2481 1.7212zm-2.5052-0.0727-0.67917-1.1542 2.7773 1.1414zm-2.5822-0.22659-0.54527-0.95847 2.1435-0.02181zm-0.10905 0.01636-2.6997-0.10118 2.1514-0.85971zm-5.4527 2.2271 0.96937-2.0932 1.402-0.12784zm-0.17388 0.13086-0.88334-0.8482 1.8648-1.2759zm-0.06604 0.07877-2.1974 1.3989 1.3129-2.2508zm-2.484 3.6309-1.1027-0.59313 1.1814-1.3396zm-0.034531 0.09754-1.3402 1.4438 0.23265-2.0387zm-1.5165 4.0489-0.56648 0.46288 0.6101-2.4568zm0.013937 0.12117 0.57799 3.6267-1.1845-3.1299zm1.7897 4.3192-0.06603 1.7043-0.92333-1.843zm1.1372 2.1811 0.94271 1.6182-1.9351-1.8079zm3.9659 2.6779-0.04059 0.93605-2.4671-1.5916zm0.10118 0.039981 1.2808 0.59859-1.3208 0.32292zm3.4104 0.29808 0.03999 1.3129-1.8606-0.97361zm2.9414-0.78762-0.7549 1.777-1.9957-1.0378zm0.12117-0.01576 2.2956 0.63736-3.0487 1.1372zm2.6561-1.1905 0.9724 0.8482-1.1081 0.86274zm2.6391-1.8206 1.1208-0.21447-2.4574 2.5543zm1.3202-0.49559-0.0078-1.2644 1.0342-0.63191zm0.09088-1.445 1.2541-2.1072-0.23083 1.4837zm1.6007-4.556 0.14662 1.551-0.33201 0.45864zm-0.76459-3.8842 0.28657 0.269 0.28718 2.0781zm-1.4541-2.3701 0.26961-0.13571 0.78034 1.7685zm-1.8885-1.2384 0.47378-0.67796 1.1596 1.72zm-0.07392-0.07392-1.2347-1.7037 1.7097 1.0245zm-2.7815-1.7836-0.0078-0.74036 1.1899 0.61434zm-0.103-0.02-2.7197-1.1172 2.7118 0.35685zm-5.3794-1.2487 0.43319-0.37139 1.4353 0.35322zm-2.3628 0.88698 0.84154-0.90879 1.1645 0.10481zm-0.2175 0.08362-1.2723 0.11572 2.0932-0.99724zm-3.5055 1.465 0.14056-0.31565 1.1699-0.58102zm-1.5358 2.4731-0.085423-0.82578 1.2723-1.2117zm-0.08846 0.1454-1.0554 1.1966 0.9724-1.9993zm-1.5722 3.7394-0.67371 0.12541 0.89-2.0205zm-0.022414 0.10905-0.64403 2.5961-0.041198-2.4689zm0.56767 6.464-0.7658-0.63009-0.36715-2.3628zm1.0736 2.1811-0.48893-0.16055-0.32716-1.4656zm2.0908 2.0163-1.6225-0.8797-0.26113-0.87728zm0.29687 0.2787 0.7034 0.89667-2.1508-1.6849zm0.26294 0.16903 2.2374 1.4438-1.4644-0.45803zm4.1047 1.2856 1.7388 0.90879-3.0226-0.59556zm2.0872-0.34594 1.946 1.0124-1.9066 0.30293zm5.1668-0.047262-0.78762 0.6822-1.7782 0.27566zm1.4601-1.0215 0.06604 0.4241-1.0215 0.31565zm2.6506-2.7361-1.0481 1.8697-1.3371 0.61494zm0.29324-0.31141 0.7034-1.2996-0.75187 1.783zm1.4868-4.0047 0.26536-0.36715-0.4241 1.4044zm0.25567-2.77-0.0036-0.02726 0.02666-0.34776 0.02666 0.90091zm-0.07088-0.51195-0.26537-1.9254 0.32898 1.0905zm-0.78762-3.0026-0.48469-1.0996 0.67856 1.2814zm-1.4625-2.2708-0.96937-1.4365 1.2359 1.3026zm-3.2365-3.1002 0.06483-0.04666 0.74278 0.53134zm-0.09815-0.05635-0.50347-0.25991 0.55981 0.21992zm-4.2507-1.1008 0.94393-0.19387 1.4201 0.50528zm-0.30778-0.0412-1.285-0.31626 2.1544 0.13692zm-2.4343 0.02363-1.0021-0.09027 1.4026-0.25325zm-3.5364 0.89546 0.57314-0.42955 0.92454-0.28475zm-0.47075 0.22417-0.49741 0.24719 0.76459-0.44712zm-2.0866 1.431-0.5901 0.56345 0.67432-0.75247zm-2.7639 3.9762-0.26234 0.09694 1.0197-1.6558zm-0.3417 0.23568 0.28293-0.10481-0.71552 1.6255zm-0.70461 4.2186 0.01454 0.90454-0.052109 0.16479zm0.049072 1.136 0.2581 1.6631-0.35564-1.3571zm1.3468 3.4401 0.3314 1.4844-1.0584-2.0823zm1.0633 2.1205 0.23023 0.77429-0.68522-0.92393zm5.1401 3.9847 0.09572 0.15328-1.0057-0.43743zm0.25809 0.21811-0.12117-0.18782 2.1878 0.43076zm5.3594 0.18176-0.23022 0.26052-1.2008-0.033324zm0.15934-0.024848 1.4316-0.22235-1.6443 0.46287zm3.308-1.2366 0.83972-0.25931-1.4783 0.81609zm1.345-0.55678-0.06603-0.4241 1.2269-0.56405zm2.6573-3.1856-0.05756 0.57254-0.807 0.96271zm1.3286-2.4416 0.2072-0.09996-0.94938 1.8648zm0.27567-0.24719-0.23265 0.11269 0.46772-1.5389z" fill="url(#a)" stroke-width=".60586"/>
 </g>
 <path d="m34.256 22.346c-0.08427-0.07729-0.18351-0.15708-0.28973-0.23737-0.03939-0.02942-0.0783-0.05884-0.12018-0.08826-1.3595-0.94164-3.0202-1.3449-4.6601-1.1315 6.9515 3.4757 4.2145 13.619-2.0676 13.55-4.4457-0.04867-4.9263-0.31361-6.7677-0.85227 8.9772 5.0318 14.755 0.90373 16.577-2.5329 1.4959-4.1315-0.83888-6.9092-2.6714-8.7079z" fill="url(#f)" stroke-width=".49867"/>
 <path d="m25.084 43.73c9.0341-0.27832 14.154-5.4377 16.699-10.206s2.2337-10.459 0.64241-15.012v-0.01971c0-0.01545-0.0032-0.0245 0-0.01971l0.0037 0.03462c0.73244 4.7819-1.6998 9.4146-5.5021 12.547l-0.01172 0.02663c-4.5834 3.7907-12.587 3.4052-13.81 3.0484-1.3767-0.4017-7.2703-3.72-6.9499-7.1006 0.35662-3.7638 2.0341-5.3373 6.9445-5.0969l2.4126-1.5004c-8e-3 -0.16779-3.7026-0.88618-5.1036-2.2658-0.74842-0.73776-1.1037-1.0931-1.4185-1.3599-0.17013-0.14411-0.34794-0.27889-0.53265-0.40376-0.12252-0.08363-0.26048-0.17419-0.42614-0.28285-1.5059-0.97907-4.5006-0.92527-4.5997-0.9226h-0.0096c-0.8182-1.0371-0.76067-4.4569-0.71379-5.1713-0.24205 0.09728-0.47311 0.21995-0.68929 0.36595-0.72229 0.51551-1.3975 1.0939-2.0178 1.7285-0.70934 0.71461-1.3576 1.4874-1.9379 2.3102v0.0032-0.0037c-2.2342 3.5012-3.021 6.4328-2.6485 12.965 1.3642 10.27 8.6122 16.677 19.669 16.337z" fill="url(#c)" stroke-width=".53268"/>
 <path d="m16.451 26.874s0.63744-4.1387 6.5578-4.1387c0.63979 0 2.4711-1.7862 2.5038-2.304-2.5459 0.92233-5.3515 0.81205-7.8172-0.30727-2.4318-1.2335-5.3293-1.1171-7.6544 0.30727 0.88664 1.9177 2.8194 3.1334 4.9319 3.1023-0.3857 3.4042 1.1939 8.0232 6.0584 9.5963 0.09724 0.04674-0.09992-0.04459 0 0-2.5425-1.3134-4.3183-3.2401-4.5804-6.2559z" fill="url(#g)" stroke-width=".53719"/>
 <g stroke-width=".086813">
  <circle cx="-106.97" cy="4.3311" r="0" fill="url(#h)"/>
  <circle cx="-10.413" cy="2.7806" r="0" fill="url(#i)"/>
  <circle cx="-53.284" cy=".37018" r="0" fill="url(#j)"/>
 </g>
</svg>
