<svg enable-background="new 0 0 1024 1024" image-rendering="optimizeSpeed" style="background-color:#FFFFFF" version="1.1" viewBox="0 0 1024 1024" xmlns="http://www.w3.org/2000/svg" xmlns:xlink="http://www.w3.org/1999/xlink">
 <defs>
  <linearGradient id="d">
   <stop stop-color="#fff" offset="0"/>
   <stop stop-color="#fff8f1" offset="1"/>
  </linearGradient>
  <linearGradient id="c">
   <stop stop-color="#fff" stop-opacity=".94009" offset="0"/>
   <stop stop-color="#dce7f0" stop-opacity="0" offset="1"/>
  </linearGradient>
  <linearGradient id="e">
   <stop stop-color="#fff" offset="0"/>
   <stop stop-color="#dce7f0" stop-opacity="0" offset="1"/>
  </linearGradient>
  <linearGradient id="a">
   <stop stop-color="#ff9300" offset="0"/>
   <stop stop-color="#ff6d00" offset="1"/>
  </linearGradient>
  <linearGradient id="n" x1="520" x2="520.03" y1="4" y2="1026" gradientTransform="matrix(.95703 0 0 .95703 22 22)" gradientUnits="userSpaceOnUse" xlink:href="#a"/>
  <linearGradient id="k" x1="520.08" x2="520.08" y1="2.4304" y2="1025.7" gradientTransform="matrix(.99682 0 0 .99682 1.5773 1.5773)" gradientUnits="userSpaceOnUse" xlink:href="#a"/>
  <linearGradient id="p" x1="540.14" x2="540.14" y1="29.77" y2="1055" gradientTransform="matrix(.99492 0 0 .99492 2.599 -25.619)" gradientUnits="userSpaceOnUse">
   <stop stop-color="#fff" stop-opacity=".58824" offset="0"/>
   <stop stop-color="#ff6f00" offset="1"/>
  </linearGradient>
  <linearGradient id="m" x1="144.52" x2="144.52" y1="426.46" y2="552.33" gradientTransform="matrix(.79449 0 0 .79449 105.18 105.18)" gradientUnits="userSpaceOnUse" xlink:href="#c"/>
  <linearGradient id="l" x1="529.82" x2="485.4" y1="-571.88" y2="1604.9" gradientTransform="matrix(.45021 0 0 .45021 281.47 281.47)" gradientUnits="userSpaceOnUse" xlink:href="#a"/>
  <linearGradient id="j" x1="161.42" x2="214.31" y1="715.29" y2="550.84" gradientTransform="matrix(1.1367 0 0 1.1367 -15.725 -109.82)" gradientUnits="userSpaceOnUse" xlink:href="#d"/>
  <linearGradient id="i" x1="748.68" x2="-56.867" y1="602.67" y2="753.71" gradientTransform="matrix(.79449 0 0 .79449 105.18 105.18)" gradientUnits="userSpaceOnUse" xlink:href="#e"/>
  <linearGradient id="h" x1="748.68" x2="68.999" y1="602.67" y2="376.11" gradientTransform="matrix(.79449 0 0 .79449 105.18 105.18)" gradientUnits="userSpaceOnUse" xlink:href="#e"/>
  <linearGradient id="g" x1="144.52" x2="144.52" y1="426.46" y2="552.33" gradientTransform="matrix(.79449 0 0 .79449 105.18 92.52)" gradientUnits="userSpaceOnUse" xlink:href="#c"/>
  <linearGradient id="f" x1="161.42" x2="214.31" y1="715.29" y2="550.84" gradientTransform="translate(5.6889 -66.844)" gradientUnits="userSpaceOnUse">
   <stop stop-color="#fff" stop-opacity="0" offset="0"/>
   <stop stop-color="#fff8f1" offset="1"/>
  </linearGradient>
  <linearGradient id="b" x1="537.22" x2="537.22" y1="46.343" y2="1053.3" gradientTransform="matrix(.3178 0 0 .3178 349.27 349.27)" gradientUnits="userSpaceOnUse">
   <stop stop-color="#faffff" offset="0"/>
   <stop stop-color="#fac393" offset="1"/>
  </linearGradient>
  <filter id="q" color-interpolation-filters="sRGB">
   <feFlood flood-color="rgb(0,0,0)" flood-opacity=".29412" result="flood"/>
   <feComposite in="flood" in2="SourceGraphic" operator="in" result="composite1"/>
   <feGaussianBlur in="composite1" result="blur" stdDeviation="3"/>
   <feOffset dx="0" dy="3" result="offset"/>
   <feComposite in="offset" in2="SourceGraphic" operator="out" result="composite2"/>
  </filter>
  <filter id="u" color-interpolation-filters="sRGB">
   <feFlood flood-color="rgb(0,0,0)" flood-opacity=".29412" result="flood"/>
   <feComposite in="flood" in2="SourceGraphic" operator="in" result="composite1"/>
   <feGaussianBlur in="composite1" result="blur" stdDeviation="3"/>
   <feOffset dx="0" dy="3" result="offset"/>
   <feComposite in="offset" in2="SourceGraphic" operator="out" result="composite2"/>
  </filter>
  <filter id="t" x="-.72" y="-.72" width="2.44" height="2.44" color-interpolation-filters="sRGB">
   <feGaussianBlur stdDeviation="48"/>
  </filter>
  <filter id="s" x="-.36" y="-.36" width="1.72" height="1.72" color-interpolation-filters="sRGB">
   <feGaussianBlur stdDeviation="27.704288"/>
   <feBlend in2="BackgroundImage" mode="overlay"/>
  </filter>
  <linearGradient id="o" x1="161.42" x2="214.31" y1="715.29" y2="550.84" gradientTransform="matrix(1.1367 0 0 1.1367 21.784 -184.84)" gradientUnits="userSpaceOnUse" xlink:href="#d"/>
  <filter id="r" x="-.1248" y="-.1248" width="1.2496" height="1.2496" color-interpolation-filters="sRGB">
   <feGaussianBlur stdDeviation="9.6041531"/>
   <feBlend in2="BackgroundImage" mode="overlay"/>
  </filter>
 </defs>
 <path d="m966.34 324.41q-8.928-21.645-20.14-42.408c-4.2044-7.8379-8.6684-15.624-13.392-23.254-20.296-32.909-45.055-64.001-74.279-93.225-95.664-95.664-211.21-143.52-346.53-143.52s-250.81 47.858-346.48 143.52c-95.664 95.664-143.52 211.16-143.52 346.48s47.858 250.87 143.52 346.53c95.664 95.664 211.16 143.47 346.48 143.47s250.87-47.806 346.53-143.47c52.685-52.737 90.889-111.5 114.56-176.22 19.257-52.789 28.912-109.52 28.912-170.31 0-46.612-5.6579-90.889-17.025-132.83-1.2977-4.7235-2.6472-9.447-4.0487-14.119-4.2564-13.807-9.1356-27.355-14.586-40.643z" fill="url(#n)" stroke-width="1.0381"/>
 <path d="m968.25 392.38c-1.0966-4.3362-2.3426-8.9714-3.6385-13.557-0.9968-3.3892-1.9936-6.8282-3.1399-10.467-1.595-5.1336-3.3892-10.467-5.2832-15.8-6.4295-18.192-14.105-35.935-23.076-53.48-3.7879-7.3765-7.9248-14.902-12.261-22.329-20.236-34.39-45.654-66.986-76.107-97.439-72.369-72.369-156.65-116.28-252.84-131.63-16.198-2.5917-32.696-4.386-49.891-5.333-9.6692-0.54825-19.787-0.8473-30.004-0.8473-9.3203 0-18.541 0.24921-27.811 0.74762-117.97 6.0806-219.6 51.785-304.88 137.06q-137.81 137.81-137.81 332.69c0 129.94 45.954 240.88 137.81 332.74 56.52 56.47 120.17 95.595 190.49 117.18 36.633 11.214 74.562 17.793 114.39 19.887h0.39873c8.473 0.4485 16.547 0.6977 24.422 0.6977h2.9905c10.267 0 20.435-0.299 30.004-0.7974 2.4921-0.1495 4.7349-0.2991 6.9279-0.4486 20.136-1.4454 39.773-4.0371 58.513-7.6755 7.9247-1.5451 15.75-3.2895 23.326-5.1337 80.543-20.235 151.67-61.404 213.97-123.71 48.446-48.446 84.132-102.17 107.01-161.29 18.391-47.499 28.559-98.486 30.453-153.01 0.1993-6.0308 0.299-12.211 0.299-18.441v-2.9904c-0.1994-40.521-4.9343-79.247-14.254-116.63z" fill="url(#k)" stroke-width=".99682"/>
 <circle cx="512" cy="512" r="425" fill="#fff" fill-rule="evenodd" filter="url(#q)" opacity=".6" style="paint-order:stroke fill markers"/>
 <g transform="matrix(1.1333 0 0 1.1333 -68.267 -68.267)" opacity=".85">
  <path d="m875.64 416.66c-0.87402-3.456-1.8671-7.1504-2.9-10.805-0.79447-2.7013-1.589-5.4423-2.5026-8.3422-1.2713-4.0916-2.7013-8.3421-4.2108-12.593-5.1245-14.499-11.242-28.641-18.392-42.624-3.019-5.8792-6.3163-11.878-9.7722-17.797-16.128-27.41-36.388-53.39-60.659-77.662-57.68-57.68-124.85-92.677-201.52-104.91-12.91-2.0657-26.059-3.4958-39.764-4.2505-7.7066-0.43698-15.771-0.67533-23.914-0.67533-7.4285 0-14.778 0.19863-22.166 0.59587-94.028 4.8464-175.03 41.274-243 109.24q-109.84 109.84-109.84 265.16c0 103.56 36.626 191.99 109.84 265.2 45.048 45.008 95.776 76.192 151.83 93.392 29.198 8.938 59.428 14.182 91.168 15.85h0.31782c6.7532 0.35747 13.189 0.55609 19.465 0.55609h2.3835c8.1833 0 16.287-0.2383 23.914-0.63555 1.9862-0.11916 3.7738-0.23838 5.5217-0.35754 16.049-1.152 31.7-3.2177 46.637-6.1176 6.3162-1.2315 12.553-2.6218 18.591-4.0917 64.195-16.128 120.88-48.941 170.54-98.596 38.612-38.612 67.055-81.435 85.289-128.55 14.658-37.858 22.762-78.496 24.272-121.95 0.15883-4.8067 0.2383-9.7325 0.2383-14.698v-2.3835c-0.15893-32.296-3.9328-63.162-11.361-92.956z" fill="url(#i)" opacity=".9" stroke-width=".79449"/>
  <path d="m875.64 416.66c-0.874-3.456-1.8671-7.1504-2.9-10.805-0.7944-2.7013-1.5889-5.4423-2.5025-8.3422-1.2713-4.0916-2.7013-8.3421-4.2109-12.593-5.1245-14.499-11.242-28.641-18.392-42.624-3.0191-5.8792-6.3163-11.878-9.7723-17.797-16.128-27.41-36.388-53.39-60.659-77.662-57.68-57.68-124.85-92.677-201.52-104.91-12.91-2.0657-26.059-3.4958-39.764-4.2505-7.7066-0.43698-15.771-0.67533-23.914-0.67533-7.4285 0-14.778 0.19863-22.166 0.59587-94.028 4.8464-175.03 41.274-243 109.24q-109.84 109.84-109.84 265.16c0 103.56 36.626 191.99 109.84 265.2 45.048 45.008 95.776 76.192 151.83 93.392 29.198 8.938 59.428 14.182 91.168 15.85h0.31782c6.7532 0.35747 13.189 0.55609 19.465 0.55609h2.3835c8.1833 0 16.287-0.2383 23.914-0.63555 1.9862-0.11916 3.7738-0.23838 5.5217-0.35754 16.049-1.152 31.7-3.2177 46.637-6.1176 6.3162-1.2315 12.553-2.6218 18.591-4.0917 64.195-16.128 120.88-48.941 170.54-98.596 38.612-38.612 67.055-81.435 85.289-128.55 14.658-37.858 22.762-78.496 24.272-121.95 0.1588-4.8067 0.2383-9.7325 0.2383-14.698v-2.3835c-0.159-32.296-3.9328-63.162-11.361-92.956z" fill="url(#m)" opacity="1" stroke-width=".79449"/>
  <g fill-rule="evenodd">
   <circle transform="matrix(.79622 0 0 .79622 54.859 197.13)" cx="232.53" cy="481.56" r="92.348" fill="#ff6f00" filter="url(#s)" opacity=".39" style="paint-order:stroke markers fill"/>
   <circle cx="232.53" cy="481.56" r="92.348" fill="url(#j)" opacity="1" style="paint-order:stroke markers fill"/>
   <circle cx="270.04" cy="406.55" r="92.348" fill="url(#o)" filter="url(#r)" opacity=".5" style="paint-order:stroke markers fill"/>
  </g>
 </g>
 <circle cx="512" cy="512" r="487.51" color="#000000" enable-background="accumulate" fill="none" stroke="url(#p)" stroke-width="4.975"/>
 <path d="m718.06 457.97c-0.4953-1.9584-1.058-4.0519-1.6433-6.1229-0.4502-1.5307-0.9004-3.084-1.4182-4.7272-0.7203-2.3186-1.5307-4.7272-2.3861-7.1358-2.9039-8.2164-6.3705-16.23-10.422-24.154-1.7108-3.3316-3.5792-6.7307-5.5376-10.085-9.1393-15.532-20.62-30.254-34.374-44.008-32.685-32.685-70.751-52.517-114.2-59.45-7.316-1.1706-14.767-1.9809-22.533-2.4086-4.3671-0.24762-8.9367-0.38269-13.551-0.38269-4.2095 0-8.3739 0.11256-12.561 0.33766-53.283 2.7463-99.182 23.388-137.7 61.904q-62.242 62.242-62.242 150.26c0 58.685 20.755 108.79 62.242 150.28 25.527 25.504 54.273 43.175 86.036 52.922 16.545 5.0649 33.676 8.0363 51.662 8.9817h0.1801c3.8268 0.20257 7.4735 0.31512 11.03 0.31512h1.3506c4.6372 0 9.2294-0.13505 13.551-0.36015 1.1255-0.0675 2.1385-0.13508 3.1289-0.20261 9.0943-0.65281 17.964-1.8234 26.428-3.4666 3.5792-0.69784 7.1133-1.4857 10.535-2.3186 36.377-9.1393 68.5-27.733 96.638-55.871 21.88-21.88 37.998-46.147 48.33-72.844 8.3065-21.453 12.899-44.481 13.754-69.108 0.09-2.7238 0.135-5.5151 0.135-8.3289v-1.3506c-0.09-18.301-2.2286-35.792-6.438-52.675z" fill="url(#l)" stroke-width=".45021"/>
 <path d="m657.46 473.86c-0.34962-1.3824-0.74682-2.8602-1.16-4.322-0.31779-1.0805-0.63557-2.1769-1.0011-3.3369-0.50845-1.6367-1.0805-3.3369-1.6843-5.0371-2.0498-5.7998-4.4968-11.457-7.357-17.05-1.2076-2.3517-2.5265-4.7511-3.9089-7.1186-6.4513-10.964-14.555-21.356-24.264-31.065-23.072-23.072-49.942-37.071-80.609-41.965-5.1642-0.82628-10.424-1.3983-15.906-1.7002-3.0827-0.17479-6.3083-0.27013-9.5657-0.27013-2.9714 0-5.911 0.0795-8.8665 0.23835-37.611 1.9386-70.011 16.51-97.198 43.697q-43.935 43.935-43.935 106.06c0 41.425 14.65 76.796 43.935 106.08 18.019 18.003 38.31 30.477 60.731 37.357 11.679 3.5752 23.771 5.6726 36.467 6.34h0.12713c2.7013 0.14299 5.2754 0.22244 7.786 0.22244h0.95336c3.2733 0 6.5149-0.0953 9.5657-0.25422 0.79446-0.0476 1.5095-0.0953 2.2086-0.14302 6.4195-0.46081 12.68-1.2871 18.655-2.447 2.5265-0.49259 5.0212-1.0487 7.4364-1.6367 25.678-6.4512 48.353-19.576 68.215-39.439 15.445-15.445 26.822-32.574 34.115-51.42 5.8634-15.143 9.1049-31.398 9.7088-48.782 0.0635-1.9227 0.0953-3.893 0.0953-5.8792v-0.95339c-0.0635-12.918-1.5731-25.265-4.5445-37.182z" fill="url(#b)" filter="url(#u)" opacity=".6" stroke-width=".3178"/>
 <g transform="translate(969.96 -29.728)" opacity=".95">
  <path d="m875.64 416.66c-0.87402-3.456-1.8671-7.1504-2.9-10.805-0.79447-2.7013-1.589-5.4423-2.5026-8.3422-1.2713-4.0916-2.7013-8.3421-4.2108-12.593-5.1245-14.499-11.242-28.641-18.392-42.624-3.019-5.8792-6.3163-11.878-9.7722-17.797-16.128-27.41-36.388-53.39-60.659-77.662-57.68-57.68-124.85-92.677-201.52-104.91-12.91-2.0657-26.059-3.4958-39.764-4.2505-7.7066-0.43698-15.771-0.67533-23.914-0.67533-7.4285 0-14.778 0.19863-22.166 0.59587-94.028 4.8464-175.03 41.274-243 109.24q-109.84 109.84-109.84 265.16c0 103.56 36.626 191.99 109.84 265.2 45.048 45.008 95.776 76.192 151.83 93.392 29.198 8.938 59.428 14.182 91.168 15.85h0.31782c6.7532 0.35747 13.189 0.55609 19.465 0.55609h2.3835c8.1833 0 16.287-0.2383 23.914-0.63555 1.9862-0.11916 3.7738-0.23838 5.5217-0.35754 16.049-1.152 31.7-3.2177 46.637-6.1176 6.3162-1.2315 12.553-2.6218 18.591-4.0917 64.195-16.128 120.88-48.941 170.54-98.596 38.612-38.612 67.055-81.435 85.289-128.55 14.658-37.858 22.762-78.496 24.272-121.95 0.15883-4.8067 0.2383-9.7325 0.2383-14.698v-2.3835c-0.15893-32.296-3.9328-63.162-11.361-92.956z" fill="url(#h)" opacity="1" stroke-width=".79449"/>
  <path d="m875.64 404c-0.874-3.456-1.8671-7.1504-2.9-10.805-0.7944-2.7013-1.5889-5.4423-2.5025-8.3422-1.2713-4.0916-2.7013-8.3421-4.2109-12.593-5.1245-14.499-11.242-28.641-18.392-42.624-3.0191-5.8792-6.3163-11.878-9.7723-17.797-16.128-27.41-36.388-53.39-60.659-77.662-57.68-57.68-124.85-92.677-201.52-104.91-12.91-2.0657-26.059-3.4958-39.764-4.2505-7.7066-0.43698-15.771-0.67533-23.914-0.67533-7.4285 0-14.778 0.19863-22.166 0.59587-94.028 4.8464-175.03 41.274-243 109.24q-109.84 109.84-109.84 265.16c0 103.56 36.626 191.99 109.84 265.2 45.048 45.008 95.776 76.192 151.83 93.392 29.198 8.938 59.428 14.182 91.168 15.85h0.31782c6.7532 0.35747 13.189 0.55609 19.465 0.55609h2.3835c8.1833 0 16.287-0.2383 23.914-0.63555 1.9862-0.11916 3.7738-0.23838 5.5217-0.35754 16.049-1.152 31.7-3.2177 46.637-6.1176 6.3162-1.2315 12.553-2.6218 18.591-4.0917 64.195-16.128 120.88-48.941 170.54-98.596 38.612-38.612 67.055-81.435 85.289-128.55 14.658-37.858 22.762-78.496 24.272-121.95 0.1588-4.8067 0.2383-9.7325 0.2383-14.698v-2.3835c-0.159-32.296-3.9328-63.162-11.361-92.956z" fill="url(#g)" opacity="1" stroke-width=".79449"/>
  <circle cx="224.09" cy="453.43" r="81.243" fill="url(#f)" fill-rule="evenodd" opacity="1" style="paint-order:stroke markers fill"/>
 </g>
 <path d="m657.46 473.86c-0.34962-1.3824-0.74682-2.8602-1.16-4.322-0.31779-1.0805-0.63557-2.1769-1.0011-3.3369-0.50845-1.6367-1.0805-3.3369-1.6843-5.0371-2.0498-5.7998-4.4968-11.457-7.357-17.05-1.2076-2.3517-2.5265-4.7511-3.9089-7.1186-6.4513-10.964-14.555-21.356-24.264-31.065-23.072-23.072-49.942-37.071-80.609-41.965-5.1642-0.82628-10.424-1.3983-15.906-1.7002-3.0827-0.17479-6.3083-0.27013-9.5657-0.27013-2.9714 0-5.911 0.0795-8.8665 0.23835-37.611 1.9386-70.011 16.51-97.198 43.697q-43.935 43.935-43.935 106.06c0 41.425 14.65 76.796 43.935 106.08 18.019 18.003 38.31 30.477 60.731 37.357 11.679 3.5752 23.771 5.6726 36.467 6.34h0.12713c2.7013 0.14299 5.2754 0.22244 7.786 0.22244h0.95336c3.2733 0 6.5149-0.0953 9.5657-0.25422 0.79446-0.0476 1.5095-0.0953 2.2086-0.14302 6.4195-0.46081 12.68-1.2871 18.655-2.447 2.5265-0.49259 5.0212-1.0487 7.4364-1.6367 25.678-6.4512 48.353-19.576 68.215-39.439 15.445-15.445 26.822-32.574 34.115-51.42 5.8634-15.143 9.1049-31.398 9.7088-48.782 0.0635-1.9227 0.0953-3.893 0.0953-5.8792v-0.95339c-0.0635-12.918-1.5731-25.265-4.5445-37.182z" fill="url(#b)" opacity=".95" stroke-width=".3178"/>
 <rect x="760" y="424" width="160" height="160" rx="583.56" fill="#fff" fill-rule="evenodd" filter="url(#t)" opacity=".6" style="paint-order:stroke fill markers"/>
</svg>
