<svg enable-background="new 0 0 1024 1024" image-rendering="optimizeSpeed" style="background-color:#ffffff" version="1.1" viewBox="0 0 1024 1024" xmlns="http://www.w3.org/2000/svg" xmlns:osb="http://www.openswatchbook.org/uri/2009/osb" xmlns:xlink="http://www.w3.org/1999/xlink">
 <defs>
  <linearGradient id="a" x1="7" x2="7" y1="7.333" y2="48.752" gradientTransform="matrix(12.879 0 0 12.879 244.63 222.96)" gradientUnits="userSpaceOnUse" spreadMethod="reflect">
   <stop stop-color="#196cff" offset="0"/>
   <stop stop-color="#c821ff" offset="1"/>
  </linearGradient>
  <radialGradient id="b" cx="100" cy="82.381" r="100" gradientTransform="matrix(4.705 0 0 3.5336 -1487.9 208.02)" gradientUnits="userSpaceOnUse">
   <stop stop-color="#fff" offset="0"/>
   <stop stop-color="#fff" stop-opacity="0" offset="1"/>
  </radialGradient>
  <linearGradient id="c" x1="520" x2="520" y1="264" y2="764" gradientTransform="translate(-1.9328e-5 -20)" gradientUnits="userSpaceOnUse" xlink:href="#a"/>
  <linearGradient id="e" x1="520" x2="520" y1="24" y2="1004" gradientTransform="translate(-1e-5)" gradientUnits="userSpaceOnUse">
   <stop stop-color="#f6f7f7" offset="0"/>
   <stop stop-color="#dce7f0" offset="1"/>
  </linearGradient>
  <filter id="g" x="-.036" y="-.036" width="1.072" height="1.072" color-interpolation-filters="sRGB">
   <feGaussianBlur stdDeviation="13.928347"/>
  </filter>
  <linearGradient id="d" x1="520" x2="520" y1="264" y2="764" gradientTransform="translate(-4.7231e-5 -20)" gradientUnits="userSpaceOnUse" xlink:href="#a"/>
  <filter id="f" color-interpolation-filters="sRGB">
   <feFlood flood-color="rgb(0,0,0)" flood-opacity=".29412" result="flood"/>
   <feComposite in="flood" in2="SourceGraphic" operator="out" result="composite1"/>
   <feGaussianBlur in="composite1" result="blur" stdDeviation="3"/>
   <feOffset dx="0" dy="3" result="offset"/>
   <feComposite in="offset" in2="SourceGraphic" operator="in" result="composite2"/>
  </filter>
 </defs>
 <circle cx="-1017.4" cy="602.1" r="470.5" color="#000000" enable-background="accumulate" fill="url(#b)" opacity=".2"/>
 <circle cx="512" cy="512" r="490" fill="url(#e)" fill-rule="evenodd" style="paint-order:stroke markers fill"/>
 <circle cx="512" cy="512" r="464.28" fill="none" filter="url(#g)" opacity=".15" stroke="#2faff1" stroke-linecap="round" stroke-linejoin="round" stroke-width="21.444" style="paint-order:stroke markers fill"/>
 <path d="m669.5 720.95c-49.871 37.403-92.146-79.19-154.48-78.244-62.332 0.94642-101.05 118.77-152.03 82.898-50.984-35.872 46.84-112.11 26.678-171.1s-144.18-59.4-125.82-118.97c18.361-59.573 121.09 9.9039 170.97-27.499 49.871-37.403 11.938-155.48 74.27-156.43s28.001 118.23 78.985 154.1 151.56-36.692 171.72 22.296c20.162 58.988-103.79 63.165-122.15 122.74-18.361 59.573 81.731 132.8 31.86 170.21z" fill="url(#c)" fill-rule="evenodd" style="paint-order:stroke fill markers"/>
 <path d="m669.5 720.95c-49.871 37.403-92.146-79.19-154.48-78.244-62.332 0.94642-101.05 118.77-152.03 82.898-50.984-35.872 46.84-112.11 26.678-171.1s-144.18-59.4-125.82-118.97c18.361-59.573 121.09 9.9039 170.97-27.499 49.871-37.403 11.938-155.48 74.27-156.43s28.001 118.23 78.985 154.1 151.56-36.692 171.72 22.296c20.162 58.988-103.79 63.165-122.15 122.74-18.361 59.573 81.731 132.8 31.86 170.21z" fill="url(#d)" fill-rule="evenodd" filter="url(#f)" style="paint-order:stroke fill markers"/>
</svg>
