<svg viewBox="0 0 48 48" xmlns="http://www.w3.org/2000/svg">
 <linearGradient id="a" x1="23.436" x2="23.941" y1="45.98" y2="2.0381" gradientUnits="userSpaceOnUse">
  <stop stop-color="#f60" offset="0"/>
  <stop stop-color="#ff7f2a" offset="1"/>
 </linearGradient>
 <path d="m3.3045 21.401 16.799-16.821c2.5099-2.5099 5.284-2.5099 7.0012-0.77058l17.591 17.591c1.7393 1.7173 1.7393 4.4914 0 6.2087l-17.591 17.591c-1.7173 1.7393-4.4914 1.7393-6.2087 0l-17.591-17.591c-1.7393-1.7173-1.7393-4.4914 0-6.2087z" fill="none" stroke="#000" stroke-opacity=".35294"/>
 <g transform="matrix(1.0005 0 0 1.0021 -.010862 -.086193)">
  <path d="m3.3045 20.896 16.799-16.821c2.5099-2.5099 5.284-2.5099 7.0012-0.77058l17.591 17.591c1.7393 1.7173 1.7393 4.4914 0 6.2087l-17.591 17.591c-1.7173 1.7393-4.4914 1.7393-6.2087 0l-17.591-17.591c-1.7393-1.7173-1.7393-4.4914 0-6.2087z" fill="url(#a)"/>
  <path d="m17.619 6.5625-2e-3 0.00195 23.809 23.809 0.01172-0.0098 1.5391-1.543-18.049-18.049c1.0897 1.0897 1.5503 2.7037 1.1289 4.2109l-5.3496-5.3496zm6.0273 12.205v10.756l5.1523 5.1523-3.4512-3.4355c0.78731 0.78376 1.2725 1.8747 1.2773 3.0742l-0.5293-0.5293c0 2.4319-1.9724 4.4043-4.4043 4.4043l5.959 5.959 4.4043-4.4043-3.6172-3.6172 3.625 3.6094 9.3613-9.3613-5.791-5.791c1e-6 1.6921-1.3724 3.0625-3.0645 3.0625l-8.5332-8.5312 4.1738 4.2148zm-4.1836 18.945 7.2812 7.2812c0.12055-0.09874 0.24725-0.18526 0.35938-0.29883l0.54297-0.54297-5.2051-5.2051c-1.1633 0-2.2162-0.47204-2.9785-1.2344z" fill-opacity=".078431"/>
  <g fill="#fff">
   <path d="m14.774 10.03 3.7208 3.7428c-0.5284 1.8714 0.33025 3.9189 2.0475 4.9097v12.197c-1.321 0.74856-2.2017 2.1796-2.2017 3.8089 0 2.4319 1.9714 4.4033 4.4033 4.4033s4.4033-1.9714 4.4033-4.4033c0-1.6292-0.88066-3.0603-2.2017-3.8089v-10.7l4.5574 4.6015c-0.15412 0.33025-0.15412 0.70453-0.15412 1.1008 0 2.4319 1.9714 4.4033 4.4033 4.4033s4.4033-1.9714 4.4033-4.4033-1.9714-4.4033-4.4033-4.4033c-0.3963 0-0.77058 0-1.1008 0.15412l-5.6582-5.6582c0.57243-2.0475-0.48436-4.2932-2.5319-5.1519-0.94671-0.35226-1.9375-0.44033-2.8181-0.19815l-3.7428-3.7208"/>
   <path d="m23.822 1.0996c-1.5048 0.11862-3.0406 0.88238-4.4258 2.2676v0.00195l-16.799 16.82c-2.1172 2.0961-2.1168 5.5331 0.00391 7.627l17.588 17.586c2.0943 2.1155 5.5268 2.1155 7.6211 0l17.588-17.586 0.0039-0.0059c2.1155-2.0943 2.1155-5.5268 0-7.6211l-0.0039-0.0059-17.582-17.582-0.0059-0.00391c-1.0473-1.0578-2.4859-1.6164-3.9882-1.498zm0.1582 1.9941c0.93903-0.074023 1.7426 0.23598 2.4121 0.91406l2e-3 0.00195 17.598 17.598c1.3562 1.339 1.3562 3.4462 0 4.7852l-17.6 17.6c-1.339 1.3562-3.4462 1.3562-4.7852 0l-17.598-17.598-0.00195-2e-3c-1.3562-1.339-1.3562-3.4462 0-4.7852l0.00195-2e-3 0.00195-0.0039 16.799-16.82c1.1247-1.1247 2.2309-1.6135 3.1699-1.6875z"/>
  </g>
 </g>
</svg>
