<svg clip-rule="evenodd" fill-rule="evenodd" stroke-linejoin="round" stroke-miterlimit="2" viewBox="0 0 48 48" xmlns="http://www.w3.org/2000/svg">
 <linearGradient id="a" x2="1" gradientTransform="matrix(7.8792 7.2561 -7.2561 7.8792 36.218 37.315)" gradientUnits="userSpaceOnUse">
  <stop stop-color="#59f" offset="0"/>
  <stop stop-color="#59f" offset="1"/>
 </linearGradient>
 <linearGradient id="b" x2="1" gradientTransform="matrix(-1.1935 38.754 -38.754 -1.1935 23.444 4.5186)" gradientUnits="userSpaceOnUse">
  <stop stop-color="#59f" offset="0"/>
  <stop stop-color="#06f" offset="1"/>
 </linearGradient>
 <linearGradient id="c" x2="1" gradientTransform="matrix(1.4833 -14.839 14.839 1.4833 35.807 40.197)" gradientUnits="userSpaceOnUse">
  <stop stop-color="#80b3ff" stop-opacity=".9" offset="0"/>
  <stop stop-color="#acf" stop-opacity=".9" offset="1"/>
 </linearGradient>
 <path d="m45.668 8.56c0-3.438-2.79-6.228-6.228-6.228h-30.88c-3.438 0-6.228 2.79-6.228 6.228v30.88c0 3.438 2.79 6.228 6.228 6.228h30.88c3.438 0 6.228-2.79 6.228-6.228z" fill="url(#a)"/>
 <path d="m8.56 2.332c-3.21 0-6.226 2.67-6.226 6.062l-.002 31.107c0 3.245 2.749 6.167 6.228 6.167h13.837c15.218-1.1 23.192-9.312 23.271-24.279.007-.153-.011-13.21-.011-13.21 0-2.208-2.184-5.833-5.794-5.833z" fill="url(#b)" fill-rule="nonzero"/>
 <path d="m22.397 45.668c7.082-1.764 10.262-5.85 13.017-11.249 7.314-2.123 9.187-7.652 10.256-13.683.157 15.401-7.831 23.816-23.273 24.932z" fill="url(#c)"/>
 <path d="m36.862 15.952-.991-1.211c-.408-.498-1.148-.572-1.651-.164l-12.692 10.394-5.443-6.649c-.408-.498-1.149-.572-1.651-.164l-1.211.991c-.498.408-.572 1.148-.164 1.651l7.173 8.762c.206.252.489.397.788.427.298.03.608-.057.856-.263l14.81-12.125c.511-.414.584-1.151.176-1.649z" fill="#d7eef4" fill-opacity=".7" fill-rule="nonzero"/>
</svg>
