<svg clip-rule="evenodd" fill-rule="evenodd" stroke-linejoin="round" stroke-miterlimit="2" viewBox="0 0 48 48" xmlns="http://www.w3.org/2000/svg">
 <linearGradient id="a" x2="1" gradientTransform="matrix(0 -43.336 43.336 0 24 45.668)" gradientUnits="userSpaceOnUse">
  <stop stop-color="#d48500" offset="0"/>
  <stop stop-color="#ffc543" offset="1"/>
 </linearGradient>
 <path d="m45.668 8.56c0-3.438-2.79-6.228-6.228-6.228h-30.88c-3.438 0-6.228 2.79-6.228 6.228v30.88c0 3.438 2.79 6.228 6.228 6.228h30.88c3.438 0 6.228-2.79 6.228-6.228z" fill="url(#a)"/>
 <circle cx="12.947" cy="29.527" r="6.6319" fill="#b83b00" stroke-width="1.1053"/>
 <path d="m5.2098 9.631h37.581v7.7372h-37.581z" fill="#383838" stroke-width="1.1053"/>
 <path transform="matrix(0 1.1053 -1.1053 0 -2.5274 -2.5274)" d="m12.75-20h5.25v4h-5.25z" fill="#b83b00"/>
 <path transform="matrix(1.1053 0 0 1.1053 -2.5274 -2.5274)" d="m27 21c-1.097 0-2 .903-2 2s.903 2 2 2 2-.903 2-2-.903-2-2-2zm6 0c-1.097 0-2 .903-2 2s.903 2 2 2 2-.903 2-2-.903-2-2-2zm6 0c-1.097 0-2 .903-2 2s.903 2 2 2 2-.903 2-2-.903-2-2-2zm-12 6c-1.097 0-2 .903-2 2s.903 2 2 2 2-.903 2-2-.903-2-2-2zm6 0c-1.097 0-2 .903-2 2s.903 2 2 2 2-.903 2-2-.903-2-2-2zm6 0c-1.097 0-2 .903-2 2s.903 2 2 2 2-.903 2-2-.903-2-2-2zm-12 6c-1.097 0-2 .903-2 2s.903 2 2 2 2-.903 2-2-.903-2-2-2zm6 0c-1.097 0-2 .903-2 2s.903 2 2 2 2-.903 2-2-.903-2-2-2zm6 0c-1.097 0-2 .903-2 2s.903 2 2 2 2-.903 2-2-.903-2-2-2z" fill="#383838" fill-rule="nonzero"/>
</svg>
