<svg viewBox="0 0 48 48" xmlns="http://www.w3.org/2000/svg" xmlns:xlink="http://www.w3.org/1999/xlink">
 <linearGradient id="a" x1="399.57" x2="399.57" y1="545.8" y2="517.8" gradientUnits="userSpaceOnUse">
  <stop stop-color="#06f" offset="0"/>
  <stop stop-color="#59f" offset="1"/>
 </linearGradient>
 <linearGradient id="b" x1="399.99" x2="399.99" y1="545.14" y2="518.14" gradientUnits="userSpaceOnUse">
  <stop stop-color="#0bac83" offset="0"/>
  <stop stop-color="#10da96" offset="1"/>
 </linearGradient>
 <linearGradient id="c" x1="23.314" x2="23.577" y1="42.149" y2="11.55" gradientUnits="userSpaceOnUse" xlink:href="#a"/>
 <linearGradient id="d" x1="28.321" x2="28.905" y1="42.671" y2="18.32" gradientUnits="userSpaceOnUse" xlink:href="#a"/>
 <linearGradient id="e" x1="28.321" x2="28.905" y1="40" y2="15.65" gradientTransform="matrix(-1 0 0 1 48 2.6704)" gradientUnits="userSpaceOnUse">
  <stop stop-color="#2a7fff" offset="0"/>
  <stop stop-color="#5df" offset="1"/>
 </linearGradient>
 <linearGradient id="f" x1="23.533" x2="23.358" y1="29.898" y2="2.2774" gradientTransform="matrix(1.0697 0 0 1.2712 -1.8288 2.0838)" gradientUnits="userSpaceOnUse">
  <stop stop-color="#f2f2f2" offset="0"/>
  <stop stop-color="#f9f9f9" offset="1"/>
 </linearGradient>
 <path d="m4.7305 5.9334v6.4512h-1.1035c-0.90092 0-1.627 0.72603-1.627 1.627v27.533c0 0.11262 0.011611 0.22207 0.033203 0.32812 0.043109 0.21275 0.12704 0.40869 0.24414 0.58203 0.058615 0.0869 0.12531 0.16646 0.19922 0.24023 0.073198 0.07306 0.15221 0.14117 0.23828 0.19922 0.086891 0.05862 0.1795 0.10726 0.27734 0.14844 0.097344 0.04104 0.19863 0.07411 0.30469 0.0957 0.10665 0.0218 0.21681 0.03125 0.33008 0.03125h40.746c0.45046 0 0.85627-0.18097 1.1504-0.47461 0.07391-0.07377 0.1406-0.15333 0.19922-0.24023 0.175-0.25946 0.27734-0.57231 0.27734-0.91015v-27.533c0-0.90092-0.72603-1.627-1.627-1.627h-1.1035v-6.4512z" fill-opacity=".66667" stroke-width=".42848"/>
 <path d="m3.6262 11.281h40.748c0.90092 0 1.6262 0.72529 1.6262 1.6262v27.534c0 0.90092-0.72529 1.6262-1.6262 1.6262h-40.748c-0.90092 0-1.6262-0.72529-1.6262-1.6262v-27.534c0-0.90092 0.72529-1.6262 1.6262-1.6262z" fill="url(#c)" stroke-width=".42848"/>
 <path d="m4.7299 4.8303h38.54v35.036h-38.54z" fill="url(#f)"/>
 <g transform="matrix(.43478 0 0 .43478 26.793 7.6994)">
  <path transform="matrix(1.6429 0 0 1.6429 -664.51 -843.89)" d="m414.57 531.8a14 14 0 0 1-14 14 14 14 0 0 1-14-14 14 14 0 0 1 14-14 14 14 0 0 1 14 14z" fill="url(#b)" stroke-width="1.3"/>
  <path d="m6.8709 23.546-2.4567-2.4567c-0.33702-0.33724-0.74677-0.50575-1.2284-0.50575-0.48181 0-0.89155 0.16851-1.2286 0.50575l-11.85 11.868-5.311-5.3291c-0.33724-0.33724-0.74677-0.50575-1.2284-0.50575-0.48181 0-0.89133 0.16851-1.2286 0.50575l-2.4567 2.4567c-0.33724 0.33724-0.50575 0.74677-0.50575 1.2286 0 0.48158 0.16851 0.89133 0.50575 1.2284l6.5393 6.5393 2.4569 2.4567c0.33702 0.33724 0.74655 0.50575 1.2284 0.50575 0.48158 0 0.89111-0.16873 1.2284-0.50575l2.4569-2.4567 13.079-13.079c0.33702-0.33724 0.50575-0.74677 0.50575-1.2286 2.22e-4 -0.48158-0.16873-0.89111-0.50575-1.2284z" fill="#fff" fill-opacity=".85081" stroke-width=".22172"/>
 </g>
 <g fill-rule="evenodd" stroke-width=".57295">
  <path d="m46 14.184-41.469 27.883h39.842c0.90092 0 1.627-0.72408 1.627-1.625z" fill="url(#d)"/>
  <path d="m2 14.184 41.469 27.883h-39.842c-0.90093 0-1.627-0.72408-1.627-1.625z" fill="url(#e)"/>
 </g>
</svg>
