<svg viewBox="0 0 48 48" xmlns="http://www.w3.org/2000/svg">
 <circle cx="24" cy="25" r="20" opacity=".2"/>
 <circle cx="24" cy="24" r="20" fill="#d2d2d2"/>
 <path d="m24.297 11c-5.4898 0-10.378 3.1598-12.756 7.7598l3.3379 2.2598-3.3477-2.2598c-0.96939 1.88-1.5312 4.0002-1.5312 6.2402 0 2.32 0.59244 4.4999 1.623 6.4199l4.9395-3.4766a8 8 0 0 1-0.5625-2.9434 8 8 0 0 1 0.53711-2.8594 8 8 0 0 1 7.4629-5.1406 8 8 0 0 1 5.5 2.2031l4.1836-4.4531c-2.4286-2.32-5.7132-3.75-9.3867-3.75zm-0.29688 11v6h7.4082c-0.58983 1.4562-1.5974 2.7036-2.8926 3.5918a8 8 0 0 1-4.5156 1.4082 8 8 0 0 1-7.4336-5.0508l-4.9336 3.4707c2.4082 4.5 7.2457 7.5801 12.664 7.5801 3.5918 0 6.8043-1.3501 9.2227-3.5801 2.7653-2.56 4.4805-6.2899 4.4805-10.42 0-0.67198-0.05963-1.3234-0.14844-1.9668l0.01172-0.08008-0.16406-0.95312h-2.3457z" opacity=".1"/>
 <path d="m24 4a20 20 0 0 0 -20 20 20 20 0 0 0 .0215.582 20 20 0 0 1 19.9785-19.582 20 20 0 0 1 19.979 19.418 20 20 0 0 0 .021-.418 20 20 0 0 0 -20-20z" fill="#fff" opacity=".2"/>
 <path d="m24 21v6h7.4082c-0.59578 1.4709-1.6156 2.7314-2.9297 3.6211l5.041 3.7988c2.7653-2.56 4.4805-6.2899 4.4805-10.42 0-0.67198-0.05963-1.3234-0.14844-1.9668l0.01172-0.08008-0.16406-0.95312h-2.3457z" fill="#3779d7"/>
 <path d="m24.297 10c-5.4898 0-10.378 3.1598-12.756 7.7598l4.9961 3.3809a8 8 0 0 1 7.4629-5.1406 8 8 0 0 1 5.5 2.2031l4.1836-4.4531c-2.4286-2.32-5.7132-3.75-9.3867-3.75z" fill="#e7453c"/>
 <path d="m11.531 17.76c-0.96939 1.88-1.5312 4.0002-1.5312 6.2402 0 2.32 0.59244 4.4999 1.623 6.4199l4.9395-3.4766a8 8 0 0 1-0.5625-2.9434 8 8 0 0 1 0.53711-2.8594l-1.6582-1.1211z" fill="#eead33"/>
 <path d="m16.566 26.949-4.9336 3.4707c2.4082 4.5 7.2457 7.5801 12.664 7.5801 3.5918 0 6.8043-1.3501 9.2227-3.5801l-4.9883-3.8379a8 8 0 0 1-4.5312 1.418 8 8 0 0 1-7.4336-5.0508z" fill="#359950"/>
</svg>
