<svg viewBox="0 0 48 48" xmlns="http://www.w3.org/2000/svg" xmlns:xlink="http://www.w3.org/1999/xlink">
 <linearGradient id="a" x2="0" y1="1">
  <stop stop-color="#ececec" offset="0"/>
  <stop stop-color="#fff" offset="1"/>
 </linearGradient>
 <linearGradient id="b">
  <stop stop-color="#d9d9d9" offset="0"/>
  <stop stop-color="#eee" offset="1"/>
 </linearGradient>
 <linearGradient id="c" xlink:href="#a"/>
 <linearGradient id="d" x1="1" x2="0" xlink:href="#a"/>
 <linearGradient id="e" x1="1" x2="0" xlink:href="#b"/>
 <linearGradient id="f" xlink:href="#b"/>
 <linearGradient id="g" x2="0" y1="1">
  <stop stop-color="#e6e6e6" offset="0"/>
  <stop stop-color="#fff" offset="1"/>
 </linearGradient>
 <linearGradient id="h" x2="0" y1="1">
  <stop stop-color="#00a0ff" offset="0"/>
  <stop stop-color="#00e3ff" offset="1"/>
 </linearGradient>
 <linearGradient id="i" x2="0" y1="1">
  <stop stop-color="#32a071" offset="0"/>
  <stop stop-color="#00f076" offset="1"/>
 </linearGradient>
 <linearGradient id="j" x2="0" y1="1">
  <stop stop-color="#c31162" offset="0"/>
  <stop stop-color="#ff3a44" offset="1"/>
 </linearGradient>
 <linearGradient id="k" x2="0" y1="1">
  <stop stop-color="#ff9c00" offset="0"/>
  <stop stop-color="#ffe000" offset="1"/>
 </linearGradient>
 <clipPath id="l">
  <path d="m2 9h44v37h-44z"/>
 </clipPath>
 <path d="m4 3h40v10h-40z" fill="url(#b)"/>
 <path d="m4 3v27l3.5-24.5z" fill="url(#f)"/>
 <path d="m44 3v5l-3.5-2.5z" fill="url(#e)"/>
 <path d="m7.5 5.5 7.7 5.5h-11.2z" opacity=".08"/>
 <rect x="2" y="6" width="44" height="40" rx="3" clip-path="url(#l)" fill="url(#a)"/>
 <path d="m46 9h-5.5v-3.5z" fill="url(#d)"/>
 <path d="m7.5 5.5-5.5 3.5h5.5z" fill="url(#c)"/>
 <circle cx="14" cy="14" r="2" opacity=".3"/>
 <circle cx="34" cy="14" r="2" opacity=".3"/>
 <path d="m34 13a10 10 0 1 0-20 0" fill="none" stroke="url(#g)" stroke-linecap="round" stroke-width="2.4"/>
 <path d="m17.431 19.889c-0.20063 0.20759-0.31674 0.53076-0.31674 0.9493v14.929c0 0.41853 0.11612 0.74171 0.31674 0.94928l0.04953 0.04562 8.464-8.3622v-0.19745l-8.464-8.3622-0.04953 0.04895z" fill="url(#h)"/>
 <path d="m28.829 25.45-9.9777-5.6038c-0.58737-0.32573-1.1039-0.28606-1.4206 0.04303l8.5136 8.412z" fill="url(#i)"/>
 <path d="m28.829 31.152-2.8848-2.8512-8.5136 8.4153c0.31674 0.3291 0.83326 0.36876 1.4206 0.03961l9.9777-5.6037" fill="url(#j)"/>
 <path d="m28.763 31.189-2.8182-2.7888v-0.19745l2.8216-2.7888 0.06321 0.03628 3.3416 1.8792c0.95364 0.53329 0.95364 1.4108 0 1.9475l-3.3416 1.8758-0.06655 0.03628z" fill="url(#k)"/>
</svg>
