<svg viewBox="0 0 48 48" xmlns="http://www.w3.org/2000/svg">
 <linearGradient id="a" x1="307.01" x2="308.65" y1="499.5" y2="536.53" gradientTransform="matrix(1.0373 0 0 -.89716 -11.383 982.75)" gradientUnits="userSpaceOnUse">
  <stop stop-color="#1360c1" offset="0"/>
  <stop stop-color="#2190ec" offset="1"/>
 </linearGradient>
 <linearGradient id="b" x1="331.2" x2="330.68" y1="531.93" y2="493.75" gradientTransform="matrix(1.1865 0 0 -.90378 -63.241 991.28)" gradientUnits="userSpaceOnUse">
  <stop stop-color="#dcebe8" offset="0"/>
  <stop stop-color="#f6f8f7" offset="1"/>
 </linearGradient>
 <linearGradient id="c" x1="430.38" x2="429.17" y1="505.94" y2="473.26" gradientUnits="userSpaceOnUse">
  <stop stop-color="#1f52b9" offset="0"/>
  <stop stop-color="#147bdc" offset="1"/>
 </linearGradient>
 <linearGradient id="d" x1="322.79" x2="330.07" y1="539.17" y2="536.54" gradientUnits="userSpaceOnUse">
  <stop stop-color="#1e48aa" offset="0"/>
  <stop stop-color="#1e2a8d" offset="1"/>
 </linearGradient>
 <linearGradient id="e" x1="312.83" x2="311.96" y1="525.35" y2="509.68" gradientUnits="userSpaceOnUse">
  <stop stop-color="#cdd6da" offset="0"/>
  <stop stop-color="#f6f7f8" offset="1"/>
 </linearGradient>
 <g transform="matrix(1.1438 0 0 1.1438 -343.36 -573.7)">
  <path d="m323.39 543.76-11.57-34.076h25.14c4.7066-0.19158 5.2431 3.1139 5.2431 3.1139v27.243s0.82431 3.719-4.1598 3.719z" fill="url(#b)" fill-rule="evenodd"/>
  <path transform="matrix(.44872 0 0 .44872 139.28 306.68)" d="m417.38939 482.29673h18.91658c-.53309 3.41585-2.34421 7.0544-5.38855 10.82415-1.9404-3.10834-3.18834-6.12292-3.89999-8.13019-.17983-.50654-.65853-.84508-1.19546-.84508h-3.11282c-.40446 0-.78492.19295-1.02395.51934-.23871.3267-.30751.74716-.18527 1.13338.73756 2.32246 2.43636 6.88193 5.57702 11.515-3.70991 3.60655-7.40542 6.20579-8.83512 7.16351-.56893.38142-.73244 1.14587-.36894 1.72664l1.56217 2.49845c.18079.28894.47134.49342.80476.56669.0896.0202.18048.0298.27071.0298.24607 0 .48862-.0717.69693-.20831 1.47225-.96764 5.29192-3.60944 9.29174-7.44126 1.47993 1.54233 4.95945 4.24556 7.02111 5.74502.31455.22878.71741.30014 1.09276.19423.37502-.10687.67964-.38015.82748-.73981l1.16538-2.84883c.23423-.57245.0208-1.23194-.50525-1.55737-1.3433-.83324-3.87215-2.54452-5.93637-4.76842 4.53195-5.30376 7.11647-10.4744 7.68541-15.37498h.99867c.70045 0 1.26842-.56797 1.26842-1.26874v-3.38129c0-.70045-.56765-1.26842-1.26842-1.26842h-9.87859v-1.73624c0-.70076-.56765-1.26874-1.26842-1.26874h-3.16466c-.70044 0-1.26842.56766-1.26842 1.26874v1.73624h-9.87859c-.70044 0-1.26842.56766-1.26842 1.26843v3.38128c-.00032.69885.56766 1.26682 1.2681 1.26682z" fill="url(#c)"/>
  <path d="m320.15 535.51 3.1146 8.32 7.4617-8.32z" fill="url(#d)" fill-rule="evenodd"/>
  <path d="m319.38 501.93 11.353 33.826h-26.272c-4.115 0.19017-4.1691-3.0911-4.1691-3.0911v-27.044s0.10934-3.6917 4.4669-3.6917z" fill="url(#a)" fill-rule="evenodd"/>
  <path d="m314.96881 511.4846c-.0849-.27313-.33712-.45923-.62308-.45923h-3.62402c-.28678 0-.53984.18742-.62374.46152l-4.33019 14.1581c-.0607.19777-.0238.41266.0993.57933.12311.166.31755.2639.52454.2639h2.24817c.29272 0 .54987-.19545.62837-.4773l.97074-3.49288h4.42974l1.0512 3.50572c.0826.27608.3368.4648.62472.4648h2.38953c.20765 0 .40212-.0985.52487-.2649.12311-.16705.15942-.3822.0978-.58014zm-4.22802 8.42179 1.63168-6.26328h.0444l1.7447 6.26328h-3.42081z" fill="url(#e)"/>
 </g>
</svg>
