<svg clip-rule="evenodd" fill-rule="evenodd" stroke-linejoin="round" stroke-miterlimit="2" viewBox="0 0 48 48" xmlns="http://www.w3.org/2000/svg">
 <linearGradient id="a" x2="1" gradientTransform="matrix(0 -408.74 227.52 0 6238.7 550.41)" gradientUnits="userSpaceOnUse">
  <stop stop-color="#006783" offset="0"/>
  <stop stop-color="#13bee3" offset="1"/>
 </linearGradient>
 <linearGradient id="b" x2="1" gradientTransform="matrix(-.051729 -12.113 12.113 -.051729 8.1667 1050.5)" gradientUnits="userSpaceOnUse">
  <stop stop-color="#141414" offset="0"/>
  <stop stop-color="#2d2d2f" offset="1"/>
 </linearGradient>
 <path transform="matrix(.076442 0 0 .066493 11.667 1.2041)" d="m18.553 87.912h292.69v525.81h-292.69z" fill="url(#a)"/>
 <path transform="matrix(3.2857 0 0 3.2857 -2.2857 -3407.5)" d="m11.404 1037.36h-6.808c-.31 0-.561.25-.561.56v12.88c0 .31.251.56.561.56h6.808c.31 0 .561-.25.561-.56v-12.88c0-.31-.251-.56-.561-.56zm-.082 11.78h-6.644v-9.55h6.644z" fill="url(#b)" fill-rule="nonzero"/>
 <ellipse transform="matrix(.084704 0 0 .07368 10.334 -3.3814)" cx="161.34" cy="637.98" rx="25.226" ry="29" fill="#0682a1"/>
</svg>
