<svg version="1.1" viewBox="0 0 1024 1024" xmlns="http://www.w3.org/2000/svg" xmlns:xlink="http://www.w3.org/1999/xlink">
 <defs>
  <linearGradient id="c">
   <stop stop-color="#fff" offset="0"/>
   <stop stop-color="#d7d7d7" offset="1"/>
  </linearGradient>
  <linearGradient id="b" x1="540" x2="540" y1="212.36" y2="872.36" gradientTransform="matrix(.99609 0 0 .99609 2.1708 .2325)" gradientUnits="userSpaceOnUse" xlink:href="#c"/>
  <linearGradient id="e" x1="500" x2="500" y1="312.36" y2="752.36" gradientTransform="matrix(1.1856 0 0 1.1856 -83.27 -84.862)" gradientUnits="userSpaceOnUse" xlink:href="#a"/>
  <linearGradient id="d" x1="540" x2="540" y1="212.36" y2="872.36" gradientTransform="matrix(1.2879 0 0 1.2879 -147.17 -157.99)" gradientUnits="userSpaceOnUse" xlink:href="#c"/>
  <linearGradient id="g" x1="520" x2="520" y1="52.362" y2="1052.4" gradientTransform="matrix(1.0455 0 0 1.0455 -22.79 -25.123)" gradientUnits="userSpaceOnUse">
   <stop stop-color="#4df183" offset="0"/>
   <stop stop-color="#31d044" offset="1"/>
  </linearGradient>
  <linearGradient id="a">
   <stop stop-color="#f6f7f7" offset="0"/>
   <stop stop-color="#dce7f0" offset="1"/>
  </linearGradient>
  <linearGradient id="h" x1="540.14" x2="540.14" y1="29.77" y2="1055" gradientTransform="matrix(.99492 0 0 .99492 2.599 2.7429)" gradientUnits="userSpaceOnUse">
   <stop stop-color="#fff" stop-opacity=".58824" offset="0"/>
   <stop stop-color="#fff" stop-opacity="0" offset="1"/>
  </linearGradient>
  <filter id="j" color-interpolation-filters="sRGB">
   <feFlood flood-color="rgb(0,0,0)" flood-opacity=".29412" result="flood"/>
   <feComposite in="flood" in2="SourceGraphic" operator="in" result="composite1"/>
   <feGaussianBlur in="composite1" result="blur" stdDeviation="3"/>
   <feOffset dx="0" dy="3" result="offset"/>
   <feComposite in="offset" in2="SourceGraphic" operator="out" result="composite2"/>
  </filter>
  <filter id="i" color-interpolation-filters="sRGB">
   <feFlood flood-color="rgb(0,0,0)" flood-opacity=".29412" result="flood"/>
   <feComposite in="flood" in2="SourceGraphic" operator="in" result="composite1"/>
   <feGaussianBlur in="composite1" result="blur" stdDeviation="3"/>
   <feOffset dx="0" dy="3" result="offset"/>
   <feComposite in="offset" in2="SourceGraphic" operator="out" result="composite2"/>
  </filter>
 </defs>
 <g transform="translate(0 -28.362)">
  <circle cx="512" cy="540.36" r="490" color="#000000" fill="url(#g)"/>
  <circle cx="512" cy="540.36" r="425" fill="url(#d)" opacity=".15" style="paint-order:stroke markers fill"/>
  <circle cx="512" cy="540.36" r="328.71" fill="url(#b)" opacity=".3" style="paint-order:stroke markers fill"/>
  <circle cx="512" cy="540.36" r="328.71" fill="url(#b)" filter="url(#j)" opacity=".3" style="paint-order:stroke markers fill"/>
  <path d="m512.01 284.36c-141.34 0-256.01 114.52-256.01 255.87 0 141.48 114.67 256.13 256.01 256.13 141.42 0 255.99-114.65 255.99-256.13 1e-3 -141.35-114.57-255.87-255.99-255.87zm18.243 398.31c-5.9459 5.2913-12.837 7.9505-20.643 7.9505-8.0765 0-15.122-2.6118-21.135-7.845-6.023-5.2237-9.0404-12.538-9.0404-21.934 0-8.3358 2.9202-15.352 8.7416-21.038s12.962-8.5291 21.434-8.5291c8.3362 0 15.353 2.843 21.048 8.5291 5.6863 5.6861 8.5389 12.701 8.5389 21.038-0.0107 9.2618-2.989 16.539-8.9444 21.829zm74.141-183.8c-4.5682 8.471-9.9937 15.775-16.287 21.934-6.2744 6.1579-17.559 16.508-33.847 31.06-4.4912 4.1057-8.105 7.7098-10.813 10.813-2.708 3.1133-4.7318 5.9552-6.0526 8.5386-1.3303 2.5822-2.3511 5.1656-3.0743 7.7478-0.72324 2.5727-1.8116 7.1123-3.2866 13.597-2.5052 13.762-10.379 20.642-23.612 20.642-6.8814 0-12.664-2.2455-17.377-6.746-4.6939-4.5005-7.0355-11.179-7.0355-20.045 0-11.111 1.7251-20.739 5.1658-28.882 3.4217-8.1438 7.9994-15.285 13.686-21.442 5.6958-6.1579 13.367-13.463 23.033-21.934 8.4713-7.4111 14.592-13 18.359-16.769 3.7774-3.7773 6.949-7.979 9.5218-12.605 2.593-4.6356 3.8652-9.6566 3.8652-15.082 0-10.591-3.9221-19.515-11.805-26.791-7.8738-7.2759-18.032-10.919-30.474-10.919-14.562 0-25.279 3.6718-32.16 11.015-6.8814 7.3435-12.692 18.156-17.463 32.448-4.5101 14.957-13.049 22.435-25.607 22.435-7.4114 0-13.666-2.6118-18.764-7.8355-5.0887-5.2237-7.6331-10.88-7.6331-16.97 0-12.567 4.0383-25.307 12.105-38.211 8.0765-12.904 19.853-23.592 35.34-32.053 15.477-8.471 33.549-12.712 54.182-12.712 19.188 0 36.121 3.5461 50.809 10.63 14.688 7.0732 26.04 16.701 34.049 28.882 7.9994 12.171 12.008 25.403 12.008 39.696 0.019 11.229-2.2646 21.088-6.8328 29.559z" fill="url(#e)" filter="url(#i)" opacity=".5" stroke-width="1.1856"/>
  <path d="m512.01 284.36c-141.34 0-256.01 114.52-256.01 255.87 0 141.48 114.67 256.13 256.01 256.13 141.42 0 255.99-114.65 255.99-256.13 1e-3 -141.35-114.57-255.87-255.99-255.87zm18.243 398.31c-5.9459 5.2913-12.837 7.9505-20.643 7.9505-8.0765 0-15.122-2.6118-21.135-7.845-6.023-5.2237-9.0404-12.538-9.0404-21.934 0-8.3358 2.9202-15.352 8.7416-21.038s12.962-8.5291 21.434-8.5291c8.3362 0 15.353 2.843 21.048 8.5291 5.6863 5.6861 8.5389 12.701 8.5389 21.038-0.0107 9.2618-2.989 16.539-8.9444 21.829zm74.141-183.8c-4.5682 8.471-9.9937 15.775-16.287 21.934-6.2744 6.1579-17.559 16.508-33.847 31.06-4.4912 4.1057-8.105 7.7098-10.813 10.813-2.708 3.1133-4.7318 5.9552-6.0526 8.5386-1.3303 2.5822-2.3511 5.1656-3.0743 7.7478-0.72324 2.5727-1.8116 7.1123-3.2866 13.597-2.5052 13.762-10.379 20.642-23.612 20.642-6.8814 0-12.664-2.2455-17.377-6.746-4.6939-4.5005-7.0355-11.179-7.0355-20.045 0-11.111 1.7251-20.739 5.1658-28.882 3.4217-8.1438 7.9994-15.285 13.686-21.442 5.6958-6.1579 13.367-13.463 23.033-21.934 8.4713-7.4111 14.592-13 18.359-16.769 3.7774-3.7773 6.949-7.979 9.5218-12.605 2.593-4.6356 3.8652-9.6566 3.8652-15.082 0-10.591-3.9221-19.515-11.805-26.791-7.8738-7.2759-18.032-10.919-30.474-10.919-14.562 0-25.279 3.6718-32.16 11.015-6.8814 7.3435-12.692 18.156-17.463 32.448-4.5101 14.957-13.049 22.435-25.607 22.435-7.4114 0-13.666-2.6118-18.764-7.8355-5.0887-5.2237-7.6331-10.88-7.6331-16.97 0-12.567 4.0383-25.307 12.105-38.211 8.0765-12.904 19.853-23.592 35.34-32.053 15.477-8.471 33.549-12.712 54.182-12.712 19.188 0 36.121 3.5461 50.809 10.63 14.688 7.0732 26.04 16.701 34.049 28.882 7.9994 12.171 12.008 25.403 12.008 39.696 0.019 11.229-2.2646 21.088-6.8328 29.559z" fill="url(#e)" stroke-width="1.1856"/>
  <circle cx="512" cy="540.36" r="487.51" color="#000000" fill="none" stroke="url(#h)" stroke-width="4.975"/>
 </g>
</svg>
