<svg viewBox="0 0 48 48" xmlns="http://www.w3.org/2000/svg">
 <path d="m25.050781 6.0070947c-.273292.2885485-.498755.5603126-.740234.8378906.431637-.514724.740234-.8378906.740234-.8378906zm0 0c-8.413575 6.8530433-6.277728 15.9849203-3.873047 21.1914063-2.218661.461965-4.181373 1.743936-5.496093 3.589844l.02734-.167969.01367-.01953-.0098-.0039v-.002c0-1.108492-.533396-1.758009-1.199219-2.578125.120137 1.873781-.691426 2.899399-.478516 4.6875.03722.312554.164446.570945.314453.818359-.226087.79679-.341105 1.620975-.341797 2.449219-.533114-.713164-.994395-1.476446-.867187-2.316406-.490619 2.671187.355435 5.468558 2.023437 7.730468.0014.0019.0025.004.0039.0059.237927.322244.491221.631581.761719.929687.0031.0034.0067.0064.0098.0098.266251.292746.544843.572289.839844.83789.01678.01516.03391.02986.05078.04492.285766.254339.580737.497135.890625.722657.03369.02462.06955.04606.103516.07031.297935.211917.602401.413311.919922.595703.05194.02996.10772.05291.160156.08203.310149.171533.622959.335797.949219.476563.03838.01664.0786.02873.117187.04492 1.063989.444295 2.20526.718789 3.394531.777343.03891.0019.07623.01026.115235.01172.0026.000098.0052-.000095.0078 0 .07088.0026.141697.0029.212891.0039.319049.0047.642131-.01492.966797-.04297.03148-.0027.06223-.000947.09375-.0039.538581-.05057 1.08169-.134242 1.630859-.279296 4.584044-1.127905 7.519235-4.204925 8.828125-7.833985.000209-.00058-.000209-.0014 0-.002.000212-.000587-.000211-.0014 0-.002.16239-.450649.303829-.908016.416016-1.373047.06301-.261177.114376-.522816.160156-.785156-.000008-.000644.000008-.0013 0-.002.380067-2.179863.186506-4.379628-.289063-6.257813-.434074-1.714359-1.320462-3.522741-2.654296-5.183594-2.12289-2.643369-4.682254-4.180444-6.634766-5.914062-.200763-2.338545-.316341-4.49075-.279297-6.935547.0074-.490045.28971-1.364121.376953-1.8496095-.524716.9971825-1.1597 1.5214895-1.580078 2.5351565-.343345.827916-.672075 2.12981-.919922 3.1875-.0666-.148121-.136691-.29343-.193359-.449219-.762464-3.431042 1.106721-7.955321 1.427759-8.8006673z" opacity=".2"/>
 <path d="m23.936 6.8066c-2.9473 2.9921-4.1973 6.2657-4.3789 9.4355-0.21043 3.6731 0.89491 7.1869 2.0742 9.7402a0.50005 0.50005 0 0 1-0.35156 0.69922c-2.0955 0.43633-3.9477 1.6471-5.1895 3.3906a0.50005 0.50005 0 0 1-0.90234-0.37109l0.021484-0.13086c-0.003299-0.49943-0.13632-0.88049-0.34961-1.2441-0.058753 0.3798-0.058293 0.8399-0.13281 1.1699-0.16036 0.71016-0.29162 1.3337-0.19531 2.1426 0.025226 0.21184 0.11112 0.39457 0.24609 0.61719a0.50005 0.50005 0 0 1 0.052734 0.39648c-0.21353 0.75252-0.32161 1.5303-0.32227 2.3125a0.50005 0.50005 0 0 1-0.90039 0.29883c-0.00929-0.01243-0.016091-0.028506-0.025391-0.041016 0.66463 5.4501 6.3984 10.619 12.684 8.959a0.50005 0.50005 0 0 1 0.007813-0.001953c4.9785-1.225 7.8991-4.7884 8.877-8.8418 0.56278-2.3328 0.38946-4.7652-0.12695-6.8047-0.41486-1.6385-1.2699-3.3871-2.5605-4.9941-2.0593-2.5642-4.5712-4.0733-6.5762-5.8535a0.50005 0.50005 0 0 1-0.16602-0.33008c-0.18807-2.1907-0.27755-4.2526-0.26172-6.5176-0.074812 0.13356-0.19901 0.26481-0.26172 0.41602-0.31555 0.7609-0.6483 2.0586-0.89453 3.1094a0.50005 0.50005 0 0 1-0.94336 0.091797c-0.062949-0.14-0.13923-0.29798-0.20703-0.48438a0.50005 0.50005 0 0 1-0.017578-0.060547c-0.41009-1.8454-0.11133-3.8945 0.31055-5.5996 0.18186-0.73501 0.2998-0.94131 0.49024-1.5039zm-7.8086 22.408c-0.002086 0.002482-0.003776 0.005327-0.005859 0.007812 0.006896 0.038692 0.023939 0.07007 0.027344 0.11133a0.50005 0.50005 0 0 1 0.064453 0.16602v-0.25zm0.023438 0.63672a0.50005 0.50005 0 0 1-0.017579 0.029297l0.019532-0.029297z" fill="#ff7d20"/>
 <path d="m25.05 5s-4.1839 4.3048-3.8298 7.6322c0.28831 2.7094 5.7158 11.486 7.4397 16.984l-5.1938 0.47372c-1.5639-1.8247-10.015-15.642 1.584-25.09z" fill="#ff7d20"/>
 <path d="m14.514 27.01c0.12014 1.8738-0.69082 2.8997-0.4779 4.6878 0.09139 0.76751 0.66694 1.2422 1.019 1.8976l0.2358-1.4386c0.01944-0.11214 0.03654-0.22207 0.05544-0.33685l0.36211-2.2064 0.01544-0.01894-0.01122-0.0042v-0.0014c0-1.1085-0.5328-1.7589-1.1986-2.579z" fill="#d83b2f"/>
 <circle transform="matrix(.99252 -.12208 .12208 .99252 0 0)" cx="18.555" cy="37.546" r="9" fill="#ffb832"/>
 <path d="m26.317 8.5264c-0.52472 0.99718-1.1602 1.5227-1.5805 2.5364-0.56021 1.3508-1.2355 4.5611-1.2355 4.5611l1.3467 2.0501 1.4892 0.98599c-0.27747-2.8952-0.44221-5.3734-0.39812-8.2834 0.0074-0.49005 0.29098-1.3647 0.37822-1.8502z" fill="#ff7d20"/>
 <path d="m25.051 5c-7.3383 7.748-2.965 11.432 0.07422 16.928 0.79808 1.5061 1.7592 3.9686 1.916 5.0352 2.1003 1.0586 3.75 2.9234 4.5059 5.2402 0.01811 0.05197 0.03557 0.10333 0.05273 0.15625 0.0418 0.13663 0.07583 0.27642 0.11133 0.41602 0.04522 0.17205 0.09149 0.34215 0.125 0.52344 0.0015 8e-3 0.0044 0.01544 0.0059 0.02344 0.03599 0.1907 0.06777 0.38279 0.0918 0.57812 0.01059 0.08609 5e-3 0.15601 0.01172 0.23828 0.0019 0.029 0.0023 0.05868 0.0039 0.08789 0.01791 0.27522 0.01522 0.53204-0.0098 0.76563-0.02198 0.45046-0.07028 0.91524-0.18359 1.4102-0.92926 3.4187-3.7327 5.5387-6.4766 6.1562-3.867 0.66282-7.1272-1.3935-7.9121-4.2812-0.15325-0.95232 0.08629-2.2317 0.63867-2.5547-0.31898 0.10939-0.70671 0.23371-1.1719 0.66602-0.78337 0.72803-0.5033 0.98689-1.5273 1.2695 0.5197-1.4437-2.4676-3.0185-2.166-5.0098-0.49188 2.6781 0.34497 5.4926 2.0216 7.7575 2.4548 3.3162 6.7099 4.9587 11.23 3.7647 5.1547-1.2683 8.2281-4.5041 9.2441-8.7156 0.5867-2.432 0.40403-4.9402-0.12891-7.0449-0.43408-1.7144-1.3205-3.5227-2.6543-5.1836-3.3666-4.192-7.8388-5.5999-9.2305-9.4258-0.76249-3.4312 1.1067-7.9554 1.4277-8.8008z" fill="#db3f2e"/>
 <path d="m31.932 25.383 1.0742 2.3711c0.01983 0.0566 0.039414 0.11302 0.058594 0.16992l0.49414 1.8008c0.5382 2.5461 0.46248 5.2038-0.32227 7.2812-1.1325 2.9979-3.0032 5.342-5.5918 6.4121-4.5306 1.8729-10.42 0.39458-12.852-4.3418 0.09729 0.444 0.2209 0.87788 0.37109 1.3027 2.4528 3.3261 6.7001 5.4832 11.229 4.2871 5.1547-1.2683 8.2281-4.9995 9.2441-9.2109 0.063007-0.26118 0.11438-0.52282 0.16016-0.78516-8e-6 -6.44e-4 8e-6 -0.001309 0-0.001953-0.006446-0.49359-0.033704-0.99006-0.095703-1.4902-0.18066-1.436-0.59546-2.8162-1.209-4.1035l0.011718-0.007813-0.10547-0.18164c-0.28352-0.57206-0.60529-1.1248-0.9668-1.6543l-0.052735-0.091797z" fill="#ff7d20"/>
 <path d="m22.799 26.002a9 9 0 0 0-0.89844 0.064453 9 9 0 0 0-7.8789 9.418 9 9 0 0 1 7.8789-8.418 9 9 0 0 1 10.033 7.834 9 9 0 0 1 0.044922 0.61523 9 9 0 0 0-0.044922-1.6152 9 9 0 0 0-9.1348-7.8984z" fill="#fff" opacity=".2"/>
</svg>
