<svg viewBox="0 0 48 48" xmlns="http://www.w3.org/2000/svg">
 <rect x="4" y="4" width="40" height="40" rx="20" fill="#0286c2"/>
 <path d="m22.786 5.0392c-1.6821 0.099903-3.3051 0.40731-4.8472 0.89453-2.9771 8.5107-5.9672 17.843-8.9383 26.075 0.21599 0.06353 0.42912 0.03739 0.65236 0.04102 1.2296-0.0073 2.4641 0.0036 3.6974 0 0.16698 0 0.14602-0.24149 0.21681-0.34767 1.4819-4.1826 2.9875-8.3439 4.4767-12.523 0.08893-0.25864 0.18763-0.53548 0.3047-0.78322 0.77318 0.01452 1.5352-0.01089 2.3048 0-1.6163 4.5338-3.2269 9.0944-4.8713 13.613 0.17334 0.06716 0.34481 0.03739 0.52541 0.04102 1.2904-0.01089 2.5769 0.01815 3.8673 0 1.4601-4.1191 2.9693-8.2309 4.4376-12.35 0.31218-0.84035 0.35665-1.9174-0.17578-2.6075-1.13-1.4648-3.639-1.7092-5.2619-1.7696 1.1834-3.3517 2.4108-6.8577 3.6114-10.283zm5.8674 10.881c-0.03146 0.06797-0.05241 0.23599-0.08398 0.30274-3.0453 8.5434-6.6273 18.297-9.7874 27.071 1.1143 0.29893 2.26 0.52175 3.4435 0.62502 1.4129-3.6827 3.1826-7.7939 4.4259-11.258 1.6127-0.03176 3.2159-0.01512 4.8322-0.04687 1.0245-0.03539 2.5719-0.65129 2.9122-1.6505 1.3612-3.8323 2.7226-7.6292 4.0411-11.479 0.21599-0.58171 0.34807-1.2198 0.17384-1.8243-0.23051-0.77318-0.93475-1.3604-1.6935-1.5664-0.65975-0.20601-1.323-0.11634-2.0001-0.13086-2.07-0.0036-4.1938-0.02119-6.2639-0.04297zm3.8927 2.4278c0.06556 0.0071 0.13134 0.0169 0.19532 0.0078 0.59895 0.01089 1.1879-0.01452 1.7833 0-1.3893 3.9666-2.8035 7.936-4.172 11.914-0.7759 0.05354-1.5748 0.0036-2.3517 0 1.4147-3.9421 2.8086-7.883 4.2189-11.832 0.03176-0.03539 0.08821-0.07504 0.13086-0.08594v0.0039c0.06398-0.01951 0.12975-0.01497 0.19532-0.0078z" opacity=".2"/>
 <path d="m22.786 4.0392c-1.6821 0.099903-3.3051 0.40731-4.8472 0.89453-2.9771 8.5107-5.9672 17.843-8.9383 26.075 0.21599 0.06353 0.42912 0.03739 0.65236 0.04102 1.2296-0.0073 2.4641 0.0036 3.6974 0 0.16698 0 0.14602-0.24149 0.21681-0.34767 1.4819-4.1826 2.9875-8.3439 4.4767-12.523 0.08893-0.25864 0.18763-0.53548 0.3047-0.78322 0.77318 0.01452 1.5352-0.01089 2.3048 0-1.6163 4.5338-3.2269 9.0944-4.8713 13.613 0.17334 0.06716 0.34481 0.03739 0.52541 0.04102 1.2904-0.01089 2.5769 0.01815 3.8673 0 1.4601-4.1191 2.9693-8.2309 4.4376-12.35 0.31218-0.84035 0.35665-1.9174-0.17578-2.6075-1.13-1.4648-3.639-1.7092-5.2619-1.7696 1.1834-3.3517 2.4108-6.8577 3.6114-10.283zm5.8674 10.881c-0.03146 0.06797-0.05241 0.23599-0.08398 0.30274-3.1478 8.8312-6.8844 18.99-10.119 27.987 1.0991 0.31519 2.2314 0.55187 3.4005 0.6758 1.4576-3.9084 3.4499-8.4605 4.801-12.225 1.6127-0.03176 3.2159-0.01511 4.8322-0.04687 1.0245-0.03539 2.5719-0.65129 2.9122-1.6505 1.3612-3.8323 2.7226-7.6292 4.0411-11.479 0.21599-0.58171 0.34807-1.2198 0.17384-1.8243-0.23051-0.77318-0.93475-1.3604-1.6935-1.5664-0.65975-0.20601-1.323-0.11634-2.0001-0.13086-2.07-0.0036-4.1938-0.02119-6.2639-0.04297zm3.8927 2.4278c0.06556 0.0071 0.13134 0.01689 0.19532 0.0078 0.59895 0.01089 1.1879-0.01452 1.7833 0-1.3893 3.9666-2.8035 7.936-4.172 11.914-0.7759 0.05354-1.5748 0.0036-2.3517 0 1.4147-3.9421 2.8086-7.883 4.2189-11.832 0.03176-0.03539 0.08821-0.07504 0.13086-0.08594v0.0039c0.06398-0.01951 0.12975-0.01496 0.19532-0.0078z" fill="#fff"/>
 <path d="m24 4c-11.079 0-19.998 8.92-19.998 20 0 .16772-.004.33329 0 .5.2642-10.846 9.087-19.5 19.998-19.5s19.734 8.6536 19.998 19.5c.004-.16671 0-.33228 0-.5 0-11.08-8.919-20-19.998-20z" fill="#fff" opacity=".2"/>
 <path d="m4.0117 24.5c-.0041.167-.0117.332-.0117.5 0 11.08 8.92 20 20 20s20-8.92 20-20c0-.168-.008-.333-.012-.5-.264 10.846-9.076 19.5-19.988 19.5s-19.724-8.654-19.988-19.5z" opacity=".2"/>
</svg>
