<svg viewBox="0 0 48 48" xmlns="http://www.w3.org/2000/svg">
 <linearGradient id="a" x1="355.73" x2="355.69" y1="547" y2="505.33" gradientUnits="userSpaceOnUse">
  <stop stop-color="#197cf1" offset="0"/>
  <stop stop-color="#20bcfa" offset="1"/>
 </linearGradient>
 <linearGradient id="b" x1="373.45" x2="373.45" y1="546.8" y2="507.87" gradientTransform="matrix(-.56777 0 0 .61822 579.27 212.13)" gradientUnits="userSpaceOnUse">
  <stop stop-color="#4fc604" offset="0"/>
  <stop stop-color="#83ee07" offset="1"/>
 </linearGradient>
 <g transform="matrix(.9746 0 0 .9746 -322.3 -489.31)">
  <path d="m372.72 511.01c-4.6438-3.7792-10.81-5.8604-17.362-5.8604-6.5523 0-12.718 2.0813-17.362 5.8604-4.6842 3.812-7.2638 8.8925-7.2638 14.306 0 5.1665 2.3515 10.029 6.6381 13.776-0.0773 0.17385-0.13864 0.35675-0.1778 0.54904l-1.4085 6.9283c-0.16748 0.8234 0.0576 1.3144 0.27567 1.5815 0.25214 0.30847 0.62586 0.47846 1.0524 0.47846 0.32207 0 0.66821-0.095 1.0289-0.28251l8.1925-4.2561c2.8364 0.91297 5.8857 1.3917 9.0243 1.3917 6.5523 0 12.718-2.0813 17.362-5.8604 4.684-3.8119 7.2637-8.8924 7.2637-14.306 0-5.4133-2.5796-10.494-7.2636-14.306z" fill="url(#a)"/>
  <g transform="matrix(.03537 0 0 .03537 344.51 515.4)" opacity=".7425" stroke-width="31.911">
   <path d="m587.57 186.88c-32.266-75.225-87.096-129.93-162.95-162.28-37.912-16.169-77.631-24.428-119.13-24.428-41.488 0-80.914 8.181-118.78 24.428-75.225 32.265-130.3 86.939-162.62 162.28-16.197 37.748-24.092 77.295-24.092 118.78 0 41.496 7.895 81.371 24.092 119.13 32.323 75.346 87.403 130.35 162.62 162.62 37.877 16.247 77.295 24.42 118.78 24.42s81.214-8.259 119.12-24.42c75.853-32.352 130.68-87.403 162.96-162.62 16.246-37.877 24.427-77.631 24.427-119.13 0-41.488-8.174-80.907-24.428-118.78z" fill="#fff" stroke="#fff"/>
   <path d="m324.91 302.99v-173.33c0-10.372-9.037-18.738-19.41-18.738-9.701 0-18.403 8.366-18.403 18.738v176c0 0.336 0.671 1.678 0.671 2.678-0.671 6.024 1.007 11.043 5.019 15.062l100.05 100.05c6.695 6.695 19.073 6.695 25.763 0 7.694-7.695 7.188-18.86 0-26.099z" fill="#1da1f6" stroke="#1da0f6"/>
  </g>
  <path d="m358.65 529.15c2.3219-2.0575 5.4049-3.1906 8.6809-3.1906 3.2761 0 6.3591 1.1331 8.6809 3.1906 2.3421 2.0754 3.6319 4.8413 3.6319 7.7884 0 2.8128-1.1757 5.4601-3.3191 7.4998 0.0388 0.0947 0.0694 0.19423 0.0889 0.29891l0.70425 3.772c0.0837 0.44829-0.0287 0.7156-0.13788 0.861-0.12614 0.16793-0.31294 0.26049-0.52621 0.26049-0.16104 0-0.3341-0.0517-0.51444-0.15382l-4.0963-2.3171c-1.4182 0.49704-2.9428 0.75766-4.5121 0.75766-3.2761 0-6.359-1.1331-8.6809-3.1906-2.342-2.0753-3.6318-4.8412-3.6318-7.7883s1.2898-5.7131 3.6318-7.7884z" fill="url(#b)"/>
 </g>
</svg>
