<svg viewBox="0 0 48 48" xmlns="http://www.w3.org/2000/svg">
 <g fill-rule="evenodd">
  <path d="m12.215 7a5.0007 5.0005 0 0 0-3.758 8.2988c4.6361 5.2797 5.0667 10.27 4.8322 13.691-0.05342 0.77991-0.2163 0.94566-0.33009 1.0996-0.22432-0.0595-0.48979-0.13996-1.2579-0.63281a5.0007 5.0005 0 0 0-7.7015 4.209c0 5.1963 5.0931 9.334 10.493 9.334 5.3716 0 9.4452-3.5162 11.116-8.0469 0.56704 0.62119 1.147 1.2336 1.7716 1.8066 3.1132 2.8566 7.0763 5.1493 11.557 6.125a5.0007 5.0005 0 0 0 4.8791-8.1172c-1.6845-1.9888-4.219-4.7019-5.9124-6.9688-0.38178-0.51108-0.43344-0.68246-0.68948-1.0957 1.5266-1.467 2.8034-3.0765 3.3224-5.1719 0.78156-3.1556-0.61628-6.4975-2.4728-8.4277-3.713-3.8605-8.8551-5.2471-14.338-6.0508a5.0007 5.0005 0 0 0-4.0099 1.1875c-1.6178-0.55104-4.0703-1.2402-7.5003-1.2402zm22.894 21.561c-0.03222 0.02852-0.04898 0.08119-0.08203 0.10742l-0.25978 0.19336c0.13158-0.09114 0.21306-0.20831 0.34181-0.30078zm-21.737 1.5312a5.0007 5.0005 0 0 0 0 2e-3c-0.01031 0.0041-0.0048 0.1199-0.22266 0.0918-7.27e-4 -0.01435-0.35123 0.13677 0.22266-0.09375z" opacity=".2"/>
  <path d="m12.215 6a5.0007 5.0005 0 0 0-3.758 8.2988c4.6361 5.2797 5.0667 10.27 4.8322 13.691-0.05342 0.77991-0.2163 0.94566-0.33009 1.0996-0.22432-0.0595-0.48979-0.13996-1.2579-0.63281a5.0007 5.0005 0 0 0-7.7015 4.209c0 5.1963 5.0931 9.334 10.493 9.334 5.3716 0 9.4452-3.5162 11.116-8.0469 0.56704 0.62119 1.147 1.2336 1.7716 1.8066 3.1132 2.8566 7.0763 5.1493 11.557 6.125a5.0007 5.0005 0 0 0 4.8791-8.1172c-1.6845-1.9888-4.219-4.7019-5.9124-6.9688-0.38178-0.51108-0.43344-0.68246-0.68948-1.0957 1.5266-1.467 2.8034-3.0765 3.3224-5.1719 0.78156-3.1556-0.61628-6.4975-2.4728-8.4277-3.713-3.8605-8.8551-5.2471-14.338-6.0508a5.0007 5.0005 0 0 0-4.0099 1.1875c-1.6178-0.55104-4.0703-1.2402-7.5003-1.2402zm22.894 21.561c-0.03222 0.02852-0.04898 0.08119-0.08203 0.10742l-0.25978 0.19336c0.13158-0.09114 0.21306-0.20831 0.34181-0.30078zm-21.737 1.5312a5.0007 5.0005 0 0 0 0 2e-3c-0.01031 0.0041-0.0048 0.1199-0.22266 0.0918-7.27e-4 -0.01435-0.35123 0.13677 0.22266-0.09375z" fill="#55648f"/>
  <path d="m12.215 12c5.617 6.397 6.3595 12.998 6.0625 17.332-0.2602 3.7987-2.5966 5.2211-3.043 5.4004-0.9307 0.3739-3.1172 0.93389-6.2344-1.0664 0 2.334 2.0042 4.334 5.4922 4.334s6.3428-2.8001 6.9238-5.9551c2.0132-16.286-1.8164-18.574-1.8164-18.574s-3.5069-1.4707-7.3848-1.4707zm10.785 0c1 4.322 8.918 6.0222 8.918 8.0762 0 2.055-5.4189 2.4083-5.3359 5.7383 0.084 4.605 6.585 10.698 13.418 12.186-3-3.542-10.582-11.264-8.082-13.248 9.0003-6.2343 0.74873-11.335-8.918-12.752z" opacity=".2"/>
  <g fill="#fff">
   <path d="m12.215 11c5.617 6.397 6.3595 12.998 6.0625 17.332-0.2602 3.7987-2.5966 5.2211-3.043 5.4004-0.9307 0.3739-3.1172 0.93389-6.2344-1.0664 0 2.334 2.0042 4.334 5.4922 4.334s6.3428-2.8001 6.9238-5.9551c2.0132-16.286-1.8164-18.574-1.8164-18.574s-3.5069-1.4707-7.3848-1.4707zm10.785 0c1 4.322 8.918 6.0222 8.918 8.0762 0 2.055-5.4189 2.4083-5.3359 5.7383 0.084 4.605 6.585 10.698 13.418 12.186-3-3.542-10.582-11.264-8.082-13.248 9.0003-6.2343 0.74873-11.335-8.918-12.752z"/>
   <path d="m12.215 6a5.0007 5.0005 0 0 0-4.9688 5.5 5.0007 5.0005 0 0 1 4.9688-4.5c3.43 0 5.8822 0.68919 7.5 1.2402a5.0007 5.0005 0 0 1 4.0098-1.1875c5.4834 0.8037 10.627 2.1902 14.34 6.0508 1.3807 1.4356 2.5025 3.6523 2.668 5.9922 0.13839-2.6962-1.0916-5.3532-2.668-6.9922-3.713-3.8605-8.8564-5.2471-14.34-6.0508a5.0007 5.0005 0 0 0-4.0098 1.1875c-1.6178-0.55104-4.07-1.2402-7.5-1.2402zm25.367 20.32c-0.12492 0.12599-0.2384 0.25906-0.36719 0.38281 0.25604 0.41324 0.30767 0.58462 0.68945 1.0957 1.6933 2.2668 4.2276 4.98 5.9121 6.9688a5.0007 5.0005 0 0 1 1.1562 2.7305 5.0007 5.0005 0 0 0-1.1562-3.7305c-1.6845-1.9888-4.2188-4.7019-5.9121-6.9688-0.1565-0.20951-0.23989-0.34312-0.32227-0.47852zm-24.262 0.8125c-0.008468 0.28995-0.012683 0.58651-0.03125 0.85742-0.053419 0.77991-0.21628 0.94566-0.33008 1.0996-0.22432-0.0595-0.48974-0.13996-1.2578-0.63281a5.0007 5.0005 0 0 0-7.7012 4.209c0 0.17097 0.020393 0.33729 0.03125 0.50586a5.0007 5.0005 0 0 1 7.6699-3.7148c0.76808 0.49285 1.0335 0.57331 1.2578 0.63281 0.10346-0.13997 0.24314-0.31362 0.30859-0.92578-0.031773 0.011694-0.050577 0.030328-0.11914 0.021485-4.03e-4 -0.007952 0.12146-0.053312 0.12305-0.052735 0.005129-0.051533 0.013599-0.084476 0.017578-0.14258 0.039247-0.57269 0.045873-1.2028 0.03125-1.8574zm21.789 1.4277c-0.12875 0.092467-0.21022 0.20964-0.3418 0.30078l0.25977-0.19336c0.03305-0.026232 0.049811-0.078902 0.082031-0.10742zm-21.738 1.5312c-0.57389 0.23052-0.22338 0.0794-0.22266 0.09375 0.21786 0.0281 0.21235-0.087697 0.22266-0.091797a5.0007 5.0005 0 0 0 0-0.001953z" opacity=".1"/>
  </g>
 </g>
</svg>
