<svg viewBox="0 0 48 48" xmlns="http://www.w3.org/2000/svg">
 <linearGradient id="a" x1="355.88" x2="356.61" y1="548.31" y2="505.31" gradientTransform="matrix(0 -1 1 0 -48.855 48.726)" gradientUnits="userSpaceOnUse">
  <stop stop-color="#225a86" offset="0"/>
  <stop stop-color="#266597" offset="1"/>
 </linearGradient>
 <path d="m40.923 8.3375c-4.526-3.683-10.535-5.7112-16.921-5.7112s-12.395 2.0281-16.921 5.7112c-4.565 3.7152-7.0795 8.6661-7.0795 13.943 0 5.0358 2.2913 9.7752 6.4694 13.426-0.075044 0.16958-0.13547 0.34793-0.17348 0.53506l-1.3732 6.752c-0.16276 0.8021 0.056527 1.2806 0.26899 1.5408 0.2456 0.30018 0.6101 0.46586 1.0253 0.46586 0.31382 0 0.65103-0.092587 1.0029-0.27581l7.9849-4.1479c2.764 0.88981 5.7365 1.3566 8.7909 1.3566 6.3856 0 12.395-2.0281 16.921-5.7112 4.565-3.7152 7.0795-8.6661 7.0795-13.943 0-5.2755-2.5145-10.227-7.0795-13.943" fill-opacity=".66667"/>
 <path transform="matrix(.9746 0 0 .9746 -322.33 -489.99)" d="m372.72 511.01c-4.644-3.779-10.81-5.86-17.362-5.86s-12.718 2.081-17.362 5.86c-4.684 3.812-7.264 8.892-7.264 14.306 0 5.167 2.351 10.03 6.638 13.776-.077.174-.139.357-.178.549l-1.409 6.928c-.167.823.058 1.314.276 1.581.252.308.626.478 1.052.478.322 0 .668-.095 1.029-.283l8.193-4.256c2.836.913 5.886 1.392 9.02 1.392 6.552 0 12.718-2.081 17.362-5.86 4.684-3.812 7.264-8.892 7.264-14.306 0-5.413-2.58-10.494-7.264-14.306" fill="url(#a)"/>
 <g fill="#f9f9f9">
  <path d="m31.007075 15.713448c-.645.152-1.25.461-1.781.844-.871 1.191-2.078 2.152-3.684 2.531-.609-.445-1.352-.961-1.859-1.547-2.324.266-5.523.781-6.074 3.02-.574 2.324.949 5.359 2.188 5.535 1.176.164 4.957-.887 6.785-1.379-1.531-1.195-3.293-1.719-4.254-1.781-1.133-.09-2.109.113-3.125.375 1.484-.957 2.828-1.672 4.156-1.938.996-.188 2.543-.195 4.402.5 2.305.863 2.855 2.094 4.473 2.648 1.07-.168.527-1.355.305-2.18-.148-.449-.266-.789-.313-.938-.082-.25-1.238-3.207-1.406-3.969-.113-.52-.016-1.195.188-1.723m0 0"/>
  <path d="m25.425 11.06c-1.613 0.68-1.668 1.965-1.758 3.359 0.676-0.613 2.801-1.063 3.375-1.559 1.695-1.469 2.352-4.504 1.996-4.055-1.152 1.457-3.02 1.926-3.613 2.254"/>
  <path d="m16.543 31.454s-1.602-1.063-1.57-1.402c1.051-5.699-2.574-1.645-2.848 0.906-0.289 2.449 0.613 5.273 0.746 5.445 0.215-2 0.406-3.109 3.672-4.953"/>
  <path d="m34.054075 18.896448c-.082-2.121-1.414-3.586-2.32-3.242-.387.145-.641 1.133-.508 1.746.445 2.18 2.277 4.699 1.824 6.855-.34 1.031-3.348 1.672-3.348 1.672s-.059.883-.172 1.484c-.137.73-.414 1.309-.414 1.309s.715.641.742.641c.031 0 4.5-2.32 4.195-10.465m0 0"/>
  <path d="m32.066075 24.736448c-.742-.301-1-.43-1.969-1.148-5.355-4-10.285-.535-10.188-.57.887-.281 1.891-.535 3.191-.453 1.051.07 2.449.734 4.176 2.168 1.16 1.02 2.918 1.148 4.785.004m.004 0"/>
  <path d="m27.039075 13.306448c-1.98.637-3.051 1.184-3.371 1.438-.656 1.672.668 2.93 1.875 3.813 1.586-.375 2.906-1.551 3.496-2.844-.309.043-.637-.016-1-.219-.707-.398-1.137-1.355-1-2.188m0 0"/>
  <path d="m29.921075 12.990448c-.129-.508-.543-1.16-.656-1.16-.102 0-1.203.82-1.488 1.102-.645.645-.332 1.82.383 2.219 1.211.68 2.105-.813 1.762-2.16m0 0"/>
  <path d="m28.98 11.271c0.484-0.465 1.129-1.227 1.297-2.387 0.098-1.039-0.156-1.68-0.469-2.477-0.152 1.555-0.379 3.285-1.438 5.121-0.332 0.578-0.152 0.473 0.609-0.258"/>
  <path d="m15.394075 27.373448c.168.422.156 1.223-.094 2.594-.004.012 0 .02 0 .031.176.246.539.543.902.813 1.25-.582 2.82-1.672 2.719-1.688-.668-.113-2.734-.617-3.527-1.75m0 0"/>
  <path d="m26.820075 24.931448c-.055 0-.098 0-.219.031-1.555.434-5.527 1.449-6.148 2.125-.242.516-.48 2.574-3.969 3.879-.098.035 2.93 1.992 3.094 2 9.883.414 9.871-6.676 9.742-7-.961.016-1.777-.32-2.406-.938-.031-.031-.059-.063-.094-.094m0 0"/>
 </g>
</svg>
