<svg viewBox="0 0 48 48" xmlns="http://www.w3.org/2000/svg">
 <circle cx="24" cy="25" r="20" opacity=".2"/>
 <circle cx="24" cy="24" r="20" fill="#28b628"/>
 <path d="m24 4a20 20 0 0 0 -20 20 20 20 0 0 0 .0215.582 20 20 0 0 1 19.9785-19.582 20 20 0 0 1 19.979 19.418 20 20 0 0 0 .021-.418 20 20 0 0 0 -20-20z" fill="#fff" opacity=".2"/>
 <circle cx="24" cy="25" r="14" opacity=".2"/>
 <circle cx="24" cy="24" r="14" fill="#fff"/>
 <path d="m26.891 13.4c-0.99159 3.6044-2.8906 10.6-2.8906 10.6s6.8778-1.7112 10.6-2.9414a11 11 0 0 0-7.709-7.6582z" fill="#28b628"/>
 <path d="m26.891 13.4c-0.99159 3.6044-2.8906 10.6-2.8906 10.6s0.27412-0.071467 0.29297-0.076172c0.32044-1.1799 1.7067-6.2849 2.5977-9.5234a11 11 0 0 1 7.4062 6.75c0.090643-0.029358 0.21544-0.062941 0.30273-0.091797a11 11 0 0 0-7.709-7.6582z" opacity=".2"/>
 <g fill="#4f4f4f">
  <path d="m22.529 25.035-6.5287-6.0346 9.0107 4.753 1.9893 3.247z" fill-rule="evenodd"/>
  <path d="m23.381 23.55 14.019-3.5497-12.59 5.3759-4.81 0.62407z" fill-rule="evenodd"/>
  <path d="m24 12a1 1 0 0 0-1 1 1 1 0 0 0 1 1 1 1 0 0 0 1-1 1 1 0 0 0-1-1zm-11 11a1 1 0 0 0-1 1 1 1 0 0 0 1 1 1 1 0 0 0 1-1 1 1 0 0 0-1-1zm22 0a1 1 0 0 0-1 1 1 1 0 0 0 1 1 1 1 0 0 0 1-1 1 1 0 0 0-1-1zm-11 11a1 1 0 0 0-1 1 1 1 0 0 0 1 1 1 1 0 0 0 1-1 1 1 0 0 0-1-1z"/>
 </g>
</svg>
