<svg viewBox="0 0 48 48" xmlns="http://www.w3.org/2000/svg">
 <rect x="4" y="5" width="40" height="40" rx="12" opacity=".2"/>
 <rect x="4" y="4" width="40" height="40" rx="12" fill="#ff6363"/>
 <path d="m15 33-7.4922 7.4922c2.169 2.169 5.1682 3.5078 8.4922 3.5078h16c3.324 0 6.3232-1.3388 8.4922-3.5078l-7.4922-7.4922h-9z" opacity=".3"/>
 <path d="m40.492 7.5078-7.4922 7.4922v18l7.4922 7.4922c2.169-2.169 3.5078-5.1682 3.5078-8.4922v-16c0-3.324-1.3388-6.3232-3.5078-8.4922z" opacity=".15"/>
 <path d="m7.5078 7.5078c-2.169 2.169-3.5078 5.1682-3.5078 8.4922v16c0 3.324 1.3388 6.3232 3.5078 8.4922l7.4922-7.4922v-18z" opacity=".15"/>
 <rect x="10" y="11" width="28" height="28" rx="6" opacity=".2"/>
 <rect x="10" y="10" width="28" height="28" rx="6" fill="#eceeeb"/>
 <path d="m16 4c-6.648 0-12 5.352-12 12v1c0-6.648 5.352-12 12-12h16c6.648 0 12 5.352 12 12v-1c0-6.648-5.352-12-12-12z" fill="#fff" opacity=".2"/>
 <path d="m15 15v18h4v-7h10v7h4v-18h-4v7h-10v-7z" fill="#4f4f4f"/>
</svg>
