<svg viewBox="0 0 48 48" xmlns="http://www.w3.org/2000/svg">
 <linearGradient id="a" x1="487.74" x2="493.51" y1="985.35" y2="11.611" gradientTransform="matrix(.080128 0 0 .080128 384.06 464.94)" gradientUnits="userSpaceOnUse">
  <stop stop-color="#c52828" offset="0"/>
  <stop stop-color="#ff5454" offset="1"/>
 </linearGradient>
 <g transform="matrix(.55961 0 0 .55961 -212.92 -258.18)">
  <path d="m459.88 481.5c-0.024-1.843-1.4423-3.3654-3.2772-3.5337-15.248-1.4263-27.692-9.5753-31.795-12.556-0.85737-0.625-2.0192-0.625-2.8766 0-4.0946 2.9808-16.538 11.13-31.787 12.556-1.8349 0.16835-3.2452 1.6908-3.2772 3.5337-0.18429 12.027 1.7468 52.86 35.585 61.947 0.60096 0.16026 1.234 0.16026 1.8349 0 33.838-9.0785 35.769-49.92 35.593-61.947z" fill="url(#a)"/>
  <path d="m423.32 474.43c-0.38797 0-0.7769 0.1205-1.1064 0.36298-3.1469 2.3128-12.712 8.6343-24.431 9.741-1.4102 0.13062-2.4918 1.3133-2.5164 2.7432-0.14165 9.3322 1.3422 41.016 27.349 48.066 0.46187 0.12435 0.94815 0.12435 1.41 0 26.007-7.0443 27.491-38.734 27.356-48.066-0.0185-1.43-1.1097-2.6126-2.5199-2.7432-11.719-1.1067-21.285-7.4281-24.438-9.741-0.32947-0.24248-0.71491-0.36298-1.1029-0.36298zm4.9002 16.714c4.5622 0 8.2507 3.6886 8.2507 8.2507s-3.6885 8.2507-8.2507 8.2507c-1.0677 0-2.0406-0.19395-2.9143-0.48513l-4.3662 4.3697h-2.9108v2.9108h-2.9143v2.9108h-4.8513v-4.8513l10.191-10.195c-0.29118-0.97067-0.48513-1.9401-0.48513-2.9108 0-4.5621 3.6886-8.2507 8.2507-8.2507zm2.4256 2.9108c-1.6502 0-2.9108 1.2641-2.9108 2.9143s1.2606 2.9108 2.9108 2.9108 2.9108-1.2606 2.9108-2.9108-1.2606-2.9143-2.9108-2.9143z" fill="#fff" fill-opacity=".85098"/>
 </g>
</svg>
