<svg clip-rule="evenodd" fill-rule="evenodd" stroke-linejoin="round" stroke-miterlimit="2" viewBox="0 0 48 48" xmlns="http://www.w3.org/2000/svg">
 <linearGradient id="a" x2="1" gradientTransform="matrix(1.0604 -44.715 44.715 1.0604 69.376 47.095)" gradientUnits="userSpaceOnUse">
  <stop stop-color="#31a5c2" offset="0"/>
  <stop stop-color="#9ae6f8" offset="1"/>
 </linearGradient>
 <linearGradient id="b" x2="1" gradientTransform="matrix(-.034097 -18.565 18.565 -.034097 287.39 32.588)" gradientUnits="userSpaceOnUse">
  <stop stop-color="#b30040" offset="0"/>
  <stop stop-color="#ff40a3" offset="1"/>
 </linearGradient>
 <linearGradient id="c" x2="1" gradientTransform="matrix(1.0162 -42.852 42.852 1.0162 67.485 46.132)" gradientUnits="userSpaceOnUse">
  <stop stop-color="#c7c4ff" offset="0"/>
  <stop stop-color="#ffc2d0" offset="1"/>
 </linearGradient>
 <g fill-rule="nonzero">
  <path d="m24 1.236c-12.572 0-22.764 10.192-22.764 22.764s10.192 22.764 22.764 22.764 22.764-10.192 22.764-22.764-10.192-22.764-22.764-22.764" fill="url(#a)"/>
  <path d="m13.56 17.983c2.278-5.212 8.577-3.95 10.464-.374 1.728-3.551 8.42-5.39 10.464.368 2.475 7.649-5.845 11.834-10.477 16.91-4.534-4.886-12.926-9.128-10.451-16.904z" fill="url(#b)"/>
  <path d="m24 1.236c-12.561 0-22.764 10.203-22.764 22.764s10.203 22.764 22.764 22.764 22.764-10.203 22.764-22.764-10.203-22.764-22.764-22.764zm0 1.897c11.535 0 20.867 9.332 20.867 20.867s-9.332 20.867-20.867 20.867-20.867-9.332-20.867-20.867 9.332-20.867 20.867-20.867z" fill="url(#c)"/>
 </g>
</svg>
