<svg clip-rule="evenodd" fill-rule="evenodd" stroke-linecap="round" stroke-linejoin="round" stroke-miterlimit="1.5" version="1.1" viewBox="0 0 128 128" xmlns="http://www.w3.org/2000/svg" xmlns:xlink="http://www.w3.org/1999/xlink">
 <defs>
  <linearGradient id="c" x2="1" gradientTransform="matrix(0 83.311 72.822 0 66.611 9.3779)" gradientUnits="userSpaceOnUse">
   <stop stop-color="#0b7cd4" offset="0"/>
   <stop stop-color="#1a96be" offset="1"/>
  </linearGradient>
  <linearGradient id="b" x2="1" gradientTransform="matrix(0 -74.096 72.822 0 66.611 119.28)" gradientUnits="userSpaceOnUse">
   <stop stop-color="#1075f6" offset="0"/>
   <stop stop-color="#12c5ff" offset="1"/>
  </linearGradient>
  <linearGradient id="a" x2="1" gradientTransform="matrix(0 34.72 -34.123 0 64.094 85.28)" gradientUnits="userSpaceOnUse">
   <stop stop-color="#aad2ff" offset="0"/>
   <stop stop-color="#1079f6" offset="1"/>
  </linearGradient>
 </defs>
 <g>
  <path d="m120 89.448-112-0.0793v-38.014c0-2.075 0.97399-4.0253 2.6212-5.2486 9.0531-6.7235 39.029-28.986 49.627-36.856 2.2368-1.6613 5.2712-1.6663 7.5133-0.01245 10.599 7.8178 40.53 29.894 49.601 36.585 1.6571 1.2223 2.6381 3.1785 2.6381 5.261z" enable-background="new" fill="url(#c)" stroke-width=".12652"/>
  <path d="m29.765 36.182c-3.5127-0.04015-5.8732 0.68125-7.0846 2.0105-1.272 1.3847-1.9238 3.6564-1.9238 6.8134v55.881h86.487v-55.881c0-3.157-0.65182-5.4288-1.9238-6.8134-1.2114-1.3293-3.6081-2.0105-7.0846-2.0105h-54.484z" enable-background="new" fill="#faf8f6"/>
  <path d="m66.936 83.239c-1.8052 1.1117-4.0676 1.1128-5.8738 0.0025-11.531-7.0864-53.062-32.612-53.062-32.612v62.281c0 3.9152 3.1193 7.0892 6.9672 7.0892h98.315c1.7818 0 3.4904-0.72023 4.7504-2.0022 1.2599-1.2818 1.9676-3.0205 1.9676-4.8333v-62.605s-41.536 25.58-53.064 32.68z" enable-background="new" fill="url(#b)" stroke-width=".11932"/>
 </g>
 <path d="m36.481 50.56v3.5948h55.037v-3.5948zm0 10.784v3.5948h27.519v-3.5948z" color="#000000" fill="#80a3fa" fill-opacity=".99608" fill-rule="nonzero" opacity=".5"/>
 <path d="m10.78 117.79c-1.3229-2.4213-1.3696-4.8881 1.3865-6.3453 8.2494-4.3616 41.013-22.083 49.707-26.787 1.3289-0.71851 2.9229-0.71649 4.2498 0.0071 8.6189 4.7011 40.918 22.317 49.113 26.78 3.2626 1.7776 3.6996 4.8083 2.2903 6.3453" enable-background="new" fill="none" stroke="url(#a)" stroke-width="1.0018"/>
</svg>
