<svg viewBox="0 0 48 48" xmlns="http://www.w3.org/2000/svg">
 <rect transform="scale(-1 1)" x="-44" y="5" width="40" height="40" rx="20" opacity=".2"/>
 <rect transform="scale(-1 1)" x="-44" y="4" width="40" height="40" rx="20" fill="#2f4760"/>
 <path d="m20.686 39.674c-0.72226-0.18707-2.0947-0.5721-2.6825-0.85562-1.194-0.57586-3.0039-2.0381-3.0039-2.4269 0.75904-1.3146 1.8695-2.6913 3.0019-3.3913-0.8406-0.54217-1.1206-0.90012-0.94924-1.8717 0 0 0.08785-0.35089-0.52093-0.82071-2.4999-2.5086-6.1956-5.4262-7.5298-8.4041 0-0.76816 0.43672-0.93498 1.5879-0.9034 0.55921 0.01534 2.4232-0.02007 4.1423 0 3.1064 0.03627 4.2622 0 4.2622 0s3.2467-0.06057 4.2365 0.72199c2.5033 1.9792 3.6292 1.8576 5.7249 2.5558 1.9528 0.65064 2.0463-0.27782 2.0463 4.3654 0.42373 2.6286 0.08965 4.9639 1.8813 7.2996 0.21794 0.28711 0.16572 0.42011-0.40831 1.04-1.1354 1.2262-3.5283 2.4169-5.712 2.8423-1.4782 0.288-4.6887 0.20798-6.0765-0.15145z" opacity=".2"/>
 <path d="m20.686 38.674c-0.72226-0.18707-2.0947-0.5721-2.6825-0.85562-1.194-0.57586-3.0039-2.0381-3.0039-2.4269 0.75904-1.3146 1.8695-2.6913 3.0019-3.3913-0.8406-0.54217-1.1206-0.90012-0.94924-1.8717 0 0 0.08785-0.35089-0.52093-0.82071-2.4999-2.5086-6.1956-5.4262-7.5298-8.4041 0-0.76816 0.43672-0.93498 1.5879-0.9034 0.55921 0.01534 2.4232-0.02007 4.1423 0 3.1064 0.03627 4.2622 0 4.2622 0s3.2467-0.06057 4.2365 0.72199c2.5033 1.9792 3.6292 1.8576 5.7249 2.5558 1.9528 0.65064 2.0463-0.27782 2.0463 4.3654 0.42373 2.6286 0.08965 4.9639 1.8813 7.2996 0.21794 0.28711 0.16572 0.42011-0.40831 1.04-1.1354 1.2262-3.5283 2.4169-5.712 2.8423-1.4782 0.288-4.6887 0.20798-6.0765-0.15145z" fill="#d2943b"/>
 <path d="m21.773 30.746c0.85362-0.28612 1.9523-1.0633 2.8023-1.9823 0.47598-0.51464 0.52334-0.6369 0.28984-0.74829-0.17385-0.08293-0.70196 0.17827-1.4004 0.69267-1.2598 0.92778-2.4518 1.4836-3.2475 1.5143-0.29407 0.01133-0.72176 0.08939-0.95042 0.17347-0.39339 0.14464-0.37997 0.16571 0.24945 0.39171 0.81969 0.29432 1.2801 0.28584 2.2568-0.04153z" fill="#fff"/>
 <path d="m26.502 14.999c3.5899 0 6.5 2.9101 6.5 6.5 0 1.5446-0.54159 2.9609-1.4414 4.0762-0.19828 0.50811-0.35324 0.9288-0.34766 1.041 0.01906 0.38281-0.26658 0.69438-2.6934-0.17383-2.5596-0.9157-3.6853-1.575-6.377-3.7363-1.007-0.80857-2.2376-1.5724-3.3633-2.0879-0.97612-0.44696-1.7773-0.52324-1.7773-0.61914 0-1 1.2869-0.90731 2-1h1.5176c0.98158-2.3445 3.2817-4 5.9824-4z" opacity=".2"/>
 <path d="m26.502 14c3.5899 0 6.5 2.9101 6.5 6.5 0 1.5446-0.54159 2.9609-1.4414 4.0762-0.19828 0.50811-0.35324 0.9288-0.34766 1.041 0.019062 0.38281-0.26658 0.69438-2.6934-0.17383-2.5596-0.9157-3.6853-1.575-6.377-3.7363-1.007-0.80857-2.2376-1.5724-3.3633-2.0879-0.97612-0.44696-1.7773-0.52324-1.7773-0.61914 0-1 1.2869-0.90731 2-1h1.5176c0.98158-2.3445 3.2817-4 5.9824-4z" fill="#ffd548"/>
 <path d="m21.773 31.746c0.85362-0.28612 1.9523-1.0633 2.8023-1.9823 0.47598-0.51464 0.52334-0.6369 0.28984-0.74829-0.17385-0.08293-0.70196 0.17827-1.4004 0.69267-1.2598 0.92778-2.4518 1.4836-3.2475 1.5143-0.29407 0.01133-0.72176 0.08939-0.95042 0.17347-0.39339 0.14464-0.37997 0.16571 0.24945 0.39171 0.81969 0.29432 1.2801 0.28584 2.2568-0.04153z" opacity=".2"/>
 <circle transform="scale(-1 1)" cx="-9.002" cy="21" r="2" opacity=".2"/>
 <circle transform="scale(-1 1)" cx="-9.002" cy="20" r="2" fill="#efc286"/>
 <path d="m13.119 7.2148c-2.6843 1.7394-4.9166 4.1034-6.502 6.8926l15.313 4.834 1.0449-0.78711 0.2832-1.7207 0.07617-1.2207z" fill="#fff" opacity=".3"/>
 <ellipse transform="matrix(.94991 .31253 -.28368 .95892 0 0)" cx="26.694" cy="10.071" rx="1.458" ry="2.031" opacity=".2"/>
 <g fill="#fff">
  <ellipse transform="matrix(.94991 .31253 -.28368 .95892 0 0)" cx="26.41" cy="9.121" rx="1.458" ry="2.031"/>
  <path d="m24 4c-11.08 0-20 8.92-20 20 0 0.16787 0.007647 0.33314 0.011719 0.5 0.26467-10.846 9.0762-19.5 19.988-19.5s19.724 8.6539 19.988 19.5c0.004072-0.16686 0.011719-0.33213 0.011719-0.5 0-11.08-8.92-20-20-20z" opacity=".1"/>
 </g>
</svg>
