<svg clip-rule="evenodd" fill-rule="evenodd" stroke-linejoin="round" stroke-miterlimit="2" viewBox="0 0 48 48" xmlns="http://www.w3.org/2000/svg">
 <path d="m21.798 32.81h4.405v8.8099h-4.405z" fill="#828282" stroke-width="1.1012"/>
 <path transform="matrix(1.1012 0 0 1.1012 -2.4298 -2.4298)" d="m24 4c-4.937 0-9 4.063-9 9v12h18v-12c0-4.937-4.063-9-9-9zm0 4c2.809 0 5 2.191 5 5v8h-10v-8c0-2.809 2.191-5 5-5z" fill="#e4e4e4" fill-rule="nonzero"/>
 <path transform="matrix(0 -1.1012 -1.1012 0 -2.4298 -2.4298)" d="m-16-34.547c0-.802-.651-1.453-1.453-1.453h-13.094c-.802 0-1.453.651-1.453 1.453v21.094c0 .802.651 1.453 1.453 1.453h13.094c.802 0 1.453-.651 1.453-1.453z" fill="#e38600"/>
 <path d="m10.785 18.494h26.43v11.012h-26.43z" fill="#fff" fill-opacity=".3" stroke-width="1.1012"/>
 <path transform="matrix(0 1.1012 -1.1012 0 -2.4298 -2.4298)" d="m42-42.184c0-1.002-.814-1.816-1.816-1.816h-.368c-1.002 0-1.816.814-1.816 1.816v36.368c0 1.002.814 1.816 1.816 1.816h.368c1.002 0 1.816-.814 1.816-1.816z" fill="#828282"/>
 <path d="m16.291 37.215h15.417v8.8099h-15.417z" fill="#afafb1" stroke-width="1.1012"/>
</svg>
