<svg viewBox="0 0 48 48" xmlns="http://www.w3.org/2000/svg">
 <linearGradient id="a" x1="24" x2="24" y1="44" y2="4" gradientUnits="userSpaceOnUse">
  <stop stop-color="#bc8000" offset="0"/>
  <stop stop-color="#e4c440" offset="1"/>
 </linearGradient>
 <linearGradient id="b" x1="24" x2="24" y1="47" y2="1.0001" gradientUnits="userSpaceOnUse">
  <stop stop-color="#2a2c2f" offset="0"/>
  <stop stop-color="#555b5f" offset="1"/>
 </linearGradient>
 <rect x="1" y="1" width="46" height="46" ry="23" fill="url(#b)"/>
 <path d="m24 4c-11.08 0-20 8.92-20 20s8.92 20 20 20c1.5505 0 3.0526-0.19066 4.5-0.52148-8.8957-2.0333-15.5-9.949-15.5-19.479s6.6043-17.445 15.5-19.479c-1.4474-0.33083-2.9495-0.52148-4.5-0.52148zm6.0371 7c-0.49384-8.94e-4 -0.98816 0.026984-1.4805 0.082031-0.36548 0.04112-0.64062 0.46746-0.64062 0.83594 0 1.1913-0.69942 2.2481-1.7812 2.6914-1.108 0.45293-2.4004 0.16131-3.2148-0.72656-0.25549-0.27948-0.68338-0.31448-0.98047-0.080078-0.7743 0.60974-1.4739 1.3039-2.0801 2.0605-0.23778 0.29631-0.20443 0.73134 0.080078 0.98828 0.85817 0.77488 1.1773 2.1666 0.72852 3.2422-0.47083 1.1193-1.6048 1.8249-2.8223 1.7559-0.38241-0.02273-0.71536 0.25547-0.75976 0.63672-0.11232 0.97106-0.11591 1.9518-0.007813 2.9258 0.0416 0.37689 0.36657 0.65525 0.74414 0.64258 1.2055-0.04237 2.3195 0.67311 2.7734 1.7812 0.43407 1.0627 0.1181 2.4435-0.73242 3.2168-0.28016 0.25558-0.31411 0.68466-0.082031 0.98242 0.61129 0.77913 1.3122 1.4862 2.0801 2.1016 0.29854 0.24001 0.72949 0.20612 0.98633-0.076172 0.81938-0.9048 2.1233-1.1966 3.2441-0.72656 1.0686 0.44877 1.7578 1.5578 1.7578 2.8281-0.01325 0.4122 0.26391 0.70492 0.63867 0.75 0.97667 0.11434 1.9705 0.11586 2.9551 0.00586 0.36703-0.04082 0.64062-0.47902 0.64062-0.85156-0.02893-1.132 0.67175-2.2199 1.7812-2.6758 1.108-0.45448 2.3997-0.16266 3.2148 0.72656 0.25549 0.27812 0.68143 0.31448 0.97852 0.080078 0.76936-0.60404 1.4689-1.2972 2.0801-2.0566 0.24001-0.29786 0.20637-0.73204-0.078125-0.99023-0.8603-0.77778-1.1782-2.169-0.72852-3.2402 0.46938-1.1221 1.6041-1.8288 2.8223-1.7598 0.3826 0.02254 0.71604-0.25702 0.75976-0.63672 0.057941-0.49675 0.085938-0.99694 0.085938-1.498 0-0.47566-0.025205-0.95207-0.078125-1.4277-0.0416-0.37699-0.36784-0.65525-0.74609-0.64258-1.2048 0.043621-2.3184-0.6726-2.7715-1.7793-0.43697-1.0698-0.11723-2.4453 0.73242-3.2188 0.27958-0.25703 0.31333-0.68302 0.082031-0.98242-0.60984-0.77768-1.31-1.4833-2.0801-2.1016-0.29786-0.23991-0.72958-0.20756-0.98633 0.076172-0.81938 0.9048-2.1241 1.1986-3.2441 0.72852-1.0544-0.4419-1.7617-1.509-1.7617-2.6582l0.003907-0.16211c0.03025-0.3728-0.25625-0.71459-0.63672-0.75976-0.48877-0.057269-0.98272-0.086997-1.4766-0.087891zm-0.009765 8.6426c2.3912 0 4.3359 1.9448 4.3359 4.3359 0 2.3912-1.9448 4.3379-4.3359 4.3379s-4.3359-1.9467-4.3359-4.3379c0-2.3911 1.9448-4.3359 4.3359-4.3359z" fill="url(#a)"/>
</svg>
