<svg enable-background="new 0 0 1024 1024" image-rendering="optimizeSpeed" style="background-color:#ffffff" version="1.1" viewBox="0 0 1024 1024" xmlns="http://www.w3.org/2000/svg" xmlns:xlink="http://www.w3.org/1999/xlink">
 <defs>
  <linearGradient id="c">
   <stop stop-color="#fff" offset="0"/>
   <stop stop-color="#d7d7d7" offset="1"/>
  </linearGradient>
  <linearGradient id="b" x1="520.03" x2="500" y1="-499.95" y2="1024" gradientTransform="matrix(.95703 0 0 .95703 22 22)" gradientUnits="userSpaceOnUse">
   <stop stop-color="#4d4d4d" offset="0"/>
   <stop stop-color="#1a1a1a" offset="1"/>
  </linearGradient>
  <linearGradient x1="150.8" x2="150.8" y1="-98.269" y2="394.84" gradientUnits="userSpaceOnUse" xlink:href="#c"/>
  <linearGradient id="d" x1="540.14" x2="540.14" y1="29.77" y2="1055" gradientTransform="matrix(.99492 0 0 .99492 2.599 -25.619)" gradientUnits="userSpaceOnUse">
   <stop stop-color="#fff" stop-opacity=".58824" offset="0"/>
   <stop stop-color="#fff" stop-opacity="0" offset="1"/>
  </linearGradient>
  <linearGradient id="a" x1="244" x2="244" y1="-12" y2="508" gradientUnits="userSpaceOnUse">
   <stop stop-color="#f6f7f7" offset="0"/>
   <stop stop-color="#dce7f0" offset="1"/>
  </linearGradient>
  <filter id="e" color-interpolation-filters="sRGB">
   <feFlood flood-color="rgb(0,0,0)" flood-opacity=".49804" result="flood"/>
   <feComposite in="flood" in2="SourceGraphic" operator="in" result="composite1"/>
   <feGaussianBlur in="composite1" result="blur" stdDeviation="30"/>
   <feOffset dx="0" dy="-15" result="offset"/>
   <feComposite in="offset" in2="SourceGraphic" operator="out" result="composite2"/>
  </filter>
 </defs>
 <path d="m966.34 324.41q-8.928-21.645-20.14-42.408c-4.2044-7.8379-8.6684-15.624-13.392-23.254-20.296-32.909-45.055-64.001-74.279-93.225-95.664-95.664-211.21-143.52-346.53-143.52s-250.81 47.858-346.48 143.52c-95.664 95.664-143.52 211.16-143.52 346.48s47.858 250.87 143.52 346.53c95.664 95.664 211.16 143.47 346.48 143.47s250.87-47.806 346.53-143.47c52.685-52.737 90.889-111.5 114.56-176.22 19.257-52.789 28.912-109.52 28.912-170.31 0-46.612-5.6579-90.889-17.025-132.83-1.2977-4.7235-2.6472-9.447-4.0487-14.119-4.2564-13.807-9.1356-27.355-14.586-40.643z" fill="url(#b)" stroke-width="1.0381"/>
 <circle cx="512" cy="512" r="487.51" color="#000000" enable-background="accumulate" fill="none" stroke="url(#d)" stroke-width="4.975"/>
 <g transform="translate(256 256)" fill="url(#a)">
  <g transform="translate(1,1)" fill="url(#a)">
   <g fill="url(#a)">
    <g fill="url(#a)">
     <path d="m417.13 135.53c0-14.507-11.093-25.6-25.6-25.6h-25.6v-85.333c0-14.507-11.093-25.6-25.6-25.6s-25.6 11.093-25.6 25.6v85.333h-119.47v-85.333c0-14.507-11.093-25.6-25.6-25.6s-25.6 11.093-25.6 25.6v85.333h-25.6c-14.507 0-25.6 11.093-25.6 25.6 0 11.491 6.963 20.833 17.067 24.224v163.51c0 48.64 37.547 89.6 86.187 93.867v24.747c0 14.507 11.947 26.453 26.453 26.453h23.893v34.133c0 5.12 3.413 8.533 8.533 8.533s8.533-3.413 8.533-8.533v-34.133h24.747c14.507 0 26.453-11.947 26.453-26.453v-24.747c47.787-5.12 85.333-45.227 85.333-93.867v-163.51c10.104-3.391 17.067-12.734 17.067-24.225zm-85.333-110.93c0-5.12 3.413-8.533 8.533-8.533s8.533 3.413 8.533 8.533v85.333h-17.066zm-170.67 0c0-4.267 3.413-8.533 8.533-8.533s8.533 3.413 8.533 8.533v85.333h-17.067v-85.333zm221.01 298.67c0 42.667-34.133 76.8-76.8 76.8-5.12 0-8.533 3.413-8.533 8.533v33.28c0 5.12-4.267 9.387-9.387 9.387h-65.707c-5.12 0-9.387-4.267-9.387-9.387v-33.28c0-5.12-3.413-8.533-8.533-8.533-42.667 0-76.8-34.133-76.8-76.8v-162.13h255.15zm9.386-179.2h-273.07c-5.12 0-8.533-3.413-8.533-8.533s3.413-8.533 8.533-8.533h273.07c5.12 0 8.533 3.413 8.533 8.533s-3.413 8.533-8.533 8.533z"/>
     <path d="m220.87 280.6h47.787l-45.227 45.227c-3.413 3.413-3.413 8.533 0 11.947 1.707 1.707 3.413 2.56 5.973 2.56s4.267-0.853 5.973-2.56l59.733-59.733c2.56-2.56 3.413-5.973 1.707-9.387-0.853-3.413-4.267-5.12-7.68-5.12h-47.787l45.227-45.227c3.413-3.413 3.413-8.533 0-11.947s-8.533-3.413-11.947 0l-59.733 59.733c-2.56 2.56-2.56 5.973-1.707 9.387 0.854 3.413 4.267 5.12 7.681 5.12z"/>
    </g>
   </g>
  </g>
 </g>
 <g transform="translate(256 256)" fill="url(#a)" filter="url(#e)">
  <g transform="translate(1,1)" fill="url(#a)">
   <g fill="url(#a)">
    <g fill="url(#a)">
     <path d="m417.13 135.53c0-14.507-11.093-25.6-25.6-25.6h-25.6v-85.333c0-14.507-11.093-25.6-25.6-25.6s-25.6 11.093-25.6 25.6v85.333h-119.47v-85.333c0-14.507-11.093-25.6-25.6-25.6s-25.6 11.093-25.6 25.6v85.333h-25.6c-14.507 0-25.6 11.093-25.6 25.6 0 11.491 6.963 20.833 17.067 24.224v163.51c0 48.64 37.547 89.6 86.187 93.867v24.747c0 14.507 11.947 26.453 26.453 26.453h23.893v34.133c0 5.12 3.413 8.533 8.533 8.533s8.533-3.413 8.533-8.533v-34.133h24.747c14.507 0 26.453-11.947 26.453-26.453v-24.747c47.787-5.12 85.333-45.227 85.333-93.867v-163.51c10.104-3.391 17.067-12.734 17.067-24.225zm-85.333-110.93c0-5.12 3.413-8.533 8.533-8.533s8.533 3.413 8.533 8.533v85.333h-17.066zm-170.67 0c0-4.267 3.413-8.533 8.533-8.533s8.533 3.413 8.533 8.533v85.333h-17.067v-85.333zm221.01 298.67c0 42.667-34.133 76.8-76.8 76.8-5.12 0-8.533 3.413-8.533 8.533v33.28c0 5.12-4.267 9.387-9.387 9.387h-65.707c-5.12 0-9.387-4.267-9.387-9.387v-33.28c0-5.12-3.413-8.533-8.533-8.533-42.667 0-76.8-34.133-76.8-76.8v-162.13h255.15zm9.386-179.2h-273.07c-5.12 0-8.533-3.413-8.533-8.533s3.413-8.533 8.533-8.533h273.07c5.12 0 8.533 3.413 8.533 8.533s-3.413 8.533-8.533 8.533z"/>
     <path d="m220.87 280.6h47.787l-45.227 45.227c-3.413 3.413-3.413 8.533 0 11.947 1.707 1.707 3.413 2.56 5.973 2.56s4.267-0.853 5.973-2.56l59.733-59.733c2.56-2.56 3.413-5.973 1.707-9.387-0.853-3.413-4.267-5.12-7.68-5.12h-47.787l45.227-45.227c3.413-3.413 3.413-8.533 0-11.947s-8.533-3.413-11.947 0l-59.733 59.733c-2.56 2.56-2.56 5.973-1.707 9.387 0.854 3.413 4.267 5.12 7.681 5.12z"/>
    </g>
   </g>
  </g>
 </g>
</svg>
