<svg enable-background="new 0 0 1024 1024" image-rendering="optimizeSpeed" style="background-color:#ffffff" version="1.1" viewBox="0 0 1024 1024" xmlns="http://www.w3.org/2000/svg">
 <defs>
  <linearGradient id="b" x1="520.03" x2="520.03" y1="2.0078" y2="1026" gradientTransform="matrix(.95703 0 0 .95703 22 22)" gradientUnits="userSpaceOnUse">
   <stop stop-color="#f6f7f7" offset="0"/>
   <stop stop-color="#dce7f0" offset="1"/>
  </linearGradient>
  <linearGradient id="e" x1="520" x2="520" y1="224" y2="804" gradientTransform="matrix(1.1409 0 0 1.1409 -69.57 -72.191)" gradientUnits="userSpaceOnUse">
   <stop stop-color="#ebeef0" offset="0"/>
   <stop stop-color="#cfd7dc" offset="1"/>
  </linearGradient>
  <linearGradient id="c" x1="515.57" x2="520" y1="352.39" y2="784" gradientUnits="userSpaceOnUse">
   <stop stop-color="#b0bdc5" offset="0"/>
   <stop stop-color="#b0bdc5" stop-opacity="0" offset="1"/>
  </linearGradient>
  <radialGradient id="a" cx="515.57" cy="513.43" r="64.655" gradientTransform="matrix(3.4711 0 0 8.4978 -1274 -3849.6)" gradientUnits="userSpaceOnUse">
   <stop stop-color="#333" offset="0"/>
   <stop offset="1"/>
  </radialGradient>
  <linearGradient id="d" x1="500" x2="512.89" y1="64" y2="972.04" gradientUnits="userSpaceOnUse">
   <stop stop-color="#1775d1" stop-opacity=".7" offset="0"/>
   <stop stop-color="#1775d1" offset="1"/>
  </linearGradient>
 </defs>
 <path d="m966.34 324.41q-8.928-21.645-20.14-42.408c-4.2044-7.8379-8.6684-15.624-13.392-23.254-20.296-32.909-45.055-64.001-74.279-93.225-95.664-95.664-211.21-143.52-346.53-143.52s-250.81 47.858-346.48 143.52c-95.664 95.664-143.52 211.16-143.52 346.48s47.858 250.87 143.52 346.53c95.664 95.664 211.16 143.47 346.48 143.47s250.87-47.806 346.53-143.47c52.685-52.737 90.889-111.5 114.56-176.22 19.257-52.789 28.912-109.52 28.912-170.31 0-46.612-5.6579-90.889-17.025-132.83-1.2977-4.7235-2.6472-9.447-4.0487-14.119-4.2564-13.807-9.1356-27.355-14.586-40.643z" fill="url(#b)" stroke-width="1.0381"/>
 <path d="m515.57 929.43c-229.39 0-416.01-186.62-416.01-416.01s186.62-416.01 416.01-416.01 416.01 186.62 416.01 416.01-186.62 416.01-416.01 416.01z" fill="url(#d)"/>
 <path d="m515.57 191.36c-177.87 0-322.07 144.2-322.07 322.07s144.2 322.07 322.07 322.07 322.07-144.2 322.07-322.07-144.2-322.07-322.07-322.07z" fill="url(#e)"/>
 <path d="m515.57 352.39c-88.936 0-161.03 72.099-161.03 161.03 0 88.936 72.099 161.03 161.03 161.03 88.936 0 161.03-72.099 161.03-161.03 0-88.936-72.099-161.03-161.03-161.03z" fill="url(#c)"/>
 <path d="m450.92 744v-244.42l44.662-44.662-44.662-44.683v-127.38h129.31v244.42l-44.662 44.683 44.662 44.662v127.38z" fill="url(#a)"/>
</svg>
