<svg clip-rule="evenodd" fill-rule="evenodd" stroke-linejoin="round" stroke-miterlimit="2" viewBox="0 0 48 48" xmlns="http://www.w3.org/2000/svg">
 <linearGradient id="a" x2="1" gradientTransform="matrix(0 -33.171 33.171 0 23.136 40.437)" gradientUnits="userSpaceOnUse">
  <stop stop-color="#8f000e" offset="0"/>
  <stop stop-color="#c4387f" offset="1"/>
 </linearGradient>
 <linearGradient id="b" x2="1" gradientTransform="matrix(0 -42.045 42.045 0 23.5 45.32)" gradientUnits="userSpaceOnUse">
  <stop stop-color="#ff3500" offset="0"/>
  <stop stop-color="#ff9800" offset="1"/>
 </linearGradient>
 <path d="m8.4145 14.637h31.211v18.727h-31.211z" fill-rule="nonzero" stroke-width="1.0404"/>
 <path d="m8.415 7.354v8.323h6.242v16.646h-6.242v8.323h31.211v-8.323h-7.283v-16.646h7.283v-8.323zm-6.243 24.934v8.358h4.162v-8.358zm38.494 0v8.358h4.162v-8.358zm-28.09 3.156h3.121v2.081h-3.121zm6.242 0h3.121v2.081h-3.121zm6.243 0h3.121v2.081h-3.121zm6.242 0h3.121v2.081h-3.121zm-13.525-19.767h11.444v16.646h-11.444zm-5.202-5.202h3.121v2.081h-3.121zm6.242 0h3.121v2.081h-3.121zm6.243 0h3.121v2.081h-3.121zm6.242 0h3.121v2.081h-3.121zm-29.131-3.121v8.418h4.162v-8.418zm38.494 0v8.418h4.162v-8.418z" fill="url(#a)" fill-rule="nonzero"/>
 <path d="m9.455 41.686h3.641c.862 0 1.561.7 1.561 1.561s-.699 1.561-1.561 1.561h-5.202c-.862 0-1.56-.699-1.56-1.561v-38.494c0-.862.698-1.561 1.56-1.561h5.202c.862 0 1.561.7 1.561 1.561s-.699 1.561-1.561 1.561h-3.641zm28.09-35.372h-3.641c-.862 0-1.561-.7-1.561-1.561s.699-1.561 1.561-1.561h5.202c.862 0 1.56.699 1.56 1.561v38.494c0 .862-.698 1.561-1.56 1.561h-5.202c-.862 0-1.561-.7-1.561-1.561s.699-1.561 1.561-1.561h3.641z" fill="url(#b)"/>
</svg>
