<svg viewBox="0 0 48 48" xmlns="http://www.w3.org/2000/svg">
 <linearGradient id="a" x1="24" x2="24" y1="1" y2="47" gradientUnits="userSpaceOnUse">
  <stop stop-color="#fafafa" offset="0"/>
  <stop stop-color="#dcdcdc" offset="1"/>
 </linearGradient>
 <linearGradient id="b" x1="24" x2="24" y1="47" y2=".99999" gradientUnits="userSpaceOnUse">
  <stop stop-color="#c52828" offset="0"/>
  <stop stop-color="#ff5454" offset="1"/>
 </linearGradient>
 <g stroke-width="1.15">
  <rect x="1" y="1" width="46" height="46" ry="23" fill="url(#b)"/>
  <path d="m24 1c-1.018 0-2.0177 0.072225-3 0.19922v5.0684c0.97723-0.163 1.9751-0.26758 3-0.26758s2.0228 0.10458 3 0.26758v-5.0684c-0.98235-0.12699-1.982-0.19922-3-0.19922zm-14.014 4.7441c-1.5932 1.2228-3.0194 2.649-4.2422 4.2422l3.584 3.584c1.167-1.6422 2.6-3.0752 4.2422-4.2422zm28.027 0-3.584 3.584c1.6422 1.167 3.0752 2.6 4.2422 4.2422l3.584-3.584c-1.2228-1.5932-2.649-3.0194-4.2422-4.2422zm-14.014 2.2559c-8.864 0-16 7.136-16 16s7.136 16 16 16 16-7.136 16-16-7.136-16-16-16zm0 1c8.31 0 15 6.69 15 15s-6.69 15-15 15-15-6.69-15-15 6.69-15 15-15zm-10.719 9.3125v2.5156h1.3203l0.10938-1.3047h2.5312v8.9609l-1.2734 0.21875v0.98438h4.0859v-0.98438l-1.2734-0.21875v-8.9609h2.5234l0.11719 1.3047h1.3125v-2.5156zm10.297 0v0.99219l1.2734 0.21875v8.9609l-1.2734 0.21875v0.98438h4.0859v-0.98438l-1.2734-0.21875v-3.8203h5.5156v3.8203l-1.2734 0.21875v0.98438h4.0859v-0.98438l-1.2734-0.21875v-8.9609l1.2734-0.21875v-0.99219h-4.0859v0.99219l1.2734 0.21875v3.9297h-5.5156v-3.9297l1.2734-0.21875v-0.99219zm-22.379 2.6875c-0.12699 0.98235-0.19922 1.982-0.19922 3s0.072225 2.0177 0.19922 3h5.0684c-0.163-0.97723-0.26758-1.9751-0.26758-3s0.10458-2.0228 0.26758-3zm40.533 0c0.163 0.97723 0.26758 1.9751 0.26758 3s-0.10458 2.0228-0.26758 3h5.0684c0.12699-0.98235 0.19922-1.982 0.19922-3s-0.072225-2.0177-0.19922-3zm-32.404 13.43-3.584 3.584c1.2228 1.5932 2.649 3.0194 4.2422 4.2422l3.584-3.584c-1.6422-1.167-3.0752-2.6-4.2422-4.2422zm29.344 0c-1.167 1.6422-2.6 3.0752-4.2422 4.2422l3.584 3.584c1.5932-1.2228 3.0194-2.649 4.2422-4.2422zm-17.672 7.3027v5.0684c0.98235 0.12699 1.982 0.19922 3 0.19922s2.0177-0.072225 3-0.19922v-5.0684c-0.97723 0.163-1.9751 0.26758-3 0.26758s-2.0228-0.10458-3-0.26758z" fill="url(#a)"/>
 </g>
</svg>
