<svg version="1.1" viewBox="0 0 1024 1024" xmlns="http://www.w3.org/2000/svg" xmlns:xlink="http://www.w3.org/1999/xlink">
 <defs>
  <linearGradient id="c">
   <stop stop-color="#00b8ff" offset="0"/>
   <stop stop-color="#007bff" offset="1"/>
  </linearGradient>
  <linearGradient id="a">
   <stop stop-color="#f6f7f7" offset="0"/>
   <stop stop-color="#dce7f0" offset="1"/>
  </linearGradient>
  <linearGradient id="e" x1="97.551" x2="97.551" y1="-3.6735" y2="204.49" gradientTransform="matrix(4.9 0 0 4.9 22 50.362)" gradientUnits="userSpaceOnUse" xlink:href="#c"/>
  <linearGradient id="d" x1="520" x2="520" y1="52.362" y2="1052.4" gradientTransform="translate(.49805 -.49805)" gradientUnits="userSpaceOnUse" xlink:href="#c"/>
  <linearGradient gradientUnits="userSpaceOnUse" xlink:href="#a"/>
  <linearGradient id="f" x1="540.14" x2="540.14" y1="29.77" y2="1055" gradientTransform="matrix(.99492 0 0 .99492 2.599 2.7429)" gradientUnits="userSpaceOnUse">
   <stop stop-color="#fff" stop-opacity=".58824" offset="0"/>
   <stop stop-color="#fff" stop-opacity="0" offset="1"/>
  </linearGradient>
  <linearGradient id="g" x1="520" x2="520" y1="52.362" y2="1052.4" gradientTransform="translate(0 -28.362)" gradientUnits="userSpaceOnUse">
   <stop stop-color="#f6f7f7" offset="0"/>
   <stop stop-color="#e9eff3" stop-opacity=".66935" offset=".52"/>
   <stop stop-color="#dce7f0" stop-opacity=".82661" offset="1"/>
  </linearGradient>
  <linearGradient id="b" x1="760" x2="760" y1="412.36" y2="672.36" gradientTransform="translate(0,40)" gradientUnits="userSpaceOnUse" xlink:href="#a"/>
  <filter id="i" color-interpolation-filters="sRGB">
   <feFlood flood-color="rgb(0,0,0)" flood-opacity=".29412" result="flood"/>
   <feComposite in="flood" in2="SourceGraphic" operator="in" result="composite1"/>
   <feGaussianBlur in="composite1" result="blur" stdDeviation="10"/>
   <feOffset dx="0" dy="10" result="offset"/>
   <feComposite in="offset" in2="SourceGraphic" operator="out" result="composite2"/>
  </filter>
  <linearGradient id="h" x1="520" x2="520" y1="52.362" y2="1052.4" gradientTransform="translate(-1059 -23.918)" gradientUnits="userSpaceOnUse" xlink:href="#a"/>
  <filter id="k" x="-.72" y="-.72" width="2.44" height="2.44" color-interpolation-filters="sRGB">
   <feGaussianBlur stdDeviation="45"/>
  </filter>
  <filter id="j" color-interpolation-filters="sRGB">
   <feFlood flood-color="rgb(0,157,255)" flood-opacity=".49804" result="flood"/>
   <feComposite in="flood" in2="SourceGraphic" operator="out" result="composite1"/>
   <feGaussianBlur in="composite1" result="blur" stdDeviation="35"/>
   <feOffset dx="0" dy="3" result="offset"/>
   <feComposite in="offset" in2="SourceGraphic" operator="in" result="composite2"/>
  </filter>
 </defs>
 <g transform="translate(0 -28.362)">
  <g>
   <circle cx="512" cy="540.36" r="490" color="#000000" fill="url(#e)"/>
   <circle cx="512" cy="540.36" r="487.51" color="#000000" fill="none" stroke="url(#f)" stroke-width="4.975"/>
   <circle cx="512" cy="540.36" r="468.66" color="#000000" fill="url(#d)"/>
   <path transform="translate(0 28.362)" d="m375.93 64.166c-0.39039 0.10103-0.74875 0.19398-1.209 0.31836-0.03 0.07978-0.058 0.16041-0.0879 0.24023 0.44699-0.1838 0.89424-0.36939 1.2969-0.55859zm593.8 37.951c1.3894 0.86535 4.5871 2.9052 3.6055 2.291-1.7503-1.095-2.4903-1.579-3.6055-2.291zm-510.04 15.314c-5.5056 0-10.095-8.6e-4 -12.848 2.752-1.8352 2.7528-3.6699 5.5046-3.6699 7.3398 0 1.8352 0.91675 3.6707 2.752 5.5059 2.7528 1.8352 4.5886 2.7543 6.4238 3.6719 1.8352 0.91761 4.589 1.8344 7.3418 2.752 2.7528 0.91761 4.5882 1.8359 5.5058 1.8359 5.5056 4.588 7.3391 7.3406 5.5039 9.1758-0.9176 0-2.7511 0.91639-5.5039 1.834-2.7528 0.91761-5.5066 1.8363-7.3418 2.7539-1.8352 0.91761-3.6699 1.8344-3.6699 2.752-0.9176 1.8352-0.9176 4.5878 0 9.1758 0.9176 4.588 0.91723 7.3425-0.91797 9.1777-1.8352-1.8352-3.6706-5.5061-5.5059-11.012-1.8352-5.5056-2.7527-9.1761-4.5879-10.094 2.7528 3.6704-2.7532 5.5051-15.6 3.6699l-6.4219-0.91797c-1.8352 0-5.5057 3.6e-4 -10.094 0.91797-5.5056 0.9176-9.1772 0.91796-12.848 0.91796s-6.4226-1.8354-8.2578-5.5058-1.8352-7.3401 0-12.846c0-1.8352 0.91675-1.8356 2.752-0.91797-1.8352-0.91761-3.6694-3.671-7.3398-6.4238-2.7528-2.7528-5.5062-4.5883-6.4238-5.5059-19.27 6.4232-39.457 14.682-59.645 25.693 2.7528 0 5.5066-3.7e-4 7.3418-0.91797 1.8352-0.91761 4.5874-1.8351 8.2578-4.5879 3.6704-1.8352 5.5062-2.7523 6.4238-3.6699 14.682-5.5056 22.939-7.3407 26.609-4.5879l2.7539-2.7539c5.5056 6.4232 10.093 11.929 12.846 15.6-2.7528-1.8352-9.1759-1.8356-19.27-0.91797-8.2584 2.7528-12.846 5.5066-13.764 7.3418 2.7528 5.5056 3.6696 9.1749 2.752 11.928-1.8352-0.91761-4.587-3.6691-7.3398-6.4219-2.7528-2.7528-6.423-5.5066-9.1758-7.3418-2.7528-1.8352-6.423-2.752-9.1758-2.752-6.4232 0-11.93 3.6e-4 -13.766 0.91797-59.644 33.034-110.11 79.831-147.73 140.39 2.7528 2.7528 5.5046 4.5883 7.3398 5.5059 1.8352 0 2.7539 2.753 2.7539 5.5059 0 3.6704 0.91639 5.5046 1.834 7.3398 0.9176 0.9176 2.7538 0.91883 7.3418-1.834 3.6704 3.6704 4.5868 7.3397 1.834 11.928 0 0 10.093 5.5067 28.445 17.436 8.2584 7.3408 12.848 11.928 13.766 13.764 0.9176 4.588-0.91822 8.2573-6.4238 11.928 0-0.9176-2.753-2.7511-5.5059-5.5039-3.6704-2.7528-5.5059-3.6715-5.5059-2.7539-0.9176 1.8352-0.9176 6.4241 0 11.93 1.8352 5.5056 3.671 8.2578 6.4238 8.2578-2.7528 0-4.5886 3.6705-6.4238 10.094-0.9176 6.4232-1.834 14.681-1.834 22.939 0 8.2584-3.7e-4 12.846-0.91797 14.682l0.91797 0.91797c-0.9176 5.5056-4.9e-4 12.847 3.6699 22.023 3.6704 9.176 8.258 13.763 13.764 12.846-5.5056 0.9176-0.91834 10.093 12.846 27.527 2.7528 3.6704 4.5883 5.5059 5.5059 5.5059 0.9176 0.9176 3.6714 2.7527 7.3418 4.5879 3.6704 2.7528 7.3406 4.5886 9.1758 6.4238l6.4238 6.4238c1.8352 1.8352 3.6691 7.3408 6.4219 14.682 2.7528 7.3408 5.5054 12.846 9.1758 14.682-0.91761 2.7528 0.91821 6.4225 6.4238 12.846 4.588 5.5056 7.3414 11.011 6.4238 14.682 0 0-0.91833 3.6e-4 -1.8359 0.91797-0.9176 0-0.91638 0.91797-1.834 0.91797 0.9176 2.7528 4.5881 5.5054 10.094 9.1758 5.5056 2.7528 8.2566 5.505 10.092 8.2578 0 0.91761 0.91796 3.671 0.91796 6.4238s0.91834 5.5046 1.8359 7.3398 2.753 1.8356 5.5059 0.91796c0.9176-8.2584-4.5884-22.023-15.6-39.457-6.4232-11.011-10.094-16.516-11.012-18.352-0.9176-1.8352-2.7523-5.5057-3.6699-10.094-0.9176-4.588-1.8344-7.3406-2.752-9.1758 0.9176 0 1.8347 3.7e-4 3.6699 0.91797 1.8352 0.91761 3.6707 1.834 5.5059 1.834 1.8352 0.9176 3.6703 1.8363 4.5879 2.7539 0.9176 0.9176 1.8356 1.834 0.91797 1.834-0.9176 2.7528-0.91919 6.4237 0.91601 11.012 1.8352 4.588 4.589 8.2593 7.3418 11.93s6.4237 7.3397 11.012 11.928c4.588 4.588 6.4222 7.3422 7.3398 8.2598 2.7528 2.7528 5.5054 6.4225 9.1758 12.846 3.6704 5.5056 3.6704 8.2578 0 8.2578 3.6704 0 8.2596 1.8358 12.848 6.4238 4.588 4.588 8.257 8.2577 11.01 12.846 1.8352 3.6704 3.6707 9.1768 5.5059 16.518 0.91761 7.3408 2.7539 12.847 2.7539 15.6 0.9176 2.7528 2.753 5.505 5.5059 8.2578s5.505 4.5886 8.2578 6.4238c2.7528 0.9176 5.5057 2.753 10.094 5.5059 4.588 1.8352 7.3402 3.6703 8.2578 4.5879 1.8352 0.91761 6.4241 2.7515 11.93 6.4219 5.5056 3.6704 10.093 6.4242 13.764 7.3418 4.588 1.8352 7.3409 2.752 10.094 2.752s5.5054-0.91638 9.1758-1.834c3.6704-0.91759 6.4226-1.8359 8.2578-1.8359 6.4232-0.91761 12.846 2.7526 18.352 9.1758 5.5056 7.3408 10.095 11.928 13.766 13.764 15.409 8.1578 26.336 10.04 34.561 7.4316-0.59493 0.39698-0.4914 2.098 0.3086 4.498 0.9176 2.7528 2.7511 6.4233 5.5039 10.094 2.7528 3.6704 4.5882 7.3406 5.5059 9.1758 1.8352 2.7528 2.7543 4.5883 3.6719 5.5059 1.8352 2.7528 5.5045 5.5054 11.928 9.1758 5.5056 3.6704 9.1769 7.3406 11.93 9.1758 2.7528-1.8352 3.6703-3.6706 4.5879-5.5059-0.9176 3.6704-1.3e-4 7.342 4.5879 12.848 4.588 5.5056 8.2573 7.3395 11.928 6.4219 5.5056-0.91761 9.1777-8.2587 9.1777-20.188-12.846 6.4232-23.858 2.7539-31.199-11.928 0 0-0.91834-1.8347-1.8359-3.6699-0.91761-1.8352-1.8344-3.6706-2.752-5.5059-0.91761-1.8352-0.91834-3.6706-1.8359-5.5059v-4.5879c0-0.9176 1.8363-1.8359 2.7539-1.8359 3.6704 0 5.5043-0.91638 6.4219-1.834 0-1.8352 2e-3 -4.5894-0.91601-8.2598-0.91761-3.6704-1.8363-6.4226-2.7539-8.2578 0-3.6704-2.7518-7.3401-7.3398-12.846-4.588-5.5056-6.4242-8.2601-7.3418-9.1777-1.8352 3.6704-5.5057 5.5059-10.094 5.5059-4.588 0-8.2586-2.753-10.094-5.5059 0 0-3.6e-4 1.8367-0.91797 3.6719-0.9176 1.8352-0.91601 3.6703-0.91601 4.5879-5.5056 0-8.2601-3.6e-4 -9.1777-0.91797 0-0.9176 0.91833-4.5885 1.8359-11.012 0.9176-6.4232 0.91834-11.011 1.8359-14.682 0-1.8352 1.8347-4.587 3.6699-7.3398 1.8352-3.6704 3.6703-6.423 4.5879-9.1758 0.9176-2.7528 1.8343-5.507 2.752-8.2598 0-2.7528-0.91675-4.5867-2.752-6.4219-2.7528-1.8352-6.4237-1.8359-11.012-1.8359-8.2584 0-13.763 4.5873-16.516 12.846 0 0.91761-0.91833 3.671-1.8359 6.4238-0.9176 2.7528-1.8343 5.5046-2.752 7.3398-0.9176 1.8352-2.7531 2.7546-5.5059 4.5898-3.6704-2.7528-8.2588-2.7539-15.6-2.7539-7.3408 0-11.929-1.8344-15.6-2.752-5.5056-3.6704-10.094-9.1775-14.682-18.354-3.6704-9.176-6.4238-16.517-6.4238-23.857 0-4.588 0.91834-10.092 1.8359-16.516 0.9176-7.3408 1.8359-11.929 1.8359-15.6 0-3.6704-0.91906-9.1764-3.6719-15.6 0.91761-0.9176 2.753-2.7534 5.5059-6.4238 2.7528-2.7528 4.5886-5.5043 6.4238-6.4219 0.91761 0 1.8344-0.91797 2.752-0.91797h2.7539c0.9176 0 1.8344-3.6e-4 2.752-0.91797 0.9176-0.9176 1.8359-1.8347 1.8359-3.6699 0 0-0.91871-0.91834-2.7539-1.8359-0.67447-0.67446-1.349-1.3423-2.0234-1.6523-0.25008-0.0585-0.52011-0.11217-0.72851-0.18164 0.24314 0 0.48537 0.0699 0.72851 0.18164 3.0532 0.71485 9.1417 0.59665 17.623-1.0996 9.176-1.8352 14.683-1.8348 17.436 0.91797 6.4232 4.588 11.011 4.5876 13.764-0.91797 0 0-0.91833-2.7534-1.8359-6.4238-0.9176-3.6704-0.9176-6.4226 0-8.2578 1.8352 11.929 8.2579 13.764 18.352 5.5059 0.91761 0.9176 4.5881 2.752 10.094 2.752 5.5056 0.9176 9.1765 1.8344 11.012 2.752 0.91761 0.91761 2.7527 1.8367 4.5879 3.6719 1.8352 1.8352 2.7543 2.752 3.6719 2.752h2.752c1.8352-0.91761 3.6706-1.8351 5.5059-4.5879 4.588 5.5056 6.4222 11.012 7.3398 15.6 4.588 17.434 8.2593 26.61 11.93 28.445 2.7528 0.91761 5.5046 1.8356 7.3398 0.91797 1.8352 0 2.7539-2.7534 2.7539-6.4238v-9.1758c0-2.7528-0.91797-4.5874-0.91797-8.2578l1.8359-4.5879v-11.93l-0.91797-5.5059c-6.4232-0.9176-10.094-3.6694-11.93-7.3398-1.8352-3.6704-0.91724-7.3417 0.91797-11.93 1.8352-3.6704 5.5054-8.2573 9.1758-11.928 0 0 1.8354-0.91834 5.5059-1.8359 2.7528-0.9176 6.4233-2.7527 10.094-4.5879 3.6704-1.8352 6.4226-3.6707 8.2578-5.5059 9.176-8.2584 11.929-15.598 9.1758-22.021 2.7528 0 5.5066-1.8354 7.3418-5.5059 0 0-1.8344-0.91834-2.752-1.8359-1.8352-0.9176-3.6722-2.752-4.5898-2.752-1.8352-0.9176-2.752-0.91797-2.752-0.91797 3.6704-1.8352 4.5884-5.5057 0.91797-10.094 1.8352-0.91761 3.6703-3.6714 4.5879-7.3418 0.91761-3.6704 2.7527-5.5043 4.5879-6.4219 3.6704 5.5056 8.2581 5.504 13.764 0.91602 2.7528-3.6704 2.7532-6.4214 0.91797-10.092 1.8352-2.7528 6.4225-5.5062 12.846-6.4238 6.4232-1.8352 10.094-3.671 11.93-6.4238 2.7528 0.9176 4.5882-3.7e-4 5.5058-0.91797 0-1.8352 0.91797-4.587 0.91797-7.3398 0-3.6704 0.91639-5.5066 1.834-7.3418 1.8352-1.8352 4.5878-3.6706 9.1758-5.5059 4.588-1.8352 7.3422-2.752 8.2598-2.752l11.01-7.3398c0.9176-1.8352 0.9176-2.7539 0-2.7539 7.3408 0.9176 14.682-1.8342 20.188-7.3398 4.588-4.588 2.7533-9.1772-3.6699-12.848 0.91761-2.7528 0.91687-4.5867-1.8359-6.4219-2.7528-1.8352-5.5054-2.7543-9.1758-3.6719 0.9176 0 3.6714-0.9176 7.3418 0 3.6704 0 5.5043-3.7e-4 6.4219-0.91797 6.4232-4.588 4.5881-7.339-4.5879-10.092-7.3408-1.8352-16.516-9.9e-4 -27.527 7.3398-0.91761 0-2.7534 2.7534-6.4238 6.4238-2.1679 2.8906-4.8705 4.6174-6.832 5.6797-0.47506 0.49188-0.95073 0.74219-1.4258 0.74219 0.38992-0.19497 0.89656-0.45558 1.4258-0.74219 0.44255-0.45823 0.88362-1.1247 1.3262-2.0098 0.9176-1.8352 1.8363-4.589 2.7539-7.3418 0.9176-2.7528 1.8359-3.6703 1.8359-4.5879 2.7528-2.7528 7.3405-6.423 13.764-9.1758 5.5056-2.7528 17.434-5.5046 33.033-7.3398 14.682-3.6704 25.692-0.91858 32.115 7.3398-0.9176-0.91759 0.91821-3.6698 6.4238-8.2578 4.588-4.588 8.2582-7.3418 9.1758-7.3418 0.9176-0.9176 4.5878-1.8344 9.1758-2.752 5.5056-0.9176 8.2601-2.7527 9.1777-4.5879l0.91601-13.764c-5.5056 0-9.1746-0.91748-11.01-4.5879-2.7528-3.6704-3.6703-8.258-4.5879-13.764 0 0.9176-0.91907 2.7511-3.6719 5.5039 0-2.7528-0.91674-4.5863-2.752-5.5039-1.8352 0-4.589-2e-3 -7.3418 0.91601-2.7528 0.91761-4.5883 0.91797-5.5059 0.91797-4.588-0.91761-7.3406-2.7527-9.1758-4.5879-1.8352-1.8352-3.6706-5.5057-5.5059-10.094-0.9176-5.5056-1.8343-8.2582-2.752-9.1758-0.9176-1.8352-2.7534-4.5886-6.4238-6.4238-2.7528-2.7528-5.5043-4.5867-6.4219-6.4219 0-0.91761-0.91834-1.8367-1.8359-3.6719-0.91761-1.8352-0.91834-2.7527-1.8359-4.5879s-1.8344-2.7523-2.752-3.6699-1.8347-1.8359-3.6699-1.8359c-0.9176 0-2.7527 0.91871-4.5879 2.7539-1.8352 1.8352-3.6703 4.5886-4.5879 6.4238l-2.7539 2.752c-0.9176-0.9176-2.7523-0.91797-3.6699-0.91797-0.91761 0-1.8363 3.7e-4 -2.7539 0.91797-0.9176 0-1.8344 0.91833-2.752 1.8359-0.9176 0.9176-2.752 1.834-2.752 1.834-0.9176 0.91761-2.753 1.8359-5.5059 1.8359-2.7528 0-4.5882 0.91797-5.5058 0.91797 6.4232-1.8352 6.4229-4.589-0.91797-7.3418-4.588-1.8352-7.3409-2.7516-10.094-1.834 3.6704-1.8352 5.5055-4.589 4.5879-7.3418-0.9176-3.6704-2.7531-6.423-5.5059-9.1758h2.7539c0-1.8352-1.8354-3.6706-5.5059-5.5059-2.7528-1.8352-7.3413-3.6706-11.012-5.5059-4.588-1.8352-7.3402-2.7523-8.2578-3.6699-3.6704-1.8352-11.012-4.5886-22.023-6.4238-11.011-1.8352-18.351-1.8352-21.104 0-1.8352 2.7528-2.7539 4.5886-2.7539 6.4238s0.91871 4.5878 2.7539 9.1758c1.8352 3.6704 1.834 6.4226 1.834 8.2578 0 2.7528-0.91711 5.507-3.6699 8.2598s-4.5879 5.5046-4.5879 7.3398c0 2.7528 2.7526 6.4233 9.1758 10.094 5.5056 3.6704 8.259 8.258 6.4238 13.764-0.9176 3.6704-4.5881 6.4233-10.094 10.094s-9.1762 5.5066-10.094 7.3418c-1.8352 3.6704-2.7532 7.3397-0.91797 11.928 1.8352 4.588 3.671 8.2586 6.4238 10.094 0.91761 0.91761 0.91602 1.8363 0.91602 2.7539 0 0.91761-0.91639 1.8344-1.834 2.752-0.9176 0.91761-2.7523 1.8363-3.6699 2.7539s-2.7527 1.834-4.5879 1.834l-1.8359 0.91797c-4.588 1.8352-9.1753 0.91809-12.846-3.6699-3.6704-4.588-7.3422-10.094-8.2598-16.518-2.7528-11.011-6.4233-17.434-10.094-19.27-10.094-3.6704-15.599-2.7524-18.352 0.91797-1.8352-5.5056-11.012-11.012-25.693-16.518-10.857-3.6189-22.609-4.5556-36.129-2.8223 2.1558-0.50669 1.9689-4.0192-0.57422-9.1055-2.7528-6.4232-7.3417-9.177-11.93-7.3418 0.91761-2.7528 1.8363-6.4237 2.7539-11.012 0-4.588 0.91601-7.3402 0.91601-8.2578 0.91761-5.5056 3.6714-10.094 7.3418-14.682 0 0 1.8351-1.8354 4.5879-5.5059 2.7528-2.7528 4.5886-6.4226 6.4238-8.2578 1.5588-2.3382 1.7787-3.3432 0.68945-3.5957 14.333 1.6626 25.105-1.095 31.426-7.416 1.8352-1.8352 4.589-5.5061 7.3418-11.012s4.5867-8.257 6.4219-11.01c3.6704-2.7528 6.423-3.6719 9.1758-3.6719 1.8352 0 5.5073 1.8367 9.1777 3.6719 3.6704 1.8352 7.3406 2.752 9.1758 2.752 5.5056 0 9.1761-1.8342 10.094-7.3398 0.9176-5.5056-0.91748-9.1772-4.5879-12.848 5.5056 0 5.5044-2.7533 1.834-11.012-1.8352-2.7528-3.6706-4.5863-5.5059-5.5039-5.5056-1.8352-11.01-0.91846-17.434 2.752-3.6704 1.8352-2.7524 3.6706 0.91797 5.5059 0 0-2.7534 1.8358-6.4238 6.4238-3.6704 4.588-7.3409 8.257-10.094 11.01-3.6704 2.7528-6.4233 1.836-10.094-2.752 0 0-1.8347-3.6698-3.6699-8.2578-1.8352-5.5056-3.671-8.2598-6.4238-8.2598-3.6704 0-6.4233 2.7526-10.094 9.1758 0.91761-3.6704-0.91662-6.423-7.3398-9.1758-5.5056-2.7528-11.012-4.5883-15.6-5.5059 8.2584-5.5056 6.423-11.01-5.5059-17.434-2.7528-1.8352-7.3401-2.752-12.846-2.752zm474.39 193.46a468.66 468.66 0 0 1 0.0625 0.14453c0.20583 0.16235 0.2775 0.21779 0.51368 0.4043-0.19413-0.18061-0.38282-0.36734-0.57618-0.54883zm2.5078 5.0938c0.0627 0.15863 0.12792 0.32529 0.19336 0.4961 0.71965 0.62437 1.4375 1.2495 2.1562 1.875-2e-3 -0.0123-8e-3 -0.0369-0.01-0.0488-0.78082-0.7732-1.5609-1.5472-2.3398-2.3223zm7.9785 16.766c1.0836 1.3743 2.2123 2.7159 3.3184 4.0703 6e-3 -0.12365 9e-3 -0.20667 0.0156-0.33594-1.1023-1.2522-2.221-2.491-3.334-3.7344zm-0.10351 1.3438a468.66 468.66 0 0 1 0.18359 0.41015c0.95273 1.4727 1.9811 3.0694 3.1406 4.877 2e-3 -0.0833 5e-3 -0.1667 8e-3 -0.25-1.076-1.5908-2.2055-3.3022-3.332-5.0371zm4.6484 3.7852c0.0137 0.12629 0.0275 0.25259 0.041 0.37891 0.85619 0.90796 1.7948 1.8351 1.3223 1.252-0.44582-0.55022-0.90305-1.0918-1.3633-1.6309zm0.3711 3.7734c0.0129 0.13861 0.0244 0.27738 0.0371 0.41602 1.061 1.6496 1.8002 2.7759 2.4336 3.7324v-0.31445c-0.70061-1.159-1.558-2.4677-2.4707-3.834zm-295.06 389.31c-0.65953 0-1.3489 0.11435-2.0371 0.34375-2.7528 0.9176-5.5046 1.8363-7.3398 2.7539-1.8352 0.9176-4.589 2.7531-7.3418 5.5059-2.7528 2.7528-4.5882 3.6703-5.5059 4.5879-0.9176 0-2.7511 1.8347-5.5039 3.6699-2.7528 1.8352-4.5883 3.6703-5.5059 4.5879-0.91761 1.8352-2.7543 4.587-3.6719 7.3398-0.91761 3.6704-2.752 5.5066-2.752 7.3418-0.91761-1.8352-3.6694-2.7527-7.3398-4.5879-3.2859-0.82147-5.8318-1.6452-6.3301-3.125 0.88602 4.6131 1.7722 11.73 2.6582 21.477 0.9176 11.011 1.8363 18.352 2.7539 23.857 2.7528 12.846-9.8e-4 22.94-7.3418 30.281-11.929 11.011-17.434 19.27-18.352 25.693-1.8352 9.176 0.91663 14.68 7.3398 16.516 0 2.7528-1.8335 7.342-5.5039 12.848-0.9176 5.5056-1.8359 10.093-1.8359 13.764 0 2.7528 3.7e-4 5.5057 0.91797 10.094 87.172-15.599 162.42-55.055 223.89-120.21-0.9176-0.9176-3.6698-1.8363-8.2578-2.7539-3.6704-0.9176-6.4246-0.91834-8.2598-1.8359-7.3408-2.7528-12.845-4.5863-15.598-5.5039 0-2.7528-7.3e-4 -5.507-1.8359-8.2598s-2.753-4.5882-5.5059-5.5059c-1.8352-0.9176-4.5874-2.7511-8.2578-5.5039-3.6704-1.8352-5.5066-3.6722-7.3418-4.5898-0.9176-0.9176-2.7527-1.8347-4.5879-3.6699-1.8352-1.8352-3.6703-2.7523-4.5879-3.6699-0.9176-0.91761-2.7527-1.8344-4.5879-2.752-2.7528-0.91761-4.5883-1.8356-5.5059-0.91797-0.91761 0-3.6691 0.91797-6.4219 0.91797l-1.8359 0.91601c-0.9176 0-2.7523 0.91833-3.6699 1.8359-0.9176 0.9176-1.8367 0.91834-3.6719 1.8359-0.91761 0.9176-1.8344 0.91637-2.752 1.834v1.8359c-9.176-7.3408-16.516-11.928-22.939-13.764-1.8352 0-4.589-1.8367-7.3418-3.6719-2.7528-1.8352-4.5886-3.6703-6.4238-4.5879-1.8352-0.9176-3.6691-0.91797-6.4219-0.91797-2.7528 0-4.589 1.837-7.3418 4.5898-1.8352 1.8352-3.6699 5.5054-3.6699 9.1758 0 4.588-0.91797 7.3402-0.91797 8.2578-2.7528-1.8352-2.7528-5.5061 0-11.012 2.7528-5.5056 3.6708-9.1749 0.91797-11.928-0.6882-2.0646-2.4081-3.0977-4.3867-3.0977zm88.064 188.65a468.66 468.66 0 0 1-1.0137 0.58203c-0.0371 0.0927-0.0743 0.17462-0.11133 0.26953 0.35261-0.16186 0.70476-0.31272 1.0566-0.46484 0.0217-0.12964 0.0465-0.25721 0.0684-0.38672zm-0.43359 2.666c-0.1899 0.11329-0.47209 0.26722-0.67969 0.38867 0.22233-0.10145 0.44392-0.20467 0.66602-0.30664 4e-3 -0.0274 9e-3 -0.0546 0.0137-0.082zm-1.3555 7.5976c-0.74293 0.0133-1.2706 0.0211-1.9316 0.0312-0.013 0.0633-0.0263 0.12647-0.0391 0.18946 0.67729-0.0625 1.2249-0.10572 1.9609-0.17774 3e-3 -0.0143 7e-3 -0.0287 0.01-0.043z" color="#000000" fill="url(#g)" opacity=".32"/>
  </g>
  <g fill="none">
   <circle cx="512" cy="540.36" r="175" style="paint-order:stroke markers fill"/>
   <circle cx="226.03" cy="825.61" r="125" style="paint-order:stroke markers fill"/>
   <path d="m360 452.36-235 300 180 170 315-245z"/>
  </g>
  <circle cx="755.41" cy="689.11" r="75" fill-opacity=".39216" fill-rule="evenodd" filter="url(#k)" style="paint-order:stroke markers fill"/>
  <g>
   <circle cx="752" cy="580.36" r="125" fill="url(#b)" fill-rule="evenodd" filter="url(#i)" style="paint-order:stroke markers fill"/>
   <circle cx="752" cy="580.36" r="125" fill="url(#b)" fill-rule="evenodd" style="paint-order:stroke markers fill"/>
   <path d="m-546.97 26.444c-89.007 0-170.67 22.023-245.92 66.068-75.243 44.045-133.97 102.77-178.01 178.01-44.045 75.243-66.068 156.91-66.068 245.92s22.023 170.67 66.068 245.92c43.127 75.243 102.77 134.89 178.01 178.01 75.243 44.045 156.91 66.068 245.92 66.068s170.67-22.023 245.92-66.068c75.243-44.045 133.97-102.77 178.01-178.01 44.045-75.243 66.068-156.91 66.068-245.92s-22.023-170.67-66.068-245.92c-44.045-75.243-102.77-133.97-178.01-178.01-75.243-44.045-156.91-66.068-245.92-66.068zm-0.49805 21.836a468.66 468.66 0 0 1 468.66 468.66 468.66 468.66 0 0 1-468.66 468.66 468.66 468.66 0 0 1-468.66-468.66 468.66 468.66 0 0 1 468.66-468.66zm-51.805 73.596c-5.5056 0-10.095-8.6e-4 -12.848 2.752-1.8352 2.7528-3.6699 5.5046-3.6699 7.3398 0 1.8352 0.91675 3.6707 2.752 5.5059 2.7528 1.8352 4.5886 2.7543 6.4238 3.6719 1.8352 0.91761 4.589 1.8344 7.3418 2.752 2.7528 0.91761 4.5882 1.8359 5.5058 1.8359 5.5056 4.588 7.3391 7.3406 5.5039 9.1758-0.9176 0-2.7511 0.91639-5.5039 1.834-2.7528 0.91761-5.5066 1.8363-7.3418 2.7539-1.8352 0.91761-3.6699 1.8344-3.6699 2.752-0.9176 1.8352-0.9176 4.5878 0 9.1758 0.9176 4.588 0.91723 7.3425-0.91797 9.1777-1.8352-1.8352-3.6706-5.5061-5.5059-11.012-1.8352-5.5056-2.7527-9.1761-4.5879-10.094 2.7528 3.6704-2.7532 5.5051-15.6 3.6699l-6.4219-0.91797c-1.8352 0-5.5057 3.6e-4 -10.094 0.91797-5.5056 0.9176-9.1772 0.91796-12.848 0.91796s-6.4226-1.8354-8.2578-5.5058-1.8352-7.3401 0-12.846c0-1.8352 0.91675-1.8356 2.752-0.91797-1.8352-0.91761-3.6694-3.671-7.3398-6.4238-2.7528-2.7528-5.5062-4.5883-6.4238-5.5059-19.27 6.4232-39.457 14.682-59.645 25.693 2.7528 0 5.5066-3.7e-4 7.3418-0.91797 1.8352-0.91761 4.5874-1.8351 8.2578-4.5879 3.6704-1.8352 5.5062-2.7523 6.4238-3.6699 14.682-5.5056 22.939-7.3407 26.609-4.5879l2.7539-2.7539c5.5056 6.4232 10.093 11.929 12.846 15.6-2.7528-1.8352-9.1759-1.8356-19.27-0.91797-8.2584 2.7528-12.846 5.5066-13.764 7.3418 2.7528 5.5056 3.6696 9.1749 2.752 11.928-1.8352-0.91761-4.587-3.6691-7.3398-6.4219-2.7528-2.7528-6.423-5.5066-9.1758-7.3418-2.7528-1.8352-6.423-2.752-9.1758-2.752-6.4232 0-11.93 3.6e-4 -13.766 0.91797-59.644 33.034-110.11 79.831-147.73 140.39 2.7528 2.7528 5.5046 4.5883 7.3398 5.5059 1.8352 0 2.7539 2.753 2.7539 5.5059 0 3.6704 0.91639 5.5046 1.834 7.3398 0.9176 0.9176 2.7538 0.91883 7.3418-1.834 3.6704 3.6704 4.5868 7.3397 1.834 11.928 0 0 10.093 5.5067 28.445 17.436 8.2584 7.3408 12.848 11.928 13.766 13.764 0.9176 4.588-0.91822 8.2573-6.4238 11.928 0-0.9176-2.753-2.7511-5.5059-5.5039-3.6704-2.7528-5.5059-3.6715-5.5059-2.7539-0.9176 1.8352-0.9176 6.4241 0 11.93 1.8352 5.5056 3.671 8.2578 6.4238 8.2578-2.7528 0-4.5886 3.6705-6.4238 10.094-0.9176 6.4232-1.834 14.681-1.834 22.939 0 8.2584-3.7e-4 12.846-0.91797 14.682l0.91797 0.91797c-0.9176 5.5056-4.9e-4 12.847 3.6699 22.023 3.6704 9.176 8.258 13.763 13.764 12.846-5.5056 0.9176-0.91834 10.093 12.846 27.527 2.7528 3.6704 4.5883 5.5059 5.5059 5.5059 0.9176 0.9176 3.6714 2.7527 7.3418 4.5879 3.6704 2.7528 7.3406 4.5886 9.1758 6.4238l6.4238 6.4238c1.8352 1.8352 3.6691 7.3408 6.4219 14.682 2.7528 7.3408 5.5054 12.846 9.1758 14.682-0.91761 2.7528 0.91821 6.4225 6.4238 12.846 4.588 5.5056 7.3414 11.011 6.4238 14.682 0 0-0.91833 3.6e-4 -1.8359 0.91797-0.9176 0-0.91638 0.91797-1.834 0.91797 0.9176 2.7528 4.5881 5.5054 10.094 9.1758 5.5056 2.7528 8.2566 5.505 10.092 8.2578 0 0.91761 0.91796 3.671 0.91796 6.4238s0.91834 5.5046 1.8359 7.3398 2.753 1.8356 5.5059 0.91796c0.9176-8.2584-4.5884-22.023-15.6-39.457-6.4232-11.011-10.094-16.516-11.012-18.352-0.9176-1.8352-2.7523-5.5057-3.6699-10.094-0.9176-4.588-1.8344-7.3406-2.752-9.1758 0.9176 0 1.8347 3.7e-4 3.6699 0.91797 1.8352 0.91761 3.6707 1.834 5.5059 1.834 1.8352 0.9176 3.6703 1.8363 4.5879 2.7539 0.9176 0.9176 1.8356 1.834 0.91797 1.834-0.9176 2.7528-0.91919 6.4237 0.91601 11.012 1.8352 4.588 4.589 8.2593 7.3418 11.93s6.4237 7.3397 11.012 11.928c4.588 4.588 6.4222 7.3422 7.3398 8.2598 2.7528 2.7528 5.5054 6.4225 9.1758 12.846 3.6704 5.5056 3.6704 8.2578 0 8.2578 3.6704 0 8.2596 1.8358 12.848 6.4238 4.588 4.588 8.257 8.2577 11.01 12.846 1.8352 3.6704 3.6707 9.1768 5.5059 16.518 0.91761 7.3408 2.7539 12.847 2.7539 15.6 0.9176 2.7528 2.753 5.505 5.5059 8.2578s5.505 4.5886 8.2578 6.4238c2.7528 0.9176 5.5057 2.753 10.094 5.5059 4.588 1.8352 7.3402 3.6703 8.2578 4.5879 1.8352 0.91761 6.4241 2.7515 11.93 6.4219 5.5056 3.6704 10.093 6.4242 13.764 7.3418 4.588 1.8352 7.3409 2.752 10.094 2.752s5.5054-0.91638 9.1758-1.834c3.6704-0.91759 6.4226-1.8359 8.2578-1.8359 6.4232-0.91761 12.846 2.7526 18.352 9.1758 5.5056 7.3408 10.095 11.928 13.766 13.764 15.409 8.1578 26.336 10.04 34.561 7.4316 0.0875-0.0584 0.19099-0.0898 0.3086-0.0898-0.10068 0.0336-0.2071 0.0576-0.3086 0.0898-0.59493 0.39698-0.4914 2.098 0.3086 4.498 0.9176 2.7528 2.7511 6.4233 5.5039 10.094 2.7528 3.6704 4.5882 7.3406 5.5059 9.1758 1.8352 2.7528 2.7543 4.5883 3.6719 5.5059 1.8352 2.7528 5.5045 5.5054 11.928 9.1758 5.5056 3.6704 9.1769 7.3406 11.93 9.1758 2.7528-1.8352 3.6703-3.6706 4.5879-5.5059-0.9176 3.6704-1.3e-4 7.342 4.5879 12.848 4.588 5.5056 8.2573 7.3395 11.928 6.4219 5.5056-0.91761 9.1777-8.2587 9.1777-20.188-12.846 6.4232-23.858 2.7539-31.199-11.928 0 0-0.91834-1.8347-1.8359-3.6699-0.91761-1.8352-1.8344-3.6706-2.752-5.5059-0.91761-1.8352-0.91834-3.6706-1.8359-5.5059v-4.5879c0-0.9176 1.8363-1.8359 2.7539-1.8359 3.6704 0 5.5043-0.91638 6.4219-1.834 0-1.8352 2e-3 -4.5894-0.91601-8.2598-0.91761-3.6704-1.8363-6.4226-2.7539-8.2578 0-3.6704-2.7518-7.3401-7.3398-12.846-4.588-5.5056-6.4242-8.2601-7.3418-9.1777-1.8352 3.6704-5.5057 5.5059-10.094 5.5059-4.588 0-8.2586-2.753-10.094-5.5059 0 0-3.6e-4 1.8367-0.91797 3.6719-0.9176 1.8352-0.91601 3.6703-0.91601 4.5879-5.5056 0-8.2601-3.6e-4 -9.1777-0.91797 0-0.9176 0.91833-4.5885 1.8359-11.012 0.9176-6.4232 0.91834-11.011 1.8359-14.682 0-1.8352 1.8347-4.587 3.6699-7.3398 1.8352-3.6704 3.6703-6.423 4.5879-9.1758 0.9176-2.7528 1.8343-5.507 2.752-8.2598 0-2.7528-0.91675-4.5867-2.752-6.4219-2.7528-1.8352-6.4237-1.8359-11.012-1.8359-8.2584 0-13.763 4.5873-16.516 12.846 0 0.91761-0.91833 3.671-1.8359 6.4238-0.9176 2.7528-1.8343 5.5046-2.752 7.3398-0.9176 1.8352-2.7531 2.7546-5.5059 4.5898-3.6704-2.7528-8.2588-2.7539-15.6-2.7539-7.3408 0-11.929-1.8344-15.6-2.752-5.5056-3.6704-10.094-9.1775-14.682-18.354-3.6704-9.176-6.4238-16.517-6.4238-23.857 0-4.588 0.91834-10.092 1.8359-16.516 0.9176-7.3408 1.8359-11.929 1.8359-15.6 0-3.6704-0.91906-9.1764-3.6719-15.6 0.91761-0.9176 2.753-2.7534 5.5059-6.4238 2.7528-2.7528 4.5886-5.5043 6.4238-6.4219 0.91761 0 1.8344-0.91797 2.752-0.91797h2.7539c0.9176 0 1.8344-3.6e-4 2.752-0.91797 0.9176-0.9176 1.8359-1.8347 1.8359-3.6699 0 0-0.91871-0.91834-2.7539-1.8359-0.67447-0.67446-1.349-1.3423-2.0234-1.6523-0.25008-0.0585-0.52011-0.11217-0.72851-0.18164 0.24314 0 0.48537 0.0699 0.72851 0.18164 3.0532 0.71485 9.1417 0.59665 17.623-1.0996 9.176-1.8352 14.683-1.8348 17.436 0.91797 6.4232 4.588 11.011 4.5876 13.764-0.91797 0 0-0.91833-2.7534-1.8359-6.4238-0.9176-3.6704-0.9176-6.4226 0-8.2578 1.8352 11.929 8.2579 13.764 18.352 5.5059 0.91761 0.9176 4.5881 2.752 10.094 2.752 5.5056 0.9176 9.1765 1.8344 11.012 2.752 0.91761 0.91761 2.7527 1.8367 4.5879 3.6719 1.8352 1.8352 2.7543 2.752 3.6719 2.752h2.752c1.8352-0.91761 3.6706-1.8351 5.5059-4.5879 4.588 5.5056 6.4222 11.012 7.3398 15.6 4.588 17.434 8.2593 26.61 11.93 28.445 2.7528 0.91761 5.5046 1.8356 7.3398 0.91797 1.8352 0 2.7539-2.7534 2.7539-6.4238v-9.1758c0-2.7528-0.91797-4.5874-0.91797-8.2578l1.8359-4.5879v-11.93l-0.91797-5.5059c-6.4232-0.9176-10.094-3.6694-11.93-7.3398-1.8352-3.6704-0.91724-7.3417 0.91797-11.93 1.8352-3.6704 5.5054-8.2573 9.1758-11.928 0 0 1.8354-0.91834 5.5059-1.8359 2.7528-0.9176 6.4233-2.7527 10.094-4.5879 3.6704-1.8352 6.4226-3.6707 8.2578-5.5059 9.176-8.2584 11.929-15.598 9.1758-22.021 2.7528 0 5.5066-1.8354 7.3418-5.5059 0 0-1.8344-0.91834-2.752-1.8359-1.8352-0.9176-3.6722-2.752-4.5898-2.752-1.8352-0.9176-2.752-0.91797-2.752-0.91797 3.6704-1.8352 4.5884-5.5057 0.91797-10.094 1.8352-0.91761 3.6703-3.6714 4.5879-7.3418 0.91761-3.6704 2.7527-5.5043 4.5879-6.4219 3.6704 5.5056 8.2581 5.504 13.764 0.91602 2.7528-3.6704 2.7532-6.4214 0.91797-10.092 1.8352-2.7528 6.4225-5.5062 12.846-6.4238 6.4232-1.8352 10.094-3.671 11.93-6.4238 2.7528 0.9176 4.5882-3.7e-4 5.5058-0.91797 0-1.8352 0.91797-4.587 0.91797-7.3398 0-3.6704 0.91639-5.5066 1.834-7.3418 1.8352-1.8352 4.5878-3.6706 9.1758-5.5059 4.588-1.8352 7.3422-2.752 8.2598-2.752l11.01-7.3398c0.9176-1.8352 0.9176-2.7539 0-2.7539 7.3408 0.9176 14.682-1.8342 20.188-7.3398 4.588-4.588 2.7533-9.1772-3.6699-12.848 0.91761-2.7528 0.91687-4.5867-1.8359-6.4219-2.7528-1.8352-5.5054-2.7543-9.1758-3.6719 0.9176 0 3.6714-0.9176 7.3418 0 3.6704 0 5.5043-3.7e-4 6.4219-0.91797 6.4232-4.588 4.5881-7.339-4.5879-10.092-7.3408-1.8352-16.516-9.9e-4 -27.527 7.3398-0.91761 0-2.7534 2.7534-6.4238 6.4238-2.1679 2.8906-4.8705 4.6174-6.832 5.6797-0.47506 0.49188-0.95073 0.74219-1.4258 0.74219 0.38992-0.19497 0.89656-0.45558 1.4258-0.74219 0.44255-0.45823 0.88362-1.1247 1.3262-2.0098 0.9176-1.8352 1.8363-4.589 2.7539-7.3418 0.9176-2.7528 1.8359-3.6703 1.8359-4.5879 2.7528-2.7528 7.3405-6.423 13.764-9.1758 5.5056-2.7528 17.434-5.5046 33.033-7.3398 14.682-3.6704 25.692-0.91859 32.115 7.3398-0.9176-0.91759 0.91821-3.6698 6.4238-8.2578 4.588-4.588 8.2582-7.3418 9.1758-7.3418 0.9176-0.9176 4.5878-1.8344 9.1758-2.752 5.5056-0.9176 8.2601-2.7527 9.1777-4.5879l0.91601-13.764c-5.5056 0-9.1746-0.91748-11.01-4.5879-2.7528-3.6704-3.6703-8.258-4.5879-13.764 0 0.9176-0.91907 2.7511-3.6719 5.5039 0-2.7528-0.91674-4.5863-2.752-5.5039-1.8352 0-4.589-2e-3 -7.3418 0.91601-2.7528 0.91761-4.5883 0.91797-5.5059 0.91797-4.588-0.91761-7.3406-2.7527-9.1758-4.5879-1.8352-1.8352-3.6706-5.5057-5.5059-10.094-0.9176-5.5056-1.8343-8.2582-2.752-9.1758-0.9176-1.8352-2.7534-4.5886-6.4238-6.4238-2.7528-2.7528-5.5043-4.5867-6.4219-6.4219 0-0.91761-0.91834-1.8367-1.8359-3.6719-0.91761-1.8352-0.91834-2.7527-1.8359-4.5879s-1.8344-2.7523-2.752-3.6699-1.8347-1.8359-3.6699-1.8359c-0.9176 0-2.7527 0.91871-4.5879 2.7539-1.8352 1.8352-3.6703 4.5886-4.5879 6.4238l-2.7539 2.752c-0.9176-0.9176-2.7523-0.91797-3.6699-0.91797-0.91761 0-1.8363 3.7e-4 -2.7539 0.91797-0.9176 0-1.8344 0.91833-2.752 1.8359-0.9176 0.9176-2.752 1.834-2.752 1.834-0.9176 0.91761-2.753 1.8359-5.5059 1.8359-2.7528 0-4.5882 0.91797-5.5058 0.91797 6.4232-1.8352 6.4229-4.589-0.91797-7.3418-4.588-1.8352-7.3409-2.7516-10.094-1.834 3.6704-1.8352 5.5055-4.589 4.5879-7.3418-0.9176-3.6704-2.7531-6.423-5.5059-9.1758h2.7539c0-1.8352-1.8354-3.6706-5.5059-5.5059-2.7528-1.8352-7.3413-3.6706-11.012-5.5059-4.588-1.8352-7.3402-2.7523-8.2578-3.6699-3.6704-1.8352-11.012-4.5886-22.023-6.4238-11.011-1.8352-18.351-1.8352-21.104 0-1.8352 2.7528-2.7539 4.5886-2.7539 6.4238s0.91871 4.5878 2.7539 9.1758c1.8352 3.6704 1.834 6.4226 1.834 8.2578 0 2.7528-0.91711 5.507-3.6699 8.2598s-4.5879 5.5046-4.5879 7.3398c0 2.7528 2.7526 6.4233 9.1758 10.094 5.5056 3.6704 8.259 8.258 6.4238 13.764-0.9176 3.6704-4.5881 6.4233-10.094 10.094s-9.1762 5.5066-10.094 7.3418c-1.8352 3.6704-2.7532 7.3397-0.91797 11.928 1.8352 4.588 3.671 8.2586 6.4238 10.094 0.91761 0.91761 0.91602 1.8363 0.91602 2.7539 0 0.91761-0.91639 1.8344-1.834 2.752-0.9176 0.91761-2.7523 1.8363-3.6699 2.7539s-2.7527 1.834-4.5879 1.834l-1.8359 0.91797c-4.588 1.8352-9.1753 0.91809-12.846-3.6699-3.6704-4.588-7.3422-10.094-8.2598-16.518-2.7528-11.011-6.4233-17.434-10.094-19.27-10.094-3.6704-15.599-2.7524-18.352 0.91797-1.8352-5.5056-11.012-11.012-25.693-16.518-10.857-3.6189-22.609-4.5556-36.129-2.8223-0.17773 0.0418-0.36456 0.0703-0.57422 0.0703 0.19307-0.0257 0.38186-0.0457 0.57422-0.0703 2.1558-0.50669 1.9689-4.0192-0.57422-9.1055-2.7528-6.4232-7.3417-9.177-11.93-7.3418 0.91761-2.7528 1.8363-6.4237 2.7539-11.012 0-4.588 0.91601-7.3402 0.91601-8.2578 0.91761-5.5056 3.6714-10.094 7.3418-14.682 0 0 1.8351-1.8354 4.5879-5.5059 2.7528-2.7528 4.5886-6.4226 6.4238-8.2578 1.5588-2.3382 1.7787-3.3432 0.68945-3.5957-0.2317-0.0269-0.45589-0.045-0.68945-0.0742 0.27641 0 0.4963 0.0295 0.68945 0.0742 14.333 1.6626 25.105-1.095 31.426-7.416 1.8352-1.8352 4.589-5.5061 7.3418-11.012s4.5867-8.257 6.4219-11.01c3.6704-2.7528 6.423-3.6719 9.1758-3.6719 1.8352 0 5.5073 1.8367 9.1777 3.6719 3.6704 1.8352 7.3406 2.752 9.1758 2.752 5.5056 0 9.1761-1.8342 10.094-7.3398 0.9176-5.5056-0.91748-9.1772-4.5879-12.848 5.5056 0 5.5044-2.7533 1.834-11.012-1.8352-2.7528-3.6706-4.5863-5.5059-5.5039-5.5056-1.8352-11.01-0.91846-17.434 2.752-3.6704 1.8352-2.7524 3.6706 0.91797 5.5059 0 0-2.7534 1.8358-6.4238 6.4238-3.6704 4.588-7.3409 8.257-10.094 11.01-3.6704 2.7528-6.4233 1.836-10.094-2.752 0 0-1.8347-3.6698-3.6699-8.2578-1.8352-5.5056-3.671-8.2598-6.4238-8.2598-3.6704 0-6.4233 2.7526-10.094 9.1758 0.91761-3.6704-0.91662-6.423-7.3398-9.1758-5.5056-2.7528-11.012-4.5883-15.6-5.5059 8.2584-5.5056 6.423-11.01-5.5059-17.434-2.7528-1.8352-7.3401-2.752-12.846-2.752zm194.73 613.53c-0.65953 0-1.3489 0.11435-2.0371 0.34375-2.7528 0.9176-5.5046 1.8363-7.3398 2.7539-1.8352 0.9176-4.589 2.7531-7.3418 5.5059-2.7528 2.7528-4.5882 3.6703-5.5059 4.5879-0.9176 0-2.7511 1.8347-5.5039 3.6699-2.7528 1.8352-4.5883 3.6703-5.5059 4.5879-0.91761 1.8352-2.7543 4.587-3.6719 7.3398-0.91761 3.6704-2.752 5.5066-2.752 7.3418-0.91761-1.8352-3.6694-2.7527-7.3398-4.5879-3.2859-0.82147-5.8318-1.6452-6.3301-3.125 0.88602 4.6131 1.7722 11.73 2.6582 21.477 0.9176 11.011 1.8363 18.352 2.7539 23.857 2.7528 12.846-9.8e-4 22.94-7.3418 30.281-11.929 11.011-17.434 19.27-18.352 25.693-1.8352 9.176 0.91663 14.68 7.3398 16.516 0 2.7528-1.8335 7.342-5.5039 12.848-0.9176 5.5056-1.8359 10.093-1.8359 13.764 0 2.7528 3.7e-4 5.5057 0.91797 10.094 87.172-15.599 162.42-55.055 223.89-120.21-0.9176-0.9176-3.6698-1.8363-8.2578-2.7539-3.6704-0.9176-6.4246-0.91834-8.2598-1.8359-7.3408-2.7528-12.845-4.5863-15.598-5.5039 0-2.7528-7.3e-4 -5.507-1.8359-8.2598s-2.753-4.5882-5.5059-5.5059c-1.8352-0.9176-4.5874-2.7511-8.2578-5.5039-3.6704-1.8352-5.5066-3.6722-7.3418-4.5898-0.9176-0.9176-2.7527-1.8347-4.5879-3.6699-1.8352-1.8352-3.6703-2.7523-4.5879-3.6699-0.9176-0.91761-2.7527-1.8344-4.5879-2.752-2.7528-0.91761-4.5883-1.8356-5.5059-0.91797-0.91761 0-3.6691 0.91797-6.4219 0.91797l-1.8359 0.91601c-0.9176 0-2.7523 0.91833-3.6699 1.8359-0.9176 0.9176-1.8367 0.91834-3.6719 1.8359-0.91761 0.9176-1.8344 0.91637-2.752 1.834v1.8359c-9.176-7.3408-16.516-11.928-22.939-13.764-1.8352 0-4.589-1.8367-7.3418-3.6719-2.7528-1.8352-4.5886-3.6703-6.4238-4.5879-1.8352-0.9176-3.6691-0.91797-6.4219-0.91797-2.7528 0-4.589 1.837-7.3418 4.5898-1.8352 1.8352-3.6699 5.5054-3.6699 9.1758 0 4.588-0.91797 7.3402-0.91797 8.2578-2.7528-1.8352-2.7528-5.5061 0-11.012 2.7528-5.5056 3.6708-9.1749 0.91797-11.928-0.6882-2.0646-2.4081-3.0977-4.3867-3.0977z" color="#000000" fill="url(#h)" opacity=".32"/>
   <circle cx="752" cy="580.36" r="125" fill="url(#b)" fill-rule="evenodd" filter="url(#j)" style="paint-order:stroke markers fill"/>
  </g>
 </g>
</svg>
