<svg viewBox="0 0 48 48" xmlns="http://www.w3.org/2000/svg">
 <path d="m25.747647 5.0005266c-.3455-.002-.48017.27174-1.18109 2.405l-.696345 2.11951-1.064512.0962c-.585471.0529-1.260479.13684-1.500039.18662-.316711.0658-.464457.0665-.541477.002-.05824-.0484-.551446-.84785-1.096079-1.7766-1.088427-1.85607-1.311635-2.15299-1.617706-2.15299-.321655 0-2.476043.85836-2.633 1.04904-.07702.0936-.138975.28314-.137676.42143.000999.13829.194697 1.1526.429742 2.25388.235056 1.1012904.41342 2.0383904.396308 2.0824404-.01708.044-.273515.23092-.569767.41533s-.832543.57187-1.19172.86101c-.359166.28914-.687204.52577-.729001.52577-.04176 0-.882052-.45538-1.867266-1.01197-2.0257619-1.14443-2.1228109-1.188-2.4085934-1.07923-.3087587.11751-1.8230525 2.04075-1.8230525 2.31536 0 .29762.072425.39201 1.6173965 2.11107.7386612.82186 1.3429924 1.5524 1.3429924 1.62346 0 .071-.156627.4439-.348018.82847-.1913908.38457-.4454963.95783-.5647621 1.27399-.1192659.31615-.261378.61194-.3158213.65717-.060837.0506-.9522789.0913-2.313582.10591-2.7311473.0293-2.4910173-.10371-2.7484793 1.52193-.099696.62967-.1833592 1.24001-.1858066 1.35627-.00899.43313.1751877.53007 2.3978143 1.26195l2.1160475.69675.093802 1.03965c.051646.57178.1326919 1.25003.1801825 1.50723.04755.25721.066631.49966.042556.53876-.024175.0391-.8427029.54435-1.8191366 1.12287-.9764437.57853-1.8563978 1.13911-1.9554148 1.24568-.098997.10658-.1800226.28887-.1800226.40516 0 .34021.8725518 2.48853 1.0657607 2.62401.2525971.1771.4711696.15115 2.6539377-.31506 1.0996955-.23488 2.0358116-.4116 2.0802746-.39265.04445.019.231729.27584.416307.57083.184568.29498.575091.8349.867767 1.19968.364161.45389.516043.70529.480999.79671-.02817.0735-.481129.89753-1.006542 1.83121-1.076899 1.91372-1.138046 2.04689-1.067789 2.32709.07183.28656 2.053213 1.87057 2.338896 1.86985.294653-.00074.434767-.10814 2.086049-1.60125.803853-.72685 1.522215-1.33204 1.596298-1.34485.07412-.0128.457494.1365.852143.33195s.996633.45399 1.337678.57442c.341045.12042.627167.22324.635858.22855.009.005.03566 1.04501.06004 2.31035.05434 2.82575-.07612 2.57947 1.502386 2.83504 1.186155.19204 1.654448.19255 1.84477.002.06633-.0664.43235-1.06944.813233-2.22886l.69243-2.10793.796041-.0613c.437864-.0337 1.120234-.11458 1.516292-.17974.716954-.11796.72075-.11766.869175.0613.08202.0989.593882.93663 1.137646 1.86171s1.065781 1.74504 1.159993 1.82213c.257971.21109.442739.17847 1.688662-.29738 1.188214-.45382 1.425666-.61927 1.424867-.99304-.00024-.11626-.194917-1.13012-.432709-2.2531-.237793-1.12298-.415158-2.06979-.39412-2.10387.02108-.0341.296731-.23661.612742-.45021.316001-.2136.844641-.60958 1.174677-.87978.330047-.2702.633201-.4913.673689-.49135.04046-.00006.904599.46305 1.920242 1.02917 2.076338 1.15733 2.064571 1.15199 2.339215 1.08298.292236-.0734 1.867736-2.05607 1.867736-2.3504 0-.27535-.06663-.36124-1.637865-2.11247-.705426-.78624-1.293674-1.49463-1.3072-1.57434-.01359-.0797.121793-.43636.300667-.79249.178864-.35613.435707-.92709.570696-1.26883.13498-.34174.280468-.65739.323324-.70144.04635-.0476.983486-.0963 2.312333-.12014 2.131901-.0382 2.242016-.0477 2.401401-.20743.130823-.1311.209032-.42634.360824-1.3616.106599-.6568.194388-1.27142.195027-1.36565.003-.38072-.225545-.49672-2.399063-1.21893l-2.120273-.70442-.09021-1.03511c-.04965-.56928-.130235-1.24649-.179084-1.50489-.04885-.2584-.06883-.5021-.04435-.54173.02448-.0396.843183-.5443 1.819297-1.12146s1.855778-1.13732 1.954785-1.24474c.099-.10742.180023-.28526.180023-.39531 0-.31559-.859126-2.45753-1.048569-2.6143-.240689-.19917-.406387-.1831-2.319835.2251-2.246672.4793-2.367826.50119-2.45016.44412-.03856-.0267-.242658-.31072-.453648-.63121s-.596189-.8431-.856049-1.16136c-.25986-.31825-.472508-.61128-.472568-.65107-.00005-.0398.464067-.9048 1.031546-1.92225.56747-1.01744 1.054443-1.92625 1.082164-2.01955.0959-.32274-.10599-.57356-1.112322-1.3816104-1.072454-.86115-1.260798-.93861-1.643809-.67579-.108807.0747-.869905.74144-1.69131 1.4817304-.821415.74029-1.551196 1.3461-1.621782 1.3461-.07063 0-.442649-.15747-.82682-.34994-.38417-.19246-.932559-.43184-1.218601-.53187-.838018-.29306-.800087-.17012-.800417-2.5911504-.00027-1.92457-.01279-2.11392-.15423-2.34618-.0927-.1522-.243686-.27177-.379744-.30067-.34575-.0734-2.288748-.36603-2.437184-.36699z" opacity=".2"/>
 <path d="m25.747647 4.0005334c-.3455-.002-.48017.27174-1.18109 2.405l-.696345 2.11951-1.064512.0962c-.585471.0529-1.260479.13684-1.500039.18662-.316711.0658-.464457.0665-.541477.002-.05824-.0484-.551446-.84785-1.096079-1.7766-1.088427-1.85607-1.311635-2.15299-1.617706-2.15299-.321655 0-2.476043.85836-2.633 1.04904-.07702.0936-.138975.28314-.137676.42143.000999.13829.194697 1.1526.429742 2.25388.235056 1.10129.41342 2.0383906.396308 2.0824406-.01708.044-.273515.23092-.569767.41533s-.832543.57187-1.19172.86101c-.359166.28914-.687204.52577-.729001.52577-.04176 0-.882052-.45538-1.867266-1.01197-2.0257619-1.14443-2.1228109-1.188-2.4085934-1.07923-.3087587.11751-1.8230525 2.04075-1.8230525 2.31536 0 .29762.072425.39201 1.6173965 2.11107.7386612.82186 1.3429924 1.5524 1.3429924 1.62346 0 .071-.156627.4439-.348018.82847-.1913908.38457-.4454963.95783-.5647621 1.27399-.1192659.31615-.261378.61194-.3158213.65717-.060837.0506-.9522789.0913-2.313582.10591-2.7311473.0293-2.4910173-.10371-2.7484793 1.52193-.099696.62967-.1833592 1.24001-.1858066 1.35627-.00899.43313.1751877.53007 2.3978143 1.26195l2.1160475.69675.093802 1.03965c.051646.57178.1326919 1.25003.1801825 1.50723.04755.25721.066631.49966.042556.53876-.024175.0391-.8427029.54435-1.8191366 1.12287-.9764437.57853-1.8563978 1.13911-1.9554148 1.24568-.098997.10658-.1800226.28887-.1800226.40516 0 .34021.8725518 2.48853 1.0657607 2.62401.2525971.1771.4711696.15115 2.6539377-.31506 1.0996955-.23488 2.0358116-.4116 2.0802746-.39265.04445.019.231729.27584.416307.57083.184568.29498.575091.8349.867767 1.19968.364161.45389.516043.70529.480999.79671-.02817.0735-.481129.89753-1.006542 1.83121-1.076899 1.91372-1.138046 2.04689-1.067789 2.32709.07183.28656 2.053213 1.87057 2.338896 1.86985.294653-.00074.434767-.10814 2.086049-1.60125.803853-.72685 1.522215-1.33204 1.596298-1.34485.07412-.0128.457494.1365.852143.33195s.996633.45399 1.337678.57442c.341045.12042.627167.22324.635858.22855.009.005.03566 1.04501.06004 2.31035.05434 2.82575-.07612 2.57947 1.502386 2.83504 1.186155.19204 1.654448.19255 1.84477.002.06633-.0664.43235-1.06944.813233-2.22886l.69243-2.10793.796041-.0613c.437864-.0337 1.120234-.11458 1.516292-.17974.716954-.11796.72075-.11766.869175.0613.08202.0989.593882.93663 1.137646 1.86171s1.065781 1.74504 1.159993 1.82213c.257971.21109.442739.17847 1.688662-.29738 1.188214-.45382 1.425666-.61927 1.424867-.99304-.00024-.11626-.194917-1.13012-.432709-2.2531-.237793-1.12298-.415158-2.06979-.39412-2.10387.02108-.0341.296731-.23661.612742-.45021.316001-.2136.844641-.60958 1.174677-.87978.330047-.2702.633201-.4913.673689-.49135.04046-.00006.904599.46305 1.920242 1.02917 2.076338 1.15733 2.064571 1.15199 2.339215 1.08298.292236-.0734 1.867736-2.05607 1.867736-2.3504 0-.27535-.06663-.36124-1.637865-2.11247-.705426-.78624-1.293674-1.49463-1.3072-1.57434-.01359-.0797.121793-.43636.300667-.79249.178864-.35613.435707-.92709.570696-1.26883.13498-.34174.280468-.65739.323324-.70144.04635-.0476.983486-.0963 2.312333-.12014 2.131901-.0382 2.242016-.0477 2.401401-.20743.130823-.1311.209032-.42634.360824-1.3616.106599-.6568.194388-1.27142.195027-1.36565.003-.38072-.225545-.49672-2.399063-1.21893l-2.120273-.70442-.09021-1.03511c-.04965-.56928-.130235-1.24649-.179084-1.50489-.04885-.2584-.06883-.5021-.04435-.54173.02448-.0396.843183-.5443 1.819297-1.12146s1.855778-1.13732 1.954785-1.24474c.099-.10742.180023-.28526.180023-.39531 0-.31559-.859126-2.45753-1.048569-2.6143-.240689-.19917-.406387-.1831-2.319835.2251-2.246672.4793-2.367826.50119-2.45016.44412-.03856-.0267-.242658-.31072-.453648-.63121s-.596189-.8431-.856049-1.16136c-.25986-.31825-.472508-.61128-.472568-.65107-.00005-.0398.464067-.9048 1.031546-1.92225.56747-1.01744 1.054443-1.9262506 1.082164-2.0195506.0959-.32274-.10599-.57356-1.112322-1.38161-1.072454-.86115-1.260798-.93861-1.643809-.67579-.108807.0747-.869905.74144-1.69131 1.48173-.821415.74029-1.551196 1.3461006-1.621782 1.3461006-.07063 0-.442649-.15747-.82682-.34994-.38417-.1924606-.932559-.4318406-1.218601-.5318706-.838018-.29306-.800087-.17012-.800417-2.59115-.00027-1.92457-.01279-2.11392-.15423-2.34618-.0927-.1522-.243686-.27177-.379744-.30067-.34575-.0734-2.288748-.36603-2.437184-.36699z" fill="#9d60ff"/>
 <path d="m25.748 4c-0.3455-2e-3 -0.48072 0.27299-1.1816 2.4062l-0.69531 2.1191-1.0645 0.095703c-0.58547 0.0529-1.2624 0.13772-1.502 0.1875-0.31671 0.0658-0.464 0.066453-0.54102 0.0019531-0.05824-0.0484-0.55107-0.84859-1.0957-1.7773-1.0884-1.8561-1.3111-2.1523-1.6172-2.1523-0.32166 0-2.4759 0.85815-2.6328 1.0488-0.07702 0.0936-0.13997 0.28358-0.13867 0.42188 2.74e-4 0.037978 0.090981 0.46537 0.11719 0.61914 0.007799-0.011958 0.013287-0.031053 0.021485-0.041016 0.15696-0.19068 2.3112-1.0488 2.6328-1.0488 0.30607 0 0.52876 0.29627 1.6172 2.1523 0.54463 0.92875 1.0375 1.7289 1.0957 1.7773 0.07702 0.0645 0.2243 0.063847 0.54102-0.0019531 0.23956-0.04978 0.91648-0.1346 1.502-0.1875l1.0645-0.095703 0.69531-2.1191c0.70092-2.1333 0.83614-2.4082 1.1816-2.4062 0.14844 9.6e-4 2.0918 0.29379 2.4375 0.36719 0.13606 0.0289 0.28621 0.14858 0.37891 0.30078 0.14144 0.23226 0.15403 0.42113 0.1543 2.3457 3.3e-4 2.421-0.037237 2.2987 0.80078 2.5918 0.28604 0.10003 0.83458 0.33879 1.2188 0.53125 0.38417 0.19247 0.75554 0.34961 0.82617 0.34961 0.070586 0 0.80163-0.60541 1.623-1.3457 0.8214-0.74029 1.5806-1.4077 1.6895-1.4824 0.38301-0.26282 0.57208-0.18537 1.6445 0.67578 0.44916 0.36066 0.71888 0.60034 0.89258 0.79492 0.040679-0.080936 0.21505-0.39307 0.2207-0.41211 0.0959-0.32274-0.10695-0.57476-1.1133-1.3828-1.0725-0.86115-1.2615-0.9386-1.6445-0.67578-0.10881 0.0747-0.86805 0.74213-1.6895 1.4824-0.82142 0.74029-1.5525 1.3457-1.623 1.3457-0.07063 0-0.442-0.15714-0.82617-0.34961-0.38417-0.19246-0.93271-0.43122-1.2188-0.53125-0.83802-0.29306-0.80045-0.17077-0.80078-2.5918-2.7e-4 -1.9246-0.012857-2.1134-0.1543-2.3457-0.0927-0.1522-0.24285-0.27188-0.37891-0.30078-0.34575-0.0734-2.2891-0.36623-2.4375-0.36719zm-16.197 6.3594c-0.080939-0.006671-0.13949 0.01187-0.21094 0.039063-0.30876 0.11751-1.8242 2.0398-1.8242 2.3145 0 0.15008 0.025816 0.25599 0.24219 0.53711 0.44065-0.66239 1.3506-1.7635 1.582-1.8516 0.28578-0.10877 0.38244-0.066305 2.4082 1.0781 0.98521 0.55659 1.8254 1.0117 1.8672 1.0117 0.041797 0 0.36935-0.23625 0.72852-0.52539 0.35918-0.28914 0.89515-0.67692 1.1914-0.86133s0.55323-0.37006 0.57031-0.41406c0.007224-0.018598-0.11595-0.59679-0.16797-0.87891-0.099223 0.081514-0.19313 0.16274-0.40234 0.29297-0.29625 0.18441-0.83223 0.57219-1.1914 0.86133s-0.68672 0.52539-0.72852 0.52539c-0.04176 0-0.88197-0.45513-1.8672-1.0117-1.5193-0.85832-1.9544-1.0972-2.1973-1.1172zm26.277 3.7246c-0.073223 0.14126-0.30861 0.56233-0.30859 0.57422 6e-5 0.03979 0.2128 0.33214 0.47266 0.65039 0.25986 0.31826 0.64643 0.84162 0.85742 1.1621s0.41456 0.60416 0.45312 0.63086c0.082334 0.05707 0.20255 0.035941 2.4492-0.44336 1.9134-0.4082 2.0796-0.42573 2.3203-0.22656 0.13674 0.11316 0.61733 1.2517 0.87695 2 0.095377-0.10812 0.17188-0.27766 0.17188-0.38477 0-0.31559-0.85938-2.4585-1.0488-2.6152-0.24069-0.19917-0.40686-0.18164-2.3203 0.22656-2.2467 0.4793-2.3669 0.50043-2.4492 0.44336-0.03856-0.0267-0.24214-0.31037-0.45312-0.63086s-0.59756-0.84385-0.85742-1.1621c-0.0899-0.1101-0.092312-0.12999-0.16406-0.22461zm-25.621 3.0039c-0.038319 0.082423-0.03484 0.10052-0.078125 0.1875-0.19139 0.38457-0.44519 0.95923-0.56445 1.2754-0.11927 0.31615-0.26196 0.61102-0.31641 0.65625-0.060837 0.0506-0.9512 0.090859-2.3125 0.10547-2.7311 0.0293-2.4925-0.1022-2.75 1.5234-0.099696 0.62967-0.1831 1.2392-0.18555 1.3555-0.0025998 0.12526 0.019415 0.22194 0.09375 0.31445 0.033572-0.24445 0.042523-0.35871 0.091797-0.66992 0.25746-1.6256 0.018853-1.4941 2.75-1.5234 1.3613-0.01461 2.2517-0.054869 2.3125-0.10547 0.054443-0.04523 0.19714-0.3401 0.31641-0.65625 0.11927-0.31616 0.37306-0.89082 0.56445-1.2754 0.19139-0.38457 0.34766-0.75712 0.34766-0.82812 0-0.024177-0.14813-0.20489-0.26953-0.35938zm29.053 4.6641c-0.005338 0.004418-0.092496 0.054612-0.09375 0.056641-0.02448 0.03963-0.003929 0.28262 0.044922 0.54102 0.048849 0.2584 0.13004 0.93658 0.17969 1.5059l0.089844 1.0352 2.1211 0.70312c1.5699 0.52164 2.1087 0.72801 2.2949 0.94531 0.039305-0.27222 0.10318-0.67649 0.10352-0.72656 3e-3 -0.38072-0.22492-0.49654-2.3984-1.2188l-2.1211-0.70312-0.089844-1.0352c-0.036381-0.41714-0.085916-0.77771-0.13086-1.1035zm-30.52 5.5391c-0.095856 0.079893-0.80013 0.51831-1.7285 1.0684-0.97644 0.57853-1.8561 1.1395-1.9551 1.2461-0.098997 0.10658-0.17969 0.28801-0.17969 0.4043 0 0.092837 0.069555 0.32881 0.16797 0.61328 0.0046803-0.005472 0.0069479-0.014395 0.011719-0.019531 0.099017-0.10657 0.97863-0.66561 1.9551-1.2441 0.97643-0.57852 1.7942-1.0839 1.8184-1.123 0.024075-0.0391 0.0065344-0.28185-0.041016-0.53906-0.012795-0.069296-0.032393-0.28615-0.048828-0.40625zm29.043 4.666c-0.14715 0.31039-0.26002 0.60361-0.24805 0.67383 0.013526 0.07971 0.60317 0.78798 1.3086 1.5742 0.77542 0.86426 1.1753 1.3119 1.3906 1.5879 0.14966-0.22513 0.24609-0.40177 0.24609-0.47461 0-0.27535-0.065484-0.36205-1.6367-2.1133-0.4844-0.53989-0.8348-0.95992-1.0605-1.248zm-25.611 3.0293c-0.16894 0.31488-0.3521 0.6551-0.73633 1.3379-1.0769 1.9137-1.1386 2.0479-1.0684 2.3281 0.010736 0.042833 0.12886 0.15491 0.21289 0.24609 0.1552-0.31646 0.37804-0.72579 0.85547-1.5742 0.52541-0.93368 0.97769-1.7566 1.0059-1.8301 0.025542-0.066631-0.086666-0.25476-0.26953-0.50781zm19.885 3.2695c-0.038153 0.030345-0.15841 0.11195-0.16406 0.12109-0.021038 0.03408 0.15674 0.98054 0.39453 2.1035 0.1667 0.78727 0.23055 1.1717 0.30274 1.5801 0.081623-0.097889 0.12918-0.19988 0.12891-0.32617-2.4e-4 -0.11626-0.19385-1.1309-0.43164-2.2539-0.13845-0.65384-0.16022-0.83559-0.23047-1.2246z" fill="#fff" opacity=".1"/>
 <path d="m29.681 16.001c0.30058 0.0051 0.60001 0.02908 0.88796 0.05741 1.367 0.08525 0.51594 1.1037-0.31823 1.3068-1.3663 0.38976-1.3586 1.9412-0.54696 2.9152 0.74278 1.2612 1.8588 0.06298 2.7252-0.34962 1.2918-0.21414 0.0441 1.5807-0.36647 2.0206-0.61537 0.95154-1.6627 1.4079-2.7396 1.2438-1.352-0.19354-2.3029 0.95843-3.1953 1.8268-2.5141 2.3437-5.0734 4.9082-7.6026 7.4795-0.37181 0.31826-0.77784 0.6812-1.0641 1.0884-1.3894 1.3051-3.4614-0.77613-1.9093-2.4434 3.2147-2.9604 6.518-6.369 9.4883-9.2663 0.48614-0.47612 0.94007-0.97957 1.2504-1.5994 0.52467-1.0867-0.03483-2.5385 0.93778-3.4085 0.63957-0.72926 1.5512-0.88618 2.4529-0.87126z" opacity=".2"/>
 <path d="m29.681 15.001c0.30058 0.0051 0.60001 0.02908 0.88796 0.05741 1.367 0.08525 0.51594 1.1037-0.31823 1.3068-1.3663 0.38976-1.3586 1.9412-0.54696 2.9152 0.74278 1.2612 1.8588 0.06298 2.7252-0.34962 1.2918-0.21414 0.0441 1.5807-0.36647 2.0206-0.61537 0.95154-1.6627 1.4079-2.7396 1.2438-1.352-0.19354-2.3029 0.95843-3.1953 1.8268-2.5141 2.3437-5.0734 4.9082-7.6026 7.4795-0.37181 0.31826-0.77784 0.6812-1.0641 1.0884-1.3894 1.3051-3.4614-0.77613-1.9093-2.4434 3.2147-2.9604 6.518-6.369 9.4883-9.2663 0.48614-0.47612 0.94007-0.97957 1.2504-1.5994 0.52467-1.0867-0.03483-2.5385 0.93778-3.4085 0.63957-0.72926 1.5512-0.88618 2.4529-0.87126z" fill="#f1f1f1"/>
 <path d="m21.684 16.026c0.94954-0.12597 1.9643 0.2057 2.6545 0.92-0.1834 0.38624-1.3057 0.19451-1.7103 0.73308-0.60264 0.5191-1.6391 1.6569-0.86723 2.4424 3.0013 2.9341 6.6252 6.5352 9.6073 9.4934 0.54392 0.68687 1.4871 1.1429 1.6319 2.0983-0.17784 0.95203-1.01 1.6328-1.6708 2.2059-0.29523 0.15884-0.69864 0.07392-0.93066-0.17385-3.955-4.227-6.7555-7.7779-10.374-11.834-0.44337-0.38231-1.2037-0.34313-1.1914 0.45788 0.50035 0.87038-0.76593 1.3813-1.1669 2.0212-0.46053 0.34141-0.77834-0.32327-1.1165-0.56629-0.4977-0.6607-1.5264-1.0735-1.5497-2.0093 0.57009-0.56915 1.0427-1.9654 1.9051-1.6045 0.85597-0.39498 0.49824-1.8371 1.4084-2.3303 0.71832-0.59409 1.6508-0.73058 2.3089-1.4917 0.32822-0.19394 0.68985-0.31329 1.0614-0.36258z" opacity=".2"/>
 <path d="m21.684 15.026c0.94954-0.12597 1.9643 0.2057 2.6545 0.92-0.1834 0.38624-1.3057 0.19451-1.7103 0.73308-0.60264 0.5191-1.6391 1.6569-0.86723 2.4424 3.0013 2.9341 6.6252 6.5352 9.6073 9.4934 0.54392 0.68687 1.4871 1.1429 1.6319 2.0983-0.17784 0.95203-1.01 1.6328-1.6708 2.2059-0.29523 0.15884-0.69864 0.07392-0.93066-0.17385-3.955-4.227-6.7555-7.7779-10.374-11.834-0.44337-0.38231-1.2037-0.34313-1.1914 0.45788 0.50035 0.87038-0.76593 1.3813-1.1669 2.0212-0.46053 0.34141-0.77834-0.32327-1.1165-0.56629-0.4977-0.6607-1.5264-1.0735-1.5497-2.0093 0.57009-0.56915 1.0427-1.9654 1.9051-1.6045 0.85597-0.39498 0.49824-1.8371 1.4084-2.3303 0.71832-0.59409 1.6508-0.73058 2.3089-1.4917 0.32822-0.19394 0.68985-0.31329 1.0614-0.36258z" fill="#fff"/>
</svg>
