<svg viewBox="0 0 48 48" xmlns="http://www.w3.org/2000/svg" xmlns:xlink="http://www.w3.org/1999/xlink">
 <linearGradient id="a">
  <stop stop-color="#08f" offset="0"/>
  <stop stop-color="#02c3ff" offset="1"/>
 </linearGradient>
 <linearGradient id="b" x1="169.5" x2="159.24" y1="624.72" y2="63.269" gradientTransform="matrix(.93022 0 0 .91891 14.815 32.587)" gradientUnits="userSpaceOnUse" xlink:href="#a"/>
 <linearGradient id="c" x1="159.46" x2="160.66" y1="668.03" y2="596.97" gradientUnits="userSpaceOnUse" xlink:href="#a"/>
 <linearGradient id="d" x1="8.1667" x2="8.115" y1="1050.5" y2="1038.4" gradientUnits="userSpaceOnUse">
  <stop stop-color="#141414" offset="0"/>
  <stop stop-color="#2d2d2f" offset="1"/>
 </linearGradient>
 <g transform="matrix(.076442 0 0 .066493 11.667 1.2041)">
  <rect x="18.553" y="87.912" width="292.69" height="525.81" ry="9.3022" fill="url(#b)" fill-rule="evenodd"/>
  <path transform="matrix(42.983 0 0 49.415 -182.52 -51264)" d="m11.404 1037.4h-6.807c-0.31004 0-0.5614 0.2514-0.5614 0.5614v12.877c0 0.31 0.25137 0.5614 0.5614 0.5614h6.807c0.31004 0 0.5614-0.2514 0.5614-0.5614v-12.877c0-0.31-0.25137-0.5614-0.5614-0.5614zm-0.08154 11.778h-6.6439v-9.5554h6.6439z" fill="url(#d)"/>
  <ellipse cx="161.34" cy="637.98" rx="25.226" ry="29" fill="url(#c)" fill-rule="evenodd" stroke="url(#c)" stroke-linecap="round" stroke-width="7.4109"/>
 </g>
 <g transform="matrix(.71755 0 0 .71534 350.56 117)" fill="#121212" fill-opacity=".84694">
  <ellipse cx="-462.61" cy="-130.51" rx="2.5" ry="2.5"/>
  <ellipse cx="-458.11" cy="-123.01" rx="3" ry="3"/>
  <ellipse cx="-460.61" cy="-138.51" rx="1.5" ry="1.5"/>
  <path d="m-452.11-140.01-2.8438 2.8437 4.375 4.375-4.5312 5.1562 3 2.625 7-8z"/>
 </g>
</svg>
