<svg width="128" height="128" version="1.1" viewBox="0 0 33.867 33.867" xmlns="http://www.w3.org/2000/svg">
 <defs>
  <linearGradient id="a" x1="132.29" x2="132.29" y1="24.479" y2="297" gradientTransform="matrix(.12444 0 0 .12444 .075259 22.898)" gradientUnits="userSpaceOnUse">
   <stop stop-color="#b3b3b3" offset="0"/>
   <stop stop-color="#6b6666" offset="1"/>
  </linearGradient>
  <linearGradient id="b" x1="132.29" x2="132.29" y1="43" y2="275.83" gradientTransform="matrix(.12124 0 0 .12124 .50888 23.415)" gradientUnits="userSpaceOnUse">
   <stop stop-color="#b3b3b3" offset="0"/>
   <stop stop-color="#7b7a7a" stop-opacity="0" offset="1"/>
  </linearGradient>
  <clipPath id="f">
   <path d="m2328.3 421.51c97.42 0 176.4-78.98 176.4-176.4s-78.98-176.4-176.4-176.4-176.4 78.98-176.4 176.4 78.98 176.4 176.4 176.4z"/>
  </clipPath>
  <filter id="e" x="-.048" y="-.048" width="1.096" height="1.096" color-interpolation-filters="sRGB">
   <feGaussianBlur stdDeviation="6.174"/>
  </filter>
  <linearGradient id="d" x1="2331.3" x2="2331.3" y1="435.51" y2="45.726" gradientTransform="translate(-3.4704e-5 10.991)" gradientUnits="userSpaceOnUse">
   <stop stop-color="#b3b3b3" offset="0"/>
   <stop stop-color="#cecece" offset="1"/>
  </linearGradient>
  <linearGradient id="c" x1="132.29" x2="132.29" y1="64.167" y2="286.42" gradientTransform="matrix(.14272 0 0 .14272 -2.4005 19.946)" gradientUnits="userSpaceOnUse">
   <stop stop-color="#333" offset="0"/>
   <stop stop-color="#4d4d4d" stop-opacity=".59447" offset="1"/>
  </linearGradient>
 </defs>
 <g transform="translate(0 -26.067)">
  <rect x="2.1167" y="29.286" width="29.633" height="27.427" rx="1.4187" fill="url(#a)" fill-rule="evenodd" style="paint-order:stroke markers fill"/>
  <rect x="2.4978" y="29.639" width="28.871" height="26.722" rx="1.3822" fill="url(#b)" fill-rule="evenodd" style="paint-order:stroke markers fill"/>
  <text x="6.6604371" y="34.834431" fill="#000000" font-family="sans-serif" font-size="1.317px" letter-spacing="0px" word-spacing="0px" style="line-height:1.25" xml:space="preserve"/>
  <ellipse cx="16.933" cy="43" rx="13.689" ry="13.689" color="#000000" fill="url(#c)" stroke-width=".065812"/>
  <g transform="matrix(.080919 0 0 .080919 -171.45 22.352)" clip-path="url(#f)">
   <g transform="translate(-.33456 3.4731)">
    <path class="shp86" d="m2410.5 126.2-6.45 17.23c-0.42 1.13 0.01 2.63 0.96 3.36l7.59 5.81c0.93 0.71 2.52 0.75 3.5 0.05l14.96-10.68c0.98-0.7 2.47-0.58 3.32 0.28l6.27 6.27c0.87 0.87 0.98 2.34 0.28 3.32l-10.68 14.95c-0.7 0.98-0.67 2.55 0.06 3.5l5.82 7.59c0.71 0.93 2.24 1.38 3.36 0.96l17.21-6.45c1.13-0.42 2.53 0.08 3.13 1.13l4.43 7.67c0.62 1.07 0.34 2.51-0.59 3.28l-14.2 11.69c-0.93 0.77-1.31 2.29-0.85 3.39l3.65 8.83c0.45 1.08 1.8 1.91 3 1.8l18.31-1.78c1.2-0.12 2.43 0.73 2.74 1.9l2.29 8.56c0.32 1.19-0.32 2.51-1.42 3.01l-16.75 7.62c-1.1 0.5-1.86 1.87-1.7 3.06l1.25 9.47c0.15 1.16 1.25 2.31 2.44 2.51l18.14 3.02c1.19 0.2 2.15 1.34 2.15 2.54v8.86c0 1.23-0.96 2.35-2.15 2.54l-18.12 3.02c-1.19 0.2-2.28 1.32-2.43 2.51l-1.24 9.48c-0.15 1.16 0.61 2.56 1.7 3.06l16.72 7.61c1.09 0.5 1.73 1.85 1.42 3.01l-2.29 8.56c-0.32 1.19-1.54 2.02-2.74 1.9l-18.29-1.77c-1.2-0.12-2.54 0.69-3 1.8l-3.67 8.83c-0.45 1.08-0.08 2.63 0.85 3.39l14.2 11.69c0.93 0.77 1.2 2.23 0.59 3.28l-4.43 7.67c-0.62 1.07-2.01 1.55-3.14 1.13l-17.23-6.45c-1.13-0.42-2.63 0.01-3.36 0.96l-5.81 7.59c-0.71 0.93-0.75 2.52-0.05 3.5l10.68 14.96c0.7 0.98 0.58 2.47-0.28 3.32l-6.27 6.27c-0.87 0.87-2.34 0.98-3.32 0.28l-14.95-10.68c-0.98-0.7-2.55-0.67-3.5 0.06l-7.59 5.82c-0.93 0.71-1.38 2.24-0.96 3.36l6.45 17.21c0.42 1.13-0.08 2.53-1.13 3.13l-7.67 4.43c-1.07 0.62-2.51 0.34-3.28-0.59l-11.69-14.2c-0.77-0.93-2.29-1.31-3.39-0.85l-8.83 3.65c-1.08 0.45-1.91 1.8-1.8 3l1.78 18.31c0.12 1.2-0.73 2.43-1.9 2.74l-8.56 2.29c-1.19 0.32-2.51-0.32-3.01-1.42l-7.62-16.75c-0.5-1.1-1.87-1.86-3.06-1.7l-9.47 1.25c-1.16 0.15-2.31 1.25-2.51 2.44l-3.02 18.14c-0.2 1.19-1.34 2.15-2.54 2.15h-8.86c-1.23 0-2.35-0.96-2.54-2.15l-3.02-18.12c-0.2-1.19-1.32-2.28-2.51-2.43l-9.48-1.24c-1.16-0.15-2.56 0.61-3.06 1.7l-7.61 16.72c-0.5 1.09-1.85 1.73-3.01 1.42l-8.56-2.29c-1.19-0.32-2.02-1.54-1.9-2.74l1.77-18.29c0.12-1.2-0.69-2.54-1.8-3l-8.83-3.67c-1.08-0.45-2.63-0.08-3.39 0.85l-11.69 14.2c-0.77 0.93-2.23 1.2-3.28 0.59l-7.67-4.43c-1.07-0.62-1.55-2.01-1.13-3.14l6.45-17.23c0.42-1.13-0.01-2.63-0.96-3.36l-7.59-5.81c-0.93-0.71-2.52-0.75-3.5-0.05l-14.96 10.68c-0.98 0.7-2.47 0.58-3.32-0.28l-6.27-6.27c-0.87-0.87-0.98-2.34-0.28-3.32l10.68-14.95c0.7-0.98 0.67-2.55-0.06-3.5l-5.82-7.59c-0.71-0.93-2.24-1.38-3.36-0.96l-17.21 6.45c-1.13 0.42-2.53-0.08-3.13-1.13l-4.43-7.67c-0.62-1.07-0.34-2.51 0.59-3.28l14.2-11.69c0.93-0.77 1.31-2.29 0.85-3.39l-3.65-8.83c-0.45-1.08-1.8-1.91-3-1.8l-18.31 1.78c-1.2 0.12-2.43-0.73-2.74-1.9l-2.29-8.56c-0.32-1.19 0.32-2.51 1.42-3.01l16.75-7.62c1.1-0.5 1.86-1.87 1.7-3.06l-1.25-9.47c-0.15-1.16-1.25-2.31-2.44-2.51l-18.14-3.02c-1.19-0.2-2.15-1.34-2.15-2.54v-8.86c0-1.23 0.96-2.35 2.15-2.54l18.12-3.02c1.19-0.2 2.28-1.32 2.43-2.51l1.24-9.48c0.15-1.16-0.61-2.56-1.7-3.06l-16.72-7.61c-1.09-0.5-1.73-1.85-1.42-3.01l2.29-8.56c0.32-1.19 1.54-2.02 2.74-1.9l18.29 1.77c1.2 0.12 2.54-0.69 3-1.8l3.67-8.83c0.45-1.08 0.08-2.63-0.85-3.39l-14.2-11.69c-0.93-0.77-1.2-2.23-0.59-3.28l4.43-7.67c0.62-1.07 2.01-1.55 3.14-1.13l17.23 6.45c1.13 0.42 2.63-0.01 3.36-0.96l5.81-7.59c0.71-0.93 0.75-2.52 0.05-3.5l-10.68-14.96c-0.7-0.98-0.58-2.47 0.28-3.32l6.27-6.27c0.87-0.87 2.34-0.98 3.32-0.28l14.95 10.68c0.98 0.7 2.55 0.67 3.5-0.06l7.59-5.82c0.93-0.71 1.38-2.24 0.96-3.36l-6.45-17.21c-0.42-1.13 0.08-2.53 1.13-3.13l7.67-4.43c1.07-0.62 2.51-0.34 3.28 0.59l11.69 14.2c0.77 0.93 2.29 1.31 3.39 0.85l8.83-3.65c1.08-0.45 1.91-1.8 1.8-3l-1.78-18.31c-0.12-1.2 0.73-2.43 1.9-2.74l8.56-2.29c1.19-0.32 2.51 0.32 3.01 1.42l7.62 16.75c0.5 1.1 1.87 1.86 3.06 1.7l9.47-1.25c1.16-0.15 2.31-1.25 2.51-2.44l3.02-18.14c0.2-1.19 1.34-2.15 2.54-2.15h8.86c1.23 0 2.35 0.96 2.54 2.15l3.02 18.12c0.2 1.19 1.32 2.28 2.51 2.43l9.48 1.24c1.16 0.15 2.56-0.61 3.06-1.7l7.61-16.72c0.5-1.09 1.85-1.73 3.01-1.42l8.56 2.29c1.19 0.32 2.02 1.54 1.9 2.74l-1.77 18.29c-0.12 1.2 0.69 2.54 1.8 3l8.83 3.67c1.08 0.45 2.63 0.08 3.39-0.85l11.69-14.2c0.77-0.93 2.23-1.2 3.28-0.59l7.67 4.43c1.07 0.62 1.55 2.01 1.13 3.14zm-29.36 36.71c-24.86-14.36-53.13-17.48-78.92-10.94-4.97 1.26-2.05 0.57-2.05 0.57-6.92 2.36-9.68 9.49-6.19 15.85 0 0-2.01-3.67 0.16 0.28 10.34 18.87 31.04 56.63 31.04 56.63 4.68 8.54 16.37 15.3 26.12 15.1 0 0 45.86-0.95 68.8-1.43 4.26-0.09 0 0 0 0 7.06-0.15 11.65-6.09 10.11-12.74-7.16-25.78-24.05-48.88-49.06-63.32zm-1.73 184.17c25.11-13.92 42.34-36.54 50.02-62.02 1.48-4.91 0.57-2.05 0.57-2.05 1.54-7.15-3.15-13.18-10.4-13.47 0 0 4.18 0.17-0.32-0.01-21.5-0.85-64.52-2.56-64.52-2.56-9.73-0.39-21.55 6.15-26.4 14.61 0 0-22.8 39.8-34.21 59.71-2.12 3.7 0 0 0 0-3.51 6.13-0.77 13.12 5.72 15.23 0 0-4.1-1.14 0 0 25.79 7.14 54.29 4.56 79.54-9.44zm-125.19-16.85c5.07 4.57 12.5 3.44 16.05-2.67 0 0-2.14 3.68 0 0 11.54-19.83 34.6-59.48 34.6-59.48 4.9-8.43 4.66-21.93-0.54-30.17 0 0-22.99-36.41-34.48-54.6-2.41-3.81-0.17-0.27-0.17-0.27-3.87-6.13-11.44-7.18-16.86-2.27 0 0 2.02-2.22-1.49 1.52-18.22 19.39-29.2 45.62-28.7 74.33 0.5 28.87 12.52 54.84 31.6 73.6z" fill="#050505" filter="url(#e)" opacity=".5"/>
    <path class="shp86" d="m2410.5 123.37-6.45 17.23c-0.42 1.13 0.01 2.63 0.96 3.36l7.59 5.81c0.93 0.71 2.52 0.75 3.5 0.05l14.96-10.68c0.98-0.7 2.47-0.58 3.32 0.28l6.27 6.27c0.87 0.87 0.98 2.34 0.28 3.32l-10.68 14.95c-0.7 0.98-0.67 2.55 0.06 3.5l5.82 7.59c0.71 0.93 2.24 1.38 3.36 0.96l17.21-6.45c1.13-0.42 2.53 0.08 3.13 1.13l4.43 7.67c0.62 1.07 0.34 2.51-0.59 3.28l-14.2 11.69c-0.93 0.77-1.31 2.29-0.85 3.39l3.65 8.83c0.45 1.08 1.8 1.91 3 1.8l18.31-1.78c1.2-0.12 2.43 0.73 2.74 1.9l2.29 8.56c0.32 1.19-0.32 2.51-1.42 3.01l-16.75 7.62c-1.1 0.5-1.86 1.87-1.7 3.06l1.25 9.47c0.15 1.16 1.25 2.31 2.44 2.51l18.14 3.02c1.19 0.2 2.15 1.34 2.15 2.54v8.86c0 1.23-0.96 2.35-2.15 2.54l-18.12 3.02c-1.19 0.2-2.28 1.32-2.43 2.51l-1.24 9.48c-0.15 1.16 0.61 2.56 1.7 3.06l16.72 7.61c1.09 0.5 1.73 1.85 1.42 3.01l-2.29 8.56c-0.32 1.19-1.54 2.02-2.74 1.9l-18.29-1.77c-1.2-0.12-2.54 0.69-3 1.8l-3.67 8.83c-0.45 1.08-0.08 2.63 0.85 3.39l14.2 11.69c0.93 0.77 1.2 2.23 0.59 3.28l-4.43 7.67c-0.62 1.07-2.01 1.55-3.14 1.13l-17.23-6.45c-1.13-0.42-2.63 0.01-3.36 0.96l-5.81 7.59c-0.71 0.93-0.75 2.52-0.05 3.5l10.68 14.96c0.7 0.98 0.58 2.47-0.28 3.32l-6.27 6.27c-0.87 0.87-2.34 0.98-3.32 0.28l-14.95-10.68c-0.98-0.7-2.55-0.67-3.5 0.06l-7.59 5.82c-0.93 0.71-1.38 2.24-0.96 3.36l6.45 17.21c0.42 1.13-0.08 2.53-1.13 3.13l-7.67 4.43c-1.07 0.62-2.51 0.34-3.28-0.59l-11.69-14.2c-0.77-0.93-2.29-1.31-3.39-0.85l-8.83 3.65c-1.08 0.45-1.91 1.8-1.8 3l1.78 18.31c0.12 1.2-0.73 2.43-1.9 2.74l-8.56 2.29c-1.19 0.32-2.51-0.32-3.01-1.42l-7.62-16.75c-0.5-1.1-1.87-1.86-3.06-1.7l-9.47 1.25c-1.16 0.15-2.31 1.25-2.51 2.44l-3.02 18.14c-0.2 1.19-1.34 2.15-2.54 2.15h-8.86c-1.23 0-2.35-0.96-2.54-2.15l-3.02-18.12c-0.2-1.19-1.32-2.28-2.51-2.43l-9.48-1.24c-1.16-0.15-2.56 0.61-3.06 1.7l-7.61 16.72c-0.5 1.09-1.85 1.73-3.01 1.42l-8.56-2.29c-1.19-0.32-2.02-1.54-1.9-2.74l1.77-18.29c0.12-1.2-0.69-2.54-1.8-3l-8.83-3.67c-1.08-0.45-2.63-0.08-3.39 0.85l-11.69 14.2c-0.77 0.93-2.23 1.2-3.28 0.59l-7.67-4.43c-1.07-0.62-1.55-2.01-1.13-3.14l6.45-17.23c0.42-1.13-0.01-2.63-0.96-3.36l-7.59-5.81c-0.93-0.71-2.52-0.75-3.5-0.05l-14.96 10.68c-0.98 0.7-2.47 0.58-3.32-0.28l-6.27-6.27c-0.87-0.87-0.98-2.34-0.28-3.32l10.68-14.95c0.7-0.98 0.67-2.55-0.06-3.5l-5.82-7.59c-0.71-0.93-2.24-1.38-3.36-0.96l-17.21 6.45c-1.13 0.42-2.53-0.08-3.13-1.13l-4.43-7.67c-0.62-1.07-0.34-2.51 0.59-3.28l14.2-11.69c0.93-0.77 1.31-2.29 0.85-3.39l-3.65-8.83c-0.45-1.08-1.8-1.91-3-1.8l-18.31 1.78c-1.2 0.12-2.43-0.73-2.74-1.9l-2.29-8.56c-0.32-1.19 0.32-2.51 1.42-3.01l16.75-7.62c1.1-0.5 1.86-1.87 1.7-3.06l-1.25-9.47c-0.15-1.16-1.25-2.31-2.44-2.51l-18.14-3.02c-1.19-0.2-2.15-1.34-2.15-2.54v-8.86c0-1.23 0.96-2.35 2.15-2.54l18.12-3.02c1.19-0.2 2.28-1.32 2.43-2.51l1.24-9.48c0.15-1.16-0.61-2.56-1.7-3.06l-16.72-7.61c-1.09-0.5-1.73-1.85-1.42-3.01l2.29-8.56c0.32-1.19 1.54-2.02 2.74-1.9l18.29 1.77c1.2 0.12 2.54-0.69 3-1.8l3.67-8.83c0.45-1.08 0.08-2.63-0.85-3.39l-14.2-11.69c-0.93-0.77-1.2-2.23-0.59-3.28l4.43-7.67c0.62-1.07 2.01-1.55 3.14-1.13l17.23 6.45c1.13 0.42 2.63-0.01 3.36-0.96l5.81-7.59c0.71-0.93 0.75-2.52 0.05-3.5l-10.68-14.96c-0.7-0.98-0.58-2.47 0.28-3.32l6.27-6.27c0.87-0.87 2.34-0.98 3.32-0.28l14.95 10.68c0.98 0.7 2.55 0.67 3.5-0.06l7.59-5.82c0.93-0.71 1.38-2.24 0.96-3.36l-6.45-17.21c-0.42-1.13 0.08-2.53 1.13-3.13l7.67-4.43c1.07-0.62 2.51-0.34 3.28 0.59l11.69 14.2c0.77 0.93 2.29 1.31 3.39 0.85l8.83-3.65c1.08-0.45 1.91-1.8 1.8-3l-1.78-18.31c-0.12-1.2 0.73-2.43 1.9-2.74l8.56-2.29c1.19-0.32 2.51 0.32 3.01 1.42l7.62 16.75c0.5 1.1 1.87 1.86 3.06 1.7l9.47-1.25c1.16-0.15 2.31-1.25 2.51-2.44l3.02-18.14c0.2-1.19 1.34-2.15 2.54-2.15h8.86c1.23 0 2.35 0.96 2.54 2.15l3.02 18.12c0.2 1.19 1.32 2.28 2.51 2.43l9.48 1.24c1.16 0.15 2.56-0.61 3.06-1.7l7.61-16.72c0.5-1.09 1.85-1.73 3.01-1.42l8.56 2.29c1.19 0.32 2.02 1.54 1.9 2.74l-1.77 18.29c-0.12 1.2 0.69 2.54 1.8 3l8.83 3.67c1.08 0.45 2.63 0.08 3.39-0.85l11.69-14.2c0.77-0.93 2.23-1.2 3.28-0.59l7.67 4.43c1.07 0.62 1.55 2.01 1.13 3.14zm-29.36 36.71c-24.86-14.36-53.13-17.48-78.92-10.94-4.97 1.26-2.05 0.57-2.05 0.57-6.92 2.36-9.68 9.49-6.19 15.85 0 0-2.01-3.67 0.16 0.28 10.34 18.87 31.04 56.63 31.04 56.63 4.68 8.54 16.37 15.3 26.12 15.1 0 0 45.86-0.95 68.8-1.43 4.26-0.09 0 0 0 0 7.06-0.15 11.65-6.09 10.11-12.74-7.16-25.78-24.05-48.88-49.06-63.32zm-1.73 184.17c25.11-13.92 42.34-36.54 50.02-62.02 1.48-4.91 0.57-2.05 0.57-2.05 1.54-7.15-3.15-13.18-10.4-13.47 0 0 4.18 0.17-0.32-0.01-21.5-0.85-64.52-2.56-64.52-2.56-9.73-0.39-21.55 6.15-26.4 14.61 0 0-22.8 39.8-34.21 59.71-2.12 3.7 0 0 0 0-3.51 6.13-0.77 13.12 5.72 15.23 0 0-4.1-1.14 0 0 25.79 7.14 54.29 4.56 79.54-9.44zm-125.19-16.85c5.07 4.57 12.5 3.44 16.05-2.67 0 0-2.14 3.68 0 0 11.54-19.83 34.6-59.48 34.6-59.48 4.9-8.43 4.66-21.93-0.54-30.17 0 0-22.99-36.41-34.48-54.6-2.41-3.81-0.17-0.27-0.17-0.27-3.87-6.13-11.44-7.18-16.86-2.27 0 0 2.02-2.22-1.49 1.52-18.22 19.39-29.2 45.62-28.7 74.33 0.5 28.87 12.52 54.84 31.6 73.6z" fill="url(#d)"/>
   </g>
  </g>
 </g>
</svg>
