<svg viewBox="0 0 48 48" xmlns="http://www.w3.org/2000/svg">
 <linearGradient id="a" x1="355.73" x2="355.69" y1="547" y2="505.33" gradientUnits="userSpaceOnUse">
  <stop stop-color="#2e5378" offset="0"/>
  <stop stop-color="#387898" offset="1"/>
 </linearGradient>
 <linearGradient id="b" x1="373.45" x2="373.45" y1="546.8" y2="507.87" gradientTransform="matrix(-.56777 0 0 .61822 579.27 212.13)" gradientUnits="userSpaceOnUse">
  <stop stop-color="#b1d7fc" offset="0"/>
  <stop stop-color="#f4fcff" offset="1"/>
 </linearGradient>
 <linearGradient id="c" x1="399.57" x2="399.57" y1="547.8" y2="542.8" gradientUnits="userSpaceOnUse">
  <stop stop-color="#0d305a" offset="0"/>
  <stop stop-color="#115570" offset="1"/>
 </linearGradient>
 <linearGradient id="d" x1="354.74" x2="354.74" y1="530.59" y2="519.04" gradientUnits="userSpaceOnUse">
  <stop stop-color="#c2d4e7" offset="0"/>
  <stop stop-color="#e0e3f7" offset="1"/>
 </linearGradient>
 <g transform="matrix(.9746 0 0 .9746 -322.3 -489.31)">
  <path d="m372.72 511.01c-4.6438-3.7792-10.81-5.8604-17.362-5.8604-6.5523 0-12.718 2.0813-17.362 5.8604-4.6842 3.812-7.2638 8.8925-7.2638 14.306 0 5.1665 2.3515 10.029 6.6381 13.776-0.0773 0.17385-0.13864 0.35675-0.1778 0.54904l-1.4085 6.9283c-0.16748 0.8234 0.0576 1.3144 0.27567 1.5815 0.25214 0.30847 0.62586 0.47846 1.0524 0.47846 0.32207 0 0.66821-0.095 1.0289-0.28251l8.1925-4.2561c2.8364 0.91297 5.8857 1.3917 9.0243 1.3917 6.5523 0 12.718-2.0813 17.362-5.8604 4.684-3.8119 7.2637-8.8924 7.2637-14.306 0-5.4133-2.5796-10.494-7.2636-14.306z" fill="url(#a)"/>
  <path d="m350.8 516.44v4.6173h-4.6173v2.3086h4.6173v4.6173h-4.6173v2.3086h4.6173v4.6173h2.3086v-4.6173h4.6173v4.6173h2.3086v-4.6173h4.6173v-2.3086h-4.6173v-4.6173h4.6173v-2.3086h-4.6173v-4.6173h-2.3086v4.6173h-4.6173v-4.6173zm2.3086 6.926h4.6173v4.6173h-4.6173z" fill="url(#d)"/>
  <path d="m358.65 529.15c2.3219-2.0575 5.4049-3.1906 8.6809-3.1906 3.2761 0 6.3591 1.1331 8.6809 3.1906 2.3421 2.0754 3.6319 4.8413 3.6319 7.7884 0 2.8128-1.1757 5.4601-3.3191 7.4998 0.0388 0.0947 0.0694 0.19423 0.0889 0.29891l0.70425 3.772c0.0837 0.44829-0.0287 0.7156-0.13788 0.861-0.12614 0.16793-0.31294 0.26049-0.52621 0.26049-0.16104 0-0.3341-0.0517-0.51444-0.15382l-4.0963-2.3171c-1.4182 0.49704-2.9428 0.75766-4.5121 0.75766-3.2761 0-6.359-1.1331-8.6809-3.1906-2.342-2.0753-3.6318-4.8412-3.6318-7.7883s1.2898-5.7131 3.6318-7.7884z" fill="url(#b)"/>
  <g transform="matrix(1.0733 0 0 1.0733 -59.631 -48.551)" fill="url(#c)">
   <circle cx="393.04" cy="545.5" r="2.0844" opacity=".837"/>
   <circle cx="397.79" cy="545.5" r="2.0844" opacity=".837"/>
   <circle cx="402.78" cy="545.5" r="2.0844" opacity=".837"/>
  </g>
 </g>
</svg>
