<svg viewBox="0 0 48 48" xmlns="http://www.w3.org/2000/svg">
 <path d="m24.001 21c-1.3266-2.41e-4 -2.6532 0.29538-3.6349 0.8844l-14.894 8.9351c-1.9634 1.178-1.9616 3.1839 0.0018 4.3619l14.893 8.9351c1.9634 1.178 5.3065 1.178 7.2699 0l14.893-8.9351c1.9634-1.178 1.9616-3.1839-0.0019-4.3619l-14.891-8.9351c-0.9817-0.58902-2.3084-0.88415-3.6349-0.8844z" opacity=".2"/>
 <path d="m24.001 20c-1.3266-2.41e-4 -2.6532 0.29538-3.6349 0.8844l-14.894 8.9351c-1.9634 1.178-1.9616 3.1839 0.0018 4.3619l14.893 8.9351c1.9634 1.178 5.3065 1.178 7.2699 0l14.893-8.9351c1.9634-1.178 1.9616-3.1839-0.0019-4.3619l-14.891-8.9351c-0.9817-0.58902-2.3084-0.88415-3.6349-0.8844z" fill="#af2d2c"/>
 <path d="m24.001 13c-1.3266-2.41e-4 -2.6532 0.29538-3.6349 0.8844l-14.894 8.9351c-1.9634 1.178-1.9616 3.1839 0.0018 4.3619l14.893 8.9351c1.9634 1.178 5.3065 1.178 7.2699 0l14.893-8.9351c1.9634-1.178 1.9616-3.1839-0.0019-4.3619l-14.891-8.9351c-0.9817-0.58902-2.3084-0.88415-3.6349-0.8844z" opacity=".2"/>
 <path d="m24.001 12c-1.3266-2.41e-4 -2.6532 0.29538-3.6349 0.8844l-14.894 8.9351c-1.9634 1.178-1.9616 3.1839 0.0018 4.3619l14.893 8.9351c1.9634 1.178 5.3065 1.178 7.2699 0l14.893-8.9351c1.9634-1.178 1.9616-3.1839-0.0019-4.3619l-14.891-8.9351c-0.9817-0.58902-2.3084-0.88415-3.6349-0.8844z" fill="#da3837"/>
 <path d="m24.001 5c-1.3266-2.41e-4 -2.6532 0.29538-3.6349 0.8844l-14.894 8.9351c-1.9634 1.178-1.9616 3.1839 0.0018 4.3619l14.893 8.9351c1.9634 1.178 5.3065 1.178 7.2699 0l14.893-8.9351c1.9634-1.178 1.9616-3.1839-0.0019-4.3619l-14.891-8.9351c-0.9817-0.58902-2.3084-0.88415-3.6349-0.8844z" opacity=".2"/>
 <path d="m24.001 4c-1.3266-2.41e-4 -2.6532 0.29538-3.6349 0.8844l-14.894 8.9351c-1.9634 1.178-1.9616 3.1839 0.0018 4.3619l14.893 8.9351c1.9634 1.178 5.3065 1.178 7.2699 0l14.893-8.9351c1.9634-1.178 1.9616-3.1839-0.0019-4.3619l-14.891-8.9351c-0.9817-0.58902-2.3084-0.88415-3.6349-0.8844z" fill="#e0504d"/>
 <path d="m24 4c-1.3266-2.41e-4 -2.6531 0.29575-3.6348 0.88477l-14.895 8.9355c-1.1884 0.71305-1.6434 1.7272-1.3926 2.6797 0.16285-0.62111 0.6176-1.2147 1.3926-1.6797l14.895-8.9355c0.9817-0.58902 2.3082-0.88501 3.6348-0.88477s2.655 0.29575 3.6367 0.88477l14.891 8.9355c0.775 0.46498 1.231 1.0586 1.3945 1.6797 0.24972-0.95248-0.20607-1.9666-1.3945-2.6797l-14.891-8.9355c-0.9817-0.58902-2.3101-0.88452-3.6367-0.88477z" fill="#fff" opacity=".2"/>
 <path transform="matrix(.02952 0 0 .043358 2.1014 -.31001)" d="m647 191.66 99.72 39 94.02-30.78-25.41 60.97 95.87 35.9-123.63 12.83-27.68 66.59-44.7-74.31-142.75-12.83 106.52-38.41z" opacity=".2"/>
 <path transform="matrix(.02952 0 0 .043358 2.1014 -1.31)" d="m678.96 250.62-31.96-58.96 99.72 39 94.02-30.78-25.41 60.97 95.87 35.9-123.63 12.83-27.68 66.59-44.7-74.31-142.75-12.83z" fill="#fff"/>
 <path transform="matrix(.027222 0 0 .040974 3.7958 .60376)" d="m752.51 619.81-230.72-95.7 330.61-50.73z" opacity=".2"/>
 <path transform="matrix(.027222 0 0 .040974 3.7958 -.39624)" d="m852.4 473.38-99.89 146.43-230.72-95.7z" fill="#fff"/>
 <ellipse cx="15" cy="17" rx="5" ry="3" opacity=".2"/>
 <ellipse cx="15" cy="16" rx="5" ry="3" fill="#fff"/>
 <g transform="matrix(.029117 0 0 .042979 2.5178 -1.536)">
  <path d="m1046.9 477.82-206.07-77.243 206.07-85.628z" opacity=".25"/>
  <path d="m1253 392.27-206.07 85.544v-162.87z" opacity=".4"/>
 </g>
</svg>
