<svg enable-background="new" viewBox="0 0 48 48" xmlns="http://www.w3.org/2000/svg">
 <path d="m7.0762 5c-0.85231 0-1.6216 0.34228-2.1777 0.89844-0.55615 0.55615-0.89844 1.3254-0.89844 2.1777v33.848c0 0.85231 0.34228 1.6216 0.89844 2.1777 0.55615 0.55615 1.3254 0.89844 2.1777 0.89844h33.848c1.7046 0 3.0762-1.3716 3.0762-3.0762v-33.848c0-0.85231-0.34228-1.6216-0.89844-2.1777-0.55615-0.55615-1.3254-0.89844-2.1777-0.89844z" opacity=".2"/>
 <path d="m7.0769 4c-0.85231 0-1.6216 0.34304-2.1777 0.89919l19.101 19.101 19.101-19.101c-0.55615-0.55615-1.3254-0.89919-2.1777-0.89919z" fill="#33d17a"/>
 <path d="m4.8992 4.8992c-0.55615 0.55615-0.89919 1.3254-0.89919 2.1777v33.846c0 0.85231 0.34304 1.6216 0.89919 2.1777l19.101-19.101z" fill="#3584e4"/>
 <path d="m43.101 4.8992-9.1008 9.1008 10 10v-16.923c0-0.85231-0.34304-1.6216-0.89919-2.1777z" fill="#5e5c64"/>
 <path transform="matrix(.70711 -.70711 .70711 .70711 0 0)" d="m0 33.94h14.142v14.142h-14.142z" fill="#f6d32d"/>
 <path d="m44 24-20 20h16.923c1.7046 0 3.0769-1.3723 3.0769-3.0769z" fill="#865e3c"/>
 <path d="m34 34h-20l10-10z" fill="#ff7800"/>
 <path d="m14 34-9.1008 9.1008c0.55615 0.55615 1.3254 0.89919 2.1777 0.89919h16.923l10-10z" fill="#ed333b"/>
 <path d="m7.0762 4c-0.85231 0-1.6216 0.34228-2.1777 0.89844-0.55615 0.55615-0.89844 1.3254-0.89844 2.1777v1c0-0.85231 0.34228-1.6216 0.89844-2.1777 0.55615-0.55615 1.3254-0.89844 2.1777-0.89844h33.848c0.85231 0 1.6216 0.34228 2.1777 0.89844 0.55615 0.55615 0.89844 1.3254 0.89844 2.1777v-1c0-0.85231-0.34228-1.6216-0.89844-2.1777-0.55615-0.55615-1.3254-0.89844-2.1777-0.89844z" fill="#fff" opacity=".2"/>
 <path d="m4.8984 4.8984c-0.55615 0.55615-0.89844 1.3254-0.89844 2.1777v1c0-0.85231 0.34228-1.6216 0.89844-2.1777l28.102 28.102h1l-10-10z" opacity=".1"/>
 <path d="m42.537 5.4629-37.639 37.639c-0.55615-0.55615-0.89844-1.3254-0.89844-2.1777v1c0 0.85231 0.34228 1.6216 0.89844 2.1777l38.203-38.203c-0.16824-0.16824-0.3608-0.31-0.56445-0.43555z" opacity=".1"/>
 <path d="m14 34-1 1h20l1-1z" opacity=".1"/>
</svg>
