<svg width="48" height="48" viewBox="0 0 12.7 12.7" xmlns="http://www.w3.org/2000/svg">
 <g transform="translate(0 -284.3)">
  <circle cx="6.35" cy="290.92" r="5.292" opacity=".2"/>
  <circle cx="6.35" cy="290.65" r="5.292" fill="#ff5836"/>
  <path transform="matrix(.26458 0 0 .26458 0 284.3)" d="m24 4a20 20 0 0 0-20 20 20 20 0 0 0 0.021484 0.58203 20 20 0 0 1 19.979-19.582 20 20 0 0 1 19.979 19.418 20 20 0 0 0 0.021484-0.41797 20 20 0 0 0-20-20z" fill="#fff" opacity=".2"/>
  <path d="m6.5996 287.74a0.26461 0.26461 0 0 0-0.24805 0.23254l-0.23564 1.8934a2.9104 2.1167 0 0 0-1.7735 0.57877 0.79375 0.79375 0 0 0-0.6382-0.32298 0.79375 0.79375 0 0 0-0.79375 0.79375 0.79375 0.79375 0 0 0 0.56172 0.7581 2.9104 2.1167 0 0 0-0.032556 0.30024 2.9104 2.1167 0 0 0 2.9104 2.1167 2.9104 2.1167 0 0 0 2.9104-2.1167 2.9104 2.1167 0 0 0-0.032556-0.29973 0.79375 0.79375 0 0 0 0.56172-0.75861 0.79375 0.79375 0 0 0-0.79375-0.79375 0.79375 0.79375 0 0 0-0.63717 0.32195 2.9104 2.1167 0 0 0-1.7105-0.57258l0.19534-1.5668 1.1322 0.16175a0.52917 0.52917 0 0 0 0.49093 0.3328 0.52917 0.52917 0 0 0 0.52917-0.52917 0.52917 0.52917 0 0 0-0.52917-0.52917 0.52917 0.52917 0 0 0-0.41548 0.20258l-1.3989-0.19896a0.26461 0.26461 0 0 0-0.05271-4e-3zm-1.3079 3.1755a0.52917 0.52917 0 0 1 0.52917 0.52917 0.52917 0.52917 0 0 1-0.52917 0.52917 0.52917 0.52917 0 0 1-0.52917-0.52917 0.52917 0.52917 0 0 1 0.52917-0.52917zm2.1167 0a0.52917 0.52917 0 0 1 0.52917 0.52917 0.52917 0.52917 0 0 1-0.52917 0.52917 0.52917 0.52917 0 0 1-0.52917-0.52917 0.52917 0.52917 0 0 1 0.52917-0.52917zm0.2589 1.5798a0.26553 0.26553 0 0 1 0.24288 0.39119c3e-7 0-0.11194 0.20295-0.35553 0.36535-0.2436 0.1624-0.63183 0.30851-1.2051 0.30851-0.57326 0-0.9615-0.14611-1.2051-0.30851s-0.35347-0.36535-0.35347-0.36535a0.26461 0.26461 0 0 1 0.21291-0.38654 0.26461 0.26461 0 0 1 0.026872-1e-3 0.26461 0.26461 0 0 1 0.23306 0.14934s0.020354 0.0621 0.17363 0.16434c0.15328 0.10218 0.42702 0.22065 0.91209 0.22065s0.75881-0.11847 0.91209-0.22065c0.15328-0.10217 0.17415-0.16434 0.17415-0.16434a0.26553 0.26553 0 0 1 0.23151-0.15296z" opacity=".2"/>
  <path transform="matrix(.26458 0 0 .26458 0 284.3)" d="m24.943 11.998a1.0001 1.0001 0 0 0-0.9375 0.87891l-0.89062 7.1562a11 8 0 0 0-6.7031 2.1875 3 3 0 0 0-2.4121-1.2207 3 3 0 0 0-3 3 3 3 0 0 0 2.123 2.8652 11 8 0 0 0-0.12305 1.1348 11 8 0 0 0 11 8 11 8 0 0 0 11-8 11 8 0 0 0-0.12305-1.1328 3 3 0 0 0 2.123-2.8672 3 3 0 0 0-3-3 3 3 0 0 0-2.4082 1.2168 11 8 0 0 0-6.4648-2.1641l0.73828-5.9219 4.2793 0.61133a2 2 0 0 0 1.8555 1.2578 2 2 0 0 0 2-2 2 2 0 0 0-2-2 2 2 0 0 0-1.5703 0.76562l-5.2871-0.75195a1.0001 1.0001 0 0 0-0.19922-0.015625zm-4.9434 12.002a2 2 0 0 1 2 2 2 2 0 0 1-2 2 2 2 0 0 1-2-2 2 2 0 0 1 2-2zm8 0a2 2 0 0 1 2 2 2 2 0 0 1-2 2 2 2 0 0 1-2-2 2 2 0 0 1 2-2zm0.97852 5.9707a1.0036 1.0036 0 0 1 0.91797 1.4785c1e-6 0-0.42307 0.76706-1.3438 1.3809s-2.388 1.166-4.5547 1.166-3.634-0.55222-4.5547-1.166c-0.92068-0.6138-1.3359-1.3809-1.3359-1.3809a1.0001 1.0001 0 0 1 0.80469-1.4609 1.0001 1.0001 0 0 1 0.10156-0.003906 1.0001 1.0001 0 0 1 0.88086 0.56445s0.076927 0.23486 0.65625 0.62109c0.57932 0.38619 1.6139 0.83398 3.4473 0.83398 1.8333 0 2.8679-0.44779 3.4473-0.83398 0.57932-0.38615 0.6582-0.62109 0.6582-0.62109a1.0036 1.0036 0 0 1 0.875-0.57812z" fill="#fff"/>
 </g>
</svg>
