<svg viewBox="0 0 48 48" xmlns="http://www.w3.org/2000/svg">
 <path d="m13.91 4.9156a6.0006 6.0006 0 0 0-5.9102 6.084v28a6.0006 6.0006 0 1 0 12 0v-5h5.5c8.0081 0 14.5-6.4919 14.5-14.5s-6.4919-14.5-14.5-14.5h-10.527a6.0006 6.0006 0 0 0-1.0625-0.083984zm6.0898 11.084h5.5c2.0633 0 3.5 1.4367 3.5 3.5s-1.4367 3.5-3.5 3.5h-5.5z" opacity=".2"/>
 <path d="m13.91 4c0.089844 4-1.9102 6-5.9102 6v28c-0.047333 3.3469 2.6528 6.0855 6 6.0855s6.0473-2.7386 6-6.0855v-5h5.5c8.0081 0 14.5-6.4919 14.5-14.5s-6.4919-14.5-14.5-14.5h-10.527c-0.35097-0.059455-1.0625 0-1.0625 0zm6.0898 11h5.5c2.0633 0 3.5 1.4367 3.5 3.5s-1.4367 3.5-3.5 3.5h-5.5z" fill="#a2ddef"/>
 <path d="m13.984 8.9863c-0.55152 0.0086211-0.99193 0.46214-0.98438 1.0137v29c-0.01913 1.3523 2.0191 1.3523 2 0v-11h10.5c5.2467 0 9.5-4.2533 9.5-9.5s-4.2533-9.5-9.5-9.5h-11.346c-0.05615-0.00939-0.113-0.013959-0.16992-0.013672zm1.0156 2.0137h10.5c4.1658 0 7.5 3.3342 7.5 7.5s-3.3342 7.5-7.5 7.5h-10.5z" fill="#001851" opacity=".3"/>
 <path d="m13.91 3.916a6.0006 6.0006 0 0 0-5.9102 6.084v1a6.0006 6.0006 0 0 1 5.9102-6.084 6.0006 6.0006 0 0 1 1.0625 0.083984h10.527c7.8393 0 14.209 6.2254 14.475 14 0.005724-0.16743 0.025391-0.33118 0.025391-0.5 0-8.0081-6.4919-14.5-14.5-14.5h-10.527a6.0006 6.0006 0 0 0-1.0625-0.083984zm15.045 15.084c-0.21634 1.7876-1.5655 3-3.4551 3h-5.5v1h5.5c2.0633 0 3.5-1.4367 3.5-3.5 0-0.1733-0.02513-0.33602-0.044922-0.5z" fill="#fff" opacity=".2"/>
 <path d="m13.893 4.9998c-1.1557 0.018934-2.318 0.37206-3.334 1.084-1.3127 0.91922-2.1868 2.2942-2.4648 3.873-0.27842 1.5788 0.073224 3.1732 0.99219 4.4863 1.8972 2.7111 5.6461 3.3711 8.3555 1.4727 1.3123-0.91958 2.1884-2.2958 2.4668-3.875 0.27806-1.5781-0.075177-3.1712-0.99414-4.4844-1.1857-1.6945-3.0954-2.5882-5.0215-2.5566zm12.904 17.932a6.0006 6.0006 0 0 0-4.7129 9.5098l7 10a6.0009 6.0009 0 1 0 9.832-6.8828l-7-10a6.0006 6.0006 0 0 0-5.1191-2.627z" fill-rule="evenodd" opacity=".1"/>
 <path d="m18.914 6.5573c0.91896 1.3131 1.2719 2.9065 0.9938 4.4846-0.27842 1.5792-1.1545 2.9548-2.4668 3.8744-2.7094 1.8985-6.4572 1.2375-8.3544-1.4737-0.91896-1.3131-1.2719-2.9061-0.99345-4.485 0.27807-1.5788 1.1541-2.9548 2.4668-3.874 2.7094-1.8985 6.4569-1.2375 8.354 1.4737z" fill="#368bd6" fill-rule="evenodd"/>
 <path d="m34 38-7-10" fill="none" stroke="#368bd6" stroke-linecap="round" stroke-width="12"/>
</svg>
