<svg viewBox="0 0 48 48" xmlns="http://www.w3.org/2000/svg">
 <path d="m24 5a20 20 0 0 0-20 20 20 20 0 0 0 20 20 20 20 0 0 0 20-20 20 20 0 0 0-20-20z" opacity=".2"/>
 <path d="m24 4a20 20 0 0 0-20 20 20 20 0 0 0 20 20 20 20 0 0 0 20-20 20 20 0 0 0-20-20z" fill="#46c552"/>
 <path d="m24 4a20 20 0 0 0-20 20 20 20 0 0 0 0.021484 0.41797 20 20 0 0 1 19.979-19.418 20 20 0 0 1 19.979 19.582 20 20 0 0 0 0.021484-0.58203 20 20 0 0 0-20-20z" fill="#fff" opacity=".2"/>
 <path d="m20.295 34.391c1.8696-0.88484 3.5355-1.6072 3.7019-1.6052 0.16643 0.0019 1.8187 0.72595 3.6718 1.6088 1.853 0.88286 3.4905 1.6052 3.6387 1.6052 0.20506 0 0.24423-0.16975 0.16377-0.70977-0.05816-0.39037-0.2908-2.2214-0.51699-4.0689l-0.41124-3.3591 1.8544-1.9966c2.7559-2.9673 3.6999-4.0619 3.5946-4.168-0.05197-0.05238-1.8168-0.43106-3.9218-0.84149-3.0436-0.59343-3.8912-0.82466-4.1392-1.1293-0.17156-0.21069-0.96775-1.5967-1.7693-3.08-1.7058-3.1566-2.1373-3.8237-2.3354-3.6105-0.08003 0.0861-0.96109 1.647-1.9579 3.4688-0.99682 1.8217-1.8744 3.3747-1.9502 3.4512-0.07582 0.07642-1.6982 0.43982-3.6053 0.80755-4.4517 0.85839-4.3125 0.8241-4.3125 1.0622 0 0.11184 1.2281 1.5208 2.7291 3.1309 2.5515 2.737 2.7226 2.9669 2.6284 3.5312-0.18401 1.1033-0.8502 6.6534-0.85057 7.0861-1.87e-4 0.23422 0.08712 0.42586 0.19406 0.42586 0.10693 0 1.7241-0.72396 3.5938-1.6088z" opacity=".2"/>
 <path d="m20.295 33.391c1.8696-0.88484 3.5355-1.6072 3.7019-1.6052 0.16643 0.0019 1.8187 0.72595 3.6718 1.6088 1.853 0.88286 3.4905 1.6052 3.6387 1.6052 0.20506 0 0.24423-0.16975 0.16377-0.70977-0.05816-0.39037-0.2908-2.2214-0.51699-4.0689l-0.41124-3.3591 1.8544-1.9966c2.7559-2.9673 3.6999-4.0619 3.5946-4.168-0.05197-0.05238-1.8168-0.43106-3.9218-0.84149-3.0436-0.59343-3.8912-0.82466-4.1392-1.1293-0.17156-0.21069-0.96775-1.5967-1.7693-3.08-1.7058-3.1566-2.1373-3.8237-2.3354-3.6105-0.08003 0.0861-0.96109 1.647-1.9579 3.4688-0.99682 1.8217-1.8744 3.3747-1.9502 3.4512-0.07582 0.07642-1.6982 0.43982-3.6053 0.80755-4.4517 0.85839-4.3125 0.8241-4.3125 1.0622 0 0.11184 1.2281 1.5208 2.7291 3.1309 2.5515 2.737 2.7226 2.9669 2.6284 3.5312-0.18401 1.1033-0.8502 6.6534-0.85057 7.0861-1.87e-4 0.23422 0.08712 0.42586 0.19406 0.42586 0.10693 0 1.7241-0.72396 3.5938-1.6088z" fill="#fff"/>
</svg>
