<svg viewBox="0 0 48 48" xmlns="http://www.w3.org/2000/svg">
 <linearGradient id="a" x1="399.57" x2="399.57" y1="545.8" y2="517.8" gradientUnits="userSpaceOnUse">
  <stop stop-color="#3889e9" offset="0"/>
  <stop stop-color="#5ea5fb" offset="1"/>
 </linearGradient>
 <clipPath>
  <path d="m118.09 602.32h349.6v-227.59h-349.6z"/>
 </clipPath>
 <linearGradient id="b" x1="286.02" x2="281.4" y1="359.13" y2="781.13" gradientUnits="userSpaceOnUse">
  <stop stop-color="#c61423" offset="0"/>
  <stop stop-color="#ff4c63" offset="1"/>
 </linearGradient>
 <circle transform="matrix(1.6375 0 0 1.6375 -644.58 -848.72)" cx="400.57" cy="531.8" r="0" fill="url(#a)"/>
 <path transform="matrix(.12117 0 0 -.12117 -13.842 92.287)" d="m496.91 520.21c2.817 12.881 4.315 26.252 4.315 39.977 0 102.89-83.411 186.3-186.31 186.3-10.863 0-21.507-0.94-31.861-2.725-16.651 10.488-36.35 16.577-57.482 16.577-59.67 0-108.04-48.375-108.04-108.04 0-19.945 5.427-38.613 14.851-54.649-2.471-12.103-3.77-24.632-3.77-37.466 0-102.89 83.409-186.3 186.3-186.3 11.654 0 23.054 1.079 34.113 3.126 15.21-8.175 32.599-12.821 51.076-12.821 59.671 0 108.04 48.371 108.04 108.04 0 17.239-4.057 33.522-11.24 47.981" fill="url(#b)"/>
 <path transform="matrix(.1017 0 0 .1017 -5.965 -12.526)" d="m343.96 416.62c-4.9212 46.588-74.147 32.808-101.05 14.436-11.155-9.1863-20.669-6.2336-29.199 2.2966-5.9055 8.8582-6.2336 23.294 4.5932 32.152 45.275 37.401 166.01 35.433 168.31-47.9 2.2966-87.27-140.42-56.43-131.56-110.24 6.8897-34.121 62.008-26.903 86.286-11.483 19.685 14.436 43.307-14.108 20.997-32.152-45.275-34.777-141.4-23.294-148.95 40.354-10.171 93.175 126.31 63.976 130.58 112.53z" fill="#fff" fill-opacity=".85" stroke="#e2f3fe" stroke-width="11.158"/>
</svg>
