<svg version="1.1" viewBox="0 0 128 128" xmlns="http://www.w3.org/2000/svg" xmlns:xlink="http://www.w3.org/1999/xlink">
 <defs>
  <linearGradient id="h" x1="82" x2="82" y1="106" y2="112" gradientTransform="matrix(1.1522 0 0 1.1522 -38.535 -55.8)" gradientUnits="userSpaceOnUse" xlink:href="#a"/>
  <linearGradient id="c" x1="230.88" x2="230.88" y1="934.11" y2="930.36" gradientTransform="matrix(3.0723 0 0 3.0723 -648.78 -2794.3)" gradientUnits="userSpaceOnUse" xlink:href="#b"/>
  <linearGradient id="b">
   <stop stop-color="#f6f7f7" offset="0"/>
   <stop stop-color="#dce7f0" offset="1"/>
  </linearGradient>
  <linearGradient id="d" x1="562.56" x2="562.56" y1="283.89" y2="569.09" gradientUnits="userSpaceOnUse" xlink:href="#b"/>
  <linearGradient id="a">
   <stop stop-color="#ff9300" offset="0"/>
   <stop stop-color="#ff6d00" offset="1"/>
  </linearGradient>
  <linearGradient id="i" x1="540.14" x2="540.14" y1="29.77" y2="1055" gradientTransform="matrix(.11371 0 0 .11371 5.7827 2.5577)" gradientUnits="userSpaceOnUse">
   <stop stop-color="#fff" stop-opacity=".58824" offset="0"/>
   <stop stop-color="#fff" stop-opacity="0" offset="1"/>
  </linearGradient>
  <filter id="k" x="-.024" y="-.024" width="1.048" height="1.058" color-interpolation-filters="sRGB">
   <feFlood flood-color="rgb(0,0,0)" flood-opacity=".29412" result="flood"/>
   <feComposite in="flood" in2="SourceGraphic" operator="in" result="composite1"/>
   <feGaussianBlur in="composite1" result="blur" stdDeviation="3"/>
   <feOffset dx="0" dy="3" result="offset"/>
   <feComposite in="offset" in2="SourceGraphic" operator="out" result="composite2"/>
  </filter>
  <filter id="j" x="-.024" y="-.1152" width="1.048" height="1.2784" color-interpolation-filters="sRGB">
   <feFlood flood-color="rgb(0,0,0)" flood-opacity=".29412" result="flood"/>
   <feComposite in="flood" in2="SourceGraphic" operator="in" result="composite1"/>
   <feGaussianBlur in="composite1" result="blur" stdDeviation="3"/>
   <feOffset dx="0" dy="3" result="offset"/>
   <feComposite in="offset" in2="SourceGraphic" operator="out" result="composite2"/>
  </filter>
  <linearGradient id="g" x1="520" x2="520.03" y1="4" y2="1026" gradientTransform="matrix(.098219 0 0 .098219 13.715 12.496)" gradientUnits="userSpaceOnUse" xlink:href="#a"/>
  <linearGradient id="e" x1="22" x2="1002" y1="512" y2="512" gradientTransform="matrix(.11429 0 0 .11429 5.4857 5.4856)" gradientUnits="userSpaceOnUse" xlink:href="#a"/>
  <linearGradient id="f" x1="520" x2="520" y1="24" y2="984" gradientTransform="matrix(.11429 0 0 .11429 5.4857 5.4857)" gradientUnits="userSpaceOnUse" xlink:href="#a"/>
  <linearGradient id="m" x1="230.88" x2="230.88" y1="934.11" y2="930.36" gradientTransform="matrix(16.667,0,0,16.667,-3296.7,-15068)" gradientUnits="userSpaceOnUse" xlink:href="#b"/>
  <linearGradient id="l" x1="562.56" x2="562.56" y1="283.89" y2="569.09" gradientTransform="matrix(.18434 0 0 .18434 -41.07 -16.674)" gradientUnits="userSpaceOnUse" xlink:href="#b"/>
 </defs>
 <circle cx="64.002" cy="64.002" r="56.002" fill="url(#f)" fill-rule="evenodd" stroke-width=".11429" style="paint-order:stroke markers fill"/>
 <circle cx="64.002" cy="64.002" r="56.002" fill="url(#e)" fill-rule="evenodd" stroke-width=".11429" style="paint-order:stroke markers fill"/>
 <path d="m110.63 43.532c-0.61083-1.481-1.2998-2.9317-2.0669-4.3523-0.43149-0.80438-0.88962-1.6035-1.3743-2.3865-2.0829-3.3774-4.6239-6.5682-7.623-9.5674-9.8179-9.8179-21.676-14.73-35.564-14.73s-25.74 4.9116-35.558 14.73c-9.8179 9.8179-14.73 21.671-14.73 35.558 0 13.887 4.9116 25.746 14.73 35.564 9.8179 9.8178 20.955-4.4614 34.842-4.4614s26.462 14.279 36.279 4.4614c5.4069-5.4123 9.3277-11.443 11.757-18.085 1.9763-5.4177 2.9672-11.24 2.9672-17.478 0-4.7837-0.58065-9.3277-1.7473-13.633-0.13318-0.48476-0.27168-0.96953-0.41552-1.449-0.43681-1.417-0.93756-2.8074-1.4968-4.1711z" fill="url(#g)" stroke-width=".10654"/>
 <rect transform="matrix(.18434 0 0 .18434 -41.07 -16.674)" x="420" y="437.75" width="300" height="62.5" ry="31.25" fill="url(#m)" filter="url(#j)"/>
 <g stroke-width=".18434">
  <path d="m58.133 34.065c-1.8408 3.8303-3.6289 7.7658-5.3647 11.81-1.683 3.9899-3.4324 8.2045-5.2204 12.674-0.39526 1.0177-0.7874 2.1203-1.188 3.1685h11.701c0.12566-0.34904 0.27159-0.73634 0.39605-1.0801 0.84147-2.1812 1.5845-4.168 2.2683-5.9766 0.68375-1.809 1.2742-3.4053 1.8002-4.7885 0.52592-1.3831 0.92514-2.4783 1.1882-3.2765 0.31556 0.79819 0.73422 1.8928 1.2602 3.2765 0.52595 1.3831 1.1525 2.9797 1.8362 4.7885 0.7363 1.8085 1.4794 3.7953 2.2683 5.9766 0.12443 0.34375 0.27036 0.73104 0.39602 1.0801h12.133c-0.41006-1.0484-0.81676-2.1503-1.224-3.1685-1.7356-4.4687-3.4849-8.6833-5.2204-12.674-1.7356-4.0432-3.5042-7.9787-5.2925-11.81zm-17.677 43.599c-1.3248 3.7069-2.6777 7.557-4.1045 11.701h12.781c0.57855-1.9153 1.2244-3.8828 1.9083-5.9046 0.68399-1.8779 1.3415-3.7385 1.9802-5.6166h-10.909c-0.57056 0-1.1197-0.06821-1.6562-0.18004zm47.055 0c-0.52595 0.10722-1.0617 0.18004-1.6202 0.18004h-11.305c0.6349 1.8773 1.2732 3.7391 1.9083 5.6166 0.73624 2.0214 1.4017 3.9893 1.9802 5.9046h13.178c-1.4267-4.1443-2.7794-7.9944-4.1045-11.701-0.0123 0.0023-0.02458-0.0023-0.03595 0z" fill="url(#l)"/>
  <rect x="36.352" y="64.02" width="55.302" height="11.522" ry="5.7606" fill="url(#c)"/>
  <rect x="38.656" y="67.477" width="34.564" height="6.9127" ry="3.4564" color="#000000" enable-background="accumulate" fill="#fff"/>
  <rect x="38.656" y="66.325" width="34.564" height="6.9127" ry="3.4564" color="#000000" enable-background="accumulate" fill="url(#h)"/>
  <path d="m42.112 64.02c-3.1914 0-5.7606 2.5694-5.7606 5.7606 0 0.1994 0.01535 0.38195 0.03595 0.57606 0.29402-2.9118 2.7327-5.1845 5.7247-5.1845h43.78c2.9918 0 5.4306 2.2727 5.7247 5.1845 0.01843-0.19417 0.03595-0.37661 0.03595-0.57606 0-3.1913-2.5694-5.7606-5.7606-5.7606z" fill="#fff"/>
  <path d="m42.112 66.325c-1.9149 0-3.4564 1.5415-3.4564 3.4564 0 0.20185 0.03902 0.38375 0.07189 0.57606 0.27927-1.6308 1.6715-2.8803 3.3842-2.8803h27.651c1.7129 0 3.105 1.2495 3.3845 2.8803 0.03287-0.19232 0.07189-0.37408 0.07189-0.57606 0-1.9147-1.5415-3.4564-3.4564-3.4564h-27.651z" color="#000000" enable-background="accumulate" opacity=".1"/>
 </g>
 <path transform="matrix(.18434 0 0 .18434 -41.07 -16.674)" d="m538.16 275.25c-9.9858 20.779-19.686 42.128-29.102 64.062-9.13 21.644-18.62 44.508-28.32 68.75-2.1442 5.5208-4.2715 11.502-6.4452 17.188h63.476c0.68167-1.8935 1.4733-3.9945 2.1485-5.8593 4.5648-11.833 8.5957-22.611 12.305-32.422 3.7092-9.8132 6.9123-18.473 9.7655-25.977 2.853-7.5033 5.0187-13.444 6.4453-17.774 1.7118 4.33 3.983 10.268 6.836 17.774 2.8532 7.5033 6.2523 16.164 9.961 25.977 3.9943 9.8112 8.0252 20.589 12.305 32.422 0.675 1.8648 1.4667 3.9658 2.1483 5.8593h65.82c-2.2245-5.6873-4.4308-11.665-6.6405-17.188-9.4153-24.242-18.905-47.105-28.32-68.75-9.4152-21.934-19.01-43.283-28.711-64.062zm-95.898 236.52c-7.1872 20.109-14.526 40.995-22.266 63.476h69.336c3.1385-10.39 6.6422-21.063 10.352-32.031 3.7105-10.187 7.2778-20.281 10.742-30.469h-59.18c-3.0952 0-6.074-0.37-8.9843-0.97667zm255.27 0c-2.8532 0.58167-5.7593 0.97667-8.7892 0.97667h-61.328c3.4442 10.184 6.907 20.284 10.352 30.469 3.994 10.966 7.6037 21.641 10.742 32.031h71.484c-7.7393-22.482-15.078-43.368-22.266-63.476-0.0667 0.0125-0.13333-0.0125-0.195 0z" fill="url(#d)" filter="url(#k)"/>
 <circle cx="64.002" cy="64.002" r="55.718" color="#000000" enable-background="accumulate" fill="none" stroke="url(#i)" stroke-width=".56859"/>
</svg>
