<svg version="1.1" viewBox="0 0 1024 1024" xmlns="http://www.w3.org/2000/svg" xmlns:xlink="http://www.w3.org/1999/xlink">
 <defs>
  <linearGradient id="c">
   <stop stop-color="#f6f7f7" offset="0"/>
   <stop stop-color="#dce7f0" offset="1"/>
  </linearGradient>
  <linearGradient id="a">
   <stop stop-color="#8d8d92" offset="0"/>
   <stop stop-color="#68686e" offset="1"/>
  </linearGradient>
  <linearGradient id="b">
   <stop stop-color="#1a1a1a" offset="0"/>
   <stop stop-color="#333" offset="1"/>
  </linearGradient>
  <linearGradient id="j" x1="97.551" x2="97.551" y1="-3.6735" y2="204.49" gradientTransform="matrix(4.9 0 0 4.9 22 50.362)" gradientUnits="userSpaceOnUse" xlink:href="#a"/>
  <linearGradient id="e" x1="540" x2="540" y1="452.36" y2="632.36" gradientTransform="matrix(3.6865 0 0 3.6865 -1477.7 -1455.7)" gradientUnits="userSpaceOnUse" xlink:href="#b"/>
  <linearGradient id="i" x1="520" x2="520" y1="52.362" y2="1052.4" gradientUnits="userSpaceOnUse" xlink:href="#a"/>
  <linearGradient id="d" x1="540" x2="180" y1="292.36" y2="1012.4" gradientUnits="userSpaceOnUse" xlink:href="#c"/>
  <linearGradient id="h" x1="540" x2="180" y1="292.36" y2="1012.4" gradientTransform="translate(285.97 -285.25)" gradientUnits="userSpaceOnUse" xlink:href="#b"/>
  <linearGradient id="g" x1="540" x2="180" y1="292.36" y2="1012.4" gradientTransform="matrix(.68 0 0 .68 358.3 -21.054)" gradientUnits="userSpaceOnUse" xlink:href="#c"/>
  <linearGradient id="f" x1="540" x2="180" y1="292.36" y2="1012.4" gradientTransform="matrix(.68 0 0 .68 81.996 256.61)" gradientUnits="userSpaceOnUse" xlink:href="#a"/>
  <filter id="o" x="-.035978" y="-.036022" width="1.072" height="1.072" color-interpolation-filters="sRGB">
   <feGaussianBlur stdDeviation="8.7841667"/>
  </filter>
  <filter id="n" x="-.036" y="-.036" width="1.072" height="1.072" color-interpolation-filters="sRGB">
   <feGaussianBlur stdDeviation="2.55"/>
  </filter>
  <linearGradient id="m" x1="660" x2="660" y1="252.36" y2="872.36" gradientUnits="userSpaceOnUse">
   <stop stop-opacity=".0092166" offset="0"/>
   <stop stop-color="#fff" stop-opacity=".39216" offset="1"/>
  </linearGradient>
  <linearGradient id="l" x1="320" x2="320" y1="32.362" y2="1052.4" gradientUnits="userSpaceOnUse">
   <stop stop-color="#4d4d4d" offset="0"/>
   <stop stop-color="#68686e" offset="1"/>
  </linearGradient>
  <linearGradient id="k" x1="540.14" x2="540.14" y1="29.77" y2="1055" gradientTransform="matrix(.99492 0 0 .99492 2.599 2.743)" gradientUnits="userSpaceOnUse">
   <stop stop-color="#ccc" offset="0"/>
   <stop stop-color="#666" offset="1"/>
  </linearGradient>
 </defs>
 <g transform="translate(0 -28.362)">
  <circle cx="512" cy="540.36" r="490" color="#000000" fill="url(#j)"/>
  <circle cx="511.5" cy="540.86" r="468.66" color="#000000" fill="url(#i)"/>
  <circle cx="512" cy="540.36" r="275" fill="url(#e)" stroke="url(#m)" stroke-linecap="square" stroke-width="4" style="paint-order:stroke markers fill"/>
  <g transform="translate(0,8)" filter="url(#o)" opacity=".3">
   <circle cx="512" cy="540.36" r="175" opacity="1" style="paint-order:stroke markers fill"/>
   <circle cx="226.03" cy="825.61" r="125" opacity="1" style="paint-order:stroke markers fill"/>
   <path d="m360 452.36-235 300 180 170 315-245z"/>
   <circle cx="512" cy="540.36" r="125" opacity="1" style="paint-order:stroke markers fill"/>
   <circle cx="512" cy="540.36" r="85" opacity="1" style="paint-order:stroke markers fill"/>
   <circle cx="235.69" cy="818.03" r="85" opacity="1" style="paint-order:stroke markers fill"/>
   <circle cx="235.69" cy="818.03" r="85" opacity="1" style="paint-order:stroke markers fill"/>
  </g>
  <circle cx="512" cy="540.36" r="487.51" color="#000000" fill="none" stroke="url(#k)" stroke-width="4.975"/>
  <g fill="url(#d)">
   <g fill="url(#d)">
    <circle cx="512" cy="540.36" r="175" style="paint-order:stroke markers fill"/>
    <circle cx="226.03" cy="825.61" r="125" style="paint-order:stroke markers fill"/>
    <path d="m360 452.36-235 300 180 170 315-245z"/>
   </g>
   <circle cx="512" cy="540.36" r="125" fill="url(#h)" style="paint-order:stroke markers fill"/>
   <circle cx="512" cy="548.36" r="85" fill="#000" filter="url(#n)" opacity=".3" style="paint-order:stroke markers fill"/>
   <circle cx="512" cy="540.36" r="85" fill="url(#g)" style="paint-order:stroke markers fill"/>
   <circle cx="235.69" cy="818.03" r="85" fill="url(#f)" style="paint-order:stroke markers fill"/>
   <circle cx="235.69" cy="818.03" r="85" fill="url(#l)" stroke="#fff" stroke-linecap="square" stroke-opacity=".19608" stroke-width="6" style="paint-order:stroke markers fill"/>
  </g>
  <g fill="none">
   <circle cx="512" cy="540.36" r="175" style="paint-order:stroke markers fill"/>
   <circle cx="226.03" cy="825.61" r="125" style="paint-order:stroke markers fill"/>
   <path d="m360 452.36-235 300 180 170 315-245z"/>
  </g>
 </g>
</svg>
