<svg enable-background="new 0 0 1024 1024" image-rendering="optimizeSpeed" style="background-color:#FFFFFF" version="1.1" viewBox="0 0 1024 1024" xmlns="http://www.w3.org/2000/svg" xmlns:xlink="http://www.w3.org/1999/xlink">
 <defs>
  <linearGradient id="a">
   <stop stop-color="#333" offset="0"/>
   <stop stop-color="#1a1a1a" offset="1"/>
  </linearGradient>
  <linearGradient id="b" x1="193.59" x2="211.49" y1="414.56" y2="324.75" gradientTransform="matrix(1.8717 0 0 1.2478 182.05 159.96)" gradientUnits="userSpaceOnUse">
   <stop stop-color="#ff7400" offset="0"/>
   <stop stop-color="#f45a00" offset=".53"/>
   <stop stop-color="#CE6E00" offset="1"/>
  </linearGradient>
  <linearGradient id="d" x1="520.44" x2="520" y1="36.822" y2="984" gradientTransform="matrix(.90042 0 0 .90042 50.983 50.983)" gradientUnits="userSpaceOnUse" xlink:href="#a"/>
  <filter id="f" x="-.041377" y="-.03186" width="1.0828" height="1.0637" color-interpolation-filters="sRGB">
   <feGaussianBlur stdDeviation="6.7714073"/>
  </filter>
  <linearGradient id="c" x1="520.03" x2="520.03" y1="2.0078" y2="1026" gradientTransform="matrix(.95703 0 0 .95703 22 22)" gradientUnits="userSpaceOnUse" xlink:href="#a"/>
  <linearGradient id="e" x1="540.14" x2="540.14" y1="29.77" y2="1055" gradientTransform="matrix(.99492 0 0 .99492 2.599 -25.619)" gradientUnits="userSpaceOnUse">
   <stop stop-color="#1a1a1a" offset="0"/>
   <stop stop-color="#1a1a1a" stop-opacity="0" offset="1"/>
  </linearGradient>
 </defs>
 <path d="m966.34 324.41q-8.928-21.645-20.14-42.408c-4.2044-7.8379-8.6684-15.624-13.392-23.254-20.296-32.909-45.055-64.001-74.279-93.225-95.664-95.664-211.21-143.52-346.53-143.52s-250.81 47.858-346.48 143.52c-95.664 95.664-143.52 211.16-143.52 346.48s47.858 250.87 143.52 346.53c95.664 95.664 211.16 143.47 346.48 143.47s250.87-47.806 346.53-143.47c52.685-52.737 90.889-111.5 114.56-176.22 19.257-52.789 28.912-109.52 28.912-170.31 0-46.612-5.6579-90.889-17.025-132.83-1.2977-4.7235-2.6472-9.447-4.0487-14.119-4.2564-13.807-9.1356-27.355-14.586-40.643z" fill="url(#c)" stroke-width="1.0381"/>
 <circle cx="512" cy="512" r="425" fill="url(#d)" stroke-miterlimit="0" stroke-width="0" style="paint-order:stroke markers fill"/>
 <g transform="matrix(.99609 0 0 .99609 2.0996 23.881)" filter="url(#f)" opacity=".2" stroke-width="1.5342">
  <path d="m708.28 512.08c0-5.9816-4.4192-9.4308-9.8424-7.7171l-373.08 118.34c-5.434 1.7246-9.8424 7.979-9.8424 13.95v120.95c0 5.9816 4.4083 9.4417 9.8424 7.7171l373.08-118.33c5.4231-1.7246 9.8424-7.979 9.8424-13.961z"/>
  <path d="m315.52 508.9c0 5.9812 4.4077 12.235 9.841 13.96l373.09 118.35c5.4333 1.7245 9.841-1.7354 9.841-7.7057v-120.96c0-5.9703-4.4077-12.224-9.841-13.949l-373.09-118.35c-5.4333-1.7245-9.841 1.7245-9.841 7.7057z"/>
  <path d="m708.28 263.84c0-5.9816-4.4192-9.4417-9.8424-7.7171l-373.08 118.33c-5.434 1.7246-9.8424 7.9791-9.8424 13.961v120.95c0 5.9816 4.4083 9.4308 9.8424 7.7171l373.08-118.34c5.4231-1.7246 9.8424-7.979 9.8424-13.95z"/>
 </g>
 <g transform="translate(-12.384 9.3501)" stroke-width="1.5283">
  <path d="m720 504c0-5.9582-4.402-9.394-9.8039-7.6869l-371.63 117.88c-5.4128 1.7179-9.8039 7.9479-9.8039 13.895v120.48c0 5.9582 4.3911 9.4048 9.8039 7.687l371.63-117.87c5.4019-1.7179 9.8039-7.9479 9.8039-13.906z" fill="url(#b)"/>
  <path d="m328.77 500.83c0 5.9578 4.3905 12.187 9.8026 13.905l371.63 117.88c5.412 1.7178 9.8026-1.7286 9.8026-7.6756v-120.48c0-5.947-4.3905-12.177-9.8026-13.894l-371.63-117.88c-5.412-1.7178-9.8026 1.7178-9.8026 7.6756z" fill="#f80"/>
  <path d="m720 256.73c0-5.9582-4.402-9.4048-9.8039-7.687l-371.63 117.87c-5.4128 1.7179-9.8039 7.9479-9.8039 13.906v120.48c0 5.9582 4.3911 9.394 9.8039 7.687l371.63-117.88c5.4019-1.7179 9.8039-7.9479 9.8039-13.895z" fill="#ffa300"/>
 </g>
 <circle cx="512" cy="512" r="487.51" color="#000000" enable-background="accumulate" fill="none" stroke="url(#e)" stroke-width="4.975"/>
</svg>
