<svg clip-rule="evenodd" fill-rule="evenodd" stroke-linejoin="round" stroke-miterlimit="2" viewBox="0 0 48 48" xmlns="http://www.w3.org/2000/svg">
 <linearGradient id="a" x2="1" gradientTransform="matrix(9.2719 -14.856 14.856 9.2719 32.688 34.084)" gradientUnits="userSpaceOnUse">
  <stop stop-color="#b45af2" offset="0"/>
  <stop stop-color="#862bc3" offset="1"/>
 </linearGradient>
 <linearGradient id="b" x2="1" gradientTransform="matrix(12.957 -25.882 25.882 12.957 261.89 159.82)" gradientUnits="userSpaceOnUse">
  <stop stop-color="#00afc2" offset="0"/>
  <stop stop-color="#1a7fcd" offset="1"/>
 </linearGradient>
 <linearGradient id="c" x2="1" gradientTransform="matrix(12.539 -6.9074 6.9074 12.539 150.47 243.05)" gradientUnits="userSpaceOnUse">
  <stop stop-color="#41caba" offset="0"/>
  <stop stop-color="#00ae9a" offset="1"/>
 </linearGradient>
 <linearGradient id="d" x2="1" gradientTransform="matrix(6.7084 -16.727 16.727 6.7084 156 94.727)" gradientUnits="userSpaceOnUse">
  <stop stop-color="#fff" stop-opacity=".07" offset="0"/>
  <stop stop-color="#ddd" stop-opacity=".25" offset="1"/>
 </linearGradient>
 <linearGradient id="e" x2="1" gradientTransform="matrix(-6.3916 11.788 -11.788 -6.3916 -267.06 -119.18)" gradientUnits="userSpaceOnUse">
  <stop stop-color="#f7b938" offset="0"/>
  <stop stop-color="#f7d838" offset="1"/>
 </linearGradient>
 <path d="m11.729 17.23c-.052-.001-.105-.002-.157-.002-3.688 0-6.722 3.056-6.723 6.77v15.633c.001 3.714 3.035 6.77 6.723 6.77 1.179 0 2.338-.313 3.359-.907l13.443-7.818c2.077-1.208 3.36-3.447 3.36-5.863 0-2.415-1.283-4.654-3.36-5.862l-13.443-7.816c-.975-.567-2.076-.878-3.202-.905z" fill="#3391d9"/>
 <path d="m11.729 1.597c-.052-.002-.105-.002-.157-.002-3.688 0-6.722 3.055-6.723 6.769v31.267h13.443v-19.542l16.804 9.771 6.721-11.725-26.886-15.634c-.975-.567-2.076-.878-3.202-.904z" fill="url(#a)"/>
 <path d="m25.172 9.413c-.053-.001-.105-.001-.158-.001-3.687 0-6.721 3.055-6.722 6.769v21.558c.001 3.714-.976 5.715-2.519 7.266 2.85-1.657 11.58-6.735 12.601-7.328l13.443-7.817c2.077-1.208 3.36-3.447 3.36-5.862 0-2.416-1.283-4.655-3.36-5.863l-13.443-7.817c-.975-.567-2.076-.878-3.202-.905z" fill="url(#b)"/>
 <path d="m28.212 37.739c4.543-2.619 9.069-5.27 13.605-7.902 2.961-1.648 4.226-5.683 2.719-8.738-.689-1.585-2.074-2.689-3.559-3.476-3.588-1.419-8.199.767-9.033 4.699-.244.53-.214 1.084-.209 1.676-.02 2.823.041 5.648-.034 8.469-.206 2.198-1.555 4.235-3.489 5.272z" fill="url(#c)"/>
 <path d="m4.856 8.635c-.017 5.122-.002 10.245-.007 15.367v15.634c.001 3.714 3.035 6.769 6.722 6.769 1.18 0 2.339-.312 3.36-.906l13.443-7.818c2.076-1.208 3.359-3.447 3.359-5.862s-1.283-4.655-3.359-5.863l-13.443-7.817c-.161-.091-.325-.176-.493-.254-2.265-1.328-4.559-2.609-6.792-3.99-1.674-1.197-2.725-3.198-2.79-5.26z" fill="url(#d)"/>
 <path d="m4.857 23.814c-.019 5.272-.003 10.545-.008 15.817-.062 3.407 2.774 6.527 6.155 6.741 1.707.191 3.349-.464 4.768-1.366 3.014-2.42 3.44-7.535.476-10.228-.334-.479-.825-.729-1.336-1.021-2.418-1.428-4.878-2.788-7.266-4.264-1.787-1.279-2.864-3.474-2.789-5.679z" fill="url(#e)"/>
</svg>
