<svg version="1.1" viewBox="0 0 1024 1024" xmlns="http://www.w3.org/2000/svg">
 <defs>
  <linearGradient id="a" x1="520" x2="520" y1="72.362" y2="1052.4" gradientTransform="matrix(1.0414 0 0 1.0414 -20.699 -22.916)" gradientUnits="userSpaceOnUse">
   <stop stop-color="#ff6d80" offset="0"/>
   <stop stop-color="#e4525c" offset="1"/>
  </linearGradient>
  <linearGradient id="b" x1="540.14" x2="540.14" y1="29.77" y2="1055" gradientTransform="matrix(.99492 0 0 .99492 2.599 2.7429)" gradientUnits="userSpaceOnUse">
   <stop stop-color="#fff" stop-opacity=".58824" offset="0"/>
   <stop stop-color="#fff" stop-opacity="0" offset="1"/>
  </linearGradient>
  <filter id="d" x="-.1823" y="-.20279" width="1.3646" height="1.4056" color-interpolation-filters="sRGB">
   <feGaussianBlur stdDeviation="21.268315"/>
  </filter>
  <filter id="c" x="-.1823" y="-.20279" width="1.3646" height="1.4056" color-interpolation-filters="sRGB">
   <feGaussianBlur stdDeviation="21.268315"/>
  </filter>
 </defs>
 <g transform="translate(0 -28.362)">
  <circle cx="512" cy="540.36" r="490" color="#000000" fill="url(#a)"/>
  <circle cx="512" cy="540.36" r="487.51" color="#000000" fill="none" stroke="url(#b)" stroke-width="4.975"/>
  <g fill-rule="evenodd" opacity=".9">
   <path d="m651.64 385.75c-5.5562 9.7234-128.4 10.394-139.6 10.444-11.199 0.0499-134.04 0.47305-139.68-9.2005-5.6426-9.6736 55.198-116.39 60.754-126.12 5.5563-9.7234 66.611-116.32 77.81-116.37 11.199-0.0499 73.201 106 78.843 115.67 5.6426 9.6736 67.431 115.85 61.874 125.57z" fill="#e000c1" filter="url(#d)" opacity=".3" style="paint-order:stroke fill markers"/>
   <path d="m651.64 445.75c-5.5562 9.7234-128.4 10.394-139.6 10.444-11.199 0.0499-134.04 0.47305-139.68-9.2005-5.6426-9.6736 55.198-116.39 60.754-126.12 5.5563-9.7234 66.611-116.32 77.81-116.37 11.199-0.0499 73.201 106 78.843 115.67 5.6426 9.6736 67.431 115.85 61.874 125.57z" fill="#fff" opacity="1" stroke="#fff" stroke-linejoin="round" stroke-width="50" style="paint-order:stroke fill markers"/>
   <path transform="matrix(1,0,0,-1,0,60)" d="m651.64-654.97c-5.5562 9.7234-128.4 10.394-139.6 10.444-11.199 0.0499-134.04 0.47305-139.68-9.2005-5.6426-9.6736 55.198-116.39 60.754-126.12 5.5563-9.7234 66.611-116.32 77.81-116.37 11.199-0.0499 73.201 106 78.843 115.67s67.431 115.85 61.874 125.57z" fill="#e000c1" filter="url(#c)" opacity=".3" style="paint-order:stroke fill markers"/>
   <path transform="scale(1,-1)" d="m651.64-654.97c-5.5562 9.7234-128.4 10.394-139.6 10.444-11.199 0.0499-134.04 0.47305-139.68-9.2005-5.6426-9.6736 55.198-116.39 60.754-126.12 5.5563-9.7234 66.611-116.32 77.81-116.37 11.199-0.0499 73.201 106 78.843 115.67s67.431 115.85 61.874 125.57z" fill="#fff" opacity="1" stroke="#fff" stroke-linejoin="round" stroke-width="50" style="paint-order:stroke fill markers"/>
  </g>
 </g>
</svg>
