<svg version="1.1" viewBox="0 0 1024 1024" xmlns="http://www.w3.org/2000/svg">
 <defs>
  <linearGradient id="b" x1="101.81" x2="101.81" y1="-55.442" y2="256.08" gradientTransform="matrix(4.9 0 0 4.9 22 50.362)" gradientUnits="userSpaceOnUse">
   <stop stop-color="#8595ac" offset="0"/>
   <stop stop-color="#201628" offset="1"/>
  </linearGradient>
  <radialGradient id="a" cx="100" cy="82.381" r="100" gradientTransform="matrix(4.705 0 0 3.5336 41.5 146.28)" gradientUnits="userSpaceOnUse">
   <stop stop-color="#fff" offset="0"/>
   <stop stop-color="#fff" stop-opacity="0" offset="1"/>
  </radialGradient>
  <filter id="d" color-interpolation-filters="sRGB">
   <feFlood flood-color="rgb(0,0,0)" flood-opacity=".49804" result="flood"/>
   <feComposite in="flood" in2="SourceGraphic" operator="in" result="composite1"/>
   <feGaussianBlur in="composite1" result="blur" stdDeviation="3"/>
   <feOffset dx="0" dy="3" result="offset"/>
   <feComposite in="offset" in2="SourceGraphic" operator="out" result="composite2"/>
  </filter>
  <linearGradient id="c" x1="540.14" x2="540.14" y1="29.77" y2="1055" gradientTransform="matrix(.99492 0 0 .99492 2.599 2.7429)" gradientUnits="userSpaceOnUse">
   <stop stop-color="#fff" stop-opacity=".58824" offset="0"/>
   <stop stop-color="#fff" stop-opacity="0" offset="1"/>
  </linearGradient>
 </defs>
 <g transform="translate(0 -28.362)">
  <circle cx="512" cy="540.36" r="490" color="#000000" fill="url(#b)"/>
  <path transform="translate(0 28.362)" d="m480 844v156.4a490 490 0 0 0 32 1.6016 490 490 0 0 0 28-0.9902v-157.01h-60z" color="#000000"/>
  <circle cx="512" cy="540.36" r="470.5" color="#000000" fill="url(#a)" opacity=".2"/>
  <g transform="translate(256 495.7)" filter="url(#d)">
   <rect x="181.33" width="149.34" height="170.66" fill="#fff"/>
   <path d="m298.67 384c0 11.781-9.562 21.344-21.344 21.344h-42.656c-11.781 0-21.344-9.562-21.344-21.344v-74.656c0-11.781 9.562-21.344 21.344-21.344h42.656c11.781 0 21.344 9.562 21.344 21.344z" fill="#37bc9b"/>
   <path d="m362.67 320.06c0 11.781-9.562 21.312-21.344 21.312h-170.66c-11.781 0-21.344-9.531-21.344-21.312v-213.4h213.34z" fill="#48cfad"/>
   <g fill="#ccd1d9">
    <path d="m234.67 42.664h-21.344c-5.891 0-10.656 4.781-10.656 10.672s4.766 10.664 10.656 10.664h21.344c5.891 0 10.656-4.773 10.656-10.664s-4.766-10.672-10.656-10.672z"/>
    <path d="m298.67 42.664h-21.344c-5.891 0-10.656 4.781-10.656 10.672s4.766 10.664 10.656 10.664h21.344c5.891 0 10.656-4.773 10.656-10.664s-4.766-10.672-10.656-10.672z"/>
   </g>
   <path d="m298.7 256.38-0.031-37.719c-0.016-5.883-4.781-10.656-10.672-10.656s-10.672 4.773-10.672 10.664v8e-3l0.031 26.289-18.781 12.508 3.344-5.016-27.281-18.164 0.031-26.281v-8e-3c0-5.891-4.781-10.664-10.672-10.664s-10.656 4.766-10.672 10.656l-0.016 37.719 36.781 24.5 2.359-3.547 9.469 14.211z" fill="#e6e9ed"/>
   <path d="m274.2 168.46-10.656-10.672c-1.938-1.93-4.594-3.125-7.547-3.125s-5.609 1.195-7.547 3.125l-10.656 10.672c-1.938 1.93-3.125 4.594-3.125 7.539 0 5.891 4.766 10.664 10.656 10.664v106.68c0 5.875 4.781 10.656 10.672 10.656s10.672-4.781 10.672-10.656v-106.68c5.891 0 10.656-4.773 10.656-10.664 0-2.945-1.187-5.609-3.125-7.539z" fill="#f5f7fa"/>
   <path d="m224 362.66c0-5.875-4.781-10.656-10.672-10.656v21.344c5.891 0 10.672-4.782 10.672-10.688z" opacity=".1"/>
   <path d="m288 362.66c0 5.906 4.781 10.688 10.672 10.688v-21.344c-5.891 0-10.672 4.781-10.672 10.656z" opacity=".1"/>
  </g>
  <g transform="translate(256 495.7)">
   <rect x="181.33" width="149.34" height="170.66" fill="#fff"/>
   <path d="m298.67 384c0 11.781-9.562 21.344-21.344 21.344h-42.656c-11.781 0-21.344-9.562-21.344-21.344v-74.656c0-11.781 9.562-21.344 21.344-21.344h42.656c11.781 0 21.344 9.562 21.344 21.344z" fill="#37bc9b"/>
   <path d="m362.67 320.06c0 11.781-9.562 21.312-21.344 21.312h-170.66c-11.781 0-21.344-9.531-21.344-21.312v-213.4h213.34z" fill="#48cfad"/>
   <g fill="#ccd1d9">
    <path d="m234.67 42.664h-21.344c-5.891 0-10.656 4.781-10.656 10.672s4.766 10.664 10.656 10.664h21.344c5.891 0 10.656-4.773 10.656-10.664s-4.766-10.672-10.656-10.672z"/>
    <path d="m298.67 42.664h-21.344c-5.891 0-10.656 4.781-10.656 10.672s4.766 10.664 10.656 10.664h21.344c5.891 0 10.656-4.773 10.656-10.664s-4.766-10.672-10.656-10.672z"/>
   </g>
   <path d="m298.7 256.38-0.031-37.719c-0.016-5.883-4.781-10.656-10.672-10.656s-10.672 4.773-10.672 10.664v8e-3l0.031 26.289-18.781 12.508 3.344-5.016-27.281-18.164 0.031-26.281v-8e-3c0-5.891-4.781-10.664-10.672-10.664s-10.656 4.766-10.672 10.656l-0.016 37.719 36.781 24.5 2.359-3.547 9.469 14.211z" fill="#e6e9ed"/>
   <path d="m274.2 168.46-10.656-10.672c-1.938-1.93-4.594-3.125-7.547-3.125s-5.609 1.195-7.547 3.125l-10.656 10.672c-1.938 1.93-3.125 4.594-3.125 7.539 0 5.891 4.766 10.664 10.656 10.664v106.68c0 5.875 4.781 10.656 10.672 10.656s10.672-4.781 10.672-10.656v-106.68c5.891 0 10.656-4.773 10.656-10.664 0-2.945-1.187-5.609-3.125-7.539z" fill="#f5f7fa"/>
   <path d="m224 362.66c0-5.875-4.781-10.656-10.672-10.656v21.344c5.891 0 10.672-4.782 10.672-10.688z" opacity=".1"/>
   <path d="m288 362.66c0 5.906 4.781 10.688 10.672 10.688v-21.344c-5.891 0-10.672 4.781-10.672 10.656z" opacity=".1"/>
  </g>
  <circle cx="512" cy="540.36" r="487.51" color="#000000" fill="none" stroke="url(#c)" stroke-width="4.975"/>
 </g>
</svg>
