<svg viewBox="0 0 48 48" xmlns="http://www.w3.org/2000/svg" xmlns:xlink="http://www.w3.org/1999/xlink">
 <linearGradient id="a" x1="39.513" x2="-3.4184" y1="-21.783" y2="-25.692" gradientTransform="matrix(.10037 .92557 -.92557 .10037 -1.0193 9.1427)" gradientUnits="userSpaceOnUse">
  <stop stop-color="#dcdfe0" offset="0"/>
  <stop stop-color="#fefeff" offset="1"/>
 </linearGradient>
 <linearGradient id="b" x1="41.749" x2="41.357" y1="226.2" y2="102.26" gradientTransform="matrix(.3179 0 0 .31531 6.5036 -26.596)" gradientUnits="userSpaceOnUse" xlink:href="#c"/>
 <linearGradient id="c" x1="41.749" x2="41.357" y1="226.2" y2="102.26" gradientTransform="matrix(.3179 0 0 .31531 6.4711 -26.23)" gradientUnits="userSpaceOnUse">
  <stop stop-color="#2bab77" offset="0"/>
  <stop stop-color="#3dc280" offset="1"/>
 </linearGradient>
 <rect transform="matrix(.99595 -.089895 .088244 .9961 0 0)" x="1.2545" y="5.9429" width="41.027" height="40.698" ry="2.6848" fill="url(#c)" fill-opacity=".2" stroke-width=".33664"/>
 <rect transform="matrix(.99595 -.089895 .088244 .9961 0 0)" x="1.3074" y="5.3453" width="41.027" height="40.698" ry="2.6848" fill="url(#b)" stroke-width=".33664"/>
 <path d="m14.027 17.201 0.71341 6.5787-0.85442 0.09266 0.25942 2.3923 0.85442-0.09266 0.71649 6.6071-0.96585 0.10474 0.25942 2.3922 2.3922-0.25942-0.09572-0.88265 6.6902-0.72551 0.09265 0.85437 2.3923-0.25942-0.09265-0.85437 6.2109-0.67353 0.09572 0.8827 2.3923-0.25942-0.25942-2.3922-0.48659 0.05277-0.71649-6.6071 0.85436-0.09265-0.25942-2.3923-0.85436 0.09265-0.71342-6.5787 0.59808-0.06485-0.25942-2.3923-2.3923 0.25942 0.09265 0.85437-6.3224 0.68562-0.09265-0.85436-2.3923 0.25942 0.09265 0.85437-6.5787 0.71341-0.09266-0.85437-2.3923 0.25943 0.25942 2.3923zm-0.07411-0.68347-0.17089 0.01853-0.11118-1.0253 1.0253-0.11118 0.01853 0.1709 0.07412 0.68352 0.01853 0.17089-0.85437 0.09264zm19.487 5.9259 0.1709-0.01853 0.11118 1.0253-1.0252 0.11118-0.11118-1.0253 0.4969-0.05388zm-18.514 3.0451-0.17089 0.01853-0.11118-1.0253 0.85431-0.09265 0.17089-0.01853 0.11118 1.0253-0.4969 0.05389zm8.9405-0.85436c-0.05951 0.07372-0.16763 0.0854-0.2416 0.0262-0.03698-0.03009-0.05841-0.07164-0.06318-0.1157-0.0047-0.0434 0.0073-0.08912 0.03694-0.12628l0.3428-0.42613-0.42618-0.34279c-0.03696-0.02993-0.05842-0.0718-0.06316-0.11554-0.0047-0.04373 0.0073-0.08923 0.03692-0.12644 0.05949-0.07384 0.16763-0.0855 0.2416-0.0262l0.42618 0.34279 0.34279-0.42618c0.0593-0.07378 0.16785-0.08552 0.24165-0.0262 0.07383 0.05935 0.08558 0.16784 0.0262 0.24165l-0.34275 0.42651 0.42618 0.34273c0.07386 0.05951 0.08556 0.16768 0.0262 0.24166s-0.16782 0.08574-0.24165 0.0262l-0.42618-0.34279zm-8.2469 9.8843-0.11118-1.0252 0.28232-0.03062 0.68347-0.07412 0.05942-0.0065 0.01545 0.14251 0.07412 0.68352 0.02161 0.19923-1.0252 0.11118zm1.5234-1.894-0.74294 0.08057-0.58041-5.3522c1.1692 2.8913 3.7735 4.986 6.8486 5.5082l-5.4356 0.58946zm7.5559 0.88071-0.01853-0.17084-0.03876-0.35741-0.03536-0.32606-0.01853-0.17084 1.0253-0.11119 0.01853 0.17084 0.07412 0.68347 0.01853 0.17084zm9.5203-2.041 0.08957 0.82597 0.02161 0.19923-1.0253 0.11119-0.02161-0.19923-0.07412-0.68352-0.01545-0.14251 0.53866-0.05842 0.4866-0.05277zm-0.56072-0.63076-1.2221 0.13253 0.08957 0.82597-4.9564 0.53749c2.8918-1.1692 4.9862-3.7736 5.5086-6.8483l0.58042 5.3523zm-1.2765-17.352 0.01853 0.1709 0.09265 0.85436-1.0253 0.11118-0.01853-0.1709-0.07412-0.68352-0.01853-0.1709 1.0253-0.11118zm-1.5235 1.894 1.1107-0.12044 0.57733 5.3238c-1.1693-2.8914-3.7733-4.9858-6.8482-5.5082l5.0675-0.54954zm-7.1912-0.94899 0.01853 0.1709 0.03876 0.35741 0.03536 0.32606 0.01853 0.17089-1.0253 0.11118-0.01853-0.17089-0.07412-0.68347-0.01853-0.1709zm-2.8707 1.1757c-2.8916 1.1694-4.9863 3.7734-5.5086 6.8483l-0.57734-5.3239 0.85442-0.09266-0.09264-0.85436z" fill="url(#a)" stroke-width=".055131"/>
</svg>
