<svg viewBox="0 0 48 48" xmlns="http://www.w3.org/2000/svg">
 <linearGradient id="a" x1="-32.617" x2="-32.617" y1="46.828" y2=".14844" gradientUnits="userSpaceOnUse">
  <stop stop-color="#323232" offset="0"/>
  <stop stop-color="#4d4d4d" offset="1"/>
 </linearGradient>
 <linearGradient id="b" x1="-32.178" x2="-32.227" y1="47.365" y2="-.24219" gradientUnits="userSpaceOnUse">
  <stop stop-color="#ff2a2a" offset="0"/>
  <stop stop-color="#ed324b" offset="1"/>
 </linearGradient>
 <g transform="matrix(.91756 0 0 .92523 53.678 2.321)">
  <path d="m-42.582 41.433c-5.5239-3.1906-10.12-5.8755-10.214-5.9665-0.09362-0.09091-0.189-0.25922-0.21196-0.37401s-0.04174-5.3843-0.04174-11.71c0-12.972-0.04638-11.866 0.51186-12.209 0.16685-0.10232 4.7202-2.737 10.119-5.8549 9.1161-5.2651 9.8361-5.6686 10.109-5.6656 0.26791 0.0029 1.1628 0.50496 10.272 5.7622 6.1428 3.5454 10.06 5.8438 10.19 5.9795l0.21196 0.2205v23.613l-0.21196 0.2205c-0.13064 0.13591-4.0401 2.4285-10.19 5.9759-7.6561 4.416-10.039 5.7617-10.239 5.7825-0.24571 0.02556-0.84438-0.3099-10.304-5.774z" fill="url(#a)"/>
  <path d="m-29.19 9.2624c-5.1811 0-10.021 1.9987-13.641 5.6235-3.5997 3.6097-5.5764 8.4228-5.5663 13.564 0.01502 10.709 8.0244 15.595 17.867 15.11 0.01306 2.16e-4 0.02643-1.94e-4 0.0396 0 3.7641 0.05514 7.5521-1.4585 9.4936-2.6358 0.01368-0.0021 0.02581-0.0041 0.0396-0.0072 2.719-1.5537 4.1758-2.9394 4.1758-2.9394-2.8608 0.30977-6.9169 0.54953-12.684-1.5533-3.4742-1.2651-4.924-3.5735-5.1901-4.0504 0 0-0.01101-0.01471-0.01101-0.01975-0.63762-1.1095-0.94385-2.3209-0.94385-3.5158 0-2.44 1.2654-4.8148 3.5246-6.1252 1.6316-0.93882 3.5349-1.1888 5.3573-0.70184 1.8174 0.48699 3.3398 1.6575 4.2836 3.2892l2.9416-1.5665-0.05504-0.10123c-1.3857-2.4048-3.6246-4.1217-6.3056-4.8447-2.6809-0.71793-5.4826-0.34718-7.8875 1.0385h-0.0021c-3.3286 1.9229-5.1901 5.4237-5.1901 9.0183 0 1.6668 0.41566 3.3477 1.2541 4.9041l-0.0092 0.01111c0 0.0041 0.02942 0.05463 0.0396 0.07478h-0.0041s0.01996 0.03004 0.03518 0.05493c0.01985 0.04033 0.06974 0.13138 0.07478 0.13642 0.52214 0.89867 2.535 3.9246 6.948 5.5311 5.1569 1.8822 7.0226 1.8026 9.3879 1.3949-2.0577 0.99207-6.8368 2.3336-13.608-2.3167-5.4773-3.7654-7.1848-10.462-4.057-15.925 1.466-2.5554 3.9055-4.4072 6.8776-5.2055 3.0474-0.82336 6.201-0.42204 8.8819 1.1243l1.6655-2.891c-3.4541-1.9931-7.5105-2.5108-11.416-1.4565-3.8357 1.0342-6.9983 3.4384-8.9061 6.772-4.0064 7.0036-1.878 15.552 5.0603 20.327 1.0469 0.91943 2.2452 1.4963 3.507 1.8283-7.1555-1.2075-11.839-6.9881-11.852-14.769-0.0041-4.2473 1.6218-8.2237 4.5939-11.201 2.9872-2.9922 6.9926-4.6445 11.28-4.6445v-3.3332z" fill-opacity=".19608"/>
  <g fill="url(#b)">
   <path d="m-32.311-0.34688c-0.27258-3e-3 -0.9913 0.40092-10.107 5.666-5.3984 3.1179-9.9523 5.7532-10.119 5.8555-0.55824 0.34234-0.51172-0.7634-0.51172 12.209 0 6.3258 0.01806 11.594 0.04102 11.709 0.02296 0.11479 0.11927 0.28409 0.21289 0.375s4.689 2.7742 10.213 5.9648c9.46 5.4641 10.059 5.801 10.305 5.7754 0.20016-0.02082 2.5822-1.3672 10.238-5.7832 6.1501-3.5473 10.061-5.8407 10.191-5.9766l0.21094-0.21875v-23.613l-0.21094-0.2207c-0.13048-0.13574-4.0486-2.4331-10.191-5.9785-9.1089-5.2573-10.004-5.7608-10.271-5.7637zm-0.0078 3.0293c0.18161 0 1.9812 1.0147 9.0488 5.0977 7.7384 4.4704 8.8357 5.1229 8.9238 5.3086 0.08918 0.18793 0.10156 1.3613 0.10156 10.424v10.211l-0.17969 0.19141c-0.14593 0.15565-8.867 5.2428-10.387 6.0586-0.23315 0.12517-1.9658 1.118-3.8516 2.207-2.7025 1.5608-3.4773 1.9805-3.6562 1.9805-0.18197 0-1.9726-1.0081-9.0273-5.082-6.5259-3.7685-8.8316-5.1291-8.916-5.2656-0.10697-0.17305-0.11328-0.79568-0.11328-10.391s0.0063-10.218 0.11328-10.391c0.17414-0.28172 17.629-10.35 17.943-10.35z"/>
   <path d="m-37.196 14.653c-0.44897 0.01077-0.89209 0.06139-1.1992 0.14844-1.5785 0.44738-2.883 1.5969-3.4766 3.0664-0.29547 0.7315-0.37566 1.1702-0.37305 2.0332 0.0038 1.2602 0.23008 2.1895 0.8125 3.3496 0.8528 1.6986 1.8391 2.8141 4.9141 5.5566 2.4491 2.1844 3.3182 3.0886 3.8828 4.0391 0.27107 0.45633 0.31383 0.45684 0.5918 0.01563 0.69062-1.0962 1.3537-1.7825 4.0703-4.2188 2.9718-2.6651 3.9385-3.7676 4.7773-5.4492 1.6109-3.229 0.71178-6.6585-2.1035-8.0234-0.86298-0.4184-1.2858-0.51435-2.25-0.51172-0.94289 0.0026-1.4638 0.1093-2.1953 0.44727-0.95912 0.44314-1.831 1.2166-2.3066 2.0469-0.12493 0.21808-0.2454 0.39737-0.26758 0.39844-0.02217 0.0011-0.15373-0.19415-0.29297-0.43359-0.30436-0.5234-1.0234-1.2719-1.5527-1.6172-0.48472-0.31614-1.2479-0.63782-1.7988-0.75781-0.32954-0.07178-0.78345-0.10061-1.2324-0.08984z"/>
  </g>
 </g>
</svg>
