<svg viewBox="0 0 48 48" xmlns="http://www.w3.org/2000/svg">
 <linearGradient id="a" x1="399.57" x2="399.57" y1="545.8" y2="517.8" gradientUnits="userSpaceOnUse">
  <stop stop-color="#3889e9" offset="0"/>
  <stop stop-color="#5ea5fb" offset="1"/>
 </linearGradient>
 <linearGradient id="b" x1="-313.88" x2="-313.88" y1="653.58" y2="245.23" gradientUnits="userSpaceOnUse">
  <stop stop-color="#d8d8d8" offset="0"/>
  <stop stop-color="#fff" offset="1"/>
 </linearGradient>
 <circle transform="matrix(1.6375 0 0 1.6375 -644.58 -848.88)" cx="400.57" cy="531.8" r="0" fill="url(#a)"/>
 <g transform="matrix(.10954 0 0 .10954 59.31 -25.37)">
  <circle cx="-322.34" cy="450.7" r="200.84" fill="url(#b)"/>
  <path transform="matrix(9.129 0 0 9.129 -541.44 231.6)" d="m32.359 16.59-0.078125 0.058594v0.53906c0 0.060734 0.028345 0.11541 0.085938 0.15625 0.057592 0.040838 0.11595 0.060547 0.17773 0.060547l0.50586 0.023437c0.62095 0.02932 0.79041 0.15686 1.0312 0.36524 0.23665 0.22094 0.26437 0.5939 0.080078 1.1133l-5.3613 12.93-0.20898-0.056641-3.4082-7.082c0.002525-0.005355 0.074218-0.1543 0.074218-0.1543l2.7852-5.2871c0.32356-0.56022 0.63862-1.0605 0.79883-1.293 0.29006-0.42095 0.45341-0.50332 1.2461-0.54102 0.16335 0 0.24609-0.076963 0.24609-0.22461v-0.53516l-0.0625-0.058593 0.001954-0.011719s-3.4124-0.00838-4.9297 0l-0.072266 0.056641v0.53711c0 0.06911 0.026675 0.11736 0.080078 0.1582 0.057593 0.040838 0.114 0.066406 0.17578 0.066406l0.24609 0.027344c0.61781 0.024084 0.90437 0.19307 0.99023 0.29883 0.14764 0.18011 0.21959 0.3801-0.14062 1.1738l-2.1387 4.3359-1.9336-4.0195c-0.63875-1.289-0.79497-1.6904 0.16211-1.7637l0.38086-0.058594c0.1843 0 0.27344-0.060515 0.27344-0.19141v-0.56445l-0.13867-0.050782s-3.6025-2.78e-4 -5.2266 0.003906l-0.074219 0.058594v0.56445c0 0.12356 0.13136 0.1609 0.38477 0.19336 0.89635 0.12251 0.87989 0.21226 1.7637 2.0039 0.13409 0.26715 0.51393 1.0548 0.51953 1.0664l2.0215 4.0332s0.43568 0.97635 0.58789 1.3184l-2.9414 5.9648-0.16797-0.046876s-4.5565-9.7585-5.877-13.023c-0.13508-0.33927-0.20117-0.59231-0.20117-0.74414 0-0.32775 0.29523-0.51198 0.88477-0.53711l0.68555-0.03125c0.18011 0 0.27539-0.069151 0.27539-0.2168v-0.54102l-0.066406-0.052734s-5.4571-0.00838-6.5859 0l-0.060547 0.052734v0.56445c0 0.10262 0.1255 0.16404 0.37891 0.19336 0.6953 0.040838 1.1501 0.15045 1.3711 0.33789 0.22094 0.18848 0.451 0.66732 0.75781 1.416 1.6608 4.0409 5.1784 11.258 6.8926 15.369 0.4911 1.1204 1.1134 1.2914 1.8652-0.033203 0.84629-1.5975 2.3338-4.6988 3.4844-7.1152 1.078 2.4128 2.4603 5.4902 3.2207 7.082 0.56022 1.1738 1.1938 1.2882 1.8398 0.041015 1.689-3.8126 6.6191-15.283 6.6191-15.283 0.21676-0.56022 0.51023-0.99341 0.89453-1.3086 0.37697-0.311 0.96995-0.48679 1.7637-0.52344 0.16335 0 0.24414-0.07334 0.24414-0.2168v-0.53906l-0.064453-0.058594z" fill="#4a4a4a"/>
 </g>
</svg>
