<svg version="1.1" viewBox="0 0 256 256" xmlns="http://www.w3.org/2000/svg" xmlns:xlink="http://www.w3.org/1999/xlink">
 <defs>
  <linearGradient id="a" x2="1" gradientTransform="matrix(0 -174.13 174.13 0 3964.2 213.03)" gradientUnits="userSpaceOnUse">
   <stop stop-color="#006783" offset="0"/>
   <stop stop-color="#20ccff" offset="1"/>
  </linearGradient>
 </defs>
 <title>Sucharu Hicolor Icon Theme Template</title>
 <rect width="256" height="256" fill-opacity="0" opacity=".7" stroke-width=".77402"/>
 <path d="m207.81 240h-159.62c-17.771 0-32.192-14.421-32.192-32.192v-159.62c0-17.771 14.421-32.192 32.192-32.192h159.62c17.771 0 32.192 14.421 32.192 32.192v159.62c0 17.771-14.421 32.192-32.192 32.192z" enable-background="new" fill="url(#a)" stroke-width="5.1689"/>
 <path d="m76.623 29.219-17.91 0.10095 0.02067 5.0175-9.6614 0.05066c-9.304 0.06203-16.821 7.6311-16.759 16.94l0.19177 33.689c0.05686 9.304 7.6363 16.831 16.94 16.769l37.253-0.21203c9.304-0.062 16.81-7.6565 16.748-16.96l-0.2021-33.689c-0.0413-9.2885-7.6363-16.8-16.94-16.769l-9.6715 0.06058zm7.0568 19.747c4.8226-0.01551 8.7723 3.8642 8.8033 8.7024 0.0362 4.8381-3.8643 8.7723-8.7024 8.8033-4.8381 0.03618-8.7723-3.8643-8.8033-8.7023-0.01551-4.8174 3.8642-8.7723 8.7023-8.8033zm-29.842 0.2019c4.8226-0.05169 8.7676 3.8647 8.7831 8.6822 0.05169 4.8226-3.8697 8.7676-8.6923 8.7831-4.8174 0.05169-8.7575-3.8697-8.773-8.6923-0.05169-4.8174 3.8647-8.7575 8.6821-8.773z" enable-background="new" fill="#fff" stroke-width="5.1689"/>
</svg>
