<svg viewBox="0 0 48 48" xmlns="http://www.w3.org/2000/svg">
 <linearGradient id="a" x1="535.9" x2="535.97" y1="565.72" y2="519.87" gradientTransform="matrix(1.0078 0 0 1.0072 -29.447 -20.113)" gradientUnits="userSpaceOnUse">
  <stop stop-color="#187ced" offset="0"/>
  <stop stop-color="#42d6fc" offset="1"/>
 </linearGradient>
 <linearGradient id="b" x1="509.12" x2="509.12" y1="549.73" y2="503.73" gradientUnits="userSpaceOnUse">
  <stop stop-color="#3889e9" offset="0"/>
  <stop stop-color="#5ea5fb" offset="1"/>
 </linearGradient>
 <g transform="translate(-486.76 -502.73)" stroke-width="1.3174">
  <circle cx="510.76" cy="526.73" r="23" fill="url(#a)"/>
  <circle cx="510.76" cy="526.73" r="23" fill="none"/>
  <circle cx="510.76" cy="526.73" r="0" fill="url(#b)"/>
  <g transform="matrix(.048982 0 0 .048982 495.26 514.17)" fill="#fff" fill-opacity=".84706">
   <path d="m707.494 193.557c-1.938-1.539-20.029-15.199-58.181-15.199-10.074.044-20.127.908-30.061 2.584-7.384-50.612-49.228-75.288-51.104-76.395l-10.245-5.908-6.738 9.723c-8.438 13.061-14.598 27.459-18.214 42.582-6.831 28.891-2.677 56.027 11.999 79.226-17.722 9.876-46.151 12.307-51.904 12.522h-470.679c-12.294.017-22.27 9.952-22.337 22.245-.549 41.234 6.437 82.222 20.614 120.946 16.214 42.521 40.336 73.842 71.719 93.01 35.167 21.537 92.302 33.844 157.067 33.844 29.258.092 58.461-2.556 87.226-7.907 39.986-7.342 78.463-21.318 113.839-41.352 29.149-16.88 55.383-38.354 77.688-63.596 37.29-42.213 59.505-89.226 76.026-131.007h6.584c40.828 0 65.935-16.338 79.78-30.029 9.201-8.732 16.384-19.369 21.045-31.167l2.923-8.553z"/>
   <path d="m65.995 228.91h63.073c3.042 0 5.507-2.466 5.507-5.507v-56.182c0.017-3.042-2.435-5.521-5.476-5.538h-0.031-63.073c-3.042 0-5.507 2.466-5.507 5.507v56.212c0 3.042 2.465 5.508 5.507 5.508z"/>
   <path d="m152.91 228.91h63.073c3.042 0 5.507-2.466 5.507-5.507v-56.182c0.017-3.042-2.435-5.521-5.477-5.538h-0.031-63.073c-3.059 0-5.538 2.479-5.538 5.538v56.181c0.018 3.047 2.492 5.508 5.539 5.508"/>
   <path d="m241.15 228.91h63.073c3.042 0 5.507-2.466 5.507-5.507v-56.182c0.017-3.042-2.435-5.521-5.477-5.538h-0.031-63.073c-3.042 0-5.507 2.466-5.507 5.507v56.212c1e-3 3.042 2.467 5.508 5.508 5.508z"/>
   <path d="m328.35 228.91h63.073c3.047 0 5.521-2.46 5.538-5.507v-56.182c0-3.059-2.479-5.538-5.538-5.538h-63.073c-3.042 0-5.507 2.466-5.507 5.507v56.212c0 3.042 2.466 5.508 5.507 5.508z"/>
   <path d="m152.91 148.08h63.073c3.046-0.017 5.507-2.492 5.507-5.538v-56.181c0-3.042-2.466-5.507-5.507-5.507h-63.073c-3.046 0-5.521 2.46-5.538 5.507v56.181c0.017 3.052 2.486 5.521 5.538 5.538"/>
   <path d="m241.15 148.08h63.073c3.046-0.017 5.507-2.492 5.507-5.538v-56.181c0-3.042-2.466-5.507-5.507-5.507h-63.073c-3.042 0-5.507 2.466-5.507 5.507v56.181c0 3.046 2.461 5.521 5.507 5.538"/>
   <path d="m328.35 148.08h63.073c3.052-0.017 5.521-2.486 5.538-5.538v-56.181c-0.017-3.047-2.491-5.507-5.538-5.507h-63.073c-3.042 0-5.507 2.466-5.507 5.507v56.181c0 3.046 2.461 5.521 5.507 5.538"/>
   <path d="m328.35 67.227h63.073c3.047 0 5.521-2.461 5.538-5.507v-56.213c-0.017-3.047-2.491-5.507-5.538-5.507h-63.073c-3.042 0-5.507 2.465-5.507 5.507v56.212c0 3.042 2.466 5.508 5.507 5.508"/>
   <path d="m416.31 228.91h63.073c3.047 0 5.521-2.46 5.538-5.507v-56.182c0-3.059-2.479-5.538-5.538-5.538h-63.073c-3.041 0-5.507 2.466-5.507 5.507v56.212c0 3.042 2.466 5.508 5.507 5.508"/>
  </g>
 </g>
</svg>
