<svg clip-rule="evenodd" fill-rule="evenodd" stroke-linejoin="round" stroke-miterlimit="2" viewBox="0 0 48 48" xmlns="http://www.w3.org/2000/svg" xmlns:xlink="http://www.w3.org/1999/xlink">
 <linearGradient id="a">
  <stop stop-color="#dcebe8" offset="0"/>
  <stop stop-color="#f6f8f7" offset="1"/>
 </linearGradient>
 <linearGradient id="b" x2="1" gradientTransform="matrix(-.69908 39.476 -39.476 -.69908 -331.88 3.7605)" gradientUnits="userSpaceOnUse" xlink:href="#a"/>
 <linearGradient id="c" x2="1" gradientTransform="matrix(-.25708 18.58 -18.58 -.25708 26.534 28.91)" gradientUnits="userSpaceOnUse">
  <stop stop-color="#4bd694" offset="0"/>
  <stop stop-color="#028353" offset="1"/>
 </linearGradient>
 <linearGradient id="d" x2="1" gradientTransform="matrix(0 -37.317 33.575 0 99.06 38.193)" gradientUnits="userSpaceOnUse">
  <stop stop-color="#028353" offset="0"/>
  <stop stop-color="#4bd694" offset="1"/>
 </linearGradient>
 <linearGradient id="e" x2="1" gradientTransform="matrix(-.99342 -17.924 17.924 -.99342 208.12 16.461)" gradientUnits="userSpaceOnUse" xlink:href="#a"/>
 <path transform="matrix(.94535 0 0 .94535 1.3176 1.3315)" d="m26.534 48.248-13.233-38.976h28.755c5.383-.219 5.997 3.562 5.997 3.562v31.16s.943 4.254-4.758 4.254z" fill="url(#b)"/>
 <path transform="matrix(18.901 0 0 18.901 29.834 35.681)" d="m.515-.95c.004-.005.007-.01.007-.016 0-.005-.003-.011-.007-.016l-.041-.039c-.006-.004-.011-.007-.016-.007s-.01.003-.015.007l-.064.064-.063-.065c-.005-.005-.01-.007-.015-.007s-.01.002-.016.007l-.042.04c-.004.006-.007.011-.007.016s.003.01.007.016l.121.12c.005.005.01.007.016.007.008 0 .01-.001.016-.007zm-.441.207c-.013 0-.02.007-.02.02v.133c0 .013.007.02.02.02h.345l-.354.418c-.007.007-.009.012-.009.023v.11c0 .013.007.019.02.019h.588c.013 0 .019-.006.019-.019v-.133c0-.013-.006-.019-.019-.019h-.348l.358-.427c.004-.005.006-.01.007-.015v-.11c0-.013-.007-.02-.021-.02z" fill="#25ab73" fill-rule="nonzero"/>
 <path transform="matrix(.94535 0 0 .94535 1.3176 1.3315)" d="m22.825 38.81 3.709 9.438 8.395-9.153z" fill="url(#c)"/>
 <path transform="matrix(.94535 0 0 .94535 1.3176 1.3315)" d="m21.944.405 12.985 38.69h-30.049c-4.707.218-4.769-3.535-4.769-3.535v-30.933s.125-4.222 5.109-4.222h16.724z" fill="url(#d)"/>
 <path transform="matrix(.94535 0 0 .94535 1.3176 1.3315)" d="m16.899 11.33c-.097-.312-.386-.525-.713-.525h-4.145c-.328 0-.617.214-.713.528l-4.953 16.194c-.07.226-.027.472.113.662.141.19.364.302.6.302h2.572c.335 0 .629-.223.718-.546l1.111-3.995h5.066l1.203 4.01c.094.316.385.532.714.532h2.733c.238 0 .46-.113.601-.303.141-.191.182-.437.112-.664zm-4.836 9.633 1.866-7.164h.051l1.995 7.164z" fill="url(#e)" fill-rule="nonzero"/>
</svg>
