<svg version="1.1" viewBox="0 0 16 16" xmlns="http://www.w3.org/2000/svg">
 <path transform="matrix(.51681 0 0 .51681 -236.56 -270.87)" d="m471.12 530.74c-0.76741 0.21527-1.3852 1.0718-1.3852 1.9037v13.19c-0.77819-0.42666-1.7776-0.59922-2.8138-0.31728-1.8697 0.50868-3.0414 2.1527-2.6406 3.6715 0.40079 1.5187 2.2427 2.3671 4.1124 1.8584 1.4917-0.40583 2.5199-1.5541 2.6839-2.7649l0.0433-12.465 9.6966-2.7196v9.8358c-0.77819-0.42665-1.7776-0.59916-2.8137-0.31728-1.8698 0.50868-3.0414 2.1527-2.6406 3.6714 0.40079 1.5188 2.2427 2.3671 4.1124 1.8584 1.4917-0.40578 2.5199-1.5541 2.6839-2.7649l0.0433-16.227c0-0.62395-0.36827-1.0907-0.86578-1.1785z" fill="#bebebe"/>
</svg>
