<svg version="1.1" viewBox="0 0 16 16" xmlns="http://www.w3.org/2000/svg">
 <path d="m12 12h-4v-3.86c-0.44 0.40667-1.02 0.66-1.6667 0.66-1.36 0-2.4667-1.1067-2.4667-2.4667a2.4667 2.4667 0 0 1 2.4667-2.4667c1.36 0 2.4667 1.1067 2.4667 2.4667 0 0.64667-0.25333 1.2267-0.66 1.6667h3.86m0.66667-6h-9.3333c-0.74 0-1.3333 0.59333-1.3333 1.3333v9.3333a1.3333 1.3333 0 0 0 1.3333 1.3333h9.3333a1.3333 1.3333 0 0 0 1.3333-1.3333v-9.3333c0-0.74-0.6-1.3333-1.3333-1.3333z" fill="#bebebe" stroke-width=".66667"/>
</svg>
