<svg enable-background="new" viewBox="0 0 16 16" xmlns="http://www.w3.org/2000/svg">
 <path d="m8 2c-3.3137 0-6 2.6863-6 6s2.6863 6 6 6 6-2.6863 6-6-2.6863-6-6-6zm0 2.5714c0.3458 0 0.62612 0.28036 0.62612 0.62612v3.611c0 0.34575-0.28032 0.62612-0.62612 0.62612-0.34575 0-0.62612-0.28036-0.62612-0.62612v-3.611c0-0.3458 0.28037-0.62612 0.62612-0.62612zm0 5.5128c0.36362 0 0.6596 0.29582 0.6596 0.6596 0 0.36366-0.29598 0.6596-0.6596 0.6596s-0.6596-0.29594-0.6596-0.6596c0-0.36374 0.29602-0.6596 0.6596-0.6596z" fill="#bebebf" fill-opacity=".94118" stroke-width=".85714"/>
</svg>
