<svg enable-background="new" viewBox="0 0 16 16" xmlns="http://www.w3.org/2000/svg">
 <path d="m5.8708 2.0055c-0.22504 0.037527-0.67513 0.20004-0.67513 0.80015v0.80015h2.7255l3.6757 3.6757v0.32506c0.0024 1.0185-0.0016 2.4088 0 3.5507 2.16e-4 0.17718-9.6e-5 0.28706 0 0.45008h0.80015c0.80015 0 0.80015-0.80015 0.80015-0.80015 0.01504-0.03688 4e-3 -3.563 0-5.6011l-3.2006-3.2006h-4.0008s-0.05001-0.012482-0.12502 0zm-2.4005 2.3926c-0.22504 0.037527-0.67513 0.20004-0.67513 0.80015v8.0015c0 0.80015 0.80015 0.80015 0.80015 0.80015h6.4012c0.80015 0 0.80015-0.80015 0.80015-0.80015 0.01504-0.03688 4e-3 -3.563 0-5.6011l-3.2006-3.2006h-4.0008s-0.05001-0.012482-0.12502 0z" fill="#bebebe" stroke-width=".80015"/>
</svg>
