<svg enable-background="new" viewBox="0 0 16 16" xmlns="http://www.w3.org/2000/svg">
 <path d="m15 8h-1.75c0-2.4171-1.6322-4.4482-3.8555-5.0586-0.02765-0.00787-0.05434-0.020125-0.08199-0.0273-0.22328-0.057312-0.44987-0.081725-0.68359-0.10937-0.20412-0.02415-0.4183-0.054687-0.6289-0.054687-0.53926 5.6e-4 -1.0753 0.083212-1.5859 0.24609v0.0273c-0.73639 0.23368-1.4119 0.60753-1.9687 1.1211l1.0391 1.3945c0.43925-0.44908 1.0133-0.74057 1.6406-0.90234v-0.0273c0.3326-0.078137 0.69092-0.1065 1.0391-0.081988 0.15907 0.0112 0.30563 0.025025 0.46484 0.054687 1.6337 0.29558 2.8711 1.6991 2.8711 3.418h-1.75l2.625 3.5 2.625-3.5zm-3.4453 3.8555-1.0391-1.3945c-0.43925 0.44908-1.0133 0.74057-1.6406 0.90234v0.0273c-0.3326 0.07813-0.69092 0.1065-1.0391 0.08199-0.15907-0.011197-0.30563-0.025022-0.46484-0.054678-1.6337-0.2956-2.8711-1.6991-2.8711-3.418h1.75l-2.625-3.5-2.625 3.5h1.75c0 2.4171 1.6322 4.4482 3.8555 5.0586 0.028175 0.0078 0.053637 0.02003 0.081987 0.0273 0.22328 0.05732 0.44987 0.08173 0.68359 0.10938 0.20412 0.02415 0.4183 0.05468 0.6289 0.05468 0.53926-5.6e-4 1.0753-0.08321 1.5859-0.24609v-0.0273c0.73639-0.23367 1.4119-0.60752 1.9687-1.1211z" fill="#bebebe" stroke-width=".875"/>
</svg>
