<?xml version="1.0" encoding="UTF-8" standalone="no"?>
<svg
   inkscape:export-ydpi="96"
   inkscape:export-xdpi="96"
   width="400"
   height="300"
   id="svg11300"
   sodipodi:version="0.32"
   inkscape:version="1.2.2 (b0a8486541, 2022-12-01)"
   sodipodi:docname="accessories-dictionary.svg"
   inkscape:output_extension="org.inkscape.output.svg.inkscape"
   version="1.0"
   style="display:inline;enable-background:new"
   inkscape:export-filename="C:\Users\sblav\Pictures\non-uniform notepad five sizes.png"
   xmlns:inkscape="http://www.inkscape.org/namespaces/inkscape"
   xmlns:sodipodi="http://sodipodi.sourceforge.net/DTD/sodipodi-0.dtd"
   xmlns:xlink="http://www.w3.org/1999/xlink"
   xmlns="http://www.w3.org/2000/svg"
   xmlns:svg="http://www.w3.org/2000/svg"
   xmlns:rdf="http://www.w3.org/1999/02/22-rdf-syntax-ns#"
   xmlns:cc="http://creativecommons.org/ns#"
   xmlns:dc="http://purl.org/dc/elements/1.1/">
  <title
     id="title3004">Suru Icon Theme Template</title>
  <sodipodi:namedview
     stroke="#ef2929"
     fill="#f57900"
     id="base"
     pagecolor="#ffffff"
     bordercolor="#000000"
     borderopacity="0.25490196"
     inkscape:pageopacity="0"
     inkscape:pageshadow="2"
     inkscape:zoom="2"
     inkscape:cx="219.5"
     inkscape:cy="147.5"
     inkscape:current-layer="layer6"
     showgrid="false"
     inkscape:grid-bbox="true"
     inkscape:document-units="px"
     inkscape:showpageshadow="false"
     inkscape:window-width="1920"
     inkscape:window-height="1020"
     inkscape:window-x="0"
     inkscape:window-y="32"
     width="400px"
     height="300px"
     inkscape:snap-nodes="true"
     inkscape:snap-bbox="true"
     gridtolerance="10000"
     inkscape:object-nodes="true"
     inkscape:snap-grids="true"
     showguides="false"
     inkscape:guide-bbox="true"
     inkscape:window-maximized="1"
     inkscape:bbox-paths="true"
     inkscape:snap-bbox-midpoints="true"
     inkscape:snap-global="true"
     inkscape:object-paths="true"
     inkscape:snap-intersection-paths="true"
     inkscape:snap-smooth-nodes="true"
     inkscape:pagecheckerboard="false"
     showborder="false"
     inkscape:document-rotation="0"
     inkscape:deskcolor="#d1d1d1" />
  <defs
     id="defs3">
    <clipPath
       clipPathUnits="userSpaceOnUse"
       id="clipPath994">
      <path
         style="color:#000000;display:inline;overflow:visible;visibility:visible;fill:#cdcdcd;fill-opacity:1;fill-rule:nonzero;stroke:none;stroke-width:2;stroke-miterlimit:4;stroke-dasharray:none;stroke-opacity:1;marker:none;enable-background:accumulate"
         d="m 335.73108,62 c -8.82418,0 -9.77365,0.90635 -9.7304,9.74838 V 84 96.25162 c -0.0433,8.84203 0.90622,9.74838 9.7304,9.74838 h 16.53919 c 8.82418,0 9.7304,-0.90625 9.7304,-9.74838 V 84 71.74838 C 362.00067,62.90625 361.09445,62 352.27027,62 Z"
         id="path996"
         inkscape:connector-curvature="0"
         sodipodi:nodetypes="scccssscsss" />
    </clipPath>
    <clipPath
       clipPathUnits="userSpaceOnUse"
       id="clipPath971">
      <path
         style="color:#000000;display:inline;overflow:visible;visibility:visible;opacity:1;fill:#46a926;fill-opacity:1;fill-rule:nonzero;stroke:none;stroke-width:2;stroke-miterlimit:4;stroke-dasharray:none;stroke-opacity:1;marker:none;enable-background:accumulate"
         d="m 327.8652,189 c -4.41209,0 -4.88682,0.45318 -4.8652,4.87419 V 200 206.12581 C 322.9783,210.54682 323.45311,211 327.8652,211 h 8.2696 C 340.54689,211 341,210.54688 341,206.12581 V 200 193.87419 C 341,189.45313 340.54688,189 336.13479,189 Z"
         id="path973"
         inkscape:connector-curvature="0"
         sodipodi:nodetypes="scccssscsss" />
    </clipPath>
    <clipPath
       clipPathUnits="userSpaceOnUse"
       id="clipPath994-1">
      <path
         style="color:#000000;display:inline;overflow:visible;visibility:visible;fill:#cdcdcd;fill-opacity:1;fill-rule:nonzero;stroke:none;stroke-width:2;stroke-miterlimit:4;stroke-dasharray:none;stroke-opacity:1;marker:none;enable-background:accumulate"
         d="m 335.73108,62 c -8.82418,0 -9.77365,0.90635 -9.7304,9.74838 V 84 96.25162 c -0.0433,8.84203 0.90622,9.74838 9.7304,9.74838 h 16.53919 c 8.82418,0 9.7304,-0.90625 9.7304,-9.74838 V 84 71.74838 C 362.00067,62.90625 361.09445,62 352.27027,62 Z"
         id="path996-8"
         inkscape:connector-curvature="0"
         sodipodi:nodetypes="scccssscsss" />
    </clipPath>
    <linearGradient
       id="a"
       x2="1"
       gradientTransform="matrix(39.8114,0,0,39.8114,4.09429,24)"
       gradientUnits="userSpaceOnUse">
      <stop
         stop-color="#fd4369"
         offset="0"
         id="stop2" />
      <stop
         stop-color="#d45e5f"
         offset="1"
         id="stop4" />
    </linearGradient>
    <linearGradient
       id="c"
       x2="1"
       gradientTransform="matrix(-5.204503,-201.74519,201.74519,-5.204503,152.26473,264.09541)"
       gradientUnits="userSpaceOnUse"
       xlink:href="#b" />
    <linearGradient
       id="b">
      <stop
         stop-color="#ff4269"
         offset="0"
         id="stop7" />
      <stop
         stop-color="#d35f5f"
         offset="1"
         id="stop9" />
    </linearGradient>
    <linearGradient
       id="d"
       x2="1"
       gradientTransform="matrix(-5.204503,-201.74519,201.74519,-5.204503,149.71927,262.56457)"
       gradientUnits="userSpaceOnUse"
       xlink:href="#b" />
    <linearGradient
       inkscape:collect="always"
       xlink:href="#a"
       id="linearGradient1252"
       gradientUnits="userSpaceOnUse"
       gradientTransform="matrix(40.716329,0,0,40.716329,323.64182,83.99986)"
       x2="1" />
    <linearGradient
       inkscape:collect="always"
       xlink:href="#b"
       id="linearGradient1254"
       gradientUnits="userSpaceOnUse"
       gradientTransform="matrix(-1.0455475,-40.529169,40.529169,-1.0455475,344.05318,105.7156)"
       x2="1" />
    <linearGradient
       inkscape:collect="always"
       xlink:href="#b"
       id="linearGradient1256"
       gradientUnits="userSpaceOnUse"
       gradientTransform="matrix(-1.0455475,-40.529169,40.529169,-1.0455475,343.54182,105.40806)"
       x2="1" />
    <linearGradient
       inkscape:collect="always"
       xlink:href="#a"
       id="linearGradient1274"
       gradientUnits="userSpaceOnUse"
       gradientTransform="matrix(26.239411,0,0,26.239411,322.88029,147.99991)"
       x2="1" />
    <linearGradient
       inkscape:collect="always"
       xlink:href="#b"
       id="linearGradient1276"
       gradientUnits="userSpaceOnUse"
       gradientTransform="matrix(-0.67379727,-26.118797,26.118797,-0.67379727,336.03427,161.9945)"
       x2="1" />
    <linearGradient
       inkscape:collect="always"
       xlink:href="#b"
       id="linearGradient1278"
       gradientUnits="userSpaceOnUse"
       gradientTransform="matrix(-0.67379727,-26.118797,26.118797,-0.67379727,335.70473,161.79631)"
       x2="1" />
    <linearGradient
       inkscape:collect="always"
       xlink:href="#a"
       id="linearGradient1296"
       gradientUnits="userSpaceOnUse"
       gradientTransform="matrix(20.810568,0,0,20.810568,321.59471,199.99993)"
       x2="1" />
    <linearGradient
       inkscape:collect="always"
       xlink:href="#b"
       id="linearGradient1298"
       gradientUnits="userSpaceOnUse"
       gradientTransform="matrix(-0.53439094,-20.714908,20.714908,-0.53439094,332.02718,211.09909)"
       x2="1" />
    <linearGradient
       inkscape:collect="always"
       xlink:href="#b"
       id="linearGradient1300"
       gradientUnits="userSpaceOnUse"
       gradientTransform="matrix(-0.53439094,-20.714908,20.714908,-0.53439094,331.76582,210.9419)"
       x2="1" />
    <linearGradient
       inkscape:collect="always"
       xlink:href="#a"
       id="linearGradient1318"
       gradientUnits="userSpaceOnUse"
       gradientTransform="matrix(13.57211,0,0,13.57211,321.21394,243.99995)"
       x2="1" />
    <linearGradient
       inkscape:collect="always"
       xlink:href="#b"
       id="linearGradient1320"
       gradientUnits="userSpaceOnUse"
       gradientTransform="matrix(-0.34851584,-13.509723,13.509723,-0.34851584,328.01773,251.23853)"
       x2="1" />
    <linearGradient
       inkscape:collect="always"
       xlink:href="#b"
       id="linearGradient1322"
       gradientUnits="userSpaceOnUse"
       gradientTransform="matrix(-0.34851584,-13.509723,13.509723,-0.34851584,327.84728,251.13602)"
       x2="1" />
    <linearGradient
       inkscape:collect="always"
       xlink:href="#a"
       id="linearGradient1360"
       gradientUnits="userSpaceOnUse"
       gradientTransform="matrix(202.67683,0,0,202.67683,50.661533,155.9993)"
       x2="1" />
  </defs>
  <metadata
     id="metadata4">
    <rdf:RDF>
      <cc:Work
         rdf:about="">
        <dc:format>image/svg+xml</dc:format>
        <dc:type
           rdf:resource="http://purl.org/dc/dcmitype/StillImage" />
        <dc:creator>
          <cc:Agent>
            <dc:title>Sam Hewitt</dc:title>
          </cc:Agent>
        </dc:creator>
        <dc:source />
        <cc:license
           rdf:resource="http://creativecommons.org/licenses/by-sa/4.0/" />
        <dc:title>Suru Icon Theme Template</dc:title>
        <dc:subject>
          <rdf:Bag />
        </dc:subject>
        <dc:date />
        <dc:rights>
          <cc:Agent>
            <dc:title />
          </cc:Agent>
        </dc:rights>
        <dc:publisher>
          <cc:Agent>
            <dc:title />
          </cc:Agent>
        </dc:publisher>
        <dc:identifier />
        <dc:relation />
        <dc:language />
        <dc:coverage />
        <dc:description />
        <dc:contributor>
          <cc:Agent>
            <dc:title />
          </cc:Agent>
        </dc:contributor>
      </cc:Work>
      <cc:Work
         rdf:about="">
        <dc:format>image/svg+xml</dc:format>
        <dc:type
           rdf:resource="http://purl.org/dc/dcmitype/StillImage" />
      </cc:Work>
      <cc:License
         rdf:about="http://creativecommons.org/licenses/by-sa/4.0/">
        <cc:permits
           rdf:resource="http://creativecommons.org/ns#Reproduction" />
        <cc:permits
           rdf:resource="http://creativecommons.org/ns#Distribution" />
        <cc:requires
           rdf:resource="http://creativecommons.org/ns#Notice" />
        <cc:requires
           rdf:resource="http://creativecommons.org/ns#Attribution" />
        <cc:permits
           rdf:resource="http://creativecommons.org/ns#DerivativeWorks" />
        <cc:requires
           rdf:resource="http://creativecommons.org/ns#ShareAlike" />
      </cc:License>
    </rdf:RDF>
  </metadata>
  <g
     style="display:inline"
     inkscape:groupmode="layer"
     inkscape:label="Icon"
     id="layer1">
    <g
       style="display:none"
       inkscape:label="Baseplate"
       id="layer7"
       inkscape:groupmode="layer"
       sodipodi:insensitive="true">
      <text
         y="-8.2548828"
         xml:space="preserve"
         x="19.006836"
         style="font-style:normal;font-variant:normal;font-weight:normal;font-stretch:normal;line-height:0%;font-family:'DejaVu Sans';-inkscape-font-specification:'DejaVu Sans';display:inline;fill:#000000;fill-opacity:1;stroke:none;enable-background:new"
         inkscape:label="context"
         id="context"><tspan
           style="font-style:normal;font-variant:normal;font-weight:normal;font-stretch:normal;font-size:18px;line-height:1.25;font-family:'DejaVu Sans';-inkscape-font-specification:'DejaVu Sans'"
           y="-8.2548828"
           x="19.006836"
           sodipodi:role="line"
           id="tspan3933">apps</tspan></text>
      <text
         y="-8.2548828"
         xml:space="preserve"
         x="146.48828"
         style="font-style:normal;font-variant:normal;font-weight:bold;font-stretch:normal;line-height:0%;font-family:'DejaVu Sans';-inkscape-font-specification:'DejaVu Sans Bold';text-align:start;writing-mode:lr-tb;text-anchor:start;display:inline;fill:#000000;fill-opacity:1;stroke:none;enable-background:new"
         inkscape:label="icon-name"
         id="icon-name"><tspan
           style="font-style:normal;font-variant:normal;font-weight:bold;font-stretch:normal;font-size:18px;line-height:1.25;font-family:'DejaVu Sans';-inkscape-font-specification:'DejaVu Sans Bold'"
           y="-8.2548828"
           x="146.48828"
           sodipodi:role="line"
           id="tspan3937">accessories-dictionary</tspan></text>
      <rect
         style="display:inline;overflow:visible;visibility:visible;fill:#cdcdcd;fill-opacity:1;fill-rule:nonzero;stroke:none;stroke-width:2;marker:none;enable-background:accumulate"
         id="rect16x16"
         width="16"
         height="16"
         x="320"
         y="236"
         inkscape:label="16x16" />
      <rect
         style="display:inline;overflow:visible;visibility:visible;fill:#cdcdcd;fill-opacity:1;fill-rule:nonzero;stroke:none;stroke-width:2;marker:none;enable-background:accumulate"
         id="rect24x24"
         width="24"
         height="24"
         x="320"
         y="188"
         inkscape:label="24x24" />
      <rect
         style="display:inline;overflow:visible;visibility:visible;fill:#cdcdcd;fill-opacity:1;fill-rule:nonzero;stroke:none;stroke-width:2;marker:none;enable-background:accumulate"
         id="rect32x32"
         width="32"
         height="32"
         x="320"
         y="132"
         inkscape:label="32x32" />
      <rect
         inkscape:label="48x48"
         y="60"
         x="320"
         height="48"
         width="48"
         id="rect48x48"
         style="display:inline;overflow:visible;visibility:visible;fill:#cdcdcd;fill-opacity:1;fill-rule:nonzero;stroke:none;stroke-width:2;marker:none;enable-background:accumulate" />
      <rect
         style="display:inline;overflow:visible;visibility:visible;fill:#cdcdcd;fill-opacity:1;fill-rule:nonzero;stroke:none;stroke-width:2;marker:none;enable-background:accumulate"
         id="rect256x256"
         width="256"
         height="256"
         x="24"
         y="28"
         inkscape:label="256x256" />
    </g>
    <g
       inkscape:groupmode="layer"
       id="layer8"
       inkscape:label="Backgrounds"
       style="display:inline">
      <path
         d="m 253.33994,67.60049 c 0,-7.142567 -5.79856,-12.94113 -12.94113,-12.94113 H 63.601187 c -7.142567,0 -12.94113,5.798563 -12.94113,12.94113 v 176.79763 c 0,7.14256 5.798563,12.94113 12.94113,12.94113 H 240.39881 c 7.14257,0 12.94113,-5.79857 12.94113,-12.94113 z"
         fill="url(#a)"
         id="path14"
         style="fill:url(#linearGradient1360);stroke-width:5.09092" />
      <path
         d="M 68.361201,55.738636 151.832,55.43318 l 2.97819,201.55479 -85.52244,0.31564 c -6.490929,0.0204 -11.739672,-5.50329 -11.770218,-12.39131 L 56.708075,68.216492 C 56.67753,61.328471 61.875364,55.764091 68.361201,55.738636 Z"
         fill="#ffffff"
         fill-rule="nonzero"
         id="path16"
         style="stroke-width:5.09092" />
      <path
         d="m 151.03272,55.555363 0.72801,201.514067 81.6737,5.09601 c 0,0 13.35349,2.38765 13.34331,-12.01458 L 246.66065,63.711024 C 246.89992,47.822248 232.57406,50.306619 232.57406,50.306619 Z"
         fill="#b3b3b3"
         id="path18"
         style="stroke-width:5.09092" />
      <path
         d="m 149.60727,55.555363 0.79927,201.514067 74.54641,10.7673 c 0,0 12.17749,2.56583 12.11131,-12.64585 L 236.25989,58.345189 C 236.41771,41.570593 223.36967,44.14151 223.36967,44.14151 Z"
         fill="#ffffff"
         id="path20"
         style="stroke-width:5.09092" />
      <path
         d="m 149.60727,55.555363 0.79927,201.514067 74.54641,10.7673 c 0,0 12.17749,2.56583 12.11131,-12.64585 L 236.25989,58.345189 C 236.41771,41.570593 223.36967,44.14151 223.36967,44.14151 Z"
         fill-opacity="0.07"
         id="path22"
         style="stroke-width:5.09092" />
      <path
         d="m 364.35847,66.241169 c 0,-1.434891 -1.16489,-2.599781 -2.59978,-2.599781 h -35.51738 c -1.43489,0 -2.59978,1.16489 -2.59978,2.599781 v 35.517381 c 0,1.43489 1.16489,2.59978 2.59978,2.59978 h 35.51738 c 1.43489,0 2.59978,-1.16489 2.59978,-2.59978 z"
         fill="url(#a)"
         id="path1236"
         style="fill:url(#linearGradient1252);stroke-width:1.02273" />
      <path
         d="m 327.19756,63.858207 16.76869,-0.06136 0.5983,40.490913 -17.18085,0.0634 c -1.30398,0.004 -2.35842,-1.10557 -2.36455,-2.48932 l -0.16262,-35.496927 c -0.006,-1.383754 1.03807,-2.501598 2.34103,-2.506712 z"
         fill="#ffffff"
         fill-rule="nonzero"
         id="path1238"
         style="stroke-width:1.02273" />
      <path
         d="m 343.80568,63.821389 0.14625,40.482741 16.40767,1.02375 c 0,0 2.68262,0.47966 2.68057,-2.41364 l -0.0235,-37.454437 c 0.0481,-3.191942 -2.8299,-2.692849 -2.8299,-2.692849 z"
         fill="#b3b3b3"
         id="path1240"
         style="stroke-width:1.02273" />
      <path
         d="m 343.51932,63.821389 0.16056,40.482741 14.97585,2.16307 c 0,0 2.44637,0.51546 2.43307,-2.54046 l -0.16159,-39.544895 c 0.0317,-3.369897 -2.58955,-2.853418 -2.58955,-2.853418 z"
         fill="#ffffff"
         id="path1242"
         style="stroke-width:1.02273" />
      <path
         d="m 343.51932,63.821389 0.16056,40.482741 14.97585,2.16307 c 0,0 2.44637,0.51546 2.43307,-2.54046 l -0.16159,-39.544895 c 0.0317,-3.369897 -2.58955,-2.853418 -2.58955,-2.853418 z"
         fill-opacity="0.07"
         id="path1244"
         style="stroke-width:1.02273" />
      <path
         d="m 349.1199,136.55542 c 0,-0.92471 -0.7507,-1.67541 -1.67541,-1.67541 h -22.88898 c -0.92471,0 -1.67541,0.7507 -1.67541,1.67541 v 22.88898 c 0,0.92471 0.7507,1.67541 1.67541,1.67541 h 22.88898 c 0.92471,0 1.67541,-0.7507 1.67541,-1.67541 z"
         fill="url(#a)"
         id="path1258"
         style="fill:url(#linearGradient1274);stroke-width:0.659093" />
      <path
         d="m 325.17176,135.01973 10.80649,-0.0395 0.38557,26.09415 -11.0721,0.0409 c -0.84035,0.003 -1.51987,-0.71248 -1.52383,-1.60423 l -0.10479,-22.8758 c -0.004,-0.89175 0.66898,-1.61214 1.50866,-1.61544 z"
         fill="#ffffff"
         fill-rule="nonzero"
         id="path1260"
         style="stroke-width:0.659093" />
      <path
         d="m 335.87477,134.99601 0.0942,26.08887 10.57383,0.65975 c 0,0 1.7288,0.30912 1.72748,-1.55546 l -0.0152,-24.1373 c 0.031,-2.05703 -1.82371,-1.73539 -1.82371,-1.73539 z"
         fill="#b3b3b3"
         id="path1262"
         style="stroke-width:0.659093" />
      <path
         d="m 335.69023,134.99601 0.10347,26.08887 9.6511,1.39398 c 0,0 1.57655,0.33219 1.56798,-1.63718 l -0.10413,-25.48449 c 0.0204,-2.17171 -1.66883,-1.83887 -1.66883,-1.83887 z"
         fill="#ffffff"
         id="path1264"
         style="stroke-width:0.659093" />
      <path
         d="m 335.69023,134.99601 0.10347,26.08887 9.6511,1.39398 c 0,0 1.57655,0.33219 1.56798,-1.63718 l -0.10413,-25.48449 c 0.0204,-2.17171 -1.66883,-1.83887 -1.66883,-1.83887 z"
         fill-opacity="0.07"
         id="path1266"
         style="stroke-width:0.659093" />
      <path
         d="m 342.40544,190.92327 c 0,-0.73339 -0.59538,-1.32878 -1.32877,-1.32878 h -18.15333 c -0.73339,0 -1.32878,0.59539 -1.32878,1.32878 v 18.15333 c 0,0.73339 0.59539,1.32877 1.32878,1.32877 h 18.15333 c 0.73339,0 1.32877,-0.59538 1.32877,-1.32877 z"
         fill="url(#a)"
         id="path1280"
         style="fill:url(#linearGradient1296);stroke-width:0.522729" />
      <path
         d="m 323.41209,189.70531 8.57066,-0.0314 0.3058,20.69536 -8.78132,0.0324 c -0.66648,0.002 -1.20542,-0.56507 -1.20855,-1.27232 l -0.0831,-18.14287 c -0.003,-0.70725 0.53057,-1.2786 1.19653,-1.28121 z"
         fill="#ffffff"
         fill-rule="nonzero"
         id="path1282"
         style="stroke-width:0.522729" />
      <path
         d="m 331.90068,189.68649 0.0747,20.69118 8.38614,0.52325 c 0,0 1.37112,0.24516 1.37008,-1.23364 l -0.012,-19.14338 c 0.0246,-1.63143 -1.44639,-1.37634 -1.44639,-1.37634 z"
         fill="#b3b3b3"
         id="path1284"
         style="stroke-width:0.522729" />
      <path
         d="m 331.75432,189.68649 0.0821,20.69118 7.65432,1.10557 c 0,0 1.25036,0.26346 1.24357,-1.29846 l -0.0826,-20.21183 c 0.0162,-1.72239 -1.32355,-1.45842 -1.32355,-1.45842 z"
         fill="#ffffff"
         id="path1286"
         style="stroke-width:0.522729" />
      <path
         d="m 331.75432,189.68649 0.0821,20.69118 7.65432,1.10557 c 0,0 1.25036,0.26346 1.24357,-1.29846 l -0.0826,-20.21183 c 0.0162,-1.72239 -1.32355,-1.45842 -1.32355,-1.45842 z"
         fill-opacity="0.07"
         id="path1288"
         style="stroke-width:0.522729" />
      <path
         d="m 334.78616,238.08039 c 0,-0.4783 -0.3883,-0.86659 -0.86659,-0.86659 h -11.83913 c -0.4783,0 -0.86659,0.38829 -0.86659,0.86659 v 11.83913 c 0,0.47829 0.38829,0.86659 0.86659,0.86659 h 11.83913 c 0.47829,0 0.86659,-0.3883 0.86659,-0.86659 z"
         fill="url(#a)"
         id="path1302"
         style="fill:url(#linearGradient1318);stroke-width:0.34091" />
      <path
         d="m 322.39919,237.28607 5.58956,-0.0205 0.19944,13.49698 -5.72695,0.0211 c -0.43466,0.001 -0.78614,-0.36852 -0.78819,-0.82977 l -0.0542,-11.83231 c -0.002,-0.46125 0.34602,-0.83387 0.78034,-0.83557 z"
         fill="#ffffff"
         fill-rule="nonzero"
         id="path1304"
         style="stroke-width:0.34091" />
      <path
         d="m 327.93523,237.2738 0.0487,13.49424 5.46922,0.34125 c 0,0 0.89421,0.15989 0.89353,-0.80454 l -0.008,-12.48482 c 0.016,-1.06398 -0.9433,-0.89761 -0.9433,-0.89761 z"
         fill="#b3b3b3"
         id="path1306"
         style="stroke-width:0.34091" />
      <path
         d="m 327.83978,237.2738 0.0535,13.49424 4.99195,0.72103 c 0,0 0.81545,0.17182 0.81102,-0.84682 l -0.0539,-13.18163 c 0.0106,-1.1233 -0.86319,-0.95114 -0.86319,-0.95114 z"
         fill="#ffffff"
         id="path1308"
         style="stroke-width:0.34091" />
      <path
         d="m 327.83978,237.2738 0.0535,13.49424 4.99195,0.72103 c 0,0 0.81545,0.17182 0.81102,-0.84682 l -0.0539,-13.18163 c 0.0106,-1.1233 -0.86319,-0.95114 -0.86319,-0.95114 z"
         fill-opacity="0.07"
         id="path1310"
         style="stroke-width:0.34091" />
    </g>
    <g
       inkscape:groupmode="layer"
       id="layer6"
       inkscape:label="Pictograms"
       style="display:inline">
      <path
         d="m 324.38908,241.11006 -2.01409,5.27626 h 0.75238 l 0.48069,-1.35375 h 2.37853 l 0.48068,1.35375 h 0.7425 l -2.01103,-5.27626 z m 0.40296,0.7033 0.97193,2.62534 h -1.94012 z"
         fill="url(#c)"
         id="path1312"
         style="display:inline;fill:url(#linearGradient1320);fill-rule:nonzero;stroke-width:0.34091;enable-background:new" />
      <path
         d="m 330.31785,242.23029 c -0.21205,0 -0.43023,0.0232 -0.65386,0.0706 -0.22398,0.0447 -0.45444,0.21682 -0.69239,0.30886 v 0.49671 c 0.19772,-0.10841 0.40398,-0.18955 0.61841,-0.24375 0.21443,-0.0542 0.43432,-0.0811 0.66068,-0.0811 0.35557,0 0.63137,0.0822 0.82671,0.24682 0.19807,0.16261 0.29693,0.39409 0.29693,0.69341 v 0.0631 h -0.91125 c -0.59148,0 -1.03671,0.11352 -1.33569,0.33955 -0.29693,0.22636 -0.44557,0.56147 -0.44557,1.0067 0,0.38182 0.11898,0.68728 0.35694,0.91569 0.24034,0.22602 0.56284,0.33954 0.96818,0.33954 0.32046,0 0.59148,-0.0566 0.81273,-0.16977 0.22159,-0.11557 0.40637,-0.29386 0.55466,-0.53386 v 0.60102 h 0.6508 v -2.25853 c 0,-0.60307 -0.14148,-1.05273 -0.42443,-1.34966 -0.28262,-0.29694 -0.71046,-0.44523 -1.28285,-0.44523 z m 0.41012,2.06387 h 0.64636 v 0.14454 c 0,0.4241 -0.10909,0.76467 -0.32795,1.02137 -0.21682,0.25466 -0.50591,0.38148 -0.86626,0.38148 -0.26182,0 -0.46875,-0.0668 -0.62216,-0.20114 -0.15068,-0.13636 -0.22568,-0.32011 -0.22568,-0.55125 0,-0.28977 0.10091,-0.495 0.30375,-0.615 0.2025,-0.12034 0.56659,-0.18 1.09194,-0.18 z"
         fill="url(#d)"
         id="path1314"
         style="display:inline;fill:url(#linearGradient1322);fill-rule:nonzero;stroke-width:0.34091;enable-background:new" />
      <path
         d="m 326.46326,195.56876 -3.08828,8.09027 h 1.15366 l 0.73705,-2.07575 h 3.64708 l 0.73704,2.07575 h 1.13851 l -3.08358,-8.09027 z m 0.61786,1.07839 1.4903,4.02553 h -2.97485 z"
         fill="url(#c)"
         id="path1290"
         style="display:inline;fill:url(#linearGradient1298);fill-rule:nonzero;stroke-width:0.522729;enable-background:new" />
      <path
         d="m 335.55404,197.28645 c -0.32514,0 -0.65969,0.0355 -1.0026,0.1082 -0.34343,0.0685 -0.6968,0.33246 -1.06166,0.47359 v 0.76162 c 0.30318,-0.16623 0.61943,-0.29064 0.94823,-0.37375 0.3288,-0.0831 0.66596,-0.12441 1.01305,-0.12441 0.5452,0 0.96809,0.12598 1.26762,0.37846 0.3037,0.24934 0.45529,0.60427 0.45529,1.06323 v 0.0967 h -1.39725 c -0.90694,0 -1.58962,0.17407 -2.04805,0.52064 -0.4553,0.34709 -0.68321,0.86093 -0.68321,1.54362 0,0.58545 0.18243,1.05382 0.5473,1.40405 0.36852,0.34657 0.86302,0.52063 1.48455,0.52063 0.49136,0 0.90693,-0.0868 1.24618,-0.26031 0.33978,-0.17721 0.6231,-0.4506 0.85048,-0.8186 v 0.92157 h 0.99789 v -3.46308 c 0,-0.9247 -0.21693,-1.61418 -0.6508,-2.06948 -0.43334,-0.4553 -1.08936,-0.68268 -1.96702,-0.68268 z m 0.62884,3.1646 h 0.99109 v 0.22163 c 0,0.65028 -0.16727,1.17249 -0.50286,1.5661 -0.33246,0.39048 -0.77573,0.58493 -1.32826,0.58493 -0.40145,0 -0.71875,-0.10245 -0.95398,-0.30841 -0.23104,-0.20909 -0.34604,-0.49084 -0.34604,-0.84525 0,-0.44432 0.15472,-0.759 0.46575,-0.943 0.3105,-0.18452 0.86877,-0.276 1.6743,-0.276 z"
         fill="url(#d)"
         id="path1292"
         style="display:inline;fill:url(#linearGradient1300);fill-rule:nonzero;stroke-width:0.522729;enable-background:new" />
      <path
         d="m 329.01889,142.41278 -3.89392,10.20078 h 1.45461 l 0.92933,-2.61726 h 4.59849 l 0.92932,2.61726 h 1.4355 l -3.88799,-10.20078 z m 0.77905,1.35971 1.87907,5.07567 h -3.7509 z"
         fill="url(#c)"
         id="path1268"
         style="display:inline;fill:url(#linearGradient1276);fill-rule:nonzero;stroke-width:0.659093;enable-background:new" />
      <path
         d="m 340.48117,144.57856 c -0.40995,0 -0.83177,0.0448 -1.26414,0.13643 -0.43302,0.0863 -0.87857,0.41918 -1.33862,0.59714 v 0.9603 c 0.38228,-0.20959 0.78103,-0.36646 1.1956,-0.47125 0.41457,-0.1048 0.83968,-0.15687 1.27732,-0.15687 0.68744,0 1.22064,0.15884 1.5983,0.47719 0.38293,0.31438 0.57407,0.76191 0.57407,1.34059 v 0.12193 h -1.76175 c -1.14353,0 -2.00431,0.21948 -2.58233,0.65646 -0.57407,0.43764 -0.86143,1.08552 -0.86143,1.9463 0,0.73818 0.23002,1.32873 0.69007,1.77032 0.46466,0.43698 1.08816,0.65646 1.87182,0.65646 0.61955,0 1.14353,-0.10941 1.57128,-0.32823 0.42841,-0.22343 0.78564,-0.56814 1.07234,-1.03214 v 1.16198 h 1.25821 v -4.36649 c 0,-1.16593 -0.27352,-2.03528 -0.82057,-2.60935 -0.54639,-0.57407 -1.37355,-0.86077 -2.48017,-0.86077 z m 0.79289,3.99015 h 1.24964 v 0.27945 c 0,0.81991 -0.21091,1.47835 -0.63405,1.97464 -0.41918,0.49235 -0.97809,0.73753 -1.67475,0.73753 -0.50618,0 -0.90625,-0.12918 -1.20285,-0.38887 -0.29131,-0.26363 -0.43632,-0.61888 -0.43632,-1.06575 0,-0.56023 0.1951,-0.957 0.58726,-1.189 0.3915,-0.23266 1.09541,-0.348 2.11107,-0.348 z"
         fill="url(#d)"
         id="path1270"
         style="display:inline;fill:url(#linearGradient1278);fill-rule:nonzero;stroke-width:0.659093;enable-background:new" />
      <path
         d="m 333.16724,75.330174 -6.04229,15.828798 h 2.25716 l 1.44205,-4.061262 h 7.13559 l 1.44205,4.061262 h 2.22751 l -6.03309,-15.828798 z m 1.20887,2.109893 2.9158,7.876047 h -5.82036 z"
         fill="url(#c)"
         id="path1246"
         style="display:inline;fill:url(#linearGradient1254);fill-rule:nonzero;stroke-width:1.02273;enable-background:new" />
      <path
         d="m 350.95354,78.690866 c -0.63613,0 -1.29068,0.06955 -1.96159,0.211705 -0.67194,0.133978 -1.3633,0.650457 -2.07717,0.926594 v 1.490118 c 0.59318,-0.325228 1.21194,-0.568638 1.85523,-0.731252 0.6433,-0.162614 1.30296,-0.24341 1.98206,-0.24341 1.0667,0 1.89409,0.246478 2.48012,0.740457 0.5942,0.487842 0.8908,1.182276 0.8908,2.080234 v 0.189205 h -2.73376 c -1.77444,0 -3.11013,0.340569 -4.00706,1.018639 -0.8908,0.679093 -1.33671,1.684437 -1.33671,3.020123 0,1.145458 0.35693,2.061825 1.0708,2.747054 0.72102,0.67807 1.68853,1.018639 2.90455,1.018639 0.96137,0 1.77444,-0.169773 2.43819,-0.509319 0.66478,-0.346706 1.2191,-0.881594 1.66399,-1.601596 v 1.803074 h 1.95239 v -6.775589 c 0,-1.80921 -0.42444,-3.158192 -1.2733,-4.04899 -0.84785,-0.890798 -2.13137,-1.335686 -3.84854,-1.335686 z m 1.23035,6.19161 h 1.9391 v 0.433638 c 0,1.272276 -0.32728,2.293984 -0.98387,3.0641 -0.65046,0.76398 -1.51773,1.144435 -2.59876,1.144435 -0.78546,0 -1.40625,-0.200455 -1.86648,-0.603411 -0.45205,-0.409092 -0.67705,-0.960344 -0.67705,-1.653755 0,-0.869321 0.30273,-1.485004 0.91125,-1.845005 0.6075,-0.361024 1.69978,-0.540002 3.27581,-0.540002 z"
         fill="url(#d)"
         id="path1248"
         style="display:inline;fill:url(#linearGradient1256);fill-rule:nonzero;stroke-width:1.02273;enable-background:new" />
      <path
         d="m 98.076928,112.84354 -30.077182,78.79223 h 11.23567 L 86.41362,171.41971 H 121.933 l 7.1782,20.21606 h 11.08804 l -30.03137,-78.79223 z m 6.017472,10.50257 14.51423,39.20521 H 89.636175 Z"
         fill="url(#c)"
         id="path24"
         style="display:inline;enable-background:new;fill:url(#c);fill-rule:nonzero;stroke-width:5.09092" />
      <path
         d="m 186.6132,129.57231 c -3.16656,0 -6.42475,0.34619 -9.7644,1.05383 -3.34473,0.66691 -6.7862,3.23782 -10.33967,4.61237 v 7.41748 c 2.95274,-1.61891 6.03275,-2.83055 9.23494,-3.64001 3.20219,-0.80946 6.48584,-1.21164 9.86621,-1.21164 5.30984,0 9.4284,1.22691 12.3455,3.68583 2.95782,2.42837 4.43419,5.88511 4.43419,10.35494 v 0.94182 h -13.60804 c -8.83275,0 -15.4815,1.69528 -19.94624,5.07056 -4.4342,3.38037 -6.65384,8.38475 -6.65384,15.0335 0,5.70184 1.77673,10.2633 5.3302,13.67422 3.5891,3.37529 8.40511,5.07056 14.45822,5.07056 4.78547,0 8.83276,-0.84509 12.13677,-2.53528 3.3091,-1.72582 6.06838,-4.38837 8.28293,-7.97238 v 8.9753 h 9.71858 v -33.72738 c 0,-9.00584 -2.11274,-15.72077 -6.33821,-20.15497 -4.22037,-4.43419 -10.60948,-6.64875 -19.15714,-6.64875 z m 6.12438,30.82046 h 9.65239 v 2.15855 c 0,6.33311 -1.6291,11.41895 -4.89747,15.25241 -3.23783,3.80292 -7.55493,5.69675 -12.93604,5.69675 -3.90983,0 -7.00002,-0.99782 -9.29094,-3.00365 -2.25018,-2.03637 -3.37019,-4.78038 -3.37019,-8.23202 0,-4.32729 1.50692,-7.39203 4.53602,-9.18403 3.02401,-1.7971 8.46111,-2.68801 16.30623,-2.68801 z"
         fill="url(#d)"
         id="path26"
         style="display:inline;enable-background:new;fill:url(#d);fill-rule:nonzero;stroke-width:5.09092" />
    </g>
  </g>
</svg>
