<?xml version="1.0" encoding="UTF-8" standalone="no"?>
<svg
   inkscape:export-ydpi="96"
   inkscape:export-xdpi="96"
   width="400"
   height="300"
   id="svg11300"
   sodipodi:version="0.32"
   inkscape:version="1.1.2 (0a00cf5339, 2022-02-04)"
   sodipodi:docname="amazon-store.svg"
   inkscape:output_extension="org.inkscape.output.svg.inkscape"
   version="1.0"
   style="display:inline;enable-background:new"
   inkscape:export-filename="C:\Users\sblav\Pictures\vertical oblong template.png"
   xmlns:inkscape="http://www.inkscape.org/namespaces/inkscape"
   xmlns:sodipodi="http://sodipodi.sourceforge.net/DTD/sodipodi-0.dtd"
   xmlns:xlink="http://www.w3.org/1999/xlink"
   xmlns="http://www.w3.org/2000/svg"
   xmlns:svg="http://www.w3.org/2000/svg"
   xmlns:rdf="http://www.w3.org/1999/02/22-rdf-syntax-ns#"
   xmlns:cc="http://creativecommons.org/ns#"
   xmlns:dc="http://purl.org/dc/elements/1.1/">
  <title
     id="title3004">Yaru Icon Theme Template</title>
  <sodipodi:namedview
     stroke="#ef2929"
     fill="#f57900"
     id="base"
     pagecolor="#ffffff"
     bordercolor="#000000"
     borderopacity="0.25490196"
     inkscape:pageopacity="0"
     inkscape:pageshadow="2"
     inkscape:zoom="1.4142136"
     inkscape:cx="156.27059"
     inkscape:cy="137.88582"
     inkscape:current-layer="layer6"
     showgrid="false"
     inkscape:grid-bbox="true"
     inkscape:document-units="px"
     inkscape:showpageshadow="false"
     inkscape:window-width="1904"
     inkscape:window-height="1011"
     inkscape:window-x="0"
     inkscape:window-y="32"
     width="400px"
     height="300px"
     inkscape:snap-nodes="true"
     inkscape:snap-bbox="true"
     gridtolerance="10000"
     inkscape:object-nodes="true"
     inkscape:snap-grids="true"
     showguides="false"
     inkscape:guide-bbox="true"
     inkscape:window-maximized="1"
     inkscape:bbox-paths="true"
     inkscape:snap-bbox-midpoints="true"
     inkscape:snap-global="true"
     inkscape:object-paths="true"
     inkscape:snap-intersection-paths="true"
     inkscape:snap-smooth-nodes="true"
     inkscape:pagecheckerboard="false"
     showborder="false"
     inkscape:document-rotation="0" />
  <defs
     id="defs3">
    <clipPath
       clipPathUnits="userSpaceOnUse"
       id="clipPath1082-3">
      <path
         sodipodi:nodetypes="sssssssss"
         inkscape:connector-curvature="0"
         id="path1084-6"
         d="M 361.9375,-212 C 507.2348,-212 528,-191.28677 528,-46.125 V 70.125 C 528,215.28618 507.2348,236 361.9375,236 H 214.0625 C 68.7652,236 48,215.28618 48,70.125 V -46.125 C 48,-191.28677 68.7652,-212 214.0625,-212 Z"
         style="display:inline;opacity:1;fill:#8c59d9;fill-opacity:1;stroke:none;stroke-width:2;stroke-linecap:round;stroke-linejoin:round;stroke-miterlimit:4;stroke-dasharray:none;stroke-dashoffset:0;stroke-opacity:1;enable-background:new" />
    </clipPath>
    <linearGradient
       id="a"
       x2="1"
       gradientTransform="matrix(-3.208182,-209.62066,209.62066,-3.208182,152.09989,257.29988)"
       gradientUnits="userSpaceOnUse">
      <stop
         stop-color="#f15f19"
         offset="0"
         id="stop2" />
      <stop
         stop-color="#fbb521"
         offset="1"
         id="stop4" />
    </linearGradient>
    <linearGradient
       inkscape:collect="always"
       xlink:href="#a"
       id="linearGradient1986"
       gradientUnits="userSpaceOnUse"
       gradientTransform="matrix(-0.64450086,-42.111294,42.111294,-0.64450086,344.02007,104.35042)"
       x2="1" />
    <linearGradient
       inkscape:collect="always"
       xlink:href="#a"
       id="linearGradient1992"
       gradientUnits="userSpaceOnUse"
       gradientTransform="matrix(-0.415345,-27.138389,27.138389,-0.415345,336.01293,161.11472)"
       x2="1" />
    <linearGradient
       inkscape:collect="always"
       xlink:href="#a"
       id="linearGradient1998"
       gradientUnits="userSpaceOnUse"
       gradientTransform="matrix(-0.32941155,-21.52355,21.52355,-0.32941155,332.01026,210.40133)"
       x2="1" />
    <linearGradient
       inkscape:collect="always"
       xlink:href="#a"
       id="linearGradient2004"
       gradientUnits="userSpaceOnUse"
       gradientTransform="matrix(-0.21483362,-14.037098,14.037098,-0.21483362,328.0067,250.7836)"
       x2="1" />
  </defs>
  <metadata
     id="metadata4">
    <rdf:RDF>
      <cc:Work
         rdf:about="">
        <dc:format>image/svg+xml</dc:format>
        <dc:type
           rdf:resource="http://purl.org/dc/dcmitype/StillImage" />
        <dc:creator>
          <cc:Agent>
            <dc:title>Yaru Team, based on the Suru template by Sam Hewitt and original Suru designs by Matthieu James</dc:title>
          </cc:Agent>
        </dc:creator>
        <dc:source />
        <cc:license
           rdf:resource="http://creativecommons.org/licenses/by-sa/4.0/" />
        <dc:title>Yaru Icon Theme Template</dc:title>
        <dc:subject>
          <rdf:Bag />
        </dc:subject>
        <dc:date />
        <dc:rights>
          <cc:Agent>
            <dc:title />
          </cc:Agent>
        </dc:rights>
        <dc:publisher>
          <cc:Agent>
            <dc:title />
          </cc:Agent>
        </dc:publisher>
        <dc:identifier />
        <dc:relation />
        <dc:language />
        <dc:coverage />
        <dc:description />
        <dc:contributor>
          <cc:Agent>
            <dc:title />
          </cc:Agent>
        </dc:contributor>
      </cc:Work>
      <cc:Work
         rdf:about="">
        <dc:format>image/svg+xml</dc:format>
        <dc:type
           rdf:resource="http://purl.org/dc/dcmitype/StillImage" />
      </cc:Work>
      <cc:License
         rdf:about="http://creativecommons.org/licenses/by-sa/4.0/">
        <cc:permits
           rdf:resource="http://creativecommons.org/ns#Reproduction" />
        <cc:permits
           rdf:resource="http://creativecommons.org/ns#Distribution" />
        <cc:requires
           rdf:resource="http://creativecommons.org/ns#Notice" />
        <cc:requires
           rdf:resource="http://creativecommons.org/ns#Attribution" />
        <cc:permits
           rdf:resource="http://creativecommons.org/ns#DerivativeWorks" />
        <cc:requires
           rdf:resource="http://creativecommons.org/ns#ShareAlike" />
      </cc:License>
    </rdf:RDF>
  </metadata>
  <g
     style="display:inline"
     inkscape:groupmode="layer"
     inkscape:label="Icon"
     id="layer1">
    <g
       style="display:none"
       inkscape:label="Baseplate"
       id="layer7"
       inkscape:groupmode="layer"
       sodipodi:insensitive="true">
      <text
         y="-8.2548828"
         xml:space="preserve"
         x="19.006836"
         style="font-style:normal;font-variant:normal;font-weight:normal;font-stretch:normal;line-height:0%;font-family:'DejaVu Sans';-inkscape-font-specification:'DejaVu Sans';display:inline;fill:#000000;fill-opacity:1;stroke:none;enable-background:new"
         inkscape:label="context"
         id="context"><tspan
           style="font-style:normal;font-variant:normal;font-weight:normal;font-stretch:normal;font-size:18px;line-height:1.25;font-family:'DejaVu Sans';-inkscape-font-specification:'DejaVu Sans'"
           y="-8.2548828"
           x="19.006836"
           sodipodi:role="line"
           id="tspan3933">apps</tspan></text>
      <text
         y="-8.2548828"
         xml:space="preserve"
         x="146.48828"
         style="font-style:normal;font-variant:normal;font-weight:bold;font-stretch:normal;line-height:0%;font-family:'DejaVu Sans';-inkscape-font-specification:'DejaVu Sans Bold';text-align:start;writing-mode:lr-tb;text-anchor:start;display:inline;fill:#000000;fill-opacity:1;stroke:none;enable-background:new"
         inkscape:label="icon-name"
         id="icon-name"><tspan
           style="font-style:normal;font-variant:normal;font-weight:bold;font-stretch:normal;font-size:18px;line-height:1.25;font-family:'DejaVu Sans';-inkscape-font-specification:'DejaVu Sans Bold'"
           y="-8.2548828"
           x="146.48828"
           sodipodi:role="line"
           id="tspan3937">amazon-store</tspan></text>
      <rect
         style="display:inline;overflow:visible;visibility:visible;fill:#cdcdcd;fill-opacity:1;fill-rule:nonzero;stroke:none;stroke-width:2;marker:none;enable-background:accumulate"
         id="rect16x16"
         width="16"
         height="16"
         x="320"
         y="236"
         inkscape:label="16x16" />
      <rect
         style="display:inline;overflow:visible;visibility:visible;fill:#cdcdcd;fill-opacity:1;fill-rule:nonzero;stroke:none;stroke-width:2;marker:none;enable-background:accumulate"
         id="rect24x24"
         width="24"
         height="24"
         x="320"
         y="188"
         inkscape:label="24x24" />
      <rect
         style="display:inline;overflow:visible;visibility:visible;fill:#cdcdcd;fill-opacity:1;fill-rule:nonzero;stroke:none;stroke-width:2;marker:none;enable-background:accumulate"
         id="rect32x32"
         width="32"
         height="32"
         x="320"
         y="132"
         inkscape:label="32x32" />
      <rect
         inkscape:label="48x48"
         y="60"
         x="320"
         height="48"
         width="48"
         id="rect48x48"
         style="display:inline;overflow:visible;visibility:visible;fill:#cdcdcd;fill-opacity:1;fill-rule:nonzero;stroke:none;stroke-width:2;marker:none;enable-background:accumulate" />
      <rect
         style="display:inline;overflow:visible;visibility:visible;fill:#cdcdcd;fill-opacity:1;fill-rule:nonzero;stroke:none;stroke-width:2;marker:none;enable-background:accumulate"
         id="rect3951"
         width="256"
         height="256"
         x="24"
         y="28"
         inkscape:label="48x48" />
    </g>
    <g
       inkscape:groupmode="layer"
       id="layer8"
       inkscape:label="Backgrounds"
       style="display:inline">
      <circle
         cx="152"
         cy="156"
         fill="url(#a)"
         id="circle1546"
         r="112"
         style="fill:url(#a);stroke-width:4.92005" />
      <circle
         cx="344"
         cy="84"
         fill="url(#a)"
         id="circle1982"
         r="22.5"
         style="fill:url(#linearGradient1986);stroke-width:0.988403" />
      <circle
         cx="336"
         cy="148"
         fill="url(#a)"
         id="circle1988"
         r="14.5"
         style="fill:url(#linearGradient1992);stroke-width:0.636971" />
      <circle
         cx="332"
         cy="200"
         fill="url(#a)"
         id="circle1994"
         r="11.5"
         style="fill:url(#linearGradient1998);stroke-width:0.505184" />
      <circle
         cx="328"
         cy="244.00011"
         fill="url(#a)"
         id="circle2000"
         r="7.5"
         style="fill:url(#linearGradient2004);stroke-width:0.329468" />
    </g>
    <g
       inkscape:groupmode="layer"
       id="layer6"
       inkscape:label="Pictograms and folds"
       style="display:inline">
      <path
         id="path2088"
         d="m 152.20504,95.354635 c -14.83887,0 -31.43227,5.801575 -34.93043,24.975005 -0.3444,2.04183 1.06081,3.12552 2.33511,3.43056 l 15.14455,1.69127 c 1.42189,-0.0787 2.44393,-1.51745 2.71946,-2.98854 1.29397,-6.61747 6.60142,-9.81127 12.5596,-9.81127 3.21279,0 6.84994,1.23631 8.76384,4.24738 2.16974,3.35548 1.87385,7.94736 1.87385,11.82928 v 2.11409 c -9.05781,1.07749 -20.90406,1.76797 -29.36654,5.66957 -9.7663,4.41329 -16.634,13.45014 -16.634,26.70475 0,16.97417 10.23837,25.45545 23.37983,25.45545 11.11931,0 17.17303,-2.7356 25.74376,-11.88689 2.85855,4.30504 3.78977,6.39528 8.96566,10.89712 1.15464,0.63336 2.62922,0.56787 3.65156,-0.37491 l 0.0674,0.0492 c 3.11439,-2.89791 8.78027,-8.03016 11.97338,-10.83951 1.25953,-1.09717 1.03183,-2.88222 0.0295,-4.34347 -2.86347,-4.13776 -5.89063,-7.48404 -5.89063,-15.14455 v -25.44586 c 0,-10.77491 0.73073,-20.67867 -6.87075,-28.0981 -5.98278,-6.017225 -15.91291,-8.129605 -23.51439,-8.129605 z m 8.48517,48.575845 v 3.54593 l -0.01,-0.01 c 0,6.37638 0.16826,11.68728 -2.91169,17.3355 -2.4797,4.59532 -6.41702,7.4185 -10.81062,7.4185 -5.99262,0 -9.47499,-4.77388 -9.47494,-11.82923 0,-13.92374 11.92025,-16.46106 23.20684,-16.46106 z m 43.06967,44.71287 c -4.24419,0.0615 -9.2588,1.04098 -13.0497,3.77653 -1.18573,0.83641 -0.98691,2.0027 0.32669,1.83542 4.26569,-0.53136 13.79799,-1.70027 15.49048,0.52851 1.71218,2.21895 -1.88944,11.41132 -3.47862,15.50967 -0.48708,1.24482 0.55095,1.7568 1.6432,0.80724 7.14391,-6.10087 8.96625,-18.90185 7.50499,-20.74687 -0.71832,-0.92005 -4.19296,-1.772 -8.43709,-1.7105 z m -111.537129,2.45043 c -0.88492,0.11955 -1.28546,1.22548 -0.35572,2.08526 15.842559,14.66667 36.773779,23.46632 60.011169,23.46632 16.58549,0 35.83454,-5.3626 49.12359,-15.38474 l 0.01,-0.01 c 2.2091,-1.67774 0.32669,-4.16428 -1.93147,-3.19995 -14.87823,6.49446 -31.09274,9.60949 -45.79877,9.60949 -21.82534,0 -42.96718,-6.11291 -60.049589,-16.30726 -0.37245,-0.22287 -0.714,-0.29913 -1.00896,-0.25928 z"
         style="display:inline;enable-background:new;fill:#ffffff;fill-opacity:0.85098;stroke-width:4.92005" />
      <path
         id="path1984"
         d="m 344.04119,71.816779 c -2.98102,0 -6.31452,1.165495 -7.01727,5.0173 -0.0692,0.41019 0.21311,0.627895 0.4691,0.689175 l 3.04244,0.339765 c 0.28564,-0.01581 0.49096,-0.304845 0.54632,-0.600377 0.25994,-1.329402 1.32617,-1.971014 2.52313,-1.971014 0.64543,0 1.3761,0.248366 1.76059,0.853268 0.43589,0.674092 0.37645,1.596568 0.37645,2.376418 v 0.424706 c -1.81965,0.21646 -4.19948,0.355172 -5.89953,1.138976 -1.96198,0.886598 -3.34165,2.702037 -3.34165,5.364794 0,3.409989 2.05681,5.113818 4.69684,5.113818 2.23379,0 3.44994,-0.549563 5.17173,-2.387992 0.57427,0.864852 0.76134,1.284766 1.80114,2.189154 0.23196,0.127237 0.52819,0.114081 0.73357,-0.07532 l 0.0135,0.0099 c 0.62566,-0.582169 1.7639,-1.613202 2.40537,-2.17758 0.25303,-0.220414 0.20729,-0.579017 0.006,-0.872572 -0.57525,-0.831247 -1.18339,-1.50349 -1.18339,-3.042432 v -5.111892 c 0,-2.164602 0.1468,-4.154197 -1.38028,-5.644707 -1.2019,-1.208818 -3.19679,-1.63318 -4.72387,-1.63318 z m 1.70461,9.758541 v 0.712352 l -0.002,-0.002 c 0,1.280969 0.0338,2.347891 -0.58494,3.482578 -0.49815,0.923167 -1.28913,1.490324 -2.17177,1.490324 -1.20388,0 -1.90346,-0.959039 -1.90345,-2.376408 0,-2.79718 2.39469,-3.30691 4.66209,-3.30691 z m 8.65239,8.982496 c -0.85263,0.01235 -1.86003,0.209125 -2.62159,0.758678 -0.23821,0.168029 -0.19826,0.402328 0.0656,0.368723 0.85695,-0.106747 2.77192,-0.341573 3.11193,0.106173 0.34396,0.445772 -0.37958,2.292453 -0.69883,3.115782 -0.0978,0.250076 0.11068,0.352929 0.3301,0.162169 1.43516,-1.225621 1.80126,-3.797247 1.5077,-4.167898 -0.1443,-0.184831 -0.84233,-0.355982 -1.69495,-0.343627 z m -22.40701,0.492274 c -0.17778,0.02402 -0.25824,0.24619 -0.0715,0.418914 3.18265,2.946429 7.38759,4.714216 12.05581,4.714216 3.33191,0 7.19891,-1.077308 9.86858,-3.090685 l 0.002,-0.002 c 0.44379,-0.337046 0.0656,-0.836574 -0.38802,-0.642847 -2.98893,1.304691 -6.24631,1.930478 -9.20064,1.930478 -4.38456,0 -8.6318,-1.22804 -12.06354,-3.276012 -0.0748,-0.04477 -0.14343,-0.06009 -0.20269,-0.05209 z"
         style="display:inline;enable-background:new;fill:#ffffff;fill-opacity:0.85098;stroke-width:0.988403" />
      <path
         id="path1990"
         d="m 336.02654,140.14859 c -1.9211,0 -4.06935,0.7511 -4.52224,3.23337 -0.0446,0.26435 0.13734,0.40465 0.30231,0.44414 l 1.96069,0.21896 c 0.18408,-0.0102 0.31639,-0.19646 0.35207,-0.38691 0.16752,-0.85673 0.85464,-1.27021 1.62602,-1.27021 0.41594,0 0.88682,0.16006 1.1346,0.54988 0.28091,0.43442 0.2426,1.0289 0.2426,1.53147 v 0.2737 c -1.17266,0.1395 -2.70633,0.22889 -3.80192,0.73401 -1.26439,0.57136 -2.15351,1.74131 -2.15351,3.45731 0,2.19755 1.3255,3.29557 3.02686,3.29557 1.43955,0 2.22329,-0.35416 3.33289,-1.53893 0.37008,0.55735 0.49064,0.82796 1.16073,1.41079 0.14949,0.082 0.34039,0.0735 0.47275,-0.0485 l 0.009,0.006 c 0.4032,-0.37517 1.13673,-1.03962 1.55013,-1.40333 0.16306,-0.14204 0.13358,-0.37314 0.004,-0.56232 -0.37071,-0.53569 -0.76263,-0.96892 -0.76263,-1.96068 v -3.29433 c 0,-1.39497 0.0946,-2.67715 -0.88951,-3.6377 -0.77456,-0.77902 -2.06015,-1.05249 -3.04427,-1.05249 z m 1.09853,6.28884 v 0.45907 l -10e-4,-0.001 c 0,0.82551 0.0218,1.51309 -0.37696,2.24433 -0.32103,0.59493 -0.83077,0.96043 -1.39958,0.96043 -0.77584,0 -1.22668,-0.61805 -1.22667,-1.53146 0,-1.80263 1.54324,-2.13112 3.00446,-2.13112 z m 5.57599,5.78872 c -0.54948,0.008 -1.19869,0.13477 -1.68947,0.48892 -0.15352,0.10829 -0.12777,0.25928 0.0423,0.23763 0.55226,-0.0688 1.78635,-0.22013 2.00547,0.0684 0.22166,0.28727 -0.24462,1.47735 -0.45036,2.00794 -0.063,0.16116 0.0713,0.22745 0.21273,0.10451 0.92488,-0.78984 1.16081,-2.44711 0.97163,-2.68598 -0.093,-0.11911 -0.54283,-0.22941 -1.0923,-0.22144 z m -14.44008,0.31724 c -0.11457,0.0155 -0.16642,0.15866 -0.0461,0.26997 2.05105,1.89881 4.7609,3.03805 7.7693,3.03805 2.14724,0 4.6393,-0.69427 6.35976,-1.99178 l 0.001,-0.001 c 0.28599,-0.2172 0.0423,-0.53912 -0.25006,-0.41427 -1.9262,0.8408 -4.0254,1.24408 -5.9293,1.24408 -2.82561,0 -5.56272,-0.7914 -7.77428,-2.11121 -0.0482,-0.0289 -0.0924,-0.0387 -0.13063,-0.0336 z"
         style="display:inline;enable-background:new;fill:#ffffff;fill-opacity:0.85098;stroke-width:0.636971" />
      <path
         id="path1996"
         d="m 332.02105,193.77302 c -1.52363,0 -3.22742,0.5957 -3.58661,2.5644 -0.0354,0.20965 0.10893,0.32093 0.23977,0.35225 l 1.55503,0.17365 c 0.14599,-0.008 0.25093,-0.15581 0.27923,-0.30686 0.13286,-0.67947 0.67781,-1.0074 1.2896,-1.0074 0.32988,0 0.70334,0.12694 0.89985,0.43611 0.22279,0.34454 0.19241,0.81602 0.19241,1.21461 v 0.21707 c -0.93004,0.11064 -2.1464,0.18154 -3.01532,0.58215 -1.00279,0.45315 -1.70795,1.38104 -1.70795,2.742 0,1.74289 1.05126,2.61373 2.40061,2.61373 1.14171,0 1.7633,-0.28088 2.64333,-1.22053 0.29351,0.44204 0.38913,0.65666 0.92058,1.1189 0.11856,0.065 0.26996,0.0583 0.37494,-0.0385 l 0.007,0.005 c 0.31978,-0.29755 0.90155,-0.82453 1.22942,-1.11299 0.12932,-0.11265 0.10594,-0.29594 0.003,-0.44598 -0.29401,-0.42485 -0.60484,-0.76845 -0.60484,-1.55502 v -2.61274 c 0,-1.10636 0.075,-2.12326 -0.70548,-2.88508 -0.6143,-0.61784 -1.63391,-0.83473 -2.41442,-0.83473 z m 0.87125,4.9877 v 0.36409 l -8e-4,-7.9e-4 c 0,0.65471 0.0173,1.20003 -0.29896,1.77998 -0.25461,0.47184 -0.65889,0.76172 -1.11002,0.76172 -0.61532,0 -0.97288,-0.49017 -0.97287,-1.2146 0,-1.42967 1.22395,-1.6902 2.38285,-1.6902 z m 4.42233,4.59105 c -0.43579,0.006 -0.95068,0.10689 -1.33992,0.38777 -0.12176,0.0859 -0.10134,0.20563 0.0335,0.18846 0.438,-0.0546 1.41676,-0.17458 1.59054,0.0542 0.1758,0.22784 -0.19401,1.17169 -0.35718,1.59251 -0.05,0.12781 0.0566,0.18039 0.16872,0.0829 0.73352,-0.62642 0.92064,-1.94081 0.7706,-2.13026 -0.0738,-0.0945 -0.43052,-0.18194 -0.86631,-0.17562 z m -11.45247,0.25161 c -0.0909,0.0123 -0.13199,0.12583 -0.0366,0.21411 1.6267,1.50596 3.77589,2.40949 6.16186,2.40949 1.70299,0 3.67945,-0.55063 5.04395,-1.57969 l 7.9e-4,-7.9e-4 c 0.22682,-0.17226 0.0335,-0.42758 -0.19832,-0.32856 -1.52768,0.66684 -3.19256,0.98668 -4.70255,0.98668 -2.241,0 -4.41181,-0.62766 -6.16581,-1.6744 -0.0382,-0.0229 -0.0733,-0.0307 -0.1036,-0.0267 z"
         style="display:inline;enable-background:new;fill:#ffffff;fill-opacity:0.85098;stroke-width:0.505184" />
      <path
         id="path2002"
         d="m 328.01374,239.93905 c -0.99367,0 -2.10484,0.3885 -2.3391,1.67243 -0.0231,0.13673 0.0711,0.2093 0.15638,0.22973 l 1.01415,0.11325 c 0.0952,-0.005 0.16365,-0.10162 0.1821,-0.20013 0.0866,-0.44313 0.44205,-0.65701 0.84105,-0.65701 0.21514,0 0.4587,0.0828 0.58686,0.28443 0.14529,0.2247 0.12548,0.53219 0.12548,0.79214 v 0.14157 c -0.60655,0.0722 -1.39983,0.11839 -1.96651,0.37966 -0.654,0.29553 -1.11388,0.90067 -1.11388,1.78826 0,1.13667 0.6856,1.70461 1.56561,1.70461 0.7446,0 1.14998,-0.18319 1.72391,-0.796 0.19142,0.28829 0.25378,0.42826 0.60038,0.72972 0.0773,0.0424 0.17606,0.038 0.24453,-0.0251 l 0.005,0.003 c 0.20855,-0.19406 0.58797,-0.53774 0.8018,-0.72586 0.0843,-0.0735 0.0691,-0.19301 0.002,-0.29086 -0.19174,-0.27708 -0.39446,-0.50116 -0.39446,-1.01414 v -1.70396 c 0,-0.72154 0.0489,-1.38474 -0.46009,-1.88158 -0.40063,-0.40294 -1.0656,-0.54439 -1.57462,-0.54439 z m 0.5682,3.25284 v 0.23745 l -5.2e-4,-5.1e-4 c 0,0.42698 0.0113,0.78263 -0.19497,1.16086 -0.16605,0.30772 -0.42971,0.49677 -0.72393,0.49677 -0.40129,0 -0.63448,-0.31968 -0.63448,-0.79213 0,-0.93239 0.79823,-1.10231 1.55404,-1.10231 z m 2.88413,2.99417 c -0.28421,0.004 -0.62001,0.0697 -0.87386,0.25289 -0.0794,0.056 -0.0661,0.13411 0.0219,0.12291 0.28565,-0.0356 0.92397,-0.11386 1.03731,0.0354 0.11465,0.14859 -0.12653,0.76414 -0.23294,1.03859 -0.0326,0.0833 0.0369,0.11765 0.11003,0.0541 0.47838,-0.40854 0.60042,-1.26575 0.50257,-1.3893 -0.0481,-0.0616 -0.28078,-0.11866 -0.56499,-0.11454 z m -7.469,0.16409 c -0.0593,0.008 -0.0861,0.0821 -0.0239,0.13963 1.06089,0.98215 2.46254,1.57141 4.01861,1.57141 1.11064,0 2.39964,-0.35911 3.28953,-1.03023 l 5.1e-4,-5.1e-4 c 0.14793,-0.11235 0.0219,-0.27886 -0.12934,-0.21428 -0.99631,0.43489 -2.0821,0.64348 -3.06688,0.64348 -1.46152,0 -2.87726,-0.40934 -4.02118,-1.092 -0.0249,-0.0149 -0.0478,-0.02 -0.0676,-0.0174 z"
         style="display:inline;enable-background:new;fill:#ffffff;fill-opacity:0.85098;stroke-width:0.329468" />
    </g>
    <g
       inkscape:groupmode="layer"
       id="layer4"
       inkscape:label="Borders"
       style="display:inline;opacity:1" />
    <g
       inkscape:groupmode="layer"
       id="layer5"
       inkscape:label="Highlights"
       style="display:inline;opacity:0.7" />
  </g>
</svg>
