<?xml version="1.0" encoding="UTF-8" standalone="no"?>
<svg
   inkscape:export-ydpi="96"
   inkscape:export-xdpi="96"
   width="400"
   height="300"
   id="svg11300"
   sodipodi:version="0.32"
   inkscape:version="1.2.2 (b0a8486541, 2022-12-01)"
   sodipodi:docname="calculator-app.svg"
   inkscape:output_extension="org.inkscape.output.svg.inkscape"
   version="1.0"
   style="display:inline;enable-background:new"
   inkscape:export-filename="C:\Users\sblav\Pictures\vertical oblong template.png"
   xmlns:inkscape="http://www.inkscape.org/namespaces/inkscape"
   xmlns:sodipodi="http://sodipodi.sourceforge.net/DTD/sodipodi-0.dtd"
   xmlns:xlink="http://www.w3.org/1999/xlink"
   xmlns="http://www.w3.org/2000/svg"
   xmlns:svg="http://www.w3.org/2000/svg"
   xmlns:rdf="http://www.w3.org/1999/02/22-rdf-syntax-ns#"
   xmlns:cc="http://creativecommons.org/ns#"
   xmlns:dc="http://purl.org/dc/elements/1.1/">
  <title
     id="title3004">Yaru Icon Theme Template</title>
  <sodipodi:namedview
     stroke="#ef2929"
     fill="#f57900"
     id="base"
     pagecolor="#ffffff"
     bordercolor="#000000"
     borderopacity="0.25490196"
     inkscape:pageopacity="0"
     inkscape:pageshadow="2"
     inkscape:zoom="1.4142136"
     inkscape:cx="439.82041"
     inkscape:cy="121.62236"
     inkscape:current-layer="layer6"
     showgrid="false"
     inkscape:grid-bbox="true"
     inkscape:document-units="px"
     inkscape:showpageshadow="false"
     inkscape:window-width="1920"
     inkscape:window-height="1020"
     inkscape:window-x="0"
     inkscape:window-y="32"
     width="400px"
     height="300px"
     inkscape:snap-nodes="true"
     inkscape:snap-bbox="true"
     gridtolerance="10000"
     inkscape:object-nodes="true"
     inkscape:snap-grids="true"
     showguides="false"
     inkscape:guide-bbox="true"
     inkscape:window-maximized="1"
     inkscape:bbox-paths="true"
     inkscape:snap-bbox-midpoints="true"
     inkscape:snap-global="true"
     inkscape:object-paths="true"
     inkscape:snap-intersection-paths="true"
     inkscape:snap-smooth-nodes="true"
     inkscape:pagecheckerboard="false"
     showborder="false"
     inkscape:document-rotation="0"
     inkscape:deskcolor="#d1d1d1" />
  <defs
     id="defs3">
    <clipPath
       clipPathUnits="userSpaceOnUse"
       id="clipPath983-2">
      <path
         id="path985-5"
         d="M 115.03125,44 C 42.3826,44 32,54.356615 32,126.9375 v 58.125 C 32,257.64309 42.3826,268 115.03125,268 H 152 V 44 Z"
         style="opacity:1;fill:#4d4d4d;fill-opacity:1;stroke:none;stroke-width:2;stroke-linecap:round;stroke-linejoin:round;stroke-miterlimit:4;stroke-dasharray:none;stroke-dashoffset:0;stroke-opacity:1"
         inkscape:connector-curvature="0" />
    </clipPath>
    <linearGradient
       inkscape:collect="always"
       xlink:href="#linearGradient851"
       id="linearGradient4661"
       gradientUnits="userSpaceOnUse"
       x1="520"
       y1="4"
       x2="520"
       y2="1024" />
    <linearGradient
       inkscape:collect="always"
       id="linearGradient851">
      <stop
         style="stop-color:#fec589;stop-opacity:1"
         offset="0"
         id="stop847" />
      <stop
         style="stop-color:#f34f17;stop-opacity:1"
         offset="1"
         id="stop849" />
    </linearGradient>
    <filter
       style="color-interpolation-filters:sRGB"
       inkscape:label="Drop Shadow"
       id="filter880"
       x="-0.35000015"
       y="-0.35000015"
       width="1.7000003"
       height="1.8458337">
      <feFlood
         flood-opacity="0.294118"
         flood-color="rgb(0,0,0)"
         result="flood"
         id="feFlood870" />
      <feComposite
         in="flood"
         in2="SourceGraphic"
         operator="in"
         result="composite1"
         id="feComposite872" />
      <feGaussianBlur
         in="composite1"
         stdDeviation="3"
         result="blur"
         id="feGaussianBlur874" />
      <feOffset
         dx="0"
         dy="3"
         result="offset"
         id="feOffset876" />
      <feComposite
         in="SourceGraphic"
         in2="offset"
         operator="over"
         result="composite2"
         id="feComposite878" />
    </filter>
    <linearGradient
       inkscape:collect="always"
       xlink:href="#linearGradient1403"
       id="linearGradient868"
       gradientUnits="userSpaceOnUse"
       gradientTransform="matrix(2,0,0,2,118.68883,130.08886)"
       x1="102.29776"
       y1="-0.42686829"
       x2="102.29776"
       y2="199.16539" />
    <linearGradient
       id="linearGradient1403">
      <stop
         style="stop-color:#ffffff;stop-opacity:1"
         offset="0"
         id="stop1399" />
      <stop
         style="stop-color:#cccccc;stop-opacity:1"
         offset="1"
         id="stop1401" />
    </linearGradient>
    <filter
       style="color-interpolation-filters:sRGB"
       inkscape:label="Drop Shadow"
       id="filter1451"
       x="-0.018"
       y="-0.018"
       width="1.036"
       height="1.0435">
      <feFlood
         flood-opacity="0.294118"
         flood-color="rgb(0,0,0)"
         result="flood"
         id="feFlood1441" />
      <feComposite
         in="flood"
         in2="SourceGraphic"
         operator="in"
         result="composite1"
         id="feComposite1443" />
      <feGaussianBlur
         in="composite1"
         stdDeviation="3"
         result="blur"
         id="feGaussianBlur1445" />
      <feOffset
         dx="0"
         dy="3"
         result="offset"
         id="feOffset1447" />
      <feComposite
         in="SourceGraphic"
         in2="offset"
         operator="over"
         result="composite2"
         id="feComposite1449" />
    </filter>
    <linearGradient
       inkscape:collect="always"
       xlink:href="#linearGradient1197"
       id="linearGradient1199"
       x1="540.14288"
       y1="29.770346"
       x2="540.14288"
       y2="1054.9744"
       gradientUnits="userSpaceOnUse"
       gradientTransform="matrix(0.22741108,0,0,0.22741108,36.41451,33.767583)" />
    <linearGradient
       inkscape:collect="always"
       id="linearGradient1197">
      <stop
         style="stop-color:#ffffff;stop-opacity:0.58823532"
         offset="0"
         id="stop1193" />
      <stop
         style="stop-color:#ffffff;stop-opacity:0"
         offset="1"
         id="stop1195" />
    </linearGradient>
    <linearGradient
       inkscape:collect="always"
       xlink:href="#linearGradient926"
       id="linearGradient843"
       x1="520"
       y1="4"
       x2="520.03137"
       y2="1026.0078"
       gradientUnits="userSpaceOnUse"
       gradientTransform="matrix(0.21874992,0,0,0.21874992,40.84902,44.651983)" />
    <linearGradient
       id="linearGradient926">
      <stop
         id="stop922"
         offset="0"
         style="stop-color:#fb8c21;stop-opacity:1" />
      <stop
         id="stop924"
         offset="1"
         style="stop-color:#f15f19;stop-opacity:1" />
    </linearGradient>
    <linearGradient
       inkscape:collect="always"
       xlink:href="#linearGradient851"
       id="linearGradient1371"
       gradientUnits="userSpaceOnUse"
       x1="520"
       y1="4"
       x2="520"
       y2="1024" />
    <linearGradient
       inkscape:collect="always"
       xlink:href="#linearGradient1403"
       id="linearGradient1373"
       gradientUnits="userSpaceOnUse"
       gradientTransform="matrix(2,0,0,2,118.68883,130.08886)"
       x1="102.29776"
       y1="-0.42686829"
       x2="102.29776"
       y2="199.16539" />
    <linearGradient
       inkscape:collect="always"
       xlink:href="#linearGradient1197"
       id="linearGradient1375"
       gradientUnits="userSpaceOnUse"
       gradientTransform="matrix(0.04568526,0,0,0.04568526,320.7797,59.44438)"
       x1="540.14288"
       y1="29.770346"
       x2="540.14288"
       y2="1054.9744" />
    <linearGradient
       inkscape:collect="always"
       xlink:href="#linearGradient926"
       id="linearGradient1377"
       gradientUnits="userSpaceOnUse"
       gradientTransform="matrix(0.0439453,0,0,0.0439453,321.67056,61.630979)"
       x1="520"
       y1="4"
       x2="520.03137"
       y2="1026.0078" />
    <linearGradient
       inkscape:collect="always"
       xlink:href="#linearGradient851"
       id="linearGradient1407"
       gradientUnits="userSpaceOnUse"
       x1="520"
       y1="4"
       x2="520"
       y2="1024" />
    <linearGradient
       inkscape:collect="always"
       xlink:href="#linearGradient1403"
       id="linearGradient1409"
       gradientUnits="userSpaceOnUse"
       gradientTransform="matrix(2,0,0,2,118.68883,130.08886)"
       x1="102.29776"
       y1="-0.42686829"
       x2="102.29776"
       y2="199.16539" />
    <linearGradient
       inkscape:collect="always"
       xlink:href="#linearGradient1197"
       id="linearGradient1411"
       gradientUnits="userSpaceOnUse"
       gradientTransform="matrix(0.02944161,0,0,0.02944161,320.92589,132.09087)"
       x1="540.14288"
       y1="29.770346"
       x2="540.14288"
       y2="1054.9744" />
    <linearGradient
       inkscape:collect="always"
       xlink:href="#linearGradient926"
       id="linearGradient1413"
       gradientUnits="userSpaceOnUse"
       gradientTransform="matrix(0.0283203,0,0,0.0283203,321.5,133.50001)"
       x1="520"
       y1="4"
       x2="520.03137"
       y2="1026.0078" />
    <linearGradient
       inkscape:collect="always"
       xlink:href="#linearGradient851"
       id="linearGradient1443"
       gradientUnits="userSpaceOnUse"
       x1="520"
       y1="4"
       x2="520"
       y2="1024" />
    <linearGradient
       inkscape:collect="always"
       xlink:href="#linearGradient1403"
       id="linearGradient1445"
       gradientUnits="userSpaceOnUse"
       gradientTransform="matrix(2,0,0,2,118.68883,130.08886)"
       x1="102.29776"
       y1="-0.42686829"
       x2="102.29776"
       y2="199.16539" />
    <linearGradient
       inkscape:collect="always"
       xlink:href="#linearGradient1197"
       id="linearGradient1447"
       gradientUnits="userSpaceOnUse"
       gradientTransform="matrix(0.02335024,0,0,0.02335024,320.04468,187.38241)"
       x1="540.14288"
       y1="29.770346"
       x2="540.14288"
       y2="1054.9744" />
    <linearGradient
       inkscape:collect="always"
       xlink:href="#linearGradient926"
       id="linearGradient1449"
       gradientUnits="userSpaceOnUse"
       gradientTransform="matrix(0.02246093,0,0,0.02246093,320.50001,188.50001)"
       x1="520"
       y1="4"
       x2="520.03137"
       y2="1026.0078" />
    <linearGradient
       inkscape:collect="always"
       xlink:href="#linearGradient851"
       id="linearGradient1479"
       gradientUnits="userSpaceOnUse"
       x1="520"
       y1="4"
       x2="520"
       y2="1024" />
    <linearGradient
       inkscape:collect="always"
       xlink:href="#linearGradient1403"
       id="linearGradient1481"
       gradientUnits="userSpaceOnUse"
       gradientTransform="matrix(2,0,0,2,118.68883,130.08886)"
       x1="102.29776"
       y1="-0.42686829"
       x2="102.29776"
       y2="199.16539" />
    <linearGradient
       inkscape:collect="always"
       xlink:href="#linearGradient1197"
       id="linearGradient1483"
       gradientUnits="userSpaceOnUse"
       gradientTransform="matrix(0.01522842,0,0,0.01522842,320.20305,235.77114)"
       x1="540.14288"
       y1="29.770346"
       x2="540.14288"
       y2="1054.9744" />
    <linearGradient
       inkscape:collect="always"
       xlink:href="#linearGradient926"
       id="linearGradient1485"
       gradientUnits="userSpaceOnUse"
       gradientTransform="matrix(0.01464843,0,0,0.01464843,320.5,236.50001)"
       x1="520"
       y1="4"
       x2="520.03137"
       y2="1026.0078" />
  </defs>
  <metadata
     id="metadata4">
    <rdf:RDF>
      <cc:Work
         rdf:about="">
        <dc:format>image/svg+xml</dc:format>
        <dc:type
           rdf:resource="http://purl.org/dc/dcmitype/StillImage" />
        <dc:creator>
          <cc:Agent>
            <dc:title>Yaru Team, based on the Suru template by Sam Hewitt and original Suru designs by Matthieu James</dc:title>
          </cc:Agent>
        </dc:creator>
        <dc:source />
        <cc:license
           rdf:resource="http://creativecommons.org/licenses/by-sa/4.0/" />
        <dc:title>Yaru Icon Theme Template</dc:title>
        <dc:subject>
          <rdf:Bag />
        </dc:subject>
        <dc:date />
        <dc:rights>
          <cc:Agent>
            <dc:title />
          </cc:Agent>
        </dc:rights>
        <dc:publisher>
          <cc:Agent>
            <dc:title />
          </cc:Agent>
        </dc:publisher>
        <dc:identifier />
        <dc:relation />
        <dc:language />
        <dc:coverage />
        <dc:description />
        <dc:contributor>
          <cc:Agent>
            <dc:title />
          </cc:Agent>
        </dc:contributor>
      </cc:Work>
      <cc:Work
         rdf:about="">
        <dc:format>image/svg+xml</dc:format>
        <dc:type
           rdf:resource="http://purl.org/dc/dcmitype/StillImage" />
      </cc:Work>
      <cc:License
         rdf:about="http://creativecommons.org/licenses/by-sa/4.0/">
        <cc:permits
           rdf:resource="http://creativecommons.org/ns#Reproduction" />
        <cc:permits
           rdf:resource="http://creativecommons.org/ns#Distribution" />
        <cc:requires
           rdf:resource="http://creativecommons.org/ns#Notice" />
        <cc:requires
           rdf:resource="http://creativecommons.org/ns#Attribution" />
        <cc:permits
           rdf:resource="http://creativecommons.org/ns#DerivativeWorks" />
        <cc:requires
           rdf:resource="http://creativecommons.org/ns#ShareAlike" />
      </cc:License>
    </rdf:RDF>
  </metadata>
  <g
     style="display:inline"
     inkscape:groupmode="layer"
     inkscape:label="Icon"
     id="layer1">
    <g
       style="display:none"
       inkscape:label="Baseplate"
       id="layer7"
       inkscape:groupmode="layer"
       sodipodi:insensitive="true">
      <text
         y="-8.2548828"
         xml:space="preserve"
         x="19.006836"
         style="font-style:normal;font-variant:normal;font-weight:normal;font-stretch:normal;line-height:0%;font-family:'DejaVu Sans';-inkscape-font-specification:'DejaVu Sans';display:inline;fill:#000000;fill-opacity:1;stroke:none;enable-background:new"
         inkscape:label="context"
         id="context"><tspan
           style="font-style:normal;font-variant:normal;font-weight:normal;font-stretch:normal;font-size:18px;line-height:1.25;font-family:'DejaVu Sans';-inkscape-font-specification:'DejaVu Sans'"
           y="-8.2548828"
           x="19.006836"
           sodipodi:role="line"
           id="tspan3933">apps</tspan></text>
      <text
         y="-8.2548828"
         xml:space="preserve"
         x="146.48828"
         style="font-style:normal;font-variant:normal;font-weight:bold;font-stretch:normal;line-height:0%;font-family:'DejaVu Sans';-inkscape-font-specification:'DejaVu Sans Bold';text-align:start;writing-mode:lr-tb;text-anchor:start;display:inline;fill:#000000;fill-opacity:1;stroke:none;enable-background:new"
         inkscape:label="icon-name"
         id="icon-name"><tspan
           style="font-style:normal;font-variant:normal;font-weight:bold;font-stretch:normal;font-size:18px;line-height:1.25;font-family:'DejaVu Sans';-inkscape-font-specification:'DejaVu Sans Bold'"
           y="-8.2548828"
           x="146.48828"
           sodipodi:role="line"
           id="tspan3937">calculator-app</tspan></text>
      <rect
         style="display:inline;overflow:visible;visibility:visible;fill:#cdcdcd;fill-opacity:1;fill-rule:nonzero;stroke:none;stroke-width:2;marker:none;enable-background:accumulate"
         id="rect16x16"
         width="16"
         height="16"
         x="320"
         y="236"
         inkscape:label="16x16" />
      <rect
         style="display:inline;overflow:visible;visibility:visible;fill:#cdcdcd;fill-opacity:1;fill-rule:nonzero;stroke:none;stroke-width:2;marker:none;enable-background:accumulate"
         id="rect24x24"
         width="24"
         height="24"
         x="320"
         y="188"
         inkscape:label="24x24" />
      <rect
         style="display:inline;overflow:visible;visibility:visible;fill:#cdcdcd;fill-opacity:1;fill-rule:nonzero;stroke:none;stroke-width:2;marker:none;enable-background:accumulate"
         id="rect32x32"
         width="32"
         height="32"
         x="320"
         y="132"
         inkscape:label="32x32" />
      <rect
         inkscape:label="48x48"
         y="60"
         x="320"
         height="48"
         width="48"
         id="rect48x48"
         style="display:inline;overflow:visible;visibility:visible;fill:#cdcdcd;fill-opacity:1;fill-rule:nonzero;stroke:none;stroke-width:2;marker:none;enable-background:accumulate" />
      <rect
         style="display:inline;overflow:visible;visibility:visible;fill:#cdcdcd;fill-opacity:1;fill-rule:nonzero;stroke:none;stroke-width:2;marker:none;enable-background:accumulate"
         id="rect256x256"
         width="256"
         height="256"
         x="24"
         y="28"
         inkscape:label="256x256" />
      <g
         id="g4655"
         style="fill:url(#linearGradient4661);fill-opacity:1"
         transform="matrix(0.22811075,0,0,0.22811075,35.98761,40.121793)" />
      <g
         id="g1369"
         style="fill:url(#linearGradient1371);fill-opacity:1"
         transform="matrix(0.04582582,0,0,0.04582582,320.69394,60.720896)" />
      <g
         id="g1405"
         style="fill:url(#linearGradient1407);fill-opacity:1"
         transform="matrix(0.02953219,0,0,0.02953219,320.87062,132.91351)" />
      <g
         id="g1441"
         style="fill:url(#linearGradient1443);fill-opacity:1"
         transform="matrix(0.02342208,0,0,0.02342208,320.00085,188.03485)" />
    </g>
    <g
       inkscape:groupmode="layer"
       id="layer8"
       inkscape:label="Backgrounds"
       style="display:inline">
      <path
         id="path1451"
         d="m 334.95419,241.12871 q -0.13666,-0.33131 -0.30827,-0.64911 c -0.0644,-0.11997 -0.13267,-0.23914 -0.20497,-0.35593 -0.31066,-0.50371 -0.68962,-0.97961 -1.13693,-1.42691 C 331.83977,237.23252 330.07124,236.5 328,236.5 c -2.07123,0 -3.83898,0.73252 -5.30323,2.19676 -1.46425,1.46426 -2.19677,3.232 -2.19677,5.30324 0,2.07123 0.73252,3.83977 2.19677,5.30403 1.46425,1.46424 3.23199,2.19597 5.30323,2.19597 2.07124,0 3.83977,-0.73173 5.30402,-2.19597 0.80641,-0.80721 1.39116,-1.70657 1.75345,-2.69731 C 335.35222,245.79873 335.5,244.93036 335.5,244 c 0,-0.71345 -0.0866,-1.39116 -0.26059,-2.0331 -0.0199,-0.0723 -0.0405,-0.1446 -0.062,-0.21611 -0.0652,-0.21133 -0.13983,-0.4187 -0.22324,-0.62208 z"
         style="display:inline;fill:url(#linearGradient1485);fill-opacity:1;stroke-width:0.0158899;enable-background:new"
         inkscape:connector-curvature="0" />
      <circle
         r="7.461926"
         cy="244.00002"
         cx="328"
         id="circle1453"
         style="color:#000000;display:inline;overflow:visible;visibility:visible;fill:none;fill-opacity:1;fill-rule:nonzero;stroke:url(#linearGradient1483);stroke-width:0.0761478;stroke-miterlimit:4;stroke-dasharray:none;marker:none;enable-background:accumulate" />
      <circle
         style="color:#000000;display:inline;overflow:visible;visibility:visible;fill:url(#linearGradient1481);fill-opacity:1;fill-rule:nonzero;stroke:none;stroke-width:18.2687;marker:none;filter:url(#filter1451);enable-background:accumulate"
         id="circle1455"
         cx="318.6889"
         cy="330.08887"
         r="200"
         transform="matrix(0.01530612,0,0,0.01530612,325.75001,241.58163)" />
      <path
         id="path1415"
         d="m 342.66309,195.59736 q -0.20954,-0.508 -0.47268,-0.99529 c -0.0987,-0.18396 -0.20343,-0.36669 -0.31429,-0.54576 -0.47634,-0.77236 -1.05742,-1.50207 -1.74329,-2.18793 -2.24518,-2.24518 -4.95693,-3.36837 -8.13283,-3.36837 -3.17589,0 -5.88644,1.12319 -8.13162,3.36837 C 321.6232,194.11356 320.5,196.8241 320.5,200 c 0,3.1759 1.1232,5.88766 3.36838,8.13284 2.24518,2.24517 4.95572,3.36715 8.13162,3.36715 3.1759,0 5.88765,-1.12198 8.13283,-3.36715 1.2365,-1.23772 2.13311,-2.61674 2.68863,-4.13586 C 343.27341,202.75805 343.5,201.42654 343.5,200 c 0,-1.09396 -0.13279,-2.1331 -0.39957,-3.11742 -0.0305,-0.11086 -0.0621,-0.22172 -0.095,-0.33136 -0.0999,-0.32404 -0.21442,-0.642 -0.34231,-0.95386 z"
         style="display:inline;fill:url(#linearGradient1449);fill-opacity:1;stroke-width:0.0243645;enable-background:new"
         inkscape:connector-curvature="0" />
      <circle
         r="11.44162"
         cy="200.00002"
         cx="332"
         id="circle1417"
         style="color:#000000;display:inline;overflow:visible;visibility:visible;fill:none;fill-opacity:1;fill-rule:nonzero;stroke:url(#linearGradient1447);stroke-width:0.11676;stroke-miterlimit:4;stroke-dasharray:none;marker:none;enable-background:accumulate" />
      <circle
         style="color:#000000;display:inline;overflow:visible;visibility:visible;fill:url(#linearGradient1445);fill-opacity:1;fill-rule:nonzero;stroke:none;stroke-width:18.2687;marker:none;filter:url(#filter1451);enable-background:accumulate"
         id="circle1419"
         cx="318.6889"
         cy="330.08887"
         r="200"
         transform="matrix(0.02346938,0,0,0.02346938,328.55001,196.29184)" />
      <path
         id="path1379"
         d="m 349.44475,142.44884 q -0.2642,-0.64052 -0.59598,-1.25493 c -0.12442,-0.23194 -0.25651,-0.46234 -0.39629,-0.68813 -0.60058,-0.97384 -1.33326,-1.89391 -2.19804,-2.75869 -2.83088,-2.83088 -6.25005,-4.24708 -10.25445,-4.24708 -4.00439,0 -7.42202,1.4162 -10.2529,4.24708 C 322.91621,140.57797 321.5,143.99561 321.5,148 c 0,4.0044 1.41621,7.42357 4.24709,10.25445 2.83088,2.83087 6.24851,4.24554 10.2529,4.24554 4.0044,0 7.42357,-1.41467 10.25445,-4.24554 1.55906,-1.5606 2.68957,-3.29937 3.38999,-5.21478 0.56986,-1.56213 0.85556,-3.24099 0.85556,-5.03967 0,-1.37934 -0.16742,-2.68956 -0.50381,-3.93066 -0.0384,-0.13978 -0.0783,-0.27956 -0.11981,-0.4178 -0.12596,-0.40858 -0.27035,-0.80948 -0.43162,-1.2027 z"
         style="display:inline;fill:url(#linearGradient1413);fill-opacity:1;stroke-width:0.0307205;enable-background:new"
         inkscape:connector-curvature="0" />
      <circle
         r="14.42639"
         cy="148"
         cx="336"
         id="circle1381"
         style="color:#000000;display:inline;overflow:visible;visibility:visible;fill:none;fill-opacity:1;fill-rule:nonzero;stroke:url(#linearGradient1411);stroke-width:0.147219;stroke-miterlimit:4;stroke-dasharray:none;marker:none;enable-background:accumulate" />
      <circle
         style="color:#000000;display:inline;overflow:visible;visibility:visible;fill:url(#linearGradient1409);fill-opacity:1;fill-rule:nonzero;stroke:none;stroke-width:18.2687;marker:none;filter:url(#filter1451);enable-background:accumulate"
         id="circle1383"
         cx="318.6889"
         cy="330.08887"
         r="200"
         transform="matrix(0.02959182,0,0,0.02959182,331.65,143.32449)" />
      <path
         id="path1343"
         d="m 365.0331,75.517096 q -0.40996,-0.993909 -0.92479,-1.947298 c -0.19306,-0.359904 -0.39804,-0.717427 -0.61493,-1.067796 -0.93194,-1.511122 -2.06886,-2.938823 -3.41076,-4.280719 -4.39274,-4.392742 -9.69835,-6.590305 -15.91207,-6.590305 -6.21371,0 -11.51694,2.197563 -15.90968,6.590305 -4.39274,4.392741 -6.59031,9.695971 -6.59031,15.909685 0,6.213717 2.19757,11.51933 6.59031,15.912072 4.39274,4.39274 9.69597,6.58792 15.90968,6.58792 6.21372,0 11.51933,-2.19518 15.91207,-6.58792 2.41923,-2.42161 4.17347,-5.119701 5.26033,-8.091893 0.88427,-2.423993 1.3276,-5.02913 1.3276,-7.820179 0,-2.140358 -0.2598,-4.17346 -0.78178,-6.099308 -0.0596,-0.216896 -0.12156,-0.433792 -0.18591,-0.648305 -0.19545,-0.634004 -0.4195,-1.256091 -0.66976,-1.866259 z"
         style="display:inline;fill:url(#linearGradient1377);fill-opacity:1;stroke-width:0.0476697;enable-background:new"
         inkscape:connector-curvature="0" />
      <circle
         r="22.385778"
         cy="84.130966"
         cx="344.17056"
         id="circle1345"
         style="color:#000000;display:inline;overflow:visible;visibility:visible;fill:none;fill-opacity:1;fill-rule:nonzero;stroke:url(#linearGradient1375);stroke-width:0.228443;stroke-miterlimit:4;stroke-dasharray:none;marker:none;enable-background:accumulate" />
      <circle
         style="color:#000000;display:inline;overflow:visible;visibility:visible;fill:url(#linearGradient1373);fill-opacity:1;fill-rule:nonzero;stroke:none;stroke-width:18.2687;marker:none;filter:url(#filter1451);enable-background:accumulate"
         id="circle1347"
         cx="318.6889"
         cy="330.08887"
         r="200"
         transform="matrix(0.04591835,0,0,0.04591835,337.42056,76.875869)" />
      <path
         id="path"
         d="m 256.69809,113.77399 q -2.04068,-4.94746 -4.6034,-9.69322 c -0.96101,-1.79152 -1.98134,-3.57119 -3.06101,-5.315247 -4.63898,-7.52203 -10.2983,-14.62881 -16.97796,-21.30847 -21.86609,-21.86609 -48.27625,-32.80507 -79.20675,-32.80507 -30.93049,0 -57.32879,10.93898 -79.19488,32.80507 -21.86609,21.86609 -32.80507,48.264387 -32.80507,79.194877 0,30.9305 10.93898,57.34066 32.80507,79.20675 21.86609,21.8661 48.26439,32.79321 79.19488,32.79321 30.9305,0 57.34066,-10.92711 79.20675,-32.79321 12.04237,-12.05423 20.77457,-25.48473 26.18473,-40.27964 4.40171,-12.0661 6.60848,-25.03389 6.60848,-38.92711 0,-10.65423 -1.29323,-20.77456 -3.89152,-30.361 -0.29662,-1.07966 -0.60508,-2.15932 -0.92542,-3.22712 -0.97289,-3.15593 -2.08814,-6.25254 -3.3339,-9.28982 z"
         style="display:inline;fill:url(#linearGradient843);fill-opacity:1;stroke-width:0.237289;enable-background:new"
         inkscape:connector-curvature="0" />
      <circle
         r="111.43143"
         cy="156.65193"
         cx="152.84897"
         id="circle1191"
         style="color:#000000;display:inline;overflow:visible;visibility:visible;fill:none;fill-opacity:1;fill-rule:nonzero;stroke:url(#linearGradient1199);stroke-width:1.13714;stroke-miterlimit:4;stroke-dasharray:none;marker:none;enable-background:accumulate" />
      <circle
         style="color:#000000;display:inline;overflow:visible;visibility:visible;fill:url(#linearGradient868);fill-opacity:1;fill-rule:nonzero;stroke:none;stroke-width:18.2687;marker:none;filter:url(#filter1451);enable-background:accumulate"
         id="circle866"
         cx="318.6889"
         cy="330.08887"
         r="200"
         transform="matrix(0.22857134,0,0,0.22857134,119.24899,120.53766)" />
    </g>
    <g
       inkscape:groupmode="layer"
       id="layer6"
       inkscape:label="Pictograms and folds"
       style="display:inline">
      <path
         id="path1457"
         d="M 740,724 H 616.57142 c -5.67771,0 -10.28571,-4.59772 -10.28571,-10.28572 0,-5.688 4.608,-10.28571 10.28571,-10.28571 H 740 c 5.67771,0 10.28571,4.59771 10.28571,10.28571 0,5.688 -4.608,10.28572 -10.28571,10.28572 z"
         style="fill:#000000;fill-opacity:1;stroke-width:10.2857;filter:url(#filter880)"
         inkscape:connector-curvature="0"
         transform="matrix(0.01530612,0,0,0.01530612,320.16327,236.16327)" />
      <path
         id="path1459"
         d="M 740,662.28571 H 616.57142 c -5.67771,0 -10.28571,-4.59771 -10.28571,-10.28571 0,-5.688 4.608,-10.28572 10.28571,-10.28572 H 740 c 5.67771,0 10.28571,4.59772 10.28571,10.28572 0,5.688 -4.608,10.28571 -10.28571,10.28571 z"
         style="fill:#000000;fill-opacity:1;stroke-width:10.2857;filter:url(#filter880)"
         inkscape:connector-curvature="0"
         transform="matrix(0.01530612,0,0,0.01530612,320.16327,236.16327)" />
      <path
         id="path1461"
         d="m 340,704 c -2.53856,0 -5.07712,-0.97179 -7.01079,-2.90546 -3.87725,-3.87725 -3.87725,-10.14433 0,-14.02158 l 49.58126,-49.58127 c 3.87726,-3.87726 10.14433,-3.87726 14.02159,0 3.87725,3.87725 3.87725,10.14433 0,14.02158 l -49.58127,49.58127 C 345.07712,703.02821 342.53856,704 340,704 Z"
         style="fill:#ffffff;stroke-width:9.91625;filter:url(#filter880)"
         inkscape:connector-curvature="0"
         transform="matrix(0.01530612,0,0,0.01530612,320.16327,236.16327)" />
      <path
         id="path1463"
         d="m 290.41873,753.58127 c -2.53855,0 -5.07712,-0.97179 -7.01079,-2.90547 -3.87725,-3.87725 -3.87725,-10.14432 0,-14.02158 l 49.58127,-49.58126 c 3.87725,-3.87726 10.14433,-3.87726 14.02158,0 3.87725,3.87725 3.87725,10.14433 0,14.02158 l -49.58126,49.58126 c -1.93368,1.93368 -4.47224,2.90547 -7.0108,2.90547 z"
         style="fill:#ffffff;stroke-width:9.91625;filter:url(#filter880)"
         inkscape:connector-curvature="0"
         transform="matrix(0.01530612,0,0,0.01530612,320.16327,236.16327)" />
      <path
         id="path1465"
         d="m 389.58127,753.58127 c -2.53856,0 -5.07712,-0.97179 -7.0108,-2.90547 l -49.58126,-49.58126 c -3.87725,-3.87725 -3.87725,-10.14433 0,-14.02158 3.87725,-3.87726 10.14433,-3.87726 14.02158,0 l 49.58127,49.58126 c 3.87725,3.87726 3.87725,10.14433 0,14.02158 -1.93367,1.93368 -4.47224,2.90547 -7.01079,2.90547 z"
         style="fill:#ffffff;stroke-width:9.91625;filter:url(#filter880)"
         inkscape:connector-curvature="0"
         transform="matrix(0.01530612,0,0,0.01530612,320.16327,236.16327)" />
      <path
         id="path1467"
         d="m 340,704 c -2.53856,0 -5.07712,-0.97179 -7.01079,-2.90546 l -49.58127,-49.58127 c -3.87725,-3.87725 -3.87725,-10.14433 0,-14.02158 3.87726,-3.87726 10.14433,-3.87726 14.02159,0 l 49.58126,49.58127 c 3.87725,3.87725 3.87725,10.14433 0,14.02158 C 345.07712,703.02821 342.53856,704 340,704 Z"
         style="fill:#ffffff;stroke-width:9.91625;filter:url(#filter880)"
         inkscape:connector-curvature="0"
         transform="matrix(0.01530612,0,0,0.01530612,320.16327,236.16327)" />
      <path
         id="path1469"
         d="M 400,344 H 276.57142 c -5.67771,0 -10.28571,-4.59771 -10.28571,-10.28571 0,-5.688 4.608,-10.28571 10.28571,-10.28571 H 400 c 5.67771,0 10.28571,4.59771 10.28571,10.28571 0,5.688 -4.608,10.28571 -10.28571,10.28571 z"
         style="fill:#f1f1f1;fill-opacity:1;stroke-width:10.2857;filter:url(#filter880)"
         inkscape:connector-curvature="0"
         transform="matrix(0.01530612,0,0,0.01530612,320.16327,236.16327)" />
      <path
         id="path1471"
         d="M 338.28571,405.71429 C 332.608,405.71429 328,401.11658 328,395.42858 V 272 c 0,-5.688 4.608,-10.28571 10.28571,-10.28571 5.67771,0 10.28571,4.59771 10.28571,10.28571 v 123.42858 c 0,5.688 -4.608,10.28571 -10.28571,10.28571 z"
         style="fill:#ffffff;fill-opacity:1;stroke-width:10.2857;filter:url(#filter880)"
         inkscape:connector-curvature="0"
         transform="matrix(0.01530612,0,0,0.01530612,320.16327,236.16327)" />
      <path
         id="path1473"
         d="M 740,344 H 616.57142 c -5.67771,0 -10.28571,-4.59771 -10.28571,-10.28571 0,-5.688 4.608,-10.28571 10.28571,-10.28571 H 740 c 5.67771,0 10.28571,4.59771 10.28571,10.28571 0,5.688 -4.608,10.28571 -10.28571,10.28571 z"
         style="fill:#ffffff;stroke-width:10.2857;filter:url(#filter880)"
         inkscape:connector-curvature="0"
         transform="matrix(0.01530612,0,0,0.01530612,320.16327,236.16327)" />
      <g
         id="g1477"
         style="display:inline;fill:url(#linearGradient1479);fill-opacity:1;enable-background:new"
         transform="matrix(0.01527527,0,0,0.01527527,320.17447,236.19664)" />
      <g
         id="g1439"
         style="display:inline;filter:url(#filter880);enable-background:new"
         transform="matrix(0.02346938,0,0,0.02346938,319.98368,187.98368)">
        <path
           id="path1421"
           d="M 740,724 H 616.57142 c -5.67771,0 -10.28571,-4.59772 -10.28571,-10.28572 0,-5.688 4.608,-10.28571 10.28571,-10.28571 H 740 c 5.67771,0 10.28571,4.59771 10.28571,10.28571 0,5.688 -4.608,10.28572 -10.28571,10.28572 z"
           style="fill:#000000;fill-opacity:1;stroke-width:10.2857"
           inkscape:connector-curvature="0" />
        <path
           id="path1423"
           d="M 740,662.28571 H 616.57142 c -5.67771,0 -10.28571,-4.59771 -10.28571,-10.28571 0,-5.688 4.608,-10.28572 10.28571,-10.28572 H 740 c 5.67771,0 10.28571,4.59772 10.28571,10.28572 0,5.688 -4.608,10.28571 -10.28571,10.28571 z"
           style="fill:#000000;fill-opacity:1;stroke-width:10.2857"
           inkscape:connector-curvature="0" />
        <path
           id="path1425"
           d="m 340,704 c -2.53856,0 -5.07712,-0.97179 -7.01079,-2.90546 -3.87725,-3.87725 -3.87725,-10.14433 0,-14.02158 l 49.58126,-49.58127 c 3.87726,-3.87726 10.14433,-3.87726 14.02159,0 3.87725,3.87725 3.87725,10.14433 0,14.02158 l -49.58127,49.58127 C 345.07712,703.02821 342.53856,704 340,704 Z"
           style="fill:#ffffff;stroke-width:9.91625"
           inkscape:connector-curvature="0" />
        <path
           id="path1427"
           d="m 290.41873,753.58127 c -2.53855,0 -5.07712,-0.97179 -7.01079,-2.90547 -3.87725,-3.87725 -3.87725,-10.14432 0,-14.02158 l 49.58127,-49.58126 c 3.87725,-3.87726 10.14433,-3.87726 14.02158,0 3.87725,3.87725 3.87725,10.14433 0,14.02158 l -49.58126,49.58126 c -1.93368,1.93368 -4.47224,2.90547 -7.0108,2.90547 z"
           style="fill:#ffffff;stroke-width:9.91625"
           inkscape:connector-curvature="0" />
        <path
           id="path1429"
           d="m 389.58127,753.58127 c -2.53856,0 -5.07712,-0.97179 -7.0108,-2.90547 l -49.58126,-49.58126 c -3.87725,-3.87725 -3.87725,-10.14433 0,-14.02158 3.87725,-3.87726 10.14433,-3.87726 14.02158,0 l 49.58127,49.58126 c 3.87725,3.87726 3.87725,10.14433 0,14.02158 -1.93367,1.93368 -4.47224,2.90547 -7.01079,2.90547 z"
           style="fill:#ffffff;stroke-width:9.91625"
           inkscape:connector-curvature="0" />
        <path
           id="path1431"
           d="m 340,704 c -2.53856,0 -5.07712,-0.97179 -7.01079,-2.90546 l -49.58127,-49.58127 c -3.87725,-3.87725 -3.87725,-10.14433 0,-14.02158 3.87726,-3.87726 10.14433,-3.87726 14.02159,0 l 49.58126,49.58127 c 3.87725,3.87725 3.87725,10.14433 0,14.02158 C 345.07712,703.02821 342.53856,704 340,704 Z"
           style="fill:#ffffff;stroke-width:9.91625"
           inkscape:connector-curvature="0" />
        <path
           id="path1433"
           d="M 400,344 H 276.57142 c -5.67771,0 -10.28571,-4.59771 -10.28571,-10.28571 0,-5.688 4.608,-10.28571 10.28571,-10.28571 H 400 c 5.67771,0 10.28571,4.59771 10.28571,10.28571 0,5.688 -4.608,10.28571 -10.28571,10.28571 z"
           style="fill:#f1f1f1;fill-opacity:1;stroke-width:10.2857"
           inkscape:connector-curvature="0" />
        <path
           id="path1435"
           d="M 338.28571,405.71429 C 332.608,405.71429 328,401.11658 328,395.42858 V 272 c 0,-5.688 4.608,-10.28571 10.28571,-10.28571 5.67771,0 10.28571,4.59771 10.28571,10.28571 v 123.42858 c 0,5.688 -4.608,10.28571 -10.28571,10.28571 z"
           style="fill:#ffffff;fill-opacity:1;stroke-width:10.2857"
           inkscape:connector-curvature="0" />
        <path
           id="path1437"
           d="M 740,344 H 616.57142 c -5.67771,0 -10.28571,-4.59771 -10.28571,-10.28571 0,-5.688 4.608,-10.28571 10.28571,-10.28571 H 740 c 5.67771,0 10.28571,4.59771 10.28571,10.28571 0,5.688 -4.608,10.28571 -10.28571,10.28571 z"
           style="fill:#ffffff;stroke-width:10.2857"
           inkscape:connector-curvature="0" />
      </g>
      <g
         id="g1403"
         style="display:inline;filter:url(#filter880);enable-background:new"
         transform="matrix(0.02959182,0,0,0.02959182,320.84898,132.84899)">
        <path
           id="path1385"
           d="M 740,724 H 616.57142 c -5.67771,0 -10.28571,-4.59772 -10.28571,-10.28572 0,-5.688 4.608,-10.28571 10.28571,-10.28571 H 740 c 5.67771,0 10.28571,4.59771 10.28571,10.28571 0,5.688 -4.608,10.28572 -10.28571,10.28572 z"
           style="fill:#000000;fill-opacity:1;stroke-width:10.2857"
           inkscape:connector-curvature="0" />
        <path
           id="path1387"
           d="M 740,662.28571 H 616.57142 c -5.67771,0 -10.28571,-4.59771 -10.28571,-10.28571 0,-5.688 4.608,-10.28572 10.28571,-10.28572 H 740 c 5.67771,0 10.28571,4.59772 10.28571,10.28572 0,5.688 -4.608,10.28571 -10.28571,10.28571 z"
           style="fill:#000000;fill-opacity:1;stroke-width:10.2857"
           inkscape:connector-curvature="0" />
        <path
           id="path1389"
           d="m 340,704 c -2.53856,0 -5.07712,-0.97179 -7.01079,-2.90546 -3.87725,-3.87725 -3.87725,-10.14433 0,-14.02158 l 49.58126,-49.58127 c 3.87726,-3.87726 10.14433,-3.87726 14.02159,0 3.87725,3.87725 3.87725,10.14433 0,14.02158 l -49.58127,49.58127 C 345.07712,703.02821 342.53856,704 340,704 Z"
           style="fill:#ffffff;stroke-width:9.91625"
           inkscape:connector-curvature="0" />
        <path
           id="path1391"
           d="m 290.41873,753.58127 c -2.53855,0 -5.07712,-0.97179 -7.01079,-2.90547 -3.87725,-3.87725 -3.87725,-10.14432 0,-14.02158 l 49.58127,-49.58126 c 3.87725,-3.87726 10.14433,-3.87726 14.02158,0 3.87725,3.87725 3.87725,10.14433 0,14.02158 l -49.58126,49.58126 c -1.93368,1.93368 -4.47224,2.90547 -7.0108,2.90547 z"
           style="fill:#ffffff;stroke-width:9.91625"
           inkscape:connector-curvature="0" />
        <path
           id="path1393"
           d="m 389.58127,753.58127 c -2.53856,0 -5.07712,-0.97179 -7.0108,-2.90547 l -49.58126,-49.58126 c -3.87725,-3.87725 -3.87725,-10.14433 0,-14.02158 3.87725,-3.87726 10.14433,-3.87726 14.02158,0 l 49.58127,49.58126 c 3.87725,3.87726 3.87725,10.14433 0,14.02158 -1.93367,1.93368 -4.47224,2.90547 -7.01079,2.90547 z"
           style="fill:#ffffff;stroke-width:9.91625"
           inkscape:connector-curvature="0" />
        <path
           id="path1395"
           d="m 340,704 c -2.53856,0 -5.07712,-0.97179 -7.01079,-2.90546 l -49.58127,-49.58127 c -3.87725,-3.87725 -3.87725,-10.14433 0,-14.02158 3.87726,-3.87726 10.14433,-3.87726 14.02159,0 l 49.58126,49.58127 c 3.87725,3.87725 3.87725,10.14433 0,14.02158 C 345.07712,703.02821 342.53856,704 340,704 Z"
           style="fill:#ffffff;stroke-width:9.91625"
           inkscape:connector-curvature="0" />
        <path
           id="path1397"
           d="M 400,344 H 276.57142 c -5.67771,0 -10.28571,-4.59771 -10.28571,-10.28571 0,-5.688 4.608,-10.28571 10.28571,-10.28571 H 400 c 5.67771,0 10.28571,4.59771 10.28571,10.28571 0,5.688 -4.608,10.28571 -10.28571,10.28571 z"
           style="fill:#f1f1f1;fill-opacity:1;stroke-width:10.2857"
           inkscape:connector-curvature="0" />
        <path
           id="path1399"
           d="M 338.28571,405.71429 C 332.608,405.71429 328,401.11658 328,395.42858 V 272 c 0,-5.688 4.608,-10.28571 10.28571,-10.28571 5.67771,0 10.28571,4.59771 10.28571,10.28571 v 123.42858 c 0,5.688 -4.608,10.28571 -10.28571,10.28571 z"
           style="fill:#ffffff;fill-opacity:1;stroke-width:10.2857"
           inkscape:connector-curvature="0" />
        <path
           id="path1401"
           d="M 740,344 H 616.57142 c -5.67771,0 -10.28571,-4.59771 -10.28571,-10.28571 0,-5.688 4.608,-10.28571 10.28571,-10.28571 H 740 c 5.67771,0 10.28571,4.59771 10.28571,10.28571 0,5.688 -4.608,10.28571 -10.28571,10.28571 z"
           style="fill:#ffffff;stroke-width:10.2857"
           inkscape:connector-curvature="0" />
      </g>
      <g
         id="g1367"
         style="display:inline;filter:url(#filter880);enable-background:new"
         transform="matrix(0.04591835,0,0,0.04591835,320.66036,60.620775)">
        <path
           id="path1349"
           d="M 740,724 H 616.57142 c -5.67771,0 -10.28571,-4.59772 -10.28571,-10.28572 0,-5.688 4.608,-10.28571 10.28571,-10.28571 H 740 c 5.67771,0 10.28571,4.59771 10.28571,10.28571 0,5.688 -4.608,10.28572 -10.28571,10.28572 z"
           style="fill:#000000;fill-opacity:1;stroke-width:10.2857"
           inkscape:connector-curvature="0" />
        <path
           id="path1351"
           d="M 740,662.28571 H 616.57142 c -5.67771,0 -10.28571,-4.59771 -10.28571,-10.28571 0,-5.688 4.608,-10.28572 10.28571,-10.28572 H 740 c 5.67771,0 10.28571,4.59772 10.28571,10.28572 0,5.688 -4.608,10.28571 -10.28571,10.28571 z"
           style="fill:#000000;fill-opacity:1;stroke-width:10.2857"
           inkscape:connector-curvature="0" />
        <path
           id="path1353"
           d="m 340,704 c -2.53856,0 -5.07712,-0.97179 -7.01079,-2.90546 -3.87725,-3.87725 -3.87725,-10.14433 0,-14.02158 l 49.58126,-49.58127 c 3.87726,-3.87726 10.14433,-3.87726 14.02159,0 3.87725,3.87725 3.87725,10.14433 0,14.02158 l -49.58127,49.58127 C 345.07712,703.02821 342.53856,704 340,704 Z"
           style="fill:#ffffff;stroke-width:9.91625"
           inkscape:connector-curvature="0" />
        <path
           id="path1355"
           d="m 290.41873,753.58127 c -2.53855,0 -5.07712,-0.97179 -7.01079,-2.90547 -3.87725,-3.87725 -3.87725,-10.14432 0,-14.02158 l 49.58127,-49.58126 c 3.87725,-3.87726 10.14433,-3.87726 14.02158,0 3.87725,3.87725 3.87725,10.14433 0,14.02158 l -49.58126,49.58126 c -1.93368,1.93368 -4.47224,2.90547 -7.0108,2.90547 z"
           style="fill:#ffffff;stroke-width:9.91625"
           inkscape:connector-curvature="0" />
        <path
           id="path1357"
           d="m 389.58127,753.58127 c -2.53856,0 -5.07712,-0.97179 -7.0108,-2.90547 l -49.58126,-49.58126 c -3.87725,-3.87725 -3.87725,-10.14433 0,-14.02158 3.87725,-3.87726 10.14433,-3.87726 14.02158,0 l 49.58127,49.58126 c 3.87725,3.87726 3.87725,10.14433 0,14.02158 -1.93367,1.93368 -4.47224,2.90547 -7.01079,2.90547 z"
           style="fill:#ffffff;stroke-width:9.91625"
           inkscape:connector-curvature="0" />
        <path
           id="path1359"
           d="m 340,704 c -2.53856,0 -5.07712,-0.97179 -7.01079,-2.90546 l -49.58127,-49.58127 c -3.87725,-3.87725 -3.87725,-10.14433 0,-14.02158 3.87726,-3.87726 10.14433,-3.87726 14.02159,0 l 49.58126,49.58127 c 3.87725,3.87725 3.87725,10.14433 0,14.02158 C 345.07712,703.02821 342.53856,704 340,704 Z"
           style="fill:#ffffff;stroke-width:9.91625"
           inkscape:connector-curvature="0" />
        <path
           id="path1361"
           d="M 400,344 H 276.57142 c -5.67771,0 -10.28571,-4.59771 -10.28571,-10.28571 0,-5.688 4.608,-10.28571 10.28571,-10.28571 H 400 c 5.67771,0 10.28571,4.59771 10.28571,10.28571 0,5.688 -4.608,10.28571 -10.28571,10.28571 z"
           style="fill:#f1f1f1;fill-opacity:1;stroke-width:10.2857"
           inkscape:connector-curvature="0" />
        <path
           id="path1363"
           d="M 338.28571,405.71429 C 332.608,405.71429 328,401.11658 328,395.42858 V 272 c 0,-5.688 4.608,-10.28571 10.28571,-10.28571 5.67771,0 10.28571,4.59771 10.28571,10.28571 v 123.42858 c 0,5.688 -4.608,10.28571 -10.28571,10.28571 z"
           style="fill:#ffffff;fill-opacity:1;stroke-width:10.2857"
           inkscape:connector-curvature="0" />
        <path
           id="path1365"
           d="M 740,344 H 616.57142 c -5.67771,0 -10.28571,-4.59771 -10.28571,-10.28571 0,-5.688 4.608,-10.28571 10.28571,-10.28571 H 740 c 5.67771,0 10.28571,4.59771 10.28571,10.28571 0,5.688 -4.608,10.28571 -10.28571,10.28571 z"
           style="fill:#ffffff;stroke-width:10.2857"
           inkscape:connector-curvature="0" />
      </g>
      <g
         id="g946"
         style="display:inline;enable-background:new;filter:url(#filter880)"
         transform="matrix(0.22857134,0,0,0.22857134,35.82045,39.623413)">
        <path
           id="path10"
           d="M 740,724 H 616.57142 c -5.67771,0 -10.28571,-4.59772 -10.28571,-10.28572 0,-5.688 4.608,-10.28571 10.28571,-10.28571 H 740 c 5.67771,0 10.28571,4.59771 10.28571,10.28571 0,5.688 -4.608,10.28572 -10.28571,10.28572 z"
           style="fill:#000000;fill-opacity:1;stroke-width:10.2857"
           inkscape:connector-curvature="0" />
        <path
           id="path12"
           d="M 740,662.28571 H 616.57142 c -5.67771,0 -10.28571,-4.59771 -10.28571,-10.28571 0,-5.688 4.608,-10.28572 10.28571,-10.28572 H 740 c 5.67771,0 10.28571,4.59772 10.28571,10.28572 0,5.688 -4.608,10.28571 -10.28571,10.28571 z"
           style="fill:#000000;fill-opacity:1;stroke-width:10.2857"
           inkscape:connector-curvature="0" />
        <path
           id="path14"
           d="m 340,704 c -2.53856,0 -5.07712,-0.97179 -7.01079,-2.90546 -3.87725,-3.87725 -3.87725,-10.14433 0,-14.02158 l 49.58126,-49.58127 c 3.87726,-3.87726 10.14433,-3.87726 14.02159,0 3.87725,3.87725 3.87725,10.14433 0,14.02158 l -49.58127,49.58127 C 345.07712,703.02821 342.53856,704 340,704 Z"
           style="fill:#ffffff;stroke-width:9.91625"
           inkscape:connector-curvature="0" />
        <path
           id="path16"
           d="m 290.41873,753.58127 c -2.53855,0 -5.07712,-0.97179 -7.01079,-2.90547 -3.87725,-3.87725 -3.87725,-10.14432 0,-14.02158 l 49.58127,-49.58126 c 3.87725,-3.87726 10.14433,-3.87726 14.02158,0 3.87725,3.87725 3.87725,10.14433 0,14.02158 l -49.58126,49.58126 c -1.93368,1.93368 -4.47224,2.90547 -7.0108,2.90547 z"
           style="fill:#ffffff;stroke-width:9.91625"
           inkscape:connector-curvature="0" />
        <path
           id="path18"
           d="m 389.58127,753.58127 c -2.53856,0 -5.07712,-0.97179 -7.0108,-2.90547 l -49.58126,-49.58126 c -3.87725,-3.87725 -3.87725,-10.14433 0,-14.02158 3.87725,-3.87726 10.14433,-3.87726 14.02158,0 l 49.58127,49.58126 c 3.87725,3.87726 3.87725,10.14433 0,14.02158 -1.93367,1.93368 -4.47224,2.90547 -7.01079,2.90547 z"
           style="fill:#ffffff;stroke-width:9.91625"
           inkscape:connector-curvature="0" />
        <path
           id="path20"
           d="m 340,704 c -2.53856,0 -5.07712,-0.97179 -7.01079,-2.90546 l -49.58127,-49.58127 c -3.87725,-3.87725 -3.87725,-10.14433 0,-14.02158 3.87726,-3.87726 10.14433,-3.87726 14.02159,0 l 49.58126,49.58127 c 3.87725,3.87725 3.87725,10.14433 0,14.02158 C 345.07712,703.02821 342.53856,704 340,704 Z"
           style="fill:#ffffff;stroke-width:9.91625"
           inkscape:connector-curvature="0" />
        <path
           id="path22"
           d="M 400,344 H 276.57142 c -5.67771,0 -10.28571,-4.59771 -10.28571,-10.28571 0,-5.688 4.608,-10.28571 10.28571,-10.28571 H 400 c 5.67771,0 10.28571,4.59771 10.28571,10.28571 0,5.688 -4.608,10.28571 -10.28571,10.28571 z"
           style="fill:#f1f1f1;fill-opacity:1;stroke-width:10.2857"
           inkscape:connector-curvature="0" />
        <path
           id="path24"
           d="M 338.28571,405.71429 C 332.608,405.71429 328,401.11658 328,395.42858 V 272 c 0,-5.688 4.608,-10.28571 10.28571,-10.28571 5.67771,0 10.28571,4.59771 10.28571,10.28571 v 123.42858 c 0,5.688 -4.608,10.28571 -10.28571,10.28571 z"
           style="fill:#ffffff;fill-opacity:1;stroke-width:10.2857"
           inkscape:connector-curvature="0" />
        <path
           id="path26"
           d="M 740,344 H 616.57142 c -5.67771,0 -10.28571,-4.59771 -10.28571,-10.28571 0,-5.688 4.608,-10.28571 10.28571,-10.28571 H 740 c 5.67771,0 10.28571,4.59771 10.28571,10.28571 0,5.688 -4.608,10.28571 -10.28571,10.28571 z"
           style="fill:#ffffff;stroke-width:10.2857"
           inkscape:connector-curvature="0" />
      </g>
    </g>
  </g>
</svg>
