<?xml version="1.0" encoding="UTF-8" standalone="no"?>
<svg
   inkscape:export-ydpi="90.000000"
   inkscape:export-xdpi="90.000000"
   width="400"
   height="300"
   id="svg11300"
   sodipodi:version="0.32"
   inkscape:version="1.2.2 (b0a8486541, 2022-12-01)"
   sodipodi:docname="calendar-app.svg"
   inkscape:output_extension="org.inkscape.output.svg.inkscape"
   version="1.0"
   style="display:inline;enable-background:new"
   inkscape:export-filename="/home/sam/suru-template.png"
   xmlns:inkscape="http://www.inkscape.org/namespaces/inkscape"
   xmlns:sodipodi="http://sodipodi.sourceforge.net/DTD/sodipodi-0.dtd"
   xmlns:xlink="http://www.w3.org/1999/xlink"
   xmlns="http://www.w3.org/2000/svg"
   xmlns:svg="http://www.w3.org/2000/svg"
   xmlns:rdf="http://www.w3.org/1999/02/22-rdf-syntax-ns#"
   xmlns:cc="http://creativecommons.org/ns#"
   xmlns:dc="http://purl.org/dc/elements/1.1/">
  <title
     id="title3004">Suru Icon Theme Template</title>
  <sodipodi:namedview
     stroke="#ef2929"
     fill="#f57900"
     id="base"
     pagecolor="#ffffff"
     bordercolor="#000000"
     borderopacity="0.25490196"
     inkscape:pageopacity="0"
     inkscape:pageshadow="2"
     inkscape:zoom="2"
     inkscape:cx="357.5"
     inkscape:cy="169.5"
     inkscape:current-layer="layer6"
     showgrid="false"
     inkscape:grid-bbox="true"
     inkscape:document-units="px"
     inkscape:showpageshadow="false"
     inkscape:window-width="1920"
     inkscape:window-height="1020"
     inkscape:window-x="0"
     inkscape:window-y="32"
     width="400px"
     height="300px"
     inkscape:snap-nodes="true"
     inkscape:snap-bbox="true"
     gridtolerance="10000"
     inkscape:object-nodes="true"
     inkscape:snap-grids="true"
     showguides="true"
     inkscape:guide-bbox="true"
     inkscape:window-maximized="1"
     inkscape:bbox-paths="true"
     inkscape:snap-bbox-midpoints="true"
     inkscape:snap-global="true"
     inkscape:object-paths="true"
     inkscape:snap-intersection-paths="true"
     inkscape:snap-smooth-nodes="true"
     inkscape:pagecheckerboard="false"
     showborder="false"
     inkscape:document-rotation="0"
     inkscape:deskcolor="#d1d1d1">
    <inkscape:grid
       spacingy="1"
       spacingx="1"
       id="grid5883"
       type="xygrid"
       enabled="true"
       visible="true"
       empspacing="4"
       snapvisiblegridlinesonly="true"
       originx="0"
       originy="0" />
    <inkscape:grid
       type="xygrid"
       id="grid11592"
       empspacing="2"
       visible="true"
       enabled="false"
       spacingx="0.5"
       spacingy="0.5"
       color="#ff0000"
       opacity="0.1254902"
       empcolor="#ff0000"
       empopacity="0.25098039"
       snapvisiblegridlinesonly="true"
       originx="0"
       originy="0" />
  </sodipodi:namedview>
  <defs
     id="defs3">
    <filter
       inkscape:collect="always"
       style="color-interpolation-filters:sRGB"
       id="filter864"
       x="-0.017910021"
       width="1.03582"
       y="-0.019350594"
       height="1.0387012">
      <feGaussianBlur
         inkscape:collect="always"
         stdDeviation="1.1358682"
         id="feGaussianBlur866" />
    </filter>
    <linearGradient
       inkscape:collect="always"
       xlink:href="#linearGradient912"
       id="linearGradient1112"
       gradientUnits="userSpaceOnUse"
       gradientTransform="matrix(0.9291366,0,0,1.0010862,26.132962,-5.7087808)"
       x1="132.29164"
       y1="48.291653"
       x2="132.29164"
       y2="122.37498" />
    <linearGradient
       id="linearGradient912"
       inkscape:collect="always">
      <stop
         id="stop908"
         offset="0"
         style="stop-color:#f85015;stop-opacity:1" />
      <stop
         id="stop910"
         offset="1"
         style="stop-color:#ee3009;stop-opacity:1" />
    </linearGradient>
    <linearGradient
       inkscape:collect="always"
       xlink:href="#linearGradient940"
       id="linearGradient894"
       x1="137.58331"
       y1="117.08331"
       x2="137.58331"
       y2="334.04166"
       gradientUnits="userSpaceOnUse"
       gradientTransform="matrix(0.9291366,0,0,1.0010861,26.132962,-5.7087738)" />
    <linearGradient
       id="linearGradient940">
      <stop
         id="stop936"
         offset="0"
         style="stop-color:#f6f7f7;stop-opacity:1" />
      <stop
         id="stop938"
         offset="1"
         style="stop-color:#dce7f0;stop-opacity:1" />
    </linearGradient>
    <linearGradient
       inkscape:collect="always"
       xlink:href="#linearGradient912"
       id="linearGradient573"
       gradientUnits="userSpaceOnUse"
       gradientTransform="matrix(0.19080483,0,0,0.2055802,318.1523,50.791947)"
       x1="132.29164"
       y1="48.291653"
       x2="132.29164"
       y2="122.37498" />
    <linearGradient
       inkscape:collect="always"
       xlink:href="#linearGradient940"
       id="linearGradient575"
       gradientUnits="userSpaceOnUse"
       gradientTransform="matrix(0.19080483,0,0,0.20558018,318.1523,50.791949)"
       x1="137.58331"
       y1="117.08331"
       x2="137.58331"
       y2="334.04166" />
    <linearGradient
       inkscape:collect="always"
       xlink:href="#linearGradient912"
       id="linearGradient585"
       gradientUnits="userSpaceOnUse"
       gradientTransform="matrix(0.12443793,0,0,0.13407404,319.14281,126.34257)"
       x1="132.29164"
       y1="48.291653"
       x2="132.29164"
       y2="122.37498" />
    <linearGradient
       inkscape:collect="always"
       xlink:href="#linearGradient940"
       id="linearGradient587"
       gradientUnits="userSpaceOnUse"
       gradientTransform="matrix(0.12443793,0,0,0.13407403,319.14281,126.34257)"
       x1="137.58331"
       y1="117.08331"
       x2="137.58331"
       y2="334.04166" />
    <linearGradient
       inkscape:collect="always"
       xlink:href="#linearGradient912"
       id="linearGradient597"
       gradientUnits="userSpaceOnUse"
       gradientTransform="matrix(0.09540241,0,0,0.1027901,319.07615,183.39597)"
       x1="132.29164"
       y1="48.291653"
       x2="132.29164"
       y2="122.37498" />
    <linearGradient
       inkscape:collect="always"
       xlink:href="#linearGradient940"
       id="linearGradient599"
       gradientUnits="userSpaceOnUse"
       gradientTransform="matrix(0.09540241,0,0,0.10279009,319.07615,183.39597)"
       x1="137.58331"
       y1="117.08331"
       x2="137.58331"
       y2="334.04166" />
    <linearGradient
       inkscape:collect="always"
       xlink:href="#linearGradient912"
       id="linearGradient609"
       gradientUnits="userSpaceOnUse"
       gradientTransform="matrix(0.06221897,0,0,0.06703702,319.57142,233.17127)"
       x1="132.29164"
       y1="48.291653"
       x2="132.29164"
       y2="122.37498" />
    <linearGradient
       inkscape:collect="always"
       xlink:href="#linearGradient940"
       id="linearGradient611"
       gradientUnits="userSpaceOnUse"
       gradientTransform="matrix(0.06221897,0,0,0.06703702,319.57142,233.17127)"
       x1="137.58331"
       y1="117.08331"
       x2="137.58331"
       y2="334.04166" />
  </defs>
  <metadata
     id="metadata4">
    <rdf:RDF>
      <cc:Work
         rdf:about="">
        <dc:format>image/svg+xml</dc:format>
        <dc:type
           rdf:resource="http://purl.org/dc/dcmitype/StillImage" />
        <dc:creator>
          <cc:Agent>
            <dc:title>Sam Hewitt</dc:title>
          </cc:Agent>
        </dc:creator>
        <dc:source />
        <cc:license
           rdf:resource="http://creativecommons.org/licenses/by-sa/4.0/" />
        <dc:title>Suru Icon Theme Template</dc:title>
        <dc:subject>
          <rdf:Bag />
        </dc:subject>
        <dc:date />
        <dc:rights>
          <cc:Agent>
            <dc:title />
          </cc:Agent>
        </dc:rights>
        <dc:publisher>
          <cc:Agent>
            <dc:title />
          </cc:Agent>
        </dc:publisher>
        <dc:identifier />
        <dc:relation />
        <dc:language />
        <dc:coverage />
        <dc:description />
        <dc:contributor>
          <cc:Agent>
            <dc:title />
          </cc:Agent>
        </dc:contributor>
      </cc:Work>
      <cc:Work
         rdf:about="">
        <dc:format>image/svg+xml</dc:format>
        <dc:type
           rdf:resource="http://purl.org/dc/dcmitype/StillImage" />
      </cc:Work>
      <cc:License
         rdf:about="http://creativecommons.org/licenses/by-sa/4.0/">
        <cc:permits
           rdf:resource="http://creativecommons.org/ns#Reproduction" />
        <cc:permits
           rdf:resource="http://creativecommons.org/ns#Distribution" />
        <cc:requires
           rdf:resource="http://creativecommons.org/ns#Notice" />
        <cc:requires
           rdf:resource="http://creativecommons.org/ns#Attribution" />
        <cc:permits
           rdf:resource="http://creativecommons.org/ns#DerivativeWorks" />
        <cc:requires
           rdf:resource="http://creativecommons.org/ns#ShareAlike" />
      </cc:License>
    </rdf:RDF>
  </metadata>
  <g
     style="display:inline"
     inkscape:groupmode="layer"
     inkscape:label="Icon"
     id="layer1">
    <g
       style="display:none"
       inkscape:label="Baseplate"
       id="layer7"
       inkscape:groupmode="layer">
      <text
         y="-8.2548828"
         xml:space="preserve"
         x="19.006836"
         style="font-style:normal;font-variant:normal;font-weight:normal;font-stretch:normal;line-height:0%;font-family:'DejaVu Sans';-inkscape-font-specification:'DejaVu Sans';display:inline;fill:#000000;fill-opacity:1;stroke:none;enable-background:new"
         inkscape:label="context"
         id="context"><tspan
           style="font-style:normal;font-variant:normal;font-weight:normal;font-stretch:normal;font-size:18px;line-height:1.25;font-family:'DejaVu Sans';-inkscape-font-specification:'DejaVu Sans'"
           y="-8.2548828"
           x="19.006836"
           sodipodi:role="line"
           id="tspan3933">apps</tspan></text>
      <text
         y="-8.2548828"
         xml:space="preserve"
         x="146.48828"
         style="font-style:normal;font-variant:normal;font-weight:bold;font-stretch:normal;line-height:0%;font-family:'DejaVu Sans';-inkscape-font-specification:'DejaVu Sans Bold';text-align:start;writing-mode:lr-tb;text-anchor:start;display:inline;fill:#000000;fill-opacity:1;stroke:none;enable-background:new"
         inkscape:label="icon-name"
         id="icon-name"><tspan
           style="font-style:normal;font-variant:normal;font-weight:bold;font-stretch:normal;font-size:18px;line-height:1.25;font-family:'DejaVu Sans';-inkscape-font-specification:'DejaVu Sans Bold'"
           y="-8.2548828"
           x="146.48828"
           sodipodi:role="line"
           id="tspan924">calendar-app</tspan></text>
      <rect
         style="display:inline;overflow:visible;visibility:visible;fill:#cdcdcd;fill-opacity:1;fill-rule:nonzero;stroke:none;stroke-width:2;marker:none;enable-background:accumulate"
         id="rect16x16"
         width="16"
         height="16"
         x="320"
         y="236"
         inkscape:label="16x16" />
      <rect
         style="display:inline;overflow:visible;visibility:visible;fill:#cdcdcd;fill-opacity:1;fill-rule:nonzero;stroke:none;stroke-width:2;marker:none;enable-background:accumulate"
         id="rect24x24"
         width="24"
         height="24"
         x="320"
         y="188"
         inkscape:label="24x24" />
      <rect
         style="display:inline;overflow:visible;visibility:visible;fill:#cdcdcd;fill-opacity:1;fill-rule:nonzero;stroke:none;stroke-width:2;marker:none;enable-background:accumulate"
         id="rect32x32"
         width="32"
         height="32"
         x="320"
         y="132"
         inkscape:label="32x32" />
      <rect
         inkscape:label="48x48"
         y="60"
         x="320"
         height="48"
         width="48"
         id="rect48x48"
         style="display:inline;overflow:visible;visibility:visible;fill:#cdcdcd;fill-opacity:1;fill-rule:nonzero;stroke:none;stroke-width:2;marker:none;enable-background:accumulate" />
      <rect
         style="display:inline;overflow:visible;visibility:visible;fill:#cdcdcd;fill-opacity:1;fill-rule:nonzero;stroke:none;stroke-width:2;marker:none;enable-background:accumulate"
         id="rect256x256"
         width="256"
         height="256"
         x="24"
         y="28"
         inkscape:label="256x256" />
    </g>
    <g
       inkscape:groupmode="layer"
       id="layer2"
       inkscape:label="Background"
       style="display:inline">
      <rect
         rx="10.592156"
         y="45.681343"
         x="41.374649"
         height="220.63727"
         width="221.25064"
         id="rect1383"
         style="display:inline;fill:url(#linearGradient894);fill-opacity:1;fill-rule:evenodd;stroke:none;stroke-width:20.0908;stroke-linejoin:round;stroke-miterlimit:4;stroke-dasharray:none;stroke-opacity:0;paint-order:stroke markers fill;enable-background:new" />
      <path
         style="display:inline;fill:url(#linearGradient1112);fill-opacity:1;fill-rule:evenodd;stroke:none;stroke-width:20.0908;stroke-linejoin:round;stroke-miterlimit:4;stroke-dasharray:none;stroke-opacity:0;paint-order:stroke markers fill;enable-background:new"
         d="m 51.966652,45.681336 c -5.86805,0 -10.592,5.089743 -10.592,11.412193 V 111.50171 H 262.62535 V 57.093529 c 0,-6.32245 -4.72395,-11.412193 -10.59202,-11.412193 z m 70.279718,17.642873 c 2.35081,0 4.47114,0.43037 6.36098,1.29124 1.90522,0.86083 3.51849,2.09414 4.83985,3.69993 1.32137,1.60576 2.33544,3.55091 3.0422,5.83543 0.72206,2.28449 1.08321,4.85043 1.08321,7.69778 0,2.84738 -0.36115,5.41332 -1.08321,7.69782 -0.70678,2.28449 -1.72083,4.22965 -3.0422,5.83542 -1.32136,1.58922 -2.93463,2.81426 -4.83985,3.67509 -1.88984,0.86083 -4.01017,1.291261 -6.36098,1.291241 -2.35076,0 -4.47876,-0.430371 -6.384,-1.291241 -1.88985,-0.86083 -3.49544,-2.08587 -4.8168,-3.67509 -1.32135,-1.60577 -2.34312,-3.55091 -3.06524,-5.83542 -0.70678,-2.2845 -1.06015,-4.85044 -1.06015,-7.69782 0,-2.84735 0.35343,-5.41329 1.06015,-7.69778 0.722,-2.28452 1.74389,-4.22967 3.06524,-5.83543 1.32136,-1.60579 2.92695,-2.8391 4.8168,-3.69993 1.90524,-0.86083 4.03324,-1.29124 6.384,-1.29124 z m 34.22473,0 c 1.81302,0 3.49546,0.2897 5.04727,0.8691 1.56719,0.56277 2.95768,1.36575 4.17151,2.40866 1.21378,1.02638 2.21249,2.27624 2.9961,3.74959 0.79895,1.45678 1.32904,3.07913 1.59024,4.86699 h -4.19456 c -0.26111,-1.17535 -0.69131,-2.23484 -1.29061,-3.17845 -0.5838,-0.96013 -1.29832,-1.7796 -2.14339,-2.45834 -0.82968,-0.6787 -1.77461,-1.20018 -2.83476,-1.56436 -1.0448,-0.38068 -2.15871,-0.5711 -3.3418,-0.5711 -1.62866,0 -3.10368,0.33938 -4.42502,1.0181 -1.32137,0.6787 -2.45066,1.64716 -3.3879,2.9053 -0.92186,1.25813 -1.63632,2.77286 -2.14335,4.54419 -0.50701,1.75476 -0.76056,3.72475 -0.76056,5.90993 0,2.20174 0.24589,4.18826 0.73743,5.95957 0.50693,1.77133 1.22917,3.28606 2.16642,4.5442 0.93724,1.24159 2.06653,2.20174 3.3879,2.88048 1.32134,0.6787 2.80403,1.0181 4.44805,1.0181 1.21382,0 2.34314,-0.14894 3.38792,-0.44694 1.04478,-0.31442 1.97434,-0.76977 2.78868,-1.36573 0.81432,-0.5959 1.50572,-1.31608 2.07422,-2.16036 0.5838,-0.86081 1.02942,-1.83753 1.33671,-2.93012 h 4.19456 c -0.76822,3.5592 -2.33544,6.29069 -4.70158,8.19443 -2.36615,1.88722 -5.40066,2.830811 -9.10354,2.830811 -2.28934,0 -4.36356,-0.430371 -6.22268,-1.291241 -1.84376,-0.87739 -3.41863,-2.11898 -4.72461,-3.72477 -1.29063,-1.60574 -2.28934,-3.55091 -2.99612,-5.83541 -0.69131,-2.28453 -1.0371,-4.84216 -1.0371,-7.67299 0,-2.81424 0.35341,-5.35534 1.06015,-7.62329 0.70678,-2.2845 1.71315,-4.22965 3.01915,-5.83543 1.30599,-1.62233 2.88087,-2.86394 4.72463,-3.72475 1.84373,-0.87737 3.90261,-1.31608 6.17658,-1.31608 z m 15.02661,0.59597 h 25.58209 v 4.02271 h -10.71682 v 31.80934 h -4.14844 v -31.8093 h -10.71683 z m -49.25134,3.5261 c -1.70546,0 -3.24192,0.33938 -4.60937,1.0181 -1.35209,0.66213 -2.51212,1.62233 -3.48009,2.88046 -0.95261,1.24159 -1.6901,2.7563 -2.21251,4.54419 -0.50701,1.77131 -0.76056,3.75786 -0.76056,5.95958 0,2.20175 0.25353,4.18827 0.76056,5.9596 0.52245,1.77131 1.2599,3.28606 2.21251,4.54419 0.96797,1.24157 2.128,2.20173 3.48009,2.88045 1.36745,0.66213 2.90391,0.99328 4.60937,0.99328 1.70549,0 3.23427,-0.33107 4.58635,-0.99328 1.36748,-0.6787 2.5275,-1.63888 3.48009,-2.88045 0.96798,-1.25813 1.70549,-2.77288 2.21251,-4.54421 0.52237,-1.77131 0.78359,-3.75783 0.78359,-5.95958 0,-2.20172 -0.2611,-4.18827 -0.78359,-5.9596 -0.50692,-1.78787 -1.24453,-3.30258 -2.21251,-4.54417 -0.95259,-1.25813 -2.11261,-2.21829 -3.48009,-2.88046 -1.35208,-0.67878 -2.88086,-1.01812 -4.58635,-1.0181 z"
         id="rect1110" />
      <rect
         style="display:inline;opacity:0.2;fill:none;fill-opacity:1;fill-rule:evenodd;stroke:#ffffff;stroke-width:2.99981;stroke-linecap:butt;stroke-linejoin:round;stroke-miterlimit:4;stroke-dasharray:none;stroke-opacity:1;paint-order:stroke fill markers;filter:url(#filter864);enable-background:new"
         id="rect932"
         width="235.95665"
         height="218.39064"
         x="17.48835"
         y="52.338001"
         rx="11.29619"
         transform="matrix(0.91649794,0,0,0.98746878,27.845072,-3.5091118)" />
      <rect
         rx="2.175175"
         y="61.345276"
         x="321.28229"
         height="45.309441"
         width="45.435398"
         id="rect565"
         style="display:inline;fill:url(#linearGradient575);fill-opacity:1;fill-rule:evenodd;stroke:none;stroke-width:4.12579;stroke-linejoin:round;stroke-miterlimit:4;stroke-dasharray:none;stroke-opacity:0;paint-order:stroke markers fill;enable-background:new" />
      <path
         style="display:inline;fill:url(#linearGradient573);fill-opacity:1;fill-rule:evenodd;stroke:none;stroke-width:4.12579;stroke-linejoin:round;stroke-miterlimit:4;stroke-dasharray:none;stroke-opacity:0;paint-order:stroke markers fill;enable-background:new"
         d="m 323.45744,61.345274 c -1.20505,0 -2.17515,1.045215 -2.17515,2.343576 V 74.861958 H 366.7177 V 63.68885 c 0,-1.298361 -0.97009,-2.343576 -2.17514,-2.343576 z m 14.43244,3.62309 c 0.48275,0 0.91818,0.08838 1.30627,0.265166 0.39125,0.176777 0.72255,0.430046 0.9939,0.759807 0.27135,0.329754 0.4796,0.729204 0.62474,1.198347 0.14828,0.469136 0.22244,0.99607 0.22244,1.580794 0,0.58473 -0.0742,1.111664 -0.22244,1.580802 -0.14515,0.469137 -0.35339,0.868589 -0.62474,1.198346 -0.27135,0.326357 -0.60265,0.577928 -0.9939,0.754705 -0.38809,0.176778 -0.82352,0.26517 -1.30627,0.265166 -0.48275,0 -0.91975,-0.08838 -1.311,-0.265166 -0.3881,-0.176777 -0.71782,-0.428348 -0.98917,-0.754705 -0.27134,-0.329757 -0.48117,-0.729205 -0.62946,-1.198346 -0.14515,-0.469138 -0.21771,-0.996072 -0.21771,-1.580802 0,-0.584724 0.0726,-1.111658 0.21771,-1.580794 0.14826,-0.469143 0.35812,-0.868593 0.62946,-1.198347 0.27135,-0.329761 0.60107,-0.58303 0.98917,-0.759807 0.39125,-0.176778 0.82825,-0.265166 1.311,-0.265166 z m 7.02829,0 c 0.37232,0 0.71782,0.05949 1.03649,0.178476 0.32184,0.115569 0.60738,0.280467 0.85665,0.494636 0.24926,0.210774 0.45435,0.467442 0.61527,0.770005 0.16407,0.29916 0.27293,0.632321 0.32657,0.999471 h -0.86138 c -0.0536,-0.241367 -0.14197,-0.45894 -0.26504,-0.652717 -0.11989,-0.19717 -0.26662,-0.365454 -0.44016,-0.504838 -0.17038,-0.139376 -0.36443,-0.246466 -0.58214,-0.321253 -0.21455,-0.07818 -0.4433,-0.117279 -0.68626,-0.117279 -0.33446,0 -0.63736,0.06969 -0.90871,0.209074 -0.27135,0.139376 -0.50326,0.338256 -0.69573,0.596624 -0.18931,0.258366 -0.33603,0.569427 -0.44015,0.933182 -0.10412,0.360352 -0.15619,0.764904 -0.15619,1.213646 0,0.452143 0.0505,0.860089 0.15144,1.223841 0.1041,0.363755 0.25242,0.674815 0.44489,0.933184 0.19247,0.254969 0.42438,0.452143 0.69573,0.591527 0.27135,0.139376 0.57583,0.209074 0.91344,0.209074 0.24926,0 0.48118,-0.03059 0.69573,-0.09178 0.21455,-0.06457 0.40545,-0.158077 0.57268,-0.280462 0.16722,-0.122372 0.30921,-0.270266 0.42595,-0.443645 0.11989,-0.176774 0.2114,-0.37735 0.27451,-0.601721 h 0.86138 c -0.15776,0.730907 -0.4796,1.291838 -0.9655,1.682784 -0.48591,0.387554 -1.10907,0.581328 -1.86948,0.581328 -0.47013,0 -0.89609,-0.08838 -1.27787,-0.265166 -0.37863,-0.180178 -0.70204,-0.435148 -0.97024,-0.764908 -0.26504,-0.32975 -0.47013,-0.729205 -0.61527,-1.198343 -0.14197,-0.469145 -0.21298,-0.994372 -0.21298,-1.575704 0,-0.577924 0.0726,-1.099757 0.21771,-1.565497 0.14515,-0.469138 0.35181,-0.868588 0.62001,-1.198347 0.26819,-0.333157 0.5916,-0.58813 0.97023,-0.764904 0.37863,-0.180174 0.80143,-0.270266 1.26841,-0.270266 z m 3.08582,0.122387 h 5.25347 v 0.826092 h -2.20078 v 6.532275 h -0.85191 v -6.532267 h -2.20078 z m -10.11411,0.72411 c -0.35023,0 -0.66575,0.06969 -0.94657,0.209074 -0.27766,0.135973 -0.51588,0.333157 -0.71466,0.591523 -0.19563,0.254969 -0.34707,0.566026 -0.45435,0.933182 -0.10412,0.363751 -0.15619,0.771703 -0.15619,1.223842 0,0.452145 0.0521,0.860091 0.15619,1.223847 0.10728,0.363751 0.25872,0.674815 0.45435,0.933181 0.19878,0.254966 0.437,0.452141 0.71466,0.591521 0.28082,0.135974 0.59634,0.203978 0.94657,0.203978 0.35023,0 0.66418,-0.06799 0.94184,-0.203978 0.28082,-0.139375 0.51904,-0.336555 0.71466,-0.591521 0.19878,-0.258366 0.35023,-0.56943 0.45435,-0.933186 0.10728,-0.363751 0.16092,-0.771697 0.16092,-1.223842 0,-0.452139 -0.0536,-0.860091 -0.16092,-1.223846 -0.1041,-0.367152 -0.25557,-0.678209 -0.45435,-0.933178 -0.19562,-0.258366 -0.43384,-0.455542 -0.71466,-0.591523 -0.27766,-0.139392 -0.59161,-0.209078 -0.94184,-0.209074 z"
         id="path567" />
      <rect
         style="display:inline;opacity:0.2;fill:none;fill-opacity:1;fill-rule:evenodd;stroke:#ffffff;stroke-width:2.99981;stroke-linecap:butt;stroke-linejoin:round;stroke-miterlimit:4;stroke-dasharray:none;stroke-opacity:1;paint-order:stroke fill markers;filter:url(#filter864);enable-background:new"
         id="rect569"
         width="235.95665"
         height="218.39064"
         x="17.48835"
         y="52.338001"
         rx="11.29619"
         transform="matrix(0.1882094,0,0,0.20278377,318.5039,51.243664)" />
      <rect
         rx="1.4185923"
         y="133.22519"
         x="321.18411"
         height="29.549635"
         width="29.631781"
         id="rect577"
         style="display:inline;fill:url(#linearGradient587);fill-opacity:1;fill-rule:evenodd;stroke:none;stroke-width:2.69073;stroke-linejoin:round;stroke-miterlimit:4;stroke-dasharray:none;stroke-opacity:0;paint-order:stroke markers fill;enable-background:new" />
      <path
         style="display:inline;fill:url(#linearGradient585);fill-opacity:1;fill-rule:evenodd;stroke:none;stroke-width:2.69073;stroke-linejoin:round;stroke-miterlimit:4;stroke-dasharray:none;stroke-opacity:0;paint-order:stroke markers fill;enable-background:new"
         d="m 322.60268,133.22518 c -0.7859,0 -1.41858,0.68166 -1.41858,1.52842 v 7.28681 h 29.63179 v -7.28681 c 0,-0.84676 -0.63267,-1.52842 -1.41857,-1.52842 z m 9.41246,2.36288 c 0.31484,0 0.59881,0.0576 0.85191,0.17294 0.25517,0.11529 0.47123,0.28046 0.6482,0.49552 0.17697,0.21506 0.31278,0.47557 0.40744,0.78153 0.0967,0.30596 0.14507,0.64961 0.14507,1.03096 0,0.38134 -0.0484,0.72499 -0.14507,1.03095 -0.0947,0.30596 -0.23047,0.56648 -0.40744,0.78153 -0.17697,0.21285 -0.39303,0.37691 -0.6482,0.4922 -0.2531,0.11529 -0.53707,0.17294 -0.85191,0.17294 -0.31484,0 -0.59984,-0.0576 -0.855,-0.17294 -0.25311,-0.11529 -0.46814,-0.27935 -0.64511,-0.4922 -0.17696,-0.21505 -0.31381,-0.47556 -0.41052,-0.78153 -0.0947,-0.30596 -0.14198,-0.64961 -0.14198,-1.03095 0,-0.38135 0.0473,-0.725 0.14198,-1.03096 0.0967,-0.30596 0.23356,-0.56647 0.41052,-0.78153 0.17697,-0.21506 0.392,-0.38023 0.64511,-0.49552 0.25516,-0.11529 0.54016,-0.17294 0.855,-0.17294 z m 4.58367,0 c 0.24281,0 0.46814,0.0388 0.67597,0.1164 0.20989,0.0754 0.39612,0.18291 0.55868,0.32259 0.16256,0.13746 0.29632,0.30485 0.40127,0.50218 0.107,0.1951 0.17799,0.41238 0.21298,0.65183 h -0.56177 c -0.035,-0.15742 -0.0926,-0.29931 -0.17286,-0.42569 -0.0782,-0.12859 -0.17388,-0.23834 -0.28706,-0.32924 -0.11111,-0.0909 -0.23767,-0.16074 -0.37965,-0.20952 -0.13993,-0.051 -0.28911,-0.0765 -0.44756,-0.0765 -0.21813,0 -0.41567,0.0455 -0.59264,0.13636 -0.17697,0.0909 -0.32821,0.2206 -0.45374,0.3891 -0.12346,0.1685 -0.21915,0.37137 -0.28705,0.6086 -0.0679,0.23501 -0.10186,0.49885 -0.10186,0.7915 0,0.29488 0.0329,0.56093 0.0988,0.79816 0.0679,0.23723 0.16462,0.4401 0.29015,0.6086 0.12552,0.16628 0.27677,0.29488 0.45373,0.38578 0.17697,0.0909 0.37554,0.13635 0.59572,0.13635 0.16257,0 0.31382,-0.02 0.45374,-0.0599 0.13993,-0.0421 0.26443,-0.10309 0.37349,-0.18291 0.10906,-0.0798 0.20166,-0.17626 0.27779,-0.28933 0.0782,-0.11529 0.13787,-0.2461 0.17903,-0.39243 h 0.56177 c -0.10289,0.47668 -0.31278,0.8425 -0.62967,1.09747 -0.3169,0.25275 -0.72331,0.37913 -1.21923,0.37913 -0.30661,0 -0.58441,-0.0576 -0.83339,-0.17294 -0.24694,-0.11751 -0.45786,-0.28379 -0.63277,-0.49885 -0.17285,-0.21506 -0.30661,-0.47557 -0.40126,-0.78153 -0.0926,-0.30596 -0.1389,-0.6485 -0.1389,-1.02763 0,-0.37691 0.0473,-0.71723 0.14198,-1.02098 0.0947,-0.30596 0.22944,-0.56647 0.40436,-0.78153 0.1749,-0.21728 0.38582,-0.38356 0.63276,-0.49885 0.24693,-0.1175 0.52267,-0.17626 0.82722,-0.17626 z m 2.01249,0.0798 h 3.42617 v 0.53876 h -1.43529 v 4.26018 h -0.55559 v -4.26018 h -1.43529 z m -6.59616,0.47225 c -0.22841,0 -0.43419,0.0454 -0.61733,0.13635 -0.18108,0.0887 -0.33644,0.21728 -0.46608,0.38578 -0.12759,0.16628 -0.22635,0.36914 -0.29632,0.60859 -0.0679,0.23723 -0.10186,0.50329 -0.10186,0.79816 0,0.29488 0.034,0.56093 0.10186,0.79816 0.07,0.23723 0.16873,0.4401 0.29632,0.6086 0.12964,0.16628 0.285,0.29487 0.46608,0.38577 0.18314,0.0887 0.38892,0.13303 0.61733,0.13303 0.22841,0 0.43316,-0.0443 0.61424,-0.13303 0.18315,-0.0909 0.33851,-0.21949 0.46609,-0.38577 0.12963,-0.1685 0.22841,-0.37137 0.29631,-0.6086 0.07,-0.23723 0.10495,-0.50328 0.10495,-0.79816 0,-0.29487 -0.035,-0.56093 -0.10495,-0.79816 -0.0679,-0.23945 -0.16668,-0.44231 -0.29631,-0.60859 -0.12758,-0.1685 -0.28294,-0.2971 -0.46609,-0.38578 -0.18108,-0.0909 -0.38583,-0.13635 -0.61424,-0.13635 z"
         id="path579" />
      <rect
         style="display:inline;opacity:0.2;fill:none;fill-opacity:1;fill-rule:evenodd;stroke:#ffffff;stroke-width:2.99981;stroke-linecap:butt;stroke-linejoin:round;stroke-miterlimit:4;stroke-dasharray:none;stroke-opacity:1;paint-order:stroke fill markers;filter:url(#filter864);enable-background:new"
         id="rect581"
         width="235.95665"
         height="218.39064"
         x="17.48835"
         y="52.338001"
         rx="11.29619"
         transform="matrix(0.12274526,0,0,0.13225028,319.37211,126.63717)" />
      <rect
         rx="1.0875875"
         y="188.67264"
         x="320.64114"
         height="22.65472"
         width="22.717699"
         id="rect589"
         style="display:inline;fill:url(#linearGradient599);fill-opacity:1;fill-rule:evenodd;stroke:none;stroke-width:2.06289;stroke-linejoin:round;stroke-miterlimit:4;stroke-dasharray:none;stroke-opacity:0;paint-order:stroke markers fill;enable-background:new" />
      <path
         style="display:inline;fill:url(#linearGradient597);fill-opacity:1;fill-rule:evenodd;stroke:none;stroke-width:2.06289;stroke-linejoin:round;stroke-miterlimit:4;stroke-dasharray:none;stroke-opacity:0;paint-order:stroke markers fill;enable-background:new"
         d="m 321.72872,188.67264 c -0.60252,0 -1.08758,0.5226 -1.08758,1.17179 v 5.58655 h 22.71771 v -5.58655 c 0,-0.64919 -0.48505,-1.17179 -1.08757,-1.17179 z m 7.21622,1.81154 c 0.24138,0 0.45909,0.0442 0.65313,0.13259 0.19563,0.0884 0.36128,0.21502 0.49696,0.37989 0.13567,0.16488 0.23979,0.36461 0.31237,0.59918 0.0741,0.23457 0.11122,0.49803 0.11122,0.7904 0,0.29236 -0.0371,0.55583 -0.11122,0.7904 -0.0726,0.23456 -0.1767,0.4343 -0.31237,0.59917 -0.13568,0.16318 -0.30133,0.28896 -0.49696,0.37735 -0.19404,0.0884 -0.41175,0.13259 -0.65313,0.13259 -0.24138,0 -0.45988,-0.0442 -0.6555,-0.13259 -0.19405,-0.0884 -0.35891,-0.21417 -0.49458,-0.37735 -0.13567,-0.16487 -0.24059,-0.3646 -0.31474,-0.59917 -0.0726,-0.23457 -0.10885,-0.49804 -0.10885,-0.7904 0,-0.29237 0.0363,-0.55583 0.10885,-0.7904 0.0741,-0.23457 0.17907,-0.4343 0.31474,-0.59918 0.13567,-0.16487 0.30053,-0.2915 0.49458,-0.37989 0.19562,-0.0884 0.41412,-0.13259 0.6555,-0.13259 z m 3.51415,0 c 0.18615,0 0.35891,0.0297 0.51824,0.0892 0.16092,0.0578 0.30369,0.14023 0.42832,0.24732 0.12463,0.10538 0.22718,0.23372 0.30764,0.385 0.082,0.14958 0.13646,0.31616 0.16329,0.49974 h -0.43069 c -0.0268,-0.12069 -0.071,-0.22947 -0.13253,-0.32636 -0.06,-0.0986 -0.13331,-0.18273 -0.22008,-0.25242 -0.0852,-0.0697 -0.18221,-0.12323 -0.29106,-0.16063 -0.10728,-0.0391 -0.22165,-0.0587 -0.34313,-0.0587 -0.16723,0 -0.31868,0.0349 -0.45436,0.10454 -0.13568,0.0697 -0.25163,0.16913 -0.34787,0.29831 -0.0947,0.12918 -0.16801,0.28472 -0.22007,0.46659 -0.052,0.18018 -0.0781,0.38245 -0.0781,0.60682 0,0.22607 0.0252,0.43005 0.0758,0.61192 0.052,0.18188 0.1262,0.33741 0.22244,0.4666 0.0962,0.12748 0.21219,0.22607 0.34786,0.29576 0.13568,0.0697 0.28792,0.10454 0.45672,0.10454 0.12464,0 0.2406,-0.0153 0.34787,-0.0459 0.10728,-0.0323 0.20273,-0.079 0.28634,-0.14023 0.0836,-0.0612 0.15461,-0.13513 0.21297,-0.22182 0.06,-0.0884 0.10571,-0.18868 0.13726,-0.30086 h 0.43069 c -0.0789,0.36545 -0.2398,0.64592 -0.48275,0.84139 -0.24295,0.19378 -0.55453,0.29067 -0.93474,0.29067 -0.23507,0 -0.44805,-0.0442 -0.63893,-0.13259 -0.18932,-0.0901 -0.35103,-0.21757 -0.48512,-0.38245 -0.13252,-0.16488 -0.23507,-0.3646 -0.30764,-0.59917 -0.071,-0.23457 -0.10649,-0.49719 -0.10649,-0.78785 0,-0.28897 0.0363,-0.54988 0.10885,-0.78275 0.0726,-0.23457 0.17591,-0.4343 0.31001,-0.59918 0.13409,-0.16658 0.2958,-0.29406 0.48512,-0.38245 0.18931,-0.0901 0.40071,-0.13513 0.6342,-0.13513 z m 1.54291,0.0612 h 2.62673 v 0.41305 h -1.10039 v 3.26614 h -0.42595 v -3.26614 H 334.002 Z m -5.05706,0.36206 c -0.17511,0 -0.33288,0.0348 -0.47329,0.10453 -0.13882,0.068 -0.25793,0.16658 -0.35732,0.29577 -0.0978,0.12748 -0.17354,0.283 -0.22718,0.46658 -0.0521,0.18188 -0.0781,0.38586 -0.0781,0.61193 0,0.22607 0.0261,0.43004 0.0781,0.61192 0.0537,0.18187 0.12936,0.33741 0.22718,0.46659 0.0994,0.12748 0.2185,0.22607 0.35732,0.29576 0.14041,0.068 0.29818,0.10199 0.47329,0.10199 0.17512,0 0.33209,-0.034 0.47092,-0.10199 0.14041,-0.0697 0.25952,-0.16828 0.35733,-0.29576 0.0994,-0.12918 0.17512,-0.28472 0.22718,-0.46659 0.0537,-0.18188 0.0805,-0.38585 0.0805,-0.61192 0,-0.22607 -0.0268,-0.43005 -0.0805,-0.61193 -0.0521,-0.18358 -0.12779,-0.3391 -0.22718,-0.46658 -0.0978,-0.12919 -0.21692,-0.22778 -0.35733,-0.29577 -0.13883,-0.0697 -0.2958,-0.10453 -0.47092,-0.10453 z"
         id="path591" />
      <rect
         style="display:inline;opacity:0.2;fill:none;fill-opacity:1;fill-rule:evenodd;stroke:#ffffff;stroke-width:2.99981;stroke-linecap:butt;stroke-linejoin:round;stroke-miterlimit:4;stroke-dasharray:none;stroke-opacity:1;paint-order:stroke fill markers;filter:url(#filter864);enable-background:new"
         id="rect593"
         width="235.95665"
         height="218.39064"
         x="17.48835"
         y="52.338001"
         rx="11.29619"
         transform="matrix(0.0941047,0,0,0.10139188,319.25195,183.62183)" />
      <rect
         rx="0.70929623"
         y="236.61258"
         x="320.59204"
         height="14.774818"
         width="14.815891"
         id="rect601"
         style="display:inline;fill:url(#linearGradient611);fill-opacity:1;fill-rule:evenodd;stroke:none;stroke-width:1.34536;stroke-linejoin:round;stroke-miterlimit:4;stroke-dasharray:none;stroke-opacity:0;paint-order:stroke markers fill;enable-background:new" />
      <path
         style="display:inline;fill:url(#linearGradient609);fill-opacity:1;fill-rule:evenodd;stroke:none;stroke-width:1.34536;stroke-linejoin:round;stroke-miterlimit:4;stroke-dasharray:none;stroke-opacity:0;paint-order:stroke markers fill;enable-background:new"
         d="m 321.30136,236.61258 c -0.39295,0 -0.70929,0.34083 -0.70929,0.76421 v 3.6434 h 14.8159 v -3.6434 c 0,-0.42338 -0.31634,-0.76421 -0.70929,-0.76421 z m 4.70623,1.18144 c 0.15742,0 0.29941,0.0288 0.42595,0.0865 0.12759,0.0576 0.23562,0.14023 0.32411,0.24776 0.0885,0.10753 0.15638,0.23778 0.20372,0.39077 0.0483,0.15298 0.0725,0.3248 0.0725,0.51547 0,0.19067 -0.0242,0.3625 -0.0725,0.51548 -0.0473,0.15298 -0.11524,0.28324 -0.20372,0.39076 -0.0885,0.10643 -0.19652,0.18846 -0.32411,0.2461 -0.12654,0.0577 -0.26853,0.0865 -0.42595,0.0865 -0.15742,0 -0.29992,-0.0288 -0.4275,-0.0865 -0.12655,-0.0576 -0.23407,-0.13967 -0.32255,-0.2461 -0.0885,-0.10752 -0.15691,-0.23778 -0.20527,-0.39076 -0.0473,-0.15298 -0.071,-0.32481 -0.071,-0.51548 0,-0.19067 0.0237,-0.36249 0.071,-0.51547 0.0483,-0.15299 0.11679,-0.28324 0.20527,-0.39077 0.0885,-0.10753 0.196,-0.19011 0.32255,-0.24776 0.12758,-0.0577 0.27008,-0.0865 0.4275,-0.0865 z m 2.29184,0 c 0.1214,0 0.23407,0.0194 0.33798,0.0582 0.10495,0.0377 0.19806,0.0915 0.27934,0.1613 0.0813,0.0687 0.14816,0.15243 0.20063,0.25109 0.0535,0.0976 0.089,0.20619 0.1065,0.32591 h -0.28089 c -0.0175,-0.0787 -0.0463,-0.14965 -0.0864,-0.21284 -0.0391,-0.0643 -0.0869,-0.11917 -0.14353,-0.16462 -0.0556,-0.0455 -0.11883,-0.0804 -0.18982,-0.10476 -0.07,-0.0255 -0.14456,-0.0383 -0.22378,-0.0383 -0.10907,0 -0.20784,0.0228 -0.29632,0.0682 -0.0885,0.0454 -0.16411,0.1103 -0.22688,0.19455 -0.0618,0.0842 -0.10957,0.18568 -0.14352,0.30429 -0.0339,0.11751 -0.0509,0.24943 -0.0509,0.39576 0,0.14743 0.0164,0.28046 0.0494,0.39907 0.0339,0.11862 0.0823,0.22005 0.14507,0.30431 0.0627,0.0831 0.13838,0.14743 0.22686,0.19288 0.0885,0.0455 0.18778,0.0682 0.29787,0.0682 0.0813,0 0.15691,-0.01 0.22687,-0.0299 0.07,-0.0211 0.13221,-0.0515 0.18674,-0.0915 0.0545,-0.0399 0.10083,-0.0881 0.13889,-0.14466 0.0391,-0.0576 0.0689,-0.12305 0.0895,-0.19621 h 0.28089 c -0.0515,0.23833 -0.1564,0.42125 -0.31484,0.54873 -0.15845,0.12638 -0.36165,0.18957 -0.60961,0.18957 -0.15331,0 -0.29221,-0.0288 -0.4167,-0.0865 -0.12347,-0.0588 -0.22893,-0.14189 -0.31638,-0.24942 -0.0864,-0.10753 -0.15331,-0.23778 -0.20063,-0.39076 -0.0463,-0.15298 -0.0695,-0.32426 -0.0695,-0.51382 0,-0.18846 0.0237,-0.35862 0.071,-0.51049 0.0473,-0.15298 0.11473,-0.28324 0.20218,-0.39077 0.0874,-0.10864 0.19292,-0.19178 0.31639,-0.24942 0.12346,-0.0588 0.26133,-0.0881 0.41361,-0.0881 z m 1.00624,0.0399 h 1.71309 v 0.26938 h -0.71765 v 2.13009 h -0.27779 v -2.13009 h -0.71765 z m -3.29808,0.23613 c -0.1142,0 -0.2171,0.0227 -0.30867,0.0682 -0.0905,0.0444 -0.16821,0.10864 -0.23303,0.19289 -0.0638,0.0831 -0.11318,0.18457 -0.14816,0.3043 -0.034,0.11861 -0.0509,0.25164 -0.0509,0.39908 0,0.14744 0.017,0.28046 0.0509,0.39908 0.035,0.11861 0.0844,0.22005 0.14816,0.3043 0.0648,0.0831 0.1425,0.14743 0.23303,0.19288 0.0916,0.0444 0.19447,0.0665 0.30867,0.0665 0.11421,0 0.21658,-0.0222 0.30712,-0.0665 0.0916,-0.0454 0.16925,-0.10974 0.23304,-0.19288 0.0648,-0.0842 0.11421,-0.18569 0.14816,-0.3043 0.035,-0.11862 0.0525,-0.25164 0.0525,-0.39908 0,-0.14744 -0.0175,-0.28047 -0.0525,-0.39908 -0.034,-0.11973 -0.0833,-0.22116 -0.14816,-0.3043 -0.0638,-0.0842 -0.14147,-0.14855 -0.23304,-0.19289 -0.0905,-0.0455 -0.19291,-0.0682 -0.30712,-0.0682 z"
         id="path603" />
      <rect
         style="display:inline;opacity:0.2;fill:none;fill-opacity:1;fill-rule:evenodd;stroke:#ffffff;stroke-width:2.99981;stroke-linecap:butt;stroke-linejoin:round;stroke-miterlimit:4;stroke-dasharray:none;stroke-opacity:1;paint-order:stroke fill markers;filter:url(#filter864);enable-background:new"
         id="rect605"
         width="235.95665"
         height="218.39064"
         x="17.48835"
         y="52.338001"
         rx="11.29619"
         transform="matrix(0.06137263,0,0,0.06612514,319.68607,233.31857)" />
    </g>
    <g
       inkscape:groupmode="layer"
       id="layer6"
       inkscape:label="Pictogram"
       style="display:inline">
      <path
         id="path1"
         d="m 204.40705,150.8447 7.50318,-14.09149 -1.38354,-7.66339 -55.18795,11.56632 1.38355,7.66312 47.48274,-9.95138 c -4.67341,8.56466 -8.48903,16.58105 -11.49977,24.13443 -3.53549,9.94609 -5.80889,17.41845 -6.91181,22.28886 -1.64041,7.19244 -2.59689,14.38884 -2.84323,21.73115 0.07,9.8532 0.41457,17.43955 1.03313,22.75928 l 8.29804,-1.73893 c -1.40755,-10.82494 -1.60759,-21.01904 -0.58745,-30.51161 0.71503,-6.26215 2.37552,-14.85792 4.9817,-25.7876 2.28787,-7.76998 4.88719,-14.57405 7.73141,-20.39876 z m -58.48957,16.75017 c -0.78139,-4.32823 -2.13187,-8.02195 -4.1041,-10.99616 -1.95946,-2.903 -4.30292,-5.28385 -7.07097,-6.98666 -2.82094,-1.6181 -5.94749,-2.65656 -9.36666,-3.04467 -3.41918,-0.38809 -7.01196,-0.22426 -10.76589,0.5625 -4.60974,0.96618 -8.4861,2.58877 -11.68193,4.9522 -3.195848,2.36346 -5.683528,5.24139 -7.463268,8.63379 -1.77974,3.39214 -2.8114,7.1431 -3.20074,11.42225 -0.38935,4.27917 -0.13499,8.71794 0.85509,13.44458 l 7.705198,-1.61494 c -0.69349,-3.46312 -1.019408,-6.78245 -0.845788,-9.98516 0.107668,-3.18925 0.740488,-6.12021 1.885528,-8.86411 1.09213,-2.65894 2.78764,-5.00259 5.0341,-6.94628 2.25922,-1.8727 5.16047,-3.21695 8.6509,-3.94857 2.56824,-0.53823 5.14774,-0.63716 7.59354,-0.33956 2.45878,0.36833 4.71823,1.1469 6.79084,2.4062 2.07286,1.25929 3.81464,2.95629 5.22511,5.09071 1.47636,2.12071 2.47715,4.6356 3.02813,7.68688 0.65331,3.61877 0.63716,6.93598 -0.0615,9.88093 -0.76451,2.95839 -2.0687,5.95661 -3.91259,8.99389 -1.90978,3.05153 -4.17438,6.02973 -6.74065,8.85066 l -15.37319,17.06624 c -2.47492,2.9489 -4.56934,6.11255 -6.37454,9.36303 -1.79273,3.32142 -2.99432,6.88689 -3.74976,10.65369 -0.74245,3.83777 -0.80246,8.04779 -0.0485,12.60293 l 56.50512,-11.84229 -1.38353,-7.66338 -47.68035,9.9928 c -0.0898,-3.14783 0.64915,-6.24818 2.15072,-9.28757 1.51455,-2.96869 3.31828,-5.85031 5.48959,-8.5884 l 20.26624,-22.14218 c 2.17129,-2.73783 4.02792,-5.70439 5.52948,-8.7438 1.56769,-3.05337 2.6231,-6.29381 3.23211,-9.73528 0.609,-3.44148 0.57397,-7.04257 -0.1177,-10.87427 z"
         inkscape:connector-curvature="0"
         style="display:inline;fill:#333333;fill-opacity:1;stroke-width:0.254179;enable-background:new" />
      <path
         id="path571"
         d="m 354.76216,82.941322 1.54083,-2.893788 -0.28412,-1.573732 -11.33324,2.375227 0.28412,1.573676 9.75092,-2.043587 c -0.95971,1.758814 -1.74328,3.405037 -2.36156,4.956178 -0.72603,2.0425 -1.19289,3.577003 -1.41939,4.577176 -0.33686,1.477019 -0.53328,2.954851 -0.58387,4.462647 0.0144,2.023425 0.0851,3.581336 0.21216,4.673781 l 1.70406,-0.357102 c -0.28905,-2.222979 -0.33013,-4.31641 -0.12064,-6.265777 0.14684,-1.285977 0.48783,-3.05118 1.02303,-5.295668 0.46983,-1.595621 1.00362,-2.992885 1.5877,-4.189031 z m -12.01125,3.439767 c -0.16046,-0.888833 -0.43779,-1.647364 -0.84281,-2.25814 -0.40239,-0.596152 -0.88363,-1.085076 -1.45207,-1.43476 -0.5793,-0.332289 -1.22136,-0.545544 -1.92351,-0.625245 -0.70215,-0.0797 -1.43996,-0.04605 -2.21085,0.115513 -0.94665,0.198412 -1.74268,0.531623 -2.39897,1.01697 -0.65629,0.485353 -1.16715,1.076357 -1.53264,1.77301 -0.36548,0.696601 -0.57734,1.466887 -0.65729,2.345641 -0.08,0.878758 -0.0277,1.790291 0.1756,2.760941 l 1.58231,-0.33164 c -0.14241,-0.711176 -0.20934,-1.392824 -0.17368,-2.050524 0.0221,-0.654935 0.15206,-1.256829 0.3872,-1.820308 0.22428,-0.546032 0.57246,-1.027318 1.03379,-1.426468 0.46395,-0.384573 1.05974,-0.660624 1.77653,-0.810867 0.5274,-0.11053 1.05712,-0.130846 1.55938,-0.06973 0.50493,0.07564 0.96893,0.235524 1.39455,0.49413 0.42568,0.258604 0.78336,0.607095 1.07301,1.045414 0.30319,0.435503 0.5087,0.951953 0.62185,1.578555 0.13416,0.743141 0.13085,1.424353 -0.0126,2.02912 -0.15699,0.607526 -0.42482,1.223232 -0.80348,1.846959 -0.39218,0.626654 -0.85723,1.238249 -1.38424,1.817547 l -3.15699,3.504674 c -0.50824,0.605578 -0.93835,1.255256 -1.30906,1.922765 -0.36815,0.682077 -0.6149,1.414272 -0.77004,2.187811 -0.15247,0.788113 -0.16479,1.652673 -0.01,2.588103 l 11.60373,-2.4319 -0.28412,-1.57373 -9.7915,2.05209 c -0.0184,-0.646426 0.13331,-1.283105 0.44167,-1.907266 0.31102,-0.609641 0.68143,-1.201403 1.12733,-1.763689 l 4.16181,-4.547055 c 0.44589,-0.562233 0.82717,-1.171437 1.13552,-1.795601 0.32194,-0.627032 0.53867,-1.292479 0.66374,-1.99921 0.12506,-0.706732 0.11787,-1.446242 -0.0242,-2.233109 z"
         inkscape:connector-curvature="0"
         style="display:inline;fill:#333333;fill-opacity:1;stroke-width:0.0521975;enable-background:new" />
      <path
         id="path583"
         d="m 343.0188,147.30956 1.00489,-1.88726 -0.1853,-1.02634 -7.39124,1.54906 0.1853,1.02631 6.35929,-1.33278 c -0.6259,1.14706 -1.13692,2.22068 -1.54015,3.23229 -0.47349,1.33207 -0.77797,2.33283 -0.92569,2.98512 -0.21969,0.96327 -0.34779,1.92708 -0.38078,2.91042 0.009,1.31963 0.0555,2.33565 0.13836,3.04812 l 1.11135,-0.23289 c -0.18851,-1.44977 -0.2153,-2.81505 -0.0787,-4.08638 0.0958,-0.83868 0.31815,-1.9899 0.66719,-3.4537 0.30641,-1.04062 0.65454,-1.95188 1.03546,-2.73197 z m -7.83342,2.24332 c -0.10465,-0.57967 -0.28552,-1.07436 -0.54966,-1.4727 -0.26243,-0.38879 -0.57628,-0.70766 -0.947,-0.93571 -0.37781,-0.21671 -0.79654,-0.35579 -1.25447,-0.40777 -0.45792,-0.052 -0.9391,-0.03 -1.44186,0.0753 -0.61738,0.1294 -1.13653,0.34671 -1.56454,0.66324 -0.42802,0.31654 -0.76119,0.70197 -0.99955,1.15631 -0.23836,0.45431 -0.37653,0.95667 -0.42867,1.52977 -0.0522,0.5731 -0.0181,1.16758 0.11452,1.80061 l 1.03195,-0.21628 c -0.0929,-0.46381 -0.13653,-0.90837 -0.11327,-1.3373 0.0144,-0.42713 0.0992,-0.81967 0.25252,-1.18716 0.14627,-0.35611 0.37334,-0.66999 0.67421,-0.9303 0.30258,-0.25081 0.69113,-0.43085 1.15861,-0.52883 0.34395,-0.0721 0.68942,-0.0853 1.01698,-0.0455 0.3293,0.0493 0.63191,0.1536 0.90949,0.32226 0.27762,0.16865 0.51089,0.39593 0.69979,0.68179 0.19773,0.28402 0.33176,0.62084 0.40555,1.02949 0.0875,0.48466 0.0853,0.92893 -0.008,1.32334 -0.10239,0.39621 -0.27706,0.79776 -0.52401,1.20454 -0.25577,0.40869 -0.55906,0.80755 -0.90277,1.18536 l -2.0589,2.28565 c -0.33146,0.39494 -0.61197,0.81865 -0.85374,1.25398 -0.2401,0.44483 -0.40102,0.92235 -0.5022,1.42683 -0.0994,0.51399 -0.10747,1.07783 -0.007,1.6879 l 7.56765,-1.58603 -0.1853,-1.02634 -6.38576,1.33832 c -0.012,-0.42158 0.087,-0.83681 0.28805,-1.24387 0.20284,-0.39759 0.44441,-0.78352 0.73522,-1.15023 l 2.71422,-2.96547 c 0.2908,-0.36668 0.53946,-0.76398 0.74056,-1.17105 0.20996,-0.40893 0.3513,-0.84292 0.43287,-1.30383 0.0816,-0.46091 0.0769,-0.9432 -0.0158,-1.45638 z"
         inkscape:connector-curvature="0"
         style="display:inline;fill:#333333;fill-opacity:1;stroke-width:0.0340418;enable-background:new" />
      <path
         id="path595"
         d="m 337.38108,199.47066 0.77042,-1.4469 -0.14207,-0.78686 -5.66661,1.18761 0.14206,0.78684 4.87545,-1.0218 c -0.47985,0.87942 -0.87163,1.70253 -1.18078,2.47809 -0.36301,1.02126 -0.59644,1.78851 -0.70969,2.2886 -0.16843,0.7385 -0.26664,1.47742 -0.29193,2.23132 0.007,1.01171 0.0426,1.79066 0.10607,2.33689 l 0.85204,-0.17855 c -0.14453,-1.11149 -0.16507,-2.1582 -0.0603,-3.13289 0.0735,-0.64299 0.24392,-1.52559 0.51151,-2.64784 0.23492,-0.79781 0.50182,-1.49644 0.79386,-2.09451 z m -6.00562,1.71988 c -0.0802,-0.44441 -0.2189,-0.82368 -0.42141,-1.12907 -0.20119,-0.29807 -0.44181,-0.54254 -0.72603,-0.71738 -0.28965,-0.16614 -0.61068,-0.27277 -0.96176,-0.31262 -0.35107,-0.0399 -0.71998,-0.023 -1.10543,0.0577 -0.47332,0.0992 -0.87134,0.26581 -1.19948,0.50848 -0.32815,0.24268 -0.58358,0.53818 -0.76632,0.88651 -0.18274,0.3483 -0.28867,0.73344 -0.32865,1.17282 -0.04,0.43938 -0.0139,0.89515 0.0878,1.38047 l 0.79116,-0.16582 c -0.0712,-0.35558 -0.10467,-0.69641 -0.0868,-1.02526 0.011,-0.32747 0.0761,-0.62841 0.1936,-0.91015 0.11214,-0.27302 0.28623,-0.51366 0.5169,-0.71323 0.23197,-0.19229 0.52986,-0.33032 0.88826,-0.40544 0.2637,-0.0553 0.52856,-0.0654 0.77969,-0.0349 0.25246,0.0378 0.48446,0.11776 0.69727,0.24706 0.21285,0.1293 0.39169,0.30355 0.53651,0.52271 0.15159,0.21775 0.25435,0.47597 0.31092,0.78927 0.0671,0.37158 0.0654,0.71218 -0.006,1.01456 -0.0785,0.30376 -0.21241,0.61162 -0.40174,0.92348 -0.19609,0.31333 -0.42861,0.61913 -0.69213,0.90878 l -1.57849,1.75233 c -0.25412,0.30279 -0.46917,0.62763 -0.65453,0.96139 -0.18408,0.34103 -0.30745,0.70713 -0.38502,1.0939 -0.0762,0.39406 -0.0824,0.82634 -0.005,1.29406 l 5.80187,-1.21596 -0.14206,-0.78686 -4.89575,1.02604 c -0.009,-0.32321 0.0667,-0.64155 0.22083,-0.95363 0.15551,-0.30482 0.34072,-0.6007 0.56367,-0.88184 l 2.0809,-2.27353 c 0.22295,-0.28112 0.41359,-0.58572 0.56777,-0.8978 0.16097,-0.31352 0.26933,-0.64624 0.33186,-0.99961 0.0626,-0.35336 0.059,-0.72312 -0.0121,-1.11656 z"
         inkscape:connector-curvature="0"
         style="display:inline;fill:#333333;fill-opacity:1;stroke-width:0.0260987;enable-background:new" />
      <path
         id="path607"
         d="m 331.50942,243.65477 0.50245,-0.94363 -0.0927,-0.51317 -3.69561,0.77453 0.0926,0.51315 3.17964,-0.66639 c -0.31295,0.57354 -0.56846,1.11035 -0.77008,1.61615 -0.23674,0.66604 -0.38898,1.16642 -0.46284,1.49256 -0.10984,0.48163 -0.17389,0.96354 -0.19039,1.45521 0.005,0.65981 0.0278,1.16782 0.0692,1.52406 l 0.55568,-0.11645 c -0.0943,-0.72488 -0.10766,-1.40752 -0.0393,-2.04319 0.0479,-0.41934 0.15908,-0.99495 0.3336,-1.72685 0.1532,-0.52031 0.32727,-0.97594 0.51773,-1.36598 z m -3.91671,1.12166 c -0.0523,-0.28983 -0.14276,-0.53718 -0.27483,-0.73635 -0.13121,-0.19439 -0.28814,-0.35383 -0.4735,-0.46786 -0.1889,-0.10835 -0.39827,-0.17789 -0.62723,-0.20388 -0.22896,-0.026 -0.46956,-0.015 -0.72094,0.0376 -0.30868,0.0647 -0.56826,0.17335 -0.78227,0.33162 -0.21401,0.15827 -0.38059,0.35098 -0.49977,0.57816 -0.11918,0.22715 -0.18826,0.47833 -0.21434,0.76488 -0.0261,0.28655 -0.009,0.58379 0.0573,0.90031 l 0.51598,-0.10815 c -0.0464,-0.2319 -0.0683,-0.45418 -0.0566,-0.66865 0.007,-0.21356 0.0496,-0.40983 0.12626,-0.59357 0.0731,-0.17806 0.18667,-0.335 0.33711,-0.46515 0.15128,-0.12541 0.34556,-0.21543 0.5793,-0.26442 0.17198,-0.0361 0.34471,-0.0427 0.50849,-0.0228 0.16465,0.0247 0.31595,0.0768 0.45474,0.16113 0.13882,0.0843 0.25545,0.19796 0.3499,0.34089 0.0989,0.14201 0.16588,0.31042 0.20278,0.51474 0.0438,0.24234 0.0426,0.46447 -0.004,0.66167 -0.0512,0.19811 -0.13853,0.39889 -0.262,0.60227 -0.12789,0.20435 -0.27953,0.40378 -0.45139,0.59269 l -1.02945,1.14282 c -0.16573,0.19747 -0.30598,0.40932 -0.42687,0.62699 -0.12005,0.22241 -0.20051,0.46118 -0.2511,0.71342 -0.0497,0.25699 -0.0537,0.53891 -0.003,0.84395 l 3.78383,-0.79302 -0.0926,-0.51317 -3.19288,0.66916 c -0.006,-0.21079 0.0435,-0.4184 0.14402,-0.62193 0.10142,-0.1988 0.22221,-0.39176 0.36761,-0.57512 l 1.35711,-1.48273 c 0.1454,-0.18334 0.26973,-0.382 0.37028,-0.58553 0.10499,-0.20447 0.17565,-0.42146 0.21644,-0.65192 0.0408,-0.23045 0.0385,-0.4716 -0.008,-0.72819 z"
         inkscape:connector-curvature="0"
         style="display:inline;fill:#333333;fill-opacity:1;stroke-width:0.0170209;enable-background:new" />
    </g>
  </g>
</svg>
