<?xml version="1.0" encoding="UTF-8" standalone="no"?>
<svg
   inkscape:export-ydpi="90.000000"
   inkscape:export-xdpi="90.000000"
   width="400"
   height="300"
   id="svg11300"
   sodipodi:version="0.32"
   inkscape:version="1.2.2 (b0a8486541, 2022-12-01)"
   sodipodi:docname="calls-app.svg"
   inkscape:output_extension="org.inkscape.output.svg.inkscape"
   version="1.0"
   style="display:inline;enable-background:new"
   inkscape:export-filename="/home/sam/suru-template.png"
   xmlns:inkscape="http://www.inkscape.org/namespaces/inkscape"
   xmlns:sodipodi="http://sodipodi.sourceforge.net/DTD/sodipodi-0.dtd"
   xmlns="http://www.w3.org/2000/svg"
   xmlns:svg="http://www.w3.org/2000/svg"
   xmlns:rdf="http://www.w3.org/1999/02/22-rdf-syntax-ns#"
   xmlns:cc="http://creativecommons.org/ns#"
   xmlns:dc="http://purl.org/dc/elements/1.1/">
  <title
     id="title3004">Suru Icon Theme Template</title>
  <sodipodi:namedview
     stroke="#ef2929"
     fill="#f57900"
     id="base"
     pagecolor="#ffffff"
     bordercolor="#000000"
     borderopacity="0.25490196"
     inkscape:pageopacity="0"
     inkscape:pageshadow="2"
     inkscape:zoom="1.6125"
     inkscape:cx="265.42636"
     inkscape:cy="144.49612"
     inkscape:current-layer="layer2"
     showgrid="false"
     inkscape:grid-bbox="true"
     inkscape:document-units="px"
     inkscape:showpageshadow="false"
     inkscape:window-width="1920"
     inkscape:window-height="1020"
     inkscape:window-x="0"
     inkscape:window-y="32"
     width="400px"
     height="300px"
     inkscape:snap-nodes="true"
     inkscape:snap-bbox="true"
     gridtolerance="10000"
     inkscape:object-nodes="true"
     inkscape:snap-grids="true"
     showguides="true"
     inkscape:guide-bbox="true"
     inkscape:window-maximized="1"
     inkscape:bbox-paths="true"
     inkscape:snap-bbox-midpoints="true"
     inkscape:snap-global="true"
     inkscape:object-paths="true"
     inkscape:snap-intersection-paths="true"
     inkscape:snap-smooth-nodes="true"
     inkscape:pagecheckerboard="false"
     showborder="false"
     inkscape:document-rotation="0"
     inkscape:deskcolor="#d1d1d1">
    <inkscape:grid
       spacingy="1"
       spacingx="1"
       id="grid5883"
       type="xygrid"
       enabled="true"
       visible="true"
       empspacing="4"
       snapvisiblegridlinesonly="true"
       originx="0"
       originy="0" />
    <inkscape:grid
       type="xygrid"
       id="grid11592"
       empspacing="2"
       visible="true"
       enabled="false"
       spacingx="0.5"
       spacingy="0.5"
       color="#ff0000"
       opacity="0.1254902"
       empcolor="#ff0000"
       empopacity="0.25098039"
       snapvisiblegridlinesonly="true"
       originx="0"
       originy="0" />
  </sodipodi:namedview>
  <defs
     id="defs3" />
  <metadata
     id="metadata4">
    <rdf:RDF>
      <cc:Work
         rdf:about="">
        <dc:format>image/svg+xml</dc:format>
        <dc:type
           rdf:resource="http://purl.org/dc/dcmitype/StillImage" />
        <dc:creator>
          <cc:Agent>
            <dc:title>Sam Hewitt</dc:title>
          </cc:Agent>
        </dc:creator>
        <dc:source />
        <cc:license
           rdf:resource="http://creativecommons.org/licenses/by-sa/4.0/" />
        <dc:title>Suru Icon Theme Template</dc:title>
        <dc:subject>
          <rdf:Bag />
        </dc:subject>
        <dc:date />
        <dc:rights>
          <cc:Agent>
            <dc:title />
          </cc:Agent>
        </dc:rights>
        <dc:publisher>
          <cc:Agent>
            <dc:title />
          </cc:Agent>
        </dc:publisher>
        <dc:identifier />
        <dc:relation />
        <dc:language />
        <dc:coverage />
        <dc:description />
        <dc:contributor>
          <cc:Agent>
            <dc:title />
          </cc:Agent>
        </dc:contributor>
      </cc:Work>
      <cc:Work
         rdf:about="">
        <dc:format>image/svg+xml</dc:format>
        <dc:type
           rdf:resource="http://purl.org/dc/dcmitype/StillImage" />
      </cc:Work>
      <cc:License
         rdf:about="http://creativecommons.org/licenses/by-sa/4.0/">
        <cc:permits
           rdf:resource="http://creativecommons.org/ns#Reproduction" />
        <cc:permits
           rdf:resource="http://creativecommons.org/ns#Distribution" />
        <cc:requires
           rdf:resource="http://creativecommons.org/ns#Notice" />
        <cc:requires
           rdf:resource="http://creativecommons.org/ns#Attribution" />
        <cc:permits
           rdf:resource="http://creativecommons.org/ns#DerivativeWorks" />
        <cc:requires
           rdf:resource="http://creativecommons.org/ns#ShareAlike" />
      </cc:License>
    </rdf:RDF>
  </metadata>
  <g
     style="display:inline"
     inkscape:groupmode="layer"
     inkscape:label="Icon"
     id="layer1">
    <g
       style="display:none"
       inkscape:label="Baseplate"
       id="layer7"
       inkscape:groupmode="layer">
      <text
         y="-8.2548828"
         xml:space="preserve"
         x="19.006836"
         style="font-style:normal;font-variant:normal;font-weight:normal;font-stretch:normal;line-height:0%;font-family:'DejaVu Sans';-inkscape-font-specification:'DejaVu Sans';display:inline;fill:#000000;fill-opacity:1;stroke:none;enable-background:new"
         inkscape:label="context"
         id="context"><tspan
           style="font-style:normal;font-variant:normal;font-weight:normal;font-stretch:normal;font-size:18px;line-height:1.25;font-family:'DejaVu Sans';-inkscape-font-specification:'DejaVu Sans'"
           y="-8.2548828"
           x="19.006836"
           sodipodi:role="line"
           id="tspan3933">apps</tspan></text>
      <text
         y="-8.2548828"
         xml:space="preserve"
         x="146.48828"
         style="font-style:normal;font-variant:normal;font-weight:bold;font-stretch:normal;line-height:0%;font-family:'DejaVu Sans';-inkscape-font-specification:'DejaVu Sans Bold';text-align:start;writing-mode:lr-tb;text-anchor:start;display:inline;fill:#000000;fill-opacity:1;stroke:none;enable-background:new"
         inkscape:label="icon-name"
         id="icon-name"><tspan
           style="font-style:normal;font-variant:normal;font-weight:bold;font-stretch:normal;font-size:18px;line-height:1.25;font-family:'DejaVu Sans';-inkscape-font-specification:'DejaVu Sans Bold'"
           y="-8.2548828"
           x="146.48828"
           sodipodi:role="line"
           id="tspan924">org.gnome.Calls</tspan></text>
      <rect
         style="display:inline;overflow:visible;visibility:visible;fill:#cdcdcd;fill-opacity:1;fill-rule:nonzero;stroke:none;stroke-width:2;marker:none;enable-background:accumulate"
         id="rect16x16"
         width="16"
         height="16"
         x="320"
         y="236"
         inkscape:label="16x16" />
      <rect
         style="display:inline;overflow:visible;visibility:visible;fill:#cdcdcd;fill-opacity:1;fill-rule:nonzero;stroke:none;stroke-width:2;marker:none;enable-background:accumulate"
         id="rect24x24"
         width="24"
         height="24"
         x="320"
         y="188"
         inkscape:label="24x24" />
      <rect
         style="display:inline;overflow:visible;visibility:visible;fill:#cdcdcd;fill-opacity:1;fill-rule:nonzero;stroke:none;stroke-width:2;marker:none;enable-background:accumulate"
         id="rect32x32"
         width="32"
         height="32"
         x="320"
         y="132"
         inkscape:label="32x32" />
      <rect
         inkscape:label="48x48"
         y="60"
         x="320"
         height="48"
         width="48"
         id="rect48x48"
         style="display:inline;overflow:visible;visibility:visible;fill:#cdcdcd;fill-opacity:1;fill-rule:nonzero;stroke:none;stroke-width:2;marker:none;enable-background:accumulate" />
      <rect
         style="display:inline;overflow:visible;visibility:visible;fill:#cdcdcd;fill-opacity:1;fill-rule:nonzero;stroke:none;stroke-width:2;marker:none;enable-background:accumulate"
         id="rect256x256"
         width="256"
         height="256"
         x="24"
         y="28"
         inkscape:label="256x256" />
    </g>
    <g
       inkscape:groupmode="layer"
       id="layer2"
       inkscape:label="Background"
       style="display:inline">
      <path
         d="m 43.787062,92.125939 c 0.0052,1.533601 -3.766196,1.116294 -3.687951,3.077638 0.95459,23.504823 8.320059,75.855993 52.580689,120.116623 44.95441,44.9544 98.26016,51.8504 121.20162,52.62242 1.52839,0.0467 1.83615,-3.46365 3.08285,-3.45843 l 1.26236,-49.07532 C 206.03605,215.66969 155.91225,227.90201 118.15118,190.14093 80.390107,152.37986 93.936937,102.1413 94.202971,89.950723 Z"
         fill="#0067bb"
         id="path121"
         style="fill-rule:nonzero;stroke-width:5.21633" />
      <path
         d="M 213.30762,187.65274 C 241.142,187.65274 264,193.48982 264,219.99925 264,246.50868 241.43412,268 213.59974,268 c -27.83438,0 -50.40026,-21.49132 -50.40026,-48.00075 0,-26.50943 22.27376,-32.34651 50.10814,-32.34651 z M 118.88669,94.546317 c 0,27.834383 -4.37652,50.254203 -30.885943,50.254203 C 61.491314,144.80052 40,122.23464 40,94.400259 40,66.56588 61.491314,44 88.000747,44 114.51017,44 118.88669,66.711937 118.88669,94.546317 Z"
         fill="#2bb7f6"
         id="path123"
         style="fill-rule:nonzero;stroke-width:5.21633" />
      <path
         id="path4245-0"
         d="M 264,57.436135 C 264,48.480161 264.00014,44 253.56792,44 h -12.52716 c -10.43221,0 -10.43208,4.480161 -10.43208,13.436135 v 6.521731 c 0,8.955973 -1.3e-4,13.433459 10.43208,13.433459 h 12.52716 C 263.62753,77.391325 264,72.913839 264,63.957866 Z m 0,41.739157 c 0,-8.955973 1.4e-4,-13.436134 -10.43208,-13.436134 h -12.52716 c -10.43221,0 -10.43208,4.480161 -10.43208,13.436134 v 6.521728 c 0,8.95598 -1.3e-4,13.43339 10.43208,13.43339 h 12.52716 C 263.62753,119.13041 264,114.653 264,105.69702 Z m 0,41.739088 c 0,-8.95598 1.4e-4,-13.43614 -10.43208,-13.43614 h -12.52716 c -10.43221,0 -10.43208,4.48016 -10.43208,13.43614 v 6.52173 c 0,8.95597 -1.3e-4,13.43346 10.43208,13.43346 h 12.52716 C 263.62753,160.86957 264,156.39208 264,147.43611 Z M 222.26085,57.436135 C 222.26085,48.480161 222.26105,44 211.82884,44 h -12.52723 c -10.43222,0 -10.43202,4.480161 -10.43202,13.436135 v 6.521731 c 0,8.955973 -2e-4,13.433459 10.43202,13.433459 h 12.52723 c 10.05961,0 10.43201,-4.477486 10.43201,-13.433459 z m 0,41.739157 c 0,-8.955973 2e-4,-13.436134 -10.43201,-13.436134 h -12.52723 c -10.43222,0 -10.43202,4.480161 -10.43202,13.436134 v 6.521728 c 0,8.95598 -2e-4,13.43339 10.43202,13.43339 h 12.52723 c 10.05961,0 10.43201,-4.47741 10.43201,-13.43339 z M 180.52176,57.436135 C 180.52176,48.480161 180.52189,44 170.08968,44 h -12.52716 c -10.43221,0 -10.43208,4.480161 -10.43208,13.436135 v 6.521731 c 0,8.955973 -1.3e-4,13.433459 10.43208,13.433459 h 12.52716 c 10.05961,0 10.43208,-4.477486 10.43208,-13.433459 z"
         style="color:#000000;display:inline;overflow:visible;visibility:visible;fill:#0067bb;fill-opacity:1;fill-rule:nonzero;stroke:none;stroke-width:6.95647;marker:none;enable-background:accumulate"
         inkscape:connector-curvature="0" />
      <path
         d="m 321.7777,70.883005 c 0.001,0.314936 -0.77342,0.229239 -0.75735,0.632015 0.19603,4.826883 1.70859,15.577569 10.79782,24.666806 9.23171,9.231704 20.17843,10.647854 24.88962,10.806384 0.31387,0.01 0.37707,-0.71128 0.63309,-0.71021 l 0.25923,-10.077964 c -2.50342,0.05356 -12.7967,2.565554 -20.55121,-5.188952 -7.7545,-7.754506 -4.97257,-18.071352 -4.91793,-20.574775 z"
         fill="#0067bb"
         id="path868"
         style="fill-rule:nonzero;stroke-width:1.07121" />
      <path
         d="M 356.58996,90.500116 C 362.30595,90.500116 367,91.698802 367,97.142703 367,102.5866 362.36593,107 356.64994,107 c -5.71598,0 -10.35005,-4.4134 -10.35005,-9.857297 0,-5.443901 4.57408,-6.642587 10.29007,-6.642587 z M 337.19994,71.380047 c 0,5.715989 -0.89874,10.320059 -6.34264,10.320059 C 325.41339,81.700106 321,77.066042 321,71.350053 321,65.634064 325.41339,61 330.8573,61 c 5.4439,0 6.34264,4.664058 6.34264,10.380047 z"
         fill="#2bb7f6"
         id="path870"
         style="fill-rule:nonzero;stroke-width:1.07121" />
      <path
         id="path872"
         d="M 367,63.759206 C 367,61.920033 367.00003,61 364.8577,61 h -2.57255 c -2.14232,0 -2.1423,0.920033 -2.1423,2.759206 v 1.339284 c 0,1.839173 -2e-5,2.758657 2.1423,2.758657 h 2.57255 c 2.06581,0 2.1423,-0.919484 2.1423,-2.758657 z m 0,8.571434 c 0,-1.839173 3e-5,-2.759206 -2.1423,-2.759206 h -2.57255 c -2.14232,0 -2.1423,0.920033 -2.1423,2.759206 v 1.339284 c 0,1.839173 -2e-5,2.758643 2.1423,2.758643 h 2.57255 c 2.06581,0 2.1423,-0.91947 2.1423,-2.758643 z m 0,8.571419 c 0,-1.839173 3e-5,-2.759206 -2.1423,-2.759206 h -2.57255 c -2.14232,0 -2.1423,0.920033 -2.1423,2.759206 v 1.339284 c 0,1.839174 -2e-5,2.758657 2.1423,2.758657 h 2.57255 C 366.92351,85 367,84.080517 367,82.241343 Z m -8.57143,-17.142853 c 0,-1.839173 4e-5,-2.759206 -2.14229,-2.759206 h -2.57256 c -2.14233,0 -2.14229,0.920033 -2.14229,2.759206 v 1.339284 c 0,1.839173 -4e-5,2.758657 2.14229,2.758657 h 2.57256 c 2.06581,0 2.14229,-0.919484 2.14229,-2.758657 z m 0,8.571434 c 0,-1.839173 4e-5,-2.759206 -2.14229,-2.759206 h -2.57256 c -2.14233,0 -2.14229,0.920033 -2.14229,2.759206 v 1.339284 c 0,1.839173 -4e-5,2.758643 2.14229,2.758643 h 2.57256 c 2.06581,0 2.14229,-0.91947 2.14229,-2.758643 z m -8.57142,-8.571434 c 0,-1.839173 2e-5,-2.759206 -2.1423,-2.759206 H 345.1423 C 342.99997,61 343,61.920033 343,63.759206 v 1.339284 c 0,1.839173 -3e-5,2.758657 2.1423,2.758657 h 2.57255 c 2.06581,0 2.1423,-0.919484 2.1423,-2.758657 z"
         style="color:#000000;display:inline;overflow:visible;visibility:visible;fill:#0067bb;fill-opacity:1;fill-rule:nonzero;stroke:none;stroke-width:1.42856;marker:none;enable-background:accumulate"
         inkscape:connector-curvature="0" />
      <path
         d="m 321.5072,139.44544 c 7e-4,0.2054 -0.5044,0.14951 -0.49392,0.41219 0.12784,3.14796 1.11429,10.15928 7.04205,16.08704 6.02068,6.02068 13.15985,6.94425 16.23236,7.04765 0.2047,0.006 0.24592,-0.46388 0.41289,-0.46318 l 0.16906,-6.57259 c -1.63267,0.0349 -8.34567,1.67319 -13.40296,-3.3841 -5.05729,-5.05729 -3.24298,-11.78566 -3.20735,-13.41833 z"
         fill="#0067bb"
         id="path876"
         style="fill-rule:nonzero;stroke-width:0.698615" />
      <path
         d="m 344.21085,152.23921 c 3.72782,0 6.78915,0.78175 6.78915,4.33212 0,3.55037 -3.02221,6.42867 -6.75003,6.42867 -3.72782,0 -6.75004,-2.8783 -6.75004,-6.42867 0,-3.55037 2.9831,-4.33212 6.71092,-4.33212 z M 331.56519,139.7696 c 0,3.72782 -0.58614,6.73047 -4.13651,6.73047 -3.55038,0 -6.42868,-3.02221 -6.42868,-6.75003 0,-3.72782 2.8783,-6.75004 6.42868,-6.75004 3.55037,0 4.13651,3.04178 4.13651,6.7696 z"
         fill="#2bb7f6"
         id="path878"
         style="fill-rule:nonzero;stroke-width:0.698615" />
      <path
         id="path880"
         d="M 351,134.79949 C 351,133.60003 351.00002,133 349.60285,133 h -1.67774 c -1.39718,0 -1.39716,0.60003 -1.39716,1.79949 v 0.87344 c 0,1.19946 -2e-5,1.79913 1.39716,1.79913 h 1.67774 c 1.34727,0 1.39715,-0.59967 1.39715,-1.79913 z m 0,5.59006 c 0,-1.19946 2e-5,-1.79948 -1.39715,-1.79948 h -1.67774 c -1.39718,0 -1.39716,0.60002 -1.39716,1.79948 v 0.87345 c 0,1.19946 -2e-5,1.79911 1.39716,1.79911 h 1.67774 c 1.34727,0 1.39715,-0.59965 1.39715,-1.79911 z m 0,5.59006 c 0,-1.19946 2e-5,-1.79948 -1.39715,-1.79948 h -1.67774 c -1.39718,0 -1.39716,0.60002 -1.39716,1.79948 v 0.87344 c 0,1.19947 -2e-5,1.79913 1.39716,1.79913 h 1.67774 c 1.34727,0 1.39715,-0.59966 1.39715,-1.79913 z m -5.59006,-11.18012 c 0,-1.19946 3e-5,-1.79949 -1.39715,-1.79949 h -1.67775 c -1.39717,0 -1.39714,0.60003 -1.39714,1.79949 v 0.87344 c 0,1.19946 -3e-5,1.79913 1.39714,1.79913 h 1.67775 c 1.34727,0 1.39715,-0.59967 1.39715,-1.79913 z m 0,5.59006 c 0,-1.19946 3e-5,-1.79948 -1.39715,-1.79948 h -1.67775 c -1.39717,0 -1.39714,0.60002 -1.39714,1.79948 v 0.87345 c 0,1.19946 -3e-5,1.79911 1.39714,1.79911 h 1.67775 c 1.34727,0 1.39715,-0.59965 1.39715,-1.79911 z m -5.59006,-5.59006 c 0,-1.19946 2e-5,-1.79949 -1.39715,-1.79949 h -1.67775 c -1.39717,0 -1.39715,0.60003 -1.39715,1.79949 v 0.87344 c 0,1.19946 -2e-5,1.79913 1.39715,1.79913 h 1.67775 c 1.34727,0 1.39715,-0.59967 1.39715,-1.79913 z"
         style="color:#000000;display:inline;overflow:visible;visibility:visible;fill:#0067bb;fill-opacity:1;fill-rule:nonzero;stroke:none;stroke-width:0.93167;marker:none;enable-background:accumulate"
         inkscape:connector-curvature="0" />
      <path
         d="m 320.88885,193.4415 c 5.4e-4,0.15747 -0.38671,0.11462 -0.37867,0.31601 0.098,2.41344 0.85429,7.78878 5.39891,12.3334 4.61585,4.61586 10.08921,5.32393 12.44481,5.4032 0.15693,0.005 0.18853,-0.35565 0.31654,-0.35511 l 0.12962,-5.03898 c -1.25172,0.0268 -6.39836,1.28277 -10.27561,-2.59448 -3.87725,-3.87725 -2.48628,-9.03567 -2.45897,-10.28739 z"
         fill="#0067bb"
         id="path884"
         style="fill-rule:nonzero;stroke-width:0.535605" />
      <path
         d="m 338.29498,203.25006 c 2.85799,0 5.20502,0.59934 5.20502,3.32129 0,2.72195 -2.31703,4.92865 -5.17503,4.92865 -2.85799,0 -5.17502,-2.2067 -5.17502,-4.92865 0,-2.72195 2.28703,-3.32129 5.14503,-3.32129 z m -9.69501,-9.56004 c 0,2.858 -0.44937,5.16003 -3.17132,5.16003 -2.72195,0 -4.92865,-2.31703 -4.92865,-5.17502 0,-2.858 2.2067,-5.17503 4.92865,-5.17503 2.72195,0 3.17132,2.33203 3.17132,5.19002 z"
         fill="#2bb7f6"
         id="path886"
         style="fill-rule:nonzero;stroke-width:0.535605" />
      <path
         id="path888"
         d="m 343.5,189.8796 c 0,-0.91958 10e-6,-1.3796 -1.07115,-1.3796 h -1.28627 c -1.07117,0 -1.07115,0.46002 -1.07115,1.3796 v 0.66965 c 0,0.91958 -2e-5,1.37932 1.07115,1.37932 h 1.28627 c 1.0329,0 1.07115,-0.45974 1.07115,-1.37932 z m 0,4.28572 c 0,-0.91959 10e-6,-1.3796 -1.07115,-1.3796 h -1.28627 c -1.07117,0 -1.07115,0.46001 -1.07115,1.3796 v 0.66964 c 0,0.91959 -2e-5,1.37932 1.07115,1.37932 h 1.28627 c 1.0329,0 1.07115,-0.45973 1.07115,-1.37932 z m 0,4.28571 c 0,-0.91959 10e-6,-1.3796 -1.07115,-1.3796 h -1.28627 c -1.07117,0 -1.07115,0.46001 -1.07115,1.3796 v 0.66964 c 0,0.91959 -2e-5,1.37933 1.07115,1.37933 h 1.28627 c 1.0329,0 1.07115,-0.45974 1.07115,-1.37933 z m -4.28572,-8.57143 c 0,-0.91958 2e-5,-1.3796 -1.07114,-1.3796 h -1.28628 c -1.07116,0 -1.07114,0.46002 -1.07114,1.3796 v 0.66965 c 0,0.91958 -2e-5,1.37932 1.07114,1.37932 h 1.28628 c 1.03291,0 1.07114,-0.45974 1.07114,-1.37932 z m 0,4.28572 c 0,-0.91959 2e-5,-1.3796 -1.07114,-1.3796 h -1.28628 c -1.07116,0 -1.07114,0.46001 -1.07114,1.3796 v 0.66964 c 0,0.91959 -2e-5,1.37932 1.07114,1.37932 h 1.28628 c 1.03291,0 1.07114,-0.45973 1.07114,-1.37932 z m -4.28571,-4.28572 c 0,-0.91958 2e-5,-1.3796 -1.07115,-1.3796 h -1.28627 c -1.07116,0 -1.07115,0.46002 -1.07115,1.3796 v 0.66965 c 0,0.91958 -10e-6,1.37932 1.07115,1.37932 h 1.28627 c 1.03291,0 1.07115,-0.45974 1.07115,-1.37932 z"
         style="color:#000000;display:inline;overflow:visible;visibility:visible;fill:#0067bb;fill-opacity:1;fill-rule:nonzero;stroke:none;stroke-width:0.71428;marker:none;enable-background:accumulate"
         inkscape:connector-curvature="0" />
      <path
         d="m 320.75359,239.72272 c 3.5e-4,0.10269 -0.2522,0.0747 -0.24696,0.20609 0.0639,1.57398 0.55715,5.07964 3.52103,8.04352 3.01034,3.01034 6.57992,3.47213 8.11618,3.52382 0.10235,0.003 0.12296,-0.23194 0.20644,-0.23159 l 0.0845,-3.28629 c -0.81634,0.0175 -4.17284,0.83659 -6.70149,-1.69205 -2.52864,-2.52864 -1.62148,-5.89283 -1.60367,-6.70917 z"
         fill="#0067bb"
         id="path892"
         style="fill-rule:nonzero;stroke-width:0.349308" />
      <path
         d="m 332.10542,246.1196 c 1.86391,0 3.39458,0.39088 3.39458,2.16606 0,1.77519 -1.51111,3.21434 -3.37502,3.21434 -1.86391,0 -3.37502,-1.43915 -3.37502,-3.21434 0,-1.77518 1.49155,-2.16606 3.35546,-2.16606 z m -6.32283,-6.23481 c 0,1.86391 -0.29307,3.36524 -2.06826,3.36524 -1.77518,0 -3.21433,-1.51111 -3.21433,-3.37502 0,-1.86391 1.43915,-3.37501 3.21433,-3.37501 1.77519,0 2.06826,1.52089 2.06826,3.38479 z"
         fill="#2bb7f6"
         id="path894"
         style="fill-rule:nonzero;stroke-width:0.349308" />
      <path
         id="path896"
         d="m 335.5,237.39974 c 0,-0.59973 10e-6,-0.89974 -0.69858,-0.89974 h -0.83887 c -0.69859,0 -0.69858,0.30001 -0.69858,0.89974 v 0.43672 c 0,0.59973 -10e-6,0.89956 0.69858,0.89956 h 0.83887 c 0.67363,0 0.69858,-0.29983 0.69858,-0.89956 z m 0,2.79503 c 0,-0.59973 10e-6,-0.89974 -0.69858,-0.89974 h -0.83887 c -0.69859,0 -0.69858,0.30001 -0.69858,0.89974 v 0.43672 c 0,0.59973 -10e-6,0.89956 0.69858,0.89956 h 0.83887 c 0.67363,0 0.69858,-0.29983 0.69858,-0.89956 z m 0,2.79503 c 0,-0.59973 10e-6,-0.89974 -0.69858,-0.89974 h -0.83887 c -0.69859,0 -0.69858,0.30001 -0.69858,0.89974 v 0.43672 c 0,0.59973 -10e-6,0.89956 0.69858,0.89956 h 0.83887 c 0.67363,0 0.69858,-0.29983 0.69858,-0.89956 z m -2.79504,-5.59006 c 0,-0.59973 2e-5,-0.89974 -0.69857,-0.89974 h -0.83887 c -0.69859,0 -0.69858,0.30001 -0.69858,0.89974 v 0.43672 c 0,0.59973 -10e-6,0.89956 0.69858,0.89956 h 0.83887 c 0.67364,0 0.69857,-0.29983 0.69857,-0.89956 z m 0,2.79503 c 0,-0.59973 2e-5,-0.89974 -0.69857,-0.89974 h -0.83887 c -0.69859,0 -0.69858,0.30001 -0.69858,0.89974 v 0.43672 c 0,0.59973 -10e-6,0.89956 0.69858,0.89956 h 0.83887 c 0.67364,0 0.69857,-0.29983 0.69857,-0.89956 z m -2.79502,-2.79503 c 0,-0.59973 10e-6,-0.89974 -0.69858,-0.89974 h -0.83887 c -0.69859,0 -0.69858,0.30001 -0.69858,0.89974 v 0.43672 c 0,0.59973 -10e-6,0.89956 0.69858,0.89956 h 0.83887 c 0.67363,0 0.69858,-0.29983 0.69858,-0.89956 z"
         style="color:#000000;display:inline;overflow:visible;visibility:visible;fill:#0067bb;fill-opacity:1;fill-rule:nonzero;stroke:none;stroke-width:0.465835;marker:none;enable-background:accumulate"
         inkscape:connector-curvature="0" />
    </g>
    <g
       inkscape:groupmode="layer"
       id="layer6"
       inkscape:label="Pictogram"
       style="display:inline" />
  </g>
</svg>
