<?xml version="1.0" encoding="UTF-8" standalone="no"?>
<svg
   inkscape:export-ydpi="96"
   inkscape:export-xdpi="96"
   width="400"
   height="300"
   id="svg11300"
   sodipodi:version="0.32"
   inkscape:version="1.2.2 (b0a8486541, 2022-12-01)"
   sodipodi:docname="camera-app.svg"
   inkscape:output_extension="org.inkscape.output.svg.inkscape"
   version="1.0"
   style="display:inline;enable-background:new"
   inkscape:export-filename="C:\Users\sblav\Pictures\camera-app.png"
   xmlns:inkscape="http://www.inkscape.org/namespaces/inkscape"
   xmlns:sodipodi="http://sodipodi.sourceforge.net/DTD/sodipodi-0.dtd"
   xmlns:xlink="http://www.w3.org/1999/xlink"
   xmlns="http://www.w3.org/2000/svg"
   xmlns:svg="http://www.w3.org/2000/svg"
   xmlns:rdf="http://www.w3.org/1999/02/22-rdf-syntax-ns#"
   xmlns:cc="http://creativecommons.org/ns#"
   xmlns:dc="http://purl.org/dc/elements/1.1/">
  <title
     id="title3004">Suru Icon Theme Template</title>
  <sodipodi:namedview
     stroke="#ef2929"
     fill="#f57900"
     id="base"
     pagecolor="#ffffff"
     bordercolor="#000000"
     borderopacity="0.25490196"
     inkscape:pageopacity="0"
     inkscape:pageshadow="2"
     inkscape:zoom="2.8284271"
     inkscape:cx="220.26376"
     inkscape:cy="159.09903"
     inkscape:current-layer="layer6"
     showgrid="false"
     inkscape:grid-bbox="true"
     inkscape:document-units="px"
     inkscape:showpageshadow="false"
     inkscape:window-width="1920"
     inkscape:window-height="1020"
     inkscape:window-x="0"
     inkscape:window-y="32"
     width="400px"
     height="300px"
     inkscape:snap-nodes="true"
     inkscape:snap-bbox="true"
     gridtolerance="10000"
     inkscape:object-nodes="true"
     inkscape:snap-grids="true"
     showguides="false"
     inkscape:guide-bbox="true"
     inkscape:window-maximized="1"
     inkscape:bbox-paths="true"
     inkscape:snap-bbox-midpoints="true"
     inkscape:snap-global="true"
     inkscape:object-paths="true"
     inkscape:snap-intersection-paths="true"
     inkscape:snap-smooth-nodes="true"
     inkscape:pagecheckerboard="false"
     showborder="false"
     inkscape:document-rotation="0"
     inkscape:deskcolor="#d1d1d1" />
  <defs
     id="defs3">
    <clipPath
       clipPathUnits="userSpaceOnUse"
       id="clipPath994">
      <path
         style="color:#000000;display:inline;overflow:visible;visibility:visible;fill:#cdcdcd;fill-opacity:1;fill-rule:nonzero;stroke:none;stroke-width:2;stroke-miterlimit:4;stroke-dasharray:none;stroke-opacity:1;marker:none;enable-background:accumulate"
         d="m 335.73108,62 c -8.82418,0 -9.77365,0.90635 -9.7304,9.74838 V 84 96.25162 c -0.0433,8.84203 0.90622,9.74838 9.7304,9.74838 h 16.53919 c 8.82418,0 9.7304,-0.90625 9.7304,-9.74838 V 84 71.74838 C 362.00067,62.90625 361.09445,62 352.27027,62 Z"
         id="path996"
         inkscape:connector-curvature="0"
         sodipodi:nodetypes="scccssscsss" />
    </clipPath>
    <clipPath
       clipPathUnits="userSpaceOnUse"
       id="clipPath971">
      <path
         style="color:#000000;display:inline;overflow:visible;visibility:visible;opacity:1;fill:#46a926;fill-opacity:1;fill-rule:nonzero;stroke:none;stroke-width:2;stroke-miterlimit:4;stroke-dasharray:none;stroke-opacity:1;marker:none;enable-background:accumulate"
         d="m 327.8652,189 c -4.41209,0 -4.88682,0.45318 -4.8652,4.87419 V 200 206.12581 C 322.9783,210.54682 323.45311,211 327.8652,211 h 8.2696 C 340.54689,211 341,210.54688 341,206.12581 V 200 193.87419 C 341,189.45313 340.54688,189 336.13479,189 Z"
         id="path973"
         inkscape:connector-curvature="0"
         sodipodi:nodetypes="scccssscsss" />
    </clipPath>
    <clipPath
       clipPathUnits="userSpaceOnUse"
       id="clipPath983">
      <path
         sodipodi:nodetypes="scccssscsss"
         inkscape:connector-curvature="0"
         id="path985"
         d="m 325.09646,237 c -2.80769,0 -3.10979,0.28839 -3.09603,3.10176 V 244 v 3.89824 c -0.0138,2.81337 0.28834,3.10176 3.09603,3.10176 h 5.8075 C 333.71166,251 334,250.71165 334,247.89824 V 244 240.10176 C 334,237.28836 333.71165,237 330.90396,237 Z"
         style="color:#000000;display:inline;overflow:visible;visibility:visible;opacity:1;fill:#46a926;fill-opacity:1;fill-rule:nonzero;stroke:none;stroke-width:2;stroke-miterlimit:4;stroke-dasharray:none;stroke-opacity:1;marker:none;enable-background:accumulate" />
    </clipPath>
    <clipPath
       clipPathUnits="userSpaceOnUse"
       id="clipPath994-1">
      <path
         style="color:#000000;display:inline;overflow:visible;visibility:visible;fill:#cdcdcd;fill-opacity:1;fill-rule:nonzero;stroke:none;stroke-width:2;stroke-miterlimit:4;stroke-dasharray:none;stroke-opacity:1;marker:none;enable-background:accumulate"
         d="m 335.73108,62 c -8.82418,0 -9.77365,0.90635 -9.7304,9.74838 V 84 96.25162 c -0.0433,8.84203 0.90622,9.74838 9.7304,9.74838 h 16.53919 c 8.82418,0 9.7304,-0.90625 9.7304,-9.74838 V 84 71.74838 C 362.00067,62.90625 361.09445,62 352.27027,62 Z"
         id="path996-8"
         inkscape:connector-curvature="0"
         sodipodi:nodetypes="scccssscsss" />
    </clipPath>
    <linearGradient
       id="c"
       x2="1"
       gradientTransform="matrix(0,-63.373626,63.373626,0,1822.5838,186.94662)"
       gradientUnits="userSpaceOnUse">
      <stop
         stop-color="#006783"
         offset="0"
         id="stop12" />
      <stop
         stop-color="#13bee3"
         offset="1"
         id="stop14" />
    </linearGradient>
    <linearGradient
       id="b"
       x2="1"
       gradientTransform="matrix(1.1691023e-6,-90.613223,90.613223,1.1691023e-6,1667.0786,201.30661)"
       gradientUnits="userSpaceOnUse">
      <stop
         stop-color="#a7a7a7"
         offset="0"
         id="stop7" />
      <stop
         stop-color="#3b3b3b"
         offset="1"
         id="stop9" />
    </linearGradient>
    <linearGradient
       id="a"
       x2="1"
       gradientTransform="matrix(0.27825707,-141.911,141.911,0.27825707,1807.4586,230.20828)"
       gradientUnits="userSpaceOnUse">
      <stop
         stop-color="#333"
         offset="0"
         id="stop2" />
      <stop
         stop-color="#828282"
         offset="1"
         id="stop4" />
    </linearGradient>
    <linearGradient
       inkscape:collect="always"
       xlink:href="#a"
       id="linearGradient1289"
       gradientUnits="userSpaceOnUse"
       gradientTransform="matrix(0.05714208,-29.142437,29.142437,0.05714208,683.96024,101.22639)"
       x2="1" />
    <linearGradient
       inkscape:collect="always"
       xlink:href="#b"
       id="linearGradient1291"
       gradientUnits="userSpaceOnUse"
       gradientTransform="matrix(2.400835e-7,-18.608072,18.608072,2.400835e-7,655.1322,95.291229)"
       x2="1" />
    <linearGradient
       inkscape:collect="always"
       xlink:href="#c"
       id="linearGradient1293"
       gradientUnits="userSpaceOnUse"
       gradientTransform="matrix(0,-13.014227,13.014227,0,687.06631,92.342302)"
       x2="1" />
    <linearGradient
       inkscape:collect="always"
       xlink:href="#a"
       id="linearGradient1311"
       gradientUnits="userSpaceOnUse"
       gradientTransform="matrix(0.03602435,-18.372407,18.372407,0.03602435,550.32277,158.86012)"
       x2="1" />
    <linearGradient
       inkscape:collect="always"
       xlink:href="#b"
       id="linearGradient1313"
       gradientUnits="userSpaceOnUse"
       gradientTransform="matrix(1.51357e-7,-11.731177,11.731177,1.51357e-7,532.14858,155.11839)"
       x2="1" />
    <linearGradient
       inkscape:collect="always"
       xlink:href="#c"
       id="linearGradient1315"
       gradientUnits="userSpaceOnUse"
       gradientTransform="matrix(0,-8.2046215,8.2046215,0,552.28095,153.25928)"
       x2="1" />
    <linearGradient
       inkscape:collect="always"
       xlink:href="#a"
       id="linearGradient1333"
       gradientUnits="userSpaceOnUse"
       gradientTransform="matrix(0.02857026,-14.570823,14.570823,0.02857026,501.9755,208.61296)"
       x2="1" />
    <linearGradient
       inkscape:collect="always"
       xlink:href="#b"
       id="linearGradient1335"
       gradientUnits="userSpaceOnUse"
       gradientTransform="matrix(1.2003849e-7,-9.3037833,9.3037833,1.2003849e-7,487.56188,205.64546)"
       x2="1" />
    <linearGradient
       inkscape:collect="always"
       xlink:href="#c"
       id="linearGradient1337"
       gradientUnits="userSpaceOnUse"
       gradientTransform="matrix(0,-6.5069365,6.5069365,0,503.52849,204.17104)"
       x2="1" />
    <linearGradient
       inkscape:collect="always"
       xlink:href="#a"
       id="linearGradient1355"
       gradientUnits="userSpaceOnUse"
       gradientTransform="matrix(0.01863329,-9.5029694,9.5029694,0.01863329,438.85661,249.6173)"
       x2="1" />
    <linearGradient
       inkscape:collect="always"
       xlink:href="#b"
       id="linearGradient1357"
       gradientUnits="userSpaceOnUse"
       gradientTransform="matrix(7.8288105e-8,-6.0678501,6.0678501,7.8288105e-8,429.45616,247.68192)"
       x2="1" />
    <linearGradient
       inkscape:collect="always"
       xlink:href="#c"
       id="linearGradient1359"
       gradientUnits="userSpaceOnUse"
       gradientTransform="matrix(0,-4.2437699,4.2437699,0,439.86946,246.72032)"
       x2="1" />
    <linearGradient
       inkscape:collect="always"
       xlink:href="#a"
       id="linearGradient1451"
       gradientUnits="userSpaceOnUse"
       gradientTransform="matrix(0.27825707,-141.911,141.911,0.27825707,1807.4586,239.88504)"
       x2="1" />
    <linearGradient
       inkscape:collect="always"
       xlink:href="#b"
       id="linearGradient1453"
       gradientUnits="userSpaceOnUse"
       gradientTransform="matrix(1.1691023e-6,-90.613223,90.613223,1.1691023e-6,1667.0786,210.98337)"
       x2="1" />
    <linearGradient
       inkscape:collect="always"
       xlink:href="#c"
       id="linearGradient1455"
       gradientUnits="userSpaceOnUse"
       gradientTransform="matrix(0,-63.373626,63.373626,0,1822.5838,196.62338)"
       x2="1" />
  </defs>
  <metadata
     id="metadata4">
    <rdf:RDF>
      <cc:Work
         rdf:about="">
        <dc:format>image/svg+xml</dc:format>
        <dc:type
           rdf:resource="http://purl.org/dc/dcmitype/StillImage" />
        <dc:creator>
          <cc:Agent>
            <dc:title>Sam Hewitt</dc:title>
          </cc:Agent>
        </dc:creator>
        <dc:source />
        <cc:license
           rdf:resource="http://creativecommons.org/licenses/by-sa/4.0/" />
        <dc:title>Suru Icon Theme Template</dc:title>
        <dc:subject>
          <rdf:Bag />
        </dc:subject>
        <dc:date />
        <dc:rights>
          <cc:Agent>
            <dc:title />
          </cc:Agent>
        </dc:rights>
        <dc:publisher>
          <cc:Agent>
            <dc:title />
          </cc:Agent>
        </dc:publisher>
        <dc:identifier />
        <dc:relation />
        <dc:language />
        <dc:coverage />
        <dc:description />
        <dc:contributor>
          <cc:Agent>
            <dc:title />
          </cc:Agent>
        </dc:contributor>
      </cc:Work>
      <cc:Work
         rdf:about="">
        <dc:format>image/svg+xml</dc:format>
        <dc:type
           rdf:resource="http://purl.org/dc/dcmitype/StillImage" />
      </cc:Work>
      <cc:License
         rdf:about="http://creativecommons.org/licenses/by-sa/4.0/">
        <cc:permits
           rdf:resource="http://creativecommons.org/ns#Reproduction" />
        <cc:permits
           rdf:resource="http://creativecommons.org/ns#Distribution" />
        <cc:requires
           rdf:resource="http://creativecommons.org/ns#Notice" />
        <cc:requires
           rdf:resource="http://creativecommons.org/ns#Attribution" />
        <cc:permits
           rdf:resource="http://creativecommons.org/ns#DerivativeWorks" />
        <cc:requires
           rdf:resource="http://creativecommons.org/ns#ShareAlike" />
      </cc:License>
    </rdf:RDF>
  </metadata>
  <g
     style="display:inline"
     inkscape:groupmode="layer"
     inkscape:label="Icon"
     id="layer1">
    <g
       style="display:none"
       inkscape:label="Baseplate"
       id="layer7"
       inkscape:groupmode="layer"
       sodipodi:insensitive="true">
      <text
         y="-8.2548828"
         xml:space="preserve"
         x="19.006836"
         style="font-style:normal;font-variant:normal;font-weight:normal;font-stretch:normal;line-height:0%;font-family:'DejaVu Sans';-inkscape-font-specification:'DejaVu Sans';display:inline;fill:#000000;fill-opacity:1;stroke:none;enable-background:new"
         inkscape:label="context"
         id="context"><tspan
           style="font-style:normal;font-variant:normal;font-weight:normal;font-stretch:normal;font-size:18px;line-height:1.25;font-family:'DejaVu Sans';-inkscape-font-specification:'DejaVu Sans'"
           y="-8.2548828"
           x="19.006836"
           sodipodi:role="line"
           id="tspan3933">apps</tspan></text>
      <text
         y="-8.2548828"
         xml:space="preserve"
         x="146.48828"
         style="font-style:normal;font-variant:normal;font-weight:bold;font-stretch:normal;line-height:0%;font-family:'DejaVu Sans';-inkscape-font-specification:'DejaVu Sans Bold';text-align:start;writing-mode:lr-tb;text-anchor:start;display:inline;fill:#000000;fill-opacity:1;stroke:none;enable-background:new"
         inkscape:label="icon-name"
         id="icon-name"><tspan
           style="font-style:normal;font-variant:normal;font-weight:bold;font-stretch:normal;font-size:18px;line-height:1.25;font-family:'DejaVu Sans';-inkscape-font-specification:'DejaVu Sans Bold'"
           y="-8.2548828"
           x="146.48828"
           sodipodi:role="line"
           id="tspan3937">camera-app</tspan></text>
      <rect
         style="display:inline;overflow:visible;visibility:visible;fill:#cdcdcd;fill-opacity:1;fill-rule:nonzero;stroke:none;stroke-width:2;marker:none;enable-background:accumulate"
         id="rect16x16"
         width="16"
         height="16"
         x="320"
         y="236"
         inkscape:label="16x16" />
      <rect
         style="display:inline;overflow:visible;visibility:visible;fill:#cdcdcd;fill-opacity:1;fill-rule:nonzero;stroke:none;stroke-width:2;marker:none;enable-background:accumulate"
         id="rect24x24"
         width="24"
         height="24"
         x="320"
         y="188"
         inkscape:label="24x24" />
      <rect
         style="display:inline;overflow:visible;visibility:visible;fill:#cdcdcd;fill-opacity:1;fill-rule:nonzero;stroke:none;stroke-width:2;marker:none;enable-background:accumulate"
         id="rect32x32"
         width="32"
         height="32"
         x="320"
         y="132"
         inkscape:label="32x32" />
      <rect
         inkscape:label="48x48"
         y="60"
         x="320"
         height="48"
         width="48"
         id="rect48x48"
         style="display:inline;overflow:visible;visibility:visible;fill:#cdcdcd;fill-opacity:1;fill-rule:nonzero;stroke:none;stroke-width:2;marker:none;enable-background:accumulate" />
      <rect
         style="display:inline;overflow:visible;visibility:visible;fill:#cdcdcd;fill-opacity:1;fill-rule:nonzero;stroke:none;stroke-width:2;marker:none;enable-background:accumulate"
         id="rect256x256"
         width="256"
         height="256"
         x="24"
         y="28"
         inkscape:label="256x256" />
    </g>
    <g
       inkscape:groupmode="layer"
       id="layer8"
       inkscape:label="Backgrounds"
       style="display:inline">
      <path
         d="m 179.57133,84.448507 c -3.03967,-7.25818 -10.14196,-11.98817 -18.01879,-11.98817 h -60.86152 c -7.56506,0 -14.45302,4.37439 -17.67293,11.22338 -5.25121,11.1698 -12.53375,26.660403 -12.53375,26.660403 h 119.93041 c 0,0 -6.19624,-14.794013 -10.84342,-25.895613 z"
         fill="#808080"
         id="path17"
         style="stroke-width:4.87126" />
      <path
         d="m 264,125.2453 c 0,-7.32638 -2.91301,-14.35073 -8.09116,-19.52887 -5.17815,-5.18302 -12.20251,-8.091163 -19.52888,-8.091163 H 67.62004 c -7.32637,0 -14.35073,2.908143 -19.52888,8.091163 C 42.91301,110.89457 40,117.91892 40,125.2453 v 86.67432 c 0,7.32637 2.91301,14.35073 8.09116,19.52888 5.17815,5.17816 12.20251,8.09116 19.52888,8.09116 h 168.75992 c 7.32637,0 14.35073,-2.913 19.52888,-8.09116 C 261.08699,226.27035 264,219.24599 264,211.91962 Z"
         id="path19"
         style="stroke-width:4.87126" />
      <path
         d="m 264,122.33716 c 0,-7.32151 -2.91301,-14.34585 -8.09116,-19.52887 -5.17815,-5.178153 -12.20251,-8.086293 -19.52888,-8.086293 H 67.62004 c -7.32637,0 -14.35073,2.90814 -19.52888,8.086293 C 42.91301,107.99131 40,115.01565 40,122.33716 v 86.67919 c 0,7.3215 2.91301,14.34586 8.09116,19.52888 5.17815,5.17815 12.20251,8.08629 19.52888,8.08629 h 168.75992 c 7.32637,0 14.35073,-2.90814 19.52888,-8.08629 C 261.08699,223.36221 264,216.33785 264,209.01635 Z"
         fill="url(#a)"
         id="path21"
         style="fill:url(#linearGradient1451);stroke-width:4.87126" />
      <path
         d="m 349.66196,69.306391 c -0.62421,-1.490519 -2.08272,-2.461857 -3.70028,-2.461857 h -12.49835 c -1.55354,0 -2.96803,0.898313 -3.62926,2.304802 -1.07838,2.293798 -2.5739,5.474904 -2.5739,5.474904 h 24.62857 c 0,0 -1.27244,-3.038056 -2.22678,-5.317849 z"
         fill="#808080"
         id="path1273"
         style="stroke-width:1.00035" />
      <path
         d="m 366.99999,77.684304 c 0,-1.504525 -0.5982,-2.947025 -1.66157,-4.010394 -1.06337,-1.06437 -2.50588,-1.661578 -4.0104,-1.661578 h -34.65605 c -1.50452,0 -2.94703,0.597208 -4.0104,1.661578 C 321.5982,74.737279 321,76.179779 321,77.684304 v 17.79919 c 0,1.504523 0.5982,2.947025 1.66157,4.010395 1.06337,1.063371 2.50588,1.661581 4.0104,1.661581 h 34.65605 c 1.50452,0 2.94703,-0.59821 4.0104,-1.661581 1.06337,-1.06337 1.66157,-2.505872 1.66157,-4.010395 z"
         id="path1275"
         style="stroke-width:1.00035" />
      <path
         d="m 366.99999,77.087097 c 0,-1.503525 -0.5982,-2.946024 -1.66157,-4.010394 -1.06337,-1.06337 -2.50588,-1.660578 -4.0104,-1.660578 h -34.65605 c -1.50452,0 -2.94703,0.597208 -4.0104,1.660578 C 321.5982,74.141073 321,75.583572 321,77.087097 v 17.80019 c 0,1.503522 0.5982,2.946025 1.66157,4.010395 1.06337,1.06337 2.50588,1.660578 4.0104,1.660578 h 34.65605 c 1.50452,0 2.94703,-0.597208 4.0104,-1.660578 1.06337,-1.06437 1.66157,-2.506873 1.66157,-4.010395 z"
         fill="url(#a)"
         id="path1277"
         style="fill:url(#linearGradient1289);stroke-width:1.00035" />
      <path
         d="m 339.5695,138.73664 c -0.39352,-0.93967 -1.31302,-1.55204 -2.33279,-1.55204 h -7.87939 c -0.9794,0 -1.87115,0.56633 -2.28801,1.45303 -0.67985,1.44609 -1.62267,3.45157 -1.62267,3.45157 h 15.5267 c 0,0 -0.80219,-1.9153 -1.40384,-3.35256 z"
         fill="#808080"
         id="path1295"
         style="stroke-width:0.630654" />
      <path
         d="m 350.5,144.01837 c 0,-0.94851 -0.37713,-1.85791 -1.04751,-2.52829 -0.67039,-0.67102 -1.57979,-1.04752 -2.5283,-1.04752 h -21.84838 c -0.9485,0 -1.85791,0.3765 -2.52829,1.04752 -0.67039,0.67038 -1.04752,1.57978 -1.04752,2.52829 v 11.22123 c 0,0.9485 0.37713,1.85791 1.04752,2.52829 0.67038,0.67039 1.57979,1.04752 2.52829,1.04752 h 21.84838 c 0.94851,0 1.85791,-0.37713 2.5283,-1.04752 0.67038,-0.67038 1.04751,-1.57979 1.04751,-2.52829 z"
         id="path1297"
         style="stroke-width:0.630654" />
      <path
         d="m 350.5,143.64187 c 0,-0.94788 -0.37713,-1.85728 -1.04751,-2.52829 -0.67039,-0.67039 -1.57979,-1.04689 -2.5283,-1.04689 h -21.84838 c -0.9485,0 -1.85791,0.3765 -2.52829,1.04689 -0.67039,0.67101 -1.04752,1.58041 -1.04752,2.52829 v 11.22186 c 0,0.94787 0.37713,1.85728 1.04752,2.52829 0.67038,0.67039 1.57979,1.04689 2.52829,1.04689 h 21.84838 c 0.94851,0 1.85791,-0.3765 2.5283,-1.04689 0.67038,-0.67101 1.04751,-1.58042 1.04751,-2.52829 z"
         fill="url(#a)"
         id="path1299"
         style="fill:url(#linearGradient1311);stroke-width:0.630654" />
      <path
         d="m 334.83091,192.6534 c -0.3121,-0.74524 -1.04134,-1.2309 -1.8501,-1.2309 h -6.249 c -0.77675,0 -1.48398,0.44915 -1.81458,1.15237 -0.53917,1.14687 -1.28692,2.73738 -1.28692,2.73738 h 12.31395 c 0,0 -0.6362,-1.51899 -1.11335,-2.65885 z"
         fill="#808080"
         id="path1317"
         style="stroke-width:0.50016" />
      <path
         d="m 343.49969,196.84224 c 0,-0.75224 -0.2991,-1.47347 -0.83077,-2.00514 -0.53167,-0.53217 -1.2529,-0.83077 -2.00514,-0.83077 h -17.32756 c -0.75224,0 -1.47347,0.2986 -2.00514,0.83077 -0.53167,0.53167 -0.83077,1.2529 -0.83077,2.00514 v 8.89935 c 0,0.75224 0.2991,1.47348 0.83077,2.00515 0.53167,0.53167 1.2529,0.83076 2.00514,0.83076 h 17.32756 c 0.75224,0 1.47347,-0.29909 2.00514,-0.83076 0.53167,-0.53167 0.83077,-1.25291 0.83077,-2.00515 z"
         id="path1319"
         style="stroke-width:0.50016" />
      <path
         d="m 343.49969,196.54364 c 0,-0.75174 -0.2991,-1.47297 -0.83077,-2.00514 -0.53167,-0.53167 -1.2529,-0.83026 -2.00514,-0.83026 h -17.32756 c -0.75224,0 -1.47347,0.29859 -2.00514,0.83026 -0.53167,0.53217 -0.83077,1.2534 -0.83077,2.00514 v 8.89986 c 0,0.75174 0.2991,1.47297 0.83077,2.00514 0.53167,0.53167 1.2529,0.83027 2.00514,0.83027 h 17.32756 c 0.75224,0 1.47347,-0.2986 2.00514,-0.83027 0.53167,-0.53217 0.83077,-1.2534 0.83077,-2.00514 z"
         fill="url(#a)"
         id="path1321"
         style="fill:url(#linearGradient1333);stroke-width:0.50016" />
      <path
         d="m 329.8463,239.20861 c -0.20355,-0.48604 -0.67915,-0.80278 -1.20662,-0.80278 h -4.07555 c -0.50659,0 -0.96783,0.29293 -1.18345,0.75156 -0.35165,0.74798 -0.83932,1.7853 -0.83932,1.7853 h 8.03106 c 0,0 -0.41493,-0.99067 -0.72612,-1.73408 z"
         fill="#808080"
         id="path1339"
         style="stroke-width:0.3262" />
      <path
         d="m 335.5,241.94054 c 0,-0.49061 -0.19507,-0.96099 -0.54182,-1.30774 -0.34675,-0.34708 -0.81713,-0.54182 -1.30773,-0.54182 h -11.30089 c -0.49061,0 -0.96099,0.19474 -1.30774,0.54182 -0.34675,0.34675 -0.54182,0.81713 -0.54182,1.30774 v 5.80408 c 0,0.4906 0.19507,0.96099 0.54182,1.30774 0.34675,0.34675 0.81713,0.54182 1.30774,0.54182 h 11.30089 c 0.4906,0 0.96098,-0.19507 1.30773,-0.54182 0.34675,-0.34675 0.54182,-0.81714 0.54182,-1.30774 z"
         id="path1341"
         style="stroke-width:0.3262" />
      <path
         d="m 335.5,241.74579 c 0,-0.49028 -0.19507,-0.96066 -0.54182,-1.30773 -0.34675,-0.34675 -0.81713,-0.5415 -1.30773,-0.5415 h -11.30089 c -0.49061,0 -0.96099,0.19475 -1.30774,0.5415 -0.34675,0.34707 -0.54182,0.81745 -0.54182,1.30773 v 5.80441 c 0,0.49028 0.19507,0.96066 0.54182,1.30774 0.34675,0.34675 0.81713,0.54149 1.30774,0.54149 h 11.30089 c 0.4906,0 0.96098,-0.19474 1.30773,-0.54149 0.34675,-0.34708 0.54182,-0.81746 0.54182,-1.30774 z"
         fill="url(#a)"
         id="path1343"
         style="fill:url(#linearGradient1355);stroke-width:0.3262" />
    </g>
    <g
       inkscape:groupmode="layer"
       id="layer6"
       inkscape:label="Pictograms"
       style="display:inline">
      <circle
         cx="221.42516"
         cy="121.50414"
         r="11.160055"
         fill="#00f47c"
         id="circle23"
         style="display:inline;stroke-width:4.87126;enable-background:new" />
      <circle
         cx="130.8246"
         cy="165.67676"
         r="57.661098"
         fill="#ebebeb"
         id="circle25"
         style="display:inline;stroke-width:4.87126;enable-background:new" />
      <circle
         cx="130.8246"
         cy="165.67676"
         r="45.307583"
         fill="url(#b)"
         id="circle27"
         style="display:inline;fill:url(#linearGradient1453);stroke-width:4.87126;enable-background:new" />
      <circle
         cx="130.8246"
         cy="165.67676"
         r="40.762699"
         fill="url(#c)"
         id="circle29"
         style="display:inline;fill:url(#linearGradient1455);stroke-width:4.87126;enable-background:new" />
      <circle
         cx="358.25696"
         cy="76.916031"
         r="2.2917969"
         fill="#00f47c"
         id="circle1279"
         style="display:inline;stroke-width:1.00035;enable-background:new" />
      <circle
         cx="339.65149"
         cy="85.98719"
         r="11.841118"
         fill="#ebebeb"
         id="circle1281"
         style="display:inline;stroke-width:1.00035;enable-background:new" />
      <circle
         cx="339.65149"
         cy="85.98719"
         r="9.3042355"
         fill="url(#b)"
         id="circle1283"
         style="display:inline;fill:url(#linearGradient1291);stroke-width:1.00035;enable-background:new" />
      <circle
         cx="339.65149"
         cy="85.98719"
         r="8.3709116"
         fill="url(#c)"
         id="circle1285"
         style="display:inline;fill:url(#linearGradient1293);stroke-width:1.00035;enable-background:new" />
      <circle
         cx="344.98807"
         cy="143.53403"
         r="1.4448286"
         fill="#00f47c"
         id="circle1301"
         style="display:inline;stroke-width:0.630654;enable-background:new" />
      <circle
         cx="333.25854"
         cy="149.25279"
         r="7.4650531"
         fill="#ebebeb"
         id="circle1303"
         style="display:inline;stroke-width:0.630654;enable-background:new" />
      <circle
         cx="333.25854"
         cy="149.25279"
         r="5.8657141"
         fill="url(#b)"
         id="circle1305"
         style="display:inline;fill:url(#linearGradient1313);stroke-width:0.630654;enable-background:new" />
      <circle
         cx="333.25854"
         cy="149.25279"
         r="5.2773137"
         fill="url(#c)"
         id="circle1307"
         style="display:inline;fill:url(#linearGradient1315);stroke-width:0.630654;enable-background:new" />
      <circle
         cx="339.12827"
         cy="196.45811"
         r="1.1458673"
         fill="#00f47c"
         id="circle1323"
         style="display:inline;stroke-width:0.50016;enable-background:new" />
      <circle
         cx="329.82581"
         cy="200.99358"
         r="5.9203982"
         fill="#ebebeb"
         id="circle1325"
         style="display:inline;stroke-width:0.50016;enable-background:new" />
      <circle
         cx="329.82581"
         cy="200.99358"
         r="4.6519914"
         fill="url(#b)"
         id="circle1327"
         style="display:inline;fill:url(#linearGradient1335);stroke-width:0.50016;enable-background:new" />
      <circle
         cx="329.82581"
         cy="200.99358"
         r="4.1853418"
         fill="url(#c)"
         id="circle1329"
         style="display:inline;fill:url(#linearGradient1337);stroke-width:0.50016;enable-background:new" />
      <circle
         cx="332.64902"
         cy="241.69002"
         r="0.74732518"
         fill="#00f47c"
         id="circle1345"
         style="display:inline;enable-background:new;stroke-width:0.3262" />
      <circle
         cx="326.582"
         cy="244.64799"
         r="3.8612344"
         fill="#ebebeb"
         id="circle1347"
         style="display:inline;enable-background:new;stroke-width:0.3262" />
      <circle
         cx="326.582"
         cy="244.64799"
         r="3.0339901"
         fill="url(#b)"
         id="circle1349"
         style="display:inline;enable-background:new;fill:url(#linearGradient1357);stroke-width:0.3262" />
      <circle
         cx="326.582"
         cy="244.64799"
         r="2.7296453"
         fill="url(#c)"
         id="circle1351"
         style="display:inline;enable-background:new;fill:url(#linearGradient1359);stroke-width:0.3262" />
    </g>
  </g>
</svg>
