<?xml version="1.0" encoding="UTF-8" standalone="no"?>
<svg
   inkscape:export-ydpi="90.000000"
   inkscape:export-xdpi="90.000000"
   width="400"
   height="300"
   id="svg11300"
   sodipodi:version="0.32"
   inkscape:version="1.2.2 (b0a8486541, 2022-12-01)"
   sodipodi:docname="configurator-app.svg"
   inkscape:output_extension="org.inkscape.output.svg.inkscape"
   version="1.0"
   style="display:inline;enable-background:new"
   inkscape:export-filename="/home/sam/suru-template.png"
   xmlns:inkscape="http://www.inkscape.org/namespaces/inkscape"
   xmlns:sodipodi="http://sodipodi.sourceforge.net/DTD/sodipodi-0.dtd"
   xmlns:xlink="http://www.w3.org/1999/xlink"
   xmlns="http://www.w3.org/2000/svg"
   xmlns:svg="http://www.w3.org/2000/svg"
   xmlns:rdf="http://www.w3.org/1999/02/22-rdf-syntax-ns#"
   xmlns:cc="http://creativecommons.org/ns#"
   xmlns:dc="http://purl.org/dc/elements/1.1/">
  <title
     id="title3004">Suru Icon Theme Template</title>
  <sodipodi:namedview
     stroke="#ef2929"
     fill="#f57900"
     id="base"
     pagecolor="#ffffff"
     bordercolor="#000000"
     borderopacity="0.25490196"
     inkscape:pageopacity="0"
     inkscape:pageshadow="2"
     inkscape:zoom="2.8284271"
     inkscape:cx="335.52217"
     inkscape:cy="166.52365"
     inkscape:current-layer="layer6"
     showgrid="false"
     inkscape:grid-bbox="true"
     inkscape:document-units="px"
     inkscape:showpageshadow="false"
     inkscape:window-width="1920"
     inkscape:window-height="1020"
     inkscape:window-x="0"
     inkscape:window-y="32"
     width="400px"
     height="300px"
     inkscape:snap-nodes="true"
     inkscape:snap-bbox="true"
     gridtolerance="10000"
     inkscape:object-nodes="true"
     inkscape:snap-grids="true"
     showguides="true"
     inkscape:guide-bbox="true"
     inkscape:window-maximized="1"
     inkscape:bbox-paths="true"
     inkscape:snap-bbox-midpoints="true"
     inkscape:snap-global="true"
     inkscape:object-paths="true"
     inkscape:snap-intersection-paths="true"
     inkscape:snap-smooth-nodes="true"
     inkscape:pagecheckerboard="false"
     showborder="false"
     inkscape:document-rotation="0"
     inkscape:deskcolor="#d1d1d1">
    <inkscape:grid
       spacingy="1"
       spacingx="1"
       id="grid5883"
       type="xygrid"
       enabled="true"
       visible="true"
       empspacing="4"
       snapvisiblegridlinesonly="true"
       originx="0"
       originy="0" />
    <inkscape:grid
       type="xygrid"
       id="grid11592"
       empspacing="2"
       visible="true"
       enabled="false"
       spacingx="0.5"
       spacingy="0.5"
       color="#ff0000"
       opacity="0.1254902"
       empcolor="#ff0000"
       empopacity="0.25098039"
       snapvisiblegridlinesonly="true"
       originx="0"
       originy="0" />
  </sodipodi:namedview>
  <defs
     id="defs3">
    <linearGradient
       id="linearGradient924"
       x1="162.61"
       x2="162.61"
       y1="15.335"
       y2="27.41"
       gradientTransform="matrix(14.669286,0,0,14.669286,-2232.7133,-157.51669)"
       gradientUnits="userSpaceOnUse"
       xlink:href="#linearGradient922" />
    <linearGradient
       id="linearGradient922">
      <stop
         stop-color="#91aab4"
         offset="0"
         id="stop2" />
      <stop
         stop-color="#648291"
         offset="1"
         id="stop4" />
    </linearGradient>
    <linearGradient
       id="linearGradient951"
       x1="156.58"
       x2="168.85001"
       y1="15.3"
       y2="27.534"
       gradientUnits="userSpaceOnUse"
       xlink:href="#linearGradient922"
       gradientTransform="matrix(14.669286,0,0,14.669286,-2232.7133,-156.85742)" />
    <linearGradient
       id="linearGradient965"
       x1="162.73"
       x2="163.37"
       y1="20.333"
       y2="19.09"
       gradientTransform="matrix(1.1538,0,0,1.1538,-22.383,-3.3235)"
       gradientUnits="userSpaceOnUse">
      <stop
         stop-color="#fafafa"
         offset="0"
         id="stop9" />
      <stop
         stop-color="#c8e6f0"
         offset="1"
         id="stop11" />
    </linearGradient>
    <linearGradient
       inkscape:collect="always"
       xlink:href="#linearGradient922"
       id="linearGradient832"
       gradientUnits="userSpaceOnUse"
       gradientTransform="matrix(3.0124427,0,0,3.0124427,-146.25999,19.61825)"
       x1="162.61"
       y1="15.335"
       x2="162.61"
       y2="27.41" />
    <linearGradient
       inkscape:collect="always"
       xlink:href="#linearGradient922"
       id="linearGradient834"
       gradientUnits="userSpaceOnUse"
       x1="156.58"
       y1="15.3"
       x2="168.85001"
       y2="27.534"
       gradientTransform="matrix(3.0124427,0,0,3.0124427,-146.25999,19.753635)" />
    <linearGradient
       inkscape:collect="always"
       xlink:href="#linearGradient965"
       id="linearGradient836"
       gradientUnits="userSpaceOnUse"
       gradientTransform="matrix(3.4757564,0,0,3.4757564,-213.68749,9.7417817)"
       x1="162.73"
       y1="20.333"
       x2="163.37"
       y2="19.09" />
    <linearGradient
       inkscape:collect="always"
       xlink:href="#linearGradient922"
       id="linearGradient864"
       gradientUnits="userSpaceOnUse"
       gradientTransform="matrix(1.9646365,0,0,1.9646365,16.265233,106.01191)"
       x1="162.61"
       y1="15.335"
       x2="162.61"
       y2="27.41" />
    <linearGradient
       inkscape:collect="always"
       xlink:href="#linearGradient922"
       id="linearGradient866"
       gradientUnits="userSpaceOnUse"
       x1="156.58"
       y1="15.3"
       x2="168.85001"
       y2="27.534"
       gradientTransform="matrix(1.9646365,0,0,1.9646365,16.265233,106.1002)" />
    <linearGradient
       inkscape:collect="always"
       xlink:href="#linearGradient965"
       id="linearGradient868"
       gradientUnits="userSpaceOnUse"
       gradientTransform="matrix(2.2667976,0,0,2.2667976,-27.709226,99.570731)"
       x1="162.73"
       y1="20.333"
       x2="163.37"
       y2="19.09" />
    <linearGradient
       inkscape:collect="always"
       xlink:href="#linearGradient922"
       id="linearGradient896"
       gradientUnits="userSpaceOnUse"
       gradientTransform="matrix(1.5062213,0,0,1.5062213,86.870015,167.80913)"
       x1="162.61"
       y1="15.335"
       x2="162.61"
       y2="27.41" />
    <linearGradient
       inkscape:collect="always"
       xlink:href="#linearGradient922"
       id="linearGradient898"
       gradientUnits="userSpaceOnUse"
       x1="156.58"
       y1="15.3"
       x2="168.85001"
       y2="27.534"
       gradientTransform="matrix(1.5062213,0,0,1.5062213,86.870015,167.87682)" />
    <linearGradient
       inkscape:collect="always"
       xlink:href="#linearGradient965"
       id="linearGradient900"
       gradientUnits="userSpaceOnUse"
       gradientTransform="matrix(1.7378781,0,0,1.7378781,53.156264,162.87089)"
       x1="162.73"
       y1="20.333"
       x2="163.37"
       y2="19.09" />
    <linearGradient
       inkscape:collect="always"
       xlink:href="#linearGradient922"
       id="linearGradient928"
       gradientUnits="userSpaceOnUse"
       gradientTransform="matrix(0.98231827,0,0,0.98231827,168.14735,223.00595)"
       x1="162.61"
       y1="15.335"
       x2="162.61"
       y2="27.41" />
    <linearGradient
       inkscape:collect="always"
       xlink:href="#linearGradient922"
       id="linearGradient930"
       gradientUnits="userSpaceOnUse"
       x1="156.58"
       y1="15.3"
       x2="168.85001"
       y2="27.534"
       gradientTransform="matrix(0.98231827,0,0,0.98231827,168.14735,223.0501)" />
    <linearGradient
       inkscape:collect="always"
       xlink:href="#linearGradient965"
       id="linearGradient932"
       gradientUnits="userSpaceOnUse"
       gradientTransform="matrix(1.1333988,0,0,1.1333988,146.16012,219.78537)"
       x1="162.73"
       y1="20.333"
       x2="163.37"
       y2="19.09" />
    <linearGradient
       inkscape:collect="always"
       xlink:href="#linearGradient965"
       id="linearGradient934"
       gradientUnits="userSpaceOnUse"
       gradientTransform="matrix(16.925422,0,0,16.925422,-2561.0559,-205.61079)"
       x1="162.73"
       y1="20.333"
       x2="163.37"
       y2="19.09" />
  </defs>
  <metadata
     id="metadata4">
    <rdf:RDF>
      <cc:Work
         rdf:about="">
        <dc:format>image/svg+xml</dc:format>
        <dc:type
           rdf:resource="http://purl.org/dc/dcmitype/StillImage" />
        <dc:creator>
          <cc:Agent>
            <dc:title>Sam Hewitt</dc:title>
          </cc:Agent>
        </dc:creator>
        <dc:source />
        <cc:license
           rdf:resource="http://creativecommons.org/licenses/by-sa/4.0/" />
        <dc:title>Suru Icon Theme Template</dc:title>
        <dc:subject>
          <rdf:Bag />
        </dc:subject>
        <dc:date />
        <dc:rights>
          <cc:Agent>
            <dc:title />
          </cc:Agent>
        </dc:rights>
        <dc:publisher>
          <cc:Agent>
            <dc:title />
          </cc:Agent>
        </dc:publisher>
        <dc:identifier />
        <dc:relation />
        <dc:language />
        <dc:coverage />
        <dc:description />
        <dc:contributor>
          <cc:Agent>
            <dc:title />
          </cc:Agent>
        </dc:contributor>
      </cc:Work>
      <cc:Work
         rdf:about="">
        <dc:format>image/svg+xml</dc:format>
        <dc:type
           rdf:resource="http://purl.org/dc/dcmitype/StillImage" />
      </cc:Work>
      <cc:License
         rdf:about="http://creativecommons.org/licenses/by-sa/4.0/">
        <cc:permits
           rdf:resource="http://creativecommons.org/ns#Reproduction" />
        <cc:permits
           rdf:resource="http://creativecommons.org/ns#Distribution" />
        <cc:requires
           rdf:resource="http://creativecommons.org/ns#Notice" />
        <cc:requires
           rdf:resource="http://creativecommons.org/ns#Attribution" />
        <cc:permits
           rdf:resource="http://creativecommons.org/ns#DerivativeWorks" />
        <cc:requires
           rdf:resource="http://creativecommons.org/ns#ShareAlike" />
      </cc:License>
    </rdf:RDF>
  </metadata>
  <g
     style="display:inline"
     inkscape:groupmode="layer"
     inkscape:label="Icon"
     id="layer1">
    <g
       style="display:none"
       inkscape:label="Baseplate"
       id="layer7"
       inkscape:groupmode="layer">
      <text
         y="-8.2548828"
         xml:space="preserve"
         x="19.006836"
         style="font-style:normal;font-variant:normal;font-weight:normal;font-stretch:normal;line-height:0%;font-family:'DejaVu Sans';-inkscape-font-specification:'DejaVu Sans';display:inline;fill:#000000;fill-opacity:1;stroke:none;enable-background:new"
         inkscape:label="context"
         id="context"><tspan
           style="font-style:normal;font-variant:normal;font-weight:normal;font-stretch:normal;font-size:18px;line-height:1.25;font-family:'DejaVu Sans';-inkscape-font-specification:'DejaVu Sans'"
           y="-8.2548828"
           x="19.006836"
           sodipodi:role="line"
           id="tspan3933">apps</tspan></text>
      <text
         y="-8.2548828"
         xml:space="preserve"
         x="146.48828"
         style="font-style:normal;font-variant:normal;font-weight:bold;font-stretch:normal;line-height:0%;font-family:'DejaVu Sans';-inkscape-font-specification:'DejaVu Sans Bold';text-align:start;writing-mode:lr-tb;text-anchor:start;display:inline;fill:#000000;fill-opacity:1;stroke:none;enable-background:new"
         inkscape:label="icon-name"
         id="icon-name"><tspan
           style="font-style:normal;font-variant:normal;font-weight:bold;font-stretch:normal;font-size:18px;line-height:1.25;font-family:'DejaVu Sans';-inkscape-font-specification:'DejaVu Sans Bold'"
           y="-8.2548828"
           x="146.48828"
           sodipodi:role="line"
           id="tspan924">configurator-app</tspan></text>
      <rect
         style="display:inline;overflow:visible;visibility:visible;fill:#cdcdcd;fill-opacity:1;fill-rule:nonzero;stroke:none;stroke-width:2;marker:none;enable-background:accumulate"
         id="rect16x16"
         width="16"
         height="16"
         x="320"
         y="236"
         inkscape:label="16x16" />
      <rect
         style="display:inline;overflow:visible;visibility:visible;fill:#cdcdcd;fill-opacity:1;fill-rule:nonzero;stroke:none;stroke-width:2;marker:none;enable-background:accumulate"
         id="rect24x24"
         width="24"
         height="24"
         x="320"
         y="188"
         inkscape:label="24x24" />
      <rect
         style="display:inline;overflow:visible;visibility:visible;fill:#cdcdcd;fill-opacity:1;fill-rule:nonzero;stroke:none;stroke-width:2;marker:none;enable-background:accumulate"
         id="rect32x32"
         width="32"
         height="32"
         x="320"
         y="132"
         inkscape:label="32x32" />
      <rect
         inkscape:label="48x48"
         y="60"
         x="320"
         height="48"
         width="48"
         id="rect48x48"
         style="display:inline;overflow:visible;visibility:visible;fill:#cdcdcd;fill-opacity:1;fill-rule:nonzero;stroke:none;stroke-width:2;marker:none;enable-background:accumulate" />
      <rect
         style="display:inline;overflow:visible;visibility:visible;fill:#cdcdcd;fill-opacity:1;fill-rule:nonzero;stroke:none;stroke-width:2;marker:none;enable-background:accumulate"
         id="rect256x256"
         width="256"
         height="256"
         x="24"
         y="28"
         inkscape:label="256x256" />
    </g>
    <g
       inkscape:groupmode="layer"
       id="layer2"
       inkscape:label="Background"
       style="display:inline">
      <path
         d="m 137.10985,43.994444 h 35.35885 c 3.44156,0 5.75725,2.800807 6.2123,6.212149 l 3.89865,29.232953 c 0.45475,3.411343 -2.77073,6.21215 -6.21229,6.21215 h -43.80543 c -3.44156,0 -6.74141,-2.811516 -6.21229,-6.21215 L 130.898,50.206593 c 0.52956,-3.400634 2.77073,-6.212149 6.21244,-6.212149 z"
         id="path18"
         style="fill:#5a7882;stroke-width:14.6693" />
      <path
         d="m 137.10985,267.99444 h 35.35885 c 3.44156,0 5.75725,-2.80081 6.2123,-6.21215 l 3.89865,-29.23295 c 0.45475,-3.41134 -2.77073,-6.21215 -6.21229,-6.21215 h -43.80543 c -3.44156,0 -6.74141,2.81151 -6.21229,6.21215 l 4.54836,29.23295 c 0.52956,3.40064 2.77073,6.21215 6.21244,6.21215 z"
         id="path20"
         style="fill:#5a7882;stroke-width:14.6693" />
      <path
         d="m 242.72871,84.980429 17.67943,30.622131 c 1.7207,2.98051 0.45328,6.38642 -2.27389,8.48619 l -23.36671,17.99334 c -2.72687,2.09947 -6.76532,0.70662 -8.48603,-2.27388 L 204.3788,101.8705 c -1.72071,-2.980507 -0.9359,-7.243989 2.27388,-8.486184 l 27.59,-10.67748 c 3.20993,-1.241755 6.76533,-0.706619 8.48618,2.274033 z"
         id="path22"
         style="fill:#5a7882;stroke-width:14.6693" />
      <path
         d="m 48.800752,196.98043 17.679423,30.62213 c 1.720854,2.98051 5.304267,3.58547 8.486035,2.27389 l 27.2658,-11.2402 c 3.18162,-1.31187 3.9946,-5.50567 2.27374,-8.48618 l -21.902709,-37.9377 c -1.720854,-2.98051 -5.805664,-4.43248 -8.486182,-2.27389 l -23.042515,18.55518 c -2.680225,2.15902 -3.994446,5.50568 -2.273592,8.48618 z"
         id="path24"
         style="fill:#5a7882;stroke-width:14.6693" />
      <path
         d="m 260.47855,196.98043 -17.67942,30.62213 c -1.72086,2.98036 -5.30413,3.58576 -8.48619,2.27389 l -27.2658,-11.2402 c -3.18162,-1.31172 -3.99459,-5.50567 -2.27374,-8.48603 l 21.90271,-37.93771 c 1.72086,-2.98036 5.80552,-4.43247 8.48618,-2.27374 l 23.04252,18.55518 c 2.68037,2.15903 3.99459,5.50568 2.27374,8.48633 z"
         id="path26"
         style="fill:#5a7882;stroke-width:14.6693" />
      <path
         d="M 66.550588,84.980429 48.871164,115.60256 c -1.720707,2.98051 -0.453281,6.38642 2.273739,8.48604 l 23.366706,17.99334 c 2.726874,2.09947 6.765328,0.70662 8.486035,-2.27388 l 21.902716,-37.93771 c 1.7207,-2.980504 0.9359,-7.244132 -2.27389,-8.48618 L 75.036476,82.70669 c -3.209786,-1.241609 -6.765328,-0.706473 -8.486035,2.274179 z"
         id="path28"
         style="fill:#5a7882;stroke-width:14.6693" />
      <circle
         cx="154.41956"
         cy="155.99443"
         r="89.682144"
         fill="url(#linearGradient924)"
         stroke="url(#linearGradient951)"
         stroke-width="1.16435"
         id="circle32"
         style="fill:url(#linearGradient924);stroke:url(#linearGradient951);stroke-dashoffset:0.42096" />
      <path
         d="m 340.40013,61 h 7.26119 c 0.70675,0 1.18229,0.575166 1.27574,1.27571 l 0.80062,6.003195 c 0.0934,0.700544 -0.56899,1.27571 -1.27574,1.27571 h -8.99576 c -0.70675,0 -1.3844,-0.577365 -1.27574,-1.27571 l 0.93404,-6.003195 C 339.23323,61.577365 339.69347,61 340.40025,61 Z"
         id="path806"
         style="fill:#5a7882;stroke-width:3.01244" />
      <path
         d="m 340.40013,107 h 7.26119 c 0.70675,0 1.18229,-0.57517 1.27574,-1.27571 l 0.80062,-6.003195 c 0.0934,-0.700543 -0.56899,-1.275709 -1.27574,-1.275709 h -8.99576 c -0.70675,0 -1.3844,0.577365 -1.27574,1.275709 l 0.93404,6.003195 c 0.10875,0.69835 0.56899,1.27571 1.27577,1.27571 z"
         id="path808"
         style="fill:#5a7882;stroke-width:3.01244" />
      <path
         d="m 362.08972,69.416765 3.63059,6.288474 c 0.35336,0.612069 0.0931,1.311498 -0.46696,1.742699 L 360.45483,81.143 c -0.55998,0.431141 -1.38931,0.145109 -1.74267,-0.466959 l -4.49787,-7.790779 c -0.35336,-0.612068 -0.1922,-1.487605 0.46696,-1.742698 l 5.6658,-2.192697 c 0.65918,-0.255003 1.38931,-0.14511 1.7427,0.466989 z"
         id="path810"
         style="fill:#5a7882;stroke-width:3.01244" />
      <path
         d="m 322.26522,92.416765 3.6306,6.288475 c 0.35339,0.612068 1.08927,0.736301 1.74267,0.466958 l 5.59922,-2.308254 c 0.65337,-0.269403 0.82032,-1.13063 0.46693,-1.742698 l -4.49788,-7.790779 c -0.35338,-0.612068 -1.19223,-0.91024 -1.74269,-0.466959 l -4.73195,3.810439 c -0.5504,0.443371 -0.82029,1.13063 -0.4669,1.742698 z"
         id="path812"
         style="fill:#5a7882;stroke-width:3.01244" />
      <path
         d="m 365.73477,92.416765 -3.63059,6.288475 c -0.35339,0.612037 -1.08924,0.736361 -1.7427,0.466958 l -5.59923,-2.308254 c -0.65337,-0.269372 -0.82032,-1.13063 -0.46693,-1.742668 l 4.49788,-7.790779 c 0.35339,-0.612038 1.1922,-0.91024 1.7427,-0.466929 l 4.73194,3.810439 c 0.55044,0.443371 0.82032,1.13063 0.46693,1.742728 z"
         id="path814"
         style="fill:#5a7882;stroke-width:3.01244" />
      <path
         d="m 325.91028,69.416765 -3.6306,6.288474 c -0.35336,0.612069 -0.0931,1.311498 0.46693,1.742668 l 4.79852,3.695063 c 0.55998,0.43114 1.38931,0.145109 1.74267,-0.466959 l 4.49788,-7.790779 c 0.35336,-0.612068 0.19219,-1.487635 -0.46696,-1.742698 l -5.6658,-2.192697 c -0.65916,-0.254973 -1.38931,-0.14508 -1.74267,0.467019 z"
         id="path816"
         style="fill:#5a7882;stroke-width:3.01244" />
      <circle
         cx="343.9548"
         cy="84"
         r="18.416868"
         fill="url(#linearGradient924)"
         stroke="url(#linearGradient951)"
         stroke-width="0.239107"
         id="circle820"
         style="fill:url(#linearGradient832);stroke:url(#linearGradient834);stroke-dashoffset:0.42096" />
      <path
         d="m 333.65226,133 h 4.73556 c 0.46092,0 0.77106,0.37511 0.832,0.83199 l 0.52214,3.91512 c 0.0609,0.45688 -0.37108,0.83199 -0.832,0.83199 h -5.8668 c -0.46092,0 -0.90287,-0.37654 -0.832,-0.83199 l 0.60915,-3.91512 C 332.89124,133.37655 333.1914,133 333.65234,133 Z"
         id="path838"
         style="fill:#5a7882;stroke-width:1.96464" />
      <path
         d="m 333.65226,163 h 4.73556 c 0.46092,0 0.77106,-0.37511 0.832,-0.83198 l 0.52214,-3.91513 c 0.0609,-0.45688 -0.37108,-0.83198 -0.832,-0.83198 h -5.8668 c -0.46092,0 -0.90287,0.37654 -0.832,0.83198 l 0.60915,3.91513 c 0.0709,0.45544 0.37109,0.83198 0.83203,0.83198 z"
         id="path840"
         style="fill:#5a7882;stroke-width:1.96464" />
      <path
         d="m 347.79764,138.4892 2.36778,4.10118 c 0.23045,0.39917 0.0607,0.85532 -0.30454,1.13654 l -3.12947,2.40982 c -0.3652,0.28118 -0.90607,0.0946 -1.13652,-0.30454 l -2.9334,-5.08094 c -0.23045,-0.39917 -0.12534,-0.97018 0.30454,-1.13654 l 3.69509,-1.43002 c 0.4299,-0.16631 0.90607,-0.0946 1.13654,0.30456 z"
         id="path842"
         style="fill:#5a7882;stroke-width:1.96464" />
      <path
         d="m 321.82515,153.4892 2.36778,4.10118 c 0.23047,0.39917 0.71039,0.48019 1.13652,0.30453 l 3.65167,-1.50538 c 0.42611,-0.1757 0.53499,-0.73737 0.30452,-1.13654 l -2.9334,-5.08094 c -0.23047,-0.39918 -0.77754,-0.59364 -1.13654,-0.30454 l -3.08605,2.48507 c -0.35896,0.28915 -0.53497,0.73736 -0.3045,1.13654 z"
         id="path844"
         style="fill:#5a7882;stroke-width:1.96464" />
      <path
         d="m 350.17485,153.4892 -2.36778,4.10118 c -0.23047,0.39915 -0.71037,0.48023 -1.13654,0.30453 l -3.65167,-1.50538 c -0.42611,-0.17568 -0.53499,-0.73737 -0.30452,-1.13652 l 2.9334,-5.08094 c 0.23047,-0.39916 0.77753,-0.59364 1.13654,-0.30452 l 3.08605,2.48507 c 0.35898,0.28915 0.53499,0.73736 0.30452,1.13656 z"
         id="path846"
         style="fill:#5a7882;stroke-width:1.96464" />
      <path
         d="m 324.20236,138.4892 -2.36778,4.10118 c -0.23045,0.39917 -0.0607,0.85532 0.30452,1.13652 l 3.12947,2.40982 c 0.3652,0.28118 0.90607,0.0946 1.13652,-0.30454 l 2.9334,-5.08094 c 0.23045,-0.39917 0.12534,-0.9702 -0.30454,-1.13654 l -3.69509,-1.43002 c -0.42988,-0.16629 -0.90607,-0.0946 -1.13652,0.30458 z"
         id="path848"
         style="fill:#5a7882;stroke-width:1.96464" />
      <circle
         cx="335.97052"
         cy="148"
         r="12.011002"
         fill="url(#linearGradient924)"
         stroke="url(#linearGradient951)"
         stroke-width="0.155939"
         id="circle852"
         style="fill:url(#linearGradient864);stroke:url(#linearGradient866);stroke-dashoffset:0.42096" />
      <path
         d="m 330.20007,188.5 h 3.63059 c 0.35338,0 0.59115,0.28758 0.63787,0.63786 l 0.40031,3.00159 c 0.0467,0.35028 -0.2845,0.63786 -0.63787,0.63786 h -4.49788 c -0.35337,0 -0.6922,-0.28868 -0.63787,-0.63786 l 0.46702,-3.00159 c 0.0544,-0.34918 0.2845,-0.63786 0.63789,-0.63786 z"
         id="path870"
         style="fill:#5a7882;stroke-width:1.50622" />
      <path
         d="m 330.20007,211.5 h 3.63059 c 0.35338,0 0.59115,-0.28758 0.63787,-0.63785 l 0.40031,-3.0016 c 0.0467,-0.35027 -0.2845,-0.63786 -0.63787,-0.63786 h -4.49788 c -0.35337,0 -0.6922,0.28869 -0.63787,0.63786 l 0.46702,3.0016 c 0.0544,0.34917 0.2845,0.63785 0.63789,0.63785 z"
         id="path872"
         style="fill:#5a7882;stroke-width:1.50622" />
      <path
         d="m 341.04486,192.70838 1.8153,3.14424 c 0.17668,0.30604 0.0465,0.65575 -0.23348,0.87135 l -2.39926,1.84753 c -0.27999,0.21557 -0.69466,0.0726 -0.87134,-0.23348 l -2.24893,-3.89539 c -0.17668,-0.30603 -0.0961,-0.7438 0.23347,-0.87135 l 2.83291,-1.09634 c 0.32959,-0.12751 0.69465,-0.0726 0.87134,0.23349 z"
         id="path874"
         style="fill:#5a7882;stroke-width:1.50622" />
      <path
         d="m 321.13261,204.20838 1.8153,3.14424 c 0.1767,0.30603 0.54464,0.36815 0.87134,0.23348 l 2.79961,-1.15413 c 0.32668,-0.1347 0.41016,-0.56531 0.23346,-0.87135 l -2.24894,-3.89539 c -0.17669,-0.30603 -0.59611,-0.45512 -0.87134,-0.23347 l -2.36598,1.90521 c -0.2752,0.22169 -0.41014,0.56532 -0.23345,0.87135 z"
         id="path876"
         style="fill:#5a7882;stroke-width:1.50622" />
      <path
         d="m 342.86739,204.20838 -1.8153,3.14424 c -0.1767,0.30602 -0.54462,0.36818 -0.87135,0.23348 l -2.79961,-1.15413 c -0.32669,-0.13468 -0.41016,-0.56531 -0.23347,-0.87133 l 2.24894,-3.89539 c 0.1767,-0.30602 0.5961,-0.45512 0.87135,-0.23346 l 2.36597,1.90521 c 0.27522,0.22169 0.41016,0.56532 0.23347,0.87137 z"
         id="path878"
         style="fill:#5a7882;stroke-width:1.50622" />
      <path
         d="m 322.95514,192.70838 -1.8153,3.14424 c -0.17668,0.30604 -0.0465,0.65575 0.23347,0.87134 l 2.39926,1.84753 c 0.27999,0.21557 0.69465,0.0725 0.87133,-0.23348 l 2.24894,-3.89539 c 0.17668,-0.30604 0.0961,-0.74382 -0.23348,-0.87135 l -2.8329,-1.09635 c -0.32958,-0.12749 -0.69465,-0.0725 -0.87133,0.23351 z"
         id="path880"
         style="fill:#5a7882;stroke-width:1.50622" />
      <circle
         cx="331.97739"
         cy="200"
         r="9.2084341"
         fill="url(#linearGradient924)"
         stroke="url(#linearGradient951)"
         stroke-width="0.119553"
         id="circle884"
         style="fill:url(#linearGradient896);stroke:url(#linearGradient898);stroke-dashoffset:0.42096" />
      <path
         d="m 326.84087,236.5 h 2.36778 c 0.23046,0 0.38553,0.18756 0.416,0.41599 l 0.26107,1.95757 c 0.0305,0.22844 -0.18554,0.41599 -0.416,0.41599 h -2.9334 c -0.23046,0 -0.45144,-0.18827 -0.416,-0.41599 l 0.30457,-1.95757 c 0.0355,-0.22772 0.18554,-0.41599 0.41602,-0.41599 z"
         id="path902"
         style="fill:#5a7882;stroke-width:0.982318" />
      <path
         d="m 326.84087,251.5 h 2.36778 c 0.23046,0 0.38553,-0.18755 0.416,-0.41599 l 0.26107,-1.95756 c 0.0305,-0.22844 -0.18554,-0.416 -0.416,-0.416 h -2.9334 c -0.23046,0 -0.45144,0.18827 -0.416,0.416 l 0.30457,1.95756 c 0.0355,0.22772 0.18554,0.41599 0.41602,0.41599 z"
         id="path904"
         style="fill:#5a7882;stroke-width:0.982318" />
      <path
         d="m 333.91356,239.2446 1.18389,2.05059 c 0.11522,0.19959 0.0303,0.42766 -0.15227,0.56827 l -1.56474,1.20491 c -0.1826,0.14059 -0.45303,0.0473 -0.56826,-0.15227 l -1.4667,-2.54047 c -0.11522,-0.19959 -0.0627,-0.48509 0.15227,-0.56827 l 1.84755,-0.71501 c 0.21495,-0.0832 0.45303,-0.0473 0.56827,0.15228 z"
         id="path906"
         style="fill:#5a7882;stroke-width:0.982318" />
      <path
         d="m 320.92731,246.7446 1.18389,2.05059 c 0.11524,0.19959 0.3552,0.2401 0.56826,0.15227 l 1.82584,-0.75269 c 0.21305,-0.0879 0.26749,-0.36869 0.15226,-0.56828 l -1.4667,-2.54047 c -0.11524,-0.19958 -0.38878,-0.29681 -0.56827,-0.15227 l -1.54303,1.24254 c -0.17948,0.14458 -0.26749,0.36868 -0.15225,0.56827 z"
         id="path908"
         style="fill:#5a7882;stroke-width:0.982318" />
      <path
         d="m 335.10216,246.7446 -1.18389,2.05059 c -0.11523,0.19958 -0.35518,0.24012 -0.56827,0.15227 l -1.82583,-0.75269 c -0.21306,-0.0878 -0.2675,-0.36869 -0.15226,-0.56827 l 1.4667,-2.54047 c 0.11523,-0.19957 0.38876,-0.29681 0.56827,-0.15226 l 1.54302,1.24254 c 0.17949,0.14458 0.2675,0.36868 0.15226,0.56828 z"
         id="path910"
         style="fill:#5a7882;stroke-width:0.982318" />
      <path
         d="m 322.11592,239.2446 -1.18389,2.05059 c -0.11523,0.19959 -0.0304,0.42766 0.15225,0.56826 l 1.56474,1.20491 c 0.1826,0.14059 0.45304,0.0473 0.56826,-0.15227 l 1.4667,-2.54047 c 0.11523,-0.19959 0.0627,-0.4851 -0.15227,-0.56827 l -1.84754,-0.71501 c -0.21494,-0.0831 -0.45304,-0.0473 -0.56826,0.15229 z"
         id="path912"
         style="fill:#5a7882;stroke-width:0.982318" />
      <circle
         cx="328"
         cy="244"
         r="6.0055008"
         fill="url(#linearGradient924)"
         stroke="url(#linearGradient951)"
         stroke-width="0.0779696"
         id="circle916"
         style="fill:url(#linearGradient928);stroke:url(#linearGradient930);stroke-dashoffset:0.42096" />
    </g>
    <g
       inkscape:groupmode="layer"
       id="layer6"
       inkscape:label="Pictogram"
       style="display:inline">
      <circle
         transform="rotate(90)"
         cx="155.99443"
         cy="-154.41956"
         r="50.459412"
         fill="#2a495d"
         stroke="#4f6c7a"
         stroke-width="25.8429"
         id="circle34"
         style="display:inline;enable-background:new;stroke-dashoffset:0.42096" />
      <path
         d="m 154.41961,206.45679 a 50.45941,50.45941 0 0 1 -50.02667,-43.86264 50.45941,50.45941 0 0 1 36.94607,-55.33254 50.45941,50.45941 0 0 1 59.68786,29.39578"
         fill="none"
         stroke="#00a2f3"
         stroke-width="25.8429"
         id="path36"
         style="display:inline;enable-background:new;stroke-dashoffset:0.42096" />
      <circle
         cx="197.25383"
         cy="128.66557"
         r="19.734591"
         fill="url(#linearGradient965)"
         id="circle40"
         style="display:inline;enable-background:new;fill:url(#linearGradient934);stroke-width:14.6693" />
      <circle
         transform="rotate(90)"
         cx="84"
         cy="-343.9548"
         r="10.362201"
         fill="#2a495d"
         stroke="#4f6c7a"
         stroke-width="5.30702"
         id="circle822"
         style="display:inline;enable-background:new;stroke-dashoffset:0.42096" />
      <path
         d="m 343.95481,94.362803 a 10.3622,10.3622 0 0 1 -10.27333,-9.007505 10.3622,10.3622 0 0 1 7.58714,-11.362933 10.3622,10.3622 0 0 1 12.25732,6.036633"
         fill="none"
         stroke="#00a2f3"
         stroke-width="5.30702"
         id="path824"
         style="display:inline;enable-background:new;stroke-dashoffset:0.42096" />
      <circle
         cx="352.75113"
         cy="78.387825"
         r="4.052639"
         fill="url(#linearGradient965)"
         id="circle828"
         style="display:inline;enable-background:new;fill:url(#linearGradient836);stroke-width:3.01244" />
      <circle
         transform="rotate(90)"
         cx="148"
         cy="-335.97052"
         r="6.7579565"
         fill="#2a495d"
         stroke="#4f6c7a"
         stroke-width="3.4611"
         id="circle854"
         style="display:inline;enable-background:new;stroke-dashoffset:0.42096" />
      <path
         d="m 335.97053,154.75835 a 6.7579566,6.7579566 0 0 1 -6.7,-5.87446 6.7579566,6.7579566 0 0 1 4.94813,-7.41061 6.7579566,6.7579566 0 0 1 7.99391,3.93694"
         fill="none"
         stroke="#00a2f3"
         stroke-width="3.4611"
         id="path856"
         style="display:inline;enable-background:new;stroke-dashoffset:0.42096" />
      <circle
         cx="341.70724"
         cy="144.33989"
         r="2.6430254"
         fill="url(#linearGradient965)"
         id="circle860"
         style="display:inline;enable-background:new;fill:url(#linearGradient868);stroke-width:1.96464" />
      <circle
         transform="rotate(90)"
         cx="200"
         cy="-331.97739"
         r="5.1810999"
         fill="#2a495d"
         stroke="#4f6c7a"
         stroke-width="2.65351"
         id="circle886"
         style="display:inline;enable-background:new;stroke-dashoffset:0.42096" />
      <path
         d="m 331.97741,205.1814 a 5.1811,5.1811 0 0 1 -5.13667,-4.50375 5.1811,5.1811 0 0 1 3.79357,-5.68147 5.1811,5.1811 0 0 1 6.12866,3.01832"
         fill="none"
         stroke="#00a2f3"
         stroke-width="2.65351"
         id="path888"
         style="display:inline;enable-background:new;stroke-dashoffset:0.42096" />
      <circle
         cx="336.37555"
         cy="197.19391"
         r="2.0263195"
         fill="url(#linearGradient965)"
         id="circle892"
         style="display:inline;enable-background:new;fill:url(#linearGradient900);stroke-width:1.50622" />
      <circle
         transform="rotate(90)"
         cx="244"
         cy="-328"
         r="3.3789785"
         fill="#2a495d"
         stroke="#4f6c7a"
         stroke-width="1.73055"
         id="circle918"
         style="display:inline;enable-background:new;stroke-dashoffset:0.42096" />
      <path
         d="m 328,247.37918 a 3.3789784,3.3789784 0 0 1 -3.35,-2.93723 3.3789784,3.3789784 0 0 1 2.47407,-3.70531 3.3789784,3.3789784 0 0 1 3.99695,1.96847"
         fill="none"
         stroke="#00a2f3"
         stroke-width="1.73055"
         id="path920"
         style="display:inline;enable-background:new;stroke-dashoffset:0.42096" />
      <circle
         cx="330.86838"
         cy="242.16994"
         r="1.3215127"
         fill="url(#linearGradient965)"
         id="circle924"
         style="display:inline;enable-background:new;fill:url(#linearGradient932);stroke-width:0.982318" />
    </g>
  </g>
</svg>
