<?xml version="1.0" encoding="UTF-8" standalone="no"?>
<svg
   inkscape:export-ydpi="90.000000"
   inkscape:export-xdpi="90.000000"
   width="400"
   height="300"
   id="svg11300"
   sodipodi:version="0.32"
   inkscape:version="1.2.2 (b0a8486541, 2022-12-01)"
   sodipodi:docname="disk-utility-app.svg"
   inkscape:output_extension="org.inkscape.output.svg.inkscape"
   version="1.0"
   style="display:inline;enable-background:new"
   inkscape:export-filename="/home/sam/suru-template.png"
   xmlns:inkscape="http://www.inkscape.org/namespaces/inkscape"
   xmlns:sodipodi="http://sodipodi.sourceforge.net/DTD/sodipodi-0.dtd"
   xmlns:xlink="http://www.w3.org/1999/xlink"
   xmlns="http://www.w3.org/2000/svg"
   xmlns:svg="http://www.w3.org/2000/svg"
   xmlns:rdf="http://www.w3.org/1999/02/22-rdf-syntax-ns#"
   xmlns:cc="http://creativecommons.org/ns#"
   xmlns:dc="http://purl.org/dc/elements/1.1/">
  <title
     id="title3004">Suru Icon Theme Template</title>
  <sodipodi:namedview
     stroke="#ef2929"
     fill="#f57900"
     id="base"
     pagecolor="#ffffff"
     bordercolor="#000000"
     borderopacity="0.25490196"
     inkscape:pageopacity="0"
     inkscape:pageshadow="2"
     inkscape:zoom="1.4142136"
     inkscape:cx="222.03153"
     inkscape:cy="152.02796"
     inkscape:current-layer="layer6"
     showgrid="false"
     inkscape:grid-bbox="true"
     inkscape:document-units="px"
     inkscape:showpageshadow="false"
     inkscape:window-width="1920"
     inkscape:window-height="1020"
     inkscape:window-x="0"
     inkscape:window-y="32"
     width="400px"
     height="300px"
     inkscape:snap-nodes="true"
     inkscape:snap-bbox="true"
     gridtolerance="10000"
     inkscape:object-nodes="true"
     inkscape:snap-grids="true"
     showguides="true"
     inkscape:guide-bbox="true"
     inkscape:window-maximized="1"
     inkscape:bbox-paths="true"
     inkscape:snap-bbox-midpoints="true"
     inkscape:snap-global="true"
     inkscape:object-paths="true"
     inkscape:snap-intersection-paths="true"
     inkscape:snap-smooth-nodes="true"
     inkscape:pagecheckerboard="false"
     showborder="false"
     inkscape:document-rotation="0"
     inkscape:deskcolor="#d1d1d1">
    <inkscape:grid
       spacingy="1"
       spacingx="1"
       id="grid5883"
       type="xygrid"
       enabled="true"
       visible="true"
       empspacing="4"
       snapvisiblegridlinesonly="true"
       originx="0"
       originy="0" />
    <inkscape:grid
       type="xygrid"
       id="grid11592"
       empspacing="2"
       visible="true"
       enabled="false"
       spacingx="0.5"
       spacingy="0.5"
       color="#ff0000"
       opacity="0.1254902"
       empcolor="#ff0000"
       empopacity="0.25098039"
       snapvisiblegridlinesonly="true"
       originx="0"
       originy="0" />
  </sodipodi:namedview>
  <defs
     id="defs3">
    <linearGradient
       id="c"
       x1="14.6558"
       x2="33.486599"
       y1="853.91302"
       y2="853.91302"
       gradientUnits="userSpaceOnUse"
       gradientTransform="matrix(4.8444271,0,0,4.8444271,144.54548,139.51507)">
      <stop
         stop-color="#197cf1"
         offset="0"
         id="stop22" />
      <stop
         stop-color="#20bcfa"
         offset="1"
         id="stop24" />
    </linearGradient>
    <linearGradient
       id="b"
       x2="1"
       gradientTransform="matrix(-0.00746827,-187.67601,187.67601,-0.00746827,507.42504,333.54794)"
       gradientUnits="userSpaceOnUse">
      <stop
         stop-color="#bbbec4"
         offset="0"
         id="stop17" />
      <stop
         stop-color="#dcdee1"
         offset="1"
         id="stop19" />
    </linearGradient>
    <linearGradient
       id="a"
       x2="1"
       gradientTransform="matrix(214.58099,-0.90466769,0.90466769,214.58099,186.7853,8227.3348)"
       gradientUnits="userSpaceOnUse">
      <stop
         stop-color="#1a1a1a"
         offset="0"
         id="stop2" />
      <stop
         stop-color="#2c2c2e"
         offset=".11"
         id="stop4" />
      <stop
         stop-color="#2b2b2d"
         offset=".29"
         id="stop6" />
      <stop
         stop-color="#2a2b2d"
         offset=".51"
         id="stop8" />
      <stop
         stop-color="#2b2b2d"
         offset=".75"
         id="stop10" />
      <stop
         stop-color="#323232"
         offset=".9"
         id="stop12" />
      <stop
         stop-color="#171717"
         offset="1"
         id="stop14" />
    </linearGradient>
    <linearGradient
       inkscape:collect="always"
       xlink:href="#a"
       id="linearGradient513"
       gradientUnits="userSpaceOnUse"
       gradientTransform="matrix(44.065741,-0.18577998,0.18577998,44.065741,328.37051,1720.5844)"
       x2="1" />
    <linearGradient
       inkscape:collect="always"
       xlink:href="#b"
       id="linearGradient515"
       gradientUnits="userSpaceOnUse"
       gradientTransform="matrix(-0.00153366,-38.540611,38.540611,-0.00153366,394.21617,99.538819)"
       x2="1" />
    <linearGradient
       inkscape:collect="always"
       xlink:href="#c"
       id="linearGradient517"
       gradientUnits="userSpaceOnUse"
       gradientTransform="matrix(0.99483774,0,0,0.99483774,319.69626,59.692782)"
       x1="14.6558"
       y1="853.91302"
       x2="33.486599"
       y2="853.91302" />
    <linearGradient
       inkscape:collect="always"
       xlink:href="#a"
       id="linearGradient533"
       gradientUnits="userSpaceOnUse"
       gradientTransform="matrix(28.738525,-0.12116085,0.12116085,28.738525,325.80686,1215.3376)"
       x2="1" />
    <linearGradient
       inkscape:collect="always"
       xlink:href="#b"
       id="linearGradient535"
       gradientUnits="userSpaceOnUse"
       gradientTransform="matrix(-0.00100021,-25.13518,25.13518,-0.00100021,368.74968,158.13401)"
       x2="1" />
    <linearGradient
       inkscape:collect="always"
       xlink:href="#c"
       id="linearGradient537"
       gradientUnits="userSpaceOnUse"
       gradientTransform="matrix(0.64880719,0,0,0.64880719,320.14974,132.14746)"
       x1="14.6558"
       y1="853.91302"
       x2="33.486599"
       y2="853.91302" />
    <linearGradient
       inkscape:collect="always"
       xlink:href="#a"
       id="linearGradient553"
       gradientUnits="userSpaceOnUse"
       gradientTransform="matrix(21.07492,-0.08885129,0.08885129,21.07492,324.52503,982.71429)"
       x2="1" />
    <linearGradient
       inkscape:collect="always"
       xlink:href="#b"
       id="linearGradient555"
       gradientUnits="userSpaceOnUse"
       gradientTransform="matrix(-7.3349084e-4,-18.432466,18.432466,-7.3349084e-4,356.01643,207.43161)"
       x2="1" />
    <linearGradient
       inkscape:collect="always"
       xlink:href="#c"
       id="linearGradient557"
       gradientUnits="userSpaceOnUse"
       gradientTransform="matrix(0.47579197,0,0,0.47579197,320.37647,188.37481)"
       x1="14.6558"
       y1="853.91302"
       x2="33.486599"
       y2="853.91302" />
    <linearGradient
       inkscape:collect="always"
       xlink:href="#a"
       id="linearGradient573"
       gradientUnits="userSpaceOnUse"
       gradientTransform="matrix(13.411312,-0.05654173,0.05654173,13.411312,323.2432,742.09088)"
       x2="1" />
    <linearGradient
       inkscape:collect="always"
       xlink:href="#b"
       id="linearGradient575"
       gradientUnits="userSpaceOnUse"
       gradientTransform="matrix(-4.6676687e-4,-11.729751,11.729751,-4.6676687e-4,343.28318,248.72921)"
       x2="1" />
    <linearGradient
       inkscape:collect="always"
       xlink:href="#c"
       id="linearGradient577"
       gradientUnits="userSpaceOnUse"
       gradientTransform="matrix(0.30277669,0,0,0.30277669,320.60321,236.60215)"
       x1="14.6558"
       y1="853.91302"
       x2="33.486599"
       y2="853.91302" />
    <linearGradient
       inkscape:collect="always"
       xlink:href="#a"
       id="linearGradient743"
       gradientUnits="userSpaceOnUse"
       gradientTransform="matrix(214.58099,-0.90466769,0.90466769,214.58099,75.89117,8125.4542)"
       x2="1" />
    <linearGradient
       inkscape:collect="always"
       xlink:href="#b"
       id="linearGradient745"
       gradientUnits="userSpaceOnUse"
       gradientTransform="matrix(-0.00746827,-187.67601,187.67601,-0.00746827,396.53091,231.66729)"
       x2="1" />
    <linearGradient
       inkscape:collect="always"
       xlink:href="#c"
       id="linearGradient747"
       gradientUnits="userSpaceOnUse"
       gradientTransform="matrix(4.8444271,0,0,4.8444271,33.65135,37.63442)"
       x1="14.6558"
       y1="853.91302"
       x2="33.486599"
       y2="853.91302" />
  </defs>
  <metadata
     id="metadata4">
    <rdf:RDF>
      <cc:Work
         rdf:about="">
        <dc:format>image/svg+xml</dc:format>
        <dc:type
           rdf:resource="http://purl.org/dc/dcmitype/StillImage" />
        <dc:creator>
          <cc:Agent>
            <dc:title>Sam Hewitt</dc:title>
          </cc:Agent>
        </dc:creator>
        <dc:source />
        <cc:license
           rdf:resource="http://creativecommons.org/licenses/by-sa/4.0/" />
        <dc:title>Suru Icon Theme Template</dc:title>
        <dc:subject>
          <rdf:Bag />
        </dc:subject>
        <dc:date />
        <dc:rights>
          <cc:Agent>
            <dc:title />
          </cc:Agent>
        </dc:rights>
        <dc:publisher>
          <cc:Agent>
            <dc:title />
          </cc:Agent>
        </dc:publisher>
        <dc:identifier />
        <dc:relation />
        <dc:language />
        <dc:coverage />
        <dc:description />
        <dc:contributor>
          <cc:Agent>
            <dc:title />
          </cc:Agent>
        </dc:contributor>
      </cc:Work>
      <cc:Work
         rdf:about="">
        <dc:format>image/svg+xml</dc:format>
        <dc:type
           rdf:resource="http://purl.org/dc/dcmitype/StillImage" />
      </cc:Work>
      <cc:License
         rdf:about="http://creativecommons.org/licenses/by-sa/4.0/">
        <cc:permits
           rdf:resource="http://creativecommons.org/ns#Reproduction" />
        <cc:permits
           rdf:resource="http://creativecommons.org/ns#Distribution" />
        <cc:requires
           rdf:resource="http://creativecommons.org/ns#Notice" />
        <cc:requires
           rdf:resource="http://creativecommons.org/ns#Attribution" />
        <cc:permits
           rdf:resource="http://creativecommons.org/ns#DerivativeWorks" />
        <cc:requires
           rdf:resource="http://creativecommons.org/ns#ShareAlike" />
      </cc:License>
    </rdf:RDF>
  </metadata>
  <g
     style="display:inline"
     inkscape:groupmode="layer"
     inkscape:label="Icon"
     id="layer1">
    <g
       style="display:none"
       inkscape:label="Baseplate"
       id="layer7"
       inkscape:groupmode="layer">
      <text
         y="-8.2548828"
         xml:space="preserve"
         x="19.006836"
         style="font-style:normal;font-variant:normal;font-weight:normal;font-stretch:normal;line-height:0%;font-family:'DejaVu Sans';-inkscape-font-specification:'DejaVu Sans';display:inline;fill:#000000;fill-opacity:1;stroke:none;enable-background:new"
         inkscape:label="context"
         id="context"><tspan
           style="font-style:normal;font-variant:normal;font-weight:normal;font-stretch:normal;font-size:18px;line-height:1.25;font-family:'DejaVu Sans';-inkscape-font-specification:'DejaVu Sans'"
           y="-8.2548828"
           x="19.006836"
           sodipodi:role="line"
           id="tspan3933">apps</tspan></text>
      <text
         y="-8.2548828"
         xml:space="preserve"
         x="146.48828"
         style="font-style:normal;font-variant:normal;font-weight:bold;font-stretch:normal;line-height:0%;font-family:'DejaVu Sans';-inkscape-font-specification:'DejaVu Sans Bold';text-align:start;writing-mode:lr-tb;text-anchor:start;display:inline;fill:#000000;fill-opacity:1;stroke:none;enable-background:new"
         inkscape:label="icon-name"
         id="icon-name"><tspan
           style="font-style:normal;font-variant:normal;font-weight:bold;font-stretch:normal;font-size:18px;line-height:1.25;font-family:'DejaVu Sans';-inkscape-font-specification:'DejaVu Sans Bold'"
           y="-8.2548828"
           x="146.48828"
           sodipodi:role="line"
           id="tspan924">disk-utility-app</tspan></text>
      <rect
         style="display:inline;overflow:visible;visibility:visible;fill:#cdcdcd;fill-opacity:1;fill-rule:nonzero;stroke:none;stroke-width:2;marker:none;enable-background:accumulate"
         id="rect16x16"
         width="16"
         height="16"
         x="320"
         y="236"
         inkscape:label="16x16" />
      <rect
         style="display:inline;overflow:visible;visibility:visible;fill:#cdcdcd;fill-opacity:1;fill-rule:nonzero;stroke:none;stroke-width:2;marker:none;enable-background:accumulate"
         id="rect24x24"
         width="24"
         height="24"
         x="320"
         y="188"
         inkscape:label="24x24" />
      <rect
         style="display:inline;overflow:visible;visibility:visible;fill:#cdcdcd;fill-opacity:1;fill-rule:nonzero;stroke:none;stroke-width:2;marker:none;enable-background:accumulate"
         id="rect32x32"
         width="32"
         height="32"
         x="320"
         y="132"
         inkscape:label="32x32" />
      <rect
         inkscape:label="48x48"
         y="60"
         x="320"
         height="48"
         width="48"
         id="rect48x48"
         style="display:inline;overflow:visible;visibility:visible;fill:#cdcdcd;fill-opacity:1;fill-rule:nonzero;stroke:none;stroke-width:2;marker:none;enable-background:accumulate" />
      <rect
         style="display:inline;overflow:visible;visibility:visible;fill:#cdcdcd;fill-opacity:1;fill-rule:nonzero;stroke:none;stroke-width:2;marker:none;enable-background:accumulate"
         id="rect256x256"
         width="256"
         height="256"
         x="24"
         y="28"
         inkscape:label="256x256" />
    </g>
    <g
       inkscape:groupmode="layer"
       id="layer2"
       inkscape:label="Background"
       style="display:inline">
      <path
         d="M 238.808,263.80135 H 61.04174 c -9.25285,0 -17.57073,-5.72127 -18.14237,-14.94991 -0.46023,-7.48948 -2.91151,-33.26668 -2.91635,-33.31996 h 219.8837 c -0.005,0.0533 -2.45612,25.83048 -2.91634,33.31996 -0.57165,9.22864 -8.88953,14.94991 -18.14238,14.94991 z"
         fill="url(#a)"
         fill-rule="nonzero"
         id="path32"
         style="display:inline;fill:url(#linearGradient743);stroke-width:4.84443;enable-background:new" />
      <path
         d="M 247.13072,59.70079 C 246.39437,50.8258 238.9824,44 230.07834,44 H 69.7714 c -8.90405,0 -16.31603,6.8258 -17.05238,15.70079 -2.84368,34.45356 -9.63072,116.56176 -12.67787,153.45692 -0.3924,4.76691 1.22564,9.48054 4.46172,12.99759 3.24092,3.5219 7.80437,5.52265 12.58582,5.52265 h 185.67236 c 4.78145,0 9.3449,-2.00075 12.58582,-5.52265 3.23608,-3.51705 4.85412,-8.23068 4.46172,-12.99759 C 256.76144,176.26255 249.9744,94.15435 247.13072,59.70079 Z"
         fill="url(#b)"
         id="path34"
         style="display:inline;fill:url(#linearGradient745);stroke-width:4.84443;enable-background:new" />
      <path
         d="m 361.82664,106.13778 h -36.50557 c -1.90014,0 -3.60827,-1.17491 -3.72567,-3.07007 -0.0945,-1.53802 -0.59789,-6.831553 -0.59889,-6.842495 h 45.15469 c -0.001,0.01095 -0.50438,5.304475 -0.59889,6.842495 -0.11739,1.89516 -1.82553,3.07007 -3.72567,3.07007 z"
         fill="url(#a)"
         fill-rule="nonzero"
         id="path499"
         style="display:inline;fill:url(#linearGradient513);stroke-width:0.994838;enable-background:new" />
      <path
         d="M 363.53577,64.224269 C 363.38456,62.401726 361.86246,61 360.03394,61 h -32.92017 c -1.82851,0 -3.35062,1.401726 -3.50183,3.224269 -0.58397,7.075285 -1.97774,23.936791 -2.60349,31.513476 -0.0806,0.978919 0.25169,1.946896 0.91625,2.669148 0.66554,0.723247 1.60268,1.134115 2.58458,1.134115 h 38.12915 c 0.9819,0 1.91904,-0.410868 2.58459,-1.134115 0.66455,-0.722252 0.99683,-1.690229 0.91624,-2.669148 -0.62575,-7.576685 -2.01952,-24.438191 -2.60349,-31.513476 z"
         fill="url(#b)"
         id="path501"
         style="display:inline;fill:url(#linearGradient515);stroke-width:0.994838;enable-background:new" />
      <path
         d="M 347.62608,162.43768 H 323.8181 c -1.23923,0 -2.35323,-0.76624 -2.42979,-2.00222 -0.0616,-1.00306 -0.38993,-4.45536 -0.39058,-4.4625 h 29.44871 c -6.7e-4,0.007 -0.32894,3.45944 -0.39058,4.4625 -0.0766,1.23598 -1.19056,2.00222 -2.42978,2.00222 z"
         fill="url(#a)"
         fill-rule="nonzero"
         id="path519"
         style="display:inline;fill:url(#linearGradient533);stroke-width:0.648808;enable-background:new" />
      <path
         d="M 348.74073,135.10278 C 348.64211,133.91417 347.64943,133 346.45693,133 h -21.46968 c -1.19251,0 -2.18519,0.91417 -2.2838,2.10278 -0.38085,4.61432 -1.28983,15.61095 -1.69793,20.55227 -0.0526,0.63842 0.16414,1.26971 0.59755,1.74075 0.43405,0.47168 1.04523,0.73964 1.6856,0.73964 h 24.86683 c 0.64038,0 1.25155,-0.26796 1.6856,-0.73964 0.43341,-0.47104 0.65011,-1.10233 0.59756,-1.74075 -0.40811,-4.94132 -1.31708,-15.93795 -1.69793,-20.55227 z"
         fill="url(#b)"
         id="path521"
         style="display:inline;fill:url(#linearGradient535);stroke-width:0.648808;enable-background:new" />
      <path
         d="M 340.52579,210.58764 H 323.0666 c -0.90876,0 -1.7257,-0.56191 -1.78184,-1.4683 -0.0452,-0.73557 -0.28595,-3.26726 -0.28643,-3.27249 h 21.59572 c -4.9e-4,0.005 -0.24122,2.53692 -0.28642,3.27249 -0.0562,0.90639 -0.87308,1.4683 -1.78184,1.4683 z"
         fill="url(#a)"
         fill-rule="nonzero"
         id="path539"
         style="display:inline;fill:url(#linearGradient553);stroke-width:0.475792;enable-background:new" />
      <path
         d="M 341.3432,190.54205 C 341.27088,189.6704 340.54291,189 339.66841,189 h -15.74443 c -0.87451,0 -1.60247,0.6704 -1.67479,1.54205 -0.27929,3.38383 -0.94587,11.44803 -1.24515,15.07166 -0.0385,0.46818 0.12038,0.93112 0.43821,1.27655 0.3183,0.3459 0.7665,0.5424 1.2361,0.5424 h 18.23568 c 0.46961,0 0.91781,-0.1965 1.23611,-0.5424 0.31783,-0.34543 0.47674,-0.80837 0.4382,-1.27655 -0.29927,-3.62363 -0.96585,-11.68783 -1.24514,-15.07166 z"
         fill="url(#b)"
         id="path541"
         style="display:inline;fill:url(#linearGradient555);stroke-width:0.475792;enable-background:new" />
      <path
         d="m 333.4255,250.73759 h -11.11039 c -0.5783,0 -1.09817,-0.35758 -1.1339,-0.93437 -0.0288,-0.4681 -0.18197,-2.07917 -0.18227,-2.0825 h 13.74273 c -3.1e-4,0.003 -0.1535,1.6144 -0.18227,2.0825 -0.0357,0.57679 -0.55559,0.93437 -1.1339,0.93437 z"
         fill="url(#a)"
         fill-rule="nonzero"
         id="path559"
         style="display:inline;fill:url(#linearGradient573);stroke-width:0.302777;enable-background:new" />
      <path
         d="M 333.94567,237.9813 C 333.89965,237.42661 333.4364,237 332.8799,237 h -10.01918 c -0.55651,0 -1.01976,0.42661 -1.06578,0.9813 -0.17773,2.15335 -0.60192,7.28511 -0.79237,9.59106 -0.0245,0.29793 0.0766,0.59253 0.27886,0.81235 0.20256,0.22012 0.48778,0.34516 0.78662,0.34516 h 11.60452 c 0.29884,0 0.58405,-0.12504 0.78661,-0.34516 0.20226,-0.21982 0.30338,-0.51442 0.27886,-0.81235 -0.19045,-2.30595 -0.61464,-7.43771 -0.79237,-9.59106 z"
         fill="url(#b)"
         id="path561"
         style="display:inline;fill:url(#linearGradient575);stroke-width:0.302777;enable-background:new" />
    </g>
    <g
       inkscape:groupmode="layer"
       id="layer6"
       inkscape:label="Pictogram"
       style="display:inline">
      <path
         d="m 195.9106,249.14695 c 0,-0.80417 -0.31974,-1.57928 -0.89138,-2.15092 -0.57164,-0.5668 -1.34675,-0.89138 -2.15092,-0.89138 h -85.20863 c -0.80902,0 -1.58413,0.32458 -2.15093,0.89138 -0.57164,0.57164 -0.89137,1.34675 -0.89137,2.15092 v 0.0388 c 0,0.80902 0.31973,1.58413 0.89137,2.15093 0.5668,0.57164 1.34191,0.89137 2.15093,0.89137 h 85.20863 c 0.80417,0 1.57928,-0.31973 2.15092,-0.89137 0.57164,-0.5668 0.89138,-1.34191 0.89138,-2.15093 z"
         fill="url(#c)"
         id="path36"
         style="display:inline;enable-background:new;fill:url(#linearGradient747);stroke-width:4.84443" />
      <path
         d="m 149.9176,86.07869 c 26.75578,0 48.44428,21.6885 48.44428,48.44427 0,26.75578 -21.6885,48.44428 -48.44428,48.44428 h -48.44427 v -48.44428 c 0,-26.75577 21.6885,-48.44427 48.44427,-48.44427 z m 0,24.22214 c -13.37546,0 -24.22213,10.84667 -24.22213,24.22213 0,13.37547 10.84667,24.22214 24.22213,24.22214 13.37547,0 24.22214,-10.84667 24.22214,-24.22214 0,-13.37546 -10.84667,-24.22213 -24.22214,-24.22213 z"
         fill="#a1a7ae"
         fill-rule="nonzero"
         id="path42"
         style="display:inline;enable-background:new;stroke-width:4.84443" />
      <circle
         cx="216.35406"
         cy="220.3371"
         r="47.662903"
         fill="#8645fb"
         stroke-width="4.33299"
         id="circle44"
         style="display:inline;enable-background:new" />
      <path
         d="m 209.0293,191.26574 -0.6443,7.65419 c -2.45128,0.90107 -4.72817,2.20422 -6.7386,3.86101 l -7.01958,-3.27483 -7.32962,12.58582 6.37043,4.38905 c -0.22285,1.26924 -0.34396,2.55786 -0.3488,3.85132 0,1.29831 0.11142,2.59177 0.33426,3.8707 l -6.36557,4.37452 7.33446,12.58582 7.00019,-3.26999 c 2.01529,1.64711 4.29701,2.94541 6.74829,3.83679 l 0.64431,7.67357 h 14.66408 l 0.64915,-7.6542 c 2.44644,-0.90106 4.72817,-2.20421 6.73376,-3.861 l 7.01957,3.27483 7.33447,-12.58582 -6.37527,-4.38905 c 0.22769,-1.26924 0.34395,-2.55786 0.35364,-3.85132 -0.005,-1.29831 -0.11626,-2.59177 -0.33911,-3.86586 l 6.36074,-4.36482 -7.32962,-12.59067 -7.00504,3.26999 c -2.01529,-1.64711 -4.29701,-2.94541 -6.74829,-3.83679 l -0.64915,-7.67357 h -14.66408 z m 7.33447,15.15337 c 7.69779,0 14.0343,6.28322 14.0343,13.91319 0,7.62998 -6.33651,13.9132 -14.0343,13.9132 -7.70264,0 -14.03915,-6.28322 -14.03915,-13.9132 0,-7.62997 6.33651,-13.91319 14.03915,-13.91319 z"
         fill="#ffffff"
         fill-rule="nonzero"
         id="path46"
         style="display:inline;enable-background:new;stroke-width:4.84443" />
      <path
         d="m 353.01735,103.12839 c 0,-0.16514 -0.0657,-0.32431 -0.18305,-0.4417 -0.11739,-0.1164 -0.27656,-0.18306 -0.4417,-0.18306 h -17.4982 c -0.16614,0 -0.32532,0.0667 -0.44171,0.18306 -0.11739,0.11739 -0.18305,0.27656 -0.18305,0.4417 v 0.008 c 0,0.16614 0.0657,0.32531 0.18305,0.44171 0.11639,0.11739 0.27557,0.18305 0.44171,0.18305 h 17.4982 c 0.16514,0 0.32431,-0.0657 0.4417,-0.18305 0.11739,-0.1164 0.18305,-0.27557 0.18305,-0.44171 z"
         fill="url(#c)"
         id="path503"
         style="display:inline;enable-background:new;fill:url(#linearGradient517);stroke-width:0.994838" />
      <path
         d="m 343.57236,69.641159 c 5.49449,0 9.94838,4.453889 9.94838,9.948378 0,5.49449 -4.45389,9.948379 -9.94838,9.948379 h -9.94837 v -9.948379 c 0,-5.494489 4.45388,-9.948378 9.94837,-9.948378 z m 0,4.97419 c -2.74674,0 -4.97418,2.227441 -4.97418,4.974188 0,2.746748 2.22744,4.974189 4.97418,4.974189 2.74675,0 4.97419,-2.227441 4.97419,-4.974189 0,-2.746747 -2.22744,-4.974188 -4.97419,-4.974188 z"
         fill="#a1a7ae"
         fill-rule="nonzero"
         id="path505"
         style="display:inline;enable-background:new;stroke-width:0.994838" />
      <circle
         cx="357.21558"
         cy="97.212082"
         r="9.7879181"
         fill="#8645fb"
         stroke-width="0.889811"
         id="circle507"
         style="display:inline;enable-background:new" />
      <path
         d="m 355.71137,91.242072 -0.13231,1.571843 c -0.50339,0.185041 -0.97096,0.452652 -1.38382,0.792886 l -1.44152,-0.67251 -1.50519,2.584588 1.30822,0.901323 c -0.0458,0.260648 -0.0706,0.525275 -0.0716,0.790896 0,0.266617 0.0229,0.532239 0.0686,0.794876 l -1.30722,0.898339 1.50619,2.584587 1.43754,-0.67151 c 0.41385,0.33824 0.88242,0.60486 1.38581,0.78791 l 0.13231,1.57582 h 3.01137 l 0.13331,-1.57184 c 0.5024,-0.18504 0.97096,-0.45265 1.38283,-0.79289 l 1.44152,0.67251 1.50618,-2.584587 -1.30921,-0.901323 c 0.0468,-0.260647 0.0706,-0.525275 0.0726,-0.790896 -10e-4,-0.266617 -0.0239,-0.532238 -0.0696,-0.793882 l 1.30622,-0.896347 -1.50519,-2.585584 -1.43853,0.671516 c -0.41386,-0.338246 -0.88242,-0.604861 -1.38581,-0.787912 l -0.13331,-1.575823 h -3.01137 z m 1.50619,3.111853 c 1.5808,0 2.88204,1.290304 2.88204,2.857173 0,1.566871 -1.30124,2.857172 -2.88204,2.857172 -1.58179,0 -2.88304,-1.290301 -2.88304,-2.857172 0,-1.566869 1.30125,-2.857173 2.88304,-2.857173 z"
         fill="#ffffff"
         fill-rule="nonzero"
         id="path509"
         style="display:inline;enable-background:new;stroke-width:0.994838" />
      <path
         d="m 341.88089,160.47503 c 0,-0.1077 -0.0428,-0.21151 -0.11938,-0.28807 -0.0766,-0.0759 -0.18037,-0.11938 -0.28807,-0.11938 h -11.41187 c -0.10835,0 -0.21216,0.0435 -0.28807,0.11938 -0.0766,0.0766 -0.11938,0.18037 -0.11938,0.28807 v 0.005 c 0,0.10835 0.0428,0.21216 0.11938,0.28807 0.0759,0.0766 0.17972,0.11938 0.28807,0.11938 h 11.41187 c 0.1077,0 0.21151,-0.0428 0.28807,-0.11938 0.0766,-0.0759 0.11938,-0.17972 0.11938,-0.28807 z"
         fill="url(#c)"
         id="path523"
         style="display:inline;enable-background:new;fill:url(#linearGradient537);stroke-width:0.648808" />
      <path
         d="m 335.72111,138.63554 c 3.58337,0 6.48808,2.90471 6.48808,6.48807 0,3.58336 -2.90471,6.48807 -6.48808,6.48807 h -6.48807 v -6.48807 c 0,-3.58336 2.90471,-6.48807 6.48807,-6.48807 z m 0,3.24403 c -1.79135,0 -3.24403,1.45268 -3.24403,3.24404 0,1.79136 1.45268,3.24403 3.24403,3.24403 1.79136,0 3.24404,-1.45267 3.24404,-3.24403 0,-1.79136 -1.45268,-3.24404 -3.24404,-3.24404 z"
         fill="#a1a7ae"
         fill-rule="nonzero"
         id="path525"
         style="display:inline;enable-background:new;stroke-width:0.648808" />
      <circle
         cx="344.61887"
         cy="156.61658"
         r="6.3834243"
         fill="#8645fb"
         stroke-width="0.580311"
         id="circle527"
         style="display:inline;enable-background:new" />
      <path
         d="m 343.63786,152.72309 -0.0863,1.02511 c -0.3283,0.12068 -0.63324,0.29521 -0.90249,0.5171 l -0.94013,-0.43859 -0.98164,1.6856 0.85318,0.58782 c -0.0298,0.16999 -0.0461,0.34257 -0.0467,0.5158 0,0.17388 0.0149,0.34711 0.0448,0.5184 l -0.85253,0.58587 0.9823,1.6856 0.93752,-0.43794 c 0.26991,0.22059 0.57549,0.39447 0.90379,0.51385 l 0.0863,1.02771 h 1.96394 l 0.0869,-1.02511 c 0.32765,-0.12068 0.63324,-0.29521 0.90184,-0.5171 l 0.94012,0.43859 0.9823,-1.6856 -0.85383,-0.58782 c 0.0305,-0.16999 0.0461,-0.34257 0.0474,-0.5158 -6.7e-4,-0.17388 -0.0156,-0.34711 -0.0454,-0.51775 l 0.85189,-0.58457 -0.98165,-1.68625 -0.93817,0.43794 c -0.26991,-0.22059 -0.57549,-0.39447 -0.90379,-0.51386 l -0.0869,-1.02771 h -1.96394 z m 0.98229,2.02947 c 1.03096,0 1.8796,0.8415 1.8796,1.86337 0,1.02187 -0.84864,1.86337 -1.8796,1.86337 -1.0316,0 -1.88024,-0.8415 -1.88024,-1.86337 0,-1.02187 0.84864,-1.86337 1.88024,-1.86337 z"
         fill="#ffffff"
         fill-rule="nonzero"
         id="path529"
         style="display:inline;enable-background:new;stroke-width:0.648808" />
      <path
         d="m 336.31265,209.14837 c 0,-0.079 -0.0314,-0.15511 -0.0876,-0.21125 -0.0561,-0.0557 -0.13227,-0.0875 -0.21125,-0.0875 h -8.3687 c -0.0795,0 -0.15559,0.0319 -0.21126,0.0875 -0.0561,0.0561 -0.0875,0.13227 -0.0875,0.21125 v 0.004 c 0,0.0795 0.0314,0.15558 0.0875,0.21125 0.0557,0.0561 0.1318,0.0875 0.21126,0.0875 h 8.3687 c 0.079,0 0.15511,-0.0314 0.21125,-0.0875 0.0562,-0.0557 0.0876,-0.1318 0.0876,-0.21125 z"
         fill="url(#c)"
         id="path543"
         style="display:inline;enable-background:new;fill:url(#linearGradient557);stroke-width:0.475792" />
      <path
         d="m 331.79548,193.13273 c 2.6278,0 4.75792,2.13012 4.75792,4.75792 0,2.6278 -2.13012,4.75792 -4.75792,4.75792 h -4.75792 v -4.75792 c 0,-2.6278 2.13012,-4.75792 4.75792,-4.75792 z m 0,2.37896 c -1.31366,0 -2.37896,1.0653 -2.37896,2.37896 0,1.31366 1.0653,2.37896 2.37896,2.37896 1.31366,0 2.37896,-1.0653 2.37896,-2.37896 0,-1.31366 -1.0653,-2.37896 -2.37896,-2.37896 z"
         fill="#a1a7ae"
         fill-rule="nonzero"
         id="path545"
         style="display:inline;enable-background:new;stroke-width:0.475792" />
      <circle
         cx="338.3205"
         cy="206.31883"
         r="4.6811781"
         fill="#8645fb"
         stroke-width="0.425562"
         id="circle547"
         style="display:inline;enable-background:new" />
      <path
         d="m 337.60109,203.4636 -0.0633,0.75176 c -0.24075,0.0885 -0.46437,0.21648 -0.66182,0.3792 l -0.68943,-0.32163 -0.71987,1.2361 0.62567,0.43107 c -0.0219,0.12466 -0.0338,0.25122 -0.0343,0.37826 0,0.12751 0.0109,0.25454 0.0328,0.38015 l -0.62519,0.42964 0.72035,1.23611 0.68752,-0.32116 c 0.19793,0.16177 0.42202,0.28928 0.66278,0.37683 l 0.0633,0.75365 h 1.44022 l 0.0637,-0.75175 c 0.24028,-0.0885 0.46438,-0.21648 0.66135,-0.3792 l 0.68943,0.32163 0.72035,-1.23611 -0.62615,-0.43106 c 0.0224,-0.12466 0.0338,-0.25122 0.0347,-0.37826 -4.9e-4,-0.12751 -0.0114,-0.25455 -0.0333,-0.37968 l 0.62472,-0.42869 -0.71988,-1.23658 -0.68799,0.32116 c -0.19793,-0.16177 -0.42203,-0.28928 -0.66278,-0.37683 l -0.0638,-0.75365 h -1.44022 z m 0.72035,1.48828 c 0.75604,0 1.37837,0.6171 1.37837,1.36648 0,0.74937 -0.62233,1.36647 -1.37837,1.36647 -0.75651,0 -1.37884,-0.6171 -1.37884,-1.36647 0,-0.74938 0.62233,-1.36648 1.37884,-1.36648 z"
         fill="#ffffff"
         fill-rule="nonzero"
         id="path549"
         style="display:inline;enable-background:new;stroke-width:0.475792" />
      <path
         d="m 330.74442,249.82168 c 0,-0.0503 -0.02,-0.0987 -0.0557,-0.13443 -0.0357,-0.0354 -0.0842,-0.0557 -0.13443,-0.0557 h -5.32554 c -0.0506,0 -0.099,0.0203 -0.13443,0.0557 -0.0357,0.0357 -0.0557,0.0842 -0.0557,0.13443 v 0.002 c 0,0.0506 0.02,0.099 0.0557,0.13443 0.0354,0.0357 0.0839,0.0557 0.13443,0.0557 h 5.32554 c 0.0503,0 0.0987,-0.02 0.13443,-0.0557 0.0357,-0.0354 0.0557,-0.0839 0.0557,-0.13443 z"
         fill="url(#c)"
         id="path563"
         style="display:inline;enable-background:new;fill:url(#linearGradient577);stroke-width:0.302777" />
      <path
         d="m 327.86985,239.62992 c 1.67224,0 3.02777,1.35553 3.02777,3.02777 0,1.67223 -1.35553,3.02776 -3.02777,3.02776 h -3.02776 v -3.02776 c 0,-1.67224 1.35553,-3.02777 3.02776,-3.02777 z m 0,1.51388 c -0.83596,0 -1.51388,0.67792 -1.51388,1.51389 0,0.83596 0.67792,1.51388 1.51388,1.51388 0.83597,0 1.51389,-0.67792 1.51389,-1.51388 0,-0.83597 -0.67792,-1.51389 -1.51389,-1.51389 z"
         fill="#a1a7ae"
         fill-rule="nonzero"
         id="path565"
         style="display:inline;enable-background:new;stroke-width:0.302777" />
      <circle
         cx="332.02213"
         cy="248.02107"
         r="2.9789314"
         fill="#8645fb"
         stroke-width="0.270812"
         id="circle567"
         style="display:inline;enable-background:new" />
      <path
         d="m 331.56433,246.20411 -0.0403,0.47839 c -0.15321,0.0563 -0.29551,0.13776 -0.42117,0.24131 l -0.43872,-0.20468 -0.4581,0.78662 0.39815,0.27431 c -0.0139,0.0793 -0.0215,0.15987 -0.0218,0.24071 0,0.0811 0.007,0.16199 0.0209,0.24192 l -0.39785,0.27341 0.45841,0.78661 0.43751,-0.20438 c 0.12595,0.10295 0.26856,0.18409 0.42177,0.2398 l 0.0403,0.4796 h 0.9165 l 0.0406,-0.47838 c 0.15291,-0.0563 0.29551,-0.13777 0.42086,-0.24132 l 0.43873,0.20468 0.4584,-0.78661 -0.39845,-0.27432 c 0.0142,-0.0793 0.0215,-0.15987 0.0221,-0.24071 -3.1e-4,-0.0811 -0.007,-0.16198 -0.0212,-0.24161 l 0.39755,-0.2728 -0.4581,-0.78692 -0.43782,0.20437 c -0.12595,-0.10294 -0.26856,-0.18409 -0.42176,-0.2398 l -0.0406,-0.47959 h -0.9165 z m 0.45841,0.94708 c 0.48111,0 0.87714,0.39271 0.87714,0.86958 0,0.47687 -0.39603,0.86957 -0.87714,0.86957 -0.48142,0 -0.87745,-0.3927 -0.87745,-0.86957 0,-0.47687 0.39603,-0.86958 0.87745,-0.86958 z"
         fill="#ffffff"
         fill-rule="nonzero"
         id="path569"
         style="display:inline;enable-background:new;stroke-width:0.302777" />
    </g>
  </g>
</svg>
