<?xml version="1.0" encoding="UTF-8" standalone="no"?>
<svg
   inkscape:export-ydpi="90.000000"
   inkscape:export-xdpi="90.000000"
   width="400"
   height="300"
   id="svg11300"
   sodipodi:version="0.32"
   inkscape:version="1.2.2 (b0a8486541, 2022-12-01)"
   sodipodi:docname="documents-app.svg"
   inkscape:output_extension="org.inkscape.output.svg.inkscape"
   version="1.0"
   style="display:inline;enable-background:new"
   inkscape:export-filename="/home/sam/suru-template.png"
   xmlns:inkscape="http://www.inkscape.org/namespaces/inkscape"
   xmlns:sodipodi="http://sodipodi.sourceforge.net/DTD/sodipodi-0.dtd"
   xmlns:xlink="http://www.w3.org/1999/xlink"
   xmlns="http://www.w3.org/2000/svg"
   xmlns:svg="http://www.w3.org/2000/svg"
   xmlns:rdf="http://www.w3.org/1999/02/22-rdf-syntax-ns#"
   xmlns:cc="http://creativecommons.org/ns#"
   xmlns:dc="http://purl.org/dc/elements/1.1/">
  <title
     id="title3004">Suru Icon Theme Template</title>
  <sodipodi:namedview
     stroke="#ef2929"
     fill="#f57900"
     id="base"
     pagecolor="#ffffff"
     bordercolor="#000000"
     borderopacity="0.25490196"
     inkscape:pageopacity="0"
     inkscape:pageshadow="2"
     inkscape:zoom="2"
     inkscape:cx="228.5"
     inkscape:cy="157"
     inkscape:current-layer="layer6"
     showgrid="false"
     inkscape:grid-bbox="true"
     inkscape:document-units="px"
     inkscape:showpageshadow="false"
     inkscape:window-width="1920"
     inkscape:window-height="1020"
     inkscape:window-x="0"
     inkscape:window-y="32"
     width="400px"
     height="300px"
     inkscape:snap-nodes="true"
     inkscape:snap-bbox="true"
     gridtolerance="10000"
     inkscape:object-nodes="true"
     inkscape:snap-grids="true"
     showguides="true"
     inkscape:guide-bbox="true"
     inkscape:window-maximized="1"
     inkscape:bbox-paths="true"
     inkscape:snap-bbox-midpoints="true"
     inkscape:snap-global="true"
     inkscape:object-paths="true"
     inkscape:snap-intersection-paths="true"
     inkscape:snap-smooth-nodes="true"
     inkscape:pagecheckerboard="false"
     showborder="false"
     inkscape:document-rotation="0"
     inkscape:deskcolor="#d1d1d1">
    <inkscape:grid
       spacingy="1"
       spacingx="1"
       id="grid5883"
       type="xygrid"
       enabled="true"
       visible="true"
       empspacing="4"
       snapvisiblegridlinesonly="true"
       originx="0"
       originy="0" />
    <inkscape:grid
       type="xygrid"
       id="grid11592"
       empspacing="2"
       visible="true"
       enabled="false"
       spacingx="0.5"
       spacingy="0.5"
       color="#ff0000"
       opacity="0.1254902"
       empcolor="#ff0000"
       empopacity="0.25098039"
       snapvisiblegridlinesonly="true"
       originx="0"
       originy="0" />
  </sodipodi:namedview>
  <defs
     id="defs3">
    <linearGradient
       id="a"
       x2="1"
       gradientTransform="matrix(0,-42.223,42.223,0,107.66,44.339)"
       gradientUnits="userSpaceOnUse">
      <stop
         stop-color="#d1d1d1"
         offset="0"
         id="stop126" />
      <stop
         stop-color="#e3e3e3"
         offset="1"
         id="stop128" />
    </linearGradient>
    <linearGradient
       id="b"
       x2="1"
       gradientTransform="matrix(0.79491,41.495,-41.495,0.79491,-47.225,6.0858)"
       gradientUnits="userSpaceOnUse">
      <stop
         stop-color="#ff5100"
         offset="0"
         id="stop131" />
      <stop
         stop-color="#deb37b"
         offset="1"
         id="stop133" />
    </linearGradient>
    <linearGradient
       id="c"
       x2="1"
       gradientTransform="matrix(0,-45.529,45.529,0,58.113,46.116)"
       gradientUnits="userSpaceOnUse">
      <stop
         stop-color="#9d9d9d"
         offset="0"
         id="stop136" />
      <stop
         stop-color="#e3e3e3"
         offset="1"
         id="stop138" />
    </linearGradient>
    <linearGradient
       id="d"
       x2="1"
       gradientTransform="matrix(0.366,-33.252,33.252,0.366,13.15,39.883)"
       gradientUnits="userSpaceOnUse">
      <stop
         stop-color="#e1ab70"
         offset="0"
         id="stop141" />
      <stop
         stop-color="#fe5302"
         offset="1"
         id="stop143" />
    </linearGradient>
    <linearGradient
       inkscape:collect="always"
       xlink:href="#a"
       id="linearGradient346"
       gradientUnits="userSpaceOnUse"
       gradientTransform="matrix(0,-41.735243,41.735243,0,426.69294,104.15228)"
       x2="1" />
    <linearGradient
       inkscape:collect="always"
       xlink:href="#b"
       id="linearGradient348"
       gradientUnits="userSpaceOnUse"
       gradientTransform="matrix(0.78572726,41.015653,-41.015653,0.78572726,273.59716,66.340979)"
       x2="1" />
    <linearGradient
       inkscape:collect="always"
       xlink:href="#c"
       id="linearGradient350"
       gradientUnits="userSpaceOnUse"
       gradientTransform="matrix(0,-45.003053,45.003053,0,377.7183,105.90875)"
       x2="1" />
    <linearGradient
       inkscape:collect="always"
       xlink:href="#d"
       id="linearGradient352"
       gradientUnits="userSpaceOnUse"
       gradientTransform="matrix(0.361772,-32.867876,32.867876,0.361772,333.27471,99.747757)"
       x2="1" />
    <linearGradient
       inkscape:collect="always"
       xlink:href="#a"
       id="linearGradient364"
       gradientUnits="userSpaceOnUse"
       gradientTransform="matrix(0,-27.218637,27.218637,0,389.93018,161.1428)"
       x2="1" />
    <linearGradient
       inkscape:collect="always"
       xlink:href="#b"
       id="linearGradient366"
       gradientUnits="userSpaceOnUse"
       gradientTransform="matrix(0.51243082,26.749339,-26.749339,0.51243082,290.0851,136.48325)"
       x2="1" />
    <linearGradient
       inkscape:collect="always"
       xlink:href="#c"
       id="linearGradient368"
       gradientUnits="userSpaceOnUse"
       gradientTransform="matrix(0,-29.349817,29.349817,0,357.9902,162.28832)"
       x2="1" />
    <linearGradient
       inkscape:collect="always"
       xlink:href="#d"
       id="linearGradient370"
       gradientUnits="userSpaceOnUse"
       gradientTransform="matrix(0.23593826,-21.435571,21.435571,0.23593826,329.00525,158.27028)"
       x2="1" />
    <linearGradient
       inkscape:collect="always"
       xlink:href="#a"
       id="linearGradient382"
       gradientUnits="userSpaceOnUse"
       gradientTransform="matrix(0,-20.867622,20.867622,0,373.34647,210.07614)"
       x2="1" />
    <linearGradient
       inkscape:collect="always"
       xlink:href="#b"
       id="linearGradient384"
       gradientUnits="userSpaceOnUse"
       gradientTransform="matrix(0.39286363,20.507827,-20.507827,0.39286363,296.79858,191.17049)"
       x2="1" />
    <linearGradient
       inkscape:collect="always"
       xlink:href="#c"
       id="linearGradient386"
       gradientUnits="userSpaceOnUse"
       gradientTransform="matrix(0,-22.501526,22.501526,0,348.85915,210.95438)"
       x2="1" />
    <linearGradient
       inkscape:collect="always"
       xlink:href="#d"
       id="linearGradient388"
       gradientUnits="userSpaceOnUse"
       gradientTransform="matrix(0.180886,-16.433938,16.433938,0.180886,326.63736,207.87388)"
       x2="1" />
    <linearGradient
       inkscape:collect="always"
       xlink:href="#a"
       id="linearGradient400"
       gradientUnits="userSpaceOnUse"
       gradientTransform="matrix(0,-13.609319,13.609319,0,354.96508,250.5714)"
       x2="1" />
    <linearGradient
       inkscape:collect="always"
       xlink:href="#b"
       id="linearGradient402"
       gradientUnits="userSpaceOnUse"
       gradientTransform="matrix(0.25621542,13.37467,-13.37467,0.25621542,305.04255,238.24163)"
       x2="1" />
    <linearGradient
       inkscape:collect="always"
       xlink:href="#c"
       id="linearGradient404"
       gradientUnits="userSpaceOnUse"
       gradientTransform="matrix(0,-14.674909,14.674909,0,338.99509,251.14416)"
       x2="1" />
    <linearGradient
       inkscape:collect="always"
       xlink:href="#d"
       id="linearGradient406"
       gradientUnits="userSpaceOnUse"
       gradientTransform="matrix(0.11796913,-10.717786,10.717786,0.11796913,324.50262,249.13514)"
       x2="1" />
    <linearGradient
       inkscape:collect="always"
       xlink:href="#a"
       id="linearGradient412"
       gradientUnits="userSpaceOnUse"
       gradientTransform="matrix(0,-203.23249,203.23249,0,554.67866,254.13285)"
       x2="1" />
    <linearGradient
       inkscape:collect="always"
       xlink:href="#b"
       id="linearGradient414"
       gradientUnits="userSpaceOnUse"
       gradientTransform="matrix(3.8261502,199.7284,-199.7284,3.8261502,-190.83123,70.008245)"
       x2="1" />
    <linearGradient
       inkscape:collect="always"
       xlink:href="#c"
       id="linearGradient416"
       gradientUnits="userSpaceOnUse"
       gradientTransform="matrix(0,-219.1453,219.1453,0,316.19347,262.6861)"
       x2="1" />
    <linearGradient
       inkscape:collect="always"
       xlink:href="#d"
       id="linearGradient418"
       gradientUnits="userSpaceOnUse"
       gradientTransform="matrix(1.7616723,-160.05226,160.05226,1.7616723,99.772503,232.68473)"
       x2="1" />
  </defs>
  <metadata
     id="metadata4">
    <rdf:RDF>
      <cc:Work
         rdf:about="">
        <dc:format>image/svg+xml</dc:format>
        <dc:type
           rdf:resource="http://purl.org/dc/dcmitype/StillImage" />
        <dc:creator>
          <cc:Agent>
            <dc:title>Sam Hewitt</dc:title>
          </cc:Agent>
        </dc:creator>
        <dc:source />
        <cc:license
           rdf:resource="http://creativecommons.org/licenses/by-sa/4.0/" />
        <dc:title>Suru Icon Theme Template</dc:title>
        <dc:subject>
          <rdf:Bag />
        </dc:subject>
        <dc:date />
        <dc:rights>
          <cc:Agent>
            <dc:title />
          </cc:Agent>
        </dc:rights>
        <dc:publisher>
          <cc:Agent>
            <dc:title />
          </cc:Agent>
        </dc:publisher>
        <dc:identifier />
        <dc:relation />
        <dc:language />
        <dc:coverage />
        <dc:description />
        <dc:contributor>
          <cc:Agent>
            <dc:title />
          </cc:Agent>
        </dc:contributor>
      </cc:Work>
      <cc:Work
         rdf:about="">
        <dc:format>image/svg+xml</dc:format>
        <dc:type
           rdf:resource="http://purl.org/dc/dcmitype/StillImage" />
      </cc:Work>
      <cc:License
         rdf:about="http://creativecommons.org/licenses/by-sa/4.0/">
        <cc:permits
           rdf:resource="http://creativecommons.org/ns#Reproduction" />
        <cc:permits
           rdf:resource="http://creativecommons.org/ns#Distribution" />
        <cc:requires
           rdf:resource="http://creativecommons.org/ns#Notice" />
        <cc:requires
           rdf:resource="http://creativecommons.org/ns#Attribution" />
        <cc:permits
           rdf:resource="http://creativecommons.org/ns#DerivativeWorks" />
        <cc:requires
           rdf:resource="http://creativecommons.org/ns#ShareAlike" />
      </cc:License>
    </rdf:RDF>
  </metadata>
  <g
     style="display:inline"
     inkscape:groupmode="layer"
     inkscape:label="Icon"
     id="layer1">
    <g
       style="display:none"
       inkscape:label="Baseplate"
       id="layer7"
       inkscape:groupmode="layer">
      <text
         y="-8.2548828"
         xml:space="preserve"
         x="19.006836"
         style="font-style:normal;font-variant:normal;font-weight:normal;font-stretch:normal;line-height:0%;font-family:'DejaVu Sans';-inkscape-font-specification:'DejaVu Sans';display:inline;fill:#000000;fill-opacity:1;stroke:none;enable-background:new"
         inkscape:label="context"
         id="context"><tspan
           style="font-style:normal;font-variant:normal;font-weight:normal;font-stretch:normal;font-size:18px;line-height:1.25;font-family:'DejaVu Sans';-inkscape-font-specification:'DejaVu Sans'"
           y="-8.2548828"
           x="19.006836"
           sodipodi:role="line"
           id="tspan3933">apps</tspan></text>
      <text
         y="-8.2548828"
         xml:space="preserve"
         x="146.48828"
         style="font-style:normal;font-variant:normal;font-weight:bold;font-stretch:normal;line-height:0%;font-family:'DejaVu Sans';-inkscape-font-specification:'DejaVu Sans Bold';text-align:start;writing-mode:lr-tb;text-anchor:start;display:inline;fill:#000000;fill-opacity:1;stroke:none;enable-background:new"
         inkscape:label="icon-name"
         id="icon-name"><tspan
           style="font-style:normal;font-variant:normal;font-weight:bold;font-stretch:normal;font-size:18px;line-height:1.25;font-family:'DejaVu Sans';-inkscape-font-specification:'DejaVu Sans Bold'"
           y="-8.2548828"
           x="146.48828"
           sodipodi:role="line"
           id="tspan924">documents-app</tspan></text>
      <rect
         style="display:inline;overflow:visible;visibility:visible;fill:#cdcdcd;fill-opacity:1;fill-rule:nonzero;stroke:none;stroke-width:2;marker:none;enable-background:accumulate"
         id="rect16x16"
         width="16"
         height="16"
         x="320"
         y="236"
         inkscape:label="16x16" />
      <rect
         style="display:inline;overflow:visible;visibility:visible;fill:#cdcdcd;fill-opacity:1;fill-rule:nonzero;stroke:none;stroke-width:2;marker:none;enable-background:accumulate"
         id="rect24x24"
         width="24"
         height="24"
         x="320"
         y="188"
         inkscape:label="24x24" />
      <rect
         style="display:inline;overflow:visible;visibility:visible;fill:#cdcdcd;fill-opacity:1;fill-rule:nonzero;stroke:none;stroke-width:2;marker:none;enable-background:accumulate"
         id="rect32x32"
         width="32"
         height="32"
         x="320"
         y="132"
         inkscape:label="32x32" />
      <rect
         inkscape:label="48x48"
         y="60"
         x="320"
         height="48"
         width="48"
         id="rect48x48"
         style="display:inline;overflow:visible;visibility:visible;fill:#cdcdcd;fill-opacity:1;fill-rule:nonzero;stroke:none;stroke-width:2;marker:none;enable-background:accumulate" />
      <rect
         style="display:inline;overflow:visible;visibility:visible;fill:#cdcdcd;fill-opacity:1;fill-rule:nonzero;stroke:none;stroke-width:2;marker:none;enable-background:accumulate"
         id="rect256x256"
         width="256"
         height="256"
         x="24"
         y="28"
         inkscape:label="256x256" />
    </g>
    <g
       inkscape:groupmode="layer"
       id="layer2"
       inkscape:label="Background"
       style="display:inline">
      <path
         d="M 67.277831,259.06168 H 158.93293 L 158.92811,51.612727 68.163481,51.328742 C 52.924533,51.607914 46.570961,57.350196 46.171456,72.589143 V 237.31513 c 0.05776,13.24624 10.6663,21.74655 21.106375,21.74655 z"
         fill="url(#a)"
         id="path146"
         style="fill:url(#linearGradient412);stroke-width:4.81331" />
      <path
         d="m 240.54745,259.06168 -58.16888,-0.0674 V 51.545341 l 59.83429,-0.216599 c 10.39675,0.125146 15.59513,8.221137 15.59513,17.948842 V 240.27532 c 0.45245,10.68074 -6.60387,18.55532 -17.26054,18.78636 z"
         fill="url(#b)"
         id="path148"
         style="fill:url(#linearGradient414);stroke-width:4.81331" />
      <path
         d="m 242.67012,248.15471 c -0.19253,12.71677 -5.88187,19.3784 -17.09688,19.84529 l -77.41251,-9.0394 V 51.612727 l 79.82398,-7.484701 c 10.6326,-1.073368 15.27745,4.630407 15.35928,16.062024 z"
         fill="url(#c)"
         id="path150"
         style="fill:url(#linearGradient416);stroke-width:4.81331" />
      <path
         d="m 326.6017,105.16445 h 18.82203 l -9.9e-4,-42.601122 -18.63917,-0.05832 c -3.12942,0.05733 -4.43417,1.236549 -4.51622,4.365975 v 33.827657 c 0.0119,2.72021 2.19041,4.46581 4.33435,4.46581 z"
         fill="url(#a)"
         id="path336"
         style="fill:url(#linearGradient346);stroke-width:0.988448" />
      <path
         d="m 362.18385,105.16445 -11.94539,-0.0138 V 62.54949 l 12.2874,-0.04448 c 2.13504,0.0257 3.20257,1.688269 3.20257,3.685923 v 35.115607 c 0.0929,2.19337 -1.35615,3.81047 -3.54458,3.85791 z"
         fill="url(#b)"
         id="path338"
         style="fill:url(#linearGradient348);stroke-width:0.988448" />
      <path
         d="m 362.61976,102.92463 c -0.0395,2.61148 -1.20788,3.97949 -3.51097,4.07537 l -15.89721,-1.85631 V 62.563328 L 359.604,61.026292 c 2.18349,-0.220424 3.13734,0.950887 3.15414,3.298451 z"
         fill="url(#c)"
         id="path340"
         style="fill:url(#linearGradient350);stroke-width:0.988448" />
      <path
         d="m 324.65328,161.80291 h 12.27524 l -6.5e-4,-27.78334 -12.15597,-0.038 c -2.04093,0.0374 -2.89186,0.80645 -2.94536,2.84738 v 22.06151 c 0.008,1.77405 1.42852,2.91249 2.82674,2.91249 z"
         fill="url(#a)"
         id="path354"
         style="fill:url(#linearGradient364);stroke-width:0.64464" />
      <path
         d="m 347.85903,161.80291 -7.79047,-0.009 v -27.78334 l 8.01352,-0.029 c 1.39242,0.0168 2.08863,1.10105 2.08863,2.40386 v 22.90149 c 0.0606,1.43045 -0.88444,2.48508 -2.31168,2.51603 z"
         fill="url(#b)"
         id="path356"
         style="fill:url(#linearGradient366);stroke-width:0.64464" />
      <path
         d="m 348.14332,160.34215 c -0.0258,1.70314 -0.78775,2.59532 -2.28976,2.65785 l -10.36775,-1.21063 v -27.7698 l 10.69071,-1.00242 c 1.42401,-0.14375 2.04609,0.62014 2.05705,2.15116 z"
         fill="url(#c)"
         id="path358"
         style="fill:url(#linearGradient368);stroke-width:0.64464" />
      <path
         d="m 323.30085,210.58223 h 9.41101 l -4.9e-4,-21.30057 -9.31958,-0.0292 c -1.56472,0.0287 -2.21709,0.61828 -2.25811,2.18299 v 16.91383 c 0.006,1.36011 1.0952,2.23291 2.16717,2.23291 z"
         fill="url(#a)"
         id="path372"
         style="fill:url(#linearGradient382);stroke-width:0.494224" />
      <path
         d="m 341.09193,210.58223 -5.9727,-0.007 v -21.30057 l 6.1437,-0.0222 c 1.06752,0.0129 1.60128,0.84414 1.60128,1.84297 v 17.5578 c 0.0465,1.09668 -0.67807,1.90523 -1.77228,1.92896 z"
         fill="url(#b)"
         id="path374"
         style="fill:url(#linearGradient384);stroke-width:0.494224" />
      <path
         d="m 341.30988,209.46231 c -0.0198,1.30574 -0.60394,1.98975 -1.75548,2.03769 l -7.94861,-0.92815 v -21.29019 l 8.19621,-0.76852 c 1.09174,-0.11021 1.56867,0.47545 1.57707,1.64923 z"
         fill="url(#c)"
         id="path376"
         style="fill:url(#linearGradient386);stroke-width:0.494224" />
      <path
         d="m 322.32664,250.90145 h 6.13761 l -3.2e-4,-13.89167 -6.07799,-0.019 c -1.02046,0.0187 -1.44592,0.40322 -1.47268,1.42368 v 11.03076 c 0.004,0.88703 0.71426,1.45624 1.41338,1.45624 z"
         fill="url(#a)"
         id="path390"
         style="fill:url(#linearGradient400);stroke-width:0.32232" />
      <path
         d="m 333.92951,250.90145 -3.89524,-0.005 v -13.89167 l 4.00677,-0.0145 c 0.69621,0.008 1.04431,0.55052 1.04431,1.20193 v 11.45074 c 0.0303,0.71523 -0.44222,1.24254 -1.15584,1.25801 z"
         fill="url(#b)"
         id="path392"
         style="fill:url(#linearGradient402);stroke-width:0.32232" />
      <path
         d="m 334.07166,250.17108 c -0.0129,0.85157 -0.39388,1.29766 -1.14489,1.32892 l -5.18387,-0.60532 v -13.8849 l 5.34536,-0.50121 c 0.712,-0.0719 1.02304,0.31008 1.02852,1.07559 z"
         fill="url(#c)"
         id="path394"
         style="fill:url(#linearGradient404);stroke-width:0.32232" />
    </g>
    <g
       inkscape:groupmode="layer"
       id="layer6"
       inkscape:label="Pictogram"
       style="display:inline">
      <path
         d="M 143.58327,232.68473 H 66.271849 v -3.8314 h 77.311421 z m 0,-10.9166 H 66.271849 v -3.96617 h 77.311421 z m 0,-11.60971 H 66.271849 v -3.83139 h 77.311421 z m 0,-11.84556 H 66.271849 v -3.83139 H 143.58327 Z M 99.916902,179.72866 H 66.690607 v -3.83139 H 99.916902 Z M 116.6913,167.8831 H 66.690607 v -3.8314 H 116.6913 Z M 99.772503,159.05549 H 66.945712 v -3.8314 h 32.826791 z m 16.798457,-8.59177 H 66.421061 v -3.96617 H 116.57096 Z M 136.64729,138.8492 H 66.421061 v -3.8314 h 70.226229 z m 7.0852,-11.84075 H 66.421061 v -3.83139 h 77.311429 z m 0.26954,-18.08843 H 66.690607 v -3.83139 h 77.311423 z m 0,-10.916588 H 66.690607 v -3.970983 h 77.311423 z m 0,-11.614523 H 66.690607 v -3.831396 h 77.311423 z m 0,-11.840748 H 66.690607 v -3.83621 h 77.311423 z"
         fill="url(#d)"
         id="path152"
         style="display:inline;enable-background:new;fill:url(#linearGradient418);stroke-width:4.81331" />
      <path
         d="m 342.27157,99.747757 h -15.87646 v -0.786805 h 15.87646 z m 0,-2.2418 h -15.87646 v -0.814482 h 15.87646 z m 0,-2.384137 h -15.87646 v -0.786805 h 15.87646 z m 0,-2.432571 h -15.87646 v -0.786805 h 15.87646 z m -8.9672,-3.816398 h -6.82326 v -0.786805 h 6.82326 z m 3.44474,-2.432571 h -10.268 v -0.786804 h 10.268 z m -3.4744,-1.812814 h -6.74121 v -0.786804 h 6.74121 z m 3.44969,-1.764379 h -10.29864 v -0.814482 h 10.29864 z m 4.12281,-2.385126 h -14.42145 v -0.786804 h 14.42145 z m 1.455,-2.431582 h -15.87645 v -0.786804 h 15.87645 z m 0.0553,-3.714588 h -15.87645 v -0.786804 h 15.87645 z m 0,-2.2418 h -15.87645 v -0.81547 h 15.87645 z m 0,-2.385125 h -15.87645 v -0.786805 h 15.87645 z m 0,-2.431582 h -15.8764 V 66.48549 h 15.87645 z"
         fill="url(#d)"
         id="path342"
         style="display:inline;enable-background:new;fill:url(#linearGradient352);stroke-width:0.988448" />
      <path
         d="m 334.87276,158.27028 h -10.35421 v -0.51313 h 10.35421 z m 0,-1.46204 h -10.35421 v -0.53119 h 10.35421 z m 0,-1.55488 h -10.35421 v -0.51313 h 10.35421 z m 0,-1.58646 h -10.35421 v -0.51313 h 10.35421 z m -5.84817,-2.48895 h -4.44995 v -0.51313 h 4.44995 z m 2.24657,-1.58646 h -6.69652 v -0.51313 h 6.69652 z m -2.26591,-1.18227 h -4.39645 v -0.51313 h 4.39645 z m 2.24979,-1.15068 h -6.7165 v -0.53119 h 6.7165 z m 2.68879,-1.55552 h -9.40529 v -0.51313 h 9.40529 z m 0.94891,-1.58581 h -10.3542 v -0.51314 h 10.3542 z m 0.0361,-2.42256 h -10.3542 v -0.51313 h 10.3542 z m 0,-1.46204 h -10.3542 v -0.53183 h 10.3542 z m 0,-1.55552 h -10.3542 v -0.51313 h 10.3542 z m 0,-1.58582 h -10.3542 v -0.51377 h 10.3542 z"
         fill="url(#d)"
         id="path360"
         style="display:inline;enable-background:new;fill:url(#linearGradient370);stroke-width:0.64464" />
      <path
         d="m 331.13578,207.87388 h -7.93822 v -0.3934 h 7.93822 z m 0,-1.1209 h -7.93822 v -0.40724 h 7.93822 z m 0,-1.19207 h -7.93822 v -0.3934 h 7.93822 z m 0,-1.21629 h -7.93822 v -0.3934 h 7.93822 z m -4.4836,-1.9082 h -3.41163 v -0.3934 h 3.41163 z m 1.72237,-1.21628 h -5.134 v -0.3934 h 5.134 z m -1.73719,-0.90641 h -3.37061 v -0.3934 h 3.37061 z m 1.72484,-0.88219 h -5.14932 v -0.40724 h 5.14932 z m 2.06141,-1.19256 h -7.21073 v -0.3934 h 7.21073 z m 0.72749,-1.21579 h -7.93822 v -0.3934 h 7.93822 z m 0.0277,-1.8573 h -7.93823 v -0.3934 h 7.93823 z m 0,-1.1209 h -7.93823 v -0.40773 h 7.93823 z m 0,-1.19256 h -7.93823 v -0.3934 h 7.93823 z m 0,-1.21579 h -7.93823 v -0.3939 h 7.93823 z"
         fill="url(#d)"
         id="path378"
         style="display:inline;enable-background:new;fill:url(#linearGradient388);stroke-width:0.494224" />
      <path
         d="m 327.43638,249.13514 h -5.17711 v -0.25657 h 5.17711 z m 0,-0.73102 h -5.17711 v -0.26559 h 5.17711 z m 0,-0.77744 h -5.17711 v -0.25656 h 5.17711 z m 0,-0.79323 h -5.17711 v -0.25656 h 5.17711 z m -2.92409,-1.24448 h -2.22498 v -0.25656 h 2.22498 z m 1.12328,-0.79322 h -3.34826 v -0.25657 h 3.34826 z m -1.13295,-0.59114 h -2.19822 v -0.25657 h 2.19822 z m 1.1249,-0.57534 h -3.35826 v -0.26559 h 3.35826 z m 1.34439,-0.77776 h -4.70265 v -0.25657 h 4.70265 z m 0.47446,-0.79291 h -5.17711 v -0.25656 h 5.17711 z m 0.0181,-1.21128 h -5.17711 v -0.25656 h 5.17711 z m 0,-0.73102 h -5.17711 v -0.26591 h 5.17711 z m 0,-0.77776 h -5.17711 v -0.25656 h 5.17711 z m 0,-0.7929 h -5.17711 v -0.25689 h 5.17711 z"
         fill="url(#d)"
         id="path396"
         style="display:inline;enable-background:new;fill:url(#linearGradient406);stroke-width:0.32232" />
    </g>
  </g>
</svg>
