<?xml version="1.0" encoding="UTF-8" standalone="no"?>
<svg
   inkscape:export-ydpi="90.000000"
   inkscape:export-xdpi="90.000000"
   width="400"
   height="300"
   id="svg11300"
   sodipodi:version="0.32"
   inkscape:version="1.2.2 (b0a8486541, 2022-12-01)"
   sodipodi:docname="docviewer-app.svg"
   inkscape:output_extension="org.inkscape.output.svg.inkscape"
   version="1.0"
   style="display:inline;enable-background:new"
   inkscape:export-filename="/home/sam/suru-template.png"
   xmlns:inkscape="http://www.inkscape.org/namespaces/inkscape"
   xmlns:sodipodi="http://sodipodi.sourceforge.net/DTD/sodipodi-0.dtd"
   xmlns:xlink="http://www.w3.org/1999/xlink"
   xmlns="http://www.w3.org/2000/svg"
   xmlns:svg="http://www.w3.org/2000/svg"
   xmlns:rdf="http://www.w3.org/1999/02/22-rdf-syntax-ns#"
   xmlns:cc="http://creativecommons.org/ns#"
   xmlns:dc="http://purl.org/dc/elements/1.1/">
  <title
     id="title3004">Suru Icon Theme Template</title>
  <sodipodi:namedview
     stroke="#ef2929"
     fill="#f57900"
     id="base"
     pagecolor="#ffffff"
     bordercolor="#000000"
     borderopacity="0.25490196"
     inkscape:pageopacity="0"
     inkscape:pageshadow="2"
     inkscape:zoom="2"
     inkscape:cx="222.5"
     inkscape:cy="150"
     inkscape:current-layer="layer6"
     showgrid="false"
     inkscape:grid-bbox="true"
     inkscape:document-units="px"
     inkscape:showpageshadow="false"
     inkscape:window-width="1920"
     inkscape:window-height="1020"
     inkscape:window-x="0"
     inkscape:window-y="32"
     width="400px"
     height="300px"
     inkscape:snap-nodes="true"
     inkscape:snap-bbox="true"
     gridtolerance="10000"
     inkscape:object-nodes="true"
     inkscape:snap-grids="true"
     showguides="true"
     inkscape:guide-bbox="true"
     inkscape:window-maximized="1"
     inkscape:bbox-paths="true"
     inkscape:snap-bbox-midpoints="true"
     inkscape:snap-global="true"
     inkscape:object-paths="true"
     inkscape:snap-intersection-paths="true"
     inkscape:snap-smooth-nodes="true"
     inkscape:pagecheckerboard="false"
     showborder="false"
     inkscape:document-rotation="0"
     inkscape:deskcolor="#d1d1d1">
    <inkscape:grid
       spacingy="1"
       spacingx="1"
       id="grid5883"
       type="xygrid"
       enabled="true"
       visible="true"
       empspacing="4"
       snapvisiblegridlinesonly="true"
       originx="0"
       originy="0" />
    <inkscape:grid
       type="xygrid"
       id="grid11592"
       empspacing="2"
       visible="true"
       enabled="false"
       spacingx="0.5"
       spacingy="0.5"
       color="#ff0000"
       opacity="0.1254902"
       empcolor="#ff0000"
       empopacity="0.25098039"
       snapvisiblegridlinesonly="true"
       originx="0"
       originy="0" />
  </sodipodi:namedview>
  <defs
     id="defs3">
    <linearGradient
       id="a"
       x2="1"
       gradientTransform="matrix(0,-42.223,42.223,0,107.66,44.339)"
       gradientUnits="userSpaceOnUse">
      <stop
         stop-color="#d1d1d1"
         offset="0"
         id="stop2" />
      <stop
         stop-color="#e3e3e3"
         offset="1"
         id="stop4" />
    </linearGradient>
    <linearGradient
       id="b"
       x2="1"
       gradientTransform="matrix(0.79491,41.495,-41.495,0.79491,-47.225,6.0858)"
       gradientUnits="userSpaceOnUse">
      <stop
         stop-color="#ff5100"
         offset="0"
         id="stop7" />
      <stop
         stop-color="#deb37b"
         offset="1"
         id="stop9" />
    </linearGradient>
    <linearGradient
       id="c"
       x2="1"
       gradientTransform="matrix(0,-45.529,45.529,0,58.113,46.116)"
       gradientUnits="userSpaceOnUse">
      <stop
         stop-color="#9d9d9d"
         offset="0"
         id="stop12" />
      <stop
         stop-color="#e3e3e3"
         offset="1"
         id="stop14" />
    </linearGradient>
    <linearGradient
       id="d"
       x2="1"
       gradientTransform="matrix(0.366,-33.252,33.252,0.366,13.15,39.883)"
       gradientUnits="userSpaceOnUse">
      <stop
         stop-color="#e1ab70"
         offset="0"
         id="stop17" />
      <stop
         stop-color="#fe5302"
         offset="1"
         id="stop19" />
    </linearGradient>
    <linearGradient
       inkscape:collect="always"
       xlink:href="#a"
       id="linearGradient419"
       gradientUnits="userSpaceOnUse"
       gradientTransform="matrix(0,-41.735243,41.735243,0,426.68665,104.15228)"
       x2="1" />
    <linearGradient
       inkscape:collect="always"
       xlink:href="#b"
       id="linearGradient421"
       gradientUnits="userSpaceOnUse"
       gradientTransform="matrix(0.78572726,41.015653,-41.015653,0.78572726,273.59087,66.340979)"
       x2="1" />
    <linearGradient
       inkscape:collect="always"
       xlink:href="#c"
       id="linearGradient423"
       gradientUnits="userSpaceOnUse"
       gradientTransform="matrix(0,-45.003053,45.003053,0,377.71201,105.90875)"
       x2="1" />
    <linearGradient
       inkscape:collect="always"
       xlink:href="#d"
       id="linearGradient425"
       gradientUnits="userSpaceOnUse"
       gradientTransform="matrix(0.361772,-32.867876,32.867876,0.361772,333.26842,99.747757)"
       x2="1" />
    <linearGradient
       inkscape:collect="always"
       xlink:href="#a"
       id="linearGradient441"
       gradientUnits="userSpaceOnUse"
       gradientTransform="matrix(0,-27.218637,27.218637,0,389.92608,161.1428)"
       x2="1" />
    <linearGradient
       inkscape:collect="always"
       xlink:href="#b"
       id="linearGradient443"
       gradientUnits="userSpaceOnUse"
       gradientTransform="matrix(0.51243082,26.749339,-26.749339,0.51243082,290.081,136.48325)"
       x2="1" />
    <linearGradient
       inkscape:collect="always"
       xlink:href="#c"
       id="linearGradient445"
       gradientUnits="userSpaceOnUse"
       gradientTransform="matrix(0,-29.349817,29.349817,0,357.9861,162.28832)"
       x2="1" />
    <linearGradient
       inkscape:collect="always"
       xlink:href="#d"
       id="linearGradient447"
       gradientUnits="userSpaceOnUse"
       gradientTransform="matrix(0.23593826,-21.435571,21.435571,0.23593826,329.00115,158.27028)"
       x2="1" />
    <linearGradient
       inkscape:collect="always"
       xlink:href="#a"
       id="linearGradient463"
       gradientUnits="userSpaceOnUse"
       gradientTransform="matrix(0,-20.867622,20.867622,0,373.34332,210.07614)"
       x2="1" />
    <linearGradient
       inkscape:collect="always"
       xlink:href="#b"
       id="linearGradient465"
       gradientUnits="userSpaceOnUse"
       gradientTransform="matrix(0.39286363,20.507827,-20.507827,0.39286363,296.79543,191.17049)"
       x2="1" />
    <linearGradient
       inkscape:collect="always"
       xlink:href="#c"
       id="linearGradient467"
       gradientUnits="userSpaceOnUse"
       gradientTransform="matrix(0,-22.501526,22.501526,0,348.856,210.95438)"
       x2="1" />
    <linearGradient
       inkscape:collect="always"
       xlink:href="#d"
       id="linearGradient469"
       gradientUnits="userSpaceOnUse"
       gradientTransform="matrix(0.180886,-16.433938,16.433938,0.180886,326.63421,207.87388)"
       x2="1" />
    <linearGradient
       inkscape:collect="always"
       xlink:href="#a"
       id="linearGradient485"
       gradientUnits="userSpaceOnUse"
       gradientTransform="matrix(0,-13.609319,13.609319,0,354.96303,250.5714)"
       x2="1" />
    <linearGradient
       inkscape:collect="always"
       xlink:href="#b"
       id="linearGradient487"
       gradientUnits="userSpaceOnUse"
       gradientTransform="matrix(0.25621542,13.37467,-13.37467,0.25621542,305.0405,238.24163)"
       x2="1" />
    <linearGradient
       inkscape:collect="always"
       xlink:href="#c"
       id="linearGradient489"
       gradientUnits="userSpaceOnUse"
       gradientTransform="matrix(0,-14.674909,14.674909,0,338.99304,251.14416)"
       x2="1" />
    <linearGradient
       inkscape:collect="always"
       xlink:href="#d"
       id="linearGradient491"
       gradientUnits="userSpaceOnUse"
       gradientTransform="matrix(0.11796913,-10.717786,10.717786,0.11796913,324.50057,249.13514)"
       x2="1" />
    <linearGradient
       inkscape:collect="always"
       xlink:href="#a"
       id="linearGradient493"
       gradientUnits="userSpaceOnUse"
       gradientTransform="matrix(0,-203.23249,203.23249,0,554.64802,254.13285)"
       x2="1" />
    <linearGradient
       inkscape:collect="always"
       xlink:href="#b"
       id="linearGradient495"
       gradientUnits="userSpaceOnUse"
       gradientTransform="matrix(3.8261502,199.7284,-199.7284,3.8261502,-190.86187,70.008245)"
       x2="1" />
    <linearGradient
       inkscape:collect="always"
       xlink:href="#c"
       id="linearGradient497"
       gradientUnits="userSpaceOnUse"
       gradientTransform="matrix(0,-219.1453,219.1453,0,316.16283,262.6861)"
       x2="1" />
    <linearGradient
       inkscape:collect="always"
       xlink:href="#d"
       id="linearGradient499"
       gradientUnits="userSpaceOnUse"
       gradientTransform="matrix(1.7616723,-160.05226,160.05226,1.7616723,99.741867,232.68473)"
       x2="1" />
  </defs>
  <metadata
     id="metadata4">
    <rdf:RDF>
      <cc:Work
         rdf:about="">
        <dc:format>image/svg+xml</dc:format>
        <dc:type
           rdf:resource="http://purl.org/dc/dcmitype/StillImage" />
        <dc:creator>
          <cc:Agent>
            <dc:title>Sam Hewitt</dc:title>
          </cc:Agent>
        </dc:creator>
        <dc:source />
        <cc:license
           rdf:resource="http://creativecommons.org/licenses/by-sa/4.0/" />
        <dc:title>Suru Icon Theme Template</dc:title>
        <dc:subject>
          <rdf:Bag />
        </dc:subject>
        <dc:date />
        <dc:rights>
          <cc:Agent>
            <dc:title />
          </cc:Agent>
        </dc:rights>
        <dc:publisher>
          <cc:Agent>
            <dc:title />
          </cc:Agent>
        </dc:publisher>
        <dc:identifier />
        <dc:relation />
        <dc:language />
        <dc:coverage />
        <dc:description />
        <dc:contributor>
          <cc:Agent>
            <dc:title />
          </cc:Agent>
        </dc:contributor>
      </cc:Work>
      <cc:Work
         rdf:about="">
        <dc:format>image/svg+xml</dc:format>
        <dc:type
           rdf:resource="http://purl.org/dc/dcmitype/StillImage" />
      </cc:Work>
      <cc:License
         rdf:about="http://creativecommons.org/licenses/by-sa/4.0/">
        <cc:permits
           rdf:resource="http://creativecommons.org/ns#Reproduction" />
        <cc:permits
           rdf:resource="http://creativecommons.org/ns#Distribution" />
        <cc:requires
           rdf:resource="http://creativecommons.org/ns#Notice" />
        <cc:requires
           rdf:resource="http://creativecommons.org/ns#Attribution" />
        <cc:permits
           rdf:resource="http://creativecommons.org/ns#DerivativeWorks" />
        <cc:requires
           rdf:resource="http://creativecommons.org/ns#ShareAlike" />
      </cc:License>
    </rdf:RDF>
  </metadata>
  <g
     style="display:inline"
     inkscape:groupmode="layer"
     inkscape:label="Icon"
     id="layer1">
    <g
       style="display:none"
       inkscape:label="Baseplate"
       id="layer7"
       inkscape:groupmode="layer">
      <text
         y="-8.2548828"
         xml:space="preserve"
         x="19.006836"
         style="font-style:normal;font-variant:normal;font-weight:normal;font-stretch:normal;line-height:0%;font-family:'DejaVu Sans';-inkscape-font-specification:'DejaVu Sans';display:inline;fill:#000000;fill-opacity:1;stroke:none;enable-background:new"
         inkscape:label="context"
         id="context"><tspan
           style="font-style:normal;font-variant:normal;font-weight:normal;font-stretch:normal;font-size:18px;line-height:1.25;font-family:'DejaVu Sans';-inkscape-font-specification:'DejaVu Sans'"
           y="-8.2548828"
           x="19.006836"
           sodipodi:role="line"
           id="tspan3933">apps</tspan></text>
      <text
         y="-8.2548828"
         xml:space="preserve"
         x="146.48828"
         style="font-style:normal;font-variant:normal;font-weight:bold;font-stretch:normal;line-height:0%;font-family:'DejaVu Sans';-inkscape-font-specification:'DejaVu Sans Bold';text-align:start;writing-mode:lr-tb;text-anchor:start;display:inline;fill:#000000;fill-opacity:1;stroke:none;enable-background:new"
         inkscape:label="icon-name"
         id="icon-name"><tspan
           style="font-style:normal;font-variant:normal;font-weight:bold;font-stretch:normal;font-size:18px;line-height:1.25;font-family:'DejaVu Sans';-inkscape-font-specification:'DejaVu Sans Bold'"
           y="-8.2548828"
           x="146.48828"
           sodipodi:role="line"
           id="tspan924">docviewer-app</tspan></text>
      <rect
         style="display:inline;overflow:visible;visibility:visible;fill:#cdcdcd;fill-opacity:1;fill-rule:nonzero;stroke:none;stroke-width:2;marker:none;enable-background:accumulate"
         id="rect16x16"
         width="16"
         height="16"
         x="320"
         y="236"
         inkscape:label="16x16" />
      <rect
         style="display:inline;overflow:visible;visibility:visible;fill:#cdcdcd;fill-opacity:1;fill-rule:nonzero;stroke:none;stroke-width:2;marker:none;enable-background:accumulate"
         id="rect24x24"
         width="24"
         height="24"
         x="320"
         y="188"
         inkscape:label="24x24" />
      <rect
         style="display:inline;overflow:visible;visibility:visible;fill:#cdcdcd;fill-opacity:1;fill-rule:nonzero;stroke:none;stroke-width:2;marker:none;enable-background:accumulate"
         id="rect32x32"
         width="32"
         height="32"
         x="320"
         y="132"
         inkscape:label="32x32" />
      <rect
         inkscape:label="48x48"
         y="60"
         x="320"
         height="48"
         width="48"
         id="rect48x48"
         style="display:inline;overflow:visible;visibility:visible;fill:#cdcdcd;fill-opacity:1;fill-rule:nonzero;stroke:none;stroke-width:2;marker:none;enable-background:accumulate" />
      <rect
         style="display:inline;overflow:visible;visibility:visible;fill:#cdcdcd;fill-opacity:1;fill-rule:nonzero;stroke:none;stroke-width:2;marker:none;enable-background:accumulate"
         id="rect256x256"
         width="256"
         height="256"
         x="24"
         y="28"
         inkscape:label="256x256" />
    </g>
    <g
       inkscape:groupmode="layer"
       id="layer2"
       inkscape:label="Background"
       style="display:inline">
      <path
         d="M 67.247195,259.06168 H 158.90229 L 158.89748,51.612727 68.132845,51.328742 C 52.893897,51.607914 46.540325,57.350196 46.14082,72.589143 V 237.31513 c 0.05776,13.24624 10.6663,21.74655 21.106375,21.74655 z"
         fill="url(#a)"
         id="path22"
         style="fill:url(#linearGradient493);stroke-width:4.81331" />
      <path
         d="m 240.51681,259.06168 -58.16888,-0.0674 V 51.545341 l 59.83429,-0.216599 c 10.39676,0.125146 15.59513,8.221137 15.59513,17.948842 V 240.27532 c 0.45245,10.68074 -6.60386,18.55532 -17.26054,18.78636 z"
         fill="url(#b)"
         id="path24"
         style="fill:url(#linearGradient495);stroke-width:4.81331" />
      <path
         d="M 242.63949,248.15471 C 242.44695,260.87148 236.75762,267.53311 225.5426,268 l -77.4125,-9.0394 V 51.612727 l 79.82397,-7.484701 c 10.63261,-1.073368 15.27745,4.630407 15.35928,16.062024 z"
         fill="url(#c)"
         id="path26"
         style="fill:url(#linearGradient497);stroke-width:4.81331" />
      <path
         d="m 326.59541,105.16445 h 18.82203 l -9.9e-4,-42.601122 -18.63917,-0.05832 c -3.12942,0.05733 -4.43417,1.236549 -4.51622,4.365975 v 33.827657 c 0.0119,2.72021 2.19041,4.46581 4.33435,4.46581 z"
         fill="url(#a)"
         id="path405"
         style="fill:url(#linearGradient419);stroke-width:0.988448" />
      <path
         d="m 362.17756,105.16445 -11.94539,-0.0138 V 62.54949 l 12.2874,-0.04448 c 2.13504,0.0257 3.20257,1.688269 3.20257,3.685923 v 35.115607 c 0.0929,2.19337 -1.35615,3.81047 -3.54458,3.85791 z"
         fill="url(#b)"
         id="path407"
         style="fill:url(#linearGradient421);stroke-width:0.988448" />
      <path
         d="m 362.61347,102.92463 c -0.0395,2.61148 -1.20788,3.97949 -3.51097,4.07537 l -15.89721,-1.85631 V 62.563328 l 16.39242,-1.537036 c 2.18349,-0.220424 3.13734,0.950887 3.15414,3.298451 z"
         fill="url(#c)"
         id="path409"
         style="fill:url(#linearGradient423);stroke-width:0.988448" />
      <path
         d="m 324.64918,161.80291 h 12.27524 l -6.5e-4,-27.78334 -12.15597,-0.038 c -2.04093,0.0374 -2.89186,0.80645 -2.94536,2.84738 v 22.06151 c 0.008,1.77405 1.42852,2.91249 2.82674,2.91249 z"
         fill="url(#a)"
         id="path427"
         style="fill:url(#linearGradient441);stroke-width:0.64464" />
      <path
         d="m 347.85493,161.80291 -7.79047,-0.009 v -27.78334 l 8.01352,-0.029 c 1.39242,0.0168 2.08863,1.10105 2.08863,2.40386 v 22.90149 c 0.0606,1.43045 -0.88444,2.48508 -2.31168,2.51603 z"
         fill="url(#b)"
         id="path429"
         style="fill:url(#linearGradient443);stroke-width:0.64464" />
      <path
         d="m 348.13922,160.34215 c -0.0258,1.70314 -0.78775,2.59532 -2.28976,2.65785 l -10.36775,-1.21063 v -27.7698 l 10.69071,-1.00242 c 1.42401,-0.14375 2.04609,0.62014 2.05705,2.15116 z"
         fill="url(#c)"
         id="path431"
         style="fill:url(#linearGradient445);stroke-width:0.64464" />
      <path
         d="m 323.2977,210.58223 h 9.41101 l -4.9e-4,-21.30057 -9.31958,-0.0292 c -1.56472,0.0287 -2.21709,0.61828 -2.25811,2.18299 v 16.91383 c 0.006,1.36011 1.0952,2.23291 2.16717,2.23291 z"
         fill="url(#a)"
         id="path449"
         style="fill:url(#linearGradient463);stroke-width:0.494224" />
      <path
         d="m 341.08878,210.58223 -5.9727,-0.007 v -21.30057 l 6.1437,-0.0222 c 1.06752,0.0129 1.60128,0.84414 1.60128,1.84297 v 17.5578 c 0.0465,1.09668 -0.67807,1.90523 -1.77228,1.92896 z"
         fill="url(#b)"
         id="path451"
         style="fill:url(#linearGradient465);stroke-width:0.494224" />
      <path
         d="m 341.30673,209.46231 c -0.0198,1.30574 -0.60394,1.98975 -1.75548,2.03769 l -7.94861,-0.92815 v -21.29019 l 8.19621,-0.76852 c 1.09174,-0.11021 1.56867,0.47545 1.57707,1.64923 z"
         fill="url(#c)"
         id="path453"
         style="fill:url(#linearGradient467);stroke-width:0.494224" />
      <path
         d="m 322.32459,250.90145 h 6.13761 l -3.2e-4,-13.89167 -6.07799,-0.019 c -1.02046,0.0187 -1.44592,0.40322 -1.47268,1.42368 v 11.03076 c 0.004,0.88703 0.71426,1.45624 1.41338,1.45624 z"
         fill="url(#a)"
         id="path471"
         style="fill:url(#linearGradient485);stroke-width:0.32232" />
      <path
         d="m 333.92746,250.90145 -3.89524,-0.005 v -13.89167 l 4.00677,-0.0145 c 0.69621,0.008 1.04431,0.55052 1.04431,1.20193 v 11.45074 c 0.0303,0.71523 -0.44222,1.24254 -1.15584,1.25801 z"
         fill="url(#b)"
         id="path473"
         style="fill:url(#linearGradient487);stroke-width:0.32232" />
      <path
         d="m 334.06961,250.17108 c -0.0129,0.85157 -0.39388,1.29766 -1.14489,1.32892 l -5.18387,-0.60532 v -13.8849 l 5.34536,-0.50121 c 0.712,-0.0719 1.02304,0.31008 1.02852,1.07559 z"
         fill="url(#c)"
         id="path475"
         style="fill:url(#linearGradient489);stroke-width:0.32232" />
    </g>
    <g
       inkscape:groupmode="layer"
       id="layer6"
       inkscape:label="Pictogram"
       style="display:inline">
      <path
         d="M 143.55264,232.68473 H 66.241213 v -3.8314 h 77.311427 z m 0,-10.9166 H 66.241213 v -3.96617 h 77.311427 z m 0,-11.60971 H 66.241213 v -3.83139 h 77.311427 z m 0,-11.84556 H 66.241213 v -3.83139 H 143.55264 Z M 99.886266,179.72866 H 66.659971 v -3.83139 H 99.886266 Z M 116.66066,167.8831 H 66.659971 v -3.8314 H 116.66066 Z M 99.741867,159.05549 H 66.915076 v -3.8314 h 32.826791 z m 16.798463,-8.59177 H 66.390425 v -3.96617 H 116.54033 Z M 136.61665,138.8492 H 66.390425 v -3.8314 h 70.226225 z m 7.0852,-11.84075 H 66.390425 v -3.83139 h 77.311425 z m 0.26954,-18.08843 H 66.659971 v -3.83139 h 77.311419 z m 0,-10.916588 H 66.659971 v -3.970983 h 77.311419 z m 0,-11.614523 H 66.659971 v -3.831396 h 77.311419 z m 0,-11.840748 H 66.659971 v -3.83621 h 77.311419 z"
         fill="url(#d)"
         id="path28"
         style="display:inline;enable-background:new;fill:url(#linearGradient499);stroke-width:4.81331" />
      <circle
         cx="219.35268"
         cy="223.62126"
         r="38.5065"
         fill="#045af2"
         id="circle156"
         style="display:inline;enable-background:new;stroke-width:3.50059" />
      <path
         d="m 219.35268,206.1183 c -5.42942,0.0525 -10.89384,1.29172 -15.62314,3.97317 -1.88332,1.22871 -4.1482,2.81447 -5.85299,4.41074 -2.68145,2.62895 -4.97784,5.69197 -6.5286,9.12254 4.25322,9.38159 13.60329,16.26025 23.88803,17.27542 6.74914,0.76313 13.80983,-0.40259 19.73983,-3.74213 1.88332,-1.22871 4.14821,-2.81448 5.85299,-4.41075 2.68145,-2.62894 4.97784,-5.69196 6.5286,-9.12254 -4.25321,-9.38158 -13.60329,-16.26024 -23.88803,-17.27541 -1.36523,-0.15754 -2.74096,-0.23104 -4.11669,-0.23104 z m 0,7.00118 c 5.62544,-0.12254 10.60679,4.90783 10.50177,10.50527 0.17852,6.18555 -5.98251,11.52395 -12.07354,10.36875 -6.15404,-0.72462 -10.47377,-7.62428 -8.45043,-13.47377 1.29172,-4.30223 5.51693,-7.45276 10.0222,-7.40025 z m 0,7.00468 c -1.92183,0 -3.5006,1.57877 -3.5006,3.50059 0,1.92183 1.57877,3.5006 3.5006,3.5006 1.92182,0 3.50059,-1.57877 3.50059,-3.5006 -0.004,-1.91832 -1.58227,-3.49708 -3.50059,-3.49708 z"
         fill="#ffffff"
         id="path158"
         style="display:inline;enable-background:new;stroke-width:3.50059" />
      <path
         d="m 342.26528,99.747757 h -15.87646 v -0.786805 h 15.87646 z m 0,-2.2418 h -15.87646 v -0.814482 h 15.87646 z m 0,-2.384137 h -15.87646 v -0.786805 h 15.87646 z m 0,-2.432571 h -15.87646 v -0.786805 h 15.87646 z m -8.9672,-3.816398 h -6.82326 v -0.786805 h 6.82326 z m 3.44474,-2.432571 h -10.268 v -0.786804 h 10.268 z m -3.4744,-1.812814 h -6.74121 v -0.786804 h 6.74121 z m 3.44969,-1.764379 h -10.29864 v -0.814482 h 10.29864 z m 4.12281,-2.385126 h -14.42145 v -0.786804 h 14.42145 z m 1.455,-2.431582 h -15.87645 v -0.786804 h 15.87645 z m 0.0553,-3.714588 h -15.87645 v -0.786804 h 15.87645 z m 0,-2.2418 h -15.87645 v -0.81547 h 15.87645 z m 0,-2.385125 h -15.87645 v -0.786805 h 15.87645 z m 0,-2.431582 h -15.8764 V 66.48549 h 15.87645 z"
         fill="url(#d)"
         id="path411"
         style="display:inline;enable-background:new;fill:url(#linearGradient425);stroke-width:0.988448" />
      <circle
         cx="357.83136"
         cy="97.886513"
         r="7.9075847"
         fill="#045af2"
         id="circle413"
         style="display:inline;enable-background:new;stroke-width:0.718872" />
      <path
         d="m 357.83136,94.292151 c -1.11497,0.01078 -2.23713,0.265264 -3.20833,0.815919 -0.38675,0.252325 -0.85186,0.577973 -1.20195,0.905778 -0.55065,0.539872 -1.02223,1.168885 -1.34069,1.873379 0.87342,1.926575 2.79353,3.339153 4.90557,3.547633 1.38599,0.15671 2.83595,-0.0827 4.05372,-0.76848 0.38675,-0.25232 0.85186,-0.57797 1.20195,-0.905774 0.55066,-0.539873 1.02224,-1.168886 1.3407,-1.873379 -0.87343,-1.926576 -2.79354,-3.339158 -4.90558,-3.54763 -0.28036,-0.03235 -0.56288,-0.04745 -0.84539,-0.04745 z m 0,1.437743 c 1.15522,-0.02517 2.17818,1.007857 2.15661,2.157333 0.0367,1.270245 -1.22855,2.366523 -2.47939,2.129293 -1.26377,-0.148802 -2.15086,-1.565698 -1.73535,-2.766932 0.26526,-0.883493 1.13294,-1.530477 2.05813,-1.519694 z m 0,1.438461 c -0.39466,0 -0.71888,0.324211 -0.71888,0.718872 0,0.39466 0.32422,0.718871 0.71888,0.718871 0.39466,0 0.71887,-0.324211 0.71887,-0.718871 -7.2e-4,-0.393941 -0.32493,-0.718152 -0.71887,-0.718152 z"
         fill="#ffffff"
         id="path415"
         style="display:inline;enable-background:new;stroke-width:0.718872" />
      <path
         d="m 334.86866,158.27028 h -10.35421 v -0.51313 h 10.35421 z m 0,-1.46204 h -10.35421 v -0.53119 h 10.35421 z m 0,-1.55488 h -10.35421 v -0.51313 h 10.35421 z m 0,-1.58646 h -10.35421 v -0.51313 h 10.35421 z m -5.84817,-2.48895 h -4.44995 v -0.51313 h 4.44995 z m 2.24657,-1.58646 h -6.69652 v -0.51313 h 6.69652 z m -2.26591,-1.18227 h -4.39645 v -0.51313 h 4.39645 z m 2.24979,-1.15068 h -6.7165 v -0.53119 h 6.7165 z m 2.68879,-1.55552 h -9.40529 v -0.51313 h 9.40529 z m 0.94891,-1.58581 h -10.3542 v -0.51314 h 10.3542 z m 0.0361,-2.42256 h -10.3542 v -0.51313 h 10.3542 z m 0,-1.46204 h -10.3542 v -0.53183 h 10.3542 z m 0,-1.55552 h -10.3542 v -0.51313 h 10.3542 z m 0,-1.58582 h -10.3542 v -0.51377 h 10.3542 z"
         fill="url(#d)"
         id="path433"
         style="display:inline;enable-background:new;fill:url(#linearGradient447);stroke-width:0.64464" />
      <circle
         cx="345.02045"
         cy="157.05643"
         r="5.1571202"
         fill="#045af2"
         id="circle435"
         style="display:inline;enable-background:new;stroke-width:0.468829" />
      <path
         d="m 345.02045,154.71228 c -0.72715,0.007 -1.459,0.17299 -2.09238,0.53212 -0.25223,0.16456 -0.55557,0.37694 -0.78389,0.59072 -0.35912,0.35209 -0.66667,0.76232 -0.87436,1.22177 0.56963,1.25646 1.82187,2.17771 3.19929,2.31367 0.9039,0.10221 1.84953,-0.0539 2.64373,-0.50118 0.25223,-0.16456 0.55556,-0.37694 0.78388,-0.59072 0.35912,-0.35209 0.66667,-0.76232 0.87436,-1.22177 -0.56962,-1.25646 -1.82187,-2.17771 -3.19929,-2.31367 -0.18284,-0.0211 -0.36709,-0.0309 -0.55134,-0.0309 z m 0,0.93765 c 0.75341,-0.0164 1.42055,0.6573 1.40649,1.40696 0.0239,0.82842 -0.80123,1.54339 -1.61699,1.38867 -0.8242,-0.097 -1.40274,-1.02111 -1.13176,-1.80452 0.173,-0.57619 0.73888,-0.99814 1.34226,-0.99111 z m 0,0.93813 c -0.25739,0 -0.46883,0.21144 -0.46883,0.46883 0,0.25739 0.21144,0.46883 0.46883,0.46883 0.25739,0 0.46883,-0.21144 0.46883,-0.46883 -4.7e-4,-0.25692 -0.21191,-0.46836 -0.46883,-0.46836 z"
         fill="#ffffff"
         id="path437"
         style="display:inline;enable-background:new;stroke-width:0.468829" />
      <path
         d="m 331.13263,207.87388 h -7.93822 v -0.3934 h 7.93822 z m 0,-1.1209 h -7.93822 v -0.40724 h 7.93822 z m 0,-1.19207 h -7.93822 v -0.3934 h 7.93822 z m 0,-1.21629 h -7.93822 v -0.3934 h 7.93822 z m -4.4836,-1.9082 h -3.41163 v -0.3934 h 3.41163 z m 1.72237,-1.21628 h -5.134 v -0.3934 h 5.134 z m -1.73719,-0.90641 h -3.37061 v -0.3934 h 3.37061 z m 1.72484,-0.88219 h -5.14932 v -0.40724 h 5.14932 z m 2.06141,-1.19256 h -7.21073 v -0.3934 h 7.21073 z m 0.72749,-1.21579 h -7.93822 v -0.3934 h 7.93822 z m 0.0277,-1.8573 h -7.93823 v -0.3934 h 7.93823 z m 0,-1.1209 h -7.93823 v -0.40773 h 7.93823 z m 0,-1.19256 h -7.93823 v -0.3934 h 7.93823 z m 0,-1.21579 h -7.93823 v -0.3939 h 7.93823 z"
         fill="url(#d)"
         id="path455"
         style="display:inline;enable-background:new;fill:url(#linearGradient469);stroke-width:0.494224" />
      <circle
         cx="338.91568"
         cy="206.94325"
         r="3.9537923"
         fill="#045af2"
         id="circle457"
         style="display:inline;enable-background:new;stroke-width:0.359436" />
      <path
         d="m 338.91567,205.14607 c -0.55748,0.005 -1.11856,0.13264 -1.60416,0.40796 -0.19337,0.12617 -0.42593,0.28899 -0.60097,0.45289 -0.27533,0.26994 -0.51112,0.58445 -0.67035,0.93669 0.43671,0.96329 1.39676,1.66958 2.45279,1.77382 0.69299,0.0784 1.41797,-0.0413 2.02685,-0.38424 0.19338,-0.12616 0.42594,-0.28899 0.60098,-0.45289 0.27533,-0.26993 0.51112,-0.58444 0.67035,-0.93669 -0.43672,-0.96329 -1.39677,-1.66958 -2.45279,-1.77381 -0.14018,-0.0162 -0.28144,-0.0237 -0.4227,-0.0237 z m 0,0.71888 c 0.57762,-0.0126 1.08909,0.50392 1.07831,1.07866 0.0183,0.63513 -0.61428,1.18326 -1.23969,1.06465 -0.63189,-0.0744 -1.07543,-0.78285 -0.86768,-1.38347 0.13263,-0.44174 0.56647,-0.76524 1.02906,-0.75984 z m 0,0.71923 c -0.19733,0 -0.35943,0.1621 -0.35943,0.35943 0,0.19733 0.1621,0.35944 0.35943,0.35944 0.19733,0 0.35944,-0.16211 0.35944,-0.35944 -3.6e-4,-0.19697 -0.16247,-0.35907 -0.35944,-0.35907 z"
         fill="#ffffff"
         id="path459"
         style="display:inline;enable-background:new;stroke-width:0.359436" />
      <path
         d="m 327.43433,249.13514 h -5.17711 v -0.25657 h 5.17711 z m 0,-0.73102 h -5.17711 v -0.26559 h 5.17711 z m 0,-0.77744 h -5.17711 v -0.25656 h 5.17711 z m 0,-0.79323 h -5.17711 v -0.25656 h 5.17711 z m -2.92409,-1.24448 h -2.22498 v -0.25656 h 2.22498 z m 1.12328,-0.79322 h -3.34826 v -0.25657 h 3.34826 z m -1.13295,-0.59114 h -2.19822 v -0.25657 h 2.19822 z m 1.1249,-0.57534 h -3.35826 v -0.26559 h 3.35826 z m 1.34439,-0.77776 h -4.70265 v -0.25657 h 4.70265 z m 0.47446,-0.79291 h -5.17711 v -0.25656 h 5.17711 z m 0.0181,-1.21128 h -5.17711 v -0.25656 h 5.17711 z m 0,-0.73102 h -5.17711 v -0.26591 h 5.17711 z m 0,-0.77776 h -5.17711 v -0.25656 h 5.17711 z m 0,-0.7929 h -5.17711 v -0.25689 h 5.17711 z"
         fill="url(#d)"
         id="path477"
         style="display:inline;enable-background:new;fill:url(#linearGradient491);stroke-width:0.32232" />
      <circle
         cx="332.51022"
         cy="248.52821"
         r="2.5785604"
         fill="#045af2"
         id="circle479"
         style="display:inline;enable-background:new;stroke-width:0.234415" />
      <path
         d="m 332.51022,247.35614 c -0.36358,0.004 -0.7295,0.0865 -1.04619,0.26606 -0.12612,0.0823 -0.27778,0.18847 -0.39194,0.29536 -0.17956,0.17605 -0.33334,0.38116 -0.43719,0.61089 0.28482,0.62823 0.91094,1.08885 1.59965,1.15683 0.45195,0.0511 0.92476,-0.027 1.32186,-0.25059 0.12612,-0.0823 0.27778,-0.18847 0.39194,-0.29536 0.17957,-0.17605 0.33334,-0.38116 0.43719,-0.61088 -0.28482,-0.62824 -0.91094,-1.08886 -1.59965,-1.15684 -0.0914,-0.0105 -0.18354,-0.0155 -0.27567,-0.0155 z m 0,0.46883 c 0.3767,-0.008 0.71028,0.32865 0.70324,0.70348 0.012,0.41421 -0.40061,0.77169 -0.80849,0.69433 -0.4121,-0.0485 -0.70137,-0.51055 -0.56588,-0.90226 0.0865,-0.2881 0.36944,-0.49907 0.67113,-0.49555 z m 0,0.46906 c -0.12869,0 -0.23441,0.10572 -0.23441,0.23442 0,0.12869 0.10572,0.23441 0.23441,0.23441 0.12869,0 0.23442,-0.10572 0.23442,-0.23441 -2.4e-4,-0.12846 -0.10596,-0.23418 -0.23442,-0.23418 z"
         fill="#ffffff"
         id="path481"
         style="display:inline;enable-background:new;stroke-width:0.234415" />
    </g>
  </g>
</svg>
