<?xml version="1.0" encoding="UTF-8" standalone="no"?>
<svg
   inkscape:export-ydpi="90.000000"
   inkscape:export-xdpi="90.000000"
   width="400"
   height="300"
   id="svg11300"
   sodipodi:version="0.32"
   inkscape:version="1.2.2 (b0a8486541, 2022-12-01)"
   sodipodi:docname="ebook-reader-app.svg"
   inkscape:output_extension="org.inkscape.output.svg.inkscape"
   version="1.0"
   style="display:inline;enable-background:new"
   inkscape:export-filename="/home/sam/suru-template.png"
   xmlns:inkscape="http://www.inkscape.org/namespaces/inkscape"
   xmlns:sodipodi="http://sodipodi.sourceforge.net/DTD/sodipodi-0.dtd"
   xmlns:xlink="http://www.w3.org/1999/xlink"
   xmlns="http://www.w3.org/2000/svg"
   xmlns:svg="http://www.w3.org/2000/svg"
   xmlns:rdf="http://www.w3.org/1999/02/22-rdf-syntax-ns#"
   xmlns:cc="http://creativecommons.org/ns#"
   xmlns:dc="http://purl.org/dc/elements/1.1/">
  <title
     id="title3004">Suru Icon Theme Template</title>
  <sodipodi:namedview
     stroke="#ef2929"
     fill="#f57900"
     id="base"
     pagecolor="#ffffff"
     bordercolor="#000000"
     borderopacity="0.25490196"
     inkscape:pageopacity="0"
     inkscape:pageshadow="2"
     inkscape:zoom="1.4142136"
     inkscape:cx="140.00714"
     inkscape:cy="156.97771"
     inkscape:current-layer="layer6"
     showgrid="false"
     inkscape:grid-bbox="true"
     inkscape:document-units="px"
     inkscape:showpageshadow="false"
     inkscape:window-width="1920"
     inkscape:window-height="1020"
     inkscape:window-x="0"
     inkscape:window-y="32"
     width="400px"
     height="300px"
     inkscape:snap-nodes="true"
     inkscape:snap-bbox="true"
     gridtolerance="10000"
     inkscape:object-nodes="true"
     inkscape:snap-grids="true"
     showguides="true"
     inkscape:guide-bbox="true"
     inkscape:window-maximized="1"
     inkscape:bbox-paths="true"
     inkscape:snap-bbox-midpoints="true"
     inkscape:snap-global="true"
     inkscape:object-paths="true"
     inkscape:snap-intersection-paths="true"
     inkscape:snap-smooth-nodes="true"
     inkscape:pagecheckerboard="false"
     showborder="false"
     inkscape:document-rotation="0"
     inkscape:deskcolor="#d1d1d1">
    <inkscape:grid
       spacingy="1"
       spacingx="1"
       id="grid5883"
       type="xygrid"
       enabled="true"
       visible="true"
       empspacing="4"
       snapvisiblegridlinesonly="true"
       originx="0"
       originy="0" />
    <inkscape:grid
       type="xygrid"
       id="grid11592"
       empspacing="2"
       visible="true"
       enabled="false"
       spacingx="0.5"
       spacingy="0.5"
       color="#ff0000"
       opacity="0.1254902"
       empcolor="#ff0000"
       empopacity="0.25098039"
       snapvisiblegridlinesonly="true"
       originx="0"
       originy="0" />
  </sodipodi:namedview>
  <defs
     id="defs3">
    <linearGradient
       id="a"
       x2="1"
       gradientTransform="matrix(0,-42.223,42.223,0,107.66,44.339)"
       gradientUnits="userSpaceOnUse">
      <stop
         stop-color="#d1d1d1"
         offset="0"
         id="stop22" />
      <stop
         stop-color="#e3e3e3"
         offset="1"
         id="stop24" />
    </linearGradient>
    <linearGradient
       id="b"
       x2="1"
       gradientTransform="matrix(0.79491,41.495,-41.495,0.79491,-47.225,6.0858)"
       gradientUnits="userSpaceOnUse">
      <stop
         stop-color="#2ba78e"
         offset="0"
         id="stop27" />
      <stop
         stop-color="#178b6f"
         offset="1"
         id="stop29" />
    </linearGradient>
    <linearGradient
       id="c"
       x2="1"
       gradientTransform="matrix(0,-45.529,45.529,0,58.113,46.116)"
       gradientUnits="userSpaceOnUse">
      <stop
         stop-color="#9d9d9d"
         offset="0"
         id="stop32" />
      <stop
         stop-color="#e3e3e3"
         offset="1"
         id="stop34" />
    </linearGradient>
    <linearGradient
       inkscape:collect="always"
       xlink:href="#a"
       id="linearGradient321"
       gradientUnits="userSpaceOnUse"
       gradientTransform="matrix(0,-41.735243,41.735243,0,426.69294,104.15228)"
       x2="1" />
    <linearGradient
       inkscape:collect="always"
       xlink:href="#b"
       id="linearGradient323"
       gradientUnits="userSpaceOnUse"
       gradientTransform="matrix(0.78572726,41.015653,-41.015653,0.78572726,273.59716,66.340979)"
       x2="1" />
    <linearGradient
       inkscape:collect="always"
       xlink:href="#c"
       id="linearGradient325"
       gradientUnits="userSpaceOnUse"
       gradientTransform="matrix(0,-45.003053,45.003053,0,377.7183,105.90875)"
       x2="1" />
    <linearGradient
       inkscape:collect="always"
       xlink:href="#a"
       id="linearGradient337"
       gradientUnits="userSpaceOnUse"
       gradientTransform="matrix(0,-27.218637,27.218637,0,389.93018,161.1428)"
       x2="1" />
    <linearGradient
       inkscape:collect="always"
       xlink:href="#b"
       id="linearGradient339"
       gradientUnits="userSpaceOnUse"
       gradientTransform="matrix(0.51243082,26.749339,-26.749339,0.51243082,290.0851,136.48325)"
       x2="1" />
    <linearGradient
       inkscape:collect="always"
       xlink:href="#c"
       id="linearGradient341"
       gradientUnits="userSpaceOnUse"
       gradientTransform="matrix(0,-29.349817,29.349817,0,357.9902,162.28832)"
       x2="1" />
    <linearGradient
       inkscape:collect="always"
       xlink:href="#a"
       id="linearGradient353"
       gradientUnits="userSpaceOnUse"
       gradientTransform="matrix(0,-20.867622,20.867622,0,373.34647,210.07614)"
       x2="1" />
    <linearGradient
       inkscape:collect="always"
       xlink:href="#b"
       id="linearGradient355"
       gradientUnits="userSpaceOnUse"
       gradientTransform="matrix(0.39286363,20.507827,-20.507827,0.39286363,296.79858,191.17049)"
       x2="1" />
    <linearGradient
       inkscape:collect="always"
       xlink:href="#c"
       id="linearGradient357"
       gradientUnits="userSpaceOnUse"
       gradientTransform="matrix(0,-22.501526,22.501526,0,348.85915,210.95438)"
       x2="1" />
    <linearGradient
       inkscape:collect="always"
       xlink:href="#a"
       id="linearGradient369"
       gradientUnits="userSpaceOnUse"
       gradientTransform="matrix(0,-13.609319,13.609319,0,354.96508,250.5714)"
       x2="1" />
    <linearGradient
       inkscape:collect="always"
       xlink:href="#b"
       id="linearGradient371"
       gradientUnits="userSpaceOnUse"
       gradientTransform="matrix(0.25621542,13.37467,-13.37467,0.25621542,305.04255,238.24163)"
       x2="1" />
    <linearGradient
       inkscape:collect="always"
       xlink:href="#c"
       id="linearGradient373"
       gradientUnits="userSpaceOnUse"
       gradientTransform="matrix(0,-14.674909,14.674909,0,338.99509,251.14416)"
       x2="1" />
    <linearGradient
       inkscape:collect="always"
       xlink:href="#a"
       id="linearGradient408"
       gradientUnits="userSpaceOnUse"
       gradientTransform="matrix(0,-203.23249,203.23249,0,554.67866,254.13285)"
       x2="1" />
    <linearGradient
       inkscape:collect="always"
       xlink:href="#b"
       id="linearGradient410"
       gradientUnits="userSpaceOnUse"
       gradientTransform="matrix(3.8261502,199.7284,-199.7284,3.8261502,-190.83123,70.008245)"
       x2="1" />
    <linearGradient
       inkscape:collect="always"
       xlink:href="#c"
       id="linearGradient412"
       gradientUnits="userSpaceOnUse"
       gradientTransform="matrix(0,-219.1453,219.1453,0,316.19347,262.6861)"
       x2="1" />
  </defs>
  <metadata
     id="metadata4">
    <rdf:RDF>
      <cc:Work
         rdf:about="">
        <dc:format>image/svg+xml</dc:format>
        <dc:type
           rdf:resource="http://purl.org/dc/dcmitype/StillImage" />
        <dc:creator>
          <cc:Agent>
            <dc:title>Sam Hewitt</dc:title>
          </cc:Agent>
        </dc:creator>
        <dc:source />
        <cc:license
           rdf:resource="http://creativecommons.org/licenses/by-sa/4.0/" />
        <dc:title>Suru Icon Theme Template</dc:title>
        <dc:subject>
          <rdf:Bag />
        </dc:subject>
        <dc:date />
        <dc:rights>
          <cc:Agent>
            <dc:title />
          </cc:Agent>
        </dc:rights>
        <dc:publisher>
          <cc:Agent>
            <dc:title />
          </cc:Agent>
        </dc:publisher>
        <dc:identifier />
        <dc:relation />
        <dc:language />
        <dc:coverage />
        <dc:description />
        <dc:contributor>
          <cc:Agent>
            <dc:title />
          </cc:Agent>
        </dc:contributor>
      </cc:Work>
      <cc:Work
         rdf:about="">
        <dc:format>image/svg+xml</dc:format>
        <dc:type
           rdf:resource="http://purl.org/dc/dcmitype/StillImage" />
      </cc:Work>
      <cc:License
         rdf:about="http://creativecommons.org/licenses/by-sa/4.0/">
        <cc:permits
           rdf:resource="http://creativecommons.org/ns#Reproduction" />
        <cc:permits
           rdf:resource="http://creativecommons.org/ns#Distribution" />
        <cc:requires
           rdf:resource="http://creativecommons.org/ns#Notice" />
        <cc:requires
           rdf:resource="http://creativecommons.org/ns#Attribution" />
        <cc:permits
           rdf:resource="http://creativecommons.org/ns#DerivativeWorks" />
        <cc:requires
           rdf:resource="http://creativecommons.org/ns#ShareAlike" />
      </cc:License>
    </rdf:RDF>
  </metadata>
  <g
     style="display:inline"
     inkscape:groupmode="layer"
     inkscape:label="Icon"
     id="layer1">
    <g
       style="display:none"
       inkscape:label="Baseplate"
       id="layer7"
       inkscape:groupmode="layer">
      <text
         y="-8.2548828"
         xml:space="preserve"
         x="19.006836"
         style="font-style:normal;font-variant:normal;font-weight:normal;font-stretch:normal;line-height:0%;font-family:'DejaVu Sans';-inkscape-font-specification:'DejaVu Sans';display:inline;fill:#000000;fill-opacity:1;stroke:none;enable-background:new"
         inkscape:label="context"
         id="context"><tspan
           style="font-style:normal;font-variant:normal;font-weight:normal;font-stretch:normal;font-size:18px;line-height:1.25;font-family:'DejaVu Sans';-inkscape-font-specification:'DejaVu Sans'"
           y="-8.2548828"
           x="19.006836"
           sodipodi:role="line"
           id="tspan3933">apps</tspan></text>
      <text
         y="-8.2548828"
         xml:space="preserve"
         x="146.48828"
         style="font-style:normal;font-variant:normal;font-weight:bold;font-stretch:normal;line-height:0%;font-family:'DejaVu Sans';-inkscape-font-specification:'DejaVu Sans Bold';text-align:start;writing-mode:lr-tb;text-anchor:start;display:inline;fill:#000000;fill-opacity:1;stroke:none;enable-background:new"
         inkscape:label="icon-name"
         id="icon-name"><tspan
           style="font-style:normal;font-variant:normal;font-weight:bold;font-stretch:normal;font-size:18px;line-height:1.25;font-family:'DejaVu Sans';-inkscape-font-specification:'DejaVu Sans Bold'"
           y="-8.2548828"
           x="146.48828"
           sodipodi:role="line"
           id="tspan924">ebook-reader-app</tspan></text>
      <rect
         style="display:inline;overflow:visible;visibility:visible;fill:#cdcdcd;fill-opacity:1;fill-rule:nonzero;stroke:none;stroke-width:2;marker:none;enable-background:accumulate"
         id="rect16x16"
         width="16"
         height="16"
         x="320"
         y="236"
         inkscape:label="16x16" />
      <rect
         style="display:inline;overflow:visible;visibility:visible;fill:#cdcdcd;fill-opacity:1;fill-rule:nonzero;stroke:none;stroke-width:2;marker:none;enable-background:accumulate"
         id="rect24x24"
         width="24"
         height="24"
         x="320"
         y="188"
         inkscape:label="24x24" />
      <rect
         style="display:inline;overflow:visible;visibility:visible;fill:#cdcdcd;fill-opacity:1;fill-rule:nonzero;stroke:none;stroke-width:2;marker:none;enable-background:accumulate"
         id="rect32x32"
         width="32"
         height="32"
         x="320"
         y="132"
         inkscape:label="32x32" />
      <rect
         inkscape:label="48x48"
         y="60"
         x="320"
         height="48"
         width="48"
         id="rect48x48"
         style="display:inline;overflow:visible;visibility:visible;fill:#cdcdcd;fill-opacity:1;fill-rule:nonzero;stroke:none;stroke-width:2;marker:none;enable-background:accumulate" />
      <rect
         style="display:inline;overflow:visible;visibility:visible;fill:#cdcdcd;fill-opacity:1;fill-rule:nonzero;stroke:none;stroke-width:2;marker:none;enable-background:accumulate"
         id="rect256x256"
         width="256"
         height="256"
         x="24"
         y="28"
         inkscape:label="256x256" />
    </g>
    <g
       inkscape:groupmode="layer"
       id="layer2"
       inkscape:label="Background"
       style="display:inline">
      <path
         d="M 67.277831,259.06168 H 158.93293 L 158.92811,51.612727 68.163481,51.328742 C 52.924533,51.607914 46.570961,57.350196 46.171456,72.589143 V 237.31513 c 0.05776,13.24624 10.6663,21.74655 21.106375,21.74655 z"
         fill="url(#a)"
         id="path37"
         style="fill:url(#linearGradient408);stroke-width:4.81331" />
      <path
         d="m 240.54745,259.06168 -58.16888,-0.0674 V 51.545341 l 59.83429,-0.216599 c 10.39675,0.125146 15.59513,8.221137 15.59513,17.948842 V 240.27532 c 0.45245,10.68074 -6.60387,18.55532 -17.26054,18.78636 z"
         fill="url(#b)"
         id="path39"
         style="fill:url(#linearGradient410);stroke-width:4.81331" />
      <path
         d="m 242.67012,248.15471 c -0.19253,12.71677 -5.88187,19.3784 -17.09688,19.84529 l -77.41251,-9.0394 V 51.612727 l 79.82398,-7.484701 c 10.6326,-1.073368 15.27745,4.630407 15.35928,16.062024 z"
         fill="url(#c)"
         id="path41"
         style="fill:url(#linearGradient412);stroke-width:4.81331" />
      <path
         d="m 326.6017,105.16445 h 18.82203 l -9.9e-4,-42.601122 -18.63917,-0.05832 c -3.12942,0.05733 -4.43417,1.236549 -4.51622,4.365975 v 33.827657 c 0.0119,2.72021 2.19041,4.46581 4.33435,4.46581 z"
         fill="url(#a)"
         id="path311"
         style="fill:url(#linearGradient321);stroke-width:0.988448" />
      <path
         d="m 362.18385,105.16445 -11.94539,-0.0138 V 62.54949 l 12.2874,-0.04448 c 2.13504,0.0257 3.20257,1.688269 3.20257,3.685923 v 35.115607 c 0.0929,2.19337 -1.35615,3.81047 -3.54458,3.85791 z"
         fill="url(#b)"
         id="path313"
         style="fill:url(#linearGradient323);stroke-width:0.988448" />
      <path
         d="m 362.61976,102.92463 c -0.0395,2.61148 -1.20788,3.97949 -3.51097,4.07537 l -15.89721,-1.85631 V 62.563328 L 359.604,61.026292 c 2.18349,-0.220424 3.13734,0.950887 3.15414,3.298451 z"
         fill="url(#c)"
         id="path315"
         style="fill:url(#linearGradient325);stroke-width:0.988448" />
      <path
         d="m 324.65328,161.80291 h 12.27524 l -6.5e-4,-27.78334 -12.15597,-0.038 c -2.04093,0.0374 -2.89186,0.80645 -2.94536,2.84738 v 22.06151 c 0.008,1.77405 1.42852,2.91249 2.82674,2.91249 z"
         fill="url(#a)"
         id="path327"
         style="fill:url(#linearGradient337);stroke-width:0.64464" />
      <path
         d="m 347.85903,161.80291 -7.79047,-0.009 v -27.78334 l 8.01352,-0.029 c 1.39242,0.0168 2.08863,1.10105 2.08863,2.40386 v 22.90149 c 0.0606,1.43045 -0.88444,2.48508 -2.31168,2.51603 z"
         fill="url(#b)"
         id="path329"
         style="fill:url(#linearGradient339);stroke-width:0.64464" />
      <path
         d="m 348.14332,160.34215 c -0.0258,1.70314 -0.78775,2.59532 -2.28976,2.65785 l -10.36775,-1.21063 v -27.7698 l 10.69071,-1.00242 c 1.42401,-0.14375 2.04609,0.62014 2.05705,2.15116 z"
         fill="url(#c)"
         id="path331"
         style="fill:url(#linearGradient341);stroke-width:0.64464" />
      <path
         d="m 323.30085,210.58223 h 9.41101 l -4.9e-4,-21.30057 -9.31958,-0.0292 c -1.56472,0.0287 -2.21709,0.61828 -2.25811,2.18299 v 16.91383 c 0.006,1.36011 1.0952,2.23291 2.16717,2.23291 z"
         fill="url(#a)"
         id="path343"
         style="fill:url(#linearGradient353);stroke-width:0.494224" />
      <path
         d="m 341.09193,210.58223 -5.9727,-0.007 v -21.30057 l 6.1437,-0.0222 c 1.06752,0.0129 1.60128,0.84414 1.60128,1.84297 v 17.5578 c 0.0465,1.09668 -0.67807,1.90523 -1.77228,1.92896 z"
         fill="url(#b)"
         id="path345"
         style="fill:url(#linearGradient355);stroke-width:0.494224" />
      <path
         d="m 341.30988,209.46231 c -0.0198,1.30574 -0.60394,1.98975 -1.75548,2.03769 l -7.94861,-0.92815 v -21.29019 l 8.19621,-0.76852 c 1.09174,-0.11021 1.56867,0.47545 1.57707,1.64923 z"
         fill="url(#c)"
         id="path347"
         style="fill:url(#linearGradient357);stroke-width:0.494224" />
      <path
         d="m 322.32664,250.90145 h 6.13761 l -3.2e-4,-13.89167 -6.07799,-0.019 c -1.02046,0.0187 -1.44592,0.40322 -1.47268,1.42368 v 11.03076 c 0.004,0.88703 0.71426,1.45624 1.41338,1.45624 z"
         fill="url(#a)"
         id="path359"
         style="fill:url(#linearGradient369);stroke-width:0.32232" />
      <path
         d="m 333.92951,250.90145 -3.89524,-0.005 v -13.89167 l 4.00677,-0.0145 c 0.69621,0.008 1.04431,0.55052 1.04431,1.20193 v 11.45074 c 0.0303,0.71523 -0.44222,1.24254 -1.15584,1.25801 z"
         fill="url(#b)"
         id="path361"
         style="fill:url(#linearGradient371);stroke-width:0.32232" />
      <path
         d="m 334.07166,250.17108 c -0.0129,0.85157 -0.39388,1.29766 -1.14489,1.32892 l -5.18387,-0.60532 v -13.8849 l 5.34536,-0.50121 c 0.712,-0.0719 1.02304,0.31008 1.02852,1.07559 z"
         fill="url(#c)"
         id="path363"
         style="fill:url(#linearGradient373);stroke-width:0.32232" />
    </g>
    <g
       inkscape:groupmode="layer"
       id="layer6"
       inkscape:label="Pictogram"
       style="display:inline">
      <path
         d="m 145.0032,118.32524 c -25.00516,0 -46.554358,14.73836 -56.455341,36.00839 -0.303239,0.64498 -0.303239,1.40067 0,2.05528 9.900983,21.27003 31.450181,36.0132 56.455341,36.0132 25.00516,0 46.55436,-14.74317 56.45534,-36.0132 0.30324,-0.64498 0.30324,-1.39586 0,-2.05528 -9.90098,-21.27003 -31.45018,-36.00839 -56.45534,-36.00839 z m 0,62.59712 c -14.11745,0 -25.55388,-11.44605 -25.55388,-25.55387 0,-14.12226 11.44606,-25.55388 25.55388,-25.55388 14.12226,0 25.55388,11.44606 25.55388,25.55388 0,14.10782 -11.44606,25.55387 -25.55388,25.55387 z m 0,-41.92395 c 9.02977,0 16.36045,7.33068 16.36045,16.35564 0,9.02977 -7.33068,16.36045 -16.36045,16.36045 -9.02977,0 -16.35564,-7.33068 -16.35564,-16.36045 0,-9.02496 7.32587,-16.35564 16.35564,-16.35564 z"
         fill="#4d4d4d"
         fill-opacity="0.87"
         fill-rule="nonzero"
         id="path43"
         style="display:inline;enable-background:new;stroke-width:4.81331" />
      <path
         d="m 342.56316,76.263219 c -5.13499,0 -9.56027,3.026628 -11.59351,7.39458 -0.0623,0.132452 -0.0623,0.287638 0,0.422067 2.03324,4.367952 6.45852,7.395569 11.59351,7.395569 5.13499,0 9.56027,-3.027617 11.59351,-7.395569 0.0623,-0.132452 0.0623,-0.28665 0,-0.422067 -2.03324,-4.367952 -6.45852,-7.39458 -11.59351,-7.39458 z m 0,12.854767 c -2.89912,0 -5.24767,-2.350529 -5.24767,-5.247671 0,-2.900106 2.35053,-5.247671 5.24767,-5.247671 2.90011,0 5.24767,2.35053 5.24767,5.247671 0,2.897142 -2.35053,5.247671 -5.24767,5.247671 z m 0,-8.609383 c 1.85433,0 3.35973,1.505407 3.35973,3.358747 0,1.854329 -1.5054,3.359735 -3.35973,3.359735 -1.85433,0 -3.35875,-1.505406 -3.35875,-3.359735 0,-1.85334 1.50442,-3.358747 3.35875,-3.358747 z"
         fill="#4d4d4d"
         fill-opacity="0.87"
         fill-rule="nonzero"
         id="path317"
         style="display:inline;enable-background:new;stroke-width:0.988448" />
      <path
         d="m 335.06293,142.95428 c -3.34891,0 -6.23496,1.97388 -7.56098,4.82255 -0.0406,0.0864 -0.0406,0.18759 0,0.27526 1.32602,2.84866 4.21207,4.8232 7.56098,4.8232 3.3489,0 6.23496,-1.97454 7.56098,-4.8232 0.0406,-0.0864 0.0406,-0.18695 0,-0.27526 -1.32602,-2.84867 -4.21208,-4.82255 -7.56098,-4.82255 z m 0,8.38354 c -1.89073,0 -3.42239,-1.53295 -3.42239,-3.42239 0,-1.89138 1.53295,-3.4224 3.42239,-3.4224 1.89137,0 3.42239,1.53296 3.42239,3.4224 0,1.88944 -1.53295,3.42239 -3.42239,3.42239 z m 0,-5.61481 c 1.20934,0 2.19113,0.98178 2.19113,2.19048 0,1.20935 -0.98179,2.19113 -2.19113,2.19113 -1.20935,0 -2.19049,-0.98178 -2.19049,-2.19113 0,-1.2087 0.98114,-2.19048 2.19049,-2.19048 z"
         fill="#4d4d4d"
         fill-opacity="0.87"
         fill-rule="nonzero"
         id="path333"
         style="display:inline;enable-background:new;stroke-width:0.64464" />
      <path
         d="m 331.28158,196.13161 c -2.56749,0 -4.78014,1.51331 -5.79675,3.69729 -0.0311,0.0662 -0.0311,0.14382 0,0.21103 1.01661,2.18398 3.22926,3.69779 5.79675,3.69779 2.56749,0 4.78013,-1.51381 5.79675,-3.69779 0.0311,-0.0662 0.0311,-0.14332 0,-0.21103 -1.01662,-2.18398 -3.22926,-3.69729 -5.79675,-3.69729 z m 0,6.42738 c -1.44956,0 -2.62384,-1.17526 -2.62384,-2.62383 0,-1.45006 1.17527,-2.62384 2.62384,-2.62384 1.45005,0 2.62383,1.17527 2.62383,2.62384 0,1.44857 -1.17526,2.62383 -2.62383,2.62383 z m 0,-4.30469 c 0.92716,0 1.67987,0.7527 1.67987,1.67937 0,0.92717 -0.75271,1.67987 -1.67987,1.67987 -0.92716,0 -1.67937,-0.7527 -1.67937,-1.67987 0,-0.92667 0.75221,-1.67937 1.67937,-1.67937 z"
         fill="#4d4d4d"
         fill-opacity="0.87"
         fill-rule="nonzero"
         id="path349"
         style="display:inline;enable-background:new;stroke-width:0.494224" />
      <path
         d="m 327.53146,241.47714 c -1.67445,0 -3.11748,0.98694 -3.78049,2.41127 -0.0203,0.0432 -0.0203,0.0938 0,0.13763 0.66301,1.42434 2.10604,2.4116 3.78049,2.4116 1.67445,0 3.11748,-0.98726 3.78049,-2.4116 0.0203,-0.0432 0.0203,-0.0935 0,-0.13763 -0.66301,-1.42433 -2.10604,-2.41127 -3.78049,-2.41127 z m 0,4.19177 c -0.94536,0 -1.7112,-0.76648 -1.7112,-1.7112 0,-0.94568 0.76648,-1.71119 1.7112,-1.71119 0.94569,0 1.7112,0.76647 1.7112,1.71119 0,0.94472 -0.76648,1.7112 -1.7112,1.7112 z m 0,-2.80741 c 0.60467,0 1.09557,0.4909 1.09557,1.09525 0,0.60467 -0.4909,1.09556 -1.09557,1.09556 -0.60467,0 -1.09524,-0.49089 -1.09524,-1.09556 0,-0.60435 0.49057,-1.09525 1.09524,-1.09525 z"
         fill="#4d4d4d"
         fill-opacity="0.87"
         fill-rule="nonzero"
         id="path365"
         style="display:inline;enable-background:new;stroke-width:0.32232" />
    </g>
  </g>
</svg>
