<?xml version="1.0" encoding="UTF-8" standalone="no"?>
<svg
   inkscape:export-ydpi="90.000000"
   inkscape:export-xdpi="90.000000"
   width="400"
   height="300"
   id="svg11300"
   sodipodi:version="0.32"
   inkscape:version="1.2.2 (b0a8486541, 2022-12-01)"
   sodipodi:docname="evince.svg"
   inkscape:output_extension="org.inkscape.output.svg.inkscape"
   version="1.0"
   style="display:inline;enable-background:new"
   inkscape:export-filename="/home/sam/suru-template.png"
   xmlns:inkscape="http://www.inkscape.org/namespaces/inkscape"
   xmlns:sodipodi="http://sodipodi.sourceforge.net/DTD/sodipodi-0.dtd"
   xmlns:xlink="http://www.w3.org/1999/xlink"
   xmlns="http://www.w3.org/2000/svg"
   xmlns:svg="http://www.w3.org/2000/svg"
   xmlns:rdf="http://www.w3.org/1999/02/22-rdf-syntax-ns#"
   xmlns:cc="http://creativecommons.org/ns#"
   xmlns:dc="http://purl.org/dc/elements/1.1/">
  <title
     id="title3004">Suru Icon Theme Template</title>
  <sodipodi:namedview
     stroke="#ef2929"
     fill="#f57900"
     id="base"
     pagecolor="#ffffff"
     bordercolor="#000000"
     borderopacity="0.25490196"
     inkscape:pageopacity="0"
     inkscape:pageshadow="2"
     inkscape:zoom="2"
     inkscape:cx="335"
     inkscape:cy="223.5"
     inkscape:current-layer="layer7"
     showgrid="false"
     inkscape:grid-bbox="true"
     inkscape:document-units="px"
     inkscape:showpageshadow="false"
     inkscape:window-width="1920"
     inkscape:window-height="1020"
     inkscape:window-x="0"
     inkscape:window-y="32"
     width="400px"
     height="300px"
     inkscape:snap-nodes="true"
     inkscape:snap-bbox="true"
     gridtolerance="10000"
     inkscape:object-nodes="true"
     inkscape:snap-grids="true"
     showguides="true"
     inkscape:guide-bbox="true"
     inkscape:window-maximized="1"
     inkscape:bbox-paths="true"
     inkscape:snap-bbox-midpoints="true"
     inkscape:snap-global="true"
     inkscape:object-paths="true"
     inkscape:snap-intersection-paths="true"
     inkscape:snap-smooth-nodes="true"
     inkscape:pagecheckerboard="false"
     showborder="false"
     inkscape:document-rotation="0"
     inkscape:deskcolor="#d1d1d1">
    <inkscape:grid
       spacingy="1"
       spacingx="1"
       id="grid5883"
       type="xygrid"
       enabled="true"
       visible="true"
       empspacing="4"
       snapvisiblegridlinesonly="true"
       originx="0"
       originy="0" />
    <inkscape:grid
       type="xygrid"
       id="grid11592"
       empspacing="2"
       visible="true"
       enabled="false"
       spacingx="0.5"
       spacingy="0.5"
       color="#ff0000"
       opacity="0.1254902"
       empcolor="#ff0000"
       empopacity="0.25098039"
       snapvisiblegridlinesonly="true"
       originx="0"
       originy="0" />
  </sodipodi:namedview>
  <defs
     id="defs3">
    <linearGradient
       inkscape:collect="always"
       xlink:href="#linearGradient940-3"
       id="linearGradient1011"
       x1="500"
       y1="272.36218"
       x2="500"
       y2="812.36218"
       gradientUnits="userSpaceOnUse"
       gradientTransform="translate(-621,-415.36218)" />
    <linearGradient
       id="linearGradient940-3">
      <stop
         id="stop936"
         offset="0"
         style="stop-color:#f6f7f7;stop-opacity:1" />
      <stop
         id="stop938"
         offset="1"
         style="stop-color:#dce7f0;stop-opacity:1" />
    </linearGradient>
    <filter
       style="color-interpolation-filters:sRGB"
       inkscape:label="Drop Shadow"
       id="filter977"
       x="-0.013090909"
       y="-0.015945539"
       width="1.0261818"
       height="1.0385351">
      <feFlood
         flood-opacity="0.294118"
         flood-color="rgb(0,0,0)"
         result="flood"
         id="feFlood967" />
      <feComposite
         in="flood"
         in2="SourceGraphic"
         operator="in"
         result="composite1"
         id="feComposite969" />
      <feGaussianBlur
         in="composite1"
         stdDeviation="3"
         result="blur"
         id="feGaussianBlur971" />
      <feOffset
         dx="0"
         dy="3"
         result="offset"
         id="feOffset973" />
      <feComposite
         in="SourceGraphic"
         in2="offset"
         operator="over"
         result="composite2"
         id="feComposite975" />
    </filter>
    <linearGradient
       inkscape:collect="always"
       xlink:href="#linearGradient966"
       id="linearGradient4835"
       x1="102.29776"
       y1="-0.42686829"
       x2="102.29776"
       y2="199.16539"
       gradientUnits="userSpaceOnUse"
       gradientTransform="matrix(1.12,0,0,1.12,40.00001,43.657145)" />
    <linearGradient
       id="linearGradient966">
      <stop
         id="stop960"
         offset="0"
         style="stop-color:#ff577e;stop-opacity:1" />
      <stop
         id="stop964"
         offset="1"
         style="stop-color:#f73358;stop-opacity:1" />
    </linearGradient>
    <linearGradient
       inkscape:collect="always"
       xlink:href="#linearGradient4903"
       id="linearGradient1009"
       x1="520"
       y1="32.362179"
       x2="520"
       y2="1052.3622"
       gradientUnits="userSpaceOnUse"
       gradientTransform="matrix(0.29166668,0,0,0.29166668,4.2483795,-3.5487751)" />
    <linearGradient
       inkscape:collect="always"
       id="linearGradient4903">
      <stop
         style="stop-color:#e8ebec;stop-opacity:1"
         offset="0"
         id="stop4905" />
      <stop
         style="stop-color:#fdfeff;stop-opacity:1"
         offset="1"
         id="stop4907" />
    </linearGradient>
    <linearGradient
       inkscape:collect="always"
       xlink:href="#linearGradient940-3"
       id="linearGradient1046"
       gradientUnits="userSpaceOnUse"
       gradientTransform="translate(-621,-415.36218)"
       x1="500"
       y1="272.36218"
       x2="500"
       y2="812.36218" />
    <linearGradient
       inkscape:collect="always"
       xlink:href="#linearGradient966"
       id="linearGradient1048"
       gradientUnits="userSpaceOnUse"
       gradientTransform="matrix(0.23,0,0,0.23,321,60.929592)"
       x1="102.29776"
       y1="-0.42686829"
       x2="102.29776"
       y2="199.16539" />
    <linearGradient
       inkscape:collect="always"
       xlink:href="#linearGradient4903"
       id="linearGradient1050"
       gradientUnits="userSpaceOnUse"
       gradientTransform="matrix(0.05989584,0,0,0.05989584,313.65815,51.23552)"
       x1="520"
       y1="32.362179"
       x2="520"
       y2="1052.3622" />
    <linearGradient
       inkscape:collect="always"
       xlink:href="#linearGradient940-3"
       id="linearGradient1058"
       gradientUnits="userSpaceOnUse"
       gradientTransform="translate(-621,-415.36218)"
       x1="500"
       y1="272.36218"
       x2="500"
       y2="812.36218" />
    <linearGradient
       inkscape:collect="always"
       xlink:href="#linearGradient966"
       id="linearGradient1060"
       gradientUnits="userSpaceOnUse"
       gradientTransform="matrix(0.15,0,0,0.15,320.99999,133)"
       x1="102.29776"
       y1="-0.42686829"
       x2="102.29776"
       y2="199.16539" />
    <linearGradient
       inkscape:collect="always"
       xlink:href="#linearGradient4903"
       id="linearGradient1062"
       gradientUnits="userSpaceOnUse"
       gradientTransform="matrix(0.0390625,0,0,0.0390625,316.21182,126.67778)"
       x1="520"
       y1="32.362179"
       x2="520"
       y2="1052.3622" />
    <linearGradient
       inkscape:collect="always"
       xlink:href="#linearGradient940-3"
       id="linearGradient1070"
       gradientUnits="userSpaceOnUse"
       gradientTransform="translate(-621,-415.36218)"
       x1="500"
       y1="272.36218"
       x2="500"
       y2="812.36218" />
    <linearGradient
       inkscape:collect="always"
       xlink:href="#linearGradient966"
       id="linearGradient1072"
       gradientUnits="userSpaceOnUse"
       gradientTransform="matrix(0.11499999,0,0,0.11499999,320.49998,188.49999)"
       x1="102.29776"
       y1="-0.42686829"
       x2="102.29776"
       y2="199.16539" />
    <linearGradient
       inkscape:collect="always"
       xlink:href="#linearGradient4903"
       id="linearGradient1074"
       gradientUnits="userSpaceOnUse"
       gradientTransform="matrix(0.02994791,0,0,0.02994791,316.82905,183.65296)"
       x1="520"
       y1="32.362179"
       x2="520"
       y2="1052.3622" />
    <linearGradient
       inkscape:collect="always"
       xlink:href="#linearGradient940-3"
       id="linearGradient1082"
       gradientUnits="userSpaceOnUse"
       gradientTransform="translate(-621,-415.36218)"
       x1="500"
       y1="272.36218"
       x2="500"
       y2="812.36218" />
    <linearGradient
       inkscape:collect="always"
       xlink:href="#linearGradient966"
       id="linearGradient1084"
       gradientUnits="userSpaceOnUse"
       gradientTransform="matrix(0.07499999,0,0,0.07499999,320.49999,236.49999)"
       x1="102.29776"
       y1="-0.42686829"
       x2="102.29776"
       y2="199.16539" />
    <linearGradient
       inkscape:collect="always"
       xlink:href="#linearGradient4903"
       id="linearGradient1086"
       gradientUnits="userSpaceOnUse"
       gradientTransform="matrix(0.01953125,0,0,0.01953125,318.1059,233.33889)"
       x1="520"
       y1="32.362179"
       x2="520"
       y2="1052.3622" />
  </defs>
  <metadata
     id="metadata4">
    <rdf:RDF>
      <cc:Work
         rdf:about="">
        <dc:format>image/svg+xml</dc:format>
        <dc:type
           rdf:resource="http://purl.org/dc/dcmitype/StillImage" />
        <dc:creator>
          <cc:Agent>
            <dc:title>Sam Hewitt</dc:title>
          </cc:Agent>
        </dc:creator>
        <dc:source />
        <cc:license
           rdf:resource="http://creativecommons.org/licenses/by-sa/4.0/" />
        <dc:title>Suru Icon Theme Template</dc:title>
        <dc:subject>
          <rdf:Bag />
        </dc:subject>
        <dc:date />
        <dc:rights>
          <cc:Agent>
            <dc:title />
          </cc:Agent>
        </dc:rights>
        <dc:publisher>
          <cc:Agent>
            <dc:title />
          </cc:Agent>
        </dc:publisher>
        <dc:identifier />
        <dc:relation />
        <dc:language />
        <dc:coverage />
        <dc:description />
        <dc:contributor>
          <cc:Agent>
            <dc:title />
          </cc:Agent>
        </dc:contributor>
      </cc:Work>
      <cc:Work
         rdf:about="">
        <dc:format>image/svg+xml</dc:format>
        <dc:type
           rdf:resource="http://purl.org/dc/dcmitype/StillImage" />
      </cc:Work>
      <cc:License
         rdf:about="http://creativecommons.org/licenses/by-sa/4.0/">
        <cc:permits
           rdf:resource="http://creativecommons.org/ns#Reproduction" />
        <cc:permits
           rdf:resource="http://creativecommons.org/ns#Distribution" />
        <cc:requires
           rdf:resource="http://creativecommons.org/ns#Notice" />
        <cc:requires
           rdf:resource="http://creativecommons.org/ns#Attribution" />
        <cc:permits
           rdf:resource="http://creativecommons.org/ns#DerivativeWorks" />
        <cc:requires
           rdf:resource="http://creativecommons.org/ns#ShareAlike" />
      </cc:License>
    </rdf:RDF>
  </metadata>
  <g
     style="display:inline"
     inkscape:groupmode="layer"
     inkscape:label="Icon"
     id="layer1">
    <g
       style="display:none"
       inkscape:label="Baseplate"
       id="layer7"
       inkscape:groupmode="layer"
       sodipodi:insensitive="true">
      <text
         y="-8.2548828"
         xml:space="preserve"
         x="19.006836"
         style="font-style:normal;font-variant:normal;font-weight:normal;font-stretch:normal;line-height:0%;font-family:'DejaVu Sans';-inkscape-font-specification:'DejaVu Sans';display:inline;fill:#000000;fill-opacity:1;stroke:none;enable-background:new"
         inkscape:label="context"
         id="context"><tspan
           style="font-style:normal;font-variant:normal;font-weight:normal;font-stretch:normal;font-size:18px;line-height:1.25;font-family:'DejaVu Sans';-inkscape-font-specification:'DejaVu Sans'"
           y="-8.2548828"
           x="19.006836"
           sodipodi:role="line"
           id="tspan3933">apps</tspan></text>
      <text
         y="-8.2548828"
         xml:space="preserve"
         x="146.48828"
         style="font-style:normal;font-variant:normal;font-weight:bold;font-stretch:normal;line-height:0%;font-family:'DejaVu Sans';-inkscape-font-specification:'DejaVu Sans Bold';text-align:start;writing-mode:lr-tb;text-anchor:start;display:inline;fill:#000000;fill-opacity:1;stroke:none;enable-background:new"
         inkscape:label="icon-name"
         id="icon-name"><tspan
           style="font-style:normal;font-variant:normal;font-weight:bold;font-stretch:normal;font-size:18px;line-height:1.25;font-family:'DejaVu Sans';-inkscape-font-specification:'DejaVu Sans Bold'"
           y="-8.2548828"
           x="146.48828"
           sodipodi:role="line"
           id="tspan924">evince</tspan></text>
      <rect
         style="display:inline;overflow:visible;visibility:visible;fill:#cdcdcd;fill-opacity:1;fill-rule:nonzero;stroke:none;stroke-width:2;marker:none;enable-background:accumulate"
         id="rect16x16"
         width="16"
         height="16"
         x="320"
         y="236"
         inkscape:label="16x16" />
      <rect
         style="display:inline;overflow:visible;visibility:visible;fill:#cdcdcd;fill-opacity:1;fill-rule:nonzero;stroke:none;stroke-width:2;marker:none;enable-background:accumulate"
         id="rect24x24"
         width="24"
         height="24"
         x="320"
         y="188"
         inkscape:label="24x24" />
      <rect
         style="display:inline;overflow:visible;visibility:visible;fill:#cdcdcd;fill-opacity:1;fill-rule:nonzero;stroke:none;stroke-width:2;marker:none;enable-background:accumulate"
         id="rect32x32"
         width="32"
         height="32"
         x="320"
         y="132"
         inkscape:label="32x32" />
      <rect
         inkscape:label="48x48"
         y="60"
         x="320"
         height="48"
         width="48"
         id="rect48x48"
         style="display:inline;overflow:visible;visibility:visible;fill:#cdcdcd;fill-opacity:1;fill-rule:nonzero;stroke:none;stroke-width:2;marker:none;enable-background:accumulate" />
      <rect
         style="display:inline;overflow:visible;visibility:visible;fill:#cdcdcd;fill-opacity:1;fill-rule:nonzero;stroke:none;stroke-width:2;marker:none;enable-background:accumulate"
         id="rect256x256"
         width="256"
         height="256"
         x="24"
         y="28"
         inkscape:label="256x256" />
    </g>
    <g
       inkscape:groupmode="layer"
       id="layer2"
       inkscape:label="Background"
       style="display:inline">
      <circle
         style="display:inline;fill:url(#linearGradient1009);fill-opacity:1;stroke:none;stroke-width:0.513883;stroke-linecap:square;stroke-linejoin:miter;stroke-miterlimit:4;stroke-dasharray:none;stroke-opacity:1;paint-order:stroke markers fill;enable-background:new"
         id="path1001"
         cx="152"
         cy="155.65715"
         r="112" />
      <circle
         r="112"
         cy="155.65715"
         cx="152"
         id="circle1013"
         style="color:#000000;display:inline;overflow:visible;visibility:visible;fill:url(#linearGradient4835);fill-opacity:1;fill-rule:nonzero;stroke:none;stroke-width:10.2305;marker:none;enable-background:accumulate" />
      <circle
         style="display:inline;fill:url(#linearGradient1050);fill-opacity:1;stroke:none;stroke-width:0.10553;stroke-linecap:square;stroke-linejoin:miter;stroke-miterlimit:4;stroke-dasharray:none;stroke-opacity:1;paint-order:stroke markers fill;enable-background:new"
         id="circle1040"
         cx="344"
         cy="83.929596"
         r="23" />
      <circle
         r="23"
         cy="83.929596"
         cx="344"
         id="circle1042"
         style="color:#000000;display:inline;overflow:visible;visibility:visible;fill:url(#linearGradient1048);fill-opacity:1;fill-rule:nonzero;stroke:none;stroke-width:2.10091;marker:none;enable-background:accumulate" />
      <circle
         style="display:inline;fill:url(#linearGradient1062);fill-opacity:1;stroke:none;stroke-width:0.0688239;stroke-linecap:square;stroke-linejoin:miter;stroke-miterlimit:4;stroke-dasharray:none;stroke-opacity:1;paint-order:stroke markers fill;enable-background:new"
         id="circle1052"
         cx="336"
         cy="148"
         r="15" />
      <circle
         r="15"
         cy="148"
         cx="336"
         id="circle1054"
         style="color:#000000;display:inline;overflow:visible;visibility:visible;fill:url(#linearGradient1060);fill-opacity:1;fill-rule:nonzero;stroke:none;stroke-width:1.37016;marker:none;enable-background:accumulate" />
      <circle
         style="display:inline;fill:url(#linearGradient1074);fill-opacity:1;stroke:none;stroke-width:0.052765;stroke-linecap:square;stroke-linejoin:miter;stroke-miterlimit:4;stroke-dasharray:none;stroke-opacity:1;paint-order:stroke markers fill;enable-background:new"
         id="circle1064"
         cx="332"
         cy="200"
         r="11.5" />
      <circle
         r="11.5"
         cy="200"
         cx="332"
         id="circle1066"
         style="color:#000000;display:inline;overflow:visible;visibility:visible;fill:url(#linearGradient1072);fill-opacity:1;fill-rule:nonzero;stroke:none;stroke-width:1.05045;marker:none;enable-background:accumulate" />
      <circle
         style="display:inline;fill:url(#linearGradient1086);fill-opacity:1;stroke:none;stroke-width:0.034412;stroke-linecap:square;stroke-linejoin:miter;stroke-miterlimit:4;stroke-dasharray:none;stroke-opacity:1;paint-order:stroke markers fill;enable-background:new"
         id="circle1076"
         cx="328"
         cy="244"
         r="7.5" />
      <circle
         r="7.5"
         cy="244"
         cx="328"
         id="circle1078"
         style="color:#000000;display:inline;overflow:visible;visibility:visible;fill:url(#linearGradient1084);fill-opacity:1;fill-rule:nonzero;stroke:none;stroke-width:0.685076;marker:none;enable-background:accumulate" />
    </g>
    <g
       inkscape:groupmode="layer"
       id="layer6"
       inkscape:label="Pictogram"
       style="display:inline">
      <path
         id="path787"
         class="shp34"
         d="m 34.28072,-100.76847 c -102.6737,0 -124.37675,71.96489 -124.37675,71.96489 -4.07693,2.35286 -3.69155,6.36894 -3.69155,6.36894 -2.02832,3.52928 -3.67126,9.6751 -3.67126,13.75202 v 356.76169 c 0,4.70571 3.48871,1.80521 3.48871,1.80521 1.92691,1.01416 3.93495,0.1217 4.52316,-1.96747 0,0 16.79451,-83.48577 123.72769,-83.48577 69.73374,0 131.71928,41.33722 131.71928,41.33722 V -39.10746 c 0,0 -29.06587,-61.66101 -131.71928,-61.66101 z m -286.54116,0 c 102.65342,0 124.35647,71.96489 124.35647,71.96489 4.07693,2.35286 3.69155,6.36894 3.69155,6.36894 2.02832,3.52928 3.67126,9.6751 3.67126,13.75202 v 356.76169 c 0,4.70571 -3.44815,1.78493 -3.44815,1.78493 -1.9269,0.97359 -3.93494,0.10141 -4.50287,-1.96747 0,0 -16.85536,-85.49381 -123.76826,-85.49381 -69.75402,0 -131.73956,47.42219 -131.73956,47.42219 V -39.10746 c 0,0 29.06587,-61.66101 131.73956,-61.66101 z"
         style="display:inline;fill:url(#linearGradient1011);fill-opacity:1;stroke-width:2.02832;filter:url(#filter977);enable-background:new"
         inkscape:connector-curvature="0"
         transform="matrix(0.22857143,0,0,0.22857143,176.91429,127.08571)" />
      <path
         id="path1044"
         class="shp34"
         d="m 34.28072,-100.76847 c -102.6737,0 -124.37675,71.96489 -124.37675,71.96489 -4.07693,2.35286 -3.69155,6.36894 -3.69155,6.36894 -2.02832,3.52928 -3.67126,9.6751 -3.67126,13.75202 v 356.76169 c 0,4.70571 3.48871,1.80521 3.48871,1.80521 1.92691,1.01416 3.93495,0.1217 4.52316,-1.96747 0,0 16.79451,-83.48577 123.72769,-83.48577 69.73374,0 131.71928,41.33722 131.71928,41.33722 V -39.10746 c 0,0 -29.06587,-61.66101 -131.71928,-61.66101 z m -286.54116,0 c 102.65342,0 124.35647,71.96489 124.35647,71.96489 4.07693,2.35286 3.69155,6.36894 3.69155,6.36894 2.02832,3.52928 3.67126,9.6751 3.67126,13.75202 v 356.76169 c 0,4.70571 -3.44815,1.78493 -3.44815,1.78493 -1.9269,0.97359 -3.93494,0.10141 -4.50287,-1.96747 0,0 -16.85536,-85.49381 -123.76826,-85.49381 -69.75402,0 -131.73956,47.42219 -131.73956,47.42219 V -39.10746 c 0,0 29.06587,-61.66101 131.73956,-61.66101 z"
         style="display:inline;fill:url(#linearGradient1046);fill-opacity:1;stroke-width:2.02832;filter:url(#filter977);enable-background:new"
         inkscape:connector-curvature="0"
         transform="matrix(0.04693878,0,0,0.04693878,349.11633,78.062244)" />
      <path
         id="path1056"
         class="shp34"
         d="m 34.28072,-100.76847 c -102.6737,0 -124.37675,71.96489 -124.37675,71.96489 -4.07693,2.35286 -3.69155,6.36894 -3.69155,6.36894 -2.02832,3.52928 -3.67126,9.6751 -3.67126,13.75202 v 356.76169 c 0,4.70571 3.48871,1.80521 3.48871,1.80521 1.92691,1.01416 3.93495,0.1217 4.52316,-1.96747 0,0 16.79451,-83.48577 123.72769,-83.48577 69.73374,0 131.71928,41.33722 131.71928,41.33722 V -39.10746 c 0,0 -29.06587,-61.66101 -131.71928,-61.66101 z m -286.54116,0 c 102.65342,0 124.35647,71.96489 124.35647,71.96489 4.07693,2.35286 3.69155,6.36894 3.69155,6.36894 2.02832,3.52928 3.67126,9.6751 3.67126,13.75202 v 356.76169 c 0,4.70571 -3.44815,1.78493 -3.44815,1.78493 -1.9269,0.97359 -3.93494,0.10141 -4.50287,-1.96747 0,0 -16.85536,-85.49381 -123.76826,-85.49381 -69.75402,0 -131.73956,47.42219 -131.73956,47.42219 V -39.10746 c 0,0 29.06587,-61.66101 131.73956,-61.66101 z"
         style="display:inline;fill:url(#linearGradient1058);fill-opacity:1;stroke-width:2.02832;filter:url(#filter977);enable-background:new"
         inkscape:connector-curvature="0"
         transform="matrix(0.03061224,0,0,0.03061224,339.33673,144.17347)" />
      <path
         id="path1068"
         class="shp34"
         d="m 34.28072,-100.76847 c -102.6737,0 -124.37675,71.96489 -124.37675,71.96489 -4.07693,2.35286 -3.69155,6.36894 -3.69155,6.36894 -2.02832,3.52928 -3.67126,9.6751 -3.67126,13.75202 v 356.76169 c 0,4.70571 3.48871,1.80521 3.48871,1.80521 1.92691,1.01416 3.93495,0.1217 4.52316,-1.96747 0,0 16.79451,-83.48577 123.72769,-83.48577 69.73374,0 131.71928,41.33722 131.71928,41.33722 V -39.10746 c 0,0 -29.06587,-61.66101 -131.71928,-61.66101 z m -286.54116,0 c 102.65342,0 124.35647,71.96489 124.35647,71.96489 4.07693,2.35286 3.69155,6.36894 3.69155,6.36894 2.02832,3.52928 3.67126,9.6751 3.67126,13.75202 v 356.76169 c 0,4.70571 -3.44815,1.78493 -3.44815,1.78493 -1.9269,0.97359 -3.93494,0.10141 -4.50287,-1.96747 0,0 -16.85536,-85.49381 -123.76826,-85.49381 -69.75402,0 -131.73956,47.42219 -131.73956,47.42219 V -39.10746 c 0,0 29.06587,-61.66101 131.73956,-61.66101 z"
         style="display:inline;fill:url(#linearGradient1070);fill-opacity:1;stroke-width:2.02832;filter:url(#filter977);enable-background:new"
         inkscape:connector-curvature="0"
         transform="matrix(0.02346939,0,0,0.02346939,334.55816,197.06633)" />
      <path
         id="path1080"
         class="shp34"
         d="m 34.28072,-100.76847 c -102.6737,0 -124.37675,71.96489 -124.37675,71.96489 -4.07693,2.35286 -3.69155,6.36894 -3.69155,6.36894 -2.02832,3.52928 -3.67126,9.6751 -3.67126,13.75202 v 356.76169 c 0,4.70571 3.48871,1.80521 3.48871,1.80521 1.92691,1.01416 3.93495,0.1217 4.52316,-1.96747 0,0 16.79451,-83.48577 123.72769,-83.48577 69.73374,0 131.71928,41.33722 131.71928,41.33722 V -39.10746 c 0,0 -29.06587,-61.66101 -131.71928,-61.66101 z m -286.54116,0 c 102.65342,0 124.35647,71.96489 124.35647,71.96489 4.07693,2.35286 3.69155,6.36894 3.69155,6.36894 2.02832,3.52928 3.67126,9.6751 3.67126,13.75202 v 356.76169 c 0,4.70571 -3.44815,1.78493 -3.44815,1.78493 -1.9269,0.97359 -3.93494,0.10141 -4.50287,-1.96747 0,0 -16.85536,-85.49381 -123.76826,-85.49381 -69.75402,0 -131.73956,47.42219 -131.73956,47.42219 V -39.10746 c 0,0 29.06587,-61.66101 131.73956,-61.66101 z"
         style="display:inline;fill:url(#linearGradient1082);fill-opacity:1;stroke-width:2.02832;filter:url(#filter977);enable-background:new"
         inkscape:connector-curvature="0"
         transform="matrix(0.01530612,0,0,0.01530612,329.66837,242.08674)" />
    </g>
  </g>
</svg>
