<?xml version="1.0" encoding="UTF-8" standalone="no"?>
<svg
   inkscape:export-ydpi="90.000000"
   inkscape:export-xdpi="90.000000"
   width="400"
   height="300"
   id="svg11300"
   sodipodi:version="0.32"
   inkscape:version="1.2.2 (b0a8486541, 2022-12-01)"
   sodipodi:docname="filemanager-app.svg"
   inkscape:output_extension="org.inkscape.output.svg.inkscape"
   version="1.0"
   style="display:inline;enable-background:new"
   inkscape:export-filename="/home/sam/suru-template.png"
   xmlns:inkscape="http://www.inkscape.org/namespaces/inkscape"
   xmlns:sodipodi="http://sodipodi.sourceforge.net/DTD/sodipodi-0.dtd"
   xmlns:xlink="http://www.w3.org/1999/xlink"
   xmlns="http://www.w3.org/2000/svg"
   xmlns:svg="http://www.w3.org/2000/svg"
   xmlns:rdf="http://www.w3.org/1999/02/22-rdf-syntax-ns#"
   xmlns:cc="http://creativecommons.org/ns#"
   xmlns:dc="http://purl.org/dc/elements/1.1/">
  <title
     id="title3004">Suru Icon Theme Template</title>
  <sodipodi:namedview
     stroke="#ef2929"
     fill="#f57900"
     id="base"
     pagecolor="#ffffff"
     bordercolor="#000000"
     borderopacity="0.25490196"
     inkscape:pageopacity="0"
     inkscape:pageshadow="2"
     inkscape:zoom="2.8284271"
     inkscape:cx="261.62951"
     inkscape:cy="170.41274"
     inkscape:current-layer="layer6"
     showgrid="false"
     inkscape:grid-bbox="true"
     inkscape:document-units="px"
     inkscape:showpageshadow="false"
     inkscape:window-width="1920"
     inkscape:window-height="1020"
     inkscape:window-x="0"
     inkscape:window-y="32"
     width="400px"
     height="300px"
     inkscape:snap-nodes="true"
     inkscape:snap-bbox="true"
     gridtolerance="10000"
     inkscape:object-nodes="true"
     inkscape:snap-grids="true"
     showguides="true"
     inkscape:guide-bbox="true"
     inkscape:window-maximized="1"
     inkscape:bbox-paths="true"
     inkscape:snap-bbox-midpoints="true"
     inkscape:snap-global="true"
     inkscape:object-paths="true"
     inkscape:snap-intersection-paths="true"
     inkscape:snap-smooth-nodes="true"
     inkscape:pagecheckerboard="false"
     showborder="false"
     inkscape:document-rotation="0"
     inkscape:deskcolor="#d1d1d1">
    <inkscape:grid
       spacingy="1"
       spacingx="1"
       id="grid5883"
       type="xygrid"
       enabled="true"
       visible="true"
       empspacing="4"
       snapvisiblegridlinesonly="true"
       originx="0"
       originy="0" />
    <inkscape:grid
       type="xygrid"
       id="grid11592"
       empspacing="2"
       visible="true"
       enabled="false"
       spacingx="0.5"
       spacingy="0.5"
       color="#ff0000"
       opacity="0.1254902"
       empcolor="#ff0000"
       empopacity="0.25098039"
       snapvisiblegridlinesonly="true"
       originx="0"
       originy="0" />
  </sodipodi:namedview>
  <defs
     id="defs3">
    <linearGradient
       id="d"
       x1="132.28999"
       x2="132.28999"
       y1="43"
       y2="281.12"
       gradientTransform="translate(2.4914e-6,-26.067)"
       gradientUnits="userSpaceOnUse">
      <stop
         stop-color="#1fd4ff"
         offset="0"
         id="stop1360" />
      <stop
         stop-color="#1f76f4"
         offset="1"
         id="stop1362" />
    </linearGradient>
    <filter
       style="color-interpolation-filters:sRGB"
       inkscape:label="Blur"
       id="filter1722-3"
       x="-0.094163037"
       y="-0.047741989"
       width="1.1883261"
       height="1.095484">
      <feGaussianBlur
         stdDeviation="5 4"
         result="blur"
         id="feGaussianBlur1720-6" />
    </filter>
    <linearGradient
       id="e"
       x1="715.82001"
       x2="715.82001"
       y1="83.949997"
       y2="943.95001"
       gradientUnits="userSpaceOnUse"
       xlink:href="#a"
       gradientTransform="matrix(0.24744964,0,0,0.26682538,26.101923,19.211921)" />
    <linearGradient
       id="a">
      <stop
         stop-color="#fbfcfd"
         offset="0"
         id="stop1349" />
      <stop
         stop-color="#dee9f3"
         offset="1"
         id="stop1351" />
    </linearGradient>
    <linearGradient
       inkscape:collect="always"
       xlink:href="#d"
       id="linearGradient342"
       gradientUnits="userSpaceOnUse"
       gradientTransform="matrix(0.19206118,0,0,0.20709991,317.93351,50.508428)"
       x1="132.28999"
       y1="43"
       x2="132.28999"
       y2="281.12" />
    <linearGradient
       inkscape:collect="always"
       xlink:href="#a"
       id="linearGradient344"
       gradientUnits="userSpaceOnUse"
       gradientTransform="matrix(0.05081555,0,0,0.05479449,318.14593,55.909593)"
       x1="715.82001"
       y1="83.949997"
       x2="715.82001"
       y2="943.95001" />
    <linearGradient
       inkscape:collect="always"
       xlink:href="#d"
       id="linearGradient362"
       gradientUnits="userSpaceOnUse"
       gradientTransform="matrix(0.1252573,0,0,0.13506517,319.00012,126.15767)"
       x1="132.28999"
       y1="43"
       x2="132.28999"
       y2="281.12" />
    <linearGradient
       inkscape:collect="always"
       xlink:href="#a"
       id="linearGradient364"
       gradientUnits="userSpaceOnUse"
       gradientTransform="matrix(0.03314058,0,0,0.03573554,319.13865,129.68017)"
       x1="715.82001"
       y1="83.949997"
       x2="715.82001"
       y2="943.95001" />
    <linearGradient
       inkscape:collect="always"
       xlink:href="#d"
       id="linearGradient382"
       gradientUnits="userSpaceOnUse"
       gradientTransform="matrix(0.0960306,0,0,0.10354996,318.96676,183.25421)"
       x1="132.28999"
       y1="43"
       x2="132.28999"
       y2="281.12" />
    <linearGradient
       inkscape:collect="always"
       xlink:href="#a"
       id="linearGradient384"
       gradientUnits="userSpaceOnUse"
       gradientTransform="matrix(0.02540778,0,0,0.02739725,319.07297,185.9548)"
       x1="715.82001"
       y1="83.949997"
       x2="715.82001"
       y2="943.95001" />
    <linearGradient
       inkscape:collect="always"
       xlink:href="#d"
       id="linearGradient402"
       gradientUnits="userSpaceOnUse"
       gradientTransform="matrix(0.06262865,0,0,0.06753258,319.50006,233.07884)"
       x1="132.28999"
       y1="43"
       x2="132.28999"
       y2="281.12" />
    <linearGradient
       inkscape:collect="always"
       xlink:href="#a"
       id="linearGradient404"
       gradientUnits="userSpaceOnUse"
       gradientTransform="matrix(0.01657029,0,0,0.01786777,319.56933,234.84009)"
       x1="715.82001"
       y1="83.949997"
       x2="715.82001"
       y2="943.95001" />
    <linearGradient
       inkscape:collect="always"
       xlink:href="#d"
       id="linearGradient420"
       gradientUnits="userSpaceOnUse"
       gradientTransform="matrix(0.93525452,0,0,1.0084866,25.067534,-7.0894092)"
       x1="132.28999"
       y1="43"
       x2="132.28999"
       y2="281.12" />
  </defs>
  <metadata
     id="metadata4">
    <rdf:RDF>
      <cc:Work
         rdf:about="">
        <dc:format>image/svg+xml</dc:format>
        <dc:type
           rdf:resource="http://purl.org/dc/dcmitype/StillImage" />
        <dc:creator>
          <cc:Agent>
            <dc:title>Sam Hewitt</dc:title>
          </cc:Agent>
        </dc:creator>
        <dc:source />
        <cc:license
           rdf:resource="http://creativecommons.org/licenses/by-sa/4.0/" />
        <dc:title>Suru Icon Theme Template</dc:title>
        <dc:subject>
          <rdf:Bag />
        </dc:subject>
        <dc:date />
        <dc:rights>
          <cc:Agent>
            <dc:title />
          </cc:Agent>
        </dc:rights>
        <dc:publisher>
          <cc:Agent>
            <dc:title />
          </cc:Agent>
        </dc:publisher>
        <dc:identifier />
        <dc:relation />
        <dc:language />
        <dc:coverage />
        <dc:description />
        <dc:contributor>
          <cc:Agent>
            <dc:title />
          </cc:Agent>
        </dc:contributor>
      </cc:Work>
      <cc:Work
         rdf:about="">
        <dc:format>image/svg+xml</dc:format>
        <dc:type
           rdf:resource="http://purl.org/dc/dcmitype/StillImage" />
      </cc:Work>
      <cc:License
         rdf:about="http://creativecommons.org/licenses/by-sa/4.0/">
        <cc:permits
           rdf:resource="http://creativecommons.org/ns#Reproduction" />
        <cc:permits
           rdf:resource="http://creativecommons.org/ns#Distribution" />
        <cc:requires
           rdf:resource="http://creativecommons.org/ns#Notice" />
        <cc:requires
           rdf:resource="http://creativecommons.org/ns#Attribution" />
        <cc:permits
           rdf:resource="http://creativecommons.org/ns#DerivativeWorks" />
        <cc:requires
           rdf:resource="http://creativecommons.org/ns#ShareAlike" />
      </cc:License>
    </rdf:RDF>
  </metadata>
  <g
     style="display:inline"
     inkscape:groupmode="layer"
     inkscape:label="Icon"
     id="layer1">
    <g
       style="display:none"
       inkscape:label="Baseplate"
       id="layer7"
       inkscape:groupmode="layer">
      <text
         y="-8.2548828"
         xml:space="preserve"
         x="19.006836"
         style="font-style:normal;font-variant:normal;font-weight:normal;font-stretch:normal;line-height:0%;font-family:'DejaVu Sans';-inkscape-font-specification:'DejaVu Sans';display:inline;fill:#000000;fill-opacity:1;stroke:none;enable-background:new"
         inkscape:label="context"
         id="context"><tspan
           style="font-style:normal;font-variant:normal;font-weight:normal;font-stretch:normal;font-size:18px;line-height:1.25;font-family:'DejaVu Sans';-inkscape-font-specification:'DejaVu Sans'"
           y="-8.2548828"
           x="19.006836"
           sodipodi:role="line"
           id="tspan3933">apps</tspan></text>
      <text
         y="-8.2548828"
         xml:space="preserve"
         x="146.48828"
         style="font-style:normal;font-variant:normal;font-weight:bold;font-stretch:normal;line-height:0%;font-family:'DejaVu Sans';-inkscape-font-specification:'DejaVu Sans Bold';text-align:start;writing-mode:lr-tb;text-anchor:start;display:inline;fill:#000000;fill-opacity:1;stroke:none;enable-background:new"
         inkscape:label="icon-name"
         id="icon-name"><tspan
           style="font-style:normal;font-variant:normal;font-weight:bold;font-stretch:normal;font-size:18px;line-height:1.25;font-family:'DejaVu Sans';-inkscape-font-specification:'DejaVu Sans Bold'"
           y="-8.2548828"
           x="146.48828"
           sodipodi:role="line"
           id="tspan924">filemanager-app</tspan></text>
      <rect
         style="display:inline;overflow:visible;visibility:visible;fill:#cdcdcd;fill-opacity:1;fill-rule:nonzero;stroke:none;stroke-width:2;marker:none;enable-background:accumulate"
         id="rect16x16"
         width="16"
         height="16"
         x="320"
         y="236"
         inkscape:label="16x16" />
      <rect
         style="display:inline;overflow:visible;visibility:visible;fill:#cdcdcd;fill-opacity:1;fill-rule:nonzero;stroke:none;stroke-width:2;marker:none;enable-background:accumulate"
         id="rect24x24"
         width="24"
         height="24"
         x="320"
         y="188"
         inkscape:label="24x24" />
      <rect
         style="display:inline;overflow:visible;visibility:visible;fill:#cdcdcd;fill-opacity:1;fill-rule:nonzero;stroke:none;stroke-width:2;marker:none;enable-background:accumulate"
         id="rect32x32"
         width="32"
         height="32"
         x="320"
         y="132"
         inkscape:label="32x32" />
      <rect
         inkscape:label="48x48"
         y="60"
         x="320"
         height="48"
         width="48"
         id="rect48x48"
         style="display:inline;overflow:visible;visibility:visible;fill:#cdcdcd;fill-opacity:1;fill-rule:nonzero;stroke:none;stroke-width:2;marker:none;enable-background:accumulate" />
      <rect
         style="display:inline;overflow:visible;visibility:visible;fill:#cdcdcd;fill-opacity:1;fill-rule:nonzero;stroke:none;stroke-width:2;marker:none;enable-background:accumulate"
         id="rect256x256"
         width="256"
         height="256"
         x="24"
         y="28"
         inkscape:label="256x256" />
    </g>
    <g
       inkscape:groupmode="layer"
       id="layer2"
       inkscape:label="Background"
       style="display:inline">
      <rect
         x="40.409447"
         y="44.680241"
         width="222.7028"
         height="222.27045"
         rx="10.661901"
         fill="url(#d)"
         style="fill:url(#linearGradient420);fill-rule:evenodd;stroke-width:0.971181;paint-order:stroke markers fill"
         id="rect1375" />
      <path
         class="st1"
         d="m 205.95303,36.177895 -102.9665,0.0412 C 102.24,40.17044 90.440038,102.57772 89.284108,120.22704 c -0.12038,1.82 -1.92652,15.87722 9.87346,16.35615 l 24.442782,1.07765 c 0,0 7.82649,-0.83816 6.30937,9.53112 -0.21673,1.17344 -8.33221,81.58925 -5.68325,89.01299 0.0965,0.26343 0.24083,0.52685 0.40939,0.76633 l 79.49325,0.28737 c 6.47795,0.0239 12.05093,-4.19517 12.05093,-11.10455 L 216.5552,48.288655 c 0,-6.599987 -4.12422,-12.086799 -10.60217,-12.110747 z"
         fill="url(#e)"
         fill-rule="evenodd"
         id="path1588-7"
         style="fill:#666666;stroke-width:0.240144;filter:url(#filter1722-3)"
         sodipodi:nodetypes="cccccccccccc"
         transform="matrix(0.93798668,0,0,1.0114327,49.618268,17.718615)"
         inkscape:label="path1588" />
      <path
         class="st1"
         d="M 251.97395,44.400238 147.30275,44 c -0.76708,4.402618 -12.89211,73.93731 -14.07988,93.60235 -0.12372,2.02786 -1.9796,17.69052 10.14544,18.22417 l 25.11614,1.20071 c 0,0 8.04211,-0.93389 6.48318,10.61965 -0.2227,1.30745 -8.56176,90.90741 -5.83981,99.179 0.099,0.29351 0.24745,0.58702 0.42066,0.85384 l 81.68312,0.32019 c 6.65641,0.0267 12.07555,-5.76343 12.1003,-12.94103 l 0.66811,-197.610881 c 0,-7.204285 -5.36966,-13.021079 -12.02606,-13.047761 z"
         fill="url(#e)"
         fill-rule="evenodd"
         id="path1393"
         style="fill:url(#e);stroke-width:0.256955" />
      <rect
         x="40.952831"
         y="45.22382"
         width="221.61792"
         height="221.18129"
         rx="10.609528"
         fill="none"
         opacity="0.2"
         stroke="#ffffff"
         stroke-linecap="round"
         stroke-linejoin="round"
         stroke-width="1.97888"
         style="paint-order:markers fill stroke"
         id="rect1403" />
      <rect
         x="321.08408"
         y="61.139694"
         width="45.733608"
         height="45.644817"
         rx="2.1894975"
         fill="url(#d)"
         style="fill:url(#linearGradient342);fill-rule:evenodd;stroke-width:0.199439;paint-order:stroke markers fill"
         id="rect326" />
      <path
         class="st1"
         d="m 205.95303,36.177895 -102.9665,0.0412 C 102.24,40.17044 90.440038,102.57772 89.284108,120.22704 c -0.12038,1.82 -1.92652,15.87722 9.87346,16.35615 l 24.442782,1.07765 c 0,0 7.82649,-0.83816 6.30937,9.53112 -0.21673,1.17344 -8.33221,81.58925 -5.68325,89.01299 0.0965,0.26343 0.24083,0.52685 0.40939,0.76633 l 79.49325,0.28737 c 6.47795,0.0239 12.05093,-4.19517 12.05093,-11.10455 L 216.5552,48.288655 c 0,-6.599987 -4.12422,-12.086799 -10.60217,-12.110747 z"
         fill="url(#e)"
         fill-rule="evenodd"
         id="path328"
         style="fill:#666666;stroke-width:0.240144;filter:url(#filter1722-3)"
         sodipodi:nodetypes="cccccccccccc"
         transform="matrix(0.19262225,0,0,0.20770491,322.97518,55.602932)"
         inkscape:label="path1588" />
      <path
         class="st1"
         d="m 364.53036,61.082194 -21.49498,-0.08219 c -0.15752,0.904109 -2.64748,15.183554 -2.8914,19.221909 -0.0254,0.416437 -0.40652,3.632874 2.08344,3.742463 l 5.15778,0.246576 c 0,0 1.6515,-0.191781 1.33136,2.18082 -0.0457,0.268494 -1.75822,18.668478 -1.19924,20.367108 0.0203,0.0603 0.0508,0.12055 0.0864,0.17535 l 16.77421,0.0657 c 1.36694,0.005 2.4798,-1.18356 2.48489,-2.65753 L 367,63.761644 c 0,-1.479451 -1.1027,-2.673971 -2.46964,-2.67945 z"
         fill="url(#e)"
         fill-rule="evenodd"
         id="path330"
         style="fill:url(#linearGradient344);stroke-width:0.0527675" />
      <rect
         x="321.19568"
         y="61.25132"
         width="45.510818"
         height="45.421154"
         rx="2.1787419"
         fill="none"
         opacity="0.2"
         stroke="#ffffff"
         stroke-linecap="round"
         stroke-linejoin="round"
         stroke-width="0.406377"
         style="paint-order:markers fill stroke"
         id="rect338" />
      <rect
         x="321.05484"
         y="133.09109"
         width="29.826267"
         height="29.768362"
         rx="1.4279332"
         fill="url(#d)"
         style="fill:url(#linearGradient362);fill-rule:evenodd;stroke-width:0.130069;paint-order:stroke markers fill"
         id="rect346" />
      <path
         class="st1"
         d="m 205.95303,36.177895 -102.9665,0.0412 C 102.24,40.17044 90.440038,102.57772 89.284108,120.22704 c -0.12038,1.82 -1.92652,15.87722 9.87346,16.35615 l 24.442782,1.07765 c 0,0 7.82649,-0.83816 6.30937,9.53112 -0.21673,1.17344 -8.33221,81.58925 -5.68325,89.01299 0.0965,0.26343 0.24083,0.52685 0.40939,0.76633 l 79.49325,0.28737 c 6.47795,0.0239 12.05093,-4.19517 12.05093,-11.10455 L 216.5552,48.288655 c 0,-6.599987 -4.12422,-12.086799 -10.60217,-12.110747 z"
         fill="url(#e)"
         fill-rule="evenodd"
         id="path348"
         style="fill:#666666;stroke-width:0.240144;filter:url(#filter1722-3)"
         sodipodi:nodetypes="cccccccccccc"
         transform="matrix(0.12562321,0,0,0.13545974,322.28816,129.48017)"
         inkscape:label="path1588" />
      <path
         class="st1"
         d="M 349.38937,133.0536 335.37091,133 c -0.10274,0.58963 -1.72662,9.90232 -1.8857,12.53603 -0.0166,0.27159 -0.26512,2.36926 1.35876,2.44073 l 3.36377,0.16081 c 0,0 1.07707,-0.12507 0.86829,1.42228 -0.0298,0.1751 -1.14667,12.1751 -0.78212,13.2829 0.0133,0.0393 0.0331,0.0786 0.0563,0.11435 L 349.28991,163 c 0.89148,0.004 1.61726,-0.77189 1.62058,-1.73318 L 351,134.80107 c 0,-0.96486 -0.71915,-1.7439 -1.61063,-1.74747 z"
         fill="url(#e)"
         fill-rule="evenodd"
         id="path350"
         style="fill:url(#linearGradient364);stroke-width:0.0344136" />
      <rect
         x="321.12762"
         y="133.16389"
         width="29.680971"
         height="29.622494"
         rx="1.4209188"
         fill="none"
         opacity="0.2"
         stroke="#ffffff"
         stroke-linecap="round"
         stroke-linejoin="round"
         stroke-width="0.265028"
         style="paint-order:markers fill stroke"
         id="rect358" />
      <rect
         x="320.54205"
         y="188.56984"
         width="22.866806"
         height="22.822411"
         rx="1.0947489"
         fill="url(#d)"
         style="fill:url(#linearGradient382);fill-rule:evenodd;stroke-width:0.0997194;paint-order:stroke markers fill"
         id="rect366" />
      <path
         class="st1"
         d="m 205.95303,36.177895 -102.9665,0.0412 C 102.24,40.17044 90.440038,102.57772 89.284108,120.22704 c -0.12038,1.82 -1.92652,15.87722 9.87346,16.35615 l 24.442782,1.07765 c 0,0 7.82649,-0.83816 6.30937,9.53112 -0.21673,1.17344 -8.33221,81.58925 -5.68325,89.01299 0.0965,0.26343 0.24083,0.52685 0.40939,0.76633 l 79.49325,0.28737 c 6.47795,0.0239 12.05093,-4.19517 12.05093,-11.10455 L 216.5552,48.288655 c 0,-6.599987 -4.12422,-12.086799 -10.60217,-12.110747 z"
         fill="url(#e)"
         fill-rule="evenodd"
         id="path368"
         style="fill:#666666;stroke-width:0.240144;filter:url(#filter1722-3)"
         sodipodi:nodetypes="cccccccccccc"
         transform="matrix(0.09631113,0,0,0.10385246,321.48759,185.80147)"
         inkscape:label="path1588" />
      <path
         class="st1"
         d="M 342.26519,188.5411 331.5177,188.5 c -0.0788,0.45206 -1.32375,7.59178 -1.4457,9.61096 -0.0127,0.20821 -0.20327,1.81643 1.04171,1.87123 l 2.57889,0.12328 c 0,0 0.82576,-0.0959 0.66569,1.09042 -0.0229,0.13424 -0.87911,9.33424 -0.59963,10.18355 0.0102,0.0301 0.0254,0.0603 0.0432,0.0877 l 8.3871,0.0329 c 0.68347,0.003 1.2399,-0.59178 1.24245,-1.32877 l 0.0686,-20.2904 c 0,-0.73972 -0.55135,-1.33698 -1.23482,-1.33972 z"
         fill="url(#e)"
         fill-rule="evenodd"
         id="path370"
         style="fill:url(#linearGradient384);stroke-width:0.0263838" />
      <rect
         x="320.59784"
         y="188.62566"
         width="22.755411"
         height="22.710579"
         rx="1.0893711"
         fill="none"
         opacity="0.2"
         stroke="#ffffff"
         stroke-linecap="round"
         stroke-linejoin="round"
         stroke-width="0.203188"
         style="paint-order:markers fill stroke"
         id="rect378" />
      <rect
         x="320.52744"
         y="236.54556"
         width="14.913134"
         height="14.88418"
         rx="0.71396661"
         fill="url(#d)"
         style="fill:url(#linearGradient402);fill-rule:evenodd;stroke-width:0.0650344;paint-order:stroke markers fill"
         id="rect386" />
      <path
         class="st1"
         d="m 205.95303,36.177895 -102.9665,0.0412 C 102.24,40.17044 90.440038,102.57772 89.284108,120.22704 c -0.12038,1.82 -1.92652,15.87722 9.87346,16.35615 l 24.442782,1.07765 c 0,0 7.82649,-0.83816 6.30937,9.53112 -0.21673,1.17344 -8.33221,81.58925 -5.68325,89.01299 0.0965,0.26343 0.24083,0.52685 0.40939,0.76633 l 79.49325,0.28737 c 6.47795,0.0239 12.05093,-4.19517 12.05093,-11.10455 L 216.5552,48.288655 c 0,-6.599987 -4.12422,-12.086799 -10.60217,-12.110747 z"
         fill="url(#e)"
         fill-rule="evenodd"
         id="path388"
         style="fill:#666666;stroke-width:0.240144;filter:url(#filter1722-3)"
         sodipodi:nodetypes="cccccccccccc"
         transform="matrix(0.06281161,0,0,0.06772986,321.14408,234.74009)"
         inkscape:label="path1588" />
      <path
         class="st1"
         d="M 334.69469,236.52681 327.68545,236.5 c -0.0514,0.29482 -0.86331,4.95116 -0.94285,6.26802 -0.008,0.13579 -0.13256,1.18463 0.67939,1.22037 l 1.68188,0.0804 c 0,0 0.53854,-0.0625 0.43414,0.71114 -0.0149,0.0875 -0.57333,6.08755 -0.39106,6.64145 0.007,0.0197 0.0166,0.0393 0.0282,0.0572 l 5.46986,0.0214 c 0.44574,0.002 0.80863,-0.38595 0.81028,-0.86659 L 335.5,237.40054 c 0,-0.48243 -0.35957,-0.87195 -0.80531,-0.87373 z"
         fill="url(#e)"
         fill-rule="evenodd"
         id="path390"
         style="fill:url(#linearGradient404);stroke-width:0.0172068" />
      <rect
         x="320.56381"
         y="236.58195"
         width="14.840486"
         height="14.811246"
         rx="0.71045941"
         fill="none"
         opacity="0.2"
         stroke="#ffffff"
         stroke-linecap="round"
         stroke-linejoin="round"
         stroke-width="0.132514"
         style="paint-order:markers fill stroke"
         id="rect398" />
    </g>
    <g
       inkscape:groupmode="layer"
       id="layer6"
       inkscape:label="Pictogram"
       style="display:inline">
      <path
         d="m 201.3443,121.13966 c -2.66051,0 -4.85359,-2.3648 -4.85359,-5.23364 v -15.89476 c 0,-2.868839 2.19308,-5.233639 4.85359,-5.233639 2.66052,0 4.8536,2.3648 4.8536,5.233639 v 15.89476 c 0,2.90757 -2.19308,5.23364 -4.8536,5.23364 z"
         stroke-width="0.373341"
         id="path1397"
         style="display:inline;enable-background:new" />
      <path
         d="m 101.68078,121.13966 c -2.660522,0 -4.8536,-2.3648 -4.8536,-5.23364 v -15.89476 c 0,-2.868839 2.193078,-5.233639 4.8536,-5.233639 2.66052,0 4.85359,2.3648 4.85359,5.233639 v 15.89476 c 0,2.90757 -2.15716,5.23364 -4.85359,5.23364 z"
         stroke-width="0.373341"
         id="path1399"
         style="display:inline;enable-background:new" />
      <path
         d="m 83.85202,186.16688 c 0,0 19.86948,28.83969 68.16041,28.86087 45.35891,0.0207 67.65912,-29.33083 67.65912,-29.33083"
         color="#000000"
         fill="none"
         stroke="#000000"
         stroke-linecap="round"
         stroke-width="10.951"
         id="path1401"
         style="display:inline;enable-background:new" />
      <path
         d="m 354.1332,76.841181 c -0.54636,0 -0.99672,-0.485628 -0.99672,-1.074765 v -3.264102 c 0,-0.589137 0.45036,-1.074766 0.99672,-1.074766 0.54636,0 0.99672,0.485629 0.99672,1.074766 v 3.264102 c 0,0.597089 -0.45036,1.074765 -0.99672,1.074765 z"
         stroke-width="0.0766683"
         id="path332"
         style="display:inline;enable-background:new" />
      <path
         d="m 333.66659,76.841181 c -0.54636,0 -0.99673,-0.485628 -0.99673,-1.074765 v -3.264102 c 0,-0.589137 0.45037,-1.074766 0.99673,-1.074766 0.54635,0 0.99672,0.485629 0.99672,1.074766 v 3.264102 c 0,0.597089 -0.44299,1.074765 -0.99672,1.074765 z"
         stroke-width="0.0766683"
         id="path334"
         style="display:inline;enable-background:new" />
      <path
         d="m 330.00532,90.194983 c 0,0 4.08034,5.922437 13.99723,5.926786 9.31478,0.0042 13.89428,-6.023294 13.89428,-6.023294"
         color="#000000"
         fill="none"
         stroke="#000000"
         stroke-linecap="round"
         stroke-width="2.24887"
         id="path336"
         style="display:inline;enable-background:new" />
      <path
         d="m 342.60862,143.3312 c -0.35632,0 -0.65004,-0.31671 -0.65004,-0.70093 v -2.12876 c 0,-0.38422 0.29372,-0.70094 0.65004,-0.70094 0.35632,0 0.65003,0.31672 0.65003,0.70094 v 2.12876 c 0,0.3894 -0.29371,0.70093 -0.65003,0.70093 z"
         stroke-width="0.0500011"
         id="path352"
         style="display:inline;enable-background:new" />
      <path
         d="m 329.26082,143.3312 c -0.35632,0 -0.65003,-0.31671 -0.65003,-0.70093 v -2.12876 c 0,-0.38422 0.29371,-0.70094 0.65003,-0.70094 0.35632,0 0.65004,0.31672 0.65004,0.70094 v 2.12876 c 0,0.3894 -0.28891,0.70093 -0.65004,0.70093 z"
         stroke-width="0.0500011"
         id="path354"
         style="display:inline;enable-background:new" />
      <path
         d="m 326.87304,152.0402 c 0,0 2.66109,3.86246 9.12863,3.8653 6.07485,0.003 9.06149,-3.92824 9.06149,-3.92824"
         color="#000000"
         fill="none"
         stroke="#000000"
         stroke-linecap="round"
         stroke-width="1.46666"
         id="path356"
         style="display:inline;enable-background:new" />
      <path
         d="m 337.06661,196.42059 c -0.27318,0 -0.49836,-0.24281 -0.49836,-0.53738 v -1.63205 c 0,-0.29457 0.22518,-0.53739 0.49836,-0.53739 0.27318,0 0.49836,0.24282 0.49836,0.53739 v 1.63205 c 0,0.29854 -0.22518,0.53738 -0.49836,0.53738 z"
         stroke-width="0.0383341"
         id="path372"
         style="display:inline;enable-background:new" />
      <path
         d="m 326.8333,196.42059 c -0.27318,0 -0.49836,-0.24281 -0.49836,-0.53738 v -1.63205 c 0,-0.29457 0.22518,-0.53739 0.49836,-0.53739 0.27318,0 0.49836,0.24282 0.49836,0.53739 v 1.63205 c 0,0.29854 -0.2215,0.53738 -0.49836,0.53738 z"
         stroke-width="0.0383341"
         id="path374"
         style="display:inline;enable-background:new" />
      <path
         d="m 325.00267,203.09749 c 0,0 2.04017,2.96122 6.99861,2.96339 4.65739,0.002 6.94714,-3.01164 6.94714,-3.01164"
         color="#000000"
         fill="none"
         stroke="#000000"
         stroke-linecap="round"
         stroke-width="1.12444"
         id="path376"
         style="display:inline;enable-background:new" />
      <path
         d="m 331.30431,241.66561 c -0.17816,0 -0.32502,-0.15836 -0.32502,-0.35047 v -1.06438 c 0,-0.19211 0.14686,-0.35047 0.32502,-0.35047 0.17816,0 0.32502,0.15836 0.32502,0.35047 v 1.06438 c 0,0.1947 -0.14686,0.35047 -0.32502,0.35047 z"
         stroke-width="0.0250005"
         id="path392"
         style="display:inline;enable-background:new" />
      <path
         d="m 324.63041,241.66561 c -0.17816,0 -0.32502,-0.15836 -0.32502,-0.35047 v -1.06438 c 0,-0.19211 0.14686,-0.35047 0.32502,-0.35047 0.17816,0 0.32502,0.15836 0.32502,0.35047 v 1.06438 c 0,0.1947 -0.14445,0.35047 -0.32502,0.35047 z"
         stroke-width="0.0250005"
         id="path394"
         style="display:inline;enable-background:new" />
      <path
         d="m 323.43652,246.02011 c 0,0 1.33055,1.93123 4.56431,1.93264 3.03743,0.001 4.53075,-1.96411 4.53075,-1.96411"
         color="#000000"
         fill="none"
         stroke="#000000"
         stroke-linecap="round"
         stroke-width="0.733328"
         id="path396"
         style="display:inline;enable-background:new" />
    </g>
  </g>
</svg>
