<?xml version="1.0" encoding="UTF-8" standalone="no"?>
<svg
   inkscape:export-ydpi="90.000000"
   inkscape:export-xdpi="90.000000"
   width="400"
   height="300"
   id="svg11300"
   sodipodi:version="0.32"
   inkscape:version="1.2.2 (b0a8486541, 2022-12-01)"
   sodipodi:docname="gnome-mahjongg.svg"
   inkscape:output_extension="org.inkscape.output.svg.inkscape"
   version="1.0"
   style="display:inline;enable-background:new"
   inkscape:export-filename="/home/sam/suru-template.png"
   xmlns:inkscape="http://www.inkscape.org/namespaces/inkscape"
   xmlns:sodipodi="http://sodipodi.sourceforge.net/DTD/sodipodi-0.dtd"
   xmlns:xlink="http://www.w3.org/1999/xlink"
   xmlns="http://www.w3.org/2000/svg"
   xmlns:svg="http://www.w3.org/2000/svg"
   xmlns:rdf="http://www.w3.org/1999/02/22-rdf-syntax-ns#"
   xmlns:cc="http://creativecommons.org/ns#"
   xmlns:dc="http://purl.org/dc/elements/1.1/">
  <title
     id="title3004">Suru Icon Theme Template</title>
  <sodipodi:namedview
     stroke="#ef2929"
     fill="#f57900"
     id="base"
     pagecolor="#ffffff"
     bordercolor="#000000"
     borderopacity="0.25490196"
     inkscape:pageopacity="0"
     inkscape:pageshadow="2"
     inkscape:zoom="2"
     inkscape:cx="382.5"
     inkscape:cy="126.5"
     inkscape:current-layer="layer6"
     showgrid="false"
     inkscape:grid-bbox="true"
     inkscape:document-units="px"
     inkscape:showpageshadow="false"
     inkscape:window-width="1920"
     inkscape:window-height="1020"
     inkscape:window-x="0"
     inkscape:window-y="32"
     width="400px"
     height="300px"
     inkscape:snap-nodes="true"
     inkscape:snap-bbox="true"
     gridtolerance="10000"
     inkscape:object-nodes="true"
     inkscape:snap-grids="true"
     showguides="true"
     inkscape:guide-bbox="true"
     inkscape:window-maximized="1"
     inkscape:bbox-paths="true"
     inkscape:snap-bbox-midpoints="true"
     inkscape:snap-global="true"
     inkscape:object-paths="true"
     inkscape:snap-intersection-paths="true"
     inkscape:snap-smooth-nodes="true"
     inkscape:pagecheckerboard="false"
     showborder="false"
     inkscape:document-rotation="0"
     inkscape:deskcolor="#d1d1d1">
    <inkscape:grid
       spacingy="1"
       spacingx="1"
       id="grid5883"
       type="xygrid"
       enabled="true"
       visible="true"
       empspacing="4"
       snapvisiblegridlinesonly="true"
       originx="0"
       originy="0" />
    <inkscape:grid
       type="xygrid"
       id="grid11592"
       empspacing="2"
       visible="true"
       enabled="false"
       spacingx="0.5"
       spacingy="0.5"
       color="#ff0000"
       opacity="0.1254902"
       empcolor="#ff0000"
       empopacity="0.25098039"
       snapvisiblegridlinesonly="true"
       originx="0"
       originy="0" />
  </sodipodi:namedview>
  <defs
     id="defs3">
    <linearGradient
       id="a"
       x2="1"
       gradientTransform="matrix(0,-43.336,43.336,0,34.798,45.668)"
       gradientUnits="userSpaceOnUse">
      <stop
         stop-color="#efc320"
         offset="0"
         id="stop22" />
      <stop
         stop-color="#ffe658"
         offset="1"
         id="stop24" />
    </linearGradient>
    <linearGradient
       id="b"
       x2="1"
       gradientTransform="matrix(0,-43.336,43.336,0,13.2845,45.668)"
       gradientUnits="userSpaceOnUse">
      <stop
         stop-color="#dcc65b"
         offset="0"
         id="stop27" />
      <stop
         stop-color="#fff689"
         offset="1"
         id="stop29" />
    </linearGradient>
    <linearGradient
       inkscape:collect="always"
       xlink:href="#a"
       id="linearGradient318"
       gradientUnits="userSpaceOnUse"
       gradientTransform="matrix(0,-45.999998,45.999998,0,355.46179,107)"
       x2="1" />
    <linearGradient
       inkscape:collect="always"
       xlink:href="#b"
       id="linearGradient320"
       gradientUnits="userSpaceOnUse"
       gradientTransform="matrix(0,-45.999998,45.999998,0,332.62579,107)"
       x2="1" />
    <linearGradient
       inkscape:collect="always"
       xlink:href="#a"
       id="linearGradient334"
       gradientUnits="userSpaceOnUse"
       gradientTransform="matrix(0,-30,30,0,343.47508,163)"
       x2="1" />
    <linearGradient
       inkscape:collect="always"
       xlink:href="#b"
       id="linearGradient336"
       gradientUnits="userSpaceOnUse"
       gradientTransform="matrix(0,-30,30,0,328.58204,163)"
       x2="1" />
    <linearGradient
       inkscape:collect="always"
       xlink:href="#a"
       id="linearGradient350"
       gradientUnits="userSpaceOnUse"
       gradientTransform="matrix(0,-23,23,0,337.73089,211.5)"
       x2="1" />
    <linearGradient
       inkscape:collect="always"
       xlink:href="#b"
       id="linearGradient352"
       gradientUnits="userSpaceOnUse"
       gradientTransform="matrix(0,-23,23,0,326.31289,211.5)"
       x2="1" />
    <linearGradient
       inkscape:collect="always"
       xlink:href="#a"
       id="linearGradient366"
       gradientUnits="userSpaceOnUse"
       gradientTransform="matrix(0,-15,15,0,331.73754,251.5)"
       x2="1" />
    <linearGradient
       inkscape:collect="always"
       xlink:href="#b"
       id="linearGradient368"
       gradientUnits="userSpaceOnUse"
       gradientTransform="matrix(0,-15,15,0,324.29102,251.5)"
       x2="1" />
    <linearGradient
       inkscape:collect="always"
       xlink:href="#a"
       id="linearGradient390"
       gradientUnits="userSpaceOnUse"
       gradientTransform="matrix(0,-224,224,0,207.81392,268)"
       x2="1" />
    <linearGradient
       inkscape:collect="always"
       xlink:href="#b"
       id="linearGradient392"
       gradientUnits="userSpaceOnUse"
       gradientTransform="matrix(0,-224,224,0,96.612516,268)"
       x2="1" />
  </defs>
  <metadata
     id="metadata4">
    <rdf:RDF>
      <cc:Work
         rdf:about="">
        <dc:format>image/svg+xml</dc:format>
        <dc:type
           rdf:resource="http://purl.org/dc/dcmitype/StillImage" />
        <dc:creator>
          <cc:Agent>
            <dc:title>Sam Hewitt</dc:title>
          </cc:Agent>
        </dc:creator>
        <dc:source />
        <cc:license
           rdf:resource="http://creativecommons.org/licenses/by-sa/4.0/" />
        <dc:title>Suru Icon Theme Template</dc:title>
        <dc:subject>
          <rdf:Bag />
        </dc:subject>
        <dc:date />
        <dc:rights>
          <cc:Agent>
            <dc:title />
          </cc:Agent>
        </dc:rights>
        <dc:publisher>
          <cc:Agent>
            <dc:title />
          </cc:Agent>
        </dc:publisher>
        <dc:identifier />
        <dc:relation />
        <dc:language />
        <dc:coverage />
        <dc:description />
        <dc:contributor>
          <cc:Agent>
            <dc:title />
          </cc:Agent>
        </dc:contributor>
      </cc:Work>
      <cc:Work
         rdf:about="">
        <dc:format>image/svg+xml</dc:format>
        <dc:type
           rdf:resource="http://purl.org/dc/dcmitype/StillImage" />
      </cc:Work>
      <cc:License
         rdf:about="http://creativecommons.org/licenses/by-sa/4.0/">
        <cc:permits
           rdf:resource="http://creativecommons.org/ns#Reproduction" />
        <cc:permits
           rdf:resource="http://creativecommons.org/ns#Distribution" />
        <cc:requires
           rdf:resource="http://creativecommons.org/ns#Notice" />
        <cc:requires
           rdf:resource="http://creativecommons.org/ns#Attribution" />
        <cc:permits
           rdf:resource="http://creativecommons.org/ns#DerivativeWorks" />
        <cc:requires
           rdf:resource="http://creativecommons.org/ns#ShareAlike" />
      </cc:License>
    </rdf:RDF>
  </metadata>
  <g
     style="display:inline"
     inkscape:groupmode="layer"
     inkscape:label="Icon"
     id="layer1">
    <g
       style="display:none"
       inkscape:label="Baseplate"
       id="layer7"
       inkscape:groupmode="layer">
      <text
         y="-8.2548828"
         xml:space="preserve"
         x="19.006836"
         style="font-style:normal;font-variant:normal;font-weight:normal;font-stretch:normal;line-height:0%;font-family:'DejaVu Sans';-inkscape-font-specification:'DejaVu Sans';display:inline;fill:#000000;fill-opacity:1;stroke:none;enable-background:new"
         inkscape:label="context"
         id="context"><tspan
           style="font-style:normal;font-variant:normal;font-weight:normal;font-stretch:normal;font-size:18px;line-height:1.25;font-family:'DejaVu Sans';-inkscape-font-specification:'DejaVu Sans'"
           y="-8.2548828"
           x="19.006836"
           sodipodi:role="line"
           id="tspan3933">apps</tspan></text>
      <text
         y="-8.2548828"
         xml:space="preserve"
         x="146.48828"
         style="font-style:normal;font-variant:normal;font-weight:bold;font-stretch:normal;line-height:0%;font-family:'DejaVu Sans';-inkscape-font-specification:'DejaVu Sans Bold';text-align:start;writing-mode:lr-tb;text-anchor:start;display:inline;fill:#000000;fill-opacity:1;stroke:none;enable-background:new"
         inkscape:label="icon-name"
         id="icon-name"><tspan
           style="font-style:normal;font-variant:normal;font-weight:bold;font-stretch:normal;font-size:18px;line-height:1.25;font-family:'DejaVu Sans';-inkscape-font-specification:'DejaVu Sans Bold'"
           y="-8.2548828"
           x="146.48828"
           sodipodi:role="line"
           id="tspan924">gnome-mahjongg</tspan></text>
      <rect
         style="display:inline;overflow:visible;visibility:visible;fill:#cdcdcd;fill-opacity:1;fill-rule:nonzero;stroke:none;stroke-width:2;marker:none;enable-background:accumulate"
         id="rect16x16"
         width="16"
         height="16"
         x="320"
         y="236"
         inkscape:label="16x16" />
      <rect
         style="display:inline;overflow:visible;visibility:visible;fill:#cdcdcd;fill-opacity:1;fill-rule:nonzero;stroke:none;stroke-width:2;marker:none;enable-background:accumulate"
         id="rect24x24"
         width="24"
         height="24"
         x="320"
         y="188"
         inkscape:label="24x24" />
      <rect
         style="display:inline;overflow:visible;visibility:visible;fill:#cdcdcd;fill-opacity:1;fill-rule:nonzero;stroke:none;stroke-width:2;marker:none;enable-background:accumulate"
         id="rect32x32"
         width="32"
         height="32"
         x="320"
         y="132"
         inkscape:label="32x32" />
      <rect
         inkscape:label="48x48"
         y="60"
         x="320"
         height="48"
         width="48"
         id="rect48x48"
         style="display:inline;overflow:visible;visibility:visible;fill:#cdcdcd;fill-opacity:1;fill-rule:nonzero;stroke:none;stroke-width:2;marker:none;enable-background:accumulate" />
      <rect
         style="display:inline;overflow:visible;visibility:visible;fill:#cdcdcd;fill-opacity:1;fill-rule:nonzero;stroke:none;stroke-width:2;marker:none;enable-background:accumulate"
         id="rect256x256"
         width="256"
         height="256"
         x="24"
         y="28"
         inkscape:label="256x256" />
    </g>
    <g
       inkscape:groupmode="layer"
       id="layer2"
       inkscape:label="Background"
       style="display:inline">
      <path
         d="m 167.50674,43.999999 h 64.30127 C 249.57873,43.999999 264,58.421266 264,76.191988 V 235.80801 C 264,253.57873 249.57873,268 231.80801,268 H 167.50674 C 158.94702,268 152,261.05298 152,252.49326 V 59.506738 c 0,-8.55972 6.94702,-15.506739 15.50674,-15.506739 z"
         fill="url(#a)"
         id="path32"
         style="fill:url(#linearGradient390);stroke-width:5.16891" />
      <path
         d="m 136.49326,43.999999 c 8.55972,0 15.50674,6.947019 15.50674,15.506739 V 252.49326 C 152,261.05298 145.05298,268 136.49326,268 H 72.191988 C 54.421266,268 39.999999,253.57873 39.999999,235.80801 V 76.191988 c 0,-17.770722 14.421267,-32.191989 32.191989,-32.191989 z"
         fill="url(#b)"
         id="path34"
         style="fill:url(#linearGradient392);stroke-width:5.16891" />
      <path
         d="m 347.18442,61.000001 h 13.20473 c 3.64934,0 6.61085,2.96151 6.61085,6.610855 V 100.38915 C 367,104.03849 364.03849,107 360.38915,107 H 347.18442 C 345.42662,107 344,105.57338 344,103.81558 V 64.184421 c 0,-1.7578 1.42662,-3.18442 3.18442,-3.18442 z"
         fill="url(#a)"
         id="path306"
         style="fill:url(#linearGradient318);stroke-width:1.06147" />
      <path
         d="m 340.81559,61.000001 c 1.75779,0 3.18441,1.42662 3.18441,3.18442 V 103.81558 C 344,105.57338 342.57338,107 340.81559,107 h -13.20473 c -3.64934,0 -6.61085,-2.96151 -6.61085,-6.61085 V 67.610856 c 0,-3.649345 2.96151,-6.610855 6.61085,-6.610855 z"
         fill="url(#b)"
         id="path308"
         style="fill:url(#linearGradient320);stroke-width:1.06147" />
      <path
         d="m 338.0768,133 h 8.61178 c 2.38,0 4.31142,1.93142 4.31142,4.31143 v 21.37715 c 0,2.38 -1.93142,4.31142 -4.31142,4.31142 H 338.0768 C 336.93041,163 336,162.0696 336,160.92321 V 135.0768 C 336,133.93041 336.93041,133 338.0768,133 Z"
         fill="url(#a)"
         id="path322"
         style="fill:url(#linearGradient334);stroke-width:0.692265" />
      <path
         d="M 333.92321,133 C 335.0696,133 336,133.93041 336,135.0768 v 25.84641 C 336,162.0696 335.0696,163 333.92321,163 h -8.61178 C 322.93142,163 321,161.06858 321,158.68858 V 137.31143 C 321,134.93142 322.93142,133 325.31143,133 Z"
         fill="url(#b)"
         id="path324"
         style="fill:url(#linearGradient336);stroke-width:0.692265" />
      <path
         d="m 333.59221,188.5 h 6.60236 c 1.82467,0 3.30543,1.48075 3.30543,3.30543 v 16.38914 c 0,1.82467 -1.48076,3.30543 -3.30543,3.30543 h -6.60236 C 332.71331,211.5 332,210.78669 332,209.90779 v -19.81558 c 0,-0.8789 0.71331,-1.59221 1.59221,-1.59221 z"
         fill="url(#a)"
         id="path338"
         style="fill:url(#linearGradient350);stroke-width:0.530737" />
      <path
         d="m 330.40779,188.5 c 0.8789,0 1.59221,0.71331 1.59221,1.59221 v 19.81558 c 0,0.8789 -0.71331,1.59221 -1.59221,1.59221 h -6.60236 c -1.82468,0 -3.30543,-1.48076 -3.30543,-3.30543 v -16.38914 c 0,-1.82468 1.48075,-3.30543 3.30543,-3.30543 z"
         fill="url(#b)"
         id="path340"
         style="fill:url(#linearGradient352);stroke-width:0.530737" />
      <path
         d="m 329.0384,236.5 h 4.30589 c 1.19,0 2.15571,0.96571 2.15571,2.15571 v 10.68858 c 0,1.19 -0.96571,2.15571 -2.15571,2.15571 H 329.0384 C 328.4652,251.5 328,251.0348 328,250.4616 v -12.9232 c 0,-0.5732 0.4652,-1.0384 1.0384,-1.0384 z"
         fill="url(#a)"
         id="path354"
         style="fill:url(#linearGradient366);stroke-width:0.346133" />
      <path
         d="m 326.9616,236.5 c 0.5732,0 1.0384,0.4652 1.0384,1.0384 v 12.9232 c 0,0.5732 -0.4652,1.0384 -1.0384,1.0384 h -4.30589 c -1.19,0 -2.15571,-0.96571 -2.15571,-2.15571 v -10.68858 c 0,-1.19 0.96571,-2.15571 2.15571,-2.15571 z"
         fill="url(#b)"
         id="path356"
         style="fill:url(#linearGradient368);stroke-width:0.346133" />
    </g>
    <g
       inkscape:groupmode="layer"
       id="layer6"
       inkscape:label="Pictogram"
       style="display:inline">
      <path
         d="m 95.367199,112.4152 -4.8776,4.3624 0.1064,11.5864 -33.796,-1.008 5.1632,6.9776 h 28.6776 l 0.0784,11.5248 h -15.7248 l -6.6864,-3.192 0.2856,32.8664 7.3192,-3.7744 v -4.3624 h 14.9688 l 0.0896,11.1776 -33.46,-0.2744 9.0328,9.1672 3.8752,-3.3488 h 20.5912 l 0.056,7.7112 c 0,2.772 2.5816,5.5272 2.5816,5.5272 l 7.162401,-5.2416 c 0,0 -3.432801,-2.156 -3.432801,-4.648 l -0.0896,-3.3488 H 134.0856 l -10.1192,-10.2592 -4.8664,4.9448 -21.963201,-0.1736 -0.2968,-11.2336 H 107.956 l 3.052,4.8048 5.3144,-5.3928 -2.156,-2.4752 v -16.436 l 4.7264,-2.9008 -11.3232,-6.1152 0.0672,6.9776 H 96.263199 l -0.2296,-11.5248 H 127.9144 l -10.1024,-10.248 -4.8832,4.9448 -17.057601,-0.504 z m -19.4544,37.0888 h 14.8288 l 0.0392,5.8184 h -14.868 z m 20.4456,0 H 107.6816 l 0.056,5.8184 H 96.515199 Z m -20.4456,9.4472 h 14.9016 l 0.0336,4.8048 h -14.9352 z m 20.6976,0 H 107.7656 l 0.056,4.8048 H 96.744799 Z"
         id="path36"
         style="fill:#c58c00;fill-rule:nonzero;stroke-width:5.6" />
      <path
         d="m 204.5672,114.308 c 0,10.92 -0.2184,21.1736 -1.7304,30.744 l -34.0368,-0.1512 3.7072,5.74 h 29.26 c -3.668,16.3744 -12.1184,30.5536 -31.6792,42.252 l 1.3048,7.9744 c 20.8432,-9.8952 34.1656,-25.3344 38.388,-50.2264 h 37.0496 l -13.0704,-13.0704 -5.7456,7.5992 -17.4552,-0.0728 c 0.4536,-4.0936 0.6776,-8.4168 0.6776,-12.9976 l 6.496,-1.4728 z m 17.052,9.4584 -3.7016,1.848 c 3.8696,3.5672 9.0888,6.4568 9.268,11.8664 l 7.4144,-5.5664 c -2.9792,-4.396 -8.0976,-6.132 -12.9808,-8.148 z m -10.0072,30.212 c 0,25.2896 28.3584,47.0736 28.3584,47.0736 L 247.2,189.5552 c 0,0 -31.5112,-15.1872 -31.5112,-34.6584 z"
         id="path38"
         style="fill:#c58c00;fill-rule:nonzero;stroke-width:5.6" />
      <path
         d="m 332.37006,75.049551 -1.00165,0.89585 0.0219,2.37935 -6.94025,-0.207 1.0603,1.4329 h 5.88915 l 0.0161,2.3667 h -3.2292 l -1.3731,-0.6555 0.0587,6.74935 1.50305,-0.7751 v -0.89585 h 3.07395 l 0.0184,2.2954 -6.87125,-0.05635 1.85495,1.88255 0.7958,-0.6877 h 4.22855 l 0.0115,1.58355 c 0,0.56925 0.53015,1.13505 0.53015,1.13505 l 1.47085,-1.0764 c 0,0 -0.70495,-0.44275 -0.70495,-0.9545 l -0.0184,-0.6877 h 7.55665 l -2.07805,-2.1068 -0.99935,1.01545 -4.5103,-0.03565 -0.0609,-2.3069 h 2.28275 l 0.62675,0.9867 1.09135,-1.10745 -0.44275,-0.5083 v -3.37525 l 0.9706,-0.5957 -2.3253,-1.2558 0.0138,1.4329 h -2.33565 l -0.0471,-2.3667 h 6.54695 l -2.0746,-2.1045 -1.0028,1.01545 -3.5029,-0.1035 z m -3.9951,7.61645 h 3.0452 l 0.008,1.19485 h -3.05325 z m 4.19865,0 h 2.3253 l 0.0115,1.19485 h -2.3046 z m -4.19865,1.94005 h 3.06015 l 0.007,0.9867 h -3.06705 z m 4.2504,0 h 2.2908 l 0.0115,0.9867 h -2.2747 z"
         id="path310"
         style="fill:#c58c00;fill-rule:nonzero;stroke-width:1.15" />
      <path
         d="m 354.79506,75.438251 c 0,2.2425 -0.0448,4.34815 -0.35535,6.3135 l -6.9897,-0.03105 0.7613,1.17875 h 6.00875 c -0.75325,3.3626 -2.4886,6.2744 -6.50555,8.67675 l 0.26795,1.6376 c 4.2803,-2.03205 7.01615,-5.2026 7.88325,-10.31435 h 7.6084 l -2.6841,-2.6841 -1.1799,1.56055 -3.58455,-0.01495 c 0.0932,-0.84065 0.13915,-1.72845 0.13915,-2.66915 l 1.334,-0.30245 z m 3.50175,1.94235 -0.76015,0.3795 c 0.79465,0.73255 1.86645,1.32595 1.90325,2.43685 l 1.5226,-1.1431 c -0.6118,-0.90275 -1.6629,-1.25925 -2.6657,-1.67325 z m -2.05505,6.20425 c 0,5.1934 5.8236,9.6669 5.8236,9.6669 l 1.48465,-2.36095 c 0,0 -6.47105,-3.1188 -6.47105,-7.11735 z"
         id="path312"
         style="fill:#c58c00;fill-rule:nonzero;stroke-width:1.15" />
      <path
         d="m 328.41525,142.16275 -0.65325,0.58425 0.0143,1.55175 -4.52625,-0.135 0.6915,0.9345 h 3.84075 l 0.0105,1.5435 h -2.106 l -0.8955,-0.4275 0.0383,4.40175 0.98025,-0.5055 v -0.58425 h 2.00475 l 0.012,1.497 -4.48125,-0.0367 1.20975,1.22775 0.519,-0.4485 h 2.75775 l 0.007,1.03275 c 0,0.37125 0.34575,0.74025 0.34575,0.74025 l 0.95925,-0.702 c 0,0 -0.45975,-0.28875 -0.45975,-0.6225 l -0.012,-0.4485 h 4.92825 l -1.35525,-1.374 -0.65175,0.66225 -2.9415,-0.0232 -0.0397,-1.5045 h 1.48875 l 0.40875,0.6435 0.71175,-0.72225 -0.28875,-0.3315 v -2.20125 l 0.633,-0.3885 -1.5165,-0.819 0.009,0.9345 h -1.52325 l -0.0308,-1.5435 h 4.26975 l -1.353,-1.3725 -0.654,0.66225 -2.2845,-0.0675 z m -2.6055,4.96725 h 1.986 l 0.005,0.77925 h -1.99125 z m 2.73825,0 h 1.5165 l 0.007,0.77925 h -1.503 z m -2.73825,1.26525 h 1.99575 l 0.005,0.6435 h -2.00025 z m 2.772,0 h 1.494 l 0.007,0.6435 h -1.4835 z"
         id="path326"
         style="fill:#c58c00;fill-rule:nonzero;stroke-width:0.75" />
      <path
         d="m 343.04025,142.41625 c 0,1.4625 -0.0292,2.83575 -0.23175,4.1175 l -4.5585,-0.0203 0.4965,0.76875 h 3.91875 c -0.49125,2.193 -1.623,4.092 -4.24275,5.65875 l 0.17475,1.068 c 2.7915,-1.32525 4.57575,-3.393 5.14125,-6.72675 h 4.962 l -1.7505,-1.7505 -0.7695,1.01775 -2.33775,-0.01 c 0.0607,-0.54825 0.0907,-1.12725 0.0907,-1.74075 l 0.87,-0.19725 z m 2.28375,1.26675 -0.49575,0.2475 c 0.51825,0.47775 1.21725,0.86475 1.24125,1.58925 l 0.993,-0.7455 c -0.399,-0.58875 -1.0845,-0.82125 -1.7385,-1.09125 z m -1.34025,4.04625 c 0,3.387 3.798,6.3045 3.798,6.3045 L 348.75,152.494 c 0,0 -4.22025,-2.034 -4.22025,-4.64175 z"
         id="path328"
         style="fill:#c58c00;fill-rule:nonzero;stroke-width:0.75" />
      <path
         d="m 326.18502,195.52477 -0.50082,0.44793 0.0109,1.18967 -3.47012,-0.1035 0.53015,0.71645 h 2.94457 l 0.008,1.18335 h -1.6146 l -0.68655,-0.32775 0.0293,3.37468 0.75152,-0.38755 v -0.44793 h 1.53698 l 0.009,1.1477 -3.43563,-0.0282 0.92748,0.94127 0.3979,-0.34385 h 2.11427 l 0.006,0.79178 c 0,0.28462 0.26508,0.56752 0.26508,0.56752 l 0.73542,-0.5382 c 0,0 -0.35247,-0.22137 -0.35247,-0.47725 l -0.009,-0.34385 h 3.77832 l -1.03902,-1.0534 -0.49968,0.50773 -2.25515,-0.0178 -0.0305,-1.15345 h 1.14137 l 0.31338,0.49335 0.54568,-0.55372 -0.22138,-0.25415 v -1.68763 l 0.4853,-0.29785 -1.16265,-0.6279 0.007,0.71645 h -1.16783 l -0.0236,-1.18335 h 3.27347 l -1.0373,-1.05225 -0.5014,0.50773 -1.75145,-0.0517 z m -1.99755,3.80823 h 1.5226 l 0.004,0.59742 h -1.52663 z m 2.09933,0 h 1.16265 l 0.006,0.59742 h -1.1523 z m -2.09933,0.97002 h 1.53008 l 0.003,0.49335 h -1.53353 z m 2.12521,0 h 1.14539 l 0.006,0.49335 h -1.13735 z"
         id="path342"
         style="fill:#c58c00;fill-rule:nonzero;stroke-width:0.575" />
      <path
         d="m 337.39752,195.71912 c 0,1.12125 -0.0224,2.17408 -0.17767,3.15675 l -3.49485,-0.0155 0.38065,0.58937 h 3.00437 c -0.37662,1.6813 -1.2443,3.1372 -3.25277,4.33838 l 0.13397,0.8188 c 2.14015,-1.01603 3.50808,-2.6013 3.94163,-5.15718 h 3.8042 l -1.34205,-1.34205 -0.58995,0.78028 -1.79228,-0.007 c 0.0466,-0.42032 0.0696,-0.86422 0.0696,-1.33457 l 0.667,-0.15123 z m 1.75088,0.97118 -0.38008,0.18975 c 0.39733,0.36627 0.93323,0.66297 0.95163,1.21842 l 0.7613,-0.57155 c -0.3059,-0.45137 -0.83145,-0.62962 -1.33285,-0.83662 z m -1.02753,3.10212 c 0,2.5967 2.9118,4.83345 2.9118,4.83345 l 0.74233,-1.18047 c 0,0 -3.23553,-1.5594 -3.23553,-3.55868 z"
         id="path344"
         style="fill:#c58c00;fill-rule:nonzero;stroke-width:0.575" />
      <path
         d="m 324.20762,241.08137 -0.32662,0.29213 0.007,0.77587 -2.26312,-0.0675 0.34575,0.46725 h 1.92037 l 0.005,0.77175 h -1.053 l -0.44775,-0.21375 0.0191,2.20088 0.49012,-0.25275 v -0.29213 h 1.00238 l 0.006,0.7485 -2.24063,-0.0184 0.60488,0.61387 0.2595,-0.22424 h 1.37888 l 0.004,0.51637 c 0,0.18562 0.17288,0.37012 0.17288,0.37012 l 0.47963,-0.351 c 0,0 -0.22988,-0.14437 -0.22988,-0.31125 l -0.006,-0.22424 h 2.46412 l -0.67762,-0.68701 -0.32588,0.33113 -1.47075,-0.0116 -0.0199,-0.75225 h 0.74438 l 0.20437,0.32175 0.35588,-0.36112 -0.14438,-0.16575 v -1.10062 l 0.3165,-0.19426 -0.75825,-0.4095 0.005,0.46725 h -0.76163 l -0.0154,-0.77175 h 2.13488 l -0.67651,-0.68625 -0.327,0.33113 -1.14225,-0.0337 z m -1.30275,2.48363 h 0.993 l 0.003,0.38962 h -0.99563 z m 1.36913,0 h 0.75825 l 0.004,0.38962 h -0.7515 z m -1.36913,0.63262 h 0.99788 l 0.002,0.32175 h -1.00013 z m 1.38601,0 h 0.74699 l 0.004,0.32175 h -0.74175 z"
         id="path358"
         style="fill:#c58c00;fill-rule:nonzero;stroke-width:0.375" />
      <path
         d="m 331.52012,241.20812 c 0,0.73125 -0.0146,1.41788 -0.11587,2.05875 l -2.27925,-0.0101 0.24825,0.38437 h 1.95937 c -0.24562,1.0965 -0.8115,2.046 -2.12137,2.82938 l 0.0874,0.534 c 1.39574,-0.66263 2.28787,-1.6965 2.57062,-3.36338 h 2.481 l -0.87525,-0.87525 -0.38475,0.50888 -1.16888,-0.005 c 0.0304,-0.27413 0.0454,-0.56363 0.0454,-0.87038 l 0.435,-0.0986 z m 1.14188,0.63338 -0.24787,0.12375 c 0.25912,0.23887 0.60862,0.43237 0.62062,0.79462 l 0.4965,-0.37275 c -0.1995,-0.29437 -0.54225,-0.41062 -0.86925,-0.54562 z m -0.67013,2.02312 c 0,1.6935 1.899,3.15225 1.899,3.15225 L 334.375,246.247 c 0,0 -2.11012,-1.017 -2.11012,-2.32087 z"
         id="path360"
         style="fill:#c58c00;fill-rule:nonzero;stroke-width:0.375" />
    </g>
  </g>
</svg>
