<?xml version="1.0" encoding="UTF-8" standalone="no"?>
<svg
   inkscape:export-ydpi="90.000000"
   inkscape:export-xdpi="90.000000"
   width="400"
   height="300"
   id="svg11300"
   sodipodi:version="0.32"
   inkscape:version="1.2.2 (b0a8486541, 2022-12-01)"
   sodipodi:docname="gnome-aisleriot.svg"
   inkscape:output_extension="org.inkscape.output.svg.inkscape"
   version="1.0"
   style="display:inline;enable-background:new"
   inkscape:export-filename="/home/sam/suru-template.png"
   xmlns:inkscape="http://www.inkscape.org/namespaces/inkscape"
   xmlns:sodipodi="http://sodipodi.sourceforge.net/DTD/sodipodi-0.dtd"
   xmlns:xlink="http://www.w3.org/1999/xlink"
   xmlns="http://www.w3.org/2000/svg"
   xmlns:svg="http://www.w3.org/2000/svg"
   xmlns:rdf="http://www.w3.org/1999/02/22-rdf-syntax-ns#"
   xmlns:cc="http://creativecommons.org/ns#"
   xmlns:dc="http://purl.org/dc/elements/1.1/">
  <title
     id="title3004">Suru Icon Theme Template</title>
  <sodipodi:namedview
     stroke="#ef2929"
     fill="#f57900"
     id="base"
     pagecolor="#ffffff"
     bordercolor="#000000"
     borderopacity="0.25490196"
     inkscape:pageopacity="0"
     inkscape:pageshadow="2"
     inkscape:zoom="2.8284271"
     inkscape:cx="359.5638"
     inkscape:cy="172.53405"
     inkscape:current-layer="layer6"
     showgrid="false"
     inkscape:grid-bbox="true"
     inkscape:document-units="px"
     inkscape:showpageshadow="false"
     inkscape:window-width="1920"
     inkscape:window-height="1020"
     inkscape:window-x="0"
     inkscape:window-y="32"
     width="400px"
     height="300px"
     inkscape:snap-nodes="true"
     inkscape:snap-bbox="true"
     gridtolerance="10000"
     inkscape:object-nodes="true"
     inkscape:snap-grids="true"
     showguides="true"
     inkscape:guide-bbox="true"
     inkscape:window-maximized="1"
     inkscape:bbox-paths="true"
     inkscape:snap-bbox-midpoints="true"
     inkscape:snap-global="true"
     inkscape:object-paths="true"
     inkscape:snap-intersection-paths="true"
     inkscape:snap-smooth-nodes="true"
     inkscape:pagecheckerboard="false"
     showborder="false"
     inkscape:document-rotation="0"
     inkscape:deskcolor="#d1d1d1">
    <inkscape:grid
       spacingy="1"
       spacingx="1"
       id="grid5883"
       type="xygrid"
       enabled="true"
       visible="true"
       empspacing="4"
       snapvisiblegridlinesonly="true"
       originx="0"
       originy="0" />
    <inkscape:grid
       type="xygrid"
       id="grid11592"
       empspacing="2"
       visible="true"
       enabled="false"
       spacingx="0.5"
       spacingy="0.5"
       color="#ff0000"
       opacity="0.1254902"
       empcolor="#ff0000"
       empopacity="0.25098039"
       snapvisiblegridlinesonly="true"
       originx="0"
       originy="0" />
  </sodipodi:namedview>
  <defs
     id="defs3">
    <linearGradient
       id="a"
       x2="1"
       gradientTransform="matrix(-0.476427,-44.666,44.666,-0.476427,164.205,43.9154)"
       gradientUnits="userSpaceOnUse">
      <stop
         stop-color="#a40101"
         offset="0"
         id="stop22" />
      <stop
         stop-color="#ee4545"
         offset="1"
         id="stop24" />
    </linearGradient>
    <linearGradient
       id="b"
       x2="1"
       gradientTransform="matrix(-0.476427,-44.666,44.666,-0.476427,446.34,44.0547)"
       gradientUnits="userSpaceOnUse">
      <stop
         stop-color="#f0ced0"
         offset="0"
         id="stop27" />
      <stop
         stop-color="#fefdfd"
         offset="1"
         id="stop29" />
    </linearGradient>
    <linearGradient
       id="d"
       x2="1"
       gradientTransform="matrix(-0.23491353,-121.26644,121.26644,-0.23491353,2776.9036,208.86239)"
       gradientUnits="userSpaceOnUse"
       xlink:href="#c" />
    <linearGradient
       id="c">
      <stop
         stop-color="#e02d2d"
         offset="0"
         id="stop32" />
      <stop
         stop-color="#f75151"
         offset="1"
         id="stop34" />
    </linearGradient>
    <linearGradient
       id="e"
       x2="1"
       gradientTransform="matrix(-0.23491353,-121.26644,121.26644,-0.23491353,5808.0775,202.99046)"
       gradientUnits="userSpaceOnUse"
       xlink:href="#c" />
    <linearGradient
       id="f"
       x2="1"
       gradientTransform="matrix(-0.23491353,-121.26644,121.26644,-0.23491353,5789.9004,203.02536)"
       gradientUnits="userSpaceOnUse"
       xlink:href="#c" />
    <linearGradient
       id="g"
       x2="1"
       gradientTransform="matrix(-0.23491353,-121.26644,121.26644,-0.23491353,2838.7542,208.74218)"
       gradientUnits="userSpaceOnUse"
       xlink:href="#c" />
    <linearGradient
       inkscape:collect="always"
       xlink:href="#a"
       id="linearGradient431"
       gradientUnits="userSpaceOnUse"
       gradientTransform="matrix(-0.47424137,-44.461092,44.461092,-0.47424137,483.60062,103.93055)"
       x2="1" />
    <linearGradient
       inkscape:collect="always"
       xlink:href="#b"
       id="linearGradient433"
       gradientUnits="userSpaceOnUse"
       gradientTransform="matrix(-0.47424137,-44.461092,44.461092,-0.47424137,764.44131,104.06921)"
       x2="1" />
    <linearGradient
       inkscape:collect="always"
       xlink:href="#c"
       id="linearGradient435"
       gradientUnits="userSpaceOnUse"
       gradientTransform="matrix(-0.04824117,-24.90293,24.90293,-0.04824117,883.04272,94.855669)"
       x2="1" />
    <linearGradient
       inkscape:collect="always"
       xlink:href="#c"
       id="linearGradient437"
       gradientUnits="userSpaceOnUse"
       gradientTransform="matrix(-0.04824117,-24.90293,24.90293,-0.04824117,1505.5159,93.649827)"
       x2="1" />
    <linearGradient
       inkscape:collect="always"
       xlink:href="#c"
       id="linearGradient439"
       gradientUnits="userSpaceOnUse"
       gradientTransform="matrix(-0.04824117,-24.90293,24.90293,-0.04824117,1501.7831,93.656994)"
       x2="1" />
    <linearGradient
       inkscape:collect="always"
       xlink:href="#c"
       id="linearGradient441"
       gradientUnits="userSpaceOnUse"
       gradientTransform="matrix(-0.04824117,-24.90293,24.90293,-0.04824117,895.74418,94.830983)"
       x2="1" />
    <linearGradient
       inkscape:collect="always"
       xlink:href="#a"
       id="linearGradient459"
       gradientUnits="userSpaceOnUse"
       gradientTransform="matrix(-0.30928785,-28.996365,28.996365,-0.30928785,427.04389,160.99818)"
       x2="1" />
    <linearGradient
       inkscape:collect="always"
       xlink:href="#b"
       id="linearGradient461"
       gradientUnits="userSpaceOnUse"
       gradientTransform="matrix(-0.30928785,-28.996365,28.996365,-0.30928785,610.20086,161.08861)"
       x2="1" />
    <linearGradient
       inkscape:collect="always"
       xlink:href="#c"
       id="linearGradient463"
       gradientUnits="userSpaceOnUse"
       gradientTransform="matrix(-0.03146163,-16.241041,16.241041,-0.03146163,687.5496,155.07978)"
       x2="1" />
    <linearGradient
       inkscape:collect="always"
       xlink:href="#c"
       id="linearGradient465"
       gradientUnits="userSpaceOnUse"
       gradientTransform="matrix(-0.03146163,-16.241041,16.241041,-0.03146163,1093.5104,154.29336)"
       x2="1" />
    <linearGradient
       inkscape:collect="always"
       xlink:href="#c"
       id="linearGradient467"
       gradientUnits="userSpaceOnUse"
       gradientTransform="matrix(-0.03146163,-16.241041,16.241041,-0.03146163,1091.076,154.29804)"
       x2="1" />
    <linearGradient
       inkscape:collect="always"
       xlink:href="#c"
       id="linearGradient469"
       gradientUnits="userSpaceOnUse"
       gradientTransform="matrix(-0.03146163,-16.241041,16.241041,-0.03146163,695.83316,155.06368)"
       x2="1" />
    <linearGradient
       inkscape:collect="always"
       xlink:href="#a"
       id="linearGradient487"
       gradientUnits="userSpaceOnUse"
       gradientTransform="matrix(-0.23712068,-22.230546,22.230546,-0.23712068,401.80031,209.96528)"
       x2="1" />
    <linearGradient
       inkscape:collect="always"
       xlink:href="#b"
       id="linearGradient489"
       gradientUnits="userSpaceOnUse"
       gradientTransform="matrix(-0.23712068,-22.230546,22.230546,-0.23712068,542.22065,210.03461)"
       x2="1" />
    <linearGradient
       inkscape:collect="always"
       xlink:href="#c"
       id="linearGradient491"
       gradientUnits="userSpaceOnUse"
       gradientTransform="matrix(-0.02412059,-12.451465,12.451465,-0.02412059,601.52135,205.42784)"
       x2="1" />
    <linearGradient
       inkscape:collect="always"
       xlink:href="#c"
       id="linearGradient493"
       gradientUnits="userSpaceOnUse"
       gradientTransform="matrix(-0.02412059,-12.451465,12.451465,-0.02412059,912.75796,204.82492)"
       x2="1" />
    <linearGradient
       inkscape:collect="always"
       xlink:href="#c"
       id="linearGradient495"
       gradientUnits="userSpaceOnUse"
       gradientTransform="matrix(-0.02412059,-12.451465,12.451465,-0.02412059,910.89156,204.8285)"
       x2="1" />
    <linearGradient
       inkscape:collect="always"
       xlink:href="#c"
       id="linearGradient497"
       gradientUnits="userSpaceOnUse"
       gradientTransform="matrix(-0.02412059,-12.451465,12.451465,-0.02412059,607.87209,205.4155)"
       x2="1" />
    <linearGradient
       inkscape:collect="always"
       xlink:href="#a"
       id="linearGradient515"
       gradientUnits="userSpaceOnUse"
       gradientTransform="matrix(-0.15464393,-14.498182,14.498182,-0.15464393,373.52194,250.49909)"
       x2="1" />
    <linearGradient
       inkscape:collect="always"
       xlink:href="#b"
       id="linearGradient517"
       gradientUnits="userSpaceOnUse"
       gradientTransform="matrix(-0.15464393,-14.498182,14.498182,-0.15464393,465.10043,250.54431)"
       x2="1" />
    <linearGradient
       inkscape:collect="always"
       xlink:href="#c"
       id="linearGradient519"
       gradientUnits="userSpaceOnUse"
       gradientTransform="matrix(-0.01573082,-8.1205208,8.1205208,-0.01573082,503.7748,247.5399)"
       x2="1" />
    <linearGradient
       inkscape:collect="always"
       xlink:href="#c"
       id="linearGradient521"
       gradientUnits="userSpaceOnUse"
       gradientTransform="matrix(-0.01573082,-8.1205208,8.1205208,-0.01573082,706.75519,247.14669)"
       x2="1" />
    <linearGradient
       inkscape:collect="always"
       xlink:href="#c"
       id="linearGradient523"
       gradientUnits="userSpaceOnUse"
       gradientTransform="matrix(-0.01573082,-8.1205208,8.1205208,-0.01573082,705.53798,247.14902)"
       x2="1" />
    <linearGradient
       inkscape:collect="always"
       xlink:href="#c"
       id="linearGradient525"
       gradientUnits="userSpaceOnUse"
       gradientTransform="matrix(-0.01573082,-8.1205208,8.1205208,-0.01573082,507.91658,247.53185)"
       x2="1" />
    <linearGradient
       inkscape:collect="always"
       xlink:href="#a"
       id="linearGradient548"
       gradientUnits="userSpaceOnUse"
       gradientTransform="matrix(-2.3093492,-216.50619,216.50619,-2.3093492,831.79434,253.05309)"
       x2="1" />
    <linearGradient
       inkscape:collect="always"
       xlink:href="#b"
       id="linearGradient550"
       gradientUnits="userSpaceOnUse"
       gradientTransform="matrix(-2.3093492,-216.50619,216.50619,-2.3093492,2199.3664,253.72831)"
       x2="1" />
  </defs>
  <metadata
     id="metadata4">
    <rdf:RDF>
      <cc:Work
         rdf:about="">
        <dc:format>image/svg+xml</dc:format>
        <dc:type
           rdf:resource="http://purl.org/dc/dcmitype/StillImage" />
        <dc:creator>
          <cc:Agent>
            <dc:title>Sam Hewitt</dc:title>
          </cc:Agent>
        </dc:creator>
        <dc:source />
        <cc:license
           rdf:resource="http://creativecommons.org/licenses/by-sa/4.0/" />
        <dc:title>Suru Icon Theme Template</dc:title>
        <dc:subject>
          <rdf:Bag />
        </dc:subject>
        <dc:date />
        <dc:rights>
          <cc:Agent>
            <dc:title />
          </cc:Agent>
        </dc:rights>
        <dc:publisher>
          <cc:Agent>
            <dc:title />
          </cc:Agent>
        </dc:publisher>
        <dc:identifier />
        <dc:relation />
        <dc:language />
        <dc:coverage />
        <dc:description />
        <dc:contributor>
          <cc:Agent>
            <dc:title />
          </cc:Agent>
        </dc:contributor>
      </cc:Work>
      <cc:Work
         rdf:about="">
        <dc:format>image/svg+xml</dc:format>
        <dc:type
           rdf:resource="http://purl.org/dc/dcmitype/StillImage" />
      </cc:Work>
      <cc:License
         rdf:about="http://creativecommons.org/licenses/by-sa/4.0/">
        <cc:permits
           rdf:resource="http://creativecommons.org/ns#Reproduction" />
        <cc:permits
           rdf:resource="http://creativecommons.org/ns#Distribution" />
        <cc:requires
           rdf:resource="http://creativecommons.org/ns#Notice" />
        <cc:requires
           rdf:resource="http://creativecommons.org/ns#Attribution" />
        <cc:permits
           rdf:resource="http://creativecommons.org/ns#DerivativeWorks" />
        <cc:requires
           rdf:resource="http://creativecommons.org/ns#ShareAlike" />
      </cc:License>
    </rdf:RDF>
  </metadata>
  <g
     style="display:inline"
     inkscape:groupmode="layer"
     inkscape:label="Icon"
     id="layer1">
    <g
       style="display:none"
       inkscape:label="Baseplate"
       id="layer7"
       inkscape:groupmode="layer">
      <text
         y="-8.2548828"
         xml:space="preserve"
         x="19.006836"
         style="font-style:normal;font-variant:normal;font-weight:normal;font-stretch:normal;line-height:0%;font-family:'DejaVu Sans';-inkscape-font-specification:'DejaVu Sans';display:inline;fill:#000000;fill-opacity:1;stroke:none;enable-background:new"
         inkscape:label="context"
         id="context"><tspan
           style="font-style:normal;font-variant:normal;font-weight:normal;font-stretch:normal;font-size:18px;line-height:1.25;font-family:'DejaVu Sans';-inkscape-font-specification:'DejaVu Sans'"
           y="-8.2548828"
           x="19.006836"
           sodipodi:role="line"
           id="tspan3933">apps</tspan></text>
      <text
         y="-8.2548828"
         xml:space="preserve"
         x="146.48828"
         style="font-style:normal;font-variant:normal;font-weight:bold;font-stretch:normal;line-height:0%;font-family:'DejaVu Sans';-inkscape-font-specification:'DejaVu Sans Bold';text-align:start;writing-mode:lr-tb;text-anchor:start;display:inline;fill:#000000;fill-opacity:1;stroke:none;enable-background:new"
         inkscape:label="icon-name"
         id="icon-name"><tspan
           style="font-style:normal;font-variant:normal;font-weight:bold;font-stretch:normal;font-size:18px;line-height:1.25;font-family:'DejaVu Sans';-inkscape-font-specification:'DejaVu Sans Bold'"
           y="-8.2548828"
           x="146.48828"
           sodipodi:role="line"
           id="tspan924">gnome-aisleriot</tspan></text>
      <rect
         style="display:inline;overflow:visible;visibility:visible;fill:#cdcdcd;fill-opacity:1;fill-rule:nonzero;stroke:none;stroke-width:2;marker:none;enable-background:accumulate"
         id="rect16x16"
         width="16"
         height="16"
         x="320"
         y="236"
         inkscape:label="16x16" />
      <rect
         style="display:inline;overflow:visible;visibility:visible;fill:#cdcdcd;fill-opacity:1;fill-rule:nonzero;stroke:none;stroke-width:2;marker:none;enable-background:accumulate"
         id="rect24x24"
         width="24"
         height="24"
         x="320"
         y="188"
         inkscape:label="24x24" />
      <rect
         style="display:inline;overflow:visible;visibility:visible;fill:#cdcdcd;fill-opacity:1;fill-rule:nonzero;stroke:none;stroke-width:2;marker:none;enable-background:accumulate"
         id="rect32x32"
         width="32"
         height="32"
         x="320"
         y="132"
         inkscape:label="32x32" />
      <rect
         inkscape:label="48x48"
         y="60"
         x="320"
         height="48"
         width="48"
         id="rect48x48"
         style="display:inline;overflow:visible;visibility:visible;fill:#cdcdcd;fill-opacity:1;fill-rule:nonzero;stroke:none;stroke-width:2;marker:none;enable-background:accumulate" />
      <rect
         style="display:inline;overflow:visible;visibility:visible;fill:#cdcdcd;fill-opacity:1;fill-rule:nonzero;stroke:none;stroke-width:2;marker:none;enable-background:accumulate"
         id="rect256x256"
         width="256"
         height="256"
         x="24"
         y="28"
         inkscape:label="256x256" />
    </g>
    <g
       inkscape:groupmode="layer"
       id="layer2"
       inkscape:label="Background"
       style="display:inline">
      <path
         d="m 227.19017,68.430019 c 0,-13.48983 -10.93534,-24.430018 -24.42517,-24.430018 H 77.512682 c -13.48983,0 -24.425171,10.940188 -24.425171,24.430018 V 228.55812 c 0,13.48983 10.935341,24.43002 24.425171,24.43002 H 202.765 c 13.48983,0 24.42517,-10.94019 24.42517,-24.43002 z"
         fill="url(#a)"
         id="path41"
         style="fill:url(#linearGradient548);stroke-width:4.84723" />
      <path
         d="m 250.91249,83.43703 c 0,-13.48983 -10.93534,-24.430018 -24.42517,-24.430018 H 101.23016 c -13.489832,0 -24.425173,10.940188 -24.425173,24.430018 V 243.56998 C 76.804987,257.05981 87.740328,268 101.23016,268 h 125.25716 c 13.48983,0 24.42517,-10.94019 24.42517,-24.43002 z"
         fill="url(#b)"
         id="path43"
         style="fill:url(#linearGradient550);stroke-width:4.84723" />
      <path
         d="M 359.44084,66.016878 C 359.44084,63.246645 357.19519,61 354.42495,61 h -25.72146 c -2.77023,0 -5.01588,2.246645 -5.01588,5.016878 v 32.883451 c 0,2.770231 2.24565,5.016881 5.01588,5.016881 h 25.72146 c 2.77024,0 5.01589,-2.24665 5.01589,-5.016881 z"
         fill="url(#a)"
         id="path415"
         style="fill:url(#linearGradient431);stroke-width:0.995412" />
      <path
         d="m 364.31238,69.098675 c 0,-2.770233 -2.24565,-5.016878 -5.01588,-5.016878 h -25.72245 c -2.77024,0 -5.01589,2.246645 -5.01589,5.016878 v 32.884445 c 0,2.77023 2.24565,5.01688 5.01589,5.01688 h 25.72245 c 2.77023,0 5.01588,-2.24665 5.01588,-5.01688 z"
         fill="url(#b)"
         id="path417"
         style="fill:url(#linearGradient433);stroke-width:0.995412" />
      <path
         d="m 346.07011,136.27187 c 0,-1.80667 -1.46455,-3.27187 -3.27123,-3.27187 h -16.77486 c -1.80667,0 -3.27123,1.4652 -3.27123,3.27187 v 21.44573 c 0,1.80668 1.46456,3.27188 3.27123,3.27188 h 16.77486 c 1.80668,0 3.27123,-1.4652 3.27123,-3.27188 z"
         fill="url(#a)"
         id="path443"
         style="fill:url(#linearGradient459);stroke-width:0.649182" />
      <path
         d="m 349.24721,138.28174 c 0,-1.80667 -1.46456,-3.27188 -3.27123,-3.27188 h -16.77551 c -1.80668,0 -3.27123,1.46521 -3.27123,3.27188 v 21.44638 c 0,1.80667 1.46455,3.27188 3.27123,3.27188 h 16.77551 c 1.80667,0 3.27123,-1.46521 3.27123,-3.27188 z"
         fill="url(#b)"
         id="path445"
         style="fill:url(#linearGradient461);stroke-width:0.649182" />
      <path
         d="m 339.72042,191.00844 c 0,-1.38511 -1.12283,-2.50844 -2.50794,-2.50844 h -12.86073 c -1.38512,0 -2.50794,1.12333 -2.50794,2.50844 v 16.44173 c 0,1.38512 1.12282,2.50844 2.50794,2.50844 h 12.86073 c 1.38511,0 2.50794,-1.12332 2.50794,-2.50844 z"
         fill="url(#a)"
         id="path471"
         style="fill:url(#linearGradient487);stroke-width:0.497706" />
      <path
         d="m 342.15619,192.54934 c 0,-1.38511 -1.12282,-2.50844 -2.50794,-2.50844 h -12.86123 c -1.38511,0 -2.50794,1.12333 -2.50794,2.50844 v 16.44223 c 0,1.38511 1.12283,2.50843 2.50794,2.50843 h 12.86123 c 1.38512,0 2.50794,-1.12332 2.50794,-2.50843 z"
         fill="url(#b)"
         id="path473"
         style="fill:url(#linearGradient489);stroke-width:0.497706" />
      <path
         d="m 333.03505,238.13594 c 0,-0.90333 -0.73228,-1.63594 -1.63561,-1.63594 h -8.38743 c -0.90334,0 -1.63562,0.73261 -1.63562,1.63594 v 10.72287 c 0,0.90333 0.73228,1.63593 1.63562,1.63593 h 8.38743 c 0.90333,0 1.63561,-0.7326 1.63561,-1.63593 z"
         fill="url(#a)"
         id="path499"
         style="fill:url(#linearGradient515);stroke-width:0.324591" />
      <path
         d="m 334.6236,239.14088 c 0,-0.90334 -0.73228,-1.63594 -1.63561,-1.63594 h -8.38776 c -0.90334,0 -1.63562,0.7326 -1.63562,1.63594 v 10.72318 c 0,0.90334 0.73228,1.63594 1.63562,1.63594 h 8.38776 c 0.90333,0 1.63561,-0.7326 1.63561,-1.63594 z"
         fill="url(#b)"
         id="path501"
         style="fill:url(#linearGradient517);stroke-width:0.324591" />
    </g>
    <g
       inkscape:groupmode="layer"
       id="layer6"
       inkscape:label="Pictogram"
       style="display:inline">
      <path
         d="m 150.57492,92.578898 c -5.9524,-0.03878 -11.07107,3.456072 -13.47044,8.497182 -2.33637,-5.070194 -7.41141,-8.628057 -13.36865,-8.666835 -8.19666,-0.04847 -14.90522,9.539345 -14.95854,17.735995 -0.11149,17.83295 28.06544,33.28106 28.06544,33.28106 0,0 28.36111,-15.09426 28.4726,-32.92721 0.0485,-8.2015 -6.53891,-17.87172 -14.74041,-17.920192 z"
         fill="url(#d)"
         id="path45"
         style="fill:url(#d);fill-rule:nonzero;stroke-width:4.84723" />
      <path
         d="m 136.77971,152.98987 c 0,0 -28.36112,15.09426 -28.4726,32.92721 -0.0485,8.19666 6.5389,17.86687 14.74041,17.92019 2.38968,0.0145 4.6388,-0.54774 6.63585,-1.55111 0.56228,-0.28114 1.24089,-0.18904 1.70623,0.23267 0.46533,0.42655 0.62529,1.09062 0.39747,1.68198 l -3.99896,10.25189 c -0.35385,0.90643 -0.23752,1.92919 0.31022,2.73383 0.54774,0.80464 1.45417,1.28936 2.42846,1.29421 l 11.7012,0.0727 c 0.9743,0.01 1.88557,-0.46533 2.443,-1.26513 0.55744,-0.79979 0.68346,-1.82255 0.34416,-2.72899 l -3.86809,-10.30035 c -0.22297,-0.59136 -0.0582,-1.26028 0.41202,-1.67714 0.47502,-0.41686 1.15364,-0.50411 1.71107,-0.21328 1.98251,1.02761 4.22678,1.61898 6.61646,1.63352 8.20151,0.0533 14.91007,-9.53934 14.95854,-17.736 0.11148,-17.83295 -28.06544,-33.27621 -28.06544,-33.27621 z"
         fill="url(#e)"
         id="path47"
         style="fill:url(#e);fill-rule:nonzero;stroke-width:4.84723" />
      <path
         d="m 212.18316,175.39375 c -0.0194,0 -0.0388,0.005 -0.0582,0.005 1.61897,-2.32182 2.58357,-5.13806 2.60296,-8.18697 0.0533,-8.00761 -6.39834,-14.53198 -14.40111,-14.5853 -8.00762,-0.0485 -14.54168,6.39834 -14.59015,14.40596 -0.0194,3.0489 0.91613,5.87483 2.50602,8.22089 -0.0194,0 -0.0339,-0.01 -0.0533,-0.01 -8.00762,-0.0485 -14.54168,6.40318 -14.59015,14.4108 -0.0485,8.00762 6.40318,14.53683 14.4108,14.5853 1.78863,0.01 3.4997,-0.31507 5.07505,-0.90643 0.56227,-0.20843 1.19726,-0.0679 1.61897,0.35869 0.42171,0.42656 0.55258,1.06155 0.33446,1.61898 l -3.71782,9.52964 c -0.349,0.91128 -0.23752,1.93405 0.31022,2.73869 0.54774,0.80464 1.45417,1.28936 2.42846,1.29905 l 11.70605,0.0727 c 0.96944,0.005 1.88557,-0.47018 2.443,-1.26997 0.55743,-0.79979 0.68346,-1.81771 0.34415,-2.72899 l -3.60148,-9.57812 c -0.20844,-0.56228 -0.0727,-1.19726 0.35869,-1.61897 0.42656,-0.42171 1.06154,-0.55259 1.61897,-0.33446 1.57535,0.61075 3.28158,0.9549 5.07505,0.96945 8.00277,0.0485 14.53198,-6.39834 14.58045,-14.40596 0.0533,-8.00762 -6.39833,-14.54168 -14.4011,-14.59015 z m -12.04051,6.2917 c -0.0145,-0.0242 -0.0388,-0.0485 -0.0533,-0.0727 0.0194,0 0.0388,0.01 0.0582,0.01 0.0194,0 0.0339,-0.005 0.0533,-0.005 -0.0194,0.0242 -0.0388,0.0436 -0.0582,0.0679 z"
         fill="url(#f)"
         id="path49"
         style="fill:url(#f);fill-rule:nonzero;stroke-width:4.84723" />
      <path
         d="m 199.22167,147.07626 c 0.28599,0.32961 0.698,0.51865 1.13425,0.5235 0.43141,0 0.84827,-0.1842 1.1391,-0.50896 l 22.85467,-25.46248 c 0.51381,-0.57197 0.51866,-1.44447 0.005,-2.02129 l -22.5349,-25.447937 c -0.28599,-0.324764 -0.698,-0.513806 -1.12941,-0.513806 -0.43625,-0.0048 -0.84826,0.179348 -1.13425,0.499265 L 176.70146,119.3065 c -0.51865,0.57682 -0.52834,1.44447 -0.0194,2.02614 z"
         fill="url(#g)"
         id="path51"
         style="fill:url(#g);fill-rule:nonzero;stroke-width:4.84723" />
      <path
         d="m 343.70735,70.976023 c -1.22237,-0.008 -2.27353,0.709729 -2.76625,1.744958 -0.47979,-1.041201 -1.52199,-1.771834 -2.74535,-1.779797 -1.68324,-0.01 -3.0609,1.958971 -3.07185,3.642214 -0.0229,3.662122 5.76344,6.834502 5.76344,6.834502 0,0 5.82416,-3.099715 5.84706,-6.761837 0.01,-1.684238 -1.34282,-3.670086 -3.02705,-3.68004 z"
         fill="url(#d)"
         id="path419"
         style="fill:url(#linearGradient435);fill-rule:nonzero;stroke-width:0.995412" />
      <path
         d="m 340.8744,83.381849 c 0,0 -5.82416,3.099714 -5.84705,6.761836 -0.01,1.683243 1.34281,3.669091 3.02705,3.68004 0.49074,0.003 0.95261,-0.112481 1.36272,-0.318532 0.11547,-0.05773 0.25482,-0.03882 0.35038,0.04778 0.0956,0.0876 0.12841,0.223968 0.0816,0.345408 l -0.82122,2.105297 c -0.0727,0.186143 -0.0488,0.396175 0.0637,0.561413 0.11248,0.165238 0.29862,0.26478 0.4987,0.265775 l 2.40293,0.01493 c 0.20007,0.002 0.38721,-0.09556 0.50168,-0.259802 0.11448,-0.164243 0.14036,-0.374275 0.0707,-0.560418 l -0.79434,-2.115251 c -0.0458,-0.12144 -0.012,-0.258807 0.0846,-0.344413 0.0976,-0.08561 0.23691,-0.103523 0.35138,-0.0438 0.40712,0.211028 0.868,0.332468 1.35874,0.335454 1.68424,0.01095 3.06189,-1.958972 3.07184,-3.642214 0.0229,-3.662122 -5.76344,-6.833506 -5.76344,-6.833506 z"
         fill="url(#e)"
         id="path421"
         style="fill:url(#linearGradient437);fill-rule:nonzero;stroke-width:0.995412" />
      <path
         d="m 356.35904,87.982645 c -0.004,0 -0.008,9.95e-4 -0.012,9.95e-4 0.33247,-0.476802 0.53056,-1.055137 0.53454,-1.681251 0.011,-1.644422 -1.31394,-2.984247 -2.95737,-2.995196 -1.64442,-0.01 -2.98624,1.313944 -2.99619,2.958365 -0.004,0.626115 0.18813,1.20644 0.51463,1.68822 -0.004,0 -0.007,-0.002 -0.0109,-0.002 -1.64442,-0.01 -2.98624,1.31494 -2.99619,2.959361 -0.01,1.644422 1.31494,2.985242 2.95936,2.995196 0.3673,0.002 0.71868,-0.0647 1.04219,-0.186142 0.11547,-0.0428 0.24587,-0.01394 0.33247,0.07366 0.0866,0.0876 0.11348,0.217995 0.0687,0.332468 l -0.76348,1.95698 c -0.0717,0.187138 -0.0488,0.39717 0.0637,0.562408 0.11248,0.165239 0.29862,0.26478 0.4987,0.266771 l 2.40392,0.01493 c 0.19909,9.96e-4 0.38722,-0.09655 0.50169,-0.260798 0.11447,-0.164243 0.14035,-0.37328 0.0707,-0.560417 l -0.73959,-1.966935 c -0.0428,-0.115468 -0.0149,-0.245867 0.0737,-0.332468 0.0876,-0.0866 0.218,-0.113477 0.33247,-0.06868 0.32351,0.125422 0.6739,0.196096 1.0422,0.199082 1.64342,0.01 2.98424,-1.313944 2.9942,-2.958366 0.0109,-1.644421 -1.31395,-2.986237 -2.95737,-2.996191 z m -2.47261,1.292045 c -0.003,-0.005 -0.008,-0.01 -0.011,-0.01493 0.004,0 0.008,0.002 0.012,0.002 0.004,0 0.007,-9.96e-4 0.0109,-9.96e-4 -0.004,0.005 -0.008,0.009 -0.0119,0.01394 z"
         fill="url(#f)"
         id="path423"
         style="fill:url(#linearGradient439);fill-rule:nonzero;stroke-width:0.995412" />
      <path
         d="m 353.69731,82.167445 c 0.0587,0.06769 0.14334,0.106509 0.23292,0.107505 0.0886,0 0.1742,-0.03783 0.23392,-0.104518 l 4.69337,-5.228902 c 0.10552,-0.117459 0.10651,-0.296633 10e-4,-0.415087 l -4.62767,-5.225915 c -0.0587,-0.06669 -0.14334,-0.105514 -0.23193,-0.105514 -0.0896,-9.96e-4 -0.1742,0.03683 -0.23293,0.102527 l -4.69337,5.167186 c -0.10651,0.118455 -0.1085,0.296633 -0.004,0.416083 z"
         fill="url(#g)"
         id="path425"
         style="fill:url(#linearGradient441);fill-rule:nonzero;stroke-width:0.995412" />
      <path
         d="m 335.80914,139.5061 c -0.79719,-0.005 -1.48273,0.46287 -1.80408,1.13801 -0.3129,-0.67904 -0.9926,-1.15554 -1.79044,-1.16073 -1.09777,-0.006 -1.99623,1.27759 -2.00338,2.37535 -0.0149,2.38834 3.75877,4.45729 3.75877,4.45729 0,0 3.79836,-2.02155 3.81329,-4.4099 0.007,-1.09841 -0.87574,-2.39353 -1.97416,-2.40002 z"
         fill="url(#d)"
         id="path447"
         style="fill:url(#linearGradient463);fill-rule:nonzero;stroke-width:0.649182" />
      <path
         d="m 333.96157,147.59685 c 0,0 -3.79837,2.02156 -3.8133,4.4099 -0.006,1.09776 0.87575,2.39288 1.97417,2.40002 0.32004,0.002 0.62126,-0.0734 0.88873,-0.20773 0.0753,-0.0377 0.16619,-0.0253 0.22851,0.0312 0.0623,0.0571 0.0837,0.14606 0.0532,0.22526 l -0.53557,1.37302 c -0.0474,0.1214 -0.0318,0.25838 0.0415,0.36614 0.0734,0.10777 0.19476,0.17268 0.32524,0.17333 l 1.56713,0.01 c 0.13049,10e-4 0.25253,-0.0623 0.32719,-0.16944 0.0747,-0.10711 0.0915,-0.24409 0.0461,-0.36549 l -0.51805,-1.37951 c -0.0299,-0.0792 -0.008,-0.16878 0.0552,-0.22461 0.0636,-0.0558 0.15451,-0.0675 0.22916,-0.0286 0.26552,0.13763 0.56609,0.21683 0.88614,0.21878 1.09841,0.007 1.99688,-1.27759 2.00337,-2.37536 0.0149,-2.38834 -3.75876,-4.45664 -3.75876,-4.45664 z"
         fill="url(#e)"
         id="path449"
         style="fill:url(#linearGradient465);fill-rule:nonzero;stroke-width:0.649182" />
      <path
         d="m 344.06024,150.59737 c -0.003,0 -0.005,6.5e-4 -0.008,6.5e-4 0.21683,-0.31096 0.34602,-0.68813 0.34862,-1.09647 0.007,-1.07244 -0.85693,-1.94624 -1.92872,-1.95338 -1.07245,-0.006 -1.94755,0.85692 -1.95404,1.92936 -0.003,0.40834 0.12269,0.78681 0.33562,1.10102 -0.003,0 -0.005,-0.001 -0.007,-0.001 -1.07245,-0.006 -1.94754,0.85757 -1.95403,1.93002 -0.007,1.07245 0.85757,1.94689 1.93001,1.95339 0.23955,0.001 0.46871,-0.0422 0.6797,-0.1214 0.0753,-0.0279 0.16035,-0.009 0.21682,0.048 0.0565,0.0571 0.074,0.14217 0.0448,0.21683 l -0.49792,1.27629 c -0.0467,0.12204 -0.0318,0.25902 0.0415,0.36678 0.0734,0.10777 0.19476,0.17269 0.32524,0.17399 l 1.56778,0.01 c 0.12983,6.5e-4 0.25253,-0.063 0.32719,-0.17008 0.0747,-0.10712 0.0915,-0.24345 0.0461,-0.36549 l -0.48234,-1.28279 c -0.0279,-0.0753 -0.01,-0.16034 0.048,-0.21682 0.0571,-0.0565 0.14218,-0.074 0.21683,-0.0448 0.21099,0.0818 0.4395,0.12789 0.67969,0.12984 1.0718,0.006 1.94625,-0.85692 1.95274,-1.92937 0.007,-1.07245 -0.85692,-1.94754 -1.92872,-1.95404 z m -1.61256,0.84264 c -0.002,-0.003 -0.005,-0.006 -0.007,-0.01 0.003,0 0.005,10e-4 0.008,10e-4 0.003,0 0.005,-6.5e-4 0.007,-6.5e-4 -0.003,0.003 -0.005,0.006 -0.008,0.009 z"
         fill="url(#f)"
         id="path451"
         style="fill:url(#linearGradient467);fill-rule:nonzero;stroke-width:0.649182" />
      <path
         d="m 342.32433,146.80485 c 0.0383,0.0442 0.0935,0.0695 0.15191,0.0701 0.0578,0 0.11361,-0.0247 0.15256,-0.0682 l 3.06089,-3.41015 c 0.0688,-0.0766 0.0695,-0.19346 6.5e-4,-0.27071 l -3.01805,-3.40821 c -0.0383,-0.0435 -0.0935,-0.0688 -0.15126,-0.0688 -0.0584,-6.5e-4 -0.1136,0.024 -0.1519,0.0669 l -3.0609,3.36991 c -0.0695,0.0772 -0.0708,0.19345 -0.003,0.27136 z"
         fill="url(#g)"
         id="path453"
         style="fill:url(#linearGradient469);fill-rule:nonzero;stroke-width:0.649182" />
      <path
         d="m 331.85367,193.48802 c -0.61118,-0.004 -1.13676,0.35486 -1.38312,0.87248 -0.2399,-0.52061 -0.761,-0.88592 -1.37268,-0.8899 -0.84162,-0.005 -1.53044,0.97948 -1.53592,1.8211 -0.0114,1.83107 2.88172,3.41725 2.88172,3.41725 0,0 2.91208,-1.54985 2.92353,-3.38091 0.005,-0.84212 -0.67141,-1.83505 -1.51353,-1.84002 z"
         fill="url(#d)"
         id="path475"
         style="fill:url(#linearGradient491);fill-rule:nonzero;stroke-width:0.497706" />
      <path
         d="m 330.4372,199.69093 c 0,0 -2.91208,1.54986 -2.92353,3.38092 -0.005,0.84162 0.67141,1.83454 1.51353,1.84002 0.24537,0.001 0.4763,-0.0562 0.68136,-0.15927 0.0577,-0.0289 0.12741,-0.0194 0.17519,0.0239 0.0478,0.0438 0.0642,0.11199 0.0408,0.17271 l -0.4106,1.05264 c -0.0363,0.0931 -0.0244,0.19809 0.0319,0.28071 0.0562,0.0826 0.14931,0.13239 0.24935,0.13289 l 1.20146,0.007 c 0.10004,0.001 0.19361,-0.0478 0.25085,-0.1299 0.0572,-0.0821 0.0702,-0.18714 0.0353,-0.28021 l -0.39717,-1.05762 c -0.0229,-0.0607 -0.006,-0.12941 0.0423,-0.17221 0.0488,-0.0428 0.11845,-0.0518 0.17569,-0.0219 0.20356,0.10552 0.434,0.16624 0.67937,0.16773 0.84212,0.005 1.53094,-0.97949 1.53592,-1.82111 0.0115,-1.83106 -2.88172,-3.41675 -2.88172,-3.41675 z"
         fill="url(#e)"
         id="path477"
         style="fill:url(#linearGradient493);fill-rule:nonzero;stroke-width:0.497706" />
      <path
         d="m 338.17952,201.99133 c -0.002,0 -0.004,5e-4 -0.006,5e-4 0.16623,-0.23841 0.26527,-0.52757 0.26726,-0.84063 0.005,-0.82221 -0.65697,-1.49212 -1.47868,-1.4976 -0.82221,-0.005 -1.49312,0.65697 -1.4981,1.47918 -0.002,0.31306 0.0941,0.60322 0.25732,0.84411 -0.002,0 -0.003,-9.9e-4 -0.005,-9.9e-4 -0.82221,-0.005 -1.49312,0.65747 -1.49809,1.47968 -0.005,0.82221 0.65747,1.49262 1.47968,1.4976 0.18365,9.9e-4 0.35934,-0.0324 0.5211,-0.0931 0.0577,-0.0214 0.12293,-0.007 0.16623,0.0368 0.0433,0.0438 0.0567,0.10899 0.0343,0.16623 l -0.38174,0.97849 c -0.0358,0.0936 -0.0244,0.19859 0.0318,0.2812 0.0563,0.0826 0.14932,0.13239 0.24936,0.13339 l 1.20196,0.007 c 0.0995,4.9e-4 0.1936,-0.0483 0.25084,-0.1304 0.0572,-0.0821 0.0702,-0.18664 0.0353,-0.28021 l -0.3698,-0.98347 c -0.0214,-0.0577 -0.007,-0.12293 0.0368,-0.16623 0.0438,-0.0433 0.109,-0.0567 0.16624,-0.0344 0.16175,0.0627 0.33694,0.0981 0.52109,0.0996 0.82172,0.005 1.49213,-0.65698 1.4971,-1.47919 0.005,-0.82221 -0.65697,-1.49312 -1.47868,-1.49809 z m -1.2363,0.64602 c -0.002,-0.002 -0.004,-0.005 -0.005,-0.007 0.002,0 0.004,0.001 0.006,0.001 0.002,0 0.003,-5e-4 0.005,-5e-4 -0.002,0.002 -0.004,0.004 -0.006,0.007 z"
         fill="url(#f)"
         id="path479"
         style="fill:url(#linearGradient495);fill-rule:nonzero;stroke-width:0.497706" />
      <path
         d="m 336.84865,199.08373 c 0.0294,0.0338 0.0717,0.0532 0.11647,0.0538 0.0443,0 0.0871,-0.0189 0.11696,-0.0523 l 2.34668,-2.61445 c 0.0528,-0.0587 0.0533,-0.14832 5e-4,-0.20754 l -2.31384,-2.61296 c -0.0294,-0.0334 -0.0717,-0.0528 -0.11596,-0.0528 -0.0448,-5e-4 -0.0871,0.0184 -0.11647,0.0513 l -2.34668,2.58359 c -0.0532,0.0592 -0.0543,0.14832 -0.002,0.20804 z"
         fill="url(#g)"
         id="path481"
         style="fill:url(#linearGradient497);fill-rule:nonzero;stroke-width:0.497706" />
      <path
         d="m 327.90457,239.75305 c -0.3986,-0.003 -0.74137,0.23144 -0.90204,0.56901 -0.15646,-0.33952 -0.4963,-0.57777 -0.89522,-0.58037 -0.54889,-0.003 -0.99812,0.6388 -1.00169,1.18768 -0.007,1.19417 1.87938,2.22864 1.87938,2.22864 0,0 1.89918,-1.01077 1.90665,-2.20494 0.003,-0.54921 -0.43788,-1.19677 -0.98708,-1.20002 z"
         fill="url(#d)"
         id="path503"
         style="fill:url(#linearGradient519);fill-rule:nonzero;stroke-width:0.324591" />
      <path
         d="m 326.98078,243.79843 c 0,0 -1.89918,1.01078 -1.90665,2.20495 -0.003,0.54888 0.43788,1.19644 0.98708,1.20001 0.16003,9.8e-4 0.31064,-0.0367 0.44437,-0.10387 0.0376,-0.0188 0.0831,-0.0127 0.11425,0.0156 0.0312,0.0286 0.0419,0.073 0.0266,0.11264 l -0.26779,0.68651 c -0.0237,0.0607 -0.0159,0.12918 0.0208,0.18307 0.0367,0.0539 0.0974,0.0863 0.16262,0.0867 l 0.78356,0.005 c 0.0652,6.5e-4 0.12627,-0.0312 0.16359,-0.0847 0.0373,-0.0536 0.0458,-0.12204 0.0231,-0.18274 l -0.25902,-0.68976 c -0.0149,-0.0396 -0.004,-0.0844 0.0276,-0.11231 0.0318,-0.0279 0.0772,-0.0337 0.11458,-0.0143 0.13275,0.0688 0.28304,0.10841 0.44306,0.10939 0.54921,0.004 0.99845,-0.6388 1.00169,-1.18768 0.007,-1.19417 -1.87938,-2.22832 -1.87938,-2.22832 z"
         fill="url(#e)"
         id="path505"
         style="fill:url(#linearGradient521);fill-rule:nonzero;stroke-width:0.324591" />
      <path
         d="m 332.03012,245.29869 c -0.001,0 -0.003,3.3e-4 -0.004,3.3e-4 0.10842,-0.15548 0.17301,-0.34407 0.17431,-0.54824 0.004,-0.53622 -0.42846,-0.97312 -0.96436,-0.97669 -0.53623,-0.003 -0.97378,0.42846 -0.97702,0.96468 -10e-4,0.20417 0.0614,0.39341 0.16781,0.55051 -10e-4,0 -0.002,-6.5e-4 -0.004,-6.5e-4 -0.53622,-0.003 -0.97377,0.42878 -0.97702,0.96501 -0.003,0.53622 0.42879,0.97345 0.96501,0.97669 0.11978,6.5e-4 0.23436,-0.0211 0.33985,-0.0607 0.0376,-0.014 0.0802,-0.005 0.10841,0.024 0.0282,0.0286 0.037,0.0711 0.0224,0.10842 l -0.24896,0.63814 c -0.0234,0.061 -0.0159,0.12952 0.0208,0.1834 0.0367,0.0539 0.0974,0.0863 0.16262,0.087 l 0.78389,0.005 c 0.0649,3.2e-4 0.12626,-0.0315 0.16359,-0.0851 0.0373,-0.0535 0.0458,-0.12172 0.023,-0.18274 l -0.24117,-0.64139 c -0.014,-0.0377 -0.005,-0.0802 0.024,-0.10842 0.0286,-0.0282 0.0711,-0.037 0.10841,-0.0224 0.10549,0.0409 0.21975,0.0639 0.33985,0.0649 0.5359,0.003 0.97312,-0.42846 0.97637,-0.96469 0.004,-0.53622 -0.42846,-0.97377 -0.96436,-0.97702 z m -0.80629,0.42132 c -9.7e-4,-0.002 -0.003,-0.003 -0.004,-0.005 10e-4,0 0.003,6.5e-4 0.004,6.5e-4 10e-4,0 0.002,-3.2e-4 0.004,-3.2e-4 -10e-4,0.002 -0.003,0.003 -0.004,0.005 z"
         fill="url(#f)"
         id="path507"
         style="fill:url(#linearGradient523);fill-rule:nonzero;stroke-width:0.324591" />
      <path
         d="m 331.16216,243.40243 c 0.0192,0.0221 0.0467,0.0347 0.076,0.0351 0.0289,0 0.0568,-0.0123 0.0763,-0.0341 l 1.53045,-1.70507 c 0.0344,-0.0383 0.0347,-0.0967 3.3e-4,-0.13536 l -1.50903,-1.7041 c -0.0192,-0.0217 -0.0467,-0.0344 -0.0756,-0.0344 -0.0292,-3.2e-4 -0.0568,0.012 -0.076,0.0334 l -1.53045,1.68495 c -0.0347,0.0386 -0.0354,0.0967 -10e-4,0.13568 z"
         fill="url(#g)"
         id="path509"
         style="fill:url(#linearGradient525);fill-rule:nonzero;stroke-width:0.324591" />
    </g>
  </g>
</svg>
