<?xml version="1.0" encoding="UTF-8" standalone="no"?>
<svg
   inkscape:export-ydpi="90.000000"
   inkscape:export-xdpi="90.000000"
   width="400"
   height="300"
   id="svg11300"
   sodipodi:version="0.32"
   inkscape:version="1.2.2 (b0a8486541, 2022-12-01)"
   sodipodi:docname="gnome-mines.svg"
   inkscape:output_extension="org.inkscape.output.svg.inkscape"
   version="1.0"
   style="display:inline;enable-background:new"
   inkscape:export-filename="/home/sam/suru-template.png"
   xmlns:inkscape="http://www.inkscape.org/namespaces/inkscape"
   xmlns:sodipodi="http://sodipodi.sourceforge.net/DTD/sodipodi-0.dtd"
   xmlns:xlink="http://www.w3.org/1999/xlink"
   xmlns="http://www.w3.org/2000/svg"
   xmlns:svg="http://www.w3.org/2000/svg"
   xmlns:rdf="http://www.w3.org/1999/02/22-rdf-syntax-ns#"
   xmlns:cc="http://creativecommons.org/ns#"
   xmlns:dc="http://purl.org/dc/elements/1.1/">
  <title
     id="title3004">Suru Icon Theme Template</title>
  <sodipodi:namedview
     stroke="#ef2929"
     fill="#f57900"
     id="base"
     pagecolor="#ffffff"
     bordercolor="#000000"
     borderopacity="0.25490196"
     inkscape:pageopacity="0"
     inkscape:pageshadow="2"
     inkscape:zoom="2"
     inkscape:cx="287"
     inkscape:cy="132"
     inkscape:current-layer="layer6"
     showgrid="false"
     inkscape:grid-bbox="true"
     inkscape:document-units="px"
     inkscape:showpageshadow="false"
     inkscape:window-width="1920"
     inkscape:window-height="1020"
     inkscape:window-x="0"
     inkscape:window-y="32"
     width="400px"
     height="300px"
     inkscape:snap-nodes="true"
     inkscape:snap-bbox="true"
     gridtolerance="10000"
     inkscape:object-nodes="true"
     inkscape:snap-grids="true"
     showguides="true"
     inkscape:guide-bbox="true"
     inkscape:window-maximized="1"
     inkscape:bbox-paths="true"
     inkscape:snap-bbox-midpoints="true"
     inkscape:snap-global="true"
     inkscape:object-paths="true"
     inkscape:snap-intersection-paths="true"
     inkscape:snap-smooth-nodes="true"
     inkscape:pagecheckerboard="false"
     showborder="false"
     inkscape:document-rotation="0"
     inkscape:deskcolor="#d1d1d1">
    <inkscape:grid
       spacingy="1"
       spacingx="1"
       id="grid5883"
       type="xygrid"
       enabled="true"
       visible="true"
       empspacing="4"
       snapvisiblegridlinesonly="true"
       originx="0"
       originy="0" />
    <inkscape:grid
       type="xygrid"
       id="grid11592"
       empspacing="2"
       visible="true"
       enabled="false"
       spacingx="0.5"
       spacingy="0.5"
       color="#ff0000"
       opacity="0.1254902"
       empcolor="#ff0000"
       empopacity="0.25098039"
       snapvisiblegridlinesonly="true"
       originx="0"
       originy="0" />
  </sodipodi:namedview>
  <defs
     id="defs3">
    <linearGradient
       id="a"
       x1="23.932795"
       x2="8.7911654"
       y1="46.115501"
       y2="7.6056881"
       gradientUnits="userSpaceOnUse">
      <stop
         stop-color="#333"
         offset="0"
         id="stop22" />
      <stop
         stop-color="#4d4d4d"
         offset="1"
         id="stop24" />
    </linearGradient>
    <linearGradient
       id="d"
       x1="29.597948"
       x2="24.622061"
       y1="26.466421"
       y2="4.5896759"
       gradientTransform="matrix(0.67524112,0.66559465,0.71395451,-0.62950353,-6.987196,14.25434)"
       gradientUnits="userSpaceOnUse">
      <stop
         stop-color="#241f1c"
         offset="0"
         id="stop37" />
      <stop
         stop-color="#4d4d4d"
         offset="1"
         id="stop39" />
    </linearGradient>
    <radialGradient
       id="c"
       cx="47.015461"
       cy="40.96669"
       r="15.734342"
       gradientTransform="matrix(1,0,0,0.98511746,0,0.609689)"
       gradientUnits="userSpaceOnUse">
      <stop
         stop-color="#ed4c5c"
         offset="0"
         id="stop32" />
      <stop
         stop-color="#f55"
         offset="1"
         id="stop34" />
    </radialGradient>
    <radialGradient
       id="b"
       cx="47.015461"
       cy="40.96669"
       r="15.734341"
       gradientTransform="matrix(1,0,0,0.98511739,0,0.609691)"
       gradientUnits="userSpaceOnUse">
      <stop
         stop-color="#ffce31"
         offset="0"
         id="stop27" />
      <stop
         stop-color="#ffd42a"
         offset="1"
         id="stop29" />
    </radialGradient>
    <linearGradient
       inkscape:collect="always"
       xlink:href="#a"
       id="linearGradient255"
       gradientUnits="userSpaceOnUse"
       x1="23.932795"
       y1="46.115501"
       x2="8.7911654"
       y2="7.6056881"
       gradientTransform="matrix(5.0909091,0,0,5.0909091,29.81848,33.818182)" />
    <linearGradient
       inkscape:collect="always"
       xlink:href="#a"
       id="linearGradient360"
       gradientUnits="userSpaceOnUse"
       x1="23.932795"
       y1="46.115501"
       x2="8.7911654"
       y2="7.6056881"
       gradientTransform="matrix(5.0909091,0,0,5.0909091,29.81848,33.818182)" />
    <linearGradient
       inkscape:collect="always"
       xlink:href="#a"
       id="linearGradient380"
       gradientUnits="userSpaceOnUse"
       x1="23.932795"
       y1="46.115501"
       x2="8.7911654"
       y2="7.6056881"
       gradientTransform="matrix(1.0454545,0,0,1.0454545,318.90915,58.909092)" />
    <linearGradient
       inkscape:collect="always"
       xlink:href="#d"
       id="linearGradient382"
       gradientUnits="userSpaceOnUse"
       gradientTransform="matrix(0.70593387,0.69584892,0.74640696,-0.6581173,311.60435,73.811356)"
       x1="29.597948"
       y1="26.466421"
       x2="24.622061"
       y2="4.5896759" />
    <linearGradient
       inkscape:collect="always"
       xlink:href="#a"
       id="linearGradient384"
       gradientUnits="userSpaceOnUse"
       x1="23.932795"
       y1="46.115501"
       x2="8.7911654"
       y2="7.6056881"
       gradientTransform="matrix(1.0454545,0,0,1.0454545,318.90915,58.909092)" />
    <radialGradient
       inkscape:collect="always"
       xlink:href="#c"
       id="radialGradient386"
       gradientUnits="userSpaceOnUse"
       gradientTransform="matrix(-0.45593678,-0.13273698,-0.13273696,0.45593678,385.16656,73.408697)"
       cx="47.015461"
       cy="40.96669"
       r="15.734342" />
    <radialGradient
       inkscape:collect="always"
       xlink:href="#b"
       id="radialGradient388"
       gradientUnits="userSpaceOnUse"
       gradientTransform="matrix(-0.30957776,-0.09012743,-0.09012743,0.30957772,376.56739,77.393642)"
       cx="47.015461"
       cy="40.96669"
       r="15.734341" />
    <linearGradient
       inkscape:collect="always"
       xlink:href="#a"
       id="linearGradient402"
       gradientUnits="userSpaceOnUse"
       x1="23.932795"
       y1="46.115501"
       x2="8.7911654"
       y2="7.6056881"
       gradientTransform="matrix(0.68181818,0,0,0.68181818,319.6364,131.63636)" />
    <linearGradient
       inkscape:collect="always"
       xlink:href="#d"
       id="linearGradient404"
       gradientUnits="userSpaceOnUse"
       gradientTransform="matrix(0.46039167,0.45381453,0.48678716,-0.42920695,314.8724,141.35523)"
       x1="29.597948"
       y1="26.466421"
       x2="24.622061"
       y2="4.5896759" />
    <linearGradient
       inkscape:collect="always"
       xlink:href="#a"
       id="linearGradient406"
       gradientUnits="userSpaceOnUse"
       x1="23.932795"
       y1="46.115501"
       x2="8.7911654"
       y2="7.6056881"
       gradientTransform="matrix(0.68181818,0,0,0.68181818,319.6364,131.63636)" />
    <radialGradient
       inkscape:collect="always"
       xlink:href="#c"
       id="radialGradient408"
       gradientUnits="userSpaceOnUse"
       gradientTransform="matrix(-0.29735009,-0.0865676,-0.08656759,0.29735009,362.84775,141.09262)"
       cx="47.015461"
       cy="40.96669"
       r="15.734342" />
    <radialGradient
       inkscape:collect="always"
       xlink:href="#b"
       id="radialGradient410"
       gradientUnits="userSpaceOnUse"
       gradientTransform="matrix(-0.20189855,-0.05877876,-0.05877876,0.20189852,357.2396,143.69151)"
       cx="47.015461"
       cy="40.96669"
       r="15.734341" />
    <linearGradient
       inkscape:collect="always"
       xlink:href="#a"
       id="linearGradient424"
       gradientUnits="userSpaceOnUse"
       x1="23.932795"
       y1="46.115501"
       x2="8.7911654"
       y2="7.6056881"
       gradientTransform="matrix(0.52272727,0,0,0.52272727,319.45458,187.45455)" />
    <linearGradient
       inkscape:collect="always"
       xlink:href="#d"
       id="linearGradient426"
       gradientUnits="userSpaceOnUse"
       gradientTransform="matrix(0.35296695,0.34792447,0.37320349,-0.32905866,315.80218,194.90568)"
       x1="29.597948"
       y1="26.466421"
       x2="24.622061"
       y2="4.5896759" />
    <linearGradient
       inkscape:collect="always"
       xlink:href="#a"
       id="linearGradient428"
       gradientUnits="userSpaceOnUse"
       x1="23.932795"
       y1="46.115501"
       x2="8.7911654"
       y2="7.6056881"
       gradientTransform="matrix(0.52272727,0,0,0.52272727,319.45458,187.45455)" />
    <radialGradient
       inkscape:collect="always"
       xlink:href="#c"
       id="radialGradient430"
       gradientUnits="userSpaceOnUse"
       gradientTransform="matrix(-0.2279684,-0.06636849,-0.06636849,0.2279684,352.58328,194.70435)"
       cx="47.015461"
       cy="40.96669"
       r="15.734342" />
    <radialGradient
       inkscape:collect="always"
       xlink:href="#b"
       id="radialGradient432"
       gradientUnits="userSpaceOnUse"
       gradientTransform="matrix(-0.15478889,-0.04506372,-0.04506372,0.15478887,348.2837,196.69683)"
       cx="47.015461"
       cy="40.96669"
       r="15.734341" />
    <linearGradient
       inkscape:collect="always"
       xlink:href="#a"
       id="linearGradient446"
       gradientUnits="userSpaceOnUse"
       x1="23.932795"
       y1="46.115501"
       x2="8.7911654"
       y2="7.6056881"
       gradientTransform="matrix(0.34090909,0,0,0.34090909,319.8182,235.81818)" />
    <linearGradient
       inkscape:collect="always"
       xlink:href="#d"
       id="linearGradient448"
       gradientUnits="userSpaceOnUse"
       gradientTransform="matrix(0.23019584,0.22690727,0.24339358,-0.21460348,317.4362,240.67761)"
       x1="29.597948"
       y1="26.466421"
       x2="24.622061"
       y2="4.5896759" />
    <linearGradient
       inkscape:collect="always"
       xlink:href="#a"
       id="linearGradient450"
       gradientUnits="userSpaceOnUse"
       x1="23.932795"
       y1="46.115501"
       x2="8.7911654"
       y2="7.6056881"
       gradientTransform="matrix(0.34090909,0,0,0.34090909,319.8182,235.81818)" />
    <radialGradient
       inkscape:collect="always"
       xlink:href="#c"
       id="radialGradient452"
       gradientUnits="userSpaceOnUse"
       gradientTransform="matrix(-0.14867504,-0.0432838,-0.0432838,0.14867504,341.42388,240.54631)"
       cx="47.015461"
       cy="40.96669"
       r="15.734342" />
    <radialGradient
       inkscape:collect="always"
       xlink:href="#b"
       id="radialGradient454"
       gradientUnits="userSpaceOnUse"
       gradientTransform="matrix(-0.10094927,-0.02938938,-0.02938938,0.10094926,338.6198,241.84575)"
       cx="47.015461"
       cy="40.96669"
       r="15.734341" />
    <linearGradient
       inkscape:collect="always"
       xlink:href="#d"
       id="linearGradient461"
       gradientUnits="userSpaceOnUse"
       gradientTransform="matrix(3.4375912,3.3884819,3.6346775,-3.2047452,-5.7526997,106.38573)"
       x1="29.597948"
       y1="26.466421"
       x2="24.622061"
       y2="4.5896759" />
    <radialGradient
       inkscape:collect="always"
       xlink:href="#c"
       id="radialGradient463"
       gradientUnits="userSpaceOnUse"
       gradientTransform="matrix(-2.220214,-0.6463714,-0.64637134,2.220214,352.46326,104.42496)"
       cx="47.015461"
       cy="40.96669"
       r="15.734342" />
    <radialGradient
       inkscape:collect="always"
       xlink:href="#b"
       id="radialGradient465"
       gradientUnits="userSpaceOnUse"
       gradientTransform="matrix(-1.5075092,-0.43888142,-0.43888144,1.507509,310.58907,123.82991)"
       cx="47.015461"
       cy="40.96669"
       r="15.734341" />
  </defs>
  <metadata
     id="metadata4">
    <rdf:RDF>
      <cc:Work
         rdf:about="">
        <dc:format>image/svg+xml</dc:format>
        <dc:type
           rdf:resource="http://purl.org/dc/dcmitype/StillImage" />
        <dc:creator>
          <cc:Agent>
            <dc:title>Sam Hewitt</dc:title>
          </cc:Agent>
        </dc:creator>
        <dc:source />
        <cc:license
           rdf:resource="http://creativecommons.org/licenses/by-sa/4.0/" />
        <dc:title>Suru Icon Theme Template</dc:title>
        <dc:subject>
          <rdf:Bag />
        </dc:subject>
        <dc:date />
        <dc:rights>
          <cc:Agent>
            <dc:title />
          </cc:Agent>
        </dc:rights>
        <dc:publisher>
          <cc:Agent>
            <dc:title />
          </cc:Agent>
        </dc:publisher>
        <dc:identifier />
        <dc:relation />
        <dc:language />
        <dc:coverage />
        <dc:description />
        <dc:contributor>
          <cc:Agent>
            <dc:title />
          </cc:Agent>
        </dc:contributor>
      </cc:Work>
      <cc:Work
         rdf:about="">
        <dc:format>image/svg+xml</dc:format>
        <dc:type
           rdf:resource="http://purl.org/dc/dcmitype/StillImage" />
      </cc:Work>
      <cc:License
         rdf:about="http://creativecommons.org/licenses/by-sa/4.0/">
        <cc:permits
           rdf:resource="http://creativecommons.org/ns#Reproduction" />
        <cc:permits
           rdf:resource="http://creativecommons.org/ns#Distribution" />
        <cc:requires
           rdf:resource="http://creativecommons.org/ns#Notice" />
        <cc:requires
           rdf:resource="http://creativecommons.org/ns#Attribution" />
        <cc:permits
           rdf:resource="http://creativecommons.org/ns#DerivativeWorks" />
        <cc:requires
           rdf:resource="http://creativecommons.org/ns#ShareAlike" />
      </cc:License>
    </rdf:RDF>
  </metadata>
  <g
     style="display:inline"
     inkscape:groupmode="layer"
     inkscape:label="Icon"
     id="layer1">
    <g
       style="display:none"
       inkscape:label="Baseplate"
       id="layer7"
       inkscape:groupmode="layer">
      <text
         y="-8.2548828"
         xml:space="preserve"
         x="19.006836"
         style="font-style:normal;font-variant:normal;font-weight:normal;font-stretch:normal;line-height:0%;font-family:'DejaVu Sans';-inkscape-font-specification:'DejaVu Sans';display:inline;fill:#000000;fill-opacity:1;stroke:none;enable-background:new"
         inkscape:label="context"
         id="context"><tspan
           style="font-style:normal;font-variant:normal;font-weight:normal;font-stretch:normal;font-size:18px;line-height:1.25;font-family:'DejaVu Sans';-inkscape-font-specification:'DejaVu Sans'"
           y="-8.2548828"
           x="19.006836"
           sodipodi:role="line"
           id="tspan3933">apps</tspan></text>
      <text
         y="-8.2548828"
         xml:space="preserve"
         x="146.48828"
         style="font-style:normal;font-variant:normal;font-weight:bold;font-stretch:normal;line-height:0%;font-family:'DejaVu Sans';-inkscape-font-specification:'DejaVu Sans Bold';text-align:start;writing-mode:lr-tb;text-anchor:start;display:inline;fill:#000000;fill-opacity:1;stroke:none;enable-background:new"
         inkscape:label="icon-name"
         id="icon-name"><tspan
           style="font-style:normal;font-variant:normal;font-weight:bold;font-stretch:normal;font-size:18px;line-height:1.25;font-family:'DejaVu Sans';-inkscape-font-specification:'DejaVu Sans Bold'"
           y="-8.2548828"
           x="146.48828"
           sodipodi:role="line"
           id="tspan924">gnome-mines</tspan></text>
      <rect
         style="display:inline;overflow:visible;visibility:visible;fill:#cdcdcd;fill-opacity:1;fill-rule:nonzero;stroke:none;stroke-width:2;marker:none;enable-background:accumulate"
         id="rect16x16"
         width="16"
         height="16"
         x="320"
         y="236"
         inkscape:label="16x16" />
      <rect
         style="display:inline;overflow:visible;visibility:visible;fill:#cdcdcd;fill-opacity:1;fill-rule:nonzero;stroke:none;stroke-width:2;marker:none;enable-background:accumulate"
         id="rect24x24"
         width="24"
         height="24"
         x="320"
         y="188"
         inkscape:label="24x24" />
      <rect
         style="display:inline;overflow:visible;visibility:visible;fill:#cdcdcd;fill-opacity:1;fill-rule:nonzero;stroke:none;stroke-width:2;marker:none;enable-background:accumulate"
         id="rect32x32"
         width="32"
         height="32"
         x="320"
         y="132"
         inkscape:label="32x32" />
      <rect
         inkscape:label="48x48"
         y="60"
         x="320"
         height="48"
         width="48"
         id="rect48x48"
         style="display:inline;overflow:visible;visibility:visible;fill:#cdcdcd;fill-opacity:1;fill-rule:nonzero;stroke:none;stroke-width:2;marker:none;enable-background:accumulate" />
      <rect
         style="display:inline;overflow:visible;visibility:visible;fill:#cdcdcd;fill-opacity:1;fill-rule:nonzero;stroke:none;stroke-width:2;marker:none;enable-background:accumulate"
         id="rect256x256"
         width="256"
         height="256"
         x="24"
         y="28"
         inkscape:label="256x256" />
    </g>
    <g
       inkscape:groupmode="layer"
       id="layer2"
       inkscape:label="Background"
       style="display:inline">
      <circle
         cx="146.20718"
         cy="167.94548"
         r="100.05452"
         fill="url(#a)"
         id="circle42"
         style="fill:url(#linearGradient360);stroke-width:5.09091" />
      <path
         d="M 48.665095,94.988667 75.952691,68.155867 93.234835,84.983218 65.492449,111.81602 Z"
         fill="url(#a)"
         id="path46"
         style="fill:url(#linearGradient255);stroke-width:5.09091" />
      <circle
         cx="342.81039"
         cy="86.453087"
         r="20.546909"
         fill="url(#a)"
         id="circle368"
         style="fill:url(#linearGradient380);stroke-width:1.04545" />
      <path
         d="m 322.77944,71.470887 5.6037,-5.510306 3.54901,3.455616 -5.6971,5.510308 z"
         fill="url(#a)"
         id="path372"
         style="fill:url(#linearGradient384);stroke-width:1.04545" />
      <circle
         cx="335.22418"
         cy="149.59984"
         r="13.400159"
         fill="url(#a)"
         id="circle390"
         style="fill:url(#linearGradient402);stroke-width:0.681818" />
      <path
         d="m 322.1605,139.82884 3.65459,-3.59368 2.31457,2.25366 -3.7155,3.59368 z"
         fill="url(#a)"
         id="path394"
         style="fill:url(#linearGradient406);stroke-width:0.681818" />
      <circle
         cx="331.40521"
         cy="201.22655"
         r="10.273455"
         fill="url(#a)"
         id="circle412"
         style="fill:url(#linearGradient424);stroke-width:0.522727" />
      <path
         d="m 321.38972,193.73545 2.80185,-2.75516 1.77451,1.72781 -2.84855,2.75516 z"
         fill="url(#a)"
         id="path416"
         style="fill:url(#linearGradient428);stroke-width:0.522727" />
      <circle
         cx="327.61209"
         cy="244.79991"
         r="6.7000794"
         fill="url(#a)"
         id="circle434"
         style="fill:url(#linearGradient446);stroke-width:0.340909" />
      <path
         d="m 321.08025,239.91442 1.82729,-1.79684 1.15729,1.12683 -1.85775,1.79684 z"
         fill="url(#a)"
         id="path438"
         style="fill:url(#linearGradient450);stroke-width:0.340909" />
    </g>
    <g
       inkscape:groupmode="layer"
       id="layer6"
       inkscape:label="Pictogram"
       style="display:inline">
      <path
         d="m 83.86689,44.360325 c 34.61258,-5.702281 98.48515,57.257815 140.78517,119.225725 l -8.69335,4.46296 C 175.92498,110.48704 115.45775,51.282599 86.865578,55.679197 71.171558,58.309559 66.112646,80.135809 67.177913,100.01004 l -9.148116,0.0448 C 56.335713,62.785616 69.640915,47.989518 83.86689,44.360325 Z"
         fill="url(#d)"
         id="path44"
         style="display:inline;enable-background:new;fill:url(#linearGradient461);stroke-width:5.09091" />
      <path
         d="m 191.10571,184.9136 c 0.0228,0.0346 19.79711,-5.85374 19.8303,-5.82927 0.0332,0.0246 0.50567,20.84338 0.54521,20.85482 0.0395,0.0114 11.55237,-17.34171 11.59349,-17.34469 0.0411,-0.003 13.61986,15.52993 13.65761,15.51289 0.0378,-0.017 -2.09787,-20.7153 -2.06804,-20.74435 0.0299,-0.029 20.36114,2.94986 20.37944,2.91231 0.0184,-0.0375 -14.76648,-14.39597 -14.76191,-14.43748 0.005,-0.0415 17.57524,-11.01049 17.56552,-11.05097 -0.01,-0.0405 -20.5257,-1.34061 -20.54853,-1.37517 -0.0228,-0.0346 6.56568,-19.81891 6.5325,-19.84338 -0.0332,-0.0246 -16.68071,12.34204 -16.72025,12.33061 -0.0395,-0.0114 -7.51604,-19.35384 -7.55716,-19.35086 -0.0411,0.003 -5.03064,20.24972 -5.06839,20.26676 -0.0378,0.017 -18.08091,-9.83289 -18.11074,-9.80385 -0.0299,0.029 8.97333,18.68232 8.95503,18.71986 -0.0184,0.0375 -20.18552,4.28898 -20.19009,4.33049 -0.005,0.0415 18.77858,8.37326 18.78829,8.41374 0.01,0.0405 -12.84511,16.40398 -12.82228,16.43854 z"
         fill="url(#c)"
         id="path48"
         style="display:inline;enable-background:new;fill:url(#radialGradient463);stroke-width:2.32979" />
      <path
         d="m 201.02846,178.48111 13.46463,-3.95803 0.37019,14.16027 7.8719,-11.77692 9.27341,10.53314 -1.40418,-14.08526 13.8375,1.97743 -10.02324,-9.80294 11.92687,-7.50353 -13.9523,-0.93373 4.43551,-13.47351 -11.35293,8.37239 -5.13126,-13.13908 -3.44139,13.76097 -12.29706,-6.65674 6.0804,12.71065 -13.70893,2.94037 12.75712,5.71287 z"
         fill="url(#b)"
         id="path50"
         style="display:inline;enable-background:new;fill:url(#radialGradient465);stroke-width:1.58191" />
      <path
         d="m 330.00838,61.073996 c 7.10794,-1.171004 20.22462,11.7583 28.91123,24.483852 l -1.78524,0.916502 c -8.22121,-11.820761 -20.63859,-23.978815 -26.51019,-23.075943 -3.22288,0.540164 -4.26176,5.02234 -4.043,9.103656 l -1.87863,0.0092 c -0.3479,-7.653502 2.38442,-10.691986 5.30583,-11.437267 z"
         fill="url(#d)"
         id="path370"
         style="display:inline;enable-background:new;fill:url(#linearGradient382);stroke-width:1.04545" />
      <path
         d="m 352.03063,89.937614 c 0.005,0.0071 4.06548,-1.202107 4.0723,-1.197082 0.007,0.005 0.10384,4.280337 0.11196,4.282685 0.008,0.0023 2.37236,-3.561243 2.38081,-3.561856 0.008,-6.04e-4 2.79693,3.189182 2.80468,3.185683 0.008,-0.0035 -0.43081,-4.254035 -0.42468,-4.259999 0.006,-0.006 4.1813,0.605773 4.18506,0.598063 0.004,-0.0077 -3.0324,-2.956315 -3.03146,-2.96484 9.4e-4,-0.0085 3.6092,-2.261083 3.6072,-2.269396 -0.002,-0.0083 -4.2151,-0.275303 -4.21978,-0.282401 -0.005,-0.0071 1.34831,-4.069953 1.34149,-4.074979 -0.007,-0.005 -3.4255,2.534526 -3.43362,2.532178 -0.008,-0.0023 -1.54347,-3.974448 -1.55192,-3.973836 -0.008,6.04e-4 -1.03308,4.158423 -1.04083,4.161923 -0.008,0.0035 -3.71304,-2.019254 -3.71917,-2.01329 -0.006,0.006 1.84274,3.836547 1.83898,3.844257 -0.004,0.0077 -4.14524,0.880772 -4.14618,0.889297 -9.4e-4,0.0085 3.85632,1.719509 3.85831,1.727821 0.002,0.0083 -2.63783,3.368675 -2.63315,3.375772 z"
         fill="url(#c)"
         id="path374"
         style="display:inline;enable-background:new;fill:url(#radialGradient386);stroke-width:0.478439" />
      <path
         d="m 354.06834,88.616656 2.76506,-0.81281 0.076,2.907912 1.61655,-2.418475 1.90436,2.163056 -0.28836,-2.892508 2.84163,0.40608 -2.05834,-2.013105 2.44926,-1.540903 -2.8652,-0.191748 0.91086,-2.766881 -2.3314,1.71933 -1.05374,-2.698205 -0.70672,2.825915 -2.52529,-1.367009 1.24866,2.610222 -2.81523,0.603827 2.61977,1.173177 z"
         fill="url(#b)"
         id="path376"
         style="display:inline;enable-background:new;fill:url(#radialGradient388);stroke-width:0.324857" />
      <path
         d="m 326.87503,133.04825 c 4.63561,-0.76369 13.18997,7.66846 18.85515,15.96773 l -1.16429,0.59772 c -5.36166,-7.70919 -13.45995,-15.63836 -17.28925,-15.04953 -2.10188,0.35229 -2.77941,3.27544 -2.63674,5.93717 l -1.2252,0.006 c -0.22688,-4.99141 1.55506,-6.97303 3.46033,-7.45909 z"
         fill="url(#d)"
         id="path392"
         style="display:inline;enable-background:new;fill:url(#linearGradient404);stroke-width:0.681818" />
      <path
         d="m 341.23737,151.87235 c 0.003,0.005 2.6514,-0.78398 2.65584,-0.78071 0.004,0.003 0.0677,2.79153 0.073,2.79306 0.005,0.002 1.54719,-2.32255 1.5527,-2.32295 0.006,-3.9e-4 1.82409,2.0799 1.82914,2.07762 0.005,-0.002 -0.28096,-2.77437 -0.27697,-2.77826 0.004,-0.004 2.72694,0.39507 2.72939,0.39004 0.002,-0.005 -1.97765,-1.92803 -1.97704,-1.93359 6.2e-4,-0.006 2.35383,-1.47462 2.35253,-1.48004 -10e-4,-0.005 -2.74898,-0.17955 -2.75204,-0.18418 -0.003,-0.005 0.87933,-2.65432 0.87489,-2.65759 -0.004,-0.003 -2.23402,1.65295 -2.23932,1.65142 -0.005,-0.002 -1.00661,-2.59203 -1.01212,-2.59163 -0.006,3.9e-4 -0.67375,2.71201 -0.6788,2.71429 -0.005,0.002 -2.42155,-1.3169 -2.42555,-1.31301 -0.004,0.004 1.20179,2.50209 1.19934,2.50712 -0.002,0.005 -2.70342,0.57442 -2.70403,0.57998 -6.2e-4,0.006 2.51499,1.12142 2.51629,1.12684 0.001,0.005 -1.72033,2.19696 -1.71727,2.20159 z"
         fill="url(#c)"
         id="path396"
         style="display:inline;enable-background:new;fill:url(#radialGradient408);stroke-width:0.312026" />
      <path
         d="m 342.56631,151.01086 1.80329,-0.53009 0.0496,1.89646 1.05428,-1.57726 1.24197,1.41069 -0.18806,-1.88642 1.85324,0.26483 -1.3424,-1.31289 1.59735,-1.00494 -1.86861,-0.12505 0.59404,-1.80449 -1.52048,1.1213 -0.68723,-1.7597 -0.4609,1.84299 -1.64692,-0.89153 0.81434,1.70232 -1.83602,0.3938 1.70854,0.76512 z"
         fill="url(#b)"
         id="path398"
         style="display:inline;enable-background:new;fill:url(#radialGradient410);stroke-width:0.211863" />
      <path
         d="m 325.00419,188.537 c 3.55397,-0.5855 10.11232,5.87915 14.45562,12.24193 l -0.89262,0.45825 c -4.1106,-5.91038 -10.31929,-11.98941 -13.2551,-11.53797 -1.61144,0.27008 -2.13088,2.51117 -2.0215,4.55183 l -0.93931,0.005 c -0.17395,-3.82676 1.19221,-5.346 2.65291,-5.71864 z"
         fill="url(#d)"
         id="path414"
         style="display:inline;enable-background:new;fill:url(#linearGradient426);stroke-width:0.522727" />
      <path
         d="m 336.01532,202.96881 c 0.002,0.004 2.03274,-0.60106 2.03615,-0.59854 0.003,0.003 0.0519,2.14017 0.056,2.14134 0.004,0.001 1.18618,-1.78062 1.1904,-1.78093 0.004,-3e-4 1.39847,1.59459 1.40235,1.59284 0.004,-0.002 -0.21541,-2.12701 -0.21235,-2.13 0.003,-0.003 2.09066,0.30289 2.09254,0.29904 0.002,-0.004 -1.51621,-1.47816 -1.51574,-1.48242 4.8e-4,-0.004 1.8046,-1.13055 1.80361,-1.1347 -0.001,-0.004 -2.10755,-0.13765 -2.1099,-0.1412 -0.002,-0.004 0.67416,-2.03498 0.67075,-2.03749 -0.003,-0.003 -1.71275,1.26726 -1.71681,1.26609 -0.004,-0.001 -0.77174,-1.98723 -0.77596,-1.98692 -0.004,3e-4 -0.51654,2.07921 -0.52041,2.08096 -0.004,0.002 -1.85653,-1.00963 -1.85959,-1.00665 -0.003,0.003 0.92137,1.91828 0.91949,1.92213 -0.002,0.004 -2.07262,0.44039 -2.07309,0.44465 -4.7e-4,0.004 1.92816,0.85976 1.92916,0.86391 9.9e-4,0.004 -1.31892,1.68434 -1.31658,1.68789 z"
         fill="url(#c)"
         id="path418"
         style="display:inline;enable-background:new;fill:url(#radialGradient430);stroke-width:0.23922" />
      <path
         d="m 337.03417,202.30834 1.38253,-0.40641 0.038,1.45396 0.80828,-1.20924 0.95218,1.08153 -0.14418,-1.44626 1.42081,0.20304 -1.02917,-1.00655 1.22464,-0.77045 -1.43261,-0.0959 0.45544,-1.38345 -1.16571,0.85967 -0.52687,-1.3491 -0.35335,1.41295 -1.26265,-0.6835 0.62433,1.30511 -1.40761,0.30191 1.30988,0.58659 z"
         fill="url(#b)"
         id="path420"
         style="display:inline;enable-background:new;fill:url(#radialGradient432);stroke-width:0.162428" />
      <path
         d="m 323.43751,236.52413 c 2.31781,-0.38185 6.59499,3.83423 9.42758,7.98386 l -0.58214,0.29886 c -2.68083,-3.85459 -6.72998,-7.81918 -8.64463,-7.52476 -1.05094,0.17614 -1.38971,1.63772 -1.31837,2.96858 l -0.6126,0.003 c -0.11344,-2.49571 0.77753,-3.48652 1.73016,-3.72954 z"
         fill="url(#d)"
         id="path436"
         style="display:inline;enable-background:new;fill:url(#linearGradient448);stroke-width:0.340909" />
      <path
         d="m 330.61869,245.93618 c 0.002,0.002 1.3257,-0.39199 1.32792,-0.39035 0.002,0.002 0.0339,1.39576 0.0365,1.39652 0.003,7.7e-4 0.7736,-1.16127 0.77635,-1.16147 0.003,-2e-4 0.91204,1.03995 0.91457,1.03881 0.003,-0.001 -0.14048,-1.38719 -0.13848,-1.38913 0.002,-0.002 1.36347,0.19753 1.36469,0.19502 10e-4,-0.003 -0.98882,-0.96402 -0.98852,-0.9668 3.1e-4,-0.003 1.17691,-0.73731 1.17626,-0.74002 -6.4e-4,-0.003 -1.37449,-0.0898 -1.37601,-0.0921 -0.002,-0.002 0.43966,-1.32716 0.43744,-1.3288 -0.002,-0.002 -1.11701,0.82647 -1.11966,0.82571 -0.003,-7.7e-4 -0.50331,-1.29602 -0.50606,-1.29582 -0.003,2e-4 -0.33687,1.35601 -0.3394,1.35715 -0.003,0.001 -1.21078,-0.65845 -1.21277,-0.65651 -0.002,0.002 0.60089,1.25105 0.59966,1.25357 -0.001,0.003 -1.35171,0.2872 -1.35201,0.28998 -3.1e-4,0.003 1.25749,0.56071 1.25814,0.56342 6.5e-4,0.003 -0.86016,1.09848 -0.85863,1.1008 z"
         fill="url(#c)"
         id="path440"
         style="display:inline;enable-background:new;fill:url(#radialGradient452);stroke-width:0.156013" />
      <path
         d="m 331.28315,245.50543 0.90165,-0.26505 0.0248,0.94823 0.52714,-0.78863 0.62099,0.70534 -0.094,-0.94321 0.92661,0.13242 -0.67119,-0.65645 0.79867,-0.50246 -0.93431,-0.0625 0.29702,-0.90224 -0.76024,0.56065 -0.34361,-0.87985 -0.23045,0.92149 -0.82346,-0.44576 0.40717,0.85116 -0.91801,0.1969 0.85427,0.38255 z"
         fill="url(#b)"
         id="path442"
         style="display:inline;enable-background:new;fill:url(#radialGradient454);stroke-width:0.105932" />
    </g>
  </g>
</svg>
