<?xml version="1.0" encoding="UTF-8" standalone="no"?>
<svg
   inkscape:export-ydpi="90.000000"
   inkscape:export-xdpi="90.000000"
   width="400"
   height="300"
   id="svg11300"
   sodipodi:version="0.32"
   inkscape:version="1.2.2 (b0a8486541, 2022-12-01)"
   sodipodi:docname="gparted.svg"
   inkscape:output_extension="org.inkscape.output.svg.inkscape"
   version="1.0"
   style="display:inline;enable-background:new"
   inkscape:export-filename="/home/sam/suru-template.png"
   xmlns:inkscape="http://www.inkscape.org/namespaces/inkscape"
   xmlns:sodipodi="http://sodipodi.sourceforge.net/DTD/sodipodi-0.dtd"
   xmlns:xlink="http://www.w3.org/1999/xlink"
   xmlns="http://www.w3.org/2000/svg"
   xmlns:svg="http://www.w3.org/2000/svg"
   xmlns:rdf="http://www.w3.org/1999/02/22-rdf-syntax-ns#"
   xmlns:cc="http://creativecommons.org/ns#"
   xmlns:dc="http://purl.org/dc/elements/1.1/">
  <title
     id="title3004">Suru Icon Theme Template</title>
  <sodipodi:namedview
     stroke="#ef2929"
     fill="#f57900"
     id="base"
     pagecolor="#ffffff"
     bordercolor="#000000"
     borderopacity="0.25490196"
     inkscape:pageopacity="0"
     inkscape:pageshadow="2"
     inkscape:zoom="1.4142136"
     inkscape:cx="371.23106"
     inkscape:cy="190.21172"
     inkscape:current-layer="layer7"
     showgrid="false"
     inkscape:grid-bbox="true"
     inkscape:document-units="px"
     inkscape:showpageshadow="false"
     inkscape:window-width="1920"
     inkscape:window-height="1020"
     inkscape:window-x="0"
     inkscape:window-y="32"
     width="400px"
     height="300px"
     inkscape:snap-nodes="true"
     inkscape:snap-bbox="true"
     gridtolerance="10000"
     inkscape:object-nodes="true"
     inkscape:snap-grids="true"
     showguides="true"
     inkscape:guide-bbox="true"
     inkscape:window-maximized="1"
     inkscape:bbox-paths="true"
     inkscape:snap-bbox-midpoints="true"
     inkscape:snap-global="true"
     inkscape:object-paths="true"
     inkscape:snap-intersection-paths="true"
     inkscape:snap-smooth-nodes="true"
     inkscape:pagecheckerboard="false"
     showborder="false"
     inkscape:document-rotation="0"
     inkscape:deskcolor="#d1d1d1">
    <inkscape:grid
       spacingy="1"
       spacingx="1"
       id="grid5883"
       type="xygrid"
       enabled="true"
       visible="true"
       empspacing="4"
       snapvisiblegridlinesonly="true"
       originx="0"
       originy="0" />
    <inkscape:grid
       type="xygrid"
       id="grid11592"
       empspacing="2"
       visible="true"
       enabled="false"
       spacingx="0.5"
       spacingy="0.5"
       color="#ff0000"
       opacity="0.1254902"
       empcolor="#ff0000"
       empopacity="0.25098039"
       snapvisiblegridlinesonly="true"
       originx="0"
       originy="0" />
  </sodipodi:namedview>
  <defs
     id="defs3">
    <linearGradient
       id="a"
       x2="1"
       gradientTransform="matrix(0,-224.97488,224.97488,0,151.99999,267.99998)"
       gradientUnits="userSpaceOnUse">
      <stop
         stop-color="#b2b2b2"
         offset="0"
         id="stop282" />
      <stop
         stop-color="#e9e9e9"
         offset="1"
         id="stop284" />
    </linearGradient>
    <linearGradient
       inkscape:collect="always"
       xlink:href="#a"
       id="linearGradient483"
       gradientUnits="userSpaceOnUse"
       gradientTransform="matrix(0,-46.200198,46.200198,0,344,107)"
       x2="1" />
    <linearGradient
       inkscape:collect="always"
       xlink:href="#a"
       id="linearGradient499"
       gradientUnits="userSpaceOnUse"
       gradientTransform="matrix(0,-30.130565,30.130565,0,336.00002,163)"
       x2="1" />
    <linearGradient
       inkscape:collect="always"
       xlink:href="#a"
       id="linearGradient515"
       gradientUnits="userSpaceOnUse"
       gradientTransform="matrix(0,-23.1001,23.1001,0,332.00001,211.5)"
       x2="1" />
    <linearGradient
       inkscape:collect="always"
       xlink:href="#a"
       id="linearGradient531"
       gradientUnits="userSpaceOnUse"
       gradientTransform="matrix(0,-15.065281,15.065281,0,328.00001,251.5)"
       x2="1" />
  </defs>
  <metadata
     id="metadata4">
    <rdf:RDF>
      <cc:Work
         rdf:about="">
        <dc:format>image/svg+xml</dc:format>
        <dc:type
           rdf:resource="http://purl.org/dc/dcmitype/StillImage" />
        <dc:creator>
          <cc:Agent>
            <dc:title>Sam Hewitt</dc:title>
          </cc:Agent>
        </dc:creator>
        <dc:source />
        <cc:license
           rdf:resource="http://creativecommons.org/licenses/by-sa/4.0/" />
        <dc:title>Suru Icon Theme Template</dc:title>
        <dc:subject>
          <rdf:Bag />
        </dc:subject>
        <dc:date />
        <dc:rights>
          <cc:Agent>
            <dc:title />
          </cc:Agent>
        </dc:rights>
        <dc:publisher>
          <cc:Agent>
            <dc:title />
          </cc:Agent>
        </dc:publisher>
        <dc:identifier />
        <dc:relation />
        <dc:language />
        <dc:coverage />
        <dc:description />
        <dc:contributor>
          <cc:Agent>
            <dc:title />
          </cc:Agent>
        </dc:contributor>
      </cc:Work>
      <cc:Work
         rdf:about="">
        <dc:format>image/svg+xml</dc:format>
        <dc:type
           rdf:resource="http://purl.org/dc/dcmitype/StillImage" />
      </cc:Work>
      <cc:License
         rdf:about="http://creativecommons.org/licenses/by-sa/4.0/">
        <cc:permits
           rdf:resource="http://creativecommons.org/ns#Reproduction" />
        <cc:permits
           rdf:resource="http://creativecommons.org/ns#Distribution" />
        <cc:requires
           rdf:resource="http://creativecommons.org/ns#Notice" />
        <cc:requires
           rdf:resource="http://creativecommons.org/ns#Attribution" />
        <cc:permits
           rdf:resource="http://creativecommons.org/ns#DerivativeWorks" />
        <cc:requires
           rdf:resource="http://creativecommons.org/ns#ShareAlike" />
      </cc:License>
    </rdf:RDF>
  </metadata>
  <g
     style="display:inline"
     inkscape:groupmode="layer"
     inkscape:label="Icon"
     id="layer1">
    <g
       style="display:none"
       inkscape:label="Baseplate"
       id="layer7"
       inkscape:groupmode="layer">
      <text
         y="-8.2548828"
         xml:space="preserve"
         x="19.006836"
         style="font-style:normal;font-variant:normal;font-weight:normal;font-stretch:normal;line-height:0%;font-family:'DejaVu Sans';-inkscape-font-specification:'DejaVu Sans';display:inline;fill:#000000;fill-opacity:1;stroke:none;enable-background:new"
         inkscape:label="context"
         id="context"><tspan
           style="font-style:normal;font-variant:normal;font-weight:normal;font-stretch:normal;font-size:18px;line-height:1.25;font-family:'DejaVu Sans';-inkscape-font-specification:'DejaVu Sans'"
           y="-8.2548828"
           x="19.006836"
           sodipodi:role="line"
           id="tspan3933">apps</tspan></text>
      <text
         y="-8.2548828"
         xml:space="preserve"
         x="146.48828"
         style="font-style:normal;font-variant:normal;font-weight:bold;font-stretch:normal;line-height:0%;font-family:'DejaVu Sans';-inkscape-font-specification:'DejaVu Sans Bold';text-align:start;writing-mode:lr-tb;text-anchor:start;display:inline;fill:#000000;fill-opacity:1;stroke:none;enable-background:new"
         inkscape:label="icon-name"
         id="icon-name"><tspan
           style="font-style:normal;font-variant:normal;font-weight:bold;font-stretch:normal;font-size:18px;line-height:1.25;font-family:'DejaVu Sans';-inkscape-font-specification:'DejaVu Sans Bold'"
           y="-8.2548828"
           x="146.48828"
           sodipodi:role="line"
           id="tspan924">gparted</tspan></text>
      <rect
         style="display:inline;overflow:visible;visibility:visible;fill:#cdcdcd;fill-opacity:1;fill-rule:nonzero;stroke:none;stroke-width:2;marker:none;enable-background:accumulate"
         id="rect16x16"
         width="16"
         height="16"
         x="320"
         y="236"
         inkscape:label="16x16" />
      <rect
         style="display:inline;overflow:visible;visibility:visible;fill:#cdcdcd;fill-opacity:1;fill-rule:nonzero;stroke:none;stroke-width:2;marker:none;enable-background:accumulate"
         id="rect24x24"
         width="24"
         height="24"
         x="320"
         y="188"
         inkscape:label="24x24" />
      <rect
         style="display:inline;overflow:visible;visibility:visible;fill:#cdcdcd;fill-opacity:1;fill-rule:nonzero;stroke:none;stroke-width:2;marker:none;enable-background:accumulate"
         id="rect32x32"
         width="32"
         height="32"
         x="320"
         y="132"
         inkscape:label="32x32" />
      <rect
         inkscape:label="48x48"
         y="60"
         x="320"
         height="48"
         width="48"
         id="rect48x48"
         style="display:inline;overflow:visible;visibility:visible;fill:#cdcdcd;fill-opacity:1;fill-rule:nonzero;stroke:none;stroke-width:2;marker:none;enable-background:accumulate" />
      <rect
         style="display:inline;overflow:visible;visibility:visible;fill:#cdcdcd;fill-opacity:1;fill-rule:nonzero;stroke:none;stroke-width:2;marker:none;enable-background:accumulate"
         id="rect256x256"
         width="256"
         height="256"
         x="24"
         y="28"
         inkscape:label="256x256" />
    </g>
    <g
       inkscape:groupmode="layer"
       id="layer2"
       inkscape:label="Background"
       style="display:inline">
      <path
         d="m 151.99999,44.00007 c -61.443175,0 -111.999955,50.55676 -111.999955,111.99996 V 251.2 c 0,9.30719 7.492797,16.79999 16.79999,16.79999 h 95.199965 c 61.4432,0 111.99996,-50.55676 111.99996,-111.99996 0,-61.4432 -50.55676,-111.99996 -111.99996,-111.99996 z"
         fill="url(#a)"
         id="path453"
         style="display:inline;enable-background:new;fill:url(#a);fill-rule:nonzero;stroke-width:5.6" />
      <path
         d="m 344,61.000017 c -12.6178,0 -22.99999,10.382192 -22.99999,22.999992 V 103.55 c 0,1.9113 1.5387,3.45 3.45,3.45 H 344 c 12.6178,0 22.99999,-10.382191 22.99999,-22.999991 0,-12.6178 -10.38219,-22.999992 -22.99999,-22.999992 z"
         fill="url(#a)"
         id="path287"
         style="display:inline;fill:url(#linearGradient483);fill-rule:nonzero;stroke-width:1.15;enable-background:new" />
      <path
         d="m 336.00001,133.00001 c -8.229,0 -14.99999,6.77099 -14.99999,14.99999 v 12.75 c 0,1.2465 1.0035,2.25 2.25,2.25 h 12.74999 c 8.229,0 15,-6.771 15,-15 0,-8.229 -6.771,-14.99999 -15,-14.99999 z"
         fill="url(#a)"
         id="path485"
         style="display:inline;fill:url(#linearGradient499);fill-rule:nonzero;stroke-width:0.75;enable-background:new" />
      <path
         d="m 332,188.50001 c -6.3089,0 -11.5,5.19109 -11.5,11.49999 v 9.775 c 0,0.95564 0.76935,1.725 1.725,1.725 H 332 c 6.30889,0 11.5,-5.19111 11.5,-11.5 0,-6.3089 -5.19111,-11.49999 -11.5,-11.49999 z"
         fill="url(#a)"
         id="path501"
         style="display:inline;fill:url(#linearGradient515);fill-rule:nonzero;stroke-width:0.575;enable-background:new" />
      <path
         d="m 328,236.50001 c -4.1145,0 -7.5,3.38549 -7.5,7.49999 v 6.375 c 0,0.62325 0.50175,1.125 1.125,1.125 H 328 c 4.11449,0 7.5,-3.38551 7.5,-7.5 0,-4.1145 -3.38551,-7.49999 -7.5,-7.49999 z"
         fill="url(#a)"
         id="path517"
         style="display:inline;fill:url(#linearGradient531);fill-rule:nonzero;stroke-width:0.375;enable-background:new" />
    </g>
    <g
       inkscape:groupmode="layer"
       id="layer6"
       inkscape:label="Pictogram"
       style="display:inline">
      <path
         d="m 62.400025,156.00003 c 0,49.15119 40.448775,89.59997 89.599965,89.59997 V 189.60002 C 133.56482,189.60002 118.4,174.4352 118.4,156.00003 Z m 178.925555,0 c 0.0729,1.0808 0.12303,2.16718 0.15663,3.24797 0.0558,-1.08079 0.0951,-2.16717 0.11785,-3.24797 z"
         fill="#3d3d3d"
         id="path455"
         style="display:inline;enable-background:new;fill-rule:nonzero;stroke-width:5.6" />
      <path
         d="m 88.048015,93.35285 c -16.41359,16.72158 -25.61999,39.21121 -25.64799,62.64718 H 118.4 c 0.0207,-8.77519 3.47759,-17.19202 9.62638,-23.44719 -0.13439,0.12302 -0.2631,0.25225 -0.3975,0.38096 z"
         fill="#ffc107"
         id="path457"
         style="display:inline;enable-background:new;fill-rule:nonzero;stroke-width:5.6" />
      <path
         d="m 179.60796,175.12961 c -0.12871,0.17368 -0.26311,0.35253 -0.3975,0.52642 0.12871,-0.17937 0.26879,-0.34736 0.3975,-0.52642 z m -4.51915,5.25843 c -6.23285,5.90797 -14.49842,9.20639 -23.08882,9.21198 V 245.6 c 23.99599,-0.0155 46.2896,-9.61522 62.65276,-25.64802 z"
         fill="#ea3225"
         id="path459"
         style="display:inline;enable-background:new;fill-rule:nonzero;stroke-width:5.6" />
      <path
         d="m 151.99999,66.40006 c -24.06319,0.0258 -47.12957,9.74961 -63.951975,26.94721 l 39.580765,39.58637 c 6.33364,-6.70323 15.1536,-10.5168 24.37121,-10.5336 18.43517,0 33.59999,15.16482 33.59999,33.59999 -0.005,9.22319 -3.80799,18.05437 -10.51117,24.38801 l 39.60317,39.60875 c 17.1976,-16.84481 26.90239,-39.92799 26.90798,-63.99676 0,-49.15119 -40.44878,-89.59997 -89.59997,-89.59997 z"
         fill="#079140"
         id="path461"
         style="display:inline;enable-background:new;fill-rule:nonzero;stroke-width:5.6" />
      <path
         d="M 66.532825,262.02477 117.24079,197.664 c 0.72243,-0.86241 1.15921,-1.96558 1.15921,-3.16961 0,-2.69918 -2.19519,-4.89437 -4.9,-4.89437 -1.20398,0 -2.31279,0.4311 -3.16962,1.15921 l -64.355146,50.71359 c -3.740798,2.72719 -5.963998,7.13438 -5.975199,11.82715 0,8.1256 6.579999,14.70002 14.7056,14.70002 4.63679,0.0155 9.02159,-2.19519 11.82719,-5.97522 z"
         fill="#ffffff"
         id="path463"
         style="display:inline;enable-background:new;fill-rule:nonzero;stroke-width:5.6" />
      <circle
         cx="152"
         cy="156"
         r="11.199996"
         fill="#ffffff"
         stroke-width="5.6"
         id="circle465"
         style="display:inline;enable-background:new" />
      <path
         d="M 325.60001,84.000009 C 325.60001,94.093557 333.90645,102.4 344,102.4 V 90.900007 c -3.78579,0 -6.9,-3.114204 -6.9,-6.899998 z m 36.74364,0 c 0.015,0.22195 0.0253,0.445046 0.0322,0.666994 0.0115,-0.221948 0.0195,-0.445044 0.0242,-0.666994 z"
         fill="#3d3d3d"
         id="path289"
         style="display:inline;enable-background:new;fill-rule:nonzero;stroke-width:1.15" />
      <path
         d="m 330.867,71.134963 c -3.37064,3.433896 -5.26124,8.052302 -5.26699,12.865046 H 337.1 c 0.004,-1.802048 0.71415,-3.530504 1.97685,-4.815048 -0.0276,0.02526 -0.054,0.0518 -0.0816,0.07823 z"
         fill="#ffc107"
         id="path291"
         style="display:inline;enable-background:new;fill-rule:nonzero;stroke-width:1.15" />
      <path
         d="m 349.66949,87.928405 c -0.0264,0.03567 -0.054,0.07239 -0.0816,0.108104 0.0264,-0.03684 0.0552,-0.07133 0.0816,-0.108104 z m -0.92804,1.079856 C 347.46149,90.221505 345.7641,90.898859 344,90.900007 V 102.4 c 4.92775,-0.003 9.5059,-1.97455 12.86619,-5.267002 z"
         fill="#ea3225"
         id="path293"
         style="display:inline;enable-background:new;fill-rule:nonzero;stroke-width:1.15" />
      <path
         d="m 344,65.600015 c -4.94155,0.0053 -9.67839,2.002152 -13.133,5.533802 l 8.1282,8.129344 c 1.30066,-1.376556 3.1119,-2.1597 5.0048,-2.16315 3.78579,0 6.9,3.114204 6.9,6.899998 -10e-4,1.894048 -0.782,3.707594 -2.15855,5.008252 l 8.1328,8.133939 c 3.53165,-3.459202 5.52459,-8.199497 5.52574,-13.142191 0,-10.093548 -8.30644,-18.399994 -18.39999,-18.399994 z"
         fill="#079140"
         id="path295"
         style="display:inline;enable-background:new;fill-rule:nonzero;stroke-width:1.15" />
      <path
         d="M 326.44871,105.77295 336.86195,92.556002 C 337.01031,92.3789 337.1,92.152357 337.1,91.9051 c 0,-0.554295 -0.4508,-1.005093 -1.00625,-1.005093 -0.24724,0 -0.47495,0.08853 -0.6509,0.238052 l -13.21579,10.414401 c -0.7682,0.56004 -1.22475,1.46509 -1.22705,2.42879 0,1.66865 1.35125,3.01875 3.0199,3.01875 0.9522,0.003 1.85265,-0.4508 2.4288,-1.22705 z"
         fill="#ffffff"
         id="path297"
         style="display:inline;enable-background:new;fill-rule:nonzero;stroke-width:1.15" />
      <circle
         cx="344"
         cy="84"
         r="2.2999992"
         fill="#ffffff"
         stroke-width="1.15"
         id="circle301"
         style="display:inline;enable-background:new" />
      <path
         d="m 324.00002,148 c 0,6.58275 5.41724,12 11.99999,12 v -7.5 c -2.46899,0 -4.5,-2.031 -4.5,-4.5 z m 23.96324,0 c 0.01,0.14475 0.0165,0.29025 0.021,0.435 0.008,-0.14475 0.0127,-0.29025 0.0158,-0.435 z"
         fill="#3d3d3d"
         id="path487"
         style="display:inline;enable-background:new;fill-rule:nonzero;stroke-width:0.75" />
      <path
         d="m 327.43501,139.60975 c -2.19824,2.2395 -3.43124,5.25151 -3.43499,8.39025 h 7.49999 c 0.003,-1.17525 0.46575,-2.3025 1.28925,-3.14025 -0.018,0.0165 -0.0352,0.0338 -0.0532,0.051 z"
         fill="#ffc107"
         id="path489"
         style="display:inline;enable-background:new;fill-rule:nonzero;stroke-width:0.75" />
      <path
         d="m 339.69751,150.562 c -0.0172,0.0233 -0.0352,0.0472 -0.0532,0.0705 0.0172,-0.024 0.036,-0.0465 0.0532,-0.0705 z m -0.60525,0.70425 c -0.83475,0.79125 -1.94175,1.233 -3.09225,1.23375 v 7.5 c 3.21375,-0.002 6.1995,-1.28775 8.391,-3.435 z"
         fill="#ea3225"
         id="path491"
         style="display:inline;enable-background:new;fill-rule:nonzero;stroke-width:0.75" />
      <path
         d="m 336.00001,136.00001 c -3.22275,0.004 -6.31199,1.30575 -8.565,3.609 l 5.301,5.30174 c 0.84826,-0.89775 2.0295,-1.4085 3.264,-1.41075 2.469,0 4.5,2.03101 4.5,4.5 -6.5e-4,1.23525 -0.51,2.418 -1.40775,3.26625 l 5.304,5.30475 c 2.30325,-2.256 3.603,-5.3475 3.60375,-8.571 0,-6.58275 -5.41725,-11.99999 -12,-11.99999 z"
         fill="#079140"
         id="path493"
         style="display:inline;enable-background:new;fill-rule:nonzero;stroke-width:0.75" />
      <path
         d="m 324.55352,162.19975 6.79124,-8.61975 c 0.0968,-0.1155 0.15525,-0.26325 0.15525,-0.4245 0,-0.3615 -0.294,-0.6555 -0.65625,-0.6555 -0.16124,0 -0.30975,0.0577 -0.4245,0.15525 l -8.61899,6.792 c -0.501,0.36525 -0.79875,0.9555 -0.80025,1.584 0,1.08825 0.88125,1.96875 1.9695,1.96875 0.621,0.002 1.20825,-0.294 1.584,-0.80025 z"
         fill="#ffffff"
         id="path495"
         style="display:inline;enable-background:new;fill-rule:nonzero;stroke-width:0.75" />
      <circle
         cx="336"
         cy="148"
         r="1.4999995"
         fill="#ffffff"
         stroke-width="0.75"
         id="circle497"
         style="display:inline;enable-background:new" />
      <path
         d="m 322.80001,200 c 0,5.04678 4.15322,9.19999 9.19999,9.19999 v -5.75 c -1.89289,0 -3.45,-1.5571 -3.45,-3.44999 z m 18.37182,0 c 0.008,0.11098 0.0127,0.22253 0.0161,0.33349 0.006,-0.11097 0.01,-0.22252 0.0121,-0.33349 z"
         fill="#3d3d3d"
         id="path503"
         style="display:inline;enable-background:new;fill-rule:nonzero;stroke-width:0.575" />
      <path
         d="m 325.4335,193.56747 c -1.68532,1.71695 -2.63062,4.02615 -2.63349,6.43253 H 328.55 c 0.002,-0.90102 0.35708,-1.76526 0.98843,-2.40753 -0.0138,0.0127 -0.027,0.0259 -0.0408,0.0391 z"
         fill="#ffc107"
         id="path505"
         style="display:inline;enable-background:new;fill-rule:nonzero;stroke-width:0.575" />
      <path
         d="m 334.83475,201.9642 c -0.0132,0.0179 -0.027,0.0362 -0.0408,0.054 0.0132,-0.0184 0.0276,-0.0357 0.0408,-0.054 z m -0.46402,0.53993 c -0.63998,0.60661 -1.48868,0.9453 -2.37073,0.94587 v 5.75 c 2.46388,-0.002 4.75295,-0.98727 6.4331,-2.6335 z"
         fill="#ea3225"
         id="path507"
         style="display:inline;enable-background:new;fill-rule:nonzero;stroke-width:0.575" />
      <path
         d="m 332,190.8 c -2.47078,0.003 -4.83919,1.00107 -6.56651,2.7669 l 4.0641,4.06467 c 0.65033,-0.68828 1.55595,-1.07985 2.50241,-1.08158 1.89289,0 3.44999,1.55711 3.44999,3.45 -4.9e-4,0.94703 -0.391,1.8538 -1.07927,2.50413 l 4.0664,4.06697 c 1.76582,-1.7296 2.7623,-4.09975 2.76287,-6.5711 0,-5.04677 -4.15321,-9.19999 -9.19999,-9.19999 z"
         fill="#079140"
         id="path509"
         style="display:inline;enable-background:new;fill-rule:nonzero;stroke-width:0.575" />
      <path
         d="m 323.22436,210.88648 5.20662,-6.60848 c 0.0742,-0.0885 0.11902,-0.20182 0.11902,-0.32545 0,-0.27715 -0.2254,-0.50255 -0.50313,-0.50255 -0.12362,0 -0.23748,0.0442 -0.32545,0.11903 l -6.60789,5.2072 c -0.3841,0.28002 -0.61237,0.73255 -0.61352,1.2144 0,0.83432 0.67562,1.50937 1.50995,1.50937 0.4761,0.002 0.92632,-0.2254 1.2144,-0.61352 z"
         fill="#ffffff"
         id="path511"
         style="display:inline;enable-background:new;fill-rule:nonzero;stroke-width:0.575" />
      <circle
         cx="332"
         cy="200"
         r="1.1499996"
         fill="#ffffff"
         stroke-width="0.575"
         id="circle513"
         style="display:inline;enable-background:new" />
      <path
         d="m 322.00001,244 c 0,3.29138 2.70862,6 5.99999,6 v -3.75 c -1.23449,0 -2.25,-1.01551 -2.25,-2.25 z m 11.98162,0 c 0.005,0.0724 0.008,0.14512 0.0105,0.2175 0.004,-0.0724 0.007,-0.14513 0.008,-0.2175 z"
         fill="#3d3d3d"
         id="path519"
         style="display:inline;enable-background:new;fill-rule:nonzero;stroke-width:0.375" />
      <path
         d="m 323.7175,239.80486 c -1.09912,1.11976 -1.71562,2.62576 -1.71749,4.19514 H 325.75 c 10e-4,-0.58762 0.23288,-1.15126 0.64463,-1.57014 -0.009,0.008 -0.0176,0.0169 -0.0266,0.0255 z"
         fill="#ffc107"
         id="path521"
         style="display:inline;enable-background:new;fill-rule:nonzero;stroke-width:0.375" />
      <path
         d="m 329.84875,245.281 c -0.009,0.0117 -0.0176,0.0236 -0.0266,0.0352 0.009,-0.012 0.018,-0.0233 0.0266,-0.0352 z m -0.30262,0.35212 c -0.41738,0.39563 -0.97088,0.6165 -1.54613,0.61688 V 250 c 1.60688,-0.001 3.09975,-0.64387 4.1955,-1.71751 z"
         fill="#ea3225"
         id="path523"
         style="display:inline;enable-background:new;fill-rule:nonzero;stroke-width:0.375" />
      <path
         d="m 328,238 c -1.61138,0.002 -3.15599,0.65287 -4.28251,1.80449 l 2.6505,2.65087 c 0.42413,-0.44887 1.01475,-0.70425 1.63201,-0.70536 1.23449,0 2.24999,1.0155 2.24999,2.25 -3.2e-4,0.61761 -0.255,1.209 -0.70387,1.63311 l 2.652,2.65238 c 1.15162,-1.128 1.8015,-2.67375 1.80187,-4.2855 0,-3.29138 -2.70861,-6 -5.99999,-5.99999 z"
         fill="#079140"
         id="path525"
         style="display:inline;enable-background:new;fill-rule:nonzero;stroke-width:0.375" />
      <path
         d="m 322.27676,251.09988 3.39562,-4.30988 c 0.0484,-0.0577 0.0776,-0.13162 0.0776,-0.21225 0,-0.18075 -0.147,-0.32775 -0.32813,-0.32775 -0.0806,0 -0.15488,0.0288 -0.21225,0.0776 l -4.30949,3.396 c -0.2505,0.18262 -0.39937,0.47775 -0.40012,0.792 0,0.54412 0.44062,0.98437 0.98475,0.98437 0.3105,0.001 0.60412,-0.147 0.792,-0.40011 z"
         fill="#ffffff"
         id="path527"
         style="display:inline;enable-background:new;fill-rule:nonzero;stroke-width:0.375" />
      <circle
         cx="328"
         cy="244"
         r="0.74999964"
         fill="#ffffff"
         stroke-width="0.375"
         id="circle529"
         style="display:inline;enable-background:new" />
    </g>
  </g>
</svg>
