<?xml version="1.0" encoding="UTF-8" standalone="no"?>
<svg
   inkscape:export-ydpi="90.000000"
   inkscape:export-xdpi="90.000000"
   width="400"
   height="300"
   id="svg11300"
   sodipodi:version="0.32"
   inkscape:version="1.2.2 (b0a8486541, 2022-12-01)"
   sodipodi:docname="jockey.svg"
   inkscape:output_extension="org.inkscape.output.svg.inkscape"
   version="1.0"
   style="display:inline;enable-background:new"
   inkscape:export-filename="/home/sam/suru-template.png"
   xmlns:inkscape="http://www.inkscape.org/namespaces/inkscape"
   xmlns:sodipodi="http://sodipodi.sourceforge.net/DTD/sodipodi-0.dtd"
   xmlns:xlink="http://www.w3.org/1999/xlink"
   xmlns="http://www.w3.org/2000/svg"
   xmlns:svg="http://www.w3.org/2000/svg"
   xmlns:rdf="http://www.w3.org/1999/02/22-rdf-syntax-ns#"
   xmlns:cc="http://creativecommons.org/ns#"
   xmlns:dc="http://purl.org/dc/elements/1.1/">
  <title
     id="title3004">Suru Icon Theme Template</title>
  <sodipodi:namedview
     stroke="#ef2929"
     fill="#f57900"
     id="base"
     pagecolor="#ffffff"
     bordercolor="#000000"
     borderopacity="0.25490196"
     inkscape:pageopacity="0"
     inkscape:pageshadow="2"
     inkscape:zoom="2.8284271"
     inkscape:cx="312.89475"
     inkscape:cy="152.73506"
     inkscape:current-layer="layer6"
     showgrid="false"
     inkscape:grid-bbox="true"
     inkscape:document-units="px"
     inkscape:showpageshadow="false"
     inkscape:window-width="1920"
     inkscape:window-height="1020"
     inkscape:window-x="0"
     inkscape:window-y="32"
     width="400px"
     height="300px"
     inkscape:snap-nodes="true"
     inkscape:snap-bbox="true"
     gridtolerance="10000"
     inkscape:object-nodes="true"
     inkscape:snap-grids="true"
     showguides="true"
     inkscape:guide-bbox="true"
     inkscape:window-maximized="1"
     inkscape:bbox-paths="true"
     inkscape:snap-bbox-midpoints="true"
     inkscape:snap-global="true"
     inkscape:object-paths="true"
     inkscape:snap-intersection-paths="true"
     inkscape:snap-smooth-nodes="true"
     inkscape:pagecheckerboard="false"
     showborder="false"
     inkscape:document-rotation="0"
     inkscape:deskcolor="#d1d1d1">
    <inkscape:grid
       spacingy="1"
       spacingx="1"
       id="grid5883"
       type="xygrid"
       enabled="true"
       visible="true"
       empspacing="4"
       snapvisiblegridlinesonly="true"
       originx="0"
       originy="0" />
    <inkscape:grid
       type="xygrid"
       id="grid11592"
       empspacing="2"
       visible="true"
       enabled="false"
       spacingx="0.5"
       spacingy="0.5"
       color="#ff0000"
       opacity="0.1254902"
       empcolor="#ff0000"
       empopacity="0.25098039"
       snapvisiblegridlinesonly="true"
       originx="0"
       originy="0" />
  </sodipodi:namedview>
  <defs
     id="defs3">
    <linearGradient
       id="a"
       x2="1"
       gradientTransform="matrix(0,-43.337,43.337,0,404.03,45.669)"
       gradientUnits="userSpaceOnUse">
      <stop
         stop-color="#565656"
         offset="0"
         id="stop22" />
      <stop
         stop-color="#bbb"
         offset="1"
         id="stop24" />
    </linearGradient>
    <linearGradient
       id="c"
       x2="1"
       gradientTransform="matrix(0,-186.08086,186.08086,0,2384.9703,249.04043)"
       gradientUnits="userSpaceOnUse"
       xlink:href="#b" />
    <linearGradient
       id="b">
      <stop
         stop-color="#dadada"
         offset="0"
         id="stop27" />
      <stop
         stop-color="#fff"
         offset="1"
         id="stop29" />
    </linearGradient>
    <linearGradient
       id="d"
       x2="1"
       gradientTransform="matrix(0,-206.75651,206.75651,0,1806.0521,259.37825)"
       gradientUnits="userSpaceOnUse"
       xlink:href="#b" />
    <linearGradient
       id="e"
       x2="1"
       gradientTransform="matrix(0,-21.766,21.766,0,605.04,34.629)"
       gradientUnits="userSpaceOnUse">
      <stop
         stop-color="#006783"
         offset="0"
         id="stop34" />
      <stop
         stop-color="#1bb1de"
         offset="1"
         id="stop36" />
    </linearGradient>
    <linearGradient
       inkscape:collect="always"
       xlink:href="#a"
       id="linearGradient365"
       gradientUnits="userSpaceOnUse"
       gradientTransform="matrix(0,-46.00106,46.00106,0,747.39163,107.00106)"
       x2="1" />
    <linearGradient
       inkscape:collect="always"
       xlink:href="#b"
       id="linearGradient367"
       gradientUnits="userSpaceOnUse"
       gradientTransform="matrix(0,-38.213032,38.213032,0,802.55638,103.10652)"
       x2="1" />
    <linearGradient
       inkscape:collect="always"
       xlink:href="#b"
       id="linearGradient369"
       gradientUnits="userSpaceOnUse"
       gradientTransform="matrix(0,-42.458924,42.458924,0,683.6714,105.22946)"
       x2="1" />
    <linearGradient
       inkscape:collect="always"
       xlink:href="#e"
       id="linearGradient371"
       gradientUnits="userSpaceOnUse"
       gradientTransform="matrix(0,-23.104023,23.104023,0,960.75833,95.282398)"
       x2="1" />
    <linearGradient
       inkscape:collect="always"
       xlink:href="#a"
       id="linearGradient385"
       gradientUnits="userSpaceOnUse"
       gradientTransform="matrix(0,-30.000692,30.000692,0,599.0815,163.00069)"
       x2="1" />
    <linearGradient
       inkscape:collect="always"
       xlink:href="#b"
       id="linearGradient387"
       gradientUnits="userSpaceOnUse"
       gradientTransform="matrix(0,-24.921543,24.921543,0,635.05852,160.46077)"
       x2="1" />
    <linearGradient
       inkscape:collect="always"
       xlink:href="#b"
       id="linearGradient389"
       gradientUnits="userSpaceOnUse"
       gradientTransform="matrix(0,-27.690604,27.690604,0,557.52483,161.8453)"
       x2="1" />
    <linearGradient
       inkscape:collect="always"
       xlink:href="#e"
       id="linearGradient391"
       gradientUnits="userSpaceOnUse"
       gradientTransform="matrix(0,-15.067842,15.067842,0,738.23371,155.35809)"
       x2="1" />
    <linearGradient
       inkscape:collect="always"
       xlink:href="#a"
       id="linearGradient405"
       gradientUnits="userSpaceOnUse"
       gradientTransform="matrix(0,-23.000531,23.000531,0,533.69582,211.50053)"
       x2="1" />
    <linearGradient
       inkscape:collect="always"
       xlink:href="#b"
       id="linearGradient407"
       gradientUnits="userSpaceOnUse"
       gradientTransform="matrix(0,-19.106517,19.106517,0,561.2782,209.55326)"
       x2="1" />
    <linearGradient
       inkscape:collect="always"
       xlink:href="#b"
       id="linearGradient409"
       gradientUnits="userSpaceOnUse"
       gradientTransform="matrix(0,-21.229463,21.229463,0,501.8357,210.61473)"
       x2="1" />
    <linearGradient
       inkscape:collect="always"
       xlink:href="#e"
       id="linearGradient411"
       gradientUnits="userSpaceOnUse"
       gradientTransform="matrix(0,-11.552012,11.552012,0,640.37917,205.6412)"
       x2="1" />
    <linearGradient
       inkscape:collect="always"
       xlink:href="#a"
       id="linearGradient425"
       gradientUnits="userSpaceOnUse"
       gradientTransform="matrix(0,-15.000346,15.000346,0,459.54075,251.50035)"
       x2="1" />
    <linearGradient
       inkscape:collect="always"
       xlink:href="#b"
       id="linearGradient427"
       gradientUnits="userSpaceOnUse"
       gradientTransform="matrix(0,-12.460772,12.460772,0,477.52926,250.23039)"
       x2="1" />
    <linearGradient
       inkscape:collect="always"
       xlink:href="#b"
       id="linearGradient429"
       gradientUnits="userSpaceOnUse"
       gradientTransform="matrix(0,-13.845302,13.845302,0,438.76242,250.92265)"
       x2="1" />
    <linearGradient
       inkscape:collect="always"
       xlink:href="#e"
       id="linearGradient431"
       gradientUnits="userSpaceOnUse"
       gradientTransform="matrix(0,-7.5339211,7.5339211,0,529.11686,247.67904)"
       x2="1" />
    <linearGradient
       inkscape:collect="always"
       xlink:href="#a"
       id="linearGradient438"
       gradientUnits="userSpaceOnUse"
       gradientTransform="matrix(0,-224.00517,224.00517,0,2116.3419,268.00517)"
       x2="1" />
    <linearGradient
       inkscape:collect="always"
       xlink:href="#e"
       id="linearGradient440"
       gradientUnits="userSpaceOnUse"
       gradientTransform="matrix(0,-112.50655,112.50655,0,3155.345,210.94037)"
       x2="1" />
  </defs>
  <metadata
     id="metadata4">
    <rdf:RDF>
      <cc:Work
         rdf:about="">
        <dc:format>image/svg+xml</dc:format>
        <dc:type
           rdf:resource="http://purl.org/dc/dcmitype/StillImage" />
        <dc:creator>
          <cc:Agent>
            <dc:title>Sam Hewitt</dc:title>
          </cc:Agent>
        </dc:creator>
        <dc:source />
        <cc:license
           rdf:resource="http://creativecommons.org/licenses/by-sa/4.0/" />
        <dc:title>Suru Icon Theme Template</dc:title>
        <dc:subject>
          <rdf:Bag />
        </dc:subject>
        <dc:date />
        <dc:rights>
          <cc:Agent>
            <dc:title />
          </cc:Agent>
        </dc:rights>
        <dc:publisher>
          <cc:Agent>
            <dc:title />
          </cc:Agent>
        </dc:publisher>
        <dc:identifier />
        <dc:relation />
        <dc:language />
        <dc:coverage />
        <dc:description />
        <dc:contributor>
          <cc:Agent>
            <dc:title />
          </cc:Agent>
        </dc:contributor>
      </cc:Work>
      <cc:Work
         rdf:about="">
        <dc:format>image/svg+xml</dc:format>
        <dc:type
           rdf:resource="http://purl.org/dc/dcmitype/StillImage" />
      </cc:Work>
      <cc:License
         rdf:about="http://creativecommons.org/licenses/by-sa/4.0/">
        <cc:permits
           rdf:resource="http://creativecommons.org/ns#Reproduction" />
        <cc:permits
           rdf:resource="http://creativecommons.org/ns#Distribution" />
        <cc:requires
           rdf:resource="http://creativecommons.org/ns#Notice" />
        <cc:requires
           rdf:resource="http://creativecommons.org/ns#Attribution" />
        <cc:permits
           rdf:resource="http://creativecommons.org/ns#DerivativeWorks" />
        <cc:requires
           rdf:resource="http://creativecommons.org/ns#ShareAlike" />
      </cc:License>
    </rdf:RDF>
  </metadata>
  <g
     style="display:inline"
     inkscape:groupmode="layer"
     inkscape:label="Icon"
     id="layer1">
    <g
       style="display:none"
       inkscape:label="Baseplate"
       id="layer7"
       inkscape:groupmode="layer">
      <text
         y="-8.2548828"
         xml:space="preserve"
         x="19.006836"
         style="font-style:normal;font-variant:normal;font-weight:normal;font-stretch:normal;line-height:0%;font-family:'DejaVu Sans';-inkscape-font-specification:'DejaVu Sans';display:inline;fill:#000000;fill-opacity:1;stroke:none;enable-background:new"
         inkscape:label="context"
         id="context"><tspan
           style="font-style:normal;font-variant:normal;font-weight:normal;font-stretch:normal;font-size:18px;line-height:1.25;font-family:'DejaVu Sans';-inkscape-font-specification:'DejaVu Sans'"
           y="-8.2548828"
           x="19.006836"
           sodipodi:role="line"
           id="tspan3933">apps</tspan></text>
      <text
         y="-8.2548828"
         xml:space="preserve"
         x="146.48828"
         style="font-style:normal;font-variant:normal;font-weight:bold;font-stretch:normal;line-height:0%;font-family:'DejaVu Sans';-inkscape-font-specification:'DejaVu Sans Bold';text-align:start;writing-mode:lr-tb;text-anchor:start;display:inline;fill:#000000;fill-opacity:1;stroke:none;enable-background:new"
         inkscape:label="icon-name"
         id="icon-name"><tspan
           style="font-style:normal;font-variant:normal;font-weight:bold;font-stretch:normal;font-size:18px;line-height:1.25;font-family:'DejaVu Sans';-inkscape-font-specification:'DejaVu Sans Bold'"
           y="-8.2548828"
           x="146.48828"
           sodipodi:role="line"
           id="tspan924">jockey</tspan></text>
      <rect
         style="display:inline;overflow:visible;visibility:visible;fill:#cdcdcd;fill-opacity:1;fill-rule:nonzero;stroke:none;stroke-width:2;marker:none;enable-background:accumulate"
         id="rect16x16"
         width="16"
         height="16"
         x="320"
         y="236"
         inkscape:label="16x16" />
      <rect
         style="display:inline;overflow:visible;visibility:visible;fill:#cdcdcd;fill-opacity:1;fill-rule:nonzero;stroke:none;stroke-width:2;marker:none;enable-background:accumulate"
         id="rect24x24"
         width="24"
         height="24"
         x="320"
         y="188"
         inkscape:label="24x24" />
      <rect
         style="display:inline;overflow:visible;visibility:visible;fill:#cdcdcd;fill-opacity:1;fill-rule:nonzero;stroke:none;stroke-width:2;marker:none;enable-background:accumulate"
         id="rect32x32"
         width="32"
         height="32"
         x="320"
         y="132"
         inkscape:label="32x32" />
      <rect
         inkscape:label="48x48"
         y="60"
         x="320"
         height="48"
         width="48"
         id="rect48x48"
         style="display:inline;overflow:visible;visibility:visible;fill:#cdcdcd;fill-opacity:1;fill-rule:nonzero;stroke:none;stroke-width:2;marker:none;enable-background:accumulate" />
      <rect
         style="display:inline;overflow:visible;visibility:visible;fill:#cdcdcd;fill-opacity:1;fill-rule:nonzero;stroke:none;stroke-width:2;marker:none;enable-background:accumulate"
         id="rect256x256"
         width="256"
         height="256"
         x="24"
         y="28"
         inkscape:label="256x256" />
    </g>
    <g
       inkscape:groupmode="layer"
       id="layer2"
       inkscape:label="Background"
       style="display:inline">
      <path
         d="M 264,76.191988 C 264,58.421266 249.57873,43.999999 231.80801,43.999999 H 72.191988 c -17.770722,0 -32.191989,14.421267 -32.191989,32.191989 V 235.80801 C 39.999999,253.57873 54.421266,268 72.191988,268 H 231.80801 C 249.57873,268 264,253.57873 264,235.80801 Z"
         fill="url(#a)"
         id="path39"
         style="fill:url(#linearGradient438);stroke-width:5.16891" />
      <path
         d="m 235.73639,62.959571 c 5.13273,0 9.30404,4.171313 9.30404,9.304043 V 239.73639 c 0,5.13273 -4.17131,9.30404 -9.30404,9.30404 H 68.263614 c -5.13273,0 -9.304043,-4.17131 -9.304043,-9.30404 V 72.263614 c 0,-5.13273 4.171313,-9.304043 9.304043,-9.304043 z"
         fill="url(#c)"
         id="path41"
         style="fill:url(#c);stroke-width:5.16891" />
      <path
         d="m 48.621746,223.19586 0.263614,-10.27062 10.074211,-0.0672 V 202.52021 H 48.621746 V 192.18239 H 58.959571 V 181.84456 H 48.621746 V 171.50674 H 58.959571 V 161.16891 H 48.621746 V 150.83109 H 58.959571 V 140.49326 H 48.621746 V 130.15544 H 58.959571 V 119.81761 H 48.621746 l 0.05686,-10.14141 10.280967,-0.19641 V 99.14196 H 48.621746 l 0.01551,-10.017353 10.322318,-0.320472 V 78.466309 H 48.621746 V 68.128484 h 11.304412 c 0.90456,-1.814288 2.388038,-3.297766 4.202326,-4.197157 V 52.621746 H 74.466309 V 62.959571 H 84.804135 V 52.621746 H 95.14196 v 10.337825 h 10.33783 V 52.621746 h 10.33782 v 10.337825 h 10.33783 V 52.621746 h 10.33782 v 10.337825 h 10.33783 V 52.621746 h 10.33782 v 10.337825 h 10.33783 V 52.621746 h 10.33782 v 10.337825 h 10.33783 V 52.621746 h 10.33782 v 10.337825 h 10.33783 V 52.621746 h 10.33782 v 10.337825 h 10.33783 V 52.621746 h 10.33783 v 11.309581 c 1.81428,0.899391 3.29776,2.382869 4.20232,4.197157 h 11.30441 v 10.337825 h -10.33782 v 10.337826 h 10.33782 V 99.14196 h -10.33782 v 10.33783 h 10.33782 v 10.33782 h -10.33782 v 10.33783 h 10.33782 v 10.33782 h -10.33782 v 10.33783 h 10.33782 v 10.33782 h -10.33782 v 10.33783 h 10.33782 v 10.33782 h -10.33782 v 10.33783 h 10.33782 v 10.33782 h -10.33782 v 10.33783 h 10.33782 v 10.33782 h -10.33782 v 10.33783 h 10.33782 v 10.33783 h -11.30441 c -0.90456,1.81428 -2.38804,3.29776 -4.20232,4.19715 v 11.30958 h -10.33783 v -10.33782 h -10.33783 v 10.33782 h -10.33782 v -10.33782 h -10.33783 v 10.33782 h -10.33782 v -10.33782 h -10.33783 v 10.33782 h -10.33782 v -10.33782 h -10.33783 v 10.33782 h -10.33782 v -10.33782 h -10.33783 v 10.33782 h -10.33782 v -10.33782 h -10.33783 v 10.33782 H 105.47979 V 249.04043 H 95.14196 v 10.33782 H 84.804135 V 249.04043 H 74.466309 v 10.33782 H 64.128484 v -11.30958 c -1.814288,-0.89939 -3.297766,-2.38287 -4.202326,-4.19715 H 48.621746 l 0.113716,-10.28097 10.224109,-0.0569 v -10.33783 z"
         fill="url(#d)"
         id="path43"
         style="fill:url(#d);stroke-width:5.16891" />
      <path
         d="m 224.36478,93.973047 c 0,-5.706479 -4.63135,-10.337825 -10.33783,-10.337825 H 89.973047 c -5.706479,0 -10.337825,4.631346 -10.337825,10.337825 V 218.02695 c 0,5.70648 4.631346,10.33783 10.337825,10.33783 H 214.02695 c 5.70648,0 10.33783,-4.63135 10.33783,-10.33783 z"
         fill="url(#e)"
         id="path45"
         style="fill:url(#linearGradient440);stroke-width:5.16891" />
      <path
         d="m 367,67.610856 c 0,-3.649345 -2.96151,-6.610855 -6.61085,-6.610855 h -32.77829 c -3.64934,0 -6.61085,2.96151 -6.61085,6.610855 v 32.778294 c 0,3.64934 2.96151,6.61085 6.61085,6.61085 h 32.77829 C 364.03849,107 367,104.03849 367,100.38915 Z"
         fill="url(#a)"
         id="path353"
         style="fill:url(#linearGradient365);stroke-width:1.06147" />
      <path
         d="m 361.19587,64.893485 c 1.05404,0 1.91065,0.856608 1.91065,1.910651 v 34.391724 c 0,1.05405 -0.85661,1.91066 -1.91065,1.91066 h -34.39173 c -1.05404,0 -1.91065,-0.85661 -1.91065,-1.91066 V 66.804136 c 0,-1.054043 0.85661,-1.910651 1.91065,-1.910651 z"
         fill="url(#c)"
         id="path355"
         style="fill:url(#linearGradient367);stroke-width:1.06147" />
      <path
         d="m 322.77054,97.799151 0.0541,-2.109147 2.06881,-0.0138 v -2.122946 h -2.12295 v -2.122946 h 2.12295 V 89.307366 H 322.7705 V 87.18442 h 2.12295 v -2.122947 h -2.12295 v -2.122946 h 2.12295 v -2.122946 h -2.12295 v -2.122946 h 2.12295 v -2.122946 h -2.12295 l 0.0117,-2.082611 2.11127,-0.04034 v -2.122946 h -2.12295 l 0.003,-2.057135 2.11976,-0.06581 v -2.122946 h -2.12295 v -2.122946 h 2.32144 c 0.18576,-0.372577 0.4904,-0.67722 0.86298,-0.861916 v -2.322504 h 2.12295 v 2.122947 h 2.12294 v -2.122947 h 2.12295 v 2.122947 h 2.12295 v -2.122947 h 2.12294 v 2.122947 h 2.12295 v -2.122947 h 2.12295 v 2.122947 h 2.12294 v -2.122947 h 2.12295 v 2.122947 h 2.12294 v -2.122947 h 2.12295 v 2.122947 h 2.12295 v -2.122947 h 2.12294 v 2.122947 h 2.12295 v -2.122947 h 2.12294 v 2.122947 h 2.12295 v -2.122947 h 2.12295 v 2.322504 c 0.37257,0.184696 0.67722,0.489339 0.86297,0.861916 h 2.32145 v 2.122946 h -2.12295 v 2.122946 h 2.12295 v 2.122946 h -2.12295 v 2.122946 h 2.12295 v 2.122947 h -2.12295 v 2.122946 h 2.12295 v 2.122946 h -2.12295 v 2.122946 h 2.12295 v 2.122946 h -2.12295 v 2.122947 h 2.12295 v 2.122946 h -2.12295 v 2.122946 h 2.12295 v 2.122946 h -2.12295 v 2.122946 h 2.12295 v 2.122947 h -2.12295 v 2.122946 h 2.12295 v 2.122946 h -2.32145 c -0.18575,0.37258 -0.4904,0.67722 -0.86297,0.86192 v 2.3225 h -2.12295 v -2.12294 h -2.12295 v 2.12294 H 355.676 v -2.12294 h -2.12295 v 2.12294 h -2.12294 v -2.12294 h -2.12295 v 2.12294 h -2.12295 v -2.12294 h -2.12294 v 2.12294 h -2.12295 v -2.12294 h -2.12294 v 2.12294 h -2.12295 v -2.12294 h -2.12295 v 2.12294 h -2.12294 v -2.12294 h -2.12295 v 2.12294 h -2.12295 v -2.12294 h -2.12294 v 2.12294 h -2.12295 v -2.3225 c -0.37258,-0.1847 -0.67722,-0.48934 -0.86298,-0.86192 h -2.32144 l 0.0233,-2.11127 2.0996,-0.01168 v -2.122946 z"
         fill="url(#d)"
         id="path357"
         style="fill:url(#linearGradient369);stroke-width:1.06147" />
      <path
         d="m 358.86063,71.262323 c 0,-1.171866 -0.95108,-2.122946 -2.12295,-2.122946 h -25.47535 c -1.17187,0 -2.12295,0.95108 -2.12295,2.122946 v 25.475355 c 0,1.171866 0.95108,2.122946 2.12295,2.122946 h 25.47535 c 1.17187,0 2.12295,-0.95108 2.12295,-2.122946 z"
         fill="url(#e)"
         id="path359"
         style="fill:url(#linearGradient371);stroke-width:1.06147" />
      <path
         d="M 351,137.31143 C 351,134.93142 349.06858,133 346.68858,133 H 325.31143 C 322.93142,133 321,134.93142 321,137.31143 v 21.37715 c 0,2.38 1.93142,4.31142 4.31143,4.31142 h 21.37715 c 2.38,0 4.31142,-1.93142 4.31142,-4.31142 z"
         fill="url(#a)"
         id="path373"
         style="fill:url(#linearGradient385);stroke-width:0.692265" />
      <path
         d="m 347.2147,135.53923 c 0.68742,0 1.24607,0.55866 1.24607,1.24608 v 22.42939 c 0,0.68742 -0.55865,1.24607 -1.24607,1.24607 h -22.42939 c -0.68742,0 -1.24608,-0.55865 -1.24608,-1.24607 v -22.42939 c 0,-0.68742 0.55866,-1.24608 1.24608,-1.24608 z"
         fill="url(#c)"
         id="path375"
         style="fill:url(#linearGradient387);stroke-width:0.692265" />
      <path
         d="m 322.1547,156.99945 0.0353,-1.37553 1.34922,-0.009 v -1.38453 h -1.38453 v -1.38453 h 1.38453 v -1.38453 h -1.38453 v -1.38453 h 1.38453 v -1.38453 h -1.38453 v -1.38453 h 1.38453 v -1.38453 h -1.38453 v -1.38453 h 1.38453 v -1.38453 h -1.38453 l 0.008,-1.35823 1.37691,-0.0263 v -1.38453 h -1.38453 l 0.002,-1.34161 1.38245,-0.0429 v -1.38453 h -1.38453 v -1.38453 h 1.51398 c 0.12115,-0.24299 0.31983,-0.44167 0.56282,-0.56212 v -1.51468 h 1.38453 v 1.38453 h 1.38453 v -1.38453 h 1.38453 v 1.38453 h 1.38453 v -1.38453 h 1.38453 v 1.38453 h 1.38453 v -1.38453 h 1.38453 v 1.38453 h 1.38453 v -1.38453 h 1.38453 v 1.38453 h 1.38453 v -1.38453 h 1.38453 v 1.38453 h 1.38453 v -1.38453 h 1.38453 v 1.38453 h 1.38453 v -1.38453 h 1.38453 v 1.38453 h 1.38453 v -1.38453 h 1.38453 v 1.51468 c 0.24298,0.12045 0.44166,0.31913 0.56281,0.56212 h 1.51398 v 1.38453 h -1.38453 v 1.38453 h 1.38453 v 1.38453 h -1.38453 v 1.38453 h 1.38453 v 1.38453 h -1.38453 v 1.38453 h 1.38453 v 1.38453 h -1.38453 v 1.38453 h 1.38453 v 1.38453 h -1.38453 v 1.38453 h 1.38453 v 1.38453 h -1.38453 v 1.38453 h 1.38453 v 1.38453 h -1.38453 v 1.38453 h 1.38453 v 1.38453 h -1.38453 v 1.38453 h 1.38453 v 1.38453 h -1.51398 c -0.12115,0.24298 -0.31983,0.44166 -0.56281,0.56212 v 1.51467 h -1.38453 v -1.38453 h -1.38453 v 1.38453 h -1.38453 v -1.38453 h -1.38453 v 1.38453 h -1.38453 v -1.38453 h -1.38453 v 1.38453 h -1.38453 v -1.38453 h -1.38453 v 1.38453 h -1.38453 v -1.38453 h -1.38453 v 1.38453 h -1.38453 v -1.38453 h -1.38453 v 1.38453 h -1.38453 v -1.38453 h -1.38453 v 1.38453 h -1.38453 v -1.38453 h -1.38453 v 1.38453 h -1.38453 v -1.51467 c -0.24299,-0.12046 -0.44167,-0.31914 -0.56282,-0.56212 h -1.51398 l 0.0152,-1.37692 1.3693,-0.008 v -1.38453 z"
         fill="url(#d)"
         id="path377"
         style="fill:url(#linearGradient389);stroke-width:0.692265" />
      <path
         d="m 345.69171,139.69282 c 0,-0.76426 -0.62027,-1.38453 -1.38453,-1.38453 h -16.61436 c -0.76426,0 -1.38453,0.62027 -1.38453,1.38453 v 16.61436 c 0,0.76426 0.62027,1.38453 1.38453,1.38453 h 16.61436 c 0.76426,0 1.38453,-0.62027 1.38453,-1.38453 z"
         fill="url(#e)"
         id="path379"
         style="fill:url(#linearGradient391);stroke-width:0.692265" />
      <path
         d="m 343.5,191.80543 c 0,-1.82468 -1.48076,-3.30543 -3.30543,-3.30543 h -16.38914 c -1.82468,0 -3.30543,1.48075 -3.30543,3.30543 v 16.38914 c 0,1.82467 1.48075,3.30543 3.30543,3.30543 h 16.38914 c 1.82467,0 3.30543,-1.48076 3.30543,-3.30543 z"
         fill="url(#a)"
         id="path393"
         style="fill:url(#linearGradient405);stroke-width:0.530737" />
      <path
         d="m 340.59793,190.44674 c 0.52702,0 0.95533,0.4283 0.95533,0.95533 v 17.19586 c 0,0.52702 -0.42831,0.95533 -0.95533,0.95533 h -17.19586 c -0.52703,0 -0.95533,-0.42831 -0.95533,-0.95533 v -17.19586 c 0,-0.52703 0.4283,-0.95533 0.95533,-0.95533 z"
         fill="url(#c)"
         id="path395"
         style="fill:url(#linearGradient407);stroke-width:0.530737" />
      <path
         d="m 321.38527,206.89957 0.0271,-1.05457 1.03441,-0.007 v -1.06147 h -1.06147 v -1.06148 h 1.06147 v -1.06147 h -1.06147 v -1.06147 h 1.06147 v -1.06148 h -1.06147 v -1.06147 h 1.06147 v -1.06147 h -1.06147 v -1.06148 h 1.06147 v -1.06147 h -1.06147 l 0.006,-1.0413 1.05564,-0.0202 v -1.06147 h -1.06147 l 0.002,-1.02857 1.05988,-0.0329 v -1.06147 h -1.06147 v -1.06147 h 1.16072 c 0.0929,-0.18629 0.2452,-0.33861 0.43149,-0.43096 v -1.16125 h 1.06147 v 1.06147 h 1.06147 v -1.06147 h 1.06148 v 1.06147 h 1.06147 v -1.06147 h 1.06147 v 1.06147 h 1.06147 v -1.06147 h 1.06148 v 1.06147 h 1.06147 v -1.06147 h 1.06147 v 1.06147 h 1.06148 v -1.06147 h 1.06147 v 1.06147 h 1.06147 v -1.06147 h 1.06148 v 1.06147 h 1.06147 v -1.06147 h 1.06147 v 1.06147 h 1.06148 v -1.06147 h 1.06147 v 1.16125 c 0.18629,0.0924 0.33861,0.24467 0.43149,0.43096 h 1.16072 v 1.06147 h -1.06147 v 1.06147 h 1.06147 v 1.06148 h -1.06147 v 1.06147 h 1.06147 v 1.06147 h -1.06147 v 1.06147 h 1.06147 v 1.06148 h -1.06147 v 1.06147 h 1.06147 v 1.06147 h -1.06147 v 1.06148 h 1.06147 v 1.06147 h -1.06147 v 1.06147 h 1.06147 v 1.06148 h -1.06147 v 1.06147 h 1.06147 v 1.06147 h -1.06147 v 1.06148 h 1.06147 v 1.06147 h -1.16072 c -0.0929,0.18629 -0.2452,0.33861 -0.43149,0.43096 v 1.16125 h -1.06147 v -1.06147 h -1.06148 v 1.06147 h -1.06147 v -1.06147 h -1.06147 v 1.06147 h -1.06148 v -1.06147 h -1.06147 v 1.06147 h -1.06147 v -1.06147 h -1.06148 v 1.06147 h -1.06147 v -1.06147 h -1.06147 v 1.06147 h -1.06148 v -1.06147 h -1.06147 v 1.06147 h -1.06147 v -1.06147 h -1.06147 v 1.06147 h -1.06148 v -1.06147 h -1.06147 v 1.06147 h -1.06147 v -1.16125 c -0.18629,-0.0924 -0.33861,-0.24467 -0.43149,-0.43096 h -1.16072 l 0.0117,-1.05564 1.0498,-0.006 v -1.06148 z"
         fill="url(#d)"
         id="path397"
         style="fill:url(#linearGradient409);stroke-width:0.530737" />
      <path
         d="m 339.43031,193.63116 c 0,-0.58593 -0.47554,-1.06147 -1.06147,-1.06147 h -12.73768 c -0.58593,0 -1.06147,0.47554 -1.06147,1.06147 v 12.73768 c 0,0.58593 0.47554,1.06147 1.06147,1.06147 h 12.73768 c 0.58593,0 1.06147,-0.47554 1.06147,-1.06147 z"
         fill="url(#e)"
         id="path399"
         style="fill:url(#linearGradient411);stroke-width:0.530737" />
      <path
         d="m 335.5,238.65571 c 0,-1.19 -0.96571,-2.15571 -2.15571,-2.15571 h -10.68858 c -1.19,0 -2.15571,0.96571 -2.15571,2.15571 v 10.68858 c 0,1.19 0.96571,2.15571 2.15571,2.15571 h 10.68858 c 1.19,0 2.15571,-0.96571 2.15571,-2.15571 z"
         fill="url(#a)"
         id="path413"
         style="fill:url(#linearGradient425);stroke-width:0.346133" />
      <path
         d="m 333.60735,237.76962 c 0.34371,0 0.62304,0.27932 0.62304,0.62303 v 11.2147 c 0,0.34371 -0.27933,0.62304 -0.62304,0.62304 h -11.2147 c -0.34371,0 -0.62303,-0.27933 -0.62303,-0.62304 v -11.2147 c 0,-0.34371 0.27932,-0.62303 0.62303,-0.62303 z"
         fill="url(#c)"
         id="path415"
         style="fill:url(#linearGradient427);stroke-width:0.346133" />
      <path
         d="m 321.07735,248.49972 0.0177,-0.68776 0.67462,-0.005 v -0.69227 h -0.69227 v -0.69226 h 0.69227 v -0.69227 h -0.69227 v -0.69226 h 0.69227 v -0.69227 h -0.69227 v -0.69226 h 0.69227 v -0.69227 h -0.69227 v -0.69226 h 0.69227 v -0.69227 h -0.69227 l 0.004,-0.67911 0.68846,-0.0132 v -0.69227 h -0.69227 l 0.001,-0.6708 0.69123,-0.0215 v -0.69227 h -0.69227 v -0.69226 h 0.75699 c 0.0606,-0.12149 0.15992,-0.22083 0.28141,-0.28106 v -0.75734 h 0.69226 v 0.69227 h 0.69227 v -0.69227 h 0.69226 v 0.69227 h 0.69227 v -0.69227 h 0.69226 v 0.69227 h 0.69227 v -0.69227 h 0.69226 v 0.69227 h 0.69227 v -0.69227 h 0.69226 v 0.69227 h 0.69227 v -0.69227 h 0.69226 v 0.69227 h 0.69227 v -0.69227 h 0.69226 v 0.69227 h 0.69227 v -0.69227 h 0.69226 v 0.69227 h 0.69227 v -0.69227 h 0.69226 v 0.75734 c 0.1215,0.0602 0.22084,0.15957 0.28141,0.28106 h 0.75699 v 0.69226 h -0.69226 v 0.69227 h 0.69226 v 0.69226 h -0.69226 v 0.69227 h 0.69226 v 0.69226 h -0.69226 v 0.69227 h 0.69226 v 0.69226 h -0.69226 v 0.69227 h 0.69226 v 0.69226 h -0.69226 v 0.69227 h 0.69226 v 0.69226 h -0.69226 v 0.69227 h 0.69226 v 0.69226 h -0.69226 v 0.69227 h 0.69226 v 0.69226 h -0.69226 v 0.69227 h 0.69226 v 0.69226 h -0.75699 c -0.0606,0.1215 -0.15991,0.22084 -0.28141,0.28106 v 0.75734 h -0.69226 v -0.69226 h -0.69227 v 0.69226 h -0.69226 v -0.69226 h -0.69227 v 0.69226 h -0.69226 v -0.69226 h -0.69227 v 0.69226 h -0.69226 v -0.69226 h -0.69227 v 0.69226 h -0.69226 v -0.69226 h -0.69227 v 0.69226 h -0.69226 v -0.69226 h -0.69227 v 0.69226 h -0.69226 v -0.69226 h -0.69227 v 0.69226 h -0.69226 v -0.69226 h -0.69227 v 0.69226 h -0.69226 v -0.75734 c -0.12149,-0.0602 -0.22083,-0.15956 -0.28141,-0.28106 h -0.75699 l 0.008,-0.68845 0.68465,-0.004 v -0.69227 z"
         fill="url(#d)"
         id="path417"
         style="fill:url(#linearGradient429);stroke-width:0.346133" />
      <path
         d="m 332.84586,239.84641 c 0,-0.38213 -0.31014,-0.69226 -0.69227,-0.69226 h -8.30718 c -0.38213,0 -0.69226,0.31013 -0.69226,0.69226 v 8.30718 c 0,0.38213 0.31013,0.69227 0.69226,0.69227 h 8.30718 c 0.38213,0 0.69227,-0.31014 0.69227,-0.69227 z"
         fill="url(#e)"
         id="path419"
         style="fill:url(#linearGradient431);stroke-width:0.346133" />
    </g>
    <g
       inkscape:groupmode="layer"
       id="layer6"
       inkscape:label="Pictogram"
       style="display:inline">
      <path
         d="m 161.23685,178.70703 c -8.27543,3.84567 -15.96677,3.80432 -21.13569,3.43216 -6.16134,-0.44453 -11.1235,-2.12959 -13.29961,-3.6079 -1.34392,-0.90973 -3.16854,-0.55824 -4.07827,0.78567 -0.90973,1.34392 -0.55824,3.16855 0.78567,4.07828 3.50453,2.37253 9.69688,4.13513 16.16836,4.60033 1.09581,0.0827 2.30017,0.12922 3.59757,0.12922 5.63411,0 12.78789,-0.53756 20.43788,-4.09378 1.46797,-0.68746 2.10891,-2.42939 1.42145,-3.90253 -0.6823,-1.46797 -2.42939,-2.10891 -3.89736,-1.42145 z m 32.63651,-4.35222 c 0.27912,-25.51375 2.90493,-73.71903 -45.93096,-69.82167 -48.215614,3.88185 -35.43289,54.81632 -36.15137,71.87373 -0.63578,9.02492 -3.62858,20.05538 -7.86192,31.28226 h 13.03083 c 1.34392,-4.7554 2.32601,-9.46428 2.74986,-13.94573 0.78568,0.54791 1.62821,1.07513 2.5276,1.58169 1.45763,0.86321 2.71368,2.00554 4.04209,3.21506 3.10135,2.8274 6.62138,6.03729 13.49603,6.4353 0.46003,0.0258 0.92524,0.0413 1.3801,0.0413 6.95736,0 11.71276,-3.04449 15.53775,-5.48939 1.8298,-1.17334 3.41148,-2.18645 4.90013,-2.67232 4.23334,-1.32325 7.92911,-3.46318 10.68931,-6.18202 0.43419,-0.42385 0.8322,-0.86321 1.20953,-1.30774 1.54033,5.63929 3.64925,11.99188 5.9856,18.3238 h 27.82943 c -6.68858,-10.31715 -13.57874,-20.43272 -13.43401,-33.33432 z m -77.4148,-13.87853 v -0.005 c -0.48071,-8.32712 3.50452,-15.32583 8.89569,-15.64113 5.39118,-0.3153 10.15175,6.18202 10.63246,14.50397 v 0.005 c 0.0258,0.44969 0.0362,0.89422 0.0362,1.33358 -1.70574,0.42902 -3.25125,1.05446 -4.63135,1.78327 l -0.0155,-0.18608 v -0.005 c -0.46004,-4.72438 -2.98246,-8.29093 -5.63929,-7.97046 -2.65165,0.32564 -4.42975,4.41942 -3.96455,9.14381 0.20159,2.06239 0.79084,3.90252 1.61787,5.29813 -0.20676,0.16024 -0.78568,0.58409 -1.45247,1.07513 -0.50138,0.367 -1.11648,0.81152 -1.85047,1.35426 -2.00554,-2.63615 -3.38047,-6.41979 -3.62857,-10.68931 z m 54.63023,20.57744 c -0.19125,4.39874 -5.94941,8.53904 -11.26306,10.19826 l -0.031,0.0103 c -2.21229,0.71848 -4.18165,1.9797 -6.26989,3.31328 -3.50452,2.2433 -7.1331,4.56415 -12.36921,4.56415 -0.34632,0 -0.6978,-0.0103 -1.04412,-0.031 -4.79675,-0.27912 -7.04006,-2.32084 -9.87779,-4.91047 -1.49899,-1.36459 -3.04966,-2.78087 -5.04486,-3.94904 l -0.0465,-0.0259 c -4.31087,-2.43456 -6.98837,-5.45837 -7.15894,-8.09969 -0.0827,-1.30773 0.50138,-2.44489 1.73675,-3.37013 2.68783,-2.01587 4.49179,-3.33395 5.68064,-4.20749 1.32324,-0.96659 1.72641,-1.25605 2.02104,-1.54034 0.21193,-0.19642 0.43936,-0.41868 0.68747,-0.66162 2.46557,-2.39837 6.59553,-6.41462 12.93778,-6.41462 3.87669,0 8.16689,1.49382 12.7362,4.42976 2.15027,1.40077 4.02659,2.04689 6.39912,2.86875 1.62821,0.56341 3.47868,1.19918 5.95459,2.25881 l 0.0413,0.0207 c 2.30533,0.94591 5.03452,2.67749 4.91046,5.54107 z m -1.27155,-10.33783 c -0.44452,-0.22226 -0.90973,-0.43418 -1.39044,-0.63577 -2.23297,-0.95108 -4.02141,-1.60236 -5.50489,-2.11926 0.82186,-1.60236 1.32841,-3.60273 1.37493,-5.77884 0.11372,-5.2878 -2.55344,-9.58316 -5.95458,-9.58833 -3.40632,-0.0103 -6.25439,4.26952 -6.3681,9.55732 -0.005,0.17574 -0.005,0.34631 0,0.51689 -2.09858,-0.96142 -4.16098,-1.66439 -6.17686,-2.09341 -0.0103,-0.20159 -0.0207,-0.39801 -0.0258,-0.5996 v -0.005 c -0.19642,-9.62968 5.71682,-17.60531 13.2014,-17.8069 7.48459,-0.20159 13.71313,7.43807 13.90955,17.07292 v 0.005 c 0.0879,4.35739 -1.07514,8.3633 -3.06517,11.47498 z"
         fill="#eeeeee"
         fill-rule="nonzero"
         id="path47"
         style="display:inline;enable-background:new;stroke-width:5.16891" />
      <path
         d="m 345.89686,88.663052 c -1.69942,0.789736 -3.27889,0.781244 -4.34037,0.704818 -1.26527,-0.09129 -2.28429,-0.437327 -2.73117,-0.740908 -0.27598,-0.18682 -0.65068,-0.114639 -0.8375,0.161344 -0.18682,0.275983 -0.11464,0.650683 0.16134,0.837502 0.71968,0.487216 1.99133,0.849178 3.32029,0.944711 0.22503,0.01698 0.47236,0.02654 0.73879,0.02654 1.157,0 2.62608,-0.110393 4.19706,-0.840687 0.30146,-0.141176 0.43308,-0.498892 0.29191,-0.801412 -0.14012,-0.301459 -0.49889,-0.433081 -0.80035,-0.291905 z m 6.70214,-0.893761 c 0.0573,-5.239431 0.59655,-15.138729 -9.43225,-14.338378 -9.90142,0.797166 -7.2764,11.256922 -7.42394,14.759783 -0.13057,1.853332 -0.74516,4.118516 -1.61451,6.424035 h 2.67598 c 0.27598,-0.976555 0.47766,-1.943557 0.5647,-2.863854 0.16135,0.112516 0.33437,0.220786 0.51906,0.324811 0.29934,0.177266 0.55728,0.411851 0.83007,0.660236 0.63689,0.580626 1.35975,1.239801 2.77151,1.321534 0.0945,0.0053 0.19,0.0085 0.28341,0.0085 1.42875,0 2.4053,-0.625208 3.19079,-1.127285 0.37576,-0.240954 0.70057,-0.449003 1.00628,-0.548781 0.86934,-0.271737 1.6283,-0.711187 2.19512,-1.269522 0.0892,-0.08704 0.1709,-0.177266 0.24839,-0.268553 0.31632,1.158067 0.7494,2.462618 1.22919,3.762922 h 5.71497 c -1.37355,-2.1187 -2.78849,-4.196003 -2.75877,-6.84544 z m -15.89768,-2.850055 v -0.0011 c -0.0987,-1.710034 0.71967,-3.147268 1.82679,-3.212018 1.10712,-0.06475 2.08473,1.269522 2.18345,2.978494 v 0.0011 c 0.005,0.09235 0.007,0.183635 0.007,0.27386 -0.35029,0.0881 -0.66767,0.216541 -0.95108,0.366208 l -0.003,-0.03821 v -0.0011 c -0.0945,-0.970187 -0.61247,-1.702603 -1.15807,-1.636792 -0.54454,0.06687 -0.90968,0.90756 -0.81415,1.877746 0.0414,0.423528 0.16241,0.801412 0.33224,1.08801 -0.0425,0.03291 -0.16134,0.119947 -0.29827,0.220787 -0.10297,0.07536 -0.22928,0.166651 -0.38001,0.278105 -0.41185,-0.541351 -0.6942,-1.318349 -0.74515,-2.195126 z m 11.2187,4.225725 c -0.0393,0.903313 -1.22175,1.753553 -2.31295,2.094286 l -0.006,0.0021 c -0.45431,0.147545 -0.85874,0.406544 -1.28757,0.680404 -0.71968,0.460679 -1.46483,0.937281 -2.54011,0.937281 -0.0711,0 -0.1433,-0.0021 -0.21441,-0.0064 -0.98505,-0.05732 -1.44573,-0.476601 -2.02848,-1.008399 -0.30783,-0.280229 -0.62627,-0.571073 -1.036,-0.810966 l -0.01,-0.0053 c -0.88527,-0.499954 -1.43511,-1.120916 -1.47014,-1.663329 -0.017,-0.268552 0.10296,-0.502076 0.35665,-0.69208 0.55197,-0.413975 0.92243,-0.68465 1.16656,-0.864039 0.27174,-0.198496 0.35454,-0.257938 0.41504,-0.316319 0.0435,-0.04034 0.0902,-0.08598 0.14118,-0.135869 0.50632,-0.492523 1.35444,-1.317288 2.65686,-1.317288 0.79611,0 1.67713,0.306766 2.61547,0.909683 0.44158,0.287659 0.82689,0.420343 1.31411,0.589117 0.33436,0.115701 0.71437,0.246262 1.22281,0.463864 l 0.009,0.0042 c 0.47341,0.194249 1.03387,0.549843 1.00839,1.137899 z m -0.26112,-2.122947 c -0.0913,-0.04564 -0.18682,-0.08916 -0.28553,-0.130561 -0.45856,-0.195311 -0.82583,-0.329057 -1.13047,-0.435204 0.16877,-0.329057 0.2728,-0.739847 0.28235,-1.186727 0.0233,-1.085887 -0.52437,-1.967971 -1.22282,-1.969032 -0.69951,-0.0021 -1.28438,0.876776 -1.30773,1.962663 -0.001,0.03609 -0.001,0.07112 0,0.106148 -0.43096,-0.197434 -0.85449,-0.341795 -1.26846,-0.429897 -0.002,-0.0414 -0.004,-0.08173 -0.005,-0.123131 v -0.0011 c -0.0403,-1.977525 1.17399,-3.615378 2.711,-3.656775 1.53701,-0.0414 2.81609,1.52746 2.85643,3.506046 v 0.0011 c 0.018,0.894822 -0.22079,1.717464 -0.62946,2.35647 z"
         fill="#eeeeee"
         fill-rule="nonzero"
         id="path361"
         style="display:inline;enable-background:new;stroke-width:1.06147" />
      <path
         d="m 337.23708,151.04112 c -1.10832,0.51505 -2.13841,0.50951 -2.83067,0.45967 -0.82518,-0.0595 -1.48976,-0.28522 -1.7812,-0.4832 -0.17999,-0.12184 -0.42436,-0.0748 -0.5462,0.10522 -0.12184,0.17999 -0.0748,0.42436 0.10523,0.5462 0.46935,0.31775 1.29869,0.55381 2.1654,0.61611 0.14676,0.0111 0.30806,0.0173 0.48182,0.0173 0.75457,0 1.71266,-0.072 2.73721,-0.54827 0.19661,-0.0921 0.28245,-0.32537 0.19038,-0.52266 -0.0914,-0.19661 -0.32537,-0.28245 -0.52197,-0.19038 z m 4.37096,-0.58288 c 0.0374,-3.41702 0.38905,-9.87309 -6.15147,-9.35112 -6.45744,0.51989 -4.74547,7.34147 -4.8417,9.62594 -0.0851,1.2087 -0.48597,2.68599 -1.05293,4.18959 h 1.7452 c 0.17999,-0.63688 0.31152,-1.26753 0.36828,-1.86773 0.10523,0.0734 0.21807,0.14399 0.33852,0.21183 0.19522,0.11561 0.36344,0.2686 0.54135,0.43059 0.41536,0.37867 0.88679,0.80857 1.80751,0.86187 0.0616,0.003 0.12391,0.006 0.18483,0.006 0.93179,0 1.56867,-0.40774 2.08095,-0.73518 0.24506,-0.15715 0.45689,-0.29283 0.65627,-0.3579 0.56696,-0.17722 1.06193,-0.46382 1.4316,-0.82795 0.0582,-0.0568 0.11146,-0.11561 0.16199,-0.17515 0.2063,0.75526 0.48874,1.60606 0.80164,2.45408 h 3.72716 c -0.89579,-1.38176 -1.81858,-2.73652 -1.7992,-4.46441 z m -10.36805,-1.85874 v -6.9e-4 c -0.0644,-1.11524 0.46935,-2.05256 1.19139,-2.09479 0.72203,-0.0422 1.3596,0.82795 1.42398,1.94249 v 7e-4 c 0.003,0.0602 0.005,0.11976 0.005,0.1786 -0.22845,0.0575 -0.43543,0.14122 -0.62027,0.23883 l -0.002,-0.0249 v -6.9e-4 c -0.0616,-0.63273 -0.39943,-1.1104 -0.75526,-1.06748 -0.35513,0.0436 -0.59327,0.59189 -0.53096,1.22462 0.027,0.27622 0.10591,0.52266 0.21667,0.70957 -0.0277,0.0215 -0.10522,0.0782 -0.19452,0.14399 -0.0672,0.0492 -0.14953,0.10869 -0.24783,0.18138 -0.2686,-0.35306 -0.45274,-0.8598 -0.48597,-1.43161 z m 7.31655,2.75591 c -0.0256,0.58912 -0.7968,1.14362 -1.50845,1.36584 l -0.004,0.001 c -0.29629,0.0962 -0.56004,0.26514 -0.83972,0.44375 -0.46936,0.30044 -0.95533,0.61127 -1.65659,0.61127 -0.0464,0 -0.0935,-10e-4 -0.13984,-0.004 -0.64242,-0.0374 -0.94286,-0.31082 -1.32292,-0.65765 -0.20075,-0.18276 -0.40843,-0.37244 -0.67565,-0.52889 l -0.006,-0.003 c -0.57735,-0.32606 -0.93594,-0.73103 -0.95878,-1.08478 -0.0111,-0.17514 0.0672,-0.32744 0.2326,-0.45136 0.35997,-0.26998 0.60158,-0.44651 0.7608,-0.5635 0.17722,-0.12945 0.23121,-0.16822 0.27067,-0.2063 0.0284,-0.0263 0.0588,-0.0561 0.0921,-0.0886 0.33021,-0.32121 0.88333,-0.8591 1.73274,-0.8591 0.5192,0 1.09378,0.20007 1.70574,0.59327 0.28799,0.18761 0.53928,0.27414 0.85703,0.38421 0.21806,0.0755 0.46589,0.16061 0.79749,0.30252 l 0.006,0.003 c 0.30875,0.12669 0.67426,0.35859 0.65765,0.74211 z m -0.1703,-1.38453 c -0.0595,-0.0298 -0.12184,-0.0581 -0.18622,-0.0851 -0.29906,-0.12737 -0.53858,-0.2146 -0.73726,-0.28383 0.11007,-0.2146 0.17791,-0.48251 0.18414,-0.77395 0.0152,-0.70819 -0.34198,-1.28346 -0.79749,-1.28415 -0.4562,-0.001 -0.83764,0.57181 -0.85287,1.28 -6.9e-4,0.0235 -6.9e-4,0.0464 0,0.0692 -0.28106,-0.12876 -0.55727,-0.22291 -0.82726,-0.28036 -0.001,-0.027 -0.003,-0.0533 -0.003,-0.0803 v -6.9e-4 c -0.0263,-1.28969 0.76565,-2.35785 1.76805,-2.38485 1.0024,-0.027 1.83658,0.99617 1.86288,2.28655 v 6.9e-4 c 0.0118,0.58358 -0.14399,1.12009 -0.41051,1.53683 z"
         fill="#eeeeee"
         fill-rule="nonzero"
         id="path381"
         style="display:inline;enable-background:new;stroke-width:0.692265" />
      <path
         d="m 332.94842,202.33152 c -0.84971,0.39487 -1.63944,0.39063 -2.17018,0.35241 -0.63264,-0.0456 -1.14214,-0.21866 -1.36558,-0.37045 -0.13799,-0.0934 -0.32534,-0.0573 -0.41875,0.0807 -0.0934,0.13799 -0.0573,0.32534 0.0807,0.41875 0.35984,0.24361 0.99566,0.42459 1.66014,0.47236 0.11252,0.008 0.23618,0.0133 0.36939,0.0133 0.57851,0 1.31305,-0.0552 2.09854,-0.42035 0.15073,-0.0706 0.21654,-0.24944 0.14595,-0.4007 -0.0701,-0.15073 -0.24945,-0.21654 -0.40018,-0.14596 z m 3.35107,-0.44688 c 0.0287,-2.61971 0.29828,-7.56936 -4.71612,-7.16919 -4.95071,0.39859 -3.6382,5.62846 -3.71197,7.3799 -0.0653,0.92666 -0.37258,2.05925 -0.80725,3.21201 h 1.33798 c 0.138,-0.48827 0.23884,-0.97178 0.28236,-1.43192 0.0807,0.0563 0.16718,0.11039 0.25953,0.1624 0.14966,0.0886 0.27863,0.20593 0.41503,0.33012 0.31844,0.29031 0.67988,0.6199 1.38576,0.66077 0.0472,0.003 0.095,0.004 0.1417,0.004 0.71437,0 1.20265,-0.3126 1.5954,-0.56364 0.18788,-0.12048 0.35028,-0.2245 0.50313,-0.27439 0.43468,-0.13587 0.81415,-0.35559 1.09757,-0.63476 0.0446,-0.0435 0.0855,-0.0886 0.12419,-0.13428 0.15816,0.57904 0.3747,1.23131 0.61459,1.88146 h 2.85749 c -0.68677,-1.05935 -1.39425,-2.098 -1.37939,-3.42272 z m -7.94884,-1.42502 v -5.4e-4 c -0.0494,-0.85501 0.35984,-1.57363 0.9134,-1.606 0.55356,-0.0324 1.04237,0.63476 1.09173,1.48924 v 5.3e-4 c 0.003,0.0462 0.004,0.0918 0.004,0.13693 -0.17514,0.044 -0.33383,0.10827 -0.47554,0.18311 l -0.002,-0.0191 v -5.3e-4 c -0.0472,-0.48509 -0.30624,-0.8513 -0.57903,-0.8184 -0.27227,0.0334 -0.45485,0.45378 -0.40708,0.93888 0.0207,0.21176 0.0812,0.4007 0.16612,0.544 -0.0212,0.0165 -0.0807,0.06 -0.14914,0.1104 -0.0515,0.0377 -0.11464,0.0833 -0.19,0.13905 -0.20593,-0.27068 -0.3471,-0.65918 -0.37258,-1.09756 z m 5.60936,2.11286 c -0.0196,0.45165 -0.61088,0.87677 -1.15648,1.04714 l -0.003,0.001 c -0.22716,0.0738 -0.42937,0.20327 -0.64379,0.3402 -0.35983,0.23034 -0.73241,0.46865 -1.27005,0.46865 -0.0356,0 -0.0716,-0.001 -0.10721,-0.003 -0.49252,-0.0287 -0.72286,-0.2383 -1.01423,-0.5042 -0.15392,-0.14011 -0.31314,-0.28554 -0.518,-0.40548 l -0.005,-0.003 c -0.44263,-0.24997 -0.71756,-0.56045 -0.73507,-0.83166 -0.008,-0.13428 0.0515,-0.25104 0.17833,-0.34604 0.27598,-0.20699 0.46121,-0.34233 0.58328,-0.43202 0.13587,-0.0993 0.17726,-0.12897 0.20752,-0.15816 0.0218,-0.0202 0.0451,-0.043 0.0706,-0.0679 0.25316,-0.24627 0.67722,-0.65865 1.32844,-0.65865 0.39805,0 0.83856,0.15339 1.30773,0.45484 0.22079,0.14383 0.41345,0.21018 0.65705,0.29456 0.16719,0.0579 0.35719,0.12313 0.61141,0.23193 l 0.004,0.002 c 0.23671,0.0971 0.51694,0.27492 0.5042,0.56895 z m -0.13056,-1.06148 c -0.0457,-0.0228 -0.0934,-0.0446 -0.14277,-0.0653 -0.22928,-0.0976 -0.41291,-0.16452 -0.56524,-0.2176 0.0844,-0.16453 0.1364,-0.36992 0.14118,-0.59336 0.0117,-0.54294 -0.26218,-0.98399 -0.61141,-0.98452 -0.34975,-10e-4 -0.64219,0.43839 -0.65387,0.98133 -5.3e-4,0.018 -5.3e-4,0.0356 0,0.0531 -0.21548,-0.0987 -0.42724,-0.1709 -0.63423,-0.21495 -0.001,-0.0207 -0.002,-0.0409 -0.003,-0.0616 v -5.3e-4 c -0.0202,-0.98876 0.58699,-1.80769 1.3555,-1.82838 0.76851,-0.0207 1.40805,0.76373 1.42821,1.75302 v 5.3e-4 c 0.009,0.44741 -0.11039,0.85873 -0.31472,1.17823 z"
         fill="#eeeeee"
         fill-rule="nonzero"
         id="path401"
         style="display:inline;enable-background:new;stroke-width:0.530737" />
      <path
         d="m 328.61854,245.52056 c -0.55416,0.25752 -1.0692,0.25476 -1.41534,0.22983 -0.41259,-0.0298 -0.74487,-0.1426 -0.89059,-0.2416 -0.09,-0.0609 -0.21218,-0.0374 -0.2731,0.0526 -0.0609,0.09 -0.0374,0.21217 0.0526,0.27309 0.23468,0.15888 0.64934,0.27691 1.0827,0.30806 0.0734,0.006 0.15403,0.009 0.24091,0.009 0.37728,0 0.85633,-0.036 1.36861,-0.27413 0.0983,-0.046 0.14122,-0.16268 0.0952,-0.26133 -0.0457,-0.0983 -0.16268,-0.14122 -0.26098,-0.0952 z m 2.18548,-0.29144 c 0.0187,-1.70851 0.19453,-4.93654 -3.07573,-4.67556 -3.22873,0.25994 -2.37274,3.67074 -2.42085,4.81297 -0.0426,0.60435 -0.24299,1.343 -0.52647,2.0948 h 0.8726 c 0.09,-0.31845 0.15576,-0.63377 0.18414,-0.93387 0.0526,0.0367 0.10903,0.072 0.16926,0.10592 0.0976,0.0578 0.18172,0.1343 0.27068,0.21529 0.20768,0.18934 0.44339,0.40428 0.90375,0.43094 0.0308,0.002 0.062,0.003 0.0924,0.003 0.46589,0 0.78433,-0.20388 1.04047,-0.3676 0.12253,-0.0786 0.22845,-0.14641 0.32813,-0.17895 0.28349,-0.0886 0.53097,-0.23191 0.71581,-0.41397 0.0291,-0.0284 0.0557,-0.0578 0.081,-0.0876 0.10315,0.37763 0.24437,0.80302 0.40082,1.22704 h 1.86358 c -0.4479,-0.69088 -0.90929,-1.36827 -0.8996,-2.23221 z m -5.18403,-0.92937 v -3.4e-4 c -0.0322,-0.55762 0.23468,-1.02629 0.5957,-1.0474 0.36101,-0.0211 0.6798,0.41397 0.71199,0.97125 v 3.4e-4 c 0.002,0.0301 0.002,0.0599 0.002,0.0893 -0.11423,0.0287 -0.21772,0.0706 -0.31014,0.11941 l -10e-4,-0.0125 v -3.5e-4 c -0.0308,-0.31636 -0.19972,-0.55519 -0.37763,-0.53373 -0.17756,0.0218 -0.29663,0.29594 -0.26548,0.61231 0.0135,0.1381 0.053,0.26133 0.10834,0.35478 -0.0138,0.0107 -0.0526,0.0391 -0.0973,0.072 -0.0336,0.0246 -0.0748,0.0543 -0.12391,0.0907 -0.1343,-0.17652 -0.22637,-0.42989 -0.24299,-0.7158 z m 3.65828,1.37796 c -0.0128,0.29455 -0.3984,0.57181 -0.75422,0.68292 l -0.002,6.9e-4 c -0.14815,0.0481 -0.28002,0.13257 -0.41986,0.22187 -0.23468,0.15022 -0.47766,0.30563 -0.82829,0.30563 -0.0232,0 -0.0467,-6.9e-4 -0.0699,-0.002 -0.32121,-0.0187 -0.47144,-0.15542 -0.66146,-0.32883 -0.10038,-0.0914 -0.20422,-0.18622 -0.33783,-0.26444 l -0.003,-0.002 c -0.28868,-0.16302 -0.46797,-0.36551 -0.4794,-0.54238 -0.006,-0.0876 0.0336,-0.16373 0.1163,-0.22568 0.17999,-0.135 0.30079,-0.22326 0.3804,-0.28176 0.0886,-0.0647 0.11561,-0.0841 0.13534,-0.10314 0.0142,-0.0132 0.0294,-0.028 0.046,-0.0443 0.1651,-0.1606 0.44166,-0.42955 0.86637,-0.42955 0.2596,0 0.54689,0.10003 0.85287,0.29664 0.14399,0.0938 0.26963,0.13707 0.42851,0.1921 0.10903,0.0377 0.23295,0.0803 0.39874,0.15126 l 0.003,10e-4 c 0.15438,0.0633 0.33714,0.17929 0.32883,0.37105 z m -0.0851,-0.69227 c -0.0298,-0.0149 -0.0609,-0.0291 -0.0931,-0.0426 -0.14953,-0.0637 -0.26929,-0.1073 -0.36863,-0.14192 0.055,-0.1073 0.089,-0.24125 0.0921,-0.38697 0.008,-0.3541 -0.17099,-0.64173 -0.39874,-0.64208 -0.22811,-6.9e-4 -0.41882,0.28591 -0.42644,0.64 -3.5e-4,0.0118 -3.5e-4,0.0232 0,0.0346 -0.14053,-0.0644 -0.27864,-0.11145 -0.41363,-0.14018 -6.9e-4,-0.0135 -10e-4,-0.0266 -0.002,-0.0402 v -3.5e-4 c -0.0132,-0.64484 0.38282,-1.17893 0.88402,-1.19243 0.5012,-0.0135 0.91829,0.49809 0.93145,1.14328 v 3.5e-4 c 0.006,0.29179 -0.072,0.56004 -0.20526,0.76841 z"
         fill="#eeeeee"
         fill-rule="nonzero"
         id="path421"
         style="display:inline;enable-background:new;stroke-width:0.346133" />
    </g>
  </g>
</svg>
