<?xml version="1.0" encoding="UTF-8" standalone="no"?>
<svg
   inkscape:export-ydpi="90.000000"
   inkscape:export-xdpi="90.000000"
   width="400"
   height="300"
   id="svg11300"
   sodipodi:version="0.32"
   inkscape:version="1.2.2 (b0a8486541, 2022-12-01)"
   sodipodi:docname="libreoffice-base.svg"
   inkscape:output_extension="org.inkscape.output.svg.inkscape"
   version="1.0"
   style="display:inline;enable-background:new"
   inkscape:export-filename="/home/sam/suru-template.png"
   xmlns:inkscape="http://www.inkscape.org/namespaces/inkscape"
   xmlns:sodipodi="http://sodipodi.sourceforge.net/DTD/sodipodi-0.dtd"
   xmlns:xlink="http://www.w3.org/1999/xlink"
   xmlns="http://www.w3.org/2000/svg"
   xmlns:svg="http://www.w3.org/2000/svg"
   xmlns:rdf="http://www.w3.org/1999/02/22-rdf-syntax-ns#"
   xmlns:cc="http://creativecommons.org/ns#"
   xmlns:dc="http://purl.org/dc/elements/1.1/">
  <title
     id="title3004">Suru Icon Theme Template</title>
  <sodipodi:namedview
     stroke="#ef2929"
     fill="#f57900"
     id="base"
     pagecolor="#ffffff"
     bordercolor="#000000"
     borderopacity="0.25490196"
     inkscape:pageopacity="0"
     inkscape:pageshadow="2"
     inkscape:zoom="2.8284271"
     inkscape:cx="336.22927"
     inkscape:cy="170.41273"
     inkscape:current-layer="layer6"
     showgrid="false"
     inkscape:grid-bbox="true"
     inkscape:document-units="px"
     inkscape:showpageshadow="false"
     inkscape:window-width="1920"
     inkscape:window-height="1020"
     inkscape:window-x="0"
     inkscape:window-y="32"
     width="400px"
     height="300px"
     inkscape:snap-nodes="true"
     inkscape:snap-bbox="true"
     gridtolerance="10000"
     inkscape:object-nodes="true"
     inkscape:snap-grids="true"
     showguides="true"
     inkscape:guide-bbox="true"
     inkscape:window-maximized="1"
     inkscape:bbox-paths="true"
     inkscape:snap-bbox-midpoints="true"
     inkscape:snap-global="true"
     inkscape:object-paths="true"
     inkscape:snap-intersection-paths="true"
     inkscape:snap-smooth-nodes="true"
     inkscape:pagecheckerboard="false"
     showborder="false"
     inkscape:document-rotation="0"
     inkscape:deskcolor="#d1d1d1">
    <inkscape:grid
       spacingy="1"
       spacingx="1"
       id="grid5883"
       type="xygrid"
       enabled="true"
       visible="true"
       empspacing="4"
       snapvisiblegridlinesonly="true"
       originx="0"
       originy="0" />
    <inkscape:grid
       type="xygrid"
       id="grid11592"
       empspacing="2"
       visible="true"
       enabled="false"
       spacingx="0.5"
       spacingy="0.5"
       color="#ff0000"
       opacity="0.1254902"
       empcolor="#ff0000"
       empopacity="0.25098039"
       snapvisiblegridlinesonly="true"
       originx="0"
       originy="0" />
  </sodipodi:namedview>
  <defs
     id="defs3">
    <linearGradient
       id="c"
       x2="1"
       gradientTransform="matrix(89.685004,-108.90312,108.90312,89.685004,1589.101,1450.2939)"
       gradientUnits="userSpaceOnUse">
      <stop
         stop-color="#f6fbff"
         offset="0"
         id="stop12" />
      <stop
         stop-color="#eaeff2"
         offset="1"
         id="stop14" />
    </linearGradient>
    <linearGradient
       id="b"
       x2="1"
       gradientTransform="matrix(0,-203.23056,203.23056,0,561.91611,254.13381)"
       gradientUnits="userSpaceOnUse">
      <stop
         stop-color="#661e85"
         offset="0"
         id="stop7" />
      <stop
         stop-color="#c06de2"
         offset="1"
         id="stop9" />
    </linearGradient>
    <linearGradient
       id="a"
       x2="1"
       gradientTransform="matrix(-0.00528208,-207.68287,207.68287,-0.00528208,235.61349,259.06168)"
       gradientUnits="userSpaceOnUse">
      <stop
         stop-color="#b7b4b4"
         offset="0"
         id="stop2" />
      <stop
         stop-color="#f1f1f1"
         offset="1"
         id="stop4" />
    </linearGradient>
    <linearGradient
       inkscape:collect="always"
       xlink:href="#c"
       id="linearGradient426"
       gradientUnits="userSpaceOnUse"
       gradientTransform="matrix(18.417456,-22.364033,22.364033,18.417456,638.89156,349.3039)"
       x2="1" />
    <linearGradient
       inkscape:collect="always"
       xlink:href="#b"
       id="linearGradient428"
       gradientUnits="userSpaceOnUse"
       gradientTransform="matrix(0,-41.734847,41.734847,0,427.95181,103.66389)"
       x2="1" />
    <linearGradient
       inkscape:collect="always"
       xlink:href="#a"
       id="linearGradient430"
       gradientUnits="userSpaceOnUse"
       gradientTransform="matrix(-0.00108471,-42.64916,42.64916,-0.00108471,360.94323,104.67587)"
       x2="1" />
    <linearGradient
       inkscape:collect="always"
       xlink:href="#c"
       id="linearGradient440"
       gradientUnits="userSpaceOnUse"
       gradientTransform="matrix(12.011383,-14.585237,14.585237,12.011383,528.46885,321.3429)"
       x2="1" />
    <linearGradient
       inkscape:collect="always"
       xlink:href="#b"
       id="linearGradient442"
       gradientUnits="userSpaceOnUse"
       gradientTransform="matrix(0,-27.218375,27.218375,0,390.89947,161.14291)"
       x2="1" />
    <linearGradient
       inkscape:collect="always"
       xlink:href="#a"
       id="linearGradient444"
       gradientUnits="userSpaceOnUse"
       gradientTransform="matrix(-7.0741949e-4,-27.814666,27.814666,-7.0741949e-4,347.19821,161.8029)"
       x2="1" />
    <linearGradient
       inkscape:collect="always"
       xlink:href="#c"
       id="linearGradient454"
       gradientUnits="userSpaceOnUse"
       gradientTransform="matrix(8.8083482,-10.695841,10.695841,8.8083482,473.1438,327.11814)"
       x2="1" />
    <linearGradient
       inkscape:collect="always"
       xlink:href="#b"
       id="linearGradient456"
       gradientUnits="userSpaceOnUse"
       gradientTransform="matrix(0,-19.960143,19.960143,0,372.25958,209.63814)"
       x2="1" />
    <linearGradient
       inkscape:collect="always"
       xlink:href="#a"
       id="linearGradient458"
       gradientUnits="userSpaceOnUse"
       gradientTransform="matrix(-5.1877433e-4,-20.397423,20.397423,-5.1877433e-4,340.21199,210.12213)"
       x2="1" />
    <linearGradient
       inkscape:collect="always"
       xlink:href="#c"
       id="linearGradient468"
       gradientUnits="userSpaceOnUse"
       gradientTransform="matrix(5.6053135,-6.8064455,6.8064455,5.6053135,417.81882,324.89338)"
       x2="1" />
    <linearGradient
       inkscape:collect="always"
       xlink:href="#b"
       id="linearGradient470"
       gradientUnits="userSpaceOnUse"
       gradientTransform="matrix(0,-12.701911,12.701911,0,353.61976,250.13337)"
       x2="1" />
    <linearGradient
       inkscape:collect="always"
       xlink:href="#a"
       id="linearGradient472"
       gradientUnits="userSpaceOnUse"
       gradientTransform="matrix(-3.3012918e-4,-12.980181,12.980181,-3.3012918e-4,333.22584,250.44136)"
       x2="1" />
  </defs>
  <metadata
     id="metadata4">
    <rdf:RDF>
      <cc:Work
         rdf:about="">
        <dc:format>image/svg+xml</dc:format>
        <dc:type
           rdf:resource="http://purl.org/dc/dcmitype/StillImage" />
        <dc:creator>
          <cc:Agent>
            <dc:title>Sam Hewitt</dc:title>
          </cc:Agent>
        </dc:creator>
        <dc:source />
        <cc:license
           rdf:resource="http://creativecommons.org/licenses/by-sa/4.0/" />
        <dc:title>Suru Icon Theme Template</dc:title>
        <dc:subject>
          <rdf:Bag />
        </dc:subject>
        <dc:date />
        <dc:rights>
          <cc:Agent>
            <dc:title />
          </cc:Agent>
        </dc:rights>
        <dc:publisher>
          <cc:Agent>
            <dc:title />
          </cc:Agent>
        </dc:publisher>
        <dc:identifier />
        <dc:relation />
        <dc:language />
        <dc:coverage />
        <dc:description />
        <dc:contributor>
          <cc:Agent>
            <dc:title />
          </cc:Agent>
        </dc:contributor>
      </cc:Work>
      <cc:Work
         rdf:about="">
        <dc:format>image/svg+xml</dc:format>
        <dc:type
           rdf:resource="http://purl.org/dc/dcmitype/StillImage" />
      </cc:Work>
      <cc:License
         rdf:about="http://creativecommons.org/licenses/by-sa/4.0/">
        <cc:permits
           rdf:resource="http://creativecommons.org/ns#Reproduction" />
        <cc:permits
           rdf:resource="http://creativecommons.org/ns#Distribution" />
        <cc:requires
           rdf:resource="http://creativecommons.org/ns#Notice" />
        <cc:requires
           rdf:resource="http://creativecommons.org/ns#Attribution" />
        <cc:permits
           rdf:resource="http://creativecommons.org/ns#DerivativeWorks" />
        <cc:requires
           rdf:resource="http://creativecommons.org/ns#ShareAlike" />
      </cc:License>
    </rdf:RDF>
  </metadata>
  <g
     style="display:inline"
     inkscape:groupmode="layer"
     inkscape:label="Icon"
     id="layer1">
    <g
       style="display:none"
       inkscape:label="Baseplate"
       id="layer7"
       inkscape:groupmode="layer">
      <text
         y="-8.2548828"
         xml:space="preserve"
         x="19.006836"
         style="font-style:normal;font-variant:normal;font-weight:normal;font-stretch:normal;line-height:0%;font-family:'DejaVu Sans';-inkscape-font-specification:'DejaVu Sans';display:inline;fill:#000000;fill-opacity:1;stroke:none;enable-background:new"
         inkscape:label="context"
         id="context"><tspan
           style="font-style:normal;font-variant:normal;font-weight:normal;font-stretch:normal;font-size:18px;line-height:1.25;font-family:'DejaVu Sans';-inkscape-font-specification:'DejaVu Sans'"
           y="-8.2548828"
           x="19.006836"
           sodipodi:role="line"
           id="tspan3933">apps</tspan></text>
      <text
         y="-8.2548828"
         xml:space="preserve"
         x="146.48828"
         style="font-style:normal;font-variant:normal;font-weight:bold;font-stretch:normal;line-height:0%;font-family:'DejaVu Sans';-inkscape-font-specification:'DejaVu Sans Bold';text-align:start;writing-mode:lr-tb;text-anchor:start;display:inline;fill:#000000;fill-opacity:1;stroke:none;enable-background:new"
         inkscape:label="icon-name"
         id="icon-name"><tspan
           style="font-style:normal;font-variant:normal;font-weight:bold;font-stretch:normal;font-size:18px;line-height:1.25;font-family:'DejaVu Sans';-inkscape-font-specification:'DejaVu Sans Bold'"
           y="-8.2548828"
           x="146.48828"
           sodipodi:role="line"
           id="tspan924">libreoffice-base</tspan></text>
      <rect
         style="display:inline;overflow:visible;visibility:visible;fill:#cdcdcd;fill-opacity:1;fill-rule:nonzero;stroke:none;stroke-width:2;marker:none;enable-background:accumulate"
         id="rect16x16"
         width="16"
         height="16"
         x="320"
         y="236"
         inkscape:label="16x16" />
      <rect
         style="display:inline;overflow:visible;visibility:visible;fill:#cdcdcd;fill-opacity:1;fill-rule:nonzero;stroke:none;stroke-width:2;marker:none;enable-background:accumulate"
         id="rect24x24"
         width="24"
         height="24"
         x="320"
         y="188"
         inkscape:label="24x24" />
      <rect
         style="display:inline;overflow:visible;visibility:visible;fill:#cdcdcd;fill-opacity:1;fill-rule:nonzero;stroke:none;stroke-width:2;marker:none;enable-background:accumulate"
         id="rect32x32"
         width="32"
         height="32"
         x="320"
         y="132"
         inkscape:label="32x32" />
      <rect
         inkscape:label="48x48"
         y="60"
         x="320"
         height="48"
         width="48"
         id="rect48x48"
         style="display:inline;overflow:visible;visibility:visible;fill:#cdcdcd;fill-opacity:1;fill-rule:nonzero;stroke:none;stroke-width:2;marker:none;enable-background:accumulate" />
      <rect
         style="display:inline;overflow:visible;visibility:visible;fill:#cdcdcd;fill-opacity:1;fill-rule:nonzero;stroke:none;stroke-width:2;marker:none;enable-background:accumulate"
         id="rect256x256"
         width="256"
         height="256"
         x="24"
         y="28"
         inkscape:label="256x256" />
    </g>
    <g
       inkscape:groupmode="layer"
       id="layer2"
       inkscape:label="Background"
       style="display:inline">
      <path
         d="m 247.78973,259.06168 -58.16888,-0.0674 V 51.54534 l 59.83429,-0.2166 c 10.39675,0.12515 15.59513,8.22114 15.59513,17.94884 v 170.99774 c 0.45245,10.68074 -6.60387,18.55532 -17.26054,18.78636 z"
         fill="url(#a)"
         id="path17"
         style="fill:url(#a);stroke-width:4.81331" />
      <path
         d="m 155.74957,51.57903 79.47742,-7.451003 c 10.6326,-1.073368 15.27744,4.630407 15.35928,16.062023 l -0.67388,187.96466 C 249.71987,260.87149 244.03052,267.53311 232.81551,268 L 156.2694,259.06168 H 74.520105 c -10.44007,0 -21.04861,-8.50031 -21.10637,-21.74655 V 72.58914 c 0.3995,-15.23894 6.75308,-20.98123 21.99202,-21.2604 z"
         fill="url(#b)"
         id="path19"
         style="fill:url(#b);stroke-width:4.81331" />
      <path
         d="m 249.9124,248.15471 c -0.19253,12.71678 -5.88187,19.3784 -17.09688,19.84529 l -77.41251,-9.0394 V 51.61273 l 79.82398,-7.484703 c 10.6326,-1.073368 15.27745,4.630407 15.35928,16.062023 z"
         fill-opacity="0.15"
         id="path21"
         style="stroke-width:4.81331" />
      <path
         d="m 363.44371,104.67587 -11.94539,-0.0138 V 62.060904 l 12.2874,-0.04448 c 2.13504,0.0257 3.20257,1.688269 3.20257,3.685924 v 35.115602 c 0.0929,2.19337 -1.35615,3.81047 -3.54458,3.85792 z"
         fill="url(#a)"
         id="path418"
         style="fill:url(#linearGradient430);stroke-width:0.988448" />
      <path
         d="m 344.54261,62.067822 16.32125,-1.530116 c 2.18348,-0.220424 3.13734,0.950887 3.15414,3.298451 l -0.13838,38.599883 c -0.0395,2.61148 -1.20789,3.9795 -3.51097,4.07538 l -15.71929,-1.83555 h -16.7878 c -2.14395,0 -4.32249,-1.7456 -4.33435,-4.46581 V 66.3824 c 0.082,-3.129426 1.3868,-4.308646 4.51622,-4.365975 z"
         fill="url(#b)"
         id="path420"
         style="fill:url(#linearGradient428);stroke-width:0.988448" />
      <path
         d="m 363.87962,102.43604 c -0.0395,2.61148 -1.20789,3.9795 -3.51097,4.07538 l -15.89721,-1.85631 V 62.074745 l 16.39242,-1.537037 c 2.18348,-0.220424 3.13734,0.950887 3.15414,3.298451 z"
         fill-opacity="0.15"
         id="path422"
         style="stroke-width:0.988448" />
      <path
         d="m 348.82897,161.8029 -7.79048,-0.009 v -27.78336 l 8.01353,-0.029 c 1.39241,0.0168 2.08863,1.10104 2.08863,2.40386 v 22.90148 c 0.0606,1.43045 -0.88445,2.48508 -2.31168,2.51603 z"
         fill="url(#a)"
         id="path432"
         style="fill:url(#linearGradient444);stroke-width:0.64464" />
      <path
         d="m 336.50216,134.01505 10.64429,-0.9979 c 1.424,-0.14376 2.04609,0.62014 2.05704,2.15116 l -0.0902,25.17383 c -0.0258,1.70314 -0.78776,2.59533 -2.28976,2.65786 l -10.25171,-1.1971 h -10.94856 c -1.39823,0 -2.81903,-1.13843 -2.82675,-2.91248 V 136.8289 c 0.0535,-2.04093 0.90443,-2.80998 2.94536,-2.84737 z"
         fill="url(#b)"
         id="path434"
         style="fill:url(#linearGradient442);stroke-width:0.64464" />
      <path
         d="m 349.11326,160.34214 c -0.0258,1.70314 -0.78776,2.59533 -2.28977,2.65786 l -10.36774,-1.21064 v -27.7698 l 10.69071,-1.00241 c 1.424,-0.14376 2.04609,0.62014 2.05704,2.15116 z"
         fill-opacity="0.15"
         id="path436"
         style="stroke-width:0.64464" />
      <path
         d="m 341.40788,210.12213 -5.71302,-0.007 v -20.37447 l 5.8766,-0.0213 c 1.02109,0.0123 1.53165,0.80743 1.53165,1.76283 v 16.79442 c 0.0444,1.04899 -0.64859,1.82239 -1.69522,1.84509 z"
         fill="url(#a)"
         id="path446"
         style="fill:url(#linearGradient458);stroke-width:0.472736" />
      <path
         d="m 332.36822,189.74437 7.80581,-0.73179 c 1.04427,-0.10543 1.50047,0.45477 1.5085,1.57751 l -0.0661,18.46081 c -0.0189,1.24897 -0.57769,1.90325 -1.67915,1.9491 l -7.51793,-0.87787 h -8.02893 c -1.02538,0 -2.0673,-0.83485 -2.07295,-2.13582 v -16.17845 c 0.0392,-1.49668 0.66325,-2.06065 2.15992,-2.08807 z"
         fill="url(#b)"
         id="path448"
         style="fill:url(#linearGradient456);stroke-width:0.472736" />
      <path
         d="m 341.61636,209.0509 c -0.0189,1.24897 -0.57769,1.90325 -1.67916,1.9491 l -7.60301,-0.8878 v -20.36452 l 7.83985,-0.7351 c 1.04427,-0.10543 1.50047,0.45477 1.5085,1.57751 z"
         fill-opacity="0.15"
         id="path450"
         style="stroke-width:0.472736" />
      <path
         d="m 333.98685,250.44136 -3.63555,-0.004 v -12.96557 l 3.73965,-0.0135 c 0.64979,0.008 0.97469,0.51382 0.97469,1.1218 v 10.68736 c 0.0283,0.66754 -0.41274,1.1597 -1.07878,1.17415 z"
         fill="url(#a)"
         id="path460"
         style="fill:url(#linearGradient472);stroke-width:0.300832" />
      <path
         d="m 328.23434,237.47369 4.96734,-0.46568 c 0.66453,-0.0671 0.95484,0.2894 0.95995,1.00387 l -0.0421,11.74779 c -0.012,0.7948 -0.36762,1.21116 -1.06855,1.24033 l -4.78414,-0.55864 h -5.10932 c -0.65251,0 -1.31555,-0.53127 -1.31915,-1.35916 v -10.29538 c 0.0249,-0.95243 0.42207,-1.31132 1.37449,-1.32877 z"
         fill="url(#b)"
         id="path462"
         style="fill:url(#linearGradient470);stroke-width:0.300832" />
      <path
         d="m 334.11952,249.75967 c -0.012,0.7948 -0.36762,1.21116 -1.06855,1.24033 l -4.83828,-0.56496 V 237.4758 l 4.98899,-0.46779 c 0.66454,-0.0671 0.95485,0.2894 0.95996,1.00387 z"
         fill-opacity="0.15"
         id="path464"
         style="stroke-width:0.300832" />
    </g>
    <g
       inkscape:groupmode="layer"
       id="layer6"
       inkscape:label="Pictogram"
       style="display:inline">
      <path
         d="m 195.44496,124.70769 c 0.27917,-0.77013 0.47652,-1.5547 0.47652,-2.3874 0,-10.20904 -22.05941,-15.71546 -42.82404,-15.71546 -20.74056,0 -42.79516,5.50642 -42.79516,15.71546 0,0.83752 0.19253,1.62209 0.4717,2.39222 l -0.1107,0.20697 c -0.94823,1.71835 -1.41512,3.45596 -1.41512,5.16468 v 12.63495 c 0,1.94458 0.61129,3.81214 1.69429,5.57863 l -0.13959,0.24548 c -1.03486,1.79536 -1.5547,3.60998 -1.5547,5.40535 v 12.63013 c 0,1.882 0.5776,3.69181 1.60284,5.41016 l -0.0529,0.11071 c -1.03486,1.79055 -1.5547,3.60998 -1.5547,5.40053 v 12.63495 c 0,11.22464 19.26288,20.01856 43.85408,20.01856 24.61528,0 43.87334,-8.79392 43.87334,-20.01856 V 177.5001 c 0,-1.79536 -0.51984,-3.61961 -1.56433,-5.40535 l -0.0433,-0.1107 c 1.0156,-1.71836 1.60764,-3.52816 1.60764,-5.41498 v -12.63013 c 0,-1.79537 -0.51984,-3.61961 -1.56432,-5.41016 l -0.13959,-0.24067 c 1.08781,-1.76649 1.70391,-3.62924 1.70391,-5.58344 v -12.63013 c 0,-1.70873 -0.47652,-3.45115 -1.41511,-5.17431 l -0.11552,-0.20216 z m -3.17197,65.37922 c 0,7.25367 -16.07647,15.32559 -39.17555,15.32559 -23.07502,0 -39.1563,-8.07192 -39.1563,-15.32559 v -11.87925 c 7.20072,6.59905 22.01609,10.80589 39.1563,10.80589 17.16427,0 31.97964,-4.21165 39.17555,-10.8107 z m 0,-23.51784 c 0,7.24885 -16.07647,15.32077 -39.17555,15.32077 -23.07502,0 -39.1563,-8.07192 -39.1563,-15.32077 V 154.685 c 7.20072,6.59424 22.01609,10.80589 39.1563,10.80589 17.16427,0 31.97964,-4.21165 39.17555,-10.8107 z m 0,-23.85959 c 0,7.24404 -16.07647,15.32077 -39.17555,15.32077 -23.07502,0 -39.1563,-8.07192 -39.1563,-15.32077 v -10.51227 c 7.03706,5.96369 23.35419,9.05865 39.1563,9.05865 15.82136,0 32.13367,-3.09496 39.17555,-9.05865 z"
         fill="url(#c)"
         fill-rule="nonzero"
         id="path23"
         style="display:inline;enable-background:new;fill:url(#c);stroke-width:4.81331" />
      <path
         d="m 352.69434,77.085317 c 0.0573,-0.158152 0.0979,-0.31927 0.0979,-0.490272 0,-2.096498 -4.53006,-3.227282 -8.79422,-3.227282 -4.25922,0 -8.78829,1.130784 -8.78829,3.227282 0,0.171992 0.0395,0.333109 0.0969,0.49126 l -0.0227,0.0425 c -0.19473,0.352875 -0.29061,0.709706 -0.29061,1.060604 v 2.594677 c 0,0.399333 0.12553,0.78285 0.34794,1.145612 l -0.0287,0.05041 c -0.21252,0.36869 -0.31927,0.741336 -0.31927,1.110028 v 2.593687 c 0,0.386482 0.11861,0.75814 0.32915,1.111014 l -0.0109,0.02273 c -0.21251,0.367702 -0.31927,0.741336 -0.31927,1.109038 v 2.594677 c 0,2.30506 3.95577,4.110955 9.00575,4.110955 5.05493,0 9.00971,-1.805894 9.00971,-4.110955 v -2.594668 c 0,-0.36869 -0.10676,-0.743313 -0.32125,-1.110028 l -0.009,-0.02273 c 0.20856,-0.352879 0.33014,-0.724533 0.33014,-1.112004 v -2.593688 c 0,-0.368692 -0.10675,-0.743313 -0.32124,-1.111015 l -0.0287,-0.04942 c 0.22339,-0.362762 0.34991,-0.745291 0.34991,-1.146599 v -2.593688 c 0,-0.3509 -0.0979,-0.708718 -0.29061,-1.062581 l -0.0237,-0.04152 z m -0.65139,13.426089 c 0,1.489593 -3.30141,3.14722 -8.04498,3.14722 -4.73862,0 -8.04102,-1.657626 -8.04102,-3.14722 v -2.439489 c 1.47872,1.355162 4.52116,2.219067 8.04102,2.219067 3.52481,0 6.56725,-0.864893 8.04498,-2.220055 z m 0,-4.829556 c 0,1.488603 -3.30141,3.14623 -8.04498,3.14623 -4.73862,0 -8.04102,-1.657626 -8.04102,-3.14623 v -2.440478 c 1.47872,1.354174 4.52116,2.219066 8.04102,2.219066 3.52481,0 6.56725,-0.864892 8.04498,-2.220055 z m 0,-4.899738 c 0,1.487617 -3.30141,3.146231 -8.04498,3.146231 -4.73862,0 -8.04102,-1.657628 -8.04102,-3.146231 v -2.158768 c 1.44511,1.224685 4.79595,1.860257 8.04102,1.860257 3.24903,0 6.59888,-0.635572 8.04498,-1.860257 z"
         fill="url(#c)"
         fill-rule="nonzero"
         id="path424"
         style="display:inline;enable-background:new;fill:url(#linearGradient426);stroke-width:0.988448" />
      <path
         d="m 341.81851,143.80906 c 0.0374,-0.10314 0.0639,-0.20822 0.0639,-0.31974 0,-1.36728 -2.95438,-2.10475 -5.73536,-2.10475 -2.77776,0 -5.7315,0.73747 -5.7315,2.10475 0,0.11217 0.0258,0.21725 0.0632,0.32039 l -0.0148,0.0277 c -0.127,0.23013 -0.18953,0.46285 -0.18953,0.6917 v 1.69218 c 0,0.26043 0.0819,0.51055 0.2269,0.74714 l -0.0187,0.0329 c -0.1386,0.24045 -0.20822,0.48348 -0.20822,0.72393 v 1.69153 c 0,0.25205 0.0774,0.49444 0.21466,0.72458 l -0.007,0.0148 c -0.13859,0.2398 -0.20822,0.48348 -0.20822,0.72328 v 1.69218 c 0,1.5033 2.57986,2.68106 5.87332,2.68106 3.29669,0 5.87589,-1.17776 5.87589,-2.68106 v -1.69217 c 0,-0.24045 -0.0696,-0.48477 -0.20951,-0.72393 l -0.006,-0.0148 c 0.13602,-0.23014 0.21531,-0.47253 0.21531,-0.72522 v -1.69155 c 0,-0.24045 -0.0696,-0.48477 -0.2095,-0.72457 l -0.0187,-0.0322 c 0.14569,-0.23659 0.2282,-0.48606 0.2282,-0.74778 v -1.69154 c 0,-0.22885 -0.0639,-0.46221 -0.18953,-0.69299 l -0.0154,-0.0271 z m -0.42483,8.75615 c 0,0.97147 -2.15309,2.05253 -5.24673,2.05253 -3.0904,0 -5.24414,-1.08106 -5.24414,-2.05253 v -1.59097 c 0.96438,0.8838 2.94858,1.44721 5.24414,1.44721 2.29879,0 4.28299,-0.56406 5.24673,-1.44786 z m 0,-3.14971 c 0,0.97083 -2.15309,2.05189 -5.24673,2.05189 -3.0904,0 -5.24414,-1.08106 -5.24414,-2.05189 v -1.59162 c 0.96438,0.88316 2.94858,1.44722 5.24414,1.44722 2.29879,0 4.28299,-0.56406 5.24673,-1.44786 z m 0,-3.19548 c 0,0.97018 -2.15309,2.05189 -5.24673,2.05189 -3.0904,0 -5.24414,-1.08107 -5.24414,-2.05189 v -1.4079 c 0.94246,0.79871 3.12779,1.21322 5.24414,1.21322 2.11894,0 4.30363,-0.41451 5.24673,-1.21322 z"
         fill="url(#c)"
         fill-rule="nonzero"
         id="path438"
         style="display:inline;enable-background:new;fill:url(#linearGradient440);stroke-width:0.64464" />
      <path
         d="m 336.26688,196.92665 c 0.0274,-0.0756 0.0469,-0.1527 0.0469,-0.23448 0,-1.00267 -2.16655,-1.54348 -4.20593,-1.54348 -2.03703,0 -4.2031,0.54081 -4.2031,1.54348 0,0.0823 0.0189,0.15932 0.0463,0.23495 l -0.0109,0.0203 c -0.0931,0.16876 -0.13899,0.33942 -0.13899,0.50724 v 1.24093 c 0,0.19099 0.0601,0.37441 0.16639,0.54791 l -0.0137,0.0241 c -0.10164,0.17633 -0.15269,0.35456 -0.15269,0.53089 v 1.24045 c 0,0.18484 0.0568,0.36259 0.15741,0.53136 l -0.005,0.0109 c -0.10163,0.17586 -0.15269,0.35456 -0.15269,0.53041 v 1.24093 c 0,1.10242 1.89189,1.96611 4.3071,1.96611 2.41757,0 4.30898,-0.86369 4.30898,-1.96611 v -1.24092 c 0,-0.17633 -0.051,-0.3555 -0.15364,-0.53089 l -0.004,-0.0109 c 0.0997,-0.16877 0.1579,-0.34652 0.1579,-0.53183 v -1.24047 c 0,-0.17633 -0.051,-0.3555 -0.15364,-0.53135 l -0.0137,-0.0236 c 0.10684,-0.1735 0.16735,-0.35645 0.16735,-0.54837 v -1.24047 c 0,-0.16782 -0.0469,-0.33895 -0.13899,-0.50819 l -0.0113,-0.0199 z m -0.31154,6.42117 c 0,0.71241 -1.57894,1.50519 -3.84761,1.50519 -2.26629,0 -3.8457,-0.79278 -3.8457,-1.50519 v -1.16671 c 0.70721,0.64812 2.16229,1.06129 3.8457,1.06129 1.68579,0 3.14086,-0.41365 3.84761,-1.06177 z m 0,-2.30979 c 0,0.71195 -1.57894,1.50472 -3.84761,1.50472 -2.26629,0 -3.8457,-0.79277 -3.8457,-1.50472 v -1.16718 c 0.70721,0.64765 2.16229,1.06129 3.8457,1.06129 1.68579,0 3.14086,-0.41364 3.84761,-1.06176 z m 0,-2.34335 c 0,0.71147 -1.57894,1.50472 -3.84761,1.50472 -2.26629,0 -3.8457,-0.79278 -3.8457,-1.50472 v -1.03246 c 0.69114,0.58572 2.29371,0.8897 3.8457,0.8897 1.5539,0 3.156,-0.30398 3.84761,-0.8897 z"
         fill="url(#c)"
         fill-rule="nonzero"
         id="path452"
         style="display:inline;enable-background:new;fill:url(#linearGradient454);stroke-width:0.472736" />
      <path
         d="m 330.71531,242.04423 c 0.0174,-0.0481 0.0298,-0.0972 0.0298,-0.14921 0,-0.63806 -1.37871,-0.98222 -2.6765,-0.98222 -1.29629,0 -2.6747,0.34416 -2.6747,0.98222 0,0.0524 0.012,0.10139 0.0295,0.14951 l -0.007,0.0129 c -0.0592,0.10739 -0.0884,0.216 -0.0884,0.32279 v 0.78968 c 0,0.12154 0.0383,0.23826 0.10589,0.34867 l -0.009,0.0153 c -0.0647,0.11221 -0.0972,0.22563 -0.0972,0.33784 v 0.78938 c 0,0.11762 0.0361,0.23074 0.10017,0.33813 l -0.003,0.007 c -0.0647,0.11191 -0.0972,0.22563 -0.0972,0.33753 v 0.78969 c 0,0.70154 1.20393,1.25116 2.74089,1.25116 1.53845,0 2.74207,-0.54962 2.74207,-1.25116 v -0.78968 c 0,-0.11221 -0.0324,-0.22623 -0.0978,-0.33784 l -0.003,-0.007 c 0.0634,-0.1074 0.10048,-0.22052 0.10048,-0.33844 v -0.78939 c 0,-0.11221 -0.0324,-0.22623 -0.0978,-0.33813 l -0.009,-0.015 c 0.068,-0.11041 0.1065,-0.22683 0.1065,-0.34896 v -0.78939 c 0,-0.1068 -0.0299,-0.2157 -0.0885,-0.3234 l -0.007,-0.0127 z m -0.19825,4.0862 c 0,0.45336 -1.00478,0.95785 -2.44848,0.95785 -1.44219,0 -2.44727,-0.50449 -2.44727,-0.95785 v -0.74245 c 0.45005,0.41244 1.37601,0.67537 2.44727,0.67537 1.07277,0 1.99873,-0.26323 2.44848,-0.67567 z m 0,-1.46986 c 0,0.45306 -1.00478,0.95755 -2.44848,0.95755 -1.44219,0 -2.44727,-0.50449 -2.44727,-0.95755 v -0.74275 c 0.45005,0.41214 1.37601,0.67536 2.44727,0.67536 1.07277,0 1.99873,-0.26322 2.44848,-0.67566 z m 0,-1.49123 c 0,0.45276 -1.00478,0.95755 -2.44848,0.95755 -1.44219,0 -2.44727,-0.50449 -2.44727,-0.95755 v -0.65702 c 0.43982,0.37274 1.45964,0.56618 2.44727,0.56618 0.98884,0 2.00836,-0.19344 2.44848,-0.56618 z"
         fill="url(#c)"
         fill-rule="nonzero"
         id="path466"
         style="display:inline;enable-background:new;fill:url(#linearGradient468);stroke-width:0.300832" />
    </g>
  </g>
</svg>
