<?xml version="1.0" encoding="UTF-8" standalone="no"?>
<svg
   inkscape:export-ydpi="90.000000"
   inkscape:export-xdpi="90.000000"
   width="400"
   height="300"
   id="svg11300"
   sodipodi:version="0.32"
   inkscape:version="1.2.2 (b0a8486541, 2022-12-01)"
   sodipodi:docname="libreoffice-startcenter.svg"
   inkscape:output_extension="org.inkscape.output.svg.inkscape"
   version="1.0"
   style="display:inline;enable-background:new"
   inkscape:export-filename="/home/sam/suru-template.png"
   xmlns:inkscape="http://www.inkscape.org/namespaces/inkscape"
   xmlns:sodipodi="http://sodipodi.sourceforge.net/DTD/sodipodi-0.dtd"
   xmlns:xlink="http://www.w3.org/1999/xlink"
   xmlns="http://www.w3.org/2000/svg"
   xmlns:svg="http://www.w3.org/2000/svg"
   xmlns:rdf="http://www.w3.org/1999/02/22-rdf-syntax-ns#"
   xmlns:cc="http://creativecommons.org/ns#"
   xmlns:dc="http://purl.org/dc/elements/1.1/">
  <title
     id="title3004">Suru Icon Theme Template</title>
  <sodipodi:namedview
     stroke="#ef2929"
     fill="#f57900"
     id="base"
     pagecolor="#ffffff"
     bordercolor="#000000"
     borderopacity="0.25490196"
     inkscape:pageopacity="0"
     inkscape:pageshadow="2"
     inkscape:zoom="2"
     inkscape:cx="281"
     inkscape:cy="190"
     inkscape:current-layer="layer2"
     showgrid="false"
     inkscape:grid-bbox="true"
     inkscape:document-units="px"
     inkscape:showpageshadow="false"
     inkscape:window-width="1920"
     inkscape:window-height="1020"
     inkscape:window-x="0"
     inkscape:window-y="32"
     width="400px"
     height="300px"
     inkscape:snap-nodes="true"
     inkscape:snap-bbox="true"
     gridtolerance="10000"
     inkscape:object-nodes="true"
     inkscape:snap-grids="true"
     showguides="true"
     inkscape:guide-bbox="true"
     inkscape:window-maximized="1"
     inkscape:bbox-paths="true"
     inkscape:snap-bbox-midpoints="true"
     inkscape:snap-global="true"
     inkscape:object-paths="true"
     inkscape:snap-intersection-paths="true"
     inkscape:snap-smooth-nodes="true"
     inkscape:pagecheckerboard="false"
     showborder="false"
     inkscape:document-rotation="0"
     inkscape:deskcolor="#d1d1d1">
    <inkscape:grid
       spacingy="1"
       spacingx="1"
       id="grid5883"
       type="xygrid"
       enabled="true"
       visible="true"
       empspacing="4"
       snapvisiblegridlinesonly="true"
       originx="0"
       originy="0" />
    <inkscape:grid
       type="xygrid"
       id="grid11592"
       empspacing="2"
       visible="true"
       enabled="false"
       spacingx="0.5"
       spacingy="0.5"
       color="#ff0000"
       opacity="0.1254902"
       empcolor="#ff0000"
       empopacity="0.25098039"
       snapvisiblegridlinesonly="true"
       originx="0"
       originy="0" />
  </sodipodi:namedview>
  <defs
     id="defs3">
    <linearGradient
       id="linearGradient3018"
       x1="23.719999"
       x2="22.785999"
       y1="11.696"
       y2="8.4789"
       gradientUnits="userSpaceOnUse"
       gradientTransform="matrix(65.128569,0,0,65.128569,-1309.891,-506.54657)">
      <stop
         stop-color="#c72b0c"
         offset="0"
         id="stop1443" />
      <stop
         stop-color="#cc3206"
         offset=".51348"
         id="stop1445" />
      <stop
         stop-color="#e58102"
         offset="1"
         id="stop1447" />
    </linearGradient>
    <linearGradient
       id="linearGradient3028"
       x1="21.608999"
       x2="22.791"
       y1="11.283"
       y2="11.837"
       gradientUnits="userSpaceOnUse"
       gradientTransform="matrix(65.128569,0,0,65.128569,-1309.891,-506.54657)">
      <stop
         stop-color="#eb233c"
         offset="0"
         id="stop1450" />
      <stop
         stop-color="#910505"
         offset="1"
         id="stop1452" />
    </linearGradient>
    <linearGradient
       id="linearGradient3008"
       x1="21.190001"
       x2="22.268999"
       y1="11.457"
       y2="8.7909002"
       gradientUnits="userSpaceOnUse"
       gradientTransform="matrix(65.128569,0,0,65.128569,-1309.891,-506.54657)">
      <stop
         stop-color="#b4327d"
         offset="0"
         id="stop1436" />
      <stop
         stop-color="#b4191e"
         offset=".55628"
         id="stop1438" />
      <stop
         stop-color="#820a05"
         offset="1"
         id="stop1440" />
    </linearGradient>
    <linearGradient
       inkscape:collect="always"
       xlink:href="#linearGradient3008"
       id="linearGradient24039"
       gradientUnits="userSpaceOnUse"
       gradientTransform="matrix(13.374617,0,0,13.374617,43.217801,-52.23639)"
       x1="21.190001"
       y1="11.457"
       x2="22.268999"
       y2="8.7909002" />
    <linearGradient
       inkscape:collect="always"
       xlink:href="#linearGradient3028"
       id="linearGradient24041"
       gradientUnits="userSpaceOnUse"
       gradientTransform="matrix(13.374617,0,0,13.374617,43.217801,-52.23639)"
       x1="21.608999"
       y1="11.283"
       x2="22.791"
       y2="11.837" />
    <linearGradient
       inkscape:collect="always"
       xlink:href="#linearGradient3018"
       id="linearGradient24043"
       gradientUnits="userSpaceOnUse"
       gradientTransform="matrix(13.374617,0,0,13.374617,43.217801,-52.23639)"
       x1="23.719999"
       y1="11.696"
       x2="22.785999"
       y2="8.4789" />
    <linearGradient
       inkscape:collect="always"
       xlink:href="#linearGradient3008"
       id="linearGradient24053"
       gradientUnits="userSpaceOnUse"
       gradientTransform="matrix(8.7225761,0,0,8.7225761,139.8377,59.150182)"
       x1="21.190001"
       y1="11.457"
       x2="22.268999"
       y2="8.7909002" />
    <linearGradient
       inkscape:collect="always"
       xlink:href="#linearGradient3028"
       id="linearGradient24055"
       gradientUnits="userSpaceOnUse"
       gradientTransform="matrix(8.7225761,0,0,8.7225761,139.8377,59.150182)"
       x1="21.608999"
       y1="11.283"
       x2="22.791"
       y2="11.837" />
    <linearGradient
       inkscape:collect="always"
       xlink:href="#linearGradient3018"
       id="linearGradient24057"
       gradientUnits="userSpaceOnUse"
       gradientTransform="matrix(8.7225761,0,0,8.7225761,139.8377,59.150182)"
       x1="23.719999"
       y1="11.696"
       x2="22.785999"
       y2="8.4789" />
    <linearGradient
       inkscape:collect="always"
       xlink:href="#linearGradient3008"
       id="linearGradient24067"
       gradientUnits="userSpaceOnUse"
       gradientTransform="matrix(6.6873083,0,0,6.6873083,181.60891,131.8818)"
       x1="21.190001"
       y1="11.457"
       x2="22.268999"
       y2="8.7909002" />
    <linearGradient
       inkscape:collect="always"
       xlink:href="#linearGradient3028"
       id="linearGradient24069"
       gradientUnits="userSpaceOnUse"
       gradientTransform="matrix(6.6873083,0,0,6.6873083,181.60891,131.8818)"
       x1="21.608999"
       y1="11.283"
       x2="22.791"
       y2="11.837" />
    <linearGradient
       inkscape:collect="always"
       xlink:href="#linearGradient3018"
       id="linearGradient24071"
       gradientUnits="userSpaceOnUse"
       gradientTransform="matrix(6.6873083,0,0,6.6873083,181.60891,131.8818)"
       x1="23.719999"
       y1="11.696"
       x2="22.785999"
       y2="8.4789" />
    <linearGradient
       inkscape:collect="always"
       xlink:href="#linearGradient3008"
       id="linearGradient24081"
       gradientUnits="userSpaceOnUse"
       gradientTransform="matrix(4.3612877,0,0,4.3612877,229.91885,199.57509)"
       x1="21.190001"
       y1="11.457"
       x2="22.268999"
       y2="8.7909002" />
    <linearGradient
       inkscape:collect="always"
       xlink:href="#linearGradient3028"
       id="linearGradient24083"
       gradientUnits="userSpaceOnUse"
       gradientTransform="matrix(4.3612877,0,0,4.3612877,229.91885,199.57509)"
       x1="21.608999"
       y1="11.283"
       x2="22.791"
       y2="11.837" />
    <linearGradient
       inkscape:collect="always"
       xlink:href="#linearGradient3018"
       id="linearGradient24085"
       gradientUnits="userSpaceOnUse"
       gradientTransform="matrix(4.3612877,0,0,4.3612877,229.91885,199.57509)"
       x1="23.719999"
       y1="11.696"
       x2="22.785999"
       y2="8.4789" />
    <linearGradient
       inkscape:collect="always"
       xlink:href="#linearGradient3008"
       id="linearGradient24087"
       gradientUnits="userSpaceOnUse"
       gradientTransform="matrix(65.128569,0,0,65.128569,-1312.6785,-507.412)"
       x1="21.190001"
       y1="11.457"
       x2="22.268999"
       y2="8.7909002" />
    <linearGradient
       inkscape:collect="always"
       xlink:href="#linearGradient3028"
       id="linearGradient24089"
       gradientUnits="userSpaceOnUse"
       gradientTransform="matrix(65.128569,0,0,65.128569,-1312.6785,-507.412)"
       x1="21.608999"
       y1="11.283"
       x2="22.791"
       y2="11.837" />
    <linearGradient
       inkscape:collect="always"
       xlink:href="#linearGradient3018"
       id="linearGradient24091"
       gradientUnits="userSpaceOnUse"
       gradientTransform="matrix(65.128569,0,0,65.128569,-1312.6785,-507.412)"
       x1="23.719999"
       y1="11.696"
       x2="22.785999"
       y2="8.4789" />
  </defs>
  <metadata
     id="metadata4">
    <rdf:RDF>
      <cc:Work
         rdf:about="">
        <dc:format>image/svg+xml</dc:format>
        <dc:type
           rdf:resource="http://purl.org/dc/dcmitype/StillImage" />
        <dc:creator>
          <cc:Agent>
            <dc:title>Sam Hewitt</dc:title>
          </cc:Agent>
        </dc:creator>
        <dc:source />
        <cc:license
           rdf:resource="http://creativecommons.org/licenses/by-sa/4.0/" />
        <dc:title>Suru Icon Theme Template</dc:title>
        <dc:subject>
          <rdf:Bag />
        </dc:subject>
        <dc:date />
        <dc:rights>
          <cc:Agent>
            <dc:title />
          </cc:Agent>
        </dc:rights>
        <dc:publisher>
          <cc:Agent>
            <dc:title />
          </cc:Agent>
        </dc:publisher>
        <dc:identifier />
        <dc:relation />
        <dc:language />
        <dc:coverage />
        <dc:description />
        <dc:contributor>
          <cc:Agent>
            <dc:title />
          </cc:Agent>
        </dc:contributor>
      </cc:Work>
      <cc:Work
         rdf:about="">
        <dc:format>image/svg+xml</dc:format>
        <dc:type
           rdf:resource="http://purl.org/dc/dcmitype/StillImage" />
      </cc:Work>
      <cc:License
         rdf:about="http://creativecommons.org/licenses/by-sa/4.0/">
        <cc:permits
           rdf:resource="http://creativecommons.org/ns#Reproduction" />
        <cc:permits
           rdf:resource="http://creativecommons.org/ns#Distribution" />
        <cc:requires
           rdf:resource="http://creativecommons.org/ns#Notice" />
        <cc:requires
           rdf:resource="http://creativecommons.org/ns#Attribution" />
        <cc:permits
           rdf:resource="http://creativecommons.org/ns#DerivativeWorks" />
        <cc:requires
           rdf:resource="http://creativecommons.org/ns#ShareAlike" />
      </cc:License>
    </rdf:RDF>
  </metadata>
  <g
     style="display:inline"
     inkscape:groupmode="layer"
     inkscape:label="Icon"
     id="layer1">
    <g
       style="display:none"
       inkscape:label="Baseplate"
       id="layer7"
       inkscape:groupmode="layer">
      <text
         y="-8.2548828"
         xml:space="preserve"
         x="19.006836"
         style="font-style:normal;font-variant:normal;font-weight:normal;font-stretch:normal;line-height:0%;font-family:'DejaVu Sans';-inkscape-font-specification:'DejaVu Sans';display:inline;fill:#000000;fill-opacity:1;stroke:none;enable-background:new"
         inkscape:label="context"
         id="context"><tspan
           style="font-style:normal;font-variant:normal;font-weight:normal;font-stretch:normal;font-size:18px;line-height:1.25;font-family:'DejaVu Sans';-inkscape-font-specification:'DejaVu Sans'"
           y="-8.2548828"
           x="19.006836"
           sodipodi:role="line"
           id="tspan3933">apps</tspan></text>
      <text
         y="-8.2548828"
         xml:space="preserve"
         x="146.48828"
         style="font-style:normal;font-variant:normal;font-weight:bold;font-stretch:normal;line-height:0%;font-family:'DejaVu Sans';-inkscape-font-specification:'DejaVu Sans Bold';text-align:start;writing-mode:lr-tb;text-anchor:start;display:inline;fill:#000000;fill-opacity:1;stroke:none;enable-background:new"
         inkscape:label="icon-name"
         id="icon-name"><tspan
           style="font-style:normal;font-variant:normal;font-weight:bold;font-stretch:normal;font-size:18px;line-height:1.25;font-family:'DejaVu Sans';-inkscape-font-specification:'DejaVu Sans Bold'"
           y="-8.2548828"
           x="146.48828"
           sodipodi:role="line"
           id="tspan924">libreoffice-startcenter</tspan></text>
      <rect
         style="display:inline;overflow:visible;visibility:visible;fill:#cdcdcd;fill-opacity:1;fill-rule:nonzero;stroke:none;stroke-width:2;marker:none;enable-background:accumulate"
         id="rect16x16"
         width="16"
         height="16"
         x="320"
         y="236"
         inkscape:label="16x16" />
      <rect
         style="display:inline;overflow:visible;visibility:visible;fill:#cdcdcd;fill-opacity:1;fill-rule:nonzero;stroke:none;stroke-width:2;marker:none;enable-background:accumulate"
         id="rect24x24"
         width="24"
         height="24"
         x="320"
         y="188"
         inkscape:label="24x24" />
      <rect
         style="display:inline;overflow:visible;visibility:visible;fill:#cdcdcd;fill-opacity:1;fill-rule:nonzero;stroke:none;stroke-width:2;marker:none;enable-background:accumulate"
         id="rect32x32"
         width="32"
         height="32"
         x="320"
         y="132"
         inkscape:label="32x32" />
      <rect
         inkscape:label="48x48"
         y="60"
         x="320"
         height="48"
         width="48"
         id="rect48x48"
         style="display:inline;overflow:visible;visibility:visible;fill:#cdcdcd;fill-opacity:1;fill-rule:nonzero;stroke:none;stroke-width:2;marker:none;enable-background:accumulate" />
      <rect
         style="display:inline;overflow:visible;visibility:visible;fill:#cdcdcd;fill-opacity:1;fill-rule:nonzero;stroke:none;stroke-width:2;marker:none;enable-background:accumulate"
         id="rect256x256"
         width="256"
         height="256"
         x="24"
         y="28"
         inkscape:label="256x256" />
    </g>
    <g
       inkscape:groupmode="layer"
       id="layer2"
       inkscape:label="Background"
       style="display:inline">
      <path
         d="m 178.24465,81.42192 -55.75981,21.89099 c 0,0 -14.04304,5.57632 -14.04304,12.18425 v 81.99038 c 0,0 0.4038,4.36165 -0.91373,5.53004 -1.31432,1.16842 -25.993486,16.93932 -25.993486,16.93932 0,0 -5.76452,1.60149 -9.00143,0 -3.23624,-1.60153 -6.66329,-4.5525 -6.66329,-7.69432 V 104.23384 c 0,0 -0.37774,-10.48569 2.7608,-13.1514 3.14115,-2.66508 78.147786,-45.11978 78.147786,-45.11978 0,0 6.16832,-3.57362 15.33514,-1.07658 8.62956,2.3505 19.65062,7.8786 16.12848,36.53714 z"
         fill="url(#linearGradient3008)"
         id="path4545"
         style="display:inline;fill:url(#linearGradient24087);stroke-width:65.1287;enable-background:new" />
      <path
         d="m 176.48617,221.8326 h -71.15946 c 0,0 -6.327252,-0.4038 -8.884856,4.17342 -2.55759,4.57725 -2.15379,9.96206 0.13664,11.57724 2.288654,1.61519 49.540726,28.27036 51.425536,29.2128 1.88481,0.94241 9.69243,2.82722 17.2988,-1.68295 12.2507,-5.11582 11.95954,-9.69243 11.15195,-25.71276 0,-12.02401 0.11088,-13.23477 0.0336,-17.56842 z"
         fill="url(#linearGradient3028)"
         id="path4547"
         style="display:inline;fill:url(#linearGradient24089);stroke-width:65.1287;enable-background:new" />
      <path
         d="m 161.70199,44.80663 c 0,0 14.40906,5.01659 14.40906,16.02033 0,0 -0.007,117.13373 -0.007,189.95397 0,8.06291 -7.26249,13.21327 -17.35678,16.84811 l 65.89711,-19.92412 c 0,0 13.46206,-3.50003 13.46206,-16.96209 V 85.69498 c 0,0 1.11761,-15.13523 -8.78259,-19.60955 C 219.42369,61.61174 161.7009,44.80857 161.7009,44.80857 Z"
         fill="url(#linearGradient3018)"
         id="path4549"
         style="display:inline;fill:url(#linearGradient24091);stroke-width:65.1287;enable-background:new" />
      <path
         d="m 349.38952,68.684859 -11.45067,4.495472 c 0,0 -2.88384,1.145137 -2.88384,2.502123 v 16.83731 c 0,0 0.0829,0.895696 -0.18764,1.135633 -0.26991,0.239943 -5.33795,3.47861 -5.33795,3.47861 0,0 -1.18378,0.328878 -1.84851,0 -0.66458,-0.328885 -1.36835,-0.934888 -1.36835,-1.580083 V 73.369451 c 0,0 -0.0776,-2.153313 0.56695,-2.700735 0.64506,-0.547294 16.0482,-9.265669 16.0482,-9.265669 0,0 1.26671,-0.733869 3.14918,-0.221084 1.77215,0.482692 4.0354,1.617927 3.3121,7.503163 z"
         fill="url(#linearGradient3008)"
         id="path24031"
         style="display:inline;fill:url(#linearGradient24039);stroke-width:13.3746;enable-background:new" />
      <path
         d="M 349.02841,97.519196 H 334.4153 c 0,0 -1.29934,-0.08292 -1.82457,0.857041 -0.52521,0.939971 -0.44229,2.045783 0.0281,2.377473 0.47,0.33169 10.17355,5.80552 10.56061,5.99905 0.38705,0.19353 1.99041,0.58059 3.55243,-0.3456 2.51577,-1.05057 2.45597,-1.99041 2.29013,-5.2803 0,-2.469218 0.0228,-2.717856 0.007,-3.607802 z"
         fill="url(#linearGradient3028)"
         id="path24033"
         style="display:inline;fill:url(#linearGradient24041);stroke-width:13.3746;enable-background:new" />
      <path
         d="m 345.99237,61.165648 c 0,0 2.959,1.030192 2.959,3.289889 0,0 -10e-4,24.054249 -10e-4,39.008403 0,1.65578 -1.49141,2.71344 -3.56434,3.45988 l 13.53244,-4.09156 c 0,0 2.76453,-0.71875 2.76453,-3.483285 V 69.562362 c 0,0 0.22951,-3.108127 -1.80357,-4.026961 -2.03307,-0.918704 -13.88685,-4.369355 -13.88685,-4.369355 z"
         fill="url(#linearGradient3018)"
         id="path24035"
         style="display:inline;fill:url(#linearGradient24043);stroke-width:13.3746;enable-background:new" />
      <path
         d="m 339.51491,138.01187 -7.46783,2.93183 c 0,0 -1.88076,0.74682 -1.88076,1.63182 v 10.98085 c 0,0 0.0541,0.58415 -0.12238,0.74063 -0.17602,0.15648 -3.48127,2.26866 -3.48127,2.26866 0,0 -0.77203,0.21448 -1.20555,0 -0.43342,-0.21449 -0.8924,-0.60971 -0.8924,-1.03049 v -14.46814 c 0,0 -0.0506,-1.40433 0.36975,-1.76134 0.42069,-0.35693 10.46622,-6.04283 10.46622,-6.04283 0,0 0.82611,-0.47861 2.05381,-0.14419 1.15575,0.3148 2.63178,1.05517 2.16007,4.89337 z"
         fill="url(#linearGradient3008)"
         id="path24045"
         style="display:inline;fill:url(#linearGradient24053);stroke-width:8.72259;enable-background:new" />
      <path
         d="m 339.2794,156.81687 h -9.53028 c 0,0 -0.8474,-0.0541 -1.18994,0.55894 -0.34253,0.61302 -0.28845,1.3342 0.0183,1.55052 0.30652,0.21632 6.63492,3.78621 6.88735,3.91243 0.25243,0.12622 1.29809,0.37865 2.3168,-0.22539 1.64072,-0.68516 1.60173,-1.2981 1.49357,-3.44368 0,-1.61036 0.0149,-1.77251 0.005,-2.35291 z"
         fill="url(#linearGradient3028)"
         id="path24047"
         style="display:inline;fill:url(#linearGradient24055);stroke-width:8.72259;enable-background:new" />
      <path
         d="m 337.29938,133.10803 c 0,0 1.92978,0.67187 1.92978,2.14558 0,0 -9.4e-4,15.68756 -9.4e-4,25.44027 0,1.07985 -0.97265,1.76963 -2.32456,2.25644 l 8.8255,-2.66841 c 0,0 1.80296,-0.46875 1.80296,-2.27171 v -19.42605 c 0,0 0.14968,-2.02704 -1.17624,-2.62628 -1.32592,-0.59915 -9.05665,-2.84958 -9.05665,-2.84958 z"
         fill="url(#linearGradient3018)"
         id="path24049"
         style="display:inline;fill:url(#linearGradient24057);stroke-width:8.72259;enable-background:new" />
      <path
         d="m 334.69477,192.34243 -5.72534,2.24773 c 0,0 -1.44192,0.57257 -1.44192,1.25106 v 8.41866 c 0,0 0.0415,0.44785 -0.0938,0.56782 -0.13495,0.11997 -2.66897,1.7393 -2.66897,1.7393 0,0 -0.5919,0.16444 -0.92426,0 -0.33229,-0.16444 -0.68418,-0.46744 -0.68418,-0.79004 v -11.09224 c 0,0 -0.0388,-1.07665 0.28348,-1.35036 0.32253,-0.27365 8.0241,-4.63284 8.0241,-4.63284 0,0 0.63336,-0.36693 1.57459,-0.11054 0.88607,0.24135 2.0177,0.80896 1.65605,3.75158 z"
         fill="url(#linearGradient3008)"
         id="path24059"
         style="display:inline;fill:url(#linearGradient24067);stroke-width:6.68732;enable-background:new" />
      <path
         d="m 334.51421,206.7596 h -7.30655 c 0,0 -0.64968,-0.0415 -0.91229,0.42852 -0.26261,0.46998 -0.22115,1.02289 0.014,1.18873 0.235,0.16585 5.08677,2.90276 5.2803,2.99953 0.19353,0.0968 0.99521,0.29029 1.77622,-0.1728 1.25788,-0.52529 1.22799,-0.99521 1.14507,-2.64015 0,-1.23461 0.0114,-1.35893 0.003,-1.8039 z"
         fill="url(#linearGradient3028)"
         id="path24061"
         style="display:inline;fill:url(#linearGradient24069);stroke-width:6.68732;enable-background:new" />
      <path
         d="m 332.99619,188.58282 c 0,0 1.4795,0.5151 1.4795,1.64495 0,0 -7.2e-4,12.02712 -7.2e-4,19.5042 0,0.82789 -0.7457,1.35672 -1.78217,1.72994 l 6.76622,-2.04578 c 0,0 1.38227,-0.35938 1.38227,-1.74165 v -14.8933 c 0,0 0.11475,-1.55407 -0.90178,-2.01348 -1.01654,-0.45935 -6.94343,-2.18468 -6.94343,-2.18468 z"
         fill="url(#linearGradient3018)"
         id="path24063"
         style="display:inline;fill:url(#linearGradient24071);stroke-width:6.68732;enable-background:new" />
      <path
         d="m 329.75745,239.00593 -3.73392,1.46592 c 0,0 -0.94038,0.37341 -0.94038,0.81591 v 5.49042 c 0,0 0.027,0.29208 -0.0612,0.37032 -0.088,0.0782 -1.74064,1.13433 -1.74064,1.13433 0,0 -0.38602,0.10724 -0.60277,0 -0.21672,-0.10725 -0.44621,-0.30486 -0.44621,-0.51525 v -7.23406 c 0,0 -0.0253,-0.70217 0.18488,-0.88068 0.21034,-0.17846 5.23311,-3.02141 5.23311,-3.02141 0,0 0.41306,-0.23931 1.02691,-0.0721 0.57787,0.1574 1.31589,0.52758 1.08003,2.44668 z"
         fill="url(#linearGradient3008)"
         id="path24073"
         style="display:inline;fill:url(#linearGradient24081);stroke-width:4.3613;enable-background:new" />
      <path
         d="m 329.63969,248.40843 h -4.76514 c 0,0 -0.4237,-0.027 -0.59496,0.27947 -0.17127,0.30652 -0.14423,0.66711 0.009,0.77526 0.15325,0.10816 3.31745,1.89311 3.44367,1.95622 0.12621,0.0631 0.64905,0.18932 1.1584,-0.1127 0.82036,-0.34258 0.80086,-0.64905 0.74678,-1.72184 0,-0.80517 0.007,-0.88625 0.002,-1.17645 z"
         fill="url(#linearGradient3028)"
         id="path24075"
         style="display:inline;fill:url(#linearGradient24083);stroke-width:4.3613;enable-background:new" />
      <path
         d="m 328.64968,236.55402 c 0,0 0.9649,0.33593 0.9649,1.07279 0,0 -4.7e-4,7.84377 -4.7e-4,12.72013 0,0.53992 -0.48633,0.88481 -1.16229,1.12822 l 4.41275,-1.33421 c 0,0 0.90148,-0.23437 0.90148,-1.13585 v -9.71302 c 0,0 0.0748,-1.01352 -0.58812,-1.31314 -0.66295,-0.29958 -4.52832,-1.42479 -4.52832,-1.42479 z"
         fill="url(#linearGradient3018)"
         id="path24077"
         style="display:inline;fill:url(#linearGradient24085);stroke-width:4.3613;enable-background:new" />
    </g>
    <g
       inkscape:groupmode="layer"
       id="layer6"
       inkscape:label="Pictogram"
       style="display:inline" />
  </g>
</svg>
