<?xml version="1.0" encoding="UTF-8" standalone="no"?>
<svg
   inkscape:export-ydpi="90.000000"
   inkscape:export-xdpi="90.000000"
   width="400"
   height="300"
   id="svg11300"
   sodipodi:version="0.32"
   inkscape:version="1.2.2 (b0a8486541, 2022-12-01)"
   sodipodi:docname="libreoffice-writer.svg"
   inkscape:output_extension="org.inkscape.output.svg.inkscape"
   version="1.0"
   style="display:inline;enable-background:new"
   inkscape:export-filename="/home/sam/suru-template.png"
   xmlns:inkscape="http://www.inkscape.org/namespaces/inkscape"
   xmlns:sodipodi="http://sodipodi.sourceforge.net/DTD/sodipodi-0.dtd"
   xmlns:xlink="http://www.w3.org/1999/xlink"
   xmlns="http://www.w3.org/2000/svg"
   xmlns:svg="http://www.w3.org/2000/svg"
   xmlns:rdf="http://www.w3.org/1999/02/22-rdf-syntax-ns#"
   xmlns:cc="http://creativecommons.org/ns#"
   xmlns:dc="http://purl.org/dc/elements/1.1/">
  <title
     id="title3004">Suru Icon Theme Template</title>
  <sodipodi:namedview
     stroke="#ef2929"
     fill="#f57900"
     id="base"
     pagecolor="#ffffff"
     bordercolor="#000000"
     borderopacity="0.25490196"
     inkscape:pageopacity="0"
     inkscape:pageshadow="2"
     inkscape:zoom="2"
     inkscape:cx="209"
     inkscape:cy="124"
     inkscape:current-layer="layer2"
     showgrid="false"
     inkscape:grid-bbox="true"
     inkscape:document-units="px"
     inkscape:showpageshadow="false"
     inkscape:window-width="1920"
     inkscape:window-height="1020"
     inkscape:window-x="0"
     inkscape:window-y="32"
     width="400px"
     height="300px"
     inkscape:snap-nodes="true"
     inkscape:snap-bbox="true"
     gridtolerance="10000"
     inkscape:object-nodes="true"
     inkscape:snap-grids="true"
     showguides="true"
     inkscape:guide-bbox="true"
     inkscape:window-maximized="1"
     inkscape:bbox-paths="true"
     inkscape:snap-bbox-midpoints="true"
     inkscape:snap-global="true"
     inkscape:object-paths="true"
     inkscape:snap-intersection-paths="true"
     inkscape:snap-smooth-nodes="true"
     inkscape:pagecheckerboard="false"
     showborder="false"
     inkscape:document-rotation="0"
     inkscape:deskcolor="#d1d1d1">
    <inkscape:grid
       spacingy="1"
       spacingx="1"
       id="grid5883"
       type="xygrid"
       enabled="true"
       visible="true"
       empspacing="4"
       snapvisiblegridlinesonly="true"
       originx="0"
       originy="0" />
    <inkscape:grid
       type="xygrid"
       id="grid11592"
       empspacing="2"
       visible="true"
       enabled="false"
       spacingx="0.5"
       spacingy="0.5"
       color="#ff0000"
       opacity="0.1254902"
       empcolor="#ff0000"
       empopacity="0.25098039"
       snapvisiblegridlinesonly="true"
       originx="0"
       originy="0" />
  </sodipodi:namedview>
  <defs
     id="defs3">
    <linearGradient
       id="b"
       x2="1"
       gradientTransform="matrix(0,-203.23056,203.23056,0,561.91611,254.13381)"
       gradientUnits="userSpaceOnUse">
      <stop
         stop-color="#0255a8"
         offset="0"
         id="stop27" />
      <stop
         stop-color="#5f71fa"
         offset="1"
         id="stop29" />
    </linearGradient>
    <linearGradient
       id="a"
       x2="1"
       gradientTransform="matrix(-0.00528208,-207.68288,207.68288,-0.00528208,235.61348,259.06168)"
       gradientUnits="userSpaceOnUse">
      <stop
         stop-color="#b7b4b4"
         offset="0"
         id="stop22" />
      <stop
         stop-color="#f1f1f1"
         offset="1"
         id="stop24" />
    </linearGradient>
    <linearGradient
       inkscape:collect="always"
       xlink:href="#b"
       id="linearGradient423"
       gradientUnits="userSpaceOnUse"
       gradientTransform="matrix(0,-41.734847,41.734847,0,428.1792,104.15248)"
       x2="1" />
    <linearGradient
       inkscape:collect="always"
       xlink:href="#a"
       id="linearGradient425"
       gradientUnits="userSpaceOnUse"
       gradientTransform="matrix(-0.00108471,-42.649162,42.649162,-0.00108471,361.17062,105.16445)"
       x2="1" />
    <linearGradient
       inkscape:collect="always"
       xlink:href="#b"
       id="linearGradient435"
       gradientUnits="userSpaceOnUse"
       gradientTransform="matrix(0,-27.218378,27.218378,0,390.89945,161.14292)"
       x2="1" />
    <linearGradient
       inkscape:collect="always"
       xlink:href="#a"
       id="linearGradient437"
       gradientUnits="userSpaceOnUse"
       gradientTransform="matrix(-7.0741956e-4,-27.814671,27.814671,-7.0741956e-4,347.19821,161.8029)"
       x2="1" />
    <linearGradient
       inkscape:collect="always"
       xlink:href="#b"
       id="linearGradient447"
       gradientUnits="userSpaceOnUse"
       gradientTransform="matrix(0,-19.960145,19.960145,0,372.25957,209.63814)"
       x2="1" />
    <linearGradient
       inkscape:collect="always"
       xlink:href="#a"
       id="linearGradient449"
       gradientUnits="userSpaceOnUse"
       gradientTransform="matrix(-5.1877438e-4,-20.397427,20.397427,-5.1877438e-4,340.21199,210.12213)"
       x2="1" />
    <linearGradient
       inkscape:collect="always"
       xlink:href="#b"
       id="linearGradient459"
       gradientUnits="userSpaceOnUse"
       gradientTransform="matrix(0,-12.701913,12.701913,0,353.61975,250.13337)"
       x2="1" />
    <linearGradient
       inkscape:collect="always"
       xlink:href="#a"
       id="linearGradient461"
       gradientUnits="userSpaceOnUse"
       gradientTransform="matrix(-3.3012921e-4,-12.980183,12.980183,-3.3012921e-4,333.22583,250.44136)"
       x2="1" />
  </defs>
  <metadata
     id="metadata4">
    <rdf:RDF>
      <cc:Work
         rdf:about="">
        <dc:format>image/svg+xml</dc:format>
        <dc:type
           rdf:resource="http://purl.org/dc/dcmitype/StillImage" />
        <dc:creator>
          <cc:Agent>
            <dc:title>Sam Hewitt</dc:title>
          </cc:Agent>
        </dc:creator>
        <dc:source />
        <cc:license
           rdf:resource="http://creativecommons.org/licenses/by-sa/4.0/" />
        <dc:title>Suru Icon Theme Template</dc:title>
        <dc:subject>
          <rdf:Bag />
        </dc:subject>
        <dc:date />
        <dc:rights>
          <cc:Agent>
            <dc:title />
          </cc:Agent>
        </dc:rights>
        <dc:publisher>
          <cc:Agent>
            <dc:title />
          </cc:Agent>
        </dc:publisher>
        <dc:identifier />
        <dc:relation />
        <dc:language />
        <dc:coverage />
        <dc:description />
        <dc:contributor>
          <cc:Agent>
            <dc:title />
          </cc:Agent>
        </dc:contributor>
      </cc:Work>
      <cc:Work
         rdf:about="">
        <dc:format>image/svg+xml</dc:format>
        <dc:type
           rdf:resource="http://purl.org/dc/dcmitype/StillImage" />
      </cc:Work>
      <cc:License
         rdf:about="http://creativecommons.org/licenses/by-sa/4.0/">
        <cc:permits
           rdf:resource="http://creativecommons.org/ns#Reproduction" />
        <cc:permits
           rdf:resource="http://creativecommons.org/ns#Distribution" />
        <cc:requires
           rdf:resource="http://creativecommons.org/ns#Notice" />
        <cc:requires
           rdf:resource="http://creativecommons.org/ns#Attribution" />
        <cc:permits
           rdf:resource="http://creativecommons.org/ns#DerivativeWorks" />
        <cc:requires
           rdf:resource="http://creativecommons.org/ns#ShareAlike" />
      </cc:License>
    </rdf:RDF>
  </metadata>
  <g
     style="display:inline"
     inkscape:groupmode="layer"
     inkscape:label="Icon"
     id="layer1">
    <g
       style="display:none"
       inkscape:label="Baseplate"
       id="layer7"
       inkscape:groupmode="layer">
      <text
         y="-8.2548828"
         xml:space="preserve"
         x="19.006836"
         style="font-style:normal;font-variant:normal;font-weight:normal;font-stretch:normal;line-height:0%;font-family:'DejaVu Sans';-inkscape-font-specification:'DejaVu Sans';display:inline;fill:#000000;fill-opacity:1;stroke:none;enable-background:new"
         inkscape:label="context"
         id="context"><tspan
           style="font-style:normal;font-variant:normal;font-weight:normal;font-stretch:normal;font-size:18px;line-height:1.25;font-family:'DejaVu Sans';-inkscape-font-specification:'DejaVu Sans'"
           y="-8.2548828"
           x="19.006836"
           sodipodi:role="line"
           id="tspan3933">apps</tspan></text>
      <text
         y="-8.2548828"
         xml:space="preserve"
         x="146.48828"
         style="font-style:normal;font-variant:normal;font-weight:bold;font-stretch:normal;line-height:0%;font-family:'DejaVu Sans';-inkscape-font-specification:'DejaVu Sans Bold';text-align:start;writing-mode:lr-tb;text-anchor:start;display:inline;fill:#000000;fill-opacity:1;stroke:none;enable-background:new"
         inkscape:label="icon-name"
         id="icon-name"><tspan
           style="font-style:normal;font-variant:normal;font-weight:bold;font-stretch:normal;font-size:18px;line-height:1.25;font-family:'DejaVu Sans';-inkscape-font-specification:'DejaVu Sans Bold'"
           y="-8.2548828"
           x="146.48828"
           sodipodi:role="line"
           id="tspan924">libreoffice-writer</tspan></text>
      <rect
         style="display:inline;overflow:visible;visibility:visible;fill:#cdcdcd;fill-opacity:1;fill-rule:nonzero;stroke:none;stroke-width:2;marker:none;enable-background:accumulate"
         id="rect16x16"
         width="16"
         height="16"
         x="320"
         y="236"
         inkscape:label="16x16" />
      <rect
         style="display:inline;overflow:visible;visibility:visible;fill:#cdcdcd;fill-opacity:1;fill-rule:nonzero;stroke:none;stroke-width:2;marker:none;enable-background:accumulate"
         id="rect24x24"
         width="24"
         height="24"
         x="320"
         y="188"
         inkscape:label="24x24" />
      <rect
         style="display:inline;overflow:visible;visibility:visible;fill:#cdcdcd;fill-opacity:1;fill-rule:nonzero;stroke:none;stroke-width:2;marker:none;enable-background:accumulate"
         id="rect32x32"
         width="32"
         height="32"
         x="320"
         y="132"
         inkscape:label="32x32" />
      <rect
         inkscape:label="48x48"
         y="60"
         x="320"
         height="48"
         width="48"
         id="rect48x48"
         style="display:inline;overflow:visible;visibility:visible;fill:#cdcdcd;fill-opacity:1;fill-rule:nonzero;stroke:none;stroke-width:2;marker:none;enable-background:accumulate" />
      <rect
         style="display:inline;overflow:visible;visibility:visible;fill:#cdcdcd;fill-opacity:1;fill-rule:nonzero;stroke:none;stroke-width:2;marker:none;enable-background:accumulate"
         id="rect256x256"
         width="256"
         height="256"
         x="24"
         y="28"
         inkscape:label="256x256" />
    </g>
    <g
       inkscape:groupmode="layer"
       id="layer2"
       inkscape:label="Background"
       style="display:inline">
      <path
         d="m 247.78972,259.06168 -58.16888,-0.0674 V 51.545338 l 59.83429,-0.2166 c 10.39676,0.12515 15.59513,8.22114 15.59513,17.94885 V 240.27532 c 0.45245,10.68074 -6.60386,18.55532 -17.26054,18.78636 z"
         fill="url(#a)"
         id="path32"
         style="display:inline;enable-background:new;fill:url(#a);stroke-width:4.81331" />
      <path
         d="m 155.74957,51.579038 79.47741,-7.45101 c 10.63261,-1.07337 15.27745,4.6304 15.35928,16.06202 L 249.9124,248.15471 C 249.71986,260.87149 244.03053,267.53311 232.81551,268 L 156.2694,259.06168 H 74.520105 c -10.44007,0 -21.04861,-8.50031 -21.10637,-21.74655 V 72.589138 c 0.3995,-15.23894 6.75308,-20.98122 21.99202,-21.2604 z"
         fill="url(#b)"
         id="path34"
         style="display:inline;enable-background:new;fill:url(#b);stroke-width:4.81331" />
      <path
         d="m 249.9124,248.15471 c -0.19254,12.71678 -5.88187,19.3784 -17.09689,19.84529 l -77.4125,-9.0394 V 51.612728 l 79.82397,-7.4847 c 10.63261,-1.07337 15.27745,4.6304 15.35928,16.06202 z"
         fill-opacity="0.15"
         id="path36"
         style="display:inline;enable-background:new;stroke-width:4.81331" />
      <path
         d="m 363.6711,105.16445 -11.94539,-0.0138 V 62.549489 l 12.2874,-0.04448 c 2.13505,0.0257 3.20257,1.688269 3.20257,3.685924 v 35.115607 c 0.0929,2.19337 -1.35615,3.81047 -3.54458,3.85791 z"
         fill="url(#a)"
         id="path415"
         style="display:inline;enable-background:new;fill:url(#linearGradient425);stroke-width:0.988448" />
      <path
         d="m 344.77,62.556409 16.32126,-1.530118 c 2.18348,-0.220424 3.13733,0.950886 3.15413,3.298451 l -0.13838,38.599888 c -0.0395,2.61148 -1.20788,3.97949 -3.51097,4.07537 l -15.71929,-1.83555 h -16.7878 c -2.14394,0 -4.32248,-1.7456 -4.33434,-4.46581 V 66.870984 c 0.082,-3.129426 1.38679,-4.308644 4.51621,-4.365975 z"
         fill="url(#b)"
         id="path417"
         style="display:inline;enable-background:new;fill:url(#linearGradient423);stroke-width:0.988448" />
      <path
         d="m 364.10701,102.92463 c -0.0395,2.61148 -1.20788,3.97949 -3.51097,4.07537 l -15.89721,-1.8563 V 62.563328 l 16.39243,-1.537037 c 2.18348,-0.220424 3.13733,0.950886 3.15413,3.298451 z"
         fill-opacity="0.15"
         id="path419"
         style="display:inline;enable-background:new;stroke-width:0.988448" />
      <path
         d="m 348.82895,161.8029 -7.79047,-0.009 v -27.78336 l 8.01352,-0.029 c 1.39243,0.0168 2.08864,1.10104 2.08864,2.40386 v 22.90148 c 0.0606,1.43046 -0.88445,2.48509 -2.31169,2.51603 z"
         fill="url(#a)"
         id="path427"
         style="display:inline;enable-background:new;fill:url(#linearGradient437);stroke-width:0.64464" />
      <path
         d="m 336.50215,134.01505 10.6443,-0.9979 c 1.42401,-0.14376 2.04608,0.62014 2.05704,2.15116 l -0.0902,25.17384 c -0.0258,1.70314 -0.78775,2.59532 -2.28976,2.65785 l -10.25171,-1.1971 h -10.94857 c -1.39822,0 -2.81901,-1.13843 -2.82674,-2.91248 V 136.8289 c 0.0535,-2.04093 0.90443,-2.80998 2.94535,-2.84737 z"
         fill="url(#b)"
         id="path429"
         style="display:inline;enable-background:new;fill:url(#linearGradient435);stroke-width:0.64464" />
      <path
         d="m 349.11324,160.34215 c -0.0258,1.70314 -0.78775,2.59532 -2.28976,2.65785 l -10.36775,-1.21063 v -27.76981 l 10.69072,-1.00241 c 1.42401,-0.14376 2.04608,0.62014 2.05704,2.15116 z"
         fill-opacity="0.15"
         id="path431"
         style="display:inline;enable-background:new;stroke-width:0.64464" />
      <path
         d="m 341.40787,210.12213 -5.71301,-0.007 v -20.37447 l 5.87658,-0.0213 c 1.02111,0.0123 1.53167,0.80743 1.53167,1.76283 v 16.79442 c 0.0444,1.049 -0.64859,1.8224 -1.69524,1.84509 z"
         fill="url(#a)"
         id="path439"
         style="display:inline;enable-background:new;fill:url(#linearGradient449);stroke-width:0.472736" />
      <path
         d="m 332.36821,189.74437 7.80582,-0.73179 c 1.04428,-0.10543 1.50046,0.45477 1.5085,1.57751 l -0.0661,18.46082 c -0.0189,1.24897 -0.57768,1.90324 -1.67915,1.94909 l -7.51793,-0.87787 h -8.02895 c -1.02536,0 -2.06727,-0.83485 -2.07294,-2.13582 v -16.17845 c 0.0392,-1.49668 0.66325,-2.06065 2.15992,-2.08807 z"
         fill="url(#b)"
         id="path441"
         style="display:inline;enable-background:new;fill:url(#linearGradient447);stroke-width:0.472736" />
      <path
         d="m 341.61635,209.05091 c -0.0189,1.24897 -0.57769,1.90324 -1.67916,1.94909 l -7.60302,-0.88779 v -20.36453 l 7.83986,-0.7351 c 1.04428,-0.10543 1.50046,0.45477 1.5085,1.57751 z"
         fill-opacity="0.15"
         id="path443"
         style="display:inline;enable-background:new;stroke-width:0.472736" />
      <path
         d="m 333.98684,250.44136 -3.63555,-0.004 v -12.96557 l 3.73964,-0.0135 c 0.6498,0.008 0.9747,0.51382 0.9747,1.1218 v 10.68736 c 0.0283,0.66754 -0.41273,1.15971 -1.07879,1.17415 z"
         fill="url(#a)"
         id="path451"
         style="display:inline;enable-background:new;fill:url(#linearGradient461);stroke-width:0.300832" />
      <path
         d="m 328.23433,237.47369 4.96734,-0.46568 c 0.66455,-0.0671 0.95484,0.2894 0.95996,1.00387 l -0.0421,11.74779 c -0.012,0.7948 -0.36761,1.21116 -1.06855,1.24033 l -4.78413,-0.55864 h -5.10934 c -0.6525,0 -1.31553,-0.53127 -1.31914,-1.35916 v -10.29538 c 0.0249,-0.95243 0.42207,-1.31132 1.37449,-1.32877 z"
         fill="url(#b)"
         id="path453"
         style="display:inline;enable-background:new;fill:url(#linearGradient459);stroke-width:0.300832" />
      <path
         d="m 334.11951,249.75967 c -0.012,0.7948 -0.36762,1.21116 -1.06855,1.24033 l -4.83829,-0.56495 V 237.4758 l 4.989,-0.46779 c 0.66455,-0.0671 0.95484,0.2894 0.95996,1.00387 z"
         fill-opacity="0.15"
         id="path455"
         style="display:inline;enable-background:new;stroke-width:0.300832" />
    </g>
    <g
       inkscape:groupmode="layer"
       id="layer6"
       inkscape:label="Pictogram"
       style="display:inline">
      <path
         d="M 165.04888,213.99464 H 94.283575 c -1.57877,0 -2.84949,-0.48615 -2.84949,-1.09744 v -5.6412 c 0,-0.60167 1.27072,-1.09744 2.84949,-1.09744 h 70.765305 c 1.57877,0 2.84949,0.48615 2.84949,1.09744 v 5.6412 c 0,0.60167 -1.27072,1.09744 -2.84949,1.09744 z m 0,-16.39896 H 94.283575 c -1.57877,0 -2.84949,-0.48614 -2.84949,-1.09743 v -5.64121 c 0,-0.60166 1.27072,-1.09743 2.84949,-1.09743 h 70.765305 c 1.57877,0 2.84949,0.48614 2.84949,1.09743 v 5.64121 c 0,0.60166 -1.27072,1.09743 -2.84949,1.09743 z M 95.915285,172.28728 H 212.51777 c 2.48367,0 4.4812,0.48615 4.4812,1.09744 v 5.6412 c 0,0.60648 -1.99753,1.09744 -4.4812,1.09744 H 95.915285 c -2.48367,0 -4.4812,-0.48615 -4.4812,-1.09744 v -5.6412 c 0,-0.60166 1.99753,-1.09744 4.4812,-1.09744 z m 0,-15.28226 H 212.51777 c 2.48367,0 4.4812,0.48133 4.4812,1.09262 v 5.6412 c 0,0.60648 -1.99753,1.09744 -4.4812,1.09744 H 95.915285 c -2.48367,0 -4.4812,-0.48615 -4.4812,-1.09744 v -5.6412 c 0,-0.60166 1.99753,-1.09262 4.4812,-1.09262 z m 50.429065,-9.28488 H 93.292025 c -0.95303,0 -1.71835,-0.48133 -1.71835,-1.09262 v -5.64121 c 0,-0.60647 0.76532,-1.09743 1.71835,-1.09743 h 53.052325 c 0.94823,0 1.71836,0.48614 1.71836,1.09743 v 5.64121 c 0,0.60166 -0.77013,1.09262 -1.71836,1.09262 z m 63.28543,-9.05384 h -38.43911 c -2.66657,0 -4.8085,-2.16118 -4.8085,-4.80369 v -24.02324 c 0,-2.66658 2.14193,-4.8085 4.8085,-4.8085 h 38.43911 c 2.63289,0 4.80369,2.1708 4.80369,4.8085 v 24.02324 c 0,2.6377 -2.1708,4.80369 -4.80369,4.80369 z m -36.03727,-7.20553 h 33.63543 l -10.8107,-14.41587 -8.40886,10.8107 -6.00701,-7.20553 z m -27.35405,-0.23104 H 93.190945 c -0.95303,0 -1.71835,-0.48615 -1.71835,-1.09744 v -5.6412 c 0,-0.60166 0.76532,-1.09743 1.71835,-1.09743 h 53.047515 c 0.95304,0 1.72317,0.48614 1.72317,1.09743 v 5.6412 c 0,0.60167 -0.77013,1.09744 -1.72317,1.09744 z m -0.0674,-17.36162 H 93.118735 c -0.95303,0 -1.71835,-0.48614 -1.71835,-1.09743 v -5.64121 c 0,-0.60166 0.76532,-1.09743 1.71835,-1.09743 h 53.052325 c 0.95304,0 1.71836,0.48614 1.71836,1.09743 v 5.64121 c 0,0.60647 -0.76532,1.09743 -1.71836,1.09743 z"
         fill="#f3f3f3"
         fill-rule="nonzero"
         id="path38"
         style="display:inline;enable-background:new;stroke-width:4.81331" />
      <path
         d="m 346.67968,95.909614 h -14.53216 c -0.32421,0 -0.58516,-0.09983 -0.58516,-0.225368 v -1.15846 c 0,-0.123558 0.26095,-0.225367 0.58516,-0.225367 h 14.53216 c 0.32421,0 0.58516,0.09983 0.58516,0.225367 v 1.15846 c 0,0.123558 -0.26095,0.225368 -0.58516,0.225368 z m 0,-3.367644 h -14.53216 c -0.32421,0 -0.58516,-0.09983 -0.58516,-0.225365 v -1.158462 c 0,-0.123555 0.26095,-0.225365 0.58516,-0.225365 h 14.53216 c 0.32421,0 0.58516,0.09983 0.58516,0.225365 v 1.158462 c 0,0.123555 -0.26095,0.225365 -0.58516,0.225365 z M 332.4826,87.344709 h 23.94516 c 0.51004,0 0.92024,0.09983 0.92024,0.225368 v 1.158461 c 0,0.124545 -0.4102,0.225367 -0.92024,0.225367 H 332.4826 c -0.51004,0 -0.92024,-0.09983 -0.92024,-0.225367 v -1.158461 c 0,-0.123555 0.4102,-0.225368 0.92024,-0.225368 z m 0,-3.138321 h 23.94516 c 0.51004,0 0.92024,0.09884 0.92024,0.224377 v 1.158462 c 0,0.124544 -0.4102,0.225367 -0.92024,0.225367 H 332.4826 c -0.51004,0 -0.92024,-0.09983 -0.92024,-0.225367 v -1.158462 c 0,-0.123554 0.4102,-0.224377 0.92024,-0.224377 z m 10.35597,-1.906716 H 331.9439 c -0.19571,0 -0.35288,-0.09884 -0.35288,-0.224378 v -1.158463 c 0,-0.124543 0.15717,-0.225365 0.35288,-0.225365 h 10.89467 c 0.19473,0 0.35288,0.09983 0.35288,0.225365 v 1.158463 c 0,0.123555 -0.15815,0.224378 -0.35288,0.224378 z m 12.99612,-1.859271 h -7.89375 c -0.5476,0 -0.98746,-0.443814 -0.98746,-0.986472 v -4.933343 c 0,-0.547602 0.43986,-0.98746 0.98746,-0.98746 h 7.89375 c 0.54068,0 0.98647,0.445788 0.98647,0.98746 v 4.933343 c 0,0.54167 -0.44579,0.986472 -0.98647,0.986472 z m -7.40051,-1.479707 h 6.90727 l -2.22005,-2.960402 -1.72682,2.220054 -1.23358,-1.479707 z m -5.61735,-0.04745 h -10.89369 c -0.19571,0 -0.35287,-0.09983 -0.35287,-0.225366 v -1.158462 c 0,-0.123555 0.15716,-0.225364 0.35287,-0.225364 h 10.89369 c 0.19571,0 0.35386,0.09983 0.35386,0.225364 v 1.158462 c 0,0.123556 -0.15815,0.225366 -0.35386,0.225366 z m -0.0138,-3.565332 h -10.89468 c -0.19571,0 -0.35287,-0.09983 -0.35287,-0.225366 v -1.158462 c 0,-0.123556 0.15716,-0.225366 0.35287,-0.225366 h 10.89468 c 0.19571,0 0.35287,0.09983 0.35287,0.225366 v 1.158462 c 0,0.124544 -0.15716,0.225366 -0.35287,0.225366 z"
         fill="#f3f3f3"
         fill-rule="nonzero"
         id="path421"
         style="display:inline;enable-background:new;stroke-width:0.988448" />
      <path
         d="m 337.74759,155.76714 h -9.47749 c -0.21144,0 -0.38163,-0.0651 -0.38163,-0.14698 v -0.75552 c 0,-0.0806 0.17019,-0.14698 0.38163,-0.14698 h 9.47749 c 0.21144,0 0.38163,0.0651 0.38163,0.14698 v 0.75552 c 0,0.0806 -0.17019,0.14698 -0.38163,0.14698 z m 0,-2.19629 h -9.47749 c -0.21144,0 -0.38163,-0.0651 -0.38163,-0.14698 v -0.75552 c 0,-0.0806 0.17019,-0.14697 0.38163,-0.14697 h 9.47749 c 0.21144,0 0.38163,0.0651 0.38163,0.14697 v 0.75552 c 0,0.0806 -0.17019,0.14698 -0.38163,0.14698 z m -9.25896,-3.38952 h 15.61641 c 0.33263,0 0.60015,0.0651 0.60015,0.14698 v 0.75552 c 0,0.0812 -0.26752,0.14698 -0.60015,0.14698 h -15.61641 c -0.33264,0 -0.60016,-0.0651 -0.60016,-0.14698 v -0.75552 c 0,-0.0806 0.26752,-0.14698 0.60016,-0.14698 z m 0,-2.04673 h 15.61641 c 0.33263,0 0.60015,0.0645 0.60015,0.14633 v 0.75552 c 0,0.0812 -0.26752,0.14698 -0.60015,0.14698 h -15.61641 c -0.33264,0 -0.60016,-0.0651 -0.60016,-0.14698 v -0.75552 c 0,-0.0806 0.26752,-0.14633 0.60016,-0.14633 z m 6.75389,-1.24351 h -7.10522 c -0.12764,0 -0.23014,-0.0645 -0.23014,-0.14633 v -0.75552 c 0,-0.0812 0.1025,-0.14698 0.23014,-0.14698 h 7.10522 c 0.127,0 0.23014,0.0651 0.23014,0.14698 v 0.75552 c 0,0.0806 -0.10314,0.14633 -0.23014,0.14633 z m 8.47573,-1.21257 h -5.1481 c -0.35713,0 -0.64399,-0.28944 -0.64399,-0.64335 v -3.2174 c 0,-0.35713 0.28686,-0.64399 0.64399,-0.64399 h 5.1481 c 0.35262,0 0.64335,0.29073 0.64335,0.64399 v 3.2174 c 0,0.35326 -0.29073,0.64335 -0.64335,0.64335 z m -4.82642,-0.96502 h 4.50474 l -1.44786,-1.9307 -1.12618,1.44786 -0.80451,-0.96503 z m -3.66349,-0.031 h -7.10458 c -0.12763,0 -0.23013,-0.0651 -0.23013,-0.14698 v -0.75552 c 0,-0.0806 0.1025,-0.14698 0.23013,-0.14698 h 7.10458 c 0.12764,0 0.23078,0.0651 0.23078,0.14698 v 0.75552 c 0,0.0806 -0.10314,0.14698 -0.23078,0.14698 z m -0.009,-2.32522 h -7.10522 c -0.12764,0 -0.23014,-0.0651 -0.23014,-0.14698 v -0.75552 c 0,-0.0806 0.1025,-0.14697 0.23014,-0.14697 h 7.10522 c 0.12764,0 0.23014,0.0651 0.23014,0.14697 v 0.75552 c 0,0.0812 -0.1025,0.14698 -0.23014,0.14698 z"
         fill="#f3f3f3"
         fill-rule="nonzero"
         id="path433"
         style="display:inline;enable-background:new;stroke-width:0.64464" />
      <path
         d="m 333.28154,205.6959 h -6.95016 c -0.15505,0 -0.27987,-0.0477 -0.27987,-0.10778 v -0.55405 c 0,-0.0591 0.12482,-0.10778 0.27987,-0.10778 h 6.95016 c 0.15505,0 0.27986,0.0477 0.27986,0.10778 v 0.55405 c 0,0.0591 -0.12481,0.10778 -0.27986,0.10778 z m 0,-1.61061 h -6.95016 c -0.15505,0 -0.27987,-0.0477 -0.27987,-0.10778 v -0.55405 c 0,-0.0591 0.12482,-0.10778 0.27987,-0.10778 h 6.95016 c 0.15505,0 0.27986,0.0477 0.27986,0.10778 v 0.55405 c 0,0.0591 -0.12481,0.10778 -0.27986,0.10778 z m -6.78991,-2.48565 h 11.45204 c 0.24393,0 0.44011,0.0477 0.44011,0.10779 v 0.55405 c 0,0.0595 -0.19618,0.10778 -0.44011,0.10778 h -11.45204 c -0.24393,0 -0.44012,-0.0477 -0.44012,-0.10778 v -0.55405 c 0,-0.0591 0.19619,-0.10779 0.44012,-0.10779 z m 0,-1.50093 h 11.45204 c 0.24393,0 0.44011,0.0473 0.44011,0.10731 v 0.55404 c 0,0.0596 -0.19618,0.10779 -0.44011,0.10779 h -11.45204 c -0.24393,0 -0.44012,-0.0477 -0.44012,-0.10779 v -0.55404 c 0,-0.0591 0.19619,-0.10731 0.44012,-0.10731 z m 4.95285,-0.91191 h -5.21049 c -0.0936,0 -0.16877,-0.0473 -0.16877,-0.10731 v -0.55405 c 0,-0.0595 0.0752,-0.10778 0.16877,-0.10778 h 5.21049 c 0.0931,0 0.16877,0.0477 0.16877,0.10778 v 0.55405 c 0,0.0591 -0.0756,0.10731 -0.16877,0.10731 z m 6.21554,-0.88922 h -3.77527 c -0.2619,0 -0.47226,-0.21225 -0.47226,-0.47179 v -2.35942 c 0,-0.2619 0.21036,-0.47226 0.47226,-0.47226 h 3.77527 c 0.25859,0 0.47179,0.2132 0.47179,0.47226 v 2.35942 c 0,0.25906 -0.2132,0.47179 -0.47179,0.47179 z m -3.53937,-0.70768 h 3.30347 l -1.06176,-1.41585 -0.82587,1.06177 -0.58997,-0.70769 z m -2.68656,-0.0227 h -5.21003 c -0.0936,0 -0.16876,-0.0477 -0.16876,-0.10779 v -0.55405 c 0,-0.0591 0.0752,-0.10778 0.16876,-0.10778 h 5.21003 c 0.0936,0 0.16923,0.0477 0.16923,0.10778 v 0.55405 c 0,0.0591 -0.0756,0.10779 -0.16923,0.10779 z m -0.007,-1.70516 h -5.2105 c -0.0936,0 -0.16877,-0.0477 -0.16877,-0.10779 v -0.55405 c 0,-0.0591 0.0752,-0.10777 0.16877,-0.10777 h 5.2105 c 0.0936,0 0.16877,0.0477 0.16877,0.10777 v 0.55405 c 0,0.0596 -0.0752,0.10779 -0.16877,0.10779 z"
         fill="#f3f3f3"
         fill-rule="nonzero"
         id="path445"
         style="display:inline;enable-background:new;stroke-width:0.472736" />
      <path
         d="m 328.81554,247.62467 h -4.42283 c -0.0987,0 -0.1781,-0.0304 -0.1781,-0.0686 v -0.35258 c 0,-0.0376 0.0794,-0.0686 0.1781,-0.0686 h 4.42283 c 0.0987,0 0.1781,0.0303 0.1781,0.0686 v 0.35258 c 0,0.0376 -0.0794,0.0686 -0.1781,0.0686 z m 0,-1.02494 h -4.42283 c -0.0987,0 -0.1781,-0.0303 -0.1781,-0.0686 v -0.35258 c 0,-0.0376 0.0794,-0.0686 0.1781,-0.0686 h 4.42283 c 0.0987,0 0.1781,0.0304 0.1781,0.0686 v 0.35258 c 0,0.0376 -0.0794,0.0686 -0.1781,0.0686 z m -4.32085,-1.58177 h 7.28766 c 0.15523,0 0.28007,0.0303 0.28007,0.0686 v 0.35258 c 0,0.0379 -0.12484,0.0686 -0.28007,0.0686 h -7.28766 c -0.15523,0 -0.28008,-0.0303 -0.28008,-0.0686 v -0.35258 c 0,-0.0376 0.12485,-0.0686 0.28008,-0.0686 z m 0,-0.95514 h 7.28766 c 0.15523,0 0.28007,0.0301 0.28007,0.0683 v 0.35257 c 0,0.0379 -0.12484,0.0686 -0.28007,0.0686 h -7.28766 c -0.15523,0 -0.28008,-0.0303 -0.28008,-0.0686 v -0.35257 c 0,-0.0376 0.12485,-0.0683 0.28008,-0.0683 z m 3.15181,-0.58031 h -3.31576 c -0.0596,0 -0.1074,-0.0301 -0.1074,-0.0683 v -0.35257 c 0,-0.0379 0.0478,-0.0686 0.1074,-0.0686 h 3.31576 c 0.0593,0 0.1074,0.0303 0.1074,0.0686 v 0.35257 c 0,0.0376 -0.0481,0.0683 -0.1074,0.0683 z m 3.95535,-0.56587 h -2.40245 c -0.16666,0 -0.30053,-0.13506 -0.30053,-0.30023 v -1.50145 c 0,-0.16666 0.13387,-0.30052 0.30053,-0.30052 h 2.40245 c 0.16456,0 0.30023,0.13567 0.30023,0.30052 v 1.50145 c 0,0.16486 -0.13567,0.30023 -0.30023,0.30023 z m -2.25233,-0.45034 h 2.10221 l -0.67566,-0.90099 -0.52556,0.67567 -0.37543,-0.45035 z m -1.70963,-0.0144 h -3.31547 c -0.0596,0 -0.10739,-0.0304 -0.10739,-0.0686 v -0.35257 c 0,-0.0376 0.0478,-0.0686 0.10739,-0.0686 h 3.31547 c 0.0596,0 0.10769,0.0303 0.10769,0.0686 v 0.35257 c 0,0.0376 -0.0481,0.0686 -0.10769,0.0686 z m -0.004,-1.08511 h -3.31578 c -0.0596,0 -0.10739,-0.0303 -0.10739,-0.0686 v -0.35258 c 0,-0.0376 0.0478,-0.0686 0.10739,-0.0686 h 3.31578 c 0.0596,0 0.1074,0.0304 0.1074,0.0686 v 0.35258 c 0,0.0379 -0.0479,0.0686 -0.1074,0.0686 z"
         fill="#f3f3f3"
         fill-rule="nonzero"
         id="path457"
         style="display:inline;enable-background:new;stroke-width:0.300832" />
    </g>
  </g>
</svg>
