<?xml version="1.0" encoding="UTF-8" standalone="no"?>
<svg
   inkscape:export-ydpi="90.000000"
   inkscape:export-xdpi="90.000000"
   width="400"
   height="300"
   id="svg11300"
   sodipodi:version="0.32"
   inkscape:version="1.2.2 (b0a8486541, 2022-12-01)"
   sodipodi:docname="libreoffice-draw.svg"
   inkscape:output_extension="org.inkscape.output.svg.inkscape"
   version="1.0"
   style="display:inline;enable-background:new"
   inkscape:export-filename="/home/sam/suru-template.png"
   xmlns:inkscape="http://www.inkscape.org/namespaces/inkscape"
   xmlns:sodipodi="http://sodipodi.sourceforge.net/DTD/sodipodi-0.dtd"
   xmlns:xlink="http://www.w3.org/1999/xlink"
   xmlns="http://www.w3.org/2000/svg"
   xmlns:svg="http://www.w3.org/2000/svg"
   xmlns:rdf="http://www.w3.org/1999/02/22-rdf-syntax-ns#"
   xmlns:cc="http://creativecommons.org/ns#"
   xmlns:dc="http://purl.org/dc/elements/1.1/">
  <title
     id="title3004">Suru Icon Theme Template</title>
  <sodipodi:namedview
     stroke="#ef2929"
     fill="#f57900"
     id="base"
     pagecolor="#ffffff"
     bordercolor="#000000"
     borderopacity="0.25490196"
     inkscape:pageopacity="0"
     inkscape:pageshadow="2"
     inkscape:zoom="1.4142136"
     inkscape:cx="219.91021"
     inkscape:cy="159.80613"
     inkscape:current-layer="layer6"
     showgrid="false"
     inkscape:grid-bbox="true"
     inkscape:document-units="px"
     inkscape:showpageshadow="false"
     inkscape:window-width="1920"
     inkscape:window-height="1020"
     inkscape:window-x="0"
     inkscape:window-y="32"
     width="400px"
     height="300px"
     inkscape:snap-nodes="true"
     inkscape:snap-bbox="true"
     gridtolerance="10000"
     inkscape:object-nodes="true"
     inkscape:snap-grids="true"
     showguides="true"
     inkscape:guide-bbox="true"
     inkscape:window-maximized="1"
     inkscape:bbox-paths="true"
     inkscape:snap-bbox-midpoints="true"
     inkscape:snap-global="true"
     inkscape:object-paths="true"
     inkscape:snap-intersection-paths="true"
     inkscape:snap-smooth-nodes="true"
     inkscape:pagecheckerboard="false"
     showborder="false"
     inkscape:document-rotation="0"
     inkscape:deskcolor="#d1d1d1">
    <inkscape:grid
       spacingy="1"
       spacingx="1"
       id="grid5883"
       type="xygrid"
       enabled="true"
       visible="true"
       empspacing="4"
       snapvisiblegridlinesonly="true"
       originx="0"
       originy="0" />
    <inkscape:grid
       type="xygrid"
       id="grid11592"
       empspacing="2"
       visible="true"
       enabled="false"
       spacingx="0.5"
       spacingy="0.5"
       color="#ff0000"
       opacity="0.1254902"
       empcolor="#ff0000"
       empopacity="0.25098039"
       snapvisiblegridlinesonly="true"
       originx="0"
       originy="0" />
  </sodipodi:namedview>
  <defs
     id="defs3">
    <linearGradient
       id="b"
       x2="1"
       gradientTransform="matrix(0,-203.23056,203.23056,0,561.91612,254.13381)"
       gradientUnits="userSpaceOnUse">
      <stop
         stop-color="#c26d00"
         offset="0"
         id="stop7" />
      <stop
         stop-color="#eea54f"
         offset="1"
         id="stop9" />
    </linearGradient>
    <linearGradient
       id="a"
       x2="1"
       gradientTransform="matrix(-0.00528208,-207.68287,207.68287,-0.00528208,235.61349,259.06168)"
       gradientUnits="userSpaceOnUse">
      <stop
         stop-color="#b7b4b4"
         offset="0"
         id="stop2" />
      <stop
         stop-color="#f1f1f1"
         offset="1"
         id="stop4" />
    </linearGradient>
    <linearGradient
       inkscape:collect="always"
       xlink:href="#b"
       id="linearGradient499"
       gradientUnits="userSpaceOnUse"
       gradientTransform="matrix(0,-41.734847,41.734847,0,428.17921,104.15248)"
       x2="1" />
    <linearGradient
       inkscape:collect="always"
       xlink:href="#a"
       id="linearGradient501"
       gradientUnits="userSpaceOnUse"
       gradientTransform="matrix(-0.00108471,-42.64916,42.64916,-0.00108471,361.17062,105.16445)"
       x2="1" />
    <linearGradient
       inkscape:collect="always"
       xlink:href="#b"
       id="linearGradient515"
       gradientUnits="userSpaceOnUse"
       gradientTransform="matrix(0,-27.218378,27.218378,0,390.89946,161.14292)"
       x2="1" />
    <linearGradient
       inkscape:collect="always"
       xlink:href="#a"
       id="linearGradient517"
       gradientUnits="userSpaceOnUse"
       gradientTransform="matrix(-7.0741956e-4,-27.814669,27.814669,-7.0741956e-4,347.19821,161.8029)"
       x2="1" />
    <linearGradient
       inkscape:collect="always"
       xlink:href="#b"
       id="linearGradient531"
       gradientUnits="userSpaceOnUse"
       gradientTransform="matrix(0,-19.960145,19.960145,0,372.25958,209.63814)"
       x2="1" />
    <linearGradient
       inkscape:collect="always"
       xlink:href="#a"
       id="linearGradient533"
       gradientUnits="userSpaceOnUse"
       gradientTransform="matrix(-5.1877438e-4,-20.397426,20.397426,-5.1877438e-4,340.21199,210.12213)"
       x2="1" />
    <linearGradient
       inkscape:collect="always"
       xlink:href="#b"
       id="linearGradient547"
       gradientUnits="userSpaceOnUse"
       gradientTransform="matrix(0,-12.701913,12.701913,0,353.61975,250.13337)"
       x2="1" />
    <linearGradient
       inkscape:collect="always"
       xlink:href="#a"
       id="linearGradient549"
       gradientUnits="userSpaceOnUse"
       gradientTransform="matrix(-3.3012921e-4,-12.980182,12.980182,-3.3012921e-4,333.22583,250.44136)"
       x2="1" />
  </defs>
  <metadata
     id="metadata4">
    <rdf:RDF>
      <cc:Work
         rdf:about="">
        <dc:format>image/svg+xml</dc:format>
        <dc:type
           rdf:resource="http://purl.org/dc/dcmitype/StillImage" />
        <dc:creator>
          <cc:Agent>
            <dc:title>Sam Hewitt</dc:title>
          </cc:Agent>
        </dc:creator>
        <dc:source />
        <cc:license
           rdf:resource="http://creativecommons.org/licenses/by-sa/4.0/" />
        <dc:title>Suru Icon Theme Template</dc:title>
        <dc:subject>
          <rdf:Bag />
        </dc:subject>
        <dc:date />
        <dc:rights>
          <cc:Agent>
            <dc:title />
          </cc:Agent>
        </dc:rights>
        <dc:publisher>
          <cc:Agent>
            <dc:title />
          </cc:Agent>
        </dc:publisher>
        <dc:identifier />
        <dc:relation />
        <dc:language />
        <dc:coverage />
        <dc:description />
        <dc:contributor>
          <cc:Agent>
            <dc:title />
          </cc:Agent>
        </dc:contributor>
      </cc:Work>
      <cc:Work
         rdf:about="">
        <dc:format>image/svg+xml</dc:format>
        <dc:type
           rdf:resource="http://purl.org/dc/dcmitype/StillImage" />
      </cc:Work>
      <cc:License
         rdf:about="http://creativecommons.org/licenses/by-sa/4.0/">
        <cc:permits
           rdf:resource="http://creativecommons.org/ns#Reproduction" />
        <cc:permits
           rdf:resource="http://creativecommons.org/ns#Distribution" />
        <cc:requires
           rdf:resource="http://creativecommons.org/ns#Notice" />
        <cc:requires
           rdf:resource="http://creativecommons.org/ns#Attribution" />
        <cc:permits
           rdf:resource="http://creativecommons.org/ns#DerivativeWorks" />
        <cc:requires
           rdf:resource="http://creativecommons.org/ns#ShareAlike" />
      </cc:License>
    </rdf:RDF>
  </metadata>
  <g
     style="display:inline"
     inkscape:groupmode="layer"
     inkscape:label="Icon"
     id="layer1">
    <g
       style="display:none"
       inkscape:label="Baseplate"
       id="layer7"
       inkscape:groupmode="layer">
      <text
         y="-8.2548828"
         xml:space="preserve"
         x="19.006836"
         style="font-style:normal;font-variant:normal;font-weight:normal;font-stretch:normal;line-height:0%;font-family:'DejaVu Sans';-inkscape-font-specification:'DejaVu Sans';display:inline;fill:#000000;fill-opacity:1;stroke:none;enable-background:new"
         inkscape:label="context"
         id="context"><tspan
           style="font-style:normal;font-variant:normal;font-weight:normal;font-stretch:normal;font-size:18px;line-height:1.25;font-family:'DejaVu Sans';-inkscape-font-specification:'DejaVu Sans'"
           y="-8.2548828"
           x="19.006836"
           sodipodi:role="line"
           id="tspan3933">apps</tspan></text>
      <text
         y="-8.2548828"
         xml:space="preserve"
         x="146.48828"
         style="font-style:normal;font-variant:normal;font-weight:bold;font-stretch:normal;line-height:0%;font-family:'DejaVu Sans';-inkscape-font-specification:'DejaVu Sans Bold';text-align:start;writing-mode:lr-tb;text-anchor:start;display:inline;fill:#000000;fill-opacity:1;stroke:none;enable-background:new"
         inkscape:label="icon-name"
         id="icon-name"><tspan
           style="font-style:normal;font-variant:normal;font-weight:bold;font-stretch:normal;font-size:18px;line-height:1.25;font-family:'DejaVu Sans';-inkscape-font-specification:'DejaVu Sans Bold'"
           y="-8.2548828"
           x="146.48828"
           sodipodi:role="line"
           id="tspan924">libreoffice-draw</tspan></text>
      <rect
         style="display:inline;overflow:visible;visibility:visible;fill:#cdcdcd;fill-opacity:1;fill-rule:nonzero;stroke:none;stroke-width:2;marker:none;enable-background:accumulate"
         id="rect16x16"
         width="16"
         height="16"
         x="320"
         y="236"
         inkscape:label="16x16" />
      <rect
         style="display:inline;overflow:visible;visibility:visible;fill:#cdcdcd;fill-opacity:1;fill-rule:nonzero;stroke:none;stroke-width:2;marker:none;enable-background:accumulate"
         id="rect24x24"
         width="24"
         height="24"
         x="320"
         y="188"
         inkscape:label="24x24" />
      <rect
         style="display:inline;overflow:visible;visibility:visible;fill:#cdcdcd;fill-opacity:1;fill-rule:nonzero;stroke:none;stroke-width:2;marker:none;enable-background:accumulate"
         id="rect32x32"
         width="32"
         height="32"
         x="320"
         y="132"
         inkscape:label="32x32" />
      <rect
         inkscape:label="48x48"
         y="60"
         x="320"
         height="48"
         width="48"
         id="rect48x48"
         style="display:inline;overflow:visible;visibility:visible;fill:#cdcdcd;fill-opacity:1;fill-rule:nonzero;stroke:none;stroke-width:2;marker:none;enable-background:accumulate" />
      <rect
         style="display:inline;overflow:visible;visibility:visible;fill:#cdcdcd;fill-opacity:1;fill-rule:nonzero;stroke:none;stroke-width:2;marker:none;enable-background:accumulate"
         id="rect256x256"
         width="256"
         height="256"
         x="24"
         y="28"
         inkscape:label="256x256" />
    </g>
    <g
       inkscape:groupmode="layer"
       id="layer2"
       inkscape:label="Background"
       style="display:inline">
      <path
         d="m 247.78973,259.06168 -58.16888,-0.0674 V 51.54534 l 59.83429,-0.2166 c 10.39675,0.12515 15.59513,8.22114 15.59513,17.94885 v 170.99773 c 0.45245,10.68074 -6.60387,18.55532 -17.26054,18.78636 z"
         fill="url(#a)"
         id="path12"
         style="display:inline;fill:url(#a);stroke-width:4.81331;enable-background:new" />
      <path
         d="m 155.74957,51.57903 79.47742,-7.451003 c 10.6326,-1.073368 15.27744,4.630407 15.35928,16.062023 l -0.67388,187.96466 C 249.71987,260.87149 244.03052,267.53311 232.81551,268 L 156.2694,259.06168 H 74.520105 c -10.44007,0 -21.04861,-8.50031 -21.10637,-21.74655 V 72.58915 c 0.3995,-15.23895 6.75308,-20.98124 21.99202,-21.26041 z"
         fill="url(#b)"
         id="path14"
         style="display:inline;fill:url(#b);stroke-width:4.81331;enable-background:new" />
      <path
         d="m 249.9124,248.15471 c -0.19253,12.71678 -5.88187,19.3784 -17.09688,19.84529 l -77.41251,-9.0394 V 51.61273 l 79.82398,-7.484703 c 10.6326,-1.073368 15.27745,4.630407 15.35928,16.062023 z"
         fill-opacity="0.15"
         id="path16"
         style="display:inline;stroke-width:4.81331;enable-background:new" />
      <path
         d="m 363.6711,105.16445 -11.9454,-0.0138 V 62.549489 l 12.2874,-0.04448 c 2.13505,0.0257 3.20257,1.688269 3.20257,3.685924 v 35.115607 c 0.0929,2.19337 -1.35615,3.81047 -3.54457,3.85791 z"
         fill="url(#a)"
         id="path487"
         style="display:inline;fill:url(#linearGradient501);stroke-width:0.988448;enable-background:new" />
      <path
         d="m 344.77,62.556407 16.32125,-1.530116 c 2.18348,-0.220424 3.13733,0.950887 3.15415,3.298451 l -0.13839,38.599888 c -0.0395,2.61148 -1.20788,3.97949 -3.51097,4.07537 l -15.71929,-1.83555 h -16.78781 c -2.14393,0 -4.32248,-1.7456 -4.33434,-4.46581 V 66.870986 c 0.082,-3.129428 1.38679,-4.308648 4.51622,-4.365977 z"
         fill="url(#b)"
         id="path489"
         style="display:inline;fill:url(#linearGradient499);stroke-width:0.988448;enable-background:new" />
      <path
         d="m 364.10701,102.92463 c -0.0395,2.61148 -1.20788,3.97949 -3.51097,4.07537 l -15.89721,-1.85631 V 62.563328 l 16.39242,-1.537037 c 2.18348,-0.220424 3.13733,0.950887 3.15415,3.298451 z"
         fill-opacity="0.15"
         id="path491"
         style="display:inline;stroke-width:0.988448;enable-background:new" />
      <path
         d="m 348.82895,161.8029 -7.79048,-0.009 v -27.78336 l 8.01352,-0.029 c 1.39243,0.0168 2.08864,1.10104 2.08864,2.40386 v 22.90148 c 0.0606,1.43046 -0.88445,2.48509 -2.31168,2.51603 z"
         fill="url(#a)"
         id="path503"
         style="display:inline;fill:url(#linearGradient517);stroke-width:0.64464;enable-background:new" />
      <path
         d="m 336.50215,134.01505 10.64429,-0.9979 c 1.42401,-0.14376 2.04608,0.62014 2.05705,2.15116 l -0.0902,25.17384 c -0.0258,1.70314 -0.78775,2.59532 -2.28976,2.65785 l -10.25171,-1.1971 h -10.94858 c -1.39821,0 -2.81901,-1.13843 -2.82673,-2.91248 V 136.8289 c 0.0535,-2.04093 0.90443,-2.80998 2.94536,-2.84737 z"
         fill="url(#b)"
         id="path505"
         style="display:inline;fill:url(#linearGradient515);stroke-width:0.64464;enable-background:new" />
      <path
         d="m 349.11324,160.34215 c -0.0258,1.70314 -0.78775,2.59532 -2.28976,2.65785 l -10.36775,-1.21064 v -27.7698 l 10.69071,-1.00241 c 1.42401,-0.14376 2.04608,0.62014 2.05705,2.15116 z"
         fill-opacity="0.15"
         id="path507"
         style="display:inline;stroke-width:0.64464;enable-background:new" />
      <path
         d="m 341.40787,210.12213 -5.71302,-0.007 v -20.37447 l 5.87658,-0.0213 c 1.02112,0.0123 1.53167,0.80743 1.53167,1.76283 v 16.79442 c 0.0444,1.049 -0.6486,1.8224 -1.69523,1.84509 z"
         fill="url(#a)"
         id="path519"
         style="display:inline;fill:url(#linearGradient533);stroke-width:0.472736;enable-background:new" />
      <path
         d="m 332.36821,189.74437 7.80582,-0.73179 c 1.04427,-0.10543 1.50046,0.45477 1.5085,1.57751 l -0.0661,18.46082 c -0.0189,1.24897 -0.57768,1.90324 -1.67915,1.94909 l -7.51793,-0.87787 h -8.02895 c -1.02536,0 -2.06728,-0.83485 -2.07294,-2.13582 v -16.17845 c 0.0392,-1.49668 0.66325,-2.06065 2.15993,-2.08807 z"
         fill="url(#b)"
         id="path521"
         style="display:inline;fill:url(#linearGradient531);stroke-width:0.472736;enable-background:new" />
      <path
         d="m 341.61635,209.05091 c -0.0189,1.24897 -0.57769,1.90324 -1.67916,1.94909 l -7.60302,-0.8878 v -20.36452 l 7.83986,-0.7351 c 1.04427,-0.10543 1.50046,0.45477 1.5085,1.57751 z"
         fill-opacity="0.15"
         id="path523"
         style="display:inline;stroke-width:0.472736;enable-background:new" />
      <path
         d="m 333.98684,250.44136 -3.63555,-0.004 v -12.96557 l 3.73964,-0.0135 c 0.6498,0.008 0.9747,0.51382 0.9747,1.1218 v 10.68736 c 0.0283,0.66754 -0.41275,1.15971 -1.07879,1.17415 z"
         fill="url(#a)"
         id="path535"
         style="display:inline;fill:url(#linearGradient549);stroke-width:0.300832;enable-background:new" />
      <path
         d="m 328.23433,237.47369 4.96734,-0.46568 c 0.66454,-0.0671 0.95484,0.2894 0.95996,1.00387 l -0.0421,11.74779 c -0.012,0.7948 -0.36761,1.21116 -1.06855,1.24033 l -4.78413,-0.55864 h -5.10934 c -0.6525,0 -1.31554,-0.53127 -1.31914,-1.35916 v -10.29538 c 0.0249,-0.95243 0.42207,-1.31132 1.3745,-1.32877 z"
         fill="url(#b)"
         id="path537"
         style="display:inline;fill:url(#linearGradient547);stroke-width:0.300832;enable-background:new" />
      <path
         d="m 334.11951,249.75967 c -0.012,0.7948 -0.36762,1.21116 -1.06855,1.24033 l -4.83829,-0.56496 V 237.4758 l 4.989,-0.46779 c 0.66454,-0.0671 0.95484,0.2894 0.95996,1.00387 z"
         fill-opacity="0.15"
         id="path539"
         style="display:inline;stroke-width:0.300832;enable-background:new" />
    </g>
    <g
       inkscape:groupmode="layer"
       id="layer6"
       inkscape:label="Pictogram"
       style="display:inline">
      <path
         d="m 165.40508,103.15849 c -4.25497,0 -7.81201,3.55704 -7.81201,7.81201 v 22.4878 l 8.72172,15.2245 v -36.80258 h 50.13065 v 42.82885 h -46.6795 l 5.00103,8.72172 h 42.57856 c 4.25497,0 7.82163,-3.56666 7.82163,-7.82163 V 110.9705 c 0,-4.25497 -3.56666,-7.81201 -7.82163,-7.81201 z"
         id="path18"
         style="display:inline;enable-background:new;fill:#e5eaee;fill-rule:nonzero;stroke-width:4.81331" />
      <path
         d="m 115.73169,112.69367 c -18.988515,0 -34.468135,15.48923 -34.468135,34.47294 0,18.98852 15.47962,34.47294 34.468135,34.47294 h 0.26474 l 5.44867,-9.36189 c -1.83869,0.41394 -3.74476,0.6498 -5.71341,0.6498 -14.27147,0 -25.746405,-11.47013 -25.746405,-25.7416 0,-14.27628 11.474935,-25.75603 25.746405,-25.75603 11.66747,0 21.46738,7.67242 24.65379,18.27133 1.65097,-3.24898 3.7977,-6.28618 5.65564,-8.91907 -5.84817,-10.75294 -17.25091,-18.07398 -30.30943,-18.07398 z"
         id="path20"
         style="display:inline;enable-background:new;fill:#e5eaee;fill-rule:nonzero;stroke-width:4.81331" />
      <path
         d="m 148.84247,138.24273 c -0.45726,0.34656 -0.84714,0.78457 -1.13594,1.28034 l -34.07825,58.59245 c -0.38507,0.66424 -0.59204,1.42474 -0.59204,2.19487 0,2.3874 1.96383,4.35605 4.35605,4.36086 l 67.77625,0.21179 h 0.0144 c 2.39221,0 4.36086,-1.96865 4.36086,-4.36086 0,-0.76532 -0.19735,-1.51138 -0.5776,-2.17562 l -33.70281,-58.79942 c -0.77494,-1.35736 -2.22375,-2.19488 -3.78327,-2.19488 -0.95303,0 -1.87719,0.31287 -2.63769,0.89047 z m 2.61363,12.19693 26.18923,45.69759 -52.67689,-0.15884 26.48766,-45.53394 z"
         id="path22"
         style="display:inline;enable-background:new;fill:#e5eaee;fill-rule:nonzero;stroke-width:4.81331" />
      <path
         d="m 346.75282,73.148618 c -0.87379,0 -1.60425,0.730464 -1.60425,1.604252 v 4.61803 l 1.79107,3.12646 v -7.557672 h 10.29469 v 8.79521 h -9.58597 l 1.02699,1.791067 h 8.74382 c 0.87378,0 1.60622,-0.732439 1.60622,-1.606227 V 74.75287 c 0,-0.873788 -0.73244,-1.604252 -1.60622,-1.604252 z"
         id="path493"
         style="display:inline;enable-background:new;fill:#e5eaee;fill-rule:nonzero;stroke-width:0.988448" />
      <path
         d="m 336.55205,75.106735 c -3.89944,0 -7.07829,3.180824 -7.07829,7.079265 0,3.899428 3.17885,7.079264 7.07829,7.079264 h 0.0544 l 1.11892,-1.922531 c -0.37759,0.08501 -0.76901,0.133441 -1.17329,0.133441 -2.93075,0 -5.28721,-2.355473 -5.28721,-5.286221 0,-2.931736 2.35646,-5.289185 5.28721,-5.289185 2.396,0 4.40848,1.575586 5.06283,3.752148 0.33904,-0.667201 0.77989,-1.290912 1.16143,-1.831594 -1.20096,-2.208194 -3.5426,-3.711621 -6.22426,-3.711621 z"
         id="path495"
         style="display:inline;enable-background:new;fill:#e5eaee;fill-rule:nonzero;stroke-width:0.988448" />
      <path
         d="m 343.35158,80.353417 c -0.0939,0.07117 -0.17397,0.161117 -0.23328,0.262927 l -6.99821,12.032378 c -0.0791,0.136407 -0.12158,0.292581 -0.12158,0.450733 0,0.490269 0.40328,0.894546 0.89454,0.895533 l 13.91834,0.04349 h 0.003 c 0.49126,0 0.89553,-0.404276 0.89553,-0.895534 0,-0.157164 -0.0405,-0.310372 -0.11861,-0.446779 l -6.92115,-12.074878 c -0.15913,-0.278743 -0.45666,-0.450734 -0.77693,-0.450734 -0.1957,0 -0.38549,0.06425 -0.54166,0.182864 z m 0.53672,2.504727 5.37815,9.384326 -10.81757,-0.03262 5.43942,-9.35072 z"
         id="path497"
         style="display:inline;enable-background:new;fill:#e5eaee;fill-rule:nonzero;stroke-width:0.988448" />
      <path
         d="m 337.79529,140.92301 c -0.56986,0 -1.04625,0.47639 -1.04625,1.04625 v 3.01176 l 1.16809,2.039 v -4.92892 h 6.71393 v 5.73601 h -6.25172 l 0.66978,1.16808 h 5.70249 c 0.56986,0 1.04754,-0.47767 1.04754,-1.04753 v -5.9784 c 0,-0.56986 -0.47768,-1.04625 -1.04754,-1.04625 z"
         id="path509"
         style="display:inline;enable-background:new;fill:#e5eaee;fill-rule:nonzero;stroke-width:0.64464" />
      <path
         d="m 331.14261,142.20004 c -2.54311,0 -4.61627,2.07446 -4.61627,4.61692 0,2.5431 2.07316,4.61691 4.61627,4.61691 h 0.0355 l 0.72973,-1.25383 c -0.24625,0.0554 -0.50153,0.087 -0.76519,0.087 -1.91136,0 -3.44818,-1.53617 -3.44818,-3.44753 0,-1.912 1.53682,-3.44947 3.44818,-3.44947 1.56261,0 2.8751,1.02756 3.30185,2.44705 0.22111,-0.43513 0.50862,-0.8419 0.75745,-1.19452 -0.78323,-1.44012 -2.31039,-2.42062 -4.0593,-2.42062 z"
         id="path511"
         style="display:inline;enable-background:new;fill:#e5eaee;fill-rule:nonzero;stroke-width:0.64464" />
      <path
         d="m 335.57709,145.62179 c -0.0612,0.0464 -0.11346,0.10508 -0.15214,0.17148 l -4.56405,7.8472 c -0.0516,0.089 -0.0793,0.19081 -0.0793,0.29396 0,0.31974 0.26301,0.5834 0.58339,0.58404 l 9.07718,0.0284 h 0.002 c 0.32039,0 0.58404,-0.26366 0.58404,-0.58404 0,-0.1025 -0.0264,-0.20242 -0.0774,-0.29138 l -4.5138,-7.87492 c -0.10378,-0.18179 -0.29782,-0.29396 -0.50669,-0.29396 -0.12763,0 -0.25141,0.0419 -0.35326,0.11926 z m 0.35003,1.63352 3.50749,6.12021 -7.05493,-0.0213 3.54744,-6.09829 z"
         id="path513"
         style="display:inline;enable-background:new;fill:#e5eaee;fill-rule:nonzero;stroke-width:0.64464" />
      <path
         d="m 333.31652,194.81021 c -0.4179,0 -0.76725,0.34935 -0.76725,0.76725 v 2.20862 l 0.8566,1.49527 v -3.61454 h 4.92354 v 4.20641 h -4.58459 l 0.49117,0.85659 h 4.18183 c 0.4179,0 0.76819,-0.35029 0.76819,-0.76819 v -4.38416 c 0,-0.4179 -0.35028,-0.76725 -0.76819,-0.76725 z"
         id="path525"
         style="display:inline;enable-background:new;fill:#e5eaee;fill-rule:nonzero;stroke-width:0.472736" />
      <path
         d="m 328.43788,195.7467 c -1.86494,0 -3.38526,1.52127 -3.38526,3.38574 0,1.86494 1.52032,3.38573 3.38526,3.38573 h 0.026 l 0.53513,-0.91947 c -0.18058,0.0406 -0.36779,0.0638 -0.56114,0.0638 -1.40166,0 -2.52866,-1.12653 -2.52866,-2.52819 0,-1.40213 1.127,-2.52961 2.52866,-2.52961 1.14592,0 2.10841,0.75354 2.42136,1.7945 0.16215,-0.31909 0.37299,-0.61739 0.55546,-0.87598 -0.57437,-1.05609 -1.69428,-1.77512 -2.97682,-1.77512 z"
         id="path527"
         style="display:inline;enable-background:new;fill:#e5eaee;fill-rule:nonzero;stroke-width:0.472736" />
      <path
         d="m 331.68984,198.25598 c -0.0449,0.034 -0.0832,0.0771 -0.11156,0.12575 l -3.34697,5.75462 c -0.0378,0.0653 -0.0582,0.13992 -0.0582,0.21557 0,0.23447 0.19288,0.42782 0.42782,0.42829 l 6.6566,0.0208 h 0.001 c 0.23495,0 0.42829,-0.19335 0.42829,-0.4283 0,-0.0752 -0.0194,-0.14844 -0.0568,-0.21367 l -3.31012,-5.77495 c -0.0761,-0.13331 -0.2184,-0.21557 -0.37158,-0.21557 -0.0936,0 -0.18437,0.0307 -0.25905,0.0875 z m 0.25668,1.19792 2.57216,4.48815 -5.17361,-0.0156 2.60145,-4.47208 z"
         id="path529"
         style="display:inline;enable-background:new;fill:#e5eaee;fill-rule:nonzero;stroke-width:0.472736" />
      <path
         d="m 328.8378,240.69741 c -0.26593,0 -0.48825,0.22231 -0.48825,0.48825 v 1.40548 l 0.54511,0.95154 v -2.30016 h 3.13316 v 2.6768 h -2.91746 l 0.31256,0.54511 h 2.66117 c 0.26593,0 0.48884,-0.22291 0.48884,-0.48885 v -2.78992 c 0,-0.26594 -0.2229,-0.48825 -0.48884,-0.48825 z"
         id="path541"
         style="display:inline;enable-background:new;fill:#e5eaee;fill-rule:nonzero;stroke-width:0.300832" />
      <path
         d="m 325.73321,241.29336 c -1.18678,0 -2.15425,0.96808 -2.15425,2.15456 0,1.18678 0.96747,2.15455 2.15425,2.15455 h 0.0165 l 0.34054,-0.58511 c -0.11492,0.0258 -0.23405,0.0406 -0.35709,0.0406 -0.89197,0 -1.60915,-0.71689 -1.60915,-1.60885 0,-0.89227 0.71718,-1.60975 1.60915,-1.60975 0.72922,0 1.34171,0.47952 1.54086,1.14195 0.10319,-0.20306 0.23736,-0.39288 0.35348,-0.55744 -0.36551,-0.67206 -1.07818,-1.12962 -1.89434,-1.12962 z"
         id="path543"
         style="display:inline;enable-background:new;fill:#e5eaee;fill-rule:nonzero;stroke-width:0.300832" />
      <path
         d="m 327.80264,242.89017 c -0.0286,0.0216 -0.0529,0.0491 -0.071,0.08 l -2.12989,3.66204 c -0.0241,0.0416 -0.037,0.089 -0.037,0.13718 0,0.14921 0.12275,0.27225 0.27225,0.27255 l 4.23602,0.0132 h 6.4e-4 c 0.14951,0 0.27255,-0.12304 0.27255,-0.27255 0,-0.0479 -0.0124,-0.0945 -0.0362,-0.13598 l -2.10644,-3.67496 c -0.0484,-0.0848 -0.13898,-0.13718 -0.23646,-0.13718 -0.0596,0 -0.11733,0.0195 -0.16485,0.0557 z m 0.16334,0.76231 1.63683,2.8561 -3.29229,-0.01 1.65546,-2.84587 z"
         id="path545"
         style="display:inline;enable-background:new;fill:#e5eaee;fill-rule:nonzero;stroke-width:0.300832" />
    </g>
  </g>
</svg>
