<?xml version="1.0" encoding="UTF-8" standalone="no"?>
<svg
   inkscape:export-ydpi="90.000000"
   inkscape:export-xdpi="90.000000"
   width="400"
   height="300"
   id="svg11300"
   sodipodi:version="0.32"
   inkscape:version="1.2.2 (b0a8486541, 2022-12-01)"
   sodipodi:docname="libreoffice-math.svg"
   inkscape:output_extension="org.inkscape.output.svg.inkscape"
   version="1.0"
   style="display:inline;enable-background:new"
   inkscape:export-filename="/home/sam/suru-template.png"
   xmlns:inkscape="http://www.inkscape.org/namespaces/inkscape"
   xmlns:sodipodi="http://sodipodi.sourceforge.net/DTD/sodipodi-0.dtd"
   xmlns:xlink="http://www.w3.org/1999/xlink"
   xmlns="http://www.w3.org/2000/svg"
   xmlns:svg="http://www.w3.org/2000/svg"
   xmlns:rdf="http://www.w3.org/1999/02/22-rdf-syntax-ns#"
   xmlns:cc="http://creativecommons.org/ns#"
   xmlns:dc="http://purl.org/dc/elements/1.1/">
  <title
     id="title3004">Suru Icon Theme Template</title>
  <sodipodi:namedview
     stroke="#ef2929"
     fill="#f57900"
     id="base"
     pagecolor="#ffffff"
     bordercolor="#000000"
     borderopacity="0.25490196"
     inkscape:pageopacity="0"
     inkscape:pageshadow="2"
     inkscape:zoom="2"
     inkscape:cx="301.5"
     inkscape:cy="151.5"
     inkscape:current-layer="layer6"
     showgrid="false"
     inkscape:grid-bbox="true"
     inkscape:document-units="px"
     inkscape:showpageshadow="false"
     inkscape:window-width="1920"
     inkscape:window-height="1020"
     inkscape:window-x="0"
     inkscape:window-y="32"
     width="400px"
     height="300px"
     inkscape:snap-nodes="true"
     inkscape:snap-bbox="true"
     gridtolerance="10000"
     inkscape:object-nodes="true"
     inkscape:snap-grids="true"
     showguides="true"
     inkscape:guide-bbox="true"
     inkscape:window-maximized="1"
     inkscape:bbox-paths="true"
     inkscape:snap-bbox-midpoints="true"
     inkscape:snap-global="true"
     inkscape:object-paths="true"
     inkscape:snap-intersection-paths="true"
     inkscape:snap-smooth-nodes="true"
     inkscape:pagecheckerboard="false"
     showborder="false"
     inkscape:document-rotation="0"
     inkscape:deskcolor="#d1d1d1">
    <inkscape:grid
       spacingy="1"
       spacingx="1"
       id="grid5883"
       type="xygrid"
       enabled="true"
       visible="true"
       empspacing="4"
       snapvisiblegridlinesonly="true"
       originx="0"
       originy="0" />
    <inkscape:grid
       type="xygrid"
       id="grid11592"
       empspacing="2"
       visible="true"
       enabled="false"
       spacingx="0.5"
       spacingy="0.5"
       color="#ff0000"
       opacity="0.1254902"
       empcolor="#ff0000"
       empopacity="0.25098039"
       snapvisiblegridlinesonly="true"
       originx="0"
       originy="0" />
  </sodipodi:namedview>
  <defs
     id="defs3">
    <linearGradient
       id="c"
       x2="1"
       gradientTransform="matrix(0,-95.402258,95.402258,0,1631.3042,210.24074)"
       gradientUnits="userSpaceOnUse">
      <stop
         stop-color="#f6fbff"
         offset="0"
         id="stop12" />
      <stop
         stop-color="#eaeff2"
         offset="1"
         id="stop14" />
    </linearGradient>
    <linearGradient
       id="b"
       x2="1"
       gradientTransform="matrix(0,-203.23056,203.23056,0,561.91613,254.13381)"
       gradientUnits="userSpaceOnUse">
      <stop
         stop-color="#ec2e5b"
         offset="0"
         id="stop7" />
      <stop
         stop-color="#f46587"
         offset="1"
         id="stop9" />
    </linearGradient>
    <linearGradient
       id="a"
       x2="1"
       gradientTransform="matrix(-0.00528208,-207.68288,207.68288,-0.00528208,235.6135,259.06168)"
       gradientUnits="userSpaceOnUse">
      <stop
         stop-color="#b7b4b4"
         offset="0"
         id="stop2" />
      <stop
         stop-color="#f1f1f1"
         offset="1"
         id="stop4" />
    </linearGradient>
    <linearGradient
       inkscape:collect="always"
       xlink:href="#c"
       id="linearGradient530"
       gradientUnits="userSpaceOnUse"
       gradientTransform="matrix(0,-19.591535,19.591535,0,647.78567,95.138723)"
       x2="1" />
    <linearGradient
       inkscape:collect="always"
       xlink:href="#b"
       id="linearGradient532"
       gradientUnits="userSpaceOnUse"
       gradientTransform="matrix(0,-41.734847,41.734847,0,428.1792,104.15248)"
       x2="1" />
    <linearGradient
       inkscape:collect="always"
       xlink:href="#a"
       id="linearGradient534"
       gradientUnits="userSpaceOnUse"
       gradientTransform="matrix(-0.00108471,-42.649162,42.649162,-0.00108471,361.17063,105.16445)"
       x2="1" />
    <linearGradient
       inkscape:collect="always"
       xlink:href="#c"
       id="linearGradient544"
       gradientUnits="userSpaceOnUse"
       gradientTransform="matrix(0,-12.777088,12.777088,0,534.12111,155.26439)"
       x2="1" />
    <linearGradient
       inkscape:collect="always"
       xlink:href="#b"
       id="linearGradient546"
       gradientUnits="userSpaceOnUse"
       gradientTransform="matrix(0,-27.218379,27.218379,0,390.8995,161.14292)"
       x2="1" />
    <linearGradient
       inkscape:collect="always"
       xlink:href="#a"
       id="linearGradient548"
       gradientUnits="userSpaceOnUse"
       gradientTransform="matrix(-7.0741957e-4,-27.814671,27.814671,-7.0741957e-4,347.19826,161.8029)"
       x2="1" />
    <linearGradient
       inkscape:collect="always"
       xlink:href="#c"
       id="linearGradient558"
       gradientUnits="userSpaceOnUse"
       gradientTransform="matrix(0,-9.3698653,9.3698653,0,477.28881,205.32722)"
       x2="1" />
    <linearGradient
       inkscape:collect="always"
       xlink:href="#b"
       id="linearGradient560"
       gradientUnits="userSpaceOnUse"
       gradientTransform="matrix(0,-19.960146,19.960146,0,372.25962,209.63814)"
       x2="1" />
    <linearGradient
       inkscape:collect="always"
       xlink:href="#a"
       id="linearGradient562"
       gradientUnits="userSpaceOnUse"
       gradientTransform="matrix(-5.1877439e-4,-20.397427,20.397427,-5.1877439e-4,340.21204,210.12213)"
       x2="1" />
    <linearGradient
       inkscape:collect="always"
       xlink:href="#c"
       id="linearGradient572"
       gradientUnits="userSpaceOnUse"
       gradientTransform="matrix(0,-5.9626426,5.9626426,0,420.45652,247.39005)"
       x2="1" />
    <linearGradient
       inkscape:collect="always"
       xlink:href="#b"
       id="linearGradient574"
       gradientUnits="userSpaceOnUse"
       gradientTransform="matrix(0,-12.701913,12.701913,0,353.61975,250.13337)"
       x2="1" />
    <linearGradient
       inkscape:collect="always"
       xlink:href="#a"
       id="linearGradient576"
       gradientUnits="userSpaceOnUse"
       gradientTransform="matrix(-3.3012922e-4,-12.980183,12.980183,-3.3012922e-4,333.22583,250.44136)"
       x2="1" />
  </defs>
  <metadata
     id="metadata4">
    <rdf:RDF>
      <cc:Work
         rdf:about="">
        <dc:format>image/svg+xml</dc:format>
        <dc:type
           rdf:resource="http://purl.org/dc/dcmitype/StillImage" />
        <dc:creator>
          <cc:Agent>
            <dc:title>Sam Hewitt</dc:title>
          </cc:Agent>
        </dc:creator>
        <dc:source />
        <cc:license
           rdf:resource="http://creativecommons.org/licenses/by-sa/4.0/" />
        <dc:title>Suru Icon Theme Template</dc:title>
        <dc:subject>
          <rdf:Bag />
        </dc:subject>
        <dc:date />
        <dc:rights>
          <cc:Agent>
            <dc:title />
          </cc:Agent>
        </dc:rights>
        <dc:publisher>
          <cc:Agent>
            <dc:title />
          </cc:Agent>
        </dc:publisher>
        <dc:identifier />
        <dc:relation />
        <dc:language />
        <dc:coverage />
        <dc:description />
        <dc:contributor>
          <cc:Agent>
            <dc:title />
          </cc:Agent>
        </dc:contributor>
      </cc:Work>
      <cc:Work
         rdf:about="">
        <dc:format>image/svg+xml</dc:format>
        <dc:type
           rdf:resource="http://purl.org/dc/dcmitype/StillImage" />
      </cc:Work>
      <cc:License
         rdf:about="http://creativecommons.org/licenses/by-sa/4.0/">
        <cc:permits
           rdf:resource="http://creativecommons.org/ns#Reproduction" />
        <cc:permits
           rdf:resource="http://creativecommons.org/ns#Distribution" />
        <cc:requires
           rdf:resource="http://creativecommons.org/ns#Notice" />
        <cc:requires
           rdf:resource="http://creativecommons.org/ns#Attribution" />
        <cc:permits
           rdf:resource="http://creativecommons.org/ns#DerivativeWorks" />
        <cc:requires
           rdf:resource="http://creativecommons.org/ns#ShareAlike" />
      </cc:License>
    </rdf:RDF>
  </metadata>
  <g
     style="display:inline"
     inkscape:groupmode="layer"
     inkscape:label="Icon"
     id="layer1">
    <g
       style="display:none"
       inkscape:label="Baseplate"
       id="layer7"
       inkscape:groupmode="layer">
      <text
         y="-8.2548828"
         xml:space="preserve"
         x="19.006836"
         style="font-style:normal;font-variant:normal;font-weight:normal;font-stretch:normal;line-height:0%;font-family:'DejaVu Sans';-inkscape-font-specification:'DejaVu Sans';display:inline;fill:#000000;fill-opacity:1;stroke:none;enable-background:new"
         inkscape:label="context"
         id="context"><tspan
           style="font-style:normal;font-variant:normal;font-weight:normal;font-stretch:normal;font-size:18px;line-height:1.25;font-family:'DejaVu Sans';-inkscape-font-specification:'DejaVu Sans'"
           y="-8.2548828"
           x="19.006836"
           sodipodi:role="line"
           id="tspan3933">apps</tspan></text>
      <text
         y="-8.2548828"
         xml:space="preserve"
         x="146.48828"
         style="font-style:normal;font-variant:normal;font-weight:bold;font-stretch:normal;line-height:0%;font-family:'DejaVu Sans';-inkscape-font-specification:'DejaVu Sans Bold';text-align:start;writing-mode:lr-tb;text-anchor:start;display:inline;fill:#000000;fill-opacity:1;stroke:none;enable-background:new"
         inkscape:label="icon-name"
         id="icon-name"><tspan
           style="font-style:normal;font-variant:normal;font-weight:bold;font-stretch:normal;font-size:18px;line-height:1.25;font-family:'DejaVu Sans';-inkscape-font-specification:'DejaVu Sans Bold'"
           y="-8.2548828"
           x="146.48828"
           sodipodi:role="line"
           id="tspan924">libreoffice-math</tspan></text>
      <rect
         style="display:inline;overflow:visible;visibility:visible;fill:#cdcdcd;fill-opacity:1;fill-rule:nonzero;stroke:none;stroke-width:2;marker:none;enable-background:accumulate"
         id="rect16x16"
         width="16"
         height="16"
         x="320"
         y="236"
         inkscape:label="16x16" />
      <rect
         style="display:inline;overflow:visible;visibility:visible;fill:#cdcdcd;fill-opacity:1;fill-rule:nonzero;stroke:none;stroke-width:2;marker:none;enable-background:accumulate"
         id="rect24x24"
         width="24"
         height="24"
         x="320"
         y="188"
         inkscape:label="24x24" />
      <rect
         style="display:inline;overflow:visible;visibility:visible;fill:#cdcdcd;fill-opacity:1;fill-rule:nonzero;stroke:none;stroke-width:2;marker:none;enable-background:accumulate"
         id="rect32x32"
         width="32"
         height="32"
         x="320"
         y="132"
         inkscape:label="32x32" />
      <rect
         inkscape:label="48x48"
         y="60"
         x="320"
         height="48"
         width="48"
         id="rect48x48"
         style="display:inline;overflow:visible;visibility:visible;fill:#cdcdcd;fill-opacity:1;fill-rule:nonzero;stroke:none;stroke-width:2;marker:none;enable-background:accumulate" />
      <rect
         style="display:inline;overflow:visible;visibility:visible;fill:#cdcdcd;fill-opacity:1;fill-rule:nonzero;stroke:none;stroke-width:2;marker:none;enable-background:accumulate"
         id="rect256x256"
         width="256"
         height="256"
         x="24"
         y="28"
         inkscape:label="256x256" />
    </g>
    <g
       inkscape:groupmode="layer"
       id="layer2"
       inkscape:label="Background"
       style="display:inline">
      <path
         d="m 247.78973,259.06168 -58.16888,-0.0674 V 51.545338 l 59.83429,-0.2166 c 10.39675,0.12515 15.59513,8.22114 15.59513,17.94885 V 240.27532 c 0.45245,10.68074 -6.60387,18.55532 -17.26054,18.78636 z"
         fill="url(#a)"
         id="path17"
         style="fill:url(#a);stroke-width:4.81331" />
      <path
         d="m 155.74957,51.579038 79.47742,-7.45101 c 10.6326,-1.07337 15.27745,4.6304 15.35927,16.06202 L 249.9124,248.15471 c -0.19253,12.71678 -5.88187,19.3784 -17.09688,19.84529 l -76.54611,-8.93832 H 74.520105 c -10.44007,0 -21.048609,-8.50031 -21.106369,-21.74655 V 72.589138 c 0.399499,-15.23894 6.753079,-20.98122 21.992019,-21.2604 z"
         fill="url(#b)"
         id="path19"
         style="fill:url(#b);stroke-width:4.81331" />
      <path
         d="m 249.9124,248.15471 c -0.19253,12.71678 -5.88187,19.3784 -17.09688,19.84529 l -77.41251,-9.0394 V 51.612728 l 79.82398,-7.4847 c 10.6326,-1.07337 15.27745,4.6304 15.35927,16.06202 z"
         fill-opacity="0.15"
         id="path21"
         style="stroke-width:4.81331" />
      <path
         d="m 363.6711,105.16445 -11.9454,-0.0138 V 62.54949 l 12.2874,-0.04448 c 2.13505,0.0257 3.20257,1.688269 3.20257,3.685924 v 35.115606 c 0.0929,2.19337 -1.35615,3.81047 -3.54457,3.85791 z"
         fill="url(#a)"
         id="path522"
         style="fill:url(#linearGradient534);stroke-width:0.988448" />
      <path
         d="m 344.76999,62.55641 16.32126,-1.530118 c 2.18348,-0.220424 3.13733,0.950886 3.15414,3.298451 L 364.107,102.92463 c -0.0395,2.61148 -1.20788,3.97949 -3.51096,4.07537 l -15.71929,-1.83555 h -16.78781 c -2.14394,0 -4.32248,-1.7456 -4.33434,-4.46581 V 66.870985 c 0.082,-3.129426 1.38679,-4.308644 4.51622,-4.365975 z"
         fill="url(#b)"
         id="path524"
         style="fill:url(#linearGradient532);stroke-width:0.988448" />
      <path
         d="m 364.10701,102.92463 c -0.0395,2.61148 -1.20788,3.97949 -3.51097,4.07537 l -15.8972,-1.8563 V 62.563329 l 16.39242,-1.537037 c 2.18348,-0.220424 3.13733,0.950886 3.15414,3.298452 z"
         fill-opacity="0.15"
         id="path526"
         style="stroke-width:0.988448" />
      <path
         d="m 348.829,161.8029 -7.79048,-0.009 v -27.78336 l 8.01352,-0.029 c 1.39243,0.0168 2.08864,1.10104 2.08864,2.40386 v 22.90148 c 0.0606,1.43046 -0.88445,2.48509 -2.31168,2.51603 z"
         fill="url(#a)"
         id="path536"
         style="fill:url(#linearGradient548);stroke-width:0.64464" />
      <path
         d="m 336.50219,134.01505 10.6443,-0.9979 c 1.42401,-0.14376 2.04608,0.62014 2.05705,2.15116 l -0.0903,25.17384 c -0.0258,1.70314 -0.78774,2.59532 -2.28975,2.65785 l -10.25171,-1.1971 H 325.6232 c -1.39822,0 -2.81901,-1.13843 -2.82674,-2.91248 V 136.8289 c 0.0535,-2.04093 0.90443,-2.80998 2.94536,-2.84737 z"
         fill="url(#b)"
         id="path538"
         style="fill:url(#linearGradient546);stroke-width:0.64464" />
      <path
         d="m 349.11329,160.34215 c -0.0258,1.70314 -0.78775,2.59532 -2.28976,2.65785 l -10.36774,-1.21063 v -27.76981 l 10.69071,-1.00241 c 1.424,-0.14376 2.04608,0.62014 2.05704,2.15116 z"
         fill-opacity="0.15"
         id="path540"
         style="stroke-width:0.64464" />
      <path
         d="m 341.40792,210.12213 -5.71302,-0.007 v -20.37447 l 5.87658,-0.0213 c 1.02112,0.0123 1.53167,0.80743 1.53167,1.76283 v 16.79442 c 0.0444,1.049 -0.64859,1.8224 -1.69523,1.84509 z"
         fill="url(#a)"
         id="path550"
         style="fill:url(#linearGradient562);stroke-width:0.472736" />
      <path
         d="m 332.36826,189.74437 7.80582,-0.73179 c 1.04427,-0.10543 1.50046,0.45477 1.5085,1.57751 l -0.0662,18.46082 c -0.0189,1.24897 -0.57767,1.90324 -1.67915,1.94909 l -7.51792,-0.87787 h -8.02896 c -1.02535,0 -2.06727,-0.83485 -2.07294,-2.13582 v -16.17845 c 0.0392,-1.49668 0.66325,-2.06065 2.15993,-2.08807 z"
         fill="url(#b)"
         id="path552"
         style="fill:url(#linearGradient560);stroke-width:0.472736" />
      <path
         d="m 341.6164,209.05091 c -0.0189,1.24897 -0.57768,1.90324 -1.67916,1.94909 l -7.60301,-0.88779 v -20.36453 l 7.83986,-0.7351 c 1.04426,-0.10543 1.50046,0.45477 1.50849,1.57751 z"
         fill-opacity="0.15"
         id="path554"
         style="stroke-width:0.472736" />
      <path
         d="m 333.98685,250.44136 -3.63556,-0.004 v -12.96557 l 3.73964,-0.0135 c 0.64981,0.008 0.9747,0.51382 0.9747,1.1218 v 10.68736 c 0.0283,0.66754 -0.41274,1.15971 -1.07878,1.17415 z"
         fill="url(#a)"
         id="path564"
         style="fill:url(#linearGradient576);stroke-width:0.300832" />
      <path
         d="m 328.23434,237.47369 4.96734,-0.46568 c 0.66453,-0.0671 0.95484,0.2894 0.95995,1.00387 l -0.0421,11.74779 c -0.012,0.7948 -0.3676,1.21116 -1.06855,1.24033 l -4.78413,-0.55864 h -5.10934 c -0.65249,0 -1.31553,-0.53127 -1.31914,-1.35916 v -10.29538 c 0.0249,-0.95243 0.42207,-1.31132 1.3745,-1.32877 z"
         fill="url(#b)"
         id="path566"
         style="fill:url(#linearGradient574);stroke-width:0.300832" />
      <path
         d="m 334.11952,249.75967 c -0.012,0.7948 -0.36762,1.21116 -1.06856,1.24033 l -4.83828,-0.56495 V 237.4758 l 4.989,-0.46779 c 0.66453,-0.0671 0.95484,0.2894 0.95995,1.00387 z"
         fill-opacity="0.15"
         id="path568"
         style="stroke-width:0.300832" />
    </g>
    <g
       inkscape:groupmode="layer"
       id="layer6"
       inkscape:label="Pictogram"
       style="display:inline">
      <path
         d="m 153.90126,114.88372 -32.60057,56.4409 -11.41236,-19.78271 h -0.0241 -14.680604 v 7.3403 h 10.478584 l 15.64808,27.10376 4.22608,-7.32105 32.61982,-56.46978 h 47.1079 v 7.33068 h 7.3403 v -14.6421 z m 15.41222,24.21096 -13.48208,2.37778 v 1.81462 c 1.00598,-0.0674 1.90607,-0.10108 2.68101,-0.10108 2.4211,0 4.25016,0.45726 5.4968,1.36216 1.24184,0.90972 2.25745,2.45961 3.03239,4.64966 0.16847,0.47171 1.29478,4.78925 3.37895,12.96707 -0.84233,1.882 -2.62326,4.94808 -5.34759,9.18861 -2.72434,4.24053 -4.8807,6.99374 -6.46428,8.27409 -0.64017,0.53909 -1.16001,0.81345 -1.56433,0.81345 -0.4717,0 -1.14557,-0.38988 -2.01678,-1.16483 -1.21295,-1.07336 -2.35852,-1.61246 -3.4367,-1.61246 -1.07337,0 -1.98309,0.36582 -2.72434,1.10707 -0.74125,0.74125 -1.11187,1.67022 -1.11187,2.77728 0,1.24665 0.40913,2.243 1.21777,2.97944 1.10706,0.9771 2.32964,1.46324 3.67737,1.46324 1.9157,0 3.90841,-0.83751 5.95888,-2.51736 3.16234,-2.62325 7.36918,-8.50512 12.61569,-17.62153 2.22375,9.99243 3.687,15.65289 4.39455,16.96692 1.11188,2.11786 2.60882,3.17197 4.49082,3.17197 1.28035,0 2.83986,-0.74125 4.69298,-2.21893 3.26343,-2.62807 5.9637,-5.92038 8.08156,-9.89136 l -1.7713,-0.90972 c -1.31404,2.48849 -2.89762,4.51489 -4.74593,6.06478 -0.94341,0.77013 -1.76648,1.16001 -2.47404,1.16001 -0.43801,0 -0.87121,-0.2503 -1.30922,-0.76051 -0.43801,-0.53909 -0.97711,-2.13711 -1.61728,-4.79406 l -4.13463,-17.36161 c 2.89761,-5.01548 5.3861,-8.39442 7.47507,-10.14647 1.10706,-0.93859 2.06491,-1.41511 2.87355,-1.41511 0.53909,0 1.59802,0.27436 3.17679,0.81345 0.80863,0.30324 1.56914,0.44282 2.27188,0.44282 1.21295,0 2.29114,-0.41394 3.23455,-1.25627 0.50539,-0.4717 0.75087,-1.35254 0.75087,-2.62807 0,-1.11187 -0.4332,-2.05047 -1.30922,-2.82541 -0.84233,-0.77495 -1.9879,-1.16001 -3.4367,-1.16001 -0.97229,0 -1.86276,0.16846 -2.67139,0.5054 -1.28034,0.53909 -2.75803,1.54026 -4.43788,3.02276 -1.68465,1.44399 -3.11421,2.97944 -4.28866,4.59671 l -4.4475,6.66644 c -1.38142,-5.15025 -2.37296,-8.33185 -2.97944,-9.5448 -0.84233,-1.74723 -2.08416,-3.49928 -3.73032,-5.25132 z"
         fill="url(#c)"
         fill-rule="nonzero"
         id="path23"
         style="display:inline;enable-background:new;fill:url(#c);stroke-width:4.81331" />
      <path
         d="m 344.39044,75.556479 -6.69476,11.590542 -2.34361,-4.062521 h -0.005 -3.01477 v 1.507383 h 2.15186 l 3.21344,5.565951 0.86786,-1.50343 6.69871,-11.596473 h 9.67394 v 1.505408 h 1.50739 v -3.00686 z m 3.16501,4.971894 -2.76864,0.488294 v 0.372645 c 0.20657,-0.01384 0.39141,-0.02076 0.55056,-0.02076 0.49719,0 0.8728,0.0939 1.12881,0.27973 0.25502,0.186818 0.46357,0.505099 0.62272,0.954842 0.0346,0.09687 0.2659,0.983506 0.69389,2.66288 -0.17297,0.386482 -0.5387,1.016124 -1.09816,1.886947 -0.55946,0.870823 -1.00229,1.436214 -1.32749,1.699143 -0.13146,0.110706 -0.23821,0.167048 -0.32124,0.167048 -0.0969,0 -0.23525,-0.08007 -0.41416,-0.239206 -0.24909,-0.220422 -0.48434,-0.33113 -0.70575,-0.33113 -0.22043,0 -0.40725,0.07512 -0.55947,0.227344 -0.15222,0.152221 -0.22833,0.342992 -0.22833,0.570335 0,0.256008 0.084,0.460616 0.25008,0.611849 0.22734,0.200655 0.47841,0.300487 0.75517,0.300487 0.39341,0 0.80262,-0.171989 1.2237,-0.516958 0.64941,-0.538703 1.51332,-1.746587 2.59072,-3.618707 0.45667,2.052017 0.75716,3.214433 0.90246,3.484278 0.22833,0.434918 0.53574,0.651387 0.92222,0.651387 0.26293,0 0.58318,-0.152221 0.96374,-0.455673 0.67016,-0.539693 1.22468,-1.215793 1.6596,-2.031262 l -0.36375,-0.186817 c -0.26984,0.511029 -0.59504,0.927165 -0.97461,1.245446 -0.19373,0.158151 -0.36276,0.238216 -0.50806,0.238216 -0.0899,0 -0.17891,-0.0514 -0.26886,-0.156176 -0.0899,-0.110706 -0.20065,-0.438871 -0.33212,-0.984495 l -0.84907,-3.56533 c 0.59504,-1.029965 1.10607,-1.723854 1.53506,-2.08365 0.22734,-0.192747 0.42404,-0.290603 0.5901,-0.290603 0.11071,0 0.32816,0.05634 0.65238,0.167046 0.16605,0.06227 0.32223,0.09094 0.46654,0.09094 0.24909,0 0.47051,-0.08501 0.66424,-0.257984 0.10379,-0.09687 0.1542,-0.277754 0.1542,-0.539693 0,-0.228331 -0.089,-0.421079 -0.26886,-0.580218 -0.17298,-0.159142 -0.40823,-0.238217 -0.70575,-0.238217 -0.19967,0 -0.38253,0.0346 -0.54859,0.103788 -0.26293,0.110706 -0.56638,0.316303 -0.91135,0.620745 -0.34596,0.296534 -0.63953,0.611849 -0.88071,0.943967 l -0.91332,1.369001 c -0.28369,-1.05764 -0.48731,-1.711004 -0.61185,-1.960092 -0.17298,-0.358807 -0.428,-0.718603 -0.76605,-1.078396 z"
         fill="url(#c)"
         fill-rule="nonzero"
         id="path528"
         style="display:inline;enable-background:new;fill:url(#linearGradient530);stroke-width:0.988448" />
      <path
         d="m 336.25466,142.49336 -4.36615,7.55905 -1.52844,-2.64947 h -0.003 -1.96616 v 0.98307 h 1.40339 l 2.09572,3.62997 0.566,-0.9805 4.36872,-7.56292 h 6.30909 v 0.98179 h 0.98308 v -1.96099 z m 2.06413,3.24254 -1.80563,0.31845 v 0.24303 c 0.13472,-0.009 0.25527,-0.0135 0.35906,-0.0135 0.32425,0 0.56922,0.0612 0.73618,0.18243 0.16632,0.12184 0.30233,0.32941 0.40612,0.62272 0.0226,0.0632 0.17342,0.64142 0.45254,1.73666 -0.11281,0.25206 -0.35133,0.66269 -0.71619,1.23062 -0.36487,0.56793 -0.65367,0.93666 -0.86576,1.10814 -0.0857,0.0722 -0.15535,0.10894 -0.2095,0.10894 -0.0632,0 -0.15342,-0.0522 -0.27011,-0.156 -0.16245,-0.14375 -0.31587,-0.21595 -0.46027,-0.21595 -0.14376,0 -0.26559,0.049 -0.36487,0.14826 -0.0993,0.0993 -0.14891,0.22369 -0.14891,0.37196 0,0.16696 0.0548,0.3004 0.1631,0.39903 0.14826,0.13086 0.312,0.19597 0.4925,0.19597 0.25657,0 0.52345,-0.11216 0.79806,-0.33714 0.42353,-0.35133 0.98695,-1.13908 1.6896,-2.36003 0.29783,1.33827 0.4938,2.09637 0.58856,2.27235 0.14892,0.28365 0.3494,0.42482 0.60145,0.42482 0.17148,0 0.38034,-0.0993 0.62853,-0.29718 0.43706,-0.35197 0.7987,-0.7929 1.08235,-1.32473 l -0.23723,-0.12184 c -0.17598,0.33328 -0.38807,0.60467 -0.63562,0.81225 -0.12634,0.10314 -0.23658,0.15536 -0.33134,0.15536 -0.0586,0 -0.11668,-0.0335 -0.17534,-0.10186 -0.0586,-0.0722 -0.13086,-0.28622 -0.2166,-0.64206 l -0.55375,-2.32521 c 0.38807,-0.67172 0.72135,-1.12426 1.00113,-1.35891 0.14827,-0.1257 0.27655,-0.18952 0.38485,-0.18952 0.0722,0 0.21402,0.0367 0.42546,0.10894 0.1083,0.0406 0.21015,0.0593 0.30427,0.0593 0.16245,0 0.30685,-0.0554 0.4332,-0.16825 0.0677,-0.0632 0.10056,-0.18114 0.10056,-0.35197 0,-0.14891 -0.058,-0.27462 -0.17534,-0.3784 -0.11281,-0.10379 -0.26624,-0.15536 -0.46027,-0.15536 -0.13022,0 -0.24948,0.0226 -0.35778,0.0677 -0.17147,0.0722 -0.36938,0.20628 -0.59436,0.40483 -0.22562,0.19339 -0.41708,0.39903 -0.57437,0.61563 l -0.59565,0.89283 c -0.18501,-0.68977 -0.31781,-1.11587 -0.39903,-1.27832 -0.11281,-0.23401 -0.27913,-0.46866 -0.4996,-0.70331 z"
         fill="url(#c)"
         fill-rule="nonzero"
         id="path542"
         style="display:inline;enable-background:new;fill:url(#linearGradient544);stroke-width:0.64464" />
      <path
         d="m 332.18674,195.9618 -3.20185,5.5433 -1.12085,-1.94294 h -0.002 -1.44185 v 0.72092 h 1.02915 l 1.53686,2.66197 0.41507,-0.71903 3.20373,-5.54614 h 4.62666 v 0.71998 h 0.72093 v -1.43806 z m 1.51369,2.37786 -1.32413,0.23353 v 0.17822 c 0.0988,-0.007 0.1872,-0.01 0.26331,-0.01 0.23779,0 0.41743,0.0449 0.53987,0.13379 0.12197,0.0893 0.22171,0.24156 0.29782,0.45666 0.0166,0.0463 0.12718,0.47037 0.33186,1.27355 -0.0827,0.18484 -0.25764,0.48597 -0.5252,0.90245 -0.26757,0.41648 -0.47936,0.68689 -0.63489,0.81264 -0.0629,0.053 -0.11393,0.0799 -0.15364,0.0799 -0.0463,0 -0.1125,-0.0383 -0.19808,-0.1144 -0.11913,-0.10542 -0.23163,-0.15837 -0.33753,-0.15837 -0.10542,0 -0.19476,0.0359 -0.26757,0.10873 -0.0728,0.0728 -0.1092,0.16404 -0.1092,0.27277 0,0.12244 0.0402,0.22029 0.11961,0.29262 0.10872,0.096 0.2288,0.14371 0.36116,0.14371 0.18815,0 0.38387,-0.0822 0.58525,-0.24723 0.31059,-0.25765 0.72376,-0.83533 1.23904,-1.73069 0.21841,0.9814 0.36212,1.53734 0.43161,1.66639 0.10921,0.20801 0.25623,0.31153 0.44106,0.31153 0.12575,0 0.27892,-0.0728 0.46092,-0.21793 0.32051,-0.25811 0.58572,-0.58146 0.79373,-0.97147 l -0.17397,-0.0893 c -0.12905,0.24441 -0.28459,0.44343 -0.46612,0.59565 -0.0927,0.0756 -0.17349,0.11393 -0.24299,0.11393 -0.043,0 -0.0856,-0.0246 -0.12858,-0.0747 -0.043,-0.053 -0.096,-0.2099 -0.15884,-0.47085 l -0.40608,-1.70515 c 0.28458,-0.4926 0.52899,-0.82446 0.73416,-0.99654 0.10873,-0.0922 0.2028,-0.13898 0.28222,-0.13898 0.053,0 0.15695,0.0269 0.31201,0.0799 0.0794,0.0298 0.15411,0.0435 0.22313,0.0435 0.11913,0 0.22502,-0.0406 0.31768,-0.12339 0.0496,-0.0463 0.0737,-0.13283 0.0737,-0.25811 0,-0.1092 -0.0425,-0.20138 -0.12858,-0.27749 -0.0827,-0.0761 -0.19524,-0.11393 -0.33753,-0.11393 -0.0955,0 -0.18295,0.0166 -0.26237,0.0496 -0.12575,0.0529 -0.27088,0.15127 -0.43587,0.29687 -0.16545,0.14182 -0.30586,0.29262 -0.4212,0.45146 l -0.43681,0.65475 c -0.13568,-0.50584 -0.23306,-0.81831 -0.29262,-0.93744 -0.0827,-0.17161 -0.2047,-0.34368 -0.36638,-0.51576 z"
         fill="url(#c)"
         fill-rule="nonzero"
         id="path556"
         style="display:inline;enable-background:new;fill:url(#linearGradient558);stroke-width:0.472736" />
      <path
         d="m 328.11882,241.43024 -2.03754,3.52755 -0.71327,-1.23641 h -0.001 -0.91754 v 0.45876 h 0.65491 l 0.97801,1.69399 0.26413,-0.45757 2.03874,-3.52936 h 2.94424 v 0.45817 h 0.45877 v -0.91513 z m 0.96326,1.51318 -0.84263,0.14861 v 0.11342 c 0.0629,-0.004 0.11913,-0.006 0.16756,-0.006 0.15132,0 0.26564,0.0286 0.34356,0.0851 0.0776,0.0568 0.14109,0.15372 0.18952,0.2906 0.0106,0.0295 0.0809,0.29933 0.21118,0.81044 -0.0526,0.11763 -0.16395,0.30926 -0.33422,0.57429 -0.17027,0.26503 -0.30504,0.43711 -0.40402,0.51713 -0.04,0.0337 -0.0725,0.0509 -0.0978,0.0509 -0.0295,0 -0.0716,-0.0244 -0.12605,-0.0728 -0.0758,-0.0671 -0.1474,-0.10078 -0.21479,-0.10078 -0.0671,0 -0.12394,0.0228 -0.17027,0.0692 -0.0463,0.0463 -0.0695,0.10439 -0.0695,0.17358 0,0.0779 0.0256,0.14019 0.0761,0.18621 0.0692,0.0611 0.1456,0.0915 0.22983,0.0915 0.11973,0 0.24428,-0.0523 0.37243,-0.15733 0.19765,-0.16396 0.46058,-0.53158 0.78848,-1.10135 0.13899,0.62453 0.23044,0.97831 0.27466,1.06043 0.0695,0.13237 0.16306,0.19825 0.28068,0.19825 0.08,0 0.17749,-0.0463 0.29331,-0.13869 0.20396,-0.16425 0.37273,-0.37002 0.5051,-0.6182 l -0.1107,-0.0568 c -0.0821,0.15553 -0.18111,0.28218 -0.29663,0.37905 -0.059,0.0481 -0.1104,0.0725 -0.15463,0.0725 -0.0274,0 -0.0545,-0.0157 -0.0818,-0.0475 -0.0274,-0.0337 -0.0611,-0.13357 -0.10108,-0.29963 l -0.25841,-1.08509 c 0.18109,-0.31348 0.33663,-0.52466 0.46719,-0.63417 0.0692,-0.0587 0.12905,-0.0884 0.17959,-0.0884 0.0337,0 0.0999,0.0171 0.19855,0.0508 0.0505,0.019 0.0981,0.0277 0.142,0.0277 0.0758,0 0.14319,-0.0258 0.20216,-0.0785 0.0316,-0.0295 0.0469,-0.0845 0.0469,-0.16425 0,-0.0695 -0.027,-0.12815 -0.0818,-0.17659 -0.0526,-0.0484 -0.12424,-0.0725 -0.21479,-0.0725 -0.0608,0 -0.11642,0.0106 -0.16696,0.0316 -0.08,0.0337 -0.17238,0.0963 -0.27737,0.18892 -0.10529,0.0902 -0.19464,0.18621 -0.26804,0.28729 l -0.27797,0.41666 c -0.0863,-0.32189 -0.14831,-0.52074 -0.18621,-0.59655 -0.0526,-0.10921 -0.13027,-0.2187 -0.23315,-0.32821 z"
         fill="url(#c)"
         fill-rule="nonzero"
         id="path570"
         style="display:inline;enable-background:new;fill:url(#linearGradient572);stroke-width:0.300832" />
    </g>
  </g>
</svg>
