<?xml version="1.0" encoding="UTF-8" standalone="no"?>
<svg
   inkscape:export-ydpi="96"
   inkscape:export-xdpi="96"
   width="400"
   height="300"
   id="svg11300"
   sodipodi:version="0.32"
   inkscape:version="1.1.2 (0a00cf5339, 2022-02-04)"
   sodipodi:docname="livepatch.svg"
   inkscape:output_extension="org.inkscape.output.svg.inkscape"
   version="1.0"
   style="display:inline;enable-background:new"
   inkscape:export-filename="C:\Users\sblav\Pictures\preferences-system-network.png"
   xmlns:inkscape="http://www.inkscape.org/namespaces/inkscape"
   xmlns:sodipodi="http://sodipodi.sourceforge.net/DTD/sodipodi-0.dtd"
   xmlns:xlink="http://www.w3.org/1999/xlink"
   xmlns="http://www.w3.org/2000/svg"
   xmlns:svg="http://www.w3.org/2000/svg"
   xmlns:rdf="http://www.w3.org/1999/02/22-rdf-syntax-ns#"
   xmlns:cc="http://creativecommons.org/ns#"
   xmlns:dc="http://purl.org/dc/elements/1.1/">
  <title
     id="title3004">Yaru Icon Theme Template</title>
  <sodipodi:namedview
     stroke="#ef2929"
     fill="#f57900"
     id="base"
     pagecolor="#ffffff"
     bordercolor="#000000"
     borderopacity="0.25490196"
     inkscape:pageopacity="0"
     inkscape:pageshadow="2"
     inkscape:zoom="0.99999999"
     inkscape:cx="572"
     inkscape:cy="134"
     inkscape:current-layer="layer7"
     showgrid="false"
     inkscape:grid-bbox="true"
     inkscape:document-units="px"
     inkscape:showpageshadow="false"
     inkscape:window-width="1904"
     inkscape:window-height="1011"
     inkscape:window-x="0"
     inkscape:window-y="32"
     width="400px"
     height="300px"
     inkscape:snap-nodes="true"
     inkscape:snap-bbox="true"
     gridtolerance="10000"
     inkscape:object-nodes="true"
     inkscape:snap-grids="true"
     showguides="false"
     inkscape:guide-bbox="true"
     inkscape:window-maximized="1"
     inkscape:bbox-paths="true"
     inkscape:snap-bbox-midpoints="true"
     inkscape:snap-global="true"
     inkscape:object-paths="true"
     inkscape:snap-intersection-paths="true"
     inkscape:snap-smooth-nodes="true"
     inkscape:pagecheckerboard="false"
     showborder="false"
     inkscape:document-rotation="0" />
  <defs
     id="defs3">
    <linearGradient
       inkscape:collect="always"
       id="linearGradient927">
      <stop
         style="stop-color:#ffffff;stop-opacity:1;"
         offset="0"
         id="stop923" />
      <stop
         id="stop933"
         offset="0.125"
         style="stop-color:#ffffff;stop-opacity:0.09803922" />
      <stop
         id="stop931"
         offset="0.92500001"
         style="stop-color:#ffffff;stop-opacity:0.09803922" />
      <stop
         style="stop-color:#ffffff;stop-opacity:0.49803922"
         offset="1"
         id="stop925" />
    </linearGradient>
    <linearGradient
       inkscape:collect="always"
       xlink:href="#linearGradient927"
       id="linearGradient8590"
       gradientUnits="userSpaceOnUse"
       gradientTransform="matrix(0.23913043,0,0,0.23913032,321.04348,61.043494)"
       x1="96"
       y1="4.0000062"
       x2="96"
       y2="188" />
    <linearGradient
       inkscape:collect="always"
       xlink:href="#linearGradient927"
       id="linearGradient8590-3"
       gradientUnits="userSpaceOnUse"
       gradientTransform="matrix(0.15217394,0,0,0.15217387,321.3913,133.39129)"
       x1="96"
       y1="4.0000062"
       x2="96"
       y2="188" />
    <linearGradient
       inkscape:collect="always"
       xlink:href="#linearGradient927"
       id="linearGradient8590-3-3"
       gradientUnits="userSpaceOnUse"
       gradientTransform="matrix(0.11956515,0,0,0.11956513,320.52176,188.52174)"
       x1="95.999878"
       y1="3.9999957"
       x2="95.999878"
       y2="188.00014" />
    <linearGradient
       inkscape:collect="always"
       xlink:href="#linearGradient927"
       id="linearGradient8590-3-3-4"
       gradientUnits="userSpaceOnUse"
       gradientTransform="matrix(0.0760869,0,0,0.07608688,320.69566,236.69567)"
       x1="96"
       y1="4.0000062"
       x2="96"
       y2="188" />
    <linearGradient
       id="linearGradient7537">
      <stop
         style="stop-color:#f37e40;stop-opacity:1"
         offset="0"
         id="stop7539" />
      <stop
         style="stop-color:#f34f17;stop-opacity:1"
         offset="1"
         id="stop7541" />
    </linearGradient>
    <linearGradient
       id="linearGradient3792">
      <stop
         style="stop-color:#552000;stop-opacity:1;"
         offset="0"
         id="stop3794" />
      <stop
         style="stop-color:#431900;stop-opacity:1;"
         offset="1"
         id="stop3796" />
    </linearGradient>
    <filter
       style="color-interpolation-filters:sRGB"
       inkscape:label="Drop Shadow"
       id="filter1115"
       x="-0.00959997"
       y="-0.011076923"
       width="1.0191999"
       height="1.0267692">
      <feFlood
         flood-opacity="0.196078"
         flood-color="rgb(0,0,0)"
         result="flood"
         id="feFlood1105" />
      <feComposite
         in="flood"
         in2="SourceGraphic"
         operator="in"
         result="composite1"
         id="feComposite1107" />
      <feGaussianBlur
         in="composite1"
         stdDeviation="3"
         result="blur"
         id="feGaussianBlur1109" />
      <feOffset
         dx="0"
         dy="3"
         result="offset"
         id="feOffset1111" />
      <feComposite
         in="SourceGraphic"
         in2="offset"
         operator="over"
         result="composite2"
         id="feComposite1113" />
    </filter>
    <linearGradient
       id="linearGradient1169">
      <stop
         style="stop-color:#ffa13e;stop-opacity:1"
         offset="0"
         id="stop1165" />
      <stop
         style="stop-color:#fe793d;stop-opacity:1"
         offset="1"
         id="stop1167" />
    </linearGradient>
    <linearGradient
       inkscape:collect="always"
       xlink:href="#linearGradient1197"
       id="linearGradient1199"
       x1="540.14288"
       y1="29.770346"
       x2="540.14288"
       y2="1054.9744"
       gradientUnits="userSpaceOnUse"
       gradientTransform="matrix(0.22741108,0,0,0.22741108,35.565528,33.115644)" />
    <linearGradient
       inkscape:collect="always"
       id="linearGradient1197">
      <stop
         style="stop-color:#ffffff;stop-opacity:0.58823532"
         offset="0"
         id="stop1193" />
      <stop
         style="stop-color:#ffffff;stop-opacity:0"
         offset="1"
         id="stop1195" />
    </linearGradient>
    <linearGradient
       inkscape:collect="always"
       xlink:href="#linearGradient3792"
       id="linearGradient1067"
       x1="480"
       y1="192.36218"
       x2="480"
       y2="852.36218"
       gradientUnits="userSpaceOnUse"
       gradientTransform="translate(0,10)" />
    <filter
       style="color-interpolation-filters:sRGB"
       inkscape:label="Drop Shadow"
       id="filter1115-7"
       x="-0.0095999701"
       y="-0.011076923"
       width="1.0191999"
       height="1.0267692">
      <feFlood
         flood-opacity="0.196078"
         flood-color="rgb(0,0,0)"
         result="flood"
         id="feFlood1105-5" />
      <feComposite
         in="flood"
         in2="SourceGraphic"
         operator="in"
         result="composite1"
         id="feComposite1107-3" />
      <feGaussianBlur
         in="composite1"
         stdDeviation="3"
         result="blur"
         id="feGaussianBlur1109-5" />
      <feOffset
         dx="0"
         dy="3"
         result="offset"
         id="feOffset1111-6" />
      <feComposite
         in="SourceGraphic"
         in2="offset"
         operator="over"
         result="composite2"
         id="feComposite1113-2" />
    </filter>
    <linearGradient
       inkscape:collect="always"
       xlink:href="#linearGradient1169"
       id="linearGradient975"
       gradientUnits="userSpaceOnUse"
       gradientTransform="matrix(1.1199996,0,0,1.1199996,40.000028,44.00004)"
       x1="102.29776"
       y1="-0.42686829"
       x2="102.29776"
       y2="199.16539" />
    <linearGradient
       inkscape:collect="always"
       xlink:href="#linearGradient1197"
       id="linearGradient301"
       gradientUnits="userSpaceOnUse"
       gradientTransform="matrix(0.04670049,0,0,0.04670049,320.08935,58.76482)"
       x1="540.14288"
       y1="29.770346"
       x2="540.14288"
       y2="1054.9744" />
    <linearGradient
       inkscape:collect="always"
       xlink:href="#linearGradient3792"
       id="linearGradient303"
       gradientUnits="userSpaceOnUse"
       gradientTransform="translate(0,10)"
       x1="480"
       y1="192.36218"
       x2="480"
       y2="852.36218" />
    <linearGradient
       inkscape:collect="always"
       xlink:href="#linearGradient1169"
       id="linearGradient305"
       gradientUnits="userSpaceOnUse"
       gradientTransform="matrix(0.22999993,0,0,0.22999993,321,61.000009)"
       x1="102.29776"
       y1="-0.42686829"
       x2="102.29776"
       y2="199.16539" />
    <linearGradient
       inkscape:collect="always"
       xlink:href="#linearGradient1197"
       id="linearGradient313"
       gradientUnits="userSpaceOnUse"
       gradientTransform="matrix(0.02944161,0,0,0.02944161,320.92589,132.09086)"
       x1="540.14288"
       y1="29.770346"
       x2="540.14288"
       y2="1054.9744" />
    <linearGradient
       inkscape:collect="always"
       xlink:href="#linearGradient3792"
       id="linearGradient315"
       gradientUnits="userSpaceOnUse"
       gradientTransform="translate(0,10)"
       x1="480"
       y1="192.36218"
       x2="480"
       y2="852.36218" />
    <linearGradient
       inkscape:collect="always"
       xlink:href="#linearGradient1169"
       id="linearGradient317"
       gradientUnits="userSpaceOnUse"
       gradientTransform="matrix(0.14499996,0,0,0.14499996,321.5,133.50001)"
       x1="102.29776"
       y1="-0.42686829"
       x2="102.29776"
       y2="199.16539" />
    <linearGradient
       inkscape:collect="always"
       xlink:href="#linearGradient1197"
       id="linearGradient325"
       gradientUnits="userSpaceOnUse"
       gradientTransform="matrix(0.02335024,0,0,0.02335024,320.04467,187.38241)"
       x1="540.14288"
       y1="29.770346"
       x2="540.14288"
       y2="1054.9744" />
    <linearGradient
       inkscape:collect="always"
       xlink:href="#linearGradient3792"
       id="linearGradient327"
       gradientUnits="userSpaceOnUse"
       gradientTransform="translate(0,10)"
       x1="480"
       y1="192.36218"
       x2="480"
       y2="852.36218" />
    <linearGradient
       inkscape:collect="always"
       xlink:href="#linearGradient1169"
       id="linearGradient329"
       gradientUnits="userSpaceOnUse"
       gradientTransform="matrix(0.11499997,0,0,0.11499997,320.5,188.50001)"
       x1="102.29776"
       y1="-0.42686829"
       x2="102.29776"
       y2="199.16539" />
    <linearGradient
       inkscape:collect="always"
       xlink:href="#linearGradient1197"
       id="linearGradient337"
       gradientUnits="userSpaceOnUse"
       gradientTransform="matrix(0.01522842,0,0,0.01522842,320.20305,235.77114)"
       x1="540.14288"
       y1="29.770346"
       x2="540.14288"
       y2="1054.9744" />
    <linearGradient
       inkscape:collect="always"
       xlink:href="#linearGradient3792"
       id="linearGradient339"
       gradientUnits="userSpaceOnUse"
       gradientTransform="translate(0,10)"
       x1="480"
       y1="192.36218"
       x2="480"
       y2="852.36218" />
    <linearGradient
       inkscape:collect="always"
       xlink:href="#linearGradient1169"
       id="linearGradient341"
       gradientUnits="userSpaceOnUse"
       gradientTransform="matrix(0.07499998,0,0,0.07499998,320.5,236.50001)"
       x1="102.29776"
       y1="-0.42686829"
       x2="102.29776"
       y2="199.16539" />
  </defs>
  <metadata
     id="metadata4">
    <rdf:RDF>
      <cc:Work
         rdf:about="">
        <dc:format>image/svg+xml</dc:format>
        <dc:type
           rdf:resource="http://purl.org/dc/dcmitype/StillImage" />
        <dc:creator>
          <cc:Agent>
            <dc:title>Yaru Team, based on the Suru template by Sam Hewitt and original Suru designs by Matthieu James</dc:title>
          </cc:Agent>
        </dc:creator>
        <dc:source />
        <cc:license
           rdf:resource="http://creativecommons.org/licenses/by-sa/4.0/" />
        <dc:title>Yaru Icon Theme Template</dc:title>
        <dc:subject>
          <rdf:Bag />
        </dc:subject>
        <dc:date />
        <dc:rights>
          <cc:Agent>
            <dc:title />
          </cc:Agent>
        </dc:rights>
        <dc:publisher>
          <cc:Agent>
            <dc:title />
          </cc:Agent>
        </dc:publisher>
        <dc:identifier />
        <dc:relation />
        <dc:language />
        <dc:coverage />
        <dc:description />
        <dc:contributor>
          <cc:Agent>
            <dc:title />
          </cc:Agent>
        </dc:contributor>
      </cc:Work>
      <cc:Work
         rdf:about="">
        <dc:format>image/svg+xml</dc:format>
        <dc:type
           rdf:resource="http://purl.org/dc/dcmitype/StillImage" />
      </cc:Work>
      <cc:License
         rdf:about="http://creativecommons.org/licenses/by-sa/4.0/">
        <cc:permits
           rdf:resource="http://creativecommons.org/ns#Reproduction" />
        <cc:permits
           rdf:resource="http://creativecommons.org/ns#Distribution" />
        <cc:requires
           rdf:resource="http://creativecommons.org/ns#Notice" />
        <cc:requires
           rdf:resource="http://creativecommons.org/ns#Attribution" />
        <cc:permits
           rdf:resource="http://creativecommons.org/ns#DerivativeWorks" />
        <cc:requires
           rdf:resource="http://creativecommons.org/ns#ShareAlike" />
      </cc:License>
    </rdf:RDF>
  </metadata>
  <g
     style="display:inline"
     inkscape:groupmode="layer"
     inkscape:label="Icon"
     id="layer1">
    <g
       style="display:none"
       inkscape:label="Baseplate"
       id="layer7"
       inkscape:groupmode="layer"
       sodipodi:insensitive="true">
      <text
         y="-8.2548828"
         xml:space="preserve"
         x="19.006836"
         style="font-style:normal;font-variant:normal;font-weight:normal;font-stretch:normal;line-height:0%;font-family:'DejaVu Sans';-inkscape-font-specification:'DejaVu Sans';display:inline;fill:#000000;fill-opacity:1;stroke:none;enable-background:new"
         inkscape:label="context"
         id="context"><tspan
           style="font-style:normal;font-variant:normal;font-weight:normal;font-stretch:normal;font-size:18px;line-height:1.25;font-family:'DejaVu Sans';-inkscape-font-specification:'DejaVu Sans'"
           y="-8.2548828"
           x="19.006836"
           sodipodi:role="line"
           id="tspan3933">apps</tspan></text>
      <text
         y="-8.2548828"
         xml:space="preserve"
         x="146.48828"
         style="font-style:normal;font-variant:normal;font-weight:bold;font-stretch:normal;line-height:0%;font-family:'DejaVu Sans';-inkscape-font-specification:'DejaVu Sans Bold';text-align:start;writing-mode:lr-tb;text-anchor:start;display:inline;fill:#000000;fill-opacity:1;stroke:none;enable-background:new"
         inkscape:label="icon-name"
         id="icon-name"><tspan
           style="font-style:normal;font-variant:normal;font-weight:bold;font-stretch:normal;font-size:18px;line-height:1.25;font-family:'DejaVu Sans';-inkscape-font-specification:'DejaVu Sans Bold'"
           y="-8.2548828"
           x="146.48828"
           sodipodi:role="line"
           id="tspan3937">livepatch</tspan></text>
      <rect
         style="display:inline;overflow:visible;visibility:visible;fill:#cdcdcd;fill-opacity:1;fill-rule:nonzero;stroke:none;stroke-width:2;marker:none;enable-background:accumulate"
         id="rect16x16"
         width="16"
         height="16"
         x="320"
         y="236"
         inkscape:label="16x16" />
      <rect
         style="display:inline;overflow:visible;visibility:visible;fill:#cdcdcd;fill-opacity:1;fill-rule:nonzero;stroke:none;stroke-width:2;marker:none;enable-background:accumulate"
         id="rect24x24"
         width="24"
         height="24"
         x="320"
         y="188"
         inkscape:label="24x24" />
      <rect
         style="display:inline;overflow:visible;visibility:visible;fill:#cdcdcd;fill-opacity:1;fill-rule:nonzero;stroke:none;stroke-width:2;marker:none;enable-background:accumulate"
         id="rect32x32"
         width="32"
         height="32"
         x="320"
         y="132"
         inkscape:label="32x32" />
      <rect
         inkscape:label="48x48"
         y="60"
         x="320"
         height="48"
         width="48"
         id="rect48x48"
         style="display:inline;overflow:visible;visibility:visible;fill:#cdcdcd;fill-opacity:1;fill-rule:nonzero;stroke:none;stroke-width:2;marker:none;enable-background:accumulate" />
      <rect
         style="display:inline;overflow:visible;visibility:visible;fill:#cdcdcd;fill-opacity:1;fill-rule:nonzero;stroke:none;stroke-width:2;marker:none;enable-background:accumulate"
         id="rect3951"
         width="256"
         height="256"
         x="24"
         y="28"
         inkscape:label="48x48" />
    </g>
    <g
       inkscape:groupmode="layer"
       id="layer8"
       inkscape:label="Backgrounds"
       style="display:inline">
      <circle
         r="111.99995"
         cy="156"
         cx="152"
         id="circle973"
         style="color:#000000;display:inline;overflow:visible;visibility:visible;fill:url(#linearGradient975);fill-opacity:1;fill-rule:nonzero;stroke:none;stroke-width:10.2305;marker:none;enable-background:accumulate" />
      <circle
         r="111.43143"
         cy="156"
         cx="152"
         id="circle1191"
         style="color:#000000;display:inline;overflow:visible;visibility:visible;fill:none;fill-opacity:1;fill-rule:nonzero;stroke:url(#linearGradient1199);stroke-width:1.13714;stroke-miterlimit:4;stroke-dasharray:none;marker:none;enable-background:accumulate" />
      <circle
         r="22.99999"
         cy="84"
         cx="344"
         id="circle295"
         style="color:#000000;display:inline;overflow:visible;visibility:visible;fill:url(#linearGradient305);fill-opacity:1;fill-rule:nonzero;stroke:none;stroke-width:2.10091;marker:none;enable-background:accumulate" />
      <circle
         r="22.88324"
         cy="84"
         cx="344"
         id="circle299"
         style="color:#000000;display:inline;overflow:visible;visibility:visible;fill:none;fill-opacity:1;fill-rule:nonzero;stroke:url(#linearGradient301);stroke-width:0.23352;stroke-miterlimit:4;stroke-dasharray:none;marker:none;enable-background:accumulate" />
      <circle
         r="14.499994"
         cy="148"
         cx="336"
         id="circle307"
         style="color:#000000;display:inline;overflow:visible;visibility:visible;fill:url(#linearGradient317);fill-opacity:1;fill-rule:nonzero;stroke:none;stroke-width:1.32449;marker:none;enable-background:accumulate" />
      <circle
         r="14.426391"
         cy="148"
         cx="336"
         id="circle311"
         style="color:#000000;display:inline;overflow:visible;visibility:visible;fill:none;fill-opacity:1;fill-rule:nonzero;stroke:url(#linearGradient313);stroke-width:0.147219;stroke-miterlimit:4;stroke-dasharray:none;marker:none;enable-background:accumulate" />
      <circle
         r="11.499995"
         cy="200"
         cx="332"
         id="circle319"
         style="color:#000000;display:inline;overflow:visible;visibility:visible;fill:url(#linearGradient329);fill-opacity:1;fill-rule:nonzero;stroke:none;stroke-width:1.05046;marker:none;enable-background:accumulate" />
      <circle
         r="11.44162"
         cy="200"
         cx="332"
         id="circle323"
         style="color:#000000;display:inline;overflow:visible;visibility:visible;fill:none;fill-opacity:1;fill-rule:nonzero;stroke:url(#linearGradient325);stroke-width:0.11676;stroke-miterlimit:4;stroke-dasharray:none;marker:none;enable-background:accumulate" />
      <circle
         r="7.4999971"
         cy="244"
         cx="328"
         id="circle331"
         style="color:#000000;display:inline;overflow:visible;visibility:visible;fill:url(#linearGradient341);fill-opacity:1;fill-rule:nonzero;stroke:none;stroke-width:0.685083;marker:none;enable-background:accumulate" />
      <circle
         r="7.461926"
         cy="244"
         cx="328"
         id="circle335"
         style="color:#000000;display:inline;overflow:visible;visibility:visible;fill:none;fill-opacity:1;fill-rule:nonzero;stroke:url(#linearGradient337);stroke-width:0.0761478;stroke-miterlimit:4;stroke-dasharray:none;marker:none;enable-background:accumulate" />
    </g>
    <g
       inkscape:groupmode="layer"
       id="layer6"
       inkscape:label="Pictograms and folds"
       style="display:inline">
      <path
         inkscape:connector-curvature="0"
         d="m 800,682.36218 c 3,-6.25048 0.375,-13.75047 -5.7495,-16.75047 -6.25048,-2.99999 -13.75047,-0.375 -16.75047,5.87548 -49.74894,103.00033 -155.87378,169.62425 -270.2486,169.62425 -165.37475,0 -299.99954,-134.62479 -299.99954,-299.99954 0,-165.37474 134.62479,-299.99954 299.99954,-299.99954 111.74982,0 215.37418,63.6254 266.50008,162.49927 H 669.75215 c -4.75048,0 -8.99998,2.62499 -11.12547,6.8745 -0.87451,1.75048 -1.37548,3.74999 -1.37548,5.62499 0,2.625 0.87451,5.24999 2.50048,7.49999 l 112.62434,151.62428 26.62496,35.87543 c 2.50048,3.37499 6.4995,5.24999 10.62449,4.9995 4.24951,-0.25048 7.9995,-2.50048 10.12499,-6.1245 L 930.4998,422.48611 c 2.25,-3.87451 2.37451,-8.62499 0.12451,-12.62547 -2.25,-3.87451 -6.37499,-6.25048 -10.87498,-6.25048 H 800.99902 c -0.12451,-1.24951 -0.375,-2.62499 -1.00048,-3.74999 C 745.99862,288.23485 631.12428,216.11045 507.2485,216.11045 c -179.24973,0 -324.99999,145.75026 -324.99999,324.99999 0,179.24972 145.75026,324.99999 324.99999,324.99999 123.87725,0.001 238.87756,-72.12294 292.7515,-183.74825 z m 97.87485,-253.7501 -89.99986,152.37427 -21.49948,-28.87349 -91.75035,-123.50078 z"
         id="path953"
         style="display:inline;enable-background:new;fill:url(#linearGradient1067);fill-opacity:1;stroke-width:1.46484;filter:url(#filter1115-7)"
         transform="matrix(0.22857134,0,0,0.22857134,34.971468,32.488687)" />
      <path
         inkscape:connector-curvature="0"
         d="m 800,682.36218 c 3,-6.25048 0.375,-13.75047 -5.7495,-16.75047 -6.25048,-2.99999 -13.75047,-0.375 -16.75047,5.87548 -49.74894,103.00033 -155.87378,169.62425 -270.2486,169.62425 -165.37475,0 -299.99954,-134.62479 -299.99954,-299.99954 0,-165.37474 134.62479,-299.99954 299.99954,-299.99954 111.74982,0 215.37418,63.6254 266.50008,162.49927 H 669.75215 c -4.75048,0 -8.99998,2.62499 -11.12547,6.8745 -0.87451,1.75048 -1.37548,3.74999 -1.37548,5.62499 0,2.625 0.87451,5.24999 2.50048,7.49999 l 112.62434,151.62428 26.62496,35.87543 c 2.50048,3.37499 6.4995,5.24999 10.62449,4.9995 4.24951,-0.25048 7.9995,-2.50048 10.12499,-6.1245 L 930.4998,422.48611 c 2.25,-3.87451 2.37451,-8.62499 0.12451,-12.62547 -2.25,-3.87451 -6.37499,-6.25048 -10.87498,-6.25048 H 800.99902 c -0.12451,-1.24951 -0.375,-2.62499 -1.00048,-3.74999 C 745.99862,288.23485 631.12428,216.11045 507.2485,216.11045 c -179.24973,0 -324.99999,145.75026 -324.99999,324.99999 0,179.24972 145.75026,324.99999 324.99999,324.99999 123.87725,0.001 238.87756,-72.12294 292.7515,-183.74825 z m 97.87485,-253.7501 -89.99986,152.37427 -21.49948,-28.87349 -91.75035,-123.50078 z"
         id="path297"
         style="display:inline;enable-background:new;fill:url(#linearGradient303);fill-opacity:1;stroke-width:1.46484;filter:url(#filter1115-7)"
         transform="matrix(0.04693876,0,0,0.04693876,319.96735,58.63607)" />
      <path
         inkscape:connector-curvature="0"
         d="m 800,682.36218 c 3,-6.25048 0.375,-13.75047 -5.7495,-16.75047 -6.25048,-2.99999 -13.75047,-0.375 -16.75047,5.87548 -49.74894,103.00033 -155.87378,169.62425 -270.2486,169.62425 -165.37475,0 -299.99954,-134.62479 -299.99954,-299.99954 0,-165.37474 134.62479,-299.99954 299.99954,-299.99954 111.74982,0 215.37418,63.6254 266.50008,162.49927 H 669.75215 c -4.75048,0 -8.99998,2.62499 -11.12547,6.8745 -0.87451,1.75048 -1.37548,3.74999 -1.37548,5.62499 0,2.625 0.87451,5.24999 2.50048,7.49999 l 112.62434,151.62428 26.62496,35.87543 c 2.50048,3.37499 6.4995,5.24999 10.62449,4.9995 4.24951,-0.25048 7.9995,-2.50048 10.12499,-6.1245 L 930.4998,422.48611 c 2.25,-3.87451 2.37451,-8.62499 0.12451,-12.62547 -2.25,-3.87451 -6.37499,-6.25048 -10.87498,-6.25048 H 800.99902 c -0.12451,-1.24951 -0.375,-2.62499 -1.00048,-3.74999 C 745.99862,288.23485 631.12428,216.11045 507.2485,216.11045 c -179.24973,0 -324.99999,145.75026 -324.99999,324.99999 0,179.24972 145.75026,324.99999 324.99999,324.99999 123.87725,0.001 238.87756,-72.12294 292.7515,-183.74825 z m 97.87485,-253.7501 -89.99986,152.37427 -21.49948,-28.87349 -91.75035,-123.50078 z"
         id="path309"
         style="display:inline;enable-background:new;fill:url(#linearGradient315);fill-opacity:1;stroke-width:1.46484;filter:url(#filter1115-7)"
         transform="matrix(0.02959183,0,0,0.02959183,320.84898,132.0097)" />
      <path
         inkscape:connector-curvature="0"
         d="m 800,682.36218 c 3,-6.25048 0.375,-13.75047 -5.7495,-16.75047 -6.25048,-2.99999 -13.75047,-0.375 -16.75047,5.87548 -49.74894,103.00033 -155.87378,169.62425 -270.2486,169.62425 -165.37475,0 -299.99954,-134.62479 -299.99954,-299.99954 0,-165.37474 134.62479,-299.99954 299.99954,-299.99954 111.74982,0 215.37418,63.6254 266.50008,162.49927 H 669.75215 c -4.75048,0 -8.99998,2.62499 -11.12547,6.8745 -0.87451,1.75048 -1.37548,3.74999 -1.37548,5.62499 0,2.625 0.87451,5.24999 2.50048,7.49999 l 112.62434,151.62428 26.62496,35.87543 c 2.50048,3.37499 6.4995,5.24999 10.62449,4.9995 4.24951,-0.25048 7.9995,-2.50048 10.12499,-6.1245 L 930.4998,422.48611 c 2.25,-3.87451 2.37451,-8.62499 0.12451,-12.62547 -2.25,-3.87451 -6.37499,-6.25048 -10.87498,-6.25048 H 800.99902 c -0.12451,-1.24951 -0.375,-2.62499 -1.00048,-3.74999 C 745.99862,288.23485 631.12428,216.11045 507.2485,216.11045 c -179.24973,0 -324.99999,145.75026 -324.99999,324.99999 0,179.24972 145.75026,324.99999 324.99999,324.99999 123.87725,0.001 238.87756,-72.12294 292.7515,-183.74825 z m 97.87485,-253.7501 -89.99986,152.37427 -21.49948,-28.87349 -91.75035,-123.50078 z"
         id="path321"
         style="display:inline;enable-background:new;fill:url(#linearGradient327);fill-opacity:1;stroke-width:1.46484;filter:url(#filter1115-7)"
         transform="matrix(0.02346938,0,0,0.02346938,319.98367,187.31804)" />
      <path
         inkscape:connector-curvature="0"
         d="m 800,682.36218 c 3,-6.25048 0.375,-13.75047 -5.7495,-16.75047 -6.25048,-2.99999 -13.75047,-0.375 -16.75047,5.87548 -49.74894,103.00033 -155.87378,169.62425 -270.2486,169.62425 -165.37475,0 -299.99954,-134.62479 -299.99954,-299.99954 0,-165.37474 134.62479,-299.99954 299.99954,-299.99954 111.74982,0 215.37418,63.6254 266.50008,162.49927 H 669.75215 c -4.75048,0 -8.99998,2.62499 -11.12547,6.8745 -0.87451,1.75048 -1.37548,3.74999 -1.37548,5.62499 0,2.625 0.87451,5.24999 2.50048,7.49999 l 112.62434,151.62428 26.62496,35.87543 c 2.50048,3.37499 6.4995,5.24999 10.62449,4.9995 4.24951,-0.25048 7.9995,-2.50048 10.12499,-6.1245 L 930.4998,422.48611 c 2.25,-3.87451 2.37451,-8.62499 0.12451,-12.62547 -2.25,-3.87451 -6.37499,-6.25048 -10.87498,-6.25048 H 800.99902 c -0.12451,-1.24951 -0.375,-2.62499 -1.00048,-3.74999 C 745.99862,288.23485 631.12428,216.11045 507.2485,216.11045 c -179.24973,0 -324.99999,145.75026 -324.99999,324.99999 0,179.24972 145.75026,324.99999 324.99999,324.99999 123.87725,0.001 238.87756,-72.12294 292.7515,-183.74825 z m 97.87485,-253.7501 -89.99986,152.37427 -21.49948,-28.87349 -91.75035,-123.50078 z"
         id="path333"
         style="display:inline;enable-background:new;fill:url(#linearGradient339);fill-opacity:1;stroke-width:1.46484;filter:url(#filter1115-7)"
         transform="matrix(0.01530612,0,0,0.01530612,320.16326,235.72916)" />
    </g>
    <g
       inkscape:groupmode="layer"
       id="layer2"
       inkscape:label="Borders"
       style="display:none">
      <circle
         style="display:inline;opacity:0.4;vector-effect:none;fill:none;fill-opacity:1;stroke:#000000;stroke-width:1;stroke-linecap:butt;stroke-linejoin:round;stroke-miterlimit:4;stroke-dasharray:none;stroke-dashoffset:6.6;stroke-opacity:1;enable-background:new"
         id="path1377"
         cx="328.00003"
         cy="244.00002"
         r="7.5000005" />
      <ellipse
         style="display:inline;opacity:0.4;vector-effect:none;fill:none;fill-opacity:1;stroke:#000000;stroke-width:1;stroke-linecap:butt;stroke-linejoin:round;stroke-miterlimit:4;stroke-dasharray:none;stroke-dashoffset:6.6;stroke-opacity:1;enable-background:new"
         id="path1384"
         cx="332"
         cy="199.97676"
         rx="11.454546"
         ry="11.476745" />
      <circle
         style="display:inline;opacity:0.4;vector-effect:none;fill:none;fill-opacity:1;stroke:#000000;stroke-width:1;stroke-linecap:butt;stroke-linejoin:round;stroke-miterlimit:4;stroke-dasharray:none;stroke-dashoffset:6.6;stroke-opacity:1;enable-background:new"
         id="path1389"
         cx="336"
         cy="148"
         r="14.5" />
      <circle
         style="display:inline;opacity:0.4;vector-effect:none;fill:none;fill-opacity:1;stroke:#000000;stroke-width:1;stroke-linecap:butt;stroke-linejoin:round;stroke-miterlimit:4;stroke-dasharray:none;stroke-dashoffset:6.6;stroke-opacity:1;enable-background:new"
         id="path1389-3"
         cx="344"
         cy="84"
         r="22.5" />
      <path
         inkscape:connector-curvature="0"
         style="display:inline;opacity:0.2;fill:#000000;fill-opacity:1;stroke:none;stroke-width:1;stroke-linecap:round;stroke-linejoin:round;stroke-miterlimit:4;stroke-dasharray:none;stroke-opacity:1;enable-background:new"
         d="m 152,267.99999 a 112,112 0 0 1 -112,-112 112,112 0 0 1 0.04102,-1.16992 A 112,112 0 0 0 152,265.99999 112,112 0 0 0 263.95898,155.16991 a 112,112 0 0 1 0.041,0.83008 112,112 0 0 1 -112,112 z"
         id="path11042-1-7" />
      <path
         style="display:inline;opacity:0.3;fill:#ffffff;fill-opacity:1;stroke:none;stroke-width:1;stroke-linecap:round;stroke-linejoin:round;stroke-miterlimit:4;stroke-dasharray:none;stroke-opacity:1;enable-background:new"
         d="M 152,43.999994 A 112,112 0 0 0 40,155.99999 112,112 0 0 0 40.04102,157.16991 112,112 0 0 1 152,45.999994 112,112 0 0 1 263.95898,156.83007 a 112,112 0 0 0 0.041,-0.83008 112,112 0 0 0 -112,-111.999996 z"
         id="path11042-1"
         inkscape:connector-curvature="0" />
    </g>
    <g
       inkscape:groupmode="layer"
       id="layer5"
       inkscape:label="Highlights"
       style="display:inline;opacity:0.8">
      <path
         style="display:inline;opacity:1;fill:url(#linearGradient8590);fill-opacity:1;stroke:none;stroke-width:1.8694;stroke-linecap:round;stroke-linejoin:round;stroke-miterlimit:4;stroke-dasharray:none;stroke-opacity:1;enable-background:new"
         d="M 344,62.000016 A 22,21.99999 0 0 0 322,84.000013 22,21.99999 0 0 0 344,106 22,21.99999 0 0 0 366,84.000013 22,21.99999 0 0 0 344,62.000016 Z m 0,0.956532 A 21.043478,21.043469 0 0 1 365.04348,84.000013 21.043478,21.043469 0 0 1 344,105.04348 21.043478,21.043469 0 0 1 322.95652,84.000013 21.043478,21.043469 0 0 1 344,62.956548 Z"
         id="path9498-1-6"
         inkscape:connector-curvature="0" />
      <path
         style="display:inline;opacity:1;fill:url(#linearGradient8590-3);fill-opacity:1;stroke:none;stroke-width:1.8694;stroke-linecap:round;stroke-linejoin:round;stroke-miterlimit:4;stroke-dasharray:none;stroke-opacity:1;enable-background:new"
         d="m 336,134 c -7.73199,0 -14,6.26802 -14,14 0,7.73198 6.26801,14 14,14 7.73199,0 14,-6.26802 14,-14 0,-7.73198 -6.26801,-14 -14,-14 z m 0,1 a 13,13 0 0 1 13,13 13,13 0 0 1 -13,13 13,13 0 0 1 -13,-13 13,13 0 0 1 13,-13 z"
         id="path9498-1-6-7"
         inkscape:connector-curvature="0" />
      <path
         style="display:inline;opacity:1;fill:url(#linearGradient8590-3-3);fill-opacity:1;stroke:none;stroke-width:1.8694;stroke-linecap:round;stroke-linejoin:round;stroke-miterlimit:4;stroke-dasharray:none;stroke-opacity:1;enable-background:new"
         d="m 332,189 c -6.07513,0 -11,4.92488 -11,11 0,6.07513 4.92487,11 11,11 6.07513,0 11,-4.92487 11,-11 0,-6.07512 -4.92487,-11 -11,-11 z m 0,1 a 10,10 0 0 1 10,10 10,10 0 0 1 -10,10 10,10 0 0 1 -10,-10 10,10 0 0 1 10,-10 z"
         id="path9498-1-6-7-2"
         inkscape:connector-curvature="0" />
      <path
         style="display:inline;opacity:1;fill:url(#linearGradient8590-3-3-4);fill-opacity:1;stroke:none;stroke-width:1.8694;stroke-linecap:round;stroke-linejoin:round;stroke-miterlimit:4;stroke-dasharray:none;stroke-opacity:1;enable-background:new"
         d="m 328,237 c -3.86599,0 -7,3.13402 -7,7 0,3.86599 3.13401,7 7,7 3.866,0 7,-3.13401 7,-7 0,-3.86598 -3.134,-7 -7,-7 z m 0,1 a 6,6 0 0 1 6,6 6,6 0 0 1 -6,6 6,6 0 0 1 -6,-6 6,6 0 0 1 6,-6 z"
         id="path9498-1-6-7-2-0"
         inkscape:connector-curvature="0" />
    </g>
  </g>
</svg>
