<?xml version="1.0" encoding="UTF-8" standalone="no"?>
<svg
   inkscape:export-ydpi="96"
   inkscape:export-xdpi="96"
   width="400"
   height="300"
   id="svg11300"
   sodipodi:version="0.32"
   inkscape:version="1.1.2 (0a00cf5339, 2022-02-04)"
   sodipodi:docname="mail-app.svg"
   inkscape:output_extension="org.inkscape.output.svg.inkscape"
   version="1.0"
   style="display:inline;enable-background:new"
   inkscape:export-filename="C:\Users\sblav\Pictures\vertical oblong template.png"
   xmlns:inkscape="http://www.inkscape.org/namespaces/inkscape"
   xmlns:sodipodi="http://sodipodi.sourceforge.net/DTD/sodipodi-0.dtd"
   xmlns:xlink="http://www.w3.org/1999/xlink"
   xmlns="http://www.w3.org/2000/svg"
   xmlns:svg="http://www.w3.org/2000/svg"
   xmlns:rdf="http://www.w3.org/1999/02/22-rdf-syntax-ns#"
   xmlns:cc="http://creativecommons.org/ns#"
   xmlns:dc="http://purl.org/dc/elements/1.1/">
  <title
     id="title3004">Suru Icon Theme Template</title>
  <sodipodi:namedview
     stroke="#ef2929"
     fill="#f57900"
     id="base"
     pagecolor="#ffffff"
     bordercolor="#000000"
     borderopacity="0.25490196"
     inkscape:pageopacity="0"
     inkscape:pageshadow="2"
     inkscape:zoom="2.8284271"
     inkscape:cx="162.28101"
     inkscape:cy="141.42136"
     inkscape:current-layer="layer8"
     showgrid="false"
     inkscape:grid-bbox="true"
     inkscape:document-units="px"
     inkscape:showpageshadow="false"
     inkscape:window-width="1904"
     inkscape:window-height="1011"
     inkscape:window-x="0"
     inkscape:window-y="32"
     width="400px"
     height="300px"
     inkscape:snap-nodes="true"
     inkscape:snap-bbox="true"
     gridtolerance="10000"
     inkscape:object-nodes="true"
     inkscape:snap-grids="true"
     showguides="false"
     inkscape:guide-bbox="true"
     inkscape:window-maximized="1"
     inkscape:bbox-paths="true"
     inkscape:snap-bbox-midpoints="true"
     inkscape:snap-global="true"
     inkscape:object-paths="true"
     inkscape:snap-intersection-paths="true"
     inkscape:snap-smooth-nodes="true"
     inkscape:pagecheckerboard="false"
     showborder="false"
     inkscape:document-rotation="0"
     inkscape:deskcolor="#d1d1d1" />
  <defs
     id="defs3">
    <clipPath
       clipPathUnits="userSpaceOnUse"
       id="clipPath994">
      <path
         style="color:#000000;display:inline;overflow:visible;visibility:visible;fill:#cdcdcd;fill-opacity:1;fill-rule:nonzero;stroke:none;stroke-width:2;stroke-miterlimit:4;stroke-dasharray:none;stroke-opacity:1;marker:none;enable-background:accumulate"
         d="m 335.73108,62 c -8.82418,0 -9.77365,0.90635 -9.7304,9.74838 V 84 96.25162 c -0.0433,8.84203 0.90622,9.74838 9.7304,9.74838 h 16.53919 c 8.82418,0 9.7304,-0.90625 9.7304,-9.74838 V 84 71.74838 C 362.00067,62.90625 361.09445,62 352.27027,62 Z"
         id="path996"
         inkscape:connector-curvature="0"
         sodipodi:nodetypes="scccssscsss" />
    </clipPath>
    <clipPath
       clipPathUnits="userSpaceOnUse"
       id="clipPath971">
      <path
         style="color:#000000;display:inline;overflow:visible;visibility:visible;opacity:1;fill:#46a926;fill-opacity:1;fill-rule:nonzero;stroke:none;stroke-width:2;stroke-miterlimit:4;stroke-dasharray:none;stroke-opacity:1;marker:none;enable-background:accumulate"
         d="m 327.8652,189 c -4.41209,0 -4.88682,0.45318 -4.8652,4.87419 V 200 206.12581 C 322.9783,210.54682 323.45311,211 327.8652,211 h 8.2696 C 340.54689,211 341,210.54688 341,206.12581 V 200 193.87419 C 341,189.45313 340.54688,189 336.13479,189 Z"
         id="path973"
         inkscape:connector-curvature="0"
         sodipodi:nodetypes="scccssscsss" />
    </clipPath>
    <clipPath
       clipPathUnits="userSpaceOnUse"
       id="clipPath983">
      <path
         sodipodi:nodetypes="scccssscsss"
         inkscape:connector-curvature="0"
         id="path985"
         d="m 325.09646,237 c -2.80769,0 -3.10979,0.28839 -3.09603,3.10176 V 244 v 3.89824 c -0.0138,2.81337 0.28834,3.10176 3.09603,3.10176 h 5.8075 C 333.71166,251 334,250.71165 334,247.89824 V 244 240.10176 C 334,237.28836 333.71165,237 330.90396,237 Z"
         style="color:#000000;display:inline;overflow:visible;visibility:visible;opacity:1;fill:#46a926;fill-opacity:1;fill-rule:nonzero;stroke:none;stroke-width:2;stroke-miterlimit:4;stroke-dasharray:none;stroke-opacity:1;marker:none;enable-background:accumulate" />
    </clipPath>
    <clipPath
       clipPathUnits="userSpaceOnUse"
       id="clipPath994-1">
      <path
         style="color:#000000;display:inline;overflow:visible;visibility:visible;fill:#cdcdcd;fill-opacity:1;fill-rule:nonzero;stroke:none;stroke-width:2;stroke-miterlimit:4;stroke-dasharray:none;stroke-opacity:1;marker:none;enable-background:accumulate"
         d="m 335.73108,62 c -8.82418,0 -9.77365,0.90635 -9.7304,9.74838 V 84 96.25162 c -0.0433,8.84203 0.90622,9.74838 9.7304,9.74838 h 16.53919 c 8.82418,0 9.7304,-0.90625 9.7304,-9.74838 V 84 71.74838 C 362.00067,62.90625 361.09445,62 352.27027,62 Z"
         id="path996-8"
         inkscape:connector-curvature="0"
         sodipodi:nodetypes="scccssscsss" />
    </clipPath>
    <clipPath
       clipPathUnits="userSpaceOnUse"
       id="clipPath4851">
      <path
         sodipodi:nodetypes="sssssssss"
         inkscape:connector-curvature="0"
         id="path4853"
         d="m 335.71582,189.50031 c 6.81081,10e-6 7.78418,0.97093 7.78418,7.77539 v 5.44891 c 0,6.80444 -0.97337,7.77539 -7.78418,7.77539 h -7.43164 c -6.81081,0 -7.78418,-0.97095 -7.78418,-7.77539 v -5.44892 c 0,-6.80446 0.97337,-7.7754 7.78418,-7.77539 z"
         style="display:inline;opacity:1;fill:#46a926;fill-opacity:1;stroke:none;stroke-width:2;stroke-linecap:round;stroke-linejoin:round;stroke-miterlimit:4;stroke-dasharray:none;stroke-dashoffset:0;stroke-opacity:1;enable-background:new" />
    </clipPath>
    <clipPath
       clipPathUnits="userSpaceOnUse"
       id="clipPath4653">
      <path
         sodipodi:nodetypes="sssssssss"
         inkscape:connector-curvature="0"
         id="path4655"
         d="m 412.21109,-140.08377 c 90.81111,0 103.78933,12.94582 103.78933,103.671926 v 72.656487 c 0,90.725907 -12.97822,103.671927 -103.78933,103.671927 h -92.42191 c -90.81071,0 -103.78912,-12.94602 -103.78912,-103.671927 v -72.656487 c 0,-90.726106 12.97841,-103.671926 103.78932,-103.671926 z"
         style="display:inline;opacity:1;fill:#f22c42;fill-opacity:1;stroke:none;stroke-width:2;stroke-linecap:round;stroke-linejoin:round;stroke-miterlimit:4;stroke-dasharray:none;stroke-dashoffset:0;stroke-opacity:1;enable-background:new" />
    </clipPath>
    <clipPath
       clipPathUnits="userSpaceOnUse"
       id="clipPath4657">
      <path
         sodipodi:nodetypes="sssssssss"
         inkscape:connector-curvature="0"
         id="path4659"
         d="m 415.5445,-130.07962 c 90.81091,1.3e-4 103.78919,12.94575 103.78919,103.671988 v 72.652221 c 0,90.725971 -12.97828,103.671991 -103.78919,103.671991 h -99.08865 c -90.81091,0 -103.78919,-12.94602 -103.78919,-103.671991 v -72.652354 c 0,-90.726245 12.97828,-103.672125 103.78919,-103.671995 z"
         style="display:inline;opacity:1;fill:#f22c42;fill-opacity:1;stroke:none;stroke-width:2;stroke-linecap:round;stroke-linejoin:round;stroke-miterlimit:4;stroke-dasharray:none;stroke-dashoffset:0;stroke-opacity:1;enable-background:new" />
    </clipPath>
    <clipPath
       clipPathUnits="userSpaceOnUse"
       id="clipPath971-2">
      <path
         style="color:#000000;display:inline;overflow:visible;visibility:visible;opacity:1;fill:#46a926;fill-opacity:1;fill-rule:nonzero;stroke:none;stroke-width:2;stroke-miterlimit:4;stroke-dasharray:none;stroke-opacity:1;marker:none;enable-background:accumulate"
         d="m 327.8652,189 c -4.41209,0 -4.88682,0.45318 -4.8652,4.87419 V 200 206.12581 C 322.9783,210.54682 323.45311,211 327.8652,211 h 8.2696 C 340.54689,211 341,210.54688 341,206.12581 V 200 193.87419 C 341,189.45313 340.54688,189 336.13479,189 Z"
         id="path973-5"
         inkscape:connector-curvature="0"
         sodipodi:nodetypes="scccssscsss" />
    </clipPath>
    <clipPath
       clipPathUnits="userSpaceOnUse"
       id="clipPath4851-56">
      <path
         sodipodi:nodetypes="sssssssss"
         inkscape:connector-curvature="0"
         id="path4853-9"
         d="m 335.71582,189.50031 c 6.81081,10e-6 7.78418,0.97093 7.78418,7.77539 v 5.44891 c 0,6.80444 -0.97337,7.77539 -7.78418,7.77539 h -7.43164 c -6.81081,0 -7.78418,-0.97095 -7.78418,-7.77539 v -5.44892 c 0,-6.80446 0.97337,-7.7754 7.78418,-7.77539 z"
         style="display:inline;opacity:1;fill:#46a926;fill-opacity:1;stroke:none;stroke-width:2;stroke-linecap:round;stroke-linejoin:round;stroke-miterlimit:4;stroke-dasharray:none;stroke-dashoffset:0;stroke-opacity:1;enable-background:new" />
    </clipPath>
    <linearGradient
       id="a"
       x2="1"
       gradientTransform="matrix(0,166.62175,148.19284,0,126.87581,13.075331)"
       gradientUnits="userSpaceOnUse">
      <stop
         stop-color="#0b7cd4"
         offset="0"
         id="stop2" />
      <stop
         stop-color="#1a96be"
         offset="1"
         id="stop4" />
    </linearGradient>
    <linearGradient
       id="b"
       x2="1"
       gradientTransform="matrix(0,-148.19284,148.19284,0,126.87581,232.88212)"
       gradientUnits="userSpaceOnUse">
      <stop
         stop-color="#1075f6"
         offset="0"
         id="stop7" />
      <stop
         stop-color="#12c5ff"
         offset="1"
         id="stop9" />
    </linearGradient>
    <linearGradient
       id="c"
       x2="1"
       gradientTransform="matrix(0,69.440258,-69.440258,0,121.7544,164.87897)"
       gradientUnits="userSpaceOnUse">
      <stop
         stop-color="#aad2ff"
         offset="0"
         id="stop12" />
      <stop
         stop-color="#1079f6"
         offset="1"
         id="stop14" />
    </linearGradient>
    <linearGradient
       inkscape:collect="always"
       xlink:href="#a"
       id="linearGradient1331"
       gradientUnits="userSpaceOnUse"
       gradientTransform="matrix(0,33.47312,29.258981,0,345.04889,62.053639)"
       x2="1" />
    <linearGradient
       inkscape:collect="always"
       xlink:href="#b"
       id="linearGradient1333"
       gradientUnits="userSpaceOnUse"
       gradientTransform="matrix(0,-29.770883,29.258981,0,345.04889,106.21125)"
       x2="1" />
    <linearGradient
       inkscape:collect="always"
       xlink:href="#c"
       id="linearGradient1335"
       gradientUnits="userSpaceOnUse"
       gradientTransform="matrix(0,13.950052,-13.710185,0,344.03772,92.549906)"
       x2="1" />
    <linearGradient
       inkscape:collect="always"
       xlink:href="#a"
       id="linearGradient1355"
       gradientUnits="userSpaceOnUse"
       gradientTransform="matrix(0,21.571567,18.855787,0,336.67595,133.85679)"
       x2="1" />
    <linearGradient
       inkscape:collect="always"
       xlink:href="#b"
       id="linearGradient1357"
       gradientUnits="userSpaceOnUse"
       gradientTransform="matrix(0,-19.185681,18.855787,0,336.67595,162.31392)"
       x2="1" />
    <linearGradient
       inkscape:collect="always"
       xlink:href="#c"
       id="linearGradient1359"
       gradientUnits="userSpaceOnUse"
       gradientTransform="matrix(0,8.9900337,-8.835452,0,336.02431,153.50994)"
       x2="1" />
    <linearGradient
       inkscape:collect="always"
       xlink:href="#a"
       id="linearGradient1373"
       gradientUnits="userSpaceOnUse"
       gradientTransform="matrix(0,17.108485,14.95459,0,332.5361,188.78297)"
       x2="1" />
    <linearGradient
       inkscape:collect="always"
       xlink:href="#b"
       id="linearGradient1375"
       gradientUnits="userSpaceOnUse"
       gradientTransform="matrix(0,-15.21623,14.95459,0,332.5361,211.35242)"
       x2="1" />
    <linearGradient
       inkscape:collect="always"
       xlink:href="#c"
       id="linearGradient1377"
       gradientUnits="userSpaceOnUse"
       gradientTransform="matrix(0,7.1300271,-7.0074275,0,332.01929,204.36995)"
       x2="1" />
    <linearGradient
       inkscape:collect="always"
       xlink:href="#a"
       id="linearGradient1391"
       gradientUnits="userSpaceOnUse"
       gradientTransform="matrix(0,11.157707,9.7529931,0,328.34963,236.68455)"
       x2="1" />
    <linearGradient
       inkscape:collect="always"
       xlink:href="#b"
       id="linearGradient1393"
       gradientUnits="userSpaceOnUse"
       gradientTransform="matrix(0,-9.9236283,9.7529931,0,328.34963,251.40376)"
       x2="1" />
    <linearGradient
       inkscape:collect="always"
       xlink:href="#c"
       id="linearGradient1395"
       gradientUnits="userSpaceOnUse"
       gradientTransform="matrix(0,4.6500176,-4.5700613,0,328.01257,246.84997)"
       x2="1" />
    <linearGradient
       inkscape:collect="always"
       xlink:href="#a"
       id="linearGradient1397"
       gradientUnits="userSpaceOnUse"
       gradientTransform="matrix(0,166.62175,145.64471,0,157.22114,46.75589)"
       x2="1" />
    <linearGradient
       inkscape:collect="always"
       xlink:href="#b"
       id="linearGradient1399"
       gradientUnits="userSpaceOnUse"
       gradientTransform="matrix(0,-148.19284,145.64471,0,157.22114,266.56268)"
       x2="1" />
    <linearGradient
       inkscape:collect="always"
       xlink:href="#c"
       id="linearGradient1401"
       gradientUnits="userSpaceOnUse"
       gradientTransform="matrix(0,69.440258,-68.246253,0,152.1878,198.55953)"
       x2="1" />
  </defs>
  <metadata
     id="metadata4">
    <rdf:RDF>
      <cc:Work
         rdf:about="">
        <dc:format>image/svg+xml</dc:format>
        <dc:type
           rdf:resource="http://purl.org/dc/dcmitype/StillImage" />
        <dc:creator>
          <cc:Agent>
            <dc:title>Sam Hewitt</dc:title>
          </cc:Agent>
        </dc:creator>
        <dc:source />
        <cc:license
           rdf:resource="http://creativecommons.org/licenses/by-sa/4.0/" />
        <dc:title>Suru Icon Theme Template</dc:title>
        <dc:subject>
          <rdf:Bag />
        </dc:subject>
        <dc:date />
        <dc:rights>
          <cc:Agent>
            <dc:title />
          </cc:Agent>
        </dc:rights>
        <dc:publisher>
          <cc:Agent>
            <dc:title />
          </cc:Agent>
        </dc:publisher>
        <dc:identifier />
        <dc:relation />
        <dc:language />
        <dc:coverage />
        <dc:description />
        <dc:contributor>
          <cc:Agent>
            <dc:title />
          </cc:Agent>
        </dc:contributor>
      </cc:Work>
      <cc:Work
         rdf:about="">
        <dc:format>image/svg+xml</dc:format>
        <dc:type
           rdf:resource="http://purl.org/dc/dcmitype/StillImage" />
      </cc:Work>
      <cc:License
         rdf:about="http://creativecommons.org/licenses/by-sa/4.0/">
        <cc:permits
           rdf:resource="http://creativecommons.org/ns#Reproduction" />
        <cc:permits
           rdf:resource="http://creativecommons.org/ns#Distribution" />
        <cc:requires
           rdf:resource="http://creativecommons.org/ns#Notice" />
        <cc:requires
           rdf:resource="http://creativecommons.org/ns#Attribution" />
        <cc:permits
           rdf:resource="http://creativecommons.org/ns#DerivativeWorks" />
        <cc:requires
           rdf:resource="http://creativecommons.org/ns#ShareAlike" />
      </cc:License>
    </rdf:RDF>
  </metadata>
  <g
     style="display:inline"
     inkscape:groupmode="layer"
     inkscape:label="Icon"
     id="layer1">
    <g
       style="display:none"
       inkscape:label="Baseplate"
       id="layer7"
       inkscape:groupmode="layer"
       sodipodi:insensitive="true">
      <text
         y="-8.2548828"
         xml:space="preserve"
         x="19.006836"
         style="font-style:normal;font-variant:normal;font-weight:normal;font-stretch:normal;line-height:0%;font-family:'DejaVu Sans';-inkscape-font-specification:'DejaVu Sans';display:inline;fill:#000000;fill-opacity:1;stroke:none;enable-background:new"
         inkscape:label="context"
         id="context"><tspan
           style="font-style:normal;font-variant:normal;font-weight:normal;font-stretch:normal;font-size:18px;line-height:1.25;font-family:'DejaVu Sans';-inkscape-font-specification:'DejaVu Sans'"
           y="-8.2548828"
           x="19.006836"
           sodipodi:role="line"
           id="tspan3933">apps</tspan></text>
      <text
         y="-8.2548828"
         xml:space="preserve"
         x="146.48828"
         style="font-style:normal;font-variant:normal;font-weight:bold;font-stretch:normal;line-height:0%;font-family:'DejaVu Sans';-inkscape-font-specification:'DejaVu Sans Bold';text-align:start;writing-mode:lr-tb;text-anchor:start;display:inline;fill:#000000;fill-opacity:1;stroke:none;enable-background:new"
         inkscape:label="icon-name"
         id="icon-name"><tspan
           style="font-style:normal;font-variant:normal;font-weight:bold;font-stretch:normal;font-size:18px;line-height:1.25;font-family:'DejaVu Sans';-inkscape-font-specification:'DejaVu Sans Bold'"
           y="-8.2548828"
           x="146.48828"
           sodipodi:role="line"
           id="tspan3937">mail-app</tspan></text>
      <rect
         style="display:inline;overflow:visible;visibility:visible;fill:#cdcdcd;fill-opacity:1;fill-rule:nonzero;stroke:none;stroke-width:2;marker:none;enable-background:accumulate"
         id="rect16x16"
         width="16"
         height="16"
         x="320"
         y="236"
         inkscape:label="16x16" />
      <rect
         style="display:inline;overflow:visible;visibility:visible;fill:#cdcdcd;fill-opacity:1;fill-rule:nonzero;stroke:none;stroke-width:2;marker:none;enable-background:accumulate"
         id="rect24x24"
         width="24"
         height="24"
         x="320"
         y="188"
         inkscape:label="24x24" />
      <rect
         style="display:inline;overflow:visible;visibility:visible;fill:#cdcdcd;fill-opacity:1;fill-rule:nonzero;stroke:none;stroke-width:2;marker:none;enable-background:accumulate"
         id="rect32x32"
         width="32"
         height="32"
         x="320"
         y="132"
         inkscape:label="32x32" />
      <rect
         inkscape:label="48x48"
         y="60"
         x="320"
         height="48"
         width="48"
         id="rect48x48"
         style="display:inline;overflow:visible;visibility:visible;fill:#cdcdcd;fill-opacity:1;fill-rule:nonzero;stroke:none;stroke-width:2;marker:none;enable-background:accumulate" />
      <rect
         style="display:inline;overflow:visible;visibility:visible;fill:#cdcdcd;fill-opacity:1;fill-rule:nonzero;stroke:none;stroke-width:2;marker:none;enable-background:accumulate"
         id="rect3951"
         width="256"
         height="256"
         x="24"
         y="28"
         inkscape:label="48x48" />
    </g>
    <g
       inkscape:groupmode="layer"
       id="layer8"
       inkscape:label="Backgrounds"
       style="display:inline">
      <path
         d="m 264,206.89555 -224,-0.1586 v -76.02806 c 0,-4.1499 1.947976,-8.05052 5.242312,-10.49721 18.106197,-13.44703 78.057448,-57.971299 99.253338,-73.712908 4.47368,-3.322513 10.54236,-3.332528 15.02667,-0.0249 21.1985,15.635514 81.05962,59.788188 99.20154,73.169178 3.31421,2.44452 5.27614,6.35705 5.27614,10.5221 z"
         fill="url(#a)"
         id="path17"
         style="fill:url(#linearGradient1397);stroke-width:0.253041" />
      <path
         style="font-style:normal;font-variant:normal;font-weight:normal;font-stretch:normal;font-size:15px;line-height:125%;font-family:Ubuntu;-inkscape-font-specification:Ubuntu;text-align:center;letter-spacing:0px;word-spacing:0px;writing-mode:lr-tb;text-anchor:middle;display:inline;fill:#faf8f6;fill-opacity:1;stroke:none;stroke-width:0.939816;enable-background:new"
         d="m 83.529901,100.36383 c -7.025465,-0.0803 -11.746351,1.3625 -14.169123,4.02103 -2.543884,2.76932 -3.847644,7.31282 -3.847644,13.62684 V 229.77445 H 238.48689 V 118.0117 c 0,-6.31402 -1.30365,-10.85753 -3.84753,-13.62684 -2.42271,-2.65853 -7.21616,-4.02103 -14.16913,-4.02103 h -11.72617 -97.24235 z"
         id="path4163"
         inkscape:connector-curvature="0"
         sodipodi:nodetypes="ccsccscsccc" />
      <path
         d="m 157.8722,194.47877 c -3.6104,2.2235 -8.13518,2.22566 -11.74771,0.005 C 123.06342,180.31094 40,129.26033 40,129.26033 V 253.82157 C 40,261.65207 46.238539,268 53.934394,268 H 250.56408 c 3.56356,0 6.98091,-1.44045 9.5007,-4.00431 C 262.58456,261.43206 264,257.95467 264,254.329 V 129.11927 c 0,0 -83.07122,51.15989 -106.1278,65.3595 z"
         fill="url(#b)"
         id="path19"
         style="fill:url(#linearGradient1399);stroke-width:0.238638" />
      <path
         d="m 366.5,94.224553 -45,-0.03186 V 78.919196 c 0,-0.833684 0.39133,-1.617291 1.05314,-2.108813 3.63741,-2.701412 15.68118,-11.646021 19.93929,-14.808398 0.89873,-0.667469 2.11788,-0.669481 3.01875,-0.005 4.25863,3.141063 16.2843,12.011019 19.92888,14.699165 0.6658,0.491087 1.05994,1.277086 1.05994,2.113815 z"
         fill="url(#a)"
         id="path1319"
         style="fill:url(#linearGradient1331);stroke-width:0.0508341" />
      <path
         style="font-style:normal;font-variant:normal;font-weight:normal;font-stretch:normal;font-size:15px;line-height:125%;font-family:Ubuntu;-inkscape-font-specification:Ubuntu;text-align:center;letter-spacing:0px;word-spacing:0px;writing-mode:lr-tb;text-anchor:middle;display:inline;fill:#faf8f6;fill-opacity:1;stroke:none;stroke-width:0.188802;enable-background:new"
         d="m 330.24484,72.823092 c -1.41136,-0.01613 -2.35975,0.273716 -2.84647,0.807795 -0.51105,0.556336 -0.77297,1.469093 -0.77297,2.737535 V 98.82076 h 34.74919 V 76.368422 c 0,-1.268442 -0.26189,-2.181199 -0.77294,-2.737535 -0.4867,-0.534079 -1.44967,-0.807795 -2.84647,-0.807795 h -2.35571 -19.53529 z"
         id="path1321"
         inkscape:connector-curvature="0"
         sodipodi:nodetypes="ccsccscsccc" />
      <path
         d="m 345.17968,91.73011 c -0.7253,0.446686 -1.6343,0.447119 -2.36003,0.001 C 338.18684,88.883894 321.5,78.628191 321.5,78.628191 v 25.023469 c 0,1.57309 1.25327,2.84834 2.79932,2.84834 h 39.5015 c 0.71589,0 1.40241,-0.28938 1.90862,-0.80444 0.50621,-0.51501 0.79056,-1.21359 0.79056,-1.94197 V 78.599853 c 0,0 -16.68842,10.277657 -21.32032,13.130257 z"
         fill="url(#b)"
         id="path1323"
         style="fill:url(#linearGradient1333);stroke-width:0.0479406" />
      <path
         d="M 350.49999,154.58916 321.5,154.56862 v -9.84292 c 0,-0.53726 0.25219,-1.04225 0.67869,-1.35901 2.3441,-1.74091 10.10565,-7.50521 12.84976,-9.54319 0.57918,-0.43015 1.36486,-0.43144 1.94542,-0.003 2.74445,2.02424 10.49432,7.74043 12.84305,9.47279 0.42907,0.31648 0.68307,0.82301 0.68307,1.36224 z"
         fill="url(#a)"
         id="path1343"
         style="fill:url(#linearGradient1355);stroke-width:0.0327598" />
      <path
         style="font-style:normal;font-variant:normal;font-weight:normal;font-stretch:normal;font-size:15px;line-height:125%;font-family:Ubuntu;-inkscape-font-specification:Ubuntu;text-align:center;letter-spacing:0px;word-spacing:0px;writing-mode:lr-tb;text-anchor:middle;display:inline;fill:#faf8f6;fill-opacity:1;stroke:none;stroke-width:0.121673;enable-background:new"
         d="m 327.13556,140.7971 c -0.90954,-0.0104 -1.52073,0.1764 -1.83439,0.52058 -0.32934,0.35853 -0.49813,0.94675 -0.49813,1.76419 v 14.46929 h 22.39392 v -14.46929 c 0,-0.81744 -0.16878,-1.40566 -0.49812,-1.76419 -0.31365,-0.34418 -0.93423,-0.52058 -1.8344,-0.52058 h -1.51812 -12.58941 z"
         id="path1345"
         inkscape:connector-curvature="0"
         sodipodi:nodetypes="ccsccscsccc" />
      <path
         d="m 336.76024,152.98163 c -0.46742,0.28786 -1.05322,0.28814 -1.52091,6.4e-4 C 332.25374,151.1474 321.5,144.53817 321.5,144.53817 v 16.12623 c 0,1.01377 0.80766,1.8356 1.804,1.8356 h 25.45652 c 0.46136,0 0.90378,-0.18649 1.23,-0.51842 0.32623,-0.33189 0.50947,-0.78209 0.50947,-1.25149 V 144.5199 c 0,0 -10.75475,6.62338 -13.73975,8.46173 z"
         fill="url(#b)"
         id="path1347"
         style="fill:url(#linearGradient1357);stroke-width:0.030895" />
      <path
         d="m 343.5,205.22588 -23,-0.0163 v -7.80645 c 0,-0.4261 0.20002,-0.82661 0.53828,-1.07784 1.85912,-1.38072 8.01482,-5.95241 10.19119,-7.56873 0.45935,-0.34116 1.08247,-0.34218 1.54292,-0.003 2.17663,1.60543 8.32308,6.13896 10.18587,7.51291 0.3403,0.251 0.54174,0.65273 0.54174,1.08039 z"
         fill="url(#a)"
         id="path1361"
         style="fill:url(#linearGradient1373);stroke-width:0.0259819" />
      <path
         style="font-style:normal;font-variant:normal;font-weight:normal;font-stretch:normal;font-size:15px;line-height:125%;font-family:Ubuntu;-inkscape-font-specification:Ubuntu;text-align:center;letter-spacing:0px;word-spacing:0px;writing-mode:lr-tb;text-anchor:middle;display:inline;fill:#faf8f6;fill-opacity:1;stroke:none;stroke-width:0.096499;enable-background:new"
         d="m 324.96959,194.28735 c -0.72136,-0.008 -1.2061,0.1399 -1.45486,0.41288 -0.26121,0.28435 -0.39507,0.75087 -0.39507,1.39918 v 11.47564 h 17.76069 v -11.47564 c 0,-0.64831 -0.13385,-1.11483 -0.39505,-1.39918 -0.24877,-0.27298 -0.74095,-0.41288 -1.45487,-0.41288 h -1.20403 -9.9847 z"
         id="path1363"
         inkscape:connector-curvature="0"
         sodipodi:nodetypes="ccsccscsccc" />
      <path
         d="m 332.60295,203.95094 c -0.37071,0.22831 -0.83531,0.22853 -1.20624,5.2e-4 C 329.02884,202.49621 320.5,197.2544 320.5,197.2544 v 12.78978 c 0,0.80402 0.64057,1.45582 1.43077,1.45582 h 20.18965 c 0.3659,0 0.71679,-0.14791 0.97552,-0.41116 0.25873,-0.26323 0.40406,-0.62028 0.40406,-0.99256 v -12.85636 c 0,0 -8.52963,5.25303 -10.89705,6.71102 z"
         fill="url(#b)"
         id="path1365"
         style="fill:url(#linearGradient1375);stroke-width:0.024503" />
      <path
         d="m 335.5,247.40819 -15,-0.0106 v -5.09117 c 0,-0.27789 0.13044,-0.53909 0.35105,-0.70293 1.21247,-0.90048 5.22706,-3.88201 6.64643,-4.93614 0.29957,-0.22249 0.70596,-0.22316 1.00625,-0.002 1.41954,1.04702 5.42809,4.00367 6.64296,4.89972 0.22193,0.16369 0.35331,0.42569 0.35331,0.7046 z"
         fill="url(#a)"
         id="path1379"
         style="fill:url(#linearGradient1391);stroke-width:0.0169447" />
      <path
         style="font-style:normal;font-variant:normal;font-weight:normal;font-stretch:normal;font-size:15px;line-height:125%;font-family:Ubuntu;-inkscape-font-specification:Ubuntu;text-align:center;letter-spacing:0px;word-spacing:0px;writing-mode:lr-tb;text-anchor:middle;display:inline;fill:#faf8f6;fill-opacity:1;stroke:none;stroke-width:0.0629341;enable-background:new"
         d="m 323.41495,240.27437 c -0.47046,-0.005 -0.78659,0.0912 -0.94883,0.26926 -0.17035,0.18545 -0.25765,0.4897 -0.25765,0.91251 v 7.48412 h 11.58306 v -7.48412 c 0,-0.42281 -0.0873,-0.72706 -0.25765,-0.91251 -0.16223,-0.17802 -0.48322,-0.26926 -0.94882,-0.26926 h -0.78524 -6.51176 z"
         id="path1381"
         inkscape:connector-curvature="0"
         sodipodi:nodetypes="ccsccscsccc" />
      <path
         d="m 328.39323,246.57671 c -0.24177,0.14889 -0.54477,0.14904 -0.78668,3.3e-4 C 326.06228,245.62797 320.5,242.2094 320.5,242.2094 v 8.34116 c 0,0.52436 0.41776,0.94944 0.93311,0.94944 h 13.16716 c 0.23863,0 0.46747,-0.0965 0.63621,-0.26814 0.16873,-0.17167 0.26352,-0.40453 0.26352,-0.64732 v -8.38458 c 0,0 -5.56281,3.42588 -7.10677,4.37675 z"
         fill="url(#b)"
         id="path1383"
         style="fill:url(#linearGradient1393);stroke-width:0.0159802" />
    </g>
    <g
       inkscape:groupmode="layer"
       id="layer6"
       inkscape:label="Pictograms"
       style="display:inline">
      <path
         style="display:inline;enable-background:accumulate;color:#000000;overflow:visible;visibility:visible;opacity:0.5;fill:#80a3fa;fill-opacity:0.996078;fill-rule:nonzero;stroke:none;stroke-width:4.22917;marker:none"
         d="m 96.962894,129.11927 v 7.18966 H 207.03711 v -7.18966 z m 0,21.56897 v 7.18965 h 55.037116 v -7.18965 z"
         id="path14977"
         inkscape:connector-curvature="0"
         sodipodi:nodetypes="cccccccccc" />
      <path
         d="m 45.560222,263.57028 c -2.64585,-4.84262 -2.73921,-9.77619 2.772979,-12.69065 16.498823,-8.72318 82.025329,-44.16566 99.414059,-53.57401 2.65776,-1.43702 5.84589,-1.43298 8.49969,0.0142 17.23775,9.40228 81.83662,44.63456 98.2262,53.55986 6.52524,3.55516 7.39924,9.61652 4.58058,12.69065"
         fill="none"
         stroke="url(#c)"
         id="path21"
         style="display:inline;enable-background:new;stroke:url(#linearGradient1401);stroke-width:2.00368" />
      <path
         style="display:inline;enable-background:accumulate;color:#000000;overflow:visible;visibility:visible;opacity:0.5;fill:#80a3fa;fill-opacity:0.996078;fill-rule:nonzero;stroke:none;stroke-width:0.849611;marker:none"
         d="m 332.94344,78.599853 v 1.444352 h 22.11312 v -1.444352 z m 0,4.333052 v 1.44435 H 344 v -1.44435 z"
         id="path1325"
         inkscape:connector-curvature="0"
         sodipodi:nodetypes="cccccccccc" />
      <path
         d="m 322.61701,105.6101 c -0.53154,-0.97285 -0.55029,-1.96397 0.55707,-2.54946 3.31449,-1.75242 16.4783,-8.872565 19.97157,-10.762636 0.53393,-0.288687 1.1744,-0.287875 1.70753,0.0029 3.46294,1.888851 16.44039,8.966766 19.73294,10.759796 1.31087,0.71421 1.48646,1.93189 0.92021,2.54946"
         fill="none"
         stroke="url(#c)"
         id="path1327"
         style="display:inline;enable-background:new;stroke:url(#linearGradient1335);stroke-width:0.402525" />
      <path
         style="display:inline;enable-background:accumulate;color:#000000;overflow:visible;visibility:visible;opacity:0.5;fill:#80a3fa;fill-opacity:0.996078;fill-rule:nonzero;stroke:none;stroke-width:0.547527;marker:none"
         d="m 328.87466,144.5199 v 0.93081 h 14.25067 v -0.93081 z m 0,2.79242 v 0.9308 H 336 v -0.9308 z"
         id="path1349"
         inkscape:connector-curvature="0"
         sodipodi:nodetypes="cccccccccc" />
      <path
         d="m 322.21985,161.92651 c -0.34255,-0.62695 -0.35463,-1.26567 0.359,-1.64299 2.13601,-1.12934 10.61935,-5.71787 12.87057,-6.93592 0.34408,-0.18604 0.75683,-0.18552 1.1004,0.002 2.23168,1.21726 10.59492,5.77858 12.71679,6.93409 0.84478,0.46027 0.95794,1.245 0.59302,1.64299"
         fill="none"
         stroke="url(#c)"
         id="path1351"
         style="display:inline;enable-background:new;stroke:url(#linearGradient1359);stroke-width:0.259405" />
      <path
         style="display:inline;enable-background:accumulate;color:#000000;overflow:visible;visibility:visible;opacity:0.5;fill:#80a3fa;fill-opacity:0.996078;fill-rule:nonzero;stroke:none;stroke-width:0.434246;marker:none"
         d="m 326.34887,197.23992 v 0.73823 h 11.30227 v -0.73823 z m 0,2.21467 v 0.73823 h 5.65114 v -0.73823 z"
         id="path1367"
         inkscape:connector-curvature="0"
         sodipodi:nodetypes="cccccccccc" />
      <path
         d="m 321.07092,211.04516 c -0.27167,-0.49723 -0.28126,-1.00381 0.28473,-1.30306 1.69407,-0.89568 8.42224,-4.53487 10.20769,-5.5009 0.27289,-0.14755 0.60025,-0.14714 0.87273,0.001 1.76995,0.96541 8.40287,4.58301 10.08573,5.49945 0.67,0.36504 0.75974,0.98741 0.47033,1.30306"
         fill="none"
         stroke="url(#c)"
         id="path1369"
         style="display:inline;enable-background:new;stroke:url(#linearGradient1377);stroke-width:0.205735" />
      <path
         style="display:inline;enable-background:accumulate;color:#000000;overflow:visible;visibility:visible;opacity:0.5;fill:#80a3fa;fill-opacity:0.996078;fill-rule:nonzero;stroke:none;stroke-width:0.283204;marker:none"
         d="m 324.31448,242.19996 v 0.48145 h 7.37104 v -0.48145 z m 0,1.44435 v 0.48145 H 328 v -0.48145 z"
         id="path1385"
         inkscape:connector-curvature="0"
         sodipodi:nodetypes="cccccccccc" />
      <path
         d="m 320.87234,251.20337 c -0.17718,-0.32428 -0.18343,-0.65465 0.18569,-0.84982 1.10483,-0.58414 5.49276,-2.95752 6.65719,-3.58754 0.17797,-0.0962 0.39146,-0.096 0.56917,9.5e-4 1.15432,0.62961 5.48013,2.98892 6.57765,3.58659 0.43696,0.23807 0.49548,0.64397 0.30673,0.84983"
         fill="none"
         stroke="url(#c)"
         id="path1387"
         style="display:inline;enable-background:new;stroke:url(#linearGradient1395);stroke-width:0.134175" />
    </g>
    <g
       inkscape:groupmode="layer"
       id="layer2"
       inkscape:label="Highlights"
       style="display:inline" />
  </g>
</svg>
