<?xml version="1.0" encoding="UTF-8" standalone="no"?>
<svg
   inkscape:export-ydpi="90.000000"
   inkscape:export-xdpi="90.000000"
   width="400"
   height="300"
   id="svg11300"
   sodipodi:version="0.32"
   inkscape:version="1.2.2 (b0a8486541, 2022-12-01)"
   sodipodi:docname="maps-app.svg"
   inkscape:output_extension="org.inkscape.output.svg.inkscape"
   version="1.0"
   style="display:inline;enable-background:new"
   inkscape:export-filename="/home/sam/suru-template.png"
   xmlns:inkscape="http://www.inkscape.org/namespaces/inkscape"
   xmlns:sodipodi="http://sodipodi.sourceforge.net/DTD/sodipodi-0.dtd"
   xmlns:xlink="http://www.w3.org/1999/xlink"
   xmlns="http://www.w3.org/2000/svg"
   xmlns:svg="http://www.w3.org/2000/svg"
   xmlns:rdf="http://www.w3.org/1999/02/22-rdf-syntax-ns#"
   xmlns:cc="http://creativecommons.org/ns#"
   xmlns:dc="http://purl.org/dc/elements/1.1/">
  <title
     id="title3004">Suru Icon Theme Template</title>
  <sodipodi:namedview
     stroke="#ef2929"
     fill="#f57900"
     id="base"
     pagecolor="#ffffff"
     bordercolor="#000000"
     borderopacity="0.25490196"
     inkscape:pageopacity="0"
     inkscape:pageshadow="2"
     inkscape:zoom="2"
     inkscape:cx="338"
     inkscape:cy="78"
     inkscape:current-layer="layer2"
     showgrid="false"
     inkscape:grid-bbox="true"
     inkscape:document-units="px"
     inkscape:showpageshadow="false"
     inkscape:window-width="1920"
     inkscape:window-height="1020"
     inkscape:window-x="0"
     inkscape:window-y="32"
     width="400px"
     height="300px"
     inkscape:snap-nodes="true"
     inkscape:snap-bbox="true"
     gridtolerance="10000"
     inkscape:object-nodes="true"
     inkscape:snap-grids="true"
     showguides="true"
     inkscape:guide-bbox="true"
     inkscape:window-maximized="1"
     inkscape:bbox-paths="true"
     inkscape:snap-bbox-midpoints="true"
     inkscape:snap-global="true"
     inkscape:object-paths="true"
     inkscape:snap-intersection-paths="true"
     inkscape:snap-smooth-nodes="true"
     inkscape:pagecheckerboard="false"
     showborder="false"
     inkscape:document-rotation="0"
     inkscape:deskcolor="#d1d1d1">
    <inkscape:grid
       spacingy="1"
       spacingx="1"
       id="grid5883"
       type="xygrid"
       enabled="true"
       visible="true"
       empspacing="4"
       snapvisiblegridlinesonly="true"
       originx="0"
       originy="0" />
    <inkscape:grid
       type="xygrid"
       id="grid11592"
       empspacing="2"
       visible="true"
       enabled="false"
       spacingx="0.5"
       spacingy="0.5"
       color="#ff0000"
       opacity="0.1254902"
       empcolor="#ff0000"
       empopacity="0.25098039"
       snapvisiblegridlinesonly="true"
       originx="0"
       originy="0" />
  </sodipodi:namedview>
  <defs
     id="defs3">
    <linearGradient
       id="a"
       x2="1"
       gradientTransform="matrix(0,-43.3373,43.3373,0,201.9,45.6687)"
       gradientUnits="userSpaceOnUse">
      <stop
         stop-color="#bb9073"
         offset="0"
         id="stop282" />
      <stop
         stop-color="#baa994"
         offset="1"
         id="stop284" />
    </linearGradient>
    <linearGradient
       id="b"
       x2="1"
       gradientTransform="matrix(14.2858,-822.857,822.857,14.2858,220,961.897)"
       gradientUnits="userSpaceOnUse">
      <stop
         stop-color="#00b344"
         offset="0"
         id="stop287" />
      <stop
         stop-color="#52c462"
         offset="1"
         id="stop289" />
    </linearGradient>
    <linearGradient
       id="c"
       x2="1"
       gradientTransform="matrix(0.150483,-20.4809,20.4809,0.150483,29.9434,27.5847)"
       gradientUnits="userSpaceOnUse">
      <stop
         stop-color="#001c71"
         offset="0"
         id="stop292" />
      <stop
         stop-color="#005cff"
         offset="1"
         id="stop294" />
    </linearGradient>
    <linearGradient
       inkscape:collect="always"
       xlink:href="#a"
       id="linearGradient564"
       gradientUnits="userSpaceOnUse"
       gradientTransform="matrix(0,-45.972628,45.972628,0,532.71805,106.98637)"
       x2="1" />
    <linearGradient
       inkscape:collect="always"
       xlink:href="#b"
       id="linearGradient566"
       gradientUnits="userSpaceOnUse"
       gradientTransform="matrix(15.154515,-872.89469,872.89469,15.154515,551.9187,1078.9302)"
       x2="1" />
    <linearGradient
       inkscape:collect="always"
       xlink:href="#c"
       id="linearGradient568"
       gradientUnits="userSpaceOnUse"
       gradientTransform="matrix(0.15963383,-21.726337,21.726337,0.15963383,350.30482,87.802684)"
       x2="1" />
    <linearGradient
       inkscape:collect="always"
       xlink:href="#a"
       id="linearGradient596"
       gradientUnits="userSpaceOnUse"
       gradientTransform="matrix(0,-29.982149,29.982149,0,459.07699,162.99111)"
       x2="1" />
    <linearGradient
       inkscape:collect="always"
       xlink:href="#b"
       id="linearGradient598"
       gradientUnits="userSpaceOnUse"
       gradientTransform="matrix(9.8833796,-569.27915,569.27915,9.8833796,471.59915,796.86755)"
       x2="1" />
    <linearGradient
       inkscape:collect="always"
       xlink:href="#c"
       id="linearGradient600"
       gradientUnits="userSpaceOnUse"
       gradientTransform="matrix(0.10410902,-14.169351,14.169351,0.10410902,340.11183,150.48001)"
       x2="1" />
    <linearGradient
       inkscape:collect="always"
       xlink:href="#a"
       id="linearGradient628"
       gradientUnits="userSpaceOnUse"
       gradientTransform="matrix(0,-22.986315,22.986315,0,426.35902,211.49318)"
       x2="1" />
    <linearGradient
       inkscape:collect="always"
       xlink:href="#b"
       id="linearGradient630"
       gradientUnits="userSpaceOnUse"
       gradientTransform="matrix(7.5772577,-436.44735,436.44735,7.5772577,435.95935,697.46512)"
       x2="1" />
    <linearGradient
       inkscape:collect="always"
       xlink:href="#c"
       id="linearGradient632"
       gradientUnits="userSpaceOnUse"
       gradientTransform="matrix(0.07981691,-10.863169,10.863169,0.07981691,335.1524,201.90134)"
       x2="1" />
    <linearGradient
       inkscape:collect="always"
       xlink:href="#a"
       id="linearGradient660"
       gradientUnits="userSpaceOnUse"
       gradientTransform="matrix(0,-14.991075,14.991075,0,389.5338,251.49555)"
       x2="1" />
    <linearGradient
       inkscape:collect="always"
       xlink:href="#b"
       id="linearGradient662"
       gradientUnits="userSpaceOnUse"
       gradientTransform="matrix(4.9416898,-284.63957,284.63957,4.9416898,395.79489,568.43377)"
       x2="1" />
    <linearGradient
       inkscape:collect="always"
       xlink:href="#c"
       id="linearGradient664"
       gradientUnits="userSpaceOnUse"
       gradientTransform="matrix(0.05205451,-7.0846753,7.0846753,0.05205451,330.05123,245.24)"
       x2="1" />
    <linearGradient
       inkscape:collect="always"
       xlink:href="#a"
       id="linearGradient690"
       gradientUnits="userSpaceOnUse"
       gradientTransform="matrix(0,-223.86671,223.86671,0,1070.9748,267.93362)"
       x2="1" />
    <linearGradient
       inkscape:collect="always"
       xlink:href="#b"
       id="linearGradient692"
       gradientUnits="userSpaceOnUse"
       gradientTransform="matrix(73.795901,-4250.6177,4250.6177,73.795901,1164.4737,5000.8777)"
       x2="1" />
    <linearGradient
       inkscape:collect="always"
       xlink:href="#c"
       id="linearGradient694"
       gradientUnits="userSpaceOnUse"
       gradientTransform="matrix(0.77734734,-105.79782,105.79782,0.77734734,182.70172,174.51742)"
       x2="1" />
  </defs>
  <metadata
     id="metadata4">
    <rdf:RDF>
      <cc:Work
         rdf:about="">
        <dc:format>image/svg+xml</dc:format>
        <dc:type
           rdf:resource="http://purl.org/dc/dcmitype/StillImage" />
        <dc:creator>
          <cc:Agent>
            <dc:title>Sam Hewitt</dc:title>
          </cc:Agent>
        </dc:creator>
        <dc:source />
        <cc:license
           rdf:resource="http://creativecommons.org/licenses/by-sa/4.0/" />
        <dc:title>Suru Icon Theme Template</dc:title>
        <dc:subject>
          <rdf:Bag />
        </dc:subject>
        <dc:date />
        <dc:rights>
          <cc:Agent>
            <dc:title />
          </cc:Agent>
        </dc:rights>
        <dc:publisher>
          <cc:Agent>
            <dc:title />
          </cc:Agent>
        </dc:publisher>
        <dc:identifier />
        <dc:relation />
        <dc:language />
        <dc:coverage />
        <dc:description />
        <dc:contributor>
          <cc:Agent>
            <dc:title />
          </cc:Agent>
        </dc:contributor>
      </cc:Work>
      <cc:Work
         rdf:about="">
        <dc:format>image/svg+xml</dc:format>
        <dc:type
           rdf:resource="http://purl.org/dc/dcmitype/StillImage" />
      </cc:Work>
      <cc:License
         rdf:about="http://creativecommons.org/licenses/by-sa/4.0/">
        <cc:permits
           rdf:resource="http://creativecommons.org/ns#Reproduction" />
        <cc:permits
           rdf:resource="http://creativecommons.org/ns#Distribution" />
        <cc:requires
           rdf:resource="http://creativecommons.org/ns#Notice" />
        <cc:requires
           rdf:resource="http://creativecommons.org/ns#Attribution" />
        <cc:permits
           rdf:resource="http://creativecommons.org/ns#DerivativeWorks" />
        <cc:requires
           rdf:resource="http://creativecommons.org/ns#ShareAlike" />
      </cc:License>
    </rdf:RDF>
  </metadata>
  <g
     style="display:inline"
     inkscape:groupmode="layer"
     inkscape:label="Icon"
     id="layer1">
    <g
       style="display:none"
       inkscape:label="Baseplate"
       id="layer7"
       inkscape:groupmode="layer">
      <text
         y="-8.2548828"
         xml:space="preserve"
         x="19.006836"
         style="font-style:normal;font-variant:normal;font-weight:normal;font-stretch:normal;line-height:0%;font-family:'DejaVu Sans';-inkscape-font-specification:'DejaVu Sans';display:inline;fill:#000000;fill-opacity:1;stroke:none;enable-background:new"
         inkscape:label="context"
         id="context"><tspan
           style="font-style:normal;font-variant:normal;font-weight:normal;font-stretch:normal;font-size:18px;line-height:1.25;font-family:'DejaVu Sans';-inkscape-font-specification:'DejaVu Sans'"
           y="-8.2548828"
           x="19.006836"
           sodipodi:role="line"
           id="tspan3933">apps</tspan></text>
      <text
         y="-8.2548828"
         xml:space="preserve"
         x="146.48828"
         style="font-style:normal;font-variant:normal;font-weight:bold;font-stretch:normal;line-height:0%;font-family:'DejaVu Sans';-inkscape-font-specification:'DejaVu Sans Bold';text-align:start;writing-mode:lr-tb;text-anchor:start;display:inline;fill:#000000;fill-opacity:1;stroke:none;enable-background:new"
         inkscape:label="icon-name"
         id="icon-name"><tspan
           style="font-style:normal;font-variant:normal;font-weight:bold;font-stretch:normal;font-size:18px;line-height:1.25;font-family:'DejaVu Sans';-inkscape-font-specification:'DejaVu Sans Bold'"
           y="-8.2548828"
           x="146.48828"
           sodipodi:role="line"
           id="tspan924">maps-app</tspan></text>
      <rect
         style="display:inline;overflow:visible;visibility:visible;fill:#cdcdcd;fill-opacity:1;fill-rule:nonzero;stroke:none;stroke-width:2;marker:none;enable-background:accumulate"
         id="rect16x16"
         width="16"
         height="16"
         x="320"
         y="236"
         inkscape:label="16x16" />
      <rect
         style="display:inline;overflow:visible;visibility:visible;fill:#cdcdcd;fill-opacity:1;fill-rule:nonzero;stroke:none;stroke-width:2;marker:none;enable-background:accumulate"
         id="rect24x24"
         width="24"
         height="24"
         x="320"
         y="188"
         inkscape:label="24x24" />
      <rect
         style="display:inline;overflow:visible;visibility:visible;fill:#cdcdcd;fill-opacity:1;fill-rule:nonzero;stroke:none;stroke-width:2;marker:none;enable-background:accumulate"
         id="rect32x32"
         width="32"
         height="32"
         x="320"
         y="132"
         inkscape:label="32x32" />
      <rect
         inkscape:label="48x48"
         y="60"
         x="320"
         height="48"
         width="48"
         id="rect48x48"
         style="display:inline;overflow:visible;visibility:visible;fill:#cdcdcd;fill-opacity:1;fill-rule:nonzero;stroke:none;stroke-width:2;marker:none;enable-background:accumulate" />
      <rect
         style="display:inline;overflow:visible;visibility:visible;fill:#cdcdcd;fill-opacity:1;fill-rule:nonzero;stroke:none;stroke-width:2;marker:none;enable-background:accumulate"
         id="rect256x256"
         width="256"
         height="256"
         x="24"
         y="28"
         inkscape:label="256x256" />
    </g>
    <g
       inkscape:groupmode="layer"
       id="layer2"
       inkscape:label="Background"
       style="display:inline">
      <path
         d="m 263.93,76.241869 c 0,-17.759615 -14.41225,-32.171868 -32.17187,-32.171868 H 72.241869 c -17.759615,0 -32.171868,14.412253 -32.171868,32.171868 V 235.75813 c 0,17.75962 14.412253,32.17187 32.171868,32.17187 H 231.75813 c 17.75962,0 32.17187,-14.41225 32.17187,-32.17187 z"
         fill="url(#a)"
         id="path297"
         style="fill:url(#linearGradient690);stroke-width:5.16568" />
      <path
         d="M 72.241869,44.070001 H 231.75813 l 6.71022,0.702532 C 253.00975,47.861611 263.93,60.780982 263.93,76.241869 v 62.127661 c 0,10.71879 -223.859999,88.1317 -223.859999,71.88046 V 76.241869 c 0,-9.804465 4.390829,-18.586124 11.312843,-24.485333 6.400281,-5.046872 13.379117,-7.485074 20.859025,-7.686535 z"
         fill="url(#b)"
         id="path299"
         style="fill:url(#linearGradient692);stroke-width:5.16568" />
      <path
         d="m 199.9272,44.070001 h -88.4933 l 0.26345,155.430209 88.22985,-15.67268 z"
         fill="#089f48"
         id="path301"
         style="stroke-width:5.16568" />
      <path
         d="m 110.7417,267.93 0.95565,-68.42979 88.38999,-18.05406 -0.0517,86.48385 z"
         fill="#947e67"
         id="path303"
         style="stroke-width:5.16568" />
      <path
         d="m 366.98563,67.621098 c 0,-3.647064 -2.95966,-6.606723 -6.60673,-6.606723 h -32.7578 c -3.64706,0 -6.60672,2.959659 -6.60672,6.606723 V 100.3789 c 0,3.64707 2.95966,6.60672 6.60672,6.60672 h 32.7578 c 3.64707,0 6.60673,-2.95965 6.60673,-6.60672 z"
         fill="url(#a)"
         id="path538"
         style="fill:url(#linearGradient564);stroke-width:1.06081" />
      <path
         d="m 327.6211,61.014375 h 32.7578 l 1.378,0.14427 c 2.98618,0.634365 5.22873,3.28745 5.22873,6.462453 v 12.758358 c 0,2.20118 -45.97125,18.098475 -45.97125,14.761167 V 67.621098 c 0,-2.013417 0.90169,-3.816793 2.32317,-5.028238 1.31434,-1.036411 2.7475,-1.537113 4.28355,-1.578485 z"
         fill="url(#b)"
         id="path540"
         style="fill:url(#linearGradient566);stroke-width:1.06081" />
      <path
         d="m 353.8422,61.014375 h -18.17274 l 0.0541,31.918703 18.11863,-3.218496 z"
         fill="#089f48"
         id="path542"
         style="stroke-width:1.06081" />
      <path
         d="m 335.52732,106.98562 0.19625,-14.052542 18.15151,-3.70753 -0.0106,17.760072 z"
         fill="#947e67"
         id="path544"
         style="stroke-width:1.06081" />
      <path
         d="m 350.99062,137.31811 c 0,-2.37852 -1.93021,-4.30874 -4.30873,-4.30874 h -21.36378 c -2.37852,0 -4.30874,1.93022 -4.30874,4.30874 v 21.36378 c 0,2.37852 1.93022,4.30873 4.30874,4.30873 h 21.36378 c 2.37852,0 4.30873,-1.93021 4.30873,-4.30873 z"
         fill="url(#a)"
         id="path570"
         style="fill:url(#linearGradient596);stroke-width:0.691832" />
      <path
         d="m 325.31811,133.00937 h 21.36378 l 0.89869,0.0941 c 1.94751,0.41372 3.41004,2.14399 3.41004,4.21465 v 8.32066 c 0,1.43556 -29.98125,11.80336 -29.98125,9.62685 v -17.94751 c 0,-1.3131 0.58806,-2.48922 1.51512,-3.27929 0.85718,-0.67592 1.79184,-1.00247 2.79362,-1.02945 z"
         fill="url(#b)"
         id="path572"
         style="fill:url(#linearGradient598);stroke-width:0.691832" />
      <path
         d="m 342.41882,133.00937 h -11.85178 l 0.0353,20.81655 11.8165,-2.09902 z"
         fill="#089f48"
         id="path574"
         style="stroke-width:0.691832" />
      <path
         d="m 330.47433,162.99062 0.12799,-9.1647 11.83795,-2.41796 -0.007,11.58266 z"
         fill="#947e67"
         id="path576"
         style="stroke-width:0.691832" />
      <path
         d="m 343.49281,191.81055 c 0,-1.82354 -1.47983,-3.30337 -3.30336,-3.30337 h -16.3789 c -1.82354,0 -3.30337,1.47983 -3.30337,3.30337 v 16.3789 c 0,1.82353 1.47983,3.30336 3.30337,3.30336 h 16.3789 c 1.82353,0 3.30336,-1.47983 3.30336,-3.30336 z"
         fill="url(#a)"
         id="path602"
         style="fill:url(#linearGradient628);stroke-width:0.530405" />
      <path
         d="m 323.81055,188.50718 h 16.3789 l 0.68899,0.0721 c 1.49309,0.31718 2.61437,1.64372 2.61437,3.23123 v 6.37917 c 0,1.10059 -22.98563,9.04924 -22.98563,7.38059 v -13.75976 c 0,-1.00671 0.45085,-1.9084 1.16159,-2.51412 0.65717,-0.51821 1.37375,-0.76856 2.14178,-0.78925 z"
         fill="url(#b)"
         id="path604"
         style="fill:url(#linearGradient630);stroke-width:0.530405" />
      <path
         d="m 336.92109,188.50718 h -9.08636 l 0.0271,15.95936 9.05931,-1.60925 z"
         fill="#089f48"
         id="path606"
         style="stroke-width:0.530405" />
      <path
         d="m 327.76365,211.49281 0.0981,-7.02627 9.07576,-1.85377 -0.005,8.88004 z"
         fill="#947e67"
         id="path608"
         style="stroke-width:0.530405" />
      <path
         d="m 335.49062,238.65905 c 0,-1.18926 -0.9651,-2.15436 -2.15436,-2.15436 h -10.6819 c -1.18926,0 -2.15436,0.9651 -2.15436,2.15436 v 10.6819 c 0,1.18926 0.9651,2.15436 2.15436,2.15436 h 10.6819 c 1.18926,0 2.15436,-0.9651 2.15436,-2.15436 z"
         fill="url(#a)"
         id="path634"
         style="fill:url(#linearGradient660);stroke-width:0.345916" />
      <path
         d="m 322.65436,236.50469 h 10.6819 l 0.44934,0.047 c 0.97375,0.20686 1.70502,1.072 1.70502,2.10732 v 4.16034 c 0,0.71777 -14.99062,5.90167 -14.99062,4.81342 v -8.97376 c 0,-0.65655 0.29403,-1.2446 0.75755,-1.63964 0.42859,-0.33796 0.89593,-0.50123 1.39681,-0.51472 z"
         fill="url(#b)"
         id="path636"
         style="fill:url(#linearGradient662);stroke-width:0.345916" />
      <path
         d="m 331.20472,236.50469 h -5.92589 l 0.0176,10.40827 5.90825,-1.04951 z"
         fill="#089f48"
         id="path638"
         style="stroke-width:0.345916" />
      <path
         d="m 325.23248,251.49531 0.064,-4.58235 5.91897,-1.20898 -0.003,5.79133 z"
         fill="#947e67"
         id="path640"
         style="stroke-width:0.345916" />
    </g>
    <g
       inkscape:groupmode="layer"
       id="layer6"
       inkscape:label="Pictogram"
       style="display:inline">
      <path
         d="M 40.070001,233.72802 111.69735,199.50021 V 170.76869 L 40.070001,203.87554 Z"
         fill="#efefef"
         id="path305"
         style="display:inline;enable-background:new;stroke-width:5.16568" />
      <path
         d="M 42.735493,63.410314 C 48.479731,51.601565 56.982444,45.898652 67.44295,44.519415 l 44.07877,52.318028 0.17563,47.854877 z"
         fill="#efefef"
         id="path307"
         style="display:inline;enable-background:new;stroke-width:5.16568" />
      <path
         d="m 111.69735,170.76869 10.36752,-1.4464 -10.36752,-24.62997 -0.17563,-47.854877 36.3354,68.729397 52.21988,-4.27718 v 31.6553 l -88.37965,6.55525 z"
         fill="#d8d8d8"
         id="path309"
         style="display:inline;enable-background:new;stroke-width:5.16568" />
      <path
         d="m 200.1047,192.84805 63.76647,-45.85463 0.19883,-33.02084 -64.1428,47.3576 z"
         fill="#efefef"
         id="path311"
         style="display:inline;enable-background:new;stroke-width:4.72121" />
      <path
         d="m 183.47967,68.720636 c -20.56975,0 -37.24457,16.674821 -37.24457,37.244564 0,1.57037 0.12914,3.10458 0.32027,4.62845 3.18206,29.09313 34.50676,62.62357 34.50676,62.62357 0.55789,0.62505 1.09512,1.00731 1.61169,1.28625 l 0.0258,0.0155 1.04347,0.3306 1.04346,-0.3306 0.0258,-0.0155 c 0.52174,-0.27894 1.05897,-0.68187 1.61686,-1.28625 0,0 30.87012,-33.59243 33.97986,-62.69072 0.18596,-1.50321 0.31511,-3.02192 0.31511,-4.57163 -0.0103,-20.559413 -16.67483,-37.234234 -37.24457,-37.234234 z m 0,61.197834 c -13.20865,0 -23.95844,-10.74978 -23.95844,-23.95327 0,-13.208646 10.74979,-23.95843 23.95844,-23.95843 13.20865,0 23.9481,10.749784 23.9481,23.95843 0,13.20349 -10.73945,23.95327 -23.9481,23.95327 z"
         fill="url(#c)"
         fill-rule="nonzero"
         id="path313"
         style="display:inline;enable-background:new;fill:url(#linearGradient694);stroke-width:5.16568" />
      <path
         d="m 140.17059,175.65026 c 1.76666,-2.22641 5.18634,-2.13343 6.84969,-0.51141 1.66852,1.62203 1.58587,4.77826 -0.21179,7.88283 -1.26043,2.33489 -4.40116,4.62329 -7.00467,6.1265 -2.51568,-1.64785 -5.53244,-4.09638 -6.66372,-6.49326 -1.62203,-3.19756 -1.53938,-6.35379 0.21179,-7.88283 1.75633,-1.53421 5.17085,-1.44123 6.8187,0.87817 z m 2.91861,1.58069 c 0.82134,0.13948 1.48772,0.69221 1.47222,1.50838 -0.0258,0.80585 -0.71803,1.4154 -1.55487,1.42057 -0.97115,0.005 -1.49288,-0.69737 -1.47222,-1.49805 0.0207,-0.81618 0.56306,-1.5962 1.55487,-1.4309 z m -5.95603,-0.1498 c 0.95565,-0.13431 1.49805,0.70253 1.47222,1.51354 -0.0207,0.80068 -0.35644,1.38441 -1.54971,1.42057 -0.83167,0.0207 -1.49288,-0.69737 -1.47738,-1.50838 0.0258,-0.81101 0.72836,-1.30692 1.55487,-1.42573 z"
         fill="#cb3434"
         id="path315"
         style="display:inline;enable-background:new;stroke-width:5.16568" />
      <path
         d="m 74.607751,159.10458 h -0.640544 c -0.604385,0 -1.084794,-0.49591 -1.084794,-1.09513 v -1.84415 c -2.598338,-0.65087 -3.342196,-2.19541 -3.342196,-5.36198 0,-4.66977 3.791611,-8.46138 8.466553,-8.46138 4.669777,0 8.461387,3.79161 8.461387,8.46138 0,3.12008 -0.790349,4.65945 -3.331865,5.33099 v 1.86481 c 0,0.60955 -0.490739,1.10029 -1.095124,1.10029 h -0.635379 c -0.604385,0 -1.095125,-0.49074 -1.095125,-1.10029 v -1.46705 c -0.289278,0.0258 -0.578556,0.031 -0.888497,0.0465 v 1.43089 c 0,0.59922 -0.49074,1.08996 -1.095125,1.08996 h -0.635379 c -0.604384,0 -1.095124,-0.49074 -1.095124,-1.08996 v -1.42573 c -0.309941,-0.0103 -0.609551,-0.0207 -0.898829,-0.0362 v 1.46189 c 0,0.59922 -0.49074,1.09513 -1.089959,1.09513 z m -0.113645,-11.7416 c 1.441225,0.56306 2.603504,1.12612 2.603504,2.52085 0,1.38957 -0.940154,1.65819 -2.603504,2.51569 -1.270758,0.66121 -2.598338,-1.12612 -2.598338,-2.51569 0,-1.39473 1.260427,-3.04258 2.598338,-2.52085 z m 6.984002,0 c 1.384403,-0.39259 2.598338,1.12612 2.598338,2.52085 0,1.38957 -1.36374,3.24922 -2.598338,2.51569 -1.513544,-0.89883 -2.598338,-1.12612 -2.598338,-2.51569 0,-1.39473 1.012474,-2.07144 2.598338,-2.52085 z"
         fill="#ededed"
         id="path317"
         style="display:inline;enable-background:new;stroke-width:5.16568" />
      <path
         d="m 66.978039,122.90864 2.546681,2.69132 4.029232,-3.81744 3.223386,3.39902 -4.029232,3.81227 2.551847,2.69649 c 0.867834,0.91433 0.857503,2.33489 -0.02066,3.1614 -0.878166,0.83167 -2.293563,0.76452 -3.156232,-0.14981 l -2.551847,-2.69132 -4.044729,3.82261 -3.21822,-3.39386 4.044729,-3.63147 -2.551847,-2.89278 c -0.873,-0.91433 -0.857503,-2.32972 0.0155,-3.1614 0.878166,-0.83167 2.293563,-0.76452 3.161398,0.15497 z"
         fill="#ffffff"
         id="path319"
         style="display:inline;enable-background:new;stroke-width:5.16568" />
      <path
         d="m 321.01438,99.962003 14.70919,-7.028925 v -5.900223 l -14.70919,6.798729 z"
         fill="#efefef"
         id="path546"
         style="display:inline;enable-background:new;stroke-width:1.06081" />
      <path
         d="m 321.56176,64.986047 c 1.17962,-2.425011 2.92571,-3.596145 5.07385,-3.879381 l 9.05189,10.74388 0.0361,9.827341 z"
         fill="#efefef"
         id="path548"
         style="display:inline;enable-background:new;stroke-width:1.06081" />
      <path
         d="m 335.72357,87.032855 2.12904,-0.297027 -2.12904,-5.057941 -0.0361,-9.827341 7.46173,14.114073 10.72373,-0.87835 v 6.500642 l -18.14939,1.346167 z"
         fill="#d8d8d8"
         id="path550"
         style="display:inline;enable-background:new;stroke-width:1.06081" />
      <path
         d="m 353.87865,91.56701 13.0949,-9.416576 0.0408,-6.781064 -13.17218,9.725221 z"
         fill="#efefef"
         id="path552"
         style="display:inline;enable-background:new;stroke-width:0.969534" />
      <path
         d="m 350.46458,66.076559 c -4.22415,0 -7.64844,3.424294 -7.64844,7.648438 0,0.322486 0.0265,0.637547 0.0658,0.950486 0.65346,5.97448 7.08621,12.860196 7.08621,12.860196 0.11457,0.128358 0.22489,0.206857 0.33097,0.264141 l 0.005,0.0032 0.21429,0.06789 0.21428,-0.06789 0.005,-0.0032 c 0.10714,-0.05728 0.21746,-0.140027 0.33203,-0.264141 0,0 6.3394,-6.898446 6.97801,-12.873987 0.0382,-0.308696 0.0647,-0.620574 0.0647,-0.938817 -0.002,-4.222022 -3.4243,-7.646316 -7.64844,-7.646316 z m 0,12.567413 c -2.71249,0 -4.92004,-2.207545 -4.92004,-4.918975 0,-2.71249 2.20755,-4.920035 4.92004,-4.920035 2.71249,0 4.91791,2.207545 4.91791,4.920035 0,2.71143 -2.20542,4.918975 -4.91791,4.918975 z"
         fill="url(#c)"
         fill-rule="nonzero"
         id="path554"
         style="display:inline;enable-background:new;fill:url(#linearGradient568);stroke-width:1.06081" />
      <path
         d="m 341.57075,88.03532 c 0.3628,-0.457209 1.06505,-0.438115 1.40663,-0.10502 0.34264,0.333094 0.32567,0.981249 -0.0435,1.618795 -0.25884,0.479486 -0.90381,0.949425 -1.43846,1.258121 -0.51661,-0.338399 -1.13613,-0.841222 -1.36844,-1.333438 -0.3331,-0.656641 -0.31612,-1.304796 0.0435,-1.618796 0.36068,-0.31506 1.06187,-0.295966 1.40027,0.180338 z m 0.59936,0.324608 c 0.16866,0.02864 0.30551,0.142148 0.30233,0.309756 -0.005,0.165486 -0.14746,0.290662 -0.31931,0.291723 -0.19943,0.0011 -0.30657,-0.14321 -0.30233,-0.307635 0.004,-0.167608 0.11563,-0.32779 0.31931,-0.293844 z m -1.22312,-0.03076 c 0.19625,-0.02758 0.30764,0.14427 0.30233,0.310817 -0.004,0.164426 -0.0732,0.284297 -0.31824,0.291723 -0.17079,0.0042 -0.30657,-0.143209 -0.30339,-0.309756 0.005,-0.166547 0.14957,-0.268385 0.3193,-0.292784 z"
         fill="#cb3434"
         id="path556"
         style="display:inline;enable-background:new;stroke-width:1.06081" />
      <path
         d="m 328.10695,84.637546 h -0.13154 c -0.12411,0 -0.22277,-0.101837 -0.22277,-0.224891 v -0.378709 c -0.53359,-0.133662 -0.68634,-0.450844 -0.68634,-1.101121 0,-0.958972 0.77863,-1.737606 1.73866,-1.737606 0.95898,0 1.73761,0.778634 1.73761,1.737606 0,0.640729 -0.1623,0.956851 -0.68422,1.094756 v 0.382952 c 0,0.125176 -0.10078,0.225953 -0.22489,0.225953 h -0.13048 c -0.12412,0 -0.22489,-0.100777 -0.22489,-0.225953 v -0.30127 c -0.0594,0.0053 -0.11881,0.0064 -0.18246,0.0095 v 0.293845 c 0,0.123054 -0.10078,0.223831 -0.2249,0.223831 h -0.13047 c -0.12412,0 -0.2249,-0.100777 -0.2249,-0.223831 v -0.292784 c -0.0636,-0.0021 -0.12517,-0.0042 -0.18458,-0.0074 v 0.300209 c 0,0.123054 -0.10077,0.224891 -0.22383,0.224891 z m -0.0233,-2.41122 c 0.29597,0.115628 0.53465,0.231256 0.53465,0.517675 0,0.285358 -0.19307,0.34052 -0.53465,0.516614 -0.26096,0.135784 -0.53358,-0.231256 -0.53358,-0.516614 0,-0.286419 0.25883,-0.624817 0.53358,-0.517675 z m 1.43422,0 c 0.2843,-0.08062 0.53359,0.231256 0.53359,0.517675 0,0.285358 -0.28006,0.667249 -0.53359,0.516614 -0.31082,-0.18458 -0.53359,-0.231256 -0.53359,-0.516614 0,-0.286419 0.20792,-0.425385 0.53359,-0.517675 z"
         fill="#ededed"
         id="path558"
         style="display:inline;enable-background:new;stroke-width:1.06081" />
      <path
         d="m 326.54014,77.204453 0.52298,0.552682 0.82743,-0.783939 0.66194,0.698013 -0.82743,0.782878 0.52404,0.553742 c 0.17822,0.187764 0.17609,0.479486 -0.004,0.649216 -0.18034,0.17079 -0.471,0.157 -0.64816,-0.03076 l -0.52404,-0.552681 -0.83061,0.784999 -0.66089,-0.696952 0.83062,-0.745749 -0.52404,-0.594054 c -0.17928,-0.187763 -0.1761,-0.478425 0.003,-0.649215 0.18034,-0.170791 0.471,-0.157 0.64922,0.03182 z"
         fill="#ffffff"
         id="path560"
         style="display:inline;enable-background:new;stroke-width:1.06081" />
      <path
         d="m 321.00937,158.41 9.59295,-4.58408 v -3.84797 l -9.59295,4.43395 z"
         fill="#efefef"
         id="path578"
         style="display:inline;enable-background:new;stroke-width:0.691832" />
      <path
         d="m 321.36636,135.59959 c 0.76932,-1.58153 1.90807,-2.34531 3.30903,-2.53003 l 5.90341,7.00688 0.0235,6.40914 z"
         fill="#efefef"
         id="path580"
         style="display:inline;enable-background:new;stroke-width:0.691832" />
      <path
         d="m 330.60232,149.97795 1.38851,-0.19372 -1.38851,-3.29865 -0.0235,-6.40914 4.86635,9.20483 6.99373,-0.57284 v 4.23955 l -11.83656,0.87794 z"
         fill="#d8d8d8"
         id="path582"
         style="display:inline;enable-background:new;stroke-width:0.691832" />
      <path
         d="m 342.44259,152.935 8.54015,-6.14124 0.0266,-4.42243 -8.59055,6.34253 z"
         fill="#efefef"
         id="path584"
         style="display:inline;enable-background:new;stroke-width:0.632305" />
      <path
         d="m 340.21602,136.3108 c -2.75487,0 -4.98811,2.23323 -4.98811,4.98811 0,0.21032 0.0173,0.41579 0.0429,0.61988 0.42617,3.8964 4.62144,8.38709 4.62144,8.38709 0.0747,0.0837 0.14667,0.1349 0.21585,0.17226 l 0.003,0.002 0.13975,0.0443 0.13975,-0.0443 0.003,-0.002 c 0.0699,-0.0374 0.14182,-0.0913 0.21654,-0.17226 0,0 4.13439,-4.49899 4.55087,-8.39608 0.0249,-0.20133 0.0422,-0.40472 0.0422,-0.61227 -0.001,-2.7535 -2.23324,-4.98673 -4.98812,-4.98673 z m 0,8.19614 c -1.76901,0 -3.20871,-1.43971 -3.20871,-3.20803 0,-1.76902 1.4397,-3.20872 3.20871,-3.20872 1.76902,0 3.20734,1.4397 3.20734,3.20872 0,1.76832 -1.43832,3.20803 -3.20734,3.20803 z"
         fill="url(#c)"
         fill-rule="nonzero"
         id="path586"
         style="display:inline;enable-background:new;fill:url(#linearGradient600);stroke-width:0.691832" />
      <path
         d="m 334.4157,150.63173 c 0.23661,-0.29818 0.6946,-0.28573 0.91737,-0.0685 0.22346,0.21723 0.21239,0.63994 -0.0284,1.05573 -0.16881,0.31271 -0.58944,0.61919 -0.93813,0.82052 -0.33692,-0.2207 -0.74095,-0.54863 -0.89246,-0.86964 -0.21724,-0.42824 -0.20617,-0.85095 0.0284,-1.05573 0.23523,-0.20548 0.69253,-0.19302 0.91322,0.11761 z m 0.39089,0.2117 c 0.11,0.0187 0.19924,0.0927 0.19717,0.20201 -0.003,0.10793 -0.0962,0.18957 -0.20824,0.19026 -0.13007,6.9e-4 -0.19994,-0.0934 -0.19717,-0.20063 0.003,-0.10931 0.0754,-0.21378 0.20824,-0.19164 z m -0.79769,-0.0201 c 0.12799,-0.018 0.20064,0.0941 0.19718,0.2027 -0.003,0.10724 -0.0477,0.18541 -0.20755,0.19026 -0.11139,0.003 -0.19994,-0.0934 -0.19787,-0.20202 0.003,-0.10862 0.0976,-0.17503 0.20824,-0.19094 z"
         fill="#cb3434"
         id="path588"
         style="display:inline;enable-background:new;stroke-width:0.691832" />
      <path
         d="m 325.63496,148.41579 h -0.0858 c -0.0809,0 -0.14529,-0.0664 -0.14529,-0.14667 v -0.24698 c -0.34799,-0.0872 -0.44761,-0.29403 -0.44761,-0.71813 0,-0.62541 0.5078,-1.13322 1.13391,-1.13322 0.62542,0 1.13322,0.50781 1.13322,1.13322 0,0.41787 -0.10585,0.62404 -0.44623,0.71398 v 0.24975 c 0,0.0816 -0.0657,0.14736 -0.14667,0.14736 h -0.0851 c -0.0809,0 -0.14667,-0.0657 -0.14667,-0.14736 v -0.19648 c -0.0387,0.003 -0.0775,0.004 -0.119,0.006 v 0.19164 c 0,0.0803 -0.0657,0.14598 -0.14667,0.14598 h -0.0851 c -0.081,0 -0.14667,-0.0657 -0.14667,-0.14598 v -0.19094 c -0.0415,-10e-4 -0.0816,-0.003 -0.12038,-0.005 v 0.19579 c 0,0.0803 -0.0657,0.14667 -0.14598,0.14667 z m -0.0152,-1.57254 c 0.19303,0.0754 0.34869,0.15082 0.34869,0.33762 0,0.1861 -0.12592,0.22208 -0.34869,0.33692 -0.17019,0.0886 -0.34799,-0.15082 -0.34799,-0.33692 0,-0.1868 0.16881,-0.40749 0.34799,-0.33762 z m 0.93536,0 c 0.18541,-0.0526 0.34799,0.15082 0.34799,0.33762 0,0.1861 -0.18264,0.43516 -0.34799,0.33692 -0.20271,-0.12038 -0.34799,-0.15082 -0.34799,-0.33692 0,-0.1868 0.1356,-0.27743 0.34799,-0.33762 z"
         fill="#ededed"
         id="path590"
         style="display:inline;enable-background:new;stroke-width:0.691832" />
      <path
         d="m 324.61313,143.56812 0.34107,0.36044 0.53963,-0.51126 0.4317,0.45523 -0.53962,0.51057 0.34176,0.36113 c 0.11623,0.12246 0.11484,0.31271 -0.003,0.42341 -0.11761,0.11138 -0.30717,0.10239 -0.42271,-0.0201 l -0.34176,-0.36044 -0.54171,0.51195 -0.43101,-0.45453 0.54171,-0.48636 -0.34177,-0.38742 c -0.11692,-0.12246 -0.11484,-0.31202 0.002,-0.42341 0.11761,-0.11138 0.30717,-0.10239 0.4234,0.0208 z"
         fill="#ffffff"
         id="path592"
         style="display:inline;enable-background:new;stroke-width:0.691832" />
      <path
         d="m 320.50718,207.981 7.3546,-3.51446 v -2.95012 l -7.3546,3.39937 z"
         fill="#efefef"
         id="path610"
         style="display:inline;enable-background:new;stroke-width:0.530405" />
      <path
         d="m 320.78087,190.49302 c 0.58981,-1.21251 1.46286,-1.79807 2.53693,-1.93969 l 4.52594,5.37194 0.018,4.91367 z"
         fill="#efefef"
         id="path612"
         style="display:inline;enable-background:new;stroke-width:0.530405" />
      <path
         d="m 327.86178,201.51642 1.06452,-0.14851 -1.06452,-2.52897 -0.018,-4.91367 3.73087,7.05704 5.36186,-0.43918 v 3.25032 l -9.07469,0.67309 z"
         fill="#d8d8d8"
         id="path614"
         style="display:inline;enable-background:new;stroke-width:0.530405" />
      <path
         d="m 336.93932,203.7835 6.54745,-4.70829 0.0204,-3.39053 -6.58609,4.86261 z"
         fill="#efefef"
         id="path616"
         style="display:inline;enable-background:new;stroke-width:0.484767" />
      <path
         d="m 335.23228,191.03828 c -2.11207,0 -3.82422,1.71214 -3.82422,3.82422 0,0.16124 0.0133,0.31877 0.0329,0.47524 0.32673,2.98724 3.5431,6.4301 3.5431,6.4301 0.0573,0.0642 0.11245,0.10342 0.16549,0.13207 l 0.003,0.002 0.10714,0.0339 0.10715,-0.0339 0.003,-0.002 c 0.0536,-0.0286 0.10873,-0.07 0.16602,-0.13207 0,0 3.16969,-3.44923 3.489,-6.437 0.0191,-0.15435 0.0324,-0.31028 0.0324,-0.46941 -10e-4,-2.11101 -1.71214,-3.82315 -3.82422,-3.82315 z m 0,6.2837 c -1.35624,0 -2.46001,-1.10377 -2.46001,-2.45948 0,-1.35625 1.10377,-2.46002 2.46001,-2.46002 1.35625,0 2.45896,1.10377 2.45896,2.46002 0,1.35571 -1.10271,2.45948 -2.45896,2.45948 z"
         fill="url(#c)"
         fill-rule="nonzero"
         id="path618"
         style="display:inline;enable-background:new;fill:url(#linearGradient632);stroke-width:0.530405" />
      <path
         d="m 330.78537,202.01766 c 0.1814,-0.22861 0.53253,-0.21906 0.70332,-0.0525 0.17132,0.16654 0.16283,0.49062 -0.0217,0.80939 -0.12942,0.23975 -0.45191,0.47472 -0.71923,0.62906 -0.25831,-0.16919 -0.56806,-0.42061 -0.68422,-0.66671 -0.16655,-0.32832 -0.15806,-0.6524 0.0217,-0.8094 0.18033,-0.15753 0.53093,-0.14799 0.70013,0.0902 z m 0.29968,0.1623 c 0.0843,0.0143 0.15275,0.0711 0.15116,0.15488 -0.003,0.0827 -0.0737,0.14533 -0.15965,0.14586 -0.0997,5.3e-4 -0.15329,-0.0716 -0.15116,-0.15382 0.002,-0.0838 0.0578,-0.16389 0.15965,-0.14692 z m -0.61156,-0.0154 c 0.0981,-0.0138 0.15382,0.0721 0.15117,0.15541 -0.002,0.0822 -0.0366,0.14215 -0.15912,0.14586 -0.0854,0.002 -0.15329,-0.0716 -0.1517,-0.15488 0.003,-0.0833 0.0748,-0.13419 0.15965,-0.14639 z"
         fill="#cb3434"
         id="path620"
         style="display:inline;enable-background:new;stroke-width:0.530405" />
      <path
         d="m 324.05347,200.31877 h -0.0658 c -0.0621,0 -0.11138,-0.0509 -0.11138,-0.11245 v -0.18935 c -0.2668,-0.0668 -0.34318,-0.22542 -0.34318,-0.55056 0,-0.47949 0.38932,-0.8688 0.86934,-0.8688 0.47948,0 0.8688,0.38931 0.8688,0.8688 0,0.32036 -0.0811,0.47842 -0.34211,0.54738 v 0.19147 c 0,0.0626 -0.0504,0.11298 -0.11245,0.11298 h -0.0652 c -0.062,0 -0.11244,-0.0504 -0.11244,-0.11298 v -0.15063 c -0.0297,0.003 -0.0594,0.003 -0.0912,0.005 v 0.14692 c 0,0.0615 -0.0504,0.11192 -0.11245,0.11192 h -0.0652 c -0.062,0 -0.11244,-0.0504 -0.11244,-0.11192 v -0.14639 c -0.0318,-0.001 -0.0626,-0.002 -0.0923,-0.004 v 0.1501 c 0,0.0615 -0.0504,0.11245 -0.11192,0.11245 z m -0.0117,-1.20561 c 0.14799,0.0578 0.26733,0.11563 0.26733,0.25884 0,0.14268 -0.0965,0.17026 -0.26733,0.2583 -0.13048,0.0679 -0.26679,-0.11562 -0.26679,-0.2583 0,-0.14321 0.12942,-0.31241 0.26679,-0.25884 z m 0.71711,0 c 0.14215,-0.0403 0.26679,0.11563 0.26679,0.25884 0,0.14268 -0.14002,0.33362 -0.26679,0.2583 -0.15541,-0.0923 -0.26679,-0.11562 -0.26679,-0.2583 0,-0.14321 0.10396,-0.2127 0.26679,-0.25884 z"
         fill="#ededed"
         id="path622"
         style="display:inline;enable-background:new;stroke-width:0.530405" />
      <path
         d="m 323.27006,196.60222 0.26149,0.27634 0.41372,-0.39197 0.33097,0.34901 -0.41371,0.39144 0.26202,0.27687 c 0.0891,0.0939 0.088,0.23974 -0.002,0.32461 -0.0902,0.0854 -0.2355,0.0785 -0.32407,-0.0154 l -0.26202,-0.27634 -0.41531,0.3925 -0.33044,-0.34848 0.4153,-0.37287 -0.26202,-0.29703 c -0.0896,-0.0939 -0.088,-0.23921 0.002,-0.32461 0.0902,-0.0854 0.2355,-0.0785 0.3246,0.0159 z"
         fill="#ffffff"
         id="path624"
         style="display:inline;enable-background:new;stroke-width:0.530405" />
      <path
         d="m 320.5,249.205 4.79647,-2.29204 v -1.92399 L 320.5,247.20595 Z"
         fill="#efefef"
         id="path642"
         style="display:inline;enable-background:new;stroke-width:0.345916" />
      <path
         d="m 320.67849,237.7998 c 0.38466,-0.79077 0.95404,-1.17266 1.65452,-1.26502 l 2.9517,3.50344 0.0118,3.20457 z"
         fill="#efefef"
         id="path644"
         style="display:inline;enable-background:new;stroke-width:0.345916" />
      <path
         d="m 325.29647,244.98897 0.69425,-0.0968 -0.69425,-1.64933 -0.0118,-3.20457 2.43317,4.60242 3.49687,-0.28642 v 2.11977 l -5.91828,0.43897 z"
         fill="#d8d8d8"
         id="path646"
         style="display:inline;enable-background:new;stroke-width:0.345916" />
      <path
         d="m 331.21661,246.4675 4.27007,-3.07062 0.0133,-2.21122 -4.29528,3.17127 z"
         fill="#efefef"
         id="path648"
         style="display:inline;enable-background:new;stroke-width:0.316153" />
      <path
         d="m 330.10332,238.1554 c -1.37744,0 -2.49405,1.11662 -2.49405,2.49405 0,0.10516 0.009,0.2079 0.0214,0.30995 0.21309,1.9482 2.31072,4.19354 2.31072,4.19354 0.0374,0.0419 0.0733,0.0675 0.10793,0.0861 l 0.002,0.001 0.0699,0.0221 0.0699,-0.0221 0.002,-0.001 c 0.0349,-0.0187 0.0709,-0.0457 0.10827,-0.0861 0,0 2.0672,-2.2495 2.27544,-4.19804 0.0125,-0.10066 0.0211,-0.20236 0.0211,-0.30614 -6.9e-4,-1.37674 -1.11662,-2.49336 -2.49406,-2.49336 z m 0,4.09807 c -0.88451,0 -1.60436,-0.71985 -1.60436,-1.60402 0,-0.8845 0.71985,-1.60435 1.60436,-1.60435 0.88451,0 1.60367,0.71985 1.60367,1.60435 0,0.88417 -0.71916,1.60402 -1.60367,1.60402 z"
         fill="url(#c)"
         fill-rule="nonzero"
         id="path650"
         style="display:inline;enable-background:new;fill:url(#linearGradient664);stroke-width:0.345916" />
      <path
         d="m 327.20316,245.31586 c 0.1183,-0.14909 0.3473,-0.14286 0.45869,-0.0342 0.11173,0.10862 0.10619,0.31997 -0.0142,0.52787 -0.0844,0.15635 -0.29472,0.30959 -0.46906,0.41025 -0.16846,-0.11034 -0.37048,-0.27431 -0.44623,-0.43481 -0.10862,-0.21413 -0.10308,-0.42548 0.0142,-0.52787 0.11761,-0.10274 0.34626,-0.0965 0.45661,0.0588 z m 0.19544,0.10585 c 0.055,0.009 0.0996,0.0464 0.0986,0.10101 -0.002,0.054 -0.0481,0.0948 -0.10412,0.0951 -0.065,3.5e-4 -0.1,-0.0467 -0.0986,-0.10032 10e-4,-0.0546 0.0377,-0.10688 0.10412,-0.0958 z m -0.39884,-0.01 c 0.064,-0.009 0.10032,0.0471 0.0986,0.10136 -0.001,0.0536 -0.0239,0.0927 -0.10378,0.0951 -0.0557,0.001 -0.1,-0.0467 -0.0989,-0.101 0.002,-0.0543 0.0488,-0.0875 0.10412,-0.0955 z"
         fill="#cb3434"
         id="path652"
         style="display:inline;enable-background:new;stroke-width:0.345916" />
      <path
         d="m 322.81279,244.20789 h -0.0429 c -0.0405,0 -0.0726,-0.0332 -0.0726,-0.0733 v -0.12349 c -0.174,-0.0436 -0.22381,-0.14702 -0.22381,-0.35906 0,-0.31271 0.2539,-0.56661 0.56696,-0.56661 0.3127,0 0.56661,0.2539 0.56661,0.56661 0,0.20893 -0.0529,0.31201 -0.22312,0.35698 v 0.12488 c 0,0.0408 -0.0329,0.0737 -0.0733,0.0737 h -0.0426 c -0.0405,0 -0.0733,-0.0329 -0.0733,-0.0737 v -0.0982 c -0.0194,0.002 -0.0387,0.002 -0.0595,0.003 v 0.0958 c 0,0.0401 -0.0329,0.073 -0.0733,0.073 h -0.0426 c -0.0405,0 -0.0733,-0.0329 -0.0733,-0.073 v -0.0955 c -0.0207,-6.9e-4 -0.0408,-10e-4 -0.0602,-0.002 v 0.0979 c 0,0.0401 -0.0329,0.0733 -0.073,0.0733 z m -0.008,-0.78626 c 0.0965,0.0377 0.17434,0.0754 0.17434,0.1688 0,0.0931 -0.063,0.11104 -0.17434,0.16847 -0.0851,0.0443 -0.17399,-0.0754 -0.17399,-0.16847 0,-0.0934 0.0844,-0.20374 0.17399,-0.1688 z m 0.46768,0 c 0.0927,-0.0263 0.174,0.0754 0.174,0.1688 0,0.0931 -0.0913,0.21759 -0.174,0.16847 -0.10135,-0.0602 -0.17399,-0.0754 -0.17399,-0.16847 0,-0.0934 0.0678,-0.13871 0.17399,-0.1688 z"
         fill="#ededed"
         id="path654"
         style="display:inline;enable-background:new;stroke-width:0.345916" />
      <path
         d="m 322.30187,241.78406 0.17054,0.18022 0.26982,-0.25563 0.21585,0.22761 -0.26982,0.25529 0.17089,0.18057 c 0.0581,0.0612 0.0574,0.15635 -10e-4,0.2117 -0.0588,0.0557 -0.15359,0.0512 -0.21135,-0.01 l -0.17089,-0.18023 -0.27085,0.25598 -0.2155,-0.22726 0.27085,-0.24318 -0.17088,-0.19372 c -0.0585,-0.0612 -0.0574,-0.15601 10e-4,-0.2117 0.0588,-0.0557 0.15359,-0.0512 0.2117,0.0104 z"
         fill="#ffffff"
         id="path656"
         style="display:inline;enable-background:new;stroke-width:0.345916" />
    </g>
  </g>
</svg>
