<?xml version="1.0" encoding="UTF-8" standalone="no"?>
<svg
   inkscape:export-ydpi="90.000000"
   inkscape:export-xdpi="90.000000"
   width="400"
   height="300"
   id="svg11300"
   sodipodi:version="0.32"
   inkscape:version="1.2.2 (b0a8486541, 2022-12-01)"
   sodipodi:docname="mediaplayer-app.svg"
   inkscape:output_extension="org.inkscape.output.svg.inkscape"
   version="1.0"
   style="display:inline;enable-background:new"
   inkscape:export-filename="/home/sam/suru-template.png"
   xmlns:inkscape="http://www.inkscape.org/namespaces/inkscape"
   xmlns:sodipodi="http://sodipodi.sourceforge.net/DTD/sodipodi-0.dtd"
   xmlns:xlink="http://www.w3.org/1999/xlink"
   xmlns="http://www.w3.org/2000/svg"
   xmlns:svg="http://www.w3.org/2000/svg"
   xmlns:rdf="http://www.w3.org/1999/02/22-rdf-syntax-ns#"
   xmlns:cc="http://creativecommons.org/ns#"
   xmlns:dc="http://purl.org/dc/elements/1.1/">
  <title
     id="title3004">Suru Icon Theme Template</title>
  <sodipodi:namedview
     stroke="#ef2929"
     fill="#f57900"
     id="base"
     pagecolor="#ffffff"
     bordercolor="#000000"
     borderopacity="0.25490196"
     inkscape:pageopacity="0"
     inkscape:pageshadow="2"
     inkscape:zoom="2"
     inkscape:cx="307"
     inkscape:cy="149.5"
     inkscape:current-layer="layer6"
     showgrid="false"
     inkscape:grid-bbox="true"
     inkscape:document-units="px"
     inkscape:showpageshadow="false"
     inkscape:window-width="1920"
     inkscape:window-height="1020"
     inkscape:window-x="0"
     inkscape:window-y="32"
     width="400px"
     height="300px"
     inkscape:snap-nodes="true"
     inkscape:snap-bbox="true"
     gridtolerance="10000"
     inkscape:object-nodes="true"
     inkscape:snap-grids="true"
     showguides="true"
     inkscape:guide-bbox="true"
     inkscape:window-maximized="1"
     inkscape:bbox-paths="true"
     inkscape:snap-bbox-midpoints="true"
     inkscape:snap-global="true"
     inkscape:object-paths="true"
     inkscape:snap-intersection-paths="true"
     inkscape:snap-smooth-nodes="true"
     inkscape:pagecheckerboard="false"
     showborder="false"
     inkscape:document-rotation="0"
     inkscape:deskcolor="#d1d1d1">
    <inkscape:grid
       spacingy="1"
       spacingx="1"
       id="grid5883"
       type="xygrid"
       enabled="true"
       visible="true"
       empspacing="4"
       snapvisiblegridlinesonly="true"
       originx="0"
       originy="0" />
    <inkscape:grid
       type="xygrid"
       id="grid11592"
       empspacing="2"
       visible="true"
       enabled="false"
       spacingx="0.5"
       spacingy="0.5"
       color="#ff0000"
       opacity="0.1254902"
       empcolor="#ff0000"
       empopacity="0.25098039"
       snapvisiblegridlinesonly="true"
       originx="0"
       originy="0" />
  </sodipodi:namedview>
  <defs
     id="defs3">
    <linearGradient
       id="a"
       x2="1"
       gradientTransform="matrix(0,-33.6872,33.6872,0,923.28,40.4502)"
       gradientUnits="userSpaceOnUse">
      <stop
         stop-color="#006783"
         offset="0"
         id="stop282" />
      <stop
         stop-color="#13bee3"
         offset="1"
         id="stop284" />
    </linearGradient>
    <linearGradient
       inkscape:collect="always"
       xlink:href="#a"
       id="linearGradient400"
       gradientUnits="userSpaceOnUse"
       gradientTransform="matrix(0,-35.758057,35.758057,0,1298.5615,101.46145)"
       x2="1" />
    <linearGradient
       inkscape:collect="always"
       xlink:href="#a"
       id="linearGradient412"
       gradientUnits="userSpaceOnUse"
       gradientTransform="matrix(0,-23.320473,23.320473,0,958.54015,159.3879)"
       x2="1" />
    <linearGradient
       inkscape:collect="always"
       xlink:href="#a"
       id="linearGradient424"
       gradientUnits="userSpaceOnUse"
       gradientTransform="matrix(0,-17.879029,17.879029,0,809.28078,208.73072)"
       x2="1" />
    <linearGradient
       inkscape:collect="always"
       xlink:href="#a"
       id="linearGradient436"
       gradientUnits="userSpaceOnUse"
       gradientTransform="matrix(0,-11.660236,11.660236,0,639.27008,249.69395)"
       x2="1" />
    <linearGradient
       inkscape:collect="always"
       xlink:href="#a"
       id="linearGradient438"
       gradientUnits="userSpaceOnUse"
       gradientTransform="matrix(0,-174.1262,174.1262,0,4800.2998,241.02965)"
       x2="1" />
  </defs>
  <metadata
     id="metadata4">
    <rdf:RDF>
      <cc:Work
         rdf:about="">
        <dc:format>image/svg+xml</dc:format>
        <dc:type
           rdf:resource="http://purl.org/dc/dcmitype/StillImage" />
        <dc:creator>
          <cc:Agent>
            <dc:title>Sam Hewitt</dc:title>
          </cc:Agent>
        </dc:creator>
        <dc:source />
        <cc:license
           rdf:resource="http://creativecommons.org/licenses/by-sa/4.0/" />
        <dc:title>Suru Icon Theme Template</dc:title>
        <dc:subject>
          <rdf:Bag />
        </dc:subject>
        <dc:date />
        <dc:rights>
          <cc:Agent>
            <dc:title />
          </cc:Agent>
        </dc:rights>
        <dc:publisher>
          <cc:Agent>
            <dc:title />
          </cc:Agent>
        </dc:publisher>
        <dc:identifier />
        <dc:relation />
        <dc:language />
        <dc:coverage />
        <dc:description />
        <dc:contributor>
          <cc:Agent>
            <dc:title />
          </cc:Agent>
        </dc:contributor>
      </cc:Work>
      <cc:Work
         rdf:about="">
        <dc:format>image/svg+xml</dc:format>
        <dc:type
           rdf:resource="http://purl.org/dc/dcmitype/StillImage" />
      </cc:Work>
      <cc:License
         rdf:about="http://creativecommons.org/licenses/by-sa/4.0/">
        <cc:permits
           rdf:resource="http://creativecommons.org/ns#Reproduction" />
        <cc:permits
           rdf:resource="http://creativecommons.org/ns#Distribution" />
        <cc:requires
           rdf:resource="http://creativecommons.org/ns#Notice" />
        <cc:requires
           rdf:resource="http://creativecommons.org/ns#Attribution" />
        <cc:permits
           rdf:resource="http://creativecommons.org/ns#DerivativeWorks" />
        <cc:requires
           rdf:resource="http://creativecommons.org/ns#ShareAlike" />
      </cc:License>
    </rdf:RDF>
  </metadata>
  <g
     style="display:inline"
     inkscape:groupmode="layer"
     inkscape:label="Icon"
     id="layer1">
    <g
       style="display:none"
       inkscape:label="Baseplate"
       id="layer7"
       inkscape:groupmode="layer">
      <text
         y="-8.2548828"
         xml:space="preserve"
         x="19.006836"
         style="font-style:normal;font-variant:normal;font-weight:normal;font-stretch:normal;line-height:0%;font-family:'DejaVu Sans';-inkscape-font-specification:'DejaVu Sans';display:inline;fill:#000000;fill-opacity:1;stroke:none;enable-background:new"
         inkscape:label="context"
         id="context"><tspan
           style="font-style:normal;font-variant:normal;font-weight:normal;font-stretch:normal;font-size:18px;line-height:1.25;font-family:'DejaVu Sans';-inkscape-font-specification:'DejaVu Sans'"
           y="-8.2548828"
           x="19.006836"
           sodipodi:role="line"
           id="tspan3933">apps</tspan></text>
      <text
         y="-8.2548828"
         xml:space="preserve"
         x="146.48828"
         style="font-style:normal;font-variant:normal;font-weight:bold;font-stretch:normal;line-height:0%;font-family:'DejaVu Sans';-inkscape-font-specification:'DejaVu Sans Bold';text-align:start;writing-mode:lr-tb;text-anchor:start;display:inline;fill:#000000;fill-opacity:1;stroke:none;enable-background:new"
         inkscape:label="icon-name"
         id="icon-name"><tspan
           style="font-style:normal;font-variant:normal;font-weight:bold;font-stretch:normal;font-size:18px;line-height:1.25;font-family:'DejaVu Sans';-inkscape-font-specification:'DejaVu Sans Bold'"
           y="-8.2548828"
           x="146.48828"
           sodipodi:role="line"
           id="tspan924">mediaplayer-app</tspan></text>
      <rect
         style="display:inline;overflow:visible;visibility:visible;fill:#cdcdcd;fill-opacity:1;fill-rule:nonzero;stroke:none;stroke-width:2;marker:none;enable-background:accumulate"
         id="rect16x16"
         width="16"
         height="16"
         x="320"
         y="236"
         inkscape:label="16x16" />
      <rect
         style="display:inline;overflow:visible;visibility:visible;fill:#cdcdcd;fill-opacity:1;fill-rule:nonzero;stroke:none;stroke-width:2;marker:none;enable-background:accumulate"
         id="rect24x24"
         width="24"
         height="24"
         x="320"
         y="188"
         inkscape:label="24x24" />
      <rect
         style="display:inline;overflow:visible;visibility:visible;fill:#cdcdcd;fill-opacity:1;fill-rule:nonzero;stroke:none;stroke-width:2;marker:none;enable-background:accumulate"
         id="rect32x32"
         width="32"
         height="32"
         x="320"
         y="132"
         inkscape:label="32x32" />
      <rect
         inkscape:label="48x48"
         y="60"
         x="320"
         height="48"
         width="48"
         id="rect48x48"
         style="display:inline;overflow:visible;visibility:visible;fill:#cdcdcd;fill-opacity:1;fill-rule:nonzero;stroke:none;stroke-width:2;marker:none;enable-background:accumulate" />
      <rect
         style="display:inline;overflow:visible;visibility:visible;fill:#cdcdcd;fill-opacity:1;fill-rule:nonzero;stroke:none;stroke-width:2;marker:none;enable-background:accumulate"
         id="rect256x256"
         width="256"
         height="256"
         x="24"
         y="28"
         inkscape:label="256x256" />
    </g>
    <g
       inkscape:groupmode="layer"
       id="layer2"
       inkscape:label="Background"
       style="display:inline">
      <path
         d="M 264,76.191988 C 264,58.421266 249.57873,43.999999 231.80801,43.999999 H 72.191988 c -17.770722,0 -32.191989,14.421267 -32.191989,32.191989 V 235.80801 C 39.999999,253.57873 54.421266,268 72.191988,268 H 231.80801 C 249.57873,268 264,253.57873 264,235.80801 Z"
         fill="url(#a)"
         id="path287"
         style="fill:url(#linearGradient438);stroke-width:5.16891" />
      <path
         d="M 231.80801,43.999999 C 249.57873,43.999999 264,58.421266 264,76.191988 v 22.247 H 39.999999 v -22.247 c 0,-17.770722 14.421267,-32.191989 32.191989,-32.191989 z"
         fill="#393939"
         id="path289"
         style="stroke-width:5.16891" />
      <path
         d="m 367,67.610856 c 0,-3.649345 -2.96151,-6.610855 -6.61085,-6.610855 h -32.77829 c -3.64934,0 -6.61085,2.96151 -6.61085,6.610855 v 32.778294 c 0,3.64934 2.96151,6.61085 6.61085,6.61085 h 32.77829 C 364.03849,107 367,104.03849 367,100.38915 Z"
         fill="url(#a)"
         id="path390"
         style="fill:url(#linearGradient400);stroke-width:1.06147" />
      <path
         d="m 360.38915,61.000001 c 3.64934,0 6.61085,2.96151 6.61085,6.610855 v 4.56858 h -45.99999 v -4.56858 c 0,-3.649345 2.96151,-6.610855 6.61085,-6.610855 z"
         fill="#393939"
         id="path392"
         style="stroke-width:1.06147" />
      <path
         d="M 351,137.31143 C 351,134.93142 349.06858,133 346.68858,133 H 325.31143 C 322.93142,133 321,134.93142 321,137.31143 v 21.37715 c 0,2.38 1.93142,4.31142 4.31143,4.31142 h 21.37715 c 2.38,0 4.31142,-1.93142 4.31142,-4.31142 z"
         fill="url(#a)"
         id="path402"
         style="fill:url(#linearGradient412);stroke-width:0.692265" />
      <path
         d="m 346.68858,133 c 2.38,0 4.31142,1.93142 4.31142,4.31143 v 2.97951 h -30 v -2.97951 C 321,134.93142 322.93142,133 325.31143,133 Z"
         fill="#393939"
         id="path404"
         style="stroke-width:0.692265" />
      <path
         d="m 343.5,191.80543 c 0,-1.82468 -1.48076,-3.30543 -3.30543,-3.30543 h -16.38914 c -1.82468,0 -3.30543,1.48075 -3.30543,3.30543 v 16.38914 c 0,1.82467 1.48075,3.30543 3.30543,3.30543 h 16.38914 c 1.82467,0 3.30543,-1.48076 3.30543,-3.30543 z"
         fill="url(#a)"
         id="path414"
         style="fill:url(#linearGradient424);stroke-width:0.530737" />
      <path
         d="m 340.19457,188.5 c 1.82467,0 3.30543,1.48075 3.30543,3.30543 v 2.28429 h -23 v -2.28429 c 0,-1.82468 1.48075,-3.30543 3.30543,-3.30543 z"
         fill="#393939"
         id="path416"
         style="stroke-width:0.530737" />
      <path
         d="m 335.5,238.65571 c 0,-1.19 -0.96571,-2.15571 -2.15571,-2.15571 h -10.68858 c -1.19,0 -2.15571,0.96571 -2.15571,2.15571 v 10.68858 c 0,1.19 0.96571,2.15571 2.15571,2.15571 h 10.68858 c 1.19,0 2.15571,-0.96571 2.15571,-2.15571 z"
         fill="url(#a)"
         id="path426"
         style="fill:url(#linearGradient436);stroke-width:0.346133" />
      <path
         d="m 333.34429,236.5 c 1.19,0 2.15571,0.96571 2.15571,2.15571 v 1.48976 h -15 v -1.48976 c 0,-1.19 0.96571,-2.15571 2.15571,-2.15571 z"
         fill="#393939"
         id="path428"
         style="stroke-width:0.346133" />
    </g>
    <g
       inkscape:groupmode="layer"
       id="layer6"
       inkscape:label="Pictogram"
       style="display:inline">
      <path
         d="m 166.26103,95.745984 h 34.32158 L 227.40927,72.036182 200.58261,45.809119 h -34.32158 l 24.31457,26.227063 z m -89.37567,0 h 34.32158 L 138.02843,72.036182 111.20694,45.809119 H 76.88536 l 24.31457,26.227063 z"
         fill="#ffffff"
         fill-opacity="0.95"
         id="path291"
         style="display:inline;enable-background:new;stroke-width:5.16891" />
      <path
         d="m 197.05539,166.18749 c 2.97229,1.79012 4.78774,5.00728 4.78774,8.47776 0,3.47048 -1.81545,6.68764 -4.78774,8.47777 -16.93863,10.23411 -45.30199,27.35852 -62.67127,37.84595 -3.06517,1.84923 -6.88185,1.90834 -9.98924,0.15199 -3.11583,-1.75635 -5.04106,-5.05795 -5.04106,-8.62976 v -75.70034 c 0,-3.57181 1.92523,-6.86497 5.04106,-8.62976 3.10739,-1.75635 6.93252,-1.69724 9.98924,0.15199 17.36928,10.48744 45.73264,27.62029 62.67127,37.8544 z"
         fill="#e0f1fe"
         id="path293"
         style="display:inline;enable-background:new;stroke-width:8.44399" />
      <path
         d="m 346.92861,71.626408 h 7.04818 l 5.50905,-4.868977 -5.50905,-5.385914 h -7.04818 l 4.99317,5.385914 z m -18.35393,0 h 7.04818 l 5.50798,-4.868977 -5.50798,-5.385914 h -7.04818 l 4.99317,5.385914 z"
         fill="#ffffff"
         fill-opacity="0.95"
         id="path394"
         style="display:inline;enable-background:new;stroke-width:1.06147" />
      <path
         d="m 353.25246,86.092074 c 0.61038,0.367615 0.98319,1.028282 0.98319,1.74097 0,0.712687 -0.37281,1.373354 -0.98319,1.740969 -3.47847,2.101648 -9.30309,5.618267 -12.87,7.771936 -0.62945,0.379753 -1.41323,0.391892 -2.05136,0.03121 -0.63986,-0.360679 -1.03522,-1.038686 -1.03522,-1.772182 V 80.059373 c 0,-0.733496 0.39536,-1.409769 1.03522,-1.772182 0.63813,-0.360679 1.42364,-0.34854 2.05136,0.03121 3.56691,2.153669 9.39153,5.672022 12.87,7.77367 z"
         fill="#e0f1fe"
         id="path396"
         style="display:inline;enable-background:new;stroke-width:1.73403" />
      <path
         d="m 337.90996,139.93027 h 4.59664 l 3.59286,-3.17542 -3.59286,-3.51256 h -4.59664 l 3.25642,3.51256 z m -11.96995,0 h 4.59664 l 3.59216,-3.17542 -3.59216,-3.51256 h -4.59664 l 3.25641,3.51256 z"
         fill="#ffffff"
         fill-opacity="0.95"
         id="path406"
         style="display:inline;enable-background:new;stroke-width:0.692265" />
      <path
         d="m 342.03421,149.3644 c 0.39807,0.23975 0.64121,0.67062 0.64121,1.13541 0,0.4648 -0.24314,0.89567 -0.64121,1.13542 -2.26857,1.37064 -6.06723,3.66408 -8.39348,5.06865 -0.41051,0.24767 -0.92167,0.25558 -1.33784,0.0204 -0.4173,-0.23523 -0.67514,-0.67741 -0.67514,-1.15577 v -10.13844 c 0,-0.47837 0.25784,-0.91942 0.67514,-1.15577 0.41617,-0.23523 0.92846,-0.22731 1.33784,0.0204 2.32625,1.40457 6.12491,3.69915 8.39348,5.06979 z"
         fill="#e0f1fe"
         id="path408"
         style="display:inline;enable-background:new;stroke-width:1.13089" />
      <path
         d="m 333.4643,193.8132 h 3.52409 l 2.75452,-2.43449 -2.75452,-2.69295 h -3.52409 l 2.49658,2.69295 z m -9.17697,0 h 3.52409 l 2.754,-2.43449 -2.754,-2.69295 h -3.52409 l 2.49659,2.69295 z"
         fill="#ffffff"
         fill-opacity="0.95"
         id="path418"
         style="display:inline;enable-background:new;stroke-width:0.530737" />
      <path
         d="m 336.62622,201.04603 c 0.30519,0.18381 0.4916,0.51414 0.4916,0.87049 0,0.35634 -0.18641,0.68667 -0.4916,0.87048 -1.73923,1.05083 -4.65154,2.80914 -6.43499,3.88597 -0.31473,0.18988 -0.70662,0.19595 -1.02568,0.0156 -0.31993,-0.18034 -0.51761,-0.51935 -0.51761,-0.88609 v -7.77281 c 0,-0.36675 0.19768,-0.70488 0.51761,-0.88609 0.31906,-0.18034 0.71182,-0.17427 1.02568,0.0156 1.78345,1.07683 4.69576,2.83601 6.43499,3.88683 z"
         fill="#e0f1fe"
         id="path420"
         style="display:inline;enable-background:new;stroke-width:0.867017" />
      <path
         d="m 328.95498,239.96513 h 2.29832 l 1.79643,-1.58771 -1.79643,-1.75627 h -2.29832 l 1.62821,1.75627 z m -5.98498,0 h 2.29832 l 1.79608,-1.58771 -1.79608,-1.75627 H 322.97 l 1.62821,1.75627 z"
         fill="#ffffff"
         fill-opacity="0.95"
         id="path430"
         style="display:inline;enable-background:new;stroke-width:0.346133" />
      <path
         d="m 331.0171,244.6822 c 0.19904,0.11987 0.32061,0.33531 0.32061,0.56771 0,0.23239 -0.12157,0.44783 -0.32061,0.5677 -1.13428,0.68532 -3.03362,1.83205 -4.19674,2.53433 -0.20525,0.12383 -0.46084,0.12779 -0.66892,0.0102 -0.20865,-0.11761 -0.33757,-0.3387 -0.33757,-0.57789 v -5.06922 c 0,-0.23918 0.12892,-0.4597 0.33757,-0.57788 0.20808,-0.11761 0.46423,-0.11366 0.66892,0.0102 1.16312,0.70228 3.06246,1.84957 4.19674,2.53489 z"
         fill="#e0f1fe"
         id="path432"
         style="display:inline;enable-background:new;stroke-width:0.565446" />
    </g>
  </g>
</svg>
