<?xml version="1.0" encoding="UTF-8" standalone="no"?>
<svg
   inkscape:export-ydpi="90.000000"
   inkscape:export-xdpi="90.000000"
   width="400"
   height="300"
   id="svg11300"
   sodipodi:version="0.32"
   inkscape:version="1.2.2 (b0a8486541, 2022-12-01)"
   sodipodi:docname="music-app.svg"
   inkscape:output_extension="org.inkscape.output.svg.inkscape"
   version="1.0"
   style="display:inline;enable-background:new"
   inkscape:export-filename="/home/sam/suru-template.png"
   xmlns:inkscape="http://www.inkscape.org/namespaces/inkscape"
   xmlns:sodipodi="http://sodipodi.sourceforge.net/DTD/sodipodi-0.dtd"
   xmlns:xlink="http://www.w3.org/1999/xlink"
   xmlns="http://www.w3.org/2000/svg"
   xmlns:svg="http://www.w3.org/2000/svg"
   xmlns:rdf="http://www.w3.org/1999/02/22-rdf-syntax-ns#"
   xmlns:cc="http://creativecommons.org/ns#"
   xmlns:dc="http://purl.org/dc/elements/1.1/">
  <title
     id="title3004">Suru Icon Theme Template</title>
  <sodipodi:namedview
     stroke="#ef2929"
     fill="#f57900"
     id="base"
     pagecolor="#ffffff"
     bordercolor="#000000"
     borderopacity="0.25490196"
     inkscape:pageopacity="0"
     inkscape:pageshadow="2"
     inkscape:zoom="1.4142136"
     inkscape:cx="231.93102"
     inkscape:cy="171.82695"
     inkscape:current-layer="layer6"
     showgrid="false"
     inkscape:grid-bbox="true"
     inkscape:document-units="px"
     inkscape:showpageshadow="false"
     inkscape:window-width="1920"
     inkscape:window-height="1020"
     inkscape:window-x="0"
     inkscape:window-y="32"
     width="400px"
     height="300px"
     inkscape:snap-nodes="true"
     inkscape:snap-bbox="true"
     gridtolerance="10000"
     inkscape:object-nodes="true"
     inkscape:snap-grids="true"
     showguides="true"
     inkscape:guide-bbox="true"
     inkscape:window-maximized="1"
     inkscape:bbox-paths="true"
     inkscape:snap-bbox-midpoints="true"
     inkscape:snap-global="true"
     inkscape:object-paths="true"
     inkscape:snap-intersection-paths="true"
     inkscape:snap-smooth-nodes="true"
     inkscape:pagecheckerboard="false"
     showborder="false"
     inkscape:document-rotation="0"
     inkscape:deskcolor="#d1d1d1">
    <inkscape:grid
       spacingy="1"
       spacingx="1"
       id="grid5883"
       type="xygrid"
       enabled="true"
       visible="true"
       empspacing="4"
       snapvisiblegridlinesonly="true"
       originx="0"
       originy="0" />
    <inkscape:grid
       type="xygrid"
       id="grid11592"
       empspacing="2"
       visible="true"
       enabled="false"
       spacingx="0.5"
       spacingy="0.5"
       color="#ff0000"
       opacity="0.1254902"
       empcolor="#ff0000"
       empopacity="0.25098039"
       snapvisiblegridlinesonly="true"
       originx="0"
       originy="0" />
  </sodipodi:namedview>
  <defs
     id="defs3">
    <linearGradient
       id="a"
       x2="1"
       gradientTransform="matrix(0.94439962,-216.73125,216.73125,0.94439962,453.66247,321.10271)"
       gradientUnits="userSpaceOnUse">
      <stop
         stop-color="#8d3aff"
         offset="0"
         id="stop126" />
      <stop
         stop-color="#ff3680"
         offset="1"
         id="stop128" />
    </linearGradient>
    <linearGradient
       inkscape:collect="always"
       xlink:href="#a"
       id="linearGradient369"
       gradientUnits="userSpaceOnUse"
       gradientTransform="matrix(0.19393921,-44.507312,44.507312,0.19393921,437.23737,107.301)"
       x2="1" />
    <linearGradient
       inkscape:collect="always"
       xlink:href="#a"
       id="linearGradient379"
       gradientUnits="userSpaceOnUse"
       gradientTransform="matrix(0.1264821,-29.026509,29.026509,0.1264821,396.80699,163.1963)"
       x2="1" />
    <linearGradient
       inkscape:collect="always"
       xlink:href="#a"
       id="linearGradient389"
       gradientUnits="userSpaceOnUse"
       gradientTransform="matrix(0.0969696,-22.253655,22.253655,0.0969696,378.61868,211.6505)"
       x2="1" />
    <linearGradient
       inkscape:collect="always"
       xlink:href="#a"
       id="linearGradient399"
       gradientUnits="userSpaceOnUse"
       gradientTransform="matrix(0.06324105,-14.513254,14.513254,0.06324105,358.4035,251.59815)"
       x2="1" />
    <linearGradient
       inkscape:collect="always"
       xlink:href="#a"
       id="linearGradient410"
       gradientUnits="userSpaceOnUse"
       gradientTransform="matrix(0.94439962,-216.73125,216.73125,0.94439962,606.02547,269.46572)"
       x2="1" />
  </defs>
  <metadata
     id="metadata4">
    <rdf:RDF>
      <cc:Work
         rdf:about="">
        <dc:format>image/svg+xml</dc:format>
        <dc:type
           rdf:resource="http://purl.org/dc/dcmitype/StillImage" />
        <dc:creator>
          <cc:Agent>
            <dc:title>Sam Hewitt</dc:title>
          </cc:Agent>
        </dc:creator>
        <dc:source />
        <cc:license
           rdf:resource="http://creativecommons.org/licenses/by-sa/4.0/" />
        <dc:title>Suru Icon Theme Template</dc:title>
        <dc:subject>
          <rdf:Bag />
        </dc:subject>
        <dc:date />
        <dc:rights>
          <cc:Agent>
            <dc:title />
          </cc:Agent>
        </dc:rights>
        <dc:publisher>
          <cc:Agent>
            <dc:title />
          </cc:Agent>
        </dc:publisher>
        <dc:identifier />
        <dc:relation />
        <dc:language />
        <dc:coverage />
        <dc:description />
        <dc:contributor>
          <cc:Agent>
            <dc:title />
          </cc:Agent>
        </dc:contributor>
      </cc:Work>
      <cc:Work
         rdf:about="">
        <dc:format>image/svg+xml</dc:format>
        <dc:type
           rdf:resource="http://purl.org/dc/dcmitype/StillImage" />
      </cc:Work>
      <cc:License
         rdf:about="http://creativecommons.org/licenses/by-sa/4.0/">
        <cc:permits
           rdf:resource="http://creativecommons.org/ns#Reproduction" />
        <cc:permits
           rdf:resource="http://creativecommons.org/ns#Distribution" />
        <cc:requires
           rdf:resource="http://creativecommons.org/ns#Notice" />
        <cc:requires
           rdf:resource="http://creativecommons.org/ns#Attribution" />
        <cc:permits
           rdf:resource="http://creativecommons.org/ns#DerivativeWorks" />
        <cc:requires
           rdf:resource="http://creativecommons.org/ns#ShareAlike" />
      </cc:License>
    </rdf:RDF>
  </metadata>
  <g
     style="display:inline"
     inkscape:groupmode="layer"
     inkscape:label="Icon"
     id="layer1">
    <g
       style="display:none"
       inkscape:label="Baseplate"
       id="layer7"
       inkscape:groupmode="layer">
      <text
         y="-8.2548828"
         xml:space="preserve"
         x="19.006836"
         style="font-style:normal;font-variant:normal;font-weight:normal;font-stretch:normal;line-height:0%;font-family:'DejaVu Sans';-inkscape-font-specification:'DejaVu Sans';display:inline;fill:#000000;fill-opacity:1;stroke:none;enable-background:new"
         inkscape:label="context"
         id="context"><tspan
           style="font-style:normal;font-variant:normal;font-weight:normal;font-stretch:normal;font-size:18px;line-height:1.25;font-family:'DejaVu Sans';-inkscape-font-specification:'DejaVu Sans'"
           y="-8.2548828"
           x="19.006836"
           sodipodi:role="line"
           id="tspan3933">apps</tspan></text>
      <text
         y="-8.2548828"
         xml:space="preserve"
         x="146.48828"
         style="font-style:normal;font-variant:normal;font-weight:bold;font-stretch:normal;line-height:0%;font-family:'DejaVu Sans';-inkscape-font-specification:'DejaVu Sans Bold';text-align:start;writing-mode:lr-tb;text-anchor:start;display:inline;fill:#000000;fill-opacity:1;stroke:none;enable-background:new"
         inkscape:label="icon-name"
         id="icon-name"><tspan
           style="font-style:normal;font-variant:normal;font-weight:bold;font-stretch:normal;font-size:18px;line-height:1.25;font-family:'DejaVu Sans';-inkscape-font-specification:'DejaVu Sans Bold'"
           y="-8.2548828"
           x="146.48828"
           sodipodi:role="line"
           id="tspan924">music-app</tspan></text>
      <rect
         style="display:inline;overflow:visible;visibility:visible;fill:#cdcdcd;fill-opacity:1;fill-rule:nonzero;stroke:none;stroke-width:2;marker:none;enable-background:accumulate"
         id="rect16x16"
         width="16"
         height="16"
         x="320"
         y="236"
         inkscape:label="16x16" />
      <rect
         style="display:inline;overflow:visible;visibility:visible;fill:#cdcdcd;fill-opacity:1;fill-rule:nonzero;stroke:none;stroke-width:2;marker:none;enable-background:accumulate"
         id="rect24x24"
         width="24"
         height="24"
         x="320"
         y="188"
         inkscape:label="24x24" />
      <rect
         style="display:inline;overflow:visible;visibility:visible;fill:#cdcdcd;fill-opacity:1;fill-rule:nonzero;stroke:none;stroke-width:2;marker:none;enable-background:accumulate"
         id="rect32x32"
         width="32"
         height="32"
         x="320"
         y="132"
         inkscape:label="32x32" />
      <rect
         inkscape:label="48x48"
         y="60"
         x="320"
         height="48"
         width="48"
         id="rect48x48"
         style="display:inline;overflow:visible;visibility:visible;fill:#cdcdcd;fill-opacity:1;fill-rule:nonzero;stroke:none;stroke-width:2;marker:none;enable-background:accumulate" />
      <rect
         style="display:inline;overflow:visible;visibility:visible;fill:#cdcdcd;fill-opacity:1;fill-rule:nonzero;stroke:none;stroke-width:2;marker:none;enable-background:accumulate"
         id="rect256x256"
         width="256"
         height="256"
         x="24"
         y="28"
         inkscape:label="256x256" />
    </g>
    <g
       inkscape:groupmode="layer"
       id="layer2"
       inkscape:label="Background"
       style="display:inline">
      <circle
         cx="152"
         cy="156"
         r="111.51503"
         fill="url(#a)"
         id="circle131"
         style="display:inline;fill:url(#linearGradient410);stroke-width:4.89874;enable-background:new" />
      <circle
         cx="152"
         cy="156"
         r="107.02777"
         fill="none"
         stroke="#ffffff"
         stroke-opacity="0.45"
         stroke-width="9.94445"
         id="circle133"
         style="display:inline;enable-background:new" />
      <circle
         cx="344"
         cy="84"
         r="22.900408"
         fill="url(#a)"
         id="circle361"
         style="display:inline;fill:url(#linearGradient369);stroke-width:1.00599;enable-background:new" />
      <circle
         cx="344"
         cy="84"
         r="21.978918"
         fill="none"
         stroke="#ffffff"
         stroke-opacity="0.45"
         stroke-width="2.04216"
         id="circle363"
         style="display:inline;enable-background:new" />
      <circle
         cx="336"
         cy="148"
         r="14.93505"
         fill="url(#a)"
         id="circle371"
         style="display:inline;fill:url(#linearGradient379);stroke-width:0.656081;enable-background:new" />
      <circle
         cx="336"
         cy="148"
         r="14.334078"
         fill="none"
         stroke="#ffffff"
         stroke-opacity="0.45"
         stroke-width="1.33185"
         id="circle373"
         style="display:inline;enable-background:new" />
      <circle
         cx="332"
         cy="200"
         r="11.450204"
         fill="url(#a)"
         id="circle381"
         style="display:inline;fill:url(#linearGradient389);stroke-width:0.502996;enable-background:new" />
      <circle
         cx="332"
         cy="200"
         r="10.989458"
         fill="none"
         stroke="#ffffff"
         stroke-opacity="0.45"
         stroke-width="1.02108"
         id="circle383"
         style="display:inline;enable-background:new" />
      <circle
         cx="328"
         cy="244"
         r="7.467525"
         fill="url(#a)"
         id="circle391"
         style="display:inline;fill:url(#linearGradient399);stroke-width:0.328041;enable-background:new" />
      <circle
         cx="328"
         cy="244"
         r="7.1670389"
         fill="none"
         stroke="#ffffff"
         stroke-opacity="0.45"
         stroke-width="0.665923"
         id="circle393"
         style="display:inline;enable-background:new" />
    </g>
    <g
       inkscape:groupmode="layer"
       id="layer6"
       inkscape:label="Pictogram"
       style="display:inline">
      <path
         d="m 128.48602,128.84137 v 73.72611 c 0.0735,2.91965 -0.73481,5.8295 -2.34649,8.31317 -2.11136,3.24787 -5.42291,5.52088 -9.20474,6.31938 -2.93925,0.62704 -6.03526,1.28347 -8.96961,1.91051 -3.78673,0.79849 -7.74001,0.0686 -10.982982,-2.04278 -3.242969,-2.10646 -5.515987,-5.41311 -6.319381,-9.19984 -0.122469,-0.56336 -0.240039,-1.12671 -0.362507,-1.69007 -0.803394,-3.79163 -0.07348,-7.73511 2.032979,-10.98298 2.116258,-3.24297 5.42291,-5.52089 9.204741,-6.32428 2.93925,-0.62214 6.03525,-1.27857 8.9696,-1.90071 0.4017,-0.0882 0.81319,-0.15676 1.21979,-0.20575 v -0.0539 c 0,0 2.18484,-0.46538 4.43826,-0.94546 2.84617,-0.60254 4.88405,-3.1156 4.88405,-6.02545 v -74.98019 c 0,-2.92455 2.05258,-5.452303 4.92814,-6.035253 13.15313,-2.68452 49.05603,-10.01304 63.32607,-12.92289 1.46962,-0.29883 2.98334,0.0735 4.14434,1.01894 1.1561,0.94056 1.83213,2.35139 1.83213,3.85041 l 0.24494,98.224733 c 0.0392,2.87556 -0.76911,5.70704 -2.3563,8.14661 -2.10646,3.24787 -5.41801,5.52579 -9.20474,6.32918 -2.93435,0.62214 -6.03036,1.27857 -8.9696,1.90561 -3.78183,0.8034 -7.73022,0.0686 -10.97809,-2.03787 -3.24297,-2.11136 -5.52088,-5.42291 -6.32428,-9.20964 -0.11757,-0.55846 -0.24004,-1.12672 -0.35761,-1.69007 -0.80339,-3.78183 -0.0686,-7.73512 2.03788,-10.97809 2.10646,-3.24787 5.42291,-5.52088 9.20474,-6.32428 2.93435,-0.62214 6.03036,-1.27857 8.9696,-1.90561 0.46049,-0.098 0.93566,-0.17146 1.40594,-0.22534 l 4.12965,-0.83279 c 2.88046,-0.58295 4.94773,-3.1107 4.94773,-6.04015 v -49.38425 z m 59.54425,-18.24783 v -5.4327 c 0,-1.25408 -0.56336,-2.43958 -1.53331,-3.24297 -0.97485,-0.7936 -2.25342,-1.11202 -3.48301,-0.86218 -11.25241,2.25832 -38.39146,7.70572 -49.58019,9.94935 -2.87557,0.58295 -4.94774,3.1058 -4.94774,6.04505 v 5.73643 z"
         fill="#ffffff"
         id="path135"
         style="display:inline;enable-background:new;stroke-width:4.89874" />
      <path
         d="m 339.17123,78.422781 v 15.140183 c 0.0151,0.599571 -0.1509,1.19713 -0.48187,1.707169 -0.43358,0.666974 -1.11363,1.133753 -1.89026,1.29773 -0.60359,0.128767 -1.23938,0.26357 -1.84197,0.392337 -0.77763,0.163976 -1.58947,0.01409 -2.25543,-0.419499 -0.66597,-0.432577 -1.13275,-1.111621 -1.29773,-1.889253 -0.0251,-0.11569 -0.0493,-0.231378 -0.0745,-0.347068 -0.16498,-0.778639 -0.0151,-1.58846 0.41749,-2.255434 0.43459,-0.665967 1.11363,-1.133754 1.89026,-1.298736 0.60359,-0.127761 1.23938,-0.262563 1.84197,-0.390324 0.0825,-0.01811 0.167,-0.03219 0.25049,-0.04225 v -0.01107 c 0,0 0.44868,-0.09557 0.91143,-0.194157 0.58448,-0.123736 1.00298,-0.639811 1.00298,-1.237369 V 73.47732 c 0,-0.600577 0.42151,-1.119668 1.01202,-1.239381 2.70109,-0.551286 10.07401,-2.05625 13.00447,-2.653808 0.30179,-0.06137 0.61265,0.01509 0.85107,0.209246 0.23741,0.193151 0.37624,0.482875 0.37624,0.79071 l 0.0503,20.17115 c 0.008,0.590517 -0.15794,1.171982 -0.48389,1.672965 -0.43257,0.666973 -1.11262,1.13476 -1.89026,1.299742 -0.60258,0.127761 -1.23837,0.262564 -1.84197,0.391331 -0.77662,0.164984 -1.58745,0.01409 -2.25443,-0.418491 -0.66596,-0.433583 -1.13375,-1.113634 -1.29873,-1.891266 -0.0242,-0.114683 -0.0493,-0.23138 -0.0734,-0.347068 -0.16498,-0.776625 -0.0141,-1.588462 0.41849,-2.254429 0.43258,-0.666973 1.11364,-1.133752 1.89026,-1.298736 0.60259,-0.127761 1.23838,-0.262563 1.84198,-0.391331 0.0946,-0.02013 0.19214,-0.03521 0.28871,-0.04628 l 0.84806,-0.171019 c 0.59152,-0.119713 1.01605,-0.638805 1.01605,-1.240388 V 75.918863 Z m 12.22784,-3.747323 v -1.115644 c 0,-0.257534 -0.11569,-0.500985 -0.31488,-0.665967 -0.20019,-0.162971 -0.46275,-0.228361 -0.71526,-0.177054 -2.31076,0.463762 -7.88396,1.582424 -10.18165,2.04317 -0.59051,0.119713 -1.01605,0.637798 -1.01605,1.241394 v 1.178017 z"
         fill="#ffffff"
         id="path365"
         style="display:inline;enable-background:new;stroke-width:1.00599" />
      <path
         d="m 332.85081,144.36268 v 9.87403 c 0.01,0.39103 -0.0984,0.78074 -0.31426,1.11337 -0.28277,0.43499 -0.72629,0.73941 -1.23278,0.84635 -0.39365,0.084 -0.80829,0.17189 -1.20129,0.25587 -0.50715,0.10694 -1.03661,0.009 -1.47093,-0.27358 -0.43433,-0.28212 -0.73875,-0.72497 -0.84635,-1.23213 -0.0164,-0.0754 -0.0322,-0.15089 -0.0485,-0.22634 -0.1076,-0.50781 -0.01,-1.03596 0.27228,-1.47094 0.28342,-0.43433 0.72628,-0.7394 1.23277,-0.847 0.39365,-0.0833 0.8083,-0.17124 1.20129,-0.25456 0.0538,-0.0118 0.10891,-0.021 0.16336,-0.0276 v -0.007 c 0,0 0.29262,-0.0623 0.59441,-0.12662 0.38119,-0.0807 0.65412,-0.41727 0.65412,-0.80698 v -10.04199 c 0,-0.39168 0.2749,-0.73022 0.66002,-0.80829 1.76158,-0.35954 6.57,-1.34103 8.48117,-1.73075 0.19682,-0.04 0.39955,0.01 0.55504,0.13647 0.15484,0.12597 0.24538,0.31492 0.24538,0.51568 l 0.0328,13.1551 c 0.005,0.38512 -0.103,0.76433 -0.31557,1.09106 -0.28212,0.43498 -0.72563,0.74006 -1.23278,0.84766 -0.39299,0.0833 -0.80764,0.17124 -1.20129,0.25521 -0.50649,0.1076 -1.03529,0.009 -1.47028,-0.27292 -0.43432,-0.28278 -0.7394,-0.72629 -0.847,-1.23344 -0.0157,-0.0748 -0.0322,-0.1509 -0.0479,-0.22635 -0.1076,-0.50649 -0.009,-1.03595 0.27293,-1.47028 0.28211,-0.43498 0.72628,-0.7394 1.23278,-0.847 0.39299,-0.0833 0.80763,-0.17124 1.20128,-0.25521 0.0617,-0.0131 0.12531,-0.023 0.1883,-0.0302 l 0.55307,-0.11154 c 0.38578,-0.0781 0.66265,-0.41661 0.66265,-0.80895 v -6.61396 z m 7.97468,-2.44391 v -0.72759 c 0,-0.16796 -0.0754,-0.32673 -0.20536,-0.43433 -0.13056,-0.10628 -0.30179,-0.14893 -0.46647,-0.11547 -1.50702,0.30246 -5.14172,1.03202 -6.64021,1.33251 -0.38512,0.0781 -0.66264,0.41595 -0.66264,0.8096 v 0.76827 z"
         fill="#ffffff"
         id="path375"
         style="display:inline;enable-background:new;stroke-width:0.656081" />
      <path
         d="m 329.58562,197.21139 v 7.57009 c 0.008,0.29979 -0.0754,0.59857 -0.24094,0.85359 -0.21679,0.33348 -0.55682,0.56687 -0.94513,0.64886 -0.3018,0.0644 -0.61969,0.13179 -0.92098,0.19617 -0.38882,0.082 -0.79474,0.007 -1.12772,-0.20975 -0.33298,-0.21629 -0.56638,-0.55581 -0.64887,-0.94463 -0.0126,-0.0578 -0.0246,-0.11569 -0.0372,-0.17353 -0.0825,-0.38932 -0.008,-0.79423 0.20875,-1.12772 0.21729,-0.33298 0.55681,-0.56687 0.94512,-0.64937 0.3018,-0.0639 0.6197,-0.13128 0.92099,-0.19516 0.0412,-0.009 0.0835,-0.0161 0.12525,-0.0211 v -0.006 c 0,0 0.22433,-0.0478 0.45571,-0.0971 0.29224,-0.0619 0.50149,-0.3199 0.50149,-0.61868 v -7.69886 c 0,-0.30029 0.21075,-0.55983 0.50601,-0.61969 1.35055,-0.27564 5.03701,-1.02813 6.50223,-1.3269 0.1509,-0.0307 0.30633,0.008 0.42554,0.10462 0.1187,0.0966 0.18812,0.24144 0.18812,0.39535 l 0.0251,10.08558 c 0.004,0.29526 -0.079,0.58599 -0.24194,0.83648 -0.21629,0.33349 -0.55632,0.56738 -0.94513,0.64987 -0.3013,0.0639 -0.61919,0.13128 -0.92099,0.19567 -0.38831,0.0825 -0.79373,0.007 -1.12721,-0.20925 -0.33299,-0.21679 -0.56688,-0.55682 -0.64937,-0.94563 -0.0121,-0.0573 -0.0247,-0.11569 -0.0367,-0.17354 -0.0825,-0.38831 -0.007,-0.79423 0.20925,-1.12721 0.21629,-0.33349 0.55681,-0.56688 0.94513,-0.64937 0.30129,-0.0639 0.61918,-0.13128 0.92098,-0.19566 0.0473,-0.0101 0.0961,-0.0176 0.14436,-0.0231 l 0.42403,-0.0855 c 0.29576,-0.0599 0.50802,-0.3194 0.50802,-0.62019 v -5.07071 z m 6.11391,-1.87366 v -0.55782 c 0,-0.12877 -0.0578,-0.2505 -0.15743,-0.33299 -0.1001,-0.0815 -0.23138,-0.11418 -0.35763,-0.0885 -1.15539,0.23188 -3.94198,0.79121 -5.09083,1.02158 -0.29526,0.0599 -0.50802,0.3189 -0.50802,0.6207 v 0.58901 z"
         fill="#ffffff"
         id="path385"
         style="display:inline;enable-background:new;stroke-width:0.502996" />
      <path
         d="m 326.42541,242.18135 v 4.93701 c 0.005,0.19551 -0.0492,0.39037 -0.15714,0.55669 -0.14138,0.21749 -0.36314,0.3697 -0.61639,0.42317 -0.19682,0.042 -0.40414,0.0859 -0.60064,0.12794 -0.25357,0.0535 -0.5183,0.005 -0.73547,-0.1368 -0.21716,-0.14105 -0.36937,-0.36248 -0.42317,-0.61606 -0.008,-0.0377 -0.0161,-0.0754 -0.0243,-0.11317 -0.0538,-0.25391 -0.005,-0.51798 0.13613,-0.73547 0.14172,-0.21716 0.36314,-0.3697 0.61639,-0.4235 0.19683,-0.0417 0.40415,-0.0856 0.60064,-0.12728 0.0269,-0.006 0.0545,-0.0105 0.0817,-0.0138 v -0.004 c 0,0 0.1463,-0.0312 0.2972,-0.0633 0.19059,-0.0403 0.32706,-0.20863 0.32706,-0.40349 v -5.02099 c 0,-0.19585 0.13745,-0.36511 0.33001,-0.40415 0.88079,-0.17977 3.285,-0.67052 4.24058,-0.86537 0.0984,-0.02 0.19978,0.005 0.27753,0.0682 0.0774,0.063 0.12268,0.15746 0.12268,0.25784 l 0.0164,6.57755 c 0.003,0.19256 -0.0515,0.38217 -0.15779,0.54553 -0.14106,0.21749 -0.36282,0.37003 -0.61639,0.42383 -0.1965,0.0417 -0.40382,0.0856 -0.60064,0.12761 -0.25325,0.0538 -0.51765,0.005 -0.73514,-0.13647 -0.21717,-0.14138 -0.36971,-0.36314 -0.4235,-0.61671 -0.008,-0.0374 -0.0161,-0.0755 -0.024,-0.11318 -0.0538,-0.25325 -0.005,-0.51798 0.13646,-0.73514 0.14106,-0.21749 0.36315,-0.3697 0.61639,-0.4235 0.1965,-0.0417 0.40382,-0.0856 0.60065,-0.12761 0.0308,-0.007 0.0627,-0.0115 0.0941,-0.0151 l 0.27654,-0.0558 c 0.19289,-0.039 0.33132,-0.20831 0.33132,-0.40448 v -3.30698 z m 3.98733,-1.22196 v -0.36379 c 0,-0.084 -0.0377,-0.16337 -0.10267,-0.21717 -0.0653,-0.0531 -0.1509,-0.0745 -0.23324,-0.0577 -0.75351,0.15122 -2.57086,0.516 -3.3201,0.66625 -0.19256,0.039 -0.33132,0.20798 -0.33132,0.4048 v 0.38414 z"
         fill="#ffffff"
         id="path395"
         style="display:inline;enable-background:new;stroke-width:0.328041" />
    </g>
  </g>
</svg>
