<?xml version="1.0" encoding="UTF-8" standalone="no"?>
<svg
   inkscape:export-ydpi="90.000000"
   inkscape:export-xdpi="90.000000"
   width="400"
   height="300"
   id="svg11300"
   sodipodi:version="0.32"
   inkscape:version="1.2.2 (b0a8486541, 2022-12-01)"
   sodipodi:docname="notes-app.svg"
   inkscape:output_extension="org.inkscape.output.svg.inkscape"
   version="1.0"
   style="display:inline;enable-background:new"
   inkscape:export-filename="/home/sam/suru-template.png"
   xmlns:inkscape="http://www.inkscape.org/namespaces/inkscape"
   xmlns:sodipodi="http://sodipodi.sourceforge.net/DTD/sodipodi-0.dtd"
   xmlns:xlink="http://www.w3.org/1999/xlink"
   xmlns="http://www.w3.org/2000/svg"
   xmlns:svg="http://www.w3.org/2000/svg"
   xmlns:rdf="http://www.w3.org/1999/02/22-rdf-syntax-ns#"
   xmlns:cc="http://creativecommons.org/ns#"
   xmlns:dc="http://purl.org/dc/elements/1.1/">
  <title
     id="title3004">Suru Icon Theme Template</title>
  <sodipodi:namedview
     stroke="#ef2929"
     fill="#f57900"
     id="base"
     pagecolor="#ffffff"
     bordercolor="#000000"
     borderopacity="0.25490196"
     inkscape:pageopacity="0"
     inkscape:pageshadow="2"
     inkscape:zoom="2"
     inkscape:cx="309.5"
     inkscape:cy="158.5"
     inkscape:current-layer="layer6"
     showgrid="false"
     inkscape:grid-bbox="true"
     inkscape:document-units="px"
     inkscape:showpageshadow="false"
     inkscape:window-width="1920"
     inkscape:window-height="1020"
     inkscape:window-x="0"
     inkscape:window-y="32"
     width="400px"
     height="300px"
     inkscape:snap-nodes="true"
     inkscape:snap-bbox="true"
     gridtolerance="10000"
     inkscape:object-nodes="true"
     inkscape:snap-grids="true"
     showguides="true"
     inkscape:guide-bbox="true"
     inkscape:window-maximized="1"
     inkscape:bbox-paths="true"
     inkscape:snap-bbox-midpoints="true"
     inkscape:snap-global="true"
     inkscape:object-paths="true"
     inkscape:snap-intersection-paths="true"
     inkscape:snap-smooth-nodes="true"
     inkscape:pagecheckerboard="false"
     showborder="false"
     inkscape:document-rotation="0"
     inkscape:deskcolor="#d1d1d1">
    <inkscape:grid
       spacingy="1"
       spacingx="1"
       id="grid5883"
       type="xygrid"
       enabled="true"
       visible="true"
       empspacing="4"
       snapvisiblegridlinesonly="true"
       originx="0"
       originy="0" />
    <inkscape:grid
       type="xygrid"
       id="grid11592"
       empspacing="2"
       visible="true"
       enabled="false"
       spacingx="0.5"
       spacingy="0.5"
       color="#ff0000"
       opacity="0.1254902"
       empcolor="#ff0000"
       empopacity="0.25098039"
       snapvisiblegridlinesonly="true"
       originx="0"
       originy="0" />
  </sodipodi:namedview>
  <defs
     id="defs3">
    <linearGradient
       id="a"
       x2="1"
       gradientTransform="matrix(7.879,7.256,-7.256,7.879,19.297,55.689)"
       gradientUnits="userSpaceOnUse">
      <stop
         stop-color="#945500"
         offset="0"
         id="stop22" />
      <stop
         stop-color="#ffd42a"
         offset="1"
         id="stop24" />
    </linearGradient>
    <linearGradient
       id="b"
       x2="1"
       gradientTransform="matrix(0.65509,-43.117,43.117,0.65509,22.779,46.213)"
       gradientUnits="userSpaceOnUse">
      <stop
         stop-color="#ffdf60"
         offset="0"
         id="stop27" />
      <stop
         stop-color="#ffe57a"
         offset="1"
         id="stop29" />
    </linearGradient>
    <linearGradient
       id="c"
       x2="1"
       gradientTransform="matrix(23.275,0,0,24.932,22.397,33.202)"
       gradientUnits="userSpaceOnUse">
      <stop
         stop-color="#d2ac3a"
         offset="0"
         id="stop32" />
      <stop
         stop-color="#d8a21b"
         offset="1"
         id="stop34" />
    </linearGradient>
    <linearGradient
       inkscape:collect="always"
       xlink:href="#a"
       id="linearGradient385"
       gradientUnits="userSpaceOnUse"
       gradientTransform="matrix(8.3633466,7.7020488,-7.7020488,8.3633466,339.00563,117.63702)"
       x2="1" />
    <linearGradient
       inkscape:collect="always"
       xlink:href="#b"
       id="linearGradient387"
       gradientUnits="userSpaceOnUse"
       gradientTransform="matrix(0.69536041,-45.767536,45.767536,0.69536041,342.70168,107.5785)"
       x2="1" />
    <linearGradient
       inkscape:collect="always"
       xlink:href="#c"
       id="linearGradient389"
       gradientUnits="userSpaceOnUse"
       gradientTransform="matrix(24.705786,0,0,26.464647,342.29619,93.767676)"
       x2="1" />
    <linearGradient
       inkscape:collect="always"
       xlink:href="#a"
       id="linearGradient405"
       gradientUnits="userSpaceOnUse"
       gradientTransform="matrix(5.4543566,5.0230755,-5.0230755,5.4543566,332.74428,169.93719)"
       x2="1" />
    <linearGradient
       inkscape:collect="always"
       xlink:href="#b"
       id="linearGradient407"
       gradientUnits="userSpaceOnUse"
       gradientTransform="matrix(0.45349594,-29.848394,29.848394,0.45349594,335.15475,163.37729)"
       x2="1" />
    <linearGradient
       inkscape:collect="always"
       xlink:href="#c"
       id="linearGradient409"
       gradientUnits="userSpaceOnUse"
       gradientTransform="matrix(16.11247,0,0,17.259553,334.8903,154.37023)"
       x2="1" />
    <linearGradient
       inkscape:collect="always"
       xlink:href="#a"
       id="linearGradient425"
       gradientUnits="userSpaceOnUse"
       gradientTransform="matrix(4.1816734,3.8510246,-3.8510246,4.1816734,329.50281,216.81851)"
       x2="1" />
    <linearGradient
       inkscape:collect="always"
       xlink:href="#b"
       id="linearGradient427"
       gradientUnits="userSpaceOnUse"
       gradientTransform="matrix(0.34768022,-22.883769,22.883769,0.34768022,331.35084,211.78925)"
       x2="1" />
    <linearGradient
       inkscape:collect="always"
       xlink:href="#c"
       id="linearGradient429"
       gradientUnits="userSpaceOnUse"
       gradientTransform="matrix(12.352894,0,0,13.232324,331.1481,204.88384)"
       x2="1" />
    <linearGradient
       inkscape:collect="always"
       xlink:href="#a"
       id="linearGradient445"
       gradientUnits="userSpaceOnUse"
       gradientTransform="matrix(2.7271784,2.5115378,-2.5115378,2.7271784,326.3714,254.9686)"
       x2="1" />
    <linearGradient
       inkscape:collect="always"
       xlink:href="#b"
       id="linearGradient447"
       gradientUnits="userSpaceOnUse"
       gradientTransform="matrix(0.22674797,-14.924197,14.924197,0.22674797,327.57663,251.68864)"
       x2="1" />
    <linearGradient
       inkscape:collect="always"
       xlink:href="#c"
       id="linearGradient449"
       gradientUnits="userSpaceOnUse"
       gradientTransform="matrix(8.0562351,0,0,8.6297767,327.44441,247.18511)"
       x2="1" />
    <linearGradient
       inkscape:collect="always"
       xlink:href="#a"
       id="linearGradient487"
       gradientUnits="userSpaceOnUse"
       gradientTransform="matrix(40.725863,37.505631,-37.505631,40.725863,127.67957,319.79767)"
       x2="1" />
    <linearGradient
       inkscape:collect="always"
       xlink:href="#b"
       id="linearGradient489"
       gradientUnits="userSpaceOnUse"
       gradientTransform="matrix(3.386103,-222.86801,222.86801,3.386103,145.67772,270.81706)"
       x2="1" />
    <linearGradient
       inkscape:collect="always"
       xlink:href="#c"
       id="linearGradient491"
       gradientUnits="userSpaceOnUse"
       gradientTransform="matrix(120.30644,0,0,128.87133,143.7032,203.56433)"
       x2="1" />
  </defs>
  <metadata
     id="metadata4">
    <rdf:RDF>
      <cc:Work
         rdf:about="">
        <dc:format>image/svg+xml</dc:format>
        <dc:type
           rdf:resource="http://purl.org/dc/dcmitype/StillImage" />
        <dc:creator>
          <cc:Agent>
            <dc:title>Sam Hewitt</dc:title>
          </cc:Agent>
        </dc:creator>
        <dc:source />
        <cc:license
           rdf:resource="http://creativecommons.org/licenses/by-sa/4.0/" />
        <dc:title>Suru Icon Theme Template</dc:title>
        <dc:subject>
          <rdf:Bag />
        </dc:subject>
        <dc:date />
        <dc:rights>
          <cc:Agent>
            <dc:title />
          </cc:Agent>
        </dc:rights>
        <dc:publisher>
          <cc:Agent>
            <dc:title />
          </cc:Agent>
        </dc:publisher>
        <dc:identifier />
        <dc:relation />
        <dc:language />
        <dc:coverage />
        <dc:description />
        <dc:contributor>
          <cc:Agent>
            <dc:title />
          </cc:Agent>
        </dc:contributor>
      </cc:Work>
      <cc:Work
         rdf:about="">
        <dc:format>image/svg+xml</dc:format>
        <dc:type
           rdf:resource="http://purl.org/dc/dcmitype/StillImage" />
      </cc:Work>
      <cc:License
         rdf:about="http://creativecommons.org/licenses/by-sa/4.0/">
        <cc:permits
           rdf:resource="http://creativecommons.org/ns#Reproduction" />
        <cc:permits
           rdf:resource="http://creativecommons.org/ns#Distribution" />
        <cc:requires
           rdf:resource="http://creativecommons.org/ns#Notice" />
        <cc:requires
           rdf:resource="http://creativecommons.org/ns#Attribution" />
        <cc:permits
           rdf:resource="http://creativecommons.org/ns#DerivativeWorks" />
        <cc:requires
           rdf:resource="http://creativecommons.org/ns#ShareAlike" />
      </cc:License>
    </rdf:RDF>
  </metadata>
  <g
     style="display:inline"
     inkscape:groupmode="layer"
     inkscape:label="Icon"
     id="layer1">
    <g
       style="display:none"
       inkscape:label="Baseplate"
       id="layer7"
       inkscape:groupmode="layer">
      <text
         y="-8.2548828"
         xml:space="preserve"
         x="19.006836"
         style="font-style:normal;font-variant:normal;font-weight:normal;font-stretch:normal;line-height:0%;font-family:'DejaVu Sans';-inkscape-font-specification:'DejaVu Sans';display:inline;fill:#000000;fill-opacity:1;stroke:none;enable-background:new"
         inkscape:label="context"
         id="context"><tspan
           style="font-style:normal;font-variant:normal;font-weight:normal;font-stretch:normal;font-size:18px;line-height:1.25;font-family:'DejaVu Sans';-inkscape-font-specification:'DejaVu Sans'"
           y="-8.2548828"
           x="19.006836"
           sodipodi:role="line"
           id="tspan3933">apps</tspan></text>
      <text
         y="-8.2548828"
         xml:space="preserve"
         x="146.48828"
         style="font-style:normal;font-variant:normal;font-weight:bold;font-stretch:normal;line-height:0%;font-family:'DejaVu Sans';-inkscape-font-specification:'DejaVu Sans Bold';text-align:start;writing-mode:lr-tb;text-anchor:start;display:inline;fill:#000000;fill-opacity:1;stroke:none;enable-background:new"
         inkscape:label="icon-name"
         id="icon-name"><tspan
           style="font-style:normal;font-variant:normal;font-weight:bold;font-stretch:normal;font-size:18px;line-height:1.25;font-family:'DejaVu Sans';-inkscape-font-specification:'DejaVu Sans Bold'"
           y="-8.2548828"
           x="146.48828"
           sodipodi:role="line"
           id="tspan924">notes-app</tspan></text>
      <rect
         style="display:inline;overflow:visible;visibility:visible;fill:#cdcdcd;fill-opacity:1;fill-rule:nonzero;stroke:none;stroke-width:2;marker:none;enable-background:accumulate"
         id="rect16x16"
         width="16"
         height="16"
         x="320"
         y="236"
         inkscape:label="16x16" />
      <rect
         style="display:inline;overflow:visible;visibility:visible;fill:#cdcdcd;fill-opacity:1;fill-rule:nonzero;stroke:none;stroke-width:2;marker:none;enable-background:accumulate"
         id="rect24x24"
         width="24"
         height="24"
         x="320"
         y="188"
         inkscape:label="24x24" />
      <rect
         style="display:inline;overflow:visible;visibility:visible;fill:#cdcdcd;fill-opacity:1;fill-rule:nonzero;stroke:none;stroke-width:2;marker:none;enable-background:accumulate"
         id="rect32x32"
         width="32"
         height="32"
         x="320"
         y="132"
         inkscape:label="32x32" />
      <rect
         inkscape:label="48x48"
         y="60"
         x="320"
         height="48"
         width="48"
         id="rect48x48"
         style="display:inline;overflow:visible;visibility:visible;fill:#cdcdcd;fill-opacity:1;fill-rule:nonzero;stroke:none;stroke-width:2;marker:none;enable-background:accumulate" />
      <rect
         style="display:inline;overflow:visible;visibility:visible;fill:#cdcdcd;fill-opacity:1;fill-rule:nonzero;stroke:none;stroke-width:2;marker:none;enable-background:accumulate"
         id="rect256x256"
         width="256"
         height="256"
         x="24"
         y="28"
         inkscape:label="256x256" />
    </g>
    <g
       inkscape:groupmode="layer"
       id="layer2"
       inkscape:label="Background"
       style="display:inline">
      <path
         d="m 263.98896,76.191988 c 0,-17.770722 -14.42126,-32.191989 -32.19198,-32.191989 H 72.180952 c -17.770722,0 -32.191989,14.421267 -32.191989,32.191989 V 235.80801 C 39.988963,253.57873 54.41023,268 72.180952,268 H 231.79698 c 17.77072,0 32.19198,-14.42127 32.19198,-32.19199 z"
         fill="url(#a)"
         id="path37"
         style="fill:url(#linearGradient487);stroke-width:5.16891" />
      <path
         d="m 72.180952,43.999999 c -16.59221,0 -32.181651,13.800997 -32.181651,31.333949 L 39.988963,236.12332 C 39.988963,252.89644 54.198304,268 72.180952,268 H 143.7032 c 78.66051,-5.6858 119.87742,-48.13291 120.28576,-125.49603 0.0362,-0.79084 -0.0568,-68.281338 -0.0568,-68.281338 0,-11.412959 -11.28891,-30.150268 -29.94868,-30.150268 z"
         fill="url(#b)"
         id="path39"
         style="fill:url(#linearGradient489);stroke-width:5.16891" />
      <path
         d="m 72.180952,43.999999 c -17.817242,0 -31.876685,15.372347 -32.109286,29.266384 l 223.901794,-0.05169 c -0.0103,0.05686 -0.0207,0.108547 -0.0258,0.165405 -0.0672,-14.901975 -16.32342,-29.612701 -29.96418,-29.307735 z"
         fill-opacity="0.07"
         id="path43"
         style="fill-rule:nonzero;stroke-width:5.16891" />
      <path
         d="m 366.99773,67.610856 c 0,-3.649345 -2.96151,-6.610855 -6.61085,-6.610855 h -32.77829 c -3.64934,0 -6.61085,2.96151 -6.61085,6.610855 v 32.778294 c 0,3.64934 2.96151,6.61085 6.61085,6.61085 h 32.77829 c 3.64934,0 6.61085,-2.96151 6.61085,-6.61085 z"
         fill="url(#a)"
         id="path371"
         style="fill:url(#linearGradient385);stroke-width:1.06147" />
      <path
         d="m 327.60859,61.000001 c -3.40733,0 -6.60873,2.834133 -6.60873,6.43465 l -0.002,33.019239 c 0,3.44449 2.91798,6.54611 6.61085,6.54611 h 14.6876 c 16.1535,-1.16762 24.61769,-9.884438 24.70154,-25.771506 0.007,-0.162405 -0.0117,-14.02206 -0.0117,-14.02206 0,-2.343732 -2.31826,-6.191572 -6.15018,-6.191572 z"
         fill="url(#b)"
         id="path373"
         style="fill:url(#linearGradient387);stroke-width:1.06147" />
      <path
         d="m 327.60859,61.000001 c -3.6589,0 -6.5461,3.156821 -6.59387,6.010061 l 45.97983,-0.01062 c -0.002,0.01168 -0.004,0.02229 -0.005,0.03397 -0.0138,-3.060227 -3.35213,-6.081179 -6.15336,-6.018552 z"
         fill-opacity="0.07"
         id="path377"
         style="fill-rule:nonzero;stroke-width:1.06147" />
      <path
         d="M 351,137.31143 C 351,134.93142 349.06858,133 346.68858,133 H 325.31143 C 322.93142,133 321,134.93142 321,137.31143 v 21.37715 c 0,2.38 1.93142,4.31142 4.31143,4.31142 h 21.37715 c 2.38,0 4.31142,-1.93142 4.31142,-4.31142 z"
         fill="url(#a)"
         id="path391"
         style="fill:url(#linearGradient405);stroke-width:0.692265" />
      <path
         d="m 325.31143,133 c -2.22217,0 -4.31004,1.84835 -4.31004,4.19651 L 321,158.7308 c 0,2.2464 1.90304,4.2692 4.31143,4.2692 h 9.57887 c 10.53489,-0.76149 16.05501,-6.44637 16.1097,-16.8075 0.005,-0.10592 -0.008,-9.14482 -0.008,-9.14482 0,-1.52853 -1.51191,-4.03799 -4.01099,-4.03799 z"
         fill="url(#b)"
         id="path393"
         style="fill:url(#linearGradient407);stroke-width:0.692265" />
      <path
         d="m 325.31143,133 c -2.38624,0 -4.2692,2.0588 -4.30035,3.91961 l 29.98685,-0.007 c -10e-4,0.008 -0.003,0.0145 -0.003,0.0222 -0.009,-1.9958 -2.18617,-3.96599 -4.01306,-3.92515 z"
         fill-opacity="0.07"
         id="path397"
         style="fill-rule:nonzero;stroke-width:0.692265" />
      <path
         d="m 343.49887,191.80543 c 0,-1.82468 -1.48076,-3.30543 -3.30543,-3.30543 H 323.8043 c -1.82468,0 -3.30543,1.48075 -3.30543,3.30543 v 16.38914 c 0,1.82467 1.48075,3.30543 3.30543,3.30543 h 16.38914 c 1.82467,0 3.30543,-1.48076 3.30543,-3.30543 z"
         fill="url(#a)"
         id="path411"
         style="fill:url(#linearGradient425);stroke-width:0.530737" />
      <path
         d="m 323.8043,188.5 c -1.70367,0 -3.30437,1.41706 -3.30437,3.21732 l -0.001,16.50963 c 0,1.72224 1.45899,3.27305 3.30543,3.27305 h 7.3438 c 8.07675,-0.58381 12.30884,-4.94222 12.35077,-12.88576 0.004,-0.0812 -0.006,-7.01103 -0.006,-7.01103 0,-1.17186 -1.15913,-3.09578 -3.07509,-3.09578 z"
         fill="url(#b)"
         id="path413"
         style="fill:url(#linearGradient427);stroke-width:0.530737" />
      <path
         d="m 323.8043,188.5 c -1.82945,0 -3.27306,1.57841 -3.29694,3.00503 l 22.98992,-0.005 c -10e-4,0.006 -0.002,0.0112 -0.003,0.017 -0.007,-1.53011 -1.67606,-3.04059 -3.07668,-3.00927 z"
         fill-opacity="0.07"
         id="path417"
         style="fill-rule:nonzero;stroke-width:0.530737" />
      <path
         d="m 335.49926,238.65571 c 0,-1.19 -0.96571,-2.15571 -2.15571,-2.15571 h -10.68858 c -1.19,0 -2.15571,0.96571 -2.15571,2.15571 v 10.68858 c 0,1.19 0.96571,2.15571 2.15571,2.15571 h 10.68858 c 1.19,0 2.15571,-0.96571 2.15571,-2.15571 z"
         fill="url(#a)"
         id="path431"
         style="fill:url(#linearGradient445);stroke-width:0.346133" />
      <path
         d="m 322.65497,236.5 c -1.11108,0 -2.15502,0.92418 -2.15502,2.09826 l -6.9e-4,10.76714 c 0,1.1232 0.95152,2.1346 2.15571,2.1346 h 4.78944 c 5.26745,-0.38074 8.02751,-3.22319 8.05485,-8.40375 0.002,-0.053 -0.004,-4.57241 -0.004,-4.57241 0,-0.76426 -0.75595,-2.01899 -2.00549,-2.01899 z"
         fill="url(#b)"
         id="path433"
         style="fill:url(#linearGradient447);stroke-width:0.346133" />
      <path
         d="m 322.65497,236.5 c -1.19311,0 -2.13459,1.0294 -2.15017,1.9598 l 14.99342,-0.003 c -6.9e-4,0.004 -10e-4,0.007 -0.002,0.0111 -0.005,-0.9979 -1.09308,-1.98299 -2.00653,-1.96257 z"
         fill-opacity="0.07"
         id="path437"
         style="fill-rule:nonzero;stroke-width:0.346133" />
    </g>
    <g
       inkscape:groupmode="layer"
       id="layer6"
       inkscape:label="Pictogram"
       style="display:inline">
      <path
         d="m 143.7032,268 c 36.60624,-9.11796 53.04338,-30.23814 67.28373,-58.1451 37.80543,-10.9736 47.4868,-39.55252 53.01237,-70.72623 C 264.81082,218.73509 223.52155,262.23149 143.7032,268 Z"
         fill="url(#c)"
         id="path41"
         style="display:inline;enable-background:new;fill:url(#linearGradient491);stroke-width:5.16891" />
      <path
         d="M 63.972718,160.48145 H 166.12077 c 3.24608,0 5.85638,2.6103 5.85638,5.85638 0,3.24607 -2.6103,5.85637 -5.85638,5.85637 H 63.972718 c -3.246077,0 -5.856378,-2.6103 -5.856378,-5.85637 0,-3.24608 2.610301,-5.85638 5.856378,-5.85638 z m 176.032492,-8.9629 H 63.972718 c -3.246077,0 -5.856378,-2.6103 -5.856378,-5.85638 0,-3.24607 2.610301,-5.85637 5.856378,-5.85637 H 240.00521 c 3.24608,0 5.85638,2.6103 5.85638,5.85637 0,3.24608 -2.6103,5.85638 -5.85638,5.85638 z m 0,-20.67565 H 63.972718 c -3.246077,0 -5.856378,-2.6103 -5.856378,-5.85638 0,-3.24607 2.610301,-5.85637 5.856378,-5.85637 H 240.00521 c 3.24608,0 5.85638,2.6103 5.85638,5.85637 0,3.24608 -2.6103,5.85638 -5.85638,5.85638 z m 0,-20.67565 H 63.972718 c -3.246077,0 -5.856378,-2.6103 -5.856378,-5.85638 0,-3.24607 2.610301,-5.856375 5.856378,-5.856375 H 240.00521 c 3.24608,0 5.85638,2.610305 5.85638,5.856375 0,3.24608 -2.6103,5.85638 -5.85638,5.85638 z"
         fill="#80b6b8"
         id="path45"
         style="display:inline;enable-background:new;fill-rule:nonzero;stroke-width:5.16891" />
      <path
         d="m 342.29619,107 c 7.51736,-1.87244 10.89284,-6.20962 13.8172,-11.940511 7.76361,-2.253508 9.75175,-8.122393 10.88647,-14.524137 C 367.16651,96.883099 358.68746,105.8154 342.29619,107 Z"
         fill="url(#c)"
         id="path375"
         style="display:inline;enable-background:new;fill:url(#linearGradient389);stroke-width:1.06147" />
      <path
         d="m 325.92297,84.920298 h 20.97683 c 0.66661,0 1.20265,0.536043 1.20265,1.202649 0,0.666605 -0.53604,1.202649 -1.20265,1.202649 h -20.97683 c -0.6666,0 -1.20265,-0.536044 -1.20265,-1.202649 0,-0.666606 0.53605,-1.202649 1.20265,-1.202649 z m 36.14953,-1.840595 h -36.14953 c -0.6666,0 -1.20265,-0.536044 -1.20265,-1.202649 0,-0.666605 0.53605,-1.202649 1.20265,-1.202649 h 36.14953 c 0.6666,0 1.20265,0.536044 1.20265,1.202649 0,0.666605 -0.53605,1.202649 -1.20265,1.202649 z m 0,-4.245892 h -36.14953 c -0.6666,0 -1.20265,-0.536044 -1.20265,-1.202649 0,-0.666605 0.53605,-1.202649 1.20265,-1.202649 h 36.14953 c 0.6666,0 1.20265,0.536044 1.20265,1.202649 0,0.666605 -0.53605,1.202649 -1.20265,1.202649 z m 0,-4.245893 h -36.14953 c -0.6666,0 -1.20265,-0.536043 -1.20265,-1.202649 0,-0.666605 0.53605,-1.202649 1.20265,-1.202649 h 36.14953 c 0.6666,0 1.20265,0.536044 1.20265,1.202649 0,0.666606 -0.53605,1.202649 -1.20265,1.202649 z"
         fill="#80b6b8"
         id="path379"
         style="display:inline;enable-background:new;fill-rule:nonzero;stroke-width:1.06147" />
      <path
         d="m 334.8903,163 c 4.90262,-1.22115 7.10403,-4.04975 9.01122,-7.78729 5.06322,-1.46968 6.35984,-5.29721 7.09987,-9.47226 0.10868,10.66157 -5.42113,16.48698 -16.11109,17.25955 z"
         fill="url(#c)"
         id="path395"
         style="display:inline;enable-background:new;fill:url(#linearGradient409);stroke-width:0.692265" />
      <path
         d="m 324.21211,148.6002 h 13.68054 c 0.43475,0 0.78434,0.34959 0.78434,0.78433 0,0.43474 -0.34959,0.78434 -0.78434,0.78434 h -13.68054 c -0.43474,0 -0.78433,-0.3496 -0.78433,-0.78434 0,-0.43474 0.34959,-0.78433 0.78433,-0.78433 z m 23.57578,-1.20039 h -23.57578 c -0.43474,0 -0.78433,-0.3496 -0.78433,-0.78434 0,-0.43474 0.34959,-0.78433 0.78433,-0.78433 h 23.57578 c 0.43474,0 0.78434,0.34959 0.78434,0.78433 0,0.43474 -0.3496,0.78434 -0.78434,0.78434 z m 0,-2.76906 h -23.57578 c -0.43474,0 -0.78433,-0.3496 -0.78433,-0.78434 0,-0.43474 0.34959,-0.78433 0.78433,-0.78433 h 23.57578 c 0.43474,0 0.78434,0.34959 0.78434,0.78433 0,0.43474 -0.3496,0.78434 -0.78434,0.78434 z m 0,-2.76906 h -23.57578 c -0.43474,0 -0.78433,-0.3496 -0.78433,-0.78434 0,-0.43474 0.34959,-0.78434 0.78433,-0.78434 h 23.57578 c 0.43474,0 0.78434,0.3496 0.78434,0.78434 0,0.43474 -0.3496,0.78434 -0.78434,0.78434 z"
         fill="#80b6b8"
         id="path399"
         style="display:inline;enable-background:new;fill-rule:nonzero;stroke-width:0.692265" />
      <path
         d="m 331.1481,211.5 c 3.75867,-0.93622 5.44642,-3.10481 6.90859,-5.97026 3.88181,-1.12675 4.87588,-4.06119 5.44324,-7.26207 0.0833,8.17388 -4.1562,12.64003 -12.35183,13.23233 z"
         fill="url(#c)"
         id="path415"
         style="display:inline;enable-background:new;fill:url(#linearGradient429);stroke-width:0.530737" />
      <path
         d="m 322.96149,200.46015 h 10.48841 c 0.3333,0 0.60133,0.26802 0.60133,0.60132 0,0.3333 -0.26803,0.60133 -0.60133,0.60133 h -10.48841 c -0.33331,0 -0.60133,-0.26803 -0.60133,-0.60133 0,-0.3333 0.26802,-0.60132 0.60133,-0.60132 z m 18.07476,-0.9203 h -18.07476 c -0.33331,0 -0.60133,-0.26802 -0.60133,-0.60133 0,-0.3333 0.26802,-0.60132 0.60133,-0.60132 h 18.07476 c 0.3333,0 0.60132,0.26802 0.60132,0.60132 0,0.33331 -0.26802,0.60133 -0.60132,0.60133 z m 0,-2.12295 h -18.07476 c -0.33331,0 -0.60133,-0.26802 -0.60133,-0.60132 0,-0.3333 0.26802,-0.60133 0.60133,-0.60133 h 18.07476 c 0.3333,0 0.60132,0.26803 0.60132,0.60133 0,0.3333 -0.26802,0.60132 -0.60132,0.60132 z m 0,-2.12294 h -18.07476 c -0.33331,0 -0.60133,-0.26803 -0.60133,-0.60133 0,-0.3333 0.26802,-0.60132 0.60133,-0.60132 h 18.07476 c 0.3333,0 0.60132,0.26802 0.60132,0.60132 0,0.3333 -0.26802,0.60133 -0.60132,0.60133 z"
         fill="#80b6b8"
         id="path419"
         style="display:inline;enable-background:new;fill-rule:nonzero;stroke-width:0.530737" />
      <path
         d="m 327.44441,251.5 c 2.45131,-0.61058 3.55201,-2.02487 4.50561,-3.89364 2.53161,-0.73484 3.17992,-2.64861 3.54993,-4.73614 0.0543,5.33079 -2.71056,8.2435 -8.05554,8.62978 z"
         fill="url(#c)"
         id="path435"
         style="display:inline;enable-background:new;fill:url(#linearGradient449);stroke-width:0.346133" />
      <path
         d="m 322.10532,244.3001 h 6.84027 c 0.21737,0 0.39217,0.1748 0.39217,0.39217 0,0.21737 -0.1748,0.39216 -0.39217,0.39216 h -6.84027 c -0.21738,0 -0.39217,-0.17479 -0.39217,-0.39216 0,-0.21737 0.17479,-0.39217 0.39217,-0.39217 z m 11.78789,-0.6002 h -11.78789 c -0.21738,0 -0.39217,-0.17479 -0.39217,-0.39216 0,-0.21738 0.17479,-0.39217 0.39217,-0.39217 h 11.78789 c 0.21737,0 0.39216,0.17479 0.39216,0.39217 0,0.21737 -0.17479,0.39216 -0.39216,0.39216 z m 0,-1.38453 h -11.78789 c -0.21738,0 -0.39217,-0.17479 -0.39217,-0.39216 0,-0.21738 0.17479,-0.39217 0.39217,-0.39217 h 11.78789 c 0.21737,0 0.39216,0.17479 0.39216,0.39217 0,0.21737 -0.17479,0.39216 -0.39216,0.39216 z m 0,-1.38453 h -11.78789 c -0.21738,0 -0.39217,-0.17479 -0.39217,-0.39216 0,-0.21738 0.17479,-0.39217 0.39217,-0.39217 h 11.78789 c 0.21737,0 0.39216,0.17479 0.39216,0.39217 0,0.21737 -0.17479,0.39216 -0.39216,0.39216 z"
         fill="#80b6b8"
         id="path439"
         style="display:inline;enable-background:new;fill-rule:nonzero;stroke-width:0.346133" />
    </g>
  </g>
</svg>
