<?xml version="1.0" encoding="UTF-8" standalone="no"?>
<svg
   inkscape:export-ydpi="90.000000"
   inkscape:export-xdpi="90.000000"
   width="400"
   height="300"
   id="svg11300"
   sodipodi:version="0.32"
   inkscape:version="1.2.2 (b0a8486541, 2022-12-01)"
   sodipodi:docname="org.gnome.SoundRecorder.svg"
   inkscape:output_extension="org.inkscape.output.svg.inkscape"
   version="1.0"
   style="display:inline;enable-background:new"
   inkscape:export-filename="/home/sam/suru-template.png"
   xmlns:inkscape="http://www.inkscape.org/namespaces/inkscape"
   xmlns:sodipodi="http://sodipodi.sourceforge.net/DTD/sodipodi-0.dtd"
   xmlns:xlink="http://www.w3.org/1999/xlink"
   xmlns="http://www.w3.org/2000/svg"
   xmlns:svg="http://www.w3.org/2000/svg"
   xmlns:rdf="http://www.w3.org/1999/02/22-rdf-syntax-ns#"
   xmlns:cc="http://creativecommons.org/ns#"
   xmlns:dc="http://purl.org/dc/elements/1.1/">
  <title
     id="title3004">Suru Icon Theme Template</title>
  <sodipodi:namedview
     stroke="#ef2929"
     fill="#f57900"
     id="base"
     pagecolor="#ffffff"
     bordercolor="#000000"
     borderopacity="0.25490196"
     inkscape:pageopacity="0"
     inkscape:pageshadow="2"
     inkscape:zoom="2"
     inkscape:cx="229"
     inkscape:cy="79"
     inkscape:current-layer="layer6"
     showgrid="false"
     inkscape:grid-bbox="true"
     inkscape:document-units="px"
     inkscape:showpageshadow="false"
     inkscape:window-width="1920"
     inkscape:window-height="1020"
     inkscape:window-x="0"
     inkscape:window-y="32"
     width="400px"
     height="300px"
     inkscape:snap-nodes="true"
     inkscape:snap-bbox="true"
     gridtolerance="10000"
     inkscape:object-nodes="true"
     inkscape:snap-grids="true"
     showguides="true"
     inkscape:guide-bbox="true"
     inkscape:window-maximized="1"
     inkscape:bbox-paths="true"
     inkscape:snap-bbox-midpoints="true"
     inkscape:snap-global="true"
     inkscape:object-paths="true"
     inkscape:snap-intersection-paths="true"
     inkscape:snap-smooth-nodes="true"
     inkscape:pagecheckerboard="false"
     showborder="false"
     inkscape:document-rotation="0"
     inkscape:deskcolor="#d1d1d1">
    <inkscape:grid
       spacingy="1"
       spacingx="1"
       id="grid5883"
       type="xygrid"
       enabled="true"
       visible="true"
       empspacing="4"
       snapvisiblegridlinesonly="true"
       originx="0"
       originy="0" />
    <inkscape:grid
       type="xygrid"
       id="grid11592"
       empspacing="2"
       visible="true"
       enabled="false"
       spacingx="0.5"
       spacingy="0.5"
       color="#ff0000"
       opacity="0.1254902"
       empcolor="#ff0000"
       empopacity="0.25098039"
       snapvisiblegridlinesonly="true"
       originx="0"
       originy="0" />
  </sodipodi:namedview>
  <defs
     id="defs3">
    <linearGradient
       id="a"
       x2="1"
       gradientTransform="matrix(8.197,-43.279,43.279,8.197,167.27,72.958)"
       gradientUnits="userSpaceOnUse">
      <stop
         stop-color="#9d0404"
         offset="0"
         id="stop22" />
      <stop
         stop-color="#ff80d6"
         offset="1"
         id="stop24" />
    </linearGradient>
    <linearGradient
       inkscape:collect="always"
       xlink:href="#a"
       id="linearGradient274"
       gradientUnits="userSpaceOnUse"
       gradientTransform="matrix(8.2998461,-43.822013,43.822013,8.2998461,489.06758,133.57227)"
       x2="1" />
    <linearGradient
       inkscape:collect="always"
       xlink:href="#a"
       id="linearGradient284"
       gradientUnits="userSpaceOnUse"
       gradientTransform="matrix(5.412943,-28.579573,28.579573,5.412943,430.60929,180.32974)"
       x2="1" />
    <linearGradient
       inkscape:collect="always"
       xlink:href="#a"
       id="linearGradient294"
       gradientUnits="userSpaceOnUse"
       gradientTransform="matrix(4.1499229,-21.911006,21.911006,4.1499229,404.53379,224.78613)"
       x2="1" />
    <linearGradient
       inkscape:collect="always"
       xlink:href="#a"
       id="linearGradient304"
       gradientUnits="userSpaceOnUse"
       gradientTransform="matrix(2.7064714,-14.289786,14.289786,2.7064714,375.30464,260.16487)"
       x2="1" />
    <linearGradient
       inkscape:collect="always"
       xlink:href="#a"
       id="linearGradient315"
       gradientUnits="userSpaceOnUse"
       gradientTransform="matrix(40.416641,-213.39414,213.39414,40.416641,858.41602,397.39537)"
       x2="1" />
  </defs>
  <metadata
     id="metadata4">
    <rdf:RDF>
      <cc:Work
         rdf:about="">
        <dc:format>image/svg+xml</dc:format>
        <dc:type
           rdf:resource="http://purl.org/dc/dcmitype/StillImage" />
        <dc:creator>
          <cc:Agent>
            <dc:title>Sam Hewitt</dc:title>
          </cc:Agent>
        </dc:creator>
        <dc:source />
        <cc:license
           rdf:resource="http://creativecommons.org/licenses/by-sa/4.0/" />
        <dc:title>Suru Icon Theme Template</dc:title>
        <dc:subject>
          <rdf:Bag />
        </dc:subject>
        <dc:date />
        <dc:rights>
          <cc:Agent>
            <dc:title />
          </cc:Agent>
        </dc:rights>
        <dc:publisher>
          <cc:Agent>
            <dc:title />
          </cc:Agent>
        </dc:publisher>
        <dc:identifier />
        <dc:relation />
        <dc:language />
        <dc:coverage />
        <dc:description />
        <dc:contributor>
          <cc:Agent>
            <dc:title />
          </cc:Agent>
        </dc:contributor>
      </cc:Work>
      <cc:Work
         rdf:about="">
        <dc:format>image/svg+xml</dc:format>
        <dc:type
           rdf:resource="http://purl.org/dc/dcmitype/StillImage" />
      </cc:Work>
      <cc:License
         rdf:about="http://creativecommons.org/licenses/by-sa/4.0/">
        <cc:permits
           rdf:resource="http://creativecommons.org/ns#Reproduction" />
        <cc:permits
           rdf:resource="http://creativecommons.org/ns#Distribution" />
        <cc:requires
           rdf:resource="http://creativecommons.org/ns#Notice" />
        <cc:requires
           rdf:resource="http://creativecommons.org/ns#Attribution" />
        <cc:permits
           rdf:resource="http://creativecommons.org/ns#DerivativeWorks" />
        <cc:requires
           rdf:resource="http://creativecommons.org/ns#ShareAlike" />
      </cc:License>
    </rdf:RDF>
  </metadata>
  <g
     style="display:inline"
     inkscape:groupmode="layer"
     inkscape:label="Icon"
     id="layer1">
    <g
       style="display:none"
       inkscape:label="Baseplate"
       id="layer7"
       inkscape:groupmode="layer">
      <text
         y="-8.2548828"
         xml:space="preserve"
         x="19.006836"
         style="font-style:normal;font-variant:normal;font-weight:normal;font-stretch:normal;line-height:0%;font-family:'DejaVu Sans';-inkscape-font-specification:'DejaVu Sans';display:inline;fill:#000000;fill-opacity:1;stroke:none;enable-background:new"
         inkscape:label="context"
         id="context"><tspan
           style="font-style:normal;font-variant:normal;font-weight:normal;font-stretch:normal;font-size:18px;line-height:1.25;font-family:'DejaVu Sans';-inkscape-font-specification:'DejaVu Sans'"
           y="-8.2548828"
           x="19.006836"
           sodipodi:role="line"
           id="tspan3933">apps</tspan></text>
      <text
         y="-8.2548828"
         xml:space="preserve"
         x="146.48828"
         style="font-style:normal;font-variant:normal;font-weight:bold;font-stretch:normal;line-height:0%;font-family:'DejaVu Sans';-inkscape-font-specification:'DejaVu Sans Bold';text-align:start;writing-mode:lr-tb;text-anchor:start;display:inline;fill:#000000;fill-opacity:1;stroke:none;enable-background:new"
         inkscape:label="icon-name"
         id="icon-name"><tspan
           style="font-style:normal;font-variant:normal;font-weight:bold;font-stretch:normal;font-size:18px;line-height:1.25;font-family:'DejaVu Sans';-inkscape-font-specification:'DejaVu Sans Bold'"
           y="-8.2548828"
           x="146.48828"
           sodipodi:role="line"
           id="tspan924">org.gnome.SoundRecorder</tspan></text>
      <rect
         style="display:inline;overflow:visible;visibility:visible;fill:#cdcdcd;fill-opacity:1;fill-rule:nonzero;stroke:none;stroke-width:2;marker:none;enable-background:accumulate"
         id="rect16x16"
         width="16"
         height="16"
         x="320"
         y="236"
         inkscape:label="16x16" />
      <rect
         style="display:inline;overflow:visible;visibility:visible;fill:#cdcdcd;fill-opacity:1;fill-rule:nonzero;stroke:none;stroke-width:2;marker:none;enable-background:accumulate"
         id="rect24x24"
         width="24"
         height="24"
         x="320"
         y="188"
         inkscape:label="24x24" />
      <rect
         style="display:inline;overflow:visible;visibility:visible;fill:#cdcdcd;fill-opacity:1;fill-rule:nonzero;stroke:none;stroke-width:2;marker:none;enable-background:accumulate"
         id="rect32x32"
         width="32"
         height="32"
         x="320"
         y="132"
         inkscape:label="32x32" />
      <rect
         inkscape:label="48x48"
         y="60"
         x="320"
         height="48"
         width="48"
         id="rect48x48"
         style="display:inline;overflow:visible;visibility:visible;fill:#cdcdcd;fill-opacity:1;fill-rule:nonzero;stroke:none;stroke-width:2;marker:none;enable-background:accumulate" />
      <rect
         style="display:inline;overflow:visible;visibility:visible;fill:#cdcdcd;fill-opacity:1;fill-rule:nonzero;stroke:none;stroke-width:2;marker:none;enable-background:accumulate"
         id="rect256x256"
         width="256"
         height="256"
         x="24"
         y="28"
         inkscape:label="256x256" />
    </g>
    <g
       inkscape:groupmode="layer"
       id="layer2"
       inkscape:label="Background"
       style="display:inline">
      <circle
         cx="152"
         cy="156"
         r="112"
         fill="url(#a)"
         id="circle27"
         style="fill:url(#linearGradient315);stroke-width:4.93066" />
      <circle
         cx="344"
         cy="84"
         r="23"
         fill="url(#a)"
         id="circle266"
         style="fill:url(#linearGradient274);stroke-width:1.01255" />
      <circle
         cx="336"
         cy="148"
         r="15"
         fill="url(#a)"
         id="circle276"
         style="fill:url(#linearGradient284);stroke-width:0.660357" />
      <circle
         cx="332"
         cy="200"
         r="11.5"
         fill="url(#a)"
         id="circle286"
         style="fill:url(#linearGradient294);stroke-width:0.506273" />
      <circle
         cx="328"
         cy="244"
         r="7.5"
         fill="url(#a)"
         id="circle296"
         style="fill:url(#linearGradient304);stroke-width:0.330178" />
    </g>
    <g
       inkscape:groupmode="layer"
       id="layer6"
       inkscape:label="Pictogram"
       style="display:inline">
      <path
         d="m 152,177.80832 c 5.99569,0 11.13344,-2.13498 15.40339,-6.40493 4.26995,-4.26995 6.40493,-9.4077 6.40493,-15.40339 v -34.8943 c 0,-5.99568 -2.13498,-11.1285 -6.40493,-15.40339 -4.26995,-4.26995 -9.4077,-6.404929 -15.40339,-6.404929 -5.99569,0 -11.13344,2.134979 -15.40339,6.404929 -4.26995,4.26996 -6.40493,9.40771 -6.40493,15.40339 V 156 c 0,5.99569 2.13498,11.13344 6.40493,15.40339 4.26995,4.26995 9.4077,6.40493 15.40339,6.40493 z"
         id="path29"
         style="display:inline;enable-background:new;fill:#ffffff;fill-opacity:0.84;fill-rule:nonzero;stroke-width:4.93066" />
      <path
         d="m 189.96117,144.21079 c -0.86287,-0.86287 -1.88844,-1.29677 -3.06687,-1.29677 -1.18336,0 -2.20401,0.4339 -3.06687,1.29677 -0.86287,0.86286 -1.29677,1.88351 -1.29677,3.06687 V 156 c 0,8.40678 -2.98798,15.59569 -8.95901,21.57165 -5.97596,5.97103 -13.16487,8.95901 -21.57165,8.95901 -8.40678,0 -15.59569,-2.98798 -21.57165,-8.95901 -5.97103,-5.97596 -8.95901,-13.16487 -8.95901,-21.57165 v -8.72234 c 0,-1.18336 -0.4339,-2.20401 -1.29677,-3.06687 -0.86286,-0.86287 -1.88351,-1.29677 -3.06687,-1.29677 -1.18336,0 -2.204,0.4339 -3.06687,1.29677 -0.86287,0.86286 -1.29676,1.88351 -1.29676,3.06687 V 156 c 0,10.04376 3.35285,18.77596 10.05362,26.20647 6.70077,7.42558 14.98428,11.68567 24.84067,12.77535 v 8.99846 h -17.44468 c -1.18336,0 -2.20401,0.42896 -3.06687,1.29183 -0.86287,0.86287 -1.29677,1.88844 -1.29677,3.06687 0,1.18336 0.4339,2.20401 1.29677,3.06687 0.86286,0.86287 1.88351,1.29677 3.06687,1.29677 h 43.61664 c 1.17843,0 2.20401,-0.4339 3.06687,-1.29677 0.86287,-0.86286 1.29677,-1.88351 1.29677,-3.06687 0,-1.17843 -0.4339,-2.204 -1.29677,-3.06687 -0.86286,-0.86287 -1.88844,-1.29183 -3.06687,-1.29183 h -17.44468 v -8.99846 c 9.85639,-1.08968 18.13497,-5.34977 24.84067,-12.77535 6.70077,-7.43051 10.05362,-16.16271 10.05362,-26.20647 v -8.72234 c 0,-1.18336 -0.43389,-2.20401 -1.29676,-3.06687 z"
         id="path31"
         style="display:inline;enable-background:new;fill:#ffffff;fill-opacity:0.84;fill-rule:nonzero;stroke-width:4.93066" />
      <path
         d="m 344,88.478495 c 1.23126,0 2.28633,-0.438433 3.1632,-1.315299 0.87686,-0.876865 1.3153,-1.931939 1.3153,-3.163196 v -7.165794 c 0,-1.231256 -0.43844,-2.285318 -1.3153,-3.163196 -0.87687,-0.876865 -1.93194,-1.315298 -3.1632,-1.315298 -1.23125,0 -2.28633,0.438433 -3.16319,1.315298 -0.87687,0.876866 -1.3153,1.93194 -1.3153,3.163196 V 84 c 0,1.231257 0.43843,2.286331 1.3153,3.163196 0.87686,0.876866 1.93194,1.315299 3.16319,1.315299 z"
         id="path268"
         style="display:inline;enable-background:new;fill:#ffffff;fill-opacity:0.84;fill-rule:nonzero;stroke-width:1.01255" />
      <path
         d="m 351.7956,81.579001 c -0.17719,-0.177196 -0.3878,-0.2663 -0.6298,-0.2663 -0.24301,0 -0.45261,0.0891 -0.62981,0.2663 -0.17719,0.177195 -0.2663,0.386793 -0.2663,0.629804 V 84 c 0,1.726392 -0.6136,3.202686 -1.83979,4.429892 -1.22721,1.226195 -2.7035,1.839798 -4.4299,1.839798 -1.72639,0 -3.20268,-0.613603 -4.42989,-1.839798 -1.22619,-1.227206 -1.8398,-2.7035 -1.8398,-4.429892 v -1.791195 c 0,-0.243011 -0.0891,-0.452609 -0.2663,-0.629804 -0.17719,-0.177196 -0.38679,-0.2663 -0.6298,-0.2663 -0.24301,0 -0.45261,0.0891 -0.6298,0.2663 -0.1772,0.177195 -0.2663,0.386793 -0.2663,0.629804 V 84 c 0,2.062558 0.68853,3.855778 2.06458,5.381686 1.37605,1.524896 3.07713,2.399736 5.10121,2.623509 v 1.847898 h -3.58239 c -0.24301,0 -0.45261,0.08809 -0.62981,0.265287 -0.17719,0.177196 -0.2663,0.387806 -0.2663,0.629804 0,0.243012 0.0891,0.452609 0.2663,0.629805 0.1772,0.177195 0.3868,0.266299 0.62981,0.266299 h 8.95699 c 0.242,0 0.45261,-0.0891 0.6298,-0.266299 0.1772,-0.177196 0.2663,-0.386793 0.2663,-0.629805 0,-0.241998 -0.0891,-0.452608 -0.2663,-0.629804 -0.17719,-0.177195 -0.3878,-0.265287 -0.6298,-0.265287 h -3.58239 v -1.847898 c 2.02408,-0.223773 3.72414,-1.098613 5.10121,-2.623509 C 351.37337,87.855778 352.0619,86.062558 352.0619,84 v -1.791195 c 0,-0.243011 -0.0891,-0.452609 -0.2663,-0.629804 z"
         id="path270"
         style="display:inline;enable-background:new;fill:#ffffff;fill-opacity:0.84;fill-rule:nonzero;stroke-width:1.01255" />
      <path
         d="m 336,150.92076 c 0.80299,0 1.49108,-0.28594 2.06295,-0.85781 0.57187,-0.57187 0.85781,-1.25996 0.85781,-2.06295 v -4.67335 c 0,-0.80299 -0.28594,-1.49042 -0.85781,-2.06295 -0.57187,-0.57187 -1.25996,-0.8578 -2.06295,-0.8578 -0.803,0 -1.49109,0.28593 -2.06296,0.8578 -0.57186,0.57187 -0.8578,1.25996 -0.8578,2.06295 V 148 c 0,0.80299 0.28594,1.49108 0.8578,2.06295 0.57187,0.57187 1.25996,0.85781 2.06296,0.85781 z"
         id="path278"
         style="display:inline;enable-background:new;fill:#ffffff;fill-opacity:0.84;fill-rule:nonzero;stroke-width:0.660357" />
      <path
         d="m 341.08408,146.42109 c -0.11556,-0.11557 -0.25291,-0.17368 -0.41074,-0.17368 -0.15848,0 -0.29518,0.0581 -0.41074,0.17368 -0.11556,0.11556 -0.17367,0.25225 -0.17367,0.41074 V 148 c 0,1.12591 -0.40018,2.08871 -1.19987,2.88906 -0.80035,0.79969 -1.76315,1.19987 -2.88906,1.19987 -1.12591,0 -2.08871,-0.40018 -2.88906,-1.19987 -0.79969,-0.80035 -1.19987,-1.76315 -1.19987,-2.88906 v -1.16817 c 0,-0.15849 -0.0581,-0.29518 -0.17367,-0.41074 -0.11557,-0.11557 -0.25226,-0.17368 -0.41075,-0.17368 -0.15848,0 -0.29517,0.0581 -0.41074,0.17368 -0.11556,0.11556 -0.17367,0.25225 -0.17367,0.41074 V 148 c 0,1.34514 0.44904,2.51464 1.34647,3.50979 0.89742,0.9945 2.00682,1.56505 3.32687,1.71099 v 1.20515 h -2.33634 c -0.15848,0 -0.29518,0.0575 -0.41074,0.17301 -0.11556,0.11556 -0.17367,0.25292 -0.17367,0.41074 0,0.15849 0.0581,0.29518 0.17367,0.41075 0.11556,0.11556 0.25226,0.17367 0.41074,0.17367 h 5.84152 c 0.15782,0 0.29517,-0.0581 0.41074,-0.17367 0.11556,-0.11557 0.17367,-0.25226 0.17367,-0.41075 0,-0.15782 -0.0581,-0.29518 -0.17367,-0.41074 -0.11557,-0.11556 -0.25292,-0.17301 -0.41074,-0.17301 h -2.33635 v -1.20515 c 1.32006,-0.14594 2.4288,-0.71649 3.32688,-1.71099 0.89742,-0.99515 1.34647,-2.16465 1.34647,-3.50979 v -1.16817 c 0,-0.15849 -0.0581,-0.29518 -0.17368,-0.41074 z"
         id="path280"
         style="display:inline;enable-background:new;fill:#ffffff;fill-opacity:0.84;fill-rule:nonzero;stroke-width:0.660357" />
      <path
         d="m 332,202.23925 c 0.61563,0 1.14317,-0.21922 1.5816,-0.65765 0.43843,-0.43843 0.65765,-0.96597 0.65765,-1.5816 v -3.5829 c 0,-0.61562 -0.21922,-1.14265 -0.65765,-1.58159 -0.43843,-0.43844 -0.96597,-0.65765 -1.5816,-0.65765 -0.61563,0 -1.14316,0.21921 -1.5816,0.65765 -0.43843,0.43843 -0.65765,0.96597 -0.65765,1.58159 V 200 c 0,0.61563 0.21922,1.14317 0.65765,1.5816 0.43844,0.43843 0.96597,0.65765 1.5816,0.65765 z"
         id="path288"
         style="display:inline;enable-background:new;fill:#ffffff;fill-opacity:0.84;fill-rule:nonzero;stroke-width:0.506273" />
      <path
         d="m 335.8978,198.7895 c -0.0886,-0.0886 -0.1939,-0.13315 -0.3149,-0.13315 -0.12151,0 -0.22631,0.0445 -0.3149,0.13315 -0.0886,0.0886 -0.13315,0.1934 -0.13315,0.3149 V 200 c 0,0.8632 -0.30681,1.60134 -0.9199,2.21495 -0.61361,0.61309 -1.35175,0.9199 -2.21495,0.9199 -0.86319,0 -1.60134,-0.30681 -2.21494,-0.9199 -0.6131,-0.61361 -0.9199,-1.35175 -0.9199,-2.21495 v -0.8956 c 0,-0.1215 -0.0446,-0.2263 -0.13315,-0.3149 -0.0886,-0.0886 -0.1934,-0.13315 -0.31491,-0.13315 -0.1215,0 -0.2263,0.0445 -0.3149,0.13315 -0.0886,0.0886 -0.13315,0.1934 -0.13315,0.3149 V 200 c 0,1.03128 0.34427,1.92789 1.03229,2.69084 0.68803,0.76245 1.53857,1.19987 2.55061,1.31176 v 0.92395 h -1.7912 c -0.1215,0 -0.2263,0.044 -0.3149,0.13264 -0.0886,0.0886 -0.13315,0.1939 -0.13315,0.3149 0,0.12151 0.0446,0.22631 0.13315,0.31491 0.0886,0.0886 0.1934,0.13314 0.3149,0.13314 h 4.4785 c 0.121,0 0.2263,-0.0445 0.3149,-0.13314 0.0886,-0.0886 0.13315,-0.1934 0.13315,-0.31491 0,-0.121 -0.0446,-0.2263 -0.13315,-0.3149 -0.0886,-0.0886 -0.1939,-0.13264 -0.3149,-0.13264 h -1.7912 v -0.92395 c 1.01204,-0.11189 1.86208,-0.54931 2.55061,-1.31176 0.68802,-0.76295 1.03229,-1.65956 1.03229,-2.69084 v -0.8956 c 0,-0.1215 -0.0446,-0.2263 -0.13315,-0.3149 z"
         id="path290"
         style="display:inline;enable-background:new;fill:#ffffff;fill-opacity:0.84;fill-rule:nonzero;stroke-width:0.506273" />
      <path
         d="m 328,245.46038 c 0.4015,0 0.74554,-0.14297 1.03148,-0.4289 0.28593,-0.28594 0.4289,-0.62998 0.4289,-1.03148 v -2.33667 c 0,-0.4015 -0.14297,-0.74522 -0.4289,-1.03148 -0.28594,-0.28593 -0.62998,-0.4289 -1.03148,-0.4289 -0.4015,0 -0.74554,0.14297 -1.03148,0.4289 -0.28593,0.28593 -0.4289,0.62998 -0.4289,1.03148 V 244 c 0,0.4015 0.14297,0.74554 0.4289,1.03148 0.28594,0.28593 0.62998,0.4289 1.03148,0.4289 z"
         id="path298"
         style="display:inline;enable-background:new;fill:#ffffff;fill-opacity:0.84;fill-rule:nonzero;stroke-width:0.330178" />
      <path
         d="m 330.54204,243.21054 c -0.0578,-0.0578 -0.12646,-0.0868 -0.20537,-0.0868 -0.0792,0 -0.14759,0.0291 -0.20537,0.0868 -0.0578,0.0578 -0.0868,0.12613 -0.0868,0.20537 V 244 c 0,0.56295 -0.20009,1.04435 -0.59993,1.44453 -0.40018,0.39984 -0.88158,0.59993 -1.44453,0.59993 -0.56296,0 -1.04435,-0.20009 -1.44453,-0.59993 -0.39985,-0.40018 -0.59994,-0.88158 -0.59994,-1.44453 v -0.58409 c 0,-0.0792 -0.029,-0.14759 -0.0868,-0.20537 -0.0578,-0.0578 -0.12613,-0.0868 -0.20537,-0.0868 -0.0793,0 -0.14759,0.0291 -0.20537,0.0868 -0.0578,0.0578 -0.0868,0.12613 -0.0868,0.20537 V 244 c 0,0.67257 0.22452,1.25732 0.67323,1.7549 0.44872,0.49725 1.00341,0.78252 1.66344,0.85549 v 0.60257 h -1.16817 c -0.0792,0 -0.14759,0.0287 -0.20537,0.0865 -0.0578,0.0578 -0.0868,0.12646 -0.0868,0.20537 0,0.0792 0.0291,0.14759 0.0868,0.20537 0.0578,0.0578 0.12613,0.0868 0.20537,0.0868 h 2.92076 c 0.0789,0 0.14759,-0.0291 0.20537,-0.0868 0.0578,-0.0578 0.0868,-0.12613 0.0868,-0.20537 0,-0.0789 -0.0291,-0.14759 -0.0868,-0.20537 -0.0578,-0.0578 -0.12646,-0.0865 -0.20537,-0.0865 h -1.16817 v -0.60257 c 0.66002,-0.073 1.21439,-0.35824 1.66343,-0.85549 0.44872,-0.49758 0.67324,-1.08233 0.67324,-1.7549 v -0.58409 c 0,-0.0792 -0.0291,-0.14759 -0.0868,-0.20537 z"
         id="path300"
         style="display:inline;enable-background:new;fill:#ffffff;fill-opacity:0.84;fill-rule:nonzero;stroke-width:0.330178" />
    </g>
  </g>
</svg>
