<?xml version="1.0" encoding="UTF-8" standalone="no"?>
<svg
   inkscape:export-ydpi="96"
   inkscape:export-xdpi="96"
   width="400"
   height="300"
   id="svg11300"
   sodipodi:version="0.32"
   inkscape:version="1.1.2 (0a00cf5339, 2022-02-04)"
   sodipodi:docname="packages-app.svg"
   inkscape:output_extension="org.inkscape.output.svg.inkscape"
   version="1.0"
   style="display:inline;enable-background:new"
   inkscape:export-filename="C:\Users\sblav\Pictures\preferences-system-network.png"
   xmlns:inkscape="http://www.inkscape.org/namespaces/inkscape"
   xmlns:sodipodi="http://sodipodi.sourceforge.net/DTD/sodipodi-0.dtd"
   xmlns:xlink="http://www.w3.org/1999/xlink"
   xmlns="http://www.w3.org/2000/svg"
   xmlns:svg="http://www.w3.org/2000/svg"
   xmlns:rdf="http://www.w3.org/1999/02/22-rdf-syntax-ns#"
   xmlns:cc="http://creativecommons.org/ns#"
   xmlns:dc="http://purl.org/dc/elements/1.1/">
  <title
     id="title3004">Yaru Icon Theme Template</title>
  <sodipodi:namedview
     stroke="#ef2929"
     fill="#f57900"
     id="base"
     pagecolor="#ffffff"
     bordercolor="#000000"
     borderopacity="0.25490196"
     inkscape:pageopacity="0"
     inkscape:pageshadow="2"
     inkscape:zoom="2"
     inkscape:cx="158"
     inkscape:cy="148"
     inkscape:current-layer="layer6"
     showgrid="false"
     inkscape:grid-bbox="true"
     inkscape:document-units="px"
     inkscape:showpageshadow="false"
     inkscape:window-width="1904"
     inkscape:window-height="1011"
     inkscape:window-x="0"
     inkscape:window-y="32"
     width="400px"
     height="300px"
     inkscape:snap-nodes="true"
     inkscape:snap-bbox="true"
     gridtolerance="10000"
     inkscape:object-nodes="true"
     inkscape:snap-grids="true"
     showguides="false"
     inkscape:guide-bbox="true"
     inkscape:window-maximized="1"
     inkscape:bbox-paths="true"
     inkscape:snap-bbox-midpoints="true"
     inkscape:snap-global="true"
     inkscape:object-paths="true"
     inkscape:snap-intersection-paths="true"
     inkscape:snap-smooth-nodes="true"
     inkscape:pagecheckerboard="false"
     showborder="false"
     inkscape:document-rotation="0"
     inkscape:bbox-nodes="true"
     inkscape:snap-bbox-edge-midpoints="true" />
  <defs
     id="defs3">
    <linearGradient
       inkscape:collect="always"
       id="linearGradient927">
      <stop
         style="stop-color:#ffffff;stop-opacity:1;"
         offset="0"
         id="stop923" />
      <stop
         id="stop933"
         offset="0.125"
         style="stop-color:#ffffff;stop-opacity:0.09803922" />
      <stop
         id="stop931"
         offset="0.92500001"
         style="stop-color:#ffffff;stop-opacity:0.09803922" />
      <stop
         style="stop-color:#ffffff;stop-opacity:0.49803922"
         offset="1"
         id="stop925" />
    </linearGradient>
    <linearGradient
       inkscape:collect="always"
       xlink:href="#linearGradient927"
       id="linearGradient8590"
       gradientUnits="userSpaceOnUse"
       gradientTransform="matrix(0.23913043,0,0,0.23913032,321.04348,61.043494)"
       x1="96"
       y1="4.0000062"
       x2="96"
       y2="188" />
    <linearGradient
       inkscape:collect="always"
       xlink:href="#linearGradient927"
       id="linearGradient8590-3"
       gradientUnits="userSpaceOnUse"
       gradientTransform="matrix(0.15217394,0,0,0.15217387,321.3913,133.39129)"
       x1="96"
       y1="4.0000062"
       x2="96"
       y2="188" />
    <linearGradient
       inkscape:collect="always"
       xlink:href="#linearGradient927"
       id="linearGradient8590-3-3"
       gradientUnits="userSpaceOnUse"
       gradientTransform="matrix(0.11956515,0,0,0.11956513,320.52176,188.52174)"
       x1="95.999878"
       y1="3.9999957"
       x2="95.999878"
       y2="188.00014" />
    <linearGradient
       inkscape:collect="always"
       xlink:href="#linearGradient927"
       id="linearGradient8590-3-3-4"
       gradientUnits="userSpaceOnUse"
       gradientTransform="matrix(0.0760869,0,0,0.07608688,320.69566,236.69567)"
       x1="96"
       y1="4.0000062"
       x2="96"
       y2="188" />
    <filter
       inkscape:collect="always"
       style="color-interpolation-filters:sRGB"
       id="filter48967"
       x="-0.012"
       width="1.024"
       y="-0.012"
       height="1.024">
      <feGaussianBlur
         inkscape:collect="always"
         stdDeviation="1.12"
         id="feGaussianBlur48969" />
    </filter>
    <linearGradient
       id="a"
       x2="1"
       gradientTransform="matrix(0,-224.00049,224.00049,0,428.86446,269.00001)"
       gradientUnits="userSpaceOnUse">
      <stop
         stop-color="#006783"
         offset="0"
         id="stop2" />
      <stop
         stop-color="#20ccff"
         offset="1"
         id="stop4" />
    </linearGradient>
    <linearGradient
       inkscape:collect="always"
       xlink:href="#a"
       id="linearGradient6482"
       gradientUnits="userSpaceOnUse"
       gradientTransform="matrix(0,-45.000099,45.000099,0,399.62009,106.5)"
       x2="1" />
    <linearGradient
       inkscape:collect="always"
       xlink:href="#a"
       id="linearGradient6490"
       gradientUnits="userSpaceOnUse"
       gradientTransform="matrix(0,-29.000064,29.000064,0,371.84406,162.5)"
       x2="1" />
    <linearGradient
       inkscape:collect="always"
       xlink:href="#a"
       id="linearGradient6498"
       gradientUnits="userSpaceOnUse"
       gradientTransform="matrix(0,-23.000051,23.000051,0,360.42806,211.5)"
       x2="1" />
    <linearGradient
       inkscape:collect="always"
       xlink:href="#a"
       id="linearGradient6506"
       gradientUnits="userSpaceOnUse"
       gradientTransform="matrix(0,-15.000033,15.000033,0,346.54003,251.5)"
       x2="1" />
  </defs>
  <metadata
     id="metadata4">
    <rdf:RDF>
      <cc:Work
         rdf:about="">
        <dc:format>image/svg+xml</dc:format>
        <dc:type
           rdf:resource="http://purl.org/dc/dcmitype/StillImage" />
        <dc:creator>
          <cc:Agent>
            <dc:title>Yaru Team, based on the Suru template by Sam Hewitt and original Suru designs by Matthieu James</dc:title>
          </cc:Agent>
        </dc:creator>
        <dc:source />
        <cc:license
           rdf:resource="http://creativecommons.org/licenses/by-sa/4.0/" />
        <dc:title>Yaru Icon Theme Template</dc:title>
        <dc:subject>
          <rdf:Bag />
        </dc:subject>
        <dc:date />
        <dc:rights>
          <cc:Agent>
            <dc:title />
          </cc:Agent>
        </dc:rights>
        <dc:publisher>
          <cc:Agent>
            <dc:title />
          </cc:Agent>
        </dc:publisher>
        <dc:identifier />
        <dc:relation />
        <dc:language />
        <dc:coverage />
        <dc:description />
        <dc:contributor>
          <cc:Agent>
            <dc:title />
          </cc:Agent>
        </dc:contributor>
      </cc:Work>
      <cc:Work
         rdf:about="">
        <dc:format>image/svg+xml</dc:format>
        <dc:type
           rdf:resource="http://purl.org/dc/dcmitype/StillImage" />
      </cc:Work>
      <cc:License
         rdf:about="http://creativecommons.org/licenses/by-sa/4.0/">
        <cc:permits
           rdf:resource="http://creativecommons.org/ns#Reproduction" />
        <cc:permits
           rdf:resource="http://creativecommons.org/ns#Distribution" />
        <cc:requires
           rdf:resource="http://creativecommons.org/ns#Notice" />
        <cc:requires
           rdf:resource="http://creativecommons.org/ns#Attribution" />
        <cc:permits
           rdf:resource="http://creativecommons.org/ns#DerivativeWorks" />
        <cc:requires
           rdf:resource="http://creativecommons.org/ns#ShareAlike" />
      </cc:License>
    </rdf:RDF>
  </metadata>
  <g
     style="display:inline"
     inkscape:groupmode="layer"
     inkscape:label="Icon"
     id="layer1">
    <g
       style="display:none"
       inkscape:label="Baseplate"
       id="layer7"
       inkscape:groupmode="layer"
       sodipodi:insensitive="true">
      <text
         y="-8.2548828"
         xml:space="preserve"
         x="19.006836"
         style="font-style:normal;font-variant:normal;font-weight:normal;font-stretch:normal;line-height:0%;font-family:'DejaVu Sans';-inkscape-font-specification:'DejaVu Sans';display:inline;fill:#000000;fill-opacity:1;stroke:none;enable-background:new"
         inkscape:label="context"
         id="context"><tspan
           style="font-style:normal;font-variant:normal;font-weight:normal;font-stretch:normal;font-size:18px;line-height:1.25;font-family:'DejaVu Sans';-inkscape-font-specification:'DejaVu Sans'"
           y="-8.2548828"
           x="19.006836"
           sodipodi:role="line"
           id="tspan3933">apps</tspan></text>
      <text
         y="-8.2548828"
         xml:space="preserve"
         x="146.48828"
         style="font-style:normal;font-variant:normal;font-weight:bold;font-stretch:normal;line-height:0%;font-family:'DejaVu Sans';-inkscape-font-specification:'DejaVu Sans Bold';text-align:start;writing-mode:lr-tb;text-anchor:start;display:inline;fill:#000000;fill-opacity:1;stroke:none;enable-background:new"
         inkscape:label="icon-name"
         id="icon-name"><tspan
           style="font-style:normal;font-variant:normal;font-weight:bold;font-stretch:normal;font-size:18px;line-height:1.25;font-family:'DejaVu Sans';-inkscape-font-specification:'DejaVu Sans Bold'"
           y="-8.2548828"
           x="146.48828"
           sodipodi:role="line"
           id="tspan3937">packages-app</tspan></text>
      <rect
         style="display:inline;overflow:visible;visibility:visible;fill:#cdcdcd;fill-opacity:1;fill-rule:nonzero;stroke:none;stroke-width:2;marker:none;enable-background:accumulate"
         id="rect16x16"
         width="16"
         height="16"
         x="320"
         y="236"
         inkscape:label="16x16" />
      <rect
         style="display:inline;overflow:visible;visibility:visible;fill:#cdcdcd;fill-opacity:1;fill-rule:nonzero;stroke:none;stroke-width:2;marker:none;enable-background:accumulate"
         id="rect24x24"
         width="24"
         height="24"
         x="320"
         y="188"
         inkscape:label="24x24" />
      <rect
         style="display:inline;overflow:visible;visibility:visible;fill:#cdcdcd;fill-opacity:1;fill-rule:nonzero;stroke:none;stroke-width:2;marker:none;enable-background:accumulate"
         id="rect32x32"
         width="32"
         height="32"
         x="320"
         y="132"
         inkscape:label="32x32" />
      <rect
         inkscape:label="48x48"
         y="60"
         x="320"
         height="48"
         width="48"
         id="rect48x48"
         style="display:inline;overflow:visible;visibility:visible;fill:#cdcdcd;fill-opacity:1;fill-rule:nonzero;stroke:none;stroke-width:2;marker:none;enable-background:accumulate" />
      <rect
         style="display:inline;overflow:visible;visibility:visible;fill:#cdcdcd;fill-opacity:1;fill-rule:nonzero;stroke:none;stroke-width:2;marker:none;enable-background:accumulate"
         id="rect3951"
         width="256"
         height="256"
         x="24"
         y="28"
         inkscape:label="48x48" />
    </g>
    <g
       inkscape:groupmode="layer"
       id="layer3"
       inkscape:label="Optional outline for white icons"
       style="display:none">
      <circle
         style="display:inline;opacity:0.2;fill:#000000;fill-opacity:1;stroke:#000000;stroke-width:4;stroke-linecap:round;stroke-linejoin:round;stroke-miterlimit:4;stroke-dasharray:none;stroke-opacity:1;enable-background:new"
         id="path11042-53"
         r="112"
         cy="155.99998"
         cx="152" />
    </g>
    <g
       inkscape:groupmode="layer"
       id="layer8"
       inkscape:label="Backgrounds"
       style="display:inline">
      <circle
         style="display:inline;opacity:0.1;fill:#000000;fill-opacity:1;stroke:none;stroke-width:1;stroke-linecap:round;stroke-linejoin:round;stroke-miterlimit:4;stroke-dasharray:none;stroke-opacity:1;filter:url(#filter48967);enable-background:new"
         id="path11042-4"
         r="112"
         cy="157"
         cx="152" />
      <path
         style="display:inline;opacity:1;fill:#ffffff;fill-opacity:1;stroke:none;stroke-width:1;stroke-linecap:round;stroke-linejoin:round;stroke-miterlimit:4;stroke-dasharray:none;stroke-opacity:1;enable-background:new"
         id="path11042-5"
         r="112"
         cy="156"
         cx="152"
         d=""
         inkscape:connector-curvature="0" />
      <circle
         style="display:inline;opacity:0.1;fill:#000000;fill-opacity:1;stroke:none;stroke-width:1.95438;stroke-linecap:round;stroke-linejoin:round;stroke-miterlimit:4;stroke-dasharray:none;stroke-opacity:1;enable-background:new"
         id="path9498-0-0"
         cx="-344"
         cy="-85.000015"
         transform="scale(-1)"
         r="23" />
      <circle
         style="display:inline;opacity:0.1;fill:#000000;fill-opacity:1;stroke:none;stroke-width:1.95438;stroke-linecap:round;stroke-linejoin:round;stroke-miterlimit:4;stroke-dasharray:none;stroke-opacity:1;enable-background:new"
         id="path9498-0-0-2"
         cx="-336"
         cy="-149"
         transform="scale(-1)"
         r="14.999996" />
      <ellipse
         style="display:inline;opacity:0.1;fill:#000000;fill-opacity:1;stroke:none;stroke-width:1.95438;stroke-linecap:round;stroke-linejoin:round;stroke-miterlimit:4;stroke-dasharray:none;stroke-opacity:1;enable-background:new"
         id="path9498-0-0-2-3"
         cx="-332"
         cy="-200.52327"
         transform="scale(-1)"
         rx="11.999997"
         ry="11.476745" />
      <ellipse
         style="display:inline;opacity:0.1;fill:#000000;fill-opacity:1;stroke:none;stroke-width:1.95438;stroke-linecap:round;stroke-linejoin:round;stroke-miterlimit:4;stroke-dasharray:none;stroke-opacity:1;enable-background:new"
         id="path9498-0-0-2-3-3"
         cx="-328"
         cy="-244.5"
         transform="scale(-1)"
         rx="6.9999981"
         ry="6.5" />
      <circle
         cx="152"
         cy="157"
         fill="url(#a)"
         id="circle7"
         r="112"
         style="fill:url(#a);stroke-width:4.92005" />
      <circle
         cx="344"
         cy="84"
         fill="url(#a)"
         id="circle6476"
         style="fill:url(#linearGradient6482);stroke-width:0.988403"
         r="22.5" />
      <circle
         cx="336"
         cy="148"
         fill="url(#a)"
         id="circle6484"
         style="fill:url(#linearGradient6490);stroke-width:0.636971"
         r="14.5" />
      <circle
         cx="332"
         cy="200"
         fill="url(#a)"
         id="circle6492"
         style="fill:url(#linearGradient6498);stroke-width:0.505184"
         r="11.5" />
      <circle
         cx="328"
         cy="244"
         fill="url(#a)"
         id="circle6500"
         style="fill:url(#linearGradient6506);stroke-width:0.329468"
         r="7.5" />
    </g>
    <g
       inkscape:groupmode="layer"
       id="layer6"
       inkscape:label="Pictograms and folds"
       style="display:inline">
      <path
         d="m 106.14515,162.1513 c 3.25707,-3.28659 8.55597,-3.29643 11.83272,-0.0246 l 33.09717,36.42313 32.94465,-36.56581 c 3.26199,-3.28167 8.55597,-3.29151 11.83272,-0.0246 3.27183,3.27183 3.28659,8.57565 0.0246,11.85732 l -38.32718,42.53874 c -1.76138,1.77122 -4.11317,2.55843 -6.43051,2.41575 -2.31242,0.15252 -4.67405,-0.62485 -6.44526,-2.39115 l -38.50431,-42.37146 c -3.27183,-3.26691 -3.28167,-8.57565 -0.0246,-11.85732 z m 44.91021,4.01476 c -7.61132,0.0197 -13.79582,-6.14514 -13.81058,-13.7663 -0.0148,-7.62115 6.14022,-13.81549 13.75154,-13.83025 7.61132,-0.0148 13.79582,6.15006 13.81058,13.77121 0.0197,7.62116 -6.14022,13.81058 -13.75154,13.82534 z"
         fill="#ffffff"
         fill-opacity="0.85"
         fill-rule="nonzero"
         id="path9"
         style="display:inline;stroke-width:4.92005;enable-background:new" />
      <path
         id="path1813"
         style="display:inline;fill:#e2f3fe;stroke-width:4.92005;enable-background:new"
         d="m 150.75977,99.144531 c -7.508,0 -13.59766,6.096529 -13.59766,13.599609 0,5.08733 1.19404,7.56233 5.36133,8.61524 v 2.95703 c 0,0.96925 0.77778,1.76171 1.75195,1.76171 h 1.0293 c 0.96433,0 1.75,-0.79246 1.75,-1.76171 v -2.34766 c 0.45757,0.0246 0.94058,0.0399 1.4375,0.0547 v 2.29297 c 0,0.96433 0.78755,1.75195 1.76172,1.75195 h 1.01757 c 0.97417,0 1.76172,-0.78762 1.76172,-1.75195 v -2.29883 c 0.49693,-0.0197 0.97018,-0.034 1.42774,-0.0684 v 2.35742 c 0,0.97417 0.79051,1.76172 1.75976,1.76172 h 1.01953 c 0.97417,0 1.76172,-0.78755 1.76172,-1.76172 v -2.99609 c 4.08364,-1.08733 5.35157,-3.55288 5.35157,-8.56641 0,-7.50308 -6.09068,-13.599609 -13.59375,-13.599609 z m -6.43555,7.912109 c 0.26119,0.003 0.52812,0.0537 0.79687,0.1582 2.3075,0.90037 4.17774,1.8092 4.17774,4.05274 0,2.22879 -1.51107,2.65653 -4.17774,4.03906 -2.04674,1.06273 -4.17578,-1.81027 -4.17578,-4.03906 0,-1.9631 1.55054,-4.23394 3.37891,-4.21094 z m 12.63086,0.0586 c 1.95233,-0.0751 3.55664,2.11914 3.55664,4.15235 0,2.22879 -2.1891,5.21988 -4.17188,4.03906 -2.4305,-1.44157 -4.17773,-1.81027 -4.17773,-4.03906 0,-2.24354 1.62915,-3.3295 4.17773,-4.05274 0.20803,-0.059 0.41327,-0.0918 0.61524,-0.0996 z" />
      <path
         d="m 334.78809,85.034859 c 0.65432,-0.660252 1.71883,-0.662229 2.37711,-0.0049 l 6.64898,7.317147 6.61835,-7.34581 c 0.65531,-0.659264 1.71883,-0.661241 2.37711,-0.0049 0.65728,0.657287 0.66025,1.722787 0.005,2.382051 l -7.69966,8.545729 c -0.35385,0.355825 -0.82631,0.51397 -1.29184,0.485307 -0.46455,0.03064 -0.93899,-0.125528 -1.29481,-0.480365 l -7.7352,-8.512208 c -0.65729,-0.656299 -0.65926,-1.722787 -0.005,-2.382051 z m 9.02214,0.806537 c -1.52906,0.004 -2.77148,-1.234515 -2.77445,-2.765551 -0.003,-1.531035 1.23353,-2.775434 2.76259,-2.778399 1.52906,-0.003 2.77148,1.235503 2.77444,2.766538 0.004,1.531037 -1.23352,2.774447 -2.76258,2.777412 z"
         fill="#ffffff"
         fill-opacity="0.85"
         fill-rule="nonzero"
         id="path6478"
         style="display:inline;stroke-width:0.988403;enable-background:new" />
      <path
         id="path6480"
         style="display:inline;fill:#e2f3fe;fill-opacity:1;stroke-width:0.988403;enable-background:new"
         d="m 343.75,72.376953 c -1.5083,0 -2.73047,1.225107 -2.73047,2.732422 0,1.022008 0.23899,1.518951 1.07617,1.730469 v 0.59375 c 0,0.194715 0.15586,0.353515 0.35157,0.353515 h 0.20703 c 0.19373,0 0.35156,-0.1588 0.35156,-0.353515 v -0.470703 c 0.0919,0.005 0.18926,0.0068 0.28906,0.0098 v 0.460938 c 0,0.193727 0.15781,0.351562 0.35352,0.351562 h 0.20508 c 0.1957,0 0.35351,-0.157835 0.35351,-0.351562 v -0.460938 c 0.0998,-0.0039 0.19521,-0.0068 0.28711,-0.01367 v 0.472657 c 0,0.195704 0.15881,0.353515 0.35352,0.353515 h 0.20507 c 0.1957,0 0.35352,-0.157811 0.35352,-0.353515 v -0.601563 c 0.82037,-0.218437 1.07617,-0.713521 1.07617,-1.720703 0,-1.507315 -1.2251,-2.732422 -2.73242,-2.732422 z m -1.29102,1.589844 c 0.0525,6.6e-4 0.10617,0.01025 0.16016,0.03125 0.46355,0.180878 0.83789,0.363742 0.83789,0.814453 0,0.447748 -0.30218,0.534759 -0.83789,0.8125 -0.41118,0.213494 -0.83984,-0.364752 -0.83984,-0.8125 0,-0.394372 0.31237,-0.850325 0.67968,-0.845703 z m 2.53711,0.01172 c 0.39221,-0.01508 0.71289,0.425527 0.71289,0.833984 0,0.447748 -0.43956,1.049718 -0.83789,0.8125 -0.48827,-0.289602 -0.83789,-0.364752 -0.83789,-0.8125 0,-0.450711 0.3259,-0.669159 0.83789,-0.814453 0.0418,-0.01186 0.0844,-0.01797 0.125,-0.01953 z" />
      <path
         d="m 330.06344,148.66691 c 0.42167,-0.4255 1.10769,-0.42677 1.53191,-0.003 l 4.2849,4.71549 4.26516,-4.73396 c 0.42231,-0.42486 1.10769,-0.42613 1.53191,-0.003 0.42358,0.42358 0.4255,1.11024 0.003,1.5351 l -4.96201,5.50725 c -0.22803,0.2293 -0.53251,0.33122 -0.83252,0.31275 -0.29937,0.0198 -0.60512,-0.0809 -0.83443,-0.30957 l -4.98491,-5.48564 c -0.42358,-0.42295 -0.42485,-1.11025 -0.003,-1.5351 z m 5.81426,0.51977 c -0.98539,0.003 -1.78606,-0.79558 -1.78798,-1.78225 -0.002,-0.98666 0.79495,-1.78861 1.78034,-1.79052 0.98539,-0.002 1.78607,0.79621 1.78797,1.78288 0.003,0.98667 -0.79493,1.78798 -1.78033,1.78989 z"
         fill="#ffffff"
         fill-opacity="0.85"
         fill-rule="nonzero"
         id="path6486"
         style="display:inline;stroke-width:0.636971;enable-background:new" />
      <path
         id="path6488"
         style="display:inline;fill:#e2f3fe;fill-opacity:1;stroke-width:0.636971;enable-background:new"
         d="m 335.83984,140.50977 c -0.97201,0 -1.76172,0.78838 -1.76172,1.75976 0,0.65863 0.1558,0.98087 0.69532,1.11719 v 0.38281 c 0,0.12549 0.10043,0.22656 0.22656,0.22656 h 0.13281 c 0.12485,0 0.22656,-0.10107 0.22657,-0.22656 v -0.30469 c 0.0592,0.003 0.12124,0.006 0.18554,0.008 v 0.29687 c 0,0.12484 0.10239,0.22656 0.22852,0.22656 h 0.13281 c 0.12612,0 0.22656,-0.10172 0.22656,-0.22656 v -0.29883 c 0.0643,-0.003 0.12635,-0.004 0.18555,-0.008 v 0.30469 c 0,0.12612 0.10304,0.22851 0.22852,0.22851 h 0.13085 c 0.12612,0 0.22852,-0.10239 0.22852,-0.22851 v -0.38867 c 0.52868,-0.14078 0.69336,-0.46031 0.69336,-1.10938 0,-0.97138 -0.78838,-1.75976 -1.75977,-1.75976 z m -0.83398,1.02343 c 0.0338,4.3e-4 0.0687,0.008 0.10352,0.0215 0.29874,0.11656 0.54101,0.23493 0.54101,0.52539 0,0.28855 -0.19578,0.34249 -0.54101,0.52148 -0.26498,0.13759 -0.54102,-0.23293 -0.54102,-0.52148 0,-0.25415 0.20079,-0.54986 0.4375,-0.54688 z m 1.63476,0.008 c 0.25277,-0.01 0.46094,0.27583 0.46094,0.53906 0,0.28855 -0.28236,0.67436 -0.53906,0.52148 -0.31466,-0.18663 -0.54102,-0.23293 -0.54102,-0.52148 0,-0.29046 0.21107,-0.43176 0.54102,-0.52539 0.0269,-0.008 0.052,-0.0127 0.0781,-0.0137 z" />
      <path
         d="m 327.2917,200.52893 c 0.33443,-0.33747 0.87852,-0.33847 1.21497,-0.002 l 3.39837,3.73987 3.38271,-3.75452 c 0.33493,-0.33696 0.87851,-0.33796 1.21496,-0.002 0.33594,0.33594 0.33747,0.88054 0.002,1.21749 l -3.93539,4.36782 c -0.18085,0.18186 -0.42233,0.2627 -0.66027,0.24805 -0.23743,0.0157 -0.47992,-0.0642 -0.66179,-0.24552 l -3.95355,-4.35068 c -0.33594,-0.33545 -0.33695,-0.88055 -0.002,-1.2175 z m 4.61131,0.41223 c -0.78151,0.002 -1.41653,-0.63098 -1.41805,-1.41351 -0.002,-0.78252 0.63048,-1.41855 1.41199,-1.42007 0.78152,-0.002 1.41654,0.63148 1.41805,1.41401 0.002,0.78253 -0.63046,1.41806 -1.41199,1.41957 z"
         fill="#ffffff"
         fill-opacity="0.85"
         fill-rule="nonzero"
         id="path6494"
         style="display:inline;stroke-width:0.505184;enable-background:new" />
      <path
         id="path6496"
         style="display:inline;fill:#e2f3fe;fill-opacity:1;stroke-width:0.505184;enable-background:new"
         d="m 331.83789,194.05859 c -0.75427,0.0191 -1.36133,0.63813 -1.36133,1.39649 0,0.52237 0.12289,0.77665 0.55078,0.88476 v 0.30469 c 0,0.0996 0.0797,0.17969 0.17969,0.17969 h 0.10547 c 0.099,0 0.17969,-0.0821 0.17969,-0.18164 v -0.24024 c 0.047,0.003 0.0974,0.004 0.14843,0.006 v 0.23633 c 0,0.0991 0.0797,0.17969 0.17969,0.17969 h 0.10547 c 0.10006,0 0.17969,-0.0807 0.17969,-0.17969 v -0.23633 c 0.051,-0.002 0.0996,-0.005 0.14648,-0.008 v 0.24219 c 0,0.10006 0.0821,0.18164 0.18164,0.18164 h 0.10352 c 0.10006,0 0.18164,-0.0816 0.18164,-0.18164 v -0.30664 c 0.41929,-0.11165 0.54883,-0.36608 0.54883,-0.88086 0,-0.7704 -0.62412,-1.39649 -1.39453,-1.39649 -0.012,0 -0.0232,-3e-4 -0.0352,0 z m -0.64258,0.8125 c 0.006,-3.8e-4 0.0117,-7e-5 0.0176,0 0.0268,3.4e-4 0.0525,0.007 0.0801,0.0176 0.23693,0.0925 0.42969,0.18566 0.42969,0.41602 0,0.22885 -0.15588,0.27211 -0.42969,0.41406 -0.21016,0.10913 -0.42774,-0.18521 -0.42774,-0.41406 0,-0.19527 0.15002,-0.4218 0.33008,-0.4336 z m 1.29297,0.008 c 0.20977,-0.0249 0.38477,0.20981 0.38477,0.42578 0,0.22885 -0.22415,0.53531 -0.42774,0.41406 -0.24956,-0.14801 -0.42773,-0.18521 -0.42773,-0.41406 0,-0.23036 0.16605,-0.34176 0.42773,-0.41602 0.0142,-0.004 0.029,-0.008 0.043,-0.01 z" />
      <path
         d="m 324.92936,244.34495 c 0.21811,-0.22008 0.57295,-0.22074 0.79237,-0.001 l 2.21633,2.43905 2.20611,-2.4486 c 0.21844,-0.21976 0.57295,-0.22041 0.79237,-10e-4 0.21909,0.21909 0.22009,0.57427 0.001,0.79402 l -2.56655,2.84857 c -0.11795,0.11861 -0.27544,0.17133 -0.43062,0.16178 -0.15484,0.0102 -0.31299,-0.0419 -0.4316,-0.16013 l -2.5784,-2.8374 c -0.21909,-0.21877 -0.21975,-0.57427 -10e-4,-0.79402 z m 3.00738,0.26885 c -0.50968,0.001 -0.92383,-0.41151 -0.92482,-0.92185 -10e-4,-0.51034 0.41118,-0.92515 0.92086,-0.92614 0.50969,-10e-4 0.92383,0.41184 0.92482,0.92218 0.001,0.51035 -0.41117,0.92483 -0.92086,0.92581 z"
         fill="#ffffff"
         fill-opacity="0.85"
         fill-rule="nonzero"
         id="path6502"
         style="display:inline;stroke-width:0.329468;enable-background:new" />
      <path
         id="path6504"
         style="display:inline;stroke-width:0.329468;enable-background:new;fill:#e2f3fe;fill-opacity:1"
         d="m 327.89258,240.125 c -0.4919,0.0125 -0.88672,0.41752 -0.88672,0.91211 0,0.34067 0.0803,0.50567 0.35937,0.57617 v 0.19727 c 0,0.065 0.052,0.11914 0.11719,0.11914 h 0.0684 c 0.0646,0 0.11719,-0.0542 0.11719,-0.11914 v -0.15625 c 0.0306,0.002 0.0644,0.003 0.0976,0.004 v 0.1543 c 0,0.0646 0.052,0.11719 0.11719,0.11719 h 0.0684 c 0.0653,0 0.11719,-0.0526 0.11719,-0.11719 v -0.1543 c 0.0332,-0.002 0.0651,-0.004 0.0957,-0.006 v 0.15821 c 0,0.0653 0.0542,0.11718 0.11914,0.11718 h 0.0684 c 0.0652,0 0.11719,-0.052 0.11719,-0.11718 v -0.20117 c 0.27346,-0.0728 0.35937,-0.23655 0.35937,-0.57227 10e-6,-0.50244 -0.40966,-0.91211 -0.9121,-0.91211 -0.008,0 -0.0156,-2e-4 -0.0234,0 z m -0.41992,0.53125 c 0.0216,-0.002 0.0439,7.7e-4 0.0664,0.01 0.15452,0.0603 0.2793,0.12125 0.2793,0.27148 0,0.14925 -0.10073,0.1789 -0.2793,0.27148 -0.13706,0.0712 -0.27929,-0.12223 -0.27929,-0.27148 0,-0.12676 0.0962,-0.27236 0.21289,-0.28125 z m 0.8457,0.004 c 0.1368,-0.0162 0.25195,0.1365 0.25195,0.27734 0,0.14925 -0.14651,0.35056 -0.27929,0.27148 -0.16275,-0.0965 -0.2793,-0.12223 -0.2793,-0.27148 0,-0.15023 0.10864,-0.22305 0.2793,-0.27148 0.009,-0.003 0.0182,-0.005 0.0273,-0.006 z" />
    </g>
    <g
       inkscape:groupmode="layer"
       id="layer2"
       inkscape:label="Borders"
       style="display:inline" />
    <g
       inkscape:groupmode="layer"
       id="layer5"
       inkscape:label="Highlights"
       style="display:inline;opacity:0.8"
       sodipodi:insensitive="true">
      <path
         style="display:inline;opacity:1;fill:url(#linearGradient8590);fill-opacity:1;stroke:none;stroke-width:1.8694;stroke-linecap:round;stroke-linejoin:round;stroke-miterlimit:4;stroke-dasharray:none;stroke-opacity:1;enable-background:new"
         d="M 344,62.000016 A 22,21.99999 0 0 0 322,84.000013 22,21.99999 0 0 0 344,106 22,21.99999 0 0 0 366,84.000013 22,21.99999 0 0 0 344,62.000016 Z m 0,0.956532 A 21.043478,21.043469 0 0 1 365.04348,84.000013 21.043478,21.043469 0 0 1 344,105.04348 21.043478,21.043469 0 0 1 322.95652,84.000013 21.043478,21.043469 0 0 1 344,62.956548 Z"
         id="path9498-1-6"
         inkscape:connector-curvature="0" />
      <path
         style="display:inline;opacity:1;fill:url(#linearGradient8590-3);fill-opacity:1;stroke:none;stroke-width:1.8694;stroke-linecap:round;stroke-linejoin:round;stroke-miterlimit:4;stroke-dasharray:none;stroke-opacity:1;enable-background:new"
         d="m 336,134 c -7.73199,0 -14,6.26802 -14,14 0,7.73198 6.26801,14 14,14 7.73199,0 14,-6.26802 14,-14 0,-7.73198 -6.26801,-14 -14,-14 z m 0,1 a 13,13 0 0 1 13,13 13,13 0 0 1 -13,13 13,13 0 0 1 -13,-13 13,13 0 0 1 13,-13 z"
         id="path9498-1-6-7"
         inkscape:connector-curvature="0" />
      <path
         style="display:inline;opacity:1;fill:url(#linearGradient8590-3-3);fill-opacity:1;stroke:none;stroke-width:1.8694;stroke-linecap:round;stroke-linejoin:round;stroke-miterlimit:4;stroke-dasharray:none;stroke-opacity:1;enable-background:new"
         d="m 332,189 c -6.07513,0 -11,4.92488 -11,11 0,6.07513 4.92487,11 11,11 6.07513,0 11,-4.92487 11,-11 0,-6.07512 -4.92487,-11 -11,-11 z m 0,1 a 10,10 0 0 1 10,10 10,10 0 0 1 -10,10 10,10 0 0 1 -10,-10 10,10 0 0 1 10,-10 z"
         id="path9498-1-6-7-2"
         inkscape:connector-curvature="0" />
      <path
         style="display:inline;opacity:1;fill:url(#linearGradient8590-3-3-4);fill-opacity:1;stroke:none;stroke-width:1.8694;stroke-linecap:round;stroke-linejoin:round;stroke-miterlimit:4;stroke-dasharray:none;stroke-opacity:1;enable-background:new"
         d="m 328,237 c -3.86599,0 -7,3.13402 -7,7 0,3.86599 3.13401,7 7,7 3.866,0 7,-3.13401 7,-7 0,-3.86598 -3.134,-7 -7,-7 z m 0,1 a 6,6 0 0 1 6,6 6,6 0 0 1 -6,6 6,6 0 0 1 -6,-6 6,6 0 0 1 6,-6 z"
         id="path9498-1-6-7-2-0"
         inkscape:connector-curvature="0" />
    </g>
  </g>
</svg>
