<?xml version="1.0" encoding="UTF-8" standalone="no"?>
<svg
   inkscape:export-ydpi="96"
   inkscape:export-xdpi="96"
   width="400"
   height="300"
   id="svg11300"
   sodipodi:version="0.32"
   inkscape:version="1.1.2 (0a00cf5339, 2022-02-04)"
   sodipodi:docname="passwords-app.svg"
   inkscape:output_extension="org.inkscape.output.svg.inkscape"
   version="1.0"
   style="display:inline;enable-background:new"
   inkscape:export-filename="C:\Users\sblav\Pictures\preferences-system-network.png"
   xmlns:inkscape="http://www.inkscape.org/namespaces/inkscape"
   xmlns:sodipodi="http://sodipodi.sourceforge.net/DTD/sodipodi-0.dtd"
   xmlns:xlink="http://www.w3.org/1999/xlink"
   xmlns="http://www.w3.org/2000/svg"
   xmlns:svg="http://www.w3.org/2000/svg"
   xmlns:rdf="http://www.w3.org/1999/02/22-rdf-syntax-ns#"
   xmlns:cc="http://creativecommons.org/ns#"
   xmlns:dc="http://purl.org/dc/elements/1.1/">
  <title
     id="title3004">Yaru Icon Theme Template</title>
  <sodipodi:namedview
     stroke="#ef2929"
     fill="#f57900"
     id="base"
     pagecolor="#ffffff"
     bordercolor="#000000"
     borderopacity="0.25490196"
     inkscape:pageopacity="0"
     inkscape:pageshadow="2"
     inkscape:zoom="2"
     inkscape:cx="201"
     inkscape:cy="180"
     inkscape:current-layer="layer6"
     showgrid="false"
     inkscape:grid-bbox="true"
     inkscape:document-units="px"
     inkscape:showpageshadow="false"
     inkscape:window-width="1904"
     inkscape:window-height="1011"
     inkscape:window-x="0"
     inkscape:window-y="32"
     width="400px"
     height="300px"
     inkscape:snap-nodes="true"
     inkscape:snap-bbox="true"
     gridtolerance="10000"
     inkscape:object-nodes="true"
     inkscape:snap-grids="true"
     showguides="false"
     inkscape:guide-bbox="true"
     inkscape:window-maximized="1"
     inkscape:bbox-paths="true"
     inkscape:snap-bbox-midpoints="true"
     inkscape:snap-global="true"
     inkscape:object-paths="true"
     inkscape:snap-intersection-paths="true"
     inkscape:snap-smooth-nodes="true"
     inkscape:pagecheckerboard="false"
     showborder="false"
     inkscape:document-rotation="0" />
  <defs
     id="defs3">
    <linearGradient
       inkscape:collect="always"
       id="linearGradient927">
      <stop
         style="stop-color:#ffffff;stop-opacity:1;"
         offset="0"
         id="stop923" />
      <stop
         id="stop933"
         offset="0.125"
         style="stop-color:#ffffff;stop-opacity:0.09803922" />
      <stop
         id="stop931"
         offset="0.92500001"
         style="stop-color:#ffffff;stop-opacity:0.09803922" />
      <stop
         style="stop-color:#ffffff;stop-opacity:0.49803922"
         offset="1"
         id="stop925" />
    </linearGradient>
    <linearGradient
       inkscape:collect="always"
       xlink:href="#linearGradient927"
       id="linearGradient8590"
       gradientUnits="userSpaceOnUse"
       gradientTransform="matrix(0.23913043,0,0,0.23913032,321.04348,61.043494)"
       x1="96"
       y1="4.0000062"
       x2="96"
       y2="188" />
    <linearGradient
       inkscape:collect="always"
       xlink:href="#linearGradient927"
       id="linearGradient8590-3"
       gradientUnits="userSpaceOnUse"
       gradientTransform="matrix(0.15217394,0,0,0.15217387,321.3913,133.39129)"
       x1="96"
       y1="4.0000062"
       x2="96"
       y2="188" />
    <linearGradient
       inkscape:collect="always"
       xlink:href="#linearGradient927"
       id="linearGradient8590-3-3"
       gradientUnits="userSpaceOnUse"
       gradientTransform="matrix(0.11956515,0,0,0.11956513,320.52176,188.52174)"
       x1="95.999878"
       y1="3.9999957"
       x2="95.999878"
       y2="188.00014" />
    <linearGradient
       inkscape:collect="always"
       xlink:href="#linearGradient927"
       id="linearGradient8590-3-3-4"
       gradientUnits="userSpaceOnUse"
       gradientTransform="matrix(0.0760869,0,0,0.07608688,320.69566,236.69567)"
       x1="96"
       y1="4.0000062"
       x2="96"
       y2="188" />
    <radialGradient
       inkscape:collect="always"
       xlink:href="#linearGradient855"
       id="radialGradient859"
       cx="515.57489"
       cy="513.42511"
       fx="515.57489"
       fy="513.42511"
       r="64.654884"
       gradientTransform="matrix(0.79340004,0,0,1.9423574,-256.28103,-840.09918)"
       gradientUnits="userSpaceOnUse" />
    <linearGradient
       inkscape:collect="always"
       id="linearGradient855">
      <stop
         style="stop-color:#333333;stop-opacity:1;"
         offset="0"
         id="stop850" />
      <stop
         style="stop-color:#000000;stop-opacity:1"
         offset="1"
         id="stop852" />
    </linearGradient>
    <linearGradient
       inkscape:collect="always"
       xlink:href="#linearGradient861"
       id="linearGradient863"
       x1="515.57489"
       y1="352.39072"
       x2="520"
       y2="784"
       gradientUnits="userSpaceOnUse"
       gradientTransform="matrix(0.22857144,0,0,0.22857144,34.93041,39.8015)" />
    <linearGradient
       inkscape:collect="always"
       id="linearGradient861">
      <stop
         style="stop-color:#b0bdc5;stop-opacity:1;"
         offset="0"
         id="stop857" />
      <stop
         style="stop-color:#b0bdc5;stop-opacity:0;"
         offset="1"
         id="stop859" />
    </linearGradient>
    <linearGradient
       inkscape:collect="always"
       xlink:href="#linearGradient841"
       id="linearGradient854"
       x1="520"
       y1="224"
       x2="520"
       y2="804"
       gradientUnits="userSpaceOnUse"
       gradientTransform="matrix(0.2607713,0,0,0.2607713,19.02874,23.30068)" />
    <linearGradient
       inkscape:collect="always"
       id="linearGradient841">
      <stop
         style="stop-color:#ebeef0;stop-opacity:1;"
         offset="0"
         id="stop837" />
      <stop
         style="stop-color:#cfd7dc;stop-opacity:1"
         offset="1"
         id="stop839" />
    </linearGradient>
    <linearGradient
       inkscape:collect="always"
       xlink:href="#linearGradient856"
       id="linearGradient858"
       x1="500"
       y1="64"
       x2="512.89142"
       y2="972.04224"
       gradientUnits="userSpaceOnUse"
       gradientTransform="matrix(0.22857144,0,0,0.22857144,34.93041,39.8015)" />
    <linearGradient
       inkscape:collect="always"
       id="linearGradient856">
      <stop
         style="stop-color:#1775d1;stop-opacity:0.7"
         offset="0"
         id="stop851" />
      <stop
         style="stop-color:#1775d1;stop-opacity:1"
         offset="1"
         id="stop853" />
    </linearGradient>
    <linearGradient
       inkscape:collect="always"
       xlink:href="#linearGradient940"
       id="linearGradient873"
       x1="520.03137"
       y1="2.0078433"
       x2="520.03137"
       y2="1026.0078"
       gradientUnits="userSpaceOnUse"
       gradientTransform="matrix(0.21875001,0,0,0.21875001,39.95898,44.83007)" />
    <linearGradient
       id="linearGradient940">
      <stop
         id="stop936"
         offset="0"
         style="stop-color:#f6f7f7;stop-opacity:1" />
      <stop
         id="stop938"
         offset="1"
         style="stop-color:#dce7f0;stop-opacity:1" />
    </linearGradient>
    <radialGradient
       inkscape:collect="always"
       xlink:href="#linearGradient855"
       id="radialGradient1170"
       gradientUnits="userSpaceOnUse"
       gradientTransform="matrix(0.1593884,0,0,0.39020573,261.98749,-116.27597)"
       cx="515.57489"
       cy="513.42511"
       fx="515.57489"
       fy="513.42511"
       r="64.654884" />
    <linearGradient
       inkscape:collect="always"
       xlink:href="#linearGradient861"
       id="linearGradient1172"
       gradientUnits="userSpaceOnUse"
       gradientTransform="matrix(0.04591837,0,0,0.04591837,320.48979,60.489795)"
       x1="515.57489"
       y1="352.39072"
       x2="520"
       y2="784" />
    <linearGradient
       inkscape:collect="always"
       xlink:href="#linearGradient841"
       id="linearGradient1174"
       gradientUnits="userSpaceOnUse"
       gradientTransform="matrix(0.05238709,0,0,0.05238709,317.29526,57.174898)"
       x1="520"
       y1="224"
       x2="520"
       y2="804" />
    <linearGradient
       inkscape:collect="always"
       xlink:href="#linearGradient856"
       id="linearGradient1176"
       gradientUnits="userSpaceOnUse"
       gradientTransform="matrix(0.04591837,0,0,0.04591837,320.48979,60.489795)"
       x1="500"
       y1="64"
       x2="512.89142"
       y2="972.04224" />
    <linearGradient
       inkscape:collect="always"
       xlink:href="#linearGradient940"
       id="linearGradient1178"
       gradientUnits="userSpaceOnUse"
       gradientTransform="matrix(0.04394532,0,0,0.04394532,321.5,61.499999)"
       x1="520.03137"
       y1="2.0078433"
       x2="520.03137"
       y2="1026.0078" />
    <radialGradient
       inkscape:collect="always"
       xlink:href="#linearGradient855"
       id="radialGradient1190"
       gradientUnits="userSpaceOnUse"
       gradientTransform="matrix(0.10271697,0,0,0.25146591,283.04171,18.891092)"
       cx="515.57489"
       cy="513.42511"
       fx="515.57489"
       fy="513.42511"
       r="64.654884" />
    <linearGradient
       inkscape:collect="always"
       xlink:href="#linearGradient861"
       id="linearGradient1192"
       gradientUnits="userSpaceOnUse"
       gradientTransform="matrix(0.02959184,0,0,0.02959184,320.74319,132.80681)"
       x1="515.57489"
       y1="352.39072"
       x2="520"
       y2="784" />
    <linearGradient
       inkscape:collect="always"
       xlink:href="#linearGradient841"
       id="linearGradient1194"
       gradientUnits="userSpaceOnUse"
       gradientTransform="matrix(0.03376057,0,0,0.03376057,318.6845,130.67054)"
       x1="520"
       y1="224"
       x2="520"
       y2="804" />
    <linearGradient
       inkscape:collect="always"
       xlink:href="#linearGradient856"
       id="linearGradient1196"
       gradientUnits="userSpaceOnUse"
       gradientTransform="matrix(0.02959184,0,0,0.02959184,320.74319,132.80681)"
       x1="500"
       y1="64"
       x2="512.89142"
       y2="972.04224" />
    <linearGradient
       inkscape:collect="always"
       xlink:href="#linearGradient940"
       id="linearGradient1198"
       gradientUnits="userSpaceOnUse"
       gradientTransform="matrix(0.02832032,0,0,0.02832032,321.39422,133.45783)"
       x1="520.03137"
       y1="2.0078433"
       x2="520.03137"
       y2="1026.0078" />
    <radialGradient
       inkscape:collect="always"
       xlink:href="#linearGradient855"
       id="radialGradient1210"
       gradientUnits="userSpaceOnUse"
       gradientTransform="matrix(0.08146515,0,0,0.19943841,290.08251,97.613527)"
       cx="515.57489"
       cy="513.42511"
       fx="515.57489"
       fy="513.42511"
       r="64.654884" />
    <linearGradient
       inkscape:collect="always"
       xlink:href="#linearGradient861"
       id="linearGradient1212"
       gradientUnits="userSpaceOnUse"
       gradientTransform="matrix(0.02346938,0,0,0.02346938,319.98367,187.96044)"
       x1="515.57489"
       y1="352.39072"
       x2="520"
       y2="784" />
    <linearGradient
       inkscape:collect="always"
       xlink:href="#linearGradient841"
       id="linearGradient1214"
       gradientUnits="userSpaceOnUse"
       gradientTransform="matrix(0.02677562,0,0,0.02677562,318.35092,186.26616)"
       x1="520"
       y1="224"
       x2="520"
       y2="804" />
    <linearGradient
       inkscape:collect="always"
       xlink:href="#linearGradient856"
       id="linearGradient1216"
       gradientUnits="userSpaceOnUse"
       gradientTransform="matrix(0.02346938,0,0,0.02346938,319.98367,187.96044)"
       x1="500"
       y1="64"
       x2="512.89142"
       y2="972.04224" />
    <linearGradient
       inkscape:collect="always"
       xlink:href="#linearGradient940"
       id="linearGradient1218"
       gradientUnits="userSpaceOnUse"
       gradientTransform="matrix(0.02246094,0,0,0.02246094,320.50001,188.47677)"
       x1="520.03137"
       y1="2.0078433"
       x2="520.03137"
       y2="1026.0078" />
    <radialGradient
       inkscape:collect="always"
       xlink:href="#linearGradient855"
       id="radialGradient1230"
       gradientUnits="userSpaceOnUse"
       gradientTransform="matrix(0.05312945,0,0,0.13006853,300.60778,177.21955)"
       cx="515.57489"
       cy="513.42511"
       fx="515.57489"
       fy="513.42511"
       r="64.654884" />
    <linearGradient
       inkscape:collect="always"
       xlink:href="#linearGradient861"
       id="linearGradient1232"
       gradientUnits="userSpaceOnUse"
       gradientTransform="matrix(0.01530612,0,0,0.01530612,320.10854,236.14145)"
       x1="515.57489"
       y1="352.39072"
       x2="520"
       y2="784" />
    <linearGradient
       inkscape:collect="always"
       xlink:href="#linearGradient841"
       id="linearGradient1234"
       gradientUnits="userSpaceOnUse"
       gradientTransform="matrix(0.01746236,0,0,0.01746236,319.0437,235.03649)"
       x1="520"
       y1="224"
       x2="520"
       y2="804" />
    <linearGradient
       inkscape:collect="always"
       xlink:href="#linearGradient856"
       id="linearGradient1236"
       gradientUnits="userSpaceOnUse"
       gradientTransform="matrix(0.01530612,0,0,0.01530612,320.10854,236.14145)"
       x1="500"
       y1="64"
       x2="512.89142"
       y2="972.04224" />
    <linearGradient
       inkscape:collect="always"
       xlink:href="#linearGradient940"
       id="linearGradient1238"
       gradientUnits="userSpaceOnUse"
       gradientTransform="matrix(0.01464844,0,0,0.01464844,320.44528,236.47819)"
       x1="520.03137"
       y1="2.0078433"
       x2="520.03137"
       y2="1026.0078" />
  </defs>
  <metadata
     id="metadata4">
    <rdf:RDF>
      <cc:Work
         rdf:about="">
        <dc:format>image/svg+xml</dc:format>
        <dc:type
           rdf:resource="http://purl.org/dc/dcmitype/StillImage" />
        <dc:creator>
          <cc:Agent>
            <dc:title>Yaru Team, based on the Suru template by Sam Hewitt and original Suru designs by Matthieu James</dc:title>
          </cc:Agent>
        </dc:creator>
        <dc:source />
        <cc:license
           rdf:resource="http://creativecommons.org/licenses/by-sa/4.0/" />
        <dc:title>Yaru Icon Theme Template</dc:title>
        <dc:subject>
          <rdf:Bag />
        </dc:subject>
        <dc:date />
        <dc:rights>
          <cc:Agent>
            <dc:title />
          </cc:Agent>
        </dc:rights>
        <dc:publisher>
          <cc:Agent>
            <dc:title />
          </cc:Agent>
        </dc:publisher>
        <dc:identifier />
        <dc:relation />
        <dc:language />
        <dc:coverage />
        <dc:description />
        <dc:contributor>
          <cc:Agent>
            <dc:title />
          </cc:Agent>
        </dc:contributor>
      </cc:Work>
      <cc:Work
         rdf:about="">
        <dc:format>image/svg+xml</dc:format>
        <dc:type
           rdf:resource="http://purl.org/dc/dcmitype/StillImage" />
      </cc:Work>
      <cc:License
         rdf:about="http://creativecommons.org/licenses/by-sa/4.0/">
        <cc:permits
           rdf:resource="http://creativecommons.org/ns#Reproduction" />
        <cc:permits
           rdf:resource="http://creativecommons.org/ns#Distribution" />
        <cc:requires
           rdf:resource="http://creativecommons.org/ns#Notice" />
        <cc:requires
           rdf:resource="http://creativecommons.org/ns#Attribution" />
        <cc:permits
           rdf:resource="http://creativecommons.org/ns#DerivativeWorks" />
        <cc:requires
           rdf:resource="http://creativecommons.org/ns#ShareAlike" />
      </cc:License>
    </rdf:RDF>
  </metadata>
  <g
     style="display:inline"
     inkscape:groupmode="layer"
     inkscape:label="Icon"
     id="layer1">
    <g
       style="display:none"
       inkscape:label="Baseplate"
       id="layer7"
       inkscape:groupmode="layer"
       sodipodi:insensitive="true">
      <text
         y="-8.2548828"
         xml:space="preserve"
         x="19.006836"
         style="font-style:normal;font-variant:normal;font-weight:normal;font-stretch:normal;line-height:0%;font-family:'DejaVu Sans';-inkscape-font-specification:'DejaVu Sans';display:inline;fill:#000000;fill-opacity:1;stroke:none;enable-background:new"
         inkscape:label="context"
         id="context"><tspan
           style="font-style:normal;font-variant:normal;font-weight:normal;font-stretch:normal;font-size:18px;line-height:1.25;font-family:'DejaVu Sans';-inkscape-font-specification:'DejaVu Sans'"
           y="-8.2548828"
           x="19.006836"
           sodipodi:role="line"
           id="tspan3933">apps</tspan></text>
      <text
         y="-8.2548828"
         xml:space="preserve"
         x="146.48828"
         style="font-style:normal;font-variant:normal;font-weight:bold;font-stretch:normal;line-height:0%;font-family:'DejaVu Sans';-inkscape-font-specification:'DejaVu Sans Bold';text-align:start;writing-mode:lr-tb;text-anchor:start;display:inline;fill:#000000;fill-opacity:1;stroke:none;enable-background:new"
         inkscape:label="icon-name"
         id="icon-name"><tspan
           style="font-style:normal;font-variant:normal;font-weight:bold;font-stretch:normal;font-size:18px;line-height:1.25;font-family:'DejaVu Sans';-inkscape-font-specification:'DejaVu Sans Bold'"
           y="-8.2548828"
           x="146.48828"
           sodipodi:role="line"
           id="tspan3937">passwords-app</tspan></text>
      <rect
         style="display:inline;overflow:visible;visibility:visible;fill:#cdcdcd;fill-opacity:1;fill-rule:nonzero;stroke:none;stroke-width:2;marker:none;enable-background:accumulate"
         id="rect16x16"
         width="16"
         height="16"
         x="320"
         y="236"
         inkscape:label="16x16" />
      <rect
         style="display:inline;overflow:visible;visibility:visible;fill:#cdcdcd;fill-opacity:1;fill-rule:nonzero;stroke:none;stroke-width:2;marker:none;enable-background:accumulate"
         id="rect24x24"
         width="24"
         height="24"
         x="320"
         y="188"
         inkscape:label="24x24" />
      <rect
         style="display:inline;overflow:visible;visibility:visible;fill:#cdcdcd;fill-opacity:1;fill-rule:nonzero;stroke:none;stroke-width:2;marker:none;enable-background:accumulate"
         id="rect32x32"
         width="32"
         height="32"
         x="320"
         y="132"
         inkscape:label="32x32" />
      <rect
         inkscape:label="48x48"
         y="60"
         x="320"
         height="48"
         width="48"
         id="rect48x48"
         style="display:inline;overflow:visible;visibility:visible;fill:#cdcdcd;fill-opacity:1;fill-rule:nonzero;stroke:none;stroke-width:2;marker:none;enable-background:accumulate" />
      <rect
         style="display:inline;overflow:visible;visibility:visible;fill:#cdcdcd;fill-opacity:1;fill-rule:nonzero;stroke:none;stroke-width:2;marker:none;enable-background:accumulate"
         id="rect3951"
         width="256"
         height="256"
         x="24"
         y="28"
         inkscape:label="48x48" />
    </g>
    <g
       inkscape:groupmode="layer"
       id="layer8"
       inkscape:label="Backgrounds"
       style="display:inline">
      <path
         id="path"
         d="m 255.80815,113.95211 q -2.04069,-4.94746 -4.60341,-9.69322 c -0.96101,-1.79153 -1.98135,-3.57119 -3.06101,-5.31526 -4.63899,-7.52203 -10.29831,-14.62881 -16.97796,-21.30848 -21.86611,-21.8661 -48.27628,-32.80508 -79.20679,-32.80508 -30.9305,0 -57.32881,10.93898 -79.19492,32.80508 -21.8661,21.86611 -32.80508,48.26442 -32.80508,79.19492 0,30.93051 10.93898,57.34068 32.80508,79.20679 21.86611,21.8661 48.26442,32.79322 79.19492,32.79322 30.93051,0 57.34068,-10.92712 79.20679,-32.79322 12.04237,-12.05424 20.77456,-25.48475 26.18473,-40.27967 4.40171,-12.0661 6.60848,-25.03389 6.60848,-38.92712 0,-10.65423 -1.29321,-20.77457 -3.89152,-30.36101 -0.29662,-1.07966 -0.60507,-2.15933 -0.92542,-3.22712 -0.97289,-3.15594 -2.08813,-6.25254 -3.33389,-9.28983 z"
         style="fill:url(#linearGradient873);fill-opacity:1;stroke-width:0.237289"
         inkscape:connector-curvature="0" />
      <path
         inkscape:connector-curvature="0"
         style="fill:url(#linearGradient858);fill-opacity:1;fill-rule:nonzero;stroke:none;stroke-width:0.613465"
         d="m 152.7761,252.24281 c -52.43205,0 -95.087,-42.65495 -95.087,-95.08699 0,-52.43205 42.65495,-95.087 95.087,-95.087 52.43204,0 95.08699,42.65495 95.08699,95.087 0,52.43204 -42.65495,95.08699 -95.08699,95.08699 z m 0,0"
         id="path847" />
      <path
         inkscape:connector-curvature="0"
         style="fill:url(#linearGradient854);fill-opacity:1;fill-rule:nonzero;stroke:none;stroke-width:0.613465"
         d="m 152.7761,83.54008 c -40.65641,0 -73.61574,32.95933 -73.61574,73.61574 0,40.6564 32.95933,73.61573 73.61574,73.61573 40.65641,0 73.61572,-32.95933 73.61572,-73.61573 0,-40.65641 -32.95933,-73.61574 -73.61572,-73.61574 z m 0,0"
         id="path851" />
      <path
         inkscape:connector-curvature="0"
         style="fill:url(#linearGradient863);fill-opacity:1;fill-rule:nonzero;stroke:none;stroke-width:0.613465"
         d="m 152.7761,120.34795 c -20.3282,0 -36.80787,16.47966 -36.80787,36.80787 0,20.3282 16.47967,36.80787 36.80787,36.80787 20.3282,0 36.80786,-16.47967 36.80786,-36.80787 0,-20.32821 -16.47966,-36.80787 -36.80786,-36.80787 z m 0,0"
         id="path853" />
      <path
         id="path1160"
         d="m 364.86255,75.386123 q -0.40996,-0.993909 -0.92479,-1.947299 c -0.19306,-0.359905 -0.39804,-0.717426 -0.61493,-1.067797 -0.93194,-1.511122 -2.06886,-2.938824 -3.41076,-4.280722 C 355.51933,63.697562 350.21372,61.5 344,61.5 c -6.21372,0 -11.51695,2.197563 -15.9097,6.590305 C 323.69756,72.483052 321.5,77.786282 321.5,84 c 0,6.213718 2.19756,11.519333 6.5903,15.912077 C 332.48305,104.30482 337.78628,106.5 344,106.5 c 6.21372,0 11.51933,-2.19518 15.91207,-6.587923 2.41923,-2.42161 4.17347,-5.119704 5.26033,-8.091898 C 366.05667,89.396186 366.5,86.79105 366.5,84 c 0,-2.14036 -0.2598,-4.173463 -0.78178,-6.099311 -0.0596,-0.216896 -0.12156,-0.433794 -0.18591,-0.648304 -0.19545,-0.634006 -0.41949,-1.256091 -0.66976,-1.866262 z"
         style="fill:url(#linearGradient1178);fill-opacity:1;stroke-width:0.0476697"
         inkscape:connector-curvature="0" />
      <path
         inkscape:connector-curvature="0"
         style="fill:url(#linearGradient1176);fill-opacity:1;fill-rule:nonzero;stroke:none;stroke-width:0.123241"
         d="m 344.16415,103.16774 c -10.53322,0 -19.1023,-8.569078 -19.1023,-19.1023 0,-10.533224 8.56908,-19.102299 19.1023,-19.102299 10.53322,0 19.1023,8.569075 19.1023,19.102299 0,10.533222 -8.56908,19.1023 -19.1023,19.1023 z m 0,0"
         id="path1162" />
      <path
         inkscape:connector-curvature="0"
         style="fill:url(#linearGradient1174);fill-opacity:1;fill-rule:nonzero;stroke:none;stroke-width:0.123241"
         d="m 344.16415,69.276564 c -8.16758,0 -14.78888,6.621293 -14.78888,14.788876 0,8.16758 6.6213,14.788874 14.78888,14.788874 8.16758,0 14.78887,-6.621294 14.78887,-14.788874 0,-8.167583 -6.62129,-14.788876 -14.78887,-14.788876 z m 0,0"
         id="path1164" />
      <path
         inkscape:connector-curvature="0"
         style="fill:url(#linearGradient1172);fill-opacity:1;fill-rule:nonzero;stroke:none;stroke-width:0.123241"
         d="m 344.16415,76.671002 c -4.08379,0 -7.39444,3.310647 -7.39444,7.394438 0,4.08379 3.31065,7.394438 7.39444,7.394438 4.08379,0 7.39444,-3.310648 7.39444,-7.394438 0,-4.083792 -3.31065,-7.394438 -7.39444,-7.394438 z m 0,0"
         id="path1166" />
      <path
         id="path1180"
         d="m 349.33897,142.40666 q -0.26419,-0.64052 -0.59598,-1.25493 c -0.12441,-0.23194 -0.25652,-0.46234 -0.39629,-0.68813 -0.60058,-0.97384 -1.33326,-1.89391 -2.19804,-2.75869 -2.83087,-2.83088 -6.25005,-4.24708 -10.25445,-4.24708 -4.0044,0 -7.42203,1.4162 -10.25292,4.24708 -2.83087,2.83088 -4.24708,6.24852 -4.24708,10.25291 0,4.0044 1.41621,7.42357 4.24708,10.25445 2.83089,2.83088 6.24852,4.24555 10.25292,4.24555 4.0044,0 7.42357,-1.41467 10.25445,-4.24555 1.55905,-1.56059 2.68956,-3.29936 3.38999,-5.21477 0.56986,-1.56213 0.85557,-3.241 0.85557,-5.03968 0,-1.37934 -0.16744,-2.68956 -0.50381,-3.93066 -0.0384,-0.13978 -0.0783,-0.27956 -0.11981,-0.4178 -0.12596,-0.40858 -0.27034,-0.80948 -0.43163,-1.2027 z"
         style="fill:url(#linearGradient1198);fill-opacity:1;stroke-width:0.0307205"
         inkscape:connector-curvature="0" />
      <path
         inkscape:connector-curvature="0"
         style="fill:url(#linearGradient1196);fill-opacity:1;fill-rule:nonzero;stroke:none;stroke-width:0.079422"
         d="m 336.00001,160.31037 c -6.78808,0 -12.31038,-5.5223 -12.31038,-12.31037 0,-6.78808 5.52229,-12.31037 12.31038,-12.31037 6.78807,0 12.31037,5.52229 12.31037,12.31037 0,6.78807 -5.5223,12.31037 -12.31037,12.31037 z m 0,0"
         id="path1182" />
      <path
         inkscape:connector-curvature="0"
         style="fill:url(#linearGradient1194);fill-opacity:1;fill-rule:nonzero;stroke:none;stroke-width:0.079422"
         d="m 336.00001,138.46939 c -5.26356,0 -9.53062,4.26705 -9.53062,9.53061 0,5.26355 4.26706,9.5306 9.53062,9.5306 5.26355,0 9.5306,-4.26705 9.5306,-9.5306 0,-5.26356 -4.26705,-9.53061 -9.5306,-9.53061 z m 0,0"
         id="path1184" />
      <path
         inkscape:connector-curvature="0"
         style="fill:url(#linearGradient1192);fill-opacity:1;fill-rule:nonzero;stroke:none;stroke-width:0.079422"
         d="m 336.00001,143.23469 c -2.63178,0 -4.76531,2.13353 -4.76531,4.76531 0,2.63177 2.13353,4.7653 4.76531,4.7653 2.63177,0 4.7653,-2.13353 4.7653,-4.7653 0,-2.63178 -2.13353,-4.76531 -4.7653,-4.76531 z m 0,0"
         id="path1186" />
      <path
         id="path1200"
         d="m 342.66308,195.57412 q -0.20953,-0.508 -0.47268,-0.99529 c -0.0987,-0.18396 -0.20344,-0.36669 -0.31429,-0.54576 -0.47633,-0.77236 -1.05742,-1.50207 -1.74328,-2.18793 -2.24517,-2.24518 -4.95693,-3.36837 -8.13283,-3.36837 -3.17591,0 -5.88644,1.12319 -8.13163,3.36837 -2.24517,2.24518 -3.36837,4.95572 -3.36837,8.13162 0,3.1759 1.1232,5.88766 3.36837,8.13283 2.24519,2.24518 4.95572,3.36716 8.13163,3.36716 3.1759,0 5.88765,-1.12198 8.13283,-3.36716 1.23649,-1.2377 2.1331,-2.61673 2.68861,-4.13585 0.45196,-1.23893 0.67856,-2.57044 0.67856,-3.99698 0,-1.09396 -0.1328,-2.1331 -0.39957,-3.11742 -0.0305,-0.11086 -0.0621,-0.22172 -0.095,-0.33136 -0.0999,-0.32405 -0.2144,-0.642 -0.34232,-0.95386 z"
         style="fill:url(#linearGradient1218);fill-opacity:1;stroke-width:0.0243645"
         inkscape:connector-curvature="0" />
      <path
         inkscape:connector-curvature="0"
         style="fill:url(#linearGradient1216);fill-opacity:1;fill-rule:nonzero;stroke:none;stroke-width:0.0629898"
         d="m 332.08391,209.7736 c -5.38365,0 -9.76341,-4.37975 -9.76341,-9.76339 0,-5.38365 4.37975,-9.76339 9.76341,-9.76339 5.38364,0 9.76339,4.37974 9.76339,9.76339 0,5.38364 -4.37975,9.76339 -9.76339,9.76339 z m 0,0"
         id="path1202" />
      <path
         inkscape:connector-curvature="0"
         style="fill:url(#linearGradient1214);fill-opacity:1;fill-rule:nonzero;stroke:none;stroke-width:0.0629898"
         d="m 332.08391,192.45145 c -4.17455,0 -7.55877,3.38422 -7.55877,7.55876 0,4.17454 3.38422,7.55875 7.55877,7.55875 4.17453,0 7.55875,-3.38421 7.55875,-7.55875 0,-4.17454 -3.38422,-7.55876 -7.55875,-7.55876 z m 0,0"
         id="path1204" />
      <path
         inkscape:connector-curvature="0"
         style="fill:url(#linearGradient1212);fill-opacity:1;fill-rule:nonzero;stroke:none;stroke-width:0.0629898"
         d="m 332.08391,196.23083 c -2.08728,0 -3.77939,1.69211 -3.77939,3.77938 0,2.08727 1.69211,3.77938 3.77939,3.77938 2.08726,0 3.77937,-1.69211 3.77937,-3.77938 0,-2.08727 -1.69211,-3.77938 -3.77937,-3.77938 z m 0,0"
         id="path1206" />
      <path
         id="path1220"
         d="m 334.89947,241.1069 q -0.13665,-0.33131 -0.30827,-0.64911 c -0.0644,-0.11997 -0.13268,-0.23914 -0.20497,-0.35593 -0.31065,-0.50371 -0.68962,-0.97961 -1.13692,-1.42691 -1.46424,-1.46424 -3.23278,-2.19676 -5.30402,-2.19676 -2.07125,0 -3.83898,0.73252 -5.30324,2.19676 -1.46424,1.46425 -2.19676,3.23199 -2.19676,5.30323 0,2.07124 0.73252,3.83978 2.19676,5.30402 1.46426,1.46425 3.23199,2.19598 5.30324,2.19598 2.07124,0 3.83977,-0.73173 5.30402,-2.19598 0.80641,-0.80719 1.39115,-1.70656 1.75344,-2.69729 0.29476,-0.808 0.44254,-1.67637 0.44254,-2.60673 0,-0.71345 -0.0866,-1.39115 -0.26059,-2.0331 -0.0199,-0.0723 -0.0405,-0.1446 -0.062,-0.2161 -0.0652,-0.21134 -0.13982,-0.4187 -0.22325,-0.62208 z"
         style="fill:url(#linearGradient1238);fill-opacity:1;stroke-width:0.0158899"
         inkscape:connector-curvature="0" />
      <path
         inkscape:connector-curvature="0"
         style="fill:url(#linearGradient1236);fill-opacity:1;fill-rule:nonzero;stroke:none;stroke-width:0.0410803"
         d="m 328,250.36743 c -3.51107,0 -6.36744,-2.85636 -6.36744,-6.36743 0,-3.51108 2.85636,-6.36743 6.36744,-6.36743 3.51107,0 6.36743,2.85635 6.36743,6.36743 0,3.51107 -2.85636,6.36743 -6.36743,6.36743 z m 0,0"
         id="path1222" />
      <path
         inkscape:connector-curvature="0"
         style="fill:url(#linearGradient1234);fill-opacity:1;fill-rule:nonzero;stroke:none;stroke-width:0.0410803"
         d="m 328,239.07037 c -2.72253,0 -4.92962,2.2071 -4.92962,4.92963 0,2.72252 2.2071,4.92962 4.92962,4.92962 2.72252,0 4.92962,-2.2071 4.92962,-4.92962 0,-2.72253 -2.2071,-4.92963 -4.92962,-4.92963 z m 0,0"
         id="path1224" />
      <path
         inkscape:connector-curvature="0"
         style="fill:url(#linearGradient1232);fill-opacity:1;fill-rule:nonzero;stroke:none;stroke-width:0.0410803"
         d="m 328,241.53519 c -1.36127,0 -2.46481,1.10355 -2.46481,2.46481 0,1.36126 1.10354,2.46481 2.46481,2.46481 1.36126,0 2.46481,-1.10355 2.46481,-2.46481 0,-1.36126 -1.10355,-2.46481 -2.46481,-2.46481 z m 0,0"
         id="path1226" />
    </g>
    <g
       inkscape:groupmode="layer"
       id="layer6"
       inkscape:label="Pictograms and folds"
       style="display:inline">
      <path
         inkscape:connector-curvature="0"
         style="display:inline;enable-background:new;fill:url(#radialGradient859);fill-opacity:1;fill-rule:nonzero;stroke:none;stroke-width:0.613465"
         d="m 137.99784,209.85865 v -55.86841 l 10.20843,-10.20843 -10.20843,-10.21322 v -29.1156 h 29.55652 v 55.8684 l -10.20844,10.21322 10.20844,10.20844 v 29.1156 z m 0,0"
         id="path855" />
      <path
         inkscape:connector-curvature="0"
         style="display:inline;enable-background:new;fill:url(#radialGradient1170);fill-opacity:1;fill-rule:nonzero;stroke:none;stroke-width:0.123241"
         d="M 341.1953,94.653062 V 83.429497 l 2.0508,-2.0508 -2.0508,-2.051762 v -5.849116 h 5.9377 V 84.70138 l -2.05081,2.051763 2.05081,2.050803 v 5.849116 z m 0,0"
         id="path1168" />
      <path
         inkscape:connector-curvature="0"
         style="display:inline;enable-background:new;fill:url(#radialGradient1190);fill-opacity:1;fill-rule:nonzero;stroke:none;stroke-width:0.079422"
         d="m 334.08675,154.82313 v -7.23296 l 1.32162,-1.32163 -1.32162,-1.32225 v -3.76943 h 3.82651 v 7.23296 l -1.32163,1.32225 1.32163,1.32163 v 3.76943 z m 0,0"
         id="path1188" />
      <path
         inkscape:connector-curvature="0"
         style="display:inline;enable-background:new;fill:url(#radialGradient1210);fill-opacity:1;fill-rule:nonzero;stroke:none;stroke-width:0.0629898"
         d="m 330.56649,205.42166 v -5.73649 l 1.04818,-1.04819 -1.04818,-1.04868 v -2.98954 h 3.03482 v 5.73648 l -1.04819,1.04868 1.04819,1.04819 v 2.98955 z m 0,0"
         id="path1208" />
      <path
         inkscape:connector-curvature="0"
         style="display:inline;enable-background:new;fill:url(#radialGradient1230);fill-opacity:1;fill-rule:nonzero;stroke:none;stroke-width:0.0410803"
         d="m 327.01038,247.52921 v -3.74119 l 0.6836,-0.68361 -0.6836,-0.68392 v -1.9497 h 1.97923 v 3.74118 l -0.6836,0.68393 0.6836,0.6836 v 1.94971 z m 0,0"
         id="path1228" />
    </g>
    <g
       inkscape:groupmode="layer"
       id="layer2"
       inkscape:label="Borders"
       style="display:inline"
       sodipodi:insensitive="true">
      <circle
         style="display:inline;opacity:0.4;vector-effect:none;fill:none;fill-opacity:1;stroke:#000000;stroke-width:1;stroke-linecap:butt;stroke-linejoin:round;stroke-miterlimit:4;stroke-dasharray:none;stroke-dashoffset:6.6;stroke-opacity:1;enable-background:new"
         id="path1377"
         cx="328.00003"
         cy="244.00002"
         r="7.5000005" />
      <ellipse
         style="display:inline;opacity:0.4;vector-effect:none;fill:none;fill-opacity:1;stroke:#000000;stroke-width:1;stroke-linecap:butt;stroke-linejoin:round;stroke-miterlimit:4;stroke-dasharray:none;stroke-dashoffset:6.6;stroke-opacity:1;enable-background:new"
         id="path1384"
         cx="332"
         cy="199.97676"
         rx="11.454546"
         ry="11.476745" />
      <circle
         style="display:inline;opacity:0.4;vector-effect:none;fill:none;fill-opacity:1;stroke:#000000;stroke-width:1;stroke-linecap:butt;stroke-linejoin:round;stroke-miterlimit:4;stroke-dasharray:none;stroke-dashoffset:6.6;stroke-opacity:1;enable-background:new"
         id="path1389"
         cx="336"
         cy="148"
         r="14.5" />
      <circle
         style="display:inline;opacity:0.4;vector-effect:none;fill:none;fill-opacity:1;stroke:#000000;stroke-width:1;stroke-linecap:butt;stroke-linejoin:round;stroke-miterlimit:4;stroke-dasharray:none;stroke-dashoffset:6.6;stroke-opacity:1;enable-background:new"
         id="path1389-3"
         cx="344"
         cy="84"
         r="22.5" />
      <path
         inkscape:connector-curvature="0"
         style="display:inline;opacity:0.2;fill:#000000;fill-opacity:1;stroke:none;stroke-width:1;stroke-linecap:round;stroke-linejoin:round;stroke-miterlimit:4;stroke-dasharray:none;stroke-opacity:1;enable-background:new"
         d="m 152,267.99999 a 112,112 0 0 1 -112,-112 112,112 0 0 1 0.04102,-1.16992 A 112,112 0 0 0 152,265.99999 112,112 0 0 0 263.95898,155.16991 a 112,112 0 0 1 0.041,0.83008 112,112 0 0 1 -112,112 z"
         id="path11042-1-7" />
      <path
         style="display:inline;opacity:0.3;fill:#ffffff;fill-opacity:1;stroke:none;stroke-width:1;stroke-linecap:round;stroke-linejoin:round;stroke-miterlimit:4;stroke-dasharray:none;stroke-opacity:1;enable-background:new"
         d="M 152,43.999994 A 112,112 0 0 0 40,155.99999 112,112 0 0 0 40.04102,157.16991 112,112 0 0 1 152,45.999994 112,112 0 0 1 263.95898,156.83007 a 112,112 0 0 0 0.041,-0.83008 112,112 0 0 0 -112,-111.999996 z"
         id="path11042-1"
         inkscape:connector-curvature="0" />
    </g>
    <g
       inkscape:groupmode="layer"
       id="layer5"
       inkscape:label="Highlights"
       style="display:inline;opacity:0.8"
       sodipodi:insensitive="true">
      <path
         style="display:inline;opacity:1;fill:url(#linearGradient8590);fill-opacity:1;stroke:none;stroke-width:1.8694;stroke-linecap:round;stroke-linejoin:round;stroke-miterlimit:4;stroke-dasharray:none;stroke-opacity:1;enable-background:new"
         d="M 344,62.000016 A 22,21.99999 0 0 0 322,84.000013 22,21.99999 0 0 0 344,106 22,21.99999 0 0 0 366,84.000013 22,21.99999 0 0 0 344,62.000016 Z m 0,0.956532 A 21.043478,21.043469 0 0 1 365.04348,84.000013 21.043478,21.043469 0 0 1 344,105.04348 21.043478,21.043469 0 0 1 322.95652,84.000013 21.043478,21.043469 0 0 1 344,62.956548 Z"
         id="path9498-1-6"
         inkscape:connector-curvature="0" />
      <path
         style="display:inline;opacity:1;fill:url(#linearGradient8590-3);fill-opacity:1;stroke:none;stroke-width:1.8694;stroke-linecap:round;stroke-linejoin:round;stroke-miterlimit:4;stroke-dasharray:none;stroke-opacity:1;enable-background:new"
         d="m 336,134 c -7.73199,0 -14,6.26802 -14,14 0,7.73198 6.26801,14 14,14 7.73199,0 14,-6.26802 14,-14 0,-7.73198 -6.26801,-14 -14,-14 z m 0,1 a 13,13 0 0 1 13,13 13,13 0 0 1 -13,13 13,13 0 0 1 -13,-13 13,13 0 0 1 13,-13 z"
         id="path9498-1-6-7"
         inkscape:connector-curvature="0" />
      <path
         style="display:inline;opacity:1;fill:url(#linearGradient8590-3-3);fill-opacity:1;stroke:none;stroke-width:1.8694;stroke-linecap:round;stroke-linejoin:round;stroke-miterlimit:4;stroke-dasharray:none;stroke-opacity:1;enable-background:new"
         d="m 332,189 c -6.07513,0 -11,4.92488 -11,11 0,6.07513 4.92487,11 11,11 6.07513,0 11,-4.92487 11,-11 0,-6.07512 -4.92487,-11 -11,-11 z m 0,1 a 10,10 0 0 1 10,10 10,10 0 0 1 -10,10 10,10 0 0 1 -10,-10 10,10 0 0 1 10,-10 z"
         id="path9498-1-6-7-2"
         inkscape:connector-curvature="0" />
      <path
         style="display:inline;opacity:1;fill:url(#linearGradient8590-3-3-4);fill-opacity:1;stroke:none;stroke-width:1.8694;stroke-linecap:round;stroke-linejoin:round;stroke-miterlimit:4;stroke-dasharray:none;stroke-opacity:1;enable-background:new"
         d="m 328,237 c -3.86599,0 -7,3.13402 -7,7 0,3.86599 3.13401,7 7,7 3.866,0 7,-3.13401 7,-7 0,-3.86598 -3.134,-7 -7,-7 z m 0,1 a 6,6 0 0 1 6,6 6,6 0 0 1 -6,6 6,6 0 0 1 -6,-6 6,6 0 0 1 6,-6 z"
         id="path9498-1-6-7-2-0"
         inkscape:connector-curvature="0" />
    </g>
  </g>
</svg>
