<?xml version="1.0" encoding="UTF-8" standalone="no"?>
<svg
   inkscape:export-ydpi="90.000000"
   inkscape:export-xdpi="90.000000"
   width="400"
   height="300"
   id="svg11300"
   sodipodi:version="0.32"
   inkscape:version="1.2.2 (b0a8486541, 2022-12-01)"
   sodipodi:docname="quadrapassel.svg"
   inkscape:output_extension="org.inkscape.output.svg.inkscape"
   version="1.0"
   style="display:inline;enable-background:new"
   inkscape:export-filename="/home/sam/suru-template.png"
   xmlns:inkscape="http://www.inkscape.org/namespaces/inkscape"
   xmlns:sodipodi="http://sodipodi.sourceforge.net/DTD/sodipodi-0.dtd"
   xmlns:xlink="http://www.w3.org/1999/xlink"
   xmlns="http://www.w3.org/2000/svg"
   xmlns:svg="http://www.w3.org/2000/svg"
   xmlns:rdf="http://www.w3.org/1999/02/22-rdf-syntax-ns#"
   xmlns:cc="http://creativecommons.org/ns#"
   xmlns:dc="http://purl.org/dc/elements/1.1/">
  <title
     id="title3004">Suru Icon Theme Template</title>
  <sodipodi:namedview
     stroke="#ef2929"
     fill="#f57900"
     id="base"
     pagecolor="#ffffff"
     bordercolor="#000000"
     borderopacity="0.25490196"
     inkscape:pageopacity="0"
     inkscape:pageshadow="2"
     inkscape:zoom="1.4142136"
     inkscape:cx="329.51176"
     inkscape:cy="212.83914"
     inkscape:current-layer="layer2"
     showgrid="false"
     inkscape:grid-bbox="true"
     inkscape:document-units="px"
     inkscape:showpageshadow="false"
     inkscape:window-width="1920"
     inkscape:window-height="1020"
     inkscape:window-x="0"
     inkscape:window-y="32"
     width="400px"
     height="300px"
     inkscape:snap-nodes="true"
     inkscape:snap-bbox="true"
     gridtolerance="10000"
     inkscape:object-nodes="true"
     inkscape:snap-grids="true"
     showguides="true"
     inkscape:guide-bbox="true"
     inkscape:window-maximized="1"
     inkscape:bbox-paths="true"
     inkscape:snap-bbox-midpoints="true"
     inkscape:snap-global="true"
     inkscape:object-paths="true"
     inkscape:snap-intersection-paths="true"
     inkscape:snap-smooth-nodes="true"
     inkscape:pagecheckerboard="false"
     showborder="false"
     inkscape:document-rotation="0"
     inkscape:deskcolor="#d1d1d1">
    <inkscape:grid
       spacingy="1"
       spacingx="1"
       id="grid5883"
       type="xygrid"
       enabled="true"
       visible="true"
       empspacing="4"
       snapvisiblegridlinesonly="true"
       originx="0"
       originy="0" />
    <inkscape:grid
       type="xygrid"
       id="grid11592"
       empspacing="2"
       visible="true"
       enabled="false"
       spacingx="0.5"
       spacingy="0.5"
       color="#ff0000"
       opacity="0.1254902"
       empcolor="#ff0000"
       empopacity="0.25098039"
       snapvisiblegridlinesonly="true"
       originx="0"
       originy="0" />
  </sodipodi:namedview>
  <defs
     id="defs3">
    <linearGradient
       id="a"
       x2="1"
       gradientTransform="matrix(-1.8088118,-223.08691,223.08691,-1.8088118,128.96931,266.94069)"
       gradientUnits="userSpaceOnUse">
      <stop
         stop-color="#a80710"
         offset="0"
         id="stop22" />
      <stop
         stop-color="#f84e4e"
         offset="1"
         id="stop24" />
    </linearGradient>
    <linearGradient
       inkscape:collect="always"
       xlink:href="#a"
       id="linearGradient237"
       gradientUnits="userSpaceOnUse"
       gradientTransform="matrix(-0.37145242,-45.81249,45.81249,-0.37145242,339.27048,106.78246)"
       x2="1" />
    <linearGradient
       inkscape:collect="always"
       xlink:href="#a"
       id="linearGradient241"
       gradientUnits="userSpaceOnUse"
       gradientTransform="matrix(-0.24225158,-29.877711,29.877711,-0.24225158,332.91554,162.85812)"
       x2="1" />
    <linearGradient
       inkscape:collect="always"
       xlink:href="#a"
       id="linearGradient245"
       gradientUnits="userSpaceOnUse"
       gradientTransform="matrix(-0.18572621,-22.906245,22.906245,-0.18572621,329.63525,211.39123)"
       x2="1" />
    <linearGradient
       inkscape:collect="always"
       xlink:href="#a"
       id="linearGradient249"
       gradientUnits="userSpaceOnUse"
       gradientTransform="matrix(-0.12112579,-14.938855,14.938855,-0.12112579,326.45777,251.42906)"
       x2="1" />
  </defs>
  <metadata
     id="metadata4">
    <rdf:RDF>
      <cc:Work
         rdf:about="">
        <dc:format>image/svg+xml</dc:format>
        <dc:type
           rdf:resource="http://purl.org/dc/dcmitype/StillImage" />
        <dc:creator>
          <cc:Agent>
            <dc:title>Sam Hewitt</dc:title>
          </cc:Agent>
        </dc:creator>
        <dc:source />
        <cc:license
           rdf:resource="http://creativecommons.org/licenses/by-sa/4.0/" />
        <dc:title>Suru Icon Theme Template</dc:title>
        <dc:subject>
          <rdf:Bag />
        </dc:subject>
        <dc:date />
        <dc:rights>
          <cc:Agent>
            <dc:title />
          </cc:Agent>
        </dc:rights>
        <dc:publisher>
          <cc:Agent>
            <dc:title />
          </cc:Agent>
        </dc:publisher>
        <dc:identifier />
        <dc:relation />
        <dc:language />
        <dc:coverage />
        <dc:description />
        <dc:contributor>
          <cc:Agent>
            <dc:title />
          </cc:Agent>
        </dc:contributor>
      </cc:Work>
      <cc:Work
         rdf:about="">
        <dc:format>image/svg+xml</dc:format>
        <dc:type
           rdf:resource="http://purl.org/dc/dcmitype/StillImage" />
      </cc:Work>
      <cc:License
         rdf:about="http://creativecommons.org/licenses/by-sa/4.0/">
        <cc:permits
           rdf:resource="http://creativecommons.org/ns#Reproduction" />
        <cc:permits
           rdf:resource="http://creativecommons.org/ns#Distribution" />
        <cc:requires
           rdf:resource="http://creativecommons.org/ns#Notice" />
        <cc:requires
           rdf:resource="http://creativecommons.org/ns#Attribution" />
        <cc:permits
           rdf:resource="http://creativecommons.org/ns#DerivativeWorks" />
        <cc:requires
           rdf:resource="http://creativecommons.org/ns#ShareAlike" />
      </cc:License>
    </rdf:RDF>
  </metadata>
  <g
     style="display:inline"
     inkscape:groupmode="layer"
     inkscape:label="Icon"
     id="layer1">
    <g
       style="display:none"
       inkscape:label="Baseplate"
       id="layer7"
       inkscape:groupmode="layer">
      <text
         y="-8.2548828"
         xml:space="preserve"
         x="19.006836"
         style="font-style:normal;font-variant:normal;font-weight:normal;font-stretch:normal;line-height:0%;font-family:'DejaVu Sans';-inkscape-font-specification:'DejaVu Sans';display:inline;fill:#000000;fill-opacity:1;stroke:none;enable-background:new"
         inkscape:label="context"
         id="context"><tspan
           style="font-style:normal;font-variant:normal;font-weight:normal;font-stretch:normal;font-size:18px;line-height:1.25;font-family:'DejaVu Sans';-inkscape-font-specification:'DejaVu Sans'"
           y="-8.2548828"
           x="19.006836"
           sodipodi:role="line"
           id="tspan3933">apps</tspan></text>
      <text
         y="-8.2548828"
         xml:space="preserve"
         x="146.48828"
         style="font-style:normal;font-variant:normal;font-weight:bold;font-stretch:normal;line-height:0%;font-family:'DejaVu Sans';-inkscape-font-specification:'DejaVu Sans Bold';text-align:start;writing-mode:lr-tb;text-anchor:start;display:inline;fill:#000000;fill-opacity:1;stroke:none;enable-background:new"
         inkscape:label="icon-name"
         id="icon-name"><tspan
           style="font-style:normal;font-variant:normal;font-weight:bold;font-stretch:normal;font-size:18px;line-height:1.25;font-family:'DejaVu Sans';-inkscape-font-specification:'DejaVu Sans Bold'"
           y="-8.2548828"
           x="146.48828"
           sodipodi:role="line"
           id="tspan924">quadrapassel</tspan></text>
      <rect
         style="display:inline;overflow:visible;visibility:visible;fill:#cdcdcd;fill-opacity:1;fill-rule:nonzero;stroke:none;stroke-width:2;marker:none;enable-background:accumulate"
         id="rect16x16"
         width="16"
         height="16"
         x="320"
         y="236"
         inkscape:label="16x16" />
      <rect
         style="display:inline;overflow:visible;visibility:visible;fill:#cdcdcd;fill-opacity:1;fill-rule:nonzero;stroke:none;stroke-width:2;marker:none;enable-background:accumulate"
         id="rect24x24"
         width="24"
         height="24"
         x="320"
         y="188"
         inkscape:label="24x24" />
      <rect
         style="display:inline;overflow:visible;visibility:visible;fill:#cdcdcd;fill-opacity:1;fill-rule:nonzero;stroke:none;stroke-width:2;marker:none;enable-background:accumulate"
         id="rect32x32"
         width="32"
         height="32"
         x="320"
         y="132"
         inkscape:label="32x32" />
      <rect
         inkscape:label="48x48"
         y="60"
         x="320"
         height="48"
         width="48"
         id="rect48x48"
         style="display:inline;overflow:visible;visibility:visible;fill:#cdcdcd;fill-opacity:1;fill-rule:nonzero;stroke:none;stroke-width:2;marker:none;enable-background:accumulate" />
      <rect
         style="display:inline;overflow:visible;visibility:visible;fill:#cdcdcd;fill-opacity:1;fill-rule:nonzero;stroke:none;stroke-width:2;marker:none;enable-background:accumulate"
         id="rect256x256"
         width="256"
         height="256"
         x="24"
         y="28"
         inkscape:label="256x256" />
    </g>
    <g
       inkscape:groupmode="layer"
       id="layer2"
       inkscape:label="Background"
       style="display:inline">
      <path
         d="m 149.05263,203.15789 c 0,-3.2539 -2.64083,-5.89473 -5.89473,-5.89473 H 84.21053 c -3.25386,0 -5.89474,2.64083 -5.89474,5.89473 v 58.94737 c 0,3.25391 2.64088,5.89474 5.89474,5.89474 h 58.94737 c 3.2539,0 5.89473,-2.64083 5.89473,-5.89474 z m 76.63158,0 c 0,-3.2539 -2.64083,-5.89473 -5.89474,-5.89473 h -58.94736 c -3.25386,0 -5.89474,2.64083 -5.89474,5.89473 v 58.94737 c 0,3.25391 2.64088,5.89474 5.89474,5.89474 h 58.94736 c 3.25391,0 5.89474,-2.64083 5.89474,-5.89474 z m -76.63158,-76.63157 c 0,-3.25391 -2.64083,-5.89474 -5.89473,-5.89474 H 84.21053 c -3.25386,0 -5.89474,2.64083 -5.89474,5.89474 v 58.94736 c 0,3.25391 2.64088,5.89474 5.89474,5.89474 h 58.94737 c 3.2539,0 5.89473,-2.64083 5.89473,-5.89474 z m 0,-76.63158 C 149.05263,46.64083 146.4118,44 143.1579,44 H 84.21053 c -3.25386,0 -5.89474,2.64083 -5.89474,5.89474 v 58.94737 c 0,3.2539 2.64088,5.89473 5.89474,5.89473 h 58.94737 c 3.2539,0 5.89473,-2.64083 5.89473,-5.89473 z"
         fill="url(#a)"
         id="path27"
         style="fill:url(#a);stroke-width:5.89474" />
      <path
         d="m 343.39473,93.68421 c 0,-0.668212 -0.54231,-1.210525 -1.21052,-1.210525 h -12.10526 c -0.66821,0 -1.21053,0.542313 -1.21053,1.210525 v 12.10526 c 0,0.66822 0.54232,1.21053 1.21053,1.21053 h 12.10526 c 0.66821,0 1.21052,-0.54231 1.21052,-1.21053 z m 15.73685,0 c 0,-0.668212 -0.54232,-1.210525 -1.21053,-1.210525 h -12.10526 c -0.6682,0 -1.21053,0.542313 -1.21053,1.210525 v 12.10526 c 0,0.66822 0.54233,1.21053 1.21053,1.21053 h 12.10526 c 0.66821,0 1.21053,-0.54231 1.21053,-1.21053 z M 343.39473,77.947369 c 0,-0.668213 -0.54231,-1.210527 -1.21052,-1.210527 h -12.10526 c -0.66821,0 -1.21053,0.542314 -1.21053,1.210527 v 12.105262 c 0,0.668213 0.54232,1.210527 1.21053,1.210527 h 12.10526 c 0.66821,0 1.21052,-0.542314 1.21052,-1.210527 z m 0,-15.736842 C 343.39473,61.542313 342.85242,61 342.18421,61 h -12.10526 c -0.66821,0 -1.21053,0.542313 -1.21053,1.210527 V 74.31579 c 0,0.668212 0.54232,1.210525 1.21053,1.210525 h 12.10526 c 0.66821,0 1.21052,-0.542313 1.21052,-1.210525 z"
         fill="url(#a)"
         id="path235"
         style="fill:url(#linearGradient237);stroke-width:1.21053" />
      <path
         d="m 335.60526,154.31579 c 0,-0.43579 -0.35368,-0.78947 -0.78947,-0.78947 h -7.89473 c -0.43579,0 -0.78948,0.35368 -0.78948,0.78947 v 7.89473 c 0,0.4358 0.35369,0.78948 0.78948,0.78948 h 7.89473 c 0.43579,0 0.78947,-0.35368 0.78947,-0.78948 z m 10.26316,0 c 0,-0.43579 -0.35368,-0.78947 -0.78947,-0.78947 h -7.89474 c -0.43578,0 -0.78947,0.35368 -0.78947,0.78947 v 7.89473 c 0,0.4358 0.35369,0.78948 0.78947,0.78948 h 7.89474 c 0.43579,0 0.78947,-0.35368 0.78947,-0.78948 z m -10.26316,-10.26316 c 0,-0.43579 -0.35368,-0.78947 -0.78947,-0.78947 h -7.89473 c -0.43579,0 -0.78948,0.35368 -0.78948,0.78947 v 7.89474 c 0,0.43579 0.35369,0.78947 0.78948,0.78947 h 7.89473 c 0.43579,0 0.78947,-0.35368 0.78947,-0.78947 z m 0,-10.26316 c 0,-0.43579 -0.35368,-0.78947 -0.78947,-0.78947 h -7.89473 c -0.43579,0 -0.78948,0.35368 -0.78948,0.78947 v 7.89474 c 0,0.43579 0.35369,0.78947 0.78948,0.78947 h 7.89473 c 0.43579,0 0.78947,-0.35368 0.78947,-0.78947 z"
         fill="url(#a)"
         id="path239"
         style="fill:url(#linearGradient241);stroke-width:0.789476" />
      <path
         d="m 331.69736,204.84211 c 0,-0.33411 -0.27115,-0.60526 -0.60526,-0.60526 h -6.05262 c -0.33411,0 -0.60527,0.27115 -0.60527,0.60526 v 6.05262 c 0,0.33412 0.27116,0.60527 0.60527,0.60527 h 6.05262 c 0.33411,0 0.60526,-0.27115 0.60526,-0.60527 z m 7.86843,0 c 0,-0.33411 -0.27116,-0.60526 -0.60526,-0.60526 h -6.05264 c -0.3341,0 -0.60526,0.27115 -0.60526,0.60526 v 6.05262 c 0,0.33412 0.27116,0.60527 0.60526,0.60527 h 6.05264 c 0.3341,0 0.60526,-0.27115 0.60526,-0.60527 z m -7.86843,-7.86843 c 0,-0.3341 -0.27115,-0.60526 -0.60526,-0.60526 h -6.05262 c -0.33411,0 -0.60527,0.27116 -0.60527,0.60526 v 6.05264 c 0,0.3341 0.27116,0.60526 0.60527,0.60526 h 6.05262 c 0.33411,0 0.60526,-0.27116 0.60526,-0.60526 z m 0,-7.86842 c 0,-0.33411 -0.27115,-0.60526 -0.60526,-0.60526 h -6.05262 c -0.33411,0 -0.60527,0.27115 -0.60527,0.60526 v 6.05263 c 0,0.33411 0.27116,0.60526 0.60527,0.60526 h 6.05262 c 0.33411,0 0.60526,-0.27115 0.60526,-0.60526 z"
         fill="url(#a)"
         id="path243"
         style="fill:url(#linearGradient245);stroke-width:0.605265" />
      <path
         d="m 327.80263,247.1579 c 0,-0.2179 -0.17684,-0.39474 -0.39474,-0.39474 h -3.94736 c -0.2179,0 -0.39474,0.17684 -0.39474,0.39474 v 3.94736 c 0,0.2179 0.17684,0.39474 0.39474,0.39474 h 3.94736 c 0.2179,0 0.39474,-0.17684 0.39474,-0.39474 z m 5.13158,0 c 0,-0.2179 -0.17684,-0.39474 -0.39473,-0.39474 h -3.94738 c -0.21789,0 -0.39473,0.17684 -0.39473,0.39474 v 3.94736 c 0,0.2179 0.17684,0.39474 0.39473,0.39474 h 3.94738 c 0.21789,0 0.39473,-0.17684 0.39473,-0.39474 z m -5.13158,-5.13159 c 0,-0.21789 -0.17684,-0.39473 -0.39474,-0.39473 h -3.94736 c -0.2179,0 -0.39474,0.17684 -0.39474,0.39473 v 3.94738 c 0,0.21789 0.17684,0.39473 0.39474,0.39473 h 3.94736 c 0.2179,0 0.39474,-0.17684 0.39474,-0.39473 z m 0,-5.13158 c 0,-0.21789 -0.17684,-0.39473 -0.39474,-0.39473 h -3.94736 c -0.2179,0 -0.39474,0.17684 -0.39474,0.39473 v 3.94737 c 0,0.2179 0.17684,0.39474 0.39474,0.39474 h 3.94736 c 0.2179,0 0.39474,-0.17684 0.39474,-0.39474 z"
         fill="url(#a)"
         id="path247"
         style="fill:url(#linearGradient249);stroke-width:0.394738" />
    </g>
    <g
       inkscape:groupmode="layer"
       id="layer6"
       inkscape:label="Pictogram"
       style="display:inline" />
  </g>
</svg>
