<?xml version="1.0" encoding="UTF-8" standalone="no"?>
<svg
   inkscape:export-ydpi="90.000000"
   inkscape:export-xdpi="90.000000"
   width="400"
   height="300"
   id="svg11300"
   sodipodi:version="0.32"
   inkscape:version="1.2.2 (b0a8486541, 2022-12-01)"
   sodipodi:docname="rhythmbox.svg"
   inkscape:output_extension="org.inkscape.output.svg.inkscape"
   version="1.0"
   style="display:inline;enable-background:new"
   inkscape:export-filename="/home/sam/suru-template.png"
   xmlns:inkscape="http://www.inkscape.org/namespaces/inkscape"
   xmlns:sodipodi="http://sodipodi.sourceforge.net/DTD/sodipodi-0.dtd"
   xmlns:xlink="http://www.w3.org/1999/xlink"
   xmlns="http://www.w3.org/2000/svg"
   xmlns:svg="http://www.w3.org/2000/svg"
   xmlns:rdf="http://www.w3.org/1999/02/22-rdf-syntax-ns#"
   xmlns:cc="http://creativecommons.org/ns#"
   xmlns:dc="http://purl.org/dc/elements/1.1/">
  <title
     id="title3004">Suru Icon Theme Template</title>
  <sodipodi:namedview
     stroke="#ef2929"
     fill="#f57900"
     id="base"
     pagecolor="#ffffff"
     bordercolor="#000000"
     borderopacity="0.25490196"
     inkscape:pageopacity="0"
     inkscape:pageshadow="2"
     inkscape:zoom="2"
     inkscape:cx="272.5"
     inkscape:cy="139"
     inkscape:current-layer="layer6"
     showgrid="false"
     inkscape:grid-bbox="true"
     inkscape:document-units="px"
     inkscape:showpageshadow="false"
     inkscape:window-width="1920"
     inkscape:window-height="1020"
     inkscape:window-x="0"
     inkscape:window-y="32"
     width="400px"
     height="300px"
     inkscape:snap-nodes="true"
     inkscape:snap-bbox="true"
     gridtolerance="10000"
     inkscape:object-nodes="true"
     inkscape:snap-grids="true"
     showguides="true"
     inkscape:guide-bbox="true"
     inkscape:window-maximized="1"
     inkscape:bbox-paths="true"
     inkscape:snap-bbox-midpoints="true"
     inkscape:snap-global="true"
     inkscape:object-paths="true"
     inkscape:snap-intersection-paths="true"
     inkscape:snap-smooth-nodes="true"
     inkscape:pagecheckerboard="false"
     showborder="false"
     inkscape:document-rotation="0"
     inkscape:deskcolor="#d1d1d1">
    <inkscape:grid
       spacingy="1"
       spacingx="1"
       id="grid5883"
       type="xygrid"
       enabled="true"
       visible="true"
       empspacing="4"
       snapvisiblegridlinesonly="true"
       originx="0"
       originy="0" />
    <inkscape:grid
       type="xygrid"
       id="grid11592"
       empspacing="2"
       visible="true"
       enabled="false"
       spacingx="0.5"
       spacingy="0.5"
       color="#ff0000"
       opacity="0.1254902"
       empcolor="#ff0000"
       empopacity="0.25098039"
       snapvisiblegridlinesonly="true"
       originx="0"
       originy="0" />
  </sodipodi:namedview>
  <defs
     id="defs3">
    <linearGradient
       id="a"
       x2="1"
       gradientTransform="matrix(-0.476427,-44.666,44.666,-0.476427,97.8031,45.5388)"
       gradientUnits="userSpaceOnUse">
      <stop
         stop-color="#bcbcbc"
         offset="0"
         id="stop2" />
      <stop
         stop-color="#e2e2e2"
         offset="1"
         id="stop4" />
    </linearGradient>
    <linearGradient
       id="b"
       x2="1"
       gradientTransform="matrix(0.0845073,-32.6197,32.6197,0.0845073,254.054,40.6971)"
       gradientUnits="userSpaceOnUse">
      <stop
         stop-color="#d15a24"
         offset="0"
         id="stop7" />
      <stop
         stop-color="#ffd42a"
         offset="1"
         id="stop9" />
    </linearGradient>
    <linearGradient
       id="c"
       x2="1"
       gradientTransform="matrix(2.60044,-18.5124,18.5124,2.60044,521.076,102.359)"
       gradientUnits="userSpaceOnUse">
      <stop
         stop-color="#d5d5d5"
         offset="0"
         id="stop12" />
      <stop
         stop-color="#fcf9f9"
         offset="1"
         id="stop14" />
    </linearGradient>
    <linearGradient
       inkscape:collect="always"
       xlink:href="#a"
       id="linearGradient332"
       gradientUnits="userSpaceOnUse"
       gradientTransform="matrix(-0.49065602,-45.999999,45.999999,-0.49065602,420.00731,106.18208)"
       x2="1" />
    <linearGradient
       inkscape:collect="always"
       xlink:href="#b"
       id="linearGradient334"
       gradientUnits="userSpaceOnUse"
       gradientTransform="matrix(0.0870312,-33.593923,33.593923,0.0870312,580.92481,101.19578)"
       x2="1" />
    <linearGradient
       inkscape:collect="always"
       xlink:href="#c"
       id="linearGradient336"
       gradientUnits="userSpaceOnUse"
       gradientTransform="matrix(2.678105,-19.065293,19.065293,2.678105,855.92172,164.69928)"
       x2="1" />
    <linearGradient
       inkscape:collect="always"
       xlink:href="#a"
       id="linearGradient350"
       gradientUnits="userSpaceOnUse"
       gradientTransform="matrix(-0.31999306,-30,30,-0.31999306,385.56999,162.46658)"
       x2="1" />
    <linearGradient
       inkscape:collect="always"
       xlink:href="#b"
       id="linearGradient352"
       gradientUnits="userSpaceOnUse"
       gradientTransform="matrix(0.05675948,-21.909081,21.909081,0.05675948,490.51619,159.21464)"
       x2="1" />
    <linearGradient
       inkscape:collect="always"
       xlink:href="#c"
       id="linearGradient354"
       gradientUnits="userSpaceOnUse"
       gradientTransform="matrix(1.7465903,-12.433887,12.433887,1.7465903,669.862,200.62997)"
       x2="1" />
    <linearGradient
       inkscape:collect="always"
       xlink:href="#a"
       id="linearGradient368"
       gradientUnits="userSpaceOnUse"
       gradientTransform="matrix(-0.24532801,-23,23,-0.24532801,370.00366,211.09104)"
       x2="1" />
    <linearGradient
       inkscape:collect="always"
       xlink:href="#b"
       id="linearGradient370"
       gradientUnits="userSpaceOnUse"
       gradientTransform="matrix(0.0435156,-16.796962,16.796962,0.0435156,450.46241,208.59789)"
       x2="1" />
    <linearGradient
       inkscape:collect="always"
       xlink:href="#c"
       id="linearGradient372"
       gradientUnits="userSpaceOnUse"
       gradientTransform="matrix(1.3390525,-9.5326468,9.5326468,1.3390525,587.96087,240.34964)"
       x2="1" />
    <linearGradient
       inkscape:collect="always"
       xlink:href="#a"
       id="linearGradient386"
       gradientUnits="userSpaceOnUse"
       gradientTransform="matrix(-0.15999653,-15,15,-0.15999653,352.785,251.23329)"
       x2="1" />
    <linearGradient
       inkscape:collect="always"
       xlink:href="#b"
       id="linearGradient388"
       gradientUnits="userSpaceOnUse"
       gradientTransform="matrix(0.02837974,-10.95454,10.95454,0.02837974,405.2581,249.60732)"
       x2="1" />
    <linearGradient
       inkscape:collect="always"
       xlink:href="#c"
       id="linearGradient390"
       gradientUnits="userSpaceOnUse"
       gradientTransform="matrix(0.87329513,-6.2169436,6.2169436,0.87329513,494.931,270.31498)"
       x2="1" />
    <linearGradient
       inkscape:collect="always"
       xlink:href="#a"
       id="linearGradient397"
       gradientUnits="userSpaceOnUse"
       gradientTransform="matrix(-2.3892815,-224,224,-2.3892815,522.12256,264.01709)"
       x2="1" />
    <linearGradient
       inkscape:collect="always"
       xlink:href="#b"
       id="linearGradient399"
       gradientUnits="userSpaceOnUse"
       gradientTransform="matrix(0.42380413,-163.5878,163.5878,0.42380413,1305.7209,239.73596)"
       x2="1" />
    <linearGradient
       inkscape:collect="always"
       xlink:href="#c"
       id="linearGradient401"
       gradientUnits="userSpaceOnUse"
       gradientTransform="matrix(13.041207,-92.83969,92.83969,13.041207,2644.8362,548.9704)"
       x2="1" />
  </defs>
  <metadata
     id="metadata4">
    <rdf:RDF>
      <cc:Work
         rdf:about="">
        <dc:format>image/svg+xml</dc:format>
        <dc:type
           rdf:resource="http://purl.org/dc/dcmitype/StillImage" />
        <dc:creator>
          <cc:Agent>
            <dc:title>Sam Hewitt</dc:title>
          </cc:Agent>
        </dc:creator>
        <dc:source />
        <cc:license
           rdf:resource="http://creativecommons.org/licenses/by-sa/4.0/" />
        <dc:title>Suru Icon Theme Template</dc:title>
        <dc:subject>
          <rdf:Bag />
        </dc:subject>
        <dc:date />
        <dc:rights>
          <cc:Agent>
            <dc:title />
          </cc:Agent>
        </dc:rights>
        <dc:publisher>
          <cc:Agent>
            <dc:title />
          </cc:Agent>
        </dc:publisher>
        <dc:identifier />
        <dc:relation />
        <dc:language />
        <dc:coverage />
        <dc:description />
        <dc:contributor>
          <cc:Agent>
            <dc:title />
          </cc:Agent>
        </dc:contributor>
      </cc:Work>
      <cc:Work
         rdf:about="">
        <dc:format>image/svg+xml</dc:format>
        <dc:type
           rdf:resource="http://purl.org/dc/dcmitype/StillImage" />
      </cc:Work>
      <cc:License
         rdf:about="http://creativecommons.org/licenses/by-sa/4.0/">
        <cc:permits
           rdf:resource="http://creativecommons.org/ns#Reproduction" />
        <cc:permits
           rdf:resource="http://creativecommons.org/ns#Distribution" />
        <cc:requires
           rdf:resource="http://creativecommons.org/ns#Notice" />
        <cc:requires
           rdf:resource="http://creativecommons.org/ns#Attribution" />
        <cc:permits
           rdf:resource="http://creativecommons.org/ns#DerivativeWorks" />
        <cc:requires
           rdf:resource="http://creativecommons.org/ns#ShareAlike" />
      </cc:License>
    </rdf:RDF>
  </metadata>
  <g
     style="display:inline"
     inkscape:groupmode="layer"
     inkscape:label="Icon"
     id="layer1">
    <g
       style="display:none"
       inkscape:label="Baseplate"
       id="layer7"
       inkscape:groupmode="layer">
      <text
         y="-8.2548828"
         xml:space="preserve"
         x="19.006836"
         style="font-style:normal;font-variant:normal;font-weight:normal;font-stretch:normal;line-height:0%;font-family:'DejaVu Sans';-inkscape-font-specification:'DejaVu Sans';display:inline;fill:#000000;fill-opacity:1;stroke:none;enable-background:new"
         inkscape:label="context"
         id="context"><tspan
           style="font-style:normal;font-variant:normal;font-weight:normal;font-stretch:normal;font-size:18px;line-height:1.25;font-family:'DejaVu Sans';-inkscape-font-specification:'DejaVu Sans'"
           y="-8.2548828"
           x="19.006836"
           sodipodi:role="line"
           id="tspan3933">apps</tspan></text>
      <text
         y="-8.2548828"
         xml:space="preserve"
         x="146.48828"
         style="font-style:normal;font-variant:normal;font-weight:bold;font-stretch:normal;line-height:0%;font-family:'DejaVu Sans';-inkscape-font-specification:'DejaVu Sans Bold';text-align:start;writing-mode:lr-tb;text-anchor:start;display:inline;fill:#000000;fill-opacity:1;stroke:none;enable-background:new"
         inkscape:label="icon-name"
         id="icon-name"><tspan
           style="font-style:normal;font-variant:normal;font-weight:bold;font-stretch:normal;font-size:18px;line-height:1.25;font-family:'DejaVu Sans';-inkscape-font-specification:'DejaVu Sans Bold'"
           y="-8.2548828"
           x="146.48828"
           sodipodi:role="line"
           id="tspan924">rhythmbox</tspan></text>
      <rect
         style="display:inline;overflow:visible;visibility:visible;fill:#cdcdcd;fill-opacity:1;fill-rule:nonzero;stroke:none;stroke-width:2;marker:none;enable-background:accumulate"
         id="rect16x16"
         width="16"
         height="16"
         x="320"
         y="236"
         inkscape:label="16x16" />
      <rect
         style="display:inline;overflow:visible;visibility:visible;fill:#cdcdcd;fill-opacity:1;fill-rule:nonzero;stroke:none;stroke-width:2;marker:none;enable-background:accumulate"
         id="rect24x24"
         width="24"
         height="24"
         x="320"
         y="188"
         inkscape:label="24x24" />
      <rect
         style="display:inline;overflow:visible;visibility:visible;fill:#cdcdcd;fill-opacity:1;fill-rule:nonzero;stroke:none;stroke-width:2;marker:none;enable-background:accumulate"
         id="rect32x32"
         width="32"
         height="32"
         x="320"
         y="132"
         inkscape:label="32x32" />
      <rect
         inkscape:label="48x48"
         y="60"
         x="320"
         height="48"
         width="48"
         id="rect48x48"
         style="display:inline;overflow:visible;visibility:visible;fill:#cdcdcd;fill-opacity:1;fill-rule:nonzero;stroke:none;stroke-width:2;marker:none;enable-background:accumulate" />
      <rect
         style="display:inline;overflow:visible;visibility:visible;fill:#cdcdcd;fill-opacity:1;fill-rule:nonzero;stroke:none;stroke-width:2;marker:none;enable-background:accumulate"
         id="rect256x256"
         width="256"
         height="256"
         x="24"
         y="28"
         inkscape:label="256x256" />
    </g>
    <g
       inkscape:groupmode="layer"
       id="layer2"
       inkscape:label="Background"
       style="display:inline">
      <path
         d="m 217.2953,44 c 13.95675,0 25.27059,11.318856 25.27059,25.275601 v 52.938339 c 3.98191,10.53652 6.16343,21.92558 6.16343,33.78606 0,11.86048 -2.18152,23.24954 -6.16343,33.78606 V 242.7244 C 242.56589,256.68114 231.25205,268 217.2953,268 H 213.77477 90.225227 c -2.49747,0 -4.88461,-0.46138 -7.08118,-1.3039 -10.01997,-3.35504 -17.241571,-12.82336 -17.241571,-23.9717 V 199.84113 C 59.112166,186.65168 55.270676,171.73707 55.270676,156 c 0,-15.73707 3.84149,-30.65168 10.6318,-43.84113 V 69.275601 c 0,-11.148345 7.216586,-20.61165 17.231541,-23.971701 C 85.330587,44.46138 87.722742,44 90.225227,44 Z"
         fill="url(#a)"
         id="path17"
         style="fill:url(#linearGradient397);stroke-width:5.015" />
      <circle
         cx="152"
         cy="156"
         r="81.513809"
         fill="url(#b)"
         stroke="#4d4d4d"
         stroke-width="10.03"
         id="circle19"
         style="fill:url(#linearGradient399)" />
      <circle
         cx="152"
         cy="156"
         r="50.912285"
         fill="#a01e10"
         id="circle21"
         style="stroke-width:5.015" />
      <path
         d="m 357.40885,61.000001 c 2.86612,0 5.1895,2.324408 5.1895,5.190525 v 10.871266 c 0.81771,2.163749 1.2657,4.502575 1.2657,6.938208 0,2.435634 -0.44799,4.77446 -1.2657,6.938208 v 10.871262 c 0,2.86612 -2.32338,5.19053 -5.1895,5.19053 h -0.72296 -25.37178 c -0.51288,0 -1.00309,-0.0948 -1.45418,-0.26777 -2.05767,-0.68898 -3.54067,-2.63336 -3.54067,-4.92276 V 93.00309 C 324.92482,90.294542 324.13594,87.23172 324.13594,84 c 0,-3.231719 0.78888,-6.294541 2.18332,-9.003089 v -8.806385 c 0,-2.289392 1.48197,-4.23275 3.53862,-4.92276 0.45108,-0.173018 0.94232,-0.267765 1.45623,-0.267765 z"
         fill="url(#a)"
         id="path320"
         style="fill:url(#linearGradient332);stroke-width:1.02987" />
      <circle
         cx="344"
         cy="84"
         r="16.739443"
         fill="url(#b)"
         stroke="#4d4d4d"
         stroke-width="2.05973"
         id="circle322"
         style="fill:url(#linearGradient334)" />
      <circle
         cx="344"
         cy="84"
         r="10.455201"
         fill="#a01e10"
         id="circle324"
         style="stroke-width:1.02987" />
      <path
         d="m 344.74491,133 c 1.86921,0 3.38445,1.51592 3.38445,3.38513 v 7.08996 c 0.5333,1.41114 0.82546,2.93646 0.82546,4.52491 0,1.58846 -0.29216,3.11378 -0.82546,4.52492 v 7.08996 c 0,1.86921 -1.51524,3.38512 -3.38445,3.38512 h -0.4715 -16.54681 c -0.33449,0 -0.65419,-0.0618 -0.94838,-0.17463 -1.34196,-0.44933 -2.30913,-1.71741 -2.30913,-3.21049 v -5.7433 c -0.90942,-1.76644 -1.42391,-3.76393 -1.42391,-5.87158 0,-2.10764 0.51449,-4.10513 1.42391,-5.87158 v -5.74329 c 0,-1.49308 0.9665,-2.76049 2.30779,-3.2105 C 327.07106,133.0618 327.39144,133 327.7266,133 Z"
         fill="url(#a)"
         id="path338"
         style="fill:url(#linearGradient350);stroke-width:0.671652" />
      <circle
         cx="336"
         cy="148"
         r="10.917028"
         fill="url(#b)"
         stroke="#4d4d4d"
         stroke-width="1.3433"
         id="circle340"
         style="fill:url(#linearGradient352)" />
      <circle
         cx="336"
         cy="148"
         r="6.8186097"
         fill="#a01e10"
         id="circle342"
         style="stroke-width:0.671652" />
      <path
         d="m 338.70443,188.5 c 1.43306,0 2.59475,1.16221 2.59475,2.59527 v 5.43563 c 0.40886,1.08187 0.63285,2.25129 0.63285,3.4691 0,1.21782 -0.22399,2.38723 -0.63285,3.46911 v 5.43563 c 0,1.43306 -1.16169,2.59526 -2.59475,2.59526 h -0.36148 -12.68589 c -0.25644,0 -0.50155,-0.0474 -0.72709,-0.13388 -1.02883,-0.34449 -1.77034,-1.31668 -1.77034,-2.46138 v -4.40319 c -0.69722,-1.35428 -1.09166,-2.88569 -1.09166,-4.50155 0,-1.61586 0.39444,-3.14727 1.09166,-4.50154 v -4.40319 c 0,-1.1447 0.74099,-2.11638 1.76931,-2.46138 0.22554,-0.0865 0.47117,-0.13389 0.72812,-0.13389 z"
         fill="url(#a)"
         id="path356"
         style="fill:url(#linearGradient368);stroke-width:0.514933" />
      <circle
         cx="332"
         cy="200"
         r="8.3697214"
         fill="url(#b)"
         stroke="#4d4d4d"
         stroke-width="1.02987"
         id="circle358"
         style="fill:url(#linearGradient370)" />
      <circle
         cx="332"
         cy="200"
         r="5.2276006"
         fill="#a01e10"
         id="circle360"
         style="stroke-width:0.514933" />
      <path
         d="m 332.37246,236.5 c 0.9346,0 1.69222,0.75796 1.69222,1.69256 v 3.54498 c 0.26665,0.70557 0.41273,1.46823 0.41273,2.26246 0,0.79423 -0.14608,1.55689 -0.41273,2.26246 v 3.54498 c 0,0.9346 -0.75762,1.69256 -1.69222,1.69256 h -0.23575 -8.27341 c -0.16724,0 -0.3271,-0.0309 -0.47419,-0.0873 -0.67098,-0.22467 -1.15457,-0.85871 -1.15457,-1.60525 v -2.87165 c -0.45471,-0.88322 -0.71195,-1.88197 -0.71195,-2.93579 0,-1.05382 0.25724,-2.05257 0.71195,-2.93579 v -2.87165 c 0,-0.74654 0.48326,-1.38024 1.1539,-1.60524 0.14709,-0.0564 0.30728,-0.0873 0.47486,-0.0873 z"
         fill="url(#a)"
         id="path374"
         style="fill:url(#linearGradient386);stroke-width:0.335826" />
      <circle
         cx="328"
         cy="244"
         r="5.4585142"
         fill="url(#b)"
         stroke="#4d4d4d"
         stroke-width="0.671652"
         id="circle376"
         style="fill:url(#linearGradient388)" />
      <circle
         cx="328"
         cy="244"
         r="3.4093049"
         fill="#a01e10"
         id="circle378"
         style="stroke-width:0.335826" />
    </g>
    <g
       inkscape:groupmode="layer"
       id="layer6"
       inkscape:label="Pictogram"
       style="display:inline">
      <path
         d="m 174.83831,131.41145 c 8.32992,0.87261 13.53047,-6.48439 13.15435,-7.24166 -0.35105,-0.71213 -8.04406,0.79237 -18.57556,-4.61881 -4.33798,-2.22666 -11.7351,1.02306 -12.24162,3.46035 l -7.2868,51.91027 c -2.80338,-2.11132 -9.09721,-2.44231 -13.29476,-1.9057 -7.58268,0.97792 -12.26669,6.00797 -11.54453,12.21152 0.72717,6.18851 6.27878,8.74115 13.85644,7.76322 6.05311,-0.78234 14.13227,-3.67599 15.45623,-11.84041 l 6.75521,-45.5011 c 0,0 2.9087,-5.37107 13.72104,-4.23768 z"
         fill="url(#c)"
         fill-rule="nonzero"
         id="path23"
         style="display:inline;enable-background:new;fill:url(#linearGradient401);stroke-width:5.015" />
      <path
         d="m 224.83285,235.39748 c 0,-3.02404 -2.45735,-5.48641 -5.4814,-5.48641 h -10.96279 c -3.02404,0 -5.47638,2.46237 -5.47638,5.48641 v 18.91658 c 0,3.02906 2.45234,5.4814 5.47638,5.4814 h 10.96279 c 3.02405,0 5.4814,-2.45234 5.4814,-5.4814 z"
         fill="#5fb7ce"
         id="path25"
         style="display:inline;enable-background:new;stroke-width:5.015" />
      <path
         d="m 348.69001,78.950567 c 1.7106,0.179197 2.77858,-1.331617 2.70134,-1.487127 -0.0721,-0.146241 -1.65191,0.162719 -3.81463,-0.948506 -0.89083,-0.457261 -2.40989,0.210092 -2.5139,0.710607 l -1.4964,10.660144 c -0.57569,-0.433573 -1.86817,-0.501545 -2.73017,-0.391349 -1.55716,0.200824 -2.51905,1.23378 -2.37075,2.507724 0.14933,1.270855 1.28939,1.795057 2.84552,1.594233 1.24304,-0.160659 2.90216,-0.754892 3.17404,-2.431514 l 1.38723,-9.343975 c 0,0 0.59733,-1.102987 2.81772,-0.870237 z"
         fill="url(#c)"
         fill-rule="nonzero"
         id="path326"
         style="display:inline;enable-background:new;fill:url(#linearGradient336);stroke-width:1.02987" />
      <path
         d="m 358.95674,100.30484 c 0,-0.621009 -0.50463,-1.126673 -1.12564,-1.126673 h -2.25129 c -0.62101,0 -1.12461,0.505664 -1.12461,1.126673 v 3.88466 c 0,0.62203 0.5036,1.12564 1.12461,1.12564 h 2.25129 c 0.62101,0 1.12564,-0.50361 1.12564,-1.12564 z"
         fill="#5fb7ce"
         id="path328"
         style="display:inline;enable-background:new;stroke-width:1.02987" />
      <path
         d="m 339.05871,144.70689 c 1.11561,0.11687 1.81211,-0.86844 1.76174,-0.96986 -0.047,-0.0954 -1.07733,0.10612 -2.4878,-0.61859 -0.58098,-0.29822 -1.57166,0.13702 -1.6395,0.46344 l -0.97591,6.95227 c -0.37546,-0.28277 -1.21838,-0.3271 -1.78055,-0.25523 -1.01554,0.13097 -1.64286,0.80464 -1.54614,1.63547 0.0974,0.82882 0.8409,1.17069 1.85577,1.03972 0.81068,-0.10478 1.89272,-0.49232 2.07003,-1.58577 l 0.90472,-6.0939 c 0,0 0.38955,-0.71934 1.83764,-0.56755 z"
         fill="url(#c)"
         fill-rule="nonzero"
         id="path344"
         style="display:inline;enable-background:new;fill:url(#linearGradient354);stroke-width:0.671652" />
      <path
         d="m 345.7544,158.6336 c 0,-0.40501 -0.32911,-0.73479 -0.73411,-0.73479 h -1.46823 c -0.40501,0 -0.73345,0.32978 -0.73345,0.73479 v 2.53347 c 0,0.40567 0.32844,0.73411 0.73345,0.73411 h 1.46823 c 0.405,0 0.73411,-0.32844 0.73411,-0.73411 z"
         fill="#5fb7ce"
         id="path346"
         style="display:inline;enable-background:new;stroke-width:0.671652" />
      <path
         d="m 334.34501,197.47529 c 0.8553,0.0896 1.38929,-0.66581 1.35067,-0.74357 -0.036,-0.0731 -0.82595,0.0814 -1.90731,-0.47425 -0.44542,-0.22863 -1.20495,0.10505 -1.25696,0.3553 l -0.74819,5.33008 c -0.28785,-0.21679 -0.93409,-0.25078 -1.36509,-0.19568 -0.77858,0.10041 -1.25953,0.61689 -1.18538,1.25386 0.0747,0.63543 0.6447,0.89753 1.42276,0.79712 0.62153,-0.0803 1.45108,-0.37745 1.58703,-1.21576 l 0.69361,-4.67198 c 0,0 0.29866,-0.5515 1.40886,-0.43512 z"
         fill="url(#c)"
         fill-rule="nonzero"
         id="path362"
         style="display:inline;enable-background:new;fill:url(#linearGradient372);stroke-width:0.514933" />
      <path
         d="m 339.47838,208.15242 c 0,-0.3105 -0.25232,-0.56333 -0.56283,-0.56333 h -1.12564 c -0.3105,0 -0.56231,0.25283 -0.56231,0.56333 v 1.94233 c 0,0.31102 0.25181,0.56282 0.56231,0.56282 h 1.12564 c 0.31051,0 0.56283,-0.2518 0.56283,-0.56282 z"
         fill="#5fb7ce"
         id="path364"
         style="display:inline;enable-background:new;stroke-width:0.514933" />
      <path
         d="m 329.52935,242.35345 c 0.55781,0.0584 0.90606,-0.43423 0.88087,-0.48494 -0.0235,-0.0477 -0.53866,0.0531 -1.24389,-0.30929 -0.29049,-0.14911 -0.78584,0.0685 -0.81976,0.23172 l -0.48795,3.47613 c -0.18773,-0.14138 -0.60919,-0.16354 -0.89028,-0.12761 -0.50776,0.0655 -0.82143,0.40232 -0.77307,0.81774 0.0487,0.4144 0.42046,0.58534 0.92789,0.51985 0.40534,-0.0524 0.94636,-0.24616 1.03502,-0.79288 l 0.45235,-3.04695 c 0,0 0.19478,-0.35967 0.91882,-0.28377 z"
         fill="url(#c)"
         fill-rule="nonzero"
         id="path380"
         style="display:inline;enable-background:new;fill:url(#linearGradient390);stroke-width:0.335826" />
      <path
         d="m 332.8772,249.3168 c 0,-0.20251 -0.16455,-0.3674 -0.36706,-0.3674 h -0.73411 c -0.2025,0 -0.36672,0.16489 -0.36672,0.3674 v 1.26673 c 0,0.20284 0.16422,0.36706 0.36672,0.36706 h 0.73411 c 0.20251,0 0.36706,-0.16422 0.36706,-0.36706 z"
         fill="#5fb7ce"
         id="path382"
         style="display:inline;enable-background:new;stroke-width:0.335826" />
    </g>
  </g>
</svg>
