<?xml version="1.0" encoding="UTF-8" standalone="no"?>
<svg
   inkscape:export-ydpi="90.000000"
   inkscape:export-xdpi="90.000000"
   width="400"
   height="300"
   id="svg11300"
   sodipodi:version="0.32"
   inkscape:version="1.2.2 (b0a8486541, 2022-12-01)"
   sodipodi:docname="root-terminal-app.svg"
   inkscape:output_extension="org.inkscape.output.svg.inkscape"
   version="1.0"
   style="display:inline;enable-background:new"
   inkscape:export-filename="/home/sam/suru-template.png"
   xmlns:inkscape="http://www.inkscape.org/namespaces/inkscape"
   xmlns:sodipodi="http://sodipodi.sourceforge.net/DTD/sodipodi-0.dtd"
   xmlns:xlink="http://www.w3.org/1999/xlink"
   xmlns="http://www.w3.org/2000/svg"
   xmlns:svg="http://www.w3.org/2000/svg"
   xmlns:rdf="http://www.w3.org/1999/02/22-rdf-syntax-ns#"
   xmlns:cc="http://creativecommons.org/ns#"
   xmlns:dc="http://purl.org/dc/elements/1.1/">
  <title
     id="title3004">Suru Icon Theme Template</title>
  <sodipodi:namedview
     stroke="#ef2929"
     fill="#f57900"
     id="base"
     pagecolor="#ffffff"
     bordercolor="#000000"
     borderopacity="0.25490196"
     inkscape:pageopacity="0"
     inkscape:pageshadow="2"
     inkscape:zoom="1.6218167"
     inkscape:cx="201.00915"
     inkscape:cy="156.61449"
     inkscape:current-layer="layer6"
     showgrid="false"
     inkscape:grid-bbox="true"
     inkscape:document-units="px"
     inkscape:showpageshadow="false"
     inkscape:window-width="1920"
     inkscape:window-height="1020"
     inkscape:window-x="0"
     inkscape:window-y="32"
     width="400px"
     height="300px"
     inkscape:snap-nodes="true"
     inkscape:snap-bbox="true"
     gridtolerance="10000"
     inkscape:object-nodes="true"
     inkscape:snap-grids="true"
     showguides="true"
     inkscape:guide-bbox="true"
     inkscape:window-maximized="1"
     inkscape:bbox-paths="true"
     inkscape:snap-bbox-midpoints="true"
     inkscape:snap-global="true"
     inkscape:object-paths="true"
     inkscape:snap-intersection-paths="true"
     inkscape:snap-smooth-nodes="true"
     inkscape:pagecheckerboard="false"
     showborder="false"
     inkscape:document-rotation="0"
     inkscape:deskcolor="#d1d1d1">
    <inkscape:grid
       spacingy="1"
       spacingx="1"
       id="grid5883"
       type="xygrid"
       enabled="true"
       visible="true"
       empspacing="4"
       snapvisiblegridlinesonly="true"
       originx="0"
       originy="0" />
    <inkscape:grid
       type="xygrid"
       id="grid11592"
       empspacing="2"
       visible="true"
       enabled="false"
       spacingx="0.5"
       spacingy="0.5"
       color="#ff0000"
       opacity="0.1254902"
       empcolor="#ff0000"
       empopacity="0.25098039"
       snapvisiblegridlinesonly="true"
       originx="0"
       originy="0" />
  </sodipodi:namedview>
  <defs
     id="defs3">
    <linearGradient
       id="a"
       x2="1"
       gradientTransform="matrix(0,-36.2165,36.2165,0,489.464,42.119)"
       gradientUnits="userSpaceOnUse">
      <stop
         stop-color="#af2116"
         offset="0"
         id="stop22" />
      <stop
         stop-color="#fd756a"
         offset="1"
         id="stop24" />
    </linearGradient>
    <linearGradient
       inkscape:collect="always"
       xlink:href="#a"
       id="linearGradient336"
       gradientUnits="userSpaceOnUse"
       gradientTransform="matrix(0,-38.442841,38.442841,0,838.07752,103.23283)"
       x2="1" />
    <linearGradient
       inkscape:collect="always"
       xlink:href="#a"
       id="linearGradient358"
       gradientUnits="userSpaceOnUse"
       gradientTransform="matrix(0,-25.071419,25.071419,0,658.22448,160.54315)"
       x2="1" />
    <linearGradient
       inkscape:collect="always"
       xlink:href="#a"
       id="linearGradient380"
       gradientUnits="userSpaceOnUse"
       gradientTransform="matrix(0,-19.221421,19.221421,0,579.03876,209.61641)"
       x2="1" />
    <linearGradient
       inkscape:collect="always"
       xlink:href="#a"
       id="linearGradient402"
       gradientUnits="userSpaceOnUse"
       gradientTransform="matrix(0,-12.535709,12.535709,0,489.11224,250.27158)"
       x2="1" />
    <linearGradient
       inkscape:collect="always"
       xlink:href="#a"
       id="linearGradient404"
       gradientUnits="userSpaceOnUse"
       gradientTransform="matrix(0,-187.19993,187.19993,0,2557.9428,249.65553)"
       x2="1" />
  </defs>
  <metadata
     id="metadata4">
    <rdf:RDF>
      <cc:Work
         rdf:about="">
        <dc:format>image/svg+xml</dc:format>
        <dc:type
           rdf:resource="http://purl.org/dc/dcmitype/StillImage" />
        <dc:creator>
          <cc:Agent>
            <dc:title>Sam Hewitt</dc:title>
          </cc:Agent>
        </dc:creator>
        <dc:source />
        <cc:license
           rdf:resource="http://creativecommons.org/licenses/by-sa/4.0/" />
        <dc:title>Suru Icon Theme Template</dc:title>
        <dc:subject>
          <rdf:Bag />
        </dc:subject>
        <dc:date />
        <dc:rights>
          <cc:Agent>
            <dc:title />
          </cc:Agent>
        </dc:rights>
        <dc:publisher>
          <cc:Agent>
            <dc:title />
          </cc:Agent>
        </dc:publisher>
        <dc:identifier />
        <dc:relation />
        <dc:language />
        <dc:coverage />
        <dc:description />
        <dc:contributor>
          <cc:Agent>
            <dc:title />
          </cc:Agent>
        </dc:contributor>
      </cc:Work>
      <cc:Work
         rdf:about="">
        <dc:format>image/svg+xml</dc:format>
        <dc:type
           rdf:resource="http://purl.org/dc/dcmitype/StillImage" />
      </cc:Work>
      <cc:License
         rdf:about="http://creativecommons.org/licenses/by-sa/4.0/">
        <cc:permits
           rdf:resource="http://creativecommons.org/ns#Reproduction" />
        <cc:permits
           rdf:resource="http://creativecommons.org/ns#Distribution" />
        <cc:requires
           rdf:resource="http://creativecommons.org/ns#Notice" />
        <cc:requires
           rdf:resource="http://creativecommons.org/ns#Attribution" />
        <cc:permits
           rdf:resource="http://creativecommons.org/ns#DerivativeWorks" />
        <cc:requires
           rdf:resource="http://creativecommons.org/ns#ShareAlike" />
      </cc:License>
    </rdf:RDF>
  </metadata>
  <g
     style="display:inline"
     inkscape:groupmode="layer"
     inkscape:label="Icon"
     id="layer1">
    <g
       style="display:none"
       inkscape:label="Baseplate"
       id="layer7"
       inkscape:groupmode="layer">
      <text
         y="-8.2548828"
         xml:space="preserve"
         x="19.006836"
         style="font-style:normal;font-variant:normal;font-weight:normal;font-stretch:normal;line-height:0%;font-family:'DejaVu Sans';-inkscape-font-specification:'DejaVu Sans';display:inline;fill:#000000;fill-opacity:1;stroke:none;enable-background:new"
         inkscape:label="context"
         id="context"><tspan
           style="font-style:normal;font-variant:normal;font-weight:normal;font-stretch:normal;font-size:18px;line-height:1.25;font-family:'DejaVu Sans';-inkscape-font-specification:'DejaVu Sans'"
           y="-8.2548828"
           x="19.006836"
           sodipodi:role="line"
           id="tspan3933">apps</tspan></text>
      <text
         y="-8.2548828"
         xml:space="preserve"
         x="146.48828"
         style="font-style:normal;font-variant:normal;font-weight:bold;font-stretch:normal;line-height:0%;font-family:'DejaVu Sans';-inkscape-font-specification:'DejaVu Sans Bold';text-align:start;writing-mode:lr-tb;text-anchor:start;display:inline;fill:#000000;fill-opacity:1;stroke:none;enable-background:new"
         inkscape:label="icon-name"
         id="icon-name"><tspan
           style="font-style:normal;font-variant:normal;font-weight:bold;font-stretch:normal;font-size:18px;line-height:1.25;font-family:'DejaVu Sans';-inkscape-font-specification:'DejaVu Sans Bold'"
           y="-8.2548828"
           x="146.48828"
           sodipodi:role="line"
           id="tspan924">root-terminal-app</tspan></text>
      <rect
         style="display:inline;overflow:visible;visibility:visible;fill:#cdcdcd;fill-opacity:1;fill-rule:nonzero;stroke:none;stroke-width:2;marker:none;enable-background:accumulate"
         id="rect16x16"
         width="16"
         height="16"
         x="320"
         y="236"
         inkscape:label="16x16" />
      <rect
         style="display:inline;overflow:visible;visibility:visible;fill:#cdcdcd;fill-opacity:1;fill-rule:nonzero;stroke:none;stroke-width:2;marker:none;enable-background:accumulate"
         id="rect24x24"
         width="24"
         height="24"
         x="320"
         y="188"
         inkscape:label="24x24" />
      <rect
         style="display:inline;overflow:visible;visibility:visible;fill:#cdcdcd;fill-opacity:1;fill-rule:nonzero;stroke:none;stroke-width:2;marker:none;enable-background:accumulate"
         id="rect32x32"
         width="32"
         height="32"
         x="320"
         y="132"
         inkscape:label="32x32" />
      <rect
         inkscape:label="48x48"
         y="60"
         x="320"
         height="48"
         width="48"
         id="rect48x48"
         style="display:inline;overflow:visible;visibility:visible;fill:#cdcdcd;fill-opacity:1;fill-rule:nonzero;stroke:none;stroke-width:2;marker:none;enable-background:accumulate" />
      <rect
         style="display:inline;overflow:visible;visibility:visible;fill:#cdcdcd;fill-opacity:1;fill-rule:nonzero;stroke:none;stroke-width:2;marker:none;enable-background:accumulate"
         id="rect256x256"
         width="256"
         height="256"
         x="24"
         y="28"
         inkscape:label="256x256" />
    </g>
    <g
       inkscape:groupmode="layer"
       id="layer2"
       inkscape:label="Background"
       style="display:inline">
      <path
         d="M 231.80801,268 H 72.191988 C 54.421266,268 39.999999,253.57873 39.999999,235.80801 V 76.191988 c 0,-17.770722 14.421267,-32.191989 32.191989,-32.191989 H 231.80801 C 249.57873,43.999999 264,58.421266 264,76.191988 V 235.80801 C 264,253.57873 249.57873,268 231.80801,268 Z"
         fill="url(#a)"
         id="path27"
         style="fill:url(#linearGradient404);stroke-width:5.16891" />
      <path
         d="m 39.999999,81.50563 v -5.313642 c 0,-17.770722 14.421267,-32.191989 32.191989,-32.191989 H 231.80801 C 249.57873,43.999999 264,58.421266 264,76.191988 v 5.313642 z"
         fill="#ebebeb"
         fill-opacity="0.1"
         id="path29"
         style="stroke-width:5.16891" />
      <path
         d="m 264,230.49437 v 5.31364 C 264,253.57873 249.57873,268 231.80801,268 H 72.191988 C 54.421266,268 39.999999,253.57873 39.999999,235.80801 v -5.31364 z"
         fill-opacity="0.2"
         id="path31"
         style="stroke-width:5.16891" />
      <path
         d="m 360.38915,107 h -32.77829 c -3.64934,0 -6.61085,-2.96151 -6.61085,-6.61085 V 67.610856 c 0,-3.649345 2.96151,-6.610855 6.61085,-6.610855 h 32.77829 c 3.64934,0 6.61085,2.96151 6.61085,6.610855 V 100.38915 C 367,104.03849 364.03849,107 360.38915,107 Z"
         fill="url(#a)"
         id="path316"
         style="fill:url(#linearGradient336);stroke-width:1.06147" />
      <path
         d="m 321.00001,68.70205 v -1.091194 c 0,-3.649345 2.96151,-6.610855 6.61085,-6.610855 h 32.77829 c 3.64934,0 6.61085,2.96151 6.61085,6.610855 v 1.091194 z"
         fill="#ebebeb"
         fill-opacity="0.1"
         id="path318"
         style="stroke-width:1.06147" />
      <path
         d="m 367,99.297951 v 1.091199 C 367,104.03849 364.03849,107 360.38915,107 h -32.77829 c -3.64934,0 -6.61085,-2.96151 -6.61085,-6.61085 v -1.091199 z"
         fill-opacity="0.2"
         id="path320"
         style="stroke-width:1.06147" />
      <path
         d="M 346.68858,163 H 325.31143 C 322.93142,163 321,161.06858 321,158.68858 V 137.31143 C 321,134.93142 322.93142,133 325.31143,133 h 21.37715 c 2.38,0 4.31142,1.93142 4.31142,4.31143 v 21.37715 c 0,2.38 -1.93142,4.31142 -4.31142,4.31142 z"
         fill="url(#a)"
         id="path338"
         style="fill:url(#linearGradient358);stroke-width:0.692265" />
      <path
         d="m 321,138.02308 v -0.71165 C 321,134.93142 322.93142,133 325.31143,133 h 21.37715 c 2.38,0 4.31142,1.93142 4.31142,4.31143 v 0.71165 z"
         fill="#ebebeb"
         fill-opacity="0.1"
         id="path340"
         style="stroke-width:0.692265" />
      <path
         d="m 351,157.97693 v 0.71165 c 0,2.38 -1.93142,4.31142 -4.31142,4.31142 H 325.31143 C 322.93142,163 321,161.06858 321,158.68858 v -0.71165 z"
         fill-opacity="0.2"
         id="path342"
         style="stroke-width:0.692265" />
      <path
         d="m 340.19457,211.5 h -16.38914 c -1.82468,0 -3.30543,-1.48076 -3.30543,-3.30543 v -16.38914 c 0,-1.82468 1.48075,-3.30543 3.30543,-3.30543 h 16.38914 c 1.82467,0 3.30543,1.48075 3.30543,3.30543 v 16.38914 c 0,1.82467 -1.48076,3.30543 -3.30543,3.30543 z"
         fill="url(#a)"
         id="path360"
         style="fill:url(#linearGradient380);stroke-width:0.530737" />
      <path
         d="m 320.5,192.35102 v -0.54559 c 0,-1.82468 1.48075,-3.30543 3.30543,-3.30543 h 16.38914 c 1.82467,0 3.30543,1.48075 3.30543,3.30543 v 0.54559 z"
         fill="#ebebeb"
         fill-opacity="0.1"
         id="path362"
         style="stroke-width:0.530737" />
      <path
         d="m 343.5,207.64897 v 0.5456 c 0,1.82467 -1.48076,3.30543 -3.30543,3.30543 h -16.38914 c -1.82468,0 -3.30543,-1.48076 -3.30543,-3.30543 v -0.5456 z"
         fill-opacity="0.2"
         id="path364"
         style="stroke-width:0.530737" />
      <path
         d="m 333.34429,251.5 h -10.68858 c -1.19,0 -2.15571,-0.96571 -2.15571,-2.15571 v -10.68858 c 0,-1.19 0.96571,-2.15571 2.15571,-2.15571 h 10.68858 c 1.19,0 2.15571,0.96571 2.15571,2.15571 v 10.68858 c 0,1.19 -0.96571,2.15571 -2.15571,2.15571 z"
         fill="url(#a)"
         id="path382"
         style="fill:url(#linearGradient402);stroke-width:0.346133" />
      <path
         d="m 320.5,239.01154 v -0.35583 c 0,-1.19 0.96571,-2.15571 2.15571,-2.15571 h 10.68858 c 1.19,0 2.15571,0.96571 2.15571,2.15571 v 0.35583 z"
         fill="#ebebeb"
         fill-opacity="0.1"
         id="path384"
         style="stroke-width:0.346133" />
      <path
         d="m 335.5,248.98846 v 0.35583 c 0,1.19 -0.96571,2.15571 -2.15571,2.15571 h -10.68858 c -1.19,0 -2.15571,-0.96571 -2.15571,-2.15571 v -0.35583 z"
         fill-opacity="0.2"
         id="path386"
         style="stroke-width:0.346133" />
    </g>
    <g
       inkscape:groupmode="layer"
       id="layer6"
       inkscape:label="Pictogram"
       style="display:inline">
      <path
         d="m 200.15876,69.86007 h -0.54274 c -0.51172,0 -0.92006,-0.418682 -0.92006,-0.930405 v -1.561011 c -2.20196,-0.553074 -2.83257,-1.860809 -2.83257,-4.543475 0,-3.959387 3.21507,-7.179619 7.17445,-7.179619 3.95939,0 7.17445,3.220232 7.17445,7.179619 0,2.641315 -0.66679,3.943881 -2.82222,4.51763 v 1.581687 c 0,0.516892 -0.41868,0.930405 -0.93041,0.930405 h -0.53756 c -0.51173,0 -0.93041,-0.413513 -0.93041,-0.930405 v -1.240539 c -0.24294,0.01551 -0.49104,0.02584 -0.75466,0.03101 v 1.214694 c 0,0.511723 -0.41351,0.925236 -0.92523,0.925236 h -0.53757 c -0.51689,0 -0.93041,-0.413513 -0.93041,-0.925236 V 67.72014 c -0.26361,-0.0052 -0.51689,-0.01551 -0.75983,-0.03101 v 1.240539 c 0,0.511723 -0.41351,0.930405 -0.92523,0.930405 z m -0.093,-9.955326 c 1.21469,0.47554 2.20196,0.956249 2.20196,2.13993 0,1.173343 -0.79602,1.400775 -2.20196,2.129592 -1.0803,0.563411 -2.20713,-0.956249 -2.20713,-2.129592 0,-1.183681 1.06997,-2.579288 2.20713,-2.13993 z m 5.9184,0 c 1.17335,-0.330811 2.20196,0.956249 2.20196,2.13993 0,1.173343 -1.15784,2.75503 -2.20196,2.129592 -1.28189,-0.75983 -2.20195,-0.956249 -2.20195,-2.129592 0,-1.183681 0.85804,-1.757431 2.20195,-2.13993 z"
         fill="#ededed"
         id="path33"
         style="fill-opacity:0.5;stroke-width:5.16891" />
      <path
         d="m 237.46797,57.992246 2.16061,2.28466 3.41665,-3.23574 2.72918,2.879085 -3.41148,3.235739 2.16061,2.284659 c 0.73915,0.775337 0.72881,1.979694 -0.0155,2.677497 -0.74432,0.708141 -1.94351,0.651283 -2.67233,-0.124054 l -2.17094,-2.284659 -3.42182,3.246077 -2.73436,-2.879084 3.43216,-3.080672 -2.16577,-2.455234 c -0.73916,-0.775337 -0.72365,-1.974525 0.0155,-2.677497 0.74433,-0.702972 1.94352,-0.646114 2.6775,0.129223 z"
         fill="#ffffff"
         id="path35"
         style="fill-opacity:0.5;stroke-width:5.16891" />
      <path
         d="m 220.23482,57.232416 0.0207,-0.873546 3.13753,0.0827 -0.031,0.873547 1.6954,0.04652 c 1.62304,0.04652 2.9101,1.405944 2.86358,3.028983 l -0.16024,5.887391 c -0.0413,1.628208 -1.3956,2.915267 -3.02381,2.868747 l -6.51283,-0.175743 c -1.62821,-0.04135 -2.9101,-1.400776 -2.86358,-3.023814 l 0.15507,-5.892561 c 0.0413,-1.628207 1.40077,-2.910098 3.02898,-2.868746 z m -0.94075,2.563781 c 0.84254,0.02067 1.50933,0.728816 1.48348,1.571349 -0.0155,0.842533 -0.72365,1.509323 -1.56618,1.488647 -0.84253,-0.02068 -1.51449,-0.728817 -1.48865,-1.57135 0.0207,-0.842532 0.72882,-1.509322 1.57135,-1.488646 z m 5.21544,0.13956 c 0.84253,0.02584 1.51449,0.723648 1.48864,1.57135 -0.0207,0.847701 -0.72364,1.514491 -1.57135,1.488647 -0.84253,-0.02068 -1.50932,-0.723648 -1.48864,-1.57135 0.0258,-0.842533 0.72881,-1.509322 1.57135,-1.488647 z"
         fill="#ffffff"
         id="path37"
         style="fill-opacity:0.5;stroke-width:5.16891" />
      <path
         d="m 130.03212,138.90641 c -0.24811,-0.23777 -0.56858,-0.35666 -0.95625,-0.35666 H 89.089163 c -0.387668,0 -0.708141,0.11889 -0.956249,0.35666 -0.253276,0.23777 -0.37733,0.53756 -0.37733,0.90972 v 2.53794 c 0,0.36699 0.124054,0.67196 0.37733,0.90973 0.248108,0.23777 0.568581,0.35665 0.956249,0.35665 h 39.986707 c 0.38767,0 0.70814,-0.11888 0.95625,-0.35665 0.24811,-0.23777 0.37733,-0.54274 0.37733,-0.90973 v -2.53794 c 0,-0.37216 -0.12922,-0.67195 -0.37733,-0.90972 z"
         fill-opacity="0.75"
         fill-rule="nonzero"
         id="path41"
         style="display:inline;enable-background:new;stroke-width:5.16891" />
      <path
         d="m 66.056488,101.41111 c -0.279121,-0.26361 -0.599594,-0.39283 -0.956249,-0.39283 -0.361823,0 -0.682296,0.12922 -0.961417,0.39283 l -2.083072,1.98487 c -0.273952,0.26361 -0.413513,0.56858 -0.413513,0.90972 0,0.34632 0.139561,0.64612 0.413513,0.90973 l 16.369946,15.57911 -16.369946,15.57393 c -0.273952,0.26361 -0.413513,0.56858 -0.413513,0.90973 0,0.34632 0.139561,0.64611 0.413513,0.90973 l 2.083072,1.98486 c 0.279121,0.26361 0.599594,0.39284 0.961417,0.39284 0.356655,0 0.677128,-0.12923 0.956249,-0.39284 l 19.409268,-18.46853 c 0.279121,-0.26361 0.413513,-0.56858 0.413513,-0.91489 0,-0.34115 -0.134392,-0.64612 -0.413513,-0.90973 z"
         fill-opacity="0.75"
         fill-rule="nonzero"
         id="path43"
         style="display:inline;enable-background:new;stroke-width:5.16891" />
      <path
         d="m 353.88975,66.310551 h -0.11146 c -0.10508,0 -0.18894,-0.08598 -0.18894,-0.191065 v -0.320565 c -0.45219,-0.113577 -0.58168,-0.38213 -0.58168,-0.933035 0,-0.813088 0.66023,-1.474386 1.47332,-1.474386 0.81309,0 1.47332,0.661298 1.47332,1.474386 0,0.542413 -0.13693,0.809904 -0.57956,0.927728 v 0.324811 c 0,0.106147 -0.086,0.191065 -0.19107,0.191065 h -0.11039 c -0.10508,0 -0.19106,-0.08492 -0.19106,-0.191065 v -0.254754 c -0.0499,0.0032 -0.10084,0.0053 -0.15498,0.0064 v 0.249446 c 0,0.105086 -0.0849,0.190004 -0.19,0.190004 h -0.1104 c -0.10614,0 -0.19106,-0.08492 -0.19106,-0.190004 v -0.248385 c -0.0541,-0.0011 -0.10615,-0.0032 -0.15604,-0.0064 v 0.254754 c 0,0.105086 -0.0849,0.191065 -0.19,0.191065 z m -0.0191,-2.044397 c 0.24945,0.09766 0.45219,0.196373 0.45219,0.43945 0,0.240954 -0.16347,0.287659 -0.45219,0.437327 -0.22185,0.1157 -0.45325,-0.196373 -0.45325,-0.437327 0,-0.243077 0.21973,-0.529675 0.45325,-0.43945 z m 1.21539,0 c 0.24095,-0.06793 0.45219,0.196373 0.45219,0.43945 0,0.240954 -0.23777,0.565765 -0.45219,0.437327 -0.26325,-0.156037 -0.45219,-0.196373 -0.45219,-0.437327 0,-0.243077 0.17621,-0.360901 0.45219,-0.43945 z"
         fill="#ededed"
         id="path322"
         style="fill-opacity:0.5;stroke-width:1.06147" />
      <path
         d="m 361.55146,63.873409 0.4437,0.469171 0.70163,-0.664482 0.56046,0.59124 -0.70057,0.664483 0.44369,0.469171 c 0.15179,0.159221 0.14967,0.406544 -0.003,0.549843 -0.15285,0.145422 -0.39912,0.133745 -0.54878,-0.02548 l -0.44582,-0.469171 -0.7027,0.666605 -0.56152,-0.59124 0.70482,-0.632638 -0.44476,-0.5042 c -0.15179,-0.159221 -0.1486,-0.405483 0.003,-0.549843 0.15285,-0.14436 0.39911,-0.132684 0.54984,0.02654 z"
         fill="#ffffff"
         id="path324"
         style="fill-opacity:0.5;stroke-width:1.06147" />
      <path
         d="m 358.01251,63.717372 0.004,-0.179389 0.64431,0.01698 -0.006,0.179389 0.34817,0.0096 c 0.3333,0.0096 0.5976,0.288721 0.58805,0.622023 l -0.0329,1.209018 c -0.009,0.334364 -0.2866,0.598671 -0.62097,0.589118 l -1.33745,-0.03609 c -0.33437,-0.0085 -0.59761,-0.287659 -0.58806,-0.620962 l 0.0318,-1.210079 c 0.008,-0.334364 0.28766,-0.59761 0.62202,-0.589118 z m -0.19319,0.526491 c 0.17302,0.0042 0.30995,0.149668 0.30465,0.322688 -0.003,0.17302 -0.14861,0.30995 -0.32163,0.305704 -0.17302,-0.0042 -0.31101,-0.149668 -0.30571,-0.322688 0.004,-0.17302 0.14967,-0.30995 0.32269,-0.305704 z m 1.07103,0.02866 c 0.17302,0.0053 0.31101,0.148606 0.3057,0.322688 -0.004,0.174081 -0.1486,0.311011 -0.32268,0.305704 -0.17302,-0.0042 -0.30995,-0.148606 -0.30571,-0.322688 0.005,-0.17302 0.14967,-0.30995 0.32269,-0.305704 z"
         fill="#ffffff"
         id="path326"
         style="fill-opacity:0.5;stroke-width:1.06147" />
      <path
         d="m 339.48874,80.489709 c -0.051,-0.04883 -0.11676,-0.07324 -0.19637,-0.07324 h -8.21155 c -0.0796,0 -0.14543,0.02441 -0.19638,0.07324 -0.052,0.04883 -0.0775,0.110393 -0.0775,0.186819 v 0.521183 c 0,0.07537 0.0255,0.137992 0.0775,0.18682 0.051,0.04883 0.11676,0.07324 0.19638,0.07324 h 8.21155 c 0.0796,0 0.14542,-0.02441 0.19637,-0.07324 0.051,-0.04883 0.0775,-0.111455 0.0775,-0.18682 v -0.521183 c 0,-0.07643 -0.0265,-0.137991 -0.0775,-0.186819 z"
         fill-opacity="0.75"
         fill-rule="nonzero"
         id="path330"
         style="display:inline;enable-background:new;stroke-width:1.06147" />
      <path
         d="m 326.35089,72.789783 c -0.0573,-0.05414 -0.12313,-0.08067 -0.19637,-0.08067 -0.0743,0 -0.14012,0.02654 -0.19744,0.08067 l -0.42777,0.407606 c -0.0563,0.05414 -0.0849,0.116762 -0.0849,0.186819 0,0.07112 0.0287,0.132684 0.0849,0.186819 l 3.36169,3.19928 -3.36169,3.198219 c -0.0563,0.05414 -0.0849,0.116762 -0.0849,0.186819 0,0.07112 0.0287,0.132684 0.0849,0.186819 l 0.42777,0.407606 c 0.0573,0.05414 0.12314,0.08067 0.19744,0.08067 0.0732,0 0.13905,-0.02654 0.19637,-0.08067 l 3.98583,-3.792644 c 0.0573,-0.05414 0.0849,-0.116762 0.0849,-0.18788 0,-0.07006 -0.0276,-0.132684 -0.0849,-0.18682 z"
         fill-opacity="0.75"
         fill-rule="nonzero"
         id="path332"
         style="display:inline;enable-background:new;stroke-width:1.06147" />
      <path
         d="m 342.44984,136.4634 h -0.0727 c -0.0685,0 -0.12323,-0.0561 -0.12323,-0.1246 v -0.20907 c -0.2949,-0.0741 -0.37936,-0.24921 -0.37936,-0.6085 0,-0.53027 0.43059,-0.96155 0.96087,-0.96155 0.53027,0 0.96086,0.43128 0.96086,0.96155 0,0.35375 -0.0893,0.5282 -0.37798,0.60504 v 0.21183 c 0,0.0692 -0.0561,0.12461 -0.1246,0.12461 h -0.072 c -0.0685,0 -0.12461,-0.0554 -0.12461,-0.12461 v -0.16614 c -0.0325,0.002 -0.0658,0.003 -0.10107,0.004 v 0.16269 c 0,0.0685 -0.0554,0.12391 -0.12391,0.12391 h -0.072 c -0.0692,0 -0.12461,-0.0554 -0.12461,-0.12391 v -0.16199 c -0.0353,-7e-4 -0.0692,-0.002 -0.10176,-0.004 v 0.16615 c 0,0.0685 -0.0554,0.1246 -0.12391,0.1246 z m -0.0125,-1.3333 c 0.16268,0.0637 0.2949,0.12807 0.2949,0.2866 0,0.15714 -0.10661,0.1876 -0.2949,0.28521 -0.14469,0.0755 -0.2956,-0.12807 -0.2956,-0.28521 0,-0.15853 0.1433,-0.34544 0.2956,-0.2866 z m 0.79264,0 c 0.15714,-0.0443 0.2949,0.12807 0.2949,0.2866 0,0.15714 -0.15506,0.36898 -0.2949,0.28521 -0.17168,-0.10176 -0.29491,-0.12807 -0.29491,-0.28521 0,-0.15853 0.11492,-0.23537 0.29491,-0.2866 z"
         fill="#ededed"
         id="path344"
         style="fill-opacity:0.5;stroke-width:0.692265" />
      <path
         d="m 347.44661,134.87396 0.28936,0.30598 0.45759,-0.43335 0.36552,0.38559 -0.4569,0.43336 0.28937,0.30598 c 0.099,0.10384 0.0976,0.26514 -0.002,0.35859 -0.0997,0.0948 -0.26029,0.0872 -0.3579,-0.0166 l -0.29075,-0.30598 -0.45828,0.43474 -0.36621,-0.38559 0.45966,-0.41259 -0.29005,-0.32883 c -0.099,-0.10384 -0.0969,-0.26444 0.002,-0.35859 0.0997,-0.0942 0.26029,-0.0865 0.3586,0.0173 z"
         fill="#ffffff"
         id="path346"
         style="fill-opacity:0.5;stroke-width:0.692265" />
      <path
         d="m 345.13859,134.7722 0.003,-0.11699 0.42021,0.0111 -0.004,0.117 0.22707,0.006 c 0.21737,0.006 0.38974,0.18829 0.38351,0.40566 l -0.0215,0.78849 c -0.006,0.21807 -0.18691,0.39044 -0.40497,0.38421 l -0.87226,-0.0235 c -0.21806,-0.006 -0.38974,-0.1876 -0.38351,-0.40497 l 0.0208,-0.78918 c 0.006,-0.21807 0.1876,-0.38975 0.40566,-0.38421 z m -0.12599,0.34336 c 0.11284,0.003 0.20214,0.0976 0.19868,0.21045 -0.002,0.11284 -0.0969,0.20214 -0.20975,0.19938 -0.11284,-0.003 -0.20284,-0.0976 -0.19938,-0.21045 0.003,-0.11284 0.0976,-0.20214 0.21045,-0.19938 z m 0.6985,0.0187 c 0.11284,0.003 0.20283,0.0969 0.19937,0.21044 -0.003,0.11354 -0.0969,0.20284 -0.21045,0.19938 -0.11284,-0.003 -0.20214,-0.0969 -0.19937,-0.21045 0.003,-0.11284 0.0976,-0.20214 0.21045,-0.19937 z"
         fill="#ffffff"
         id="path348"
         style="fill-opacity:0.5;stroke-width:0.692265" />
      <path
         d="m 333.05788,145.71068 c -0.0332,-0.0318 -0.0761,-0.0478 -0.12807,-0.0478 h -5.35537 c -0.0519,0 -0.0948,0.0159 -0.12807,0.0478 -0.0339,0.0318 -0.0505,0.072 -0.0505,0.12184 v 0.3399 c 0,0.0492 0.0166,0.09 0.0505,0.12184 0.0332,0.0318 0.0761,0.0478 0.12807,0.0478 h 5.35537 c 0.0519,0 0.0948,-0.0159 0.12807,-0.0478 0.0332,-0.0318 0.0505,-0.0727 0.0505,-0.12184 v -0.3399 c 0,-0.0498 -0.0173,-0.09 -0.0505,-0.12184 z"
         fill-opacity="0.75"
         fill-rule="nonzero"
         id="path352"
         style="display:inline;enable-background:new;stroke-width:0.692265" />
      <path
         d="m 324.48971,140.68899 c -0.0374,-0.0353 -0.0803,-0.0526 -0.12807,-0.0526 -0.0485,0 -0.0914,0.0173 -0.12876,0.0526 l -0.27898,0.26583 c -0.0367,0.0353 -0.0554,0.0761 -0.0554,0.12184 0,0.0464 0.0187,0.0865 0.0554,0.12184 l 2.1924,2.08648 -2.1924,2.0858 c -0.0367,0.0353 -0.0554,0.0762 -0.0554,0.12184 0,0.0464 0.0187,0.0865 0.0554,0.12184 l 0.27898,0.26583 c 0.0374,0.0353 0.0803,0.0526 0.12876,0.0526 0.0478,0 0.0907,-0.0173 0.12807,-0.0526 l 2.59946,-2.47347 c 0.0374,-0.0353 0.0554,-0.0762 0.0554,-0.12253 0,-0.0457 -0.018,-0.0865 -0.0554,-0.12184 z"
         fill-opacity="0.75"
         fill-rule="nonzero"
         id="path354"
         style="display:inline;enable-background:new;stroke-width:0.692265" />
      <path
         d="m 336.94487,191.15527 h -0.0557 c -0.0525,0 -0.0945,-0.043 -0.0945,-0.0955 v -0.16028 c -0.22609,-0.0568 -0.29084,-0.19107 -0.29084,-0.46652 0,-0.40654 0.33012,-0.73719 0.73666,-0.73719 0.40654,0 0.73666,0.33065 0.73666,0.73719 0,0.27121 -0.0685,0.40495 -0.28978,0.46386 v 0.16241 c 0,0.0531 -0.043,0.0955 -0.0955,0.0955 h -0.0552 c -0.0525,0 -0.0955,-0.0425 -0.0955,-0.0955 v -0.12738 c -0.0249,0.002 -0.0504,0.003 -0.0775,0.003 v 0.12472 c 0,0.0525 -0.0425,0.095 -0.095,0.095 h -0.0552 c -0.0531,0 -0.0955,-0.0425 -0.0955,-0.095 v -0.12419 c -0.0271,-5.3e-4 -0.0531,-0.002 -0.078,-0.003 v 0.12738 c 0,0.0525 -0.0425,0.0955 -0.095,0.0955 z m -0.01,-1.0222 c 0.12472,0.0488 0.22609,0.0982 0.22609,0.21973 0,0.12048 -0.0817,0.14383 -0.22609,0.21866 -0.11093,0.0579 -0.22663,-0.0982 -0.22663,-0.21866 0,-0.12154 0.10986,-0.26484 0.22663,-0.21973 z m 0.60769,0 c 0.12048,-0.034 0.22609,0.0982 0.22609,0.21973 0,0.12048 -0.11888,0.28288 -0.22609,0.21866 -0.13162,-0.078 -0.22609,-0.0982 -0.22609,-0.21866 0,-0.12154 0.0881,-0.18045 0.22609,-0.21973 z"
         fill="#ededed"
         id="path366"
         style="fill-opacity:0.5;stroke-width:0.530737" />
      <path
         d="m 340.77573,189.9367 0.22184,0.23459 0.35082,-0.33224 0.28023,0.29562 -0.35029,0.33224 0.22185,0.23458 c 0.0759,0.0796 0.0748,0.20328 -0.002,0.27492 -0.0764,0.0727 -0.19956,0.0669 -0.27439,-0.0127 l -0.22291,-0.23459 -0.35135,0.3333 -0.28076,-0.29562 0.35241,-0.31632 -0.22238,-0.2521 c -0.0759,-0.0796 -0.0743,-0.20274 0.002,-0.27492 0.0764,-0.0722 0.19955,-0.0663 0.27492,0.0133 z"
         fill="#ffffff"
         id="path368"
         style="fill-opacity:0.5;stroke-width:0.530737" />
      <path
         d="m 339.00625,189.85868 0.002,-0.0897 0.32216,0.008 -0.003,0.0897 0.17408,0.005 c 0.16665,0.005 0.2988,0.14436 0.29403,0.31101 l -0.0165,0.60451 c -0.004,0.16718 -0.1433,0.29934 -0.31048,0.29456 l -0.66873,-0.018 c -0.16718,-0.004 -0.2988,-0.14383 -0.29402,-0.31048 l 0.0159,-0.60504 c 0.004,-0.16719 0.14383,-0.29881 0.31101,-0.29456 z m -0.0966,0.26325 c 0.0865,0.002 0.15497,0.0748 0.15232,0.16134 -0.002,0.0865 -0.0743,0.15498 -0.16081,0.15285 -0.0865,-0.002 -0.15551,-0.0748 -0.15286,-0.16134 0.002,-0.0865 0.0748,-0.15497 0.16135,-0.15285 z m 0.53551,0.0143 c 0.0865,0.003 0.15551,0.0743 0.15285,0.16134 -0.002,0.087 -0.0743,0.15551 -0.16134,0.15285 -0.0865,-0.002 -0.15498,-0.0743 -0.15285,-0.16134 0.003,-0.0865 0.0748,-0.15497 0.16134,-0.15285 z"
         fill="#ffffff"
         id="path370"
         style="fill-opacity:0.5;stroke-width:0.530737" />
      <path
         d="m 329.74437,198.24485 c -0.0255,-0.0244 -0.0584,-0.0366 -0.0982,-0.0366 h -4.10578 c -0.0398,0 -0.0727,0.0122 -0.0982,0.0366 -0.026,0.0244 -0.0387,0.0552 -0.0387,0.0934 v 0.26059 c 0,0.0377 0.0127,0.069 0.0387,0.0934 0.0255,0.0244 0.0584,0.0366 0.0982,0.0366 h 4.10578 c 0.0398,0 0.0727,-0.0122 0.0982,-0.0366 0.0255,-0.0244 0.0387,-0.0557 0.0387,-0.0934 v -0.26059 c 0,-0.0382 -0.0133,-0.069 -0.0387,-0.0934 z"
         fill-opacity="0.75"
         fill-rule="nonzero"
         id="path374"
         style="display:inline;enable-background:new;stroke-width:0.530737" />
      <path
         d="m 323.17544,194.39489 c -0.0287,-0.0271 -0.0616,-0.0403 -0.0982,-0.0403 -0.0371,0 -0.07,0.0133 -0.0987,0.0403 l -0.21389,0.2038 c -0.0281,0.0271 -0.0425,0.0584 -0.0425,0.0934 0,0.0356 0.0143,0.0663 0.0425,0.0934 l 1.68084,1.59964 -1.68084,1.59911 c -0.0281,0.0271 -0.0425,0.0584 -0.0425,0.0934 0,0.0356 0.0143,0.0663 0.0425,0.0934 l 0.21389,0.2038 c 0.0287,0.0271 0.0616,0.0403 0.0987,0.0403 0.0366,0 0.0695,-0.0133 0.0982,-0.0403 l 1.99292,-1.89632 c 0.0287,-0.0271 0.0425,-0.0584 0.0425,-0.0939 0,-0.035 -0.0138,-0.0663 -0.0425,-0.0934 z"
         fill-opacity="0.75"
         fill-rule="nonzero"
         id="path376"
         style="display:inline;enable-background:new;stroke-width:0.530737" />
      <path
         d="m 331.22492,238.2317 h -0.0363 c -0.0343,0 -0.0616,-0.028 -0.0616,-0.0623 v -0.10453 c -0.14745,-0.037 -0.18968,-0.12461 -0.18968,-0.30425 0,-0.26514 0.2153,-0.48078 0.48043,-0.48078 0.26514,0 0.48044,0.21564 0.48044,0.48078 0,0.17687 -0.0447,0.26409 -0.18899,0.30252 v 0.10591 c 0,0.0346 -0.028,0.0623 -0.0623,0.0623 h -0.036 c -0.0343,0 -0.0623,-0.0277 -0.0623,-0.0623 v -0.0831 c -0.0163,0.001 -0.0329,0.002 -0.0505,0.002 v 0.0813 c 0,0.0343 -0.0277,0.062 -0.062,0.062 h -0.036 c -0.0346,0 -0.0623,-0.0277 -0.0623,-0.062 v -0.081 c -0.0177,-3.4e-4 -0.0346,-10e-4 -0.0509,-0.002 v 0.0831 c 0,0.0343 -0.0277,0.0623 -0.062,0.0623 z m -0.006,-0.66665 c 0.0813,0.0318 0.14745,0.064 0.14745,0.1433 0,0.0786 -0.0533,0.0938 -0.14745,0.14261 -0.0723,0.0377 -0.1478,-0.064 -0.1478,-0.14261 0,-0.0793 0.0716,-0.17272 0.1478,-0.1433 z m 0.39632,0 c 0.0786,-0.0222 0.14745,0.064 0.14745,0.1433 0,0.0786 -0.0775,0.18449 -0.14745,0.14261 -0.0858,-0.0509 -0.14745,-0.064 -0.14745,-0.14261 0,-0.0793 0.0575,-0.11769 0.14745,-0.1433 z"
         fill="#ededed"
         id="path388"
         style="fill-opacity:0.5;stroke-width:0.346133" />
      <path
         d="m 333.7233,237.43698 0.14469,0.15299 0.22879,-0.21668 0.18276,0.1928 -0.22845,0.21668 0.14468,0.15299 c 0.0495,0.0519 0.0488,0.13257 -10e-4,0.1793 -0.0499,0.0474 -0.13015,0.0436 -0.17896,-0.008 l -0.14537,-0.15299 -0.22914,0.21737 -0.1831,-0.1928 0.22983,-0.20629 -0.14503,-0.16441 c -0.0495,-0.0519 -0.0485,-0.13223 10e-4,-0.1793 0.0498,-0.0471 0.13014,-0.0433 0.17929,0.009 z"
         fill="#ffffff"
         id="path390"
         style="fill-opacity:0.5;stroke-width:0.346133" />
      <path
         d="m 332.5693,237.3861 10e-4,-0.0585 0.2101,0.006 -0.002,0.0585 0.11353,0.003 c 0.10868,0.003 0.19487,0.0942 0.19176,0.20284 l -0.0107,0.39424 c -0.003,0.10903 -0.0935,0.19522 -0.20249,0.19211 l -0.43613,-0.0118 c -0.10903,-0.003 -0.19487,-0.0938 -0.19176,-0.20249 l 0.0104,-0.39459 c 0.003,-0.10903 0.0938,-0.19487 0.20283,-0.1921 z m -0.063,0.17168 c 0.0564,0.001 0.10107,0.0488 0.0993,0.10523 -10e-4,0.0564 -0.0485,0.10107 -0.10488,0.0997 -0.0564,-0.001 -0.10141,-0.0488 -0.0997,-0.10522 10e-4,-0.0564 0.0488,-0.10107 0.10522,-0.0997 z m 0.34925,0.009 c 0.0564,0.002 0.10142,0.0485 0.0997,0.10522 -10e-4,0.0568 -0.0484,0.10142 -0.10522,0.0997 -0.0564,-0.001 -0.10107,-0.0485 -0.0997,-0.10523 0.002,-0.0564 0.0488,-0.10107 0.10523,-0.0997 z"
         fill="#ffffff"
         id="path392"
         style="fill-opacity:0.5;stroke-width:0.346133" />
      <path
         d="m 326.52894,242.85534 c -0.0166,-0.0159 -0.0381,-0.0239 -0.064,-0.0239 h -2.67768 c -0.026,0 -0.0474,0.008 -0.064,0.0239 -0.017,0.0159 -0.0253,0.036 -0.0253,0.0609 v 0.16995 c 0,0.0246 0.008,0.045 0.0253,0.0609 0.0166,0.0159 0.0381,0.0239 0.064,0.0239 h 2.67768 c 0.026,0 0.0474,-0.008 0.064,-0.0239 0.0166,-0.0159 0.0253,-0.0363 0.0253,-0.0609 v -0.16995 c 0,-0.0249 -0.009,-0.045 -0.0253,-0.0609 z"
         fill-opacity="0.75"
         fill-rule="nonzero"
         id="path396"
         style="display:inline;enable-background:new;stroke-width:0.346133" />
      <path
         d="m 322.24486,240.3445 c -0.0187,-0.0177 -0.0402,-0.0263 -0.064,-0.0263 -0.0242,0 -0.0457,0.009 -0.0644,0.0263 l -0.13949,0.13291 c -0.0183,0.0177 -0.0277,0.0381 -0.0277,0.0609 0,0.0232 0.009,0.0433 0.0277,0.0609 l 1.0962,1.04324 -1.0962,1.0429 c -0.0183,0.0176 -0.0277,0.0381 -0.0277,0.0609 0,0.0232 0.009,0.0433 0.0277,0.0609 l 0.13949,0.13291 c 0.0187,0.0177 0.0401,0.0263 0.0644,0.0263 0.0239,0 0.0453,-0.009 0.064,-0.0263 l 1.29972,-1.23673 c 0.0187,-0.0177 0.0277,-0.0381 0.0277,-0.0613 0,-0.0228 -0.009,-0.0433 -0.0277,-0.0609 z"
         fill-opacity="0.75"
         fill-rule="nonzero"
         id="path398"
         style="display:inline;enable-background:new;stroke-width:0.346133" />
    </g>
  </g>
</svg>
