<?xml version="1.0" encoding="UTF-8" standalone="no"?>
<svg
   inkscape:export-ydpi="96"
   inkscape:export-xdpi="96"
   width="400"
   height="300"
   id="svg11300"
   sodipodi:version="0.32"
   inkscape:version="1.1.2 (0a00cf5339, 2022-02-04)"
   sodipodi:docname="settings-app.svg"
   inkscape:output_extension="org.inkscape.output.svg.inkscape"
   version="1.0"
   style="display:inline;enable-background:new"
   inkscape:export-filename="C:\Users\sblav\Pictures\vertical oblong template.png"
   xmlns:inkscape="http://www.inkscape.org/namespaces/inkscape"
   xmlns:sodipodi="http://sodipodi.sourceforge.net/DTD/sodipodi-0.dtd"
   xmlns:xlink="http://www.w3.org/1999/xlink"
   xmlns="http://www.w3.org/2000/svg"
   xmlns:svg="http://www.w3.org/2000/svg"
   xmlns:rdf="http://www.w3.org/1999/02/22-rdf-syntax-ns#"
   xmlns:cc="http://creativecommons.org/ns#"
   xmlns:dc="http://purl.org/dc/elements/1.1/">
  <title
     id="title3004">Yaru Icon Theme Template</title>
  <sodipodi:namedview
     stroke="#ef2929"
     fill="#f57900"
     id="base"
     pagecolor="#ffffff"
     bordercolor="#000000"
     borderopacity="0.25490196"
     inkscape:pageopacity="0"
     inkscape:pageshadow="2"
     inkscape:zoom="2"
     inkscape:cx="-21.5"
     inkscape:cy="210.5"
     inkscape:current-layer="layer6"
     showgrid="false"
     inkscape:grid-bbox="true"
     inkscape:document-units="px"
     inkscape:showpageshadow="false"
     inkscape:window-width="1904"
     inkscape:window-height="1011"
     inkscape:window-x="0"
     inkscape:window-y="32"
     width="400px"
     height="300px"
     inkscape:snap-nodes="true"
     inkscape:snap-bbox="true"
     gridtolerance="10000"
     inkscape:object-nodes="true"
     inkscape:snap-grids="true"
     showguides="true"
     inkscape:guide-bbox="true"
     inkscape:window-maximized="1"
     inkscape:bbox-paths="true"
     inkscape:snap-bbox-midpoints="true"
     inkscape:snap-global="true"
     inkscape:object-paths="true"
     inkscape:snap-intersection-paths="true"
     inkscape:snap-smooth-nodes="true"
     inkscape:pagecheckerboard="false"
     showborder="false"
     inkscape:document-rotation="0">
    <inkscape:grid
       spacingy="1"
       spacingx="1"
       id="grid5883"
       type="xygrid"
       enabled="true"
       visible="true"
       empspacing="4"
       snapvisiblegridlinesonly="true"
       originx="0"
       originy="0" />
    <inkscape:grid
       type="xygrid"
       id="grid11592"
       empspacing="2"
       visible="true"
       enabled="false"
       spacingx="0.5"
       spacingy="0.5"
       color="#ff0000"
       opacity="0.1254902"
       empcolor="#ff0000"
       empopacity="0.25098039"
       snapvisiblegridlinesonly="true"
       originx="0"
       originy="0" />
  </sodipodi:namedview>
  <defs
     id="defs3">
    <linearGradient
       inkscape:collect="always"
       id="linearGradient927">
      <stop
         style="stop-color:#ffffff;stop-opacity:1;"
         offset="0"
         id="stop923" />
      <stop
         id="stop933"
         offset="0.125"
         style="stop-color:#ffffff;stop-opacity:0.09803922" />
      <stop
         id="stop931"
         offset="0.92500001"
         style="stop-color:#ffffff;stop-opacity:0.09803922" />
      <stop
         style="stop-color:#ffffff;stop-opacity:0.49803922"
         offset="1"
         id="stop925" />
    </linearGradient>
    <linearGradient
       inkscape:collect="always"
       xlink:href="#linearGradient927"
       id="linearGradient1692-6"
       x1="321.00031"
       y1="244.00034"
       x2="335.00031"
       y2="244.00034"
       gradientUnits="userSpaceOnUse"
       gradientTransform="rotate(90,328.00032,244.00001)" />
    <linearGradient
       inkscape:collect="always"
       xlink:href="#linearGradient927"
       id="linearGradient1690-9"
       x1="320.9993"
       y1="199.99928"
       x2="342.9993"
       y2="199.99928"
       gradientUnits="userSpaceOnUse"
       gradientTransform="rotate(90,331.99929,199.99999)" />
    <linearGradient
       inkscape:collect="always"
       xlink:href="#linearGradient927"
       id="linearGradient1686-0"
       x1="321.99991"
       y1="84.000153"
       x2="365.99991"
       y2="84.000153"
       gradientUnits="userSpaceOnUse"
       gradientTransform="rotate(90,344.00003,84.000125)" />
    <filter
       inkscape:collect="always"
       style="color-interpolation-filters:sRGB"
       id="filter58492"
       x="-0.011999856"
       width="1.0239997"
       y="-0.012000144"
       height="1.0240003">
      <feGaussianBlur
         inkscape:collect="always"
         stdDeviation="1.1200135"
         id="feGaussianBlur58494" />
    </filter>
    <clipPath
       clipPathUnits="userSpaceOnUse"
       id="cp12-5">
      <path
         inkscape:connector-curvature="0"
         d="m 2328.32,421.51 c 97.42,0 176.4,-78.98 176.4,-176.4 0,-97.42 -78.98,-176.4 -176.4,-176.4 -97.42,0 -176.4,78.98 -176.4,176.4 0,97.42 78.98,176.4 176.4,176.4 z"
         id="path499-6" />
    </clipPath>
    <filter
       inkscape:collect="always"
       style="color-interpolation-filters:sRGB"
       id="filter982"
       x="-0.047999998"
       width="1.096"
       y="-0.047999998"
       height="1.096">
      <feGaussianBlur
         inkscape:collect="always"
         stdDeviation="6.174"
         id="feGaussianBlur984" />
    </filter>
    <linearGradient
       id="grd68-9"
       gradientUnits="userSpaceOnUse"
       x1="2331.2749"
       y1="435.5072"
       x2="2331.2749"
       y2="45.72554"
       xlink:href="#linearGradient1089"
       gradientTransform="translate(-3.4704352e-5,10.990787)" />
    <linearGradient
       id="linearGradient1089">
      <stop
         id="stop1087"
         offset="0"
         style="stop-color:#b3b3b3;stop-opacity:1" />
      <stop
         id="stop1085"
         offset="1"
         style="stop-color:#cecece;stop-opacity:1" />
    </linearGradient>
    <linearGradient
       id="linearGradient5232"
       y2="288"
       xlink:href="#linearGradient5226"
       gradientUnits="userSpaceOnUse"
       x2="602"
       y1="288"
       x1="104" />
    <linearGradient
       id="linearGradient5226">
      <stop
         id="stop5228"
         offset="0" />
      <stop
         id="stop5230"
         style="stop-opacity:0"
         offset="1" />
    </linearGradient>
    <clipPath
       id="clipPath5222"
       clipPathUnits="userSpaceOnUse">
      <circle
         id="circle5224"
         r="184"
         style="color:#000000;opacity:0.2;fill:#df382c;enable-background:accumulate"
         cx="288"
         cy="288" />
    </clipPath>
    <filter
       id="filter5264"
       style="color-interpolation-filters:sRGB"
       height="1.192"
       width="1.192"
       y="-0.096000001"
       x="-0.096000001">
      <feGaussianBlur
         id="feGaussianBlur5266"
         stdDeviation="14.72" />
    </filter>
    <linearGradient
       inkscape:collect="always"
       xlink:href="#linearGradient999"
       id="linearGradient1001"
       x1="132.29167"
       y1="64.166649"
       x2="132.29167"
       y2="286.41666"
       gradientUnits="userSpaceOnUse"
       gradientTransform="matrix(1.0947301,0,0,1.0947301,3.6978294,-19.83533)" />
    <linearGradient
       inkscape:collect="always"
       id="linearGradient999">
      <stop
         style="stop-color:#333333;stop-opacity:1"
         offset="0"
         id="stop995" />
      <stop
         style="stop-color:#4d4d4d;stop-opacity:0.59447002"
         offset="1"
         id="stop997" />
    </linearGradient>
    <linearGradient
       inkscape:collect="always"
       xlink:href="#linearGradient892"
       id="linearGradient1131"
       gradientUnits="userSpaceOnUse"
       x1="132.29167"
       y1="42.999985"
       x2="132.29167"
       y2="275.83331"
       gradientTransform="matrix(0.88188877,0,0,0.95282102,32.53074,3.0876806)" />
    <linearGradient
       inkscape:collect="always"
       id="linearGradient892">
      <stop
         style="stop-color:#b3b3b3;stop-opacity:1"
         offset="0"
         id="stop888" />
      <stop
         style="stop-color:#7b7a7a;stop-opacity:0"
         offset="1"
         id="stop890" />
    </linearGradient>
    <linearGradient
       inkscape:collect="always"
       xlink:href="#linearGradient892"
       id="linearGradient1149"
       gradientUnits="userSpaceOnUse"
       gradientTransform="matrix(0.17637775,0,0,0.1905642,320.1067,53.217655)"
       x1="132.29167"
       y1="42.999985"
       x2="132.29167"
       y2="275.83331" />
    <linearGradient
       inkscape:collect="always"
       xlink:href="#linearGradient999"
       id="linearGradient1151"
       gradientUnits="userSpaceOnUse"
       gradientTransform="matrix(0.21894602,0,0,0.21894602,314.34012,48.633053)"
       x1="132.29167"
       y1="64.166649"
       x2="132.29167"
       y2="286.41666" />
    <linearGradient
       inkscape:collect="always"
       xlink:href="#linearGradient1089"
       id="linearGradient1153"
       gradientUnits="userSpaceOnUse"
       gradientTransform="translate(-3.4704352e-5,10.990787)"
       x1="2331.2749"
       y1="435.5072"
       x2="2331.2749"
       y2="45.72554" />
    <linearGradient
       inkscape:collect="always"
       xlink:href="#linearGradient892"
       id="linearGradient1753"
       gradientUnits="userSpaceOnUse"
       gradientTransform="matrix(0.1133857,0,0,0.12250556,320.64002,128.21127)"
       x1="132.29167"
       y1="42.999985"
       x2="132.29167"
       y2="275.83331" />
    <linearGradient
       inkscape:collect="always"
       xlink:href="#linearGradient999"
       id="linearGradient1755"
       gradientUnits="userSpaceOnUse"
       gradientTransform="matrix(0.14075101,0,0,0.14075101,316.93293,125.26403)"
       x1="132.29167"
       y1="64.166649"
       x2="132.29167"
       y2="286.41666" />
    <linearGradient
       inkscape:collect="always"
       xlink:href="#linearGradient1089"
       id="linearGradient1757"
       gradientUnits="userSpaceOnUse"
       gradientTransform="translate(-3.4704352e-5,10.990787)"
       x1="2331.2749"
       y1="435.5072"
       x2="2331.2749"
       y2="45.72554" />
    <linearGradient
       inkscape:collect="always"
       xlink:href="#linearGradient892"
       id="linearGradient1931"
       gradientUnits="userSpaceOnUse"
       gradientTransform="matrix(0.08398941,0,0,0.09074486,320.62249,185.342)"
       x1="132.29167"
       y1="42.999985"
       x2="132.29167"
       y2="275.83331" />
    <linearGradient
       inkscape:collect="always"
       xlink:href="#linearGradient999"
       id="linearGradient1933"
       gradientUnits="userSpaceOnUse"
       gradientTransform="matrix(0.10426001,0,0,0.10426001,317.8765,183.15885)"
       x1="132.29167"
       y1="64.166649"
       x2="132.29167"
       y2="286.41666" />
    <linearGradient
       inkscape:collect="always"
       xlink:href="#linearGradient1089"
       id="linearGradient1935"
       gradientUnits="userSpaceOnUse"
       gradientTransform="translate(-3.4704352e-5,10.990787)"
       x1="2331.2749"
       y1="435.5072"
       x2="2331.2749"
       y2="45.72554" />
    <linearGradient
       inkscape:collect="always"
       xlink:href="#linearGradient892"
       id="linearGradient2635"
       gradientUnits="userSpaceOnUse"
       gradientTransform="matrix(0.05039365,0,0,0.05444692,321.17348,235.20501)"
       x1="132.29167"
       y1="42.999985"
       x2="132.29167"
       y2="275.83331" />
    <linearGradient
       inkscape:collect="always"
       xlink:href="#linearGradient999"
       id="linearGradient2637"
       gradientUnits="userSpaceOnUse"
       gradientTransform="matrix(0.06255601,0,0,0.06255601,319.52589,233.89512)"
       x1="132.29167"
       y1="64.166649"
       x2="132.29167"
       y2="286.41666" />
    <linearGradient
       inkscape:collect="always"
       xlink:href="#linearGradient1089"
       id="linearGradient2639"
       gradientUnits="userSpaceOnUse"
       gradientTransform="translate(-3.4704352e-5,10.990787)"
       x1="2331.2749"
       y1="435.5072"
       x2="2331.2749"
       y2="45.72554" />
  </defs>
  <metadata
     id="metadata4">
    <rdf:RDF>
      <cc:Work
         rdf:about="">
        <dc:format>image/svg+xml</dc:format>
        <dc:type
           rdf:resource="http://purl.org/dc/dcmitype/StillImage" />
        <dc:creator>
          <cc:Agent>
            <dc:title>Yaru Team, based on the Suru template by Sam Hewitt and original Suru designs by Matthieu James</dc:title>
          </cc:Agent>
        </dc:creator>
        <dc:source />
        <cc:license
           rdf:resource="http://creativecommons.org/licenses/by-sa/4.0/" />
        <dc:title>Yaru Icon Theme Template</dc:title>
        <dc:subject>
          <rdf:Bag />
        </dc:subject>
        <dc:date />
        <dc:rights>
          <cc:Agent>
            <dc:title />
          </cc:Agent>
        </dc:rights>
        <dc:publisher>
          <cc:Agent>
            <dc:title />
          </cc:Agent>
        </dc:publisher>
        <dc:identifier />
        <dc:relation />
        <dc:language />
        <dc:coverage />
        <dc:description />
        <dc:contributor>
          <cc:Agent>
            <dc:title />
          </cc:Agent>
        </dc:contributor>
      </cc:Work>
      <cc:Work
         rdf:about="">
        <dc:format>image/svg+xml</dc:format>
        <dc:type
           rdf:resource="http://purl.org/dc/dcmitype/StillImage" />
      </cc:Work>
      <cc:License
         rdf:about="http://creativecommons.org/licenses/by-sa/4.0/">
        <cc:permits
           rdf:resource="http://creativecommons.org/ns#Reproduction" />
        <cc:permits
           rdf:resource="http://creativecommons.org/ns#Distribution" />
        <cc:requires
           rdf:resource="http://creativecommons.org/ns#Notice" />
        <cc:requires
           rdf:resource="http://creativecommons.org/ns#Attribution" />
        <cc:permits
           rdf:resource="http://creativecommons.org/ns#DerivativeWorks" />
        <cc:requires
           rdf:resource="http://creativecommons.org/ns#ShareAlike" />
      </cc:License>
    </rdf:RDF>
  </metadata>
  <g
     style="display:inline"
     inkscape:groupmode="layer"
     inkscape:label="Icon"
     id="layer1">
    <g
       style="display:none"
       inkscape:label="Baseplate"
       id="layer7"
       inkscape:groupmode="layer"
       sodipodi:insensitive="true">
      <text
         y="-8.2548828"
         xml:space="preserve"
         x="19.006836"
         style="font-style:normal;font-variant:normal;font-weight:normal;font-stretch:normal;line-height:0%;font-family:'DejaVu Sans';-inkscape-font-specification:'DejaVu Sans';display:inline;fill:#000000;fill-opacity:1;stroke:none;enable-background:new"
         inkscape:label="context"
         id="context"><tspan
           style="font-style:normal;font-variant:normal;font-weight:normal;font-stretch:normal;font-size:18px;line-height:1.25;font-family:'DejaVu Sans';-inkscape-font-specification:'DejaVu Sans'"
           y="-8.2548828"
           x="19.006836"
           sodipodi:role="line"
           id="tspan3933">apps</tspan></text>
      <text
         y="-8.2548828"
         xml:space="preserve"
         x="146.48828"
         style="font-style:normal;font-variant:normal;font-weight:bold;font-stretch:normal;line-height:0%;font-family:'DejaVu Sans';-inkscape-font-specification:'DejaVu Sans Bold';text-align:start;writing-mode:lr-tb;text-anchor:start;display:inline;fill:#000000;fill-opacity:1;stroke:none;enable-background:new"
         inkscape:label="icon-name"
         id="icon-name"><tspan
           style="font-style:normal;font-variant:normal;font-weight:bold;font-stretch:normal;font-size:18px;line-height:1.25;font-family:'DejaVu Sans';-inkscape-font-specification:'DejaVu Sans Bold'"
           y="-8.2548828"
           x="146.48828"
           sodipodi:role="line"
           id="tspan3937">app-name</tspan></text>
      <rect
         style="display:inline;overflow:visible;visibility:visible;fill:#cdcdcd;fill-opacity:1;fill-rule:nonzero;stroke:none;stroke-width:2;marker:none;enable-background:accumulate"
         id="rect16x16"
         width="16"
         height="16"
         x="320"
         y="236"
         inkscape:label="16x16" />
      <rect
         style="display:inline;overflow:visible;visibility:visible;fill:#cdcdcd;fill-opacity:1;fill-rule:nonzero;stroke:none;stroke-width:2;marker:none;enable-background:accumulate"
         id="rect24x24"
         width="24"
         height="24"
         x="320"
         y="188"
         inkscape:label="24x24" />
      <rect
         style="display:inline;overflow:visible;visibility:visible;fill:#cdcdcd;fill-opacity:1;fill-rule:nonzero;stroke:none;stroke-width:2;marker:none;enable-background:accumulate"
         id="rect32x32"
         width="32"
         height="32"
         x="320"
         y="132"
         inkscape:label="32x32" />
      <rect
         inkscape:label="48x48"
         y="60"
         x="320"
         height="48"
         width="48"
         id="rect48x48"
         style="display:inline;overflow:visible;visibility:visible;fill:#cdcdcd;fill-opacity:1;fill-rule:nonzero;stroke:none;stroke-width:2;marker:none;enable-background:accumulate" />
      <rect
         style="display:inline;overflow:visible;visibility:visible;fill:#cdcdcd;fill-opacity:1;fill-rule:nonzero;stroke:none;stroke-width:2;marker:none;enable-background:accumulate"
         id="rect3951"
         width="256"
         height="256"
         x="24"
         y="28"
         inkscape:label="48x48" />
    </g>
    <g
       inkscape:groupmode="layer"
       id="layer9"
       inkscape:label="Optional outline for white icons"
       style="display:none">
      <path
         style="color:#000000;display:inline;overflow:visible;visibility:visible;opacity:0.2;fill:#000000;fill-opacity:1;fill-rule:nonzero;stroke:#000000;stroke-width:4;stroke-miterlimit:4;stroke-dasharray:none;marker:none;enable-background:accumulate"
         d="m 225.07297,43.99969 c 35.29673,0 39.09461,3.62542 38.92162,38.99353 v 73.00647 73.00648 c 0.17299,35.36812 -3.62489,38.99353 -38.92162,38.99353 H 78.916218 c -35.29671,0 -38.92161,-3.625 -38.92161,-38.99353 V 155.99969 82.99322 c 0,-35.36853 3.6249,-38.99353 38.92161,-38.99353 z"
         id="rect4158-9"
         inkscape:connector-curvature="0"
         sodipodi:nodetypes="scccssscsss" />
    </g>
    <g
       inkscape:groupmode="layer"
       id="layer8"
       inkscape:label="Backgrounds"
       style="display:inline">
      <path
         style="color:#000000;display:inline;overflow:visible;visibility:visible;opacity:0.1;fill:#000000;fill-opacity:1;fill-rule:nonzero;stroke:none;stroke-width:1;marker:none;filter:url(#filter58492);enable-background:accumulate"
         d="m 225.07297,44.99999 c 35.29673,0 39.09461,3.62542 38.92162,38.99353 v 73.00647 73.00648 C 264.16758,265.37459 260.3697,269 225.07297,269 H 78.916218 c -35.29671,0 -38.92161,-3.625 -38.92161,-38.99353 V 156.99999 83.99352 c 0,-35.36853 3.6249,-38.99353 38.92161,-38.99353 z"
         id="rect4158-7"
         inkscape:connector-curvature="0"
         sodipodi:nodetypes="scccssscsss" />
      <text
         xml:space="preserve"
         style="font-style:normal;font-weight:normal;font-size:10.2184px;line-height:1.25;font-family:sans-serif;letter-spacing:0px;word-spacing:0px;fill:#000000;fill-opacity:1;stroke:none;stroke-width:0.25546"
         x="-510.12869"
         y="-258.89517"
         id="text1170" />
      <g
         id="Capa_1_86_"
         transform="matrix(3.9546741,0,0,3.9546741,-487.36009,-263.92995)" />
      <g
         id="g1182"
         transform="matrix(3.9546741,0,0,3.9546741,-487.36009,-263.92995)" />
      <g
         id="g1184"
         transform="matrix(3.9546741,0,0,3.9546741,-487.36009,-263.92995)" />
      <g
         id="g1186"
         transform="matrix(3.9546741,0,0,3.9546741,-487.36009,-263.92995)" />
      <g
         id="g1188"
         transform="matrix(3.9546741,0,0,3.9546741,-487.36009,-263.92995)" />
      <g
         id="g1190"
         transform="matrix(3.9546741,0,0,3.9546741,-487.36009,-263.92995)" />
      <g
         id="g1192"
         transform="matrix(3.9546741,0,0,3.9546741,-487.36009,-263.92995)" />
      <g
         id="g1194"
         transform="matrix(3.9546741,0,0,3.9546741,-487.36009,-263.92995)" />
      <g
         id="g1196"
         transform="matrix(3.9546741,0,0,3.9546741,-487.36009,-263.92995)" />
      <g
         id="g1198"
         transform="matrix(3.9546741,0,0,3.9546741,-487.36009,-263.92995)" />
      <g
         id="g1200"
         transform="matrix(3.9546741,0,0,3.9546741,-487.36009,-263.92995)" />
      <g
         id="g1202"
         transform="matrix(3.9546741,0,0,3.9546741,-487.36009,-263.92995)" />
      <g
         id="g1204"
         transform="matrix(3.9546741,0,0,3.9546741,-487.36009,-263.92995)" />
      <g
         id="g1206"
         transform="matrix(3.9546741,0,0,3.9546741,-487.36009,-263.92995)" />
      <g
         id="g1208"
         transform="matrix(3.9546741,0,0,3.9546741,-487.36009,-263.92995)" />
      <g
         id="g1210"
         transform="matrix(3.9546741,0,0,3.9546741,-487.36009,-263.92995)" />
      <g
         style="opacity:0.51;enable-background:new"
         id="layer2"
         transform="matrix(0.50366448,0,0,0.50366448,-575.4806,-340.59651)">
        <g
           id="g5219"
           style="opacity:0.6;stroke:url(#linearGradient5232);filter:url(#filter5264)"
           transform="rotate(90,288,288)"
           clip-path="url(#clipPath5222)" />
      </g>
      <rect
         style="fill:url(#linearGradient1131);fill-opacity:1;fill-rule:evenodd;stroke:none;stroke-width:19.0957;stroke-linejoin:round;stroke-miterlimit:4;stroke-dasharray:none;stroke-opacity:0;paint-order:stroke markers fill"
         id="rect1129"
         width="209.99976"
         height="209.99976"
         x="46.997398"
         y="52.000122"
         rx="10.053531" />
      <rect
         style="fill:url(#linearGradient1149);fill-opacity:1;fill-rule:evenodd;stroke:none;stroke-width:3.81915;stroke-linejoin:round;stroke-miterlimit:4;stroke-dasharray:none;stroke-opacity:0;paint-order:stroke markers fill"
         id="rect1137"
         width="41.99995"
         height="41.99995"
         x="323.00003"
         y="63.000141"
         rx="2.0107062" />
      <rect
         style="fill:url(#linearGradient1753);fill-opacity:1;fill-rule:evenodd;stroke:none;stroke-width:2.45516;stroke-linejoin:round;stroke-miterlimit:4;stroke-dasharray:none;stroke-opacity:0;paint-order:stroke markers fill"
         id="rect1741"
         width="26.999968"
         height="26.999968"
         x="322.50003"
         y="134.50002"
         rx="1.2925968" />
      <rect
         style="fill:url(#linearGradient1931);fill-opacity:1;fill-rule:evenodd;stroke:none;stroke-width:1.81864;stroke-linejoin:round;stroke-miterlimit:4;stroke-dasharray:none;stroke-opacity:0;paint-order:stroke markers fill"
         id="rect1919"
         width="19.999977"
         height="19.999977"
         x="322.00027"
         y="190.00032"
         rx="0.95747912" />
      <rect
         style="fill:url(#linearGradient2635);fill-opacity:1;fill-rule:evenodd;stroke:none;stroke-width:1.09118;stroke-linejoin:round;stroke-miterlimit:4;stroke-dasharray:none;stroke-opacity:0;paint-order:stroke markers fill"
         id="rect2623"
         width="11.999987"
         height="11.999987"
         x="322.00015"
         y="238"
         rx="0.57448751" />
    </g>
    <g
       inkscape:groupmode="layer"
       id="layer6"
       inkscape:label="Pictograms and folds"
       style="display:inline">
      <circle
         cy="244"
         cx="328.00015"
         style="display:inline;enable-background:accumulate;color:#000000;fill:url(#linearGradient2637);fill-opacity:1;stroke-width:0.0288461"
         r="5.9999933"
         id="circle2625" />
      <g
         id="g2631"
         transform="matrix(0.03546779,0,0,0.03546771,245.41943,234.97232)"
         style="display:inline;enable-background:new">
        <path
           inkscape:connector-curvature="0"
           style="opacity:0.5;fill:#050505;fill-opacity:1;filter:url(#filter982)"
           d="m 2410.4599,126.20226 -6.45,17.23 c -0.42,1.13 0.01,2.63 0.96,3.36 l 7.59,5.81 c 0.93,0.71 2.52,0.75 3.5,0.05 l 14.96,-10.68 c 0.98,-0.7 2.47,-0.58 3.32,0.28 l 6.27,6.27 c 0.87,0.87 0.98,2.34 0.28,3.32 l -10.68,14.95 c -0.7,0.98 -0.67,2.55 0.06,3.5 l 5.82,7.59 c 0.71,0.93 2.24,1.38 3.36,0.96 l 17.21,-6.45 c 1.13,-0.42 2.53,0.08 3.13,1.13 l 4.43,7.67 c 0.62,1.07 0.34,2.51 -0.59,3.28 l -14.2,11.69 c -0.93,0.77 -1.31,2.29 -0.85,3.39 l 3.65,8.83 c 0.45,1.08 1.8,1.91 3,1.8 l 18.31,-1.78 c 1.2,-0.12 2.43,0.73 2.74,1.9 l 2.29,8.56 c 0.32,1.19 -0.32,2.51 -1.42,3.01 l -16.75,7.62 c -1.1,0.5 -1.86,1.87 -1.7,3.06 l 1.25,9.47 c 0.15,1.16 1.25,2.31 2.44,2.51 l 18.14,3.02 c 1.19,0.2 2.15,1.34 2.15,2.54 v 8.86 c 0,1.23 -0.96,2.35 -2.15,2.54 l -18.12,3.02 c -1.19,0.2 -2.28,1.32 -2.43,2.51 l -1.24,9.48 c -0.15,1.16 0.61,2.56 1.7,3.06 l 16.72,7.61 c 1.09,0.5 1.73,1.85 1.42,3.01 l -2.29,8.56 c -0.32,1.19 -1.54,2.02 -2.74,1.9 l -18.29,-1.77 c -1.2,-0.12 -2.54,0.69 -3,1.8 l -3.67,8.83 c -0.45,1.08 -0.08,2.63 0.85,3.39 l 14.2,11.69 c 0.93,0.77 1.2,2.23 0.59,3.28 l -4.43,7.67 c -0.62,1.07 -2.01,1.55 -3.14,1.13 l -17.23,-6.45 c -1.13,-0.42 -2.63,0.01 -3.36,0.96 l -5.81,7.59 c -0.71,0.93 -0.75,2.52 -0.05,3.5 l 10.68,14.96 c 0.7,0.98 0.58,2.47 -0.28,3.32 l -6.27,6.27 c -0.87,0.87 -2.34,0.98 -3.32,0.28 l -14.95,-10.68 c -0.98,-0.7 -2.55,-0.67 -3.5,0.06 l -7.59,5.82 c -0.93,0.71 -1.38,2.24 -0.96,3.36 l 6.45,17.21 c 0.42,1.13 -0.08,2.53 -1.13,3.13 l -7.67,4.43 c -1.07,0.62 -2.51,0.34 -3.28,-0.59 l -11.69,-14.2 c -0.77,-0.93 -2.29,-1.31 -3.39,-0.85 l -8.83,3.65 c -1.08,0.45 -1.91,1.8 -1.8,3 l 1.78,18.31 c 0.12,1.2 -0.73,2.43 -1.9,2.74 l -8.56,2.29 c -1.19,0.32 -2.51,-0.32 -3.01,-1.42 l -7.62,-16.75 c -0.5,-1.1 -1.87,-1.86 -3.06,-1.7 l -9.47,1.25 c -1.16,0.15 -2.31,1.25 -2.51,2.44 l -3.02,18.14 c -0.2,1.19 -1.34,2.15 -2.54,2.15 h -8.86 c -1.23,0 -2.35,-0.96 -2.54,-2.15 l -3.02,-18.12 c -0.2,-1.19 -1.32,-2.28 -2.51,-2.43 l -9.48,-1.24 c -1.16,-0.15 -2.56,0.61 -3.06,1.7 l -7.61,16.72 c -0.5,1.09 -1.85,1.73 -3.01,1.42 l -8.56,-2.29 c -1.19,-0.32 -2.02,-1.54 -1.9,-2.74 l 1.77,-18.29 c 0.12,-1.2 -0.69,-2.54 -1.8,-3 l -8.83,-3.67 c -1.08,-0.45 -2.63,-0.08 -3.39,0.85 l -11.69,14.2 c -0.77,0.93 -2.23,1.2 -3.28,0.59 l -7.67,-4.43 c -1.07,-0.62 -1.55,-2.01 -1.13,-3.14 l 6.45,-17.23 c 0.42,-1.13 -0.01,-2.63 -0.96,-3.36 l -7.59,-5.81 c -0.93,-0.71 -2.52,-0.75 -3.5,-0.05 l -14.96,10.68 c -0.98,0.7 -2.47,0.58 -3.32,-0.28 l -6.27,-6.27 c -0.87,-0.87 -0.98,-2.34 -0.28,-3.32 l 10.68,-14.95 c 0.7,-0.98 0.67,-2.55 -0.06,-3.5 l -5.82,-7.59 c -0.71,-0.93 -2.24,-1.38 -3.36,-0.96 l -17.21,6.45 c -1.13,0.42 -2.53,-0.08 -3.13,-1.13 l -4.43,-7.67 c -0.62,-1.07 -0.34,-2.51 0.59,-3.28 l 14.2,-11.69 c 0.93,-0.77 1.31,-2.29 0.85,-3.39 l -3.65,-8.83 c -0.45,-1.08 -1.8,-1.91 -3,-1.8 l -18.31,1.78 c -1.2,0.12 -2.43,-0.73 -2.74,-1.9 l -2.29,-8.56 c -0.32,-1.19 0.32,-2.51 1.42,-3.01 l 16.75,-7.62 c 1.1,-0.5 1.86,-1.87 1.7,-3.06 l -1.25,-9.47 c -0.15,-1.16 -1.25,-2.31 -2.44,-2.51 l -18.14,-3.02 c -1.19,-0.2 -2.15,-1.34 -2.15,-2.54 v -8.86 c 0,-1.23 0.96,-2.35 2.15,-2.54 l 18.12,-3.02 c 1.19,-0.2 2.28,-1.32 2.43,-2.51 l 1.24,-9.48 c 0.15,-1.16 -0.61,-2.56 -1.7,-3.06 l -16.72,-7.61 c -1.09,-0.5 -1.73,-1.85 -1.42,-3.01 l 2.29,-8.56 c 0.32,-1.19 1.54,-2.02 2.74,-1.9 l 18.29,1.77 c 1.2,0.12 2.54,-0.69 3,-1.8 l 3.67,-8.83 c 0.45,-1.08 0.08,-2.63 -0.85,-3.39 l -14.2,-11.69 c -0.93,-0.77 -1.2,-2.23 -0.59,-3.28 l 4.43,-7.67 c 0.62,-1.07 2.01,-1.55 3.14,-1.13 l 17.23,6.45 c 1.13,0.42 2.63,-0.01 3.36,-0.96 l 5.81,-7.59 c 0.71,-0.93 0.75,-2.52 0.05,-3.5 l -10.68,-14.96 c -0.7,-0.98 -0.58,-2.47 0.28,-3.32 l 6.27,-6.27 c 0.87,-0.87 2.34,-0.98 3.32,-0.28 l 14.95,10.68 c 0.98,0.7 2.55,0.67 3.5,-0.06 l 7.59,-5.82 c 0.93,-0.71 1.38,-2.24 0.96,-3.36 l -6.45,-17.21 c -0.42,-1.13 0.08,-2.53 1.13,-3.13 l 7.67,-4.43 c 1.07,-0.62 2.51,-0.34 3.28,0.59 l 11.69,14.2 c 0.77,0.93 2.29,1.31 3.39,0.85 l 8.83,-3.65 c 1.08,-0.45 1.91,-1.8 1.8,-3 l -1.78,-18.31 c -0.12,-1.2 0.73,-2.43 1.9,-2.74 l 8.56,-2.29 c 1.19,-0.32 2.51,0.32 3.01,1.42 l 7.62,16.75 c 0.5,1.1 1.87,1.86 3.06,1.7 l 9.47,-1.25 c 1.16,-0.15 2.31,-1.25 2.51,-2.44 l 3.02,-18.14 c 0.2,-1.19 1.34,-2.15 2.54,-2.15 h 8.86 c 1.23,0 2.35,0.96 2.54,2.15 l 3.02,18.12 c 0.2,1.19 1.32,2.28 2.51,2.43 l 9.48,1.24 c 1.16,0.15 2.56,-0.61 3.06,-1.7 l 7.61,-16.72 c 0.5,-1.09 1.85,-1.73 3.01,-1.42 l 8.56,2.29 c 1.19,0.32 2.02,1.54 1.9,2.74 l -1.77,18.29 c -0.12,1.2 0.69,2.54 1.8,3 l 8.83,3.67 c 1.08,0.45 2.63,0.08 3.39,-0.85 l 11.69,-14.2 c 0.77,-0.93 2.23,-1.2 3.28,-0.59 l 7.67,4.43 c 1.07,0.62 1.55,2.01 1.13,3.14 z m -29.36,36.71 c -24.86,-14.36 -53.13,-17.48 -78.92,-10.94 -4.97,1.26 -2.05,0.57 -2.05,0.57 -6.92,2.36 -9.68,9.49 -6.19,15.85 0,0 -2.01,-3.67 0.16,0.28 10.34,18.87 31.04,56.63 31.04,56.63 4.68,8.54 16.37,15.3 26.12,15.1 0,0 45.86,-0.95 68.8,-1.43 4.26,-0.09 0,0 0,0 7.06,-0.15 11.65,-6.09 10.11,-12.74 -7.16,-25.78 -24.05,-48.88 -49.06,-63.32 z m -1.73,184.17 c 25.11,-13.92 42.34,-36.54 50.02,-62.02 1.48,-4.91 0.57,-2.05 0.57,-2.05 1.54,-7.15 -3.15,-13.18 -10.4,-13.47 0,0 4.18,0.17 -0.32,-0.01 -21.5,-0.85 -64.52,-2.56 -64.52,-2.56 -9.73,-0.39 -21.55,6.15 -26.4,14.61 0,0 -22.8,39.8 -34.21,59.71 -2.12,3.7 0,0 0,0 -3.51,6.13 -0.77,13.12 5.72,15.23 0,0 -4.1,-1.14 0,0 25.79,7.14 54.29,4.56 79.54,-9.44 z m -125.19,-16.85 c 5.07,4.57 12.5,3.44 16.05,-2.67 0,0 -2.14,3.68 0,0 11.54,-19.83 34.6,-59.48 34.6,-59.48 4.9,-8.43 4.66,-21.93 -0.54,-30.17 0,0 -22.99,-36.41 -34.48,-54.6 -2.41,-3.81 -0.17,-0.27 -0.17,-0.27 -3.87,-6.13 -11.44,-7.18 -16.86,-2.27 0,0 2.02,-2.22 -1.49,1.52 -18.22,19.39 -29.2,45.62 -28.7,74.33 0.5,28.87 12.52,54.84 31.6,73.6 z"
           class="shp86"
           id="path2627" />
        <path
           id="path2629"
           class="shp86"
           d="m 2410.4599,123.37078 -6.45,17.23 c -0.42,1.13 0.01,2.63 0.96,3.36 l 7.59,5.81 c 0.93,0.71 2.52,0.75 3.5,0.05 l 14.96,-10.68 c 0.98,-0.7 2.47,-0.58 3.32,0.28 l 6.27,6.27 c 0.87,0.87 0.98,2.34 0.28,3.32 l -10.68,14.95 c -0.7,0.98 -0.67,2.55 0.06,3.5 l 5.82,7.59 c 0.71,0.93 2.24,1.38 3.36,0.96 l 17.21,-6.45 c 1.13,-0.42 2.53,0.08 3.13,1.13 l 4.43,7.67 c 0.62,1.07 0.34,2.51 -0.59,3.28 l -14.2,11.69 c -0.93,0.77 -1.31,2.29 -0.85,3.39 l 3.65,8.83 c 0.45,1.08 1.8,1.91 3,1.8 l 18.31,-1.78 c 1.2,-0.12 2.43,0.73 2.74,1.9 l 2.29,8.56 c 0.32,1.19 -0.32,2.51 -1.42,3.01 l -16.75,7.62 c -1.1,0.5 -1.86,1.87 -1.7,3.06 l 1.25,9.47 c 0.15,1.16 1.25,2.31 2.44,2.51 l 18.14,3.02 c 1.19,0.2 2.15,1.34 2.15,2.54 v 8.86 c 0,1.23 -0.96,2.35 -2.15,2.54 l -18.12,3.02 c -1.19,0.2 -2.28,1.32 -2.43,2.51 l -1.24,9.48 c -0.15,1.16 0.61,2.56 1.7,3.06 l 16.72,7.61 c 1.09,0.5 1.73,1.85 1.42,3.01 l -2.29,8.56 c -0.32,1.19 -1.54,2.02 -2.74,1.9 l -18.29,-1.77 c -1.2,-0.12 -2.54,0.69 -3,1.8 l -3.67,8.83 c -0.45,1.08 -0.08,2.63 0.85,3.39 l 14.2,11.69 c 0.93,0.77 1.2,2.23 0.59,3.28 l -4.43,7.67 c -0.62,1.07 -2.01,1.55 -3.14,1.13 l -17.23,-6.45 c -1.13,-0.42 -2.63,0.01 -3.36,0.96 l -5.81,7.59 c -0.71,0.93 -0.75,2.52 -0.05,3.5 l 10.68,14.96 c 0.7,0.98 0.58,2.47 -0.28,3.32 l -6.27,6.27 c -0.87,0.87 -2.34,0.98 -3.32,0.28 l -14.95,-10.68 c -0.98,-0.7 -2.55,-0.67 -3.5,0.06 l -7.59,5.82 c -0.93,0.71 -1.38,2.24 -0.96,3.36 l 6.45,17.21 c 0.42,1.13 -0.08,2.53 -1.13,3.13 l -7.67,4.43 c -1.07,0.62 -2.51,0.34 -3.28,-0.59 l -11.69,-14.2 c -0.77,-0.93 -2.29,-1.31 -3.39,-0.85 l -8.83,3.65 c -1.08,0.45 -1.91,1.8 -1.8,3 l 1.78,18.31 c 0.12,1.2 -0.73,2.43 -1.9,2.74 l -8.56,2.29 c -1.19,0.32 -2.51,-0.32 -3.01,-1.42 l -7.62,-16.75 c -0.5,-1.1 -1.87,-1.86 -3.06,-1.7 l -9.47,1.25 c -1.16,0.15 -2.31,1.25 -2.51,2.44 l -3.02,18.14 c -0.2,1.19 -1.34,2.15 -2.54,2.15 h -8.86 c -1.23,0 -2.35,-0.96 -2.54,-2.15 l -3.02,-18.12 c -0.2,-1.19 -1.32,-2.28 -2.51,-2.43 l -9.48,-1.24 c -1.16,-0.15 -2.56,0.61 -3.06,1.7 l -7.61,16.72 c -0.5,1.09 -1.85,1.73 -3.01,1.42 l -8.56,-2.29 c -1.19,-0.32 -2.02,-1.54 -1.9,-2.74 l 1.77,-18.29 c 0.12,-1.2 -0.69,-2.54 -1.8,-3 l -8.83,-3.67 c -1.08,-0.45 -2.63,-0.08 -3.39,0.85 l -11.69,14.2 c -0.77,0.93 -2.23,1.2 -3.28,0.59 l -7.67,-4.43 c -1.07,-0.62 -1.55,-2.01 -1.13,-3.14 l 6.45,-17.23 c 0.42,-1.13 -0.01,-2.63 -0.96,-3.36 l -7.59,-5.81 c -0.93,-0.71 -2.52,-0.75 -3.5,-0.05 l -14.96,10.68 c -0.98,0.7 -2.47,0.58 -3.32,-0.28 l -6.27,-6.27 c -0.87,-0.87 -0.98,-2.34 -0.28,-3.32 l 10.68,-14.95 c 0.7,-0.98 0.67,-2.55 -0.06,-3.5 l -5.82,-7.59 c -0.71,-0.93 -2.24,-1.38 -3.36,-0.96 l -17.21,6.45 c -1.13,0.42 -2.53,-0.08 -3.13,-1.13 l -4.43,-7.67 c -0.62,-1.07 -0.34,-2.51 0.59,-3.28 l 14.2,-11.69 c 0.93,-0.77 1.31,-2.29 0.85,-3.39 l -3.65,-8.83 c -0.45,-1.08 -1.8,-1.91 -3,-1.8 l -18.31,1.78 c -1.2,0.12 -2.43,-0.73 -2.74,-1.9 l -2.29,-8.56 c -0.32,-1.19 0.32,-2.51 1.42,-3.01 l 16.75,-7.62 c 1.1,-0.5 1.86,-1.87 1.7,-3.06 l -1.25,-9.47 c -0.15,-1.16 -1.25,-2.31 -2.44,-2.51 l -18.14,-3.02 c -1.19,-0.2 -2.15,-1.34 -2.15,-2.54 v -8.86 c 0,-1.23 0.96,-2.35 2.15,-2.54 l 18.12,-3.02 c 1.19,-0.2 2.28,-1.32 2.43,-2.51 l 1.24,-9.48 c 0.15,-1.16 -0.61,-2.56 -1.7,-3.06 l -16.72,-7.61 c -1.09,-0.5 -1.73,-1.85 -1.42,-3.01 l 2.29,-8.56 c 0.32,-1.19 1.54,-2.02 2.74,-1.9 l 18.29,1.77 c 1.2,0.12 2.54,-0.69 3,-1.8 l 3.67,-8.83 c 0.45,-1.08 0.08,-2.63 -0.85,-3.39 l -14.2,-11.69 c -0.93,-0.77 -1.2,-2.23 -0.59,-3.28 l 4.43,-7.67 c 0.62,-1.07 2.01,-1.55 3.14,-1.13 l 17.23,6.45 c 1.13,0.42 2.63,-0.01 3.36,-0.96 l 5.81,-7.59 c 0.71,-0.93 0.75,-2.52 0.05,-3.5 l -10.68,-14.96 c -0.7,-0.98 -0.58,-2.47 0.28,-3.32 l 6.27,-6.27 c 0.87,-0.87 2.34,-0.98 3.32,-0.28 l 14.95,10.68 c 0.98,0.7 2.55,0.67 3.5,-0.06 l 7.59,-5.82 c 0.93,-0.71 1.38,-2.24 0.96,-3.36 l -6.45,-17.21 c -0.42,-1.13 0.08,-2.53 1.13,-3.13 l 7.67,-4.43 c 1.07,-0.62 2.51,-0.34 3.28,0.59 l 11.69,14.2 c 0.77,0.93 2.29,1.31 3.39,0.85 l 8.83,-3.65 c 1.08,-0.45 1.91,-1.8 1.8,-3 l -1.78,-18.30999 c -0.12,-1.2 0.73,-2.43 1.9,-2.74 l 8.56,-2.29 c 1.19,-0.32 2.51,0.32 3.01,1.42 l 7.62,16.74999 c 0.5,1.1 1.87,1.86 3.06,1.7 l 9.47,-1.25 c 1.16,-0.15 2.31,-1.25 2.51,-2.44 l 3.02,-18.139993 c 0.2,-1.19 1.34,-2.15 2.54,-2.15 h 8.86 c 1.23,0 2.35,0.96 2.54,2.15 l 3.02,18.119993 c 0.2,1.19 1.32,2.28 2.51,2.43 l 9.48,1.24 c 1.16,0.15 2.56,-0.61 3.06,-1.7 l 7.61,-16.71999 c 0.5,-1.09 1.85,-1.73 3.01,-1.42 l 8.56,2.29 c 1.19,0.32 2.02,1.54 1.9,2.74 l -1.77,18.28999 c -0.12,1.2 0.69,2.54 1.8,3 l 8.83,3.67 c 1.08,0.45 2.63,0.08 3.39,-0.85 l 11.69,-14.2 c 0.77,-0.93 2.23,-1.2 3.28,-0.59 l 7.67,4.43 c 1.07,0.62 1.55,2.01 1.13,3.14 z m -29.36,36.71 c -24.86,-14.36 -53.13,-17.48 -78.92,-10.94 -4.97,1.26 -2.05,0.57 -2.05,0.57 -6.92,2.36 -9.68,9.49 -6.19,15.85 0,0 -2.01,-3.67 0.16,0.28 10.34,18.87 31.04,56.63 31.04,56.63 4.68,8.54 16.37,15.3 26.12,15.1 0,0 45.86,-0.95 68.8,-1.43 4.26,-0.09 0,0 0,0 7.06,-0.15 11.65,-6.09 10.11,-12.74 -7.16,-25.78 -24.05,-48.88 -49.06,-63.32 z m -1.73,184.17 c 25.11,-13.92 42.34,-36.54 50.02,-62.02 1.48,-4.91 0.57,-2.05 0.57,-2.05 1.54,-7.15 -3.15,-13.18 -10.4,-13.47 0,0 4.18,0.17 -0.32,-0.01 -21.5,-0.85 -64.52,-2.56 -64.52,-2.56 -9.73,-0.39 -21.55,6.15 -26.4,14.61 0,0 -22.8,39.8 -34.21,59.71 -2.12,3.7 0,0 0,0 -3.51,6.13 -0.77,13.12 5.72,15.23 0,0 -4.1,-1.14 0,0 25.79,7.14 54.29,4.56 79.54,-9.44 z m -125.19,-16.85 c 5.07,4.57 12.5,3.44 16.05,-2.67 0,0 -2.14,3.68 0,0 11.54,-19.83 34.6,-59.48 34.6,-59.48 4.9,-8.43 4.66,-21.93 -0.54,-30.17 0,0 -22.99,-36.41 -34.48,-54.6 -2.41,-3.81 -0.17,-0.27 -0.17,-0.27 -3.87,-6.13 -11.44,-7.18 -16.86,-2.27 0,0 2.02,-2.22 -1.49,1.52 -18.22,19.39 -29.2,45.62 -28.7,74.33 0.5,28.87 12.52,54.84 31.6,73.6 z"
           style="fill:url(#linearGradient2639);fill-opacity:1"
           inkscape:connector-curvature="0" />
      </g>
      <circle
         cy="200.00031"
         cx="332.00024"
         style="display:inline;enable-background:accumulate;color:#000000;fill:url(#linearGradient1933);fill-opacity:1;stroke-width:0.0480768"
         r="9.9999886"
         id="circle1921" />
      <g
         id="g1927"
         transform="matrix(0.05911298,0,0,0.05911284,194.36574,184.95419)"
         style="display:inline;enable-background:new">
        <path
           inkscape:connector-curvature="0"
           style="opacity:0.5;fill:#050505;fill-opacity:1;filter:url(#filter982)"
           d="m 2410.4599,126.20226 -6.45,17.23 c -0.42,1.13 0.01,2.63 0.96,3.36 l 7.59,5.81 c 0.93,0.71 2.52,0.75 3.5,0.05 l 14.96,-10.68 c 0.98,-0.7 2.47,-0.58 3.32,0.28 l 6.27,6.27 c 0.87,0.87 0.98,2.34 0.28,3.32 l -10.68,14.95 c -0.7,0.98 -0.67,2.55 0.06,3.5 l 5.82,7.59 c 0.71,0.93 2.24,1.38 3.36,0.96 l 17.21,-6.45 c 1.13,-0.42 2.53,0.08 3.13,1.13 l 4.43,7.67 c 0.62,1.07 0.34,2.51 -0.59,3.28 l -14.2,11.69 c -0.93,0.77 -1.31,2.29 -0.85,3.39 l 3.65,8.83 c 0.45,1.08 1.8,1.91 3,1.8 l 18.31,-1.78 c 1.2,-0.12 2.43,0.73 2.74,1.9 l 2.29,8.56 c 0.32,1.19 -0.32,2.51 -1.42,3.01 l -16.75,7.62 c -1.1,0.5 -1.86,1.87 -1.7,3.06 l 1.25,9.47 c 0.15,1.16 1.25,2.31 2.44,2.51 l 18.14,3.02 c 1.19,0.2 2.15,1.34 2.15,2.54 v 8.86 c 0,1.23 -0.96,2.35 -2.15,2.54 l -18.12,3.02 c -1.19,0.2 -2.28,1.32 -2.43,2.51 l -1.24,9.48 c -0.15,1.16 0.61,2.56 1.7,3.06 l 16.72,7.61 c 1.09,0.5 1.73,1.85 1.42,3.01 l -2.29,8.56 c -0.32,1.19 -1.54,2.02 -2.74,1.9 l -18.29,-1.77 c -1.2,-0.12 -2.54,0.69 -3,1.8 l -3.67,8.83 c -0.45,1.08 -0.08,2.63 0.85,3.39 l 14.2,11.69 c 0.93,0.77 1.2,2.23 0.59,3.28 l -4.43,7.67 c -0.62,1.07 -2.01,1.55 -3.14,1.13 l -17.23,-6.45 c -1.13,-0.42 -2.63,0.01 -3.36,0.96 l -5.81,7.59 c -0.71,0.93 -0.75,2.52 -0.05,3.5 l 10.68,14.96 c 0.7,0.98 0.58,2.47 -0.28,3.32 l -6.27,6.27 c -0.87,0.87 -2.34,0.98 -3.32,0.28 l -14.95,-10.68 c -0.98,-0.7 -2.55,-0.67 -3.5,0.06 l -7.59,5.82 c -0.93,0.71 -1.38,2.24 -0.96,3.36 l 6.45,17.21 c 0.42,1.13 -0.08,2.53 -1.13,3.13 l -7.67,4.43 c -1.07,0.62 -2.51,0.34 -3.28,-0.59 l -11.69,-14.2 c -0.77,-0.93 -2.29,-1.31 -3.39,-0.85 l -8.83,3.65 c -1.08,0.45 -1.91,1.8 -1.8,3 l 1.78,18.31 c 0.12,1.2 -0.73,2.43 -1.9,2.74 l -8.56,2.29 c -1.19,0.32 -2.51,-0.32 -3.01,-1.42 l -7.62,-16.75 c -0.5,-1.1 -1.87,-1.86 -3.06,-1.7 l -9.47,1.25 c -1.16,0.15 -2.31,1.25 -2.51,2.44 l -3.02,18.14 c -0.2,1.19 -1.34,2.15 -2.54,2.15 h -8.86 c -1.23,0 -2.35,-0.96 -2.54,-2.15 l -3.02,-18.12 c -0.2,-1.19 -1.32,-2.28 -2.51,-2.43 l -9.48,-1.24 c -1.16,-0.15 -2.56,0.61 -3.06,1.7 l -7.61,16.72 c -0.5,1.09 -1.85,1.73 -3.01,1.42 l -8.56,-2.29 c -1.19,-0.32 -2.02,-1.54 -1.9,-2.74 l 1.77,-18.29 c 0.12,-1.2 -0.69,-2.54 -1.8,-3 l -8.83,-3.67 c -1.08,-0.45 -2.63,-0.08 -3.39,0.85 l -11.69,14.2 c -0.77,0.93 -2.23,1.2 -3.28,0.59 l -7.67,-4.43 c -1.07,-0.62 -1.55,-2.01 -1.13,-3.14 l 6.45,-17.23 c 0.42,-1.13 -0.01,-2.63 -0.96,-3.36 l -7.59,-5.81 c -0.93,-0.71 -2.52,-0.75 -3.5,-0.05 l -14.96,10.68 c -0.98,0.7 -2.47,0.58 -3.32,-0.28 l -6.27,-6.27 c -0.87,-0.87 -0.98,-2.34 -0.28,-3.32 l 10.68,-14.95 c 0.7,-0.98 0.67,-2.55 -0.06,-3.5 l -5.82,-7.59 c -0.71,-0.93 -2.24,-1.38 -3.36,-0.96 l -17.21,6.45 c -1.13,0.42 -2.53,-0.08 -3.13,-1.13 l -4.43,-7.67 c -0.62,-1.07 -0.34,-2.51 0.59,-3.28 l 14.2,-11.69 c 0.93,-0.77 1.31,-2.29 0.85,-3.39 l -3.65,-8.83 c -0.45,-1.08 -1.8,-1.91 -3,-1.8 l -18.31,1.78 c -1.2,0.12 -2.43,-0.73 -2.74,-1.9 l -2.29,-8.56 c -0.32,-1.19 0.32,-2.51 1.42,-3.01 l 16.75,-7.62 c 1.1,-0.5 1.86,-1.87 1.7,-3.06 l -1.25,-9.47 c -0.15,-1.16 -1.25,-2.31 -2.44,-2.51 l -18.14,-3.02 c -1.19,-0.2 -2.15,-1.34 -2.15,-2.54 v -8.86 c 0,-1.23 0.96,-2.35 2.15,-2.54 l 18.12,-3.02 c 1.19,-0.2 2.28,-1.32 2.43,-2.51 l 1.24,-9.48 c 0.15,-1.16 -0.61,-2.56 -1.7,-3.06 l -16.72,-7.61 c -1.09,-0.5 -1.73,-1.85 -1.42,-3.01 l 2.29,-8.56 c 0.32,-1.19 1.54,-2.02 2.74,-1.9 l 18.29,1.77 c 1.2,0.12 2.54,-0.69 3,-1.8 l 3.67,-8.83 c 0.45,-1.08 0.08,-2.63 -0.85,-3.39 l -14.2,-11.69 c -0.93,-0.77 -1.2,-2.23 -0.59,-3.28 l 4.43,-7.67 c 0.62,-1.07 2.01,-1.55 3.14,-1.13 l 17.23,6.45 c 1.13,0.42 2.63,-0.01 3.36,-0.96 l 5.81,-7.59 c 0.71,-0.93 0.75,-2.52 0.05,-3.5 l -10.68,-14.96 c -0.7,-0.98 -0.58,-2.47 0.28,-3.32 l 6.27,-6.27 c 0.87,-0.87 2.34,-0.98 3.32,-0.28 l 14.95,10.68 c 0.98,0.7 2.55,0.67 3.5,-0.06 l 7.59,-5.82 c 0.93,-0.71 1.38,-2.24 0.96,-3.36 l -6.45,-17.21 c -0.42,-1.13 0.08,-2.53 1.13,-3.13 l 7.67,-4.43 c 1.07,-0.62 2.51,-0.34 3.28,0.59 l 11.69,14.2 c 0.77,0.93 2.29,1.31 3.39,0.85 l 8.83,-3.65 c 1.08,-0.45 1.91,-1.8 1.8,-3 l -1.78,-18.31 c -0.12,-1.2 0.73,-2.43 1.9,-2.74 l 8.56,-2.29 c 1.19,-0.32 2.51,0.32 3.01,1.42 l 7.62,16.75 c 0.5,1.1 1.87,1.86 3.06,1.7 l 9.47,-1.25 c 1.16,-0.15 2.31,-1.25 2.51,-2.44 l 3.02,-18.14 c 0.2,-1.19 1.34,-2.15 2.54,-2.15 h 8.86 c 1.23,0 2.35,0.96 2.54,2.15 l 3.02,18.12 c 0.2,1.19 1.32,2.28 2.51,2.43 l 9.48,1.24 c 1.16,0.15 2.56,-0.61 3.06,-1.7 l 7.61,-16.72 c 0.5,-1.09 1.85,-1.73 3.01,-1.42 l 8.56,2.29 c 1.19,0.32 2.02,1.54 1.9,2.74 l -1.77,18.29 c -0.12,1.2 0.69,2.54 1.8,3 l 8.83,3.67 c 1.08,0.45 2.63,0.08 3.39,-0.85 l 11.69,-14.2 c 0.77,-0.93 2.23,-1.2 3.28,-0.59 l 7.67,4.43 c 1.07,0.62 1.55,2.01 1.13,3.14 z m -29.36,36.71 c -24.86,-14.36 -53.13,-17.48 -78.92,-10.94 -4.97,1.26 -2.05,0.57 -2.05,0.57 -6.92,2.36 -9.68,9.49 -6.19,15.85 0,0 -2.01,-3.67 0.16,0.28 10.34,18.87 31.04,56.63 31.04,56.63 4.68,8.54 16.37,15.3 26.12,15.1 0,0 45.86,-0.95 68.8,-1.43 4.26,-0.09 0,0 0,0 7.06,-0.15 11.65,-6.09 10.11,-12.74 -7.16,-25.78 -24.05,-48.88 -49.06,-63.32 z m -1.73,184.17 c 25.11,-13.92 42.34,-36.54 50.02,-62.02 1.48,-4.91 0.57,-2.05 0.57,-2.05 1.54,-7.15 -3.15,-13.18 -10.4,-13.47 0,0 4.18,0.17 -0.32,-0.01 -21.5,-0.85 -64.52,-2.56 -64.52,-2.56 -9.73,-0.39 -21.55,6.15 -26.4,14.61 0,0 -22.8,39.8 -34.21,59.71 -2.12,3.7 0,0 0,0 -3.51,6.13 -0.77,13.12 5.72,15.23 0,0 -4.1,-1.14 0,0 25.79,7.14 54.29,4.56 79.54,-9.44 z m -125.19,-16.85 c 5.07,4.57 12.5,3.44 16.05,-2.67 0,0 -2.14,3.68 0,0 11.54,-19.83 34.6,-59.48 34.6,-59.48 4.9,-8.43 4.66,-21.93 -0.54,-30.17 0,0 -22.99,-36.41 -34.48,-54.6 -2.41,-3.81 -0.17,-0.27 -0.17,-0.27 -3.87,-6.13 -11.44,-7.18 -16.86,-2.27 0,0 2.02,-2.22 -1.49,1.52 -18.22,19.39 -29.2,45.62 -28.7,74.33 0.5,28.87 12.52,54.84 31.6,73.6 z"
           class="shp86"
           id="path1923" />
        <path
           id="path1925"
           class="shp86"
           d="m 2410.4599,123.37078 -6.45,17.23 c -0.42,1.13 0.01,2.63 0.96,3.36 l 7.59,5.81 c 0.93,0.71 2.52,0.75 3.5,0.05 l 14.96,-10.68 c 0.98,-0.7 2.47,-0.58 3.32,0.28 l 6.27,6.27 c 0.87,0.87 0.98,2.34 0.28,3.32 l -10.68,14.95 c -0.7,0.98 -0.67,2.55 0.06,3.5 l 5.82,7.59 c 0.71,0.93 2.24,1.38 3.36,0.96 l 17.21,-6.45 c 1.13,-0.42 2.53,0.08 3.13,1.13 l 4.43,7.67 c 0.62,1.07 0.34,2.51 -0.59,3.28 l -14.2,11.69 c -0.93,0.77 -1.31,2.29 -0.85,3.39 l 3.65,8.83 c 0.45,1.08 1.8,1.91 3,1.8 l 18.31,-1.78 c 1.2,-0.12 2.43,0.73 2.74,1.9 l 2.29,8.56 c 0.32,1.19 -0.32,2.51 -1.42,3.01 l -16.75,7.62 c -1.1,0.5 -1.86,1.87 -1.7,3.06 l 1.25,9.47 c 0.15,1.16 1.25,2.31 2.44,2.51 l 18.14,3.02 c 1.19,0.2 2.15,1.34 2.15,2.54 v 8.86 c 0,1.23 -0.96,2.35 -2.15,2.54 l -18.12,3.02 c -1.19,0.2 -2.28,1.32 -2.43,2.51 l -1.24,9.48 c -0.15,1.16 0.61,2.56 1.7,3.06 l 16.72,7.61 c 1.09,0.5 1.73,1.85 1.42,3.01 l -2.29,8.56 c -0.32,1.19 -1.54,2.02 -2.74,1.9 l -18.29,-1.77 c -1.2,-0.12 -2.54,0.69 -3,1.8 l -3.67,8.83 c -0.45,1.08 -0.08,2.63 0.85,3.39 l 14.2,11.69 c 0.93,0.77 1.2,2.23 0.59,3.28 l -4.43,7.67 c -0.62,1.07 -2.01,1.55 -3.14,1.13 l -17.23,-6.45 c -1.13,-0.42 -2.63,0.01 -3.36,0.96 l -5.81,7.59 c -0.71,0.93 -0.75,2.52 -0.05,3.5 l 10.68,14.96 c 0.7,0.98 0.58,2.47 -0.28,3.32 l -6.27,6.27 c -0.87,0.87 -2.34,0.98 -3.32,0.28 l -14.95,-10.68 c -0.98,-0.7 -2.55,-0.67 -3.5,0.06 l -7.59,5.82 c -0.93,0.71 -1.38,2.24 -0.96,3.36 l 6.45,17.21 c 0.42,1.13 -0.08,2.53 -1.13,3.13 l -7.67,4.43 c -1.07,0.62 -2.51,0.34 -3.28,-0.59 l -11.69,-14.2 c -0.77,-0.93 -2.29,-1.31 -3.39,-0.85 l -8.83,3.65 c -1.08,0.45 -1.91,1.8 -1.8,3 l 1.78,18.31 c 0.12,1.2 -0.73,2.43 -1.9,2.74 l -8.56,2.29 c -1.19,0.32 -2.51,-0.32 -3.01,-1.42 l -7.62,-16.75 c -0.5,-1.1 -1.87,-1.86 -3.06,-1.7 l -9.47,1.25 c -1.16,0.15 -2.31,1.25 -2.51,2.44 l -3.02,18.14 c -0.2,1.19 -1.34,2.15 -2.54,2.15 h -8.86 c -1.23,0 -2.35,-0.96 -2.54,-2.15 l -3.02,-18.12 c -0.2,-1.19 -1.32,-2.28 -2.51,-2.43 l -9.48,-1.24 c -1.16,-0.15 -2.56,0.61 -3.06,1.7 l -7.61,16.72 c -0.5,1.09 -1.85,1.73 -3.01,1.42 l -8.56,-2.29 c -1.19,-0.32 -2.02,-1.54 -1.9,-2.74 l 1.77,-18.29 c 0.12,-1.2 -0.69,-2.54 -1.8,-3 l -8.83,-3.67 c -1.08,-0.45 -2.63,-0.08 -3.39,0.85 l -11.69,14.2 c -0.77,0.93 -2.23,1.2 -3.28,0.59 l -7.67,-4.43 c -1.07,-0.62 -1.55,-2.01 -1.13,-3.14 l 6.45,-17.23 c 0.42,-1.13 -0.01,-2.63 -0.96,-3.36 l -7.59,-5.81 c -0.93,-0.71 -2.52,-0.75 -3.5,-0.05 l -14.96,10.68 c -0.98,0.7 -2.47,0.58 -3.32,-0.28 l -6.27,-6.27 c -0.87,-0.87 -0.98,-2.34 -0.28,-3.32 l 10.68,-14.95 c 0.7,-0.98 0.67,-2.55 -0.06,-3.5 l -5.82,-7.59 c -0.71,-0.93 -2.24,-1.38 -3.36,-0.96 l -17.21,6.45 c -1.13,0.42 -2.53,-0.08 -3.13,-1.13 l -4.43,-7.67 c -0.62,-1.07 -0.34,-2.51 0.59,-3.28 l 14.2,-11.69 c 0.93,-0.77 1.31,-2.29 0.85,-3.39 l -3.65,-8.83 c -0.45,-1.08 -1.8,-1.91 -3,-1.8 l -18.31,1.78 c -1.2,0.12 -2.43,-0.73 -2.74,-1.9 l -2.29,-8.56 c -0.32,-1.19 0.32,-2.51 1.42,-3.01 l 16.75,-7.62 c 1.1,-0.5 1.86,-1.87 1.7,-3.06 l -1.25,-9.47 c -0.15,-1.16 -1.25,-2.31 -2.44,-2.51 l -18.14,-3.02 c -1.19,-0.2 -2.15,-1.34 -2.15,-2.54 v -8.86 c 0,-1.23 0.96,-2.35 2.15,-2.54 l 18.12,-3.02 c 1.19,-0.2 2.28,-1.32 2.43,-2.51 l 1.24,-9.48 c 0.15,-1.16 -0.61,-2.56 -1.7,-3.06 l -16.72,-7.61 c -1.09,-0.5 -1.73,-1.85 -1.42,-3.01 l 2.29,-8.56 c 0.32,-1.19 1.54,-2.02 2.74,-1.9 l 18.29,1.77 c 1.2,0.12 2.54,-0.69 3,-1.8 l 3.67,-8.83 c 0.45,-1.08 0.08,-2.63 -0.85,-3.39 l -14.2,-11.69 c -0.93,-0.77 -1.2,-2.23 -0.59,-3.28 l 4.43,-7.67 c 0.62,-1.07 2.01,-1.55 3.14,-1.13 l 17.23,6.45 c 1.13,0.42 2.63,-0.01 3.36,-0.96 l 5.81,-7.59 c 0.71,-0.93 0.75,-2.52 0.05,-3.5 l -10.68,-14.96 c -0.7,-0.98 -0.58,-2.47 0.28,-3.32 l 6.27,-6.27 c 0.87,-0.87 2.34,-0.98 3.32,-0.28 l 14.95,10.68 c 0.98,0.7 2.55,0.67 3.5,-0.06 l 7.59,-5.82 c 0.93,-0.71 1.38,-2.24 0.96,-3.36 l -6.45,-17.21 c -0.42,-1.13 0.08,-2.53 1.13,-3.13 l 7.67,-4.43 c 1.07,-0.62 2.51,-0.34 3.28,0.59 l 11.69,14.2 c 0.77,0.93 2.29,1.31 3.39,0.85 l 8.83,-3.65 c 1.08,-0.45 1.91,-1.8 1.8,-3 l -1.78,-18.30999 c -0.12,-1.2 0.73,-2.43 1.9,-2.74 l 8.56,-2.29 c 1.19,-0.32 2.51,0.32 3.01,1.42 l 7.62,16.74999 c 0.5,1.1 1.87,1.86 3.06,1.7 l 9.47,-1.25 c 1.16,-0.15 2.31,-1.25 2.51,-2.44 l 3.02,-18.139993 c 0.2,-1.19 1.34,-2.15 2.54,-2.15 h 8.86 c 1.23,0 2.35,0.96 2.54,2.15 l 3.02,18.119993 c 0.2,1.19 1.32,2.28 2.51,2.43 l 9.48,1.24 c 1.16,0.15 2.56,-0.61 3.06,-1.7 l 7.61,-16.71999 c 0.5,-1.09 1.85,-1.73 3.01,-1.42 l 8.56,2.29 c 1.19,0.32 2.02,1.54 1.9,2.74 l -1.77,18.28999 c -0.12,1.2 0.69,2.54 1.8,3 l 8.83,3.67 c 1.08,0.45 2.63,0.08 3.39,-0.85 l 11.69,-14.2 c 0.77,-0.93 2.23,-1.2 3.28,-0.59 l 7.67,4.43 c 1.07,0.62 1.55,2.01 1.13,3.14 z m -29.36,36.71 c -24.86,-14.36 -53.13,-17.48 -78.92,-10.94 -4.97,1.26 -2.05,0.57 -2.05,0.57 -6.92,2.36 -9.68,9.49 -6.19,15.85 0,0 -2.01,-3.67 0.16,0.28 10.34,18.87 31.04,56.63 31.04,56.63 4.68,8.54 16.37,15.3 26.12,15.1 0,0 45.86,-0.95 68.8,-1.43 4.26,-0.09 0,0 0,0 7.06,-0.15 11.65,-6.09 10.11,-12.74 -7.16,-25.78 -24.05,-48.88 -49.06,-63.32 z m -1.73,184.17 c 25.11,-13.92 42.34,-36.54 50.02,-62.02 1.48,-4.91 0.57,-2.05 0.57,-2.05 1.54,-7.15 -3.15,-13.18 -10.4,-13.47 0,0 4.18,0.17 -0.32,-0.01 -21.5,-0.85 -64.52,-2.56 -64.52,-2.56 -9.73,-0.39 -21.55,6.15 -26.4,14.61 0,0 -22.8,39.8 -34.21,59.71 -2.12,3.7 0,0 0,0 -3.51,6.13 -0.77,13.12 5.72,15.23 0,0 -4.1,-1.14 0,0 25.79,7.14 54.29,4.56 79.54,-9.44 z m -125.19,-16.85 c 5.07,4.57 12.5,3.44 16.05,-2.67 0,0 -2.14,3.68 0,0 11.54,-19.83 34.6,-59.48 34.6,-59.48 4.9,-8.43 4.66,-21.93 -0.54,-30.17 0,0 -22.99,-36.41 -34.48,-54.6 -2.41,-3.81 -0.17,-0.27 -0.17,-0.27 -3.87,-6.13 -11.44,-7.18 -16.86,-2.27 0,0 2.02,-2.22 -1.49,1.52 -18.22,19.39 -29.2,45.62 -28.7,74.33 0.5,28.87 12.52,54.84 31.6,73.6 z"
           style="fill:url(#linearGradient1935);fill-opacity:1"
           inkscape:connector-curvature="0" />
      </g>
      <circle
         cy="148"
         cx="336"
         style="display:inline;enable-background:accumulate;color:#000000;fill:url(#linearGradient1755);fill-opacity:1;stroke-width:0.0649037"
         r="13.499984"
         id="circle1743" />
      <g
         id="g1749"
         transform="matrix(0.07980252,0,0,0.07980233,150.19342,127.68773)"
         style="display:inline;enable-background:new">
        <path
           inkscape:connector-curvature="0"
           style="opacity:0.5;fill:#050505;fill-opacity:1;filter:url(#filter982)"
           d="m 2410.4599,126.20226 -6.45,17.23 c -0.42,1.13 0.01,2.63 0.96,3.36 l 7.59,5.81 c 0.93,0.71 2.52,0.75 3.5,0.05 l 14.96,-10.68 c 0.98,-0.7 2.47,-0.58 3.32,0.28 l 6.27,6.27 c 0.87,0.87 0.98,2.34 0.28,3.32 l -10.68,14.95 c -0.7,0.98 -0.67,2.55 0.06,3.5 l 5.82,7.59 c 0.71,0.93 2.24,1.38 3.36,0.96 l 17.21,-6.45 c 1.13,-0.42 2.53,0.08 3.13,1.13 l 4.43,7.67 c 0.62,1.07 0.34,2.51 -0.59,3.28 l -14.2,11.69 c -0.93,0.77 -1.31,2.29 -0.85,3.39 l 3.65,8.83 c 0.45,1.08 1.8,1.91 3,1.8 l 18.31,-1.78 c 1.2,-0.12 2.43,0.73 2.74,1.9 l 2.29,8.56 c 0.32,1.19 -0.32,2.51 -1.42,3.01 l -16.75,7.62 c -1.1,0.5 -1.86,1.87 -1.7,3.06 l 1.25,9.47 c 0.15,1.16 1.25,2.31 2.44,2.51 l 18.14,3.02 c 1.19,0.2 2.15,1.34 2.15,2.54 v 8.86 c 0,1.23 -0.96,2.35 -2.15,2.54 l -18.12,3.02 c -1.19,0.2 -2.28,1.32 -2.43,2.51 l -1.24,9.48 c -0.15,1.16 0.61,2.56 1.7,3.06 l 16.72,7.61 c 1.09,0.5 1.73,1.85 1.42,3.01 l -2.29,8.56 c -0.32,1.19 -1.54,2.02 -2.74,1.9 l -18.29,-1.77 c -1.2,-0.12 -2.54,0.69 -3,1.8 l -3.67,8.83 c -0.45,1.08 -0.08,2.63 0.85,3.39 l 14.2,11.69 c 0.93,0.77 1.2,2.23 0.59,3.28 l -4.43,7.67 c -0.62,1.07 -2.01,1.55 -3.14,1.13 l -17.23,-6.45 c -1.13,-0.42 -2.63,0.01 -3.36,0.96 l -5.81,7.59 c -0.71,0.93 -0.75,2.52 -0.05,3.5 l 10.68,14.96 c 0.7,0.98 0.58,2.47 -0.28,3.32 l -6.27,6.27 c -0.87,0.87 -2.34,0.98 -3.32,0.28 l -14.95,-10.68 c -0.98,-0.7 -2.55,-0.67 -3.5,0.06 l -7.59,5.82 c -0.93,0.71 -1.38,2.24 -0.96,3.36 l 6.45,17.21 c 0.42,1.13 -0.08,2.53 -1.13,3.13 l -7.67,4.43 c -1.07,0.62 -2.51,0.34 -3.28,-0.59 l -11.69,-14.2 c -0.77,-0.93 -2.29,-1.31 -3.39,-0.85 l -8.83,3.65 c -1.08,0.45 -1.91,1.8 -1.8,3 l 1.78,18.31 c 0.12,1.2 -0.73,2.43 -1.9,2.74 l -8.56,2.29 c -1.19,0.32 -2.51,-0.32 -3.01,-1.42 l -7.62,-16.75 c -0.5,-1.1 -1.87,-1.86 -3.06,-1.7 l -9.47,1.25 c -1.16,0.15 -2.31,1.25 -2.51,2.44 l -3.02,18.14 c -0.2,1.19 -1.34,2.15 -2.54,2.15 h -8.86 c -1.23,0 -2.35,-0.96 -2.54,-2.15 l -3.02,-18.12 c -0.2,-1.19 -1.32,-2.28 -2.51,-2.43 l -9.48,-1.24 c -1.16,-0.15 -2.56,0.61 -3.06,1.7 l -7.61,16.72 c -0.5,1.09 -1.85,1.73 -3.01,1.42 l -8.56,-2.29 c -1.19,-0.32 -2.02,-1.54 -1.9,-2.74 l 1.77,-18.29 c 0.12,-1.2 -0.69,-2.54 -1.8,-3 l -8.83,-3.67 c -1.08,-0.45 -2.63,-0.08 -3.39,0.85 l -11.69,14.2 c -0.77,0.93 -2.23,1.2 -3.28,0.59 l -7.67,-4.43 c -1.07,-0.62 -1.55,-2.01 -1.13,-3.14 l 6.45,-17.23 c 0.42,-1.13 -0.01,-2.63 -0.96,-3.36 l -7.59,-5.81 c -0.93,-0.71 -2.52,-0.75 -3.5,-0.05 l -14.96,10.68 c -0.98,0.7 -2.47,0.58 -3.32,-0.28 l -6.27,-6.27 c -0.87,-0.87 -0.98,-2.34 -0.28,-3.32 l 10.68,-14.95 c 0.7,-0.98 0.67,-2.55 -0.06,-3.5 l -5.82,-7.59 c -0.71,-0.93 -2.24,-1.38 -3.36,-0.96 l -17.21,6.45 c -1.13,0.42 -2.53,-0.08 -3.13,-1.13 l -4.43,-7.67 c -0.62,-1.07 -0.34,-2.51 0.59,-3.28 l 14.2,-11.69 c 0.93,-0.77 1.31,-2.29 0.85,-3.39 l -3.65,-8.83 c -0.45,-1.08 -1.8,-1.91 -3,-1.8 l -18.31,1.78 c -1.2,0.12 -2.43,-0.73 -2.74,-1.9 l -2.29,-8.56 c -0.32,-1.19 0.32,-2.51 1.42,-3.01 l 16.75,-7.62 c 1.1,-0.5 1.86,-1.87 1.7,-3.06 l -1.25,-9.47 c -0.15,-1.16 -1.25,-2.31 -2.44,-2.51 l -18.14,-3.02 c -1.19,-0.2 -2.15,-1.34 -2.15,-2.54 v -8.86 c 0,-1.23 0.96,-2.35 2.15,-2.54 l 18.12,-3.02 c 1.19,-0.2 2.28,-1.32 2.43,-2.51 l 1.24,-9.48 c 0.15,-1.16 -0.61,-2.56 -1.7,-3.06 l -16.72,-7.61 c -1.09,-0.5 -1.73,-1.85 -1.42,-3.01 l 2.29,-8.56 c 0.32,-1.19 1.54,-2.02 2.74,-1.9 l 18.29,1.77 c 1.2,0.12 2.54,-0.69 3,-1.8 l 3.67,-8.83 c 0.45,-1.08 0.08,-2.63 -0.85,-3.39 l -14.2,-11.69 c -0.93,-0.77 -1.2,-2.23 -0.59,-3.28 l 4.43,-7.67 c 0.62,-1.07 2.01,-1.55 3.14,-1.13 l 17.23,6.45 c 1.13,0.42 2.63,-0.01 3.36,-0.96 l 5.81,-7.59 c 0.71,-0.93 0.75,-2.52 0.05,-3.5 l -10.68,-14.96 c -0.7,-0.98 -0.58,-2.47 0.28,-3.32 l 6.27,-6.27 c 0.87,-0.87 2.34,-0.98 3.32,-0.28 l 14.95,10.68 c 0.98,0.7 2.55,0.67 3.5,-0.06 l 7.59,-5.82 c 0.93,-0.71 1.38,-2.24 0.96,-3.36 l -6.45,-17.21 c -0.42,-1.13 0.08,-2.53 1.13,-3.13 l 7.67,-4.43 c 1.07,-0.62 2.51,-0.34 3.28,0.59 l 11.69,14.2 c 0.77,0.93 2.29,1.31 3.39,0.85 l 8.83,-3.65 c 1.08,-0.45 1.91,-1.8 1.8,-3 l -1.78,-18.31 c -0.12,-1.2 0.73,-2.43 1.9,-2.74 l 8.56,-2.29 c 1.19,-0.32 2.51,0.32 3.01,1.42 l 7.62,16.75 c 0.5,1.1 1.87,1.86 3.06,1.7 l 9.47,-1.25 c 1.16,-0.15 2.31,-1.25 2.51,-2.44 l 3.02,-18.14 c 0.2,-1.19 1.34,-2.15 2.54,-2.15 h 8.86 c 1.23,0 2.35,0.96 2.54,2.15 l 3.02,18.12 c 0.2,1.19 1.32,2.28 2.51,2.43 l 9.48,1.24 c 1.16,0.15 2.56,-0.61 3.06,-1.7 l 7.61,-16.72 c 0.5,-1.09 1.85,-1.73 3.01,-1.42 l 8.56,2.29 c 1.19,0.32 2.02,1.54 1.9,2.74 l -1.77,18.29 c -0.12,1.2 0.69,2.54 1.8,3 l 8.83,3.67 c 1.08,0.45 2.63,0.08 3.39,-0.85 l 11.69,-14.2 c 0.77,-0.93 2.23,-1.2 3.28,-0.59 l 7.67,4.43 c 1.07,0.62 1.55,2.01 1.13,3.14 z m -29.36,36.71 c -24.86,-14.36 -53.13,-17.48 -78.92,-10.94 -4.97,1.26 -2.05,0.57 -2.05,0.57 -6.92,2.36 -9.68,9.49 -6.19,15.85 0,0 -2.01,-3.67 0.16,0.28 10.34,18.87 31.04,56.63 31.04,56.63 4.68,8.54 16.37,15.3 26.12,15.1 0,0 45.86,-0.95 68.8,-1.43 4.26,-0.09 0,0 0,0 7.06,-0.15 11.65,-6.09 10.11,-12.74 -7.16,-25.78 -24.05,-48.88 -49.06,-63.32 z m -1.73,184.17 c 25.11,-13.92 42.34,-36.54 50.02,-62.02 1.48,-4.91 0.57,-2.05 0.57,-2.05 1.54,-7.15 -3.15,-13.18 -10.4,-13.47 0,0 4.18,0.17 -0.32,-0.01 -21.5,-0.85 -64.52,-2.56 -64.52,-2.56 -9.73,-0.39 -21.55,6.15 -26.4,14.61 0,0 -22.8,39.8 -34.21,59.71 -2.12,3.7 0,0 0,0 -3.51,6.13 -0.77,13.12 5.72,15.23 0,0 -4.1,-1.14 0,0 25.79,7.14 54.29,4.56 79.54,-9.44 z m -125.19,-16.85 c 5.07,4.57 12.5,3.44 16.05,-2.67 0,0 -2.14,3.68 0,0 11.54,-19.83 34.6,-59.48 34.6,-59.48 4.9,-8.43 4.66,-21.93 -0.54,-30.17 0,0 -22.99,-36.41 -34.48,-54.6 -2.41,-3.81 -0.17,-0.27 -0.17,-0.27 -3.87,-6.13 -11.44,-7.18 -16.86,-2.27 0,0 2.02,-2.22 -1.49,1.52 -18.22,19.39 -29.2,45.62 -28.7,74.33 0.5,28.87 12.52,54.84 31.6,73.6 z"
           class="shp86"
           id="path1745" />
        <path
           id="path1747"
           class="shp86"
           d="m 2410.4599,123.37078 -6.45,17.23 c -0.42,1.13 0.01,2.63 0.96,3.36 l 7.59,5.81 c 0.93,0.71 2.52,0.75 3.5,0.05 l 14.96,-10.68 c 0.98,-0.7 2.47,-0.58 3.32,0.28 l 6.27,6.27 c 0.87,0.87 0.98,2.34 0.28,3.32 l -10.68,14.95 c -0.7,0.98 -0.67,2.55 0.06,3.5 l 5.82,7.59 c 0.71,0.93 2.24,1.38 3.36,0.96 l 17.21,-6.45 c 1.13,-0.42 2.53,0.08 3.13,1.13 l 4.43,7.67 c 0.62,1.07 0.34,2.51 -0.59,3.28 l -14.2,11.69 c -0.93,0.77 -1.31,2.29 -0.85,3.39 l 3.65,8.83 c 0.45,1.08 1.8,1.91 3,1.8 l 18.31,-1.78 c 1.2,-0.12 2.43,0.73 2.74,1.9 l 2.29,8.56 c 0.32,1.19 -0.32,2.51 -1.42,3.01 l -16.75,7.62 c -1.1,0.5 -1.86,1.87 -1.7,3.06 l 1.25,9.47 c 0.15,1.16 1.25,2.31 2.44,2.51 l 18.14,3.02 c 1.19,0.2 2.15,1.34 2.15,2.54 v 8.86 c 0,1.23 -0.96,2.35 -2.15,2.54 l -18.12,3.02 c -1.19,0.2 -2.28,1.32 -2.43,2.51 l -1.24,9.48 c -0.15,1.16 0.61,2.56 1.7,3.06 l 16.72,7.61 c 1.09,0.5 1.73,1.85 1.42,3.01 l -2.29,8.56 c -0.32,1.19 -1.54,2.02 -2.74,1.9 l -18.29,-1.77 c -1.2,-0.12 -2.54,0.69 -3,1.8 l -3.67,8.83 c -0.45,1.08 -0.08,2.63 0.85,3.39 l 14.2,11.69 c 0.93,0.77 1.2,2.23 0.59,3.28 l -4.43,7.67 c -0.62,1.07 -2.01,1.55 -3.14,1.13 l -17.23,-6.45 c -1.13,-0.42 -2.63,0.01 -3.36,0.96 l -5.81,7.59 c -0.71,0.93 -0.75,2.52 -0.05,3.5 l 10.68,14.96 c 0.7,0.98 0.58,2.47 -0.28,3.32 l -6.27,6.27 c -0.87,0.87 -2.34,0.98 -3.32,0.28 l -14.95,-10.68 c -0.98,-0.7 -2.55,-0.67 -3.5,0.06 l -7.59,5.82 c -0.93,0.71 -1.38,2.24 -0.96,3.36 l 6.45,17.21 c 0.42,1.13 -0.08,2.53 -1.13,3.13 l -7.67,4.43 c -1.07,0.62 -2.51,0.34 -3.28,-0.59 l -11.69,-14.2 c -0.77,-0.93 -2.29,-1.31 -3.39,-0.85 l -8.83,3.65 c -1.08,0.45 -1.91,1.8 -1.8,3 l 1.78,18.31 c 0.12,1.2 -0.73,2.43 -1.9,2.74 l -8.56,2.29 c -1.19,0.32 -2.51,-0.32 -3.01,-1.42 l -7.62,-16.75 c -0.5,-1.1 -1.87,-1.86 -3.06,-1.7 l -9.47,1.25 c -1.16,0.15 -2.31,1.25 -2.51,2.44 l -3.02,18.14 c -0.2,1.19 -1.34,2.15 -2.54,2.15 h -8.86 c -1.23,0 -2.35,-0.96 -2.54,-2.15 l -3.02,-18.12 c -0.2,-1.19 -1.32,-2.28 -2.51,-2.43 l -9.48,-1.24 c -1.16,-0.15 -2.56,0.61 -3.06,1.7 l -7.61,16.72 c -0.5,1.09 -1.85,1.73 -3.01,1.42 l -8.56,-2.29 c -1.19,-0.32 -2.02,-1.54 -1.9,-2.74 l 1.77,-18.29 c 0.12,-1.2 -0.69,-2.54 -1.8,-3 l -8.83,-3.67 c -1.08,-0.45 -2.63,-0.08 -3.39,0.85 l -11.69,14.2 c -0.77,0.93 -2.23,1.2 -3.28,0.59 l -7.67,-4.43 c -1.07,-0.62 -1.55,-2.01 -1.13,-3.14 l 6.45,-17.23 c 0.42,-1.13 -0.01,-2.63 -0.96,-3.36 l -7.59,-5.81 c -0.93,-0.71 -2.52,-0.75 -3.5,-0.05 l -14.96,10.68 c -0.98,0.7 -2.47,0.58 -3.32,-0.28 l -6.27,-6.27 c -0.87,-0.87 -0.98,-2.34 -0.28,-3.32 l 10.68,-14.95 c 0.7,-0.98 0.67,-2.55 -0.06,-3.5 l -5.82,-7.59 c -0.71,-0.93 -2.24,-1.38 -3.36,-0.96 l -17.21,6.45 c -1.13,0.42 -2.53,-0.08 -3.13,-1.13 l -4.43,-7.67 c -0.62,-1.07 -0.34,-2.51 0.59,-3.28 l 14.2,-11.69 c 0.93,-0.77 1.31,-2.29 0.85,-3.39 l -3.65,-8.83 c -0.45,-1.08 -1.8,-1.91 -3,-1.8 l -18.31,1.78 c -1.2,0.12 -2.43,-0.73 -2.74,-1.9 l -2.29,-8.56 c -0.32,-1.19 0.32,-2.51 1.42,-3.01 l 16.75,-7.62 c 1.1,-0.5 1.86,-1.87 1.7,-3.06 l -1.25,-9.47 c -0.15,-1.16 -1.25,-2.31 -2.44,-2.51 l -18.14,-3.02 c -1.19,-0.2 -2.15,-1.34 -2.15,-2.54 v -8.86 c 0,-1.23 0.96,-2.35 2.15,-2.54 l 18.12,-3.02 c 1.19,-0.2 2.28,-1.32 2.43,-2.51 l 1.24,-9.48 c 0.15,-1.16 -0.61,-2.56 -1.7,-3.06 l -16.72,-7.61 c -1.09,-0.5 -1.73,-1.85 -1.42,-3.01 l 2.29,-8.56 c 0.32,-1.19 1.54,-2.02 2.74,-1.9 l 18.29,1.77 c 1.2,0.12 2.54,-0.69 3,-1.8 l 3.67,-8.83 c 0.45,-1.08 0.08,-2.63 -0.85,-3.39 l -14.2,-11.69 c -0.93,-0.77 -1.2,-2.23 -0.59,-3.28 l 4.43,-7.67 c 0.62,-1.07 2.01,-1.55 3.14,-1.13 l 17.23,6.45 c 1.13,0.42 2.63,-0.01 3.36,-0.96 l 5.81,-7.59 c 0.71,-0.93 0.75,-2.52 0.05,-3.5 l -10.68,-14.96 c -0.7,-0.98 -0.58,-2.47 0.28,-3.32 l 6.27,-6.27 c 0.87,-0.87 2.34,-0.98 3.32,-0.28 l 14.95,10.68 c 0.98,0.7 2.55,0.67 3.5,-0.06 l 7.59,-5.82 c 0.93,-0.71 1.38,-2.24 0.96,-3.36 l -6.45,-17.21 c -0.42,-1.13 0.08,-2.53 1.13,-3.13 l 7.67,-4.43 c 1.07,-0.62 2.51,-0.34 3.28,0.59 l 11.69,14.2 c 0.77,0.93 2.29,1.31 3.39,0.85 l 8.83,-3.65 c 1.08,-0.45 1.91,-1.8 1.8,-3 l -1.78,-18.30999 c -0.12,-1.2 0.73,-2.43 1.9,-2.74 l 8.56,-2.29 c 1.19,-0.32 2.51,0.32 3.01,1.42 l 7.62,16.74999 c 0.5,1.1 1.87,1.86 3.06,1.7 l 9.47,-1.25 c 1.16,-0.15 2.31,-1.25 2.51,-2.44 l 3.02,-18.139993 c 0.2,-1.19 1.34,-2.15 2.54,-2.15 h 8.86 c 1.23,0 2.35,0.96 2.54,2.15 l 3.02,18.119993 c 0.2,1.19 1.32,2.28 2.51,2.43 l 9.48,1.24 c 1.16,0.15 2.56,-0.61 3.06,-1.7 l 7.61,-16.71999 c 0.5,-1.09 1.85,-1.73 3.01,-1.42 l 8.56,2.29 c 1.19,0.32 2.02,1.54 1.9,2.74 l -1.77,18.28999 c -0.12,1.2 0.69,2.54 1.8,3 l 8.83,3.67 c 1.08,0.45 2.63,0.08 3.39,-0.85 l 11.69,-14.2 c 0.77,-0.93 2.23,-1.2 3.28,-0.59 l 7.67,4.43 c 1.07,0.62 1.55,2.01 1.13,3.14 z m -29.36,36.71 c -24.86,-14.36 -53.13,-17.48 -78.92,-10.94 -4.97,1.26 -2.05,0.57 -2.05,0.57 -6.92,2.36 -9.68,9.49 -6.19,15.85 0,0 -2.01,-3.67 0.16,0.28 10.34,18.87 31.04,56.63 31.04,56.63 4.68,8.54 16.37,15.3 26.12,15.1 0,0 45.86,-0.95 68.8,-1.43 4.26,-0.09 0,0 0,0 7.06,-0.15 11.65,-6.09 10.11,-12.74 -7.16,-25.78 -24.05,-48.88 -49.06,-63.32 z m -1.73,184.17 c 25.11,-13.92 42.34,-36.54 50.02,-62.02 1.48,-4.91 0.57,-2.05 0.57,-2.05 1.54,-7.15 -3.15,-13.18 -10.4,-13.47 0,0 4.18,0.17 -0.32,-0.01 -21.5,-0.85 -64.52,-2.56 -64.52,-2.56 -9.73,-0.39 -21.55,6.15 -26.4,14.61 0,0 -22.8,39.8 -34.21,59.71 -2.12,3.7 0,0 0,0 -3.51,6.13 -0.77,13.12 5.72,15.23 0,0 -4.1,-1.14 0,0 25.79,7.14 54.29,4.56 79.54,-9.44 z m -125.19,-16.85 c 5.07,4.57 12.5,3.44 16.05,-2.67 0,0 -2.14,3.68 0,0 11.54,-19.83 34.6,-59.48 34.6,-59.48 4.9,-8.43 4.66,-21.93 -0.54,-30.17 0,0 -22.99,-36.41 -34.48,-54.6 -2.41,-3.81 -0.17,-0.27 -0.17,-0.27 -3.87,-6.13 -11.44,-7.18 -16.86,-2.27 0,0 2.02,-2.22 -1.49,1.52 -18.22,19.39 -29.2,45.62 -28.7,74.33 0.5,28.87 12.52,54.84 31.6,73.6 z"
           style="fill:url(#linearGradient1757);fill-opacity:1"
           inkscape:connector-curvature="0" />
      </g>
      <circle
         cy="84.000114"
         cx="344"
         style="display:inline;enable-background:accumulate;color:#000000;fill:url(#linearGradient1151);fill-opacity:1;stroke-width:0.100961"
         r="20.999975"
         id="circle1139" />
      <g
         id="g1145"
         transform="matrix(0.12413725,0,0,0.12413696,54.967539,52.403257)"
         style="display:inline;enable-background:new">
        <path
           inkscape:connector-curvature="0"
           style="opacity:0.5;fill:#050505;fill-opacity:1;filter:url(#filter982)"
           d="m 2410.4599,126.20226 -6.45,17.23 c -0.42,1.13 0.01,2.63 0.96,3.36 l 7.59,5.81 c 0.93,0.71 2.52,0.75 3.5,0.05 l 14.96,-10.68 c 0.98,-0.7 2.47,-0.58 3.32,0.28 l 6.27,6.27 c 0.87,0.87 0.98,2.34 0.28,3.32 l -10.68,14.95 c -0.7,0.98 -0.67,2.55 0.06,3.5 l 5.82,7.59 c 0.71,0.93 2.24,1.38 3.36,0.96 l 17.21,-6.45 c 1.13,-0.42 2.53,0.08 3.13,1.13 l 4.43,7.67 c 0.62,1.07 0.34,2.51 -0.59,3.28 l -14.2,11.69 c -0.93,0.77 -1.31,2.29 -0.85,3.39 l 3.65,8.83 c 0.45,1.08 1.8,1.91 3,1.8 l 18.31,-1.78 c 1.2,-0.12 2.43,0.73 2.74,1.9 l 2.29,8.56 c 0.32,1.19 -0.32,2.51 -1.42,3.01 l -16.75,7.62 c -1.1,0.5 -1.86,1.87 -1.7,3.06 l 1.25,9.47 c 0.15,1.16 1.25,2.31 2.44,2.51 l 18.14,3.02 c 1.19,0.2 2.15,1.34 2.15,2.54 v 8.86 c 0,1.23 -0.96,2.35 -2.15,2.54 l -18.12,3.02 c -1.19,0.2 -2.28,1.32 -2.43,2.51 l -1.24,9.48 c -0.15,1.16 0.61,2.56 1.7,3.06 l 16.72,7.61 c 1.09,0.5 1.73,1.85 1.42,3.01 l -2.29,8.56 c -0.32,1.19 -1.54,2.02 -2.74,1.9 l -18.29,-1.77 c -1.2,-0.12 -2.54,0.69 -3,1.8 l -3.67,8.83 c -0.45,1.08 -0.08,2.63 0.85,3.39 l 14.2,11.69 c 0.93,0.77 1.2,2.23 0.59,3.28 l -4.43,7.67 c -0.62,1.07 -2.01,1.55 -3.14,1.13 l -17.23,-6.45 c -1.13,-0.42 -2.63,0.01 -3.36,0.96 l -5.81,7.59 c -0.71,0.93 -0.75,2.52 -0.05,3.5 l 10.68,14.96 c 0.7,0.98 0.58,2.47 -0.28,3.32 l -6.27,6.27 c -0.87,0.87 -2.34,0.98 -3.32,0.28 l -14.95,-10.68 c -0.98,-0.7 -2.55,-0.67 -3.5,0.06 l -7.59,5.82 c -0.93,0.71 -1.38,2.24 -0.96,3.36 l 6.45,17.21 c 0.42,1.13 -0.08,2.53 -1.13,3.13 l -7.67,4.43 c -1.07,0.62 -2.51,0.34 -3.28,-0.59 l -11.69,-14.2 c -0.77,-0.93 -2.29,-1.31 -3.39,-0.85 l -8.83,3.65 c -1.08,0.45 -1.91,1.8 -1.8,3 l 1.78,18.31 c 0.12,1.2 -0.73,2.43 -1.9,2.74 l -8.56,2.29 c -1.19,0.32 -2.51,-0.32 -3.01,-1.42 l -7.62,-16.75 c -0.5,-1.1 -1.87,-1.86 -3.06,-1.7 l -9.47,1.25 c -1.16,0.15 -2.31,1.25 -2.51,2.44 l -3.02,18.14 c -0.2,1.19 -1.34,2.15 -2.54,2.15 h -8.86 c -1.23,0 -2.35,-0.96 -2.54,-2.15 l -3.02,-18.12 c -0.2,-1.19 -1.32,-2.28 -2.51,-2.43 l -9.48,-1.24 c -1.16,-0.15 -2.56,0.61 -3.06,1.7 l -7.61,16.72 c -0.5,1.09 -1.85,1.73 -3.01,1.42 l -8.56,-2.29 c -1.19,-0.32 -2.02,-1.54 -1.9,-2.74 l 1.77,-18.29 c 0.12,-1.2 -0.69,-2.54 -1.8,-3 l -8.83,-3.67 c -1.08,-0.45 -2.63,-0.08 -3.39,0.85 l -11.69,14.2 c -0.77,0.93 -2.23,1.2 -3.28,0.59 l -7.67,-4.43 c -1.07,-0.62 -1.55,-2.01 -1.13,-3.14 l 6.45,-17.23 c 0.42,-1.13 -0.01,-2.63 -0.96,-3.36 l -7.59,-5.81 c -0.93,-0.71 -2.52,-0.75 -3.5,-0.05 l -14.96,10.68 c -0.98,0.7 -2.47,0.58 -3.32,-0.28 l -6.27,-6.27 c -0.87,-0.87 -0.98,-2.34 -0.28,-3.32 l 10.68,-14.95 c 0.7,-0.98 0.67,-2.55 -0.06,-3.5 l -5.82,-7.59 c -0.71,-0.93 -2.24,-1.38 -3.36,-0.96 l -17.21,6.45 c -1.13,0.42 -2.53,-0.08 -3.13,-1.13 l -4.43,-7.67 c -0.62,-1.07 -0.34,-2.51 0.59,-3.28 l 14.2,-11.69 c 0.93,-0.77 1.31,-2.29 0.85,-3.39 l -3.65,-8.83 c -0.45,-1.08 -1.8,-1.91 -3,-1.8 l -18.31,1.78 c -1.2,0.12 -2.43,-0.73 -2.74,-1.9 l -2.29,-8.56 c -0.32,-1.19 0.32,-2.51 1.42,-3.01 l 16.75,-7.62 c 1.1,-0.5 1.86,-1.87 1.7,-3.06 l -1.25,-9.47 c -0.15,-1.16 -1.25,-2.31 -2.44,-2.51 l -18.14,-3.02 c -1.19,-0.2 -2.15,-1.34 -2.15,-2.54 v -8.86 c 0,-1.23 0.96,-2.35 2.15,-2.54 l 18.12,-3.02 c 1.19,-0.2 2.28,-1.32 2.43,-2.51 l 1.24,-9.48 c 0.15,-1.16 -0.61,-2.56 -1.7,-3.06 l -16.72,-7.61 c -1.09,-0.5 -1.73,-1.85 -1.42,-3.01 l 2.29,-8.56 c 0.32,-1.19 1.54,-2.02 2.74,-1.9 l 18.29,1.77 c 1.2,0.12 2.54,-0.69 3,-1.8 l 3.67,-8.83 c 0.45,-1.08 0.08,-2.63 -0.85,-3.39 l -14.2,-11.69 c -0.93,-0.77 -1.2,-2.23 -0.59,-3.28 l 4.43,-7.67 c 0.62,-1.07 2.01,-1.55 3.14,-1.13 l 17.23,6.45 c 1.13,0.42 2.63,-0.01 3.36,-0.96 l 5.81,-7.59 c 0.71,-0.93 0.75,-2.52 0.05,-3.5 l -10.68,-14.96 c -0.7,-0.98 -0.58,-2.47 0.28,-3.32 l 6.27,-6.27 c 0.87,-0.87 2.34,-0.98 3.32,-0.28 l 14.95,10.68 c 0.98,0.7 2.55,0.67 3.5,-0.06 l 7.59,-5.82 c 0.93,-0.71 1.38,-2.24 0.96,-3.36 l -6.45,-17.21 c -0.42,-1.13 0.08,-2.53 1.13,-3.13 l 7.67,-4.43 c 1.07,-0.62 2.51,-0.34 3.28,0.59 l 11.69,14.2 c 0.77,0.93 2.29,1.31 3.39,0.85 l 8.83,-3.65 c 1.08,-0.45 1.91,-1.8 1.8,-3 l -1.78,-18.31 c -0.12,-1.2 0.73,-2.43 1.9,-2.74 l 8.56,-2.29 c 1.19,-0.32 2.51,0.32 3.01,1.42 l 7.62,16.75 c 0.5,1.1 1.87,1.86 3.06,1.7 l 9.47,-1.25 c 1.16,-0.15 2.31,-1.25 2.51,-2.44 l 3.02,-18.14 c 0.2,-1.19 1.34,-2.15 2.54,-2.15 h 8.86 c 1.23,0 2.35,0.96 2.54,2.15 l 3.02,18.12 c 0.2,1.19 1.32,2.28 2.51,2.43 l 9.48,1.24 c 1.16,0.15 2.56,-0.61 3.06,-1.7 l 7.61,-16.72 c 0.5,-1.09 1.85,-1.73 3.01,-1.42 l 8.56,2.29 c 1.19,0.32 2.02,1.54 1.9,2.74 l -1.77,18.29 c -0.12,1.2 0.69,2.54 1.8,3 l 8.83,3.67 c 1.08,0.45 2.63,0.08 3.39,-0.85 l 11.69,-14.2 c 0.77,-0.93 2.23,-1.2 3.28,-0.59 l 7.67,4.43 c 1.07,0.62 1.55,2.01 1.13,3.14 z m -29.36,36.71 c -24.86,-14.36 -53.13,-17.48 -78.92,-10.94 -4.97,1.26 -2.05,0.57 -2.05,0.57 -6.92,2.36 -9.68,9.49 -6.19,15.85 0,0 -2.01,-3.67 0.16,0.28 10.34,18.87 31.04,56.63 31.04,56.63 4.68,8.54 16.37,15.3 26.12,15.1 0,0 45.86,-0.95 68.8,-1.43 4.26,-0.09 0,0 0,0 7.06,-0.15 11.65,-6.09 10.11,-12.74 -7.16,-25.78 -24.05,-48.88 -49.06,-63.32 z m -1.73,184.17 c 25.11,-13.92 42.34,-36.54 50.02,-62.02 1.48,-4.91 0.57,-2.05 0.57,-2.05 1.54,-7.15 -3.15,-13.18 -10.4,-13.47 0,0 4.18,0.17 -0.32,-0.01 -21.5,-0.85 -64.52,-2.56 -64.52,-2.56 -9.73,-0.39 -21.55,6.15 -26.4,14.61 0,0 -22.8,39.8 -34.21,59.71 -2.12,3.7 0,0 0,0 -3.51,6.13 -0.77,13.12 5.72,15.23 0,0 -4.1,-1.14 0,0 25.79,7.14 54.29,4.56 79.54,-9.44 z m -125.19,-16.85 c 5.07,4.57 12.5,3.44 16.05,-2.67 0,0 -2.14,3.68 0,0 11.54,-19.83 34.6,-59.48 34.6,-59.48 4.9,-8.43 4.66,-21.93 -0.54,-30.17 0,0 -22.99,-36.41 -34.48,-54.6 -2.41,-3.81 -0.17,-0.27 -0.17,-0.27 -3.87,-6.13 -11.44,-7.18 -16.86,-2.27 0,0 2.02,-2.22 -1.49,1.52 -18.22,19.39 -29.2,45.62 -28.7,74.33 0.5,28.87 12.52,54.84 31.6,73.6 z"
           class="shp86"
           id="path1141" />
        <path
           id="path1143"
           class="shp86"
           d="m 2410.4599,123.37078 -6.45,17.23 c -0.42,1.13 0.01,2.63 0.96,3.36 l 7.59,5.81 c 0.93,0.71 2.52,0.75 3.5,0.05 l 14.96,-10.68 c 0.98,-0.7 2.47,-0.58 3.32,0.28 l 6.27,6.27 c 0.87,0.87 0.98,2.34 0.28,3.32 l -10.68,14.95 c -0.7,0.98 -0.67,2.55 0.06,3.5 l 5.82,7.59 c 0.71,0.93 2.24,1.38 3.36,0.96 l 17.21,-6.45 c 1.13,-0.42 2.53,0.08 3.13,1.13 l 4.43,7.67 c 0.62,1.07 0.34,2.51 -0.59,3.28 l -14.2,11.69 c -0.93,0.77 -1.31,2.29 -0.85,3.39 l 3.65,8.83 c 0.45,1.08 1.8,1.91 3,1.8 l 18.31,-1.78 c 1.2,-0.12 2.43,0.73 2.74,1.9 l 2.29,8.56 c 0.32,1.19 -0.32,2.51 -1.42,3.01 l -16.75,7.62 c -1.1,0.5 -1.86,1.87 -1.7,3.06 l 1.25,9.47 c 0.15,1.16 1.25,2.31 2.44,2.51 l 18.14,3.02 c 1.19,0.2 2.15,1.34 2.15,2.54 v 8.86 c 0,1.23 -0.96,2.35 -2.15,2.54 l -18.12,3.02 c -1.19,0.2 -2.28,1.32 -2.43,2.51 l -1.24,9.48 c -0.15,1.16 0.61,2.56 1.7,3.06 l 16.72,7.61 c 1.09,0.5 1.73,1.85 1.42,3.01 l -2.29,8.56 c -0.32,1.19 -1.54,2.02 -2.74,1.9 l -18.29,-1.77 c -1.2,-0.12 -2.54,0.69 -3,1.8 l -3.67,8.83 c -0.45,1.08 -0.08,2.63 0.85,3.39 l 14.2,11.69 c 0.93,0.77 1.2,2.23 0.59,3.28 l -4.43,7.67 c -0.62,1.07 -2.01,1.55 -3.14,1.13 l -17.23,-6.45 c -1.13,-0.42 -2.63,0.01 -3.36,0.96 l -5.81,7.59 c -0.71,0.93 -0.75,2.52 -0.05,3.5 l 10.68,14.96 c 0.7,0.98 0.58,2.47 -0.28,3.32 l -6.27,6.27 c -0.87,0.87 -2.34,0.98 -3.32,0.28 l -14.95,-10.68 c -0.98,-0.7 -2.55,-0.67 -3.5,0.06 l -7.59,5.82 c -0.93,0.71 -1.38,2.24 -0.96,3.36 l 6.45,17.21 c 0.42,1.13 -0.08,2.53 -1.13,3.13 l -7.67,4.43 c -1.07,0.62 -2.51,0.34 -3.28,-0.59 l -11.69,-14.2 c -0.77,-0.93 -2.29,-1.31 -3.39,-0.85 l -8.83,3.65 c -1.08,0.45 -1.91,1.8 -1.8,3 l 1.78,18.31 c 0.12,1.2 -0.73,2.43 -1.9,2.74 l -8.56,2.29 c -1.19,0.32 -2.51,-0.32 -3.01,-1.42 l -7.62,-16.75 c -0.5,-1.1 -1.87,-1.86 -3.06,-1.7 l -9.47,1.25 c -1.16,0.15 -2.31,1.25 -2.51,2.44 l -3.02,18.14 c -0.2,1.19 -1.34,2.15 -2.54,2.15 h -8.86 c -1.23,0 -2.35,-0.96 -2.54,-2.15 l -3.02,-18.12 c -0.2,-1.19 -1.32,-2.28 -2.51,-2.43 l -9.48,-1.24 c -1.16,-0.15 -2.56,0.61 -3.06,1.7 l -7.61,16.72 c -0.5,1.09 -1.85,1.73 -3.01,1.42 l -8.56,-2.29 c -1.19,-0.32 -2.02,-1.54 -1.9,-2.74 l 1.77,-18.29 c 0.12,-1.2 -0.69,-2.54 -1.8,-3 l -8.83,-3.67 c -1.08,-0.45 -2.63,-0.08 -3.39,0.85 l -11.69,14.2 c -0.77,0.93 -2.23,1.2 -3.28,0.59 l -7.67,-4.43 c -1.07,-0.62 -1.55,-2.01 -1.13,-3.14 l 6.45,-17.23 c 0.42,-1.13 -0.01,-2.63 -0.96,-3.36 l -7.59,-5.81 c -0.93,-0.71 -2.52,-0.75 -3.5,-0.05 l -14.96,10.68 c -0.98,0.7 -2.47,0.58 -3.32,-0.28 l -6.27,-6.27 c -0.87,-0.87 -0.98,-2.34 -0.28,-3.32 l 10.68,-14.95 c 0.7,-0.98 0.67,-2.55 -0.06,-3.5 l -5.82,-7.59 c -0.71,-0.93 -2.24,-1.38 -3.36,-0.96 l -17.21,6.45 c -1.13,0.42 -2.53,-0.08 -3.13,-1.13 l -4.43,-7.67 c -0.62,-1.07 -0.34,-2.51 0.59,-3.28 l 14.2,-11.69 c 0.93,-0.77 1.31,-2.29 0.85,-3.39 l -3.65,-8.83 c -0.45,-1.08 -1.8,-1.91 -3,-1.8 l -18.31,1.78 c -1.2,0.12 -2.43,-0.73 -2.74,-1.9 l -2.29,-8.56 c -0.32,-1.19 0.32,-2.51 1.42,-3.01 l 16.75,-7.62 c 1.1,-0.5 1.86,-1.87 1.7,-3.06 l -1.25,-9.47 c -0.15,-1.16 -1.25,-2.31 -2.44,-2.51 l -18.14,-3.02 c -1.19,-0.2 -2.15,-1.34 -2.15,-2.54 v -8.86 c 0,-1.23 0.96,-2.35 2.15,-2.54 l 18.12,-3.02 c 1.19,-0.2 2.28,-1.32 2.43,-2.51 l 1.24,-9.48 c 0.15,-1.16 -0.61,-2.56 -1.7,-3.06 l -16.72,-7.61 c -1.09,-0.5 -1.73,-1.85 -1.42,-3.01 l 2.29,-8.56 c 0.32,-1.19 1.54,-2.02 2.74,-1.9 l 18.29,1.77 c 1.2,0.12 2.54,-0.69 3,-1.8 l 3.67,-8.83 c 0.45,-1.08 0.08,-2.63 -0.85,-3.39 l -14.2,-11.69 c -0.93,-0.77 -1.2,-2.23 -0.59,-3.28 l 4.43,-7.67 c 0.62,-1.07 2.01,-1.55 3.14,-1.13 l 17.23,6.45 c 1.13,0.42 2.63,-0.01 3.36,-0.96 l 5.81,-7.59 c 0.71,-0.93 0.75,-2.52 0.05,-3.5 l -10.68,-14.96 c -0.7,-0.98 -0.58,-2.47 0.28,-3.32 l 6.27,-6.27 c 0.87,-0.87 2.34,-0.98 3.32,-0.28 l 14.95,10.68 c 0.98,0.7 2.55,0.67 3.5,-0.06 l 7.59,-5.82 c 0.93,-0.71 1.38,-2.24 0.96,-3.36 l -6.45,-17.21 c -0.42,-1.13 0.08,-2.53 1.13,-3.13 l 7.67,-4.43 c 1.07,-0.62 2.51,-0.34 3.28,0.59 l 11.69,14.2 c 0.77,0.93 2.29,1.31 3.39,0.85 l 8.83,-3.65 c 1.08,-0.45 1.91,-1.8 1.8,-3 l -1.78,-18.30999 c -0.12,-1.2 0.73,-2.43 1.9,-2.74 l 8.56,-2.29 c 1.19,-0.32 2.51,0.32 3.01,1.42 l 7.62,16.74999 c 0.5,1.1 1.87,1.86 3.06,1.7 l 9.47,-1.25 c 1.16,-0.15 2.31,-1.25 2.51,-2.44 l 3.02,-18.139993 c 0.2,-1.19 1.34,-2.15 2.54,-2.15 h 8.86 c 1.23,0 2.35,0.96 2.54,2.15 l 3.02,18.119993 c 0.2,1.19 1.32,2.28 2.51,2.43 l 9.48,1.24 c 1.16,0.15 2.56,-0.61 3.06,-1.7 l 7.61,-16.71999 c 0.5,-1.09 1.85,-1.73 3.01,-1.42 l 8.56,2.29 c 1.19,0.32 2.02,1.54 1.9,2.74 l -1.77,18.28999 c -0.12,1.2 0.69,2.54 1.8,3 l 8.83,3.67 c 1.08,0.45 2.63,0.08 3.39,-0.85 l 11.69,-14.2 c 0.77,-0.93 2.23,-1.2 3.28,-0.59 l 7.67,4.43 c 1.07,0.62 1.55,2.01 1.13,3.14 z m -29.36,36.71 c -24.86,-14.36 -53.13,-17.48 -78.92,-10.94 -4.97,1.26 -2.05,0.57 -2.05,0.57 -6.92,2.36 -9.68,9.49 -6.19,15.85 0,0 -2.01,-3.67 0.16,0.28 10.34,18.87 31.04,56.63 31.04,56.63 4.68,8.54 16.37,15.3 26.12,15.1 0,0 45.86,-0.95 68.8,-1.43 4.26,-0.09 0,0 0,0 7.06,-0.15 11.65,-6.09 10.11,-12.74 -7.16,-25.78 -24.05,-48.88 -49.06,-63.32 z m -1.73,184.17 c 25.11,-13.92 42.34,-36.54 50.02,-62.02 1.48,-4.91 0.57,-2.05 0.57,-2.05 1.54,-7.15 -3.15,-13.18 -10.4,-13.47 0,0 4.18,0.17 -0.32,-0.01 -21.5,-0.85 -64.52,-2.56 -64.52,-2.56 -9.73,-0.39 -21.55,6.15 -26.4,14.61 0,0 -22.8,39.8 -34.21,59.71 -2.12,3.7 0,0 0,0 -3.51,6.13 -0.77,13.12 5.72,15.23 0,0 -4.1,-1.14 0,0 25.79,7.14 54.29,4.56 79.54,-9.44 z m -125.19,-16.85 c 5.07,4.57 12.5,3.44 16.05,-2.67 0,0 -2.14,3.68 0,0 11.54,-19.83 34.6,-59.48 34.6,-59.48 4.9,-8.43 4.66,-21.93 -0.54,-30.17 0,0 -22.99,-36.41 -34.48,-54.6 -2.41,-3.81 -0.17,-0.27 -0.17,-0.27 -3.87,-6.13 -11.44,-7.18 -16.86,-2.27 0,0 2.02,-2.22 -1.49,1.52 -18.22,19.39 -29.2,45.62 -28.7,74.33 0.5,28.87 12.52,54.84 31.6,73.6 z"
           style="fill:url(#linearGradient1153);fill-opacity:1"
           inkscape:connector-curvature="0" />
      </g>
      <circle
         cy="157"
         cx="151.99727"
         style="display:inline;enable-background:accumulate;color:#000000;fill:url(#linearGradient1001);fill-opacity:1;stroke-width:0.504807"
         r="104.99988"
         id="path4238" />
      <g
         id="gear mid"
         transform="matrix(0.62068626,0,0,0.62068481,-1293.1651,-0.98430841)"
         style="display:inline;enable-background:new">
        <path
           inkscape:connector-curvature="0"
           style="opacity:0.5;fill:#050505;fill-opacity:1;filter:url(#filter982)"
           d="m 2410.4599,126.20226 -6.45,17.23 c -0.42,1.13 0.01,2.63 0.96,3.36 l 7.59,5.81 c 0.93,0.71 2.52,0.75 3.5,0.05 l 14.96,-10.68 c 0.98,-0.7 2.47,-0.58 3.32,0.28 l 6.27,6.27 c 0.87,0.87 0.98,2.34 0.28,3.32 l -10.68,14.95 c -0.7,0.98 -0.67,2.55 0.06,3.5 l 5.82,7.59 c 0.71,0.93 2.24,1.38 3.36,0.96 l 17.21,-6.45 c 1.13,-0.42 2.53,0.08 3.13,1.13 l 4.43,7.67 c 0.62,1.07 0.34,2.51 -0.59,3.28 l -14.2,11.69 c -0.93,0.77 -1.31,2.29 -0.85,3.39 l 3.65,8.83 c 0.45,1.08 1.8,1.91 3,1.8 l 18.31,-1.78 c 1.2,-0.12 2.43,0.73 2.74,1.9 l 2.29,8.56 c 0.32,1.19 -0.32,2.51 -1.42,3.01 l -16.75,7.62 c -1.1,0.5 -1.86,1.87 -1.7,3.06 l 1.25,9.47 c 0.15,1.16 1.25,2.31 2.44,2.51 l 18.14,3.02 c 1.19,0.2 2.15,1.34 2.15,2.54 v 8.86 c 0,1.23 -0.96,2.35 -2.15,2.54 l -18.12,3.02 c -1.19,0.2 -2.28,1.32 -2.43,2.51 l -1.24,9.48 c -0.15,1.16 0.61,2.56 1.7,3.06 l 16.72,7.61 c 1.09,0.5 1.73,1.85 1.42,3.01 l -2.29,8.56 c -0.32,1.19 -1.54,2.02 -2.74,1.9 l -18.29,-1.77 c -1.2,-0.12 -2.54,0.69 -3,1.8 l -3.67,8.83 c -0.45,1.08 -0.08,2.63 0.85,3.39 l 14.2,11.69 c 0.93,0.77 1.2,2.23 0.59,3.28 l -4.43,7.67 c -0.62,1.07 -2.01,1.55 -3.14,1.13 l -17.23,-6.45 c -1.13,-0.42 -2.63,0.01 -3.36,0.96 l -5.81,7.59 c -0.71,0.93 -0.75,2.52 -0.05,3.5 l 10.68,14.96 c 0.7,0.98 0.58,2.47 -0.28,3.32 l -6.27,6.27 c -0.87,0.87 -2.34,0.98 -3.32,0.28 l -14.95,-10.68 c -0.98,-0.7 -2.55,-0.67 -3.5,0.06 l -7.59,5.82 c -0.93,0.71 -1.38,2.24 -0.96,3.36 l 6.45,17.21 c 0.42,1.13 -0.08,2.53 -1.13,3.13 l -7.67,4.43 c -1.07,0.62 -2.51,0.34 -3.28,-0.59 l -11.69,-14.2 c -0.77,-0.93 -2.29,-1.31 -3.39,-0.85 l -8.83,3.65 c -1.08,0.45 -1.91,1.8 -1.8,3 l 1.78,18.31 c 0.12,1.2 -0.73,2.43 -1.9,2.74 l -8.56,2.29 c -1.19,0.32 -2.51,-0.32 -3.01,-1.42 l -7.62,-16.75 c -0.5,-1.1 -1.87,-1.86 -3.06,-1.7 l -9.47,1.25 c -1.16,0.15 -2.31,1.25 -2.51,2.44 l -3.02,18.14 c -0.2,1.19 -1.34,2.15 -2.54,2.15 h -8.86 c -1.23,0 -2.35,-0.96 -2.54,-2.15 l -3.02,-18.12 c -0.2,-1.19 -1.32,-2.28 -2.51,-2.43 l -9.48,-1.24 c -1.16,-0.15 -2.56,0.61 -3.06,1.7 l -7.61,16.72 c -0.5,1.09 -1.85,1.73 -3.01,1.42 l -8.56,-2.29 c -1.19,-0.32 -2.02,-1.54 -1.9,-2.74 l 1.77,-18.29 c 0.12,-1.2 -0.69,-2.54 -1.8,-3 l -8.83,-3.67 c -1.08,-0.45 -2.63,-0.08 -3.39,0.85 l -11.69,14.2 c -0.77,0.93 -2.23,1.2 -3.28,0.59 l -7.67,-4.43 c -1.07,-0.62 -1.55,-2.01 -1.13,-3.14 l 6.45,-17.23 c 0.42,-1.13 -0.01,-2.63 -0.96,-3.36 l -7.59,-5.81 c -0.93,-0.71 -2.52,-0.75 -3.5,-0.05 l -14.96,10.68 c -0.98,0.7 -2.47,0.58 -3.32,-0.28 l -6.27,-6.27 c -0.87,-0.87 -0.98,-2.34 -0.28,-3.32 l 10.68,-14.95 c 0.7,-0.98 0.67,-2.55 -0.06,-3.5 l -5.82,-7.59 c -0.71,-0.93 -2.24,-1.38 -3.36,-0.96 l -17.21,6.45 c -1.13,0.42 -2.53,-0.08 -3.13,-1.13 l -4.43,-7.67 c -0.62,-1.07 -0.34,-2.51 0.59,-3.28 l 14.2,-11.69 c 0.93,-0.77 1.31,-2.29 0.85,-3.39 l -3.65,-8.83 c -0.45,-1.08 -1.8,-1.91 -3,-1.8 l -18.31,1.78 c -1.2,0.12 -2.43,-0.73 -2.74,-1.9 l -2.29,-8.56 c -0.32,-1.19 0.32,-2.51 1.42,-3.01 l 16.75,-7.62 c 1.1,-0.5 1.86,-1.87 1.7,-3.06 l -1.25,-9.47 c -0.15,-1.16 -1.25,-2.31 -2.44,-2.51 l -18.14,-3.02 c -1.19,-0.2 -2.15,-1.34 -2.15,-2.54 v -8.86 c 0,-1.23 0.96,-2.35 2.15,-2.54 l 18.12,-3.02 c 1.19,-0.2 2.28,-1.32 2.43,-2.51 l 1.24,-9.48 c 0.15,-1.16 -0.61,-2.56 -1.7,-3.06 l -16.72,-7.61 c -1.09,-0.5 -1.73,-1.85 -1.42,-3.01 l 2.29,-8.56 c 0.32,-1.19 1.54,-2.02 2.74,-1.9 l 18.29,1.77 c 1.2,0.12 2.54,-0.69 3,-1.8 l 3.67,-8.83 c 0.45,-1.08 0.08,-2.63 -0.85,-3.39 l -14.2,-11.69 c -0.93,-0.77 -1.2,-2.23 -0.59,-3.28 l 4.43,-7.67 c 0.62,-1.07 2.01,-1.55 3.14,-1.13 l 17.23,6.45 c 1.13,0.42 2.63,-0.01 3.36,-0.96 l 5.81,-7.59 c 0.71,-0.93 0.75,-2.52 0.05,-3.5 l -10.68,-14.96 c -0.7,-0.98 -0.58,-2.47 0.28,-3.32 l 6.27,-6.27 c 0.87,-0.87 2.34,-0.98 3.32,-0.28 l 14.95,10.68 c 0.98,0.7 2.55,0.67 3.5,-0.06 l 7.59,-5.82 c 0.93,-0.71 1.38,-2.24 0.96,-3.36 l -6.45,-17.21 c -0.42,-1.13 0.08,-2.53 1.13,-3.13 l 7.67,-4.43 c 1.07,-0.62 2.51,-0.34 3.28,0.59 l 11.69,14.2 c 0.77,0.93 2.29,1.31 3.39,0.85 l 8.83,-3.65 c 1.08,-0.45 1.91,-1.8 1.8,-3 l -1.78,-18.31 c -0.12,-1.2 0.73,-2.43 1.9,-2.74 l 8.56,-2.29 c 1.19,-0.32 2.51,0.32 3.01,1.42 l 7.62,16.75 c 0.5,1.1 1.87,1.86 3.06,1.7 l 9.47,-1.25 c 1.16,-0.15 2.31,-1.25 2.51,-2.44 l 3.02,-18.14 c 0.2,-1.19 1.34,-2.15 2.54,-2.15 h 8.86 c 1.23,0 2.35,0.96 2.54,2.15 l 3.02,18.12 c 0.2,1.19 1.32,2.28 2.51,2.43 l 9.48,1.24 c 1.16,0.15 2.56,-0.61 3.06,-1.7 l 7.61,-16.72 c 0.5,-1.09 1.85,-1.73 3.01,-1.42 l 8.56,2.29 c 1.19,0.32 2.02,1.54 1.9,2.74 l -1.77,18.29 c -0.12,1.2 0.69,2.54 1.8,3 l 8.83,3.67 c 1.08,0.45 2.63,0.08 3.39,-0.85 l 11.69,-14.2 c 0.77,-0.93 2.23,-1.2 3.28,-0.59 l 7.67,4.43 c 1.07,0.62 1.55,2.01 1.13,3.14 z m -29.36,36.71 c -24.86,-14.36 -53.13,-17.48 -78.92,-10.94 -4.97,1.26 -2.05,0.57 -2.05,0.57 -6.92,2.36 -9.68,9.49 -6.19,15.85 0,0 -2.01,-3.67 0.16,0.28 10.34,18.87 31.04,56.63 31.04,56.63 4.68,8.54 16.37,15.3 26.12,15.1 0,0 45.86,-0.95 68.8,-1.43 4.26,-0.09 0,0 0,0 7.06,-0.15 11.65,-6.09 10.11,-12.74 -7.16,-25.78 -24.05,-48.88 -49.06,-63.32 z m -1.73,184.17 c 25.11,-13.92 42.34,-36.54 50.02,-62.02 1.48,-4.91 0.57,-2.05 0.57,-2.05 1.54,-7.15 -3.15,-13.18 -10.4,-13.47 0,0 4.18,0.17 -0.32,-0.01 -21.5,-0.85 -64.52,-2.56 -64.52,-2.56 -9.73,-0.39 -21.55,6.15 -26.4,14.61 0,0 -22.8,39.8 -34.21,59.71 -2.12,3.7 0,0 0,0 -3.51,6.13 -0.77,13.12 5.72,15.23 0,0 -4.1,-1.14 0,0 25.79,7.14 54.29,4.56 79.54,-9.44 z m -125.19,-16.85 c 5.07,4.57 12.5,3.44 16.05,-2.67 0,0 -2.14,3.68 0,0 11.54,-19.83 34.6,-59.48 34.6,-59.48 4.9,-8.43 4.66,-21.93 -0.54,-30.17 0,0 -22.99,-36.41 -34.48,-54.6 -2.41,-3.81 -0.17,-0.27 -0.17,-0.27 -3.87,-6.13 -11.44,-7.18 -16.86,-2.27 0,0 2.02,-2.22 -1.49,1.52 -18.22,19.39 -29.2,45.62 -28.7,74.33 0.5,28.87 12.52,54.84 31.6,73.6 z"
           class="shp86"
           id="path956" />
        <path
           id="gear"
           class="shp86"
           d="m 2410.4599,123.37078 -6.45,17.23 c -0.42,1.13 0.01,2.63 0.96,3.36 l 7.59,5.81 c 0.93,0.71 2.52,0.75 3.5,0.05 l 14.96,-10.68 c 0.98,-0.7 2.47,-0.58 3.32,0.28 l 6.27,6.27 c 0.87,0.87 0.98,2.34 0.28,3.32 l -10.68,14.95 c -0.7,0.98 -0.67,2.55 0.06,3.5 l 5.82,7.59 c 0.71,0.93 2.24,1.38 3.36,0.96 l 17.21,-6.45 c 1.13,-0.42 2.53,0.08 3.13,1.13 l 4.43,7.67 c 0.62,1.07 0.34,2.51 -0.59,3.28 l -14.2,11.69 c -0.93,0.77 -1.31,2.29 -0.85,3.39 l 3.65,8.83 c 0.45,1.08 1.8,1.91 3,1.8 l 18.31,-1.78 c 1.2,-0.12 2.43,0.73 2.74,1.9 l 2.29,8.56 c 0.32,1.19 -0.32,2.51 -1.42,3.01 l -16.75,7.62 c -1.1,0.5 -1.86,1.87 -1.7,3.06 l 1.25,9.47 c 0.15,1.16 1.25,2.31 2.44,2.51 l 18.14,3.02 c 1.19,0.2 2.15,1.34 2.15,2.54 v 8.86 c 0,1.23 -0.96,2.35 -2.15,2.54 l -18.12,3.02 c -1.19,0.2 -2.28,1.32 -2.43,2.51 l -1.24,9.48 c -0.15,1.16 0.61,2.56 1.7,3.06 l 16.72,7.61 c 1.09,0.5 1.73,1.85 1.42,3.01 l -2.29,8.56 c -0.32,1.19 -1.54,2.02 -2.74,1.9 l -18.29,-1.77 c -1.2,-0.12 -2.54,0.69 -3,1.8 l -3.67,8.83 c -0.45,1.08 -0.08,2.63 0.85,3.39 l 14.2,11.69 c 0.93,0.77 1.2,2.23 0.59,3.28 l -4.43,7.67 c -0.62,1.07 -2.01,1.55 -3.14,1.13 l -17.23,-6.45 c -1.13,-0.42 -2.63,0.01 -3.36,0.96 l -5.81,7.59 c -0.71,0.93 -0.75,2.52 -0.05,3.5 l 10.68,14.96 c 0.7,0.98 0.58,2.47 -0.28,3.32 l -6.27,6.27 c -0.87,0.87 -2.34,0.98 -3.32,0.28 l -14.95,-10.68 c -0.98,-0.7 -2.55,-0.67 -3.5,0.06 l -7.59,5.82 c -0.93,0.71 -1.38,2.24 -0.96,3.36 l 6.45,17.21 c 0.42,1.13 -0.08,2.53 -1.13,3.13 l -7.67,4.43 c -1.07,0.62 -2.51,0.34 -3.28,-0.59 l -11.69,-14.2 c -0.77,-0.93 -2.29,-1.31 -3.39,-0.85 l -8.83,3.65 c -1.08,0.45 -1.91,1.8 -1.8,3 l 1.78,18.31 c 0.12,1.2 -0.73,2.43 -1.9,2.74 l -8.56,2.29 c -1.19,0.32 -2.51,-0.32 -3.01,-1.42 l -7.62,-16.75 c -0.5,-1.1 -1.87,-1.86 -3.06,-1.7 l -9.47,1.25 c -1.16,0.15 -2.31,1.25 -2.51,2.44 l -3.02,18.14 c -0.2,1.19 -1.34,2.15 -2.54,2.15 h -8.86 c -1.23,0 -2.35,-0.96 -2.54,-2.15 l -3.02,-18.12 c -0.2,-1.19 -1.32,-2.28 -2.51,-2.43 l -9.48,-1.24 c -1.16,-0.15 -2.56,0.61 -3.06,1.7 l -7.61,16.72 c -0.5,1.09 -1.85,1.73 -3.01,1.42 l -8.56,-2.29 c -1.19,-0.32 -2.02,-1.54 -1.9,-2.74 l 1.77,-18.29 c 0.12,-1.2 -0.69,-2.54 -1.8,-3 l -8.83,-3.67 c -1.08,-0.45 -2.63,-0.08 -3.39,0.85 l -11.69,14.2 c -0.77,0.93 -2.23,1.2 -3.28,0.59 l -7.67,-4.43 c -1.07,-0.62 -1.55,-2.01 -1.13,-3.14 l 6.45,-17.23 c 0.42,-1.13 -0.01,-2.63 -0.96,-3.36 l -7.59,-5.81 c -0.93,-0.71 -2.52,-0.75 -3.5,-0.05 l -14.96,10.68 c -0.98,0.7 -2.47,0.58 -3.32,-0.28 l -6.27,-6.27 c -0.87,-0.87 -0.98,-2.34 -0.28,-3.32 l 10.68,-14.95 c 0.7,-0.98 0.67,-2.55 -0.06,-3.5 l -5.82,-7.59 c -0.71,-0.93 -2.24,-1.38 -3.36,-0.96 l -17.21,6.45 c -1.13,0.42 -2.53,-0.08 -3.13,-1.13 l -4.43,-7.67 c -0.62,-1.07 -0.34,-2.51 0.59,-3.28 l 14.2,-11.69 c 0.93,-0.77 1.31,-2.29 0.85,-3.39 l -3.65,-8.83 c -0.45,-1.08 -1.8,-1.91 -3,-1.8 l -18.31,1.78 c -1.2,0.12 -2.43,-0.73 -2.74,-1.9 l -2.29,-8.56 c -0.32,-1.19 0.32,-2.51 1.42,-3.01 l 16.75,-7.62 c 1.1,-0.5 1.86,-1.87 1.7,-3.06 l -1.25,-9.47 c -0.15,-1.16 -1.25,-2.31 -2.44,-2.51 l -18.14,-3.02 c -1.19,-0.2 -2.15,-1.34 -2.15,-2.54 v -8.86 c 0,-1.23 0.96,-2.35 2.15,-2.54 l 18.12,-3.02 c 1.19,-0.2 2.28,-1.32 2.43,-2.51 l 1.24,-9.48 c 0.15,-1.16 -0.61,-2.56 -1.7,-3.06 l -16.72,-7.61 c -1.09,-0.5 -1.73,-1.85 -1.42,-3.01 l 2.29,-8.56 c 0.32,-1.19 1.54,-2.02 2.74,-1.9 l 18.29,1.77 c 1.2,0.12 2.54,-0.69 3,-1.8 l 3.67,-8.83 c 0.45,-1.08 0.08,-2.63 -0.85,-3.39 l -14.2,-11.69 c -0.93,-0.77 -1.2,-2.23 -0.59,-3.28 l 4.43,-7.67 c 0.62,-1.07 2.01,-1.55 3.14,-1.13 l 17.23,6.45 c 1.13,0.42 2.63,-0.01 3.36,-0.96 l 5.81,-7.59 c 0.71,-0.93 0.75,-2.52 0.05,-3.5 l -10.68,-14.96 c -0.7,-0.98 -0.58,-2.47 0.28,-3.32 l 6.27,-6.27 c 0.87,-0.87 2.34,-0.98 3.32,-0.28 l 14.95,10.68 c 0.98,0.7 2.55,0.67 3.5,-0.06 l 7.59,-5.82 c 0.93,-0.71 1.38,-2.24 0.96,-3.36 l -6.45,-17.21 c -0.42,-1.13 0.08,-2.53 1.13,-3.13 l 7.67,-4.43 c 1.07,-0.62 2.51,-0.34 3.28,0.59 l 11.69,14.2 c 0.77,0.93 2.29,1.31 3.39,0.85 l 8.83,-3.65 c 1.08,-0.45 1.91,-1.8 1.8,-3 l -1.78,-18.30999 c -0.12,-1.2 0.73,-2.43 1.9,-2.74 l 8.56,-2.29 c 1.19,-0.32 2.51,0.32 3.01,1.42 l 7.62,16.74999 c 0.5,1.1 1.87,1.86 3.06,1.7 l 9.47,-1.25 c 1.16,-0.15 2.31,-1.25 2.51,-2.44 l 3.02,-18.139993 c 0.2,-1.19 1.34,-2.15 2.54,-2.15 h 8.86 c 1.23,0 2.35,0.96 2.54,2.15 l 3.02,18.119993 c 0.2,1.19 1.32,2.28 2.51,2.43 l 9.48,1.24 c 1.16,0.15 2.56,-0.61 3.06,-1.7 l 7.61,-16.71999 c 0.5,-1.09 1.85,-1.73 3.01,-1.42 l 8.56,2.29 c 1.19,0.32 2.02,1.54 1.9,2.74 l -1.77,18.28999 c -0.12,1.2 0.69,2.54 1.8,3 l 8.83,3.67 c 1.08,0.45 2.63,0.08 3.39,-0.85 l 11.69,-14.2 c 0.77,-0.93 2.23,-1.2 3.28,-0.59 l 7.67,4.43 c 1.07,0.62 1.55,2.01 1.13,3.14 z m -29.36,36.71 c -24.86,-14.36 -53.13,-17.48 -78.92,-10.94 -4.97,1.26 -2.05,0.57 -2.05,0.57 -6.92,2.36 -9.68,9.49 -6.19,15.85 0,0 -2.01,-3.67 0.16,0.28 10.34,18.87 31.04,56.63 31.04,56.63 4.68,8.54 16.37,15.3 26.12,15.1 0,0 45.86,-0.95 68.8,-1.43 4.26,-0.09 0,0 0,0 7.06,-0.15 11.65,-6.09 10.11,-12.74 -7.16,-25.78 -24.05,-48.88 -49.06,-63.32 z m -1.73,184.17 c 25.11,-13.92 42.34,-36.54 50.02,-62.02 1.48,-4.91 0.57,-2.05 0.57,-2.05 1.54,-7.15 -3.15,-13.18 -10.4,-13.47 0,0 4.18,0.17 -0.32,-0.01 -21.5,-0.85 -64.52,-2.56 -64.52,-2.56 -9.73,-0.39 -21.55,6.15 -26.4,14.61 0,0 -22.8,39.8 -34.21,59.71 -2.12,3.7 0,0 0,0 -3.51,6.13 -0.77,13.12 5.72,15.23 0,0 -4.1,-1.14 0,0 25.79,7.14 54.29,4.56 79.54,-9.44 z m -125.19,-16.85 c 5.07,4.57 12.5,3.44 16.05,-2.67 0,0 -2.14,3.68 0,0 11.54,-19.83 34.6,-59.48 34.6,-59.48 4.9,-8.43 4.66,-21.93 -0.54,-30.17 0,0 -22.99,-36.41 -34.48,-54.6 -2.41,-3.81 -0.17,-0.27 -0.17,-0.27 -3.87,-6.13 -11.44,-7.18 -16.86,-2.27 0,0 2.02,-2.22 -1.49,1.52 -18.22,19.39 -29.2,45.62 -28.7,74.33 0.5,28.87 12.52,54.84 31.6,73.6 z"
           style="fill:url(#grd68-9);fill-opacity:1"
           inkscape:connector-curvature="0" />
      </g>
    </g>
    <g
       inkscape:groupmode="layer"
       id="layer4"
       inkscape:label="Borders"
       style="display:inline;opacity:1">
      <path
         style="color:#000000;display:inline;overflow:visible;visibility:visible;opacity:0.3;fill:#ffffff;fill-opacity:1;fill-rule:nonzero;stroke:none;stroke-width:1;marker:none;enable-background:accumulate"
         d="m 78.92188,43.999698 c -35.296728,0 -39.09487,3.62603 -38.92188,38.99414 v 2 c -0.17299,-35.36811 3.625152,-38.99414 38.92188,-38.99414 h 146.15624 c 35.29673,0 38.92188,3.62561 38.92188,38.99414 v -2 c 0,-35.36853 -3.62515,-38.99414 -38.92188,-38.99414 z"
         id="path931"
         inkscape:connector-curvature="0"
         sodipodi:nodetypes="sccsscsss" />
      <path
         style="color:#000000;display:inline;overflow:visible;visibility:visible;opacity:0.2;fill:#000000;fill-opacity:1;fill-rule:nonzero;stroke:none;stroke-width:1;marker:none;enable-background:accumulate"
         d="m 78.92728,267.9997 c -35.296731,0 -39.094875,-3.62603 -38.921885,-38.99414 v -2 c -0.17299,35.36811 3.625154,38.99414 38.921885,38.99414 h 146.15624 c 35.29673,0 38.92188,-3.62561 38.92188,-38.99414 v 2 c 0,35.36853 -3.62515,38.99414 -38.92188,38.99414 z"
         id="path931-8"
         inkscape:connector-curvature="0"
         sodipodi:nodetypes="sccsscsss" />
      <path
         style="color:#000000;display:inline;overflow:visible;visibility:visible;opacity:0.4;fill:none;fill-opacity:1;fill-rule:nonzero;stroke:#000000;stroke-width:1;stroke-miterlimit:4;stroke-dasharray:none;stroke-opacity:1;marker:none;enable-background:accumulate"
         d="m 333.33517,61.500047 c -10.01116,0 -11.88667,0.90635 -11.83407,9.74838 V 84 96.75181 c -0.0527,8.84203 1.82291,9.74838 11.83407,9.74838 h 21.3308 c 10.00866,0 11.83405,-0.90625 11.83405,-9.74838 V 84 71.248427 c 0,-8.84213 -1.82539,-9.74838 -11.83406,-9.74838 z"
         id="path958"
         inkscape:connector-curvature="0"
         sodipodi:nodetypes="scccssscsss" />
      <path
         style="color:#000000;display:inline;overflow:visible;visibility:visible;opacity:0.4;fill:none;fill-opacity:1;fill-rule:nonzero;stroke:#000000;stroke-width:1;stroke-miterlimit:4;stroke-dasharray:none;stroke-opacity:1;marker:none;enable-background:accumulate"
         d="m 329.12711,133.5 c -6.45163,0 -7.6603,0.58409 -7.62639,6.28227 v 8.21765 8.21781 c -0.034,5.69818 1.17476,6.28227 7.62639,6.28227 h 13.74651 c 6.45003,0 7.62639,-0.58403 7.62639,-6.28227 v -8.21781 -8.21765 c 0,-5.69824 -1.17636,-6.28227 -7.62639,-6.28227 z"
         id="path958-1"
         inkscape:connector-curvature="0"
         sodipodi:nodetypes="scccssscsss" />
      <path
         style="color:#000000;display:inline;overflow:visible;visibility:visible;opacity:0.4;fill:none;fill-opacity:1;fill-rule:nonzero;stroke:#000000;stroke-width:0.99999994;stroke-miterlimit:4;stroke-dasharray:none;stroke-opacity:1;marker:none;enable-background:accumulate"
         d="m 337.97659,211.50015 c 4.67187,0 5.5471,-0.42296 5.52255,-4.54923 v -7.95037 -5.95084 c 0.0245,-4.12627 -0.85068,-4.54923 -5.52255,-4.54923 h -11.95364 c -4.67071,0 -5.52256,0.42291 -5.52256,4.54923 v 5.95084 7.95037 c 0,4.12632 0.85185,4.54923 5.52256,4.54923 z"
         id="path958-6"
         inkscape:connector-curvature="0"
         sodipodi:nodetypes="scccssscsss" />
      <path
         style="color:#000000;display:inline;overflow:visible;visibility:visible;opacity:0.4;fill:none;fill-opacity:1;fill-rule:nonzero;stroke:#000000;stroke-width:1;stroke-miterlimit:4;stroke-dasharray:none;stroke-opacity:1;marker:none;enable-background:accumulate"
         d="m 331.55494,251.5 c 3.33705,0 3.96221,-0.30212 3.94468,-3.24946 v -4.2505 -4.25059 c 0.0175,-2.94734 -0.60763,-3.24945 -3.94468,-3.24945 h -7.11025 c -3.33622,0 -3.94469,0.30208 -3.94469,3.24945 v 4.25059 4.2505 c 0,2.94738 0.60847,3.24946 3.94469,3.24946 z"
         id="path958-6-0"
         inkscape:connector-curvature="0"
         sodipodi:nodetypes="scccssscsss" />
    </g>
    <g
       inkscape:groupmode="layer"
       id="layer5"
       inkscape:label="Highlights"
       style="opacity:0.7">
      <path
         style="display:inline;enable-background:accumulate;opacity:1;color:#000000;overflow:visible;visibility:visible;fill:url(#linearGradient1692-6);fill-opacity:1;fill-rule:nonzero;stroke:none;stroke-width:1;marker:none"
         d="m 324.44531,237 c -1.65302,0 -2.54604,0.12548 -2.91601,0.41406 -0.18499,0.14429 -0.30479,0.33122 -0.39649,0.70313 C 321.0411,238.4891 321,239.03036 321,239.75 v 4.25 4.25 c 0,0.71964 0.0411,1.26082 0.13281,1.63281 0.0917,0.37191 0.2115,0.55884 0.39649,0.70313 0.36997,0.28858 1.26299,0.41406 2.91601,0.41406 h 7.10938 c 1.65343,0 2.55203,-0.12511 2.92383,-0.41406 0.18589,-0.14448 0.30578,-0.33208 0.39648,-0.70313 0.0907,-0.37105 0.129,-0.90979 0.125,-1.6289 v -0.002 V 244 v -4.25195 -0.002 c 0.004,-0.71911 -0.0343,-1.25785 -0.125,-1.6289 -0.0907,-0.37105 -0.21059,-0.55865 -0.39648,-0.70313 C 334.10673,237.12512 333.20812,237 331.55469,237 Z m 5.32813,1.04688 c 1.10767,-3.4e-4 2.21363,0.008 3.32031,0.0449 0.26616,0.0599 0.75737,-0.0208 0.79297,0.3457 0.13405,1.84438 0.0662,3.68774 0.10156,5.53906 -0.0126,1.86745 0.0543,3.67031 -0.10351,5.49805 0.0642,0.42314 -0.43946,0.35577 -0.70313,0.42187 -3.43277,0.0703 -6.87577,0.0589 -10.29883,0.002 -0.22288,-0.0398 -0.55622,-3.2e-4 -0.71093,-0.1875 -0.19863,-1.12995 -0.12696,-2.26946 -0.16016,-3.41992 0.0138,-2.55648 -0.029,-5.10728 0.0898,-7.65625 -0.03,-0.2727 0.10944,-0.49629 0.40039,-0.48829 1.30659,-0.161 2.63265,-0.0636 3.94727,-0.0976 1.10718,0.006 2.21655,-0.002 3.32422,-0.002 z"
         id="path918-6"
         inkscape:connector-curvature="0" />
      <path
         style="display:inline;enable-background:accumulate;opacity:1;color:#000000;overflow:visible;visibility:visible;fill:url(#linearGradient1690-9);fill-opacity:1;fill-rule:nonzero;stroke:none;stroke-width:0.99999988;marker:none"
         d="m 326.02383,189.00048 c -2.32027,0 -3.60941,0.15494 -4.20703,0.62109 -0.29882,0.23308 -0.48964,0.54668 -0.625,1.09571 -0.13541,0.54902 -0.19141,1.31765 -0.19141,2.33203 v 5.95117 7.95084 c 0,1.01437 0.056,1.783 0.19141,2.33203 0.13536,0.54903 0.32618,0.86263 0.625,1.09571 0.59762,0.46615 1.88676,0.62109 4.20703,0.62109 h 11.9524 c 2.32085,0 3.61652,-0.15457 4.2168,-0.62109 0.30014,-0.23327 0.49095,-0.54754 0.625,-1.09571 0.13404,-0.54816 0.18764,-1.31623 0.18164,-2.33008 v -7.95279 -5.95312 c 0.006,-1.01386 -0.0476,-1.78191 -0.18164,-2.33008 -0.13406,-0.54817 -0.32486,-0.86244 -0.625,-1.09571 -0.60028,-0.46652 -1.89595,-0.62109 -4.2168,-0.62109 z m 4.95859,1.00977 c 1.5798,-0.002 4.16014,-3.9e-4 5.73991,0.0117 1.50021,0.0511 3.02236,-0.0712 4.5,0.28321 0.55111,0.0919 0.61303,0.71807 0.67773,1.16601 0.1117,4.30832 0.075,10.62608 0.0508,14.94108 -0.0716,0.99089 0.13687,2.07606 -0.30078,3.01366 -0.34356,0.40964 -0.9694,0.35958 -1.45117,0.45509 -3.95407,0.0823 -9.92936,0.0499 -13.89381,0.0371 -1.16908,-0.0622 -2.37292,0.11291 -3.51758,-0.22266 -0.57935,-0.098 -0.6137,-0.75914 -0.6875,-1.2207 -0.1146,-4.11835 -0.0751,-10.24472 -0.0547,-14.36881 0.0572,-1.06305 -0.0797,-2.16734 0.18164,-3.21485 0.10495,-0.6386 0.8614,-0.66043 1.36719,-0.74023 2.1305,-0.19658 5.24071,-0.10662 7.38828,-0.14062 z"
         id="path914-6"
         inkscape:connector-curvature="0"
         sodipodi:nodetypes="sccscsccsscccccccssccccccccccccccc" />
      <path
         style="display:inline;enable-background:accumulate;opacity:1;color:#000000;overflow:visible;visibility:visible;fill:url(#linearGradient1686-0);fill-opacity:1;fill-rule:nonzero;stroke:none;stroke-width:1;marker:none"
         d="m 333.33594,62 c -4.99049,0 -7.87051,0.276282 -9.38477,1.453125 -0.75713,0.588421 -1.23761,1.403518 -1.54492,2.660156 -0.3073,1.256638 -0.4173,2.940031 -0.4043,5.132813 V 84 96.753906 c -0.0131,2.19278 0.097,3.876174 0.4043,5.132814 0.30731,1.25663 0.78779,2.07172 1.54492,2.66016 1.51427,1.17683 4.39428,1.45312 9.38477,1.45312 h 21.33008 c 4.98923,0 7.85502,-0.27668 9.36328,-1.45312 0.75412,-0.58824 1.23293,-1.40461 1.54297,-2.66211 C 365.8823,100.62727 366,98.945281 366,96.751953 V 84 71.248047 c 0,-2.193329 -0.1177,-3.875313 -0.42773,-5.132813 -0.31004,-1.257499 -0.78884,-2.073874 -1.54297,-2.662109 C 362.52104,62.276656 359.65526,62 354.66602,62 Z m 2.40234,1.097656 c 6.94737,8.3e-4 13.91063,0.0034 20.84961,0.05469 2.14296,0.08293 4.46431,-0.147701 6.42383,0.93164 1.29609,0.695228 1.54862,2.250325 1.76953,3.564454 0.17551,2.202888 0.0915,4.442228 0.13867,6.669921 0.0227,8.479532 0.077,16.968993 -0.0801,25.447266 -0.16151,1.483233 -0.38135,3.305793 -1.79882,4.142573 -1.6055,0.82871 -3.47551,0.90643 -5.24805,0.95313 -9.49974,0.0678 -19.0243,0.0843 -28.52344,-0.0176 -1.57816,-0.11413 -3.27053,-0.24014 -4.63281,-1.12109 -1.22952,-0.99538 -1.36082,-2.72739 -1.50391,-4.193361 -0.1272,-8.998585 -0.0836,-18.004484 -0.0527,-27.007813 0.0997,-2.381275 -0.24538,-4.900002 0.70508,-7.160156 0.67165,-1.50972 2.46573,-1.859954 3.93945,-2.05664 2.66168,-0.316582 5.34184,-0.147022 8.01367,-0.207032 z"
         id="path964-3"
         inkscape:connector-curvature="0" />
    </g>
  </g>
</svg>
