<?xml version="1.0" encoding="UTF-8" standalone="no"?>
<svg
   inkscape:export-ydpi="96"
   inkscape:export-xdpi="96"
   width="400"
   height="300"
   id="svg11300"
   sodipodi:version="0.32"
   inkscape:version="1.1.2 (0a00cf5339, 2022-02-04)"
   sodipodi:docname="settings-app.svg"
   inkscape:output_extension="org.inkscape.output.svg.inkscape"
   version="1.0"
   style="display:inline;enable-background:new"
   inkscape:export-filename="C:\Users\sblav\Pictures\vertical oblong template.png"
   xmlns:inkscape="http://www.inkscape.org/namespaces/inkscape"
   xmlns:sodipodi="http://sodipodi.sourceforge.net/DTD/sodipodi-0.dtd"
   xmlns:xlink="http://www.w3.org/1999/xlink"
   xmlns="http://www.w3.org/2000/svg"
   xmlns:svg="http://www.w3.org/2000/svg"
   xmlns:rdf="http://www.w3.org/1999/02/22-rdf-syntax-ns#"
   xmlns:cc="http://creativecommons.org/ns#"
   xmlns:dc="http://purl.org/dc/elements/1.1/">
  <title
     id="title3004">Yaru Icon Theme Template</title>
  <sodipodi:namedview
     stroke="#ef2929"
     fill="#f57900"
     id="base"
     pagecolor="#ffffff"
     bordercolor="#000000"
     borderopacity="0.25490196"
     inkscape:pageopacity="0"
     inkscape:pageshadow="2"
     inkscape:zoom="2.8284272"
     inkscape:cx="195.51502"
     inkscape:cy="56.214988"
     inkscape:current-layer="layer8"
     showgrid="false"
     inkscape:grid-bbox="true"
     inkscape:document-units="px"
     inkscape:showpageshadow="false"
     inkscape:window-width="1904"
     inkscape:window-height="1011"
     inkscape:window-x="0"
     inkscape:window-y="32"
     width="400px"
     height="300px"
     inkscape:snap-nodes="true"
     inkscape:snap-bbox="true"
     gridtolerance="10000"
     inkscape:object-nodes="true"
     inkscape:snap-grids="true"
     showguides="false"
     inkscape:guide-bbox="true"
     inkscape:window-maximized="1"
     inkscape:bbox-paths="true"
     inkscape:snap-bbox-midpoints="true"
     inkscape:snap-global="true"
     inkscape:object-paths="true"
     inkscape:snap-intersection-paths="true"
     inkscape:snap-smooth-nodes="true"
     inkscape:pagecheckerboard="false"
     showborder="false"
     inkscape:document-rotation="0" />
  <defs
     id="defs3">
    <clipPath
       clipPathUnits="userSpaceOnUse"
       id="cp12-5">
      <path
         inkscape:connector-curvature="0"
         d="m 2328.32,421.51 c 97.42,0 176.4,-78.98 176.4,-176.4 0,-97.42 -78.98,-176.4 -176.4,-176.4 -97.42,0 -176.4,78.98 -176.4,176.4 0,97.42 78.98,176.4 176.4,176.4 z"
         id="path499-6" />
    </clipPath>
    <filter
       inkscape:collect="always"
       style="color-interpolation-filters:sRGB"
       id="filter982"
       x="-0.047999998"
       width="1.096"
       y="-0.047999998"
       height="1.096">
      <feGaussianBlur
         inkscape:collect="always"
         stdDeviation="6.174"
         id="feGaussianBlur984" />
    </filter>
    <linearGradient
       id="grd68-9"
       gradientUnits="userSpaceOnUse"
       x1="2331.2749"
       y1="435.5072"
       x2="2331.2749"
       y2="45.72554"
       xlink:href="#linearGradient1089"
       gradientTransform="translate(-3.4704352e-5,10.990787)" />
    <linearGradient
       id="linearGradient1089">
      <stop
         id="stop1087"
         offset="0"
         style="stop-color:#b3b3b3;stop-opacity:1" />
      <stop
         id="stop1085"
         offset="1"
         style="stop-color:#cecece;stop-opacity:1" />
    </linearGradient>
    <linearGradient
       id="linearGradient5232"
       y2="288"
       xlink:href="#linearGradient5226"
       gradientUnits="userSpaceOnUse"
       x2="602"
       y1="288"
       x1="104" />
    <linearGradient
       id="linearGradient5226">
      <stop
         id="stop5228"
         offset="0" />
      <stop
         id="stop5230"
         style="stop-opacity:0"
         offset="1" />
    </linearGradient>
    <clipPath
       id="clipPath5222"
       clipPathUnits="userSpaceOnUse">
      <circle
         id="circle5224"
         r="184"
         style="color:#000000;opacity:0.2;fill:#df382c;enable-background:accumulate"
         cx="288"
         cy="288" />
    </clipPath>
    <filter
       id="filter5264"
       style="color-interpolation-filters:sRGB"
       height="1.192"
       width="1.192"
       y="-0.096000001"
       x="-0.096000001">
      <feGaussianBlur
         id="feGaussianBlur5266"
         stdDeviation="14.72" />
    </filter>
    <linearGradient
       inkscape:collect="always"
       xlink:href="#linearGradient999"
       id="linearGradient1001"
       x1="132.29167"
       y1="64.166649"
       x2="132.29167"
       y2="286.41666"
       gradientUnits="userSpaceOnUse"
       gradientTransform="matrix(1.0947301,0,0,1.0947301,3.6978294,-19.83533)" />
    <linearGradient
       inkscape:collect="always"
       id="linearGradient999">
      <stop
         style="stop-color:#333333;stop-opacity:1"
         offset="0"
         id="stop995" />
      <stop
         style="stop-color:#4d4d4d;stop-opacity:0.59447002"
         offset="1"
         id="stop997" />
    </linearGradient>
    <linearGradient
       inkscape:collect="always"
       xlink:href="#linearGradient999"
       id="linearGradient1151"
       gradientUnits="userSpaceOnUse"
       gradientTransform="matrix(0.21894602,0,0,0.21894602,314.34012,48.633053)"
       x1="132.29167"
       y1="64.166649"
       x2="132.29167"
       y2="286.41666" />
    <linearGradient
       inkscape:collect="always"
       xlink:href="#linearGradient1089"
       id="linearGradient1153"
       gradientUnits="userSpaceOnUse"
       gradientTransform="translate(-3.4704352e-5,10.990787)"
       x1="2331.2749"
       y1="435.5072"
       x2="2331.2749"
       y2="45.72554" />
    <linearGradient
       inkscape:collect="always"
       xlink:href="#linearGradient999"
       id="linearGradient1755"
       gradientUnits="userSpaceOnUse"
       gradientTransform="matrix(0.14075101,0,0,0.14075101,316.93293,125.26403)"
       x1="132.29167"
       y1="64.166649"
       x2="132.29167"
       y2="286.41666" />
    <linearGradient
       inkscape:collect="always"
       xlink:href="#linearGradient1089"
       id="linearGradient1757"
       gradientUnits="userSpaceOnUse"
       gradientTransform="translate(-3.4704352e-5,10.990787)"
       x1="2331.2749"
       y1="435.5072"
       x2="2331.2749"
       y2="45.72554" />
    <linearGradient
       inkscape:collect="always"
       xlink:href="#linearGradient999"
       id="linearGradient1933"
       gradientUnits="userSpaceOnUse"
       gradientTransform="matrix(0.10426001,0,0,0.10426001,317.8765,183.15885)"
       x1="132.29167"
       y1="64.166649"
       x2="132.29167"
       y2="286.41666" />
    <linearGradient
       inkscape:collect="always"
       xlink:href="#linearGradient1089"
       id="linearGradient1935"
       gradientUnits="userSpaceOnUse"
       gradientTransform="translate(-3.4704352e-5,10.990787)"
       x1="2331.2749"
       y1="435.5072"
       x2="2331.2749"
       y2="45.72554" />
    <linearGradient
       inkscape:collect="always"
       xlink:href="#linearGradient999"
       id="linearGradient2637"
       gradientUnits="userSpaceOnUse"
       gradientTransform="matrix(0.06255601,0,0,0.06255601,319.52589,233.89512)"
       x1="132.29167"
       y1="64.166649"
       x2="132.29167"
       y2="286.41666" />
    <linearGradient
       inkscape:collect="always"
       xlink:href="#linearGradient1089"
       id="linearGradient2639"
       gradientUnits="userSpaceOnUse"
       gradientTransform="translate(-3.4704352e-5,10.990787)"
       x1="2331.2749"
       y1="435.5072"
       x2="2331.2749"
       y2="45.72554" />
    <linearGradient
       inkscape:collect="always"
       xlink:href="#linearGradient1137"
       id="linearGradient894"
       x1="132.29166"
       y1="24.479151"
       x2="132.29166"
       y2="296.99997"
       gradientUnits="userSpaceOnUse"
       gradientTransform="matrix(0.94068243,0,0,1.0163436,24.568897,-8.1733626)" />
    <linearGradient
       id="linearGradient1137"
       inkscape:collect="always">
      <stop
         id="stop1133"
         offset="0"
         style="stop-color:#b3b3b3;stop-opacity:1" />
      <stop
         id="stop1135"
         offset="1"
         style="stop-color:#6b6666;stop-opacity:1" />
    </linearGradient>
    <linearGradient
       inkscape:collect="always"
       xlink:href="#linearGradient892"
       id="linearGradient1131"
       gradientUnits="userSpaceOnUse"
       x1="132.29167"
       y1="42.999985"
       x2="132.29167"
       y2="275.83331"
       gradientTransform="matrix(0.91648642,0,0,0.99020144,27.846647,-3.9505326)" />
    <linearGradient
       inkscape:collect="always"
       id="linearGradient892">
      <stop
         style="stop-color:#b3b3b3;stop-opacity:1"
         offset="0"
         id="stop888" />
      <stop
         style="stop-color:#7b7a7a;stop-opacity:0"
         offset="1"
         id="stop890" />
    </linearGradient>
    <linearGradient
       inkscape:collect="always"
       xlink:href="#linearGradient892"
       id="linearGradient1532"
       gradientUnits="userSpaceOnUse"
       gradientTransform="matrix(0.18411558,0,0,0.1989244,319.05848,51.86708)"
       x1="132.29167"
       y1="42.999985"
       x2="132.29167"
       y2="275.83331" />
    <linearGradient
       inkscape:collect="always"
       xlink:href="#linearGradient1137"
       id="linearGradient1534"
       gradientUnits="userSpaceOnUse"
       gradientTransform="matrix(0.18897638,0,0,0.20417617,318.4,51.018744)"
       x1="132.29166"
       y1="24.479151"
       x2="132.29166"
       y2="296.99997" />
    <linearGradient
       inkscape:collect="always"
       xlink:href="#linearGradient892"
       id="linearGradient1540"
       gradientUnits="userSpaceOnUse"
       gradientTransform="matrix(0.11865226,0,0,0.12819572,319.92658,127.2921)"
       x1="132.29167"
       y1="42.999985"
       x2="132.29167"
       y2="275.83331" />
    <linearGradient
       inkscape:collect="always"
       xlink:href="#linearGradient1137"
       id="linearGradient1542"
       gradientUnits="userSpaceOnUse"
       gradientTransform="matrix(0.12178478,0,0,0.1315802,319.50223,126.7454)"
       x1="132.29166"
       y1="24.479151"
       x2="132.29166"
       y2="296.99997" />
    <linearGradient
       inkscape:collect="always"
       xlink:href="#linearGradient892"
       id="linearGradient1548"
       gradientUnits="userSpaceOnUse"
       gradientTransform="matrix(0.09410352,0,0,0.10167247,319.25211,183.57648)"
       x1="132.29167"
       y1="42.999985"
       x2="132.29167"
       y2="275.83331" />
    <linearGradient
       inkscape:collect="always"
       xlink:href="#linearGradient1137"
       id="linearGradient1550"
       gradientUnits="userSpaceOnUse"
       gradientTransform="matrix(0.09658793,0,0,0.10435671,318.91555,183.14289)"
       x1="132.29166"
       y1="24.479151"
       x2="132.29166"
       y2="296.99997" />
    <linearGradient
       inkscape:collect="always"
       xlink:href="#linearGradient892"
       id="linearGradient1556"
       gradientUnits="userSpaceOnUse"
       gradientTransform="matrix(0.06137186,0,0,0.06630813,319.68613,233.28901)"
       x1="132.29167"
       y1="42.999985"
       x2="132.29167"
       y2="275.83331" />
    <linearGradient
       inkscape:collect="always"
       xlink:href="#linearGradient1137"
       id="linearGradient1558"
       gradientUnits="userSpaceOnUse"
       gradientTransform="matrix(0.06299213,0,0,0.06805872,319.46663,233.00624)"
       x1="132.29166"
       y1="24.479151"
       x2="132.29166"
       y2="296.99997" />
  </defs>
  <metadata
     id="metadata4">
    <rdf:RDF>
      <cc:Work
         rdf:about="">
        <dc:format>image/svg+xml</dc:format>
        <dc:type
           rdf:resource="http://purl.org/dc/dcmitype/StillImage" />
        <dc:creator>
          <cc:Agent>
            <dc:title>Yaru Team, based on the Suru template by Sam Hewitt and original Suru designs by Matthieu James</dc:title>
          </cc:Agent>
        </dc:creator>
        <dc:source />
        <cc:license
           rdf:resource="http://creativecommons.org/licenses/by-sa/4.0/" />
        <dc:title>Yaru Icon Theme Template</dc:title>
        <dc:subject>
          <rdf:Bag />
        </dc:subject>
        <dc:date />
        <dc:rights>
          <cc:Agent>
            <dc:title />
          </cc:Agent>
        </dc:rights>
        <dc:publisher>
          <cc:Agent>
            <dc:title />
          </cc:Agent>
        </dc:publisher>
        <dc:identifier />
        <dc:relation />
        <dc:language />
        <dc:coverage />
        <dc:description />
        <dc:contributor>
          <cc:Agent>
            <dc:title />
          </cc:Agent>
        </dc:contributor>
      </cc:Work>
      <cc:Work
         rdf:about="">
        <dc:format>image/svg+xml</dc:format>
        <dc:type
           rdf:resource="http://purl.org/dc/dcmitype/StillImage" />
      </cc:Work>
      <cc:License
         rdf:about="http://creativecommons.org/licenses/by-sa/4.0/">
        <cc:permits
           rdf:resource="http://creativecommons.org/ns#Reproduction" />
        <cc:permits
           rdf:resource="http://creativecommons.org/ns#Distribution" />
        <cc:requires
           rdf:resource="http://creativecommons.org/ns#Notice" />
        <cc:requires
           rdf:resource="http://creativecommons.org/ns#Attribution" />
        <cc:permits
           rdf:resource="http://creativecommons.org/ns#DerivativeWorks" />
        <cc:requires
           rdf:resource="http://creativecommons.org/ns#ShareAlike" />
      </cc:License>
    </rdf:RDF>
  </metadata>
  <g
     style="display:inline"
     inkscape:groupmode="layer"
     inkscape:label="Icon"
     id="layer1">
    <g
       style="display:none"
       inkscape:label="Baseplate"
       id="layer7"
       inkscape:groupmode="layer"
       sodipodi:insensitive="true">
      <text
         y="-8.2548828"
         xml:space="preserve"
         x="19.006836"
         style="font-style:normal;font-variant:normal;font-weight:normal;font-stretch:normal;line-height:0%;font-family:'DejaVu Sans';-inkscape-font-specification:'DejaVu Sans';display:inline;fill:#000000;fill-opacity:1;stroke:none;enable-background:new"
         inkscape:label="context"
         id="context"><tspan
           style="font-style:normal;font-variant:normal;font-weight:normal;font-stretch:normal;font-size:18px;line-height:1.25;font-family:'DejaVu Sans';-inkscape-font-specification:'DejaVu Sans'"
           y="-8.2548828"
           x="19.006836"
           sodipodi:role="line"
           id="tspan3933">apps</tspan></text>
      <text
         y="-8.2548828"
         xml:space="preserve"
         x="146.48828"
         style="font-style:normal;font-variant:normal;font-weight:bold;font-stretch:normal;line-height:0%;font-family:'DejaVu Sans';-inkscape-font-specification:'DejaVu Sans Bold';text-align:start;writing-mode:lr-tb;text-anchor:start;display:inline;fill:#000000;fill-opacity:1;stroke:none;enable-background:new"
         inkscape:label="icon-name"
         id="icon-name"><tspan
           style="font-style:normal;font-variant:normal;font-weight:bold;font-stretch:normal;font-size:18px;line-height:1.25;font-family:'DejaVu Sans';-inkscape-font-specification:'DejaVu Sans Bold'"
           y="-8.2548828"
           x="146.48828"
           sodipodi:role="line"
           id="tspan3937">system-settings</tspan></text>
      <rect
         style="display:inline;overflow:visible;visibility:visible;fill:#cdcdcd;fill-opacity:1;fill-rule:nonzero;stroke:none;stroke-width:2;marker:none;enable-background:accumulate"
         id="rect16x16"
         width="16"
         height="16"
         x="320"
         y="236"
         inkscape:label="16x16" />
      <rect
         style="display:inline;overflow:visible;visibility:visible;fill:#cdcdcd;fill-opacity:1;fill-rule:nonzero;stroke:none;stroke-width:2;marker:none;enable-background:accumulate"
         id="rect24x24"
         width="24"
         height="24"
         x="320"
         y="188"
         inkscape:label="24x24" />
      <rect
         style="display:inline;overflow:visible;visibility:visible;fill:#cdcdcd;fill-opacity:1;fill-rule:nonzero;stroke:none;stroke-width:2;marker:none;enable-background:accumulate"
         id="rect32x32"
         width="32"
         height="32"
         x="320"
         y="132"
         inkscape:label="32x32" />
      <rect
         inkscape:label="48x48"
         y="60"
         x="320"
         height="48"
         width="48"
         id="rect48x48"
         style="display:inline;overflow:visible;visibility:visible;fill:#cdcdcd;fill-opacity:1;fill-rule:nonzero;stroke:none;stroke-width:2;marker:none;enable-background:accumulate" />
      <rect
         style="display:inline;overflow:visible;visibility:visible;fill:#cdcdcd;fill-opacity:1;fill-rule:nonzero;stroke:none;stroke-width:2;marker:none;enable-background:accumulate"
         id="rect3951"
         width="256"
         height="256"
         x="24"
         y="28"
         inkscape:label="48x48" />
    </g>
    <g
       inkscape:groupmode="layer"
       id="layer9"
       inkscape:label="Optional outline for white icons"
       style="display:none">
      <path
         style="color:#000000;display:inline;overflow:visible;visibility:visible;opacity:0.2;fill:#000000;fill-opacity:1;fill-rule:nonzero;stroke:#000000;stroke-width:4;stroke-miterlimit:4;stroke-dasharray:none;marker:none;enable-background:accumulate"
         d="m 225.07297,43.99969 c 35.29673,0 39.09461,3.62542 38.92162,38.99353 v 73.00647 73.00648 c 0.17299,35.36812 -3.62489,38.99353 -38.92162,38.99353 H 78.916218 c -35.29671,0 -38.92161,-3.625 -38.92161,-38.99353 V 155.99969 82.99322 c 0,-35.36853 3.6249,-38.99353 38.92161,-38.99353 z"
         id="rect4158-9"
         inkscape:connector-curvature="0"
         sodipodi:nodetypes="scccssscsss" />
    </g>
    <g
       inkscape:groupmode="layer"
       id="layer8"
       inkscape:label="Backgrounds"
       style="display:inline">
      <rect
         rx="10.723779"
         y="44"
         x="40"
         height="224"
         width="224"
         id="rect1383"
         style="display:inline;opacity:1;fill:url(#linearGradient894);fill-opacity:1;fill-rule:evenodd;stroke:none;stroke-width:20.3689;stroke-linejoin:round;stroke-miterlimit:4;stroke-dasharray:none;stroke-opacity:0;paint-order:stroke markers fill;enable-background:new" />
      <rect
         style="display:inline;opacity:1;fill:url(#linearGradient1131);fill-opacity:1;fill-rule:evenodd;stroke:none;stroke-width:19.845;stroke-linejoin:round;stroke-miterlimit:4;stroke-dasharray:none;stroke-opacity:0;paint-order:stroke markers fill;enable-background:new"
         id="rect1129"
         width="218.23833"
         height="218.23831"
         x="42.880829"
         y="46.880859"
         rx="10.447945" />
      <rect
         rx="2.1543305"
         y="61.5"
         x="321.5"
         height="45"
         width="45"
         id="rect1528"
         style="display:inline;opacity:1;fill:url(#linearGradient1534);fill-opacity:1;fill-rule:evenodd;stroke:none;stroke-width:4.09197;stroke-linejoin:round;stroke-miterlimit:4;stroke-dasharray:none;stroke-opacity:0;paint-order:stroke markers fill;enable-background:new" />
      <rect
         style="display:inline;opacity:1;fill:url(#linearGradient1532);fill-opacity:1;fill-rule:evenodd;stroke:none;stroke-width:3.98672;stroke-linejoin:round;stroke-miterlimit:4;stroke-dasharray:none;stroke-opacity:0;paint-order:stroke markers fill;enable-background:new"
         id="rect1530"
         width="43.842522"
         height="43.842518"
         x="322.07874"
         y="62.078743"
         rx="2.0989175" />
      <rect
         rx="1.3883463"
         y="133.49998"
         x="321.5"
         height="29"
         width="29"
         id="rect1536"
         style="display:inline;opacity:1;fill:url(#linearGradient1542);fill-opacity:1;fill-rule:evenodd;stroke:none;stroke-width:2.63705;stroke-linejoin:round;stroke-miterlimit:4;stroke-dasharray:none;stroke-opacity:0;paint-order:stroke markers fill;enable-background:new" />
      <rect
         style="display:inline;opacity:1;fill:url(#linearGradient1540);fill-opacity:1;fill-rule:evenodd;stroke:none;stroke-width:2.56922;stroke-linejoin:round;stroke-miterlimit:4;stroke-dasharray:none;stroke-opacity:0;paint-order:stroke markers fill;enable-background:new"
         id="rect1538"
         width="28.25407"
         height="28.254066"
         x="321.87296"
         y="133.87297"
         rx="1.3526357" />
      <rect
         rx="1.1011022"
         y="188.49998"
         x="320.5"
         height="23"
         width="23"
         id="rect1544"
         style="display:inline;opacity:1;fill:url(#linearGradient1550);fill-opacity:1;fill-rule:evenodd;stroke:none;stroke-width:2.09145;stroke-linejoin:round;stroke-miterlimit:4;stroke-dasharray:none;stroke-opacity:0;paint-order:stroke markers fill;enable-background:new" />
      <rect
         style="display:inline;opacity:1;fill:url(#linearGradient1548);fill-opacity:1;fill-rule:evenodd;stroke:none;stroke-width:2.03766;stroke-linejoin:round;stroke-miterlimit:4;stroke-dasharray:none;stroke-opacity:0;paint-order:stroke markers fill;enable-background:new"
         id="rect1546"
         width="22.408401"
         height="22.408398"
         x="320.79581"
         y="188.79581"
         rx="1.07278" />
      <rect
         rx="0.71811014"
         y="236.49998"
         x="320.49997"
         height="15"
         width="15"
         id="rect1552"
         style="display:inline;opacity:1;fill:url(#linearGradient1558);fill-opacity:1;fill-rule:evenodd;stroke:none;stroke-width:1.36399;stroke-linejoin:round;stroke-miterlimit:4;stroke-dasharray:none;stroke-opacity:0;paint-order:stroke markers fill;enable-background:new" />
      <rect
         style="display:inline;opacity:1;fill:url(#linearGradient1556);fill-opacity:1;fill-rule:evenodd;stroke:none;stroke-width:1.32891;stroke-linejoin:round;stroke-miterlimit:4;stroke-dasharray:none;stroke-opacity:0;paint-order:stroke markers fill;enable-background:new"
         id="rect1554"
         width="14.614175"
         height="14.614172"
         x="320.6929"
         y="236.69292"
         rx="0.69963914" />
    </g>
    <g
       inkscape:groupmode="layer"
       id="layer6"
       inkscape:label="Pictograms and folds"
       style="display:inline">
      <circle
         cy="244"
         cx="328.00015"
         style="color:#000000;display:inline;fill:url(#linearGradient2637);fill-opacity:1;stroke-width:0.0288461;enable-background:accumulate"
         r="5.9999933"
         id="circle2625" />
      <g
         id="g2631"
         transform="matrix(0.03546779,0,0,0.03546771,245.41943,234.97232)"
         style="display:inline;enable-background:new">
        <path
           inkscape:connector-curvature="0"
           style="opacity:0.5;fill:#050505;fill-opacity:1;filter:url(#filter982)"
           d="m 2410.4599,126.20226 -6.45,17.23 c -0.42,1.13 0.01,2.63 0.96,3.36 l 7.59,5.81 c 0.93,0.71 2.52,0.75 3.5,0.05 l 14.96,-10.68 c 0.98,-0.7 2.47,-0.58 3.32,0.28 l 6.27,6.27 c 0.87,0.87 0.98,2.34 0.28,3.32 l -10.68,14.95 c -0.7,0.98 -0.67,2.55 0.06,3.5 l 5.82,7.59 c 0.71,0.93 2.24,1.38 3.36,0.96 l 17.21,-6.45 c 1.13,-0.42 2.53,0.08 3.13,1.13 l 4.43,7.67 c 0.62,1.07 0.34,2.51 -0.59,3.28 l -14.2,11.69 c -0.93,0.77 -1.31,2.29 -0.85,3.39 l 3.65,8.83 c 0.45,1.08 1.8,1.91 3,1.8 l 18.31,-1.78 c 1.2,-0.12 2.43,0.73 2.74,1.9 l 2.29,8.56 c 0.32,1.19 -0.32,2.51 -1.42,3.01 l -16.75,7.62 c -1.1,0.5 -1.86,1.87 -1.7,3.06 l 1.25,9.47 c 0.15,1.16 1.25,2.31 2.44,2.51 l 18.14,3.02 c 1.19,0.2 2.15,1.34 2.15,2.54 v 8.86 c 0,1.23 -0.96,2.35 -2.15,2.54 l -18.12,3.02 c -1.19,0.2 -2.28,1.32 -2.43,2.51 l -1.24,9.48 c -0.15,1.16 0.61,2.56 1.7,3.06 l 16.72,7.61 c 1.09,0.5 1.73,1.85 1.42,3.01 l -2.29,8.56 c -0.32,1.19 -1.54,2.02 -2.74,1.9 l -18.29,-1.77 c -1.2,-0.12 -2.54,0.69 -3,1.8 l -3.67,8.83 c -0.45,1.08 -0.08,2.63 0.85,3.39 l 14.2,11.69 c 0.93,0.77 1.2,2.23 0.59,3.28 l -4.43,7.67 c -0.62,1.07 -2.01,1.55 -3.14,1.13 l -17.23,-6.45 c -1.13,-0.42 -2.63,0.01 -3.36,0.96 l -5.81,7.59 c -0.71,0.93 -0.75,2.52 -0.05,3.5 l 10.68,14.96 c 0.7,0.98 0.58,2.47 -0.28,3.32 l -6.27,6.27 c -0.87,0.87 -2.34,0.98 -3.32,0.28 l -14.95,-10.68 c -0.98,-0.7 -2.55,-0.67 -3.5,0.06 l -7.59,5.82 c -0.93,0.71 -1.38,2.24 -0.96,3.36 l 6.45,17.21 c 0.42,1.13 -0.08,2.53 -1.13,3.13 l -7.67,4.43 c -1.07,0.62 -2.51,0.34 -3.28,-0.59 l -11.69,-14.2 c -0.77,-0.93 -2.29,-1.31 -3.39,-0.85 l -8.83,3.65 c -1.08,0.45 -1.91,1.8 -1.8,3 l 1.78,18.31 c 0.12,1.2 -0.73,2.43 -1.9,2.74 l -8.56,2.29 c -1.19,0.32 -2.51,-0.32 -3.01,-1.42 l -7.62,-16.75 c -0.5,-1.1 -1.87,-1.86 -3.06,-1.7 l -9.47,1.25 c -1.16,0.15 -2.31,1.25 -2.51,2.44 l -3.02,18.14 c -0.2,1.19 -1.34,2.15 -2.54,2.15 h -8.86 c -1.23,0 -2.35,-0.96 -2.54,-2.15 l -3.02,-18.12 c -0.2,-1.19 -1.32,-2.28 -2.51,-2.43 l -9.48,-1.24 c -1.16,-0.15 -2.56,0.61 -3.06,1.7 l -7.61,16.72 c -0.5,1.09 -1.85,1.73 -3.01,1.42 l -8.56,-2.29 c -1.19,-0.32 -2.02,-1.54 -1.9,-2.74 l 1.77,-18.29 c 0.12,-1.2 -0.69,-2.54 -1.8,-3 l -8.83,-3.67 c -1.08,-0.45 -2.63,-0.08 -3.39,0.85 l -11.69,14.2 c -0.77,0.93 -2.23,1.2 -3.28,0.59 l -7.67,-4.43 c -1.07,-0.62 -1.55,-2.01 -1.13,-3.14 l 6.45,-17.23 c 0.42,-1.13 -0.01,-2.63 -0.96,-3.36 l -7.59,-5.81 c -0.93,-0.71 -2.52,-0.75 -3.5,-0.05 l -14.96,10.68 c -0.98,0.7 -2.47,0.58 -3.32,-0.28 l -6.27,-6.27 c -0.87,-0.87 -0.98,-2.34 -0.28,-3.32 l 10.68,-14.95 c 0.7,-0.98 0.67,-2.55 -0.06,-3.5 l -5.82,-7.59 c -0.71,-0.93 -2.24,-1.38 -3.36,-0.96 l -17.21,6.45 c -1.13,0.42 -2.53,-0.08 -3.13,-1.13 l -4.43,-7.67 c -0.62,-1.07 -0.34,-2.51 0.59,-3.28 l 14.2,-11.69 c 0.93,-0.77 1.31,-2.29 0.85,-3.39 l -3.65,-8.83 c -0.45,-1.08 -1.8,-1.91 -3,-1.8 l -18.31,1.78 c -1.2,0.12 -2.43,-0.73 -2.74,-1.9 l -2.29,-8.56 c -0.32,-1.19 0.32,-2.51 1.42,-3.01 l 16.75,-7.62 c 1.1,-0.5 1.86,-1.87 1.7,-3.06 l -1.25,-9.47 c -0.15,-1.16 -1.25,-2.31 -2.44,-2.51 l -18.14,-3.02 c -1.19,-0.2 -2.15,-1.34 -2.15,-2.54 v -8.86 c 0,-1.23 0.96,-2.35 2.15,-2.54 l 18.12,-3.02 c 1.19,-0.2 2.28,-1.32 2.43,-2.51 l 1.24,-9.48 c 0.15,-1.16 -0.61,-2.56 -1.7,-3.06 l -16.72,-7.61 c -1.09,-0.5 -1.73,-1.85 -1.42,-3.01 l 2.29,-8.56 c 0.32,-1.19 1.54,-2.02 2.74,-1.9 l 18.29,1.77 c 1.2,0.12 2.54,-0.69 3,-1.8 l 3.67,-8.83 c 0.45,-1.08 0.08,-2.63 -0.85,-3.39 l -14.2,-11.69 c -0.93,-0.77 -1.2,-2.23 -0.59,-3.28 l 4.43,-7.67 c 0.62,-1.07 2.01,-1.55 3.14,-1.13 l 17.23,6.45 c 1.13,0.42 2.63,-0.01 3.36,-0.96 l 5.81,-7.59 c 0.71,-0.93 0.75,-2.52 0.05,-3.5 l -10.68,-14.96 c -0.7,-0.98 -0.58,-2.47 0.28,-3.32 l 6.27,-6.27 c 0.87,-0.87 2.34,-0.98 3.32,-0.28 l 14.95,10.68 c 0.98,0.7 2.55,0.67 3.5,-0.06 l 7.59,-5.82 c 0.93,-0.71 1.38,-2.24 0.96,-3.36 l -6.45,-17.21 c -0.42,-1.13 0.08,-2.53 1.13,-3.13 l 7.67,-4.43 c 1.07,-0.62 2.51,-0.34 3.28,0.59 l 11.69,14.2 c 0.77,0.93 2.29,1.31 3.39,0.85 l 8.83,-3.65 c 1.08,-0.45 1.91,-1.8 1.8,-3 l -1.78,-18.31 c -0.12,-1.2 0.73,-2.43 1.9,-2.74 l 8.56,-2.29 c 1.19,-0.32 2.51,0.32 3.01,1.42 l 7.62,16.75 c 0.5,1.1 1.87,1.86 3.06,1.7 l 9.47,-1.25 c 1.16,-0.15 2.31,-1.25 2.51,-2.44 l 3.02,-18.14 c 0.2,-1.19 1.34,-2.15 2.54,-2.15 h 8.86 c 1.23,0 2.35,0.96 2.54,2.15 l 3.02,18.12 c 0.2,1.19 1.32,2.28 2.51,2.43 l 9.48,1.24 c 1.16,0.15 2.56,-0.61 3.06,-1.7 l 7.61,-16.72 c 0.5,-1.09 1.85,-1.73 3.01,-1.42 l 8.56,2.29 c 1.19,0.32 2.02,1.54 1.9,2.74 l -1.77,18.29 c -0.12,1.2 0.69,2.54 1.8,3 l 8.83,3.67 c 1.08,0.45 2.63,0.08 3.39,-0.85 l 11.69,-14.2 c 0.77,-0.93 2.23,-1.2 3.28,-0.59 l 7.67,4.43 c 1.07,0.62 1.55,2.01 1.13,3.14 z m -29.36,36.71 c -24.86,-14.36 -53.13,-17.48 -78.92,-10.94 -4.97,1.26 -2.05,0.57 -2.05,0.57 -6.92,2.36 -9.68,9.49 -6.19,15.85 0,0 -2.01,-3.67 0.16,0.28 10.34,18.87 31.04,56.63 31.04,56.63 4.68,8.54 16.37,15.3 26.12,15.1 0,0 45.86,-0.95 68.8,-1.43 4.26,-0.09 0,0 0,0 7.06,-0.15 11.65,-6.09 10.11,-12.74 -7.16,-25.78 -24.05,-48.88 -49.06,-63.32 z m -1.73,184.17 c 25.11,-13.92 42.34,-36.54 50.02,-62.02 1.48,-4.91 0.57,-2.05 0.57,-2.05 1.54,-7.15 -3.15,-13.18 -10.4,-13.47 0,0 4.18,0.17 -0.32,-0.01 -21.5,-0.85 -64.52,-2.56 -64.52,-2.56 -9.73,-0.39 -21.55,6.15 -26.4,14.61 0,0 -22.8,39.8 -34.21,59.71 -2.12,3.7 0,0 0,0 -3.51,6.13 -0.77,13.12 5.72,15.23 0,0 -4.1,-1.14 0,0 25.79,7.14 54.29,4.56 79.54,-9.44 z m -125.19,-16.85 c 5.07,4.57 12.5,3.44 16.05,-2.67 0,0 -2.14,3.68 0,0 11.54,-19.83 34.6,-59.48 34.6,-59.48 4.9,-8.43 4.66,-21.93 -0.54,-30.17 0,0 -22.99,-36.41 -34.48,-54.6 -2.41,-3.81 -0.17,-0.27 -0.17,-0.27 -3.87,-6.13 -11.44,-7.18 -16.86,-2.27 0,0 2.02,-2.22 -1.49,1.52 -18.22,19.39 -29.2,45.62 -28.7,74.33 0.5,28.87 12.52,54.84 31.6,73.6 z"
           class="shp86"
           id="path2627" />
        <path
           id="path2629"
           class="shp86"
           d="m 2410.4599,123.37078 -6.45,17.23 c -0.42,1.13 0.01,2.63 0.96,3.36 l 7.59,5.81 c 0.93,0.71 2.52,0.75 3.5,0.05 l 14.96,-10.68 c 0.98,-0.7 2.47,-0.58 3.32,0.28 l 6.27,6.27 c 0.87,0.87 0.98,2.34 0.28,3.32 l -10.68,14.95 c -0.7,0.98 -0.67,2.55 0.06,3.5 l 5.82,7.59 c 0.71,0.93 2.24,1.38 3.36,0.96 l 17.21,-6.45 c 1.13,-0.42 2.53,0.08 3.13,1.13 l 4.43,7.67 c 0.62,1.07 0.34,2.51 -0.59,3.28 l -14.2,11.69 c -0.93,0.77 -1.31,2.29 -0.85,3.39 l 3.65,8.83 c 0.45,1.08 1.8,1.91 3,1.8 l 18.31,-1.78 c 1.2,-0.12 2.43,0.73 2.74,1.9 l 2.29,8.56 c 0.32,1.19 -0.32,2.51 -1.42,3.01 l -16.75,7.62 c -1.1,0.5 -1.86,1.87 -1.7,3.06 l 1.25,9.47 c 0.15,1.16 1.25,2.31 2.44,2.51 l 18.14,3.02 c 1.19,0.2 2.15,1.34 2.15,2.54 v 8.86 c 0,1.23 -0.96,2.35 -2.15,2.54 l -18.12,3.02 c -1.19,0.2 -2.28,1.32 -2.43,2.51 l -1.24,9.48 c -0.15,1.16 0.61,2.56 1.7,3.06 l 16.72,7.61 c 1.09,0.5 1.73,1.85 1.42,3.01 l -2.29,8.56 c -0.32,1.19 -1.54,2.02 -2.74,1.9 l -18.29,-1.77 c -1.2,-0.12 -2.54,0.69 -3,1.8 l -3.67,8.83 c -0.45,1.08 -0.08,2.63 0.85,3.39 l 14.2,11.69 c 0.93,0.77 1.2,2.23 0.59,3.28 l -4.43,7.67 c -0.62,1.07 -2.01,1.55 -3.14,1.13 l -17.23,-6.45 c -1.13,-0.42 -2.63,0.01 -3.36,0.96 l -5.81,7.59 c -0.71,0.93 -0.75,2.52 -0.05,3.5 l 10.68,14.96 c 0.7,0.98 0.58,2.47 -0.28,3.32 l -6.27,6.27 c -0.87,0.87 -2.34,0.98 -3.32,0.28 l -14.95,-10.68 c -0.98,-0.7 -2.55,-0.67 -3.5,0.06 l -7.59,5.82 c -0.93,0.71 -1.38,2.24 -0.96,3.36 l 6.45,17.21 c 0.42,1.13 -0.08,2.53 -1.13,3.13 l -7.67,4.43 c -1.07,0.62 -2.51,0.34 -3.28,-0.59 l -11.69,-14.2 c -0.77,-0.93 -2.29,-1.31 -3.39,-0.85 l -8.83,3.65 c -1.08,0.45 -1.91,1.8 -1.8,3 l 1.78,18.31 c 0.12,1.2 -0.73,2.43 -1.9,2.74 l -8.56,2.29 c -1.19,0.32 -2.51,-0.32 -3.01,-1.42 l -7.62,-16.75 c -0.5,-1.1 -1.87,-1.86 -3.06,-1.7 l -9.47,1.25 c -1.16,0.15 -2.31,1.25 -2.51,2.44 l -3.02,18.14 c -0.2,1.19 -1.34,2.15 -2.54,2.15 h -8.86 c -1.23,0 -2.35,-0.96 -2.54,-2.15 l -3.02,-18.12 c -0.2,-1.19 -1.32,-2.28 -2.51,-2.43 l -9.48,-1.24 c -1.16,-0.15 -2.56,0.61 -3.06,1.7 l -7.61,16.72 c -0.5,1.09 -1.85,1.73 -3.01,1.42 l -8.56,-2.29 c -1.19,-0.32 -2.02,-1.54 -1.9,-2.74 l 1.77,-18.29 c 0.12,-1.2 -0.69,-2.54 -1.8,-3 l -8.83,-3.67 c -1.08,-0.45 -2.63,-0.08 -3.39,0.85 l -11.69,14.2 c -0.77,0.93 -2.23,1.2 -3.28,0.59 l -7.67,-4.43 c -1.07,-0.62 -1.55,-2.01 -1.13,-3.14 l 6.45,-17.23 c 0.42,-1.13 -0.01,-2.63 -0.96,-3.36 l -7.59,-5.81 c -0.93,-0.71 -2.52,-0.75 -3.5,-0.05 l -14.96,10.68 c -0.98,0.7 -2.47,0.58 -3.32,-0.28 l -6.27,-6.27 c -0.87,-0.87 -0.98,-2.34 -0.28,-3.32 l 10.68,-14.95 c 0.7,-0.98 0.67,-2.55 -0.06,-3.5 l -5.82,-7.59 c -0.71,-0.93 -2.24,-1.38 -3.36,-0.96 l -17.21,6.45 c -1.13,0.42 -2.53,-0.08 -3.13,-1.13 l -4.43,-7.67 c -0.62,-1.07 -0.34,-2.51 0.59,-3.28 l 14.2,-11.69 c 0.93,-0.77 1.31,-2.29 0.85,-3.39 l -3.65,-8.83 c -0.45,-1.08 -1.8,-1.91 -3,-1.8 l -18.31,1.78 c -1.2,0.12 -2.43,-0.73 -2.74,-1.9 l -2.29,-8.56 c -0.32,-1.19 0.32,-2.51 1.42,-3.01 l 16.75,-7.62 c 1.1,-0.5 1.86,-1.87 1.7,-3.06 l -1.25,-9.47 c -0.15,-1.16 -1.25,-2.31 -2.44,-2.51 l -18.14,-3.02 c -1.19,-0.2 -2.15,-1.34 -2.15,-2.54 v -8.86 c 0,-1.23 0.96,-2.35 2.15,-2.54 l 18.12,-3.02 c 1.19,-0.2 2.28,-1.32 2.43,-2.51 l 1.24,-9.48 c 0.15,-1.16 -0.61,-2.56 -1.7,-3.06 l -16.72,-7.61 c -1.09,-0.5 -1.73,-1.85 -1.42,-3.01 l 2.29,-8.56 c 0.32,-1.19 1.54,-2.02 2.74,-1.9 l 18.29,1.77 c 1.2,0.12 2.54,-0.69 3,-1.8 l 3.67,-8.83 c 0.45,-1.08 0.08,-2.63 -0.85,-3.39 l -14.2,-11.69 c -0.93,-0.77 -1.2,-2.23 -0.59,-3.28 l 4.43,-7.67 c 0.62,-1.07 2.01,-1.55 3.14,-1.13 l 17.23,6.45 c 1.13,0.42 2.63,-0.01 3.36,-0.96 l 5.81,-7.59 c 0.71,-0.93 0.75,-2.52 0.05,-3.5 l -10.68,-14.96 c -0.7,-0.98 -0.58,-2.47 0.28,-3.32 l 6.27,-6.27 c 0.87,-0.87 2.34,-0.98 3.32,-0.28 l 14.95,10.68 c 0.98,0.7 2.55,0.67 3.5,-0.06 l 7.59,-5.82 c 0.93,-0.71 1.38,-2.24 0.96,-3.36 l -6.45,-17.21 c -0.42,-1.13 0.08,-2.53 1.13,-3.13 l 7.67,-4.43 c 1.07,-0.62 2.51,-0.34 3.28,0.59 l 11.69,14.2 c 0.77,0.93 2.29,1.31 3.39,0.85 l 8.83,-3.65 c 1.08,-0.45 1.91,-1.8 1.8,-3 l -1.78,-18.30999 c -0.12,-1.2 0.73,-2.43 1.9,-2.74 l 8.56,-2.29 c 1.19,-0.32 2.51,0.32 3.01,1.42 l 7.62,16.74999 c 0.5,1.1 1.87,1.86 3.06,1.7 l 9.47,-1.25 c 1.16,-0.15 2.31,-1.25 2.51,-2.44 l 3.02,-18.139993 c 0.2,-1.19 1.34,-2.15 2.54,-2.15 h 8.86 c 1.23,0 2.35,0.96 2.54,2.15 l 3.02,18.119993 c 0.2,1.19 1.32,2.28 2.51,2.43 l 9.48,1.24 c 1.16,0.15 2.56,-0.61 3.06,-1.7 l 7.61,-16.71999 c 0.5,-1.09 1.85,-1.73 3.01,-1.42 l 8.56,2.29 c 1.19,0.32 2.02,1.54 1.9,2.74 l -1.77,18.28999 c -0.12,1.2 0.69,2.54 1.8,3 l 8.83,3.67 c 1.08,0.45 2.63,0.08 3.39,-0.85 l 11.69,-14.2 c 0.77,-0.93 2.23,-1.2 3.28,-0.59 l 7.67,4.43 c 1.07,0.62 1.55,2.01 1.13,3.14 z m -29.36,36.71 c -24.86,-14.36 -53.13,-17.48 -78.92,-10.94 -4.97,1.26 -2.05,0.57 -2.05,0.57 -6.92,2.36 -9.68,9.49 -6.19,15.85 0,0 -2.01,-3.67 0.16,0.28 10.34,18.87 31.04,56.63 31.04,56.63 4.68,8.54 16.37,15.3 26.12,15.1 0,0 45.86,-0.95 68.8,-1.43 4.26,-0.09 0,0 0,0 7.06,-0.15 11.65,-6.09 10.11,-12.74 -7.16,-25.78 -24.05,-48.88 -49.06,-63.32 z m -1.73,184.17 c 25.11,-13.92 42.34,-36.54 50.02,-62.02 1.48,-4.91 0.57,-2.05 0.57,-2.05 1.54,-7.15 -3.15,-13.18 -10.4,-13.47 0,0 4.18,0.17 -0.32,-0.01 -21.5,-0.85 -64.52,-2.56 -64.52,-2.56 -9.73,-0.39 -21.55,6.15 -26.4,14.61 0,0 -22.8,39.8 -34.21,59.71 -2.12,3.7 0,0 0,0 -3.51,6.13 -0.77,13.12 5.72,15.23 0,0 -4.1,-1.14 0,0 25.79,7.14 54.29,4.56 79.54,-9.44 z m -125.19,-16.85 c 5.07,4.57 12.5,3.44 16.05,-2.67 0,0 -2.14,3.68 0,0 11.54,-19.83 34.6,-59.48 34.6,-59.48 4.9,-8.43 4.66,-21.93 -0.54,-30.17 0,0 -22.99,-36.41 -34.48,-54.6 -2.41,-3.81 -0.17,-0.27 -0.17,-0.27 -3.87,-6.13 -11.44,-7.18 -16.86,-2.27 0,0 2.02,-2.22 -1.49,1.52 -18.22,19.39 -29.2,45.62 -28.7,74.33 0.5,28.87 12.52,54.84 31.6,73.6 z"
           style="fill:url(#linearGradient2639);fill-opacity:1"
           inkscape:connector-curvature="0" />
      </g>
      <circle
         cy="200.00031"
         cx="332.00024"
         style="color:#000000;display:inline;fill:url(#linearGradient1933);fill-opacity:1;stroke-width:0.0480768;enable-background:accumulate"
         r="9.9999886"
         id="circle1921" />
      <g
         id="g1927"
         transform="matrix(0.05911298,0,0,0.05911284,194.36574,184.95419)"
         style="display:inline;enable-background:new">
        <path
           inkscape:connector-curvature="0"
           style="opacity:0.5;fill:#050505;fill-opacity:1;filter:url(#filter982)"
           d="m 2410.4599,126.20226 -6.45,17.23 c -0.42,1.13 0.01,2.63 0.96,3.36 l 7.59,5.81 c 0.93,0.71 2.52,0.75 3.5,0.05 l 14.96,-10.68 c 0.98,-0.7 2.47,-0.58 3.32,0.28 l 6.27,6.27 c 0.87,0.87 0.98,2.34 0.28,3.32 l -10.68,14.95 c -0.7,0.98 -0.67,2.55 0.06,3.5 l 5.82,7.59 c 0.71,0.93 2.24,1.38 3.36,0.96 l 17.21,-6.45 c 1.13,-0.42 2.53,0.08 3.13,1.13 l 4.43,7.67 c 0.62,1.07 0.34,2.51 -0.59,3.28 l -14.2,11.69 c -0.93,0.77 -1.31,2.29 -0.85,3.39 l 3.65,8.83 c 0.45,1.08 1.8,1.91 3,1.8 l 18.31,-1.78 c 1.2,-0.12 2.43,0.73 2.74,1.9 l 2.29,8.56 c 0.32,1.19 -0.32,2.51 -1.42,3.01 l -16.75,7.62 c -1.1,0.5 -1.86,1.87 -1.7,3.06 l 1.25,9.47 c 0.15,1.16 1.25,2.31 2.44,2.51 l 18.14,3.02 c 1.19,0.2 2.15,1.34 2.15,2.54 v 8.86 c 0,1.23 -0.96,2.35 -2.15,2.54 l -18.12,3.02 c -1.19,0.2 -2.28,1.32 -2.43,2.51 l -1.24,9.48 c -0.15,1.16 0.61,2.56 1.7,3.06 l 16.72,7.61 c 1.09,0.5 1.73,1.85 1.42,3.01 l -2.29,8.56 c -0.32,1.19 -1.54,2.02 -2.74,1.9 l -18.29,-1.77 c -1.2,-0.12 -2.54,0.69 -3,1.8 l -3.67,8.83 c -0.45,1.08 -0.08,2.63 0.85,3.39 l 14.2,11.69 c 0.93,0.77 1.2,2.23 0.59,3.28 l -4.43,7.67 c -0.62,1.07 -2.01,1.55 -3.14,1.13 l -17.23,-6.45 c -1.13,-0.42 -2.63,0.01 -3.36,0.96 l -5.81,7.59 c -0.71,0.93 -0.75,2.52 -0.05,3.5 l 10.68,14.96 c 0.7,0.98 0.58,2.47 -0.28,3.32 l -6.27,6.27 c -0.87,0.87 -2.34,0.98 -3.32,0.28 l -14.95,-10.68 c -0.98,-0.7 -2.55,-0.67 -3.5,0.06 l -7.59,5.82 c -0.93,0.71 -1.38,2.24 -0.96,3.36 l 6.45,17.21 c 0.42,1.13 -0.08,2.53 -1.13,3.13 l -7.67,4.43 c -1.07,0.62 -2.51,0.34 -3.28,-0.59 l -11.69,-14.2 c -0.77,-0.93 -2.29,-1.31 -3.39,-0.85 l -8.83,3.65 c -1.08,0.45 -1.91,1.8 -1.8,3 l 1.78,18.31 c 0.12,1.2 -0.73,2.43 -1.9,2.74 l -8.56,2.29 c -1.19,0.32 -2.51,-0.32 -3.01,-1.42 l -7.62,-16.75 c -0.5,-1.1 -1.87,-1.86 -3.06,-1.7 l -9.47,1.25 c -1.16,0.15 -2.31,1.25 -2.51,2.44 l -3.02,18.14 c -0.2,1.19 -1.34,2.15 -2.54,2.15 h -8.86 c -1.23,0 -2.35,-0.96 -2.54,-2.15 l -3.02,-18.12 c -0.2,-1.19 -1.32,-2.28 -2.51,-2.43 l -9.48,-1.24 c -1.16,-0.15 -2.56,0.61 -3.06,1.7 l -7.61,16.72 c -0.5,1.09 -1.85,1.73 -3.01,1.42 l -8.56,-2.29 c -1.19,-0.32 -2.02,-1.54 -1.9,-2.74 l 1.77,-18.29 c 0.12,-1.2 -0.69,-2.54 -1.8,-3 l -8.83,-3.67 c -1.08,-0.45 -2.63,-0.08 -3.39,0.85 l -11.69,14.2 c -0.77,0.93 -2.23,1.2 -3.28,0.59 l -7.67,-4.43 c -1.07,-0.62 -1.55,-2.01 -1.13,-3.14 l 6.45,-17.23 c 0.42,-1.13 -0.01,-2.63 -0.96,-3.36 l -7.59,-5.81 c -0.93,-0.71 -2.52,-0.75 -3.5,-0.05 l -14.96,10.68 c -0.98,0.7 -2.47,0.58 -3.32,-0.28 l -6.27,-6.27 c -0.87,-0.87 -0.98,-2.34 -0.28,-3.32 l 10.68,-14.95 c 0.7,-0.98 0.67,-2.55 -0.06,-3.5 l -5.82,-7.59 c -0.71,-0.93 -2.24,-1.38 -3.36,-0.96 l -17.21,6.45 c -1.13,0.42 -2.53,-0.08 -3.13,-1.13 l -4.43,-7.67 c -0.62,-1.07 -0.34,-2.51 0.59,-3.28 l 14.2,-11.69 c 0.93,-0.77 1.31,-2.29 0.85,-3.39 l -3.65,-8.83 c -0.45,-1.08 -1.8,-1.91 -3,-1.8 l -18.31,1.78 c -1.2,0.12 -2.43,-0.73 -2.74,-1.9 l -2.29,-8.56 c -0.32,-1.19 0.32,-2.51 1.42,-3.01 l 16.75,-7.62 c 1.1,-0.5 1.86,-1.87 1.7,-3.06 l -1.25,-9.47 c -0.15,-1.16 -1.25,-2.31 -2.44,-2.51 l -18.14,-3.02 c -1.19,-0.2 -2.15,-1.34 -2.15,-2.54 v -8.86 c 0,-1.23 0.96,-2.35 2.15,-2.54 l 18.12,-3.02 c 1.19,-0.2 2.28,-1.32 2.43,-2.51 l 1.24,-9.48 c 0.15,-1.16 -0.61,-2.56 -1.7,-3.06 l -16.72,-7.61 c -1.09,-0.5 -1.73,-1.85 -1.42,-3.01 l 2.29,-8.56 c 0.32,-1.19 1.54,-2.02 2.74,-1.9 l 18.29,1.77 c 1.2,0.12 2.54,-0.69 3,-1.8 l 3.67,-8.83 c 0.45,-1.08 0.08,-2.63 -0.85,-3.39 l -14.2,-11.69 c -0.93,-0.77 -1.2,-2.23 -0.59,-3.28 l 4.43,-7.67 c 0.62,-1.07 2.01,-1.55 3.14,-1.13 l 17.23,6.45 c 1.13,0.42 2.63,-0.01 3.36,-0.96 l 5.81,-7.59 c 0.71,-0.93 0.75,-2.52 0.05,-3.5 l -10.68,-14.96 c -0.7,-0.98 -0.58,-2.47 0.28,-3.32 l 6.27,-6.27 c 0.87,-0.87 2.34,-0.98 3.32,-0.28 l 14.95,10.68 c 0.98,0.7 2.55,0.67 3.5,-0.06 l 7.59,-5.82 c 0.93,-0.71 1.38,-2.24 0.96,-3.36 l -6.45,-17.21 c -0.42,-1.13 0.08,-2.53 1.13,-3.13 l 7.67,-4.43 c 1.07,-0.62 2.51,-0.34 3.28,0.59 l 11.69,14.2 c 0.77,0.93 2.29,1.31 3.39,0.85 l 8.83,-3.65 c 1.08,-0.45 1.91,-1.8 1.8,-3 l -1.78,-18.31 c -0.12,-1.2 0.73,-2.43 1.9,-2.74 l 8.56,-2.29 c 1.19,-0.32 2.51,0.32 3.01,1.42 l 7.62,16.75 c 0.5,1.1 1.87,1.86 3.06,1.7 l 9.47,-1.25 c 1.16,-0.15 2.31,-1.25 2.51,-2.44 l 3.02,-18.14 c 0.2,-1.19 1.34,-2.15 2.54,-2.15 h 8.86 c 1.23,0 2.35,0.96 2.54,2.15 l 3.02,18.12 c 0.2,1.19 1.32,2.28 2.51,2.43 l 9.48,1.24 c 1.16,0.15 2.56,-0.61 3.06,-1.7 l 7.61,-16.72 c 0.5,-1.09 1.85,-1.73 3.01,-1.42 l 8.56,2.29 c 1.19,0.32 2.02,1.54 1.9,2.74 l -1.77,18.29 c -0.12,1.2 0.69,2.54 1.8,3 l 8.83,3.67 c 1.08,0.45 2.63,0.08 3.39,-0.85 l 11.69,-14.2 c 0.77,-0.93 2.23,-1.2 3.28,-0.59 l 7.67,4.43 c 1.07,0.62 1.55,2.01 1.13,3.14 z m -29.36,36.71 c -24.86,-14.36 -53.13,-17.48 -78.92,-10.94 -4.97,1.26 -2.05,0.57 -2.05,0.57 -6.92,2.36 -9.68,9.49 -6.19,15.85 0,0 -2.01,-3.67 0.16,0.28 10.34,18.87 31.04,56.63 31.04,56.63 4.68,8.54 16.37,15.3 26.12,15.1 0,0 45.86,-0.95 68.8,-1.43 4.26,-0.09 0,0 0,0 7.06,-0.15 11.65,-6.09 10.11,-12.74 -7.16,-25.78 -24.05,-48.88 -49.06,-63.32 z m -1.73,184.17 c 25.11,-13.92 42.34,-36.54 50.02,-62.02 1.48,-4.91 0.57,-2.05 0.57,-2.05 1.54,-7.15 -3.15,-13.18 -10.4,-13.47 0,0 4.18,0.17 -0.32,-0.01 -21.5,-0.85 -64.52,-2.56 -64.52,-2.56 -9.73,-0.39 -21.55,6.15 -26.4,14.61 0,0 -22.8,39.8 -34.21,59.71 -2.12,3.7 0,0 0,0 -3.51,6.13 -0.77,13.12 5.72,15.23 0,0 -4.1,-1.14 0,0 25.79,7.14 54.29,4.56 79.54,-9.44 z m -125.19,-16.85 c 5.07,4.57 12.5,3.44 16.05,-2.67 0,0 -2.14,3.68 0,0 11.54,-19.83 34.6,-59.48 34.6,-59.48 4.9,-8.43 4.66,-21.93 -0.54,-30.17 0,0 -22.99,-36.41 -34.48,-54.6 -2.41,-3.81 -0.17,-0.27 -0.17,-0.27 -3.87,-6.13 -11.44,-7.18 -16.86,-2.27 0,0 2.02,-2.22 -1.49,1.52 -18.22,19.39 -29.2,45.62 -28.7,74.33 0.5,28.87 12.52,54.84 31.6,73.6 z"
           class="shp86"
           id="path1923" />
        <path
           id="path1925"
           class="shp86"
           d="m 2410.4599,123.37078 -6.45,17.23 c -0.42,1.13 0.01,2.63 0.96,3.36 l 7.59,5.81 c 0.93,0.71 2.52,0.75 3.5,0.05 l 14.96,-10.68 c 0.98,-0.7 2.47,-0.58 3.32,0.28 l 6.27,6.27 c 0.87,0.87 0.98,2.34 0.28,3.32 l -10.68,14.95 c -0.7,0.98 -0.67,2.55 0.06,3.5 l 5.82,7.59 c 0.71,0.93 2.24,1.38 3.36,0.96 l 17.21,-6.45 c 1.13,-0.42 2.53,0.08 3.13,1.13 l 4.43,7.67 c 0.62,1.07 0.34,2.51 -0.59,3.28 l -14.2,11.69 c -0.93,0.77 -1.31,2.29 -0.85,3.39 l 3.65,8.83 c 0.45,1.08 1.8,1.91 3,1.8 l 18.31,-1.78 c 1.2,-0.12 2.43,0.73 2.74,1.9 l 2.29,8.56 c 0.32,1.19 -0.32,2.51 -1.42,3.01 l -16.75,7.62 c -1.1,0.5 -1.86,1.87 -1.7,3.06 l 1.25,9.47 c 0.15,1.16 1.25,2.31 2.44,2.51 l 18.14,3.02 c 1.19,0.2 2.15,1.34 2.15,2.54 v 8.86 c 0,1.23 -0.96,2.35 -2.15,2.54 l -18.12,3.02 c -1.19,0.2 -2.28,1.32 -2.43,2.51 l -1.24,9.48 c -0.15,1.16 0.61,2.56 1.7,3.06 l 16.72,7.61 c 1.09,0.5 1.73,1.85 1.42,3.01 l -2.29,8.56 c -0.32,1.19 -1.54,2.02 -2.74,1.9 l -18.29,-1.77 c -1.2,-0.12 -2.54,0.69 -3,1.8 l -3.67,8.83 c -0.45,1.08 -0.08,2.63 0.85,3.39 l 14.2,11.69 c 0.93,0.77 1.2,2.23 0.59,3.28 l -4.43,7.67 c -0.62,1.07 -2.01,1.55 -3.14,1.13 l -17.23,-6.45 c -1.13,-0.42 -2.63,0.01 -3.36,0.96 l -5.81,7.59 c -0.71,0.93 -0.75,2.52 -0.05,3.5 l 10.68,14.96 c 0.7,0.98 0.58,2.47 -0.28,3.32 l -6.27,6.27 c -0.87,0.87 -2.34,0.98 -3.32,0.28 l -14.95,-10.68 c -0.98,-0.7 -2.55,-0.67 -3.5,0.06 l -7.59,5.82 c -0.93,0.71 -1.38,2.24 -0.96,3.36 l 6.45,17.21 c 0.42,1.13 -0.08,2.53 -1.13,3.13 l -7.67,4.43 c -1.07,0.62 -2.51,0.34 -3.28,-0.59 l -11.69,-14.2 c -0.77,-0.93 -2.29,-1.31 -3.39,-0.85 l -8.83,3.65 c -1.08,0.45 -1.91,1.8 -1.8,3 l 1.78,18.31 c 0.12,1.2 -0.73,2.43 -1.9,2.74 l -8.56,2.29 c -1.19,0.32 -2.51,-0.32 -3.01,-1.42 l -7.62,-16.75 c -0.5,-1.1 -1.87,-1.86 -3.06,-1.7 l -9.47,1.25 c -1.16,0.15 -2.31,1.25 -2.51,2.44 l -3.02,18.14 c -0.2,1.19 -1.34,2.15 -2.54,2.15 h -8.86 c -1.23,0 -2.35,-0.96 -2.54,-2.15 l -3.02,-18.12 c -0.2,-1.19 -1.32,-2.28 -2.51,-2.43 l -9.48,-1.24 c -1.16,-0.15 -2.56,0.61 -3.06,1.7 l -7.61,16.72 c -0.5,1.09 -1.85,1.73 -3.01,1.42 l -8.56,-2.29 c -1.19,-0.32 -2.02,-1.54 -1.9,-2.74 l 1.77,-18.29 c 0.12,-1.2 -0.69,-2.54 -1.8,-3 l -8.83,-3.67 c -1.08,-0.45 -2.63,-0.08 -3.39,0.85 l -11.69,14.2 c -0.77,0.93 -2.23,1.2 -3.28,0.59 l -7.67,-4.43 c -1.07,-0.62 -1.55,-2.01 -1.13,-3.14 l 6.45,-17.23 c 0.42,-1.13 -0.01,-2.63 -0.96,-3.36 l -7.59,-5.81 c -0.93,-0.71 -2.52,-0.75 -3.5,-0.05 l -14.96,10.68 c -0.98,0.7 -2.47,0.58 -3.32,-0.28 l -6.27,-6.27 c -0.87,-0.87 -0.98,-2.34 -0.28,-3.32 l 10.68,-14.95 c 0.7,-0.98 0.67,-2.55 -0.06,-3.5 l -5.82,-7.59 c -0.71,-0.93 -2.24,-1.38 -3.36,-0.96 l -17.21,6.45 c -1.13,0.42 -2.53,-0.08 -3.13,-1.13 l -4.43,-7.67 c -0.62,-1.07 -0.34,-2.51 0.59,-3.28 l 14.2,-11.69 c 0.93,-0.77 1.31,-2.29 0.85,-3.39 l -3.65,-8.83 c -0.45,-1.08 -1.8,-1.91 -3,-1.8 l -18.31,1.78 c -1.2,0.12 -2.43,-0.73 -2.74,-1.9 l -2.29,-8.56 c -0.32,-1.19 0.32,-2.51 1.42,-3.01 l 16.75,-7.62 c 1.1,-0.5 1.86,-1.87 1.7,-3.06 l -1.25,-9.47 c -0.15,-1.16 -1.25,-2.31 -2.44,-2.51 l -18.14,-3.02 c -1.19,-0.2 -2.15,-1.34 -2.15,-2.54 v -8.86 c 0,-1.23 0.96,-2.35 2.15,-2.54 l 18.12,-3.02 c 1.19,-0.2 2.28,-1.32 2.43,-2.51 l 1.24,-9.48 c 0.15,-1.16 -0.61,-2.56 -1.7,-3.06 l -16.72,-7.61 c -1.09,-0.5 -1.73,-1.85 -1.42,-3.01 l 2.29,-8.56 c 0.32,-1.19 1.54,-2.02 2.74,-1.9 l 18.29,1.77 c 1.2,0.12 2.54,-0.69 3,-1.8 l 3.67,-8.83 c 0.45,-1.08 0.08,-2.63 -0.85,-3.39 l -14.2,-11.69 c -0.93,-0.77 -1.2,-2.23 -0.59,-3.28 l 4.43,-7.67 c 0.62,-1.07 2.01,-1.55 3.14,-1.13 l 17.23,6.45 c 1.13,0.42 2.63,-0.01 3.36,-0.96 l 5.81,-7.59 c 0.71,-0.93 0.75,-2.52 0.05,-3.5 l -10.68,-14.96 c -0.7,-0.98 -0.58,-2.47 0.28,-3.32 l 6.27,-6.27 c 0.87,-0.87 2.34,-0.98 3.32,-0.28 l 14.95,10.68 c 0.98,0.7 2.55,0.67 3.5,-0.06 l 7.59,-5.82 c 0.93,-0.71 1.38,-2.24 0.96,-3.36 l -6.45,-17.21 c -0.42,-1.13 0.08,-2.53 1.13,-3.13 l 7.67,-4.43 c 1.07,-0.62 2.51,-0.34 3.28,0.59 l 11.69,14.2 c 0.77,0.93 2.29,1.31 3.39,0.85 l 8.83,-3.65 c 1.08,-0.45 1.91,-1.8 1.8,-3 l -1.78,-18.30999 c -0.12,-1.2 0.73,-2.43 1.9,-2.74 l 8.56,-2.29 c 1.19,-0.32 2.51,0.32 3.01,1.42 l 7.62,16.74999 c 0.5,1.1 1.87,1.86 3.06,1.7 l 9.47,-1.25 c 1.16,-0.15 2.31,-1.25 2.51,-2.44 l 3.02,-18.139993 c 0.2,-1.19 1.34,-2.15 2.54,-2.15 h 8.86 c 1.23,0 2.35,0.96 2.54,2.15 l 3.02,18.119993 c 0.2,1.19 1.32,2.28 2.51,2.43 l 9.48,1.24 c 1.16,0.15 2.56,-0.61 3.06,-1.7 l 7.61,-16.71999 c 0.5,-1.09 1.85,-1.73 3.01,-1.42 l 8.56,2.29 c 1.19,0.32 2.02,1.54 1.9,2.74 l -1.77,18.28999 c -0.12,1.2 0.69,2.54 1.8,3 l 8.83,3.67 c 1.08,0.45 2.63,0.08 3.39,-0.85 l 11.69,-14.2 c 0.77,-0.93 2.23,-1.2 3.28,-0.59 l 7.67,4.43 c 1.07,0.62 1.55,2.01 1.13,3.14 z m -29.36,36.71 c -24.86,-14.36 -53.13,-17.48 -78.92,-10.94 -4.97,1.26 -2.05,0.57 -2.05,0.57 -6.92,2.36 -9.68,9.49 -6.19,15.85 0,0 -2.01,-3.67 0.16,0.28 10.34,18.87 31.04,56.63 31.04,56.63 4.68,8.54 16.37,15.3 26.12,15.1 0,0 45.86,-0.95 68.8,-1.43 4.26,-0.09 0,0 0,0 7.06,-0.15 11.65,-6.09 10.11,-12.74 -7.16,-25.78 -24.05,-48.88 -49.06,-63.32 z m -1.73,184.17 c 25.11,-13.92 42.34,-36.54 50.02,-62.02 1.48,-4.91 0.57,-2.05 0.57,-2.05 1.54,-7.15 -3.15,-13.18 -10.4,-13.47 0,0 4.18,0.17 -0.32,-0.01 -21.5,-0.85 -64.52,-2.56 -64.52,-2.56 -9.73,-0.39 -21.55,6.15 -26.4,14.61 0,0 -22.8,39.8 -34.21,59.71 -2.12,3.7 0,0 0,0 -3.51,6.13 -0.77,13.12 5.72,15.23 0,0 -4.1,-1.14 0,0 25.79,7.14 54.29,4.56 79.54,-9.44 z m -125.19,-16.85 c 5.07,4.57 12.5,3.44 16.05,-2.67 0,0 -2.14,3.68 0,0 11.54,-19.83 34.6,-59.48 34.6,-59.48 4.9,-8.43 4.66,-21.93 -0.54,-30.17 0,0 -22.99,-36.41 -34.48,-54.6 -2.41,-3.81 -0.17,-0.27 -0.17,-0.27 -3.87,-6.13 -11.44,-7.18 -16.86,-2.27 0,0 2.02,-2.22 -1.49,1.52 -18.22,19.39 -29.2,45.62 -28.7,74.33 0.5,28.87 12.52,54.84 31.6,73.6 z"
           style="fill:url(#linearGradient1935);fill-opacity:1"
           inkscape:connector-curvature="0" />
      </g>
      <circle
         cy="148"
         cx="336"
         style="color:#000000;display:inline;fill:url(#linearGradient1755);fill-opacity:1;stroke-width:0.0649037;enable-background:accumulate"
         r="13.499984"
         id="circle1743" />
      <g
         id="g1749"
         transform="matrix(0.07980252,0,0,0.07980233,150.19342,127.68773)"
         style="display:inline;enable-background:new">
        <path
           inkscape:connector-curvature="0"
           style="opacity:0.5;fill:#050505;fill-opacity:1;filter:url(#filter982)"
           d="m 2410.4599,126.20226 -6.45,17.23 c -0.42,1.13 0.01,2.63 0.96,3.36 l 7.59,5.81 c 0.93,0.71 2.52,0.75 3.5,0.05 l 14.96,-10.68 c 0.98,-0.7 2.47,-0.58 3.32,0.28 l 6.27,6.27 c 0.87,0.87 0.98,2.34 0.28,3.32 l -10.68,14.95 c -0.7,0.98 -0.67,2.55 0.06,3.5 l 5.82,7.59 c 0.71,0.93 2.24,1.38 3.36,0.96 l 17.21,-6.45 c 1.13,-0.42 2.53,0.08 3.13,1.13 l 4.43,7.67 c 0.62,1.07 0.34,2.51 -0.59,3.28 l -14.2,11.69 c -0.93,0.77 -1.31,2.29 -0.85,3.39 l 3.65,8.83 c 0.45,1.08 1.8,1.91 3,1.8 l 18.31,-1.78 c 1.2,-0.12 2.43,0.73 2.74,1.9 l 2.29,8.56 c 0.32,1.19 -0.32,2.51 -1.42,3.01 l -16.75,7.62 c -1.1,0.5 -1.86,1.87 -1.7,3.06 l 1.25,9.47 c 0.15,1.16 1.25,2.31 2.44,2.51 l 18.14,3.02 c 1.19,0.2 2.15,1.34 2.15,2.54 v 8.86 c 0,1.23 -0.96,2.35 -2.15,2.54 l -18.12,3.02 c -1.19,0.2 -2.28,1.32 -2.43,2.51 l -1.24,9.48 c -0.15,1.16 0.61,2.56 1.7,3.06 l 16.72,7.61 c 1.09,0.5 1.73,1.85 1.42,3.01 l -2.29,8.56 c -0.32,1.19 -1.54,2.02 -2.74,1.9 l -18.29,-1.77 c -1.2,-0.12 -2.54,0.69 -3,1.8 l -3.67,8.83 c -0.45,1.08 -0.08,2.63 0.85,3.39 l 14.2,11.69 c 0.93,0.77 1.2,2.23 0.59,3.28 l -4.43,7.67 c -0.62,1.07 -2.01,1.55 -3.14,1.13 l -17.23,-6.45 c -1.13,-0.42 -2.63,0.01 -3.36,0.96 l -5.81,7.59 c -0.71,0.93 -0.75,2.52 -0.05,3.5 l 10.68,14.96 c 0.7,0.98 0.58,2.47 -0.28,3.32 l -6.27,6.27 c -0.87,0.87 -2.34,0.98 -3.32,0.28 l -14.95,-10.68 c -0.98,-0.7 -2.55,-0.67 -3.5,0.06 l -7.59,5.82 c -0.93,0.71 -1.38,2.24 -0.96,3.36 l 6.45,17.21 c 0.42,1.13 -0.08,2.53 -1.13,3.13 l -7.67,4.43 c -1.07,0.62 -2.51,0.34 -3.28,-0.59 l -11.69,-14.2 c -0.77,-0.93 -2.29,-1.31 -3.39,-0.85 l -8.83,3.65 c -1.08,0.45 -1.91,1.8 -1.8,3 l 1.78,18.31 c 0.12,1.2 -0.73,2.43 -1.9,2.74 l -8.56,2.29 c -1.19,0.32 -2.51,-0.32 -3.01,-1.42 l -7.62,-16.75 c -0.5,-1.1 -1.87,-1.86 -3.06,-1.7 l -9.47,1.25 c -1.16,0.15 -2.31,1.25 -2.51,2.44 l -3.02,18.14 c -0.2,1.19 -1.34,2.15 -2.54,2.15 h -8.86 c -1.23,0 -2.35,-0.96 -2.54,-2.15 l -3.02,-18.12 c -0.2,-1.19 -1.32,-2.28 -2.51,-2.43 l -9.48,-1.24 c -1.16,-0.15 -2.56,0.61 -3.06,1.7 l -7.61,16.72 c -0.5,1.09 -1.85,1.73 -3.01,1.42 l -8.56,-2.29 c -1.19,-0.32 -2.02,-1.54 -1.9,-2.74 l 1.77,-18.29 c 0.12,-1.2 -0.69,-2.54 -1.8,-3 l -8.83,-3.67 c -1.08,-0.45 -2.63,-0.08 -3.39,0.85 l -11.69,14.2 c -0.77,0.93 -2.23,1.2 -3.28,0.59 l -7.67,-4.43 c -1.07,-0.62 -1.55,-2.01 -1.13,-3.14 l 6.45,-17.23 c 0.42,-1.13 -0.01,-2.63 -0.96,-3.36 l -7.59,-5.81 c -0.93,-0.71 -2.52,-0.75 -3.5,-0.05 l -14.96,10.68 c -0.98,0.7 -2.47,0.58 -3.32,-0.28 l -6.27,-6.27 c -0.87,-0.87 -0.98,-2.34 -0.28,-3.32 l 10.68,-14.95 c 0.7,-0.98 0.67,-2.55 -0.06,-3.5 l -5.82,-7.59 c -0.71,-0.93 -2.24,-1.38 -3.36,-0.96 l -17.21,6.45 c -1.13,0.42 -2.53,-0.08 -3.13,-1.13 l -4.43,-7.67 c -0.62,-1.07 -0.34,-2.51 0.59,-3.28 l 14.2,-11.69 c 0.93,-0.77 1.31,-2.29 0.85,-3.39 l -3.65,-8.83 c -0.45,-1.08 -1.8,-1.91 -3,-1.8 l -18.31,1.78 c -1.2,0.12 -2.43,-0.73 -2.74,-1.9 l -2.29,-8.56 c -0.32,-1.19 0.32,-2.51 1.42,-3.01 l 16.75,-7.62 c 1.1,-0.5 1.86,-1.87 1.7,-3.06 l -1.25,-9.47 c -0.15,-1.16 -1.25,-2.31 -2.44,-2.51 l -18.14,-3.02 c -1.19,-0.2 -2.15,-1.34 -2.15,-2.54 v -8.86 c 0,-1.23 0.96,-2.35 2.15,-2.54 l 18.12,-3.02 c 1.19,-0.2 2.28,-1.32 2.43,-2.51 l 1.24,-9.48 c 0.15,-1.16 -0.61,-2.56 -1.7,-3.06 l -16.72,-7.61 c -1.09,-0.5 -1.73,-1.85 -1.42,-3.01 l 2.29,-8.56 c 0.32,-1.19 1.54,-2.02 2.74,-1.9 l 18.29,1.77 c 1.2,0.12 2.54,-0.69 3,-1.8 l 3.67,-8.83 c 0.45,-1.08 0.08,-2.63 -0.85,-3.39 l -14.2,-11.69 c -0.93,-0.77 -1.2,-2.23 -0.59,-3.28 l 4.43,-7.67 c 0.62,-1.07 2.01,-1.55 3.14,-1.13 l 17.23,6.45 c 1.13,0.42 2.63,-0.01 3.36,-0.96 l 5.81,-7.59 c 0.71,-0.93 0.75,-2.52 0.05,-3.5 l -10.68,-14.96 c -0.7,-0.98 -0.58,-2.47 0.28,-3.32 l 6.27,-6.27 c 0.87,-0.87 2.34,-0.98 3.32,-0.28 l 14.95,10.68 c 0.98,0.7 2.55,0.67 3.5,-0.06 l 7.59,-5.82 c 0.93,-0.71 1.38,-2.24 0.96,-3.36 l -6.45,-17.21 c -0.42,-1.13 0.08,-2.53 1.13,-3.13 l 7.67,-4.43 c 1.07,-0.62 2.51,-0.34 3.28,0.59 l 11.69,14.2 c 0.77,0.93 2.29,1.31 3.39,0.85 l 8.83,-3.65 c 1.08,-0.45 1.91,-1.8 1.8,-3 l -1.78,-18.31 c -0.12,-1.2 0.73,-2.43 1.9,-2.74 l 8.56,-2.29 c 1.19,-0.32 2.51,0.32 3.01,1.42 l 7.62,16.75 c 0.5,1.1 1.87,1.86 3.06,1.7 l 9.47,-1.25 c 1.16,-0.15 2.31,-1.25 2.51,-2.44 l 3.02,-18.14 c 0.2,-1.19 1.34,-2.15 2.54,-2.15 h 8.86 c 1.23,0 2.35,0.96 2.54,2.15 l 3.02,18.12 c 0.2,1.19 1.32,2.28 2.51,2.43 l 9.48,1.24 c 1.16,0.15 2.56,-0.61 3.06,-1.7 l 7.61,-16.72 c 0.5,-1.09 1.85,-1.73 3.01,-1.42 l 8.56,2.29 c 1.19,0.32 2.02,1.54 1.9,2.74 l -1.77,18.29 c -0.12,1.2 0.69,2.54 1.8,3 l 8.83,3.67 c 1.08,0.45 2.63,0.08 3.39,-0.85 l 11.69,-14.2 c 0.77,-0.93 2.23,-1.2 3.28,-0.59 l 7.67,4.43 c 1.07,0.62 1.55,2.01 1.13,3.14 z m -29.36,36.71 c -24.86,-14.36 -53.13,-17.48 -78.92,-10.94 -4.97,1.26 -2.05,0.57 -2.05,0.57 -6.92,2.36 -9.68,9.49 -6.19,15.85 0,0 -2.01,-3.67 0.16,0.28 10.34,18.87 31.04,56.63 31.04,56.63 4.68,8.54 16.37,15.3 26.12,15.1 0,0 45.86,-0.95 68.8,-1.43 4.26,-0.09 0,0 0,0 7.06,-0.15 11.65,-6.09 10.11,-12.74 -7.16,-25.78 -24.05,-48.88 -49.06,-63.32 z m -1.73,184.17 c 25.11,-13.92 42.34,-36.54 50.02,-62.02 1.48,-4.91 0.57,-2.05 0.57,-2.05 1.54,-7.15 -3.15,-13.18 -10.4,-13.47 0,0 4.18,0.17 -0.32,-0.01 -21.5,-0.85 -64.52,-2.56 -64.52,-2.56 -9.73,-0.39 -21.55,6.15 -26.4,14.61 0,0 -22.8,39.8 -34.21,59.71 -2.12,3.7 0,0 0,0 -3.51,6.13 -0.77,13.12 5.72,15.23 0,0 -4.1,-1.14 0,0 25.79,7.14 54.29,4.56 79.54,-9.44 z m -125.19,-16.85 c 5.07,4.57 12.5,3.44 16.05,-2.67 0,0 -2.14,3.68 0,0 11.54,-19.83 34.6,-59.48 34.6,-59.48 4.9,-8.43 4.66,-21.93 -0.54,-30.17 0,0 -22.99,-36.41 -34.48,-54.6 -2.41,-3.81 -0.17,-0.27 -0.17,-0.27 -3.87,-6.13 -11.44,-7.18 -16.86,-2.27 0,0 2.02,-2.22 -1.49,1.52 -18.22,19.39 -29.2,45.62 -28.7,74.33 0.5,28.87 12.52,54.84 31.6,73.6 z"
           class="shp86"
           id="path1745" />
        <path
           id="path1747"
           class="shp86"
           d="m 2410.4599,123.37078 -6.45,17.23 c -0.42,1.13 0.01,2.63 0.96,3.36 l 7.59,5.81 c 0.93,0.71 2.52,0.75 3.5,0.05 l 14.96,-10.68 c 0.98,-0.7 2.47,-0.58 3.32,0.28 l 6.27,6.27 c 0.87,0.87 0.98,2.34 0.28,3.32 l -10.68,14.95 c -0.7,0.98 -0.67,2.55 0.06,3.5 l 5.82,7.59 c 0.71,0.93 2.24,1.38 3.36,0.96 l 17.21,-6.45 c 1.13,-0.42 2.53,0.08 3.13,1.13 l 4.43,7.67 c 0.62,1.07 0.34,2.51 -0.59,3.28 l -14.2,11.69 c -0.93,0.77 -1.31,2.29 -0.85,3.39 l 3.65,8.83 c 0.45,1.08 1.8,1.91 3,1.8 l 18.31,-1.78 c 1.2,-0.12 2.43,0.73 2.74,1.9 l 2.29,8.56 c 0.32,1.19 -0.32,2.51 -1.42,3.01 l -16.75,7.62 c -1.1,0.5 -1.86,1.87 -1.7,3.06 l 1.25,9.47 c 0.15,1.16 1.25,2.31 2.44,2.51 l 18.14,3.02 c 1.19,0.2 2.15,1.34 2.15,2.54 v 8.86 c 0,1.23 -0.96,2.35 -2.15,2.54 l -18.12,3.02 c -1.19,0.2 -2.28,1.32 -2.43,2.51 l -1.24,9.48 c -0.15,1.16 0.61,2.56 1.7,3.06 l 16.72,7.61 c 1.09,0.5 1.73,1.85 1.42,3.01 l -2.29,8.56 c -0.32,1.19 -1.54,2.02 -2.74,1.9 l -18.29,-1.77 c -1.2,-0.12 -2.54,0.69 -3,1.8 l -3.67,8.83 c -0.45,1.08 -0.08,2.63 0.85,3.39 l 14.2,11.69 c 0.93,0.77 1.2,2.23 0.59,3.28 l -4.43,7.67 c -0.62,1.07 -2.01,1.55 -3.14,1.13 l -17.23,-6.45 c -1.13,-0.42 -2.63,0.01 -3.36,0.96 l -5.81,7.59 c -0.71,0.93 -0.75,2.52 -0.05,3.5 l 10.68,14.96 c 0.7,0.98 0.58,2.47 -0.28,3.32 l -6.27,6.27 c -0.87,0.87 -2.34,0.98 -3.32,0.28 l -14.95,-10.68 c -0.98,-0.7 -2.55,-0.67 -3.5,0.06 l -7.59,5.82 c -0.93,0.71 -1.38,2.24 -0.96,3.36 l 6.45,17.21 c 0.42,1.13 -0.08,2.53 -1.13,3.13 l -7.67,4.43 c -1.07,0.62 -2.51,0.34 -3.28,-0.59 l -11.69,-14.2 c -0.77,-0.93 -2.29,-1.31 -3.39,-0.85 l -8.83,3.65 c -1.08,0.45 -1.91,1.8 -1.8,3 l 1.78,18.31 c 0.12,1.2 -0.73,2.43 -1.9,2.74 l -8.56,2.29 c -1.19,0.32 -2.51,-0.32 -3.01,-1.42 l -7.62,-16.75 c -0.5,-1.1 -1.87,-1.86 -3.06,-1.7 l -9.47,1.25 c -1.16,0.15 -2.31,1.25 -2.51,2.44 l -3.02,18.14 c -0.2,1.19 -1.34,2.15 -2.54,2.15 h -8.86 c -1.23,0 -2.35,-0.96 -2.54,-2.15 l -3.02,-18.12 c -0.2,-1.19 -1.32,-2.28 -2.51,-2.43 l -9.48,-1.24 c -1.16,-0.15 -2.56,0.61 -3.06,1.7 l -7.61,16.72 c -0.5,1.09 -1.85,1.73 -3.01,1.42 l -8.56,-2.29 c -1.19,-0.32 -2.02,-1.54 -1.9,-2.74 l 1.77,-18.29 c 0.12,-1.2 -0.69,-2.54 -1.8,-3 l -8.83,-3.67 c -1.08,-0.45 -2.63,-0.08 -3.39,0.85 l -11.69,14.2 c -0.77,0.93 -2.23,1.2 -3.28,0.59 l -7.67,-4.43 c -1.07,-0.62 -1.55,-2.01 -1.13,-3.14 l 6.45,-17.23 c 0.42,-1.13 -0.01,-2.63 -0.96,-3.36 l -7.59,-5.81 c -0.93,-0.71 -2.52,-0.75 -3.5,-0.05 l -14.96,10.68 c -0.98,0.7 -2.47,0.58 -3.32,-0.28 l -6.27,-6.27 c -0.87,-0.87 -0.98,-2.34 -0.28,-3.32 l 10.68,-14.95 c 0.7,-0.98 0.67,-2.55 -0.06,-3.5 l -5.82,-7.59 c -0.71,-0.93 -2.24,-1.38 -3.36,-0.96 l -17.21,6.45 c -1.13,0.42 -2.53,-0.08 -3.13,-1.13 l -4.43,-7.67 c -0.62,-1.07 -0.34,-2.51 0.59,-3.28 l 14.2,-11.69 c 0.93,-0.77 1.31,-2.29 0.85,-3.39 l -3.65,-8.83 c -0.45,-1.08 -1.8,-1.91 -3,-1.8 l -18.31,1.78 c -1.2,0.12 -2.43,-0.73 -2.74,-1.9 l -2.29,-8.56 c -0.32,-1.19 0.32,-2.51 1.42,-3.01 l 16.75,-7.62 c 1.1,-0.5 1.86,-1.87 1.7,-3.06 l -1.25,-9.47 c -0.15,-1.16 -1.25,-2.31 -2.44,-2.51 l -18.14,-3.02 c -1.19,-0.2 -2.15,-1.34 -2.15,-2.54 v -8.86 c 0,-1.23 0.96,-2.35 2.15,-2.54 l 18.12,-3.02 c 1.19,-0.2 2.28,-1.32 2.43,-2.51 l 1.24,-9.48 c 0.15,-1.16 -0.61,-2.56 -1.7,-3.06 l -16.72,-7.61 c -1.09,-0.5 -1.73,-1.85 -1.42,-3.01 l 2.29,-8.56 c 0.32,-1.19 1.54,-2.02 2.74,-1.9 l 18.29,1.77 c 1.2,0.12 2.54,-0.69 3,-1.8 l 3.67,-8.83 c 0.45,-1.08 0.08,-2.63 -0.85,-3.39 l -14.2,-11.69 c -0.93,-0.77 -1.2,-2.23 -0.59,-3.28 l 4.43,-7.67 c 0.62,-1.07 2.01,-1.55 3.14,-1.13 l 17.23,6.45 c 1.13,0.42 2.63,-0.01 3.36,-0.96 l 5.81,-7.59 c 0.71,-0.93 0.75,-2.52 0.05,-3.5 l -10.68,-14.96 c -0.7,-0.98 -0.58,-2.47 0.28,-3.32 l 6.27,-6.27 c 0.87,-0.87 2.34,-0.98 3.32,-0.28 l 14.95,10.68 c 0.98,0.7 2.55,0.67 3.5,-0.06 l 7.59,-5.82 c 0.93,-0.71 1.38,-2.24 0.96,-3.36 l -6.45,-17.21 c -0.42,-1.13 0.08,-2.53 1.13,-3.13 l 7.67,-4.43 c 1.07,-0.62 2.51,-0.34 3.28,0.59 l 11.69,14.2 c 0.77,0.93 2.29,1.31 3.39,0.85 l 8.83,-3.65 c 1.08,-0.45 1.91,-1.8 1.8,-3 l -1.78,-18.30999 c -0.12,-1.2 0.73,-2.43 1.9,-2.74 l 8.56,-2.29 c 1.19,-0.32 2.51,0.32 3.01,1.42 l 7.62,16.74999 c 0.5,1.1 1.87,1.86 3.06,1.7 l 9.47,-1.25 c 1.16,-0.15 2.31,-1.25 2.51,-2.44 l 3.02,-18.139993 c 0.2,-1.19 1.34,-2.15 2.54,-2.15 h 8.86 c 1.23,0 2.35,0.96 2.54,2.15 l 3.02,18.119993 c 0.2,1.19 1.32,2.28 2.51,2.43 l 9.48,1.24 c 1.16,0.15 2.56,-0.61 3.06,-1.7 l 7.61,-16.71999 c 0.5,-1.09 1.85,-1.73 3.01,-1.42 l 8.56,2.29 c 1.19,0.32 2.02,1.54 1.9,2.74 l -1.77,18.28999 c -0.12,1.2 0.69,2.54 1.8,3 l 8.83,3.67 c 1.08,0.45 2.63,0.08 3.39,-0.85 l 11.69,-14.2 c 0.77,-0.93 2.23,-1.2 3.28,-0.59 l 7.67,4.43 c 1.07,0.62 1.55,2.01 1.13,3.14 z m -29.36,36.71 c -24.86,-14.36 -53.13,-17.48 -78.92,-10.94 -4.97,1.26 -2.05,0.57 -2.05,0.57 -6.92,2.36 -9.68,9.49 -6.19,15.85 0,0 -2.01,-3.67 0.16,0.28 10.34,18.87 31.04,56.63 31.04,56.63 4.68,8.54 16.37,15.3 26.12,15.1 0,0 45.86,-0.95 68.8,-1.43 4.26,-0.09 0,0 0,0 7.06,-0.15 11.65,-6.09 10.11,-12.74 -7.16,-25.78 -24.05,-48.88 -49.06,-63.32 z m -1.73,184.17 c 25.11,-13.92 42.34,-36.54 50.02,-62.02 1.48,-4.91 0.57,-2.05 0.57,-2.05 1.54,-7.15 -3.15,-13.18 -10.4,-13.47 0,0 4.18,0.17 -0.32,-0.01 -21.5,-0.85 -64.52,-2.56 -64.52,-2.56 -9.73,-0.39 -21.55,6.15 -26.4,14.61 0,0 -22.8,39.8 -34.21,59.71 -2.12,3.7 0,0 0,0 -3.51,6.13 -0.77,13.12 5.72,15.23 0,0 -4.1,-1.14 0,0 25.79,7.14 54.29,4.56 79.54,-9.44 z m -125.19,-16.85 c 5.07,4.57 12.5,3.44 16.05,-2.67 0,0 -2.14,3.68 0,0 11.54,-19.83 34.6,-59.48 34.6,-59.48 4.9,-8.43 4.66,-21.93 -0.54,-30.17 0,0 -22.99,-36.41 -34.48,-54.6 -2.41,-3.81 -0.17,-0.27 -0.17,-0.27 -3.87,-6.13 -11.44,-7.18 -16.86,-2.27 0,0 2.02,-2.22 -1.49,1.52 -18.22,19.39 -29.2,45.62 -28.7,74.33 0.5,28.87 12.52,54.84 31.6,73.6 z"
           style="fill:url(#linearGradient1757);fill-opacity:1"
           inkscape:connector-curvature="0" />
      </g>
      <circle
         cy="84.000114"
         cx="344"
         style="color:#000000;display:inline;fill:url(#linearGradient1151);fill-opacity:1;stroke-width:0.100961;enable-background:accumulate"
         r="20.999975"
         id="circle1139" />
      <g
         id="g1145"
         transform="matrix(0.12413725,0,0,0.12413696,54.967539,52.403257)"
         style="display:inline;enable-background:new">
        <path
           inkscape:connector-curvature="0"
           style="opacity:0.5;fill:#050505;fill-opacity:1;filter:url(#filter982)"
           d="m 2410.4599,126.20226 -6.45,17.23 c -0.42,1.13 0.01,2.63 0.96,3.36 l 7.59,5.81 c 0.93,0.71 2.52,0.75 3.5,0.05 l 14.96,-10.68 c 0.98,-0.7 2.47,-0.58 3.32,0.28 l 6.27,6.27 c 0.87,0.87 0.98,2.34 0.28,3.32 l -10.68,14.95 c -0.7,0.98 -0.67,2.55 0.06,3.5 l 5.82,7.59 c 0.71,0.93 2.24,1.38 3.36,0.96 l 17.21,-6.45 c 1.13,-0.42 2.53,0.08 3.13,1.13 l 4.43,7.67 c 0.62,1.07 0.34,2.51 -0.59,3.28 l -14.2,11.69 c -0.93,0.77 -1.31,2.29 -0.85,3.39 l 3.65,8.83 c 0.45,1.08 1.8,1.91 3,1.8 l 18.31,-1.78 c 1.2,-0.12 2.43,0.73 2.74,1.9 l 2.29,8.56 c 0.32,1.19 -0.32,2.51 -1.42,3.01 l -16.75,7.62 c -1.1,0.5 -1.86,1.87 -1.7,3.06 l 1.25,9.47 c 0.15,1.16 1.25,2.31 2.44,2.51 l 18.14,3.02 c 1.19,0.2 2.15,1.34 2.15,2.54 v 8.86 c 0,1.23 -0.96,2.35 -2.15,2.54 l -18.12,3.02 c -1.19,0.2 -2.28,1.32 -2.43,2.51 l -1.24,9.48 c -0.15,1.16 0.61,2.56 1.7,3.06 l 16.72,7.61 c 1.09,0.5 1.73,1.85 1.42,3.01 l -2.29,8.56 c -0.32,1.19 -1.54,2.02 -2.74,1.9 l -18.29,-1.77 c -1.2,-0.12 -2.54,0.69 -3,1.8 l -3.67,8.83 c -0.45,1.08 -0.08,2.63 0.85,3.39 l 14.2,11.69 c 0.93,0.77 1.2,2.23 0.59,3.28 l -4.43,7.67 c -0.62,1.07 -2.01,1.55 -3.14,1.13 l -17.23,-6.45 c -1.13,-0.42 -2.63,0.01 -3.36,0.96 l -5.81,7.59 c -0.71,0.93 -0.75,2.52 -0.05,3.5 l 10.68,14.96 c 0.7,0.98 0.58,2.47 -0.28,3.32 l -6.27,6.27 c -0.87,0.87 -2.34,0.98 -3.32,0.28 l -14.95,-10.68 c -0.98,-0.7 -2.55,-0.67 -3.5,0.06 l -7.59,5.82 c -0.93,0.71 -1.38,2.24 -0.96,3.36 l 6.45,17.21 c 0.42,1.13 -0.08,2.53 -1.13,3.13 l -7.67,4.43 c -1.07,0.62 -2.51,0.34 -3.28,-0.59 l -11.69,-14.2 c -0.77,-0.93 -2.29,-1.31 -3.39,-0.85 l -8.83,3.65 c -1.08,0.45 -1.91,1.8 -1.8,3 l 1.78,18.31 c 0.12,1.2 -0.73,2.43 -1.9,2.74 l -8.56,2.29 c -1.19,0.32 -2.51,-0.32 -3.01,-1.42 l -7.62,-16.75 c -0.5,-1.1 -1.87,-1.86 -3.06,-1.7 l -9.47,1.25 c -1.16,0.15 -2.31,1.25 -2.51,2.44 l -3.02,18.14 c -0.2,1.19 -1.34,2.15 -2.54,2.15 h -8.86 c -1.23,0 -2.35,-0.96 -2.54,-2.15 l -3.02,-18.12 c -0.2,-1.19 -1.32,-2.28 -2.51,-2.43 l -9.48,-1.24 c -1.16,-0.15 -2.56,0.61 -3.06,1.7 l -7.61,16.72 c -0.5,1.09 -1.85,1.73 -3.01,1.42 l -8.56,-2.29 c -1.19,-0.32 -2.02,-1.54 -1.9,-2.74 l 1.77,-18.29 c 0.12,-1.2 -0.69,-2.54 -1.8,-3 l -8.83,-3.67 c -1.08,-0.45 -2.63,-0.08 -3.39,0.85 l -11.69,14.2 c -0.77,0.93 -2.23,1.2 -3.28,0.59 l -7.67,-4.43 c -1.07,-0.62 -1.55,-2.01 -1.13,-3.14 l 6.45,-17.23 c 0.42,-1.13 -0.01,-2.63 -0.96,-3.36 l -7.59,-5.81 c -0.93,-0.71 -2.52,-0.75 -3.5,-0.05 l -14.96,10.68 c -0.98,0.7 -2.47,0.58 -3.32,-0.28 l -6.27,-6.27 c -0.87,-0.87 -0.98,-2.34 -0.28,-3.32 l 10.68,-14.95 c 0.7,-0.98 0.67,-2.55 -0.06,-3.5 l -5.82,-7.59 c -0.71,-0.93 -2.24,-1.38 -3.36,-0.96 l -17.21,6.45 c -1.13,0.42 -2.53,-0.08 -3.13,-1.13 l -4.43,-7.67 c -0.62,-1.07 -0.34,-2.51 0.59,-3.28 l 14.2,-11.69 c 0.93,-0.77 1.31,-2.29 0.85,-3.39 l -3.65,-8.83 c -0.45,-1.08 -1.8,-1.91 -3,-1.8 l -18.31,1.78 c -1.2,0.12 -2.43,-0.73 -2.74,-1.9 l -2.29,-8.56 c -0.32,-1.19 0.32,-2.51 1.42,-3.01 l 16.75,-7.62 c 1.1,-0.5 1.86,-1.87 1.7,-3.06 l -1.25,-9.47 c -0.15,-1.16 -1.25,-2.31 -2.44,-2.51 l -18.14,-3.02 c -1.19,-0.2 -2.15,-1.34 -2.15,-2.54 v -8.86 c 0,-1.23 0.96,-2.35 2.15,-2.54 l 18.12,-3.02 c 1.19,-0.2 2.28,-1.32 2.43,-2.51 l 1.24,-9.48 c 0.15,-1.16 -0.61,-2.56 -1.7,-3.06 l -16.72,-7.61 c -1.09,-0.5 -1.73,-1.85 -1.42,-3.01 l 2.29,-8.56 c 0.32,-1.19 1.54,-2.02 2.74,-1.9 l 18.29,1.77 c 1.2,0.12 2.54,-0.69 3,-1.8 l 3.67,-8.83 c 0.45,-1.08 0.08,-2.63 -0.85,-3.39 l -14.2,-11.69 c -0.93,-0.77 -1.2,-2.23 -0.59,-3.28 l 4.43,-7.67 c 0.62,-1.07 2.01,-1.55 3.14,-1.13 l 17.23,6.45 c 1.13,0.42 2.63,-0.01 3.36,-0.96 l 5.81,-7.59 c 0.71,-0.93 0.75,-2.52 0.05,-3.5 l -10.68,-14.96 c -0.7,-0.98 -0.58,-2.47 0.28,-3.32 l 6.27,-6.27 c 0.87,-0.87 2.34,-0.98 3.32,-0.28 l 14.95,10.68 c 0.98,0.7 2.55,0.67 3.5,-0.06 l 7.59,-5.82 c 0.93,-0.71 1.38,-2.24 0.96,-3.36 l -6.45,-17.21 c -0.42,-1.13 0.08,-2.53 1.13,-3.13 l 7.67,-4.43 c 1.07,-0.62 2.51,-0.34 3.28,0.59 l 11.69,14.2 c 0.77,0.93 2.29,1.31 3.39,0.85 l 8.83,-3.65 c 1.08,-0.45 1.91,-1.8 1.8,-3 l -1.78,-18.31 c -0.12,-1.2 0.73,-2.43 1.9,-2.74 l 8.56,-2.29 c 1.19,-0.32 2.51,0.32 3.01,1.42 l 7.62,16.75 c 0.5,1.1 1.87,1.86 3.06,1.7 l 9.47,-1.25 c 1.16,-0.15 2.31,-1.25 2.51,-2.44 l 3.02,-18.14 c 0.2,-1.19 1.34,-2.15 2.54,-2.15 h 8.86 c 1.23,0 2.35,0.96 2.54,2.15 l 3.02,18.12 c 0.2,1.19 1.32,2.28 2.51,2.43 l 9.48,1.24 c 1.16,0.15 2.56,-0.61 3.06,-1.7 l 7.61,-16.72 c 0.5,-1.09 1.85,-1.73 3.01,-1.42 l 8.56,2.29 c 1.19,0.32 2.02,1.54 1.9,2.74 l -1.77,18.29 c -0.12,1.2 0.69,2.54 1.8,3 l 8.83,3.67 c 1.08,0.45 2.63,0.08 3.39,-0.85 l 11.69,-14.2 c 0.77,-0.93 2.23,-1.2 3.28,-0.59 l 7.67,4.43 c 1.07,0.62 1.55,2.01 1.13,3.14 z m -29.36,36.71 c -24.86,-14.36 -53.13,-17.48 -78.92,-10.94 -4.97,1.26 -2.05,0.57 -2.05,0.57 -6.92,2.36 -9.68,9.49 -6.19,15.85 0,0 -2.01,-3.67 0.16,0.28 10.34,18.87 31.04,56.63 31.04,56.63 4.68,8.54 16.37,15.3 26.12,15.1 0,0 45.86,-0.95 68.8,-1.43 4.26,-0.09 0,0 0,0 7.06,-0.15 11.65,-6.09 10.11,-12.74 -7.16,-25.78 -24.05,-48.88 -49.06,-63.32 z m -1.73,184.17 c 25.11,-13.92 42.34,-36.54 50.02,-62.02 1.48,-4.91 0.57,-2.05 0.57,-2.05 1.54,-7.15 -3.15,-13.18 -10.4,-13.47 0,0 4.18,0.17 -0.32,-0.01 -21.5,-0.85 -64.52,-2.56 -64.52,-2.56 -9.73,-0.39 -21.55,6.15 -26.4,14.61 0,0 -22.8,39.8 -34.21,59.71 -2.12,3.7 0,0 0,0 -3.51,6.13 -0.77,13.12 5.72,15.23 0,0 -4.1,-1.14 0,0 25.79,7.14 54.29,4.56 79.54,-9.44 z m -125.19,-16.85 c 5.07,4.57 12.5,3.44 16.05,-2.67 0,0 -2.14,3.68 0,0 11.54,-19.83 34.6,-59.48 34.6,-59.48 4.9,-8.43 4.66,-21.93 -0.54,-30.17 0,0 -22.99,-36.41 -34.48,-54.6 -2.41,-3.81 -0.17,-0.27 -0.17,-0.27 -3.87,-6.13 -11.44,-7.18 -16.86,-2.27 0,0 2.02,-2.22 -1.49,1.52 -18.22,19.39 -29.2,45.62 -28.7,74.33 0.5,28.87 12.52,54.84 31.6,73.6 z"
           class="shp86"
           id="path1141" />
        <path
           id="path1143"
           class="shp86"
           d="m 2410.4599,123.37078 -6.45,17.23 c -0.42,1.13 0.01,2.63 0.96,3.36 l 7.59,5.81 c 0.93,0.71 2.52,0.75 3.5,0.05 l 14.96,-10.68 c 0.98,-0.7 2.47,-0.58 3.32,0.28 l 6.27,6.27 c 0.87,0.87 0.98,2.34 0.28,3.32 l -10.68,14.95 c -0.7,0.98 -0.67,2.55 0.06,3.5 l 5.82,7.59 c 0.71,0.93 2.24,1.38 3.36,0.96 l 17.21,-6.45 c 1.13,-0.42 2.53,0.08 3.13,1.13 l 4.43,7.67 c 0.62,1.07 0.34,2.51 -0.59,3.28 l -14.2,11.69 c -0.93,0.77 -1.31,2.29 -0.85,3.39 l 3.65,8.83 c 0.45,1.08 1.8,1.91 3,1.8 l 18.31,-1.78 c 1.2,-0.12 2.43,0.73 2.74,1.9 l 2.29,8.56 c 0.32,1.19 -0.32,2.51 -1.42,3.01 l -16.75,7.62 c -1.1,0.5 -1.86,1.87 -1.7,3.06 l 1.25,9.47 c 0.15,1.16 1.25,2.31 2.44,2.51 l 18.14,3.02 c 1.19,0.2 2.15,1.34 2.15,2.54 v 8.86 c 0,1.23 -0.96,2.35 -2.15,2.54 l -18.12,3.02 c -1.19,0.2 -2.28,1.32 -2.43,2.51 l -1.24,9.48 c -0.15,1.16 0.61,2.56 1.7,3.06 l 16.72,7.61 c 1.09,0.5 1.73,1.85 1.42,3.01 l -2.29,8.56 c -0.32,1.19 -1.54,2.02 -2.74,1.9 l -18.29,-1.77 c -1.2,-0.12 -2.54,0.69 -3,1.8 l -3.67,8.83 c -0.45,1.08 -0.08,2.63 0.85,3.39 l 14.2,11.69 c 0.93,0.77 1.2,2.23 0.59,3.28 l -4.43,7.67 c -0.62,1.07 -2.01,1.55 -3.14,1.13 l -17.23,-6.45 c -1.13,-0.42 -2.63,0.01 -3.36,0.96 l -5.81,7.59 c -0.71,0.93 -0.75,2.52 -0.05,3.5 l 10.68,14.96 c 0.7,0.98 0.58,2.47 -0.28,3.32 l -6.27,6.27 c -0.87,0.87 -2.34,0.98 -3.32,0.28 l -14.95,-10.68 c -0.98,-0.7 -2.55,-0.67 -3.5,0.06 l -7.59,5.82 c -0.93,0.71 -1.38,2.24 -0.96,3.36 l 6.45,17.21 c 0.42,1.13 -0.08,2.53 -1.13,3.13 l -7.67,4.43 c -1.07,0.62 -2.51,0.34 -3.28,-0.59 l -11.69,-14.2 c -0.77,-0.93 -2.29,-1.31 -3.39,-0.85 l -8.83,3.65 c -1.08,0.45 -1.91,1.8 -1.8,3 l 1.78,18.31 c 0.12,1.2 -0.73,2.43 -1.9,2.74 l -8.56,2.29 c -1.19,0.32 -2.51,-0.32 -3.01,-1.42 l -7.62,-16.75 c -0.5,-1.1 -1.87,-1.86 -3.06,-1.7 l -9.47,1.25 c -1.16,0.15 -2.31,1.25 -2.51,2.44 l -3.02,18.14 c -0.2,1.19 -1.34,2.15 -2.54,2.15 h -8.86 c -1.23,0 -2.35,-0.96 -2.54,-2.15 l -3.02,-18.12 c -0.2,-1.19 -1.32,-2.28 -2.51,-2.43 l -9.48,-1.24 c -1.16,-0.15 -2.56,0.61 -3.06,1.7 l -7.61,16.72 c -0.5,1.09 -1.85,1.73 -3.01,1.42 l -8.56,-2.29 c -1.19,-0.32 -2.02,-1.54 -1.9,-2.74 l 1.77,-18.29 c 0.12,-1.2 -0.69,-2.54 -1.8,-3 l -8.83,-3.67 c -1.08,-0.45 -2.63,-0.08 -3.39,0.85 l -11.69,14.2 c -0.77,0.93 -2.23,1.2 -3.28,0.59 l -7.67,-4.43 c -1.07,-0.62 -1.55,-2.01 -1.13,-3.14 l 6.45,-17.23 c 0.42,-1.13 -0.01,-2.63 -0.96,-3.36 l -7.59,-5.81 c -0.93,-0.71 -2.52,-0.75 -3.5,-0.05 l -14.96,10.68 c -0.98,0.7 -2.47,0.58 -3.32,-0.28 l -6.27,-6.27 c -0.87,-0.87 -0.98,-2.34 -0.28,-3.32 l 10.68,-14.95 c 0.7,-0.98 0.67,-2.55 -0.06,-3.5 l -5.82,-7.59 c -0.71,-0.93 -2.24,-1.38 -3.36,-0.96 l -17.21,6.45 c -1.13,0.42 -2.53,-0.08 -3.13,-1.13 l -4.43,-7.67 c -0.62,-1.07 -0.34,-2.51 0.59,-3.28 l 14.2,-11.69 c 0.93,-0.77 1.31,-2.29 0.85,-3.39 l -3.65,-8.83 c -0.45,-1.08 -1.8,-1.91 -3,-1.8 l -18.31,1.78 c -1.2,0.12 -2.43,-0.73 -2.74,-1.9 l -2.29,-8.56 c -0.32,-1.19 0.32,-2.51 1.42,-3.01 l 16.75,-7.62 c 1.1,-0.5 1.86,-1.87 1.7,-3.06 l -1.25,-9.47 c -0.15,-1.16 -1.25,-2.31 -2.44,-2.51 l -18.14,-3.02 c -1.19,-0.2 -2.15,-1.34 -2.15,-2.54 v -8.86 c 0,-1.23 0.96,-2.35 2.15,-2.54 l 18.12,-3.02 c 1.19,-0.2 2.28,-1.32 2.43,-2.51 l 1.24,-9.48 c 0.15,-1.16 -0.61,-2.56 -1.7,-3.06 l -16.72,-7.61 c -1.09,-0.5 -1.73,-1.85 -1.42,-3.01 l 2.29,-8.56 c 0.32,-1.19 1.54,-2.02 2.74,-1.9 l 18.29,1.77 c 1.2,0.12 2.54,-0.69 3,-1.8 l 3.67,-8.83 c 0.45,-1.08 0.08,-2.63 -0.85,-3.39 l -14.2,-11.69 c -0.93,-0.77 -1.2,-2.23 -0.59,-3.28 l 4.43,-7.67 c 0.62,-1.07 2.01,-1.55 3.14,-1.13 l 17.23,6.45 c 1.13,0.42 2.63,-0.01 3.36,-0.96 l 5.81,-7.59 c 0.71,-0.93 0.75,-2.52 0.05,-3.5 l -10.68,-14.96 c -0.7,-0.98 -0.58,-2.47 0.28,-3.32 l 6.27,-6.27 c 0.87,-0.87 2.34,-0.98 3.32,-0.28 l 14.95,10.68 c 0.98,0.7 2.55,0.67 3.5,-0.06 l 7.59,-5.82 c 0.93,-0.71 1.38,-2.24 0.96,-3.36 l -6.45,-17.21 c -0.42,-1.13 0.08,-2.53 1.13,-3.13 l 7.67,-4.43 c 1.07,-0.62 2.51,-0.34 3.28,0.59 l 11.69,14.2 c 0.77,0.93 2.29,1.31 3.39,0.85 l 8.83,-3.65 c 1.08,-0.45 1.91,-1.8 1.8,-3 l -1.78,-18.30999 c -0.12,-1.2 0.73,-2.43 1.9,-2.74 l 8.56,-2.29 c 1.19,-0.32 2.51,0.32 3.01,1.42 l 7.62,16.74999 c 0.5,1.1 1.87,1.86 3.06,1.7 l 9.47,-1.25 c 1.16,-0.15 2.31,-1.25 2.51,-2.44 l 3.02,-18.139993 c 0.2,-1.19 1.34,-2.15 2.54,-2.15 h 8.86 c 1.23,0 2.35,0.96 2.54,2.15 l 3.02,18.119993 c 0.2,1.19 1.32,2.28 2.51,2.43 l 9.48,1.24 c 1.16,0.15 2.56,-0.61 3.06,-1.7 l 7.61,-16.71999 c 0.5,-1.09 1.85,-1.73 3.01,-1.42 l 8.56,2.29 c 1.19,0.32 2.02,1.54 1.9,2.74 l -1.77,18.28999 c -0.12,1.2 0.69,2.54 1.8,3 l 8.83,3.67 c 1.08,0.45 2.63,0.08 3.39,-0.85 l 11.69,-14.2 c 0.77,-0.93 2.23,-1.2 3.28,-0.59 l 7.67,4.43 c 1.07,0.62 1.55,2.01 1.13,3.14 z m -29.36,36.71 c -24.86,-14.36 -53.13,-17.48 -78.92,-10.94 -4.97,1.26 -2.05,0.57 -2.05,0.57 -6.92,2.36 -9.68,9.49 -6.19,15.85 0,0 -2.01,-3.67 0.16,0.28 10.34,18.87 31.04,56.63 31.04,56.63 4.68,8.54 16.37,15.3 26.12,15.1 0,0 45.86,-0.95 68.8,-1.43 4.26,-0.09 0,0 0,0 7.06,-0.15 11.65,-6.09 10.11,-12.74 -7.16,-25.78 -24.05,-48.88 -49.06,-63.32 z m -1.73,184.17 c 25.11,-13.92 42.34,-36.54 50.02,-62.02 1.48,-4.91 0.57,-2.05 0.57,-2.05 1.54,-7.15 -3.15,-13.18 -10.4,-13.47 0,0 4.18,0.17 -0.32,-0.01 -21.5,-0.85 -64.52,-2.56 -64.52,-2.56 -9.73,-0.39 -21.55,6.15 -26.4,14.61 0,0 -22.8,39.8 -34.21,59.71 -2.12,3.7 0,0 0,0 -3.51,6.13 -0.77,13.12 5.72,15.23 0,0 -4.1,-1.14 0,0 25.79,7.14 54.29,4.56 79.54,-9.44 z m -125.19,-16.85 c 5.07,4.57 12.5,3.44 16.05,-2.67 0,0 -2.14,3.68 0,0 11.54,-19.83 34.6,-59.48 34.6,-59.48 4.9,-8.43 4.66,-21.93 -0.54,-30.17 0,0 -22.99,-36.41 -34.48,-54.6 -2.41,-3.81 -0.17,-0.27 -0.17,-0.27 -3.87,-6.13 -11.44,-7.18 -16.86,-2.27 0,0 2.02,-2.22 -1.49,1.52 -18.22,19.39 -29.2,45.62 -28.7,74.33 0.5,28.87 12.52,54.84 31.6,73.6 z"
           style="fill:url(#linearGradient1153);fill-opacity:1"
           inkscape:connector-curvature="0" />
      </g>
      <circle
         cy="157"
         cx="151.99727"
         style="color:#000000;display:inline;fill:url(#linearGradient1001);fill-opacity:1;stroke-width:0.504807;enable-background:accumulate"
         r="104.99988"
         id="path4238" />
      <g
         id="gear mid"
         transform="matrix(0.62068626,0,0,0.62068481,-1293.1651,-0.98430841)"
         style="display:inline;enable-background:new">
        <path
           inkscape:connector-curvature="0"
           style="opacity:0.5;fill:#050505;fill-opacity:1;filter:url(#filter982)"
           d="m 2410.4599,126.20226 -6.45,17.23 c -0.42,1.13 0.01,2.63 0.96,3.36 l 7.59,5.81 c 0.93,0.71 2.52,0.75 3.5,0.05 l 14.96,-10.68 c 0.98,-0.7 2.47,-0.58 3.32,0.28 l 6.27,6.27 c 0.87,0.87 0.98,2.34 0.28,3.32 l -10.68,14.95 c -0.7,0.98 -0.67,2.55 0.06,3.5 l 5.82,7.59 c 0.71,0.93 2.24,1.38 3.36,0.96 l 17.21,-6.45 c 1.13,-0.42 2.53,0.08 3.13,1.13 l 4.43,7.67 c 0.62,1.07 0.34,2.51 -0.59,3.28 l -14.2,11.69 c -0.93,0.77 -1.31,2.29 -0.85,3.39 l 3.65,8.83 c 0.45,1.08 1.8,1.91 3,1.8 l 18.31,-1.78 c 1.2,-0.12 2.43,0.73 2.74,1.9 l 2.29,8.56 c 0.32,1.19 -0.32,2.51 -1.42,3.01 l -16.75,7.62 c -1.1,0.5 -1.86,1.87 -1.7,3.06 l 1.25,9.47 c 0.15,1.16 1.25,2.31 2.44,2.51 l 18.14,3.02 c 1.19,0.2 2.15,1.34 2.15,2.54 v 8.86 c 0,1.23 -0.96,2.35 -2.15,2.54 l -18.12,3.02 c -1.19,0.2 -2.28,1.32 -2.43,2.51 l -1.24,9.48 c -0.15,1.16 0.61,2.56 1.7,3.06 l 16.72,7.61 c 1.09,0.5 1.73,1.85 1.42,3.01 l -2.29,8.56 c -0.32,1.19 -1.54,2.02 -2.74,1.9 l -18.29,-1.77 c -1.2,-0.12 -2.54,0.69 -3,1.8 l -3.67,8.83 c -0.45,1.08 -0.08,2.63 0.85,3.39 l 14.2,11.69 c 0.93,0.77 1.2,2.23 0.59,3.28 l -4.43,7.67 c -0.62,1.07 -2.01,1.55 -3.14,1.13 l -17.23,-6.45 c -1.13,-0.42 -2.63,0.01 -3.36,0.96 l -5.81,7.59 c -0.71,0.93 -0.75,2.52 -0.05,3.5 l 10.68,14.96 c 0.7,0.98 0.58,2.47 -0.28,3.32 l -6.27,6.27 c -0.87,0.87 -2.34,0.98 -3.32,0.28 l -14.95,-10.68 c -0.98,-0.7 -2.55,-0.67 -3.5,0.06 l -7.59,5.82 c -0.93,0.71 -1.38,2.24 -0.96,3.36 l 6.45,17.21 c 0.42,1.13 -0.08,2.53 -1.13,3.13 l -7.67,4.43 c -1.07,0.62 -2.51,0.34 -3.28,-0.59 l -11.69,-14.2 c -0.77,-0.93 -2.29,-1.31 -3.39,-0.85 l -8.83,3.65 c -1.08,0.45 -1.91,1.8 -1.8,3 l 1.78,18.31 c 0.12,1.2 -0.73,2.43 -1.9,2.74 l -8.56,2.29 c -1.19,0.32 -2.51,-0.32 -3.01,-1.42 l -7.62,-16.75 c -0.5,-1.1 -1.87,-1.86 -3.06,-1.7 l -9.47,1.25 c -1.16,0.15 -2.31,1.25 -2.51,2.44 l -3.02,18.14 c -0.2,1.19 -1.34,2.15 -2.54,2.15 h -8.86 c -1.23,0 -2.35,-0.96 -2.54,-2.15 l -3.02,-18.12 c -0.2,-1.19 -1.32,-2.28 -2.51,-2.43 l -9.48,-1.24 c -1.16,-0.15 -2.56,0.61 -3.06,1.7 l -7.61,16.72 c -0.5,1.09 -1.85,1.73 -3.01,1.42 l -8.56,-2.29 c -1.19,-0.32 -2.02,-1.54 -1.9,-2.74 l 1.77,-18.29 c 0.12,-1.2 -0.69,-2.54 -1.8,-3 l -8.83,-3.67 c -1.08,-0.45 -2.63,-0.08 -3.39,0.85 l -11.69,14.2 c -0.77,0.93 -2.23,1.2 -3.28,0.59 l -7.67,-4.43 c -1.07,-0.62 -1.55,-2.01 -1.13,-3.14 l 6.45,-17.23 c 0.42,-1.13 -0.01,-2.63 -0.96,-3.36 l -7.59,-5.81 c -0.93,-0.71 -2.52,-0.75 -3.5,-0.05 l -14.96,10.68 c -0.98,0.7 -2.47,0.58 -3.32,-0.28 l -6.27,-6.27 c -0.87,-0.87 -0.98,-2.34 -0.28,-3.32 l 10.68,-14.95 c 0.7,-0.98 0.67,-2.55 -0.06,-3.5 l -5.82,-7.59 c -0.71,-0.93 -2.24,-1.38 -3.36,-0.96 l -17.21,6.45 c -1.13,0.42 -2.53,-0.08 -3.13,-1.13 l -4.43,-7.67 c -0.62,-1.07 -0.34,-2.51 0.59,-3.28 l 14.2,-11.69 c 0.93,-0.77 1.31,-2.29 0.85,-3.39 l -3.65,-8.83 c -0.45,-1.08 -1.8,-1.91 -3,-1.8 l -18.31,1.78 c -1.2,0.12 -2.43,-0.73 -2.74,-1.9 l -2.29,-8.56 c -0.32,-1.19 0.32,-2.51 1.42,-3.01 l 16.75,-7.62 c 1.1,-0.5 1.86,-1.87 1.7,-3.06 l -1.25,-9.47 c -0.15,-1.16 -1.25,-2.31 -2.44,-2.51 l -18.14,-3.02 c -1.19,-0.2 -2.15,-1.34 -2.15,-2.54 v -8.86 c 0,-1.23 0.96,-2.35 2.15,-2.54 l 18.12,-3.02 c 1.19,-0.2 2.28,-1.32 2.43,-2.51 l 1.24,-9.48 c 0.15,-1.16 -0.61,-2.56 -1.7,-3.06 l -16.72,-7.61 c -1.09,-0.5 -1.73,-1.85 -1.42,-3.01 l 2.29,-8.56 c 0.32,-1.19 1.54,-2.02 2.74,-1.9 l 18.29,1.77 c 1.2,0.12 2.54,-0.69 3,-1.8 l 3.67,-8.83 c 0.45,-1.08 0.08,-2.63 -0.85,-3.39 l -14.2,-11.69 c -0.93,-0.77 -1.2,-2.23 -0.59,-3.28 l 4.43,-7.67 c 0.62,-1.07 2.01,-1.55 3.14,-1.13 l 17.23,6.45 c 1.13,0.42 2.63,-0.01 3.36,-0.96 l 5.81,-7.59 c 0.71,-0.93 0.75,-2.52 0.05,-3.5 l -10.68,-14.96 c -0.7,-0.98 -0.58,-2.47 0.28,-3.32 l 6.27,-6.27 c 0.87,-0.87 2.34,-0.98 3.32,-0.28 l 14.95,10.68 c 0.98,0.7 2.55,0.67 3.5,-0.06 l 7.59,-5.82 c 0.93,-0.71 1.38,-2.24 0.96,-3.36 l -6.45,-17.21 c -0.42,-1.13 0.08,-2.53 1.13,-3.13 l 7.67,-4.43 c 1.07,-0.62 2.51,-0.34 3.28,0.59 l 11.69,14.2 c 0.77,0.93 2.29,1.31 3.39,0.85 l 8.83,-3.65 c 1.08,-0.45 1.91,-1.8 1.8,-3 l -1.78,-18.31 c -0.12,-1.2 0.73,-2.43 1.9,-2.74 l 8.56,-2.29 c 1.19,-0.32 2.51,0.32 3.01,1.42 l 7.62,16.75 c 0.5,1.1 1.87,1.86 3.06,1.7 l 9.47,-1.25 c 1.16,-0.15 2.31,-1.25 2.51,-2.44 l 3.02,-18.14 c 0.2,-1.19 1.34,-2.15 2.54,-2.15 h 8.86 c 1.23,0 2.35,0.96 2.54,2.15 l 3.02,18.12 c 0.2,1.19 1.32,2.28 2.51,2.43 l 9.48,1.24 c 1.16,0.15 2.56,-0.61 3.06,-1.7 l 7.61,-16.72 c 0.5,-1.09 1.85,-1.73 3.01,-1.42 l 8.56,2.29 c 1.19,0.32 2.02,1.54 1.9,2.74 l -1.77,18.29 c -0.12,1.2 0.69,2.54 1.8,3 l 8.83,3.67 c 1.08,0.45 2.63,0.08 3.39,-0.85 l 11.69,-14.2 c 0.77,-0.93 2.23,-1.2 3.28,-0.59 l 7.67,4.43 c 1.07,0.62 1.55,2.01 1.13,3.14 z m -29.36,36.71 c -24.86,-14.36 -53.13,-17.48 -78.92,-10.94 -4.97,1.26 -2.05,0.57 -2.05,0.57 -6.92,2.36 -9.68,9.49 -6.19,15.85 0,0 -2.01,-3.67 0.16,0.28 10.34,18.87 31.04,56.63 31.04,56.63 4.68,8.54 16.37,15.3 26.12,15.1 0,0 45.86,-0.95 68.8,-1.43 4.26,-0.09 0,0 0,0 7.06,-0.15 11.65,-6.09 10.11,-12.74 -7.16,-25.78 -24.05,-48.88 -49.06,-63.32 z m -1.73,184.17 c 25.11,-13.92 42.34,-36.54 50.02,-62.02 1.48,-4.91 0.57,-2.05 0.57,-2.05 1.54,-7.15 -3.15,-13.18 -10.4,-13.47 0,0 4.18,0.17 -0.32,-0.01 -21.5,-0.85 -64.52,-2.56 -64.52,-2.56 -9.73,-0.39 -21.55,6.15 -26.4,14.61 0,0 -22.8,39.8 -34.21,59.71 -2.12,3.7 0,0 0,0 -3.51,6.13 -0.77,13.12 5.72,15.23 0,0 -4.1,-1.14 0,0 25.79,7.14 54.29,4.56 79.54,-9.44 z m -125.19,-16.85 c 5.07,4.57 12.5,3.44 16.05,-2.67 0,0 -2.14,3.68 0,0 11.54,-19.83 34.6,-59.48 34.6,-59.48 4.9,-8.43 4.66,-21.93 -0.54,-30.17 0,0 -22.99,-36.41 -34.48,-54.6 -2.41,-3.81 -0.17,-0.27 -0.17,-0.27 -3.87,-6.13 -11.44,-7.18 -16.86,-2.27 0,0 2.02,-2.22 -1.49,1.52 -18.22,19.39 -29.2,45.62 -28.7,74.33 0.5,28.87 12.52,54.84 31.6,73.6 z"
           class="shp86"
           id="path956" />
        <path
           id="gear"
           class="shp86"
           d="m 2410.4599,123.37078 -6.45,17.23 c -0.42,1.13 0.01,2.63 0.96,3.36 l 7.59,5.81 c 0.93,0.71 2.52,0.75 3.5,0.05 l 14.96,-10.68 c 0.98,-0.7 2.47,-0.58 3.32,0.28 l 6.27,6.27 c 0.87,0.87 0.98,2.34 0.28,3.32 l -10.68,14.95 c -0.7,0.98 -0.67,2.55 0.06,3.5 l 5.82,7.59 c 0.71,0.93 2.24,1.38 3.36,0.96 l 17.21,-6.45 c 1.13,-0.42 2.53,0.08 3.13,1.13 l 4.43,7.67 c 0.62,1.07 0.34,2.51 -0.59,3.28 l -14.2,11.69 c -0.93,0.77 -1.31,2.29 -0.85,3.39 l 3.65,8.83 c 0.45,1.08 1.8,1.91 3,1.8 l 18.31,-1.78 c 1.2,-0.12 2.43,0.73 2.74,1.9 l 2.29,8.56 c 0.32,1.19 -0.32,2.51 -1.42,3.01 l -16.75,7.62 c -1.1,0.5 -1.86,1.87 -1.7,3.06 l 1.25,9.47 c 0.15,1.16 1.25,2.31 2.44,2.51 l 18.14,3.02 c 1.19,0.2 2.15,1.34 2.15,2.54 v 8.86 c 0,1.23 -0.96,2.35 -2.15,2.54 l -18.12,3.02 c -1.19,0.2 -2.28,1.32 -2.43,2.51 l -1.24,9.48 c -0.15,1.16 0.61,2.56 1.7,3.06 l 16.72,7.61 c 1.09,0.5 1.73,1.85 1.42,3.01 l -2.29,8.56 c -0.32,1.19 -1.54,2.02 -2.74,1.9 l -18.29,-1.77 c -1.2,-0.12 -2.54,0.69 -3,1.8 l -3.67,8.83 c -0.45,1.08 -0.08,2.63 0.85,3.39 l 14.2,11.69 c 0.93,0.77 1.2,2.23 0.59,3.28 l -4.43,7.67 c -0.62,1.07 -2.01,1.55 -3.14,1.13 l -17.23,-6.45 c -1.13,-0.42 -2.63,0.01 -3.36,0.96 l -5.81,7.59 c -0.71,0.93 -0.75,2.52 -0.05,3.5 l 10.68,14.96 c 0.7,0.98 0.58,2.47 -0.28,3.32 l -6.27,6.27 c -0.87,0.87 -2.34,0.98 -3.32,0.28 l -14.95,-10.68 c -0.98,-0.7 -2.55,-0.67 -3.5,0.06 l -7.59,5.82 c -0.93,0.71 -1.38,2.24 -0.96,3.36 l 6.45,17.21 c 0.42,1.13 -0.08,2.53 -1.13,3.13 l -7.67,4.43 c -1.07,0.62 -2.51,0.34 -3.28,-0.59 l -11.69,-14.2 c -0.77,-0.93 -2.29,-1.31 -3.39,-0.85 l -8.83,3.65 c -1.08,0.45 -1.91,1.8 -1.8,3 l 1.78,18.31 c 0.12,1.2 -0.73,2.43 -1.9,2.74 l -8.56,2.29 c -1.19,0.32 -2.51,-0.32 -3.01,-1.42 l -7.62,-16.75 c -0.5,-1.1 -1.87,-1.86 -3.06,-1.7 l -9.47,1.25 c -1.16,0.15 -2.31,1.25 -2.51,2.44 l -3.02,18.14 c -0.2,1.19 -1.34,2.15 -2.54,2.15 h -8.86 c -1.23,0 -2.35,-0.96 -2.54,-2.15 l -3.02,-18.12 c -0.2,-1.19 -1.32,-2.28 -2.51,-2.43 l -9.48,-1.24 c -1.16,-0.15 -2.56,0.61 -3.06,1.7 l -7.61,16.72 c -0.5,1.09 -1.85,1.73 -3.01,1.42 l -8.56,-2.29 c -1.19,-0.32 -2.02,-1.54 -1.9,-2.74 l 1.77,-18.29 c 0.12,-1.2 -0.69,-2.54 -1.8,-3 l -8.83,-3.67 c -1.08,-0.45 -2.63,-0.08 -3.39,0.85 l -11.69,14.2 c -0.77,0.93 -2.23,1.2 -3.28,0.59 l -7.67,-4.43 c -1.07,-0.62 -1.55,-2.01 -1.13,-3.14 l 6.45,-17.23 c 0.42,-1.13 -0.01,-2.63 -0.96,-3.36 l -7.59,-5.81 c -0.93,-0.71 -2.52,-0.75 -3.5,-0.05 l -14.96,10.68 c -0.98,0.7 -2.47,0.58 -3.32,-0.28 l -6.27,-6.27 c -0.87,-0.87 -0.98,-2.34 -0.28,-3.32 l 10.68,-14.95 c 0.7,-0.98 0.67,-2.55 -0.06,-3.5 l -5.82,-7.59 c -0.71,-0.93 -2.24,-1.38 -3.36,-0.96 l -17.21,6.45 c -1.13,0.42 -2.53,-0.08 -3.13,-1.13 l -4.43,-7.67 c -0.62,-1.07 -0.34,-2.51 0.59,-3.28 l 14.2,-11.69 c 0.93,-0.77 1.31,-2.29 0.85,-3.39 l -3.65,-8.83 c -0.45,-1.08 -1.8,-1.91 -3,-1.8 l -18.31,1.78 c -1.2,0.12 -2.43,-0.73 -2.74,-1.9 l -2.29,-8.56 c -0.32,-1.19 0.32,-2.51 1.42,-3.01 l 16.75,-7.62 c 1.1,-0.5 1.86,-1.87 1.7,-3.06 l -1.25,-9.47 c -0.15,-1.16 -1.25,-2.31 -2.44,-2.51 l -18.14,-3.02 c -1.19,-0.2 -2.15,-1.34 -2.15,-2.54 v -8.86 c 0,-1.23 0.96,-2.35 2.15,-2.54 l 18.12,-3.02 c 1.19,-0.2 2.28,-1.32 2.43,-2.51 l 1.24,-9.48 c 0.15,-1.16 -0.61,-2.56 -1.7,-3.06 l -16.72,-7.61 c -1.09,-0.5 -1.73,-1.85 -1.42,-3.01 l 2.29,-8.56 c 0.32,-1.19 1.54,-2.02 2.74,-1.9 l 18.29,1.77 c 1.2,0.12 2.54,-0.69 3,-1.8 l 3.67,-8.83 c 0.45,-1.08 0.08,-2.63 -0.85,-3.39 l -14.2,-11.69 c -0.93,-0.77 -1.2,-2.23 -0.59,-3.28 l 4.43,-7.67 c 0.62,-1.07 2.01,-1.55 3.14,-1.13 l 17.23,6.45 c 1.13,0.42 2.63,-0.01 3.36,-0.96 l 5.81,-7.59 c 0.71,-0.93 0.75,-2.52 0.05,-3.5 l -10.68,-14.96 c -0.7,-0.98 -0.58,-2.47 0.28,-3.32 l 6.27,-6.27 c 0.87,-0.87 2.34,-0.98 3.32,-0.28 l 14.95,10.68 c 0.98,0.7 2.55,0.67 3.5,-0.06 l 7.59,-5.82 c 0.93,-0.71 1.38,-2.24 0.96,-3.36 l -6.45,-17.21 c -0.42,-1.13 0.08,-2.53 1.13,-3.13 l 7.67,-4.43 c 1.07,-0.62 2.51,-0.34 3.28,0.59 l 11.69,14.2 c 0.77,0.93 2.29,1.31 3.39,0.85 l 8.83,-3.65 c 1.08,-0.45 1.91,-1.8 1.8,-3 l -1.78,-18.30999 c -0.12,-1.2 0.73,-2.43 1.9,-2.74 l 8.56,-2.29 c 1.19,-0.32 2.51,0.32 3.01,1.42 l 7.62,16.74999 c 0.5,1.1 1.87,1.86 3.06,1.7 l 9.47,-1.25 c 1.16,-0.15 2.31,-1.25 2.51,-2.44 l 3.02,-18.139993 c 0.2,-1.19 1.34,-2.15 2.54,-2.15 h 8.86 c 1.23,0 2.35,0.96 2.54,2.15 l 3.02,18.119993 c 0.2,1.19 1.32,2.28 2.51,2.43 l 9.48,1.24 c 1.16,0.15 2.56,-0.61 3.06,-1.7 l 7.61,-16.71999 c 0.5,-1.09 1.85,-1.73 3.01,-1.42 l 8.56,2.29 c 1.19,0.32 2.02,1.54 1.9,2.74 l -1.77,18.28999 c -0.12,1.2 0.69,2.54 1.8,3 l 8.83,3.67 c 1.08,0.45 2.63,0.08 3.39,-0.85 l 11.69,-14.2 c 0.77,-0.93 2.23,-1.2 3.28,-0.59 l 7.67,4.43 c 1.07,0.62 1.55,2.01 1.13,3.14 z m -29.36,36.71 c -24.86,-14.36 -53.13,-17.48 -78.92,-10.94 -4.97,1.26 -2.05,0.57 -2.05,0.57 -6.92,2.36 -9.68,9.49 -6.19,15.85 0,0 -2.01,-3.67 0.16,0.28 10.34,18.87 31.04,56.63 31.04,56.63 4.68,8.54 16.37,15.3 26.12,15.1 0,0 45.86,-0.95 68.8,-1.43 4.26,-0.09 0,0 0,0 7.06,-0.15 11.65,-6.09 10.11,-12.74 -7.16,-25.78 -24.05,-48.88 -49.06,-63.32 z m -1.73,184.17 c 25.11,-13.92 42.34,-36.54 50.02,-62.02 1.48,-4.91 0.57,-2.05 0.57,-2.05 1.54,-7.15 -3.15,-13.18 -10.4,-13.47 0,0 4.18,0.17 -0.32,-0.01 -21.5,-0.85 -64.52,-2.56 -64.52,-2.56 -9.73,-0.39 -21.55,6.15 -26.4,14.61 0,0 -22.8,39.8 -34.21,59.71 -2.12,3.7 0,0 0,0 -3.51,6.13 -0.77,13.12 5.72,15.23 0,0 -4.1,-1.14 0,0 25.79,7.14 54.29,4.56 79.54,-9.44 z m -125.19,-16.85 c 5.07,4.57 12.5,3.44 16.05,-2.67 0,0 -2.14,3.68 0,0 11.54,-19.83 34.6,-59.48 34.6,-59.48 4.9,-8.43 4.66,-21.93 -0.54,-30.17 0,0 -22.99,-36.41 -34.48,-54.6 -2.41,-3.81 -0.17,-0.27 -0.17,-0.27 -3.87,-6.13 -11.44,-7.18 -16.86,-2.27 0,0 2.02,-2.22 -1.49,1.52 -18.22,19.39 -29.2,45.62 -28.7,74.33 0.5,28.87 12.52,54.84 31.6,73.6 z"
           style="fill:url(#grd68-9);fill-opacity:1"
           inkscape:connector-curvature="0" />
      </g>
    </g>
    <g
       inkscape:groupmode="layer"
       id="layer4"
       inkscape:label="Borders"
       style="display:inline;opacity:1" />
    <g
       inkscape:groupmode="layer"
       id="layer5"
       inkscape:label="Highlights"
       style="opacity:0.7" />
  </g>
</svg>
