<?xml version="1.0" encoding="UTF-8" standalone="no"?>
<svg
   inkscape:export-ydpi="90.000000"
   inkscape:export-xdpi="90.000000"
   width="400"
   height="300"
   id="svg11300"
   sodipodi:version="0.32"
   inkscape:version="1.2.2 (b0a8486541, 2022-12-01)"
   sodipodi:docname="software-store.svg"
   inkscape:output_extension="org.inkscape.output.svg.inkscape"
   version="1.0"
   style="display:inline;enable-background:new"
   inkscape:export-filename="/home/sam/suru-template.png"
   xmlns:inkscape="http://www.inkscape.org/namespaces/inkscape"
   xmlns:sodipodi="http://sodipodi.sourceforge.net/DTD/sodipodi-0.dtd"
   xmlns:xlink="http://www.w3.org/1999/xlink"
   xmlns="http://www.w3.org/2000/svg"
   xmlns:svg="http://www.w3.org/2000/svg"
   xmlns:rdf="http://www.w3.org/1999/02/22-rdf-syntax-ns#"
   xmlns:cc="http://creativecommons.org/ns#"
   xmlns:dc="http://purl.org/dc/elements/1.1/">
  <title
     id="title3004">Suru Icon Theme Template</title>
  <sodipodi:namedview
     stroke="#ef2929"
     fill="#f57900"
     id="base"
     pagecolor="#ffffff"
     bordercolor="#000000"
     borderopacity="0.25490196"
     inkscape:pageopacity="0"
     inkscape:pageshadow="2"
     inkscape:zoom="1.4142136"
     inkscape:cx="260.2153"
     inkscape:cy="84.145707"
     inkscape:current-layer="layer6"
     showgrid="false"
     inkscape:grid-bbox="true"
     inkscape:document-units="px"
     inkscape:showpageshadow="false"
     inkscape:window-width="1920"
     inkscape:window-height="1020"
     inkscape:window-x="0"
     inkscape:window-y="32"
     width="400px"
     height="300px"
     inkscape:snap-nodes="true"
     inkscape:snap-bbox="true"
     gridtolerance="10000"
     inkscape:object-nodes="true"
     inkscape:snap-grids="true"
     showguides="true"
     inkscape:guide-bbox="true"
     inkscape:window-maximized="1"
     inkscape:bbox-paths="true"
     inkscape:snap-bbox-midpoints="true"
     inkscape:snap-global="true"
     inkscape:object-paths="true"
     inkscape:snap-intersection-paths="true"
     inkscape:snap-smooth-nodes="true"
     inkscape:pagecheckerboard="false"
     showborder="false"
     inkscape:document-rotation="0"
     inkscape:deskcolor="#d1d1d1">
    <inkscape:grid
       spacingy="1"
       spacingx="1"
       id="grid5883"
       type="xygrid"
       enabled="true"
       visible="true"
       empspacing="4"
       snapvisiblegridlinesonly="true"
       originx="0"
       originy="0" />
    <inkscape:grid
       type="xygrid"
       id="grid11592"
       empspacing="2"
       visible="true"
       enabled="false"
       spacingx="0.5"
       spacingy="0.5"
       color="#ff0000"
       opacity="0.1254902"
       empcolor="#ff0000"
       empopacity="0.25098039"
       snapvisiblegridlinesonly="true"
       originx="0"
       originy="0" />
  </sodipodi:namedview>
  <defs
     id="defs3">
    <linearGradient
       id="linearGradient940">
      <stop
         id="stop936"
         offset="0"
         style="stop-color:#f6f7f7;stop-opacity:1" />
      <stop
         id="stop938"
         offset="1"
         style="stop-color:#dce7f0;stop-opacity:1" />
    </linearGradient>
    <linearGradient
       inkscape:collect="always"
       xlink:href="#linearGradient1197"
       id="linearGradient1199"
       x1="540.14288"
       y1="29.770346"
       x2="540.14288"
       y2="1054.9744"
       gradientUnits="userSpaceOnUse"
       gradientTransform="matrix(0.22741108,0,0,0.22741108,35.565526,33.115668)" />
    <linearGradient
       inkscape:collect="always"
       id="linearGradient1197">
      <stop
         style="stop-color:#ffffff;stop-opacity:0.58823532"
         offset="0"
         id="stop1193" />
      <stop
         style="stop-color:#ffffff;stop-opacity:0"
         offset="1"
         id="stop1195" />
    </linearGradient>
    <linearGradient
       inkscape:collect="always"
       xlink:href="#linearGradient940"
       id="linearGradient1005"
       gradientUnits="userSpaceOnUse"
       x1="-248.92"
       y1="400.46124"
       x2="-248.92"
       y2="666.86127"
       gradientTransform="matrix(2.027027,0,0,2.027027,1119.0831,-444.41452)" />
    <filter
       style="color-interpolation-filters:sRGB"
       inkscape:label="Drop Shadow"
       id="filter1053-7"
       x="-0.011999849"
       y="-0.013386946"
       width="1.0239997"
       height="1.0323518">
      <feFlood
         flood-opacity="0.294118"
         flood-color="rgb(0,0,0)"
         result="flood"
         id="feFlood1042-5" />
      <feComposite
         in="flood"
         in2="SourceGraphic"
         operator="in"
         result="composite1"
         id="feComposite1044-3" />
      <feGaussianBlur
         in="composite1"
         stdDeviation="3"
         result="blur"
         id="feGaussianBlur1047-5" />
      <feOffset
         dx="0"
         dy="3"
         result="offset"
         id="feOffset1049-6" />
      <feComposite
         in="SourceGraphic"
         in2="offset"
         operator="over"
         result="composite2"
         id="feComposite1051-2" />
    </filter>
    <linearGradient
       inkscape:collect="always"
       xlink:href="#linearGradient1346"
       id="linearGradient4835"
       x1="97.551018"
       y1="-3.6734703"
       x2="97.551018"
       y2="204.48979"
       gradientUnits="userSpaceOnUse"
       gradientTransform="matrix(1.1199996,0,0,1.1199996,40.000026,44.00006)" />
    <linearGradient
       inkscape:collect="always"
       id="linearGradient1346">
      <stop
         style="stop-color:#00b8ff;stop-opacity:1"
         offset="0"
         id="stop1342" />
      <stop
         style="stop-color:#007bff;stop-opacity:1"
         offset="1"
         id="stop1344" />
    </linearGradient>
    <linearGradient
       inkscape:collect="always"
       xlink:href="#linearGradient1197"
       id="linearGradient920"
       gradientUnits="userSpaceOnUse"
       gradientTransform="matrix(0.04670049,0,0,0.04670049,320.08935,58.764827)"
       x1="540.14288"
       y1="29.770346"
       x2="540.14288"
       y2="1054.9744" />
    <linearGradient
       inkscape:collect="always"
       xlink:href="#linearGradient940"
       id="linearGradient922"
       gradientUnits="userSpaceOnUse"
       gradientTransform="matrix(2.027027,0,0,2.027027,1119.0831,-444.41452)"
       x1="-248.92"
       y1="400.46124"
       x2="-248.92"
       y2="666.86127" />
    <linearGradient
       inkscape:collect="always"
       xlink:href="#linearGradient1346"
       id="linearGradient924"
       gradientUnits="userSpaceOnUse"
       gradientTransform="matrix(0.22999993,0,0,0.22999993,321,61.000015)"
       x1="97.551018"
       y1="-3.6734703"
       x2="97.551018"
       y2="204.48979" />
    <linearGradient
       inkscape:collect="always"
       xlink:href="#linearGradient1197"
       id="linearGradient932"
       gradientUnits="userSpaceOnUse"
       gradientTransform="matrix(0.03045684,0,0,0.03045684,320.4061,131.54228)"
       x1="540.14288"
       y1="29.770346"
       x2="540.14288"
       y2="1054.9744" />
    <linearGradient
       inkscape:collect="always"
       xlink:href="#linearGradient940"
       id="linearGradient934"
       gradientUnits="userSpaceOnUse"
       gradientTransform="matrix(2.027027,0,0,2.027027,1119.0831,-444.41452)"
       x1="-248.92"
       y1="400.46124"
       x2="-248.92"
       y2="666.86127" />
    <linearGradient
       inkscape:collect="always"
       xlink:href="#linearGradient1346"
       id="linearGradient936"
       gradientUnits="userSpaceOnUse"
       gradientTransform="matrix(0.14999996,0,0,0.14999996,321,133.00001)"
       x1="97.551018"
       y1="-3.6734703"
       x2="97.551018"
       y2="204.48979" />
    <linearGradient
       inkscape:collect="always"
       xlink:href="#linearGradient1197"
       id="linearGradient944"
       gradientUnits="userSpaceOnUse"
       gradientTransform="matrix(0.02335024,0,0,0.02335024,320.04468,187.38241)"
       x1="540.14288"
       y1="29.770346"
       x2="540.14288"
       y2="1054.9744" />
    <linearGradient
       inkscape:collect="always"
       xlink:href="#linearGradient940"
       id="linearGradient946"
       gradientUnits="userSpaceOnUse"
       gradientTransform="matrix(2.027027,0,0,2.027027,1119.0831,-444.41452)"
       x1="-248.92"
       y1="400.46124"
       x2="-248.92"
       y2="666.86127" />
    <linearGradient
       inkscape:collect="always"
       xlink:href="#linearGradient1346"
       id="linearGradient948"
       gradientUnits="userSpaceOnUse"
       gradientTransform="matrix(0.11499997,0,0,0.11499997,320.5,188.50001)"
       x1="97.551018"
       y1="-3.6734703"
       x2="97.551018"
       y2="204.48979" />
    <linearGradient
       inkscape:collect="always"
       xlink:href="#linearGradient1197"
       id="linearGradient956"
       gradientUnits="userSpaceOnUse"
       gradientTransform="matrix(0.01522842,0,0,0.01522842,320.20306,235.77114)"
       x1="540.14288"
       y1="29.770346"
       x2="540.14288"
       y2="1054.9744" />
    <linearGradient
       inkscape:collect="always"
       xlink:href="#linearGradient940"
       id="linearGradient958"
       gradientUnits="userSpaceOnUse"
       gradientTransform="matrix(2.027027,0,0,2.027027,1119.0831,-444.41452)"
       x1="-248.92"
       y1="400.46124"
       x2="-248.92"
       y2="666.86127" />
    <linearGradient
       inkscape:collect="always"
       xlink:href="#linearGradient1346"
       id="linearGradient960"
       gradientUnits="userSpaceOnUse"
       gradientTransform="matrix(0.07499998,0,0,0.07499998,320.50001,236.50001)"
       x1="97.551018"
       y1="-3.6734703"
       x2="97.551018"
       y2="204.48979" />
  </defs>
  <metadata
     id="metadata4">
    <rdf:RDF>
      <cc:Work
         rdf:about="">
        <dc:format>image/svg+xml</dc:format>
        <dc:type
           rdf:resource="http://purl.org/dc/dcmitype/StillImage" />
        <dc:creator>
          <cc:Agent>
            <dc:title>Sam Hewitt</dc:title>
          </cc:Agent>
        </dc:creator>
        <dc:source />
        <cc:license
           rdf:resource="http://creativecommons.org/licenses/by-sa/4.0/" />
        <dc:title>Suru Icon Theme Template</dc:title>
        <dc:subject>
          <rdf:Bag />
        </dc:subject>
        <dc:date />
        <dc:rights>
          <cc:Agent>
            <dc:title />
          </cc:Agent>
        </dc:rights>
        <dc:publisher>
          <cc:Agent>
            <dc:title />
          </cc:Agent>
        </dc:publisher>
        <dc:identifier />
        <dc:relation />
        <dc:language />
        <dc:coverage />
        <dc:description />
        <dc:contributor>
          <cc:Agent>
            <dc:title />
          </cc:Agent>
        </dc:contributor>
      </cc:Work>
      <cc:Work
         rdf:about="">
        <dc:format>image/svg+xml</dc:format>
        <dc:type
           rdf:resource="http://purl.org/dc/dcmitype/StillImage" />
      </cc:Work>
      <cc:License
         rdf:about="http://creativecommons.org/licenses/by-sa/4.0/">
        <cc:permits
           rdf:resource="http://creativecommons.org/ns#Reproduction" />
        <cc:permits
           rdf:resource="http://creativecommons.org/ns#Distribution" />
        <cc:requires
           rdf:resource="http://creativecommons.org/ns#Notice" />
        <cc:requires
           rdf:resource="http://creativecommons.org/ns#Attribution" />
        <cc:permits
           rdf:resource="http://creativecommons.org/ns#DerivativeWorks" />
        <cc:requires
           rdf:resource="http://creativecommons.org/ns#ShareAlike" />
      </cc:License>
    </rdf:RDF>
  </metadata>
  <g
     style="display:inline"
     inkscape:groupmode="layer"
     inkscape:label="Icon"
     id="layer1">
    <g
       style="display:none"
       inkscape:label="Baseplate"
       id="layer7"
       inkscape:groupmode="layer">
      <text
         y="-8.2548828"
         xml:space="preserve"
         x="19.006836"
         style="font-style:normal;font-variant:normal;font-weight:normal;font-stretch:normal;line-height:0%;font-family:'DejaVu Sans';-inkscape-font-specification:'DejaVu Sans';display:inline;fill:#000000;fill-opacity:1;stroke:none;enable-background:new"
         inkscape:label="context"
         id="context"><tspan
           style="font-style:normal;font-variant:normal;font-weight:normal;font-stretch:normal;font-size:18px;line-height:1.25;font-family:'DejaVu Sans';-inkscape-font-specification:'DejaVu Sans'"
           y="-8.2548828"
           x="19.006836"
           sodipodi:role="line"
           id="tspan3933">apps</tspan></text>
      <text
         y="-8.2548828"
         xml:space="preserve"
         x="146.48828"
         style="font-style:normal;font-variant:normal;font-weight:bold;font-stretch:normal;line-height:0%;font-family:'DejaVu Sans';-inkscape-font-specification:'DejaVu Sans Bold';text-align:start;writing-mode:lr-tb;text-anchor:start;display:inline;fill:#000000;fill-opacity:1;stroke:none;enable-background:new"
         inkscape:label="icon-name"
         id="icon-name"><tspan
           style="font-style:normal;font-variant:normal;font-weight:bold;font-stretch:normal;font-size:18px;line-height:1.25;font-family:'DejaVu Sans';-inkscape-font-specification:'DejaVu Sans Bold'"
           y="-8.2548828"
           x="146.48828"
           sodipodi:role="line"
           id="tspan924">software-store</tspan></text>
      <rect
         style="display:inline;overflow:visible;visibility:visible;fill:#cdcdcd;fill-opacity:1;fill-rule:nonzero;stroke:none;stroke-width:2;marker:none;enable-background:accumulate"
         id="rect16x16"
         width="16"
         height="16"
         x="320"
         y="236"
         inkscape:label="16x16" />
      <rect
         style="display:inline;overflow:visible;visibility:visible;fill:#cdcdcd;fill-opacity:1;fill-rule:nonzero;stroke:none;stroke-width:2;marker:none;enable-background:accumulate"
         id="rect24x24"
         width="24"
         height="24"
         x="320"
         y="188"
         inkscape:label="24x24" />
      <rect
         style="display:inline;overflow:visible;visibility:visible;fill:#cdcdcd;fill-opacity:1;fill-rule:nonzero;stroke:none;stroke-width:2;marker:none;enable-background:accumulate"
         id="rect32x32"
         width="32"
         height="32"
         x="320"
         y="132"
         inkscape:label="32x32" />
      <rect
         inkscape:label="48x48"
         y="60"
         x="320"
         height="48"
         width="48"
         id="rect48x48"
         style="display:inline;overflow:visible;visibility:visible;fill:#cdcdcd;fill-opacity:1;fill-rule:nonzero;stroke:none;stroke-width:2;marker:none;enable-background:accumulate" />
      <rect
         style="display:inline;overflow:visible;visibility:visible;fill:#cdcdcd;fill-opacity:1;fill-rule:nonzero;stroke:none;stroke-width:2;marker:none;enable-background:accumulate"
         id="rect256x256"
         width="256"
         height="256"
         x="24"
         y="28"
         inkscape:label="256x256" />
    </g>
    <g
       inkscape:groupmode="layer"
       id="layer2"
       inkscape:label="Background"
       style="display:inline">
      <circle
         style="color:#000000;display:inline;overflow:visible;visibility:visible;fill:url(#linearGradient4835);fill-opacity:1;fill-rule:nonzero;stroke:none;stroke-width:10.2305;marker:none;enable-background:accumulate"
         id="path4188"
         cx="152"
         cy="156"
         r="111.99995" />
      <circle
         r="111.43143"
         cy="156"
         cx="152"
         id="circle1191"
         style="color:#000000;display:inline;overflow:visible;visibility:visible;fill:none;fill-opacity:1;fill-rule:nonzero;stroke:url(#linearGradient1199);stroke-width:1.13714;stroke-miterlimit:4;stroke-dasharray:none;marker:none;enable-background:accumulate" />
      <circle
         style="color:#000000;display:inline;overflow:visible;visibility:visible;fill:url(#linearGradient924);fill-opacity:1;fill-rule:nonzero;stroke:none;stroke-width:2.10091;marker:none;enable-background:accumulate"
         id="circle914"
         cx="344"
         cy="84"
         r="22.99999" />
      <circle
         r="22.88324"
         cy="84"
         cx="344"
         id="circle918"
         style="color:#000000;display:inline;overflow:visible;visibility:visible;fill:none;fill-opacity:1;fill-rule:nonzero;stroke:url(#linearGradient920);stroke-width:0.23352;stroke-miterlimit:4;stroke-dasharray:none;marker:none;enable-background:accumulate" />
      <circle
         style="color:#000000;display:inline;overflow:visible;visibility:visible;fill:url(#linearGradient936);fill-opacity:1;fill-rule:nonzero;stroke:none;stroke-width:1.37016;marker:none;enable-background:accumulate"
         id="circle926"
         cx="336"
         cy="148"
         r="14.999994" />
      <circle
         r="14.923852"
         cy="148"
         cx="336"
         id="circle930"
         style="color:#000000;display:inline;overflow:visible;visibility:visible;fill:none;fill-opacity:1;fill-rule:nonzero;stroke:url(#linearGradient932);stroke-width:0.152296;stroke-miterlimit:4;stroke-dasharray:none;marker:none;enable-background:accumulate" />
      <circle
         style="color:#000000;display:inline;overflow:visible;visibility:visible;fill:url(#linearGradient948);fill-opacity:1;fill-rule:nonzero;stroke:none;stroke-width:1.05046;marker:none;enable-background:accumulate"
         id="circle938"
         cx="332"
         cy="200"
         r="11.499995" />
      <circle
         r="11.44162"
         cy="200"
         cx="332"
         id="circle942"
         style="color:#000000;display:inline;overflow:visible;visibility:visible;fill:none;fill-opacity:1;fill-rule:nonzero;stroke:url(#linearGradient944);stroke-width:0.11676;stroke-miterlimit:4;stroke-dasharray:none;marker:none;enable-background:accumulate" />
      <circle
         style="color:#000000;display:inline;overflow:visible;visibility:visible;fill:url(#linearGradient960);fill-opacity:1;fill-rule:nonzero;stroke:none;stroke-width:0.685083;marker:none;enable-background:accumulate"
         id="circle950"
         cx="328"
         cy="244"
         r="7.4999971" />
      <circle
         r="7.461926"
         cy="244"
         cx="328"
         id="circle954"
         style="color:#000000;display:inline;overflow:visible;visibility:visible;fill:none;fill-opacity:1;fill-rule:nonzero;stroke:url(#linearGradient956);stroke-width:0.0761478;stroke-miterlimit:4;stroke-dasharray:none;marker:none;enable-background:accumulate" />
    </g>
    <g
       inkscape:groupmode="layer"
       id="layer6"
       inkscape:label="Pictogram"
       style="display:inline">
      <path
         id="shape-3"
         style="display:inline;enable-background:new;fill:url(#linearGradient1005);fill-opacity:1;stroke-width:2.02703;filter:url(#filter1053-7)"
         d="m 575.3874,366.42501 c -6.0442,0.1577 -12.15035,1.78752 -17.75635,5.02441 -17.93918,10.3581 -24.08125,33.27911 -13.72315,51.21828 l 38.33253,66.37698 -122.55132,212.29012 h -95.66898 c -20.71619,0 -37.51222,16.79603 -37.51222,37.51223 0,20.71619 16.79603,37.49513 37.51222,37.49513 H 705.08228 C 721.56199,745.69354 700.32421,701.3348 662.68236,701.3348 H 546.2663 L 707.15015,422.6677 c 10.3581,-17.93917 4.21602,-40.86018 -13.72315,-51.21828 -17.93916,-10.35809 -40.86018,-4.21602 -51.21828,13.72315 0,0 -8.31781,28.83683 -16.66261,28.88185 -8.33107,0 -16.67969,-28.88185 -16.67969,-28.88185 -7.12118,-12.33319 -20.18177,-19.09465 -33.47902,-18.74756 z m 105.5811,143.58892 c -22.17566,18.32431 -44.60272,72.73877 -13.24464,127.06304 46.23645,80.06749 92.46796,160.16453 138.68414,240.23202 10.35809,17.93918 33.29621,24.08124 51.23537,13.72315 17.93917,-10.3581 24.08125,-33.27911 13.72315,-51.21828 l -36.65773,-63.48879 h 54.31155 c 20.71618,0 37.49513,-16.77893 37.49513,-37.49513 0,-20.71619 -16.77895,-37.51223 -37.49513,-37.51223 H 791.4202 C 754.60943,637.54751 717.77927,573.78414 680.9685,510.01393 Z M 437.06215,788.20251 c -11.37303,0.50888 -22.01044,6.35026 -27.92481,16.59425 l -26.96779,46.72365 c -9.46299,16.39039 -3.14395,37.63465 14.16749,47.62941 17.31144,9.99477 38.8671,4.85474 48.3301,-11.53565 l 26.96778,-46.72365 c 9.46299,-16.39039 3.14395,-37.63465 -14.16749,-47.62941 -6.49179,-3.74804 -13.58146,-5.36392 -20.40528,-5.0586 z"
         transform="matrix(0.22857134,0,0,0.22857134,10.682141,3.0074634)" />
      <path
         id="path916"
         style="display:inline;enable-background:new;fill:url(#linearGradient922);fill-opacity:1;stroke-width:2.02703;filter:url(#filter1053-7)"
         d="m 575.3874,366.42501 c -6.0442,0.1577 -12.15035,1.78752 -17.75635,5.02441 -17.93918,10.3581 -24.08125,33.27911 -13.72315,51.21828 l 38.33253,66.37698 -122.55132,212.29012 h -95.66898 c -20.71619,0 -37.51222,16.79603 -37.51222,37.51223 0,20.71619 16.79603,37.49513 37.51222,37.49513 H 705.08228 C 721.56199,745.69354 700.32421,701.3348 662.68236,701.3348 H 546.2663 L 707.15015,422.6677 c 10.3581,-17.93917 4.21602,-40.86018 -13.72315,-51.21828 -17.93916,-10.35809 -40.86018,-4.21602 -51.21828,13.72315 0,0 -8.31781,28.83683 -16.66261,28.88185 -8.33107,0 -16.67969,-28.88185 -16.67969,-28.88185 -7.12118,-12.33319 -20.18177,-19.09465 -33.47902,-18.74756 z m 105.5811,143.58892 c -22.17566,18.32431 -44.60272,72.73877 -13.24464,127.06304 46.23645,80.06749 92.46796,160.16453 138.68414,240.23202 10.35809,17.93918 33.29621,24.08124 51.23537,13.72315 17.93917,-10.3581 24.08125,-33.27911 13.72315,-51.21828 l -36.65773,-63.48879 h 54.31155 c 20.71618,0 37.49513,-16.77893 37.49513,-37.49513 0,-20.71619 -16.77895,-37.51223 -37.49513,-37.51223 H 791.4202 C 754.60943,637.54751 717.77927,573.78414 680.9685,510.01393 Z M 437.06215,788.20251 c -11.37303,0.50888 -22.01044,6.35026 -27.92481,16.59425 l -26.96779,46.72365 c -9.46299,16.39039 -3.14395,37.63465 14.16749,47.62941 17.31144,9.99477 38.8671,4.85474 48.3301,-11.53565 l 26.96778,-46.72365 c 9.46299,-16.39039 3.14395,-37.63465 -14.16749,-47.62941 -6.49179,-3.74804 -13.58146,-5.36392 -20.40528,-5.0586 z"
         transform="matrix(0.04693876,0,0,0.04693876,314.97937,52.581892)" />
      <path
         id="path928"
         style="display:inline;enable-background:new;fill:url(#linearGradient934);fill-opacity:1;stroke-width:2.02703;filter:url(#filter1053-7)"
         d="m 575.3874,366.42501 c -6.0442,0.1577 -12.15035,1.78752 -17.75635,5.02441 -17.93918,10.3581 -24.08125,33.27911 -13.72315,51.21828 l 38.33253,66.37698 -122.55132,212.29012 h -95.66898 c -20.71619,0 -37.51222,16.79603 -37.51222,37.51223 0,20.71619 16.79603,37.49513 37.51222,37.49513 H 705.08228 C 721.56199,745.69354 700.32421,701.3348 662.68236,701.3348 H 546.2663 L 707.15015,422.6677 c 10.3581,-17.93917 4.21602,-40.86018 -13.72315,-51.21828 -17.93916,-10.35809 -40.86018,-4.21602 -51.21828,13.72315 0,0 -8.31781,28.83683 -16.66261,28.88185 -8.33107,0 -16.67969,-28.88185 -16.67969,-28.88185 -7.12118,-12.33319 -20.18177,-19.09465 -33.47902,-18.74756 z m 105.5811,143.58892 c -22.17566,18.32431 -44.60272,72.73877 -13.24464,127.06304 46.23645,80.06749 92.46796,160.16453 138.68414,240.23202 10.35809,17.93918 33.29621,24.08124 51.23537,13.72315 17.93917,-10.3581 24.08125,-33.27911 13.72315,-51.21828 l -36.65773,-63.48879 h 54.31155 c 20.71618,0 37.49513,-16.77893 37.49513,-37.49513 0,-20.71619 -16.77895,-37.51223 -37.49513,-37.51223 H 791.4202 C 754.60943,637.54751 717.77927,573.78414 680.9685,510.01393 Z M 437.06215,788.20251 c -11.37303,0.50888 -22.01044,6.35026 -27.92481,16.59425 l -26.96779,46.72365 c -9.46299,16.39039 -3.14395,37.63465 14.16749,47.62941 17.31144,9.99477 38.8671,4.85474 48.3301,-11.53565 l 26.96778,-46.72365 c 9.46299,-16.39039 3.14395,-37.63465 -14.16749,-47.62941 -6.49179,-3.74804 -13.58146,-5.36392 -20.40528,-5.0586 z"
         transform="matrix(0.03061224,0,0,0.03061224,317.0735,127.50993)" />
      <path
         id="path940"
         style="display:inline;enable-background:new;fill:url(#linearGradient946);fill-opacity:1;stroke-width:2.02703;filter:url(#filter1053-7)"
         d="m 575.3874,366.42501 c -6.0442,0.1577 -12.15035,1.78752 -17.75635,5.02441 -17.93918,10.3581 -24.08125,33.27911 -13.72315,51.21828 l 38.33253,66.37698 -122.55132,212.29012 h -95.66898 c -20.71619,0 -37.51222,16.79603 -37.51222,37.51223 0,20.71619 16.79603,37.49513 37.51222,37.49513 H 705.08228 C 721.56199,745.69354 700.32421,701.3348 662.68236,701.3348 H 546.2663 L 707.15015,422.6677 c 10.3581,-17.93917 4.21602,-40.86018 -13.72315,-51.21828 -17.93916,-10.35809 -40.86018,-4.21602 -51.21828,13.72315 0,0 -8.31781,28.83683 -16.66261,28.88185 -8.33107,0 -16.67969,-28.88185 -16.67969,-28.88185 -7.12118,-12.33319 -20.18177,-19.09465 -33.47902,-18.74756 z m 105.5811,143.58892 c -22.17566,18.32431 -44.60272,72.73877 -13.24464,127.06304 46.23645,80.06749 92.46796,160.16453 138.68414,240.23202 10.35809,17.93918 33.29621,24.08124 51.23537,13.72315 17.93917,-10.3581 24.08125,-33.27911 13.72315,-51.21828 l -36.65773,-63.48879 h 54.31155 c 20.71618,0 37.49513,-16.77893 37.49513,-37.49513 0,-20.71619 -16.77895,-37.51223 -37.49513,-37.51223 H 791.4202 C 754.60943,637.54751 717.77927,573.78414 680.9685,510.01393 Z M 437.06215,788.20251 c -11.37303,0.50888 -22.01044,6.35026 -27.92481,16.59425 l -26.96779,46.72365 c -9.46299,16.39039 -3.14395,37.63465 14.16749,47.62941 17.31144,9.99477 38.8671,4.85474 48.3301,-11.53565 l 26.96778,-46.72365 c 9.46299,-16.39039 3.14395,-37.63465 -14.16749,-47.62941 -6.49179,-3.74804 -13.58146,-5.36392 -20.40528,-5.0586 z"
         transform="matrix(0.02346938,0,0,0.02346938,317.48968,184.29095)" />
      <path
         id="path952"
         style="display:inline;enable-background:new;fill:url(#linearGradient958);fill-opacity:1;stroke-width:2.02703;filter:url(#filter1053-7)"
         d="m 575.3874,366.42501 c -6.0442,0.1577 -12.15035,1.78752 -17.75635,5.02441 -17.93918,10.3581 -24.08125,33.27911 -13.72315,51.21828 l 38.33253,66.37698 -122.55132,212.29012 h -95.66898 c -20.71619,0 -37.51222,16.79603 -37.51222,37.51223 0,20.71619 16.79603,37.49513 37.51222,37.49513 H 705.08228 C 721.56199,745.69354 700.32421,701.3348 662.68236,701.3348 H 546.2663 L 707.15015,422.6677 c 10.3581,-17.93917 4.21602,-40.86018 -13.72315,-51.21828 -17.93916,-10.35809 -40.86018,-4.21602 -51.21828,13.72315 0,0 -8.31781,28.83683 -16.66261,28.88185 -8.33107,0 -16.67969,-28.88185 -16.67969,-28.88185 -7.12118,-12.33319 -20.18177,-19.09465 -33.47902,-18.74756 z m 105.5811,143.58892 c -22.17566,18.32431 -44.60272,72.73877 -13.24464,127.06304 46.23645,80.06749 92.46796,160.16453 138.68414,240.23202 10.35809,17.93918 33.29621,24.08124 51.23537,13.72315 17.93917,-10.3581 24.08125,-33.27911 13.72315,-51.21828 l -36.65773,-63.48879 h 54.31155 c 20.71618,0 37.49513,-16.77893 37.49513,-37.49513 0,-20.71619 -16.77895,-37.51223 -37.49513,-37.51223 H 791.4202 C 754.60943,637.54751 717.77927,573.78414 680.9685,510.01393 Z M 437.06215,788.20251 c -11.37303,0.50888 -22.01044,6.35026 -27.92481,16.59425 l -26.96779,46.72365 c -9.46299,16.39039 -3.14395,37.63465 14.16749,47.62941 17.31144,9.99477 38.8671,4.85474 48.3301,-11.53565 l 26.96778,-46.72365 c 9.46299,-16.39039 3.14395,-37.63465 -14.16749,-47.62941 -6.49179,-3.74804 -13.58146,-5.36392 -20.40528,-5.0586 z"
         transform="matrix(0.01530612,0,0,0.01530612,318.53676,233.75497)" />
    </g>
  </g>
</svg>
