<?xml version="1.0" encoding="UTF-8" standalone="no"?>
<svg
   inkscape:export-ydpi="90.000000"
   inkscape:export-xdpi="90.000000"
   width="400"
   height="300"
   id="svg11300"
   sodipodi:version="0.32"
   inkscape:version="1.2.2 (b0a8486541, 2022-12-01)"
   sodipodi:docname="sudoku-app.svg"
   inkscape:output_extension="org.inkscape.output.svg.inkscape"
   version="1.0"
   style="display:inline;enable-background:new"
   inkscape:export-filename="/home/sam/suru-template.png"
   xmlns:inkscape="http://www.inkscape.org/namespaces/inkscape"
   xmlns:sodipodi="http://sodipodi.sourceforge.net/DTD/sodipodi-0.dtd"
   xmlns:xlink="http://www.w3.org/1999/xlink"
   xmlns="http://www.w3.org/2000/svg"
   xmlns:svg="http://www.w3.org/2000/svg"
   xmlns:rdf="http://www.w3.org/1999/02/22-rdf-syntax-ns#"
   xmlns:cc="http://creativecommons.org/ns#"
   xmlns:dc="http://purl.org/dc/elements/1.1/">
  <title
     id="title3004">Suru Icon Theme Template</title>
  <sodipodi:namedview
     stroke="#ef2929"
     fill="#f57900"
     id="base"
     pagecolor="#ffffff"
     bordercolor="#000000"
     borderopacity="0.25490196"
     inkscape:pageopacity="0"
     inkscape:pageshadow="2"
     inkscape:zoom="2"
     inkscape:cx="369"
     inkscape:cy="154.5"
     inkscape:current-layer="layer6"
     showgrid="false"
     inkscape:grid-bbox="true"
     inkscape:document-units="px"
     inkscape:showpageshadow="false"
     inkscape:window-width="1920"
     inkscape:window-height="1020"
     inkscape:window-x="0"
     inkscape:window-y="32"
     width="400px"
     height="300px"
     inkscape:snap-nodes="true"
     inkscape:snap-bbox="true"
     gridtolerance="10000"
     inkscape:object-nodes="true"
     inkscape:snap-grids="true"
     showguides="true"
     inkscape:guide-bbox="true"
     inkscape:window-maximized="1"
     inkscape:bbox-paths="true"
     inkscape:snap-bbox-midpoints="true"
     inkscape:snap-global="true"
     inkscape:object-paths="true"
     inkscape:snap-intersection-paths="true"
     inkscape:snap-smooth-nodes="true"
     inkscape:pagecheckerboard="false"
     showborder="false"
     inkscape:document-rotation="0"
     inkscape:deskcolor="#d1d1d1">
    <inkscape:grid
       spacingy="1"
       spacingx="1"
       id="grid5883"
       type="xygrid"
       enabled="true"
       visible="true"
       empspacing="4"
       snapvisiblegridlinesonly="true"
       originx="0"
       originy="0" />
    <inkscape:grid
       type="xygrid"
       id="grid11592"
       empspacing="2"
       visible="true"
       enabled="false"
       spacingx="0.5"
       spacingy="0.5"
       color="#ff0000"
       opacity="0.1254902"
       empcolor="#ff0000"
       empopacity="0.25098039"
       snapvisiblegridlinesonly="true"
       originx="0"
       originy="0" />
  </sodipodi:namedview>
  <defs
     id="defs3">
    <linearGradient
       id="a"
       x2="1"
       gradientTransform="matrix(0,-43.3373,43.3373,0,201.9,45.6687)"
       gradientUnits="userSpaceOnUse">
      <stop
         stop-color="#fff"
         offset="0"
         id="stop22" />
      <stop
         stop-color="#e4e4e4"
         offset="1"
         id="stop24" />
    </linearGradient>
    <linearGradient
       id="b"
       x2="1"
       gradientTransform="matrix(0.61168,-39.0606,39.0606,0.61168,33.4786,43.4633)"
       gradientUnits="userSpaceOnUse">
      <stop
         stop-color="#808080"
         offset="0"
         id="stop27" />
      <stop
         stop-color="#808080"
         offset="1"
         id="stop29" />
    </linearGradient>
    <linearGradient
       id="linearGradient243"
       x2="1"
       gradientTransform="matrix(0.61168,-39.0606,39.0606,0.61168,33.4786,43.4633)"
       gradientUnits="userSpaceOnUse">
      <stop
         stop-color="#808080"
         offset="0"
         id="stop239" />
      <stop
         stop-color="#808080"
         offset="1"
         id="stop241" />
    </linearGradient>
    <linearGradient
       id="linearGradient249"
       x2="1"
       gradientTransform="matrix(0.61168,-39.0606,39.0606,0.61168,33.4786,43.4633)"
       gradientUnits="userSpaceOnUse">
      <stop
         stop-color="#808080"
         offset="0"
         id="stop245" />
      <stop
         stop-color="#808080"
         offset="1"
         id="stop247" />
    </linearGradient>
    <linearGradient
       id="linearGradient255"
       x2="1"
       gradientTransform="matrix(0.61168,-39.0606,39.0606,0.61168,33.4786,43.4633)"
       gradientUnits="userSpaceOnUse">
      <stop
         stop-color="#808080"
         offset="0"
         id="stop251" />
      <stop
         stop-color="#808080"
         offset="1"
         id="stop253" />
    </linearGradient>
    <linearGradient
       id="c"
       x2="1"
       gradientTransform="matrix(-3.80119,-4.76239,4.76239,-3.80119,33.695,24.9117)"
       gradientUnits="userSpaceOnUse">
      <stop
         stop-color="#ffd42a"
         offset="0"
         id="stop32" />
      <stop
         stop-color="#fd5"
         offset="1"
         id="stop34" />
    </linearGradient>
    <linearGradient
       id="d"
       x2="1"
       gradientTransform="matrix(-2.31567,-2.35936,2.35936,-2.31567,21.4176,32.6452)"
       gradientUnits="userSpaceOnUse">
      <stop
         stop-color="#d38d5f"
         offset="0"
         id="stop37" />
      <stop
         stop-color="#deaa87"
         offset="1"
         id="stop39" />
    </linearGradient>
    <linearGradient
       id="e"
       x2="1"
       gradientTransform="matrix(-2.44673,-5.67993,5.67993,-2.44673,42.346,18.2705)"
       gradientUnits="userSpaceOnUse">
      <stop
         stop-color="#d35f5f"
         offset="0"
         id="stop42" />
      <stop
         stop-color="#de8787"
         offset="1"
         id="stop44" />
    </linearGradient>
    <linearGradient
       id="f"
       x2="1"
       gradientTransform="matrix(-3.76917,-4.81962,4.81962,-3.76917,39.6328,19.9865)"
       gradientUnits="userSpaceOnUse">
      <stop
         stop-color="#999"
         offset="0"
         id="stop47" />
      <stop
         stop-color="#ccc"
         offset="1"
         id="stop49" />
    </linearGradient>
    <linearGradient
       inkscape:collect="always"
       xlink:href="#b"
       id="linearGradient293"
       gradientUnits="userSpaceOnUse"
       gradientTransform="matrix(3.1617205,-201.90083,201.90083,3.1617205,200.99406,256.6041)"
       x2="1" />
    <linearGradient
       inkscape:collect="always"
       xlink:href="#b"
       id="linearGradient295"
       gradientUnits="userSpaceOnUse"
       gradientTransform="matrix(3.1617205,-201.90083,201.90083,3.1617205,200.99406,256.6041)"
       x2="1" />
    <linearGradient
       inkscape:collect="always"
       xlink:href="#b"
       id="linearGradient297"
       gradientUnits="userSpaceOnUse"
       gradientTransform="matrix(3.1617205,-201.90083,201.90083,3.1617205,200.99406,256.6041)"
       x2="1" />
    <linearGradient
       inkscape:collect="always"
       xlink:href="#b"
       id="linearGradient299"
       gradientUnits="userSpaceOnUse"
       gradientTransform="matrix(3.1617205,-201.90083,201.90083,3.1617205,200.99406,256.6041)"
       x2="1" />
    <linearGradient
       inkscape:collect="always"
       xlink:href="#a"
       id="linearGradient646"
       gradientUnits="userSpaceOnUse"
       gradientTransform="matrix(0,-46.001378,46.001378,0,532.83607,107.00074)"
       x2="1" />
    <linearGradient
       inkscape:collect="always"
       xlink:href="#b"
       id="linearGradient648"
       gradientUnits="userSpaceOnUse"
       gradientTransform="matrix(0.64928187,-41.461776,41.461776,0.64928187,354.06128,104.65977)"
       x2="1" />
    <linearGradient
       inkscape:collect="always"
       xlink:href="#b"
       id="linearGradient650"
       gradientUnits="userSpaceOnUse"
       gradientTransform="matrix(0.64928187,-41.461776,41.461776,0.64928187,354.06128,104.65977)"
       x2="1" />
    <linearGradient
       inkscape:collect="always"
       xlink:href="#b"
       id="linearGradient652"
       gradientUnits="userSpaceOnUse"
       gradientTransform="matrix(0.64928187,-41.461776,41.461776,0.64928187,354.06128,104.65977)"
       x2="1" />
    <linearGradient
       inkscape:collect="always"
       xlink:href="#b"
       id="linearGradient654"
       gradientUnits="userSpaceOnUse"
       gradientTransform="matrix(0.64928187,-41.461776,41.461776,0.64928187,354.06128,104.65977)"
       x2="1" />
    <linearGradient
       inkscape:collect="always"
       xlink:href="#c"
       id="linearGradient656"
       gradientUnits="userSpaceOnUse"
       gradientTransform="matrix(-4.0348609,-5.0551489,5.0551489,-4.0348609,354.29099,84.967745)"
       x2="1" />
    <linearGradient
       inkscape:collect="always"
       xlink:href="#d"
       id="linearGradient658"
       gradientUnits="userSpaceOnUse"
       gradientTransform="matrix(-2.4580214,-2.5043972,2.5043972,-2.4580214,341.25886,93.176648)"
       x2="1" />
    <linearGradient
       inkscape:collect="always"
       xlink:href="#e"
       id="linearGradient660"
       gradientUnits="userSpaceOnUse"
       gradientTransform="matrix(-2.5971381,-6.0290929,6.0290929,-2.5971381,363.47379,77.91829)"
       x2="1" />
    <linearGradient
       inkscape:collect="always"
       xlink:href="#f"
       id="linearGradient662"
       gradientUnits="userSpaceOnUse"
       gradientTransform="matrix(-4.0008726,-5.115897,5.115897,-4.0008726,360.5938,79.739778)"
       x2="1" />
    <linearGradient
       inkscape:collect="always"
       xlink:href="#a"
       id="linearGradient708"
       gradientUnits="userSpaceOnUse"
       gradientTransform="matrix(0,-30.0009,30.0009,0,459.15396,163.00049)"
       x2="1" />
    <linearGradient
       inkscape:collect="always"
       xlink:href="#b"
       id="linearGradient710"
       gradientUnits="userSpaceOnUse"
       gradientTransform="matrix(0.42344471,-27.04029,27.04029,0.42344471,342.56171,161.47377)"
       x2="1" />
    <linearGradient
       inkscape:collect="always"
       xlink:href="#b"
       id="linearGradient712"
       gradientUnits="userSpaceOnUse"
       gradientTransform="matrix(0.42344471,-27.04029,27.04029,0.42344471,342.56171,161.47377)"
       x2="1" />
    <linearGradient
       inkscape:collect="always"
       xlink:href="#b"
       id="linearGradient714"
       gradientUnits="userSpaceOnUse"
       gradientTransform="matrix(0.42344471,-27.04029,27.04029,0.42344471,342.56171,161.47377)"
       x2="1" />
    <linearGradient
       inkscape:collect="always"
       xlink:href="#b"
       id="linearGradient716"
       gradientUnits="userSpaceOnUse"
       gradientTransform="matrix(0.42344471,-27.04029,27.04029,0.42344471,342.56171,161.47377)"
       x2="1" />
    <linearGradient
       inkscape:collect="always"
       xlink:href="#c"
       id="linearGradient718"
       gradientUnits="userSpaceOnUse"
       gradientTransform="matrix(-2.6314311,-3.2968363,3.2968363,-2.6314311,342.71151,148.63114)"
       x2="1" />
    <linearGradient
       inkscape:collect="always"
       xlink:href="#d"
       id="linearGradient720"
       gradientUnits="userSpaceOnUse"
       gradientTransform="matrix(-1.6030575,-1.6333026,1.6333026,-1.6030575,334.2123,153.98477)"
       x2="1" />
    <linearGradient
       inkscape:collect="always"
       xlink:href="#e"
       id="linearGradient722"
       gradientUnits="userSpaceOnUse"
       gradientTransform="matrix(-1.6937858,-3.9320173,3.9320173,-1.6937858,348.7003,144.03367)"
       x2="1" />
    <linearGradient
       inkscape:collect="always"
       xlink:href="#f"
       id="linearGradient724"
       gradientUnits="userSpaceOnUse"
       gradientTransform="matrix(-2.6092648,-3.3364547,3.3364547,-2.6092648,346.82204,145.2216)"
       x2="1" />
    <linearGradient
       inkscape:collect="always"
       xlink:href="#a"
       id="linearGradient770"
       gradientUnits="userSpaceOnUse"
       gradientTransform="matrix(0,-23.00069,23.00069,0,426.41803,211.50037)"
       x2="1" />
    <linearGradient
       inkscape:collect="always"
       xlink:href="#b"
       id="linearGradient772"
       gradientUnits="userSpaceOnUse"
       gradientTransform="matrix(0.32464095,-20.730889,20.730889,0.32464095,337.03064,210.32988)"
       x2="1" />
    <linearGradient
       inkscape:collect="always"
       xlink:href="#b"
       id="linearGradient774"
       gradientUnits="userSpaceOnUse"
       gradientTransform="matrix(0.32464095,-20.730889,20.730889,0.32464095,337.03064,210.32988)"
       x2="1" />
    <linearGradient
       inkscape:collect="always"
       xlink:href="#b"
       id="linearGradient776"
       gradientUnits="userSpaceOnUse"
       gradientTransform="matrix(0.32464095,-20.730889,20.730889,0.32464095,337.03064,210.32988)"
       x2="1" />
    <linearGradient
       inkscape:collect="always"
       xlink:href="#b"
       id="linearGradient778"
       gradientUnits="userSpaceOnUse"
       gradientTransform="matrix(0.32464095,-20.730889,20.730889,0.32464095,337.03064,210.32988)"
       x2="1" />
    <linearGradient
       inkscape:collect="always"
       xlink:href="#c"
       id="linearGradient780"
       gradientUnits="userSpaceOnUse"
       gradientTransform="matrix(-2.0174305,-2.5275745,2.5275745,-2.0174305,337.14549,200.48387)"
       x2="1" />
    <linearGradient
       inkscape:collect="always"
       xlink:href="#d"
       id="linearGradient782"
       gradientUnits="userSpaceOnUse"
       gradientTransform="matrix(-1.2290108,-1.2521986,1.2521986,-1.2290108,330.62942,204.58832)"
       x2="1" />
    <linearGradient
       inkscape:collect="always"
       xlink:href="#e"
       id="linearGradient784"
       gradientUnits="userSpaceOnUse"
       gradientTransform="matrix(-1.2985691,-3.0145466,3.0145466,-1.2985691,341.73689,196.95914)"
       x2="1" />
    <linearGradient
       inkscape:collect="always"
       xlink:href="#f"
       id="linearGradient786"
       gradientUnits="userSpaceOnUse"
       gradientTransform="matrix(-2.0004364,-2.5579486,2.5579486,-2.0004364,340.2969,197.86989)"
       x2="1" />
    <linearGradient
       inkscape:collect="always"
       xlink:href="#a"
       id="linearGradient832"
       gradientUnits="userSpaceOnUse"
       gradientTransform="matrix(0,-15.00045,15.00045,0,389.57698,251.50024)"
       x2="1" />
    <linearGradient
       inkscape:collect="always"
       xlink:href="#b"
       id="linearGradient834"
       gradientUnits="userSpaceOnUse"
       gradientTransform="matrix(0.21172236,-13.520145,13.520145,0.21172236,331.28085,250.73688)"
       x2="1" />
    <linearGradient
       inkscape:collect="always"
       xlink:href="#b"
       id="linearGradient836"
       gradientUnits="userSpaceOnUse"
       gradientTransform="matrix(0.21172236,-13.520145,13.520145,0.21172236,331.28085,250.73688)"
       x2="1" />
    <linearGradient
       inkscape:collect="always"
       xlink:href="#b"
       id="linearGradient838"
       gradientUnits="userSpaceOnUse"
       gradientTransform="matrix(0.21172236,-13.520145,13.520145,0.21172236,331.28085,250.73688)"
       x2="1" />
    <linearGradient
       inkscape:collect="always"
       xlink:href="#b"
       id="linearGradient840"
       gradientUnits="userSpaceOnUse"
       gradientTransform="matrix(0.21172236,-13.520145,13.520145,0.21172236,331.28085,250.73688)"
       x2="1" />
    <linearGradient
       inkscape:collect="always"
       xlink:href="#c"
       id="linearGradient842"
       gradientUnits="userSpaceOnUse"
       gradientTransform="matrix(-1.3157156,-1.6484182,1.6484182,-1.3157156,331.35576,244.31557)"
       x2="1" />
    <linearGradient
       inkscape:collect="always"
       xlink:href="#d"
       id="linearGradient844"
       gradientUnits="userSpaceOnUse"
       gradientTransform="matrix(-0.80152876,-0.81665129,0.81665129,-0.80152876,327.10615,246.99239)"
       x2="1" />
    <linearGradient
       inkscape:collect="always"
       xlink:href="#e"
       id="linearGradient846"
       gradientUnits="userSpaceOnUse"
       gradientTransform="matrix(-0.84689289,-1.9660087,1.9660087,-0.84689289,334.35015,242.01683)"
       x2="1" />
    <linearGradient
       inkscape:collect="always"
       xlink:href="#f"
       id="linearGradient848"
       gradientUnits="userSpaceOnUse"
       gradientTransform="matrix(-1.3046324,-1.6682274,1.6682274,-1.3046324,333.41102,242.6108)"
       x2="1" />
    <linearGradient
       inkscape:collect="always"
       xlink:href="#a"
       id="linearGradient892"
       gradientUnits="userSpaceOnUse"
       gradientTransform="matrix(0,-224.00672,224.00672,0,1071.5496,268.00362)"
       x2="1" />
    <linearGradient
       inkscape:collect="always"
       xlink:href="#c"
       id="linearGradient894"
       gradientUnits="userSpaceOnUse"
       gradientTransform="matrix(-19.648019,-24.616378,24.616378,-19.648019,202.11261,160.7125)"
       x2="1" />
    <linearGradient
       inkscape:collect="always"
       xlink:href="#d"
       id="linearGradient896"
       gradientUnits="userSpaceOnUse"
       gradientTransform="matrix(-11.969496,-12.195326,12.195326,-11.969496,138.6518,200.68628)"
       x2="1" />
    <linearGradient
       inkscape:collect="always"
       xlink:href="#e"
       id="linearGradient898"
       gradientUnits="userSpaceOnUse"
       gradientTransform="matrix(-12.646934,-29.359062,29.359062,-12.646934,246.82887,126.38471)"
       x2="1" />
    <linearGradient
       inkscape:collect="always"
       xlink:href="#f"
       id="linearGradient900"
       gradientUnits="userSpaceOnUse"
       gradientTransform="matrix(-19.482511,-24.912195,24.912195,-19.482511,232.80458,135.25457)"
       x2="1" />
  </defs>
  <metadata
     id="metadata4">
    <rdf:RDF>
      <cc:Work
         rdf:about="">
        <dc:format>image/svg+xml</dc:format>
        <dc:type
           rdf:resource="http://purl.org/dc/dcmitype/StillImage" />
        <dc:creator>
          <cc:Agent>
            <dc:title>Sam Hewitt</dc:title>
          </cc:Agent>
        </dc:creator>
        <dc:source />
        <cc:license
           rdf:resource="http://creativecommons.org/licenses/by-sa/4.0/" />
        <dc:title>Suru Icon Theme Template</dc:title>
        <dc:subject>
          <rdf:Bag />
        </dc:subject>
        <dc:date />
        <dc:rights>
          <cc:Agent>
            <dc:title />
          </cc:Agent>
        </dc:rights>
        <dc:publisher>
          <cc:Agent>
            <dc:title />
          </cc:Agent>
        </dc:publisher>
        <dc:identifier />
        <dc:relation />
        <dc:language />
        <dc:coverage />
        <dc:description />
        <dc:contributor>
          <cc:Agent>
            <dc:title />
          </cc:Agent>
        </dc:contributor>
      </cc:Work>
      <cc:Work
         rdf:about="">
        <dc:format>image/svg+xml</dc:format>
        <dc:type
           rdf:resource="http://purl.org/dc/dcmitype/StillImage" />
      </cc:Work>
      <cc:License
         rdf:about="http://creativecommons.org/licenses/by-sa/4.0/">
        <cc:permits
           rdf:resource="http://creativecommons.org/ns#Reproduction" />
        <cc:permits
           rdf:resource="http://creativecommons.org/ns#Distribution" />
        <cc:requires
           rdf:resource="http://creativecommons.org/ns#Notice" />
        <cc:requires
           rdf:resource="http://creativecommons.org/ns#Attribution" />
        <cc:permits
           rdf:resource="http://creativecommons.org/ns#DerivativeWorks" />
        <cc:requires
           rdf:resource="http://creativecommons.org/ns#ShareAlike" />
      </cc:License>
    </rdf:RDF>
  </metadata>
  <g
     style="display:inline"
     inkscape:groupmode="layer"
     inkscape:label="Icon"
     id="layer1">
    <g
       style="display:none"
       inkscape:label="Baseplate"
       id="layer7"
       inkscape:groupmode="layer">
      <text
         y="-8.2548828"
         xml:space="preserve"
         x="19.006836"
         style="font-style:normal;font-variant:normal;font-weight:normal;font-stretch:normal;line-height:0%;font-family:'DejaVu Sans';-inkscape-font-specification:'DejaVu Sans';display:inline;fill:#000000;fill-opacity:1;stroke:none;enable-background:new"
         inkscape:label="context"
         id="context"><tspan
           style="font-style:normal;font-variant:normal;font-weight:normal;font-stretch:normal;font-size:18px;line-height:1.25;font-family:'DejaVu Sans';-inkscape-font-specification:'DejaVu Sans'"
           y="-8.2548828"
           x="19.006836"
           sodipodi:role="line"
           id="tspan3933">apps</tspan></text>
      <text
         y="-8.2548828"
         xml:space="preserve"
         x="146.48828"
         style="font-style:normal;font-variant:normal;font-weight:bold;font-stretch:normal;line-height:0%;font-family:'DejaVu Sans';-inkscape-font-specification:'DejaVu Sans Bold';text-align:start;writing-mode:lr-tb;text-anchor:start;display:inline;fill:#000000;fill-opacity:1;stroke:none;enable-background:new"
         inkscape:label="icon-name"
         id="icon-name"><tspan
           style="font-style:normal;font-variant:normal;font-weight:bold;font-stretch:normal;font-size:18px;line-height:1.25;font-family:'DejaVu Sans';-inkscape-font-specification:'DejaVu Sans Bold'"
           y="-8.2548828"
           x="146.48828"
           sodipodi:role="line"
           id="tspan924">sudoku-app</tspan></text>
      <rect
         style="display:inline;overflow:visible;visibility:visible;fill:#cdcdcd;fill-opacity:1;fill-rule:nonzero;stroke:none;stroke-width:2;marker:none;enable-background:accumulate"
         id="rect16x16"
         width="16"
         height="16"
         x="320"
         y="236"
         inkscape:label="16x16" />
      <rect
         style="display:inline;overflow:visible;visibility:visible;fill:#cdcdcd;fill-opacity:1;fill-rule:nonzero;stroke:none;stroke-width:2;marker:none;enable-background:accumulate"
         id="rect24x24"
         width="24"
         height="24"
         x="320"
         y="188"
         inkscape:label="24x24" />
      <rect
         style="display:inline;overflow:visible;visibility:visible;fill:#cdcdcd;fill-opacity:1;fill-rule:nonzero;stroke:none;stroke-width:2;marker:none;enable-background:accumulate"
         id="rect32x32"
         width="32"
         height="32"
         x="320"
         y="132"
         inkscape:label="32x32" />
      <rect
         inkscape:label="48x48"
         y="60"
         x="320"
         height="48"
         width="48"
         id="rect48x48"
         style="display:inline;overflow:visible;visibility:visible;fill:#cdcdcd;fill-opacity:1;fill-rule:nonzero;stroke:none;stroke-width:2;marker:none;enable-background:accumulate" />
      <rect
         style="display:inline;overflow:visible;visibility:visible;fill:#cdcdcd;fill-opacity:1;fill-rule:nonzero;stroke:none;stroke-width:2;marker:none;enable-background:accumulate"
         id="rect256x256"
         width="256"
         height="256"
         x="24"
         y="28"
         inkscape:label="256x256" />
    </g>
    <g
       inkscape:groupmode="layer"
       id="layer2"
       inkscape:label="Background"
       style="display:inline">
      <path
         d="M 264,76.191988 C 264,58.421266 249.57873,43.999999 231.80801,43.999999 H 72.191988 c -17.770722,0 -32.191989,14.421267 -32.191989,32.191989 V 235.80801 C 39.999999,253.57873 54.421266,268 72.191988,268 H 231.80801 C 249.57873,268 264,253.57873 264,235.80801 Z"
         fill="url(#a)"
         id="path52"
         style="fill:url(#linearGradient892);stroke-width:5.16891" />
      <path
         d="m 196.28207,53.655528 h 53.83423 c 2.07273,0 3.74229,1.669559 3.74229,3.742293 v 53.834229 c 0,2.0779 -1.66956,3.74746 -3.74229,3.74746 h -53.83423 c -2.07273,0 -3.74229,-1.66956 -3.74229,-3.74746 V 57.397821 c 0,-2.072734 1.66956,-3.742293 3.74229,-3.742293 z"
         fill="#cccccc"
         id="path54"
         style="fill-rule:nonzero;stroke-width:5.16891" />
      <path
         d="m 53.196234,125.19845 h 53.834226 c 2.0779,0 3.74746,1.66956 3.74746,3.74229 v 53.83423 c 0,2.0779 -1.66956,3.74746 -3.74746,3.74746 H 53.196234 c -2.072734,0 -3.742293,-1.66956 -3.742293,-3.74746 v -53.83423 c 0,-2.07273 1.669559,-3.74229 3.742293,-3.74229 z"
         fill="#cccccc"
         id="path56"
         style="fill-rule:nonzero;stroke-width:5.16891" />
      <path
         d="m 53.196234,196.74137 h 53.834226 c 2.0779,0 3.74746,1.66956 3.74746,3.74229 v 53.83423 c 0,2.07273 -1.66956,3.74229 -3.74746,3.74229 H 53.196234 c -2.072734,0 -3.742293,-1.66956 -3.742293,-3.74229 v -53.83423 c 0,-2.07273 1.669559,-3.74229 3.742293,-3.74229 z"
         fill="#cccccc"
         id="path58"
         style="fill-rule:nonzero;stroke-width:5.16891" />
      <path
         d="m 124.73915,196.74137 h 53.83423 c 2.0779,0 3.74746,1.66956 3.74746,3.74229 v 53.83423 c 0,2.07273 -1.66956,3.74229 -3.74746,3.74229 h -53.83423 c -2.07273,0 -3.74229,-1.66956 -3.74229,-3.74229 v -53.83423 c 0,-2.07273 1.66956,-3.74229 3.74229,-3.74229 z"
         fill="#cccccc"
         id="path60"
         style="fill-rule:nonzero;stroke-width:5.16891" />
      <path
         d="m 196.28207,125.19845 h 53.83423 c 2.07273,0 3.74229,1.66956 3.74229,3.74229 v 53.83423 c 0,2.0779 -1.66956,3.74746 -3.74229,3.74746 h -53.83423 c -2.07273,0 -3.74229,-1.66956 -3.74229,-3.74746 v -53.83423 c 0,-2.07273 1.66956,-3.74229 3.74229,-3.74229 z"
         fill="#cccccc"
         id="path62"
         style="fill-rule:nonzero;stroke-width:5.16891" />
      <path
         d="m 53.196234,53.655528 h 53.834226 c 2.0779,0 3.74746,1.669559 3.74746,3.742293 v 53.834229 c 0,2.0779 -1.66956,3.74746 -3.74746,3.74746 H 53.196234 c -2.072734,0 -3.742293,-1.66956 -3.742293,-3.74746 V 57.397821 c 0,-2.072734 1.669559,-3.742293 3.742293,-3.742293 z"
         fill="url(#b)"
         id="path64"
         style="fill:url(#linearGradient293);fill-rule:nonzero;stroke-width:5.16891" />
      <path
         d="m 124.73915,53.655528 h 53.83423 c 2.0779,0 3.74746,1.669559 3.74746,3.742293 v 53.834229 c 0,2.0779 -1.66956,3.74746 -3.74746,3.74746 h -53.83423 c -2.07273,0 -3.74229,-1.66956 -3.74229,-3.74746 V 57.397821 c 0,-2.072734 1.66956,-3.742293 3.74229,-3.742293 z"
         fill="url(#b)"
         id="path66"
         style="fill:url(#linearGradient295);fill-rule:nonzero;stroke-width:5.16891" />
      <path
         d="m 196.28207,196.74137 h 53.83423 c 2.07273,0 3.74229,1.66956 3.74229,3.74229 v 53.83423 c 0,2.07273 -1.66956,3.74229 -3.74229,3.74229 h -53.83423 c -2.07273,0 -3.74229,-1.66956 -3.74229,-3.74229 v -53.83423 c 0,-2.07273 1.66956,-3.74229 3.74229,-3.74229 z"
         fill="url(#b)"
         id="path68"
         style="fill:url(#linearGradient297);fill-rule:nonzero;stroke-width:5.16891" />
      <path
         d="m 124.73915,125.19845 h 53.83423 c 2.0779,0 3.74746,1.66956 3.74746,3.74229 v 53.83423 c 0,2.0779 -1.66956,3.74746 -3.74746,3.74746 h -53.83423 c -2.07273,0 -3.74229,-1.66956 -3.74229,-3.74746 v -53.83423 c 0,-2.07273 1.66956,-3.74229 3.74229,-3.74229 z"
         fill="url(#b)"
         id="path70"
         style="fill:url(#linearGradient299);fill-rule:nonzero;stroke-width:5.16891" />
      <path
         d="m 367,67.610856 c 0,-3.649345 -2.96151,-6.610855 -6.61085,-6.610855 h -32.77829 c -3.64934,0 -6.61085,2.96151 -6.61085,6.610855 v 32.778294 c 0,3.64934 2.96151,6.61085 6.61085,6.61085 h 32.77829 C 364.03849,107 367,104.03849 367,100.38915 Z"
         fill="url(#a)"
         id="path602"
         style="fill:url(#linearGradient646);stroke-width:1.06147" />
      <path
         d="m 353.09364,62.982833 h 11.05525 c 0.42565,0 0.7685,0.342856 0.7685,0.768507 v 11.055242 c 0,0.426712 -0.34285,0.769568 -0.7685,0.769568 h -11.05525 c -0.42565,0 -0.7685,-0.342856 -0.7685,-0.769568 V 63.75134 c 0,-0.425651 0.34285,-0.768507 0.7685,-0.768507 z"
         fill="#cccccc"
         id="path604"
         style="fill-rule:nonzero;stroke-width:1.06147" />
      <path
         d="m 323.70995,77.674682 h 11.05524 c 0.42671,0 0.76957,0.342856 0.76957,0.768507 v 11.055242 c 0,0.426712 -0.34286,0.769568 -0.76957,0.769568 h -11.05524 c -0.42565,0 -0.76851,-0.342856 -0.76851,-0.769568 V 78.443189 c 0,-0.425651 0.34286,-0.768507 0.76851,-0.768507 z"
         fill="#cccccc"
         id="path606"
         style="fill-rule:nonzero;stroke-width:1.06147" />
      <path
         d="m 323.70995,92.366531 h 11.05524 c 0.42671,0 0.76957,0.342856 0.76957,0.768507 v 11.055242 c 0,0.42565 -0.34286,0.76851 -0.76957,0.76851 h -11.05524 c -0.42565,0 -0.76851,-0.34286 -0.76851,-0.76851 V 93.135038 c 0,-0.425651 0.34286,-0.768507 0.76851,-0.768507 z"
         fill="#cccccc"
         id="path608"
         style="fill-rule:nonzero;stroke-width:1.06147" />
      <path
         d="m 338.4018,92.366531 h 11.05524 c 0.42671,0 0.76957,0.342856 0.76957,0.768507 v 11.055242 c 0,0.42565 -0.34286,0.76851 -0.76957,0.76851 H 338.4018 c -0.42566,0 -0.76851,-0.34286 -0.76851,-0.76851 V 93.135038 c 0,-0.425651 0.34285,-0.768507 0.76851,-0.768507 z"
         fill="#cccccc"
         id="path610"
         style="fill-rule:nonzero;stroke-width:1.06147" />
      <path
         d="m 353.09364,77.674682 h 11.05525 c 0.42565,0 0.7685,0.342856 0.7685,0.768507 v 11.055242 c 0,0.426712 -0.34285,0.769568 -0.7685,0.769568 h -11.05525 c -0.42565,0 -0.7685,-0.342856 -0.7685,-0.769568 V 78.443189 c 0,-0.425651 0.34285,-0.768507 0.7685,-0.768507 z"
         fill="#cccccc"
         id="path612"
         style="fill-rule:nonzero;stroke-width:1.06147" />
      <path
         d="m 323.70995,62.982833 h 11.05524 c 0.42671,0 0.76957,0.342856 0.76957,0.768507 v 11.055242 c 0,0.426712 -0.34286,0.769568 -0.76957,0.769568 h -11.05524 c -0.42565,0 -0.76851,-0.342856 -0.76851,-0.769568 V 63.75134 c 0,-0.425651 0.34286,-0.768507 0.76851,-0.768507 z"
         fill="url(#b)"
         id="path614"
         style="fill:url(#linearGradient648);fill-rule:nonzero;stroke-width:1.06147" />
      <path
         d="m 338.4018,62.982833 h 11.05524 c 0.42671,0 0.76957,0.342856 0.76957,0.768507 v 11.055242 c 0,0.426712 -0.34286,0.769568 -0.76957,0.769568 H 338.4018 c -0.42566,0 -0.76851,-0.342856 -0.76851,-0.769568 V 63.75134 c 0,-0.425651 0.34285,-0.768507 0.76851,-0.768507 z"
         fill="url(#b)"
         id="path616"
         style="fill:url(#linearGradient650);fill-rule:nonzero;stroke-width:1.06147" />
      <path
         d="m 353.09364,92.366531 h 11.05525 c 0.42565,0 0.7685,0.342856 0.7685,0.768507 v 11.055242 c 0,0.42565 -0.34285,0.76851 -0.7685,0.76851 h -11.05525 c -0.42565,0 -0.7685,-0.34286 -0.7685,-0.76851 V 93.135038 c 0,-0.425651 0.34285,-0.768507 0.7685,-0.768507 z"
         fill="url(#b)"
         id="path618"
         style="fill:url(#linearGradient652);fill-rule:nonzero;stroke-width:1.06147" />
      <path
         d="m 338.4018,77.674682 h 11.05524 c 0.42671,0 0.76957,0.342856 0.76957,0.768507 v 11.055242 c 0,0.426712 -0.34286,0.769568 -0.76957,0.769568 H 338.4018 c -0.42566,0 -0.76851,-0.342856 -0.76851,-0.769568 V 78.443189 c 0,-0.425651 0.34285,-0.768507 0.76851,-0.768507 z"
         fill="url(#b)"
         id="path620"
         style="fill:url(#linearGradient654);fill-rule:nonzero;stroke-width:1.06147" />
      <path
         d="M 351,137.31143 C 351,134.93142 349.06858,133 346.68858,133 H 325.31143 C 322.93142,133 321,134.93142 321,137.31143 v 21.37715 c 0,2.38 1.93142,4.31142 4.31143,4.31142 h 21.37715 c 2.38,0 4.31142,-1.93142 4.31142,-4.31142 z"
         fill="url(#a)"
         id="path664"
         style="fill:url(#linearGradient708);stroke-width:0.692265" />
      <path
         d="m 341.93064,134.29315 h 7.20994 c 0.2776,0 0.5012,0.22361 0.5012,0.5012 v 7.20994 c 0,0.27829 -0.2236,0.5019 -0.5012,0.5019 h -7.20994 c -0.2776,0 -0.5012,-0.22361 -0.5012,-0.5019 v -7.20994 c 0,-0.27759 0.2236,-0.5012 0.5012,-0.5012 z"
         fill="#cccccc"
         id="path666"
         style="fill-rule:nonzero;stroke-width:0.692265" />
      <path
         d="m 322.76735,143.87479 h 7.20995 c 0.27829,0 0.50189,0.22361 0.50189,0.5012 v 7.20995 c 0,0.27829 -0.2236,0.50189 -0.50189,0.50189 h -7.20995 c -0.27759,0 -0.50119,-0.2236 -0.50119,-0.50189 v -7.20995 c 0,-0.27759 0.2236,-0.5012 0.50119,-0.5012 z"
         fill="#cccccc"
         id="path668"
         style="fill-rule:nonzero;stroke-width:0.692265" />
      <path
         d="m 322.76735,153.45644 h 7.20995 c 0.27829,0 0.50189,0.2236 0.50189,0.5012 v 7.20994 c 0,0.27759 -0.2236,0.5012 -0.50189,0.5012 h -7.20995 c -0.27759,0 -0.50119,-0.22361 -0.50119,-0.5012 v -7.20994 c 0,-0.2776 0.2236,-0.5012 0.50119,-0.5012 z"
         fill="#cccccc"
         id="path670"
         style="fill-rule:nonzero;stroke-width:0.692265" />
      <path
         d="m 332.349,153.45644 h 7.20994 c 0.27829,0 0.50189,0.2236 0.50189,0.5012 v 7.20994 c 0,0.27759 -0.2236,0.5012 -0.50189,0.5012 H 332.349 c -0.2776,0 -0.5012,-0.22361 -0.5012,-0.5012 v -7.20994 c 0,-0.2776 0.2236,-0.5012 0.5012,-0.5012 z"
         fill="#cccccc"
         id="path672"
         style="fill-rule:nonzero;stroke-width:0.692265" />
      <path
         d="m 341.93064,143.87479 h 7.20994 c 0.2776,0 0.5012,0.22361 0.5012,0.5012 v 7.20995 c 0,0.27829 -0.2236,0.50189 -0.5012,0.50189 h -7.20994 c -0.2776,0 -0.5012,-0.2236 -0.5012,-0.50189 v -7.20995 c 0,-0.27759 0.2236,-0.5012 0.5012,-0.5012 z"
         fill="#cccccc"
         id="path674"
         style="fill-rule:nonzero;stroke-width:0.692265" />
      <path
         d="m 322.76735,134.29315 h 7.20995 c 0.27829,0 0.50189,0.22361 0.50189,0.5012 v 7.20994 c 0,0.27829 -0.2236,0.5019 -0.50189,0.5019 h -7.20995 c -0.27759,0 -0.50119,-0.22361 -0.50119,-0.5019 v -7.20994 c 0,-0.27759 0.2236,-0.5012 0.50119,-0.5012 z"
         fill="url(#b)"
         id="path676"
         style="fill:url(#linearGradient710);fill-rule:nonzero;stroke-width:0.692265" />
      <path
         d="m 332.349,134.29315 h 7.20994 c 0.27829,0 0.50189,0.22361 0.50189,0.5012 v 7.20994 c 0,0.27829 -0.2236,0.5019 -0.50189,0.5019 H 332.349 c -0.2776,0 -0.5012,-0.22361 -0.5012,-0.5019 v -7.20994 c 0,-0.27759 0.2236,-0.5012 0.5012,-0.5012 z"
         fill="url(#b)"
         id="path678"
         style="fill:url(#linearGradient712);fill-rule:nonzero;stroke-width:0.692265" />
      <path
         d="m 341.93064,153.45644 h 7.20994 c 0.2776,0 0.5012,0.2236 0.5012,0.5012 v 7.20994 c 0,0.27759 -0.2236,0.5012 -0.5012,0.5012 h -7.20994 c -0.2776,0 -0.5012,-0.22361 -0.5012,-0.5012 v -7.20994 c 0,-0.2776 0.2236,-0.5012 0.5012,-0.5012 z"
         fill="url(#b)"
         id="path680"
         style="fill:url(#linearGradient714);fill-rule:nonzero;stroke-width:0.692265" />
      <path
         d="m 332.349,143.87479 h 7.20994 c 0.27829,0 0.50189,0.22361 0.50189,0.5012 v 7.20995 c 0,0.27829 -0.2236,0.50189 -0.50189,0.50189 H 332.349 c -0.2776,0 -0.5012,-0.2236 -0.5012,-0.50189 v -7.20995 c 0,-0.27759 0.2236,-0.5012 0.5012,-0.5012 z"
         fill="url(#b)"
         id="path682"
         style="fill:url(#linearGradient716);fill-rule:nonzero;stroke-width:0.692265" />
      <path
         d="m 343.5,191.80543 c 0,-1.82468 -1.48076,-3.30543 -3.30543,-3.30543 h -16.38914 c -1.82468,0 -3.30543,1.48075 -3.30543,3.30543 v 16.38914 c 0,1.82467 1.48075,3.30543 3.30543,3.30543 h 16.38914 c 1.82467,0 3.30543,-1.48076 3.30543,-3.30543 z"
         fill="url(#a)"
         id="path726"
         style="fill:url(#linearGradient770);stroke-width:0.530737" />
      <path
         d="m 336.54682,189.49141 h 5.52762 c 0.21282,0 0.38425,0.17143 0.38425,0.38426 v 5.52762 c 0,0.21335 -0.17143,0.38478 -0.38425,0.38478 h -5.52762 c -0.21283,0 -0.38426,-0.17143 -0.38426,-0.38478 v -5.52762 c 0,-0.21283 0.17143,-0.38426 0.38426,-0.38426 z"
         fill="#cccccc"
         id="path728"
         style="fill-rule:nonzero;stroke-width:0.530737" />
      <path
         d="m 321.85497,196.83734 h 5.52762 c 0.21336,0 0.38478,0.17143 0.38478,0.38425 v 5.52762 c 0,0.21336 -0.17142,0.38479 -0.38478,0.38479 h -5.52762 c -0.21283,0 -0.38426,-0.17143 -0.38426,-0.38479 v -5.52762 c 0,-0.21282 0.17143,-0.38425 0.38426,-0.38425 z"
         fill="#cccccc"
         id="path730"
         style="fill-rule:nonzero;stroke-width:0.530737" />
      <path
         d="m 321.85497,204.18326 h 5.52762 c 0.21336,0 0.38478,0.17143 0.38478,0.38426 v 5.52762 c 0,0.21282 -0.17142,0.38425 -0.38478,0.38425 h -5.52762 c -0.21283,0 -0.38426,-0.17143 -0.38426,-0.38425 v -5.52762 c 0,-0.21283 0.17143,-0.38426 0.38426,-0.38426 z"
         fill="#cccccc"
         id="path732"
         style="fill-rule:nonzero;stroke-width:0.530737" />
      <path
         d="m 329.20089,204.18326 h 5.52762 c 0.21336,0 0.38479,0.17143 0.38479,0.38426 v 5.52762 c 0,0.21282 -0.17143,0.38425 -0.38479,0.38425 h -5.52762 c -0.21282,0 -0.38425,-0.17143 -0.38425,-0.38425 v -5.52762 c 0,-0.21283 0.17143,-0.38426 0.38425,-0.38426 z"
         fill="#cccccc"
         id="path734"
         style="fill-rule:nonzero;stroke-width:0.530737" />
      <path
         d="m 336.54682,196.83734 h 5.52762 c 0.21282,0 0.38425,0.17143 0.38425,0.38425 v 5.52762 c 0,0.21336 -0.17143,0.38479 -0.38425,0.38479 h -5.52762 c -0.21283,0 -0.38426,-0.17143 -0.38426,-0.38479 v -5.52762 c 0,-0.21282 0.17143,-0.38425 0.38426,-0.38425 z"
         fill="#cccccc"
         id="path736"
         style="fill-rule:nonzero;stroke-width:0.530737" />
      <path
         d="m 321.85497,189.49141 h 5.52762 c 0.21336,0 0.38478,0.17143 0.38478,0.38426 v 5.52762 c 0,0.21335 -0.17142,0.38478 -0.38478,0.38478 h -5.52762 c -0.21283,0 -0.38426,-0.17143 -0.38426,-0.38478 v -5.52762 c 0,-0.21283 0.17143,-0.38426 0.38426,-0.38426 z"
         fill="url(#b)"
         id="path738"
         style="fill:url(#linearGradient772);fill-rule:nonzero;stroke-width:0.530737" />
      <path
         d="m 329.20089,189.49141 h 5.52762 c 0.21336,0 0.38479,0.17143 0.38479,0.38426 v 5.52762 c 0,0.21335 -0.17143,0.38478 -0.38479,0.38478 h -5.52762 c -0.21282,0 -0.38425,-0.17143 -0.38425,-0.38478 v -5.52762 c 0,-0.21283 0.17143,-0.38426 0.38425,-0.38426 z"
         fill="url(#b)"
         id="path740"
         style="fill:url(#linearGradient774);fill-rule:nonzero;stroke-width:0.530737" />
      <path
         d="m 336.54682,204.18326 h 5.52762 c 0.21282,0 0.38425,0.17143 0.38425,0.38426 v 5.52762 c 0,0.21282 -0.17143,0.38425 -0.38425,0.38425 h -5.52762 c -0.21283,0 -0.38426,-0.17143 -0.38426,-0.38425 v -5.52762 c 0,-0.21283 0.17143,-0.38426 0.38426,-0.38426 z"
         fill="url(#b)"
         id="path742"
         style="fill:url(#linearGradient776);fill-rule:nonzero;stroke-width:0.530737" />
      <path
         d="m 329.20089,196.83734 h 5.52762 c 0.21336,0 0.38479,0.17143 0.38479,0.38425 v 5.52762 c 0,0.21336 -0.17143,0.38479 -0.38479,0.38479 h -5.52762 c -0.21282,0 -0.38425,-0.17143 -0.38425,-0.38479 v -5.52762 c 0,-0.21282 0.17143,-0.38425 0.38425,-0.38425 z"
         fill="url(#b)"
         id="path744"
         style="fill:url(#linearGradient778);fill-rule:nonzero;stroke-width:0.530737" />
      <path
         d="m 335.5,238.65571 c 0,-1.19 -0.96571,-2.15571 -2.15571,-2.15571 h -10.68858 c -1.19,0 -2.15571,0.96571 -2.15571,2.15571 v 10.68858 c 0,1.19 0.96571,2.15571 2.15571,2.15571 h 10.68858 c 1.19,0 2.15571,-0.96571 2.15571,-2.15571 z"
         fill="url(#a)"
         id="path788"
         style="fill:url(#linearGradient832);stroke-width:0.346133" />
      <path
         d="m 330.96532,237.14658 h 3.60497 c 0.1388,0 0.2506,0.1118 0.2506,0.2506 v 3.60497 c 0,0.13914 -0.1118,0.25094 -0.2506,0.25094 h -3.60497 c -0.1388,0 -0.2506,-0.1118 -0.2506,-0.25094 v -3.60497 c 0,-0.1388 0.1118,-0.2506 0.2506,-0.2506 z"
         fill="#cccccc"
         id="path790"
         style="fill-rule:nonzero;stroke-width:0.346133" />
      <path
         d="m 321.38368,241.9374 h 3.60497 c 0.13914,0 0.25094,0.1118 0.25094,0.2506 v 3.60497 c 0,0.13914 -0.1118,0.25094 -0.25094,0.25094 h -3.60497 c -0.1388,0 -0.2506,-0.1118 -0.2506,-0.25094 V 242.188 c 0,-0.1388 0.1118,-0.2506 0.2506,-0.2506 z"
         fill="#cccccc"
         id="path792"
         style="fill-rule:nonzero;stroke-width:0.346133" />
      <path
         d="m 321.38368,246.72822 h 3.60497 c 0.13914,0 0.25094,0.1118 0.25094,0.2506 v 3.60497 c 0,0.1388 -0.1118,0.2506 -0.25094,0.2506 h -3.60497 c -0.1388,0 -0.2506,-0.1118 -0.2506,-0.2506 v -3.60497 c 0,-0.1388 0.1118,-0.2506 0.2506,-0.2506 z"
         fill="#cccccc"
         id="path794"
         style="fill-rule:nonzero;stroke-width:0.346133" />
      <path
         d="m 326.1745,246.72822 h 3.60497 c 0.13914,0 0.25094,0.1118 0.25094,0.2506 v 3.60497 c 0,0.1388 -0.1118,0.2506 -0.25094,0.2506 h -3.60497 c -0.1388,0 -0.2506,-0.1118 -0.2506,-0.2506 v -3.60497 c 0,-0.1388 0.1118,-0.2506 0.2506,-0.2506 z"
         fill="#cccccc"
         id="path796"
         style="fill-rule:nonzero;stroke-width:0.346133" />
      <path
         d="m 330.96532,241.9374 h 3.60497 c 0.1388,0 0.2506,0.1118 0.2506,0.2506 v 3.60497 c 0,0.13914 -0.1118,0.25094 -0.2506,0.25094 h -3.60497 c -0.1388,0 -0.2506,-0.1118 -0.2506,-0.25094 V 242.188 c 0,-0.1388 0.1118,-0.2506 0.2506,-0.2506 z"
         fill="#cccccc"
         id="path798"
         style="fill-rule:nonzero;stroke-width:0.346133" />
      <path
         d="m 321.38368,237.14658 h 3.60497 c 0.13914,0 0.25094,0.1118 0.25094,0.2506 v 3.60497 c 0,0.13914 -0.1118,0.25094 -0.25094,0.25094 h -3.60497 c -0.1388,0 -0.2506,-0.1118 -0.2506,-0.25094 v -3.60497 c 0,-0.1388 0.1118,-0.2506 0.2506,-0.2506 z"
         fill="url(#b)"
         id="path800"
         style="fill:url(#linearGradient834);fill-rule:nonzero;stroke-width:0.346133" />
      <path
         d="m 326.1745,237.14658 h 3.60497 c 0.13914,0 0.25094,0.1118 0.25094,0.2506 v 3.60497 c 0,0.13914 -0.1118,0.25094 -0.25094,0.25094 h -3.60497 c -0.1388,0 -0.2506,-0.1118 -0.2506,-0.25094 v -3.60497 c 0,-0.1388 0.1118,-0.2506 0.2506,-0.2506 z"
         fill="url(#b)"
         id="path802"
         style="fill:url(#linearGradient836);fill-rule:nonzero;stroke-width:0.346133" />
      <path
         d="m 330.96532,246.72822 h 3.60497 c 0.1388,0 0.2506,0.1118 0.2506,0.2506 v 3.60497 c 0,0.1388 -0.1118,0.2506 -0.2506,0.2506 h -3.60497 c -0.1388,0 -0.2506,-0.1118 -0.2506,-0.2506 v -3.60497 c 0,-0.1388 0.1118,-0.2506 0.2506,-0.2506 z"
         fill="url(#b)"
         id="path804"
         style="fill:url(#linearGradient838);fill-rule:nonzero;stroke-width:0.346133" />
      <path
         d="m 326.1745,241.9374 h 3.60497 c 0.13914,0 0.25094,0.1118 0.25094,0.2506 v 3.60497 c 0,0.13914 -0.1118,0.25094 -0.25094,0.25094 h -3.60497 c -0.1388,0 -0.2506,-0.1118 -0.2506,-0.25094 V 242.188 c 0,-0.1388 0.1118,-0.2506 0.2506,-0.2506 z"
         fill="url(#b)"
         id="path806"
         style="fill:url(#linearGradient840);fill-rule:nonzero;stroke-width:0.346133" />
    </g>
    <g
       inkscape:groupmode="layer"
       id="layer6"
       inkscape:label="Pictogram"
       style="display:inline">
      <path
         d="M 90.619161,69.167435 H 73.236108 L 72.46594,82.151744 h 0.113716 c 2.160606,-1.28189 4.600332,-1.928004 7.314012,-1.928004 3.923204,0 6.967694,1.064796 9.133468,3.194388 2.160606,2.124423 3.246078,5.13273 3.246078,9.019752 0,4.476279 -1.266384,7.88259 -3.799151,10.22928 -2.491416,2.35185 -6.161344,3.5252 -10.999447,3.5252 -3.520029,0 -6.786782,-0.69781 -9.795089,-2.09341 v -4.181653 c 3.339118,1.726413 6.60587,2.589623 9.795089,2.589623 6.931512,0 10.394684,-3.359791 10.394684,-10.06904 0,-2.822226 -0.749492,-4.967325 -2.253646,-6.435296 C 84.1115,84.49843 81.945726,83.743769 79.1235,83.743769 c -2.894591,0 -5.298136,0.847702 -7.205465,2.532767 h -3.85084 l 1.209526,-20.794535 h 21.34244 z"
         fill="#1a1a1a"
         id="path72"
         style="display:inline;enable-background:new;fill-rule:nonzero;stroke-width:5.16891" />
      <path
         d="m 151.4521,65.430311 c 3.92837,0 6.97803,1.007938 9.1438,3.028983 2.16578,1.984863 3.25125,4.770907 3.25125,8.373639 0,3.597563 -1.30257,7.251984 -3.91287,10.958095 -2.60513,3.675097 -7.48975,8.539044 -14.6487,14.597012 v 0.11371 h 18.72697 v 3.69061 h -24.7901 v -3.69061 c 7.82573,-6.466306 13.12904,-11.495658 15.92025,-15.093222 2.79121,-3.638914 4.18682,-7.050397 4.18682,-10.244785 0,-2.574118 -0.71848,-4.538305 -2.15027,-5.897729 -1.43179,-1.395607 -3.5252,-2.09341 -6.27506,-2.09341 -3.48902,0 -7.10725,1.069965 -10.85472,3.199557 v -4.300535 c 3.5252,-1.762599 7.32952,-2.641315 11.40263,-2.641315 z"
         fill="#1a1a1a"
         id="path74"
         style="display:inline;enable-background:new;fill-rule:nonzero;stroke-width:5.16891" />
      <path
         d="m 139.22245,137.73306 h 23.67879 v 3.62341 l -12.92229,12.70002 v 0.10855 h 1.62304 c 3.81983,0 6.74027,0.92006 8.75614,2.7602 2.05206,1.83496 3.08067,4.50212 3.08067,7.9963 0,4.10929 -1.20435,7.27783 -3.61824,9.51597 -2.41905,2.19679 -5.89256,3.29777 -10.43603,3.29777 -3.6751,0 -6.93668,-0.68747 -9.77958,-2.05723 v -4.16097 c 3.02381,1.73158 6.28539,2.59479 9.77958,2.59479 3.17371,0 5.58759,-0.77534 7.24682,-2.32601 1.65405,-1.55067 2.48624,-3.83533 2.48624,-6.86432 0,-2.55861 -0.86837,-4.45043 -2.59479,-5.67546 -1.6954,-1.26122 -4.41425,-1.89183 -8.16171,-1.89183 h -3.94905 v -3.34945 l 12.92228,-12.53978 v -0.10855 h -18.11187 z"
         fill="#1a1a1a"
         id="path76"
         style="display:inline;enable-background:new;fill-rule:nonzero;stroke-width:5.16891" />
      <path
         d="m 211.56138,244.19199 c 2.70334,0.97692 5.53074,1.4628 8.48736,1.4628 3.49418,0 6.26989,-1.22503 8.32194,-3.6751 2.05723,-2.48624 3.11686,-6.16134 3.18922,-11.02529 l -0.10337,-0.0569 c -2.16578,3.13753 -5.63929,4.70372 -10.43604,4.70372 -3.92837,0 -7.04523,-1.20953 -9.35056,-3.62341 -2.30534,-2.41388 -3.458,-5.71165 -3.458,-9.88813 0,-4.10929 1.28189,-7.35537 3.83533,-9.73307 2.55861,-2.41388 5.91323,-3.61823 10.05353,-3.61823 9.37124,0 14.05428,5.76333 14.05428,17.29518 0,8.03766 -1.36976,13.92505 -4.10412,17.67251 -2.73952,3.71128 -6.74026,5.56692 -12.00221,5.56692 -2.88426,0 -5.71165,-0.41351 -8.48736,-1.24054 v -3.83533 z m 10.53941,-31.83534 c -2.91526,0 -5.24127,0.86838 -6.96769,2.5948 -1.73159,1.6954 -2.59479,4.0731 -2.59479,7.13827 0,3.13236 0.84253,5.61861 2.53793,7.45874 1.73159,1.79878 4.01625,2.70334 6.86432,2.70334 2.88425,0 5.20509,-0.90456 6.97286,-2.70334 1.80395,-1.80395 2.70334,-4.18165 2.70334,-7.13827 0,-1.0803 -0.18091,-2.16061 -0.54273,-3.24091 -0.32048,-1.11648 -0.84771,-2.19679 -1.56618,-3.24091 -0.6823,-1.04929 -1.67473,-1.89182 -2.97213,-2.5431 -1.26121,-0.6823 -2.73952,-1.02862 -4.43493,-1.02862 z"
         fill="#1a1a1a"
         id="path78"
         style="display:inline;enable-background:new;fill-rule:nonzero;stroke-width:5.16891" />
      <path
         d="m 250.87096,122.65018 c 1.79361,-1.39561 2.11926,-3.98007 0.72365,-5.77885 L 237.19919,98.314934 c -0.66679,-0.863208 -1.65405,-1.42662 -2.73953,-1.561012 -1.0803,-0.13956 -2.17094,0.160237 -3.03415,0.832195 -32.63134,25.327673 -65.26786,50.655343 -97.8992,75.977853 -0.50139,0.39283 -0.90973,0.89422 -1.18885,1.4628 l -11.43881,23.75115 c -0.67713,1.41111 -0.50138,3.0755 0.45487,4.31087 0.68229,0.87872 1.67472,1.42662 2.73952,1.56102 0.43419,0.0568 0.87872,0.0465 1.32324,-0.0465 l 25.84457,-5.19476 c 0.62543,-0.12406 1.21469,-0.39284 1.71607,-0.78051 32.63135,-25.32767 65.25753,-50.65534 97.89404,-75.97784 z"
         fill="url(#c)"
         id="path80"
         style="display:inline;enable-background:new;fill:url(#linearGradient894);fill-rule:nonzero;stroke-width:5.16891" />
      <path
         d="m 132.33746,175.02677 -11.43881,23.75115 c -0.67713,1.41111 -0.50138,3.0755 0.45487,4.31087 0.68229,0.87872 1.67472,1.42662 2.73952,1.56102 0.43419,0.0568 0.87872,0.0465 1.32324,-0.0465 l 25.84457,-5.19476 c -5.83054,-29.90216 -4.96733,-7.67584 -18.92339,-24.38176 z"
         fill="url(#d)"
         id="path82"
         style="display:inline;enable-background:new;fill:url(#linearGradient896);fill-rule:nonzero;stroke-width:5.16891" />
      <path
         d="M 251.59461,116.87133 237.19919,98.314934 c -0.66679,-0.863208 -1.65405,-1.42662 -2.73953,-1.561012 -1.0803,-0.13956 -2.17094,0.160237 -3.03415,0.832195 l -10.35333,8.032493 19.45062,25.05889 10.34816,-8.02732 c 1.79361,-1.39561 2.11926,-3.98007 0.72365,-5.77885 z"
         fill="url(#e)"
         id="path84"
         style="display:inline;enable-background:new;fill:url(#linearGradient898);fill-rule:nonzero;stroke-width:5.16891" />
      <path
         d="m 124.09304,191.83607 -3.458,7.18479 c -0.67196,1.40594 -0.50139,3.0755 0.46003,4.31087 0.67713,0.87355 1.66956,1.42662 2.73436,1.56102 0.43418,0.0517 0.88388,0.0413 1.32841,-0.0465 l 7.06073,-1.40594 c -0.40317,-9.77958 7.58796,-2.08824 -8.12553,-11.60421 z"
         fill="#4d4d4d"
         id="path86"
         style="display:inline;enable-background:new;fill-rule:nonzero;stroke-width:5.16891" />
      <path
         d="m 216.27543,109.33506 c -1.21986,0.94591 -2.43973,1.89699 -3.65959,2.8429 l 19.45062,25.05372 c 1.21469,-0.94591 2.43456,-1.89182 3.65442,-2.83774 z m 4.95182,-3.83534 c -1.21987,0.95108 -2.43973,1.89699 -3.66476,2.84807 l 19.45579,25.04855 c 1.21469,-0.94591 2.43455,-1.88665 3.64925,-2.83256 z"
         fill="url(#f)"
         id="path88"
         style="display:inline;enable-background:new;fill:url(#linearGradient900);fill-rule:nonzero;stroke-width:5.16891" />
      <path
         d="m 146.12811,182.59406 19.95201,-15.84272 65.11796,-48.24663 9.42293,12.08491 -87.61307,67.97121 c -0.49105,0.51172 -1.07514,0.765 -1.72642,0.8477 l -1.79878,-8.64759 c -0.68747,-2.96696 -1.43696,-6.02179 -3.35463,-8.16688 z"
         fill-opacity="0.04"
         id="path90"
         style="display:inline;enable-background:new;fill-rule:nonzero;stroke-width:5.16891" />
      <path
         d="m 331.39501,66.168314 h -3.56973 l -0.15816,2.66642 h 0.0233 c 0.4437,-0.263245 0.94471,-0.395929 1.50198,-0.395929 0.80566,0 1.43087,0.218663 1.87563,0.65599 0.44369,0.436266 0.6666,1.054043 0.6666,1.852271 0,0.919235 -0.26006,1.618746 -0.78018,2.100655 -0.51163,0.48297 -1.26528,0.723925 -2.25881,0.723925 -0.72287,0 -1.39372,-0.143299 -2.0115,-0.429897 v -0.858732 c 0.68572,0.354532 1.35657,0.531798 2.0115,0.531798 1.42343,0 2.13462,-0.689957 2.13462,-2.067749 0,-0.579565 -0.15392,-1.020076 -0.4628,-1.321534 -0.30889,-0.308889 -0.75365,-0.463864 -1.33321,-0.463864 -0.59443,0 -1.08801,0.174082 -1.4797,0.520122 h -0.7908 l 0.24839,-4.270307 h 4.38282 z"
         fill="#1a1a1a"
         id="path622"
         style="display:inline;enable-background:new;fill-rule:nonzero;stroke-width:1.06147" />
      <path
         d="m 343.88749,65.400869 c 0.80672,0 1.43299,0.206987 1.87774,0.622023 0.44476,0.407606 0.66767,0.97974 0.66767,1.719586 0,0.738786 -0.26749,1.489247 -0.80353,2.250323 -0.53499,0.754708 -1.53808,1.753554 -3.00822,2.9976 v 0.02335 h 3.84572 v 0.757892 h -5.09083 v -0.757892 c 1.60707,-1.327903 2.69614,-2.360716 3.26934,-3.099502 0.5732,-0.747277 0.85979,-1.447849 0.85979,-2.103839 0,-0.528614 -0.14754,-0.931974 -0.44157,-1.211141 -0.29403,-0.286598 -0.72392,-0.429897 -1.28863,-0.429897 -0.71649,0 -1.45952,0.219725 -2.22909,0.657052 v -0.883146 c 0.72392,-0.361962 1.50517,-0.542412 2.34161,-0.542412 z"
         fill="#1a1a1a"
         id="path624"
         style="display:inline;enable-background:new;fill-rule:nonzero;stroke-width:1.06147" />
      <path
         d="m 341.37604,80.248754 h 4.86261 v 0.744093 l -2.65368,2.60804 v 0.02229 h 0.3333 c 0.78443,0 1.38416,0.188943 1.79814,0.566827 0.4214,0.376823 0.63263,0.924543 0.63263,1.642099 0,0.843871 -0.24732,1.494554 -0.74303,1.954172 -0.49677,0.451126 -1.21008,0.67722 -2.14311,0.67722 -0.75471,0 -1.4245,-0.141176 -2.00831,-0.422467 v -0.854485 c 0.62096,0.355593 1.29075,0.532859 2.00831,0.532859 0.65174,0 1.14745,-0.159221 1.48818,-0.477663 0.33968,-0.318442 0.51057,-0.787613 0.51057,-1.409636 0,-0.525429 -0.17832,-0.913928 -0.53286,-1.165497 -0.34816,-0.259 -0.90649,-0.3885 -1.67606,-0.3885 h -0.81097 v -0.687834 l 2.65368,-2.575134 v -0.02229 h -3.7194 z"
         fill="#1a1a1a"
         id="path626"
         style="display:inline;enable-background:new;fill-rule:nonzero;stroke-width:1.06147" />
      <path
         d="m 356.23136,102.11085 c 0.55515,0.20062 1.13578,0.3004 1.74294,0.3004 0.71755,0 1.28756,-0.25157 1.70897,-0.75471 0.42247,-0.51056 0.64007,-1.26527 0.65493,-2.264118 l -0.0212,-0.01168 c -0.44476,0.644318 -1.15807,0.965948 -2.14312,0.965948 -0.80671,0 -1.44678,-0.24839 -1.9202,-0.744101 -0.47342,-0.495707 -0.71013,-1.172927 -0.71013,-2.030598 0,-0.843871 0.26325,-1.510476 0.78762,-1.998753 0.52543,-0.495708 1.21432,-0.743032 2.06456,-0.743032 1.92445,0 2.88615,1.183543 2.88615,3.551689 0,1.650595 -0.28129,2.859615 -0.84281,3.629185 -0.56258,0.76213 -1.38416,1.1432 -2.46474,1.1432 -0.5923,0 -1.17293,-0.0849 -1.74294,-0.25475 v -0.78761 z m 2.16434,-6.537608 c -0.59867,0 -1.07633,0.178327 -1.43086,0.532859 -0.3556,0.348163 -0.53286,0.836441 -0.53286,1.465894 0,0.643253 0.17302,1.153822 0.52118,1.531706 0.35559,0.369393 0.82477,0.555151 1.40964,0.555151 0.5923,0 1.0689,-0.185758 1.43192,-0.555151 0.37046,-0.370454 0.55515,-0.858732 0.55515,-1.465894 0,-0.221848 -0.0371,-0.443696 -0.11145,-0.665544 -0.0658,-0.229278 -0.17408,-0.451126 -0.32163,-0.665543 -0.14011,-0.21548 -0.34391,-0.3885 -0.61034,-0.522245 -0.259,-0.140115 -0.56258,-0.211233 -0.91075,-0.211233 z"
         fill="#1a1a1a"
         id="path628"
         style="display:inline;enable-background:new;fill-rule:nonzero;stroke-width:1.06147" />
      <path
         d="m 364.30386,77.151376 c 0.36833,-0.286598 0.43521,-0.817334 0.14861,-1.186727 l -2.9562,-3.810688 c -0.13693,-0.177266 -0.33968,-0.292967 -0.56259,-0.320565 -0.22184,-0.02866 -0.44581,0.03291 -0.62308,0.170897 -6.70108,5.201218 -13.40322,10.402436 -20.1043,15.602593 -0.10296,0.08067 -0.18682,0.183635 -0.24414,0.300397 l -2.34904,4.877469 c -0.13905,0.289782 -0.10296,0.631576 0.0934,0.885268 0.14011,0.180451 0.34392,0.292967 0.56258,0.320565 0.0892,0.01168 0.18045,0.0096 0.27174,-0.0096 l 5.30736,-1.066781 c 0.12844,-0.02548 0.24945,-0.08067 0.35241,-0.160282 6.70108,-5.201218 13.4011,-10.402436 20.10324,-15.602593 z"
         fill="url(#c)"
         id="path630"
         style="display:inline;enable-background:new;fill:url(#linearGradient656);fill-rule:nonzero;stroke-width:1.06147" />
      <path
         d="m 339.96216,87.907283 -2.34904,4.877469 c -0.13905,0.289782 -0.10296,0.631576 0.0934,0.885268 0.14011,0.180451 0.34392,0.292967 0.56258,0.320565 0.0892,0.01168 0.18045,0.0096 0.27174,-0.0096 l 5.30736,-1.066781 c -1.19734,-6.140621 -1.02007,-1.576287 -3.88605,-5.006968 z"
         fill="url(#d)"
         id="path632"
         style="display:inline;enable-background:new;fill:url(#linearGradient658);fill-rule:nonzero;stroke-width:1.06147" />
      <path
         d="m 364.45247,75.964649 -2.9562,-3.810688 c -0.13693,-0.177266 -0.33968,-0.292967 -0.56259,-0.320565 -0.22184,-0.02866 -0.44581,0.03291 -0.62308,0.170897 l -2.12613,1.649529 3.99432,5.146022 2.12507,-1.648468 c 0.36833,-0.286598 0.43521,-0.817334 0.14861,-1.186727 z"
         fill="url(#e)"
         id="path634"
         style="display:inline;enable-background:new;fill:url(#linearGradient660);fill-rule:nonzero;stroke-width:1.06147" />
      <path
         d="m 338.26911,91.359193 -0.71012,1.475448 c -0.138,0.288721 -0.10297,0.631577 0.0945,0.885269 0.13905,0.179389 0.34285,0.292966 0.56152,0.320564 0.0892,0.01062 0.18151,0.0085 0.27279,-0.0096 l 1.44998,-0.28872 c -0.0828,-2.008308 1.55824,-0.428836 -1.66864,-2.383008 z"
         fill="#4d4d4d"
         id="path636"
         style="display:inline;enable-background:new;fill-rule:nonzero;stroke-width:1.06147" />
      <path
         d="m 357.19942,74.417021 c -0.25051,0.19425 -0.50101,0.389561 -0.75152,0.58381 l 3.99432,5.144961 c 0.24945,-0.19425 0.49996,-0.3885 0.75046,-0.582749 z m 1.01689,-0.787613 c -0.2505,0.195311 -0.50101,0.389561 -0.75258,0.584872 l 3.99538,5.143899 c 0.24945,-0.19425 0.49996,-0.387438 0.7494,-0.581688 z"
         fill="url(#f)"
         id="path638"
         style="display:inline;enable-background:new;fill:url(#linearGradient662);fill-rule:nonzero;stroke-width:1.06147" />
      <path
         d="m 342.79417,89.461279 4.09729,-3.253415 13.37244,-9.907789 1.93506,2.481724 -17.99197,13.958371 c -0.10084,0.105086 -0.22078,0.157098 -0.35453,0.174081 l -0.36939,-1.775844 c -0.14118,-0.609286 -0.29509,-1.236616 -0.6889,-1.677128 z"
         fill-opacity="0.04"
         id="path640"
         style="display:inline;enable-background:new;fill-rule:nonzero;stroke-width:1.06147" />
      <path
         d="m 327.77935,136.37064 h -2.32808 l -0.10315,1.73897 h 0.0152 c 0.28937,-0.17168 0.61611,-0.25821 0.97955,-0.25821 0.52543,0 0.93318,0.1426 1.22324,0.42782 0.28936,0.28452 0.43474,0.68742 0.43474,1.208 0,0.5995 -0.16961,1.0557 -0.50882,1.36999 -0.33367,0.31498 -0.82518,0.47213 -1.47314,0.47213 -0.47143,0 -0.90894,-0.0935 -1.31184,-0.28037 v -0.56004 c 0.4472,0.23121 0.88472,0.34682 1.31184,0.34682 0.92833,0 1.39215,-0.44997 1.39215,-1.34853 0,-0.37798 -0.10038,-0.66527 -0.30183,-0.86187 -0.20145,-0.20145 -0.49151,-0.30252 -0.86948,-0.30252 -0.38767,0 -0.70958,0.11353 -0.96502,0.33921 H 324.759 l 0.16199,-2.78498 h 2.85836 z"
         fill="#1a1a1a"
         id="path684"
         style="display:inline;enable-background:new;fill-rule:nonzero;stroke-width:0.692265" />
      <path
         d="m 335.92662,135.87013 c 0.52612,0 0.93456,0.13499 1.22462,0.40567 0.29006,0.26583 0.43543,0.63896 0.43543,1.12147 0,0.48182 -0.17445,0.97125 -0.52404,1.4676 -0.3489,0.4922 -1.00309,1.14362 -1.96188,1.95496 v 0.0152 h 2.50808 v 0.49428 h -3.32011 v -0.49428 c 1.04809,-0.86603 1.75836,-1.5396 2.13218,-2.02142 0.37382,-0.48735 0.56073,-0.94425 0.56073,-1.37206 0,-0.34475 -0.0962,-0.60781 -0.28798,-0.78988 -0.19176,-0.18691 -0.47212,-0.28037 -0.84041,-0.28037 -0.46728,0 -0.95186,0.1433 -1.45375,0.42852 v -0.57597 c 0.47212,-0.23606 0.98163,-0.35375 1.52713,-0.35375 z"
         fill="#1a1a1a"
         id="path686"
         style="display:inline;enable-background:new;fill-rule:nonzero;stroke-width:0.692265" />
      <path
         d="m 334.28872,145.55354 h 3.17127 v 0.48528 l -1.73066,1.70089 v 0.0145 h 0.21737 c 0.51158,0 0.90271,0.12322 1.17269,0.36967 0.27483,0.24575 0.41259,0.60296 0.41259,1.07093 0,0.55035 -0.16129,0.97471 -0.48458,1.27446 -0.32398,0.29421 -0.78918,0.44167 -1.39768,0.44167 -0.4922,0 -0.92902,-0.0921 -1.30977,-0.27552 v -0.55728 c 0.40498,0.23191 0.84179,0.34752 1.30977,0.34752 0.42505,0 0.74833,-0.10384 0.97055,-0.31152 0.22153,-0.20768 0.33298,-0.51366 0.33298,-0.91933 0,-0.34267 -0.1163,-0.59604 -0.34752,-0.76011 -0.22706,-0.16891 -0.59119,-0.25336 -1.09308,-0.25336 h -0.52889 v -0.44859 l 1.73066,-1.67944 v -0.0145 h -2.4257 z"
         fill="#1a1a1a"
         id="path688"
         style="display:inline;enable-background:new;fill-rule:nonzero;stroke-width:0.692265" />
      <path
         d="m 343.97697,159.81143 c 0.36206,0.13084 0.74073,0.19591 1.1367,0.19591 0.46797,0 0.83972,-0.16407 1.11455,-0.4922 0.27552,-0.33298 0.41743,-0.82518 0.42713,-1.4766 l -0.0138,-0.008 c -0.29006,0.42021 -0.75526,0.62996 -1.39768,0.62996 -0.52612,0 -0.94356,-0.16199 -1.25231,-0.48527 -0.30875,-0.32329 -0.46312,-0.76496 -0.46312,-1.32431 0,-0.55035 0.17168,-0.98509 0.51366,-1.30353 0.34267,-0.32329 0.79195,-0.48459 1.34645,-0.48459 1.25508,0 1.88227,0.77188 1.88227,2.31632 0,1.07647 -0.18345,1.86496 -0.54966,2.36686 -0.3669,0.49704 -0.90271,0.74557 -1.60744,0.74557 -0.38628,0 -0.76495,-0.0554 -1.1367,-0.16615 v -0.51366 z m 1.41153,-4.26366 c -0.39044,0 -0.70196,0.1163 -0.93317,0.34752 -0.23191,0.22706 -0.34752,0.5455 -0.34752,0.95601 0,0.41952 0.11284,0.7525 0.3399,0.99894 0.23191,0.24091 0.53789,0.36206 0.91933,0.36206 0.38629,0 0.69711,-0.12115 0.93387,-0.36206 0.2416,-0.2416 0.36205,-0.56004 0.36205,-0.95602 0,-0.14468 -0.0242,-0.28936 -0.0727,-0.43405 -0.0429,-0.14953 -0.11353,-0.29421 -0.20975,-0.43405 -0.0914,-0.14053 -0.2243,-0.25337 -0.39806,-0.34059 -0.16891,-0.0914 -0.3669,-0.13776 -0.59396,-0.13776 z"
         fill="#1a1a1a"
         id="path690"
         style="display:inline;enable-background:new;fill-rule:nonzero;stroke-width:0.692265" />
      <path
         d="m 349.24165,143.53351 c 0.24021,-0.18691 0.28383,-0.53305 0.0969,-0.77395 l -1.92796,-2.48524 c -0.0893,-0.1156 -0.22153,-0.19106 -0.3669,-0.20906 -0.14469,-0.0187 -0.29075,0.0215 -0.40636,0.11145 -4.37027,3.3921 -8.74123,6.7842 -13.1115,10.17561 -0.0671,0.0526 -0.12184,0.11976 -0.15922,0.19591 l -1.53199,3.18096 c -0.0907,0.18899 -0.0671,0.4119 0.0609,0.57735 0.0914,0.11768 0.2243,0.19106 0.3669,0.20906 0.0582,0.008 0.11769,0.006 0.17722,-0.006 l 3.46133,-0.69573 c 0.0838,-0.0166 0.16268,-0.0526 0.22983,-0.10453 4.37027,-3.3921 8.73985,-6.7842 13.11081,-10.1756 z"
         fill="url(#c)"
         id="path692"
         style="display:inline;enable-background:new;fill:url(#linearGradient718);fill-rule:nonzero;stroke-width:0.692265" />
      <path
         d="m 333.36663,150.54823 -1.53199,3.18096 c -0.0907,0.18899 -0.0671,0.4119 0.0609,0.57735 0.0914,0.11768 0.2243,0.19106 0.3669,0.20906 0.0582,0.008 0.11769,0.006 0.17722,-0.006 l 3.46133,-0.69573 c -0.78088,-4.00475 -0.66527,-1.02801 -2.53438,-3.26541 z"
         fill="url(#d)"
         id="path694"
         style="display:inline;enable-background:new;fill:url(#linearGradient720);fill-rule:nonzero;stroke-width:0.692265" />
      <path
         d="m 349.33857,142.75956 -1.92796,-2.48524 c -0.0893,-0.1156 -0.22153,-0.19106 -0.3669,-0.20906 -0.14469,-0.0187 -0.29075,0.0215 -0.40636,0.11145 l -1.38661,1.07578 2.60499,3.35611 1.38592,-1.07509 c 0.24021,-0.18691 0.28383,-0.53305 0.0969,-0.77395 z"
         fill="url(#e)"
         id="path696"
         style="display:inline;enable-background:new;fill:url(#linearGradient722);fill-rule:nonzero;stroke-width:0.692265" />
      <path
         d="m 332.26246,152.79948 -0.46312,0.96224 c -0.09,0.1883 -0.0671,0.4119 0.0616,0.57735 0.0907,0.117 0.2236,0.19107 0.36621,0.20907 0.0581,0.007 0.11837,0.006 0.17791,-0.006 l 0.94563,-0.1883 c -0.054,-1.30976 1.01625,-0.27967 -1.08824,-1.55413 z"
         fill="#4d4d4d"
         id="path698"
         style="display:inline;enable-background:new;fill-rule:nonzero;stroke-width:0.692265" />
      <path
         d="m 344.60832,141.75023 c -0.16338,0.12669 -0.32675,0.25406 -0.49013,0.38075 l 2.605,3.35541 c 0.16268,-0.12669 0.32606,-0.25337 0.48943,-0.38006 z m 0.66319,-0.51366 c -0.16338,0.12738 -0.32675,0.25406 -0.49082,0.38144 l 2.60569,3.35472 c 0.16268,-0.12669 0.32606,-0.25268 0.48874,-0.37936 z"
         fill="url(#f)"
         id="path700"
         style="display:inline;enable-background:new;fill:url(#linearGradient724);fill-rule:nonzero;stroke-width:0.692265" />
      <path
         d="m 335.21359,151.56171 2.67214,-2.1218 8.72116,-6.4616 1.262,1.61852 -11.7339,9.10328 c -0.0658,0.0685 -0.14399,0.10246 -0.23121,0.11353 l -0.24091,-1.15816 c -0.0921,-0.39736 -0.19245,-0.80648 -0.44928,-1.09377 z"
         fill-opacity="0.04"
         id="path702"
         style="display:inline;enable-background:new;fill-rule:nonzero;stroke-width:0.692265" />
      <path
         d="m 325.6975,191.08415 h -1.78487 l -0.0791,1.33321 h 0.0117 c 0.22185,-0.13162 0.47236,-0.19796 0.75099,-0.19796 0.40283,0 0.71544,0.10933 0.93781,0.32799 0.22185,0.21814 0.33331,0.52703 0.33331,0.92614 0,0.45962 -0.13003,0.80937 -0.39009,1.05033 -0.25582,0.24148 -0.63264,0.36196 -1.12941,0.36196 -0.36143,0 -0.69686,-0.0717 -1.00575,-0.21495 v -0.42936 c 0.34286,0.17726 0.67828,0.26589 1.00575,0.26589 0.71172,0 1.06731,-0.34497 1.06731,-1.03387 0,-0.28978 -0.077,-0.51004 -0.2314,-0.66077 -0.15445,-0.15444 -0.37683,-0.23193 -0.66661,-0.23193 -0.29721,0 -0.544,0.087 -0.73984,0.26006 h -0.3954 l 0.12419,-2.13515 h 2.19141 z"
         fill="#1a1a1a"
         id="path746"
         style="display:inline;enable-background:new;fill-rule:nonzero;stroke-width:0.530737" />
      <path
         d="m 331.94374,190.70043 c 0.40336,0 0.71649,0.1035 0.93887,0.31101 0.22238,0.20381 0.33384,0.48987 0.33384,0.8598 0,0.36939 -0.13375,0.74462 -0.40177,1.12516 -0.26749,0.37735 -0.76904,0.87677 -1.50411,1.4988 v 0.0117 h 1.92286 v 0.37895 h -2.54541 v -0.37895 c 0.80353,-0.66395 1.34807,-1.18035 1.63467,-1.54975 0.28659,-0.37364 0.42989,-0.72392 0.42989,-1.05192 0,-0.2643 -0.0738,-0.46598 -0.22078,-0.60557 -0.14702,-0.1433 -0.36197,-0.21495 -0.64432,-0.21495 -0.35825,0 -0.72976,0.10987 -1.11455,0.32853 v -0.44157 c 0.36197,-0.18098 0.75259,-0.27121 1.17081,-0.27121 z"
         fill="#1a1a1a"
         id="path748"
         style="display:inline;enable-background:new;fill-rule:nonzero;stroke-width:0.530737" />
      <path
         d="m 330.68802,198.12437 h 2.4313 v 0.37205 l -1.32684,1.30402 v 0.0111 h 0.16665 c 0.39222,0 0.69208,0.0945 0.89907,0.28341 0.2107,0.18841 0.31632,0.46227 0.31632,0.82105 0,0.42193 -0.12366,0.74728 -0.37152,0.97709 -0.24838,0.22556 -0.60504,0.3386 -1.07156,0.3386 -0.37735,0 -0.71224,-0.0706 -1.00415,-0.21123 v -0.42724 c 0.31048,0.1778 0.64538,0.26643 1.00415,0.26643 0.32588,0 0.57373,-0.0796 0.7441,-0.23883 0.16983,-0.15922 0.25528,-0.39381 0.25528,-0.70482 0,-0.26272 -0.0892,-0.45697 -0.26643,-0.58275 -0.17408,-0.1295 -0.45325,-0.19425 -0.83803,-0.19425 h -0.40548 v -0.34392 l 1.32684,-1.28756 v -0.0111 h -1.8597 z"
         fill="#1a1a1a"
         id="path750"
         style="display:inline;enable-background:new;fill-rule:nonzero;stroke-width:0.530737" />
      <path
         d="m 338.11568,209.05543 c 0.27757,0.1003 0.56788,0.15019 0.87146,0.15019 0.35878,0 0.64379,-0.12578 0.85449,-0.37735 0.21123,-0.25528 0.32003,-0.63264 0.32746,-1.13206 l -0.0106,-0.006 c -0.22238,0.32216 -0.57903,0.48297 -1.07156,0.48297 -0.40336,0 -0.72339,-0.12419 -0.9601,-0.37205 -0.23671,-0.24785 -0.35506,-0.58646 -0.35506,-1.01529 0,-0.42194 0.13162,-0.75524 0.3938,-0.99938 0.26272,-0.24786 0.60717,-0.37152 1.03229,-0.37152 0.96222,0 1.44307,0.59177 1.44307,1.77585 0,0.82529 -0.14065,1.4298 -0.42141,1.81459 -0.28129,0.38106 -0.69208,0.5716 -1.23237,0.5716 -0.29615,0 -0.58646,-0.0425 -0.87146,-0.12738 v -0.3938 z m 1.08217,-3.26881 c -0.29934,0 -0.53817,0.0892 -0.71544,0.26643 -0.17779,0.17408 -0.26643,0.41822 -0.26643,0.73295 0,0.32162 0.0865,0.57691 0.2606,0.76585 0.17779,0.18469 0.41238,0.27757 0.70481,0.27757 0.29616,0 0.53446,-0.0929 0.71597,-0.27757 0.18522,-0.18523 0.27757,-0.42937 0.27757,-0.73295 0,-0.11092 -0.0186,-0.22185 -0.0557,-0.33277 -0.0329,-0.11464 -0.0871,-0.22556 -0.16082,-0.33277 -0.07,-0.10774 -0.17196,-0.19425 -0.30517,-0.26112 -0.1295,-0.0701 -0.28129,-0.10562 -0.45537,-0.10562 z"
         fill="#1a1a1a"
         id="path752"
         style="display:inline;enable-background:new;fill-rule:nonzero;stroke-width:0.530737" />
      <path
         d="m 342.15193,196.57569 c 0.18416,-0.1433 0.2176,-0.40867 0.0743,-0.59337 l -1.4781,-1.90534 c -0.0685,-0.0886 -0.16984,-0.14649 -0.28129,-0.16028 -0.11093,-0.0143 -0.22291,0.0165 -0.31154,0.0854 -3.35054,2.60061 -6.70161,5.20122 -10.05215,7.8013 -0.0515,0.0403 -0.0934,0.0918 -0.12207,0.1502 l -1.17452,2.43873 c -0.0695,0.14489 -0.0515,0.31579 0.0467,0.44264 0.0701,0.0902 0.17196,0.14648 0.28129,0.16028 0.0446,0.006 0.0902,0.005 0.13587,-0.005 l 2.65368,-0.53339 c 0.0642,-0.0127 0.12473,-0.0403 0.17621,-0.0801 3.35054,-2.60061 6.70055,-5.20122 10.05162,-7.80129 z"
         fill="url(#c)"
         id="path754"
         style="display:inline;enable-background:new;fill:url(#linearGradient780);fill-rule:nonzero;stroke-width:0.530737" />
      <path
         d="m 329.98108,201.95364 -1.17452,2.43873 c -0.0695,0.14489 -0.0515,0.31579 0.0467,0.44264 0.0701,0.0902 0.17196,0.14648 0.28129,0.16028 0.0446,0.006 0.0902,0.005 0.13587,-0.005 l 2.65368,-0.53339 c -0.59867,-3.07031 -0.51004,-0.78814 -1.94302,-2.50348 z"
         fill="url(#d)"
         id="path756"
         style="display:inline;enable-background:new;fill:url(#linearGradient782);fill-rule:nonzero;stroke-width:0.530737" />
      <path
         d="m 342.22623,195.98232 -1.4781,-1.90534 c -0.0685,-0.0886 -0.16984,-0.14649 -0.28129,-0.16028 -0.11093,-0.0143 -0.22291,0.0165 -0.31154,0.0854 l -1.06307,0.82477 1.99716,2.57301 1.06254,-0.82423 c 0.18416,-0.1433 0.2176,-0.40867 0.0743,-0.59337 z"
         fill="url(#e)"
         id="path758"
         style="display:inline;enable-background:new;fill:url(#linearGradient784);fill-rule:nonzero;stroke-width:0.530737" />
      <path
         d="m 329.13455,203.67959 -0.35506,0.73773 c -0.069,0.14436 -0.0515,0.31579 0.0472,0.44263 0.0695,0.0897 0.17143,0.14649 0.28076,0.16028 0.0446,0.005 0.0908,0.004 0.1364,-0.005 l 0.72499,-0.14436 c -0.0414,-1.00416 0.77912,-0.21442 -0.83432,-1.19151 z"
         fill="#4d4d4d"
         id="path760"
         style="display:inline;enable-background:new;fill-rule:nonzero;stroke-width:0.530737" />
      <path
         d="m 338.59971,195.20851 c -0.12526,0.0971 -0.25051,0.19478 -0.37576,0.2919 l 1.99716,2.57248 c 0.12472,-0.0971 0.24997,-0.19425 0.37523,-0.29137 z m 0.50844,-0.39381 c -0.12525,0.0977 -0.25051,0.19478 -0.37629,0.29244 l 1.99769,2.57195 c 0.12473,-0.0971 0.24998,-0.19372 0.3747,-0.29085 z"
         fill="url(#f)"
         id="path762"
         style="display:inline;enable-background:new;fill:url(#linearGradient786);fill-rule:nonzero;stroke-width:0.530737" />
      <path
         d="m 331.39708,202.73064 2.04864,-1.62671 6.68622,-4.9539 0.96754,1.24087 -8.99599,6.97918 c -0.0504,0.0525 -0.11039,0.0786 -0.17726,0.087 l -0.1847,-0.88792 c -0.0706,-0.30464 -0.14755,-0.61831 -0.34445,-0.83856 z"
         fill-opacity="0.04"
         id="path764"
         style="display:inline;enable-background:new;fill-rule:nonzero;stroke-width:0.530737" />
      <path
         d="m 323.88968,238.18532 h -1.16405 l -0.0516,0.86949 h 0.008 c 0.14469,-0.0858 0.30806,-0.12911 0.48978,-0.12911 0.26272,0 0.46659,0.0713 0.61162,0.21391 0.14468,0.14226 0.21737,0.34371 0.21737,0.604 0,0.29975 -0.0848,0.52785 -0.25441,0.685 -0.16683,0.15749 -0.41259,0.23606 -0.73657,0.23606 -0.23571,0 -0.45447,-0.0467 -0.65592,-0.14019 v -0.28002 c 0.2236,0.11561 0.44236,0.17342 0.65592,0.17342 0.46417,0 0.69607,-0.22499 0.69607,-0.67427 0,-0.18899 -0.0502,-0.33263 -0.15091,-0.43094 -0.10072,-0.10072 -0.24575,-0.15126 -0.43474,-0.15126 -0.19384,0 -0.35479,0.0568 -0.48251,0.16961 h -0.25787 l 0.081,-1.39249 h 1.42918 z"
         fill="#1a1a1a"
         id="path808"
         style="display:inline;enable-background:new;fill-rule:nonzero;stroke-width:0.346133" />
      <path
         d="m 327.96331,237.93507 c 0.26306,0 0.46728,0.0675 0.61231,0.20283 0.14503,0.13292 0.21772,0.31948 0.21772,0.56074 0,0.2409 -0.0872,0.48562 -0.26203,0.7338 -0.17445,0.2461 -0.50154,0.57181 -0.98093,0.97747 v 0.008 h 1.25403 v 0.24714 h -1.66005 v -0.24714 c 0.52405,-0.43301 0.87918,-0.7698 1.06609,-1.01071 0.18691,-0.24368 0.28037,-0.47212 0.28037,-0.68603 0,-0.17238 -0.0481,-0.30391 -0.14399,-0.39494 -0.0959,-0.0935 -0.23607,-0.14018 -0.42021,-0.14018 -0.23364,0 -0.47593,0.0717 -0.72688,0.21425 v -0.28798 c 0.23607,-0.11803 0.49082,-0.17687 0.76357,-0.17687 z"
         fill="#1a1a1a"
         id="path810"
         style="display:inline;enable-background:new;fill-rule:nonzero;stroke-width:0.346133" />
      <path
         d="m 327.14436,242.77677 h 1.58563 v 0.24264 l -0.86533,0.85045 v 0.007 h 0.10869 c 0.25579,0 0.45136,0.0616 0.58635,0.18484 0.13741,0.12288 0.20629,0.30148 0.20629,0.53547 0,0.27517 -0.0806,0.48735 -0.24229,0.63723 -0.16199,0.1471 -0.39459,0.22083 -0.69884,0.22083 -0.2461,0 -0.46451,-0.046 -0.65488,-0.13776 v -0.27864 c 0.20248,0.11596 0.42089,0.17376 0.65488,0.17376 0.21252,0 0.37417,-0.0519 0.48528,-0.15576 0.11076,-0.10384 0.16649,-0.25683 0.16649,-0.45966 0,-0.17134 -0.0582,-0.29802 -0.17376,-0.38006 -0.11353,-0.0844 -0.2956,-0.12668 -0.54655,-0.12668 h -0.26444 v -0.2243 l 0.86533,-0.83971 v -0.007 h -1.21285 z"
         fill="#1a1a1a"
         id="path812"
         style="display:inline;enable-background:new;fill-rule:nonzero;stroke-width:0.346133" />
      <path
         d="m 331.98849,249.90571 c 0.18102,0.0654 0.37036,0.098 0.56835,0.098 0.23398,0 0.41986,-0.082 0.55727,-0.2461 0.13776,-0.16649 0.20872,-0.41259 0.21356,-0.7383 l -0.007,-0.004 c -0.14503,0.2101 -0.37763,0.31498 -0.69884,0.31498 -0.26306,0 -0.47178,-0.081 -0.62615,-0.24264 -0.15438,-0.16164 -0.23157,-0.38247 -0.23157,-0.66215 0,-0.27517 0.0858,-0.49254 0.25683,-0.65177 0.17134,-0.16164 0.39598,-0.24229 0.67323,-0.24229 0.62754,0 0.94114,0.38594 0.94114,1.15816 0,0.53824 -0.0917,0.93248 -0.27483,1.18343 -0.18345,0.24852 -0.45136,0.37278 -0.80372,0.37278 -0.19315,0 -0.38248,-0.0277 -0.56835,-0.0831 v -0.25683 z m 0.70576,-2.13183 c -0.19522,0 -0.35098,0.0582 -0.46659,0.17376 -0.11595,0.11353 -0.17375,0.27276 -0.17375,0.47801 0,0.20976 0.0564,0.37625 0.16995,0.49947 0.11595,0.12046 0.26894,0.18103 0.45966,0.18103 0.19314,0 0.34856,-0.0606 0.46693,-0.18103 0.1208,-0.1208 0.18103,-0.28002 0.18103,-0.47801 0,-0.0723 -0.0121,-0.14468 -0.0363,-0.21702 -0.0215,-0.0748 -0.0568,-0.14711 -0.10488,-0.21703 -0.0457,-0.0703 -0.11215,-0.12668 -0.19903,-0.1703 -0.0844,-0.0457 -0.18345,-0.0689 -0.29698,-0.0689 z"
         fill="#1a1a1a"
         id="path814"
         style="display:inline;enable-background:new;fill-rule:nonzero;stroke-width:0.346133" />
      <path
         d="m 334.62082,241.76675 c 0.12011,-0.0934 0.14192,-0.26652 0.0485,-0.38697 l -0.96398,-1.24262 c -0.0447,-0.0578 -0.11076,-0.0955 -0.18345,-0.10453 -0.0723,-0.009 -0.14537,0.0107 -0.20318,0.0557 -2.18513,1.69605 -4.37061,3.3921 -6.55575,5.0878 -0.0336,0.0263 -0.0609,0.0599 -0.0796,0.098 l -0.76599,1.59047 c -0.0453,0.0945 -0.0336,0.20595 0.0305,0.28868 0.0457,0.0588 0.11215,0.0955 0.18345,0.10453 0.0291,0.004 0.0588,0.003 0.0886,-0.003 l 1.73066,-0.34787 c 0.0419,-0.008 0.0814,-0.0263 0.11492,-0.0523 2.18514,-1.69605 4.36992,-3.3921 6.5554,-5.08781 z"
         fill="url(#c)"
         id="path816"
         style="display:inline;enable-background:new;fill:url(#linearGradient842);fill-rule:nonzero;stroke-width:0.346133" />
      <path
         d="m 326.68331,245.27412 -0.76599,1.59047 c -0.0453,0.0945 -0.0336,0.20595 0.0305,0.28868 0.0457,0.0588 0.11215,0.0955 0.18345,0.10453 0.0291,0.004 0.0588,0.003 0.0886,-0.003 l 1.73066,-0.34787 c -0.39043,-2.00237 -0.33263,-0.514 -1.26719,-1.6327 z"
         fill="url(#d)"
         id="path818"
         style="display:inline;enable-background:new;fill:url(#linearGradient844);fill-rule:nonzero;stroke-width:0.346133" />
      <path
         d="m 334.66928,241.37978 -0.96398,-1.24262 c -0.0447,-0.0578 -0.11076,-0.0955 -0.18345,-0.10453 -0.0723,-0.009 -0.14537,0.0107 -0.20318,0.0557 l -0.6933,0.53789 1.3025,1.67805 0.69295,-0.53755 c 0.12011,-0.0934 0.14192,-0.26652 0.0485,-0.38697 z"
         fill="url(#e)"
         id="path820"
         style="display:inline;enable-background:new;fill:url(#linearGradient846);fill-rule:nonzero;stroke-width:0.346133" />
      <path
         d="m 326.13123,246.39974 -0.23156,0.48112 c -0.045,0.0941 -0.0336,0.20595 0.0308,0.28868 0.0453,0.0585 0.11181,0.0955 0.18311,0.10453 0.0291,0.003 0.0592,0.003 0.089,-0.003 l 0.47282,-0.0941 c -0.027,-0.65489 0.50812,-0.13984 -0.54412,-0.77707 z"
         fill="#4d4d4d"
         id="path822"
         style="display:inline;enable-background:new;fill-rule:nonzero;stroke-width:0.346133" />
      <path
         d="m 332.30416,240.87512 c -0.0817,0.0633 -0.16338,0.12703 -0.24506,0.19037 l 1.30249,1.6777 c 0.0814,-0.0633 0.16303,-0.12668 0.24472,-0.19002 z m 0.33159,-0.25683 c -0.0817,0.0637 -0.16337,0.12703 -0.2454,0.19072 l 1.30284,1.67735 c 0.0813,-0.0633 0.16303,-0.12633 0.24437,-0.18968 z"
         fill="url(#f)"
         id="path824"
         style="display:inline;enable-background:new;fill:url(#linearGradient848);fill-rule:nonzero;stroke-width:0.346133" />
      <path
         d="m 327.60679,245.78085 1.33608,-1.06089 4.36057,-3.2308 0.631,0.80925 -5.86694,4.55165 c -0.0329,0.0343 -0.072,0.0512 -0.11561,0.0568 l -0.12046,-0.57908 c -0.046,-0.19868 -0.0962,-0.40324 -0.22464,-0.54689 z"
         fill-opacity="0.04"
         id="path826"
         style="display:inline;enable-background:new;fill-rule:nonzero;stroke-width:0.346133" />
    </g>
  </g>
</svg>
