<?xml version="1.0" encoding="UTF-8" standalone="no"?>
<svg
   inkscape:export-ydpi="90.000000"
   inkscape:export-xdpi="90.000000"
   width="400"
   height="300"
   id="svg11300"
   sodipodi:version="0.32"
   inkscape:version="1.2.2 (b0a8486541, 2022-12-01)"
   sodipodi:docname="to-do-app.svg"
   inkscape:output_extension="org.inkscape.output.svg.inkscape"
   version="1.0"
   style="display:inline;enable-background:new"
   inkscape:export-filename="/home/sam/suru-template.png"
   xmlns:inkscape="http://www.inkscape.org/namespaces/inkscape"
   xmlns:sodipodi="http://sodipodi.sourceforge.net/DTD/sodipodi-0.dtd"
   xmlns:xlink="http://www.w3.org/1999/xlink"
   xmlns="http://www.w3.org/2000/svg"
   xmlns:svg="http://www.w3.org/2000/svg"
   xmlns:rdf="http://www.w3.org/1999/02/22-rdf-syntax-ns#"
   xmlns:cc="http://creativecommons.org/ns#"
   xmlns:dc="http://purl.org/dc/elements/1.1/">
  <title
     id="title3004">Suru Icon Theme Template</title>
  <sodipodi:namedview
     stroke="#ef2929"
     fill="#f57900"
     id="base"
     pagecolor="#ffffff"
     bordercolor="#000000"
     borderopacity="0.25490196"
     inkscape:pageopacity="0"
     inkscape:pageshadow="2"
     inkscape:zoom="2"
     inkscape:cx="430.5"
     inkscape:cy="135"
     inkscape:current-layer="layer6"
     showgrid="false"
     inkscape:grid-bbox="true"
     inkscape:document-units="px"
     inkscape:showpageshadow="false"
     inkscape:window-width="1920"
     inkscape:window-height="1020"
     inkscape:window-x="0"
     inkscape:window-y="32"
     width="400px"
     height="300px"
     inkscape:snap-nodes="true"
     inkscape:snap-bbox="true"
     gridtolerance="10000"
     inkscape:object-nodes="true"
     inkscape:snap-grids="true"
     showguides="true"
     inkscape:guide-bbox="true"
     inkscape:window-maximized="1"
     inkscape:bbox-paths="true"
     inkscape:snap-bbox-midpoints="true"
     inkscape:snap-global="true"
     inkscape:object-paths="true"
     inkscape:snap-intersection-paths="true"
     inkscape:snap-smooth-nodes="true"
     inkscape:pagecheckerboard="false"
     showborder="false"
     inkscape:document-rotation="0"
     inkscape:deskcolor="#d1d1d1">
    <inkscape:grid
       spacingy="1"
       spacingx="1"
       id="grid5883"
       type="xygrid"
       enabled="true"
       visible="true"
       empspacing="4"
       snapvisiblegridlinesonly="true"
       originx="0"
       originy="0" />
    <inkscape:grid
       type="xygrid"
       id="grid11592"
       empspacing="2"
       visible="true"
       enabled="false"
       spacingx="0.5"
       spacingy="0.5"
       color="#ff0000"
       opacity="0.1254902"
       empcolor="#ff0000"
       empopacity="0.25098039"
       snapvisiblegridlinesonly="true"
       originx="0"
       originy="0" />
  </sodipodi:namedview>
  <defs
     id="defs3">
    <linearGradient
       id="d"
       x1="132.28999"
       x2="132.28999"
       y1="101.21"
       y2="270.54001"
       gradientTransform="matrix(0.9318325,0,0,0.9318325,9.2334185,-15.05606)"
       gradientUnits="userSpaceOnUse">
      <stop
         stop-color="#fdfdfd"
         offset="0"
         id="stop22" />
      <stop
         stop-color="#fff"
         offset="1"
         id="stop24" />
    </linearGradient>
    <linearGradient
       id="e"
       x1="132.28999"
       x2="132.28999"
       y1="48.292"
       y2="132.96001"
       gradientTransform="matrix(4.1446685e-6,0.9318325,0.9318325,-4.1446685e-6,-15.054887,9.2343536)"
       gradientUnits="userSpaceOnUse">
      <stop
         stop-color="#f3f2f3"
         offset="0"
         id="stop30" />
      <stop
         stop-color="#dcdadc"
         offset="1"
         id="stop32" />
    </linearGradient>
    <filter
       id="g"
       x="-0.025320717"
       y="-0.027357855"
       width="1.0506414"
       height="1.0547157"
       color-interpolation-filters="sRGB">
      <feGaussianBlur
         stdDeviation="1.1196871"
         id="feGaussianBlur27" />
    </filter>
    <filter
       id="h"
       color-interpolation-filters="sRGB"
       x="-0.1757167"
       y="-0.1757167"
       width="1.3514334"
       height="1.3866521">
      <feFlood
         flood-color="rgb(27,233,255)"
         flood-opacity=".58824"
         result="flood"
         id="feFlood64" />
      <feComposite
         in="flood"
         in2="SourceGraphic"
         operator="out"
         result="composite1"
         id="feComposite66" />
      <feGaussianBlur
         in="composite1"
         result="blur"
         stdDeviation="6"
         id="feGaussianBlur68" />
      <feOffset
         dx="0"
         dy="3"
         result="offset"
         id="feOffset70" />
      <feComposite
         in="offset"
         in2="SourceGraphic"
         operator="in"
         result="composite2"
         id="feComposite72" />
    </filter>
    <linearGradient
       inkscape:collect="always"
       xlink:href="#a"
       id="linearGradient271"
       gradientUnits="userSpaceOnUse"
       gradientTransform="matrix(0.14918157,0,0,0.14918157,129.86738,133.44557)"
       x1="522.46002"
       y1="263.95001"
       x2="522.46002"
       y2="837.39001" />
    <linearGradient
       id="a">
      <stop
         stop-color="#f6f7f7"
         offset="0"
         id="stop36" />
      <stop
         stop-color="#dce7f0"
         offset="1"
         id="stop38" />
    </linearGradient>
    <filter
       id="i"
       color-interpolation-filters="sRGB"
       x="-0.047999515"
       y="-0.069766124"
       width="1.095999"
       height="1.1686015">
      <feFlood
         flood-color="rgb(0,0,0)"
         flood-opacity=".19608"
         result="flood"
         id="feFlood53" />
      <feComposite
         in="flood"
         in2="SourceGraphic"
         operator="in"
         result="composite1"
         id="feComposite55" />
      <feGaussianBlur
         in="composite1"
         result="blur"
         stdDeviation="1"
         id="feGaussianBlur57" />
      <feOffset
         dx="0"
         dy="1"
         result="offset"
         id="feOffset59" />
      <feComposite
         in="offset"
         in2="SourceGraphic"
         operator="out"
         result="composite2"
         id="feComposite61" />
    </filter>
    <linearGradient
       inkscape:collect="always"
       xlink:href="#a"
       id="linearGradient550"
       gradientUnits="userSpaceOnUse"
       gradientTransform="matrix(0.15166,0,0,0.15166,112.96799,112.53896)"
       x1="522.46002"
       y1="263.95001"
       x2="522.46002"
       y2="837.39001" />
    <linearGradient
       inkscape:collect="always"
       xlink:href="#d"
       id="linearGradient588"
       gradientUnits="userSpaceOnUse"
       gradientTransform="matrix(0.18823128,0,0,0.18823128,58.501851,313.59365)"
       x1="132.28999"
       y1="101.21"
       x2="132.28999"
       y2="270.54001" />
    <linearGradient
       inkscape:collect="always"
       xlink:href="#e"
       id="linearGradient590"
       gradientUnits="userSpaceOnUse"
       gradientTransform="matrix(8.3722801e-7,0.18823128,0.18823128,-8.3722801e-7,313.59413,58.500632)"
       x1="132.28999"
       y1="48.292"
       x2="132.28999"
       y2="132.96001" />
    <linearGradient
       inkscape:collect="always"
       xlink:href="#a"
       id="linearGradient592"
       gradientUnits="userSpaceOnUse"
       gradientTransform="matrix(0.15166,0,0,0.15166,112.96799,112.53896)"
       x1="522.46002"
       y1="263.95001"
       x2="522.46002"
       y2="837.39001" />
    <linearGradient
       inkscape:collect="always"
       xlink:href="#a"
       id="linearGradient594"
       gradientUnits="userSpaceOnUse"
       gradientTransform="matrix(0.0306355,0,0,0.0306355,339.45491,79.368286)"
       x1="522.46002"
       y1="263.95001"
       x2="522.46002"
       y2="837.39001" />
    <linearGradient
       inkscape:collect="always"
       xlink:href="#d"
       id="linearGradient620"
       gradientUnits="userSpaceOnUse"
       gradientTransform="matrix(0.12275953,0,0,0.12275953,131.37126,316.16936)"
       x1="132.28999"
       y1="101.21"
       x2="132.28999"
       y2="270.54001" />
    <linearGradient
       inkscape:collect="always"
       xlink:href="#e"
       id="linearGradient622"
       gradientUnits="userSpaceOnUse"
       gradientTransform="matrix(5.4601826e-7,0.12275953,0.12275953,-5.4601826e-7,316.17009,131.36997)"
       x1="132.28999"
       y1="48.292"
       x2="132.28999"
       y2="132.96001" />
    <linearGradient
       inkscape:collect="always"
       xlink:href="#a"
       id="linearGradient624"
       gradientUnits="userSpaceOnUse"
       gradientTransform="matrix(0.15166,0,0,0.15166,112.96799,112.53896)"
       x1="522.46002"
       y1="263.95001"
       x2="522.46002"
       y2="837.39001" />
    <linearGradient
       inkscape:collect="always"
       xlink:href="#a"
       id="linearGradient626"
       gradientUnits="userSpaceOnUse"
       gradientTransform="matrix(0.01997967,0,0,0.01997967,333.03581,144.97931)"
       x1="522.46002"
       y1="263.95001"
       x2="522.46002"
       y2="837.39001" />
    <linearGradient
       inkscape:collect="always"
       xlink:href="#d"
       id="linearGradient652"
       gradientUnits="userSpaceOnUse"
       gradientTransform="matrix(0.09411564,0,0,0.09411564,187.25164,316.79612)"
       x1="132.28999"
       y1="101.21"
       x2="132.28999"
       y2="270.54001" />
    <linearGradient
       inkscape:collect="always"
       xlink:href="#e"
       id="linearGradient654"
       gradientUnits="userSpaceOnUse"
       gradientTransform="matrix(4.1861401e-7,0.09411564,0.09411564,-4.1861401e-7,316.79707,187.25032)"
       x1="132.28999"
       y1="48.292"
       x2="132.28999"
       y2="132.96001" />
    <linearGradient
       inkscape:collect="always"
       xlink:href="#a"
       id="linearGradient656"
       gradientUnits="userSpaceOnUse"
       gradientTransform="matrix(0.15166,0,0,0.15166,112.96799,112.53896)"
       x1="522.46002"
       y1="263.95001"
       x2="522.46002"
       y2="837.39001" />
    <linearGradient
       inkscape:collect="always"
       xlink:href="#a"
       id="linearGradient658"
       gradientUnits="userSpaceOnUse"
       gradientTransform="matrix(0.01531775,0,0,0.01531775,329.72745,197.68414)"
       x1="522.46002"
       y1="263.95001"
       x2="522.46002"
       y2="837.39001" />
    <linearGradient
       inkscape:collect="always"
       xlink:href="#d"
       id="linearGradient684"
       gradientUnits="userSpaceOnUse"
       gradientTransform="matrix(0.06137977,0,0,0.06137977,235.68634,318.08392)"
       x1="132.28999"
       y1="101.21"
       x2="132.28999"
       y2="270.54001" />
    <linearGradient
       inkscape:collect="always"
       xlink:href="#e"
       id="linearGradient686"
       gradientUnits="userSpaceOnUse"
       gradientTransform="matrix(2.7300915e-7,0.06137977,0.06137977,-2.7300915e-7,318.08505,235.68499)"
       x1="132.28999"
       y1="48.292"
       x2="132.28999"
       y2="132.96001" />
    <linearGradient
       inkscape:collect="always"
       xlink:href="#a"
       id="linearGradient688"
       gradientUnits="userSpaceOnUse"
       gradientTransform="matrix(0.15166,0,0,0.15166,112.96799,112.53896)"
       x1="522.46002"
       y1="263.95001"
       x2="522.46002"
       y2="837.39001" />
    <linearGradient
       inkscape:collect="always"
       xlink:href="#a"
       id="linearGradient690"
       gradientUnits="userSpaceOnUse"
       gradientTransform="matrix(0.00998984,0,0,0.00998984,326.51791,242.48966)"
       x1="522.46002"
       y1="263.95001"
       x2="522.46002"
       y2="837.39001" />
    <linearGradient
       inkscape:collect="always"
       xlink:href="#d"
       id="linearGradient714"
       gradientUnits="userSpaceOnUse"
       gradientTransform="matrix(0.9166045,0,0,0.9166045,31.828325,3.9353968)"
       x1="132.28999"
       y1="101.21"
       x2="132.28999"
       y2="270.54001" />
    <linearGradient
       inkscape:collect="always"
       xlink:href="#e"
       id="linearGradient716"
       gradientUnits="userSpaceOnUse"
       gradientTransform="matrix(4.0769364e-6,0.9166045,0.9166045,-4.0769364e-6,3.9366518,31.829162)"
       x1="132.28999"
       y1="48.292"
       x2="132.28999"
       y2="132.96001" />
  </defs>
  <metadata
     id="metadata4">
    <rdf:RDF>
      <cc:Work
         rdf:about="">
        <dc:format>image/svg+xml</dc:format>
        <dc:type
           rdf:resource="http://purl.org/dc/dcmitype/StillImage" />
        <dc:creator>
          <cc:Agent>
            <dc:title>Sam Hewitt</dc:title>
          </cc:Agent>
        </dc:creator>
        <dc:source />
        <cc:license
           rdf:resource="http://creativecommons.org/licenses/by-sa/4.0/" />
        <dc:title>Suru Icon Theme Template</dc:title>
        <dc:subject>
          <rdf:Bag />
        </dc:subject>
        <dc:date />
        <dc:rights>
          <cc:Agent>
            <dc:title />
          </cc:Agent>
        </dc:rights>
        <dc:publisher>
          <cc:Agent>
            <dc:title />
          </cc:Agent>
        </dc:publisher>
        <dc:identifier />
        <dc:relation />
        <dc:language />
        <dc:coverage />
        <dc:description />
        <dc:contributor>
          <cc:Agent>
            <dc:title />
          </cc:Agent>
        </dc:contributor>
      </cc:Work>
      <cc:Work
         rdf:about="">
        <dc:format>image/svg+xml</dc:format>
        <dc:type
           rdf:resource="http://purl.org/dc/dcmitype/StillImage" />
      </cc:Work>
      <cc:License
         rdf:about="http://creativecommons.org/licenses/by-sa/4.0/">
        <cc:permits
           rdf:resource="http://creativecommons.org/ns#Reproduction" />
        <cc:permits
           rdf:resource="http://creativecommons.org/ns#Distribution" />
        <cc:requires
           rdf:resource="http://creativecommons.org/ns#Notice" />
        <cc:requires
           rdf:resource="http://creativecommons.org/ns#Attribution" />
        <cc:permits
           rdf:resource="http://creativecommons.org/ns#DerivativeWorks" />
        <cc:requires
           rdf:resource="http://creativecommons.org/ns#ShareAlike" />
      </cc:License>
    </rdf:RDF>
  </metadata>
  <g
     style="display:inline"
     inkscape:groupmode="layer"
     inkscape:label="Icon"
     id="layer1">
    <g
       style="display:none"
       inkscape:label="Baseplate"
       id="layer7"
       inkscape:groupmode="layer">
      <text
         y="-8.2548828"
         xml:space="preserve"
         x="19.006836"
         style="font-style:normal;font-variant:normal;font-weight:normal;font-stretch:normal;line-height:0%;font-family:'DejaVu Sans';-inkscape-font-specification:'DejaVu Sans';display:inline;fill:#000000;fill-opacity:1;stroke:none;enable-background:new"
         inkscape:label="context"
         id="context"><tspan
           style="font-style:normal;font-variant:normal;font-weight:normal;font-stretch:normal;font-size:18px;line-height:1.25;font-family:'DejaVu Sans';-inkscape-font-specification:'DejaVu Sans'"
           y="-8.2548828"
           x="19.006836"
           sodipodi:role="line"
           id="tspan3933">apps</tspan></text>
      <text
         y="-8.2548828"
         xml:space="preserve"
         x="146.48828"
         style="font-style:normal;font-variant:normal;font-weight:bold;font-stretch:normal;line-height:0%;font-family:'DejaVu Sans';-inkscape-font-specification:'DejaVu Sans Bold';text-align:start;writing-mode:lr-tb;text-anchor:start;display:inline;fill:#000000;fill-opacity:1;stroke:none;enable-background:new"
         inkscape:label="icon-name"
         id="icon-name"><tspan
           style="font-style:normal;font-variant:normal;font-weight:bold;font-stretch:normal;font-size:18px;line-height:1.25;font-family:'DejaVu Sans';-inkscape-font-specification:'DejaVu Sans Bold'"
           y="-8.2548828"
           x="146.48828"
           sodipodi:role="line"
           id="tspan924">to-do-app</tspan></text>
      <rect
         style="display:inline;overflow:visible;visibility:visible;fill:#cdcdcd;fill-opacity:1;fill-rule:nonzero;stroke:none;stroke-width:2;marker:none;enable-background:accumulate"
         id="rect16x16"
         width="16"
         height="16"
         x="320"
         y="236"
         inkscape:label="16x16" />
      <rect
         style="display:inline;overflow:visible;visibility:visible;fill:#cdcdcd;fill-opacity:1;fill-rule:nonzero;stroke:none;stroke-width:2;marker:none;enable-background:accumulate"
         id="rect24x24"
         width="24"
         height="24"
         x="320"
         y="188"
         inkscape:label="24x24" />
      <rect
         style="display:inline;overflow:visible;visibility:visible;fill:#cdcdcd;fill-opacity:1;fill-rule:nonzero;stroke:none;stroke-width:2;marker:none;enable-background:accumulate"
         id="rect32x32"
         width="32"
         height="32"
         x="320"
         y="132"
         inkscape:label="32x32" />
      <rect
         inkscape:label="48x48"
         y="60"
         x="320"
         height="48"
         width="48"
         id="rect48x48"
         style="display:inline;overflow:visible;visibility:visible;fill:#cdcdcd;fill-opacity:1;fill-rule:nonzero;stroke:none;stroke-width:2;marker:none;enable-background:accumulate" />
      <rect
         style="display:inline;overflow:visible;visibility:visible;fill:#cdcdcd;fill-opacity:1;fill-rule:nonzero;stroke:none;stroke-width:2;marker:none;enable-background:accumulate"
         id="rect256x256"
         width="256"
         height="256"
         x="24"
         y="28"
         inkscape:label="256x256" />
    </g>
    <g
       inkscape:groupmode="layer"
       id="layer2"
       inkscape:label="Background"
       style="display:inline">
      <rect
         transform="matrix(4.4478686e-6,1,1,-4.4478686e-6,0,0)"
         x="46.864307"
         y="50.989288"
         width="218.26187"
         height="202.01962"
         rx="10.449291"
         fill="url(#d)"
         fill-rule="evenodd"
         style="fill:url(#linearGradient714);stroke-width:0.916604;paint-order:stroke markers fill"
         id="rect77" />
      <path
         d="M 50.988773,57.313623 C 50.98875,51.524715 55.64897,46.864458 61.437964,46.86441 l 40.116256,-6.67e-4 9.7e-4,218.265417 -40.11626,6.7e-4 c -5.788907,2e-5 -10.449165,-4.6602 -10.449212,-10.44919 z"
         fill="url(#e)"
         fill-rule="evenodd"
         style="fill:url(#linearGradient716);stroke-width:0.916604;paint-order:stroke markers fill"
         id="path79" />
      <rect
         transform="matrix(4.0769364e-6,0.9166045,0.9166045,-4.0769364e-6,3.9366518,31.829162)"
         x="19.169001"
         y="53.894001"
         width="232.60001"
         height="215.28"
         rx="11.135"
         fill="none"
         filter="url(#g)"
         opacity="0.2"
         stroke="#ffffff"
         stroke-linecap="round"
         stroke-linejoin="round"
         stroke-width="6.4047"
         style="paint-order:markers fill stroke"
         id="rect81" />
      <rect
         transform="matrix(4.4478686e-6,1,1,-4.4478686e-6,0,0)"
         x="61.589596"
         y="323.2565"
         width="44.821632"
         height="41.486172"
         rx="2.1458366"
         fill="url(#d)"
         fill-rule="evenodd"
         style="fill:url(#linearGradient588);stroke-width:0.188231;paint-order:stroke markers fill"
         id="rect564" />
      <path
         d="m 323.25662,63.734048 c 0,-1.188794 0.95701,-2.145811 2.14582,-2.145821 l 8.23816,-1.37e-4 2e-4,44.82236 -8.23816,1.4e-4 c -1.18879,0 -2.14581,-0.957 -2.14582,-2.14582 z"
         fill="url(#e)"
         fill-rule="evenodd"
         style="fill:url(#linearGradient590);stroke-width:0.188231;paint-order:stroke markers fill"
         id="path566" />
      <rect
         transform="matrix(8.3722801e-7,0.18823128,0.18823128,-8.3722801e-7,313.59413,58.500631)"
         x="19.169001"
         y="53.894001"
         width="232.60001"
         height="215.28"
         rx="11.135"
         fill="none"
         filter="url(#g)"
         opacity="0.2"
         stroke="#ffffff"
         stroke-linecap="round"
         stroke-linejoin="round"
         stroke-width="6.4047"
         style="paint-order:markers fill stroke"
         id="rect568" />
      <rect
         transform="matrix(4.4478686e-6,1,1,-4.4478686e-6,0,0)"
         x="133.38501"
         y="322.47122"
         width="29.231499"
         height="27.056198"
         rx="1.3994586"
         fill="url(#d)"
         fill-rule="evenodd"
         style="fill:url(#linearGradient620);stroke-width:0.122759;paint-order:stroke markers fill"
         id="rect596" />
      <path
         d="m 322.47171,134.78307 c 0,-0.7753 0.62414,-1.39944 1.39945,-1.39945 l 5.37271,-9e-5 1.3e-4,29.23198 -5.37271,9e-5 c -0.7753,0 -1.39944,-0.62414 -1.39945,-1.39945 z"
         fill="url(#e)"
         fill-rule="evenodd"
         style="fill:url(#linearGradient622);stroke-width:0.122759;paint-order:stroke markers fill"
         id="path598" />
      <rect
         transform="matrix(5.4601826e-7,0.12275953,0.12275953,-5.4601826e-7,316.17009,131.36997)"
         x="19.169001"
         y="53.894001"
         width="232.60001"
         height="215.28"
         rx="11.135"
         fill="none"
         filter="url(#g)"
         opacity="0.2"
         stroke="#ffffff"
         stroke-linecap="round"
         stroke-linejoin="round"
         stroke-width="6.4047"
         style="paint-order:markers fill stroke"
         id="rect600" />
      <rect
         transform="matrix(4.4478686e-6,1,1,-4.4478686e-6,0,0)"
         x="188.79552"
         y="321.62753"
         width="22.410816"
         height="20.743086"
         rx="1.0729183"
         fill="url(#d)"
         fill-rule="evenodd"
         style="fill:url(#linearGradient652);stroke-width:0.0941156;paint-order:stroke markers fill"
         id="rect628" />
      <path
         d="m 321.62831,189.86702 c 0,-0.59439 0.4785,-1.0729 1.07291,-1.07291 l 4.11908,-7e-5 1e-4,22.41119 -4.11908,6e-5 c -0.5944,1e-5 -1.07291,-0.4785 -1.07291,-1.0729 z"
         fill="url(#e)"
         fill-rule="evenodd"
         style="fill:url(#linearGradient654);stroke-width:0.0941156;paint-order:stroke markers fill"
         id="path630" />
      <rect
         transform="matrix(4.1861401e-7,0.09411564,0.09411564,-4.1861401e-7,316.79707,187.25032)"
         x="19.169001"
         y="53.894001"
         width="232.60001"
         height="215.28"
         rx="11.135"
         fill="none"
         filter="url(#g)"
         opacity="0.2"
         stroke="#ffffff"
         stroke-linecap="round"
         stroke-linejoin="round"
         stroke-width="6.4047"
         style="paint-order:markers fill stroke"
         id="rect632" />
      <rect
         transform="matrix(4.4478686e-6,1,1,-4.4478686e-6,0,0)"
         x="236.69322"
         y="321.23486"
         width="14.61575"
         height="13.5281"
         rx="0.69972938"
         fill="url(#d)"
         fill-rule="evenodd"
         style="fill:url(#linearGradient684);stroke-width:0.0613797;paint-order:stroke markers fill"
         id="rect660" />
      <path
         d="m 321.23586,237.39154 c 0,-0.38765 0.31206,-0.69973 0.69972,-0.69973 l 2.68636,-4e-5 6e-5,14.61599 -2.68636,4e-5 c -0.38765,0 -0.69972,-0.31207 -0.69972,-0.69972 z"
         fill="url(#e)"
         fill-rule="evenodd"
         style="fill:url(#linearGradient686);stroke-width:0.0613797;paint-order:stroke markers fill"
         id="path662" />
      <rect
         transform="matrix(2.7300915e-7,0.06137977,0.06137977,-2.7300915e-7,318.08505,235.68499)"
         x="19.169001"
         y="53.894001"
         width="232.60001"
         height="215.28"
         rx="11.135"
         fill="none"
         filter="url(#g)"
         opacity="0.2"
         stroke="#ffffff"
         stroke-linecap="round"
         stroke-linejoin="round"
         stroke-width="6.4047"
         style="paint-order:markers fill stroke"
         id="rect664" />
    </g>
    <g
       inkscape:groupmode="layer"
       id="layer6"
       inkscape:label="Pictogram"
       style="display:inline">
      <circle
         cx="73.499763"
         cy="78.811386"
         r="12.295384"
         fill="#ff5555"
         style="display:inline;enable-background:new;fill-rule:evenodd;stroke-width:0.916604;paint-order:stroke fill markers"
         id="circle83" />
      <circle
         cx="73.573097"
         cy="119.85546"
         r="12.295384"
         fill="#00ccff"
         style="display:inline;enable-background:new;fill-rule:evenodd;stroke-width:0.916604;paint-order:stroke fill markers"
         id="circle85" />
      <rect
         x="112.43728"
         y="70.63295"
         width="124.92455"
         height="15.61534"
         rx="7.869267"
         fill="#333333"
         opacity="0.3"
         style="display:inline;enable-background:new;fill-rule:evenodd;stroke:#ffffff;stroke-width:1.04108;stroke-linecap:round;stroke-linejoin:round;stroke-opacity:0.088889;paint-order:stroke fill markers"
         id="rect87" />
      <rect
         x="112.43728"
         y="112.27419"
         width="124.92455"
         height="15.61534"
         rx="7.869267"
         fill="#333333"
         opacity="0.3"
         style="display:inline;enable-background:new;fill-rule:evenodd;stroke:#ffffff;stroke-width:1.04108;stroke-linecap:round;stroke-linejoin:round;stroke-opacity:0.088889;paint-order:stroke fill markers"
         id="rect89" />
      <circle
         cx="203.30205"
         cy="212.49191"
         r="39.039268"
         fill="#00ccff"
         style="display:inline;enable-background:new;fill-rule:evenodd;stroke:#ffffff;stroke-width:1.04108;stroke-linecap:round;stroke-linejoin:round;stroke-opacity:0.088889;paint-order:stroke fill markers"
         id="circle91" />
      <circle
         transform="matrix(0.91660842,-4.2216634e-6,4.2216634e-6,0.91660842,-44.759462,52.333118)"
         cx="270.63"
         cy="174.73"
         r="42.591"
         fill="#00ccff"
         filter="url(#h)"
         style="display:inline;enable-background:new;fill-rule:evenodd;stroke:#ffffff;stroke-width:1.1358;stroke-linecap:round;stroke-linejoin:round;stroke-opacity:0.088889;paint-order:stroke fill markers"
         id="circle93" />
      <path
         d="m 219.81799,175.61896 c 0.0357,0.18999 0.0256,0.12941 0.005,0.004 -0.001,-9.3e-4 -0.004,-0.002 -0.005,-0.004 z m -14.239,4.1052 c -1.2423,0 -2.4852,0.4741 -3.433,1.422 l -17.157,17.157 -6.863,-6.8624 c -1.8958,-1.8958 -4.9715,-1.8958 -6.863,0 -1.8958,1.8958 -1.8958,4.9715 0,6.863 l 10.294,10.294 c 1.891,1.8958 4.9672,1.8958 6.863,0 l 20.589,-20.589 c 1.8958,-1.8958 1.8958,-4.9715 0,-6.863 -0.94576,-0.94789 -2.1877,-1.422 -3.43,-1.422 z"
         fill="url(#b)"
         filter="url(#i)"
         stroke-width="0.60665"
         id="path103"
         style="display:inline;enable-background:new;fill:url(#linearGradient550)"
         transform="matrix(0.98365801,0,0,0.98365801,18.745512,22.745716)" />
      <path
         d="m 234.97124,195.49471 c 0.0351,0.18689 0.0252,0.1273 0.005,0.004 -9.9e-4,-9.2e-4 -0.004,-0.002 -0.005,-0.004 z m -14.00631,4.03812 c -1.222,0 -2.44458,0.46635 -3.3769,1.39876 l -16.87662,16.87662 -6.75084,-6.75026 c -1.86482,-1.86482 -4.89026,-1.86482 -6.75085,0 -1.86481,1.86482 -1.86481,4.89026 0,6.75085 l 10.12578,10.12577 c 1.8601,1.86482 4.88603,1.86482 6.75084,0 l 20.25254,-20.25253 c 1.86482,-1.86482 1.86482,-4.89026 0,-6.75085 -0.93031,-0.9324 -2.15195,-1.39876 -3.37395,-1.39876 z"
         fill="url(#b)"
         stroke-width="0.596736"
         id="path105"
         style="display:inline;enable-background:new;fill:url(#linearGradient271)" />
      <circle
         cx="327.87943"
         cy="68.148766"
         r="2.524945"
         fill="#ff5555"
         style="display:inline;enable-background:new;fill-rule:evenodd;stroke-width:0.188231;paint-order:stroke fill markers"
         id="circle570" />
      <circle
         cx="327.89447"
         cy="76.577461"
         r="2.524945"
         fill="#00ccff"
         style="display:inline;enable-background:new;fill-rule:evenodd;stroke-width:0.188231;paint-order:stroke fill markers"
         id="circle572" />
      <rect
         x="335.87552"
         y="66.469269"
         width="25.654148"
         height="3.2067215"
         rx="1.6160102"
         fill="#333333"
         opacity="0.3"
         style="display:inline;enable-background:new;fill-rule:evenodd;stroke:#ffffff;stroke-width:0.213794;stroke-linecap:round;stroke-linejoin:round;stroke-opacity:0.088889;paint-order:stroke fill markers"
         id="rect574" />
      <rect
         x="335.87552"
         y="75.020592"
         width="25.654148"
         height="3.2067215"
         rx="1.6160102"
         fill="#333333"
         opacity="0.3"
         style="display:inline;enable-background:new;fill-rule:evenodd;stroke:#ffffff;stroke-width:0.213794;stroke-linecap:round;stroke-linejoin:round;stroke-opacity:0.088889;paint-order:stroke fill markers"
         id="rect576" />
      <circle
         cx="354.53525"
         cy="95.601021"
         r="8.0169926"
         fill="#00ccff"
         style="display:inline;enable-background:new;fill-rule:evenodd;stroke:#ffffff;stroke-width:0.213794;stroke-linecap:round;stroke-linejoin:round;stroke-opacity:0.088889;paint-order:stroke fill markers"
         id="circle578" />
      <circle
         transform="matrix(0.18823209,-8.6694875e-7,8.6694875e-7,0.18823209,303.59404,62.711265)"
         cx="270.63"
         cy="174.73"
         r="42.591"
         fill="#00ccff"
         filter="url(#h)"
         style="display:inline;enable-background:new;fill-rule:evenodd;stroke:#ffffff;stroke-width:1.1358;stroke-linecap:round;stroke-linejoin:round;stroke-opacity:0.088889;paint-order:stroke fill markers"
         id="circle580" />
      <path
         d="m 219.81799,175.61896 c 0.0357,0.18999 0.0256,0.12941 0.005,0.004 -0.001,-9.3e-4 -0.004,-0.002 -0.005,-0.004 z m -14.239,4.1052 c -1.2423,0 -2.4852,0.4741 -3.433,1.422 l -17.157,17.157 -6.863,-6.8624 c -1.8958,-1.8958 -4.9715,-1.8958 -6.863,0 -1.8958,1.8958 -1.8958,4.9715 0,6.863 l 10.294,10.294 c 1.891,1.8958 4.9672,1.8958 6.863,0 l 20.589,-20.589 c 1.8958,-1.8958 1.8958,-4.9715 0,-6.863 -0.94576,-0.94789 -2.1877,-1.422 -3.43,-1.422 z"
         fill="url(#b)"
         filter="url(#i)"
         stroke-width="0.60665"
         id="path582"
         style="display:inline;enable-background:new;fill:url(#linearGradient592)"
         transform="matrix(0.2020012,0,0,0.2020012,316.63524,56.635281)" />
      <path
         d="m 361.03874,92.110522 c 0.007,0.03838 0.005,0.02614 10e-4,8.08e-4 -2e-4,-1.88e-4 -8.1e-4,-4.04e-4 -10e-4,-8.08e-4 z m -2.8763,0.829255 c -0.25094,0 -0.50201,0.09577 -0.69347,0.287246 l -3.46573,3.465734 -1.38634,-1.386213 c -0.38295,-0.382954 -1.00425,-0.382954 -1.38633,0 -0.38295,0.382954 -0.38295,1.004249 0,1.386334 l 2.0794,2.079401 c 0.38198,0.382954 1.00338,0.382954 1.38633,0 l 4.15901,-4.159003 c 0.38295,-0.382954 0.38295,-1.004249 0,-1.386334 -0.19105,-0.191475 -0.44192,-0.287246 -0.69287,-0.287246 z"
         fill="url(#b)"
         stroke-width="0.122544"
         id="path584"
         style="display:inline;enable-background:new;fill:url(#linearGradient594)" />
      <circle
         cx="325.48657"
         cy="137.66223"
         r="1.6467032"
         fill="#ff5555"
         style="display:inline;enable-background:new;fill-rule:evenodd;stroke-width:0.122759;paint-order:stroke fill markers"
         id="circle602" />
      <circle
         cx="325.4964"
         cy="143.15921"
         r="1.6467032"
         fill="#00ccff"
         style="display:inline;enable-background:new;fill-rule:evenodd;stroke-width:0.122759;paint-order:stroke fill markers"
         id="circle604" />
      <rect
         x="330.70142"
         y="136.56691"
         width="16.730965"
         height="2.0913401"
         rx="1.0539197"
         fill="#333333"
         opacity="0.3"
         style="display:inline;enable-background:new;fill-rule:evenodd;stroke:#ffffff;stroke-width:0.139431;stroke-linecap:round;stroke-linejoin:round;stroke-opacity:0.088889;paint-order:stroke fill markers"
         id="rect606" />
      <rect
         x="330.70142"
         y="142.14386"
         width="16.730965"
         height="2.0913401"
         rx="1.0539197"
         fill="#333333"
         opacity="0.3"
         style="display:inline;enable-background:new;fill-rule:evenodd;stroke:#ffffff;stroke-width:0.139431;stroke-linecap:round;stroke-linejoin:round;stroke-opacity:0.088889;paint-order:stroke fill markers"
         id="rect608" />
      <circle
         cx="342.87082"
         cy="155.56587"
         r="5.2284732"
         fill="#00ccff"
         style="display:inline;enable-background:new;fill-rule:evenodd;stroke:#ffffff;stroke-width:0.139431;stroke-linecap:round;stroke-linejoin:round;stroke-opacity:0.088889;paint-order:stroke fill markers"
         id="circle610" />
      <circle
         transform="matrix(0.12276005,-5.6540135e-7,5.6540135e-7,0.12276005,309.64829,134.11604)"
         cx="270.63"
         cy="174.73"
         r="42.591"
         fill="#00ccff"
         filter="url(#h)"
         style="display:inline;enable-background:new;fill-rule:evenodd;stroke:#ffffff;stroke-width:1.1358;stroke-linecap:round;stroke-linejoin:round;stroke-opacity:0.088889;paint-order:stroke fill markers"
         id="circle612" />
      <path
         d="m 219.81799,175.61896 c 0.0357,0.18999 0.0256,0.12941 0.005,0.004 -0.001,-9.3e-4 -0.004,-0.002 -0.005,-0.004 z m -14.239,4.1052 c -1.2423,0 -2.4852,0.4741 -3.433,1.422 l -17.157,17.157 -6.863,-6.8624 c -1.8958,-1.8958 -4.9715,-1.8958 -6.863,0 -1.8958,1.8958 -1.8958,4.9715 0,6.863 l 10.294,10.294 c 1.891,1.8958 4.9672,1.8958 6.863,0 l 20.589,-20.589 c 1.8958,-1.8958 1.8958,-4.9715 0,-6.863 -0.94576,-0.94789 -2.1877,-1.422 -3.43,-1.422 z"
         fill="url(#b)"
         filter="url(#i)"
         stroke-width="0.60665"
         id="path614"
         style="display:inline;enable-background:new;fill:url(#linearGradient624)"
         transform="matrix(0.13173991,0,0,0.13173991,318.15342,130.15344)" />
      <path
         d="m 347.11222,153.28947 c 0.005,0.025 0.003,0.017 6.6e-4,5.2e-4 -1.3e-4,-1.2e-4 -5.3e-4,-2.6e-4 -6.6e-4,-5.2e-4 z m -1.87584,0.54081 c -0.16366,0 -0.3274,0.0625 -0.45227,0.18734 l -2.26026,2.26026 -0.90413,-0.90405 c -0.24975,-0.24975 -0.65494,-0.24975 -0.90413,0 -0.24975,0.24975 -0.24975,0.65494 0,0.90413 l 1.35613,1.35613 c 0.24912,0.24975 0.65438,0.24975 0.90413,0 l 2.7124,-2.71239 c 0.24975,-0.24976 0.24975,-0.65495 0,-0.90413 -0.1246,-0.12488 -0.28821,-0.18734 -0.45187,-0.18734 z"
         fill="url(#b)"
         stroke-width="0.07992"
         id="path616"
         style="display:inline;enable-background:new;fill:url(#linearGradient626)" />
      <circle
         cx="323.9397"
         cy="192.07439"
         r="1.2624725"
         fill="#ff5555"
         style="display:inline;enable-background:new;fill-rule:evenodd;stroke-width:0.0941156;paint-order:stroke fill markers"
         id="circle634" />
      <circle
         cx="323.94724"
         cy="196.28873"
         r="1.2624725"
         fill="#00ccff"
         style="display:inline;enable-background:new;fill-rule:evenodd;stroke-width:0.0941156;paint-order:stroke fill markers"
         id="circle636" />
      <rect
         x="327.93774"
         y="191.23463"
         width="12.827074"
         height="1.6033608"
         rx="0.80800509"
         fill="#333333"
         opacity="0.3"
         style="display:inline;enable-background:new;fill-rule:evenodd;stroke:#ffffff;stroke-width:0.106897;stroke-linecap:round;stroke-linejoin:round;stroke-opacity:0.088889;paint-order:stroke fill markers"
         id="rect638" />
      <rect
         x="327.93774"
         y="195.5103"
         width="12.827074"
         height="1.6033608"
         rx="0.80800509"
         fill="#333333"
         opacity="0.3"
         style="display:inline;enable-background:new;fill-rule:evenodd;stroke:#ffffff;stroke-width:0.106897;stroke-linecap:round;stroke-linejoin:round;stroke-opacity:0.088889;paint-order:stroke fill markers"
         id="rect640" />
      <circle
         cx="337.26761"
         cy="205.80051"
         r="4.0084963"
         fill="#00ccff"
         style="display:inline;enable-background:new;fill-rule:evenodd;stroke:#ffffff;stroke-width:0.106897;stroke-linecap:round;stroke-linejoin:round;stroke-opacity:0.088889;paint-order:stroke fill markers"
         id="circle642" />
      <circle
         transform="matrix(0.09411604,-4.3347438e-7,4.3347438e-7,0.09411604,311.79702,189.35563)"
         cx="270.63"
         cy="174.73"
         r="42.591"
         fill="#00ccff"
         filter="url(#h)"
         style="display:inline;enable-background:new;fill-rule:evenodd;stroke:#ffffff;stroke-width:1.1358;stroke-linecap:round;stroke-linejoin:round;stroke-opacity:0.088889;paint-order:stroke fill markers"
         id="circle644" />
      <path
         d="m 219.81799,175.61896 c 0.0357,0.18999 0.0256,0.12941 0.005,0.004 -0.001,-9.3e-4 -0.004,-0.002 -0.005,-0.004 z m -14.239,4.1052 c -1.2423,0 -2.4852,0.4741 -3.433,1.422 l -17.157,17.157 -6.863,-6.8624 c -1.8958,-1.8958 -4.9715,-1.8958 -6.863,0 -1.8958,1.8958 -1.8958,4.9715 0,6.863 l 10.294,10.294 c 1.891,1.8958 4.9672,1.8958 6.863,0 l 20.589,-20.589 c 1.8958,-1.8958 1.8958,-4.9715 0,-6.863 -0.94576,-0.94789 -2.1877,-1.422 -3.43,-1.422 z"
         fill="url(#b)"
         filter="url(#i)"
         stroke-width="0.60665"
         id="path646"
         style="display:inline;enable-background:new;fill:url(#linearGradient656)"
         transform="matrix(0.1010006,0,0,0.1010006,318.31762,186.31764)" />
      <path
         d="m 340.51937,204.05526 c 0.004,0.0192 0.003,0.0131 5e-4,4e-4 -1e-4,-9e-5 -4e-4,-2e-4 -5e-4,-4e-4 z m -1.43815,0.41463 c -0.12547,0 -0.25101,0.0479 -0.34673,0.14362 l -1.73287,1.73287 -0.69317,-0.69311 c -0.19148,-0.19148 -0.50212,-0.19148 -0.69317,0 -0.19147,0.19148 -0.19147,0.50213 0,0.69317 l 1.0397,1.0397 c 0.191,0.19148 0.5017,0.19148 0.69317,0 l 2.0795,-2.0795 c 0.19148,-0.19148 0.19148,-0.50213 0,-0.69317 -0.0955,-0.0957 -0.22096,-0.14362 -0.34643,-0.14362 z"
         fill="url(#b)"
         stroke-width="0.061272"
         id="path648"
         style="display:inline;enable-background:new;fill:url(#linearGradient658)" />
      <circle
         cx="322.74329"
         cy="238.83112"
         r="0.82335168"
         fill="#ff5555"
         style="display:inline;enable-background:new;fill-rule:evenodd;stroke-width:0.0613797;paint-order:stroke fill markers"
         id="circle666" />
      <circle
         cx="322.7482"
         cy="241.57961"
         r="0.82335168"
         fill="#00ccff"
         style="display:inline;enable-background:new;fill-rule:evenodd;stroke-width:0.0613797;paint-order:stroke fill markers"
         id="circle668" />
      <rect
         x="325.35071"
         y="238.28345"
         width="8.3654833"
         height="1.0456702"
         rx="0.5269599"
         fill="#333333"
         opacity="0.3"
         style="display:inline;enable-background:new;fill-rule:evenodd;stroke:#ffffff;stroke-width:0.0697154;stroke-linecap:round;stroke-linejoin:round;stroke-opacity:0.088889;paint-order:stroke fill markers"
         id="rect670" />
      <rect
         x="325.35071"
         y="241.07193"
         width="8.3654833"
         height="1.0456702"
         rx="0.5269599"
         fill="#333333"
         opacity="0.3"
         style="display:inline;enable-background:new;fill-rule:evenodd;stroke:#ffffff;stroke-width:0.0697154;stroke-linecap:round;stroke-linejoin:round;stroke-opacity:0.088889;paint-order:stroke fill markers"
         id="rect672" />
      <circle
         cx="331.43539"
         cy="247.78294"
         r="2.6142368"
         fill="#00ccff"
         style="display:inline;enable-background:new;fill-rule:evenodd;stroke:#ffffff;stroke-width:0.0697154;stroke-linecap:round;stroke-linejoin:round;stroke-opacity:0.088889;paint-order:stroke fill markers"
         id="circle674" />
      <circle
         transform="matrix(0.06138003,-2.8270069e-7,2.8270069e-7,0.06138003,314.82414,237.05802)"
         cx="270.63"
         cy="174.73"
         r="42.591"
         fill="#00ccff"
         filter="url(#h)"
         style="display:inline;enable-background:new;fill-rule:evenodd;stroke:#ffffff;stroke-width:1.1358;stroke-linecap:round;stroke-linejoin:round;stroke-opacity:0.088889;paint-order:stroke fill markers"
         id="circle676" />
      <path
         d="m 219.81799,175.61896 c 0.0357,0.18999 0.0256,0.12941 0.005,0.004 -0.001,-9.3e-4 -0.004,-0.002 -0.005,-0.004 z m -14.239,4.1052 c -1.2423,0 -2.4852,0.4741 -3.433,1.422 l -17.157,17.157 -6.863,-6.8624 c -1.8958,-1.8958 -4.9715,-1.8958 -6.863,0 -1.8958,1.8958 -1.8958,4.9715 0,6.863 l 10.294,10.294 c 1.891,1.8958 4.9672,1.8958 6.863,0 l 20.589,-20.589 c 1.8958,-1.8958 1.8958,-4.9715 0,-6.863 -0.94576,-0.94789 -2.1877,-1.422 -3.43,-1.422 z"
         fill="url(#b)"
         filter="url(#i)"
         stroke-width="0.60665"
         id="path678"
         style="display:inline;enable-background:new;fill:url(#linearGradient688)"
         transform="matrix(0.06586996,0,0,0.06586996,319.07671,235.07672)" />
      <path
         d="m 333.55611,246.64473 c 0.002,0.0125 0.002,0.009 3.3e-4,2.7e-4 -6e-5,-6e-5 -2.6e-4,-1.3e-4 -3.3e-4,-2.7e-4 z m -0.93792,0.27041 c -0.0818,0 -0.1637,0.0312 -0.22613,0.0937 l -1.13013,1.13013 -0.45207,-0.45202 c -0.12487,-0.12488 -0.32747,-0.12488 -0.45206,0 -0.12488,0.12487 -0.12488,0.32747 0,0.45206 l 0.67806,0.67807 c 0.12456,0.12487 0.32719,0.12487 0.45207,0 l 1.35619,-1.3562 c 0.12488,-0.12488 0.12488,-0.32747 0,-0.45207 -0.0623,-0.0624 -0.1441,-0.0937 -0.22593,-0.0937 z"
         fill="url(#b)"
         stroke-width="0.03996"
         id="path680"
         style="display:inline;enable-background:new;fill:url(#linearGradient690)" />
    </g>
  </g>
</svg>
