<?xml version="1.0" encoding="UTF-8" standalone="no"?>
<svg
   inkscape:export-ydpi="90.000000"
   inkscape:export-xdpi="90.000000"
   width="400"
   height="300"
   id="svg11300"
   sodipodi:version="0.32"
   inkscape:version="1.2.2 (b0a8486541, 2022-12-01)"
   sodipodi:docname="transmission.svg"
   inkscape:output_extension="org.inkscape.output.svg.inkscape"
   version="1.0"
   style="display:inline;enable-background:new"
   inkscape:export-filename="/home/sam/suru-template.png"
   xmlns:inkscape="http://www.inkscape.org/namespaces/inkscape"
   xmlns:sodipodi="http://sodipodi.sourceforge.net/DTD/sodipodi-0.dtd"
   xmlns:xlink="http://www.w3.org/1999/xlink"
   xmlns="http://www.w3.org/2000/svg"
   xmlns:svg="http://www.w3.org/2000/svg"
   xmlns:rdf="http://www.w3.org/1999/02/22-rdf-syntax-ns#"
   xmlns:cc="http://creativecommons.org/ns#"
   xmlns:dc="http://purl.org/dc/elements/1.1/">
  <title
     id="title3004">Suru Icon Theme Template</title>
  <sodipodi:namedview
     stroke="#ef2929"
     fill="#f57900"
     id="base"
     pagecolor="#ffffff"
     bordercolor="#000000"
     borderopacity="0.25490196"
     inkscape:pageopacity="0"
     inkscape:pageshadow="2"
     inkscape:zoom="2"
     inkscape:cx="399"
     inkscape:cy="190"
     inkscape:current-layer="layer6"
     showgrid="false"
     inkscape:grid-bbox="true"
     inkscape:document-units="px"
     inkscape:showpageshadow="false"
     inkscape:window-width="1920"
     inkscape:window-height="1020"
     inkscape:window-x="0"
     inkscape:window-y="32"
     width="400px"
     height="300px"
     inkscape:snap-nodes="true"
     inkscape:snap-bbox="true"
     gridtolerance="10000"
     inkscape:object-nodes="true"
     inkscape:snap-grids="true"
     showguides="true"
     inkscape:guide-bbox="true"
     inkscape:window-maximized="1"
     inkscape:bbox-paths="true"
     inkscape:snap-bbox-midpoints="true"
     inkscape:snap-global="true"
     inkscape:object-paths="true"
     inkscape:snap-intersection-paths="true"
     inkscape:snap-smooth-nodes="true"
     inkscape:pagecheckerboard="false"
     showborder="false"
     inkscape:document-rotation="0"
     inkscape:deskcolor="#d1d1d1">
    <inkscape:grid
       spacingy="1"
       spacingx="1"
       id="grid5883"
       type="xygrid"
       enabled="true"
       visible="true"
       empspacing="4"
       snapvisiblegridlinesonly="true"
       originx="0"
       originy="0" />
    <inkscape:grid
       type="xygrid"
       id="grid11592"
       empspacing="2"
       visible="true"
       enabled="false"
       spacingx="0.5"
       spacingy="0.5"
       color="#ff0000"
       opacity="0.1254902"
       empcolor="#ff0000"
       empopacity="0.25098039"
       snapvisiblegridlinesonly="true"
       originx="0"
       originy="0" />
  </sodipodi:namedview>
  <defs
     id="defs3">
    <linearGradient
       id="a"
       x1="520"
       x2="520"
       y1="72.362"
       y2="1052.4"
       gradientTransform="matrix(1.0414,0,0,1.0414,-20.699,-22.916)"
       gradientUnits="userSpaceOnUse">
      <stop
         stop-color="#ff6d80"
         offset="0"
         id="stop22" />
      <stop
         stop-color="#e4525c"
         offset="1"
         id="stop24" />
    </linearGradient>
    <linearGradient
       id="b"
       x1="540.14001"
       x2="540.14001"
       y1="29.77"
       y2="1055"
       gradientTransform="matrix(0.99492,0,0,0.99492,2.599,2.7429)"
       gradientUnits="userSpaceOnUse">
      <stop
         stop-color="#fff"
         stop-opacity=".58824"
         offset="0"
         id="stop27" />
      <stop
         stop-color="#fff"
         stop-opacity="0"
         offset="1"
         id="stop29" />
    </linearGradient>
    <filter
       id="d"
       x="-0.18229777"
       y="-0.20279146"
       width="1.3645955"
       height="1.4055829"
       color-interpolation-filters="sRGB">
      <feGaussianBlur
         stdDeviation="21.268315"
         id="feGaussianBlur32" />
    </filter>
    <filter
       id="c"
       x="-0.18229777"
       y="-0.20279146"
       width="1.3645955"
       height="1.4055829"
       color-interpolation-filters="sRGB">
      <feGaussianBlur
         stdDeviation="21.268315"
         id="feGaussianBlur35" />
    </filter>
    <linearGradient
       inkscape:collect="always"
       xlink:href="#a"
       id="linearGradient367"
       gradientUnits="userSpaceOnUse"
       gradientTransform="matrix(0.04888205,0,0,0.04888205,318.99575,57.560513)"
       x1="520"
       y1="72.362"
       x2="520"
       y2="1052.4" />
    <linearGradient
       inkscape:collect="always"
       xlink:href="#b"
       id="linearGradient369"
       gradientUnits="userSpaceOnUse"
       gradientTransform="matrix(0.04670033,0,0,0.04670033,320.08933,58.76491)"
       x1="540.14001"
       y1="29.77"
       x2="540.14001"
       y2="1055" />
    <linearGradient
       inkscape:collect="always"
       xlink:href="#a"
       id="linearGradient387"
       gradientUnits="userSpaceOnUse"
       gradientTransform="matrix(0.03187959,0,0,0.03187959,319.69289,130.75686)"
       x1="520"
       y1="72.362"
       x2="520"
       y2="1052.4" />
    <linearGradient
       inkscape:collect="always"
       xlink:href="#b"
       id="linearGradient389"
       gradientUnits="userSpaceOnUse"
       gradientTransform="matrix(0.03045673,0,0,0.03045673,320.40609,131.54234)"
       x1="540.14001"
       y1="29.77"
       x2="540.14001"
       y2="1055" />
    <linearGradient
       inkscape:collect="always"
       xlink:href="#a"
       id="linearGradient407"
       gradientUnits="userSpaceOnUse"
       gradientTransform="matrix(0.02444102,0,0,0.02444102,319.49788,186.78026)"
       x1="520"
       y1="72.362"
       x2="520"
       y2="1052.4" />
    <linearGradient
       inkscape:collect="always"
       xlink:href="#b"
       id="linearGradient409"
       gradientUnits="userSpaceOnUse"
       gradientTransform="matrix(0.02335017,0,0,0.02335017,320.04467,187.38245)"
       x1="540.14001"
       y1="29.77"
       x2="540.14001"
       y2="1055" />
    <linearGradient
       inkscape:collect="always"
       xlink:href="#a"
       id="linearGradient427"
       gradientUnits="userSpaceOnUse"
       gradientTransform="matrix(0.01593979,0,0,0.01593979,319.84645,235.37843)"
       x1="520"
       y1="72.362"
       x2="520"
       y2="1052.4" />
    <linearGradient
       inkscape:collect="always"
       xlink:href="#b"
       id="linearGradient429"
       gradientUnits="userSpaceOnUse"
       gradientTransform="matrix(0.01522836,0,0,0.01522836,320.20305,235.77117)"
       x1="540.14001"
       y1="29.77"
       x2="540.14001"
       y2="1055" />
    <linearGradient
       inkscape:collect="always"
       xlink:href="#a"
       id="linearGradient431"
       gradientUnits="userSpaceOnUse"
       gradientTransform="matrix(0.23803429,0,0,0.23803429,30.240228,27.251202)"
       x1="520"
       y1="72.362"
       x2="520"
       y2="1052.4" />
    <linearGradient
       inkscape:collect="always"
       xlink:href="#b"
       id="linearGradient433"
       gradientUnits="userSpaceOnUse"
       gradientTransform="matrix(0.22741029,0,0,0.22741029,35.565485,33.116094)"
       x1="540.14001"
       y1="29.77"
       x2="540.14001"
       y2="1055" />
  </defs>
  <metadata
     id="metadata4">
    <rdf:RDF>
      <cc:Work
         rdf:about="">
        <dc:format>image/svg+xml</dc:format>
        <dc:type
           rdf:resource="http://purl.org/dc/dcmitype/StillImage" />
        <dc:creator>
          <cc:Agent>
            <dc:title>Sam Hewitt</dc:title>
          </cc:Agent>
        </dc:creator>
        <dc:source />
        <cc:license
           rdf:resource="http://creativecommons.org/licenses/by-sa/4.0/" />
        <dc:title>Suru Icon Theme Template</dc:title>
        <dc:subject>
          <rdf:Bag />
        </dc:subject>
        <dc:date />
        <dc:rights>
          <cc:Agent>
            <dc:title />
          </cc:Agent>
        </dc:rights>
        <dc:publisher>
          <cc:Agent>
            <dc:title />
          </cc:Agent>
        </dc:publisher>
        <dc:identifier />
        <dc:relation />
        <dc:language />
        <dc:coverage />
        <dc:description />
        <dc:contributor>
          <cc:Agent>
            <dc:title />
          </cc:Agent>
        </dc:contributor>
      </cc:Work>
      <cc:Work
         rdf:about="">
        <dc:format>image/svg+xml</dc:format>
        <dc:type
           rdf:resource="http://purl.org/dc/dcmitype/StillImage" />
      </cc:Work>
      <cc:License
         rdf:about="http://creativecommons.org/licenses/by-sa/4.0/">
        <cc:permits
           rdf:resource="http://creativecommons.org/ns#Reproduction" />
        <cc:permits
           rdf:resource="http://creativecommons.org/ns#Distribution" />
        <cc:requires
           rdf:resource="http://creativecommons.org/ns#Notice" />
        <cc:requires
           rdf:resource="http://creativecommons.org/ns#Attribution" />
        <cc:permits
           rdf:resource="http://creativecommons.org/ns#DerivativeWorks" />
        <cc:requires
           rdf:resource="http://creativecommons.org/ns#ShareAlike" />
      </cc:License>
    </rdf:RDF>
  </metadata>
  <g
     style="display:inline"
     inkscape:groupmode="layer"
     inkscape:label="Icon"
     id="layer1">
    <g
       style="display:none"
       inkscape:label="Baseplate"
       id="layer7"
       inkscape:groupmode="layer">
      <text
         y="-8.2548828"
         xml:space="preserve"
         x="19.006836"
         style="font-style:normal;font-variant:normal;font-weight:normal;font-stretch:normal;line-height:0%;font-family:'DejaVu Sans';-inkscape-font-specification:'DejaVu Sans';display:inline;fill:#000000;fill-opacity:1;stroke:none;enable-background:new"
         inkscape:label="context"
         id="context"><tspan
           style="font-style:normal;font-variant:normal;font-weight:normal;font-stretch:normal;font-size:18px;line-height:1.25;font-family:'DejaVu Sans';-inkscape-font-specification:'DejaVu Sans'"
           y="-8.2548828"
           x="19.006836"
           sodipodi:role="line"
           id="tspan3933">apps</tspan></text>
      <text
         y="-8.2548828"
         xml:space="preserve"
         x="146.48828"
         style="font-style:normal;font-variant:normal;font-weight:bold;font-stretch:normal;line-height:0%;font-family:'DejaVu Sans';-inkscape-font-specification:'DejaVu Sans Bold';text-align:start;writing-mode:lr-tb;text-anchor:start;display:inline;fill:#000000;fill-opacity:1;stroke:none;enable-background:new"
         inkscape:label="icon-name"
         id="icon-name"><tspan
           style="font-style:normal;font-variant:normal;font-weight:bold;font-stretch:normal;font-size:18px;line-height:1.25;font-family:'DejaVu Sans';-inkscape-font-specification:'DejaVu Sans Bold'"
           y="-8.2548828"
           x="146.48828"
           sodipodi:role="line"
           id="tspan924">transmission</tspan></text>
      <rect
         style="display:inline;overflow:visible;visibility:visible;fill:#cdcdcd;fill-opacity:1;fill-rule:nonzero;stroke:none;stroke-width:2;marker:none;enable-background:accumulate"
         id="rect16x16"
         width="16"
         height="16"
         x="320"
         y="236"
         inkscape:label="16x16" />
      <rect
         style="display:inline;overflow:visible;visibility:visible;fill:#cdcdcd;fill-opacity:1;fill-rule:nonzero;stroke:none;stroke-width:2;marker:none;enable-background:accumulate"
         id="rect24x24"
         width="24"
         height="24"
         x="320"
         y="188"
         inkscape:label="24x24" />
      <rect
         style="display:inline;overflow:visible;visibility:visible;fill:#cdcdcd;fill-opacity:1;fill-rule:nonzero;stroke:none;stroke-width:2;marker:none;enable-background:accumulate"
         id="rect32x32"
         width="32"
         height="32"
         x="320"
         y="132"
         inkscape:label="32x32" />
      <rect
         inkscape:label="48x48"
         y="60"
         x="320"
         height="48"
         width="48"
         id="rect48x48"
         style="display:inline;overflow:visible;visibility:visible;fill:#cdcdcd;fill-opacity:1;fill-rule:nonzero;stroke:none;stroke-width:2;marker:none;enable-background:accumulate" />
      <rect
         style="display:inline;overflow:visible;visibility:visible;fill:#cdcdcd;fill-opacity:1;fill-rule:nonzero;stroke:none;stroke-width:2;marker:none;enable-background:accumulate"
         id="rect256x256"
         width="256"
         height="256"
         x="24"
         y="28"
         inkscape:label="256x256" />
    </g>
    <g
       inkscape:groupmode="layer"
       id="layer2"
       inkscape:label="Background"
       style="display:inline">
      <circle
         cx="152"
         cy="156"
         r="112"
         color="#000000"
         fill="url(#a)"
         id="circle40"
         style="fill:url(#linearGradient431);stroke-width:0.228571" />
      <circle
         cx="152"
         cy="156"
         r="111.43086"
         color="#000000"
         fill="none"
         stroke="url(#b)"
         stroke-width="1.13714"
         id="circle42"
         style="stroke:url(#linearGradient433)" />
      <circle
         cx="344"
         cy="84"
         r="23.000002"
         color="#000000"
         fill="url(#a)"
         id="circle351"
         style="fill:url(#linearGradient367);stroke-width:0.0469388" />
      <circle
         cx="344"
         cy="84"
         r="22.883125"
         color="#000000"
         fill="none"
         stroke="url(#b)"
         stroke-width="0.23352"
         id="circle353"
         style="stroke:url(#linearGradient369)" />
      <circle
         cx="336"
         cy="148"
         r="14.999997"
         color="#000000"
         fill="url(#a)"
         id="circle371"
         style="fill:url(#linearGradient387);stroke-width:0.0306122" />
      <circle
         cx="336"
         cy="148"
         r="14.923774"
         color="#000000"
         fill="none"
         stroke="url(#b)"
         stroke-width="0.152296"
         id="circle373"
         style="stroke:url(#linearGradient389)" />
      <circle
         cx="332"
         cy="200"
         r="11.500001"
         color="#000000"
         fill="url(#a)"
         id="circle391"
         style="fill:url(#linearGradient407);stroke-width:0.0234694" />
      <circle
         cx="332"
         cy="200"
         r="11.441563"
         color="#000000"
         fill="none"
         stroke="url(#b)"
         stroke-width="0.11676"
         id="circle393"
         style="stroke:url(#linearGradient409)" />
      <circle
         cx="328"
         cy="244"
         r="7.4999986"
         color="#000000"
         fill="url(#a)"
         id="circle411"
         style="fill:url(#linearGradient427);stroke-width:0.0153061" />
      <circle
         cx="328"
         cy="244"
         r="7.4618869"
         color="#000000"
         fill="none"
         stroke="url(#b)"
         stroke-width="0.0761479"
         id="circle413"
         style="stroke:url(#linearGradient429)" />
    </g>
    <g
       inkscape:groupmode="layer"
       id="layer6"
       inkscape:label="Pictogram"
       style="display:inline">
      <path
         d="m 651.64,385.75 c -5.5562,9.7234 -128.4,10.394 -139.6,10.444 -11.199,0.0499 -134.04,0.47305 -139.68,-9.2005 -5.6426,-9.6736 55.198,-116.39 60.754,-126.12 5.5563,-9.7234 66.611,-116.32 77.81,-116.37 11.199,-0.0499 73.201,106 78.843,115.67 5.6426,9.6736 67.431,115.85 61.874,125.57 z"
         fill="#e000c1"
         filter="url(#d)"
         opacity="0.27"
         style="fill-rule:evenodd;paint-order:stroke fill markers"
         id="path44"
         transform="matrix(0.22857143,0,0,0.22857143,34.971428,32.489145)" />
      <path
         d="m 183.91771,134.37486 c -1.26998,2.22249 -29.34857,2.37577 -31.90857,2.3872 -2.55977,0.0114 -30.63771,0.10813 -31.92685,-2.10297 -1.28974,-2.21111 12.61668,-26.60343 13.88662,-28.82743 1.27002,-2.22249 15.22538,-26.587429 17.78515,-26.598858 2.55977,-0.01141 16.73165,24.228568 18.02125,26.438858 1.28974,2.21111 15.4128,26.48 14.14263,28.70171 z"
         fill="#ffffff"
         opacity="0.9"
         stroke="#ffffff"
         stroke-linejoin="round"
         stroke-width="11.4286"
         style="fill-rule:evenodd;paint-order:stroke fill markers"
         id="path46" />
      <path
         transform="matrix(0.22857143,0,0,-0.22857143,34.971428,46.203431)"
         d="m 651.64,-654.97 c -5.5562,9.7234 -128.4,10.394 -139.6,10.444 -11.199,0.0499 -134.04,0.47305 -139.68,-9.2005 -5.6426,-9.6736 55.198,-116.39 60.754,-126.12 5.5563,-9.7234 66.611,-116.32 77.81,-116.37 11.199,-0.0499 73.201,106 78.843,115.67 5.642,9.67 67.431,115.85 61.874,125.57 z"
         fill="#e000c1"
         filter="url(#c)"
         opacity="0.27"
         style="fill-rule:evenodd;paint-order:stroke fill markers"
         id="path48" />
      <path
         d="m 183.91771,182.19657 c -1.26998,-2.22249 -29.34857,-2.37577 -31.90857,-2.3872 -2.55977,-0.0114 -30.63771,-0.10812 -31.92685,2.10298 -1.28974,2.2111 12.61668,26.60342 13.88662,28.82742 1.27002,2.2225 15.22538,26.58743 17.78515,26.59886 2.55977,0.0114 16.73165,-24.22857 18.02125,-26.43886 1.2896,-2.21028 15.4128,-26.48 14.14263,-28.70171 z"
         fill="#ffffff"
         opacity="0.9"
         stroke="#ffffff"
         stroke-linejoin="round"
         stroke-width="11.4286"
         style="fill-rule:evenodd;paint-order:stroke fill markers"
         id="path50" />
      <path
         d="m 651.64,385.75 c -5.5562,9.7234 -128.4,10.394 -139.6,10.444 -11.199,0.0499 -134.04,0.47305 -139.68,-9.2005 -5.6426,-9.6736 55.198,-116.39 60.754,-126.12 5.5563,-9.7234 66.611,-116.32 77.81,-116.37 11.199,-0.0499 73.201,106 78.843,115.67 5.6426,9.6736 67.431,115.85 61.874,125.57 z"
         fill="#e000c1"
         filter="url(#d)"
         opacity="0.27"
         style="fill-rule:evenodd;paint-order:stroke fill markers"
         id="path355"
         transform="matrix(0.04693878,0,0,0.04693878,319.96734,58.636162)" />
      <path
         d="m 350.55453,79.559123 c -0.2608,0.456405 -6.02694,0.487882 -6.55266,0.490229 -0.52566,0.0023 -6.29167,0.0222 -6.55641,-0.43186 -0.26485,-0.454067 2.59093,-5.463205 2.85172,-5.919919 0.26081,-0.456405 3.12664,-5.459919 3.65231,-5.462266 0.52567,-0.0023 3.43596,4.97551 3.70079,5.429408 0.26486,0.454067 3.16513,5.437858 2.90429,5.894103 z"
         fill="#ffffff"
         opacity="0.9"
         stroke="#ffffff"
         stroke-linejoin="round"
         stroke-width="2.34694"
         style="fill-rule:evenodd;paint-order:stroke fill markers"
         id="path357" />
      <path
         transform="matrix(0.04693878,0,0,-0.04693878,319.96734,61.452489)"
         d="m 651.64,-654.97 c -5.5562,9.7234 -128.4,10.394 -139.6,10.444 -11.199,0.0499 -134.04,0.47305 -139.68,-9.2005 -5.6426,-9.6736 55.198,-116.39 60.754,-126.12 5.5563,-9.7234 66.611,-116.32 77.81,-116.37 11.199,-0.0499 73.201,106 78.843,115.67 5.642,9.67 67.431,115.85 61.874,125.57 z"
         fill="#e000c1"
         filter="url(#c)"
         opacity="0.27"
         style="fill-rule:evenodd;paint-order:stroke fill markers"
         id="path359" />
      <path
         d="m 350.55453,89.379655 c -0.2608,-0.456405 -6.02694,-0.487882 -6.55266,-0.490229 -0.52566,-0.0023 -6.29167,-0.0222 -6.55641,0.43186 -0.26485,0.454067 2.59093,5.463205 2.85172,5.919919 0.26081,0.456405 3.12664,5.459915 3.65231,5.462265 0.52567,0.002 3.43596,-4.97551 3.70079,-5.429408 0.26483,-0.453898 3.16513,-5.437857 2.90429,-5.894102 z"
         fill="#ffffff"
         opacity="0.9"
         stroke="#ffffff"
         stroke-linejoin="round"
         stroke-width="2.34694"
         style="fill-rule:evenodd;paint-order:stroke fill markers"
         id="path361" />
      <path
         d="m 651.64,385.75 c -5.5562,9.7234 -128.4,10.394 -139.6,10.444 -11.199,0.0499 -134.04,0.47305 -139.68,-9.2005 -5.6426,-9.6736 55.198,-116.39 60.754,-126.12 5.5563,-9.7234 66.611,-116.32 77.81,-116.37 11.199,-0.0499 73.201,106 78.843,115.67 5.6426,9.6736 67.431,115.85 61.874,125.57 z"
         fill="#e000c1"
         filter="url(#d)"
         opacity="0.27"
         style="fill-rule:evenodd;paint-order:stroke fill markers"
         id="path375"
         transform="matrix(0.03061224,0,0,0.03061224,320.32653,131.45837)" />
      <path
         d="m 340.27469,145.10378 c -0.17009,0.29765 -3.93061,0.31818 -4.27347,0.31971 -0.34283,0.002 -4.10326,0.0145 -4.27592,-0.28165 -0.17273,-0.29613 1.68974,-3.56296 1.85982,-3.86081 0.17009,-0.29766 2.03911,-3.56082 2.38194,-3.56235 0.34282,-0.002 2.24084,3.2449 2.41356,3.54092 0.17273,0.29613 2.06421,3.54643 1.8941,3.84398 z"
         fill="#ffffff"
         opacity="0.9"
         stroke="#ffffff"
         stroke-linejoin="round"
         stroke-width="1.53061"
         style="fill-rule:evenodd;paint-order:stroke fill markers"
         id="path377" />
      <path
         transform="matrix(0.03061224,0,0,-0.03061224,320.32653,133.2951)"
         d="m 651.64,-654.97 c -5.5562,9.7234 -128.4,10.394 -139.6,10.444 -11.199,0.0499 -134.04,0.47305 -139.68,-9.2005 -5.6426,-9.6736 55.198,-116.39 60.754,-126.12 5.5563,-9.7234 66.611,-116.32 77.81,-116.37 11.199,-0.0499 73.201,106 78.843,115.67 5.642,9.67 67.431,115.85 61.874,125.57 z"
         fill="#e000c1"
         filter="url(#c)"
         opacity="0.27"
         style="fill-rule:evenodd;paint-order:stroke fill markers"
         id="path379" />
      <path
         d="m 340.27469,151.50847 c -0.17009,-0.29766 -3.93061,-0.31818 -4.27347,-0.31972 -0.34283,-0.002 -4.10326,-0.0145 -4.27592,0.28165 -0.17273,0.29613 1.68974,3.56296 1.85982,3.86082 0.17009,0.29765 2.03911,3.56081 2.38194,3.56234 0.34282,0.002 2.24084,-3.24489 2.41356,-3.54091 0.17271,-0.29602 2.06421,-3.54643 1.8941,-3.84398 z"
         fill="#ffffff"
         opacity="0.9"
         stroke="#ffffff"
         stroke-linejoin="round"
         stroke-width="1.53061"
         style="fill-rule:evenodd;paint-order:stroke fill markers"
         id="path381" />
      <path
         d="m 651.64,385.75 c -5.5562,9.7234 -128.4,10.394 -139.6,10.444 -11.199,0.0499 -134.04,0.47305 -139.68,-9.2005 -5.6426,-9.6736 55.198,-116.39 60.754,-126.12 5.5563,-9.7234 66.611,-116.32 77.81,-116.37 11.199,-0.0499 73.201,106 78.843,115.67 5.6426,9.6736 67.431,115.85 61.874,125.57 z"
         fill="#e000c1"
         filter="url(#d)"
         opacity="0.27"
         style="fill-rule:evenodd;paint-order:stroke fill markers"
         id="path395"
         transform="matrix(0.02346939,0,0,0.02346939,319.98367,187.31808)" />
      <path
         d="m 335.27726,197.77956 c -0.1304,0.2282 -3.01347,0.24394 -3.27632,0.24511 -0.26284,0.001 -3.14584,0.0111 -3.27821,-0.21593 -0.13243,-0.22703 1.29547,-2.7316 1.42586,-2.95995 0.1304,-0.22821 1.56332,-2.72996 1.82615,-2.73114 0.26284,-0.001 1.71799,2.48776 1.8504,2.71471 0.13243,0.22703 1.58257,2.71893 1.45215,2.94705 z"
         fill="#ffffff"
         opacity="0.9"
         stroke="#ffffff"
         stroke-linejoin="round"
         stroke-width="1.17347"
         style="fill-rule:evenodd;paint-order:stroke fill markers"
         id="path397" />
      <path
         transform="matrix(0.02346939,0,0,-0.02346939,319.98367,188.72624)"
         d="m 651.64,-654.97 c -5.5562,9.7234 -128.4,10.394 -139.6,10.444 -11.199,0.0499 -134.04,0.47305 -139.68,-9.2005 -5.6426,-9.6736 55.198,-116.39 60.754,-126.12 5.5563,-9.7234 66.611,-116.32 77.81,-116.37 11.199,-0.0499 73.201,106 78.843,115.67 5.642,9.67 67.431,115.85 61.874,125.57 z"
         fill="#e000c1"
         filter="url(#c)"
         opacity="0.27"
         style="fill-rule:evenodd;paint-order:stroke fill markers"
         id="path399" />
      <path
         d="m 335.27726,202.68983 c -0.1304,-0.22821 -3.01347,-0.24394 -3.27632,-0.24512 -0.26284,-10e-4 -3.14584,-0.0111 -3.27821,0.21593 -0.13243,0.22704 1.29547,2.7316 1.42586,2.95996 0.1304,0.2282 1.56332,2.72996 1.82615,2.73113 0.26284,0.001 1.71799,-2.48775 1.8504,-2.7147 0.13242,-0.22695 1.58257,-2.71893 1.45215,-2.94705 z"
         fill="#ffffff"
         opacity="0.9"
         stroke="#ffffff"
         stroke-linejoin="round"
         stroke-width="1.17347"
         style="fill-rule:evenodd;paint-order:stroke fill markers"
         id="path401" />
      <path
         d="m 651.64,385.75 c -5.5562,9.7234 -128.4,10.394 -139.6,10.444 -11.199,0.0499 -134.04,0.47305 -139.68,-9.2005 -5.6426,-9.6736 55.198,-116.39 60.754,-126.12 5.5563,-9.7234 66.611,-116.32 77.81,-116.37 11.199,-0.0499 73.201,106 78.843,115.67 5.6426,9.6736 67.431,115.85 61.874,125.57 z"
         fill="#e000c1"
         filter="url(#d)"
         opacity="0.27"
         style="fill-rule:evenodd;paint-order:stroke fill markers"
         id="path415"
         transform="matrix(0.01530612,0,0,0.01530612,320.16327,235.72919)" />
      <path
         d="m 330.13735,242.55189 c -0.085,0.14883 -1.96531,0.15909 -2.13673,0.15986 -0.17142,7.6e-4 -2.05164,0.007 -2.13796,-0.14082 -0.0864,-0.14807 0.84486,-1.78148 0.9299,-1.93041 0.0851,-0.14883 1.01956,-1.78041 1.19097,-1.78117 0.17142,-7.7e-4 1.12043,1.62244 1.20678,1.77045 0.0864,0.14807 1.03211,1.77322 0.94706,1.92199 z"
         fill="#ffffff"
         opacity="0.9"
         stroke="#ffffff"
         stroke-linejoin="round"
         stroke-width="0.765306"
         style="fill-rule:evenodd;paint-order:stroke fill markers"
         id="path417" />
      <path
         transform="matrix(0.01530612,0,0,-0.01530612,320.16327,236.64756)"
         d="m 651.64,-654.97 c -5.5562,9.7234 -128.4,10.394 -139.6,10.444 -11.199,0.0499 -134.04,0.47305 -139.68,-9.2005 -5.6426,-9.6736 55.198,-116.39 60.754,-126.12 5.5563,-9.7234 66.611,-116.32 77.81,-116.37 11.199,-0.0499 73.201,106 78.843,115.67 5.642,9.67 67.431,115.85 61.874,125.57 z"
         fill="#e000c1"
         filter="url(#c)"
         opacity="0.27"
         style="fill-rule:evenodd;paint-order:stroke fill markers"
         id="path419" />
      <path
         d="m 330.13735,245.75424 c -0.085,-0.14883 -1.96531,-0.15909 -2.13673,-0.15986 -0.17142,-7.6e-4 -2.05164,-0.007 -2.13796,0.14083 -0.0864,0.14806 0.84486,1.78148 0.9299,1.9304 0.0851,0.14883 1.01956,1.78041 1.19097,1.78118 0.17142,7.6e-4 1.12043,-1.62245 1.20678,-1.77046 0.0864,-0.14801 1.03211,-1.77322 0.94706,-1.92199 z"
         fill="#ffffff"
         opacity="0.9"
         stroke="#ffffff"
         stroke-linejoin="round"
         stroke-width="0.765306"
         style="fill-rule:evenodd;paint-order:stroke fill markers"
         id="path421" />
    </g>
  </g>
</svg>
