<?xml version="1.0" encoding="UTF-8" standalone="no"?>
<svg
   inkscape:export-ydpi="90.000000"
   inkscape:export-xdpi="90.000000"
   width="400"
   height="300"
   id="svg11300"
   sodipodi:version="0.32"
   inkscape:version="1.2.2 (b0a8486541, 2022-12-01)"
   sodipodi:docname="weather-app.svg"
   inkscape:output_extension="org.inkscape.output.svg.inkscape"
   version="1.0"
   style="display:inline;enable-background:new"
   inkscape:export-filename="/home/sam/suru-template.png"
   xmlns:inkscape="http://www.inkscape.org/namespaces/inkscape"
   xmlns:sodipodi="http://sodipodi.sourceforge.net/DTD/sodipodi-0.dtd"
   xmlns:xlink="http://www.w3.org/1999/xlink"
   xmlns="http://www.w3.org/2000/svg"
   xmlns:svg="http://www.w3.org/2000/svg"
   xmlns:rdf="http://www.w3.org/1999/02/22-rdf-syntax-ns#"
   xmlns:cc="http://creativecommons.org/ns#"
   xmlns:dc="http://purl.org/dc/elements/1.1/">
  <title
     id="title3004">Suru Icon Theme Template</title>
  <sodipodi:namedview
     stroke="#ef2929"
     fill="#f57900"
     id="base"
     pagecolor="#ffffff"
     bordercolor="#000000"
     borderopacity="0.25490196"
     inkscape:pageopacity="0"
     inkscape:pageshadow="2"
     inkscape:zoom="2"
     inkscape:cx="391.5"
     inkscape:cy="89.5"
     inkscape:current-layer="layer6"
     showgrid="false"
     inkscape:grid-bbox="true"
     inkscape:document-units="px"
     inkscape:showpageshadow="false"
     inkscape:window-width="1920"
     inkscape:window-height="1020"
     inkscape:window-x="0"
     inkscape:window-y="32"
     width="400px"
     height="300px"
     inkscape:snap-nodes="true"
     inkscape:snap-bbox="true"
     gridtolerance="10000"
     inkscape:object-nodes="true"
     inkscape:snap-grids="true"
     showguides="true"
     inkscape:guide-bbox="true"
     inkscape:window-maximized="1"
     inkscape:bbox-paths="true"
     inkscape:snap-bbox-midpoints="true"
     inkscape:snap-global="true"
     inkscape:object-paths="true"
     inkscape:snap-intersection-paths="true"
     inkscape:snap-smooth-nodes="true"
     inkscape:pagecheckerboard="false"
     showborder="false"
     inkscape:document-rotation="0"
     inkscape:deskcolor="#d1d1d1">
    <inkscape:grid
       spacingy="1"
       spacingx="1"
       id="grid5883"
       type="xygrid"
       enabled="true"
       visible="true"
       empspacing="4"
       snapvisiblegridlinesonly="true"
       originx="0"
       originy="0" />
    <inkscape:grid
       type="xygrid"
       id="grid11592"
       empspacing="2"
       visible="true"
       enabled="false"
       spacingx="0.5"
       spacingy="0.5"
       color="#ff0000"
       opacity="0.1254902"
       empcolor="#ff0000"
       empopacity="0.25098039"
       snapvisiblegridlinesonly="true"
       originx="0"
       originy="0" />
  </sodipodi:namedview>
  <defs
     id="defs3">
    <linearGradient
       id="a"
       x2="1"
       gradientTransform="matrix(-0.631344,-27.274,27.274,-0.631344,23.891,44.4114)"
       gradientUnits="userSpaceOnUse">
      <stop
         stop-color="#d1d1d1"
         offset="0"
         id="stop22" />
      <stop
         stop-color="#fff"
         offset="1"
         id="stop24" />
    </linearGradient>
    <linearGradient
       inkscape:collect="always"
       xlink:href="#a"
       id="linearGradient307"
       gradientUnits="userSpaceOnUse"
       gradientTransform="matrix(-0.6326851,-27.331935,27.331935,-0.6326851,344.42238,101.83268)"
       x2="1" />
    <linearGradient
       inkscape:collect="always"
       xlink:href="#a"
       id="linearGradient323"
       gradientUnits="userSpaceOnUse"
       gradientTransform="matrix(-0.41261528,-17.82494,17.82494,-0.41261528,336.27546,159.62986)"
       x2="1" />
    <linearGradient
       inkscape:collect="always"
       xlink:href="#a"
       id="linearGradient339"
       gradientUnits="userSpaceOnUse"
       gradientTransform="matrix(-0.31633838,-13.665787,13.665787,-0.31633838,332.21119,208.91623)"
       x2="1" />
    <linearGradient
       inkscape:collect="always"
       xlink:href="#a"
       id="linearGradient355"
       gradientUnits="userSpaceOnUse"
       gradientTransform="matrix(-0.20629923,-8.9121071,8.9121071,-0.20629923,328.13772,249.81469)"
       x2="1" />
    <linearGradient
       inkscape:collect="always"
       xlink:href="#a"
       id="linearGradient392"
       gradientUnits="userSpaceOnUse"
       gradientTransform="matrix(-3.0808607,-133.09289,133.09289,-3.0808607,154.05677,242.83627)"
       x2="1" />
  </defs>
  <metadata
     id="metadata4">
    <rdf:RDF>
      <cc:Work
         rdf:about="">
        <dc:format>image/svg+xml</dc:format>
        <dc:type
           rdf:resource="http://purl.org/dc/dcmitype/StillImage" />
        <dc:creator>
          <cc:Agent>
            <dc:title>Sam Hewitt</dc:title>
          </cc:Agent>
        </dc:creator>
        <dc:source />
        <cc:license
           rdf:resource="http://creativecommons.org/licenses/by-sa/4.0/" />
        <dc:title>Suru Icon Theme Template</dc:title>
        <dc:subject>
          <rdf:Bag />
        </dc:subject>
        <dc:date />
        <dc:rights>
          <cc:Agent>
            <dc:title />
          </cc:Agent>
        </dc:rights>
        <dc:publisher>
          <cc:Agent>
            <dc:title />
          </cc:Agent>
        </dc:publisher>
        <dc:identifier />
        <dc:relation />
        <dc:language />
        <dc:coverage />
        <dc:description />
        <dc:contributor>
          <cc:Agent>
            <dc:title />
          </cc:Agent>
        </dc:contributor>
      </cc:Work>
      <cc:Work
         rdf:about="">
        <dc:format>image/svg+xml</dc:format>
        <dc:type
           rdf:resource="http://purl.org/dc/dcmitype/StillImage" />
      </cc:Work>
      <cc:License
         rdf:about="http://creativecommons.org/licenses/by-sa/4.0/">
        <cc:permits
           rdf:resource="http://creativecommons.org/ns#Reproduction" />
        <cc:permits
           rdf:resource="http://creativecommons.org/ns#Distribution" />
        <cc:requires
           rdf:resource="http://creativecommons.org/ns#Notice" />
        <cc:requires
           rdf:resource="http://creativecommons.org/ns#Attribution" />
        <cc:permits
           rdf:resource="http://creativecommons.org/ns#DerivativeWorks" />
        <cc:requires
           rdf:resource="http://creativecommons.org/ns#ShareAlike" />
      </cc:License>
    </rdf:RDF>
  </metadata>
  <g
     style="display:inline"
     inkscape:groupmode="layer"
     inkscape:label="Icon"
     id="layer1">
    <g
       style="display:none"
       inkscape:label="Baseplate"
       id="layer7"
       inkscape:groupmode="layer">
      <text
         y="-8.2548828"
         xml:space="preserve"
         x="19.006836"
         style="font-style:normal;font-variant:normal;font-weight:normal;font-stretch:normal;line-height:0%;font-family:'DejaVu Sans';-inkscape-font-specification:'DejaVu Sans';display:inline;fill:#000000;fill-opacity:1;stroke:none;enable-background:new"
         inkscape:label="context"
         id="context"><tspan
           style="font-style:normal;font-variant:normal;font-weight:normal;font-stretch:normal;font-size:18px;line-height:1.25;font-family:'DejaVu Sans';-inkscape-font-specification:'DejaVu Sans'"
           y="-8.2548828"
           x="19.006836"
           sodipodi:role="line"
           id="tspan3933">apps</tspan></text>
      <text
         y="-8.2548828"
         xml:space="preserve"
         x="146.48828"
         style="font-style:normal;font-variant:normal;font-weight:bold;font-stretch:normal;line-height:0%;font-family:'DejaVu Sans';-inkscape-font-specification:'DejaVu Sans Bold';text-align:start;writing-mode:lr-tb;text-anchor:start;display:inline;fill:#000000;fill-opacity:1;stroke:none;enable-background:new"
         inkscape:label="icon-name"
         id="icon-name"><tspan
           style="font-style:normal;font-variant:normal;font-weight:bold;font-stretch:normal;font-size:18px;line-height:1.25;font-family:'DejaVu Sans';-inkscape-font-specification:'DejaVu Sans Bold'"
           y="-8.2548828"
           x="146.48828"
           sodipodi:role="line"
           id="tspan924">weather-app</tspan></text>
      <rect
         style="display:inline;overflow:visible;visibility:visible;fill:#cdcdcd;fill-opacity:1;fill-rule:nonzero;stroke:none;stroke-width:2;marker:none;enable-background:accumulate"
         id="rect16x16"
         width="16"
         height="16"
         x="320"
         y="236"
         inkscape:label="16x16" />
      <rect
         style="display:inline;overflow:visible;visibility:visible;fill:#cdcdcd;fill-opacity:1;fill-rule:nonzero;stroke:none;stroke-width:2;marker:none;enable-background:accumulate"
         id="rect24x24"
         width="24"
         height="24"
         x="320"
         y="188"
         inkscape:label="24x24" />
      <rect
         style="display:inline;overflow:visible;visibility:visible;fill:#cdcdcd;fill-opacity:1;fill-rule:nonzero;stroke:none;stroke-width:2;marker:none;enable-background:accumulate"
         id="rect32x32"
         width="32"
         height="32"
         x="320"
         y="132"
         inkscape:label="32x32" />
      <rect
         inkscape:label="48x48"
         y="60"
         x="320"
         height="48"
         width="48"
         id="rect48x48"
         style="display:inline;overflow:visible;visibility:visible;fill:#cdcdcd;fill-opacity:1;fill-rule:nonzero;stroke:none;stroke-width:2;marker:none;enable-background:accumulate" />
      <rect
         style="display:inline;overflow:visible;visibility:visible;fill:#cdcdcd;fill-opacity:1;fill-rule:nonzero;stroke:none;stroke-width:2;marker:none;enable-background:accumulate"
         id="rect256x256"
         width="256"
         height="256"
         x="24"
         y="28"
         inkscape:label="256x256" />
    </g>
    <g
       inkscape:groupmode="layer"
       id="layer2"
       inkscape:label="Background"
       style="display:inline" />
    <g
       inkscape:groupmode="layer"
       id="layer6"
       inkscape:label="Pictogram"
       style="display:inline">
      <ellipse
         cx="109.67458"
         cy="147.94574"
         rx="42.527847"
         ry="42.181377"
         fill="#ffffff"
         id="ellipse27"
         style="stroke-width:4.87984" />
      <ellipse
         cx="109.67458"
         cy="147.94574"
         rx="42.527847"
         ry="42.181377"
         fill-opacity="0.145098"
         id="ellipse29"
         style="stroke-width:4.87984" />
      <circle
         cx="184.28741"
         cy="135.97548"
         fill="none"
         id="ellipse31"
         r="67.234505"
         style="stroke-width:4.87984" />
      <circle
         cx="184.70708"
         cy="137.70782"
         fill="#ff6f00"
         id="ellipse33"
         r="66.888031"
         style="stroke-width:4.87984" />
      <path
         d="m 175.65496,109.46328 c -22.45704,0.01 -42.00082,16.16693 -46.5586,38.49222 -8.48605,-3.52325 -18.00174,-5.37271 -27.6736,-5.36783 -31.67019,0 -62.310735,20.39775 -61.403084,52.39489 1.107725,38.83381 32.104499,47.89568 57.308897,48.08599 72.831687,0.5563 111.772847,-0.28303 111.772847,-0.28303 20.49535,-0.33183 53.63925,-3.04502 54.85921,-30.76742 1.55179,-35.41303 -43.2891,-40.64423 -43.2891,-40.64423 0.0146,-0.30255 2.55216,-5.02136 2.54728,-13.62452 0,-26.49268 -21.47132,-48.28607 -47.55897,-48.28607 z"
         fill="url(#a)"
         id="path35"
         style="fill:url(#linearGradient392);fill-rule:nonzero;stroke-width:4.87984" />
      <path
         d="m 101.05677,142.40223 c -33.246378,0.1464 -59.787854,23.57941 -60.754063,45.85591 -0.170795,4.02099 -0.444066,8.1591 0.07808,12.08737 -0.209834,-1.57131 1.444434,-10.83813 1.825061,-12.37529 4.587055,-18.55805 28.107907,-40.51735 59.021722,-40.51735 30.91382,0 56.35733,21.29565 56.36221,47.17834 -0.0244,1.00037 -0.083,2.00074 -0.18544,2.99623 1.01501,-3.33294 1.53715,-6.74883 1.55667,-10.17448 -0.005,-24.71153 -26.14133,-45.04585 -57.90424,-45.05073 z"
         fill-opacity="0.2"
         id="path37"
         style="fill-rule:nonzero;stroke-width:4.87984" />
      <ellipse
         cx="335.30804"
         cy="82.345978"
         rx="8.7335129"
         ry="8.6623621"
         fill="#ffffff"
         id="ellipse293"
         style="stroke-width:1.00212" />
      <ellipse
         cx="335.30804"
         cy="82.345978"
         rx="8.7335129"
         ry="8.6623621"
         fill-opacity="0.145098"
         id="ellipse295"
         style="stroke-width:1.00212" />
      <circle
         cx="350.63055"
         cy="79.887764"
         fill="none"
         id="circle297"
         r="13.807267"
         style="stroke-width:1.00212" />
      <circle
         cx="350.71674"
         cy="80.243523"
         fill="#ff6f00"
         id="circle299"
         r="13.736116"
         style="stroke-width:1.00212" />
      <path
         d="m 348.85778,74.443226 c -4.61177,0.002 -8.62528,3.320038 -9.56127,7.904756 -1.74269,-0.723534 -3.69683,-1.103339 -5.68304,-1.102337 -6.50379,0 -12.79613,4.18888 -12.60973,10.759808 0.22748,7.974904 6.59297,9.835847 11.76895,9.874927 14.9567,0.11425 22.95365,-0.0581 22.95365,-0.0581 4.20892,-0.0681 11.01535,-0.62532 11.26588,-6.318391 0.31868,-7.272416 -8.88984,-8.346693 -8.88984,-8.346693 0.003,-0.06213 0.52411,-1.031186 0.52311,-2.797931 0,-5.440532 -4.40935,-9.916019 -9.76671,-9.916019 z"
         fill="url(#a)"
         id="path301"
         style="fill:url(#linearGradient307);fill-rule:nonzero;stroke-width:1.00212" />
      <path
         d="m 333.53831,81.207565 c -6.82747,0.03006 -12.27803,4.842264 -12.47645,9.416961 -0.0351,0.82575 -0.0912,1.675551 0.016,2.482261 -0.0431,-0.322684 0.29662,-2.225717 0.37479,-2.541387 0.942,-3.811078 5.77224,-8.320637 12.12069,-8.320637 6.34846,0 11.57354,4.37327 11.57454,9.688537 -0.005,0.205435 -0.017,0.410871 -0.0381,0.615304 0.20844,-0.684451 0.31567,-1.385938 0.31967,-2.089429 -10e-4,-5.074757 -5.36838,-9.250608 -11.8912,-9.25161 z"
         fill-opacity="0.2"
         id="path303"
         style="fill-rule:nonzero;stroke-width:1.00212" />
      <ellipse
         cx="330.33142"
         cy="146.92131"
         rx="5.695694"
         ry="5.649292"
         fill="#ffffff"
         id="ellipse309"
         style="stroke-width:0.653551" />
      <ellipse
         cx="330.33142"
         cy="146.92131"
         rx="5.695694"
         ry="5.649292"
         fill-opacity="0.145098"
         id="ellipse311"
         style="stroke-width:0.653551" />
      <circle
         cx="340.32422"
         cy="145.31815"
         fill="none"
         id="circle313"
         r="9.0046206"
         style="stroke-width:0.653551" />
      <circle
         cx="340.3804"
         cy="145.55016"
         fill="#ff6f00"
         id="circle315"
         r="8.9582186"
         style="stroke-width:0.653551" />
      <path
         d="m 339.16807,141.7674 c -3.00764,0.001 -5.62511,2.16522 -6.23552,5.15521 -1.13653,-0.47186 -2.41095,-0.71956 -3.70629,-0.7189 -4.24154,0 -8.34519,2.73184 -8.22363,7.01717 0.14836,5.20096 4.29971,6.4146 7.6753,6.44009 9.75425,0.0745 14.96958,-0.0379 14.96958,-0.0379 2.74491,-0.0444 7.18383,-0.40781 7.34722,-4.12063 0.20782,-4.74282 -5.79765,-5.44343 -5.79765,-5.44343 0.002,-0.0405 0.34181,-0.6725 0.34115,-1.82471 0,-3.54813 -2.87562,-6.46689 -6.3695,-6.46689 z"
         fill="url(#a)"
         id="path317"
         style="fill:url(#linearGradient323);fill-rule:nonzero;stroke-width:0.653551" />
      <path
         d="m 329.17724,146.17887 c -4.45264,0.0196 -8.0073,3.15796 -8.1367,6.14142 -0.0229,0.53852 -0.0595,1.09273 0.0105,1.61884 -0.0281,-0.21044 0.19345,-1.45153 0.24442,-1.6574 0.61434,-2.48546 3.76446,-5.42643 7.9047,-5.42643 4.14024,0 7.54786,2.85209 7.54851,6.31852 -0.003,0.13398 -0.0111,0.26796 -0.0248,0.40128 0.13594,-0.44637 0.20587,-0.90386 0.20849,-1.36265 -6.6e-4,-3.30958 -3.50107,-6.03292 -7.75504,-6.03358 z"
         fill-opacity="0.2"
         id="path319"
         style="fill-rule:nonzero;stroke-width:0.653551" />
      <ellipse
         cx="327.65408"
         cy="199.173"
         rx="4.3666987"
         ry="4.3311238"
         fill="#ffffff"
         id="ellipse325"
         style="stroke-width:0.501055" />
      <ellipse
         cx="327.65408"
         cy="199.173"
         rx="4.3666987"
         ry="4.3311238"
         fill-opacity="0.145098"
         id="ellipse327"
         style="stroke-width:0.501055" />
      <circle
         cx="335.31522"
         cy="197.94391"
         fill="none"
         id="circle329"
         r="6.9035425"
         style="stroke-width:0.501055" />
      <circle
         cx="335.35831"
         cy="198.12178"
         fill="#ff6f00"
         id="circle331"
         r="6.8679676"
         style="stroke-width:0.501055" />
      <path
         d="m 334.42886,195.22168 c -2.30586,0.001 -4.31259,1.65999 -4.78057,3.95232 -0.87134,-0.36176 -1.8484,-0.55166 -2.84149,-0.55116 -3.25185,0 -6.39798,2.09441 -6.30478,5.37984 0.11374,3.98739 3.29645,4.91785 5.8844,4.9374 7.47825,0.0571 11.47667,-0.0291 11.47667,-0.0291 2.10444,-0.0341 5.5076,-0.31265 5.63287,-3.15915 0.15933,-3.63616 -4.44486,-4.17329 -4.44486,-4.17329 10e-4,-0.0311 0.26205,-0.51559 0.26155,-1.39895 0,-2.72023 -2.20465,-4.95794 -4.88329,-4.95794 z"
         fill="url(#a)"
         id="path333"
         style="fill:url(#linearGradient339);fill-rule:nonzero;stroke-width:0.501055" />
      <path
         d="m 326.76922,198.6038 c -3.41369,0.015 -6.13893,2.4211 -6.23814,4.70842 -0.0175,0.41287 -0.0456,0.83777 0.008,1.24112 -0.0215,-0.16134 0.14831,-1.11285 0.18739,-1.27068 0.471,-1.90552 2.88608,-4.16027 6.06027,-4.16027 3.17419,0 5.78669,2.18661 5.78719,4.84421 -0.002,0.10272 -0.009,0.20543 -0.019,0.30765 0.10422,-0.34222 0.15783,-0.69296 0.15984,-1.0447 -5e-4,-2.53735 -2.68416,-4.62525 -5.94553,-4.62575 z"
         fill-opacity="0.2"
         id="path335"
         style="fill-rule:nonzero;stroke-width:0.501055" />
      <ellipse
         cx="325.16583"
         cy="243.46066"
         rx="2.8477309"
         ry="2.8245308"
         fill="#ffffff"
         id="ellipse341"
         style="stroke-width:0.326762" />
      <ellipse
         cx="325.16583"
         cy="243.46066"
         rx="2.8477309"
         ry="2.8245308"
         fill-opacity="0.145098"
         id="ellipse343"
         style="stroke-width:0.326762" />
      <circle
         cx="330.16202"
         cy="242.65912"
         fill="none"
         id="circle345"
         r="4.5021272"
         style="stroke-width:0.326762" />
      <circle
         cx="330.19012"
         cy="242.77513"
         fill="#ff6f00"
         id="circle347"
         r="4.4789267"
         style="stroke-width:0.326762" />
      <path
         d="m 329.58397,240.88383 c -1.50376,6.5e-4 -2.81244,1.08256 -3.11764,2.57749 -0.56824,-0.23592 -1.20542,-0.35976 -1.85306,-0.35943 -2.12069,0 -4.17243,1.36586 -4.11165,3.50844 0.0742,2.60037 2.14977,3.20717 3.83749,3.21991 4.87693,0.0373 7.48449,-0.0189 7.48449,-0.0189 1.3724,-0.0222 3.59176,-0.2039 3.67346,-2.06023 0.10391,-2.37132 -2.89871,-2.72161 -2.89871,-2.72161 9.8e-4,-0.0203 0.1709,-0.33623 0.17057,-0.91231 0,-1.774 -1.43775,-3.23331 -3.18462,-3.23331 z"
         fill="url(#a)"
         id="path349"
         style="fill:url(#linearGradient355);fill-rule:nonzero;stroke-width:0.326762" />
      <path
         d="m 324.58876,243.08947 c -2.22623,0.01 -4.00349,1.57891 -4.06819,3.07058 -0.0114,0.26925 -0.0297,0.54635 0.005,0.80939 -0.014,-0.10522 0.0967,-0.72574 0.12221,-0.82867 0.30716,-1.24267 1.88215,-2.7131 3.95219,-2.7131 2.07003,0 3.77377,1.42599 3.7741,3.15913 -0.002,0.067 -0.006,0.13397 -0.0124,0.20063 0.068,-0.22317 0.10293,-0.45191 0.10424,-0.68129 -3.3e-4,-1.65473 -1.75047,-3.01634 -3.87736,-3.01667 z"
         fill-opacity="0.2"
         id="path351"
         style="fill-rule:nonzero;stroke-width:0.326762" />
    </g>
  </g>
</svg>
