<?xml version="1.0" encoding="UTF-8" standalone="no"?>
<svg
   inkscape:export-ydpi="90.000000"
   inkscape:export-xdpi="90.000000"
   width="400"
   height="300"
   id="svg11300"
   sodipodi:version="0.32"
   inkscape:version="1.2.2 (b0a8486541, 2022-12-01)"
   sodipodi:docname="winetricks.svg"
   inkscape:output_extension="org.inkscape.output.svg.inkscape"
   version="1.0"
   style="display:inline;enable-background:new"
   inkscape:export-filename="/home/sam/suru-template.png"
   xmlns:inkscape="http://www.inkscape.org/namespaces/inkscape"
   xmlns:sodipodi="http://sodipodi.sourceforge.net/DTD/sodipodi-0.dtd"
   xmlns:xlink="http://www.w3.org/1999/xlink"
   xmlns="http://www.w3.org/2000/svg"
   xmlns:svg="http://www.w3.org/2000/svg"
   xmlns:rdf="http://www.w3.org/1999/02/22-rdf-syntax-ns#"
   xmlns:cc="http://creativecommons.org/ns#"
   xmlns:dc="http://purl.org/dc/elements/1.1/">
  <title
     id="title3004">Suru Icon Theme Template</title>
  <sodipodi:namedview
     stroke="#ef2929"
     fill="#f57900"
     id="base"
     pagecolor="#ffffff"
     bordercolor="#000000"
     borderopacity="0.25490196"
     inkscape:pageopacity="0"
     inkscape:pageshadow="2"
     inkscape:zoom="1"
     inkscape:cx="522"
     inkscape:cy="265"
     inkscape:current-layer="layer6"
     showgrid="false"
     inkscape:grid-bbox="true"
     inkscape:document-units="px"
     inkscape:showpageshadow="false"
     inkscape:window-width="1920"
     inkscape:window-height="1020"
     inkscape:window-x="0"
     inkscape:window-y="32"
     width="400px"
     height="300px"
     inkscape:snap-nodes="true"
     inkscape:snap-bbox="true"
     gridtolerance="10000"
     inkscape:object-nodes="true"
     inkscape:snap-grids="true"
     showguides="true"
     inkscape:guide-bbox="true"
     inkscape:window-maximized="1"
     inkscape:bbox-paths="true"
     inkscape:snap-bbox-midpoints="true"
     inkscape:snap-global="true"
     inkscape:object-paths="true"
     inkscape:snap-intersection-paths="true"
     inkscape:snap-smooth-nodes="true"
     inkscape:pagecheckerboard="false"
     showborder="false"
     inkscape:document-rotation="0"
     inkscape:deskcolor="#d1d1d1">
    <inkscape:grid
       spacingy="1"
       spacingx="1"
       id="grid5883"
       type="xygrid"
       enabled="true"
       visible="true"
       empspacing="4"
       snapvisiblegridlinesonly="true"
       originx="0"
       originy="0" />
    <inkscape:grid
       type="xygrid"
       id="grid11592"
       empspacing="2"
       visible="true"
       enabled="false"
       spacingx="0.5"
       spacingy="0.5"
       color="#ff0000"
       opacity="0.1254902"
       empcolor="#ff0000"
       empopacity="0.25098039"
       snapvisiblegridlinesonly="true"
       originx="0"
       originy="0" />
  </sodipodi:namedview>
  <defs
     id="defs3">
    <linearGradient
       id="a"
       x2="1"
       gradientTransform="matrix(0.0750367,-43.19,43.19,0.0750367,87.46,45.5869)"
       gradientUnits="userSpaceOnUse">
      <stop
         stop-color="#003fb6"
         offset="0"
         id="stop2" />
      <stop
         stop-color="#21c6fb"
         offset="1"
         id="stop4" />
    </linearGradient>
    <linearGradient
       inkscape:collect="always"
       xlink:href="#a"
       id="linearGradient371"
       gradientUnits="userSpaceOnUse"
       gradientTransform="matrix(0.38785815,-223.24533,223.24533,0.38785815,480.01919,267.58078)"
       x2="1" />
    <linearGradient
       id="b"
       x2="1"
       gradientTransform="matrix(-1.7563117e-8,-16.000878,16.000878,-1.7563117e-8,804.7539,106)"
       gradientUnits="userSpaceOnUse">
      <stop
         stop-color="#566069"
         offset="0"
         id="stop239" />
      <stop
         stop-color="#6c7884"
         offset="1"
         id="stop241" />
    </linearGradient>
    <linearGradient
       inkscape:collect="always"
       xlink:href="#a"
       id="linearGradient354"
       gradientUnits="userSpaceOnUse"
       gradientTransform="matrix(0.07964944,-45.845023,45.845023,0.07964944,411.36109,106.91391)"
       x2="1" />
    <linearGradient
       inkscape:collect="always"
       xlink:href="#b"
       id="linearGradient356"
       gradientUnits="userSpaceOnUse"
       gradientTransform="matrix(-1.7563117e-8,-16.000878,16.000878,-1.7563117e-8,804.7539,106)"
       x2="1" />
    <linearGradient
       inkscape:collect="always"
       xlink:href="#a"
       id="linearGradient368"
       gradientUnits="userSpaceOnUse"
       gradientTransform="matrix(0.05194529,-29.898929,29.898929,0.05194529,379.93114,162.94385)"
       x2="1" />
    <linearGradient
       inkscape:collect="always"
       xlink:href="#b"
       id="linearGradient370"
       gradientUnits="userSpaceOnUse"
       gradientTransform="matrix(-1.1454207e-8,-10.435355,10.435355,-1.1454207e-8,636.49167,162.34783)"
       x2="1" />
    <linearGradient
       inkscape:collect="always"
       xlink:href="#a"
       id="linearGradient382"
       gradientUnits="userSpaceOnUse"
       gradientTransform="matrix(0.03982472,-22.922512,22.922512,0.03982472,365.68054,211.45696)"
       x2="1" />
    <linearGradient
       inkscape:collect="always"
       xlink:href="#b"
       id="linearGradient384"
       gradientUnits="userSpaceOnUse"
       gradientTransform="matrix(0,-8.0004392,8.0004392,0,562.37695,211)"
       x2="1" />
    <linearGradient
       inkscape:collect="always"
       xlink:href="#a"
       id="linearGradient396"
       gradientUnits="userSpaceOnUse"
       gradientTransform="matrix(0.02597264,-14.949464,14.949464,0.02597264,349.96557,251.47193)"
       x2="1" />
    <linearGradient
       inkscape:collect="always"
       xlink:href="#b"
       id="linearGradient398"
       gradientUnits="userSpaceOnUse"
       gradientTransform="matrix(0,-5.2176777,5.2176777,0,478.24583,251.17392)"
       x2="1" />
    <linearGradient
       inkscape:collect="always"
       xlink:href="#b"
       id="linearGradient416"
       gradientUnits="userSpaceOnUse"
       gradientTransform="matrix(-8.5524745e-8,-77.91732,77.91732,-8.5524745e-8,2395.6712,263.13043)"
       x2="1" />
  </defs>
  <metadata
     id="metadata4">
    <rdf:RDF>
      <cc:Work
         rdf:about="">
        <dc:format>image/svg+xml</dc:format>
        <dc:type
           rdf:resource="http://purl.org/dc/dcmitype/StillImage" />
        <dc:creator>
          <cc:Agent>
            <dc:title>Sam Hewitt</dc:title>
          </cc:Agent>
        </dc:creator>
        <dc:source />
        <cc:license
           rdf:resource="http://creativecommons.org/licenses/by-sa/4.0/" />
        <dc:title>Suru Icon Theme Template</dc:title>
        <dc:subject>
          <rdf:Bag />
        </dc:subject>
        <dc:date />
        <dc:rights>
          <cc:Agent>
            <dc:title />
          </cc:Agent>
        </dc:rights>
        <dc:publisher>
          <cc:Agent>
            <dc:title />
          </cc:Agent>
        </dc:publisher>
        <dc:identifier />
        <dc:relation />
        <dc:language />
        <dc:coverage />
        <dc:description />
        <dc:contributor>
          <cc:Agent>
            <dc:title />
          </cc:Agent>
        </dc:contributor>
      </cc:Work>
      <cc:Work
         rdf:about="">
        <dc:format>image/svg+xml</dc:format>
        <dc:type
           rdf:resource="http://purl.org/dc/dcmitype/StillImage" />
      </cc:Work>
      <cc:License
         rdf:about="http://creativecommons.org/licenses/by-sa/4.0/">
        <cc:permits
           rdf:resource="http://creativecommons.org/ns#Reproduction" />
        <cc:permits
           rdf:resource="http://creativecommons.org/ns#Distribution" />
        <cc:requires
           rdf:resource="http://creativecommons.org/ns#Notice" />
        <cc:requires
           rdf:resource="http://creativecommons.org/ns#Attribution" />
        <cc:permits
           rdf:resource="http://creativecommons.org/ns#DerivativeWorks" />
        <cc:requires
           rdf:resource="http://creativecommons.org/ns#ShareAlike" />
      </cc:License>
    </rdf:RDF>
  </metadata>
  <g
     style="display:inline"
     inkscape:groupmode="layer"
     inkscape:label="Icon"
     id="layer1">
    <g
       style="display:none"
       inkscape:label="Baseplate"
       id="layer7"
       inkscape:groupmode="layer">
      <text
         y="-8.2548828"
         xml:space="preserve"
         x="19.006836"
         style="font-style:normal;font-variant:normal;font-weight:normal;font-stretch:normal;line-height:0%;font-family:'DejaVu Sans';-inkscape-font-specification:'DejaVu Sans';display:inline;fill:#000000;fill-opacity:1;stroke:none;enable-background:new"
         inkscape:label="context"
         id="context"><tspan
           style="font-style:normal;font-variant:normal;font-weight:normal;font-stretch:normal;font-size:18px;line-height:1.25;font-family:'DejaVu Sans';-inkscape-font-specification:'DejaVu Sans'"
           y="-8.2548828"
           x="19.006836"
           sodipodi:role="line"
           id="tspan3933">apps</tspan></text>
      <text
         y="-8.2548828"
         xml:space="preserve"
         x="146.48828"
         style="font-style:normal;font-variant:normal;font-weight:bold;font-stretch:normal;line-height:0%;font-family:'DejaVu Sans';-inkscape-font-specification:'DejaVu Sans Bold';text-align:start;writing-mode:lr-tb;text-anchor:start;display:inline;fill:#000000;fill-opacity:1;stroke:none;enable-background:new"
         inkscape:label="icon-name"
         id="icon-name"><tspan
           style="font-style:normal;font-variant:normal;font-weight:bold;font-stretch:normal;font-size:18px;line-height:1.25;font-family:'DejaVu Sans';-inkscape-font-specification:'DejaVu Sans Bold'"
           y="-8.2548828"
           x="146.48828"
           sodipodi:role="line"
           id="tspan924">winetricks</tspan></text>
      <rect
         style="display:inline;overflow:visible;visibility:visible;fill:#cdcdcd;fill-opacity:1;fill-rule:nonzero;stroke:none;stroke-width:2;marker:none;enable-background:accumulate"
         id="rect16x16"
         width="16"
         height="16"
         x="320"
         y="236"
         inkscape:label="16x16" />
      <rect
         style="display:inline;overflow:visible;visibility:visible;fill:#cdcdcd;fill-opacity:1;fill-rule:nonzero;stroke:none;stroke-width:2;marker:none;enable-background:accumulate"
         id="rect24x24"
         width="24"
         height="24"
         x="320"
         y="188"
         inkscape:label="24x24" />
      <rect
         style="display:inline;overflow:visible;visibility:visible;fill:#cdcdcd;fill-opacity:1;fill-rule:nonzero;stroke:none;stroke-width:2;marker:none;enable-background:accumulate"
         id="rect32x32"
         width="32"
         height="32"
         x="320"
         y="132"
         inkscape:label="32x32" />
      <rect
         inkscape:label="48x48"
         y="60"
         x="320"
         height="48"
         width="48"
         id="rect48x48"
         style="display:inline;overflow:visible;visibility:visible;fill:#cdcdcd;fill-opacity:1;fill-rule:nonzero;stroke:none;stroke-width:2;marker:none;enable-background:accumulate" />
      <rect
         style="display:inline;overflow:visible;visibility:visible;fill:#cdcdcd;fill-opacity:1;fill-rule:nonzero;stroke:none;stroke-width:2;marker:none;enable-background:accumulate"
         id="rect256x256"
         width="256"
         height="256"
         x="24"
         y="28"
         inkscape:label="256x256" />
    </g>
    <g
       inkscape:groupmode="layer"
       id="layer2"
       inkscape:label="Background"
       style="display:inline">
      <path
         d="m 263.99997,76.191988 c 0,-17.770723 -14.42127,-32.19199 -32.19197,-32.19199 H 72.191976 c -17.7707,0 -32.191966,14.421267 -32.191966,32.19199 V 235.80803 C 40.00001,253.57873 54.421276,268 72.191976,268 H 231.808 c 17.7707,0 32.19197,-14.42127 32.19197,-32.19197 z"
         fill="url(#a)"
         id="path365"
         style="display:inline;fill:url(#linearGradient371);stroke-width:5.1689;enable-background:new" />
      <path
         d="m 367,67.610856 c 0,-3.649345 -2.96151,-6.610855 -6.61085,-6.610855 h -32.77829 c -3.64934,0 -6.61085,2.96151 -6.61085,6.610855 v 32.778294 c 0,3.64934 2.96151,6.61085 6.61085,6.61085 h 32.77829 C 364.03849,107 367,104.03849 367,100.38915 Z"
         fill="url(#a)"
         id="path344"
         style="display:inline;fill:url(#linearGradient354);stroke-width:1.06147;enable-background:new" />
      <path
         d="m 350.99999,137.31143 c 0,-2.38001 -1.93142,-4.31143 -4.31142,-4.31143 h -21.37715 c -2.38,0 -4.31142,1.93142 -4.31142,4.31143 v 21.37715 c 0,2.38 1.93142,4.31142 4.31142,4.31142 h 21.37715 c 2.38,0 4.31142,-1.93142 4.31142,-4.31142 z"
         fill="url(#a)"
         id="path358"
         style="display:inline;fill:url(#linearGradient368);stroke-width:0.692263;enable-background:new" />
      <path
         d="m 343.49999,191.80543 c 0,-1.82467 -1.48075,-3.30543 -3.30542,-3.30543 h -16.38915 c -1.82467,0 -3.30542,1.48076 -3.30542,3.30543 v 16.38915 c 0,1.82467 1.48075,3.30542 3.30542,3.30542 h 16.38915 c 1.82467,0 3.30542,-1.48075 3.30542,-3.30542 z"
         fill="url(#a)"
         id="path372"
         style="display:inline;fill:url(#linearGradient382);stroke-width:0.530735;enable-background:new" />
      <path
         d="m 335.49999,238.65572 c 0,-1.19001 -0.96571,-2.15572 -2.15571,-2.15572 h -10.68857 c -1.19,0 -2.15571,0.96571 -2.15571,2.15572 v 10.68857 c 0,1.19 0.96571,2.15571 2.15571,2.15571 h 10.68857 c 1.19,0 2.15571,-0.96571 2.15571,-2.15571 z"
         fill="url(#a)"
         id="path386"
         style="display:inline;fill:url(#linearGradient396);stroke-width:0.346132;enable-background:new" />
    </g>
    <g
       inkscape:groupmode="layer"
       id="layer6"
       inkscape:label="Pictogram"
       style="display:inline">
      <path
         d="m 89.027134,151.38933 -0.0487,-44.95403 50.417576,-7.515604 V 151.38933 Z M 147.80284,97.586117 215.00902,86.850283 v 64.539047 h -67.20618 z m 67.21651,63.024553 -0.01,64.53904 -67.20619,-10.37401 v -54.16503 z m -75.62119,52.98652 -50.376187,-7.57762 -0.0049,-45.4089 H 139.3985 Z"
         fill="#eff9fe"
         fill-opacity="0.75"
         fill-rule="nonzero"
         id="path367"
         style="display:inline;enable-background:new;stroke-width:5.1689" />
      <path
         d="m 259.1304,199.20497 c 0,-3.70749 -1.471,-7.26963 -4.09662,-9.89096 -2.62134,-2.62558 -6.18347,-4.09662 -9.89096,-4.09662 h -49.9336 c -3.71177,0 -7.26962,1.47104 -9.89525,4.09662 -2.62562,2.62133 -4.09662,6.18347 -4.09662,9.89096 v 49.93359 c 0,3.71178 1.471,7.26963 4.09662,9.89525 2.62563,2.62557 6.18348,4.09662 9.89525,4.09662 h 49.9336 c 3.70749,0 7.26962,-1.47105 9.89096,-4.09662 2.62562,-2.62562 4.09662,-6.18347 4.09662,-9.89525 z"
         fill="url(#b)"
         id="path248"
         style="display:inline;enable-background:new;fill:url(#linearGradient416);stroke-width:4.27624" />
      <path
         d="m 246.94738,218.43094 c 0,-0.7954 -0.59866,-1.28717 -1.80028,-1.47957 l -16.15561,-2.35195 -7.23968,-14.64186 c -0.40612,-0.8809 -0.93651,-1.32136 -1.57793,-1.32136 -0.64142,0 -1.16743,0.4407 -1.57365,1.32136 l -7.23968,14.64186 -16.1599,2.35195 c -1.19733,0.19235 -1.80028,0.68417 -1.80028,1.47957 0,0.44897 0.26929,0.96213 0.80821,1.5437 l 11.71262,11.38761 -2.77103,16.09149 c -0.0438,0.29948 -0.0599,0.51744 -0.0599,0.64571 0,0.44897 0.11103,0.82958 0.33357,1.14176 0.23082,0.31214 0.56448,0.46602 1.01774,0.46602 0.38469,0 0.81248,-0.12855 1.28288,-0.38469 l 14.44942,-7.59886 14.44941,7.59886 c 0.44897,0.25662 0.8809,0.38469 1.28712,0.38469 0.43193,0 0.75693,-0.15388 0.97927,-0.46602 0.22644,-0.31213 0.33795,-0.69274 0.33795,-1.14176 0,-0.28244 -0.01,-0.49178 -0.0292,-0.64571 l -2.76674,-16.09149 11.67844,-11.38761 c 0.56019,-0.55591 0.8381,-1.07335 0.8381,-1.5437 z"
         fill="#eff9fe"
         fill-opacity="0.8"
         fill-rule="nonzero"
         id="path250"
         style="display:inline;enable-background:new;stroke-width:4.27624" />
      <path
         d="m 331.06808,83.053166 -0.01,-9.231631 10.35361,-1.543382 v 10.775013 z m 12.07001,-11.048873 13.80127,-2.20468 v 13.253553 h -13.80127 z m 13.80339,12.942541 -0.002,13.253554 -13.80127,-2.130377 V 84.946834 Z m -15.52935,10.881161 -10.34511,-1.556119 -0.001,-9.325042 h 10.34618 z"
         fill="#eff9fe"
         fill-opacity="0.75"
         fill-rule="nonzero"
         id="path346"
         style="display:inline;enable-background:new;stroke-width:1.06147" />
      <path
         d="m 366,92.87245 c 0,-0.76136 -0.30208,-1.49287 -0.84127,-2.03118 C 364.62042,90.30209 363.88891,90 363.12755,90 h -10.25422 c -0.76224,0 -1.49287,0.30209 -2.03206,0.84127 C 350.30208,91.37958 350,92.11109 350,92.87245 v 10.25422 c 0,0.76224 0.30208,1.49287 0.84127,2.03206 0.53919,0.53918 1.26982,0.84127 2.03206,0.84127 h 10.25422 c 0.76136,0 1.49287,-0.30209 2.03118,-0.84127 C 365.69792,104.61954 366,103.88891 366,103.12667 Z"
         fill="url(#b)"
         id="path348"
         style="display:inline;enable-background:new;fill:url(#linearGradient356);stroke-width:0.878156" />
      <path
         d="m 363.49813,96.82064 c 0,-0.16334 -0.12294,-0.26433 -0.3697,-0.30384 l -3.31767,-0.48299 -1.48672,-3.00681 c -0.0834,-0.1809 -0.19232,-0.27135 -0.32404,-0.27135 -0.13172,0 -0.23974,0.0905 -0.32316,0.27135 l -1.48672,3.00681 -3.31855,0.48299 c -0.24588,0.0395 -0.3697,0.1405 -0.3697,0.30384 0,0.0922 0.0553,0.19758 0.16597,0.31701 l 2.40527,2.338527 -0.56905,3.304503 c -0.009,0.0615 -0.0123,0.10626 -0.0123,0.1326 0,0.0922 0.0228,0.17036 0.0685,0.23447 0.0474,0.0641 0.11592,0.0957 0.209,0.0957 0.079,0 0.16685,-0.0264 0.26345,-0.079 L 358,101.60397 l 2.96729,1.56048 c 0.0922,0.0527 0.1809,0.079 0.26432,0.079 0.0887,0 0.15544,-0.0316 0.2011,-0.0957 0.0465,-0.0641 0.0694,-0.14226 0.0694,-0.23447 0,-0.058 -0.002,-0.10099 -0.006,-0.1326 l -0.56817,-3.304503 2.39825,-2.338527 c 0.11504,-0.11416 0.17211,-0.22042 0.17211,-0.31701 z"
         fill="#eff9fe"
         fill-opacity="0.8"
         fill-rule="nonzero"
         id="path350"
         style="display:inline;enable-background:new;stroke-width:0.878156" />
      <path
         d="m 327.56613,147.3825 -0.007,-6.02063 6.75235,-1.00655 v 7.02718 z m 7.87175,-7.20579 9.00083,-1.43783 v 8.64362 h -9.00083 z m 9.00221,8.44079 -10e-4,8.64362 -9.00083,-1.38937 v -7.25425 z m -10.12784,7.09641 -6.74681,-1.01486 -6.5e-4,-6.08155 h 6.74751 z"
         fill="#eff9fe"
         fill-opacity="0.75"
         fill-rule="nonzero"
         id="path360"
         style="display:inline;enable-background:new;stroke-width:0.692263" />
      <path
         d="m 350.34782,153.78638 c 0,-0.49654 -0.19701,-0.97361 -0.54866,-1.32468 -0.35107,-0.35164 -0.82814,-0.54866 -1.32468,-0.54866 h -6.68753 c -0.49712,0 -0.97361,0.19702 -1.32526,0.54866 -0.35165,0.35107 -0.54865,0.82814 -0.54865,1.32468 v 6.68754 c 0,0.49711 0.197,0.97361 0.54865,1.32525 0.35165,0.35164 0.82814,0.54866 1.32526,0.54866 h 6.68753 c 0.49654,0 0.97361,-0.19702 1.32468,-0.54866 0.35165,-0.35164 0.54866,-0.82814 0.54866,-1.32525 z"
         fill="url(#b)"
         id="path362"
         style="display:inline;enable-background:new;fill:url(#linearGradient370);stroke-width:0.57271" />
      <path
         d="m 348.71616,156.36129 c 0,-0.10653 -0.0802,-0.17239 -0.2411,-0.19816 l -2.1637,-0.31499 -0.9696,-1.96097 c -0.0544,-0.11797 -0.12543,-0.17696 -0.21133,-0.17696 -0.0859,0 -0.15636,0.059 -0.21076,0.17696 l -0.9696,1.96097 -2.16427,0.31499 c -0.16036,0.0258 -0.24111,0.0916 -0.24111,0.19816 0,0.0601 0.0361,0.12885 0.10824,0.20674 l 1.56866,1.52513 -0.37112,2.15511 c -0.006,0.0401 -0.008,0.0693 -0.008,0.0865 0,0.0601 0.0149,0.1111 0.0447,0.15291 0.0309,0.0418 0.0756,0.0624 0.1363,0.0624 0.0515,0 0.10882,-0.0172 0.17182,-0.0515 l 1.93519,-1.0177 1.93519,1.0177 c 0.0601,0.0344 0.11797,0.0515 0.17238,0.0515 0.0578,0 0.10137,-0.0206 0.13115,-0.0624 0.0303,-0.0418 0.0453,-0.0928 0.0453,-0.15291 0,-0.0378 -10e-4,-0.0659 -0.004,-0.0865 l -0.37055,-2.15511 1.56408,-1.52513 c 0.075,-0.0744 0.11224,-0.14375 0.11224,-0.20674 z"
         fill="#eff9fe"
         fill-opacity="0.8"
         fill-rule="nonzero"
         id="path364"
         style="display:inline;enable-background:new;stroke-width:0.57271" />
      <path
         d="m 325.53403,199.52658 -0.005,-4.61581 5.17681,-0.77169 v 5.3875 z m 6.03501,-5.52443 6.90063,-1.10234 v 6.62677 h -6.90063 z m 6.90169,6.47127 -10e-4,6.62677 -6.90063,-1.06518 v -5.56159 z m -7.76467,5.44058 -5.17256,-0.77806 -5e-4,-4.66252 h 5.17309 z"
         fill="#eff9fe"
         fill-opacity="0.75"
         fill-rule="nonzero"
         id="path374"
         style="display:inline;enable-background:new;stroke-width:0.530735" />
      <path
         d="m 342.99999,204.43623 c 0,-0.38068 -0.15104,-0.74644 -0.42063,-1.01559 C 342.3102,203.15105 341.94445,203 341.56377,203 h -5.12711 c -0.38112,0 -0.74644,0.15105 -1.01603,0.42064 -0.2696,0.26915 -0.42064,0.63491 -0.42064,1.01559 v 5.12711 c 0,0.38112 0.15104,0.74643 0.42064,1.01603 0.26959,0.26959 0.63491,0.42063 1.01603,0.42063 h 5.12711 c 0.38068,0 0.74643,-0.15104 1.01559,-0.42063 0.26959,-0.2696 0.42063,-0.63491 0.42063,-1.01603 z"
         fill="url(#b)"
         id="path376"
         style="display:inline;enable-background:new;fill:url(#linearGradient384);stroke-width:0.439078" />
      <path
         d="m 341.74906,206.41032 c 0,-0.0817 -0.0615,-0.13216 -0.18485,-0.15192 l -1.65884,-0.24149 -0.74336,-1.50341 c -0.0417,-0.0905 -0.0962,-0.13567 -0.16202,-0.13567 -0.0659,0 -0.11987,0.0453 -0.16158,0.13567 l -0.74336,1.50341 -1.65927,0.24149 c -0.12294,0.0198 -0.18485,0.0703 -0.18485,0.15192 0,0.0461 0.0276,0.0988 0.083,0.15851 l 1.20264,1.16926 -0.28453,1.65225 c -0.005,0.0307 -0.006,0.0531 -0.006,0.0663 0,0.0461 0.0114,0.0852 0.0342,0.11724 0.0237,0.032 0.058,0.0479 0.1045,0.0479 0.0395,0 0.0834,-0.0132 0.13173,-0.0395 l 1.48364,-0.78024 1.48365,0.78024 c 0.0461,0.0263 0.0905,0.0395 0.13216,0.0395 0.0444,0 0.0777,-0.0158 0.10055,-0.0479 0.0233,-0.032 0.0347,-0.0711 0.0347,-0.11724 0,-0.029 -10e-4,-0.0505 -0.003,-0.0663 l -0.28409,-1.65225 1.19913,-1.16926 c 0.0575,-0.0571 0.0861,-0.11021 0.0861,-0.15851 z"
         fill="#eff9fe"
         fill-opacity="0.8"
         fill-rule="nonzero"
         id="path378"
         style="display:inline;enable-background:new;stroke-width:0.439078" />
      <path
         d="m 323.78306,243.69125 -0.003,-3.01031 3.37618,-0.50328 v 3.51359 z m 3.93588,-3.60289 4.50041,-0.71892 v 4.32181 h -4.50041 z m 4.5011,4.22039 -6.5e-4,4.32182 -4.50041,-0.69469 v -3.62713 z m -5.06392,3.54821 -3.3734,-0.50743 -3.3e-4,-3.04078 h 3.37376 z"
         fill="#eff9fe"
         fill-opacity="0.75"
         fill-rule="nonzero"
         id="path388"
         style="display:inline;enable-background:new;stroke-width:0.346132" />
      <path
         d="m 335.17391,246.89319 c 0,-0.24826 -0.0985,-0.4868 -0.27433,-0.66234 -0.17554,-0.17582 -0.41407,-0.27432 -0.66234,-0.27432 h -3.34377 c -0.24856,0 -0.4868,0.0985 -0.66263,0.27432 -0.17582,0.17554 -0.27432,0.41408 -0.27432,0.66234 v 3.34377 c 0,0.24856 0.0985,0.48681 0.27432,0.66263 0.17583,0.17582 0.41407,0.27433 0.66263,0.27433 h 3.34377 c 0.24827,0 0.4868,-0.0985 0.66234,-0.27433 0.17582,-0.17582 0.27433,-0.41407 0.27433,-0.66263 z"
         fill="url(#b)"
         id="path390"
         style="display:inline;enable-background:new;fill:url(#linearGradient398);stroke-width:0.286355" />
      <path
         d="m 334.35808,248.18065 c 0,-0.0533 -0.0401,-0.0862 -0.12055,-0.0991 l -1.08185,-0.1575 -0.4848,-0.98048 c -0.0272,-0.059 -0.0627,-0.0885 -0.10567,-0.0885 -0.0429,0 -0.0782,0.0295 -0.10538,0.0885 l -0.4848,0.98048 -1.08213,0.1575 c -0.0802,0.0129 -0.12056,0.0458 -0.12056,0.0991 0,0.0301 0.018,0.0644 0.0541,0.10337 l 0.78433,0.76256 -0.18556,1.07756 c -0.003,0.02 -0.004,0.0346 -0.004,0.0432 0,0.0301 0.007,0.0555 0.0223,0.0765 0.0154,0.0209 0.0378,0.0312 0.0682,0.0312 0.0258,0 0.0544,-0.009 0.0859,-0.0258 l 0.96759,-0.50885 0.9676,0.50885 c 0.0301,0.0172 0.059,0.0258 0.0862,0.0258 0.0289,0 0.0507,-0.0103 0.0656,-0.0312 0.0152,-0.0209 0.0226,-0.0464 0.0226,-0.0765 0,-0.0189 -6.5e-4,-0.0329 -0.002,-0.0432 l -0.18528,-1.07756 0.78204,-0.76256 c 0.0375,-0.0372 0.0561,-0.0719 0.0561,-0.10337 z"
         fill="#eff9fe"
         fill-opacity="0.8"
         fill-rule="nonzero"
         id="path392"
         style="display:inline;enable-background:new;stroke-width:0.286355" />
    </g>
  </g>
</svg>
