<?xml version="1.0" encoding="UTF-8" standalone="no"?>
<svg
   inkscape:export-ydpi="90.000000"
   inkscape:export-xdpi="90.000000"
   width="400"
   height="300"
   id="svg11300"
   sodipodi:version="0.32"
   inkscape:version="1.2.2 (b0a8486541, 2022-12-01)"
   sodipodi:docname="workspace-switcher-left-bottom.svg"
   inkscape:output_extension="org.inkscape.output.svg.inkscape"
   version="1.0"
   style="display:inline;enable-background:new"
   inkscape:export-filename="/home/sam/suru-template.png"
   xmlns:inkscape="http://www.inkscape.org/namespaces/inkscape"
   xmlns:sodipodi="http://sodipodi.sourceforge.net/DTD/sodipodi-0.dtd"
   xmlns:xlink="http://www.w3.org/1999/xlink"
   xmlns="http://www.w3.org/2000/svg"
   xmlns:svg="http://www.w3.org/2000/svg"
   xmlns:rdf="http://www.w3.org/1999/02/22-rdf-syntax-ns#"
   xmlns:cc="http://creativecommons.org/ns#"
   xmlns:dc="http://purl.org/dc/elements/1.1/">
  <title
     id="title3004">Suru Icon Theme Template</title>
  <sodipodi:namedview
     stroke="#ef2929"
     fill="#f57900"
     id="base"
     pagecolor="#ffffff"
     bordercolor="#000000"
     borderopacity="0.25490196"
     inkscape:pageopacity="0"
     inkscape:pageshadow="2"
     inkscape:zoom="2.8284271"
     inkscape:cx="303.34881"
     inkscape:cy="149.55308"
     inkscape:current-layer="layer6"
     showgrid="false"
     inkscape:grid-bbox="true"
     inkscape:document-units="px"
     inkscape:showpageshadow="false"
     inkscape:window-width="1920"
     inkscape:window-height="1020"
     inkscape:window-x="0"
     inkscape:window-y="32"
     width="400px"
     height="300px"
     inkscape:snap-nodes="true"
     inkscape:snap-bbox="true"
     gridtolerance="10000"
     inkscape:object-nodes="true"
     inkscape:snap-grids="true"
     showguides="true"
     inkscape:guide-bbox="true"
     inkscape:window-maximized="1"
     inkscape:bbox-paths="true"
     inkscape:snap-bbox-midpoints="true"
     inkscape:snap-global="true"
     inkscape:object-paths="true"
     inkscape:snap-intersection-paths="true"
     inkscape:snap-smooth-nodes="true"
     inkscape:pagecheckerboard="false"
     showborder="false"
     inkscape:document-rotation="0"
     inkscape:deskcolor="#d1d1d1">
    <inkscape:grid
       spacingy="1"
       spacingx="1"
       id="grid5883"
       type="xygrid"
       enabled="true"
       visible="true"
       empspacing="4"
       snapvisiblegridlinesonly="true"
       originx="0"
       originy="0" />
    <inkscape:grid
       type="xygrid"
       id="grid11592"
       empspacing="2"
       visible="true"
       enabled="false"
       spacingx="0.5"
       spacingy="0.5"
       color="#ff0000"
       opacity="0.1254902"
       empcolor="#ff0000"
       empopacity="0.25098039"
       snapvisiblegridlinesonly="true"
       originx="0"
       originy="0" />
  </sodipodi:namedview>
  <defs
     id="defs3">
    <linearGradient
       id="a"
       x2="1"
       gradientTransform="matrix(0,-174.1262,174.1262,0,3988.1706,241.02965)"
       gradientUnits="userSpaceOnUse">
      <stop
         stop-color="#006783"
         offset="0"
         id="stop22" />
      <stop
         stop-color="#20ccff"
         offset="1"
         id="stop24" />
    </linearGradient>
    <linearGradient
       inkscape:collect="always"
       xlink:href="#a"
       id="linearGradient598"
       gradientUnits="userSpaceOnUse"
       gradientTransform="matrix(0,-35.758058,35.758058,0,1131.785,101.46145)"
       x2="1" />
    <linearGradient
       inkscape:collect="always"
       xlink:href="#a"
       id="linearGradient606"
       gradientUnits="userSpaceOnUse"
       gradientTransform="matrix(0,-23.320473,23.320473,0,849.77285,159.3879)"
       x2="1" />
    <linearGradient
       inkscape:collect="always"
       xlink:href="#a"
       id="linearGradient614"
       gradientUnits="userSpaceOnUse"
       gradientTransform="matrix(0,-17.879029,17.879029,0,725.89251,208.73072)"
       x2="1" />
    <linearGradient
       inkscape:collect="always"
       xlink:href="#a"
       id="linearGradient622"
       gradientUnits="userSpaceOnUse"
       gradientTransform="matrix(0,-11.660237,11.660237,0,584.88644,249.69395)"
       x2="1" />
    <linearGradient
       inkscape:collect="always"
       xlink:href="#a"
       id="linearGradient630"
       gradientUnits="userSpaceOnUse"
       gradientTransform="matrix(0,-174.1262,174.1262,0,3988.1706,241.02965)"
       x2="1" />
  </defs>
  <metadata
     id="metadata4">
    <rdf:RDF>
      <cc:Work
         rdf:about="">
        <dc:format>image/svg+xml</dc:format>
        <dc:type
           rdf:resource="http://purl.org/dc/dcmitype/StillImage" />
        <dc:creator>
          <cc:Agent>
            <dc:title>Sam Hewitt</dc:title>
          </cc:Agent>
        </dc:creator>
        <dc:source />
        <cc:license
           rdf:resource="http://creativecommons.org/licenses/by-sa/4.0/" />
        <dc:title>Suru Icon Theme Template</dc:title>
        <dc:subject>
          <rdf:Bag />
        </dc:subject>
        <dc:date />
        <dc:rights>
          <cc:Agent>
            <dc:title />
          </cc:Agent>
        </dc:rights>
        <dc:publisher>
          <cc:Agent>
            <dc:title />
          </cc:Agent>
        </dc:publisher>
        <dc:identifier />
        <dc:relation />
        <dc:language />
        <dc:coverage />
        <dc:description />
        <dc:contributor>
          <cc:Agent>
            <dc:title />
          </cc:Agent>
        </dc:contributor>
      </cc:Work>
      <cc:Work
         rdf:about="">
        <dc:format>image/svg+xml</dc:format>
        <dc:type
           rdf:resource="http://purl.org/dc/dcmitype/StillImage" />
      </cc:Work>
      <cc:License
         rdf:about="http://creativecommons.org/licenses/by-sa/4.0/">
        <cc:permits
           rdf:resource="http://creativecommons.org/ns#Reproduction" />
        <cc:permits
           rdf:resource="http://creativecommons.org/ns#Distribution" />
        <cc:requires
           rdf:resource="http://creativecommons.org/ns#Notice" />
        <cc:requires
           rdf:resource="http://creativecommons.org/ns#Attribution" />
        <cc:permits
           rdf:resource="http://creativecommons.org/ns#DerivativeWorks" />
        <cc:requires
           rdf:resource="http://creativecommons.org/ns#ShareAlike" />
      </cc:License>
    </rdf:RDF>
  </metadata>
  <g
     style="display:inline"
     inkscape:groupmode="layer"
     inkscape:label="Icon"
     id="layer1">
    <g
       style="display:none"
       inkscape:label="Baseplate"
       id="layer7"
       inkscape:groupmode="layer">
      <text
         y="-8.2548828"
         xml:space="preserve"
         x="19.006836"
         style="font-style:normal;font-variant:normal;font-weight:normal;font-stretch:normal;line-height:0%;font-family:'DejaVu Sans';-inkscape-font-specification:'DejaVu Sans';display:inline;fill:#000000;fill-opacity:1;stroke:none;enable-background:new"
         inkscape:label="context"
         id="context"><tspan
           style="font-style:normal;font-variant:normal;font-weight:normal;font-stretch:normal;font-size:18px;line-height:1.25;font-family:'DejaVu Sans';-inkscape-font-specification:'DejaVu Sans'"
           y="-8.2548828"
           x="19.006836"
           sodipodi:role="line"
           id="tspan3933">apps</tspan></text>
      <text
         y="-8.2548828"
         xml:space="preserve"
         x="146.48828"
         style="font-style:normal;font-variant:normal;font-weight:bold;font-stretch:normal;line-height:0%;font-family:'DejaVu Sans';-inkscape-font-specification:'DejaVu Sans Bold';text-align:start;writing-mode:lr-tb;text-anchor:start;display:inline;fill:#000000;fill-opacity:1;stroke:none;enable-background:new"
         inkscape:label="icon-name"
         id="icon-name"><tspan
           style="font-style:normal;font-variant:normal;font-weight:bold;font-stretch:normal;font-size:18px;line-height:1.25;font-family:'DejaVu Sans';-inkscape-font-specification:'DejaVu Sans Bold'"
           y="-8.2548828"
           x="146.48828"
           sodipodi:role="line"
           id="tspan924">workspace-switcher-left-bottom</tspan></text>
      <rect
         style="display:inline;overflow:visible;visibility:visible;fill:#cdcdcd;fill-opacity:1;fill-rule:nonzero;stroke:none;stroke-width:2;marker:none;enable-background:accumulate"
         id="rect16x16"
         width="16"
         height="16"
         x="320"
         y="236"
         inkscape:label="16x16" />
      <rect
         style="display:inline;overflow:visible;visibility:visible;fill:#cdcdcd;fill-opacity:1;fill-rule:nonzero;stroke:none;stroke-width:2;marker:none;enable-background:accumulate"
         id="rect24x24"
         width="24"
         height="24"
         x="320"
         y="188"
         inkscape:label="24x24" />
      <rect
         style="display:inline;overflow:visible;visibility:visible;fill:#cdcdcd;fill-opacity:1;fill-rule:nonzero;stroke:none;stroke-width:2;marker:none;enable-background:accumulate"
         id="rect32x32"
         width="32"
         height="32"
         x="320"
         y="132"
         inkscape:label="32x32" />
      <rect
         inkscape:label="48x48"
         y="60"
         x="320"
         height="48"
         width="48"
         id="rect48x48"
         style="display:inline;overflow:visible;visibility:visible;fill:#cdcdcd;fill-opacity:1;fill-rule:nonzero;stroke:none;stroke-width:2;marker:none;enable-background:accumulate" />
      <rect
         style="display:inline;overflow:visible;visibility:visible;fill:#cdcdcd;fill-opacity:1;fill-rule:nonzero;stroke:none;stroke-width:2;marker:none;enable-background:accumulate"
         id="rect256x256"
         width="256"
         height="256"
         x="24"
         y="28"
         inkscape:label="256x256" />
    </g>
    <g
       inkscape:groupmode="layer"
       id="layer2"
       inkscape:label="Background"
       style="display:inline">
      <path
         d="M 231.80801,268 H 72.19199 C 54.42127,268 40,253.57873 40,235.80801 V 76.19199 C 40,58.42127 54.42127,44 72.19199,44 H 231.80801 C 249.57873,44 264,58.42127 264,76.19199 V 235.80801 C 264,253.57873 249.57873,268 231.80801,268 Z"
         fill="url(#a)"
         id="path27"
         style="display:inline;fill:url(#linearGradient630);stroke-width:5.16891;enable-background:new" />
      <path
         d="M 360.38914,107 H 327.61085 C 323.96151,107 321,104.03849 321,100.38914 V 67.610855 C 321,63.961511 323.96151,61 327.61085,61 h 32.77829 c 3.64934,0 6.61085,2.961511 6.61085,6.610855 v 32.778285 c 0,3.64935 -2.96151,6.61086 -6.61085,6.61086 z"
         fill="url(#a)"
         id="path592"
         style="display:inline;fill:url(#linearGradient598);stroke-width:1.06147;enable-background:new" />
      <path
         d="M 346.68858,163 H 325.31143 C 322.93142,163 321,161.06858 321,158.68857 v -21.37715 c 0,-2.38 1.93142,-4.31142 4.31143,-4.31142 h 21.37715 c 2.38,0 4.31142,1.93142 4.31142,4.31142 v 21.37715 C 351,161.06858 349.06858,163 346.68858,163 Z"
         fill="url(#a)"
         id="path600"
         style="display:inline;fill:url(#linearGradient606);stroke-width:0.692265;enable-background:new" />
      <path
         d="m 340.19457,211.5 h -16.38914 c -1.82467,0 -3.30543,-1.48076 -3.30543,-3.30543 v -16.38915 c 0,-1.82467 1.48076,-3.30542 3.30543,-3.30542 h 16.38914 c 1.82468,0 3.30543,1.48075 3.30543,3.30542 v 16.38915 c 0,1.82467 -1.48075,3.30543 -3.30543,3.30543 z"
         fill="url(#a)"
         id="path608"
         style="display:inline;fill:url(#linearGradient614);stroke-width:0.530736;enable-background:new" />
      <path
         d="m 333.34429,251.5 h -10.68857 c -1.19001,0 -2.15572,-0.96571 -2.15572,-2.15571 v -10.68858 c 0,-1.19 0.96571,-2.15571 2.15572,-2.15571 h 10.68857 c 1.19,0 2.15571,0.96571 2.15571,2.15571 v 10.68858 c 0,1.19 -0.96571,2.15571 -2.15571,2.15571 z"
         fill="url(#a)"
         id="path616"
         style="display:inline;fill:url(#linearGradient622);stroke-width:0.346132;enable-background:new" />
    </g>
    <g
       inkscape:groupmode="layer"
       id="layer6"
       inkscape:label="Pictogram"
       style="display:inline">
      <path
         id="path29-3"
         d="m 102.78864,177.8952 -17.91958,0.1008 0.0207,5.01746 -9.65134,0.0413 c -9.30404,0.062 -16.8307,7.64638 -16.76868,16.95042 l 0.20211,33.6888 c 0.0569,9.30404 7.62621,16.82057 16.9302,16.75855 l 37.25251,-0.20211 c 9.30404,-0.062 16.81055,-7.65645 16.74852,-16.96049 l -0.19177,-33.69889 c -0.0413,-9.28336 -7.64637,-16.78444 -16.95041,-16.75859 l -9.6715,0.0605 z m 7.04668,19.7469 c 4.82259,-0.0103 8.77232,3.86423 8.80333,8.70233 0.0362,4.83811 -3.86428,8.77232 -8.70238,8.80333 -4.8381,0.031 -8.77227,-3.86427 -8.80328,-8.70238 -0.0155,-4.82259 3.86423,-8.76709 8.70233,-8.80328 z m -29.84241,0.19177 c 4.8226,-0.0517 8.76761,3.86966 8.78312,8.69225 0.0517,4.8226 -3.85957,8.76761 -8.68217,8.78312 -4.81737,0.0465 -8.76756,-3.86474 -8.78307,-8.68217 -0.0517,-4.8226 3.86469,-8.77769 8.68212,-8.7932 z"
         style="display:inline;enable-background:new;fill:#ffffff;stroke-width:5.16891" />
      <path
         id="path594"
         d="m 333.89409,88.496335 -3.67991,0.0207 0.004,1.030372 -1.98197,0.0085 c -1.91065,0.01273 -3.45631,1.570239 -3.44357,3.48089 l 0.0415,6.918235 c 0.0117,1.910648 1.5661,3.454228 3.47674,3.441488 l 7.65007,-0.0415 c 1.91065,-0.0127 3.45217,-1.57231 3.43943,-3.482962 l -0.0394,-6.920308 c -0.008,-1.906404 -1.57024,-3.446804 -3.48089,-3.441496 l -1.98611,0.01242 z m 1.44709,4.055167 c 0.99035,-0.0021 1.80146,0.793548 1.80782,1.787086 0.007,0.99354 -0.79355,1.801459 -1.78709,1.807827 -0.99354,0.0064 -1.80145,-0.793556 -1.80782,-1.787096 -0.003,-0.990353 0.79355,-1.800385 1.78709,-1.807817 z m -6.12835,0.03938 c 0.99035,-0.01062 1.80049,0.794662 1.80367,1.785015 0.0106,0.990356 -0.79259,1.800492 -1.78294,1.803677 -0.98929,0.0095 -1.80049,-0.793652 -1.80367,-1.782946 -0.0106,-0.990355 0.79364,-1.802561 1.78294,-1.805746 z"
         style="display:inline;enable-background:new;fill:#ffffff;stroke-width:1.06147" />
      <path
         id="path602"
         d="m 329.4092,150.93239 -2.39995,0.0135 0.003,0.67198 -1.29259,0.006 c -1.24607,0.008 -2.25411,1.02407 -2.2458,2.27015 l 0.0271,4.51189 c 0.008,1.24608 1.02136,2.25276 2.26743,2.24445 l 4.98918,-0.0271 c 1.24608,-0.008 2.25141,-1.02542 2.24311,-2.27149 l -0.0257,-4.51325 c -0.006,-1.2433 -1.02407,-2.24791 -2.27014,-2.24445 l -1.29529,0.008 z m 0.94375,2.64467 c 0.64588,-10e-4 1.17486,0.51753 1.17901,1.16549 0.005,0.64797 -0.51753,1.17487 -1.16549,1.17902 -0.64796,0.004 -1.17486,-0.51753 -1.17901,-1.1655 -0.002,-0.64588 0.51753,-1.17416 1.16549,-1.17901 z m -3.99675,0.0257 c 0.64588,-0.007 1.17423,0.51826 1.17631,1.16414 0.007,0.64588 -0.51691,1.17423 -1.16279,1.17631 -0.64519,0.006 -1.17423,-0.5176 -1.17631,-1.16279 -0.007,-0.64589 0.51759,-1.17559 1.16279,-1.17766 z"
         style="display:inline;enable-background:new;fill:#ffffff;stroke-width:0.692265" />
      <path
         id="path610"
         d="m 326.94705,202.24816 -1.83996,0.0103 0.002,0.51519 -0.99099,0.004 c -0.95532,0.006 -1.72815,0.78512 -1.72178,1.74045 l 0.0207,3.45911 c 0.006,0.95533 0.78305,1.72712 1.73837,1.72075 l 3.82503,-0.0207 c 0.95533,-0.006 1.72609,-0.78616 1.71972,-1.74148 l -0.0197,-3.46016 c -0.004,-0.9532 -0.78512,-1.7234 -1.74045,-1.72075 l -0.99305,0.006 z m 0.72354,2.02759 c 0.49518,-10e-4 0.90073,0.39677 0.90392,0.89354 0.004,0.49677 -0.39678,0.90073 -0.89355,0.90391 -0.49677,0.003 -0.90073,-0.39677 -0.90391,-0.89354 -0.002,-0.49518 0.39677,-0.9002 0.89354,-0.90391 z m -3.06417,0.0197 c 0.49518,-0.005 0.90024,0.39733 0.90184,0.89251 0.005,0.49517 -0.3963,0.90024 -0.89148,0.90183 -0.49464,0.005 -0.90024,-0.39682 -0.90183,-0.89147 -0.005,-0.49518 0.39682,-0.90128 0.89147,-0.90287 z"
         style="display:inline;enable-background:new;fill:#ffffff;stroke-width:0.530736" />
      <path
         id="path618"
         d="m 324.7046,245.4662 -1.19997,0.007 10e-4,0.33599 -0.64629,0.003 c -0.62304,0.004 -1.12706,0.51204 -1.12291,1.13507 l 0.0135,2.25595 c 0.004,0.62304 0.51068,1.12638 1.13372,1.12223 l 2.49459,-0.0135 c 0.62303,-0.004 1.1257,-0.51271 1.12155,-1.13575 l -0.0128,-2.25662 c -0.003,-0.62165 -0.51204,-1.12396 -1.13508,-1.12222 l -0.64764,0.004 z m 0.47187,1.32233 c 0.32295,-6.9e-4 0.58744,0.25877 0.58951,0.58275 0.002,0.32398 -0.25877,0.58743 -0.58275,0.58951 -0.32398,0.002 -0.58742,-0.25877 -0.5895,-0.58275 -10e-4,-0.32294 0.25876,-0.58708 0.58274,-0.58951 z m -1.99837,0.0128 c 0.32294,-0.003 0.58712,0.25913 0.58815,0.58207 0.003,0.32295 -0.25845,0.58712 -0.58139,0.58816 -0.32259,0.003 -0.58711,-0.2588 -0.58815,-0.58139 -0.003,-0.32295 0.25879,-0.5878 0.58139,-0.58884 z"
         style="display:inline;enable-background:new;fill:#ffffff;stroke-width:0.346132" />
    </g>
  </g>
</svg>
