<?xml version="1.0" encoding="UTF-8" standalone="no"?>
<svg
   inkscape:export-ydpi="90.000000"
   inkscape:export-xdpi="90.000000"
   width="400"
   height="300"
   id="svg11300"
   sodipodi:version="0.32"
   inkscape:version="1.2.2 (b0a8486541, 2022-12-01)"
   sodipodi:docname="workspace-switcher-left-top.svg"
   inkscape:output_extension="org.inkscape.output.svg.inkscape"
   version="1.0"
   style="display:inline;enable-background:new"
   inkscape:export-filename="/home/sam/suru-template.png"
   xmlns:inkscape="http://www.inkscape.org/namespaces/inkscape"
   xmlns:sodipodi="http://sodipodi.sourceforge.net/DTD/sodipodi-0.dtd"
   xmlns:xlink="http://www.w3.org/1999/xlink"
   xmlns="http://www.w3.org/2000/svg"
   xmlns:svg="http://www.w3.org/2000/svg"
   xmlns:rdf="http://www.w3.org/1999/02/22-rdf-syntax-ns#"
   xmlns:cc="http://creativecommons.org/ns#"
   xmlns:dc="http://purl.org/dc/elements/1.1/">
  <title
     id="title3004">Suru Icon Theme Template</title>
  <sodipodi:namedview
     stroke="#ef2929"
     fill="#f57900"
     id="base"
     pagecolor="#ffffff"
     bordercolor="#000000"
     borderopacity="0.25490196"
     inkscape:pageopacity="0"
     inkscape:pageshadow="2"
     inkscape:zoom="2"
     inkscape:cx="257"
     inkscape:cy="188.5"
     inkscape:current-layer="layer6"
     showgrid="false"
     inkscape:grid-bbox="true"
     inkscape:document-units="px"
     inkscape:showpageshadow="false"
     inkscape:window-width="1920"
     inkscape:window-height="1020"
     inkscape:window-x="0"
     inkscape:window-y="32"
     width="400px"
     height="300px"
     inkscape:snap-nodes="true"
     inkscape:snap-bbox="true"
     gridtolerance="10000"
     inkscape:object-nodes="true"
     inkscape:snap-grids="true"
     showguides="true"
     inkscape:guide-bbox="true"
     inkscape:window-maximized="1"
     inkscape:bbox-paths="true"
     inkscape:snap-bbox-midpoints="true"
     inkscape:snap-global="true"
     inkscape:object-paths="true"
     inkscape:snap-intersection-paths="true"
     inkscape:snap-smooth-nodes="true"
     inkscape:pagecheckerboard="false"
     showborder="false"
     inkscape:document-rotation="0"
     inkscape:deskcolor="#d1d1d1">
    <inkscape:grid
       spacingy="1"
       spacingx="1"
       id="grid5883"
       type="xygrid"
       enabled="true"
       visible="true"
       empspacing="4"
       snapvisiblegridlinesonly="true"
       originx="0"
       originy="0" />
    <inkscape:grid
       type="xygrid"
       id="grid11592"
       empspacing="2"
       visible="true"
       enabled="false"
       spacingx="0.5"
       spacingy="0.5"
       color="#ff0000"
       opacity="0.1254902"
       empcolor="#ff0000"
       empopacity="0.25098039"
       snapvisiblegridlinesonly="true"
       originx="0"
       originy="0" />
  </sodipodi:namedview>
  <defs
     id="defs3">
    <linearGradient
       id="a"
       x2="1"
       gradientTransform="matrix(0,-33.6872,33.6872,0,616.83586,108.45575)"
       gradientUnits="userSpaceOnUse">
      <stop
         stop-color="#006783"
         offset="0"
         id="stop22" />
      <stop
         stop-color="#20ccff"
         offset="1"
         id="stop24" />
    </linearGradient>
    <linearGradient
       inkscape:collect="always"
       xlink:href="#a"
       id="linearGradient396"
       gradientUnits="userSpaceOnUse"
       gradientTransform="matrix(0,-35.75806,35.75806,0,1131.7851,101.46144)"
       x2="1" />
    <linearGradient
       inkscape:collect="always"
       xlink:href="#a"
       id="linearGradient404"
       gradientUnits="userSpaceOnUse"
       gradientTransform="matrix(0,-23.320475,23.320475,0,849.7729,159.3879)"
       x2="1" />
    <linearGradient
       inkscape:collect="always"
       xlink:href="#a"
       id="linearGradient412"
       gradientUnits="userSpaceOnUse"
       gradientTransform="matrix(0,-17.879031,17.879031,0,725.89255,208.73072)"
       x2="1" />
    <linearGradient
       inkscape:collect="always"
       xlink:href="#a"
       id="linearGradient420"
       gradientUnits="userSpaceOnUse"
       gradientTransform="matrix(0,-11.660237,11.660237,0,584.88645,249.69395)"
       x2="1" />
    <linearGradient
       inkscape:collect="always"
       xlink:href="#a"
       id="linearGradient424"
       gradientUnits="userSpaceOnUse"
       gradientTransform="matrix(0,-174.12621,174.12621,0,3988.171,241.02965)"
       x2="1" />
  </defs>
  <metadata
     id="metadata4">
    <rdf:RDF>
      <cc:Work
         rdf:about="">
        <dc:format>image/svg+xml</dc:format>
        <dc:type
           rdf:resource="http://purl.org/dc/dcmitype/StillImage" />
        <dc:creator>
          <cc:Agent>
            <dc:title>Sam Hewitt</dc:title>
          </cc:Agent>
        </dc:creator>
        <dc:source />
        <cc:license
           rdf:resource="http://creativecommons.org/licenses/by-sa/4.0/" />
        <dc:title>Suru Icon Theme Template</dc:title>
        <dc:subject>
          <rdf:Bag />
        </dc:subject>
        <dc:date />
        <dc:rights>
          <cc:Agent>
            <dc:title />
          </cc:Agent>
        </dc:rights>
        <dc:publisher>
          <cc:Agent>
            <dc:title />
          </cc:Agent>
        </dc:publisher>
        <dc:identifier />
        <dc:relation />
        <dc:language />
        <dc:coverage />
        <dc:description />
        <dc:contributor>
          <cc:Agent>
            <dc:title />
          </cc:Agent>
        </dc:contributor>
      </cc:Work>
      <cc:Work
         rdf:about="">
        <dc:format>image/svg+xml</dc:format>
        <dc:type
           rdf:resource="http://purl.org/dc/dcmitype/StillImage" />
      </cc:Work>
      <cc:License
         rdf:about="http://creativecommons.org/licenses/by-sa/4.0/">
        <cc:permits
           rdf:resource="http://creativecommons.org/ns#Reproduction" />
        <cc:permits
           rdf:resource="http://creativecommons.org/ns#Distribution" />
        <cc:requires
           rdf:resource="http://creativecommons.org/ns#Notice" />
        <cc:requires
           rdf:resource="http://creativecommons.org/ns#Attribution" />
        <cc:permits
           rdf:resource="http://creativecommons.org/ns#DerivativeWorks" />
        <cc:requires
           rdf:resource="http://creativecommons.org/ns#ShareAlike" />
      </cc:License>
    </rdf:RDF>
  </metadata>
  <g
     style="display:inline"
     inkscape:groupmode="layer"
     inkscape:label="Icon"
     id="layer1">
    <g
       style="display:none"
       inkscape:label="Baseplate"
       id="layer7"
       inkscape:groupmode="layer">
      <text
         y="-8.2548828"
         xml:space="preserve"
         x="19.006836"
         style="font-style:normal;font-variant:normal;font-weight:normal;font-stretch:normal;line-height:0%;font-family:'DejaVu Sans';-inkscape-font-specification:'DejaVu Sans';display:inline;fill:#000000;fill-opacity:1;stroke:none;enable-background:new"
         inkscape:label="context"
         id="context"><tspan
           style="font-style:normal;font-variant:normal;font-weight:normal;font-stretch:normal;font-size:18px;line-height:1.25;font-family:'DejaVu Sans';-inkscape-font-specification:'DejaVu Sans'"
           y="-8.2548828"
           x="19.006836"
           sodipodi:role="line"
           id="tspan3933">apps</tspan></text>
      <text
         y="-8.2548828"
         xml:space="preserve"
         x="146.48828"
         style="font-style:normal;font-variant:normal;font-weight:bold;font-stretch:normal;line-height:0%;font-family:'DejaVu Sans';-inkscape-font-specification:'DejaVu Sans Bold';text-align:start;writing-mode:lr-tb;text-anchor:start;display:inline;fill:#000000;fill-opacity:1;stroke:none;enable-background:new"
         inkscape:label="icon-name"
         id="icon-name"><tspan
           style="font-style:normal;font-variant:normal;font-weight:bold;font-stretch:normal;font-size:18px;line-height:1.25;font-family:'DejaVu Sans';-inkscape-font-specification:'DejaVu Sans Bold'"
           y="-8.2548828"
           x="146.48828"
           sodipodi:role="line"
           id="tspan924">workspace-switcher-left-top</tspan></text>
      <rect
         style="display:inline;overflow:visible;visibility:visible;fill:#cdcdcd;fill-opacity:1;fill-rule:nonzero;stroke:none;stroke-width:2;marker:none;enable-background:accumulate"
         id="rect16x16"
         width="16"
         height="16"
         x="320"
         y="236"
         inkscape:label="16x16" />
      <rect
         style="display:inline;overflow:visible;visibility:visible;fill:#cdcdcd;fill-opacity:1;fill-rule:nonzero;stroke:none;stroke-width:2;marker:none;enable-background:accumulate"
         id="rect24x24"
         width="24"
         height="24"
         x="320"
         y="188"
         inkscape:label="24x24" />
      <rect
         style="display:inline;overflow:visible;visibility:visible;fill:#cdcdcd;fill-opacity:1;fill-rule:nonzero;stroke:none;stroke-width:2;marker:none;enable-background:accumulate"
         id="rect32x32"
         width="32"
         height="32"
         x="320"
         y="132"
         inkscape:label="32x32" />
      <rect
         inkscape:label="48x48"
         y="60"
         x="320"
         height="48"
         width="48"
         id="rect48x48"
         style="display:inline;overflow:visible;visibility:visible;fill:#cdcdcd;fill-opacity:1;fill-rule:nonzero;stroke:none;stroke-width:2;marker:none;enable-background:accumulate" />
      <rect
         style="display:inline;overflow:visible;visibility:visible;fill:#cdcdcd;fill-opacity:1;fill-rule:nonzero;stroke:none;stroke-width:2;marker:none;enable-background:accumulate"
         id="rect256x256"
         width="256"
         height="256"
         x="24"
         y="28"
         inkscape:label="256x256" />
    </g>
    <g
       inkscape:groupmode="layer"
       id="layer2"
       inkscape:label="Background"
       style="display:inline">
      <path
         d="M 231.80802,268 H 72.191981 C 54.421257,268 39.999989,253.57874 39.999989,235.80801 V 76.191993 c 0,-17.770724 14.421268,-32.191992 32.191992,-32.191992 H 231.80802 c 17.77072,0 32.19199,14.421268 32.19199,32.191992 V 235.80801 C 264.00001,253.57874 249.57874,268 231.80802,268 Z"
         fill="url(#a)"
         id="path27"
         style="display:inline;fill:url(#linearGradient424);stroke-width:5.16891;enable-background:new" />
      <path
         d="m 360.38915,107 h -32.7783 C 323.96151,107 321,104.03849 321,100.38914 V 67.610856 c 0,-3.649345 2.96151,-6.610855 6.61085,-6.610855 h 32.7783 c 3.64934,0 6.61085,2.96151 6.61085,6.610855 V 100.38914 C 367,104.03849 364.03849,107 360.38915,107 Z"
         fill="url(#a)"
         id="path390"
         style="display:inline;fill:url(#linearGradient396);stroke-width:1.06147;enable-background:new" />
      <path
         d="M 346.68857,163 H 325.31143 C 322.93142,163 321,161.06858 321,158.68857 V 137.31143 C 321,134.93142 322.93142,133 325.31143,133 h 21.37714 c 2.38001,0 4.31143,1.93142 4.31143,4.31143 v 21.37714 C 351,161.06858 349.06858,163 346.68857,163 Z"
         fill="url(#a)"
         id="path398"
         style="display:inline;fill:url(#linearGradient404);stroke-width:0.692265;enable-background:new" />
      <path
         d="m 340.19457,211.5 h -16.38915 c -1.82467,0 -3.30542,-1.48076 -3.30542,-3.30543 v -16.38915 c 0,-1.82467 1.48075,-3.30542 3.30542,-3.30542 h 16.38915 c 1.82467,0 3.30543,1.48075 3.30543,3.30542 v 16.38915 c 0,1.82467 -1.48076,3.30543 -3.30543,3.30543 z"
         fill="url(#a)"
         id="path406"
         style="display:inline;fill:url(#linearGradient412);stroke-width:0.530737;enable-background:new" />
      <path
         d="m 333.34429,251.5 h -10.68858 c -1.19,0 -2.15571,-0.96571 -2.15571,-2.15571 v -10.68858 c 0,-1.19 0.96571,-2.15571 2.15571,-2.15571 h 10.68858 c 1.19,0 2.15571,0.96571 2.15571,2.15571 v 10.68858 c 0,1.19 -0.96571,2.15571 -2.15571,2.15571 z"
         fill="url(#a)"
         id="path414"
         style="display:inline;fill:url(#linearGradient420);stroke-width:0.346133;enable-background:new" />
    </g>
    <g
       inkscape:groupmode="layer"
       id="layer6"
       inkscape:label="Pictogram"
       style="display:inline">
      <path
         id="path362"
         style="display:inline;enable-background:new;fill:#ffffff;stroke-width:5.16891"
         d="m 100.62312,57.219337 -17.909506,0.100948 0.02067,5.017485 -9.661422,0.05066 c -9.304044,0.06203 -16.820626,7.631104 -16.758599,16.940306 l 0.191767,33.688794 c 0.05686,9.30403 7.636294,16.83071 16.940286,16.76868 l 37.252564,-0.21203 c 9.30399,-0.062 16.81049,-7.65646 16.74846,-16.96049 l -0.2021,-33.688796 c -0.0413,-9.288526 -7.6363,-16.799697 -16.94034,-16.768683 l -9.6715,0.06058 z m 7.05676,19.746866 c 4.82259,-0.01551 8.77232,3.864248 8.80333,8.702351 0.0362,4.838093 -3.86428,8.772297 -8.70238,8.8033 -4.83811,0.03618 -8.772269,-3.864253 -8.803283,-8.702346 -0.01551,-4.817417 3.864233,-8.772292 8.702333,-8.803305 z m -29.842412,0.201898 c 4.822596,-0.05169 8.767614,3.864744 8.783121,8.682161 0.05169,4.822586 -3.869656,8.767614 -8.692252,8.78311 -4.817427,0.05169 -8.757483,-3.869665 -8.772989,-8.692251 -0.05169,-4.817416 3.864744,-8.757514 8.68212,-8.77302 z" />
      <path
         id="path392"
         style="display:inline;enable-background:new;fill:#ffffff;stroke-width:1.06147"
         d="m 333.44939,63.714685 -3.67784,0.02073 0.004,1.030376 -1.98404,0.0104 c -1.91065,0.01274 -3.45423,1.567101 -3.4415,3.478812 l 0.0394,6.918235 c 0.0117,1.910649 1.56817,3.456306 3.47881,3.443569 l 7.65008,-0.04354 c 1.91064,-0.01274 3.45216,-1.572309 3.43942,-3.482959 l -0.0415,-6.918234 c -0.009,-1.907466 -1.56817,-3.449938 -3.47882,-3.443569 l -1.98611,0.01244 z m 1.44916,4.05516 c 0.99035,-0.0032 1.80146,0.793551 1.80782,1.78709 0.007,0.993537 -0.79355,1.801454 -1.78709,1.807821 -0.99354,0.0074 -1.80145,-0.793552 -1.80782,-1.787089 -0.003,-0.989291 0.79355,-1.801453 1.78709,-1.807822 z m -6.12835,0.04146 c 0.99035,-0.01061 1.80049,0.793653 1.80367,1.782944 0.0106,0.990353 -0.79466,1.800492 -1.78501,1.803675 -0.9893,0.01061 -1.79841,-0.794664 -1.8016,-1.785016 -0.0106,-0.989291 0.79365,-1.798418 1.78294,-1.801603 z" />
      <path
         id="path400"
         style="display:inline;enable-background:new;fill:#ffffff;stroke-width:0.692265"
         d="m 329.11917,134.77045 -2.3986,0.0135 0.003,0.67198 -1.29394,0.007 c -1.24608,0.008 -2.25276,1.02202 -2.24445,2.26879 l 0.0257,4.51189 c 0.008,1.24607 1.02272,2.25411 2.26879,2.2458 l 4.98918,-0.0284 c 1.24607,-0.008 2.25141,-1.02542 2.2431,-2.2715 l -0.0271,-4.51189 c -0.006,-1.244 -1.02272,-2.24996 -2.26879,-2.24581 l -1.29529,0.008 z m 0.9451,2.64467 c 0.64588,-0.002 1.17486,0.51753 1.17902,1.16549 0.005,0.64796 -0.51754,1.17486 -1.1655,1.17901 -0.64796,0.005 -1.17486,-0.51753 -1.17901,-1.16549 -0.002,-0.64519 0.51753,-1.17486 1.16549,-1.17901 z m -3.99675,0.027 c 0.64588,-0.007 1.17423,0.5176 1.17631,1.16279 0.007,0.64588 -0.51826,1.17423 -1.16414,1.17631 -0.64519,0.007 -1.17288,-0.51826 -1.17496,-1.16415 -0.007,-0.64519 0.5176,-1.17288 1.16279,-1.17495 z" />
      <path
         id="path408"
         style="display:inline;enable-background:new;fill:#ffffff;stroke-width:0.530737"
         d="m 326.72469,189.85734 -1.83892,0.0104 0.002,0.51519 -0.99202,0.005 c -0.95532,0.006 -1.72712,0.78355 -1.72075,1.73941 l 0.0197,3.45912 c 0.006,0.95532 0.78409,1.72815 1.73941,1.72178 l 3.82504,-0.0218 c 0.95532,-0.006 1.72608,-0.78615 1.71971,-1.74148 l -0.0208,-3.45912 c -0.004,-0.95373 -0.78409,-1.72497 -1.73941,-1.72178 l -0.99306,0.006 z m 0.72458,2.02758 c 0.49518,-0.002 0.90073,0.39677 0.90391,0.89354 0.004,0.49677 -0.39677,0.90073 -0.89354,0.90391 -0.49677,0.004 -0.90073,-0.39677 -0.90391,-0.89354 -0.002,-0.49465 0.39677,-0.90073 0.89354,-0.90391 z m -3.06417,0.0207 c 0.49517,-0.005 0.90024,0.39683 0.90183,0.89147 0.005,0.49518 -0.39733,0.90025 -0.8925,0.90184 -0.49465,0.005 -0.89921,-0.39733 -0.9008,-0.89251 -0.005,-0.49465 0.39682,-0.89921 0.89147,-0.9008 z" />
      <path
         id="path416"
         style="display:inline;enable-background:new;fill:#ffffff;stroke-width:0.346133"
         d="m 324.55958,237.38522 -1.19929,0.007 10e-4,0.33599 -0.64697,0.003 c -0.62304,0.004 -1.12638,0.51101 -1.12223,1.13439 l 0.0128,2.25595 c 0.004,0.62304 0.51136,1.12705 1.1344,1.1229 l 2.49459,-0.0142 c 0.62304,-0.004 1.1257,-0.51271 1.12155,-1.13574 l -0.0135,-2.25595 c -0.003,-0.622 -0.51136,-1.12498 -1.1344,-1.1229 l -0.64765,0.004 z m 0.47255,1.32234 c 0.32295,-0.001 0.58744,0.25876 0.58951,0.58274 0.002,0.32398 -0.25877,0.58743 -0.58275,0.58951 -0.32398,0.002 -0.58742,-0.25877 -0.5895,-0.58275 -10e-4,-0.32259 0.25876,-0.58743 0.58274,-0.5895 z m -1.99837,0.0135 c 0.32294,-0.003 0.58712,0.2588 0.58815,0.58139 0.003,0.32294 -0.25912,0.58712 -0.58207,0.58816 -0.32259,0.003 -0.58643,-0.25913 -0.58747,-0.58207 -0.003,-0.3226 0.2588,-0.58644 0.58139,-0.58748 z" />
    </g>
  </g>
</svg>
