<?xml version="1.0" encoding="UTF-8" standalone="no"?>
<svg
   inkscape:export-ydpi="90.000000"
   inkscape:export-xdpi="90.000000"
   width="400"
   height="300"
   id="svg11300"
   sodipodi:version="0.32"
   inkscape:version="1.2.2 (b0a8486541, 2022-12-01)"
   sodipodi:docname="workspace-switcher-right-top.svg"
   inkscape:output_extension="org.inkscape.output.svg.inkscape"
   version="1.0"
   style="display:inline;enable-background:new"
   inkscape:export-filename="/home/sam/suru-template.png"
   xmlns:inkscape="http://www.inkscape.org/namespaces/inkscape"
   xmlns:sodipodi="http://sodipodi.sourceforge.net/DTD/sodipodi-0.dtd"
   xmlns:xlink="http://www.w3.org/1999/xlink"
   xmlns="http://www.w3.org/2000/svg"
   xmlns:svg="http://www.w3.org/2000/svg"
   xmlns:rdf="http://www.w3.org/1999/02/22-rdf-syntax-ns#"
   xmlns:cc="http://creativecommons.org/ns#"
   xmlns:dc="http://purl.org/dc/elements/1.1/">
  <title
     id="title3004">Suru Icon Theme Template</title>
  <sodipodi:namedview
     stroke="#ef2929"
     fill="#f57900"
     id="base"
     pagecolor="#ffffff"
     bordercolor="#000000"
     borderopacity="0.25490196"
     inkscape:pageopacity="0"
     inkscape:pageshadow="2"
     inkscape:zoom="2"
     inkscape:cx="469.5"
     inkscape:cy="160.5"
     inkscape:current-layer="layer6"
     showgrid="false"
     inkscape:grid-bbox="true"
     inkscape:document-units="px"
     inkscape:showpageshadow="false"
     inkscape:window-width="1920"
     inkscape:window-height="1020"
     inkscape:window-x="0"
     inkscape:window-y="32"
     width="400px"
     height="300px"
     inkscape:snap-nodes="true"
     inkscape:snap-bbox="true"
     gridtolerance="10000"
     inkscape:object-nodes="true"
     inkscape:snap-grids="true"
     showguides="true"
     inkscape:guide-bbox="true"
     inkscape:window-maximized="1"
     inkscape:bbox-paths="true"
     inkscape:snap-bbox-midpoints="true"
     inkscape:snap-global="true"
     inkscape:object-paths="true"
     inkscape:snap-intersection-paths="true"
     inkscape:snap-smooth-nodes="true"
     inkscape:pagecheckerboard="false"
     showborder="false"
     inkscape:document-rotation="0"
     inkscape:deskcolor="#d1d1d1">
    <inkscape:grid
       spacingy="1"
       spacingx="1"
       id="grid5883"
       type="xygrid"
       enabled="true"
       visible="true"
       empspacing="4"
       snapvisiblegridlinesonly="true"
       originx="0"
       originy="0" />
    <inkscape:grid
       type="xygrid"
       id="grid11592"
       empspacing="2"
       visible="true"
       enabled="false"
       spacingx="0.5"
       spacingy="0.5"
       color="#ff0000"
       opacity="0.1254902"
       empcolor="#ff0000"
       empopacity="0.25098039"
       snapvisiblegridlinesonly="true"
       originx="0"
       originy="0" />
  </sodipodi:namedview>
  <defs
     id="defs3">
    <linearGradient
       id="a"
       x2="1"
       gradientTransform="matrix(0,-174.1262,174.1262,0,3988.1708,241.02965)"
       gradientUnits="userSpaceOnUse">
      <stop
         stop-color="#006783"
         offset="0"
         id="stop22" />
      <stop
         stop-color="#20ccff"
         offset="1"
         id="stop24" />
    </linearGradient>
    <linearGradient
       inkscape:collect="always"
       xlink:href="#a"
       id="linearGradient378"
       gradientUnits="userSpaceOnUse"
       gradientTransform="matrix(0,-35.758058,35.758058,0,1131.7851,101.46145)"
       x2="1" />
    <linearGradient
       inkscape:collect="always"
       xlink:href="#a"
       id="linearGradient386"
       gradientUnits="userSpaceOnUse"
       gradientTransform="matrix(0,-23.320473,23.320473,0,849.77287,159.3879)"
       x2="1" />
    <linearGradient
       inkscape:collect="always"
       xlink:href="#a"
       id="linearGradient394"
       gradientUnits="userSpaceOnUse"
       gradientTransform="matrix(0,-17.879029,17.879029,0,725.89253,208.73072)"
       x2="1" />
    <linearGradient
       inkscape:collect="always"
       xlink:href="#a"
       id="linearGradient402"
       gradientUnits="userSpaceOnUse"
       gradientTransform="matrix(0,-11.660237,11.660237,0,584.88646,249.69395)"
       x2="1" />
    <linearGradient
       inkscape:collect="always"
       xlink:href="#a"
       id="linearGradient404"
       gradientUnits="userSpaceOnUse"
       gradientTransform="matrix(0,-174.1262,174.1262,0,3988.1708,241.02965)"
       x2="1" />
  </defs>
  <metadata
     id="metadata4">
    <rdf:RDF>
      <cc:Work
         rdf:about="">
        <dc:format>image/svg+xml</dc:format>
        <dc:type
           rdf:resource="http://purl.org/dc/dcmitype/StillImage" />
        <dc:creator>
          <cc:Agent>
            <dc:title>Sam Hewitt</dc:title>
          </cc:Agent>
        </dc:creator>
        <dc:source />
        <cc:license
           rdf:resource="http://creativecommons.org/licenses/by-sa/4.0/" />
        <dc:title>Suru Icon Theme Template</dc:title>
        <dc:subject>
          <rdf:Bag />
        </dc:subject>
        <dc:date />
        <dc:rights>
          <cc:Agent>
            <dc:title />
          </cc:Agent>
        </dc:rights>
        <dc:publisher>
          <cc:Agent>
            <dc:title />
          </cc:Agent>
        </dc:publisher>
        <dc:identifier />
        <dc:relation />
        <dc:language />
        <dc:coverage />
        <dc:description />
        <dc:contributor>
          <cc:Agent>
            <dc:title />
          </cc:Agent>
        </dc:contributor>
      </cc:Work>
      <cc:Work
         rdf:about="">
        <dc:format>image/svg+xml</dc:format>
        <dc:type
           rdf:resource="http://purl.org/dc/dcmitype/StillImage" />
      </cc:Work>
      <cc:License
         rdf:about="http://creativecommons.org/licenses/by-sa/4.0/">
        <cc:permits
           rdf:resource="http://creativecommons.org/ns#Reproduction" />
        <cc:permits
           rdf:resource="http://creativecommons.org/ns#Distribution" />
        <cc:requires
           rdf:resource="http://creativecommons.org/ns#Notice" />
        <cc:requires
           rdf:resource="http://creativecommons.org/ns#Attribution" />
        <cc:permits
           rdf:resource="http://creativecommons.org/ns#DerivativeWorks" />
        <cc:requires
           rdf:resource="http://creativecommons.org/ns#ShareAlike" />
      </cc:License>
    </rdf:RDF>
  </metadata>
  <g
     style="display:inline"
     inkscape:groupmode="layer"
     inkscape:label="Icon"
     id="layer1">
    <g
       style="display:none"
       inkscape:label="Baseplate"
       id="layer7"
       inkscape:groupmode="layer">
      <text
         y="-8.2548828"
         xml:space="preserve"
         x="19.006836"
         style="font-style:normal;font-variant:normal;font-weight:normal;font-stretch:normal;line-height:0%;font-family:'DejaVu Sans';-inkscape-font-specification:'DejaVu Sans';display:inline;fill:#000000;fill-opacity:1;stroke:none;enable-background:new"
         inkscape:label="context"
         id="context"><tspan
           style="font-style:normal;font-variant:normal;font-weight:normal;font-stretch:normal;font-size:18px;line-height:1.25;font-family:'DejaVu Sans';-inkscape-font-specification:'DejaVu Sans'"
           y="-8.2548828"
           x="19.006836"
           sodipodi:role="line"
           id="tspan3933">apps</tspan></text>
      <text
         y="-8.2548828"
         xml:space="preserve"
         x="146.48828"
         style="font-style:normal;font-variant:normal;font-weight:bold;font-stretch:normal;line-height:0%;font-family:'DejaVu Sans';-inkscape-font-specification:'DejaVu Sans Bold';text-align:start;writing-mode:lr-tb;text-anchor:start;display:inline;fill:#000000;fill-opacity:1;stroke:none;enable-background:new"
         inkscape:label="icon-name"
         id="icon-name"><tspan
           style="font-style:normal;font-variant:normal;font-weight:bold;font-stretch:normal;font-size:18px;line-height:1.25;font-family:'DejaVu Sans';-inkscape-font-specification:'DejaVu Sans Bold'"
           y="-8.2548828"
           x="146.48828"
           sodipodi:role="line"
           id="tspan924">workspace-switcher-right-top</tspan></text>
      <rect
         style="display:inline;overflow:visible;visibility:visible;fill:#cdcdcd;fill-opacity:1;fill-rule:nonzero;stroke:none;stroke-width:2;marker:none;enable-background:accumulate"
         id="rect16x16"
         width="16"
         height="16"
         x="320"
         y="236"
         inkscape:label="16x16" />
      <rect
         style="display:inline;overflow:visible;visibility:visible;fill:#cdcdcd;fill-opacity:1;fill-rule:nonzero;stroke:none;stroke-width:2;marker:none;enable-background:accumulate"
         id="rect24x24"
         width="24"
         height="24"
         x="320"
         y="188"
         inkscape:label="24x24" />
      <rect
         style="display:inline;overflow:visible;visibility:visible;fill:#cdcdcd;fill-opacity:1;fill-rule:nonzero;stroke:none;stroke-width:2;marker:none;enable-background:accumulate"
         id="rect32x32"
         width="32"
         height="32"
         x="320"
         y="132"
         inkscape:label="32x32" />
      <rect
         inkscape:label="48x48"
         y="60"
         x="320"
         height="48"
         width="48"
         id="rect48x48"
         style="display:inline;overflow:visible;visibility:visible;fill:#cdcdcd;fill-opacity:1;fill-rule:nonzero;stroke:none;stroke-width:2;marker:none;enable-background:accumulate" />
      <rect
         style="display:inline;overflow:visible;visibility:visible;fill:#cdcdcd;fill-opacity:1;fill-rule:nonzero;stroke:none;stroke-width:2;marker:none;enable-background:accumulate"
         id="rect256x256"
         width="256"
         height="256"
         x="24"
         y="28"
         inkscape:label="256x256" />
    </g>
    <g
       inkscape:groupmode="layer"
       id="layer2"
       inkscape:label="Background"
       style="display:inline">
      <path
         d="M 231.80802,268 H 72.191985 c -17.77072,0 -32.19199,-14.42127 -32.19199,-32.19199 V 76.191989 c 0,-17.770721 14.42127,-32.191988 32.19199,-32.191988 H 231.80802 c 17.77072,0 32.19199,14.421267 32.19199,32.191988 V 235.80801 C 264.00001,253.57873 249.57874,268 231.80802,268 Z"
         fill="url(#a)"
         id="path27"
         style="display:inline;fill:url(#linearGradient404);stroke-width:5.16891;enable-background:new" />
      <path
         d="m 360.38914,107 h -32.77829 c -3.64934,0 -6.61086,-2.96151 -6.61086,-6.61086 V 67.610855 C 320.99999,63.961511 323.96151,61 327.61085,61 h 32.77829 C 364.03849,61 367,63.961511 367,67.610855 V 100.38914 C 367,104.03849 364.03849,107 360.38914,107 Z"
         fill="url(#a)"
         id="path372"
         style="display:inline;fill:url(#linearGradient378);stroke-width:1.06147;enable-background:new" />
      <path
         d="M 346.68858,163 H 325.31143 C 322.93142,163 321,161.06858 321,158.68857 v -21.37715 c 0,-2.38 1.93142,-4.31142 4.31143,-4.31142 h 21.37715 c 2.38,0 4.31142,1.93142 4.31142,4.31142 v 21.37715 C 351,161.06858 349.06858,163 346.68858,163 Z"
         fill="url(#a)"
         id="path380"
         style="display:inline;fill:url(#linearGradient386);stroke-width:0.692265;enable-background:new" />
      <path
         d="m 340.19458,211.5 h -16.38915 c -1.82467,0 -3.30543,-1.48076 -3.30543,-3.30543 v -16.38915 c 0,-1.82467 1.48076,-3.30542 3.30543,-3.30542 h 16.38915 c 1.82467,0 3.30542,1.48075 3.30542,3.30542 v 16.38915 c 0,1.82467 -1.48075,3.30543 -3.30542,3.30543 z"
         fill="url(#a)"
         id="path388"
         style="display:inline;fill:url(#linearGradient394);stroke-width:0.530736;enable-background:new" />
      <path
         d="m 333.34429,251.5 h -10.68857 c -1.19001,0 -2.15572,-0.96571 -2.15572,-2.15571 v -10.68858 c 0,-1.19 0.96571,-2.15571 2.15572,-2.15571 h 10.68857 c 1.19,0 2.15571,0.96571 2.15571,2.15571 v 10.68858 c 0,1.19 -0.96571,2.15571 -2.15571,2.15571 z"
         fill="url(#a)"
         id="path396"
         style="display:inline;fill:url(#linearGradient402);stroke-width:0.346132;enable-background:new" />
    </g>
    <g
       inkscape:groupmode="layer"
       id="layer6"
       inkscape:label="Pictogram"
       style="display:inline">
      <path
         id="path362"
         style="display:inline;enable-background:new;fill:#ffffff;stroke-width:5.16891"
         d="m 224.67952,58.764722 -17.91959,0.09087 0.0207,5.017479 -9.65134,0.05066 c -9.30922,0.06203 -16.83071,7.631098 -16.76868,16.940298 l 0.19176,33.688801 c 0.062,9.30403 7.64633,16.8307 16.95037,16.76867 l 37.25251,-0.21203 c 9.30404,-0.062 16.81055,-7.65645 16.74852,-16.96049 l -0.20211,-33.688791 c -0.0465,-9.28852 -7.63629,-16.79969 -16.94033,-16.768677 l -9.68158,0.07066 z m 7.05675,19.736767 c 4.81743,-0.0155 8.77237,3.87435 8.80328,8.71244 0.031,4.8381 -3.87431,8.7622 -8.71241,8.79321 -4.8381,0.0362 -8.77232,-3.86426 -8.80333,-8.70235 -0.0155,-4.81741 3.87436,-8.77229 8.71246,-8.8033 z m -29.85249,0.2019 c 4.8226,-0.0517 8.7777,3.86473 8.7932,8.68215 0.0517,4.82259 -3.86965,8.76761 -8.69225,8.78312 -4.82259,0.0517 -8.76761,-3.85958 -8.78312,-8.68216 -0.0465,-4.81742 3.86475,-8.76761 8.68217,-8.78311 z" />
      <path
         id="path374"
         style="display:inline;enable-background:new;fill:#ffffff;stroke-width:1.06147"
         d="m 358.92525,64.032041 -3.67991,0.01866 0.004,1.030375 -1.98197,0.0104 c -1.91172,0.01274 -3.45631,1.5671 -3.44357,3.478811 l 0.0394,6.918236 c 0.0127,1.910649 1.57023,3.456304 3.48088,3.443566 l 7.65007,-0.04354 c 1.91065,-0.01273 3.45216,-1.572307 3.43942,-3.482958 l -0.0415,-6.918234 c -0.01,-1.907464 -1.56817,-3.449936 -3.47882,-3.443567 l -1.98818,0.01451 z m 1.44916,4.053086 c 0.98929,-0.0032 1.80147,0.795626 1.80781,1.789162 0.006,0.993538 -0.79561,1.79938 -1.78915,1.805748 -0.99354,0.0074 -1.80146,-0.793553 -1.80783,-1.787089 -0.003,-0.98929 0.79563,-1.801453 1.78917,-1.807821 z m -6.13042,0.04146 c 0.99035,-0.01062 1.80256,0.79365 1.80574,1.782941 0.0106,0.990354 -0.79466,1.800492 -1.78501,1.803677 -0.99036,0.01062 -1.80049,-0.792593 -1.80368,-1.782944 -0.01,-0.989291 0.79365,-1.800491 1.78295,-1.803674 z" />
      <path
         id="path382"
         style="display:inline;enable-background:new;fill:#ffffff;stroke-width:0.692265"
         d="m 345.73387,134.97742 -2.39995,0.0122 0.003,0.67198 -1.29259,0.007 c -1.24677,0.008 -2.25411,1.02203 -2.2458,2.26879 l 0.0257,4.5119 c 0.008,1.24607 1.02406,2.25411 2.27014,2.2458 l 4.98917,-0.0284 c 1.24608,-0.008 2.25142,-1.02541 2.24311,-2.27149 l -0.0271,-4.51189 c -0.006,-1.244 -1.02272,-2.24996 -2.26879,-2.24581 l -1.29664,0.009 z m 0.9451,2.64331 c 0.64519,-0.002 1.17487,0.51889 1.17901,1.16685 0.004,0.64796 -0.51888,1.17351 -1.16684,1.17766 -0.64796,0.005 -1.17487,-0.51754 -1.17902,-1.16549 -0.002,-0.64519 0.51889,-1.17486 1.16685,-1.17902 z m -3.9981,0.027 c 0.64588,-0.007 1.17558,0.5176 1.17766,1.16279 0.007,0.64588 -0.51826,1.17423 -1.16414,1.17631 -0.64589,0.007 -1.17424,-0.51691 -1.17631,-1.16279 -0.006,-0.64519 0.5176,-1.17423 1.16279,-1.17631 z" />
      <path
         id="path390"
         style="display:inline;enable-background:new;fill:#ffffff;stroke-width:0.530736"
         d="m 339.46263,190.01602 -1.83996,0.009 0.002,0.51519 -0.99099,0.005 c -0.95585,0.006 -1.72815,0.78355 -1.72178,1.7394 l 0.0197,3.45912 c 0.006,0.95533 0.78511,1.72815 1.74044,1.72178 l 3.82503,-0.0218 c 0.95533,-0.006 1.72609,-0.78615 1.71972,-1.74148 l -0.0207,-3.45911 c -0.005,-0.95373 -0.78409,-1.72497 -1.73941,-1.72179 l -0.99409,0.007 z m 0.72458,2.02654 c 0.49465,-0.002 0.90073,0.39781 0.90391,0.89458 0.003,0.49677 -0.39781,0.89969 -0.89458,0.90288 -0.49677,0.004 -0.90073,-0.39678 -0.90391,-0.89355 -0.002,-0.49464 0.39781,-0.90073 0.89458,-0.90391 z m -3.06521,0.0207 c 0.49518,-0.005 0.90128,0.39683 0.90287,0.89147 0.005,0.49518 -0.39733,0.90025 -0.89251,0.90184 -0.49517,0.005 -0.90024,-0.3963 -0.90183,-0.89147 -0.005,-0.49465 0.39682,-0.90025 0.89147,-0.90184 z" />
      <path
         id="path398"
         style="display:inline;enable-background:new;fill:#ffffff;stroke-width:0.346132"
         d="m 332.86693,237.48871 -1.19997,0.006 10e-4,0.33599 -0.6463,0.003 c -0.62338,0.004 -1.12705,0.51101 -1.1229,1.13439 l 0.0128,2.25595 c 0.004,0.62304 0.51203,1.12705 1.13507,1.1229 l 2.49459,-0.0142 c 0.62304,-0.004 1.12571,-0.51271 1.12155,-1.13574 l -0.0135,-2.25595 c -0.003,-0.622 -0.51136,-1.12498 -1.1344,-1.1229 l -0.64832,0.005 z m 0.47255,1.32166 c 0.3226,-0.001 0.58744,0.25944 0.58951,0.58342 0.002,0.32398 -0.25944,0.58675 -0.58342,0.58883 -0.32398,0.002 -0.58743,-0.25877 -0.58951,-0.58275 -10e-4,-0.32259 0.25944,-0.58743 0.58342,-0.5895 z m -1.99905,0.0135 c 0.32295,-0.003 0.5878,0.2588 0.58883,0.58139 0.003,0.32294 -0.25912,0.58712 -0.58207,0.58816 -0.32294,0.003 -0.58711,-0.25846 -0.58815,-0.5814 -0.003,-0.32259 0.2588,-0.58712 0.58139,-0.58815 z" />
    </g>
  </g>
</svg>
