<?xml version="1.0" encoding="UTF-8" standalone="no"?>
<svg
   inkscape:export-ydpi="90.000000"
   inkscape:export-xdpi="90.000000"
   width="400"
   height="300"
   id="svg11300"
   sodipodi:version="0.32"
   inkscape:version="1.2.2 (b0a8486541, 2022-12-01)"
   sodipodi:docname="workspace-switcher-right-bottom.svg"
   inkscape:output_extension="org.inkscape.output.svg.inkscape"
   version="1.0"
   style="display:inline;enable-background:new"
   inkscape:export-filename="/home/sam/suru-template.png"
   xmlns:inkscape="http://www.inkscape.org/namespaces/inkscape"
   xmlns:sodipodi="http://sodipodi.sourceforge.net/DTD/sodipodi-0.dtd"
   xmlns:xlink="http://www.w3.org/1999/xlink"
   xmlns="http://www.w3.org/2000/svg"
   xmlns:svg="http://www.w3.org/2000/svg"
   xmlns:rdf="http://www.w3.org/1999/02/22-rdf-syntax-ns#"
   xmlns:cc="http://creativecommons.org/ns#"
   xmlns:dc="http://purl.org/dc/elements/1.1/">
  <title
     id="title3004">Suru Icon Theme Template</title>
  <sodipodi:namedview
     stroke="#ef2929"
     fill="#f57900"
     id="base"
     pagecolor="#ffffff"
     bordercolor="#000000"
     borderopacity="0.25490196"
     inkscape:pageopacity="0"
     inkscape:pageshadow="2"
     inkscape:zoom="2.8284271"
     inkscape:cx="265.87215"
     inkscape:cy="154.14928"
     inkscape:current-layer="layer6"
     showgrid="false"
     inkscape:grid-bbox="true"
     inkscape:document-units="px"
     inkscape:showpageshadow="false"
     inkscape:window-width="1920"
     inkscape:window-height="1020"
     inkscape:window-x="0"
     inkscape:window-y="32"
     width="400px"
     height="300px"
     inkscape:snap-nodes="true"
     inkscape:snap-bbox="true"
     gridtolerance="10000"
     inkscape:object-nodes="true"
     inkscape:snap-grids="true"
     showguides="true"
     inkscape:guide-bbox="true"
     inkscape:window-maximized="1"
     inkscape:bbox-paths="true"
     inkscape:snap-bbox-midpoints="true"
     inkscape:snap-global="true"
     inkscape:object-paths="true"
     inkscape:snap-intersection-paths="true"
     inkscape:snap-smooth-nodes="true"
     inkscape:pagecheckerboard="false"
     showborder="false"
     inkscape:document-rotation="0"
     inkscape:deskcolor="#d1d1d1">
    <inkscape:grid
       spacingy="1"
       spacingx="1"
       id="grid5883"
       type="xygrid"
       enabled="true"
       visible="true"
       empspacing="4"
       snapvisiblegridlinesonly="true"
       originx="0"
       originy="0" />
    <inkscape:grid
       type="xygrid"
       id="grid11592"
       empspacing="2"
       visible="true"
       enabled="false"
       spacingx="0.5"
       spacingy="0.5"
       color="#ff0000"
       opacity="0.1254902"
       empcolor="#ff0000"
       empopacity="0.25098039"
       snapvisiblegridlinesonly="true"
       originx="0"
       originy="0" />
  </sodipodi:namedview>
  <defs
     id="defs3">
    <linearGradient
       id="a"
       x2="1"
       gradientTransform="matrix(0,-33.6872,33.6872,0,662.45776,172.4502)"
       gradientUnits="userSpaceOnUse">
      <stop
         stop-color="#006783"
         offset="0"
         id="stop2" />
      <stop
         stop-color="#20ccff"
         offset="1"
         id="stop4" />
    </linearGradient>
    <linearGradient
       inkscape:collect="always"
       xlink:href="#a"
       id="linearGradient387"
       gradientUnits="userSpaceOnUse"
       gradientTransform="matrix(0,-35.758057,35.758057,0,1131.785,101.46144)"
       x2="1" />
    <linearGradient
       inkscape:collect="always"
       xlink:href="#a"
       id="linearGradient395"
       gradientUnits="userSpaceOnUse"
       gradientTransform="matrix(0,-23.320473,23.320473,0,849.77284,159.3879)"
       x2="1" />
    <linearGradient
       inkscape:collect="always"
       xlink:href="#a"
       id="linearGradient403"
       gradientUnits="userSpaceOnUse"
       gradientTransform="matrix(0,-17.879029,17.879029,0,725.89251,208.73073)"
       x2="1" />
    <linearGradient
       inkscape:collect="always"
       xlink:href="#a"
       id="linearGradient411"
       gradientUnits="userSpaceOnUse"
       gradientTransform="matrix(0,-11.660236,11.660236,0,584.88642,249.69395)"
       x2="1" />
    <linearGradient
       inkscape:collect="always"
       xlink:href="#a"
       id="linearGradient458"
       gradientUnits="userSpaceOnUse"
       gradientTransform="matrix(0,-174.1262,174.1262,0,3988.1706,241.02965)"
       x2="1" />
  </defs>
  <metadata
     id="metadata4">
    <rdf:RDF>
      <cc:Work
         rdf:about="">
        <dc:format>image/svg+xml</dc:format>
        <dc:type
           rdf:resource="http://purl.org/dc/dcmitype/StillImage" />
        <dc:creator>
          <cc:Agent>
            <dc:title>Sam Hewitt</dc:title>
          </cc:Agent>
        </dc:creator>
        <dc:source />
        <cc:license
           rdf:resource="http://creativecommons.org/licenses/by-sa/4.0/" />
        <dc:title>Suru Icon Theme Template</dc:title>
        <dc:subject>
          <rdf:Bag />
        </dc:subject>
        <dc:date />
        <dc:rights>
          <cc:Agent>
            <dc:title />
          </cc:Agent>
        </dc:rights>
        <dc:publisher>
          <cc:Agent>
            <dc:title />
          </cc:Agent>
        </dc:publisher>
        <dc:identifier />
        <dc:relation />
        <dc:language />
        <dc:coverage />
        <dc:description />
        <dc:contributor>
          <cc:Agent>
            <dc:title />
          </cc:Agent>
        </dc:contributor>
      </cc:Work>
      <cc:Work
         rdf:about="">
        <dc:format>image/svg+xml</dc:format>
        <dc:type
           rdf:resource="http://purl.org/dc/dcmitype/StillImage" />
      </cc:Work>
      <cc:License
         rdf:about="http://creativecommons.org/licenses/by-sa/4.0/">
        <cc:permits
           rdf:resource="http://creativecommons.org/ns#Reproduction" />
        <cc:permits
           rdf:resource="http://creativecommons.org/ns#Distribution" />
        <cc:requires
           rdf:resource="http://creativecommons.org/ns#Notice" />
        <cc:requires
           rdf:resource="http://creativecommons.org/ns#Attribution" />
        <cc:permits
           rdf:resource="http://creativecommons.org/ns#DerivativeWorks" />
        <cc:requires
           rdf:resource="http://creativecommons.org/ns#ShareAlike" />
      </cc:License>
    </rdf:RDF>
  </metadata>
  <g
     style="display:inline"
     inkscape:groupmode="layer"
     inkscape:label="Icon"
     id="layer1">
    <g
       style="display:none"
       inkscape:label="Baseplate"
       id="layer7"
       inkscape:groupmode="layer">
      <text
         y="-8.2548828"
         xml:space="preserve"
         x="19.006836"
         style="font-style:normal;font-variant:normal;font-weight:normal;font-stretch:normal;line-height:0%;font-family:'DejaVu Sans';-inkscape-font-specification:'DejaVu Sans';display:inline;fill:#000000;fill-opacity:1;stroke:none;enable-background:new"
         inkscape:label="context"
         id="context"><tspan
           style="font-style:normal;font-variant:normal;font-weight:normal;font-stretch:normal;font-size:18px;line-height:1.25;font-family:'DejaVu Sans';-inkscape-font-specification:'DejaVu Sans'"
           y="-8.2548828"
           x="19.006836"
           sodipodi:role="line"
           id="tspan3933">apps</tspan></text>
      <text
         y="-8.2548828"
         xml:space="preserve"
         x="146.48828"
         style="font-style:normal;font-variant:normal;font-weight:bold;font-stretch:normal;line-height:0%;font-family:'DejaVu Sans';-inkscape-font-specification:'DejaVu Sans Bold';text-align:start;writing-mode:lr-tb;text-anchor:start;display:inline;fill:#000000;fill-opacity:1;stroke:none;enable-background:new"
         inkscape:label="icon-name"
         id="icon-name"><tspan
           style="font-style:normal;font-variant:normal;font-weight:bold;font-stretch:normal;font-size:18px;line-height:1.25;font-family:'DejaVu Sans';-inkscape-font-specification:'DejaVu Sans Bold'"
           y="-8.2548828"
           x="146.48828"
           sodipodi:role="line"
           id="tspan924">workspace-switcher-right-bottom</tspan></text>
      <rect
         style="display:inline;overflow:visible;visibility:visible;fill:#cdcdcd;fill-opacity:1;fill-rule:nonzero;stroke:none;stroke-width:2;marker:none;enable-background:accumulate"
         id="rect16x16"
         width="16"
         height="16"
         x="320"
         y="236"
         inkscape:label="16x16" />
      <rect
         style="display:inline;overflow:visible;visibility:visible;fill:#cdcdcd;fill-opacity:1;fill-rule:nonzero;stroke:none;stroke-width:2;marker:none;enable-background:accumulate"
         id="rect24x24"
         width="24"
         height="24"
         x="320"
         y="188"
         inkscape:label="24x24" />
      <rect
         style="display:inline;overflow:visible;visibility:visible;fill:#cdcdcd;fill-opacity:1;fill-rule:nonzero;stroke:none;stroke-width:2;marker:none;enable-background:accumulate"
         id="rect32x32"
         width="32"
         height="32"
         x="320"
         y="132"
         inkscape:label="32x32" />
      <rect
         inkscape:label="48x48"
         y="60"
         x="320"
         height="48"
         width="48"
         id="rect48x48"
         style="display:inline;overflow:visible;visibility:visible;fill:#cdcdcd;fill-opacity:1;fill-rule:nonzero;stroke:none;stroke-width:2;marker:none;enable-background:accumulate" />
      <rect
         style="display:inline;overflow:visible;visibility:visible;fill:#cdcdcd;fill-opacity:1;fill-rule:nonzero;stroke:none;stroke-width:2;marker:none;enable-background:accumulate"
         id="rect256x256"
         width="256"
         height="256"
         x="24"
         y="28"
         inkscape:label="256x256" />
    </g>
    <g
       inkscape:groupmode="layer"
       id="layer2"
       inkscape:label="Background"
       style="display:inline">
      <path
         d="M 231.80801,268 H 72.19199 C 54.421268,268 40.000001,253.57874 40.000001,235.80801 V 76.191989 c 0,-17.770722 14.421267,-32.191988 32.191989,-32.191988 H 231.80801 C 249.57874,44.000001 264,58.421267 264,76.191989 V 235.80801 C 264,253.57874 249.57874,268 231.80801,268 Z"
         fill="url(#a)"
         id="path7"
         style="fill:url(#linearGradient458);stroke-width:5.16891" />
      <path
         d="M 360.38915,107 H 327.61086 C 323.96151,107 321,104.03849 321,100.38914 V 67.610855 C 321,63.96151 323.96151,61 327.61086,61 h 32.77829 C 364.03849,61 367,63.96151 367,67.610855 V 100.38914 C 367,104.03849 364.03849,107 360.38915,107 Z"
         fill="url(#a)"
         id="path381"
         style="fill:url(#linearGradient387);stroke-width:1.06147" />
      <path
         d="M 346.68857,163 H 325.31142 C 322.93142,163 321,161.06858 321,158.68857 V 137.31143 C 321,134.93142 322.93142,133 325.31142,133 h 21.37715 c 2.38001,0 4.31143,1.93142 4.31143,4.31143 v 21.37714 C 351,161.06858 349.06858,163 346.68857,163 Z"
         fill="url(#a)"
         id="path389"
         style="fill:url(#linearGradient395);stroke-width:0.692265" />
      <path
         d="m 340.19457,211.5 h -16.38915 c -1.82467,0 -3.30542,-1.48075 -3.30542,-3.30542 v -16.38915 c 0,-1.82467 1.48075,-3.30543 3.30542,-3.30543 h 16.38915 c 1.82467,0 3.30543,1.48076 3.30543,3.30543 v 16.38915 c 0,1.82467 -1.48076,3.30542 -3.30543,3.30542 z"
         fill="url(#a)"
         id="path397"
         style="fill:url(#linearGradient403);stroke-width:0.530737" />
      <path
         d="m 333.34428,251.5 h -10.68857 c -1.19,0 -2.15571,-0.96571 -2.15571,-2.15572 v -10.68857 c 0,-1.19 0.96571,-2.15571 2.15571,-2.15571 h 10.68857 c 1.19001,0 2.15572,0.96571 2.15572,2.15571 v 10.68857 c 0,1.19001 -0.96571,2.15572 -2.15572,2.15572 z"
         fill="url(#a)"
         id="path405"
         style="fill:url(#linearGradient411);stroke-width:0.346133" />
    </g>
    <g
       inkscape:groupmode="layer"
       id="layer6"
       inkscape:label="Pictogram"
       style="display:inline">
      <path
         id="path373"
         d="m 218.83344,175.43227 -17.91957,0.091 0.0305,5.01752 -9.66142,0.0517 c -9.30404,0.062 -16.83071,7.63629 -16.76868,16.94033 l 0.2019,33.68875 c 0.062,9.30405 7.63627,16.82554 16.9403,16.76873 l 37.25251,-0.21192 c 9.30404,-0.062 16.81052,-7.65646 16.74849,-16.9605 l -0.20189,-33.6888 c -0.0465,-9.28854 -7.63627,-16.79452 -16.9403,-16.76868 l -9.67153,0.0708 z m 7.05677,19.73672 c 4.81742,-0.0155 8.77229,3.87436 8.80331,8.71246 0.031,4.8381 -3.86426,8.77232 -8.70235,8.80333 -4.84326,0.031 -8.77722,-3.87436 -8.8134,-8.71246 -0.0155,-4.8226 3.87435,-8.77232 8.71244,-8.80333 z m -29.84239,0.19176 c 4.81742,-0.0465 8.7676,3.87488 8.78311,8.69231 0.0465,4.82249 -3.87483,8.76756 -8.69225,8.78306 -4.82258,0.0517 -8.76761,-3.85952 -8.78311,-8.68211 -0.0517,-4.81743 3.86967,-8.77775 8.69225,-8.79326 z"
         style="display:inline;enable-background:new;fill:#ffffff;stroke-width:5.16891" />
      <path
         id="path383"
         d="m 357.72473,87.990555 -3.67992,0.01868 0.006,1.030382 -1.98404,0.01062 c -1.91066,0.01274 -3.45631,1.568167 -3.44357,3.478819 l 0.0415,6.918225 c 0.0127,1.910649 1.56816,3.455239 3.47881,3.443579 l 7.65007,-0.0435 c 1.91065,-0.0127 3.45216,-1.57231 3.43942,-3.48296 l -0.0415,-6.918236 c -0.01,-1.907467 -1.56816,-3.448875 -3.47881,-3.443567 l -1.98612,0.01454 z m 1.44916,4.053075 c 0.98929,-0.0032 1.80145,0.795628 1.80782,1.789166 0.006,0.993539 -0.79356,1.801458 -1.78709,1.807827 -0.9946,0.0064 -1.80247,-0.795627 -1.8099,-1.789166 -0.003,-0.990354 0.79563,-1.801458 1.78917,-1.807827 z m -6.12835,0.03938 c 0.98929,-0.0096 1.80049,0.795733 1.80367,1.785026 0.01,0.990334 -0.79572,1.800482 -1.78501,1.803666 -0.99036,0.01062 -1.80049,-0.792581 -1.80368,-1.782935 -0.0106,-0.989293 0.79467,-1.802572 1.78502,-1.805757 z"
         style="display:inline;enable-background:new;fill:#ffffff;stroke-width:1.06147" />
      <path
         id="path391"
         d="m 344.9509,150.60254 -2.39994,0.0122 0.004,0.67199 -1.29394,0.007 c -1.24608,0.008 -2.25412,1.02272 -2.24581,2.2688 l 0.027,4.51188 c 0.008,1.24608 1.02271,2.25342 2.26879,2.24581 l 4.98918,-0.0284 c 1.24607,-0.008 2.2514,-1.02542 2.2431,-2.27149 l -0.027,-4.5119 c -0.006,-1.244 -1.02272,-2.24926 -2.26879,-2.2458 l -1.2953,0.009 z m 0.94511,2.64331 c 0.64519,-0.002 1.17486,0.51888 1.17901,1.16684 0.004,0.64796 -0.51753,1.17487 -1.16549,1.17902 -0.64865,0.004 -1.17552,-0.51889 -1.18037,-1.16685 -0.002,-0.64588 0.51889,-1.17486 1.16685,-1.17901 z m -3.99675,0.0257 c 0.64519,-0.006 1.17423,0.51896 1.17631,1.16415 0.006,0.64587 -0.51895,1.17422 -1.16414,1.1763 -0.64588,0.007 -1.17424,-0.5169 -1.17631,-1.16278 -0.007,-0.64519 0.51826,-1.17559 1.16414,-1.17767 z"
         style="display:inline;enable-background:new;fill:#ffffff;stroke-width:0.692265" />
      <path
         id="path399"
         d="m 338.86236,201.99528 -1.83996,0.009 0.003,0.51519 -0.99202,0.005 c -0.95532,0.006 -1.72815,0.78409 -1.72178,1.73941 l 0.0207,3.45911 c 0.006,0.95533 0.78408,1.72763 1.7394,1.72179 l 3.82504,-0.0218 c 0.95532,-0.006 1.72608,-0.78615 1.71971,-1.74148 l -0.0207,-3.45911 c -0.005,-0.95374 -0.78408,-1.72444 -1.73941,-1.72179 l -0.99305,0.007 z m 0.72458,2.02654 c 0.49464,-0.002 0.90072,0.39781 0.90391,0.89458 0.003,0.49677 -0.39678,0.90073 -0.89355,0.90392 -0.4973,0.003 -0.90123,-0.39782 -0.90495,-0.89459 -0.002,-0.49517 0.39782,-0.90073 0.89459,-0.90391 z m -3.06418,0.0197 c 0.49465,-0.005 0.90025,0.39787 0.90184,0.89251 0.005,0.49517 -0.39786,0.90024 -0.89251,0.90184 -0.49517,0.005 -0.90024,-0.39629 -0.90184,-0.89147 -0.005,-0.49465 0.39734,-0.90129 0.89251,-0.90288 z"
         style="display:inline;enable-background:new;fill:#ffffff;stroke-width:0.530737" />
      <path
         id="path407"
         d="m 332.47545,245.30127 -1.19997,0.006 0.002,0.33599 -0.64697,0.003 c -0.62304,0.004 -1.12705,0.51136 -1.1229,1.1344 l 0.0135,2.25594 c 0.004,0.62304 0.51136,1.12671 1.13439,1.12291 l 2.49459,-0.0142 c 0.62304,-0.004 1.12571,-0.51271 1.12155,-1.13575 l -0.0135,-2.25595 c -0.003,-0.622 -0.51135,-1.12463 -1.13439,-1.1229 l -0.64765,0.005 z m 0.47255,1.32165 c 0.3226,-0.001 0.58743,0.25944 0.58951,0.58342 0.002,0.32398 -0.25877,0.58744 -0.58275,0.58951 -0.32432,0.002 -0.58776,-0.25944 -0.59018,-0.58342 -10e-4,-0.32294 0.25944,-0.58743 0.58342,-0.58951 z m -1.99837,0.0128 c 0.32259,-0.003 0.58712,0.25948 0.58815,0.58208 0.003,0.32293 -0.25947,0.58711 -0.58207,0.58815 -0.32294,0.003 -0.58711,-0.25845 -0.58815,-0.58139 -0.003,-0.3226 0.25913,-0.5878 0.58207,-0.58884 z"
         style="display:inline;enable-background:new;fill:#ffffff;stroke-width:0.346133" />
    </g>
  </g>
</svg>
