<svg version="1.1" viewBox="0 0 16 16" xmlns="http://www.w3.org/2000/svg">
 <path d="m7 0v2.5h2v-2.5h-2zm-3.5 2c-0.277 0-0.5 0.223-0.5 0.5v5c0 0.277 0.223 0.5 0.5 0.5h2.6387a1.0001 1.0001 0 0 1-0.13672-0.5v-0.5h-2.002v-4h2.1367a1.0001 1.0001 0 0 1-0.13477-0.49805v-0.50195h-2.502zm6.4941 0v0.50195a1.0001 1.0001 0 0 1-0.13477 0.49805h2.1406v4h-2.0059v0.5a1.0001 1.0001 0 0 1-0.13672 0.5h2.6426c0.277 0 0.5-0.223 0.5-0.5v-5c0-0.277-0.223-0.5-0.5-0.5h-2.5059zm-2.9941 2.5v3h2v-3h-2zm-5.5 4.5c-0.277 0-0.5 0.223-0.5 0.5v5c0 0.277 0.223 0.5 0.5 0.5h4.502v-0.50195a1.0001 1.0001 0 0 1 0.13281-0.49805h-4.1348v-4h4.002v-0.5a1.0001 1.0001 0 0 1 0.13477-0.5h-4.6367zm8.3574 0a1.0001 1.0001 0 0 1 0.13672 0.5v0.5h4.0059v4h-4.1406a1.0001 1.0001 0 0 1 0.13477 0.49805v0.50195h4.5059c0.277 0 0.5-0.223 0.5-0.5v-5c0-0.277-0.223-0.5-0.5-0.5h-4.6426zm-2.8574 0.5v3h2v-3h-2zm0 5v1.5h2v-1.5h-2z" fill="#bebebe" style="paint-order:normal"/>
 <path d="m4 2v6h8v-6h-8zm-2 7v6h12v-6h-12z" fill="#bebebe" fill-opacity=".93141" opacity=".1"/>
</svg>
