<svg version="1.1" viewBox="0 0 16 16" xmlns="http://www.w3.org/2000/svg">
 <path d="m12.623 8.3097c-0.33645-0.3286-0.88231-0.3286-1.2192 0l-3.4034 3.6601-3.4034-3.6601c-0.33684-0.3286-0.8823-0.3286-1.2191 0-0.33685 0.3286-0.33685 0.86085 0 1.1895l3.959 4.2579c0.18224 0.17756 0.42493 0.25585 0.66356 0.24122 0.23822 0.01462 0.48132-0.06374 0.66354-0.24122l3.959-4.2579c0.33643-0.3286 0.33643-0.86085 0-1.1895zm-4.6276-3.5417c0.78448 0 1.4204-0.61963 1.4204-1.384 0-0.76436-0.63595-1.384-1.4204-1.384-0.78448 0-1.4204 0.61964-1.4204 1.384s0.63595 1.384 1.4204 1.384zm0 3.9543c0.78448 0 1.4204-0.61964 1.4204-1.384s-0.63595-1.384-1.4204-1.384c-0.78448 0-1.4204 0.61963-1.4204 1.384 0 0.76436 0.63595 1.384 1.4204 1.384z" fill="#bebebe"/>
</svg>
