<svg version="1.1" viewBox="0 0 16 16" xmlns="http://www.w3.org/2000/svg">
 <path d="m8.002 11.97a0.498 0.498 0 0 1-0.375-0.158l-2.5-3a0.428 0.428 0 0 1-0.09-0.248c-0.014-0.266 0.188-0.556 0.465-0.564h1.5v-3.5c0-0.262 0.238-0.5 0.5-0.5h1a0.492 0.492 0 0 1 0.094 0c0.23 0.044 0.41 0.267 0.406 0.5v3.5h1.5c0.37 0.011 0.606 0.524 0.375 0.813l-2.5 3a0.497 0.497 0 0 1-0.375 0.158z" color="#bebebe" fill="#bebebe" overflow="visible"/>
 <path d="m8.002 2.5e-7a8 8 0 1 0 0 16 8 8 0 0 0 0-16zm0 2a6 6 0 1 1 0 12 6 6 0 0 1 0-12z" color="#bebebe" fill="#bebebe" overflow="visible"/>
</svg>
