<svg version="1.1" viewBox="0 0 16 16" xmlns="http://www.w3.org/2000/svg">
 <path d="m8 2a6 6 0 0 0-6 6 6 6 0 0 0 6 6 6 6 0 0 0 6-6 6 6 0 0 0-6-6zm-0.043942 4.4004c2.6022-0.00622 3.5556 1.1381 3.5962 1.188 0.08701 0.11008 0.15779 0.22728 0.2168 0.36035 0.06316 0.1432 0.10598 0.29495 0.12451 0.44385h0.0074l0.0058 0.39258c3.85e-4 0.28599-0.22363 0.5189-0.49951 0.52002l-1.3872 0.0029c-0.27565 1.39e-4 -0.50033-0.23118-0.50098-0.51707l-0.0015-0.69873c-0.03426-0.009825-0.070875-0.020318-0.1084-0.030765-0.34305-0.097531-0.81309-0.23029-1.4487-0.22852-0.63725 0.0015-1.1056 0.13687-1.4487 0.23584-0.036297 0.010538-0.071839 0.020048-0.10547 0.029295l0.00147 0.46875v0.23145c6.521e-4 0.28631-0.22379 0.51918-0.49952 0.52002l-1.3857 0.0029c-0.27554 6.68e-4 -0.50178-0.23076-0.50244-0.51706l0.00147-0.39258h0.010255c0.017713-0.14918 0.058683-0.30043 0.12157-0.44531 0.061091-0.13669 0.13163-0.25481 0.21533-0.36035 0.6654-0.85216 1.7049-1.201 3.5874-1.2056z" fill="#da4453"/>
</svg>
