<svg version="1.1" viewBox="0 0 16 16" xmlns="http://www.w3.org/2000/svg">
 <path d="m11.783 0c-1.0217 0-1.8824 0.594-2.3468 1.438l-0.15415-0.157-1.1423-0.25-0.95751 0.969 0.67984 0.719 0.98814 1-4.2312 4.281-0.98814 2.438 0.49407 0.562 2.4704-1 4.2312-4.281 0.98814 1 0.70949 0.687 1.1117-1.125-0.40118-1-0.15415-0.156c0.833-0.47 1.42-1.341 1.42-2.375a2.7174 2.75 0 0 0-2.7174-2.75zm-2.4387 4.219 0.98814 1-2.749 2.781h-1.9763zm-6.0524 6.875s-1.7915 2.476-1.7915 3.343c0 0.868 0.71739 1.563 1.5751 1.563s1.5435-0.695 1.5435-1.563c0-0.867-1.3271-3.343-1.3271-3.343z" fill="#bebebe" stroke-width=".99405"/>
</svg>
