<svg version="1.1" viewBox="0 0 16 16" xmlns="http://www.w3.org/2000/svg">
 <path d="m8 2a6 6 0 0 0-6 6 6 6 0 0 0 6 6 6 6 0 0 0 6-6 6 6 0 0 0-6-6zm-0.013393 2.7606c0.81191 0 1.5117 0.54988 1.5117 1.6004 0 0.68324-0.32121 1.3784-0.73996 1.8097h0.00335c-0.16064 0.48832 0.096605 0.60277 0.13728 0.61607 0.97324 0.33436 2.2038 1.1686 2.1763 2.4526h-6.1507c-0.024638-1.344 1.5319-2.2675 2.1044-2.4526 0.061392-0.022255 0.35507-0.18196 0.19085-0.61272-0.4213-0.43025-0.73996-1.127-0.73996-1.8131 0-1.0508 0.69428-1.6004 1.5067-1.6004z" fill="#bebebe"/>
</svg>
