<svg version="1.1" viewBox="0 0 16 16" xmlns="http://www.w3.org/2000/svg">
 <path d="m2.501 2c-0.27685 0-0.50098 0.22416-0.50098 0.50098v10.998c0 0.27685 0.22413 0.50098 0.50098 0.50098h10.998c0.27685 0 0.50098-0.22413 0.50098-0.50098v-8.6689c0-0.13291-0.05246-0.26049-0.14648-0.35449l-2.3291-2.3291c-0.094004-0.094-0.22151-0.14648-0.35449-0.14648zm1.478 1.1455h6.8833v3.6753h-6.8833zm4.1777 0.35449c-0.086305 0-0.15674 0.080546-0.15674 0.18018v2.6396c0 0.09966 0.070433 0.18018 0.15674 0.18018h1.1865c0.086305 0 0.15674-0.080516 0.15674-0.18018v-2.6396c0-0.09963-0.070433-0.18018-0.15674-0.18018z" fill="#bebebe"/>
</svg>
