<svg version="1.1" viewBox="0 0 16 16" xmlns="http://www.w3.org/2000/svg">
 <path d="m10.084 6.0035h-0.63013v-1.4862c0-0.15529-0.12543-0.28113-0.28009-0.28113h-0.30182l-0.60393-2.0353c-0.035334-0.11914-0.14453-0.20084-0.26844-0.20084-0.12385 0-0.23309 0.0817-0.26844 0.20084l-0.60393 2.0353h-0.30182c-0.15466 0-0.28009 0.12584-0.28009 0.28113v1.4863h-0.63013c-0.68863 0-1.2489 0.56232-1.2489 1.2536v5.4894c0 0.69124 0.56023 1.2536 1.2489 1.2536h4.1688c0.68863 0 1.2489-0.56232 1.2489-1.2536v-5.4894c0-0.69131-0.56023-1.2536-1.2489-1.2536z" fill="#bebebe"/>
</svg>
