<svg version="1.1" viewBox="0 0 16 16" xmlns="http://www.w3.org/2000/svg">
 <path d="m13.881 4.348c0.1596-0.15962 0.15811-0.41897-0.0015-0.57859l-1.6467-1.6479c-0.076687-0.076627-0.18192-0.12158-0.29008-0.12158-0.10818-2e-7 -0.21198 0.043486-0.28862 0.12011l-1.0658 1.0642-0.46222 0.46507 2.2269 2.2265 0.46369-0.46507zm-1.8169 1.8168-2.2269-2.2265-0.46515 0.4636-6.4191 6.4179c-0.04471 0.04474-0.07935 0.0999-0.09963 0.15966l-0.83215 2.4813c-0.04907 0.14727-0.01023 0.30766 0.09963 0.41746 0.07777 0.07793 0.182 0.12157 0.28862 0.12158 0.04348-2.5e-5 0.0877-0.0062 0.13039-0.0205l2.4803-0.83346c0.0602-0.02035 0.11506-0.05343 0.15969-0.09815l6.4191-6.4187z" fill="#bebebe"/>
</svg>
