<svg version="1.1" viewBox="0 0 16 16" xmlns="http://www.w3.org/2000/svg">
 <path d="m2.0624 5.8716 0.75118 0.61078-0.707 1.4094c-0.35349 0.64991 0.25378 1.283 0.64071 1.5034 0.3809 0.21694 0.9721 0.24274 1.5244 0.23492l0.99419-1.6913 0.75117 0.42283-1.3035-2.5135-2.6512 0.023475zm0.11045 3.4502 1.6128 3.1008c0.32404 0.43065 0.93529 0.53245 1.5686 0.5168h1.7012v-2.9363l-3.2256-0.02347c-0.50076 0.03127-1.1562-0.07834-1.657-0.65776zm10.147-5.7144-0.87749 0.38759-0.84183-1.3268c-0.37482-0.63682-1.2014-0.39103-1.5742-0.14571-0.36698 0.24151-0.67529 0.76711-0.93649 1.2736l0.93949 1.7249-0.71955 0.4787 2.7444 0.032175 1.2656-2.4245zm-2.9533-1.5721-3.388-0.035325c-0.51903 0.08613-0.90093 0.59311-1.1948 1.1772l-0.82474 1.5484 2.4679 1.4236 1.5836-2.9245c0.21645-0.47101 0.62635-1.0144 1.3561-1.1893zm0.14738 11.965 0.099645-0.9866 1.5232-0.12294c0.71692-0.03247 0.91108-0.90388 0.88562-1.3621-0.02504-0.45112-0.31733-0.98654-0.61641-1.4698l-1.9051 0.0189-0.05355-0.887-1.3576 2.4823 1.4241 2.3273zm2.7531-1.9258 1.6722-3.0665c0.17926-0.51418-0.06166-1.1076-0.4101-1.6582l-0.90149-1.5013-2.3929 1.556 1.6902 2.8591c0.29092 0.42534 0.5489 1.0619 0.34208 1.8109z" fill="#bebebe"/>
</svg>
