<svg version="1.1" viewBox="0 0 16 16" xmlns="http://www.w3.org/2000/svg">
 <path d="m12.503 10.5v2h-1.9982v1h1.9982v2h0.99908v-2h1.9982v-1h-1.9982v-2z" fill="#bebebe" stroke-width=".99954"/>
 <path d="m7.5034 0.5-4e-3 4e-3c-0.84262 1.81-1.4933 3.6549-1.8635 4.7852-1.2179 1e-3 -3.2241 0.0466-5.1359 0.29492l2e-3 2e-3v2e-3l2e-3 2e-3v2e-3c1.4595 1.3614 3.0113 2.5502 3.9709 3.252-0.37551 1.1596-0.9526 3.0838-1.3074 4.9805h8e-3c1.7447-0.96862 3.355-2.0788 4.3183-2.7754 0.51619 0.37482 1.2202 0.86833 2.0119 1.3848v-1.2757c-0.52724-0.33086-1.096-0.67943-1.4245-0.91797l-0.58541-0.42578-0.5854 0.42382c-0.47574 0.34406-1.3953 0.8872-2.1289 1.3672 0.23236-0.85452 0.45802-1.879 0.64394-2.4531l0.22246-0.6875-0.58344-0.42774c-0.47402-0.34663-1.2743-1.0535-1.9572-1.6035 0.88374-0.0429 1.9278-0.14404 2.5309-0.14453l0.722-2e-3 0.22635-0.6875c0.18283-0.55818 0.60759-1.5377 0.91907-2.3574 0.31384 0.82774 0.73239 1.7896 0.91908 2.3633l0.2244 0.6875 0.72199 2e-3c0.58744 2e-3 1.6509 0.10323 2.527 0.14648-0.68991 0.5548-1.4753 1.2503-1.963 1.6055l-0.5854 0.42578 0.22245 0.68945c0.0247 0.0767 0.0613 0.24261 0.0878 0.33594h1.0478c-0.0586-0.19116-0.13342-0.48109-0.18537-0.64258 0.98479-0.71722 2.58-1.9342 3.9807-3.2598l-2e-3 -2e-3h-2e-3l-2e-3 -2e-3v-2e-3c-1.9803-0.24282-3.9338-0.29179-5.1223-0.29492-0.37708-1.1588-1.0431-3.0526-1.8694-4.7949z" fill="#bebebe" stroke-width=".99954"/>
</svg>
