<svg version="1.1" viewBox="0 0 16 16" xmlns="http://www.w3.org/2000/svg">
 <path d="m7 1c-3.31 0-6 2.69-6 6 0 0.70141 0.12186 1.374 0.34375 2h1.0918a5 5 0 0 1-0.43555-2 5 5 0 0 1 5-5 5 5 0 0 1 5 5 5 5 0 0 1-5 5v1a5.948 5.948 0 0 0 3.6641-1.2734l2.8633 2.8633 1.0625-1.0625-2.8633-2.8633a5.949 5.949 0 0 0 1.2734-3.6641c0-3.31-2.69-6-6-6z" fill="#bebebe"/>
 <path d="m5.1465 10.146 0.70703 0.70703-1.6465 1.6465 1.6465 1.6465-0.70703 0.70703-1.6465-1.6465-1.6465 1.6465-0.70703-0.70703 1.6465-1.6465-1.6465-1.6465 0.70703-0.70703 1.6465 1.6465z" fill="#bebebe"/>
</svg>
