<svg version="1.1" viewBox="0 0 16 16" xmlns="http://www.w3.org/2000/svg">
 <path d="m6.5 5v1.4942h2.1797c-0.0414 0 0.070312 0.12778 0.070312 0.070038v0.70039h-0.75c-1.2869 0-2.2784 0.82916-2.2969 1.8444-0.00923 0.5076 0.23963 1.011 0.65625 1.3541 0.41662 0.34311 0.98219 0.53696 1.6406 0.53696h2.25v-4.4358c0-0.86721-0.66134-1.5523-1.5469-1.5642h-2.2031zm-4.5 1.4942v4.4825l3-2.2412zm12 0-3 2.2412 3 2.2412zm-6 2.2646h0.75v0.74708h-0.75c-0.38956 0-0.58508-0.10886-0.67969-0.18677-0.094605-0.07791-0.11816-0.13301-0.11719-0.18677 0.0022499-0.10752 0.069525-0.37354 0.79688-0.37354z" fill="#bebebe"/>
</svg>
