<svg version="1.1" viewBox="0 0 16 16" xmlns="http://www.w3.org/2000/svg">
 <path d="m13.418 4.7937c-0.08318 0-0.16297 0.033441-0.22189 0.092361l-0.70848 0.70735 1.7132 1.7121 0.70735-0.70622c0.1227-0.12274 0.12156-0.32217-0.0011-0.44491l-1.266-1.2671c-0.05896-0.058922-0.13986-0.093487-0.22302-0.093487zm-1.1523 1.0216-0.24442 0.24667 1.7121 1.7121 0.24555-0.24667zm-0.46631 0.46856-0.24667 0.24555 1.7121 1.7121 0.24667-0.24555zm-0.46856 0.46744-4.8242 4.8242c-0.034371 0.0344-0.061014 0.07682-0.076592 0.12277l-0.63977 1.908c-0.037716 0.11325-0.00787 0.23657 0.076592 0.32101 0.059791 0.05992 0.13992 0.09348 0.22189 0.09349 0.033433-2e-5 0.06742-0.0047 0.10025-0.01577l1.9069-0.6409c0.04628-0.01564 0.08846-0.04108 0.12277-0.07546l4.8242-4.8242z" fill="#bebebe"/>
 <path d="m1 1.8486v12.303h3.6908v-1.2303h-2.4606v-9.8422h11.995v-1.2303z" fill="#bebebe"/>
</svg>
