<svg version="1.1" viewBox="0 0 16 16" xmlns="http://www.w3.org/2000/svg">
 <path d="m13.156 3.0706c-0.21505 7.77e-4 -0.43022 0.083408-0.59373 0.24804l-4.5487 4.5819-4.5819-4.5487c-0.32924-0.3269-0.86056-0.32536-1.1875 0.0039062-0.32719 0.32924-0.32575 0.86239 0.0039062 1.1894l5.1776 5.1405c0.16464 0.16342 0.3806 0.24491 0.59569 0.24413 0.21497-7.77e-4 0.4302-0.08341 0.59373-0.24804l5.1405-5.1795c0.32703-0.3294 0.32559-0.86057-0.003906-1.1875-0.16464-0.16345-0.38063-0.24491-0.59568-0.24413zm-5.1561 7.9295a1.5 1.5 0 0 0-1.5 1.5 1.5 1.5 0 0 0 1.5 1.5 1.5 1.5 0 0 0 1.5-1.5 1.5 1.5 0 0 0-1.5-1.5z" fill="#bebebe"/>
</svg>
