<svg version="1.1" viewBox="0 0 16 16" xmlns="http://www.w3.org/2000/svg">
 <path d="m4.6669 2.6661-2.6669 5.3337 2.6669 5.3337h9.3331v-10.667zm3.6646 2.1914v0.45033c-0.5415 0-0.55413 0.18203-0.55413 0.84208v0.77511c0 0.31655-0.09437 0.78739-0.55078 0.9827 0.45641 0.19531 0.55078 0.66616 0.55078 0.9827v0.76842c0 0.66005 0.012552 0.84208 0.55413 0.84208v0.45201c-0.81227 0-1.1585-0.26894-1.1585-0.95591v-0.93248c0-0.42431-0.031154-0.91406-0.4721-0.91406h-0.22433v-0.49219h0.22433c0.44094 0 0.47211-0.48975 0.4721-0.91406v-0.93248c0-0.68698 0.34622-0.95424 1.1585-0.95424zm2.3906 0c0.81226 0 1.1535 0.26726 1.1535 0.95424v0.93248c0 0.42431 0.01507 0.91406 0.46373 0.91406h0.2327v0.49219h-0.2327c-0.44866 0-0.46373 0.48975-0.46373 0.91406v0.93248c0 0.68698-0.3412 0.95591-1.1535 0.95591v-0.45201c0.54834 0 0.54911-0.18203 0.54911-0.84208v-0.76842c0-0.31654 0.09437-0.78739 0.55078-0.9827-0.45641-0.19531-0.55078-0.66615-0.55078-0.9827v-0.77511c0-0.66005-0.0076-0.84208-0.54911-0.84208z" fill="#bebebe"/>
</svg>
