<svg version="1.1" viewBox="0 0 16 16" xmlns="http://www.w3.org/2000/svg">
 <path d="m8 2a6 6 0 0 0-6 6 6 6 0 0 0 6 6 6 6 0 0 0 6-6 6 6 0 0 0-6-6zm-0.00502 2.625c0.57306 0 1.0389 0.16459 1.3979 0.49386 0.35895 0.32317 0.53906 0.73776 0.53906 1.2439 0 0.21951-0.06115 0.44236-0.1808 0.66797s-0.2253 0.38626-0.31976 0.48382c-0.088162 0.091463-0.21462 0.21192-0.37835 0.35826l-0.046875 0.045201c-0.38414 0.33537-0.57757 0.67077-0.57757 1.0061v0.36495h-0.88728v-0.42857c0-0.27439 0.061153-0.50968 0.1808-0.7048 0.11965-0.20122 0.33054-0.43651 0.63281-0.7048 0.17003-0.15244 0.28899-0.265 0.35826-0.33817 0.075568-0.079268 0.14836-0.18561 0.21763-0.31975 0.075568-0.14024 0.11384-0.2839 0.11384-0.43025 0-0.28049-0.095678-0.50561-0.2846-0.67634-0.18262-0.17073-0.43761-0.25781-0.76507-0.25781-0.54157 0-0.91344 0.29354-1.115 0.87891l-0.81194-0.32812c0.13224-0.34756 0.3602-0.65976 0.68136-0.93415 0.32746-0.28049 0.74175-0.4202 1.2455-0.4202zm-0.010045 5.5061c0.18262 0 0.33403 0.0622 0.45368 0.18415 0.12595 0.12195 0.18917 0.26621 0.18917 0.43694s-0.063232 0.31834-0.18917 0.44029c-0.11962 0.12195-0.27106 0.18248-0.45368 0.18248s-0.33611-0.06053-0.46205-0.18248c-0.11965-0.12195-0.17913-0.26956-0.17913-0.44029s0.059481-0.31499 0.17913-0.43694c0.12595-0.12195 0.27943-0.18415 0.46205-0.18415z" fill="#bebebe"/>
</svg>
