<svg version="1.1" viewBox="0 0 16 16" xmlns="http://www.w3.org/2000/svg">
 <path d="m8 2a6 6 0 0 0-6 6 6 6 0 0 0 6 6 6 6 0 0 0 6-6 6 6 0 0 0-6-6zm-0.14941 2.625a0.75 0.75 0 0 1 0.75 0.75 0.75 0.75 0 0 1-0.75 0.75 0.75 0.75 0 0 1-0.75-0.75 0.75 0.75 0 0 1 0.75-0.75zm-0.080566 2.25h0.15967c0.26711 0 0.4834 0.21483 0.4834 0.48193v3.5361c0 0.26711-0.21629 0.48193-0.4834 0.48193h-0.15967c-0.26711 0-0.48193-0.21483-0.48193-0.48193v-3.5361c-3e-7 -0.26711 0.21483-0.48193 0.48193-0.48193z" fill="#bebebe"/>
</svg>
