<svg version="1.1" viewBox="0 0 16 16" xmlns="http://www.w3.org/2000/svg">
 <path d="m2.0103 2v11.469a0.43833 0.438 0 0 0 0 0.18887v0.32258h0.29941a0.43833 0.438 0 0 0 0.25759 0h11.433v-1.7115h-10.277v-1.3505c0.1057-0.20592 0.21237-0.41202 0.34792-0.60505 0.69929-0.99576 1.8149-1.8367 3.9876-2.2731 2.2899-0.46002 3.6231-1.2765 4.3356-2.2999 0.71247-1.0233 0.76498-2.2032 0.74936-3.2626a0.42825 0.42792 0 0 0-0.48006-0.42788v0.00167a0.42825 0.42792 0 0 0-0.37635 0.45295c0.0149 1.0113-0.03657 1.9613-0.58878 2.7545-0.55222 0.79315-1.6364 1.4907-3.8003 1.9255-2.0111 0.404-3.322 1.188-4.175 2.1511v-7.3358z" fill="#bebebe"/>
 <path d="m13.14 2.8524c-0.78318 2.0131-0.66971 4.3171-5.1384 5.1346-4.4864 0.98147-5.0765 3.2604-5.5633 5.5742l10.702 0.03844v-10.747z" fill="#bebebe" fill-opacity=".5"/>
</svg>
