<svg version="1.1" viewBox="0 0 16 16" xmlns="http://www.w3.org/2000/svg">
 <path d="m8 4.0984c-1.1741 0-2.2895 0.31444-3.3453 0.94219-1.0558 0.62767-1.8953 1.4582-2.5203 2.4922-0.08926 0.15804-0.13438 0.31364-0.13438 0.46719s0.045115 0.30923 0.13438 0.46719c0.62499 1.0341 1.4645 1.8647 2.5203 2.4922 1.0558 0.62775 2.1712 0.94219 3.3453 0.94219s2.2896-0.31216 3.3453-0.9375c1.0558-0.62534 1.8953-1.4583 2.5203-2.4969 0.089261-0.15796 0.13438-0.31355 0.13438-0.46719 0-0.15355-0.045114-0.30915-0.13438-0.46719-0.62507-1.034-1.4646-1.8645-2.5203-2.4922-1.0558-0.62767-2.1712-0.94219-3.3453-0.94219zm-2.5922 1.5109c-0.2723 0.46955-0.40781 0.97708-0.40781 1.5234 0 0.83542 0.29424 1.5499 0.88125 2.1437 0.58701 0.59383 1.2929 0.89062 2.1188 0.89062 0.82595 0 1.5317-0.29688 2.1188-0.89062 0.58718-0.59375 0.88125-1.3083 0.88125-2.1437 0-0.54636-0.13543-1.054-0.40781-1.5234 1.0223 0.52824 1.8714 1.325 2.55 2.3906-0.59359 0.92571-1.3377 1.6622-2.2328 2.2109-0.89507 0.54852-1.8647 0.82344-2.9094 0.82344s-2.0143-0.27483-2.9094-0.82344c-0.89507-0.54861-1.6391-1.2852-2.2328-2.2109 0.67858-1.0657 1.5277-1.8624 2.55-2.3906z" fill="#da4453"/>
</svg>
