<svg version="1.1" viewBox="0 0 16 16" xmlns="http://www.w3.org/2000/svg">
 <path d="m7.9999 2c-2.3661 0-4.2844 1.9183-4.2844 4.2844 0 0.14788 0.012475 0.28411 0.02704 0.42814 0.011739 0.14331 0.031203 0.28927 0.054081 0.42964 0.49053 3.0113 2.4896 5.1441 4.2033 6.8578 1.7137-1.7137 3.7128-3.8464 4.2033-6.8578 0.02288-0.14038 0.04233-0.28634 0.05408-0.42964 0.01465-0.14403 0.02704-0.28026 0.02704-0.42814 0-2.3661-1.9183-4.2844-4.2844-4.2844zm0 2.5719c0.94648 0 1.7141 0.76612 1.7141 1.7126 0 0.94645-0.76762 1.7141-1.7141 1.7141-0.94645 0-1.7141-0.76762-1.7141-1.7141 0-0.94645 0.76762-1.7126 1.7141-1.7126z" fill="#bebebe"/>
</svg>
