<svg version="1.1" viewBox="0 0 16 16" xmlns="http://www.w3.org/2000/svg">
 <path d="m8.2097 2.4188c-0.22172 0-0.42642 0.11886-0.53721 0.31102l-5.3797 6.4447c-0.11109 0.19202-0.11109 0.43014 0 0.62203 0.11079 0.19238 0.31549 0.31102 0.53721 0.31102h10.759c0.22168 0 0.42607-0.11903 0.53721-0.31102 0.0552-0.09651 0.08294-0.20379 0.08294-0.31102 0-0.10755-0.02764-0.21304-0.08294-0.30913l-5.3797-6.4465c-0.11076-0.19215-0.31546-0.31102-0.53721-0.31102zm-5.7453 9.0346c-0.13717 0-0.24881 0.11167-0.24881 0.24881v2.0489c0 0.13717 0.11164 0.24881 0.24881 0.24881h11.491c0.13733 1.93e-4 0.24881-0.11164 0.24882-0.24881v-2.0489c0-0.13714-0.11148-0.24881-0.24882-0.24881z" fill="#bebebe"/>
</svg>
