<svg version="1.1" viewBox="0 0 16 16" xmlns="http://www.w3.org/2000/svg">
 <path d="m10.825 2.5659c-0.07584 6.161e-4 -0.125 0.00936-0.125 0.00936l-7.875 1.4c-0.78785 0.13892-0.65 0.925-0.65 0.925l0.4 2.3h9.75l-0.7-3.975c-0.10419-0.59089-0.5724-0.66122-0.8-0.65938zm-8.825 5.4344v0.8h0.8v-0.8zm1.6 0v0.8h0.8v-0.8zm1.6 0v0.8h0.8v-0.8zm1.6 0v0.8h0.8v-0.8zm1.6 0v0.8h0.8v-0.8zm1.6 0v0.8h0.8v-0.8zm1.6 0v0.8h0.8v-0.8zm1.6 0v0.8h0.8v-0.8zm-10.2 1.6 0.575 3.175c0.13892 0.78785 0.925 0.65 0.925 0.65l7.875-1.4s0.78892-0.13715 0.65-0.925l-0.275-1.5z" fill="#bebebe"/>
</svg>
