<svg version="1.1" viewBox="0 0 16 16" xmlns="http://www.w3.org/2000/svg">
 <path d="m12.203 3.4004c-0.20648 0-0.38095 0.072297-0.52539 0.2168l-5.0781 5.0879-2.2773-2.2852c-0.14454-0.14453-0.31899-0.2168-0.52539-0.2168-0.20648 0-0.38281 0.072297-0.52734 0.2168l-1.0527 1.0527c-0.14454 0.14453-0.2168 0.32085-0.2168 0.52734 0 0.20639 0.072297 0.38291 0.2168 0.52734l2.8027 2.8008 1.0527 1.0547c0.14443 0.14453 0.32085 0.2168 0.52734 0.2168 0.20639 0 0.38086-0.072395 0.52539-0.2168l1.0527-1.0547 5.6055-5.6035c0.14444-0.14453 0.2168-0.32086 0.2168-0.52734 9e-5 -0.2064-0.072397-0.38085-0.2168-0.52539l-1.0527-1.0547c-0.14444-0.14454-0.32094-0.2168-0.52734-0.2168z" fill="#bebebe"/>
</svg>
