<svg version="1.1" viewBox="0 0 16 16" xmlns="http://www.w3.org/2000/svg">
 <path d="m14 6.7128c0-0.17792-0.13454-0.28848-0.40399-0.33176l-3.62-0.52641-1.6226-3.2813c-0.09126-0.19713-0.20916-0.29565-0.35336-0.29565-0.14419 0-0.26201 0.09852-0.35336 0.29565l-1.6227 3.2813-3.6202 0.52641c-0.26918 0.043277-0.40381 0.15384-0.40381 0.33176 0 0.10099 0.060102 0.21642 0.18031 0.34618l2.625 2.5529-0.62014 3.6058c-0.00965 0.06737-0.014428 0.11551-0.014428 0.14427 0 0.101 0.025227 0.18624 0.075681 0.25608 0.050454 0.06977 0.12614 0.10454 0.22713 0.10454 0.086569 0 0.1827-0.02871 0.28847-0.08648l3.2379-1.7021 3.2382 1.7021c0.10108 0.05769 0.19721 0.08648 0.28838 0.08648 0.09639 0 0.1696-0.03471 0.22005-0.10454 0.05037-0.06977 0.07559-0.15508 0.07559-0.25608 0-0.06249-0.0024-0.11055-0.0073-0.14427l-0.62023-3.6058 2.6178-2.5529c0.12518-0.12499 0.18758-0.24041 0.18758-0.34618z" fill="#bebebe"/>
</svg>
