<svg version="1.1" viewBox="0 0 16 16" xmlns="http://www.w3.org/2000/svg">
 <path d="m7.9999 2c-0.89711 0-1.6364 0.73925-1.6364 1.6364 0 0.89711 0.73926 1.6364 1.6364 1.6364s1.6364-0.73925 1.6364-1.6364c0-0.89711-0.73925-1.6364-1.6364-1.6364zm0 4.3636c-0.89711 0-1.6364 0.73925-1.6364 1.6364 0 0.89711 0.73926 1.6364 1.6364 1.6364s1.6364-0.73925 1.6364-1.6364c0-0.89711-0.73925-1.6364-1.6364-1.6364zm0 4.3636c-0.89711 0-1.6364 0.73925-1.6364 1.6364s0.73926 1.6364 1.6364 1.6364 1.6364-0.73926 1.6364-1.6364-0.73925-1.6364-1.6364-1.6364z" fill="#bebebe"/>
</svg>
