<svg version="1.1" viewBox="0 0 16 16" xmlns="http://www.w3.org/2000/svg">
 <g fill="#bebebe">
  <path d="m2.7997 2.6376c-0.71797 0-1.2997 0.58171-1.2997 1.2997 8.1e-6 0.71797 0.58172 1.2997 1.2997 1.2997 0.71797 0 1.2997-0.58171 1.2997-1.2997-8.2e-6 -0.71797-0.58172-1.2997-1.2997-1.2997z"/>
  <path d="m5.5625 3.1248173c-.4430969 0-.8125.3694032-.8125.8125 0 .443105.3694031.8125.8125.8125h8.125c.443105 0 .8125-.369395.8125-.8125 0-.4430968-.369395-.8124919-.8125-.8125z"/>
  <path d="m2.7997 6.7001c-0.71797 0-1.2997 0.58171-1.2997 1.2997 0 0.71797 0.58171 1.2997 1.2997 1.2997 0.71797 0 1.2997-0.58171 1.2997-1.2997 0-0.71797-0.58171-1.2997-1.2997-1.2997z"/>
  <path d="m5.5625 7.1873177c-.4430969 0-.8125.3693949-.8125.8125 0 .4430969.3694031.8125.8125.8125h8.125c.443105 0 .8125-.3694031.8125-.8125 0-.4431051-.369395-.8125-.8125-.8125z"/>
  <path d="m2.7997 10.763c-0.71797 0-1.2997 0.58171-1.2997 1.2997 0 0.71797 0.58171 1.2997 1.2997 1.2997 0.71797 0 1.2997-0.58171 1.2997-1.2997 0-0.71797-0.58171-1.2997-1.2997-1.2997z"/>
  <path d="m5.5625 11.249817c-.4430969 0-.8125.369395-.8125.8125 0 .443098.3694031.8125.8125.8125h8.125c.443105 0 .8125-.369402.8125-.8125 0-.443105-.369395-.8125-.8125-.8125z"/>
 </g>
</svg>
