<svg version="1.1" viewBox="0 0 16 16" xmlns="http://www.w3.org/2000/svg">
 <path d="m3.2687 2.9252c-0.69556 0-1.2687 0.57317-1.2687 1.2687 0 0.69556 0.57317 1.2687 1.2687 1.2687 0.69556 0 1.2687-0.57317 1.2687-1.2687 0-0.69556-0.57317-1.2687-1.2687-1.2687zm4.652 0.84581v3.3833h-2.5903l4.2819 5.9207 4.3877-5.9207h-2.696v-3.3833zm-4.652 2.5374c-0.69556 0-1.2687 0.57317-1.2687 1.2687 0 0.69556 0.57317 1.2687 1.2687 1.2687 0.69556 0 1.2687-0.57317 1.2687-1.2687 0-0.69556-0.57317-1.2687-1.2687-1.2687zm0 3.3833c-0.69556 0-1.2687 0.57317-1.2687 1.2687s0.57317 1.2687 1.2687 1.2687c0.69556 0 1.2687-0.57317 1.2687-1.2687s-0.57317-1.2687-1.2687-1.2687z" fill="#bebebe"/>
</svg>
