<?xml version="1.0" encoding="UTF-8" standalone="no"?>
<svg
   inkscape:export-ydpi="96"
   inkscape:export-xdpi="96"
   width="400"
   height="300"
   id="svg11300"
   sodipodi:version="0.32"
   inkscape:version="1.1.2 (0a00cf5339, 2022-02-04)"
   sodipodi:docname="preferences-system-bluetooth.svg"
   inkscape:output_extension="org.inkscape.output.svg.inkscape"
   version="1.0"
   style="display:inline;enable-background:new"
   inkscape:export-filename="C:\Users\sblav\Pictures\vertical oblong template.png"
   xmlns:inkscape="http://www.inkscape.org/namespaces/inkscape"
   xmlns:sodipodi="http://sodipodi.sourceforge.net/DTD/sodipodi-0.dtd"
   xmlns:xlink="http://www.w3.org/1999/xlink"
   xmlns="http://www.w3.org/2000/svg"
   xmlns:svg="http://www.w3.org/2000/svg"
   xmlns:rdf="http://www.w3.org/1999/02/22-rdf-syntax-ns#"
   xmlns:cc="http://creativecommons.org/ns#"
   xmlns:dc="http://purl.org/dc/elements/1.1/">
  <title
     id="title3004">Yaru Icon Theme Template</title>
  <sodipodi:namedview
     stroke="#ef2929"
     fill="#f57900"
     id="base"
     pagecolor="#ffffff"
     bordercolor="#000000"
     borderopacity="0.25490196"
     inkscape:pageopacity="0"
     inkscape:pageshadow="2"
     inkscape:zoom="2"
     inkscape:cx="187.75"
     inkscape:cy="156.25"
     inkscape:current-layer="layer6"
     showgrid="false"
     inkscape:grid-bbox="true"
     inkscape:document-units="px"
     inkscape:showpageshadow="false"
     inkscape:window-width="1904"
     inkscape:window-height="1011"
     inkscape:window-x="0"
     inkscape:window-y="32"
     width="400px"
     height="300px"
     inkscape:snap-nodes="true"
     inkscape:snap-bbox="true"
     gridtolerance="10000"
     inkscape:object-nodes="true"
     inkscape:snap-grids="true"
     showguides="true"
     inkscape:guide-bbox="true"
     inkscape:window-maximized="1"
     inkscape:bbox-paths="true"
     inkscape:snap-bbox-midpoints="true"
     inkscape:snap-global="true"
     inkscape:object-paths="true"
     inkscape:snap-intersection-paths="true"
     inkscape:snap-smooth-nodes="true"
     inkscape:pagecheckerboard="false"
     showborder="false"
     inkscape:document-rotation="0">
    <inkscape:grid
       spacingy="1"
       spacingx="1"
       id="grid5883"
       type="xygrid"
       enabled="true"
       visible="true"
       empspacing="4"
       snapvisiblegridlinesonly="true"
       originx="0"
       originy="0" />
    <inkscape:grid
       type="xygrid"
       id="grid11592"
       empspacing="2"
       visible="true"
       enabled="false"
       spacingx="0.5"
       spacingy="0.5"
       color="#ff0000"
       opacity="0.1254902"
       empcolor="#ff0000"
       empopacity="0.25098039"
       snapvisiblegridlinesonly="true"
       originx="0"
       originy="0" />
  </sodipodi:namedview>
  <defs
     id="defs3">
    <clipPath
       clipPathUnits="userSpaceOnUse"
       id="clipPath9430">
      <path
         sodipodi:nodetypes="sssssssss"
         inkscape:connector-curvature="0"
         id="path9432"
         d="m 166.0625,-196 h 179.875 C 491.2348,-196 512,-175.28677 512,-30.125 v 148.25 C 512,263.28618 491.2348,284 345.9375,284 H 166.0625 C 20.7652,284 0,263.28618 0,118.125 V -30.125 C 0,-175.28677 20.7652,-196 166.0625,-196 Z"
         style="color:#000000;display:inline;overflow:visible;visibility:visible;fill:#ffffff;fill-opacity:1;fill-rule:nonzero;stroke:none;stroke-width:1;marker:none;enable-background:new" />
    </clipPath>
    <clipPath
       clipPathUnits="userSpaceOnUse"
       id="clipPath1082">
      <path
         sodipodi:nodetypes="sssssssss"
         inkscape:connector-curvature="0"
         id="path1084"
         d="M 361.9375,-212 C 507.2348,-212 528,-191.28677 528,-46.125 V 70.125 C 528,215.28618 507.2348,236 361.9375,236 H 214.0625 C 68.7652,236 48,215.28618 48,70.125 V -46.125 C 48,-191.28677 68.7652,-212 214.0625,-212 Z"
         style="display:inline;opacity:1;fill:#8c59d9;fill-opacity:1;stroke:none;stroke-width:2;stroke-linecap:round;stroke-linejoin:round;stroke-miterlimit:4;stroke-dasharray:none;stroke-dashoffset:0;stroke-opacity:1;enable-background:new" />
    </clipPath>
    <clipPath
       clipPathUnits="userSpaceOnUse"
       id="clipPath994">
      <path
         style="color:#000000;display:inline;overflow:visible;visibility:visible;fill:#cdcdcd;fill-opacity:1;fill-rule:nonzero;stroke:none;stroke-width:2;stroke-miterlimit:4;stroke-dasharray:none;stroke-opacity:1;marker:none;enable-background:accumulate"
         d="m 335.73108,62 c -8.82418,0 -9.77365,0.90635 -9.7304,9.74838 V 84 96.25162 c -0.0433,8.84203 0.90622,9.74838 9.7304,9.74838 h 16.53919 c 8.82418,0 9.7304,-0.90625 9.7304,-9.74838 V 84 71.74838 C 362.00067,62.90625 361.09445,62 352.27027,62 Z"
         id="path996"
         inkscape:connector-curvature="0"
         sodipodi:nodetypes="scccssscsss" />
    </clipPath>
    <clipPath
       clipPathUnits="userSpaceOnUse"
       id="clipPath959">
      <path
         style="color:#000000;display:inline;overflow:visible;visibility:visible;opacity:1;fill:#46a926;fill-opacity:1;fill-rule:nonzero;stroke:none;stroke-width:2;stroke-miterlimit:4;stroke-dasharray:none;stroke-opacity:1;marker:none;enable-background:accumulate"
         d="m 330.1929,133.99999 c -5.61538,0 -6.21958,0.57678 -6.19206,6.20352 v 7.79648 7.79648 c -0.0276,5.62673 0.57668,6.20351 6.19206,6.20351 h 11.615 c 5.6154,0 6.19208,-0.5767 6.19208,-6.20351 v -7.79648 -7.79648 c 0,-5.6268 -0.5767,-6.20352 -6.19208,-6.20352 z"
         id="path961"
         inkscape:connector-curvature="0"
         sodipodi:nodetypes="scccssscsss" />
    </clipPath>
    <clipPath
       clipPathUnits="userSpaceOnUse"
       id="clipPath971">
      <path
         style="color:#000000;display:inline;overflow:visible;visibility:visible;opacity:1;fill:#46a926;fill-opacity:1;fill-rule:nonzero;stroke:none;stroke-width:2;stroke-miterlimit:4;stroke-dasharray:none;stroke-opacity:1;marker:none;enable-background:accumulate"
         d="m 327.8652,189 c -4.41209,0 -4.88682,0.45318 -4.8652,4.87419 V 200 206.12581 C 322.9783,210.54682 323.45311,211 327.8652,211 h 8.2696 C 340.54689,211 341,210.54688 341,206.12581 V 200 193.87419 C 341,189.45313 340.54688,189 336.13479,189 Z"
         id="path973"
         inkscape:connector-curvature="0"
         sodipodi:nodetypes="scccssscsss" />
    </clipPath>
    <linearGradient
       id="linearGradient4336-3">
      <stop
         style="stop-color:#5884f4;stop-opacity:1"
         offset="0"
         id="stop4338-8" />
      <stop
         id="stop4344-3"
         offset="0.27800092"
         style="stop-color:#5884f4;stop-opacity:1" />
      <stop
         style="stop-color:#2f5fdd;stop-opacity:1"
         offset="0.27800092"
         id="stop4346-3" />
      <stop
         id="stop4350-1"
         offset="0.70735365"
         style="stop-color:#2f5fdd;stop-opacity:1" />
      <stop
         id="stop4348-6"
         offset="0.70936078"
         style="stop-color:#234db8;stop-opacity:1" />
      <stop
         style="stop-color:#234db8;stop-opacity:1"
         offset="1"
         id="stop4340-0" />
    </linearGradient>
    <clipPath
       clipPathUnits="userSpaceOnUse"
       id="clipPath994-1">
      <path
         style="color:#000000;display:inline;overflow:visible;visibility:visible;fill:#cdcdcd;fill-opacity:1;fill-rule:nonzero;stroke:none;stroke-width:2;stroke-miterlimit:4;stroke-dasharray:none;stroke-opacity:1;marker:none;enable-background:accumulate"
         d="m 335.73108,62 c -8.82418,0 -9.77365,0.90635 -9.7304,9.74838 V 84 96.25162 c -0.0433,8.84203 0.90622,9.74838 9.7304,9.74838 h 16.53919 c 8.82418,0 9.7304,-0.90625 9.7304,-9.74838 V 84 71.74838 C 362.00067,62.90625 361.09445,62 352.27027,62 Z"
         id="path996-8"
         inkscape:connector-curvature="0"
         sodipodi:nodetypes="scccssscsss" />
    </clipPath>
    <linearGradient
       id="linearGradient3797-5">
      <stop
         id="stop3801"
         offset="0"
         style="stop-color:#f7f7f7;stop-opacity:1" />
      <stop
         id="stop3799"
         offset="1"
         style="stop-color:#e6e6e6;stop-opacity:1" />
    </linearGradient>
    <linearGradient
       inkscape:collect="always"
       xlink:href="#linearGradient4338-7"
       id="linearGradient1686"
       x1="320.99991"
       y1="92.000153"
       x2="366.99991"
       y2="76.000153"
       gradientUnits="userSpaceOnUse"
       gradientTransform="rotate(90,344.00003,84.000121)" />
    <linearGradient
       inkscape:collect="always"
       xlink:href="#linearGradient4338-7"
       id="linearGradient1688"
       x1="321.00003"
       y1="153.00002"
       x2="351.00003"
       y2="143.00002"
       gradientUnits="userSpaceOnUse"
       gradientTransform="rotate(90,336.00002,148)" />
    <linearGradient
       inkscape:collect="always"
       xlink:href="#linearGradient4338-7"
       id="linearGradient1690"
       x1="320.9993"
       y1="202.99928"
       x2="342.9993"
       y2="196.99928"
       gradientUnits="userSpaceOnUse"
       gradientTransform="rotate(90,331.99929,199.99999)" />
    <linearGradient
       inkscape:collect="always"
       xlink:href="#linearGradient4338-7"
       id="linearGradient1694"
       x1="39.997601"
       y1="203.99699"
       x2="263.99759"
       y2="107.997"
       gradientUnits="userSpaceOnUse"
       gradientTransform="rotate(90,151.9973,155.9997)" />
    <linearGradient
       inkscape:collect="always"
       id="linearGradient4338-7">
      <stop
         id="stop4342-6"
         offset="0"
         style="stop-color:#5884f4;stop-opacity:1" />
      <stop
         id="stop4340-2"
         offset="1"
         style="stop-color:#80a3fa;stop-opacity:1" />
    </linearGradient>
    <filter
       inkscape:collect="always"
       style="color-interpolation-filters:sRGB"
       id="filter58449"
       x="-0.047999425"
       width="1.0959989"
       y="-0.048000575"
       height="1.0960012">
      <feGaussianBlur
         inkscape:collect="always"
         stdDeviation="4.4800539"
         id="feGaussianBlur58451" />
    </filter>
    <filter
       inkscape:collect="always"
       style="color-interpolation-filters:sRGB"
       id="filter58492"
       x="-0.011999856"
       width="1.0239997"
       y="-0.012000144"
       height="1.0240003">
      <feGaussianBlur
         inkscape:collect="always"
         stdDeviation="1.1200135"
         id="feGaussianBlur58494" />
    </filter>
    <linearGradient
       inkscape:collect="always"
       xlink:href="#linearGradient4338-7"
       id="linearGradient1690-2"
       x1="320.9993"
       y1="202.99928"
       x2="342.9993"
       y2="196.99928"
       gradientUnits="userSpaceOnUse"
       gradientTransform="rotate(90,357.99929,225.99999)" />
    <linearGradient
       id="a"
       x2="1"
       gradientTransform="matrix(-2.7316479,-223.91965,175.24527,-3.4903631,151.9973,267.9997)"
       gradientUnits="userSpaceOnUse">
      <stop
         stop-color="#026e8b"
         offset="0"
         id="stop2" />
      <stop
         stop-color="#1dc2f3"
         offset="1"
         id="stop4" />
    </linearGradient>
    <linearGradient
       id="a-3"
       x2="1"
       gradientTransform="matrix(-3.4903631,-223.91965,223.91965,-3.4903631,113,213.5)"
       gradientUnits="userSpaceOnUse">
      <stop
         stop-color="#026e8b"
         offset="0"
         id="stop2-6" />
      <stop
         stop-color="#1dc2f3"
         offset="1"
         id="stop4-7" />
    </linearGradient>
    <linearGradient
       id="a-5"
       x2="1"
       gradientTransform="matrix(-0.716771,-45.9835,45.9835,-0.716771,24,47)"
       gradientUnits="userSpaceOnUse">
      <stop
         stop-color="#026e8b"
         offset="0"
         id="stop2-3" />
      <stop
         stop-color="#1dc2f3"
         offset="1"
         id="stop4-5" />
    </linearGradient>
    <linearGradient
       inkscape:collect="always"
       xlink:href="#a-5"
       id="linearGradient10372"
       gradientUnits="userSpaceOnUse"
       gradientTransform="matrix(-0.70118902,-44.983859,44.983859,-0.70118902,344.00003,106.50012)"
       x2="1" />
    <linearGradient
       inkscape:collect="always"
       xlink:href="#a-5"
       id="linearGradient10380"
       gradientUnits="userSpaceOnUse"
       gradientTransform="matrix(-0.45187737,-28.989598,28.989598,-0.45187737,336.00002,162.5)"
       x2="1" />
    <linearGradient
       inkscape:collect="always"
       xlink:href="#a-5"
       id="linearGradient10388"
       gradientUnits="userSpaceOnUse"
       gradientTransform="matrix(-0.32722154,-20.992467,20.992467,-0.32722154,382.99932,211.5003)"
       x2="1" />
    <linearGradient
       inkscape:collect="always"
       xlink:href="#a-5"
       id="linearGradient10396"
       gradientUnits="userSpaceOnUse"
       gradientTransform="matrix(-0.3583855,-22.99175,22.99175,-0.3583855,331.99932,211.5003)"
       x2="1" />
    <linearGradient
       inkscape:collect="always"
       xlink:href="#a-5"
       id="linearGradient10404"
       gradientUnits="userSpaceOnUse"
       gradientTransform="matrix(-0.2181477,-13.994978,13.994978,-0.2181477,328,251.0676)"
       x2="1" />
    <linearGradient
       inkscape:collect="always"
       xlink:href="#a-5"
       id="linearGradient10406"
       gradientUnits="userSpaceOnUse"
       gradientTransform="matrix(-3.4903631,-223.91965,223.91965,-3.4903631,151.9973,267.9997)"
       x2="1" />
  </defs>
  <metadata
     id="metadata4">
    <rdf:RDF>
      <cc:Work
         rdf:about="">
        <dc:format>image/svg+xml</dc:format>
        <dc:type
           rdf:resource="http://purl.org/dc/dcmitype/StillImage" />
        <dc:creator>
          <cc:Agent>
            <dc:title>Yaru Team, based on the Suru template by Sam Hewitt and original Suru designs by Matthieu James</dc:title>
          </cc:Agent>
        </dc:creator>
        <dc:source />
        <cc:license
           rdf:resource="http://creativecommons.org/licenses/by-sa/4.0/" />
        <dc:title>Yaru Icon Theme Template</dc:title>
        <dc:subject>
          <rdf:Bag />
        </dc:subject>
        <dc:date />
        <dc:rights>
          <cc:Agent>
            <dc:title />
          </cc:Agent>
        </dc:rights>
        <dc:publisher>
          <cc:Agent>
            <dc:title />
          </cc:Agent>
        </dc:publisher>
        <dc:identifier />
        <dc:relation />
        <dc:language />
        <dc:coverage />
        <dc:description />
        <dc:contributor>
          <cc:Agent>
            <dc:title />
          </cc:Agent>
        </dc:contributor>
      </cc:Work>
      <cc:Work
         rdf:about="">
        <dc:format>image/svg+xml</dc:format>
        <dc:type
           rdf:resource="http://purl.org/dc/dcmitype/StillImage" />
      </cc:Work>
      <cc:License
         rdf:about="http://creativecommons.org/licenses/by-sa/4.0/">
        <cc:permits
           rdf:resource="http://creativecommons.org/ns#Reproduction" />
        <cc:permits
           rdf:resource="http://creativecommons.org/ns#Distribution" />
        <cc:requires
           rdf:resource="http://creativecommons.org/ns#Notice" />
        <cc:requires
           rdf:resource="http://creativecommons.org/ns#Attribution" />
        <cc:permits
           rdf:resource="http://creativecommons.org/ns#DerivativeWorks" />
        <cc:requires
           rdf:resource="http://creativecommons.org/ns#ShareAlike" />
      </cc:License>
    </rdf:RDF>
  </metadata>
  <g
     style="display:inline"
     inkscape:groupmode="layer"
     inkscape:label="Icon"
     id="layer1">
    <g
       style="display:none"
       inkscape:label="Baseplate"
       id="layer7"
       inkscape:groupmode="layer">
      <text
         y="-8.2548828"
         xml:space="preserve"
         x="19.006836"
         style="font-style:normal;font-variant:normal;font-weight:normal;font-stretch:normal;line-height:0%;font-family:'DejaVu Sans';-inkscape-font-specification:'DejaVu Sans';display:inline;fill:#000000;fill-opacity:1;stroke:none;enable-background:new"
         inkscape:label="context"
         id="context"><tspan
           style="font-style:normal;font-variant:normal;font-weight:normal;font-stretch:normal;font-size:18px;line-height:1.25;font-family:'DejaVu Sans';-inkscape-font-specification:'DejaVu Sans'"
           y="-8.2548828"
           x="19.006836"
           sodipodi:role="line"
           id="tspan3933">categories</tspan></text>
      <text
         y="-8.2548828"
         xml:space="preserve"
         x="146.48828"
         style="font-style:normal;font-variant:normal;font-weight:bold;font-stretch:normal;line-height:0%;font-family:'DejaVu Sans';-inkscape-font-specification:'DejaVu Sans Bold';text-align:start;writing-mode:lr-tb;text-anchor:start;display:inline;fill:#000000;fill-opacity:1;stroke:none;enable-background:new"
         inkscape:label="icon-name"
         id="icon-name"><tspan
           style="font-style:normal;font-variant:normal;font-weight:bold;font-stretch:normal;font-size:18px;line-height:1.25;font-family:'DejaVu Sans';-inkscape-font-specification:'DejaVu Sans Bold'"
           y="-8.2548828"
           x="146.48828"
           sodipodi:role="line"
           id="tspan3937">preferences-system-bluetooth</tspan></text>
      <rect
         style="display:inline;overflow:visible;visibility:visible;fill:#cdcdcd;fill-opacity:1;fill-rule:nonzero;stroke:none;stroke-width:2;marker:none;enable-background:accumulate"
         id="rect16x16"
         width="16"
         height="16"
         x="320"
         y="236"
         inkscape:label="16x16" />
      <rect
         style="display:inline;overflow:visible;visibility:visible;fill:#cdcdcd;fill-opacity:1;fill-rule:nonzero;stroke:none;stroke-width:2;marker:none;enable-background:accumulate"
         id="rect24x24"
         width="24"
         height="24"
         x="320"
         y="188"
         inkscape:label="24x24" />
      <rect
         style="display:inline;overflow:visible;visibility:visible;fill:#cdcdcd;fill-opacity:1;fill-rule:nonzero;stroke:none;stroke-width:2;marker:none;enable-background:accumulate"
         id="rect32x32"
         width="32"
         height="32"
         x="320"
         y="132"
         inkscape:label="32x32" />
      <rect
         inkscape:label="48x48"
         y="60"
         x="320"
         height="48"
         width="48"
         id="rect48x48"
         style="display:inline;overflow:visible;visibility:visible;fill:#cdcdcd;fill-opacity:1;fill-rule:nonzero;stroke:none;stroke-width:2;marker:none;enable-background:accumulate" />
      <rect
         style="display:inline;overflow:visible;visibility:visible;fill:#cdcdcd;fill-opacity:1;fill-rule:nonzero;stroke:none;stroke-width:2;marker:none;enable-background:accumulate"
         id="rect3951"
         width="256"
         height="256"
         x="24"
         y="28"
         inkscape:label="48x48" />
      <rect
         style="display:inline;overflow:visible;visibility:visible;fill:#cdcdcd;fill-opacity:1;fill-rule:nonzero;stroke:none;stroke-width:1.83333;marker:none;enable-background:accumulate"
         id="rect24x24-1"
         width="22"
         height="22"
         x="372"
         y="190"
         inkscape:label="24x24" />
    </g>
    <g
       inkscape:groupmode="layer"
       id="layer9"
       inkscape:label="Optional outline for white icons"
       style="display:none">
      <path
         style="color:#000000;display:inline;overflow:visible;visibility:visible;opacity:0.2;fill:#000000;fill-opacity:1;fill-rule:nonzero;stroke:#000000;stroke-width:4;stroke-miterlimit:4;stroke-dasharray:none;marker:none;enable-background:accumulate"
         d="m 225.07297,43.99969 c 35.29673,0 39.09461,3.62542 38.92162,38.99353 v 73.00647 73.00648 c 0.17299,35.36812 -3.62489,38.99353 -38.92162,38.99353 H 78.916218 c -35.29671,0 -38.92161,-3.625 -38.92161,-38.99353 V 155.99969 82.99322 c 0,-35.36853 3.6249,-38.99353 38.92161,-38.99353 z"
         id="rect4158-9"
         inkscape:connector-curvature="0"
         sodipodi:nodetypes="scccssscsss" />
    </g>
    <g
       inkscape:groupmode="layer"
       id="layer8"
       inkscape:label="Backgrounds"
       style="display:none;opacity:0.996184">
      <path
         style="color:#000000;font-style:normal;font-variant:normal;font-weight:normal;font-stretch:normal;font-size:medium;line-height:normal;font-family:sans-serif;font-variant-ligatures:normal;font-variant-position:normal;font-variant-caps:normal;font-variant-numeric:normal;font-variant-alternates:normal;font-feature-settings:normal;text-indent:0;text-align:start;text-decoration:none;text-decoration-line:none;text-decoration-style:solid;text-decoration-color:#000000;letter-spacing:normal;word-spacing:normal;text-transform:none;writing-mode:lr-tb;direction:ltr;text-orientation:mixed;dominant-baseline:auto;baseline-shift:baseline;text-anchor:start;white-space:normal;shape-padding:0;clip-rule:nonzero;display:inline;overflow:visible;visibility:visible;opacity:0.1;isolation:auto;mix-blend-mode:normal;color-interpolation:sRGB;color-interpolation-filters:linearRGB;solid-color:#000000;solid-opacity:1;vector-effect:none;fill:#000000;fill-opacity:1;fill-rule:nonzero;stroke:none;stroke-width:2;stroke-linecap:butt;stroke-linejoin:miter;stroke-miterlimit:4;stroke-dasharray:none;stroke-dashoffset:0;stroke-opacity:1;marker:none;color-rendering:auto;image-rendering:auto;shape-rendering:auto;text-rendering:auto;enable-background:accumulate"
         d="m 378.45275,191 c -1.2321,0 -2.21668,0.0221 -3.06999,0.14144 -0.85332,0.11937 -1.62809,0.35533 -2.21066,0.83967 -0.58256,0.48436 -0.86983,1.13381 -1.01188,1.84587 -0.14202,0.71207 -0.16501,1.53239 -0.15897,2.56202 v 5.61066 4.6143 c -0.006,1.02762 0.0171,1.84735 0.15897,2.55843 0.14203,0.71208 0.42931,1.36152 1.01188,1.84587 0.58258,0.48434 1.35734,0.7203 2.21066,0.83967 0.85331,0.11936 1.83789,0.14144 3.06999,0.14144 h 9.09542 c 1.2321,0 2.21381,-0.022 3.0657,-0.14144 0.85187,-0.11947 1.62795,-0.35683 2.2085,-0.84146 0.58057,-0.48464 0.86451,-1.13152 1.00758,-1.84228 0.14307,-0.71077 -0.23943,-1.61626 0.16972,-2.56023 v -4.61429 -5.61425 c 0,-1.02883 -0.0266,-1.84946 -0.16972,-2.56023 -0.14307,-0.71076 -0.42701,-1.35765 -1.00758,-1.84228 -0.58055,-0.48464 -1.35661,-0.722 -2.2085,-0.84147 C 389.76197,191.02197 388.78028,191 387.54817,191 Z"
         id="path995-6"
         inkscape:connector-curvature="0"
         sodipodi:nodetypes="sccccccccssscccscscccss" />
      <path
         style="color:#000000;display:inline;overflow:visible;visibility:visible;opacity:0.6;fill:#000000;fill-opacity:1;fill-rule:nonzero;stroke:#000000;stroke-width:2;stroke-miterlimit:4;stroke-dasharray:none;marker:none;enable-background:accumulate"
         d="m 324.61253,237 c -3.27563,0 -3.62809,0.29118 -3.61203,3.13171 v 3.93588 3.93588 c -0.016,2.84054 0.3364,3.13172 3.61203,3.13172 h 6.77543 c 3.27564,0 3.61204,-0.29114 3.61204,-3.13172 v -3.93588 -3.93588 C 335,237.29114 334.66359,237 331.38796,237 Z"
         id="path918-3"
         inkscape:connector-curvature="0"
         sodipodi:nodetypes="scccssscsss" />
      <path
         style="color:#000000;display:inline;overflow:visible;visibility:visible;opacity:0.1;fill:#000000;fill-opacity:1;fill-rule:nonzero;stroke:none;stroke-width:1;marker:none;filter:url(#filter58492);enable-background:accumulate"
         d="m 225.07297,44.99999 c 35.29673,0 39.09461,3.62542 38.92162,38.99353 v 73.00647 73.00648 C 264.16758,265.37459 260.3697,269 225.07297,269 H 78.916218 c -35.29671,0 -38.92161,-3.625 -38.92161,-38.99353 V 156.99999 83.99352 c 0,-35.36853 3.6249,-38.99353 38.92161,-38.99353 z"
         id="rect4158-7"
         inkscape:connector-curvature="0"
         sodipodi:nodetypes="scccssscsss" />
      <path
         style="color:#000000;display:inline;overflow:visible;visibility:visible;opacity:0.2;fill:#000000;fill-opacity:1;fill-rule:nonzero;stroke:none;stroke-width:1;marker:none;filter:url(#filter58449);enable-background:accumulate"
         d="m 225.07297,44.99999 c 35.29673,0 39.09461,3.62542 38.92162,38.99353 v 73.00647 73.00648 C 264.16758,265.37459 260.3697,269 225.07297,269 H 78.916218 c -35.29671,0 -38.92161,-3.625 -38.92161,-38.99353 V 156.99999 83.99352 c 0,-35.36853 3.6249,-38.99353 38.92161,-38.99353 z"
         id="rect4158-1"
         inkscape:connector-curvature="0"
         sodipodi:nodetypes="scccssscsss" />
      <path
         style="color:#000000;font-style:normal;font-variant:normal;font-weight:normal;font-stretch:normal;font-size:medium;line-height:normal;font-family:sans-serif;font-variant-ligatures:normal;font-variant-position:normal;font-variant-caps:normal;font-variant-numeric:normal;font-variant-alternates:normal;font-feature-settings:normal;text-indent:0;text-align:start;text-decoration:none;text-decoration-line:none;text-decoration-style:solid;text-decoration-color:#000000;letter-spacing:normal;word-spacing:normal;text-transform:none;writing-mode:lr-tb;direction:ltr;text-orientation:mixed;dominant-baseline:auto;baseline-shift:baseline;text-anchor:start;white-space:normal;shape-padding:0;clip-rule:nonzero;display:inline;overflow:visible;visibility:visible;opacity:0.1;isolation:auto;mix-blend-mode:normal;color-interpolation:sRGB;color-interpolation-filters:linearRGB;solid-color:#000000;solid-opacity:1;vector-effect:none;fill:#000000;fill-opacity:1;fill-rule:nonzero;stroke:none;stroke-width:2;stroke-linecap:butt;stroke-linejoin:miter;stroke-miterlimit:4;stroke-dasharray:none;stroke-dashoffset:0;stroke-opacity:1;marker:none;color-rendering:auto;image-rendering:auto;shape-rendering:auto;text-rendering:auto;enable-background:accumulate"
         d="m 326.45275,189.00048 c -1.2321,0 -2.21668,0.0221 -3.06999,0.14144 -0.85332,0.11937 -1.62809,0.35533 -2.21066,0.83967 -0.58256,0.48436 -0.86983,1.13381 -1.01188,1.84587 -0.14202,0.71207 -0.16501,1.53239 -0.15897,2.56202 v 7.61066 4.6143 c -0.006,1.02762 0.0171,1.84735 0.15897,2.55843 0.14203,0.71208 0.42931,1.36152 1.01188,1.84587 0.58258,0.48434 1.35734,0.7203 2.21066,0.83967 0.85331,0.11936 1.83789,0.14144 3.06999,0.14144 h 11.09542 c 1.2321,0 2.21381,-0.022 3.0657,-0.14144 0.85187,-0.11947 1.62795,-0.35683 2.2085,-0.84146 0.58057,-0.48464 0.86451,-1.13152 1.00758,-1.84228 0.14307,-0.71077 0.16972,-1.5314 0.16972,-2.56023 v -4.61429 -7.61425 c 0,-1.02883 -0.0266,-1.84946 -0.16972,-2.56023 -0.14307,-0.71076 -0.42701,-1.35765 -1.00758,-1.84228 -0.58055,-0.48464 -1.35661,-0.722 -2.2085,-0.84147 -0.8519,-0.11947 -1.83359,-0.14144 -3.0657,-0.14144 z"
         id="path995"
         inkscape:connector-curvature="0"
         sodipodi:nodetypes="sccccccccssscccscscccss" />
      <path
         style="color:#000000;font-style:normal;font-variant:normal;font-weight:normal;font-stretch:normal;font-size:medium;line-height:normal;font-family:sans-serif;font-variant-ligatures:normal;font-variant-position:normal;font-variant-caps:normal;font-variant-numeric:normal;font-variant-alternates:normal;font-feature-settings:normal;text-indent:0;text-align:start;text-decoration:none;text-decoration-line:none;text-decoration-style:solid;text-decoration-color:#000000;letter-spacing:normal;word-spacing:normal;text-transform:none;writing-mode:lr-tb;direction:ltr;text-orientation:mixed;dominant-baseline:auto;baseline-shift:baseline;text-anchor:start;white-space:normal;shape-padding:0;clip-rule:nonzero;display:inline;overflow:visible;visibility:visible;opacity:0.1;isolation:auto;mix-blend-mode:normal;color-interpolation:sRGB;color-interpolation-filters:linearRGB;solid-color:#000000;solid-opacity:1;vector-effect:none;fill:#000000;fill-opacity:1;fill-rule:nonzero;stroke:none;stroke-width:2;stroke-linecap:butt;stroke-linejoin:miter;stroke-miterlimit:4;stroke-dasharray:none;stroke-dashoffset:0;stroke-opacity:1;marker:none;color-rendering:auto;image-rendering:auto;shape-rendering:auto;text-rendering:auto;enable-background:accumulate"
         d="m 329.30094,134 c -1.63949,0 -2.94082,0.0308 -4.04505,0.19141 -1.10422,0.16064 -2.06697,0.4726 -2.78308,1.09179 -0.71611,0.61919 -1.0805,1.45612 -1.26421,2.41407 -0.18374,0.95795 -0.21537,2.08705 -0.20733,3.51171 V 149 v 7.79688 c -0.009,1.42131 0.0239,2.5495 0.20733,3.50585 0.18371,0.95796 0.5481,1.79488 1.26421,2.41407 0.71611,0.61919 1.67886,0.93115 2.78308,1.09179 1.10423,0.16065 2.40556,0.19141 4.04505,0.19141 h 13.40164 c 1.63949,0 2.93835,-0.0307 4.04054,-0.19141 1.10219,-0.16075 2.06274,-0.47425 2.77633,-1.09375 0.71357,-0.6195 1.07457,-1.45363 1.25969,-2.41015 C 350.96429,159.34816 351,158.22066 351,156.79688 V 149 141.20312 c 0,-1.42378 -0.0358,-2.55128 -0.22086,-3.50781 -0.18512,-0.95653 -0.54612,-1.79065 -1.25969,-2.41015 -0.71359,-0.61951 -1.67414,-0.933 -2.77633,-1.09375 C 345.64093,134.03065 344.34207,134 342.70258,134 Z"
         id="path999"
         inkscape:connector-curvature="0"
         sodipodi:nodetypes="scscccccscsscccscscscss" />
      <path
         style="color:#000000;font-style:normal;font-variant:normal;font-weight:normal;font-stretch:normal;font-size:medium;line-height:normal;font-family:sans-serif;font-variant-ligatures:normal;font-variant-position:normal;font-variant-caps:normal;font-variant-numeric:normal;font-variant-alternates:normal;font-feature-settings:normal;text-indent:0;text-align:start;text-decoration:none;text-decoration-line:none;text-decoration-style:solid;text-decoration-color:#000000;letter-spacing:normal;word-spacing:normal;text-transform:none;writing-mode:lr-tb;direction:ltr;text-orientation:mixed;dominant-baseline:auto;baseline-shift:baseline;text-anchor:start;white-space:normal;shape-padding:0;clip-rule:nonzero;display:inline;overflow:visible;visibility:visible;opacity:0.1;isolation:auto;mix-blend-mode:normal;color-interpolation:sRGB;color-interpolation-filters:linearRGB;solid-color:#000000;solid-opacity:1;vector-effect:none;fill:#000000;fill-opacity:1;fill-rule:nonzero;stroke:none;stroke-width:2;stroke-linecap:butt;stroke-linejoin:miter;stroke-miterlimit:4;stroke-dasharray:none;stroke-dashoffset:0;stroke-opacity:1;marker:none;color-rendering:auto;image-rendering:auto;shape-rendering:auto;text-rendering:auto;enable-background:accumulate"
         d="m 333.65776,62 c -2.6221,0 -4.68675,0.05009 -6.38561,0.286735 -1.69887,0.236639 -3.08904,0.680503 -4.10735,1.523515 -1.0183,0.843013 -1.55577,1.996072 -1.83828,3.406406 -0.28252,1.410336 -0.33767,3.127346 -0.32482,5.308412 v 12.474816 12.480783 c -0.0127,2.177715 0.0426,3.893853 0.32482,5.302673 0.28251,1.41034 0.81998,2.5634 1.83828,3.40641 1.01831,0.84301 2.40848,1.28688 4.10735,1.52351 1.69888,0.23665 3.76351,0.28674 6.38561,0.28674 h 20.68618 c 2.62213,0 4.68568,-0.05 6.38104,-0.28674 1.69534,-0.23674 3.08126,-0.6821 4.09581,-1.52542 1.01457,-0.84331 1.54885,-1.99555 1.83367,-3.4045 C 366.93929,101.37441 367,99.660878 367,97.480667 V 84.999884 72.519333 c 0,-2.180211 -0.0608,-3.893733 -0.34554,-5.302677 -0.28482,-1.408942 -0.81911,-2.561177 -1.83368,-3.404494 -1.01455,-0.843317 -2.40047,-1.288685 -4.09582,-1.525427 C 359.02962,62.049992 356.96605,62 354.34394,62 Z"
         id="path1020"
         inkscape:connector-curvature="0"
         sodipodi:nodetypes="sccsccccccsscccscsccsss" />
      <path
         style="color:#000000;display:inline;overflow:visible;visibility:visible;fill:url(#linearGradient1686);fill-opacity:1;fill-rule:nonzero;stroke:none;stroke-width:1;marker:none;enable-background:accumulate"
         d="m 333.33517,61.500049 c -10.01116,0 -11.88667,0.90635 -11.83407,9.74838 v 12.75157 12.75181 c -0.0527,8.842031 1.82291,9.748381 11.83407,9.748381 h 21.3308 c 10.00866,0 11.83405,-0.90625 11.83405,-9.748381 v -12.75181 -12.75157 c 0,-8.84213 -1.82539,-9.74838 -11.83406,-9.74838 z"
         id="path964"
         inkscape:connector-curvature="0"
         sodipodi:nodetypes="scccssscsss" />
      <path
         style="color:#000000;display:inline;overflow:visible;visibility:visible;fill:url(#linearGradient1694);fill-opacity:1;fill-rule:nonzero;stroke:none;stroke-width:1;marker:none;enable-background:accumulate"
         d="m 225.07297,43.999694 c 35.29673,0 39.09461,3.62542 38.92162,38.99353 v 73.006466 73.00648 c 0.17299,35.36812 -3.62489,38.99353 -38.92162,38.99353 H 78.916218 c -35.29671,0 -38.92161,-3.625 -38.92161,-38.99353 V 155.99969 82.993224 c 0,-35.36853 3.6249,-38.99353 38.92161,-38.99353 z"
         id="rect4158"
         inkscape:connector-curvature="0"
         sodipodi:nodetypes="scccssscsss" />
      <path
         sodipodi:nodetypes="scccssscsss"
         inkscape:connector-curvature="0"
         id="path914"
         d="m 326.17688,188.49945 c -5.14666,0 -5.70043,0.43262 -5.67521,4.65309 v 5.84793 7.84761 c -0.0253,4.22046 0.52855,4.65307 5.67521,4.65307 h 11.64568 c 5.14665,0 5.67521,-0.43255 5.67521,-4.65307 v -7.84761 -5.84793 c 0,-4.22051 -0.52857,-4.65309 -5.67522,-4.65309 z"
         style="color:#000000;display:inline;overflow:visible;visibility:visible;fill:url(#linearGradient1690);fill-opacity:1;fill-rule:nonzero;stroke:none;stroke-width:1;marker:none;enable-background:accumulate" />
      <path
         style="color:#000000;display:inline;overflow:visible;visibility:visible;fill:url(#linearGradient1688);fill-opacity:1;fill-rule:nonzero;stroke:none;stroke-width:1;marker:none;enable-background:accumulate"
         d="m 329.12711,133.5 c -6.45163,0 -7.6603,0.58409 -7.62639,6.28227 v 8.21765 8.21781 c -0.034,5.69818 1.17476,6.28227 7.62639,6.28227 h 13.74651 c 6.45003,0 7.62639,-0.58403 7.62639,-6.28227 v -8.21781 -8.21765 c 0,-5.69824 -1.17636,-6.28227 -7.62639,-6.28227 z"
         id="path964-7"
         inkscape:connector-curvature="0"
         sodipodi:nodetypes="scccssscsss" />
      <path
         style="color:#000000;display:inline;overflow:visible;visibility:visible;fill:#5884f4;fill-opacity:1;fill-rule:nonzero;stroke:none;stroke-width:0.942346;marker:none;enable-background:accumulate"
         d="m 324.61253,237 c -3.27563,0 -3.62809,0.29118 -3.61203,3.13171 v 3.93588 3.93588 c -0.016,2.84054 0.3364,3.13172 3.61203,3.13172 h 6.77543 c 3.27564,0 3.61204,-0.29114 3.61204,-3.13172 v -3.93588 -3.93588 C 335,237.29114 334.66359,237 331.38796,237 Z"
         id="path918"
         inkscape:connector-curvature="0"
         sodipodi:nodetypes="scccssscsss" />
      <path
         sodipodi:nodetypes="scccssscsss"
         inkscape:connector-curvature="0"
         id="path914-5"
         d="m 378.17688,190.49945 c -5.14666,0 -5.70043,0.43262 -5.67521,4.65309 v 3.84793 7.84761 c -0.0253,4.22046 0.52855,4.65307 5.67521,4.65307 h 9.64568 c 5.14665,0 5.67521,-0.43255 5.67521,-4.65307 v -7.84761 -3.84793 c 0,-4.22051 -0.52857,-4.65309 -5.67522,-4.65309 z"
         style="color:#000000;display:inline;overflow:visible;visibility:visible;opacity:1;fill:url(#linearGradient1690-2);fill-opacity:1;fill-rule:nonzero;stroke:none;stroke-width:1;marker:none;enable-background:accumulate" />
    </g>
    <g
       inkscape:groupmode="layer"
       id="layer6"
       inkscape:label="Pictograms and folds"
       style="display:inline">
      <ellipse
         cx="151.9973"
         cy="161.17117"
         rx="56.608696"
         ry="83.698082"
         fill="#ffffff"
         id="ellipse7"
         style="stroke-width:4.86957" />
      <path
         d="m 151.9973,43.999697 c -41.24035,0 -74.665046,33.429565 -74.665046,74.665043 v 74.66991 c 0,41.23548 33.424696,74.66505 74.665046,74.66505 41.24034,0 74.66504,-33.42957 74.66504,-74.66505 v -74.66991 c 0,-41.235478 -33.4247,-74.665043 -74.66504,-74.665043 z m 43.16382,139.459473 c 1.68,1.34887 2.65879,3.38922 2.65879,5.54644 0,2.15722 -0.97879,4.19756 -2.65879,5.54643 l -44.58574,35.73774 c -1.28556,1.03235 -2.85843,1.56313 -4.44591,1.56313 -1.04696,0 -2.09878,-0.22887 -3.07756,-0.70121 -2.464,-1.18331 -4.032,-3.67166 -4.032,-6.40835 v -51.03791 l -21.27027,17.19443 c -1.31478,1.06644 -2.89252,1.58261 -4.46539,1.58261 -2.06956,0 -4.12452,-0.90087 -5.53182,-2.63931 -2.46887,-3.05321 -1.99165,-7.53321 1.06156,-9.99721 l 29.48522,-23.83652 -29.48522,-23.83653 c -3.05321,-2.46887 -3.53043,-6.944 -1.06156,-9.99721 2.46887,-3.05322 6.944,-3.52557 9.99721,-1.0567 l 21.27027,17.18957 V 87.256045 c 0,-2.731826 1.568,-5.225044 4.032,-6.408348 2.464,-1.183304 5.3906,-0.847304 7.52347,0.861913 l 44.58574,35.74261 c 1.68,1.34887 2.65879,3.38922 2.65879,5.54643 0,2.15722 -0.97879,4.19757 -2.65879,5.54644 L 160.9086,155.9997 Z m -15.81635,5.54644 -26.10573,-20.93426 V 209.935 Z m 0,-66.00696 -26.10573,-20.93426 v 41.86365 z"
         fill="url(#a)"
         fill-rule="nonzero"
         id="path9"
         style="fill:url(#linearGradient10406);stroke-width:4.86957" />
      <ellipse
         cx="344.00003"
         cy="85.039032"
         rx="11.372283"
         ry="16.814348"
         fill="#ffffff"
         id="ellipse10366"
         style="stroke-width:0.978261" />
      <path
         d="m 344.00003,61.50012 c -8.28489,0 -14.99967,6.715761 -14.99967,14.999674 v 15.000652 c 0,8.283913 6.71478,14.999674 14.99967,14.999674 8.28489,0 14.99967,-6.715761 14.99967,-14.999674 V 76.499794 c 0,-8.283913 -6.71478,-14.999674 -14.99967,-14.999674 z m 8.67131,28.016413 c 0.3375,0.270978 0.53413,0.680869 0.53413,1.114239 0,0.43337 -0.19663,0.843261 -0.53413,1.114239 l -8.95696,7.179457 c -0.25826,0.207391 -0.57424,0.314021 -0.89315,0.314021 -0.21033,0 -0.42163,-0.04598 -0.61826,-0.140869 -0.495,-0.237718 -0.81,-0.737609 -0.81,-1.287391 V 87.557076 l -4.27305,3.45424 c -0.26413,0.214239 -0.58108,0.317934 -0.89706,0.317934 -0.41576,0 -0.82859,-0.180978 -1.11131,-0.530217 -0.49598,-0.61337 -0.40011,-1.51337 0.21326,-2.00837 l 5.92337,-4.788587 -5.92337,-4.788587 c -0.61337,-0.495978 -0.70924,-1.395 -0.21326,-2.008369 0.49598,-0.61337 1.395,-0.708261 2.00837,-0.212283 l 4.27305,3.453261 V 70.190011 c 0,-0.548804 0.315,-1.049674 0.81,-1.287391 0.495,-0.237718 1.08293,-0.170218 1.51141,0.173152 l 8.95696,7.180435 c 0.3375,0.270978 0.53413,0.680869 0.53413,1.114239 0,0.43337 -0.19663,0.843261 -0.53413,1.114239 l -6.88109,5.515435 z m -3.1774,1.114239 -5.24445,-4.205543 v 8.410108 z m 0,-13.260326 -5.24445,-4.205544 v 8.410109 z"
         fill="url(#a)"
         fill-rule="nonzero"
         id="path10368"
         style="fill:url(#linearGradient10372);stroke-width:0.978261" />
      <ellipse
         cx="336.00003"
         cy="148.66953"
         rx="7.3288045"
         ry="10.835913"
         fill="#ffffff"
         id="ellipse10374"
         style="stroke-width:0.630435" />
      <path
         d="m 336.00002,133.5 c -5.33915,0 -9.66645,4.32794 -9.66645,9.66646 v 9.66709 c 0,5.33852 4.3273,9.66645 9.66645,9.66645 5.33916,0 9.66646,-4.32793 9.66646,-9.66645 v -9.66709 c 0,-5.33852 -4.3273,-9.66646 -9.66646,-9.66646 z m 5.58818,18.05503 c 0.2175,0.17463 0.34422,0.43878 0.34422,0.71806 0,0.27928 -0.12672,0.54344 -0.34422,0.71807 l -5.77226,4.62676 c -0.16644,0.13365 -0.37007,0.20237 -0.57559,0.20237 -0.13554,0 -0.27172,-0.0296 -0.39843,-0.0908 -0.319,-0.15319 -0.522,-0.47534 -0.522,-0.82965 v -6.60758 l -2.75374,2.22606 c -0.17022,0.13807 -0.37448,0.20489 -0.57811,0.20489 -0.26794,0 -0.53398,-0.11663 -0.71618,-0.34169 -0.31963,-0.39529 -0.25784,-0.97529 0.13744,-1.29429 l 3.81728,-3.08597 -3.81728,-3.08598 c -0.39528,-0.31963 -0.45707,-0.899 -0.13744,-1.29429 0.31963,-0.39528 0.899,-0.45643 1.29429,-0.1368 l 2.75374,2.22544 v -6.60948 c 0,-0.35368 0.203,-0.67646 0.522,-0.82966 0.319,-0.15319 0.69789,-0.10969 0.97402,0.11159 l 5.77226,4.62739 c 0.2175,0.17463 0.34422,0.43879 0.34422,0.71807 0,0.27928 -0.12672,0.54343 -0.34422,0.71806 L 337.15372,148 Z m -2.04765,0.71806 -3.37976,-2.71024 v 5.41985 z m 0,-8.54554 -3.37976,-2.71024 v 5.41985 z"
         fill="url(#a)"
         fill-rule="nonzero"
         id="path10376"
         style="fill:url(#linearGradient10380);stroke-width:0.630435" />
      <ellipse
         cx="382.99933"
         cy="201.48512"
         rx="5.307065"
         ry="7.8466954"
         fill="#ffffff"
         id="ellipse10382"
         style="stroke-width:0.456522" />
      <path
         d="m 382.99932,190.5003 c -3.86628,0 -6.99985,3.13402 -6.99985,6.99985 v 7.0003 c 0,3.86583 3.13357,6.99985 6.99985,6.99985 3.86628,0 6.99985,-3.13402 6.99985,-6.99985 v -7.0003 c 0,-3.86583 -3.13357,-6.99985 -6.99985,-6.99985 z m 4.04661,13.07433 c 0.1575,0.12645 0.24926,0.31774 0.24926,0.51998 0,0.20224 -0.0918,0.39352 -0.24926,0.51997 l -4.17991,3.35042 c -0.12052,0.0968 -0.26798,0.14654 -0.41681,0.14654 -0.0981,0 -0.19676,-0.0215 -0.28852,-0.0657 -0.231,-0.11093 -0.378,-0.34422 -0.378,-0.60078 v -4.78481 l -1.99409,1.61198 c -0.12326,0.1 -0.27117,0.14837 -0.41863,0.14837 -0.19402,0 -0.38667,-0.0845 -0.5186,-0.24743 -0.23146,-0.28624 -0.18672,-0.70624 0.0995,-0.93724 l 2.76424,-2.23468 -2.76424,-2.23467 c -0.28624,-0.23146 -0.33098,-0.651 -0.0995,-0.93724 0.23145,-0.28624 0.651,-0.33052 0.93723,-0.0991 l 1.99409,1.61152 v -4.78618 c 0,-0.2561 0.147,-0.48984 0.378,-0.60078 0.231,-0.11093 0.50537,-0.0794 0.70533,0.0808 l 4.17991,3.35087 c 0.1575,0.12645 0.24926,0.31773 0.24926,0.51997 0,0.20224 -0.0918,0.39353 -0.24926,0.51998 l -3.21117,2.57387 z m -1.48278,0.51998 -2.44742,-1.96259 v 3.92472 z m 0,-6.18816 -2.44742,-1.96258 v 3.92471 z"
         fill="url(#a)"
         fill-rule="nonzero"
         id="path10384"
         style="fill:url(#linearGradient10388);stroke-width:0.456522" />
      <ellipse
         cx="331.99933"
         cy="200.5313"
         rx="5.8125"
         ry="8.5939999"
         fill="#ffffff"
         id="ellipse10390"
         style="stroke-width:0.5" />
      <path
         d="m 331.99932,188.5003 c -4.2345,0 -7.6665,3.4325 -7.6665,7.6665 v 7.667 c 0,4.234 3.432,7.6665 7.6665,7.6665 4.2345,0 7.6665,-3.4325 7.6665,-7.6665 v -7.667 c 0,-4.234 -3.432,-7.6665 -7.6665,-7.6665 z m 4.432,14.3195 c 0.1725,0.1385 0.273,0.348 0.273,0.5695 0,0.2215 -0.1005,0.431 -0.273,0.5695 l -4.578,3.6695 c -0.132,0.106 -0.2935,0.1605 -0.4565,0.1605 -0.1075,0 -0.2155,-0.0235 -0.316,-0.072 -0.253,-0.1215 -0.414,-0.377 -0.414,-0.658 v -5.2405 l -2.184,1.7655 c -0.135,0.1095 -0.297,0.1625 -0.4585,0.1625 -0.2125,0 -0.4235,-0.0925 -0.568,-0.271 -0.2535,-0.3135 -0.2045,-0.7735 0.109,-1.0265 l 3.0275,-2.4475 -3.0275,-2.4475 c -0.3135,-0.2535 -0.3625,-0.713 -0.109,-1.0265 0.2535,-0.3135 0.713,-0.362 1.0265,-0.1085 l 2.184,1.765 v -5.242 c 0,-0.2805 0.161,-0.5365 0.414,-0.658 0.253,-0.1215 0.5535,-0.087 0.7725,0.0885 l 4.578,3.67 c 0.1725,0.1385 0.273,0.348 0.273,0.5695 0,0.2215 -0.1005,0.431 -0.273,0.5695 l -3.517,2.819 z m -1.624,0.5695 -2.6805,-2.1495 v 4.2985 z m 0,-6.7775 -2.6805,-2.1495 v 4.2985 z"
         fill="url(#a)"
         fill-rule="nonzero"
         id="path10392"
         style="fill:url(#linearGradient10396);stroke-width:0.5" />
      <ellipse
         cx="328"
         cy="244.39081"
         rx="3.5380435"
         ry="5.2311306"
         fill="#ffffff"
         id="ellipse10398"
         style="stroke-width:0.304348" />
      <path
         d="m 328,237.0676 c -2.57752,0 -4.66657,2.08935 -4.66657,4.66656 v 4.66687 c 0,2.57722 2.08905,4.66657 4.66657,4.66657 2.57752,0 4.66656,-2.08935 4.66656,-4.66657 v -4.66687 c 0,-2.57721 -2.08904,-4.66656 -4.66656,-4.66656 z m 2.69774,8.71622 c 0.105,0.0843 0.16617,0.21182 0.16617,0.34665 0,0.13482 -0.0612,0.26235 -0.16617,0.34665 l -2.78661,2.23361 c -0.0804,0.0645 -0.17865,0.0977 -0.27787,0.0977 -0.0654,0 -0.13118,-0.0143 -0.19235,-0.0438 -0.154,-0.074 -0.252,-0.22948 -0.252,-0.40052 v -3.18987 l -1.32939,1.07465 c -0.0822,0.0666 -0.18078,0.0989 -0.27909,0.0989 -0.12935,0 -0.25778,-0.0563 -0.34574,-0.16495 -0.1543,-0.19083 -0.12447,-0.47083 0.0663,-0.62483 l 1.84283,-1.48978 -1.84283,-1.48979 c -0.19082,-0.1543 -0.22065,-0.434 -0.0663,-0.62482 0.15431,-0.19083 0.434,-0.22035 0.62483,-0.066 l 1.32939,1.07435 v -3.19078 c 0,-0.17074 0.098,-0.32657 0.252,-0.40052 0.154,-0.074 0.33691,-0.053 0.47022,0.0539 l 2.78661,2.23391 c 0.105,0.0843 0.16617,0.21183 0.16617,0.34665 0,0.13483 -0.0612,0.26235 -0.16617,0.34665 l -2.14079,1.71592 z m -0.98852,0.34665 -1.63161,-1.30839 v 2.61647 z m 0,-4.12544 -1.63161,-1.30839 v 2.61648 z"
         fill="url(#a)"
         fill-rule="nonzero"
         id="path10400"
         style="fill:url(#linearGradient10404);stroke-width:0.304348" />
    </g>
    <g
       inkscape:groupmode="layer"
       id="layer4"
       inkscape:label="Borders"
       style="display:none;opacity:1">
      <path
         style="color:#000000;display:inline;overflow:visible;visibility:visible;opacity:0.3;fill:#ffffff;fill-opacity:1;fill-rule:nonzero;stroke:none;stroke-width:1;marker:none;enable-background:accumulate"
         d="m 78.92188,43.999698 c -35.296728,0 -39.09487,3.62603 -38.92188,38.99414 v 2 c -0.17299,-35.36811 3.625152,-38.99414 38.92188,-38.99414 h 146.15624 c 35.29673,0 38.92188,3.62561 38.92188,38.99414 v -2 c 0,-35.36853 -3.62515,-38.99414 -38.92188,-38.99414 z"
         id="path931"
         inkscape:connector-curvature="0"
         sodipodi:nodetypes="sccsscsss" />
      <path
         style="color:#000000;display:inline;overflow:visible;visibility:visible;opacity:0.2;fill:#000000;fill-opacity:1;fill-rule:nonzero;stroke:none;stroke-width:1;marker:none;enable-background:accumulate"
         d="m 78.92728,267.9997 c -35.296731,0 -39.094875,-3.62603 -38.921885,-38.99414 v -2 c -0.17299,35.36811 3.625154,38.99414 38.921885,38.99414 h 146.15624 c 35.29673,0 38.92188,-3.62561 38.92188,-38.99414 v 2 c 0,35.36853 -3.62515,38.99414 -38.92188,38.99414 z"
         id="path931-8"
         inkscape:connector-curvature="0"
         sodipodi:nodetypes="sccsscsss" />
      <path
         style="color:#000000;display:inline;overflow:visible;visibility:visible;opacity:0.4;fill:none;fill-opacity:1;fill-rule:nonzero;stroke:#000000;stroke-width:1;stroke-miterlimit:4;stroke-dasharray:none;stroke-opacity:1;marker:none;enable-background:accumulate"
         d="m 333.33517,61.500047 c -10.01116,0 -11.88667,0.90635 -11.83407,9.74838 V 84 96.75181 c -0.0527,8.84203 1.82291,9.74838 11.83407,9.74838 h 21.3308 c 10.00866,0 11.83405,-0.90625 11.83405,-9.74838 V 84 71.248427 c 0,-8.84213 -1.82539,-9.74838 -11.83406,-9.74838 z"
         id="path958"
         inkscape:connector-curvature="0"
         sodipodi:nodetypes="scccssscsss" />
      <path
         style="color:#000000;display:inline;overflow:visible;visibility:visible;opacity:0.4;fill:none;fill-opacity:1;fill-rule:nonzero;stroke:#000000;stroke-width:1;stroke-miterlimit:4;stroke-dasharray:none;stroke-opacity:1;marker:none;enable-background:accumulate"
         d="m 329.12711,133.5 c -6.45163,0 -7.6603,0.58409 -7.62639,6.28227 v 8.21765 8.21781 c -0.034,5.69818 1.17476,6.28227 7.62639,6.28227 h 13.74651 c 6.45003,0 7.62639,-0.58403 7.62639,-6.28227 v -8.21781 -8.21765 c 0,-5.69824 -1.17636,-6.28227 -7.62639,-6.28227 z"
         id="path958-1"
         inkscape:connector-curvature="0"
         sodipodi:nodetypes="scccssscsss" />
      <path
         style="color:#000000;display:inline;overflow:visible;visibility:visible;opacity:0.4;fill:none;fill-opacity:1;fill-rule:nonzero;stroke:#000000;stroke-width:1;stroke-miterlimit:4;stroke-dasharray:none;stroke-opacity:1;marker:none;enable-background:accumulate"
         d="m 337.97659,211.50015 c 4.67187,0 5.5471,-0.42296 5.52255,-4.54923 v -7.95037 -5.95084 c 0.0245,-4.12627 -0.85068,-4.54923 -5.52255,-4.54923 h -11.95364 c -4.67071,0 -5.52256,0.42291 -5.52256,4.54923 v 5.95084 7.95037 c 0,4.12632 0.85185,4.54923 5.52256,4.54923 z"
         id="path958-6"
         inkscape:connector-curvature="0"
         sodipodi:nodetypes="scccssscsss" />
      <path
         style="color:#000000;display:inline;overflow:visible;visibility:visible;opacity:0.4;fill:none;fill-opacity:1;fill-rule:nonzero;stroke:#000000;stroke-width:1;stroke-miterlimit:4;stroke-dasharray:none;stroke-opacity:1;marker:none;enable-background:accumulate"
         d="m 387.97659,211.50015 c 4.67187,0 5.5471,-0.42296 5.52255,-4.54923 v -7.95037 -3.95084 c 0.0245,-4.12627 -0.85068,-4.54923 -5.52255,-4.54923 h -9.95364 c -4.67071,0 -5.52256,0.42291 -5.52256,4.54923 v 3.95084 7.95037 c 0,4.12632 0.85185,4.54923 5.52256,4.54923 z"
         id="path958-6-9"
         inkscape:connector-curvature="0"
         sodipodi:nodetypes="scccssscsss" />
    </g>
    <g
       inkscape:groupmode="layer"
       id="layer5"
       inkscape:label="Highlights"
       style="display:inline;opacity:0.7" />
  </g>
</svg>
