<?xml version="1.0" encoding="UTF-8" standalone="no"?>
<svg
   inkscape:export-ydpi="96"
   inkscape:export-xdpi="96"
   width="400"
   height="300"
   id="svg11300"
   sodipodi:version="0.32"
   inkscape:version="1.1.2 (0a00cf5339, 2022-02-04)"
   sodipodi:docname="preferences-desktop-accessibility.svg"
   inkscape:output_extension="org.inkscape.output.svg.inkscape"
   version="1.0"
   style="display:inline;enable-background:new"
   inkscape:export-filename="C:\Users\sblav\Pictures\preferences-system-network.png"
   xmlns:inkscape="http://www.inkscape.org/namespaces/inkscape"
   xmlns:sodipodi="http://sodipodi.sourceforge.net/DTD/sodipodi-0.dtd"
   xmlns:xlink="http://www.w3.org/1999/xlink"
   xmlns="http://www.w3.org/2000/svg"
   xmlns:svg="http://www.w3.org/2000/svg"
   xmlns:rdf="http://www.w3.org/1999/02/22-rdf-syntax-ns#"
   xmlns:cc="http://creativecommons.org/ns#"
   xmlns:dc="http://purl.org/dc/elements/1.1/">
  <title
     id="title3004">Yaru Icon Theme Template</title>
  <sodipodi:namedview
     stroke="#ef2929"
     fill="#f57900"
     id="base"
     pagecolor="#ffffff"
     bordercolor="#000000"
     borderopacity="0.25490196"
     inkscape:pageopacity="0"
     inkscape:pageshadow="2"
     inkscape:zoom="2.8284271"
     inkscape:cx="287.96924"
     inkscape:cy="90.332891"
     inkscape:current-layer="layer7"
     showgrid="false"
     inkscape:grid-bbox="true"
     inkscape:document-units="px"
     inkscape:showpageshadow="false"
     inkscape:window-width="1904"
     inkscape:window-height="1011"
     inkscape:window-x="0"
     inkscape:window-y="32"
     width="400px"
     height="300px"
     inkscape:snap-nodes="true"
     inkscape:snap-bbox="true"
     gridtolerance="10000"
     inkscape:object-nodes="true"
     inkscape:snap-grids="true"
     showguides="true"
     inkscape:guide-bbox="true"
     inkscape:window-maximized="1"
     inkscape:bbox-paths="true"
     inkscape:snap-bbox-midpoints="true"
     inkscape:snap-global="true"
     inkscape:object-paths="true"
     inkscape:snap-intersection-paths="true"
     inkscape:snap-smooth-nodes="true"
     inkscape:pagecheckerboard="false"
     showborder="false"
     inkscape:document-rotation="0">
    <inkscape:grid
       spacingy="1"
       spacingx="1"
       id="grid5883"
       type="xygrid"
       enabled="true"
       visible="true"
       empspacing="4"
       snapvisiblegridlinesonly="true"
       originx="0"
       originy="0" />
    <inkscape:grid
       type="xygrid"
       id="grid11592"
       empspacing="2"
       visible="true"
       enabled="false"
       spacingx="0.5"
       spacingy="0.5"
       color="#ff0000"
       opacity="0.1254902"
       empcolor="#ff0000"
       empopacity="0.25098039"
       snapvisiblegridlinesonly="true"
       originx="0"
       originy="0" />
  </sodipodi:namedview>
  <defs
     id="defs3">
    <linearGradient
       inkscape:collect="always"
       id="linearGradient927">
      <stop
         style="stop-color:#ffffff;stop-opacity:1;"
         offset="0"
         id="stop923" />
      <stop
         id="stop933"
         offset="0.125"
         style="stop-color:#ffffff;stop-opacity:0.09803922" />
      <stop
         id="stop931"
         offset="0.92500001"
         style="stop-color:#ffffff;stop-opacity:0.09803922" />
      <stop
         style="stop-color:#ffffff;stop-opacity:0.49803922"
         offset="1"
         id="stop925" />
    </linearGradient>
    <linearGradient
       inkscape:collect="always"
       xlink:href="#linearGradient927"
       id="linearGradient8590"
       gradientUnits="userSpaceOnUse"
       gradientTransform="matrix(0.23913043,0,0,0.23913032,321.04348,61.043494)"
       x1="96"
       y1="4.0000062"
       x2="96"
       y2="188" />
    <linearGradient
       inkscape:collect="always"
       xlink:href="#linearGradient927"
       id="linearGradient8590-3"
       gradientUnits="userSpaceOnUse"
       gradientTransform="matrix(0.15217394,0,0,0.15217387,321.3913,133.39129)"
       x1="96"
       y1="4.0000062"
       x2="96"
       y2="188" />
    <linearGradient
       inkscape:collect="always"
       xlink:href="#linearGradient927"
       id="linearGradient8590-3-3"
       gradientUnits="userSpaceOnUse"
       gradientTransform="matrix(0.11956515,0,0,0.11956513,320.52176,188.52174)"
       x1="95.999878"
       y1="3.9999957"
       x2="95.999878"
       y2="188.00014" />
    <linearGradient
       inkscape:collect="always"
       xlink:href="#linearGradient927"
       id="linearGradient8590-3-3-4"
       gradientUnits="userSpaceOnUse"
       gradientTransform="matrix(0.0760869,0,0,0.07608688,320.69566,236.69567)"
       x1="96"
       y1="4.0000062"
       x2="96"
       y2="188" />
    <filter
       inkscape:collect="always"
       style="color-interpolation-filters:sRGB"
       id="filter48952"
       x="-0.048"
       width="1.096"
       y="-0.048"
       height="1.096">
      <feGaussianBlur
         inkscape:collect="always"
         stdDeviation="4.48"
         id="feGaussianBlur48954" />
    </filter>
    <filter
       inkscape:collect="always"
       style="color-interpolation-filters:sRGB"
       id="filter48967"
       x="-0.012"
       width="1.024"
       y="-0.012"
       height="1.024">
      <feGaussianBlur
         inkscape:collect="always"
         stdDeviation="1.12"
         id="feGaussianBlur48969" />
    </filter>
    <linearGradient
       id="a"
       x2="1"
       gradientTransform="matrix(0,-224.00049,224.00049,0,107.10041,268.00001)"
       gradientUnits="userSpaceOnUse">
      <stop
         stop-color="#006783"
         offset="0"
         id="stop2" />
      <stop
         stop-color="#20ccff"
         offset="1"
         id="stop4" />
    </linearGradient>
    <linearGradient
       inkscape:collect="always"
       xlink:href="#a"
       id="linearGradient9879"
       gradientUnits="userSpaceOnUse"
       gradientTransform="matrix(0,-45.000099,45.000099,0,399.62008,106.5)"
       x2="1" />
    <linearGradient
       inkscape:collect="always"
       xlink:href="#a"
       id="linearGradient9883"
       gradientUnits="userSpaceOnUse"
       gradientTransform="matrix(0,-29.000064,29.000064,0,371.84405,162.5)"
       x2="1" />
    <linearGradient
       inkscape:collect="always"
       xlink:href="#a"
       id="linearGradient9887"
       gradientUnits="userSpaceOnUse"
       gradientTransform="matrix(0,-23.000051,23.000051,0,360.42804,211.5)"
       x2="1" />
    <linearGradient
       inkscape:collect="always"
       xlink:href="#a"
       id="linearGradient9891"
       gradientUnits="userSpaceOnUse"
       gradientTransform="matrix(0,-15.000033,15.000033,0,346.54002,251.5)"
       x2="1" />
    <linearGradient
       inkscape:collect="always"
       xlink:href="#a"
       id="linearGradient9973"
       gradientUnits="userSpaceOnUse"
       gradientTransform="matrix(0,-224.00049,224.00049,0,428.86442,268.00001)"
       x2="1" />
  </defs>
  <metadata
     id="metadata4">
    <rdf:RDF>
      <cc:Work
         rdf:about="">
        <dc:format>image/svg+xml</dc:format>
        <dc:type
           rdf:resource="http://purl.org/dc/dcmitype/StillImage" />
        <dc:creator>
          <cc:Agent>
            <dc:title>Yaru Team, based on the Suru template by Sam Hewitt and original Suru designs by Matthieu James</dc:title>
          </cc:Agent>
        </dc:creator>
        <dc:source />
        <cc:license
           rdf:resource="http://creativecommons.org/licenses/by-sa/4.0/" />
        <dc:title>Yaru Icon Theme Template</dc:title>
        <dc:subject>
          <rdf:Bag />
        </dc:subject>
        <dc:date />
        <dc:rights>
          <cc:Agent>
            <dc:title />
          </cc:Agent>
        </dc:rights>
        <dc:publisher>
          <cc:Agent>
            <dc:title />
          </cc:Agent>
        </dc:publisher>
        <dc:identifier />
        <dc:relation />
        <dc:language />
        <dc:coverage />
        <dc:description />
        <dc:contributor>
          <cc:Agent>
            <dc:title />
          </cc:Agent>
        </dc:contributor>
      </cc:Work>
      <cc:Work
         rdf:about="">
        <dc:format>image/svg+xml</dc:format>
        <dc:type
           rdf:resource="http://purl.org/dc/dcmitype/StillImage" />
      </cc:Work>
      <cc:License
         rdf:about="http://creativecommons.org/licenses/by-sa/4.0/">
        <cc:permits
           rdf:resource="http://creativecommons.org/ns#Reproduction" />
        <cc:permits
           rdf:resource="http://creativecommons.org/ns#Distribution" />
        <cc:requires
           rdf:resource="http://creativecommons.org/ns#Notice" />
        <cc:requires
           rdf:resource="http://creativecommons.org/ns#Attribution" />
        <cc:permits
           rdf:resource="http://creativecommons.org/ns#DerivativeWorks" />
        <cc:requires
           rdf:resource="http://creativecommons.org/ns#ShareAlike" />
      </cc:License>
    </rdf:RDF>
  </metadata>
  <g
     style="display:inline"
     inkscape:groupmode="layer"
     inkscape:label="Icon"
     id="layer1">
    <g
       style="display:none"
       inkscape:label="Baseplate"
       id="layer7"
       inkscape:groupmode="layer">
      <text
         y="-8.2548828"
         xml:space="preserve"
         x="19.006836"
         style="font-style:normal;font-variant:normal;font-weight:normal;font-stretch:normal;line-height:0%;font-family:'DejaVu Sans';-inkscape-font-specification:'DejaVu Sans';display:inline;fill:#000000;fill-opacity:1;stroke:none;enable-background:new"
         inkscape:label="context"
         id="context"><tspan
           style="font-style:normal;font-variant:normal;font-weight:normal;font-stretch:normal;font-size:18px;line-height:1.25;font-family:'DejaVu Sans';-inkscape-font-specification:'DejaVu Sans'"
           y="-8.2548828"
           x="19.006836"
           sodipodi:role="line"
           id="tspan3933">categories</tspan></text>
      <text
         y="-8.2548828"
         xml:space="preserve"
         x="146.48828"
         style="font-style:normal;font-variant:normal;font-weight:bold;font-stretch:normal;line-height:0%;font-family:'DejaVu Sans';-inkscape-font-specification:'DejaVu Sans Bold';text-align:start;writing-mode:lr-tb;text-anchor:start;display:inline;fill:#000000;fill-opacity:1;stroke:none;enable-background:new"
         inkscape:label="icon-name"
         id="icon-name"><tspan
           style="font-style:normal;font-variant:normal;font-weight:bold;font-stretch:normal;font-size:18px;line-height:1.25;font-family:'DejaVu Sans';-inkscape-font-specification:'DejaVu Sans Bold'"
           y="-8.2548828"
           x="146.48828"
           sodipodi:role="line"
           id="tspan3937">preferences-desktop-accessibility</tspan></text>
      <rect
         style="display:inline;overflow:visible;visibility:visible;fill:#cdcdcd;fill-opacity:1;fill-rule:nonzero;stroke:none;stroke-width:2;marker:none;enable-background:accumulate"
         id="rect16x16"
         width="16"
         height="16"
         x="320"
         y="236"
         inkscape:label="16x16" />
      <rect
         style="display:inline;overflow:visible;visibility:visible;fill:#cdcdcd;fill-opacity:1;fill-rule:nonzero;stroke:none;stroke-width:2;marker:none;enable-background:accumulate"
         id="rect24x24"
         width="24"
         height="24"
         x="320"
         y="188"
         inkscape:label="24x24" />
      <rect
         style="display:inline;overflow:visible;visibility:visible;fill:#cdcdcd;fill-opacity:1;fill-rule:nonzero;stroke:none;stroke-width:2;marker:none;enable-background:accumulate"
         id="rect32x32"
         width="32"
         height="32"
         x="320"
         y="132"
         inkscape:label="32x32" />
      <rect
         inkscape:label="48x48"
         y="60"
         x="320"
         height="48"
         width="48"
         id="rect48x48"
         style="display:inline;overflow:visible;visibility:visible;fill:#cdcdcd;fill-opacity:1;fill-rule:nonzero;stroke:none;stroke-width:2;marker:none;enable-background:accumulate" />
      <rect
         style="display:inline;overflow:visible;visibility:visible;fill:#cdcdcd;fill-opacity:1;fill-rule:nonzero;stroke:none;stroke-width:2;marker:none;enable-background:accumulate"
         id="rect3951"
         width="256"
         height="256"
         x="24"
         y="28"
         inkscape:label="48x48" />
    </g>
    <g
       inkscape:groupmode="layer"
       id="layer3"
       inkscape:label="Optional outline for white icons"
       style="display:none">
      <circle
         style="display:inline;opacity:0.2;fill:#000000;fill-opacity:1;stroke:#000000;stroke-width:4;stroke-linecap:round;stroke-linejoin:round;stroke-miterlimit:4;stroke-dasharray:none;stroke-opacity:1;enable-background:new"
         id="path11042-53"
         r="112"
         cy="155.99998"
         cx="152" />
    </g>
    <g
       inkscape:groupmode="layer"
       id="layer8"
       inkscape:label="Backgrounds"
       style="display:inline">
      <circle
         style="display:inline;opacity:0.1;fill:#000000;fill-opacity:1;stroke:none;stroke-width:1;stroke-linecap:round;stroke-linejoin:round;stroke-miterlimit:4;stroke-dasharray:none;stroke-opacity:1;filter:url(#filter48967);enable-background:new"
         id="path11042-4"
         r="112"
         cy="157"
         cx="152" />
      <circle
         style="display:inline;opacity:0.2;fill:#000000;fill-opacity:1;stroke:none;stroke-width:1;stroke-linecap:round;stroke-linejoin:round;stroke-miterlimit:4;stroke-dasharray:none;stroke-opacity:1;filter:url(#filter48952);enable-background:new"
         id="path11042-9"
         r="112"
         cy="157"
         cx="152" />
      <circle
         cx="152"
         cy="156"
         r="112"
         fill="url(#a)"
         id="circle7"
         style="fill:url(#linearGradient9973);stroke-width:4.92005" />
      <path
         style="display:inline;opacity:1;fill:#ffffff;fill-opacity:1;stroke:none;stroke-width:1;stroke-linecap:round;stroke-linejoin:round;stroke-miterlimit:4;stroke-dasharray:none;stroke-opacity:1;enable-background:new"
         id="path11042-5"
         r="112"
         cy="156"
         cx="152"
         d=""
         inkscape:connector-curvature="0" />
      <circle
         style="display:inline;opacity:0.1;fill:#000000;fill-opacity:1;stroke:none;stroke-width:1.95438;stroke-linecap:round;stroke-linejoin:round;stroke-miterlimit:4;stroke-dasharray:none;stroke-opacity:1;enable-background:new"
         id="path9498-0-0"
         cx="-344"
         cy="-85.000015"
         transform="scale(-1)"
         r="23" />
      <circle
         style="display:inline;opacity:0.1;fill:#000000;fill-opacity:1;stroke:none;stroke-width:1.95438;stroke-linecap:round;stroke-linejoin:round;stroke-miterlimit:4;stroke-dasharray:none;stroke-opacity:1;enable-background:new"
         id="path9498-0-0-2"
         cx="-336"
         cy="-149"
         transform="scale(-1)"
         r="14.999996" />
      <ellipse
         style="display:inline;opacity:0.1;fill:#000000;fill-opacity:1;stroke:none;stroke-width:1.95438;stroke-linecap:round;stroke-linejoin:round;stroke-miterlimit:4;stroke-dasharray:none;stroke-opacity:1;enable-background:new"
         id="path9498-0-0-2-3"
         cx="-332"
         cy="-200.52327"
         transform="scale(-1)"
         rx="11.999997"
         ry="11.476745" />
      <ellipse
         style="display:inline;opacity:0.1;fill:#000000;fill-opacity:1;stroke:none;stroke-width:1.95438;stroke-linecap:round;stroke-linejoin:round;stroke-miterlimit:4;stroke-dasharray:none;stroke-opacity:1;enable-background:new"
         id="path9498-0-0-2-3-3"
         cx="-328"
         cy="-244.5"
         transform="scale(-1)"
         rx="6.9999981"
         ry="6.5" />
      <circle
         cx="344"
         cy="84"
         r="22.5"
         fill="url(#a)"
         id="circle9877"
         style="fill:url(#linearGradient9879);stroke-width:0.988403" />
      <circle
         cx="336"
         cy="148"
         r="14.5"
         fill="url(#a)"
         id="circle9881"
         style="fill:url(#linearGradient9883);stroke-width:0.636971" />
      <circle
         cx="332"
         cy="200"
         r="11.5"
         fill="url(#a)"
         id="circle9885"
         style="fill:url(#linearGradient9887);stroke-width:0.505184" />
      <circle
         cx="328"
         cy="244"
         r="7.5"
         fill="url(#a)"
         id="circle9889"
         style="fill:url(#linearGradient9891);stroke-width:0.329468" />
    </g>
    <g
       inkscape:groupmode="layer"
       id="layer6"
       inkscape:label="Pictograms and folds"
       style="display:inline">
      <path
         d="m 328,239.60704 c 0.48333,0 0.87869,0.39536 0.87869,0.87869 0,0.483 -0.39536,0.87836 -0.87869,0.87836 -0.48333,0 -0.87869,-0.39536 -0.87869,-0.87836 0,-0.48333 0.39536,-0.87869 0.87869,-0.87869 z m 3.95361,2.63607 c 0,0.24249 -0.19636,0.43885 -0.43885,0.43885 h -1.68786 c -0.13508,0 -0.26456,0.0537 -0.35978,0.14925 -0.0956,0.0952 -0.14925,0.2247 -0.14925,0.35978 v 4.76311 c 0,0.24216 -0.19636,0.43885 -0.43885,0.43885 h -9.8e-4 c -0.24215,0 -0.43885,-0.19669 -0.43885,-0.43885 v -1.75804 c 0,-0.11662 -0.0461,-0.22832 -0.12849,-0.31036 -0.0824,-0.0824 -0.19374,-0.12849 -0.31037,-0.12849 h -6.6e-4 c -0.11663,0 -0.22799,0.0461 -0.31036,0.12849 -0.0824,0.082 -0.12849,0.19373 -0.12849,0.31036 v 1.75804 c 0,0.24216 -0.19669,0.43885 -0.43885,0.43885 h -9.8e-4 c -0.24248,0 -0.43885,-0.19669 -0.43885,-0.43885 v -4.76311 c 0,-0.13508 -0.0537,-0.26457 -0.14892,-0.35978 -0.0955,-0.0956 -0.22502,-0.14925 -0.3601,-0.14925 h -1.68789 c -0.24248,0 -0.43885,-0.19636 -0.43885,-0.43885 v -6.5e-4 c 0,-0.24249 0.19637,-0.43885 0.43885,-0.43885 h 7.02952 c 0.24249,0 0.43885,0.19636 0.43885,0.43885 z"
         fill="#ffffff"
         fill-opacity="0.85"
         fill-rule="nonzero"
         id="path9-5"
         style="display:inline;stroke-width:0.329468;enable-background:new" />
      <path
         d="m 152,90.398524 c 7.21771,0 13.12177,5.904059 13.12177,13.121776 0,7.21279 -5.90406,13.11685 -13.12177,13.11685 -7.21772,0 -13.12177,-5.90406 -13.12177,-13.11685 0,-7.217717 5.90405,-13.121776 13.12177,-13.121776 z m 59.04059,39.365316 c 0,3.62115 -2.93235,6.5535 -6.55351,6.5535 h -25.20541 c -2.01722,0 -3.9508,0.80197 -5.37269,2.22878 -1.42682,1.4219 -2.22879,3.35548 -2.22879,5.3727 v 71.12916 c 0,3.61624 -2.93235,6.5535 -6.5535,6.5535 h -0.0148 c -3.61624,0 -6.55351,-2.93727 -6.55351,-6.5535 V 188.7946 c 0,-1.7417 -0.68881,-3.40961 -1.91882,-4.63469 -1.23001,-1.23001 -2.89299,-1.91883 -4.63468,-1.91883 h -0.01 c -1.7417,0 -3.40468,0.68881 -4.63469,1.91883 -1.23001,1.22508 -1.91882,2.89299 -1.91882,4.63469 v 26.25338 c 0,3.61624 -2.93727,6.5535 -6.5535,6.5535 h -0.0148 c -3.62115,0 -6.5535,-2.93727 -6.5535,-6.5535 v -71.12916 c 0,-2.01722 -0.80197,-3.9508 -2.22386,-5.3727 -1.42681,-1.42681 -3.36039,-2.22878 -5.37761,-2.22878 H 99.512915 c -3.621156,0 -6.553505,-2.93235 -6.553505,-6.5535 v -0.01 c 0,-3.62116 2.932349,-6.55351 6.553505,-6.55351 H 204.48708 c 3.62116,0 6.55351,2.93235 6.55351,6.55351 z"
         fill="#ffffff"
         fill-opacity="0.85"
         fill-rule="nonzero"
         id="path9"
         style="display:inline;stroke-width:4.92005;enable-background:new" />
      <path
         d="m 344.00002,70.821132 c 1.44999,0 2.63607,1.186083 2.63607,2.63607 0,1.448999 -1.18608,2.635082 -2.63607,2.635082 -1.44999,0 -2.63607,-1.186083 -2.63607,-2.635082 0,-1.449986 1.18608,-2.63607 2.63607,-2.63607 z m 11.86083,7.908211 c 0,0.727463 -0.58909,1.316552 -1.31655,1.316552 h -5.06359 c -0.40524,0 -0.79369,0.161109 -1.07933,0.447745 -0.28664,0.28565 -0.44775,0.674092 -0.44775,1.079337 v 14.289338 c 0,0.726477 -0.58909,1.316553 -1.31655,1.316553 h -0.003 c -0.72648,0 -1.31656,-0.590076 -1.31656,-1.316553 v -5.274117 c 0,-0.349895 -0.13837,-0.684964 -0.38547,-0.931076 -0.2471,-0.2471 -0.58118,-0.385477 -0.93108,-0.385477 h -0.002 c -0.34989,0 -0.68397,0.138377 -0.93107,0.385477 -0.2471,0.246112 -0.38547,0.581181 -0.38547,0.931076 v 5.274117 c 0,0.726477 -0.59008,1.316553 -1.31655,1.316553 h -0.003 c -0.72747,0 -1.31655,-0.590076 -1.31655,-1.316553 V 81.572978 c 0,-0.405245 -0.16111,-0.793688 -0.44676,-1.079337 -0.28664,-0.286636 -0.67508,-0.447746 -1.08033,-0.447746 h -5.06354 c -0.72746,0 -1.31655,-0.589088 -1.31655,-1.316552 v -0.002 c 0,-0.727465 0.58909,-1.316553 1.31655,-1.316553 h 21.08856 c 0.72747,0 1.31656,0.589088 1.31656,1.316553 z"
         fill="#ffffff"
         fill-opacity="0.85"
         fill-rule="nonzero"
         id="path9-3"
         style="display:inline;stroke-width:0.988403;enable-background:new" />
      <path
         d="m 335.99993,139.50695 c 0.93443,0 1.6988,0.76436 1.6988,1.6988 0,0.9338 -0.76437,1.69816 -1.6988,1.69816 -0.93444,0 -1.6988,-0.76436 -1.6988,-1.69816 0,-0.93444 0.76436,-1.6988 1.6988,-1.6988 z m 7.64365,5.0964 c 0,0.46881 -0.37964,0.84845 -0.84845,0.84845 h -3.2632 c -0.26116,0 -0.51149,0.10382 -0.69557,0.28854 -0.18472,0.18409 -0.28855,0.43442 -0.28855,0.69558 v 9.20868 c 0,0.46817 -0.37963,0.84845 -0.84844,0.84845 h -0.002 c -0.46818,0 -0.84845,-0.38028 -0.84845,-0.84845 v -3.39888 c 0,-0.22548 -0.0892,-0.44142 -0.24842,-0.60002 -0.15927,-0.15924 -0.37457,-0.24842 -0.60006,-0.24842 h -0.001 c -0.22548,0 -0.44078,0.0892 -0.60002,0.24842 -0.15925,0.1586 -0.24842,0.37454 -0.24842,0.60002 v 3.39888 c 0,0.46817 -0.38027,0.84845 -0.84845,0.84845 h -0.002 c -0.46881,0 -0.84844,-0.38028 -0.84844,-0.84845 v -9.20868 c 0,-0.26116 -0.10383,-0.51149 -0.28791,-0.69558 -0.18472,-0.18472 -0.43505,-0.28854 -0.69621,-0.28854 h -3.26319 c -0.46881,0 -0.84845,-0.37964 -0.84845,-0.84845 v -0.001 c 0,-0.46881 0.37964,-0.84845 0.84845,-0.84845 h 13.5904 c 0.46881,0 0.84845,0.37964 0.84845,0.84845 z"
         fill="#ffffff"
         fill-opacity="0.85"
         fill-rule="nonzero"
         id="path9-6"
         style="display:inline;stroke-width:0.636971;enable-background:new" />
      <path
         d="m 331.99902,193.26413 c 0.74111,0 1.34733,0.60623 1.34733,1.34732 0,0.7406 -0.60622,1.34683 -1.34733,1.34683 -0.7411,0 -1.34732,-0.60623 -1.34732,-1.34683 0,-0.74109 0.60622,-1.34732 1.34732,-1.34732 z m 6.06221,4.04197 c 0,0.37183 -0.30109,0.67291 -0.67291,0.67291 h -2.58805 c -0.20713,0 -0.40567,0.0823 -0.55166,0.22884 -0.14651,0.146 -0.22885,0.34454 -0.22885,0.55166 v 7.30344 c 0,0.37131 -0.30109,0.67291 -0.67291,0.67291 h -0.001 c -0.37131,0 -0.6729,-0.3016 -0.6729,-0.67291 v -2.69566 c 0,-0.17883 -0.0707,-0.35009 -0.19702,-0.47588 -0.12632,-0.12629 -0.29708,-0.19702 -0.47591,-0.19702 h -0.001 c -0.17884,0 -0.34959,0.0707 -0.47589,0.19702 -0.12629,0.12579 -0.19702,0.29705 -0.19702,0.47588 v 2.69566 c 0,0.37131 -0.30159,0.67291 -0.6729,0.67291 h -10e-4 c -0.37182,0 -0.67291,-0.3016 -0.67291,-0.67291 v -7.30344 c 0,-0.20712 -0.0823,-0.40566 -0.22834,-0.55166 -0.1465,-0.1465 -0.34504,-0.22884 -0.55216,-0.22884 h -2.5881 c -0.37181,0 -0.6729,-0.30108 -0.6729,-0.67291 v -10e-4 c 0,-0.37181 0.30109,-0.6729 0.6729,-0.6729 h 10.7786 c 0.37181,0 0.6729,0.30109 0.6729,0.6729 z"
         fill="#ffffff"
         fill-opacity="0.85"
         fill-rule="nonzero"
         id="path9-7"
         style="display:inline;stroke-width:0.505184;enable-background:new" />
    </g>
    <g
       inkscape:groupmode="layer"
       id="layer2"
       inkscape:label="Borders"
       style="display:inline">
      <circle
         style="display:inline;opacity:0.4;vector-effect:none;fill:none;fill-opacity:1;stroke:#000000;stroke-width:1;stroke-linecap:butt;stroke-linejoin:round;stroke-miterlimit:4;stroke-dasharray:none;stroke-dashoffset:6.5999999;stroke-opacity:1;enable-background:new"
         id="path1377"
         cx="328.00003"
         cy="244.00002"
         r="7.5000005" />
      <ellipse
         style="display:inline;opacity:0.4;vector-effect:none;fill:none;fill-opacity:1;stroke:#000000;stroke-width:1;stroke-linecap:butt;stroke-linejoin:round;stroke-miterlimit:4;stroke-dasharray:none;stroke-dashoffset:6.5999999;stroke-opacity:1;enable-background:new"
         id="path1384"
         cx="332"
         cy="199.97676"
         rx="11.454546"
         ry="11.476745" />
      <circle
         style="display:inline;opacity:0.4;vector-effect:none;fill:none;fill-opacity:1;stroke:#000000;stroke-width:1;stroke-linecap:butt;stroke-linejoin:round;stroke-miterlimit:4;stroke-dasharray:none;stroke-dashoffset:6.5999999;stroke-opacity:1;enable-background:new"
         id="path1389"
         cx="336"
         cy="148"
         r="14.5" />
      <circle
         style="display:inline;opacity:0.4;vector-effect:none;fill:none;fill-opacity:1;stroke:#000000;stroke-width:1;stroke-linecap:butt;stroke-linejoin:round;stroke-miterlimit:4;stroke-dasharray:none;stroke-dashoffset:6.5999999;stroke-opacity:1;enable-background:new"
         id="path1389-3"
         cx="344"
         cy="84"
         r="22.5" />
      <path
         inkscape:connector-curvature="0"
         style="display:inline;opacity:0.2;fill:#000000;fill-opacity:1;stroke:none;stroke-width:1;stroke-linecap:round;stroke-linejoin:round;stroke-miterlimit:4;stroke-dasharray:none;stroke-opacity:1;enable-background:new"
         d="m 152,267.99999 a 112,112 0 0 1 -112,-112 112,112 0 0 1 0.04102,-1.16992 A 112,112 0 0 0 152,265.99999 112,112 0 0 0 263.95898,155.16991 a 112,112 0 0 1 0.041,0.83008 112,112 0 0 1 -112,112 z"
         id="path11042-1-7" />
      <path
         style="display:inline;opacity:0.3;fill:#ffffff;fill-opacity:1;stroke:none;stroke-width:1;stroke-linecap:round;stroke-linejoin:round;stroke-miterlimit:4;stroke-dasharray:none;stroke-opacity:1;enable-background:new"
         d="M 152,43.999994 A 112,112 0 0 0 40,155.99999 112,112 0 0 0 40.04102,157.16991 112,112 0 0 1 152,45.999994 112,112 0 0 1 263.95898,156.83007 a 112,112 0 0 0 0.041,-0.83008 112,112 0 0 0 -112,-111.999996 z"
         id="path11042-1"
         inkscape:connector-curvature="0" />
    </g>
    <g
       inkscape:groupmode="layer"
       id="layer5"
       inkscape:label="Highlights"
       style="display:inline;opacity:0.8">
      <path
         style="display:inline;opacity:1;fill:url(#linearGradient8590);fill-opacity:1;stroke:none;stroke-width:1.8694036;stroke-linecap:round;stroke-linejoin:round;stroke-miterlimit:4;stroke-dasharray:none;stroke-opacity:1;enable-background:new"
         d="M 344,62.000016 A 22,21.99999 0 0 0 322,84.000013 22,21.99999 0 0 0 344,106 22,21.99999 0 0 0 366,84.000013 22,21.99999 0 0 0 344,62.000016 Z m 0,0.956532 A 21.043478,21.043469 0 0 1 365.04348,84.000013 21.043478,21.043469 0 0 1 344,105.04348 21.043478,21.043469 0 0 1 322.95652,84.000013 21.043478,21.043469 0 0 1 344,62.956548 Z"
         id="path9498-1-6"
         inkscape:connector-curvature="0" />
      <path
         style="display:inline;opacity:1;fill:url(#linearGradient8590-3);fill-opacity:1;stroke:none;stroke-width:1.8694036;stroke-linecap:round;stroke-linejoin:round;stroke-miterlimit:4;stroke-dasharray:none;stroke-opacity:1;enable-background:new"
         d="m 336,134 c -7.73199,0 -14,6.26802 -14,14 0,7.73198 6.26801,14 14,14 7.73199,0 14,-6.26802 14,-14 0,-7.73198 -6.26801,-14 -14,-14 z m 0,1 a 13,13 0 0 1 13,13 13,13 0 0 1 -13,13 13,13 0 0 1 -13,-13 13,13 0 0 1 13,-13 z"
         id="path9498-1-6-7"
         inkscape:connector-curvature="0" />
      <path
         style="display:inline;opacity:1;fill:url(#linearGradient8590-3-3);fill-opacity:1;stroke:none;stroke-width:1.8694036;stroke-linecap:round;stroke-linejoin:round;stroke-miterlimit:4;stroke-dasharray:none;stroke-opacity:1;enable-background:new"
         d="m 332,189 c -6.07513,0 -11,4.92488 -11,11 0,6.07513 4.92487,11 11,11 6.07513,0 11,-4.92487 11,-11 0,-6.07512 -4.92487,-11 -11,-11 z m 0,1 a 10,10 0 0 1 10,10 10,10 0 0 1 -10,10 10,10 0 0 1 -10,-10 10,10 0 0 1 10,-10 z"
         id="path9498-1-6-7-2"
         inkscape:connector-curvature="0" />
      <path
         style="display:inline;opacity:1;fill:url(#linearGradient8590-3-3-4);fill-opacity:1;stroke:none;stroke-width:1.86940372;stroke-linecap:round;stroke-linejoin:round;stroke-miterlimit:4;stroke-dasharray:none;stroke-opacity:1;enable-background:new"
         d="m 328,237 c -3.86599,0 -7,3.13402 -7,7 0,3.86599 3.13401,7 7,7 3.866,0 7,-3.13401 7,-7 0,-3.86598 -3.134,-7 -7,-7 z m 0,1 a 6,6 0 0 1 6,6 6,6 0 0 1 -6,6 6,6 0 0 1 -6,-6 6,6 0 0 1 6,-6 z"
         id="path9498-1-6-7-2-0"
         inkscape:connector-curvature="0" />
    </g>
  </g>
</svg>
