<?xml version="1.0" encoding="UTF-8" standalone="no"?>
<svg
   inkscape:export-ydpi="96"
   inkscape:export-xdpi="96"
   width="400"
   height="300"
   id="svg11300"
   sodipodi:version="0.32"
   inkscape:version="1.1.2 (0a00cf5339, 2022-02-04)"
   sodipodi:docname="preferences-desktop-display.svg"
   inkscape:output_extension="org.inkscape.output.svg.inkscape"
   version="1.0"
   style="display:inline;enable-background:new"
   inkscape:export-filename="C:\Users\sblav\Pictures\vertical oblong template.png"
   xmlns:inkscape="http://www.inkscape.org/namespaces/inkscape"
   xmlns:sodipodi="http://sodipodi.sourceforge.net/DTD/sodipodi-0.dtd"
   xmlns:xlink="http://www.w3.org/1999/xlink"
   xmlns="http://www.w3.org/2000/svg"
   xmlns:svg="http://www.w3.org/2000/svg"
   xmlns:rdf="http://www.w3.org/1999/02/22-rdf-syntax-ns#"
   xmlns:cc="http://creativecommons.org/ns#"
   xmlns:dc="http://purl.org/dc/elements/1.1/">
  <title
     id="title3004">Yaru Icon Theme Template</title>
  <sodipodi:namedview
     stroke="#ef2929"
     fill="#f57900"
     id="base"
     pagecolor="#ffffff"
     bordercolor="#000000"
     borderopacity="0.25490196"
     inkscape:pageopacity="0"
     inkscape:pageshadow="2"
     inkscape:zoom="2.8284271"
     inkscape:cx="235.113"
     inkscape:cy="194.63114"
     inkscape:current-layer="layer8"
     showgrid="false"
     inkscape:grid-bbox="true"
     inkscape:document-units="px"
     inkscape:showpageshadow="false"
     inkscape:window-width="1920"
     inkscape:window-height="1020"
     inkscape:window-x="0"
     inkscape:window-y="32"
     width="400px"
     height="300px"
     inkscape:snap-nodes="true"
     inkscape:snap-bbox="true"
     gridtolerance="10000"
     inkscape:object-nodes="true"
     inkscape:snap-grids="true"
     showguides="true"
     inkscape:guide-bbox="true"
     inkscape:window-maximized="1"
     inkscape:bbox-paths="true"
     inkscape:snap-bbox-midpoints="true"
     inkscape:snap-global="true"
     inkscape:object-paths="true"
     inkscape:snap-intersection-paths="true"
     inkscape:snap-smooth-nodes="true"
     inkscape:pagecheckerboard="false"
     showborder="false"
     inkscape:document-rotation="0">
    <inkscape:grid
       spacingy="1"
       spacingx="1"
       id="grid5883"
       type="xygrid"
       enabled="true"
       visible="true"
       empspacing="4"
       snapvisiblegridlinesonly="true"
       originx="0"
       originy="0" />
    <inkscape:grid
       type="xygrid"
       id="grid11592"
       empspacing="2"
       visible="true"
       enabled="false"
       spacingx="0.5"
       spacingy="0.5"
       color="#ff0000"
       opacity="0.1254902"
       empcolor="#ff0000"
       empopacity="0.25098039"
       snapvisiblegridlinesonly="true"
       originx="0"
       originy="0" />
  </sodipodi:namedview>
  <defs
     id="defs3">
    <inkscape:path-effect
       effect="bspline"
       id="path-effect9498"
       is_visible="true"
       lpeversion="1"
       weight="33.333333"
       steps="2"
       helper_size="0"
       apply_no_weight="true"
       apply_with_weight="true"
       only_selected="false" />
    <linearGradient
       inkscape:collect="always"
       id="linearGradient927">
      <stop
         style="stop-color:#ffffff;stop-opacity:1;"
         offset="0"
         id="stop923" />
      <stop
         id="stop933"
         offset="0.125"
         style="stop-color:#ffffff;stop-opacity:0.09803922" />
      <stop
         id="stop931"
         offset="0.92500001"
         style="stop-color:#ffffff;stop-opacity:0.09803922" />
      <stop
         style="stop-color:#ffffff;stop-opacity:0.49803922"
         offset="1"
         id="stop925" />
    </linearGradient>
    <linearGradient
       inkscape:collect="always"
       xlink:href="#linearGradient927"
       id="linearGradient1692-6"
       x1="321.00031"
       y1="244.00034"
       x2="335.00031"
       y2="244.00034"
       gradientUnits="userSpaceOnUse"
       gradientTransform="rotate(90,328.00032,244.00001)" />
    <linearGradient
       inkscape:collect="always"
       xlink:href="#linearGradient927"
       id="linearGradient1690-9"
       x1="320.9993"
       y1="199.99928"
       x2="342.9993"
       y2="199.99928"
       gradientUnits="userSpaceOnUse"
       gradientTransform="rotate(90,331.99929,199.99999)" />
    <linearGradient
       inkscape:collect="always"
       xlink:href="#linearGradient927"
       id="linearGradient1688-4"
       x1="322"
       y1="148.00002"
       x2="350"
       y2="148.00002"
       gradientUnits="userSpaceOnUse"
       gradientTransform="rotate(90,336.00001,148)" />
    <linearGradient
       inkscape:collect="always"
       xlink:href="#linearGradient927"
       id="linearGradient1686-0"
       x1="321.99991"
       y1="84.000153"
       x2="365.99991"
       y2="84.000153"
       gradientUnits="userSpaceOnUse"
       gradientTransform="rotate(90,344.00003,84.000125)" />
    <filter
       inkscape:collect="always"
       style="color-interpolation-filters:sRGB"
       id="filter58449"
       x="-0.047999425"
       width="1.0959989"
       y="-0.048000575"
       height="1.0960012">
      <feGaussianBlur
         inkscape:collect="always"
         stdDeviation="4.4800539"
         id="feGaussianBlur58451" />
    </filter>
    <filter
       inkscape:collect="always"
       style="color-interpolation-filters:sRGB"
       id="filter58492"
       x="-0.011999856"
       width="1.0239997"
       y="-0.012000144"
       height="1.0240003">
      <feGaussianBlur
         inkscape:collect="always"
         stdDeviation="1.1200135"
         id="feGaussianBlur58494" />
    </filter>
    <linearGradient
       id="a"
       x2="1"
       gradientTransform="matrix(-0.0595533,-35.183,35.183,-0.0595533,440.402,40.382)"
       gradientUnits="userSpaceOnUse">
      <stop
         stop-color="#f086fb"
         offset="0"
         id="stop2" />
      <stop
         stop-color="#4392f6"
         offset="1"
         id="stop4" />
    </linearGradient>
    <linearGradient
       id="b"
       x2="1"
       gradientTransform="matrix(0,-15.2833,15.2833,0,314.271,40.5455)"
       gradientUnits="userSpaceOnUse">
      <stop
         stop-color="#132e51"
         offset="0"
         id="stop7" />
      <stop
         stop-color="#2767b9"
         offset="1"
         id="stop9" />
    </linearGradient>
    <linearGradient
       inkscape:collect="always"
       xlink:href="#a"
       id="linearGradient9140"
       gradientUnits="userSpaceOnUse"
       gradientTransform="matrix(-0.0595533,-35.183,35.183,-0.0595533,440.402,40.382)"
       x2="1" />
    <linearGradient
       inkscape:collect="always"
       xlink:href="#b"
       id="linearGradient9142"
       gradientUnits="userSpaceOnUse"
       gradientTransform="matrix(0,-15.2833,15.2833,0,314.271,40.5455)"
       x2="1" />
    <linearGradient
       inkscape:collect="always"
       xlink:href="#a"
       id="linearGradient9150"
       gradientUnits="userSpaceOnUse"
       gradientTransform="matrix(-0.0595533,-35.183,35.183,-0.0595533,440.402,40.382)"
       x2="1" />
    <linearGradient
       inkscape:collect="always"
       xlink:href="#b"
       id="linearGradient9152"
       gradientUnits="userSpaceOnUse"
       gradientTransform="matrix(0,-15.2833,15.2833,0,314.271,40.5455)"
       x2="1" />
    <linearGradient
       inkscape:collect="always"
       xlink:href="#a"
       id="linearGradient9154"
       gradientUnits="userSpaceOnUse"
       gradientTransform="matrix(-0.0595533,-35.183,35.183,-0.0595533,440.402,40.382)"
       x2="1" />
    <linearGradient
       inkscape:collect="always"
       xlink:href="#b"
       id="linearGradient9156"
       gradientUnits="userSpaceOnUse"
       gradientTransform="matrix(0,-15.2833,15.2833,0,314.271,40.5455)"
       x2="1" />
    <linearGradient
       inkscape:collect="always"
       xlink:href="#a"
       id="linearGradient9164"
       gradientUnits="userSpaceOnUse"
       gradientTransform="matrix(-0.0595533,-35.183,35.183,-0.0595533,440.402,40.382)"
       x2="1" />
    <linearGradient
       inkscape:collect="always"
       xlink:href="#b"
       id="linearGradient9166"
       gradientUnits="userSpaceOnUse"
       gradientTransform="matrix(0,-15.2833,15.2833,0,314.271,40.5455)"
       x2="1" />
    <linearGradient
       inkscape:collect="always"
       xlink:href="#a"
       id="linearGradient9174"
       gradientUnits="userSpaceOnUse"
       gradientTransform="matrix(-0.0595533,-35.183,35.183,-0.0595533,440.402,40.382)"
       x2="1" />
    <linearGradient
       inkscape:collect="always"
       xlink:href="#b"
       id="linearGradient9176"
       gradientUnits="userSpaceOnUse"
       gradientTransform="matrix(0,-15.2833,15.2833,0,314.271,40.5455)"
       x2="1" />
    <linearGradient
       id="c"
       x2="1"
       gradientTransform="matrix(0.36980211,124.62352,-124.62352,0.36980211,-8292.914,162.89314)"
       gradientUnits="userSpaceOnUse">
      <stop
         stop-color="#f8f8f8"
         offset="0"
         id="stop12" />
      <stop
         stop-color="#c9e1ff"
         offset="1"
         id="stop14" />
    </linearGradient>
    <linearGradient
       id="c-0"
       x2="1"
       gradientTransform="matrix(0.36980211,124.62352,-124.62352,0.36980211,-8626.5712,120.2892)"
       gradientUnits="userSpaceOnUse">
      <stop
         stop-color="#f8f8f8"
         offset="0"
         id="stop12-9" />
      <stop
         stop-color="#c9e1ff"
         offset="1"
         id="stop14-3" />
    </linearGradient>
    <linearGradient
       id="c-6"
       x2="1"
       gradientTransform="matrix(0.0742906,25.035975,-25.035975,0.0742906,-1419.5523,76.825955)"
       gradientUnits="userSpaceOnUse">
      <stop
         stop-color="#f8f8f8"
         offset="0"
         id="stop12-0" />
      <stop
         stop-color="#c9e1ff"
         offset="1"
         id="stop14-6" />
    </linearGradient>
    <linearGradient
       id="c-61"
       x2="1"
       gradientTransform="matrix(0.04787617,16.134296,-16.134296,0.04787617,-800.51153,143.37672)"
       gradientUnits="userSpaceOnUse">
      <stop
         stop-color="#f8f8f8"
         offset="0"
         id="stop12-8" />
      <stop
         stop-color="#c9e1ff"
         offset="1"
         id="stop14-7" />
    </linearGradient>
    <linearGradient
       id="c-2"
       x2="1"
       gradientTransform="matrix(0.03797076,12.796166,-12.796166,0.03797076,-569.37131,196.33322)"
       gradientUnits="userSpaceOnUse">
      <stop
         stop-color="#f8f8f8"
         offset="0"
         id="stop12-02" />
      <stop
         stop-color="#c9e1ff"
         offset="1"
         id="stop14-37" />
    </linearGradient>
    <linearGradient
       id="c-9"
       x2="1"
       gradientTransform="matrix(0.02476354,8.3453256,-8.3453256,0.02476354,-259.85085,241.60865)"
       gradientUnits="userSpaceOnUse">
      <stop
         stop-color="#f8f8f8"
         offset="0"
         id="stop12-2" />
      <stop
         stop-color="#c9e1ff"
         offset="1"
         id="stop14-2" />
    </linearGradient>
  </defs>
  <metadata
     id="metadata4">
    <rdf:RDF>
      <cc:Work
         rdf:about="">
        <dc:format>image/svg+xml</dc:format>
        <dc:type
           rdf:resource="http://purl.org/dc/dcmitype/StillImage" />
        <dc:creator>
          <cc:Agent>
            <dc:title>Yaru Team, based on the Suru template by Sam Hewitt and original Suru designs by Matthieu James</dc:title>
          </cc:Agent>
        </dc:creator>
        <dc:source />
        <cc:license
           rdf:resource="http://creativecommons.org/licenses/by-sa/4.0/" />
        <dc:title>Yaru Icon Theme Template</dc:title>
        <dc:subject>
          <rdf:Bag />
        </dc:subject>
        <dc:date />
        <dc:rights>
          <cc:Agent>
            <dc:title />
          </cc:Agent>
        </dc:rights>
        <dc:publisher>
          <cc:Agent>
            <dc:title />
          </cc:Agent>
        </dc:publisher>
        <dc:identifier />
        <dc:relation />
        <dc:language />
        <dc:coverage />
        <dc:description />
        <dc:contributor>
          <cc:Agent>
            <dc:title />
          </cc:Agent>
        </dc:contributor>
      </cc:Work>
      <cc:Work
         rdf:about="">
        <dc:format>image/svg+xml</dc:format>
        <dc:type
           rdf:resource="http://purl.org/dc/dcmitype/StillImage" />
      </cc:Work>
      <cc:License
         rdf:about="http://creativecommons.org/licenses/by-sa/4.0/">
        <cc:permits
           rdf:resource="http://creativecommons.org/ns#Reproduction" />
        <cc:permits
           rdf:resource="http://creativecommons.org/ns#Distribution" />
        <cc:requires
           rdf:resource="http://creativecommons.org/ns#Notice" />
        <cc:requires
           rdf:resource="http://creativecommons.org/ns#Attribution" />
        <cc:permits
           rdf:resource="http://creativecommons.org/ns#DerivativeWorks" />
        <cc:requires
           rdf:resource="http://creativecommons.org/ns#ShareAlike" />
      </cc:License>
    </rdf:RDF>
  </metadata>
  <g
     style="display:inline"
     inkscape:groupmode="layer"
     inkscape:label="Icon"
     id="layer1">
    <g
       style="display:none"
       inkscape:label="Baseplate"
       id="layer7"
       inkscape:groupmode="layer">
      <text
         y="-8.2548828"
         xml:space="preserve"
         x="19.006836"
         style="font-style:normal;font-variant:normal;font-weight:normal;font-stretch:normal;line-height:0%;font-family:'DejaVu Sans';-inkscape-font-specification:'DejaVu Sans';display:inline;fill:#000000;fill-opacity:1;stroke:none;enable-background:new"
         inkscape:label="context"
         id="context"><tspan
           style="font-style:normal;font-variant:normal;font-weight:normal;font-stretch:normal;font-size:18px;line-height:1.25;font-family:'DejaVu Sans';-inkscape-font-specification:'DejaVu Sans'"
           y="-8.2548828"
           x="19.006836"
           sodipodi:role="line"
           id="tspan3933">categories</tspan></text>
      <text
         y="-8.2548828"
         xml:space="preserve"
         x="146.48828"
         style="font-style:normal;font-variant:normal;font-weight:bold;font-stretch:normal;line-height:0%;font-family:'DejaVu Sans';-inkscape-font-specification:'DejaVu Sans Bold';text-align:start;writing-mode:lr-tb;text-anchor:start;display:inline;fill:#000000;fill-opacity:1;stroke:none;enable-background:new"
         inkscape:label="icon-name"
         id="icon-name"><tspan
           style="font-style:normal;font-variant:normal;font-weight:bold;font-stretch:normal;font-size:18px;line-height:1.25;font-family:'DejaVu Sans';-inkscape-font-specification:'DejaVu Sans Bold'"
           y="-8.2548828"
           x="146.48828"
           sodipodi:role="line"
           id="tspan3937">preferences-desktop-display</tspan></text>
      <rect
         style="display:inline;overflow:visible;visibility:visible;fill:#cdcdcd;fill-opacity:1;fill-rule:nonzero;stroke:none;stroke-width:2;marker:none;enable-background:accumulate"
         id="rect16x16"
         width="16"
         height="16"
         x="320"
         y="236"
         inkscape:label="16x16" />
      <rect
         style="display:inline;overflow:visible;visibility:visible;fill:#cdcdcd;fill-opacity:1;fill-rule:nonzero;stroke:none;stroke-width:2;marker:none;enable-background:accumulate"
         id="rect24x24"
         width="24"
         height="24"
         x="320"
         y="188"
         inkscape:label="24x24" />
      <rect
         style="display:inline;overflow:visible;visibility:visible;fill:#cdcdcd;fill-opacity:1;fill-rule:nonzero;stroke:none;stroke-width:2;marker:none;enable-background:accumulate"
         id="rect32x32"
         width="32"
         height="32"
         x="320"
         y="132"
         inkscape:label="32x32" />
      <rect
         inkscape:label="48x48"
         y="60"
         x="320"
         height="48"
         width="48"
         id="rect48x48"
         style="display:inline;overflow:visible;visibility:visible;fill:#cdcdcd;fill-opacity:1;fill-rule:nonzero;stroke:none;stroke-width:2;marker:none;enable-background:accumulate" />
      <rect
         style="display:inline;overflow:visible;visibility:visible;fill:#cdcdcd;fill-opacity:1;fill-rule:nonzero;stroke:none;stroke-width:2;marker:none;enable-background:accumulate"
         id="rect3951"
         width="256"
         height="256"
         x="24"
         y="28"
         inkscape:label="48x48" />
    </g>
    <g
       inkscape:groupmode="layer"
       id="layer9"
       inkscape:label="Optional outline for white icons"
       style="display:none">
      <path
         style="color:#000000;display:inline;overflow:visible;visibility:visible;opacity:0.2;fill:#000000;fill-opacity:1;fill-rule:nonzero;stroke:#000000;stroke-width:4;stroke-miterlimit:4;stroke-dasharray:none;marker:none;enable-background:accumulate"
         d="m 225.07297,43.99969 c 35.29673,0 39.09461,3.62542 38.92162,38.99353 v 73.00647 73.00648 c 0.17299,35.36812 -3.62489,38.99353 -38.92162,38.99353 H 78.916218 c -35.29671,0 -38.92161,-3.625 -38.92161,-38.99353 V 155.99969 82.99322 c 0,-35.36853 3.6249,-38.99353 38.92161,-38.99353 z"
         id="rect4158-9"
         inkscape:connector-curvature="0"
         sodipodi:nodetypes="scccssscsss" />
    </g>
    <g
       inkscape:groupmode="layer"
       id="layer8"
       inkscape:label="Backgrounds"
       style="display:inline">
      <path
         style="color:#000000;display:inline;overflow:visible;visibility:visible;opacity:0.1;fill:#000000;fill-opacity:1;fill-rule:nonzero;stroke:none;stroke-width:1;marker:none;filter:url(#filter58492);enable-background:accumulate"
         d="m 225.07297,44.99999 c 35.29673,0 39.09461,3.62542 38.92162,38.99353 v 73.00647 73.00648 C 264.16758,265.37459 260.3697,269 225.07297,269 H 78.916218 c -35.29671,0 -38.92161,-3.625 -38.92161,-38.99353 V 156.99999 83.99352 c 0,-35.36853 3.6249,-38.99353 38.92161,-38.99353 z"
         id="rect4158-7"
         inkscape:connector-curvature="0"
         sodipodi:nodetypes="scccssscsss" />
      <path
         style="color:#000000;display:inline;overflow:visible;visibility:visible;opacity:0.2;fill:#000000;fill-opacity:1;fill-rule:nonzero;stroke:none;stroke-width:1;marker:none;filter:url(#filter58449);enable-background:accumulate"
         d="m 225.07297,44.99999 c 35.29673,0 39.09461,3.62542 38.92162,38.99353 v 73.00647 73.00648 C 264.16758,265.37459 260.3697,269 225.07297,269 H 78.916218 c -35.29671,0 -38.92161,-3.625 -38.92161,-38.99353 V 156.99999 83.99352 c 0,-35.36853 3.6249,-38.99353 38.92161,-38.99353 z"
         id="rect4158-1"
         inkscape:connector-curvature="0"
         sodipodi:nodetypes="scccssscsss" />
      <path
         style="color:#000000;display:inline;overflow:visible;visibility:visible;opacity:0.1;fill:#000000;fill-opacity:1;fill-rule:nonzero;stroke:none;stroke-width:1;marker:none;enable-background:accumulate"
         d="m 324.12858,237.00001 c -3.74357,0 -4.14638,0.30899 -4.12803,3.32331 v 4.17669 4.17668 c -0.0183,3.01433 0.38446,3.32332 4.12803,3.32332 h 7.74335 c 3.7436,0 4.12805,-0.30895 4.12805,-3.32332 v -4.17668 -4.17669 c 0,-3.01437 -0.38446,-3.32331 -4.12805,-3.32331 z"
         id="path918-2"
         inkscape:connector-curvature="0"
         sodipodi:nodetypes="scccssscsss" />
      <path
         style="color:#000000;font-style:normal;font-variant:normal;font-weight:normal;font-stretch:normal;font-size:medium;line-height:normal;font-family:sans-serif;font-variant-ligatures:normal;font-variant-position:normal;font-variant-caps:normal;font-variant-numeric:normal;font-variant-alternates:normal;font-feature-settings:normal;text-indent:0;text-align:start;text-decoration:none;text-decoration-line:none;text-decoration-style:solid;text-decoration-color:#000000;letter-spacing:normal;word-spacing:normal;text-transform:none;writing-mode:lr-tb;direction:ltr;text-orientation:mixed;dominant-baseline:auto;baseline-shift:baseline;text-anchor:start;white-space:normal;shape-padding:0;clip-rule:nonzero;display:inline;overflow:visible;visibility:visible;opacity:0.1;isolation:auto;mix-blend-mode:normal;color-interpolation:sRGB;color-interpolation-filters:linearRGB;solid-color:#000000;solid-opacity:1;vector-effect:none;fill:#000000;fill-opacity:1;fill-rule:nonzero;stroke:none;stroke-width:2;stroke-linecap:butt;stroke-linejoin:miter;stroke-miterlimit:4;stroke-dasharray:none;stroke-dashoffset:0;stroke-opacity:1;marker:none;color-rendering:auto;image-rendering:auto;shape-rendering:auto;text-rendering:auto;enable-background:accumulate"
         d="m 326.45275,189.00048 c -1.2321,0 -2.21668,0.0221 -3.06999,0.14144 -0.85332,0.11937 -1.62809,0.35533 -2.21066,0.83967 -0.58256,0.48436 -0.86983,1.13381 -1.01188,1.84587 -0.14202,0.71207 -0.16501,1.53239 -0.15897,2.56202 v 7.61066 4.6143 c -0.006,1.02762 0.0171,1.84735 0.15897,2.55843 0.14203,0.71208 0.42931,1.36152 1.01188,1.84587 0.58258,0.48434 1.35734,0.7203 2.21066,0.83967 0.85331,0.11936 1.83789,0.14144 3.06999,0.14144 h 11.09542 c 1.2321,0 2.21381,-0.022 3.0657,-0.14144 0.85187,-0.11947 1.62795,-0.35683 2.2085,-0.84146 0.58057,-0.48464 0.86451,-1.13152 1.00758,-1.84228 0.14307,-0.71077 0.16972,-1.5314 0.16972,-2.56023 v -4.61429 -7.61425 c 0,-1.02883 -0.0266,-1.84946 -0.16972,-2.56023 -0.14307,-0.71076 -0.42701,-1.35765 -1.00758,-1.84228 -0.58055,-0.48464 -1.35661,-0.722 -2.2085,-0.84147 -0.8519,-0.11947 -1.83359,-0.14144 -3.0657,-0.14144 z"
         id="path995"
         inkscape:connector-curvature="0"
         sodipodi:nodetypes="sccccccccssscccscscccss" />
      <path
         style="color:#000000;font-style:normal;font-variant:normal;font-weight:normal;font-stretch:normal;font-size:medium;line-height:normal;font-family:sans-serif;font-variant-ligatures:normal;font-variant-position:normal;font-variant-caps:normal;font-variant-numeric:normal;font-variant-alternates:normal;font-feature-settings:normal;text-indent:0;text-align:start;text-decoration:none;text-decoration-line:none;text-decoration-style:solid;text-decoration-color:#000000;letter-spacing:normal;word-spacing:normal;text-transform:none;writing-mode:lr-tb;direction:ltr;text-orientation:mixed;dominant-baseline:auto;baseline-shift:baseline;text-anchor:start;white-space:normal;shape-padding:0;clip-rule:nonzero;display:inline;overflow:visible;visibility:visible;opacity:0.1;isolation:auto;mix-blend-mode:normal;color-interpolation:sRGB;color-interpolation-filters:linearRGB;solid-color:#000000;solid-opacity:1;vector-effect:none;fill:#000000;fill-opacity:1;fill-rule:nonzero;stroke:none;stroke-width:2;stroke-linecap:butt;stroke-linejoin:miter;stroke-miterlimit:4;stroke-dasharray:none;stroke-dashoffset:0;stroke-opacity:1;marker:none;color-rendering:auto;image-rendering:auto;shape-rendering:auto;text-rendering:auto;enable-background:accumulate"
         d="m 329.30094,134 c -1.63949,0 -2.94082,0.0308 -4.04505,0.19141 -1.10422,0.16064 -2.06697,0.4726 -2.78308,1.09179 -0.71611,0.61919 -1.0805,1.45612 -1.26421,2.41407 -0.18374,0.95795 -0.21537,2.08705 -0.20733,3.51171 V 149 v 7.79688 c -0.009,1.42131 0.0239,2.5495 0.20733,3.50585 0.18371,0.95796 0.5481,1.79488 1.26421,2.41407 0.71611,0.61919 1.67886,0.93115 2.78308,1.09179 1.10423,0.16065 2.40556,0.19141 4.04505,0.19141 h 13.40164 c 1.63949,0 2.93835,-0.0307 4.04054,-0.19141 1.10219,-0.16075 2.06274,-0.47425 2.77633,-1.09375 0.71357,-0.6195 1.07457,-1.45363 1.25969,-2.41015 C 350.96429,159.34816 351,158.22066 351,156.79688 V 149 141.20312 c 0,-1.42378 -0.0358,-2.55128 -0.22086,-3.50781 -0.18512,-0.95653 -0.54612,-1.79065 -1.25969,-2.41015 -0.71359,-0.61951 -1.67414,-0.933 -2.77633,-1.09375 C 345.64093,134.03065 344.34207,134 342.70258,134 Z"
         id="path999"
         inkscape:connector-curvature="0"
         sodipodi:nodetypes="scscccccscsscccscscscss" />
      <path
         style="color:#000000;font-style:normal;font-variant:normal;font-weight:normal;font-stretch:normal;font-size:medium;line-height:normal;font-family:sans-serif;font-variant-ligatures:normal;font-variant-position:normal;font-variant-caps:normal;font-variant-numeric:normal;font-variant-alternates:normal;font-feature-settings:normal;text-indent:0;text-align:start;text-decoration:none;text-decoration-line:none;text-decoration-style:solid;text-decoration-color:#000000;letter-spacing:normal;word-spacing:normal;text-transform:none;writing-mode:lr-tb;direction:ltr;text-orientation:mixed;dominant-baseline:auto;baseline-shift:baseline;text-anchor:start;white-space:normal;shape-padding:0;clip-rule:nonzero;display:inline;overflow:visible;visibility:visible;opacity:0.1;isolation:auto;mix-blend-mode:normal;color-interpolation:sRGB;color-interpolation-filters:linearRGB;solid-color:#000000;solid-opacity:1;vector-effect:none;fill:#000000;fill-opacity:1;fill-rule:nonzero;stroke:none;stroke-width:2;stroke-linecap:butt;stroke-linejoin:miter;stroke-miterlimit:4;stroke-dasharray:none;stroke-dashoffset:0;stroke-opacity:1;marker:none;color-rendering:auto;image-rendering:auto;shape-rendering:auto;text-rendering:auto;enable-background:accumulate"
         d="m 333.65776,62 c -2.6221,0 -4.68675,0.05009 -6.38561,0.286735 -1.69887,0.236639 -3.08904,0.680503 -4.10735,1.523515 -1.0183,0.843013 -1.55577,1.996072 -1.83828,3.406406 -0.28252,1.410336 -0.33767,3.127346 -0.32482,5.308412 v 12.474816 12.480783 c -0.0127,2.177715 0.0426,3.893853 0.32482,5.302673 0.28251,1.41034 0.81998,2.5634 1.83828,3.40641 1.01831,0.84301 2.40848,1.28688 4.10735,1.52351 1.69888,0.23665 3.76351,0.28674 6.38561,0.28674 h 20.68618 c 2.62213,0 4.68568,-0.05 6.38104,-0.28674 1.69534,-0.23674 3.08126,-0.6821 4.09581,-1.52542 1.01457,-0.84331 1.54885,-1.99555 1.83367,-3.4045 C 366.93929,101.37441 367,99.660878 367,97.480667 V 84.999884 72.519333 c 0,-2.180211 -0.0608,-3.893733 -0.34554,-5.302677 -0.28482,-1.408942 -0.81911,-2.561177 -1.83368,-3.404494 -1.01455,-0.843317 -2.40047,-1.288685 -4.09582,-1.525427 C 359.02962,62.049992 356.96605,62 354.34394,62 Z"
         id="path1020"
         inkscape:connector-curvature="0"
         sodipodi:nodetypes="sccsccccccsscccscsccsss" />
      <g
         id="g31"
         transform="matrix(5.1689127,0,0,5.1689127,27.946096,31.946096)">
        <path
           d="m 39.44,2.332 c 3.438,0 6.228,2.79 6.228,6.228 v 22.879 c -0.533,0.332 -1.161,0.523 -1.835,0.523 H 4.167 c -0.674,0 -1.302,-0.191 -1.835,-0.523 V 8.56 c 0,-3.438 2.79,-6.228 6.228,-6.228 z"
           fill="url(#a)"
           id="path17"
           style="fill:url(#linearGradient9154)" />
        <path
           d="m 43.099,18.932 2.569,3.132 V 39.44 c 0,3.438 -2.79,6.228 -6.228,6.228 H 8.56 c -3.438,0 -6.228,-2.79 -6.228,-6.228 V 24.29 l 3.788,1.921 6.259,-0.573 2.169,1.194 1.092,-0.329 2.679,2.405 5.231,2.879 3.585,-0.986 1.787,-1.674 3.516,0.945 2.155,-1.322 2.534,-3.143 0.777,0.676 z"
           fill="url(#b)"
           id="path19"
           style="fill:url(#linearGradient9156)" />
      </g>
      <g
         id="g9138"
         transform="matrix(1.0383976,0,0,1.0383976,319.07846,59.078457)">
        <path
           d="m 39.44,2.332 c 3.438,0 6.228,2.79 6.228,6.228 v 22.879 c -0.533,0.332 -1.161,0.523 -1.835,0.523 H 4.167 c -0.674,0 -1.302,-0.191 -1.835,-0.523 V 8.56 c 0,-3.438 2.79,-6.228 6.228,-6.228 z"
           fill="url(#a)"
           id="path9134"
           style="fill:url(#linearGradient9140)" />
        <path
           d="m 43.099,18.932 2.569,3.132 V 39.44 c 0,3.438 -2.79,6.228 -6.228,6.228 H 8.56 c -3.438,0 -6.228,-2.79 -6.228,-6.228 V 24.29 l 3.788,1.921 6.259,-0.573 2.169,1.194 1.092,-0.329 2.679,2.405 5.231,2.879 3.585,-0.986 1.787,-1.674 3.516,0.945 2.155,-1.322 2.534,-3.143 0.777,0.676 z"
           fill="url(#b)"
           id="path9136"
           style="fill:url(#linearGradient9142)" />
      </g>
      <g
         id="g9148"
         transform="matrix(0.66918959,0,0,0.66918959,319.93945,131.93945)">
        <path
           d="m 39.44,2.332 c 3.438,0 6.228,2.79 6.228,6.228 v 22.879 c -0.533,0.332 -1.161,0.523 -1.835,0.523 H 4.167 c -0.674,0 -1.302,-0.191 -1.835,-0.523 V 8.56 c 0,-3.438 2.79,-6.228 6.228,-6.228 z"
           fill="url(#a)"
           id="path9144"
           style="fill:url(#linearGradient9150)" />
        <path
           d="m 43.099,18.932 2.569,3.132 V 39.44 c 0,3.438 -2.79,6.228 -6.228,6.228 H 8.56 c -3.438,0 -6.228,-2.79 -6.228,-6.228 V 24.29 l 3.788,1.921 6.259,-0.573 2.169,1.194 1.092,-0.329 2.679,2.405 5.231,2.879 3.585,-0.986 1.787,-1.674 3.516,0.945 2.155,-1.322 2.534,-3.143 0.777,0.676 z"
           fill="url(#b)"
           id="path9146"
           style="fill:url(#linearGradient9152)" />
      </g>
      <g
         id="g9162"
         transform="matrix(0.53073657,0,0,0.53073657,319.26232,187.26233)">
        <path
           d="m 39.44,2.332 c 3.438,0 6.228,2.79 6.228,6.228 v 22.879 c -0.533,0.332 -1.161,0.523 -1.835,0.523 H 4.167 c -0.674,0 -1.302,-0.191 -1.835,-0.523 V 8.56 c 0,-3.438 2.79,-6.228 6.228,-6.228 z"
           fill="url(#a)"
           id="path9158"
           style="fill:url(#linearGradient9164)" />
        <path
           d="m 43.099,18.932 2.569,3.132 V 39.44 c 0,3.438 -2.79,6.228 -6.228,6.228 H 8.56 c -3.438,0 -6.228,-2.79 -6.228,-6.228 V 24.29 l 3.788,1.921 6.259,-0.573 2.169,1.194 1.092,-0.329 2.679,2.405 5.231,2.879 3.585,-0.986 1.787,-1.674 3.516,0.945 2.155,-1.322 2.534,-3.143 0.777,0.676 z"
           fill="url(#b)"
           id="path9160"
           style="fill:url(#linearGradient9166)" />
      </g>
      <g
         id="g9172"
         transform="matrix(0.34613255,0,0,0.34613255,319.69282,235.69282)">
        <path
           d="m 39.44,2.332 c 3.438,0 6.228,2.79 6.228,6.228 v 22.879 c -0.533,0.332 -1.161,0.523 -1.835,0.523 H 4.167 c -0.674,0 -1.302,-0.191 -1.835,-0.523 V 8.56 c 0,-3.438 2.79,-6.228 6.228,-6.228 z"
           fill="url(#a)"
           id="path9168"
           style="fill:url(#linearGradient9174)" />
        <path
           d="m 43.099,18.932 2.569,3.132 V 39.44 c 0,3.438 -2.79,6.228 -6.228,6.228 H 8.56 c -3.438,0 -6.228,-2.79 -6.228,-6.228 V 24.29 l 3.788,1.921 6.259,-0.573 2.169,1.194 1.092,-0.329 2.679,2.405 5.231,2.879 3.585,-0.986 1.787,-1.674 3.516,0.945 2.155,-1.322 2.534,-3.143 0.777,0.676 z"
           fill="url(#b)"
           id="path9170"
           style="fill:url(#linearGradient9176)" />
      </g>
    </g>
    <g
       inkscape:groupmode="layer"
       id="layer6"
       inkscape:label="Pictograms and folds"
       style="display:inline">
      <path
         id="path948"
         style="fill:url(#c-0);stroke-width:5.16891"
         d="m 142.98469,93.614657 c -1.57652,0 -2.55038,0.757003 -2.92771,2.271494 -0.70814,2.703341 -1.48388,7.747309 -2.35225,15.113009 -2.54828,0.81669 -5.00707,1.84353 -7.38993,3.08924 l -11.21614,-8.70235 c -0.70297,-0.54274 -1.40699,-0.80764 -2.10997,-0.80764 -1.19402,0 -3.75432,1.93341 -7.6827,5.80493 -3.92837,3.87151 -6.58455,6.78888 -7.99566,8.74273 -0.48588,0.70297 -0.72688,1.32001 -0.72688,1.85758 0,0.65128 0.26984,1.30232 0.81775,1.94843 3.6234,4.38841 6.51121,8.12513 8.68215,11.21614 -1.35425,2.49142 -2.41533,4.97411 -3.16999,7.4707 l -15.102922,2.28159 c -0.594425,0.10854 -1.110427,0.45551 -1.544616,1.04993 -0.42902,0.59442 -0.646114,1.21122 -0.646114,1.86767 v 18.03062 c 0,0.70297 0.217094,1.34957 0.646114,1.91815 0.434189,0.56858 1.003172,0.9111 1.706145,1.01966 l 14.860623,2.19072 c 0.765,2.65683 1.86872,5.3327 3.33153,8.03605 -0.97693,1.35942 -2.42762,3.26352 -4.38146,5.73426 -1.94868,2.4604 -3.32765,4.26395 -4.13918,5.40111 -0.43935,0.59442 -0.65621,1.20629 -0.65621,1.85758 0,0.70297 0.18802,1.32986 0.56535,1.87777 2.11926,2.92043 6.57381,7.46738 13.39678,13.63906 0.60476,0.59443 1.27947,0.8985 2.03929,0.8985 0.81152,0 1.48647,-0.241 2.02921,-0.72688 l 11.45843,-8.70234 c 2.21746,1.13715 4.65751,2.14526 7.30916,3.00847 l 2.27149,14.95148 c 0.0569,0.70297 0.37031,1.28649 0.93889,1.74653 0.56858,0.46003 1.23416,0.68649 1.98882,0.68649 h 18.03062 c 1.57652,0 2.55038,-0.757 2.92771,-2.27149 0.70297,-2.70334 1.48905,-7.74731 2.35225,-15.11301 2.54828,-0.81152 5.01223,-1.84353 7.38993,-3.08924 l 11.21614,8.78311 c 0.75983,0.48588 1.45868,0.72688 2.10997,0.72688 1.18885,0 3.74495,-1.92404 7.64231,-5.76455 3.90253,-3.84567 6.57325,-6.77265 8.03605,-8.77301 0.48588,-0.54791 0.73697,-1.1748 0.73697,-1.87777 0,-0.70297 -0.27007,-1.38309 -0.80764,-2.0292 -3.90253,-4.76574 -6.80019,-8.49237 -8.70235,-11.20605 1.09064,-2.00037 2.14138,-4.46432 3.17,-7.38992 l 15.03224,-2.2715 c 0.64612,-0.10855 1.1811,-0.46561 1.61529,-1.06003 0.43419,-0.59443 0.64611,-1.23166 0.64611,-1.87777 v -18.02053 l -0.64611,-1.91815 c -0.43419,-0.56858 -1.00317,-0.91109 -1.70614,-1.01964 l -14.86063,-2.2614 c -0.81152,-2.60513 -1.91524,-5.26204 -3.33152,-7.96538 0.97692,-1.35425 2.42761,-3.26352 4.38146,-5.73426 1.94868,-2.4604 3.32765,-4.26395 4.13917,-5.40111 0.43936,-0.59443 0.65621,-1.21639 0.65621,-1.86767 0,-0.75466 -0.18802,-1.34263 -0.56535,-1.77682 -1.95385,-2.76537 -6.41874,-7.37515 -13.39677,-13.82078 -0.65646,-0.54274 -1.33633,-0.80764 -2.0393,-0.80764 -0.81152,0 -1.46256,0.241 -1.94844,0.72688 l -11.5392,8.70235 c -2.21746,-1.13716 -4.65751,-2.14527 -7.30916,-3.00848 l -2.27149,-14.95148 c -0.0569,-0.702972 -0.37031,-1.286491 -0.93889,-1.746524 -0.56858,-0.460034 -1.22382,-0.686499 -1.98882,-0.686499 z M 152,128.9894 A 27.007568,27.007568 0 0 1 179.00555,155.99495 27.007568,27.007568 0 0 1 152,183.0106 27.007568,27.007568 0 0 1 124.99445,155.99495 27.007568,27.007568 0 0 1 152,128.9894 Z" />
      <path
         id="path948-2"
         style="fill:url(#c-6);stroke-width:1.0384"
         d="m 342.1889,71.467229 c -0.31671,0 -0.51236,0.152077 -0.58816,0.456327 -0.14226,0.543082 -0.2981,1.55638 -0.47255,3.036096 -0.51193,0.164067 -1.00588,0.370352 -1.48458,0.620606 l -2.25324,-1.74824 c -0.14123,-0.109032 -0.28266,-0.16225 -0.42388,-0.16225 -0.23987,0 -0.75422,0.38841 -1.5434,1.166169 -0.78918,0.77776 -1.32279,1.363838 -1.60627,1.756352 -0.0976,0.141223 -0.14603,0.265181 -0.14603,0.373175 0,0.130838 0.0542,0.261627 0.16428,0.391427 0.72792,0.881599 1.30806,1.63228 1.74418,2.253242 -0.27206,0.500507 -0.48522,0.999262 -0.63683,1.500809 l -3.03406,0.458355 c -0.11942,0.02181 -0.22308,0.09151 -0.31031,0.210925 -0.0862,0.119415 -0.1298,0.243325 -0.1298,0.375201 v 3.622223 c 0,0.141222 0.0436,0.271119 0.1298,0.385343 0.0872,0.114223 0.20153,0.183033 0.34276,0.204842 l 2.98539,0.4401 c 0.15368,0.533738 0.37541,1.071302 0.66928,1.614385 -0.19626,0.273098 -0.48769,0.655618 -0.88021,1.151972 -0.39147,0.494277 -0.6685,0.856597 -0.83153,1.085045 -0.0883,0.119414 -0.13182,0.242335 -0.13182,0.373174 0,0.141222 0.0378,0.267159 0.11357,0.377231 0.42574,0.586693 1.32063,1.500143 2.69132,2.739989 0.12149,0.119417 0.25703,0.180503 0.40968,0.180503 0.16303,0 0.29862,-0.04842 0.40765,-0.146025 l 2.30192,-1.748238 c 0.44547,0.228445 0.93566,0.430967 1.46836,0.60438 l 0.45632,3.003645 c 0.0114,0.141222 0.0744,0.258447 0.18862,0.350866 0.11422,0.09242 0.24793,0.137911 0.39954,0.137911 h 3.62222 c 0.31671,0 0.51235,-0.152076 0.58816,-0.456326 0.14122,-0.543082 0.29914,-1.55638 0.47255,-3.036096 0.51193,-0.163029 1.00692,-0.370352 1.48458,-0.620606 l 2.25324,1.764464 c 0.15265,0.09761 0.29304,0.146025 0.42388,0.146025 0.23883,0 0.75234,-0.386526 1.53529,-1.158057 0.78399,-0.772568 1.32052,-1.360577 1.61438,-1.762435 0.0976,-0.110072 0.14805,-0.236009 0.14805,-0.377231 0,-0.141222 -0.0543,-0.277853 -0.16225,-0.407652 -0.78399,-0.957403 -1.3661,-1.706056 -1.74824,-2.251215 0.21911,-0.40186 0.43019,-0.89685 0.63684,-1.484582 l 3.01986,-0.456328 c 0.12981,-0.02181 0.23728,-0.09354 0.32451,-0.212953 0.0872,-0.119417 0.12979,-0.247432 0.12979,-0.37723 v -3.620196 l -0.12979,-0.385343 c -0.0872,-0.114223 -0.20153,-0.183033 -0.34276,-0.204839 l -2.98539,-0.454299 c -0.16303,-0.523352 -0.38476,-1.057105 -0.66928,-1.600187 0.19626,-0.272061 0.48769,-0.655619 0.8802,-1.151973 0.39148,-0.494277 0.66851,-0.856597 0.83153,-1.085044 0.0883,-0.119416 0.13183,-0.244364 0.13183,-0.375202 0,-0.151606 -0.0378,-0.269724 -0.11357,-0.35695 -0.39252,-0.555542 -1.28948,-1.481614 -2.69132,-2.776496 -0.13188,-0.109032 -0.26846,-0.16225 -0.40968,-0.16225 -0.16303,0 -0.29382,0.04841 -0.39143,0.146025 l -2.31814,1.74824 c -0.44547,-0.228448 -0.93566,-0.430968 -1.46836,-0.604381 l -0.45632,-3.003646 c -0.0114,-0.141222 -0.0744,-0.258447 -0.18862,-0.350864 -0.11422,-0.09242 -0.24586,-0.137913 -0.39954,-0.137913 z m 1.81111,7.106534 a 5.4256275,5.4256275 0 0 1 5.42522,5.425222 5.4256275,5.4256275 0 0 1 -5.42522,5.427251 5.4256275,5.4256275 0 0 1 -5.42522,-5.427251 5.4256275,5.4256275 0 0 1 5.42522,-5.425222 z" />
      <path
         id="path948-9"
         style="fill:url(#c-61);stroke-width:0.669191"
         d="m 334.83281,139.92332 c -0.2041,0 -0.33018,0.098 -0.37903,0.29408 -0.0917,0.34999 -0.19211,1.003 -0.30454,1.9566 -0.32991,0.10573 -0.64823,0.23867 -0.95673,0.39994 l -1.45209,-1.12664 c -0.091,-0.0703 -0.18215,-0.10456 -0.27316,-0.10456 -0.15459,0 -0.48606,0.25031 -0.99464,0.75153 -0.50858,0.50122 -0.85246,0.87892 -1.03515,1.13187 -0.0629,0.091 -0.0941,0.17089 -0.0941,0.24049 0,0.0843 0.0349,0.1686 0.10587,0.25225 0.4691,0.56814 0.84296,1.05192 1.12402,1.45209 -0.17532,0.32255 -0.31269,0.64397 -0.4104,0.96719 l -1.95529,0.29539 c -0.0769,0.0141 -0.14376,0.059 -0.19997,0.13592 -0.0555,0.077 -0.0837,0.15681 -0.0837,0.2418 v 2.33432 c 0,0.091 0.0281,0.17472 0.0837,0.24833 0.0562,0.0736 0.12988,0.11796 0.22089,0.13201 l 1.92392,0.28362 c 0.099,0.34397 0.24193,0.6904 0.43131,1.04039 -0.12648,0.17599 -0.31429,0.4225 -0.56724,0.74238 -0.25229,0.31853 -0.43081,0.55203 -0.53588,0.69925 -0.0569,0.077 -0.0849,0.15617 -0.0849,0.24049 0,0.091 0.0243,0.17217 0.0732,0.2431 0.27437,0.37809 0.85108,0.96676 1.73441,1.76577 0.0783,0.077 0.16564,0.11633 0.26401,0.11633 0.10507,0 0.19245,-0.0312 0.26271,-0.0941 l 1.48346,-1.12664 c 0.28708,0.14722 0.60298,0.27773 0.94628,0.38948 l 0.29407,1.93569 c 0.007,0.091 0.0479,0.16655 0.12156,0.22611 0.0736,0.0596 0.15977,0.0889 0.25748,0.0889 h 2.33432 c 0.2041,0 0.33018,-0.098 0.37903,-0.29408 0.091,-0.34998 0.19278,-1.003 0.30453,-1.95659 0.32992,-0.10506 0.64891,-0.23867 0.95674,-0.39995 l 1.45209,1.1371 c 0.0984,0.0629 0.18884,0.0941 0.27316,0.0941 0.15391,0 0.48484,-0.24909 0.98941,-0.7463 0.50524,-0.49788 0.851,-0.87682 1.04038,-1.13579 0.0629,-0.0709 0.0954,-0.1521 0.0954,-0.24311 0,-0.091 -0.035,-0.17906 -0.10456,-0.26271 -0.50524,-0.61699 -0.88038,-1.09946 -1.12665,-1.45078 0.1412,-0.25898 0.27724,-0.57797 0.41041,-0.95673 l 1.94614,-0.29408 c 0.0836,-0.014 0.15291,-0.0603 0.20912,-0.13723 0.0562,-0.077 0.0837,-0.15946 0.0837,-0.24311 v -2.33301 l -0.0837,-0.24834 c -0.0562,-0.0736 -0.12988,-0.11795 -0.22089,-0.132 l -1.92392,-0.29277 c -0.10506,-0.33728 -0.24795,-0.68125 -0.43131,-1.03124 0.12648,-0.17532 0.31429,-0.42251 0.56724,-0.74238 0.25229,-0.31853 0.43081,-0.55203 0.53588,-0.69925 0.0569,-0.077 0.085,-0.15748 0.085,-0.2418 0,-0.0977 -0.0243,-0.17382 -0.0732,-0.23003 -0.25296,-0.35802 -0.831,-0.95482 -1.73441,-1.7893 -0.085,-0.0703 -0.173,-0.10456 -0.26401,-0.10456 -0.10507,0 -0.18935,0.0312 -0.25226,0.0941 l -1.49391,1.12664 c -0.28708,-0.14722 -0.60298,-0.27774 -0.94628,-0.38949 l -0.29408,-1.93569 c -0.007,-0.091 -0.0479,-0.16655 -0.12155,-0.22611 -0.0736,-0.0596 -0.15844,-0.0889 -0.25748,-0.0889 z m 1.16716,4.57977 a 3.4965156,3.4965156 0 0 1 3.49625,3.49625 3.4965156,3.4965156 0 0 1 -3.49625,3.49757 3.4965156,3.4965156 0 0 1 -3.49625,-3.49757 3.4965156,3.4965156 0 0 1 3.49625,-3.49625 z" />
      <path
         id="path948-5"
         style="fill:url(#c-2);stroke-width:0.530738"
         d="m 331.0742,193.59431 c -0.16187,0 -0.26187,0.0777 -0.30061,0.23324 -0.0727,0.27757 -0.15236,0.79548 -0.24153,1.55178 -0.26165,0.0838 -0.51412,0.18929 -0.75879,0.3172 l -1.15165,-0.89355 c -0.0722,-0.0557 -0.14447,-0.0829 -0.21665,-0.0829 -0.1226,0 -0.38549,0.19853 -0.78885,0.59605 -0.40336,0.39752 -0.67609,0.69707 -0.82098,0.89769 -0.0499,0.0722 -0.0746,0.13553 -0.0746,0.19073 0,0.0669 0.0277,0.13372 0.084,0.20006 0.37205,0.4506 0.66856,0.83428 0.89147,1.15166 -0.13905,0.25582 -0.248,0.51073 -0.32549,0.76708 l -1.55075,0.23427 c -0.061,0.0112 -0.11401,0.0468 -0.15859,0.10781 -0.0441,0.061 -0.0663,0.12436 -0.0663,0.19177 v 1.85136 c 0,0.0722 0.0223,0.13857 0.0663,0.19695 0.0446,0.0584 0.103,0.0935 0.17518,0.1047 l 1.52587,0.22494 c 0.0786,0.2728 0.19188,0.54755 0.34207,0.82513 -0.10031,0.13958 -0.24926,0.33509 -0.44988,0.58878 -0.20009,0.25263 -0.34168,0.43782 -0.425,0.55458 -0.0451,0.061 -0.0674,0.12386 -0.0674,0.19073 0,0.0722 0.0193,0.13655 0.0581,0.19281 0.2176,0.29987 0.67499,0.76674 1.37556,1.40044 0.0621,0.061 0.13138,0.0923 0.20939,0.0923 0.0833,0 0.15263,-0.0247 0.20836,-0.0746 l 1.17654,-0.89354 c 0.22768,0.11676 0.47822,0.22027 0.75049,0.3089 l 0.23323,1.5352 c 0.006,0.0722 0.038,0.13209 0.0964,0.17933 0.0584,0.0472 0.12672,0.0705 0.20421,0.0705 h 1.85136 c 0.16188,0 0.26187,-0.0777 0.30061,-0.23324 0.0722,-0.27757 0.1529,-0.79548 0.24153,-1.55178 0.26165,-0.0833 0.51465,-0.18929 0.75879,-0.31719 l 1.15165,0.90183 c 0.078,0.0499 0.14978,0.0746 0.21665,0.0746 0.12207,0 0.38453,-0.19756 0.7847,-0.59189 0.40071,-0.39487 0.67494,-0.69541 0.82513,-0.9008 0.0499,-0.0563 0.0757,-0.12063 0.0757,-0.19281 0,-0.0722 -0.0277,-0.14202 -0.0829,-0.20836 -0.4007,-0.48934 -0.69823,-0.87198 -0.89354,-1.15062 0.11199,-0.20539 0.21987,-0.45839 0.32549,-0.75878 l 1.54349,-0.23324 c 0.0663,-0.0111 0.12127,-0.0478 0.16585,-0.10884 0.0446,-0.061 0.0663,-0.12647 0.0663,-0.19281 v -1.85032 l -0.0663,-0.19695 c -0.0446,-0.0584 -0.103,-0.0935 -0.17518,-0.1047 l -1.52586,-0.2322 c -0.0833,-0.26749 -0.19665,-0.5403 -0.34208,-0.81787 0.10031,-0.13905 0.24927,-0.3351 0.44989,-0.58879 0.20008,-0.25263 0.34167,-0.43781 0.425,-0.55458 0.0451,-0.061 0.0674,-0.12489 0.0674,-0.19177 0,-0.0775 -0.0193,-0.13785 -0.058,-0.18244 -0.20061,-0.28394 -0.65906,-0.75727 -1.37555,-1.41909 -0.0674,-0.0557 -0.13722,-0.0829 -0.2094,-0.0829 -0.0833,0 -0.15017,0.0247 -0.20006,0.0746 l -1.18483,0.89355 c -0.22768,-0.11676 -0.47822,-0.22028 -0.75049,-0.30891 l -0.23324,-1.5352 c -0.006,-0.0722 -0.038,-0.13209 -0.0964,-0.17933 -0.0584,-0.0472 -0.12566,-0.0705 -0.20421,-0.0705 z m 0.92568,3.63223 a 2.7730986,2.7730986 0 0 1 2.77289,2.77289 2.7730986,2.7730986 0 0 1 -2.77289,2.77393 2.7730986,2.7730986 0 0 1 -2.77289,-2.77393 2.7730986,2.7730986 0 0 1 2.77289,-2.77289 z" />
      <path
         id="path948-8"
         style="fill:url(#c-9);stroke-width:0.346133"
         d="m 327.39622,239.82241 c -0.10557,0 -0.17079,0.0507 -0.19606,0.15211 -0.0474,0.18102 -0.0994,0.51879 -0.15751,1.01203 -0.17065,0.0547 -0.3353,0.12345 -0.49486,0.20687 l -0.75108,-0.58275 c -0.0471,-0.0363 -0.0942,-0.0541 -0.1413,-0.0541 -0.0799,0 -0.2514,0.12947 -0.51446,0.38872 -0.26306,0.25925 -0.44093,0.45461 -0.53543,0.58545 -0.0325,0.0471 -0.0487,0.0884 -0.0487,0.12439 0,0.0436 0.0181,0.0872 0.0548,0.13048 0.24264,0.29386 0.43602,0.54409 0.58139,0.75108 -0.0907,0.16683 -0.16174,0.33309 -0.21227,0.50027 l -1.01136,0.15278 c -0.0398,0.007 -0.0744,0.0305 -0.10343,0.0703 -0.0287,0.0398 -0.0433,0.0811 -0.0433,0.12507 v 1.20741 c 0,0.0471 0.0145,0.0904 0.0433,0.12844 0.0291,0.0381 0.0672,0.061 0.11425,0.0683 l 0.99513,0.1467 c 0.0512,0.17792 0.12514,0.35711 0.22309,0.53813 -0.0654,0.091 -0.16256,0.21854 -0.2934,0.38399 -0.13049,0.16476 -0.22283,0.28554 -0.27718,0.36169 -0.0294,0.0398 -0.0439,0.0808 -0.0439,0.12439 0,0.0471 0.0126,0.089 0.0379,0.12574 0.14192,0.19556 0.44021,0.50005 0.89711,0.91333 0.0405,0.0398 0.0857,0.0602 0.13656,0.0602 0.0543,0 0.0995,-0.0161 0.13588,-0.0487 l 0.76731,-0.58275 c 0.14849,0.0762 0.31188,0.14366 0.48945,0.20146 l 0.15211,1.00122 c 0.004,0.0471 0.0248,0.0861 0.0629,0.11695 0.0381,0.0308 0.0826,0.046 0.13318,0.046 h 1.2074 c 0.10558,0 0.17079,-0.0507 0.19606,-0.15211 0.0471,-0.18102 0.0997,-0.51879 0.15751,-1.01203 0.17065,-0.0543 0.33564,-0.12345 0.49487,-0.20687 l 0.75108,0.58816 c 0.0509,0.0325 0.0977,0.0487 0.14129,0.0487 0.0796,0 0.25078,-0.12884 0.51176,-0.38602 0.26133,-0.25752 0.44017,-0.45353 0.53813,-0.58748 0.0325,-0.0367 0.0494,-0.0787 0.0494,-0.12574 0,-0.0471 -0.0181,-0.0926 -0.0541,-0.13589 -0.26133,-0.31913 -0.45537,-0.56868 -0.58275,-0.7504 0.073,-0.13395 0.1434,-0.29895 0.21228,-0.49486 l 1.00662,-0.15211 c 0.0433,-0.007 0.0791,-0.0312 0.10817,-0.071 0.0291,-0.0398 0.0433,-0.0825 0.0433,-0.12574 v -1.20673 l -0.0433,-0.12845 c -0.0291,-0.0381 -0.0672,-0.061 -0.11425,-0.0683 l -0.99513,-0.15144 c -0.0543,-0.17445 -0.12826,-0.35237 -0.2231,-0.5334 0.0654,-0.0907 0.16257,-0.21854 0.2934,-0.38399 0.1305,-0.16476 0.22284,-0.28553 0.27718,-0.36168 0.0294,-0.0398 0.0439,-0.0814 0.0439,-0.12507 0,-0.0505 -0.0126,-0.0899 -0.0379,-0.11898 -0.13083,-0.18518 -0.42982,-0.49387 -0.8971,-0.9255 -0.044,-0.0363 -0.0895,-0.0541 -0.13656,-0.0541 -0.0543,0 -0.0979,0.0161 -0.13048,0.0487 l -0.77271,0.58275 c -0.14849,-0.0762 -0.31189,-0.14366 -0.48945,-0.20146 l -0.15211,-1.00122 c -0.004,-0.0471 -0.0248,-0.0862 -0.0629,-0.11695 -0.0381,-0.0308 -0.082,-0.046 -0.13318,-0.046 z m 0.6037,2.36884 a 1.8085426,1.8085426 0 0 1 1.80841,1.80841 1.8085426,1.8085426 0 0 1 -1.80841,1.80908 1.8085426,1.8085426 0 0 1 -1.80841,-1.80908 1.8085426,1.8085426 0 0 1 1.80841,-1.80841 z" />
    </g>
    <g
       inkscape:groupmode="layer"
       id="layer4"
       inkscape:label="Borders"
       style="display:inline;opacity:1">
      <path
         style="color:#000000;display:inline;overflow:visible;visibility:visible;opacity:0.3;fill:#ffffff;fill-opacity:1;fill-rule:nonzero;stroke:none;stroke-width:1;marker:none;enable-background:accumulate"
         d="m 78.92188,43.999698 c -35.296728,0 -39.09487,3.62603 -38.92188,38.99414 v 2 c -0.17299,-35.36811 3.625152,-38.99414 38.92188,-38.99414 h 146.15624 c 35.29673,0 38.92188,3.62561 38.92188,38.99414 v -2 c 0,-35.36853 -3.62515,-38.99414 -38.92188,-38.99414 z"
         id="path931"
         inkscape:connector-curvature="0"
         sodipodi:nodetypes="sccsscsss" />
      <path
         style="color:#000000;display:inline;overflow:visible;visibility:visible;opacity:0.2;fill:#000000;fill-opacity:1;fill-rule:nonzero;stroke:none;stroke-width:1;marker:none;enable-background:accumulate"
         d="m 78.92728,267.9997 c -35.296731,0 -39.094875,-3.62603 -38.921885,-38.99414 v -2 c -0.17299,35.36811 3.625154,38.99414 38.921885,38.99414 h 146.15624 c 35.29673,0 38.92188,-3.62561 38.92188,-38.99414 v 2 c 0,35.36853 -3.62515,38.99414 -38.92188,38.99414 z"
         id="path931-8"
         inkscape:connector-curvature="0"
         sodipodi:nodetypes="sccsscsss" />
      <path
         style="color:#000000;display:inline;overflow:visible;visibility:visible;opacity:0.4;fill:none;fill-opacity:1;fill-rule:nonzero;stroke:#000000;stroke-width:1;stroke-miterlimit:4;stroke-dasharray:none;stroke-opacity:1;marker:none;enable-background:accumulate"
         d="m 333.33517,61.500047 c -10.01116,0 -11.88667,0.90635 -11.83407,9.74838 V 84 96.75181 c -0.0527,8.84203 1.82291,9.74838 11.83407,9.74838 h 21.3308 c 10.00866,0 11.83405,-0.90625 11.83405,-9.74838 V 84 71.248427 c 0,-8.84213 -1.82539,-9.74838 -11.83406,-9.74838 z"
         id="path958"
         inkscape:connector-curvature="0"
         sodipodi:nodetypes="scccssscsss" />
      <path
         style="color:#000000;display:inline;overflow:visible;visibility:visible;opacity:0.4;fill:none;fill-opacity:1;fill-rule:nonzero;stroke:#000000;stroke-width:1;stroke-miterlimit:4;stroke-dasharray:none;stroke-opacity:1;marker:none;enable-background:accumulate"
         d="m 329.12711,133.5 c -6.45163,0 -7.6603,0.58409 -7.62639,6.28227 v 8.21765 8.21781 c -0.034,5.69818 1.17476,6.28227 7.62639,6.28227 h 13.74651 c 6.45003,0 7.62639,-0.58403 7.62639,-6.28227 v -8.21781 -8.21765 c 0,-5.69824 -1.17636,-6.28227 -7.62639,-6.28227 z"
         id="path958-1"
         inkscape:connector-curvature="0"
         sodipodi:nodetypes="scccssscsss" />
      <path
         style="color:#000000;display:inline;overflow:visible;visibility:visible;opacity:0.4;fill:none;fill-opacity:1;fill-rule:nonzero;stroke:#000000;stroke-width:1;stroke-miterlimit:4;stroke-dasharray:none;stroke-opacity:1;marker:none;enable-background:accumulate"
         d="m 337.97659,211.50015 c 4.67187,0 5.5471,-0.42296 5.52255,-4.54923 v -7.95037 -5.95084 c 0.0245,-4.12627 -0.85068,-4.54923 -5.52255,-4.54923 h -11.95364 c -4.67071,0 -5.52256,0.42291 -5.52256,4.54923 v 5.95084 7.95037 c 0,4.12632 0.85185,4.54923 5.52256,4.54923 z"
         id="path958-6"
         inkscape:connector-curvature="0"
         sodipodi:nodetypes="scccssscsss" />
      <path
         style="color:#000000;display:inline;overflow:visible;visibility:visible;opacity:0.4;fill:none;fill-opacity:1;fill-rule:nonzero;stroke:#000000;stroke-width:1;stroke-miterlimit:4;stroke-dasharray:none;stroke-opacity:1;marker:none;enable-background:accumulate"
         d="m 331.55494,251.5 c 3.33705,0 3.96221,-0.30212 3.94468,-3.24946 v -4.2505 -4.25059 c 0.0175,-2.94734 -0.60763,-3.24945 -3.94468,-3.24945 h -7.11025 c -3.33622,0 -3.94469,0.30208 -3.94469,3.24945 v 4.25059 4.2505 c 0,2.94738 0.60847,3.24946 3.94469,3.24946 z"
         id="path958-6-0"
         inkscape:connector-curvature="0"
         sodipodi:nodetypes="scccssscsss" />
    </g>
    <g
       inkscape:groupmode="layer"
       id="layer5"
       inkscape:label="Highlights"
       style="display:inline;opacity:0.7">
      <path
         style="color:#000000;display:inline;overflow:visible;visibility:visible;opacity:1;fill:url(#linearGradient1692-6);fill-opacity:1;fill-rule:nonzero;stroke:none;stroke-width:1;marker:none;enable-background:accumulate"
         d="m 324.44531,237 c -1.65302,0 -2.54604,0.12548 -2.91601,0.41406 -0.18499,0.14429 -0.30479,0.33122 -0.39649,0.70313 C 321.0411,238.4891 321,239.03036 321,239.75 v 4.25 4.25 c 0,0.71964 0.0411,1.26082 0.13281,1.63281 0.0917,0.37191 0.2115,0.55884 0.39649,0.70313 0.36997,0.28858 1.26299,0.41406 2.91601,0.41406 h 7.10938 c 1.65343,0 2.55203,-0.12511 2.92383,-0.41406 0.18589,-0.14448 0.30578,-0.33208 0.39648,-0.70313 0.0907,-0.37105 0.129,-0.90979 0.125,-1.6289 v -0.002 V 244 v -4.25195 -0.002 c 0.004,-0.71911 -0.0343,-1.25785 -0.125,-1.6289 -0.0907,-0.37105 -0.21059,-0.55865 -0.39648,-0.70313 C 334.10673,237.12512 333.20812,237 331.55469,237 Z m 5.32813,1.04688 c 1.10767,-3.4e-4 2.21363,0.008 3.32031,0.0449 0.26616,0.0599 0.75737,-0.0208 0.79297,0.3457 0.13405,1.84438 0.0662,3.68774 0.10156,5.53906 -0.0126,1.86745 0.0543,3.67031 -0.10351,5.49805 0.0642,0.42314 -0.43946,0.35577 -0.70313,0.42187 -3.43277,0.0703 -6.87577,0.0589 -10.29883,0.002 -0.22288,-0.0398 -0.55622,-3.2e-4 -0.71093,-0.1875 -0.19863,-1.12995 -0.12696,-2.26946 -0.16016,-3.41992 0.0138,-2.55648 -0.029,-5.10728 0.0898,-7.65625 -0.03,-0.2727 0.10944,-0.49629 0.40039,-0.48829 1.30659,-0.161 2.63265,-0.0636 3.94727,-0.0976 1.10718,0.006 2.21655,-0.002 3.32422,-0.002 z"
         id="path918-6"
         inkscape:connector-curvature="0" />
      <path
         style="color:#000000;display:inline;overflow:visible;visibility:visible;opacity:1;fill:url(#linearGradient1690-9);fill-opacity:1;fill-rule:nonzero;stroke:none;stroke-width:1;marker:none;enable-background:accumulate"
         d="m 326.02383,189.00048 c -2.32027,0 -3.60941,0.15494 -4.20703,0.62109 -0.29882,0.23308 -0.48964,0.54668 -0.625,1.09571 -0.13541,0.54902 -0.19141,1.31765 -0.19141,2.33203 v 5.95117 7.95084 c 0,1.01437 0.056,1.783 0.19141,2.33203 0.13536,0.54903 0.32618,0.86263 0.625,1.09571 0.59762,0.46615 1.88676,0.62109 4.20703,0.62109 h 11.9524 c 2.32085,0 3.61652,-0.15457 4.2168,-0.62109 0.30014,-0.23327 0.49095,-0.54754 0.625,-1.09571 0.13404,-0.54816 0.18764,-1.31623 0.18164,-2.33008 v -7.95279 -5.95312 c 0.006,-1.01386 -0.0476,-1.78191 -0.18164,-2.33008 -0.13406,-0.54817 -0.32486,-0.86244 -0.625,-1.09571 -0.60028,-0.46652 -1.89595,-0.62109 -4.2168,-0.62109 z m 4.95859,1.00977 c 1.5798,-0.002 4.16014,-3.9e-4 5.73991,0.0117 1.50021,0.0511 3.02236,-0.0712 4.5,0.28321 0.55111,0.0919 0.61303,0.71807 0.67773,1.16601 0.1117,4.30832 0.075,10.62608 0.0508,14.94108 -0.0716,0.99089 0.13687,2.07606 -0.30078,3.01366 -0.34356,0.40964 -0.9694,0.35958 -1.45117,0.45509 -3.95407,0.0823 -9.92936,0.0499 -13.89381,0.0371 -1.16908,-0.0622 -2.37292,0.11291 -3.51758,-0.22266 -0.57935,-0.098 -0.6137,-0.75914 -0.6875,-1.2207 -0.1146,-4.11835 -0.0751,-10.24472 -0.0547,-14.36881 0.0572,-1.06305 -0.0797,-2.16734 0.18164,-3.21485 0.10495,-0.6386 0.8614,-0.66043 1.36719,-0.74023 2.1305,-0.19658 5.24071,-0.10662 7.38828,-0.14062 z"
         id="path914-6"
         inkscape:connector-curvature="0"
         sodipodi:nodetypes="sccscsccsscccccccssccccccccccccccc" />
      <path
         style="color:#000000;display:inline;overflow:visible;visibility:visible;opacity:1;fill:url(#linearGradient1688-4);fill-opacity:1;fill-rule:nonzero;stroke:none;stroke-width:1;marker:none;enable-background:accumulate"
         d="m 329.12695,134 c -3.21072,0 -5.03255,0.19514 -5.9375,0.89844 -0.45247,0.35165 -0.74178,0.83286 -0.93359,1.61718 -0.19176,0.78433 -0.26386,1.85686 -0.25586,3.26368 v 0.002 8.21875 8.21875 0.002 c -0.008,1.40682 0.0641,2.47935 0.25586,3.26368 0.1918,0.78431 0.48112,1.26553 0.93359,1.61718 0.90496,0.7033 2.72678,0.89844 5.9375,0.89844 h 13.7461 c 3.20992,0 5.02461,-0.19551 5.92578,-0.89844 0.45058,-0.35146 0.73805,-0.83201 0.93164,-1.61718 C 349.9241,158.69918 350,157.62415 350,156.2168 V 148 139.7832 c 0,-1.40735 -0.0759,-2.48237 -0.26953,-3.26758 -0.19359,-0.78517 -0.48106,-1.26572 -0.93164,-1.61718 C 347.89766,134.19551 346.08297,134 342.87305,134 Z m 6.49805,1.04688 c 3.45647,0.0171 6.9142,-0.0268 10.36133,0.0918 0.8211,0.13276 1.80664,0.14835 2.39062,0.82617 0.67884,1.16473 0.51296,2.58781 0.56446,3.87305 0.0431,6.02893 0.0678,12.06719 -0.0332,18.08789 -0.0775,0.77792 -0.12055,1.67263 -0.67968,2.27539 -0.70249,0.51038 -1.61833,0.59683 -2.45899,0.67383 -4.04742,0.0864 -8.16222,0.0456 -12.24023,0.0606 -2.45188,-0.0199 -4.91402,0.0317 -7.35352,-0.0606 -0.87784,-0.12055 -1.915,-0.14021 -2.56055,-0.83398 -0.64775,-1.02591 -0.50264,-2.30525 -0.56054,-3.46485 -0.035,-5.65575 -0.0351,-11.35518 0,-17.00976 0.0632,-1.22153 -0.10864,-2.57724 0.59179,-3.65235 0.6025,-0.62665 1.55621,-0.63986 2.35938,-0.77344 2.73743,-0.10739 5.48083,-0.0704 8.22656,-0.0918 0.46403,-2.9e-4 0.92855,-0.002 1.39258,-0.002 z"
         id="path964-7-2"
         inkscape:connector-curvature="0" />
      <path
         style="color:#000000;display:inline;overflow:visible;visibility:visible;opacity:1;fill:url(#linearGradient1686-0);fill-opacity:1;fill-rule:nonzero;stroke:none;stroke-width:1;marker:none;enable-background:accumulate"
         d="m 333.33594,62 c -4.99049,0 -7.87051,0.276282 -9.38477,1.453125 -0.75713,0.588421 -1.23761,1.403518 -1.54492,2.660156 -0.3073,1.256638 -0.4173,2.940031 -0.4043,5.132813 V 84 96.753906 c -0.0131,2.19278 0.097,3.876174 0.4043,5.132814 0.30731,1.25663 0.78779,2.07172 1.54492,2.66016 1.51427,1.17683 4.39428,1.45312 9.38477,1.45312 h 21.33008 c 4.98923,0 7.85502,-0.27668 9.36328,-1.45312 0.75412,-0.58824 1.23293,-1.40461 1.54297,-2.66211 C 365.8823,100.62727 366,98.945281 366,96.751953 V 84 71.248047 c 0,-2.193329 -0.1177,-3.875313 -0.42773,-5.132813 -0.31004,-1.257499 -0.78884,-2.073874 -1.54297,-2.662109 C 362.52104,62.276656 359.65526,62 354.66602,62 Z m 2.40234,1.097656 c 6.94737,8.3e-4 13.91063,0.0034 20.84961,0.05469 2.14296,0.08293 4.46431,-0.147701 6.42383,0.93164 1.29609,0.695228 1.54862,2.250325 1.76953,3.564454 0.17551,2.202888 0.0915,4.442228 0.13867,6.669921 0.0227,8.479532 0.077,16.968993 -0.0801,25.447266 -0.16151,1.483233 -0.38135,3.305793 -1.79882,4.142573 -1.6055,0.82871 -3.47551,0.90643 -5.24805,0.95313 -9.49974,0.0678 -19.0243,0.0843 -28.52344,-0.0176 -1.57816,-0.11413 -3.27053,-0.24014 -4.63281,-1.12109 -1.22952,-0.99538 -1.36082,-2.72739 -1.50391,-4.193361 -0.1272,-8.998585 -0.0836,-18.004484 -0.0527,-27.007813 0.0997,-2.381275 -0.24538,-4.900002 0.70508,-7.160156 0.67165,-1.50972 2.46573,-1.859954 3.93945,-2.05664 2.66168,-0.316582 5.34184,-0.147022 8.01367,-0.207032 z"
         id="path964-3"
         inkscape:connector-curvature="0" />
    </g>
  </g>
</svg>
