<svg version="1.1" viewBox="0 0 16 16" xmlns="http://www.w3.org/2000/svg">
 <path d="m8.8985 8.7876c-0.04065-0.013275-0.29775-0.12918-0.13711-0.6175h-0.00225c0.41874-0.43128 0.73875-1.1253 0.73875-1.8085 0-1.0506-0.6986-1.6013-1.5105-1.6013-0.81242 0-1.5072 0.55048-1.5072 1.6013 0 0.68606 0.31822 1.3828 0.73952 1.8131 0.16422 0.43076-0.12944 0.59064-0.19083 0.61289-0.57242 0.18511-2.1296 1.108-2.105 2.452h6.1521c0.027454-1.2839-1.2043-2.1177-2.1775-2.452zm5.1015-0.78764a6 6 0 0 1-6 6 6 6 0 0 1-6-6 6 6 0 0 1 6-6 6 6 0 0 1 6 6z" fill="#bebebe"/>
</svg>
