<svg version="1.1" viewBox="0 0 16 16" xmlns="http://www.w3.org/2000/svg">
 <path d="m16 7.0002h-2.5v2h2.5zm-2-3.5c0-0.277-0.223-0.5-0.5-0.5h-5c-0.277 0-0.5 0.223-0.5 0.5v2.6387a1.0001 1.0001 0 0 1 0.5-0.13672h0.5v-2.002h3.9999v2.1367a1.0001 1.0001 0 0 1 0.49803-0.13477h0.50196zm0 6.494h-0.50196a1.0001 1.0001 0 0 1-0.49803-0.13477v2.1406h-3.9999v-2.0059h-0.5a1.0001 1.0001 0 0 1-0.5-0.13672v2.6426c0 0.277 0.223 0.5 0.5 0.5h5c0.277 0 0.5-0.223 0.5-0.5zm-2.5-2.9942h-3v2h3zm-4.4999-5.5c0-0.277-0.223-0.5-0.5-0.5h-5c-0.277 0-0.5 0.223-0.5 0.5v4.5018h0.50196a1.0001 1.0001 0 0 1 0.49803 0.13281v-4.1348h3.9999v4.0022h0.5a1.0001 1.0001 0 0 1 0.5 0.13477zm0 8.3574a1.0001 1.0001 0 0 1-0.5 0.13672h-0.5v4.006h-3.9999v-4.1405a1.0001 1.0001 0 0 1-0.49803 0.13477h-0.50196v4.506c0 0.277 0.223 0.5 0.5 0.5h5c0.277 0 0.5-0.223 0.5-0.5zm-0.5-2.8575h-3v2h3zm-5 0h-1.5v2h1.5z" fill="#bebebe" stroke-width="3.7796" style="paint-order:normal"/>
 <path d="m14 3.9999h-6v8.0002h6zm-7.0001-2h-6v12h6z" fill="#bebebe" fill-opacity=".93141" opacity=".1" stroke-width="3.7796"/>
</svg>
