<svg version="1.1" viewBox="0 0 16 16" xmlns="http://www.w3.org/2000/svg">
 <path d="m13.195 4.9883c-0.53651-0.91922-1.2643-1.647-2.1835-2.1835-0.9194-0.53651-1.9231-0.80472-3.0117-0.80472s-2.0925 0.26821-3.0117 0.80472c-0.91931 0.53642-1.6471 1.2642-2.1836 2.1835-0.53661 0.9193-0.80481 1.9233-0.80481 3.0117 0 1.0886 0.2683 2.0923 0.80472 3.0117 0.53651 0.91912 1.2643 1.647 2.1836 2.1835 0.91931 0.53651 1.9232 0.80472 3.0117 0.80472 1.0886 0 2.0925-0.26821 3.0117-0.80472 0.91921-0.53642 1.647-1.2643 2.1835-2.1835 0.53642-0.9193 0.80462-1.9233 0.80462-3.0117 0-1.0886-0.26821-2.0925-0.80453-3.0117zm-2.3673 4.4258c0.09896 0.098856 0.14853 0.21623 0.14853 0.35163 0 0.14057-0.04957 0.26044-0.14853 0.3593l-0.70308 0.70317c-0.09896 0.09896-0.21873 0.14844-0.3594 0.14844-0.1354 0-0.25277-0.04951-0.35154-0.14844l-1.4141-1.4141-1.4141 1.4141c-0.098959 0.09896-0.21614 0.14844-0.35154 0.14844-0.14067 0-0.26044-0.04951-0.3594-0.14844l-0.70317-0.70317c-0.09896-0.098864-0.14844-0.21873-0.14844-0.3593 0-0.1354 0.049481-0.25277 0.14844-0.35163l1.4141-1.414-1.4141-1.4141c-0.09896-0.098866-0.14844-0.21614-0.14844-0.35154 0-0.14067 0.049481-0.26044 0.14844-0.3594l0.70317-0.70307c0.098959-0.098963 0.21873-0.14844 0.3594-0.14844 0.1354 0 0.25258 0.0495 0.35154 0.14844l1.4141 1.414 1.4141-1.414c0.09877-0.098963 0.21614-0.14844 0.35154-0.14844 0.14067 0 0.26044 0.0495 0.3594 0.14844l0.70308 0.70307c0.09896 0.098963 0.14853 0.21873 0.14853 0.3594 0 0.1354-0.04957 0.25267-0.14853 0.35154l-1.414 1.4141z" fill="#bebebe"/>
</svg>
