<svg version="1.1" viewBox="0 0 16 16" xmlns="http://www.w3.org/2000/svg">
 <path d="m7.9897 2c-0.81345 0-1.5866 0.16176-2.3291 0.48047-1.4749 0.63293-2.5552 1.7065-3.189 3.1846-0.31757 0.74048-0.47168 1.5138-0.47168 2.3276 0 0.814 0.15411 1.5958 0.47168 2.3364 0.63375 1.478 1.7142 2.5574 3.189 3.1904 0.74265 0.31871 1.5156 0.48047 2.3291 0.48047 0.81347 0 1.5932-0.16345 2.3364-0.48047 1.4872-0.63463 2.5621-1.7149 3.1948-3.1904 0.31853-0.74301 0.479-1.5224 0.479-2.3364 0-0.81385-0.16031-1.5846-0.479-2.3276-0.63263-1.4756-1.7076-2.55-3.1948-3.1846-0.74333-0.31718-1.5228-0.48047-2.3364-0.48047zm-0.3706 2.2017c0.30594 0 0.55518 0.25055 0.55518 0.55664v3.8115l2.1606 1.689c0.25031 0.18552 0.28797 0.53812 0.10254 0.7793-0.10199 0.13913-0.26965 0.2124-0.43652 0.2124-0.12051 0-0.23932-0.04591-0.34131-0.12012l-2.3833-1.8545c-0.1298-0.10204-0.21387-0.2603-0.21387-0.43652v-4.0811c0-0.30609 0.2507-0.55664 0.55664-0.55664z" fill="#bebebe"/>
</svg>
