<svg version="1.1" viewBox="0 0 16 16" xmlns="http://www.w3.org/2000/svg">
 <path d="m3.2003 2c-0.3324 0-0.59933 0.26861-0.59933 0.601v10.798c0 0.3324 0.26693 0.601 0.59933 0.601h9.5993c0.3324 0 0.59933-0.2686 0.59933-0.601v-10.798c0-0.3324-0.26693-0.601-0.59933-0.601zm4.7963 3c0.38172 0 0.69141 0.30923 0.69141 0.69141 0 0.38218-0.30969 0.69308-0.69141 0.69308-0.38171 0-0.68973-0.3109-0.68973-0.69308 0-0.38218 0.30802-0.69141 0.68973-0.69141zm0 1.9771c0.38172 0 0.69141 0.30923 0.69141 0.69141 0 0.38218-0.30969 0.69308-0.69141 0.69308-0.38171 0-0.68973-0.3109-0.68973-0.69308 0-0.38218 0.30802-0.69141 0.68973-0.69141zm-1.9487 1.0547c0.10734 0 0.21437 0.041734 0.29632 0.12388l1.6557 1.8298 1.6574-1.8298c0.16391-0.1643 0.42892-0.1643 0.59264 0 0.1637 0.1643 0.1637 0.43001 0 0.59431l-1.9286 2.1278c-0.088663 0.08874-0.20552 0.12786-0.32143 0.12054-0.11612 0.0073-0.23443-0.03176-0.3231-0.12054l-1.9252-2.1278c-0.1639-0.1643-0.1639-0.43001 0-0.59431 0.081943-0.082149 0.18897-0.12388 0.29631-0.12388z" fill="#bebebe"/>
</svg>
