<svg version="1.1" viewBox="0 0 16 16" xmlns="http://www.w3.org/2000/svg">
 <path d="m11.101 10.089-0.98056-0.98066c-0.19531-0.19453-0.51874-0.18862-0.72085 0.013574l-0.49401 0.49391c-0.0312-0.01718-0.063525-0.03518-0.097485-0.05422-0.31195-0.17286-0.73893-0.40978-1.1882-0.85941-0.45063-0.45058-0.68776-0.8782-0.86115-1.1904-0.0183-0.033075-0.03585-0.06495-0.0531-0.095235l0.33155-0.33106 0.163-0.1632c0.20242-0.20248 0.208-0.52582 0.013125-0.72091l-0.98056-0.98077c-0.19485-0.19482-0.51843-0.18891-0.72085 0.013575l-0.27635 0.27794 0.00758 0.0075c-0.092665 0.11824-0.1701 0.25461-0.22772 0.40167-0.0531 0.13999-0.08619 0.27356-0.10131 0.40742-0.12948 1.0734 0.36103 2.0544 1.6922 3.3856 1.8401 1.84 3.323 1.701 3.3869 1.6942 0.13933-0.01665 0.27285-0.04995 0.40855-0.10264 0.14578-0.05692 0.28207-0.13427 0.40023-0.22674l6e-3 0.0052 0.27997-0.27415c0.202-0.20244 0.20782-0.52589 0.01305-0.7213zm2.8748-2.6225a6 6 0 0 1-5.4423 6.5101 6 6 0 0 1-6.5101-5.4423 6 6 0 0 1 5.4423-6.5101 6 6 0 0 1 6.5101 5.4423z" fill="#bebebe"/>
</svg>
