<svg version="1.1" viewBox="0 0 16 16" xmlns="http://www.w3.org/2000/svg">
 <path d="m7.1328 2c-0.15103 0-0.24481 0.073439-0.28125 0.21931-0.0677 0.26035-0.14267 0.74477-0.226 1.4531-0.24481 0.078257-0.48231 0.17655-0.7115 0.29632l-1.0781-0.83538c-0.0677-0.052028-0.13487-0.078683-0.20257-0.078683-0.11459 0-0.36066 0.18671-0.73828 0.55915-0.37762 0.37245-0.63459 0.65125-0.77009 0.83873-0.046891 0.067715-0.070312 0.12873-0.070312 0.1808 0 0.062486 0.026614 0.12507 0.078683 0.1875 0.34895 0.42193 0.62701 0.78115 0.83538 1.0781-0.13022 0.23954-0.23181 0.47865-0.30469 0.71819l-1.4531 0.21931c-0.057248 0.010457-0.10728 0.043121-0.149 0.10045-0.041711 0.057257-0.061942 0.11838-0.061942 0.1808v1.7344c0 0.0678 0.020229 0.12782 0.061942 0.18248 0.041713 0.05477 0.096363 0.08842 0.16406 0.09877l1.4297 0.21094c0.072878 0.25516 0.18076 0.51309 0.32143 0.77344-0.093686 0.13022-0.23441 0.31374-0.42187 0.55078-0.18747 0.23704-0.32038 0.40956-0.39844 0.51898-0.041713 0.05743-0.063616 0.11661-0.063616 0.17913 0 0.06772 0.018806 0.12873 0.055246 0.1808 0.2031 0.28135 0.63278 0.71884 1.2891 1.3125 0.057344 0.05734 0.12299 0.08538 0.19587 0.08538 0.078152 0 0.14213-0.02352 0.1942-0.07032l1.1016-0.83537c0.21365 0.10941 0.44796 0.20452 0.70312 0.28794l0.21931 1.4381c0.00527 0.06772 0.035744 0.12311 0.090402 0.16741 0.054658 0.044402 0.11797 0.066966 0.19085 0.066966h1.7344c0.15122 0 0.24472-0.07344 0.28125-0.21931 0.067604-0.26044 0.14267-0.74478 0.226-1.4531 0.24481-0.07817 0.48241-0.17655 0.7115-0.29632l1.0781 0.84375c0.07287 0.0468 0.14182 0.07032 0.20424 0.07032 0.1145 0 0.35832-0.18427 0.73326-0.55413 0.37513-0.36976 0.63296-0.651 0.77344-0.84375 0.04689-0.05203 0.07031-0.1131 0.07031-0.1808 0-0.06772-0.02652-0.13187-0.07868-0.1942-0.37494-0.45836-0.65299-0.81768-0.83538-1.0781 0.10414-0.19275 0.20573-0.43025 0.30469-0.7115l1.4448-0.21931c0.06243-0.01046 0.11575-0.04311 0.15737-0.10045 0.04161-0.057346 0.061939-0.11838 0.061939-0.18081v-1.7344c9.5e-5 -0.067714-0.02013-0.12772-0.06194-0.18248-0.04181-0.054772-0.09636-0.088418-0.16406-0.098772l-1.4297-0.21763c-0.07816-0.24999-0.18603-0.5063-0.32143-0.76674 0.09369-0.13022 0.23441-0.31374 0.42188-0.55078s0.32029-0.40956 0.39844-0.51897c0.04171-0.057343 0.06362-0.11661 0.06362-0.17913 0-0.072857-0.01872-0.13072-0.05524-0.17243-0.18747-0.26571-0.61715-0.70772-1.2891-1.3276-0.06233-0.052028-0.12827-0.078683-0.19587-0.078683-0.07816 0-0.14061 0.023512-0.1875 0.070312l-1.1083 0.83538c-0.21365-0.10941-0.44796-0.20461-0.70312-0.28795l-0.21931-1.4381c-0.0051773-0.067714-0.035744-0.12311-0.090402-0.16741-0.054754-0.044314-0.11778-0.066964-0.19085-0.066964zm0.86719 3.9994c0.55215 0 1.0241 0.19537 1.4146 0.58594 0.39057 0.39067 0.58594 0.86247 0.58594 1.4146 0 0.55215-0.19537 1.0241-0.58594 1.4146-0.39057 0.39066-0.86248 0.58594-1.4146 0.58594s-1.024-0.19528-1.4146-0.58594c-0.39057-0.39057-0.58594-0.86247-0.58594-1.4146 0-0.55215 0.19527-1.024 0.58594-1.4146 0.39066-0.39057 0.86257-0.58594 1.4146-0.58594z" fill="#bebebe"/>
</svg>
