<svg version="1.1" viewBox="0 0 16 16" xmlns="http://www.w3.org/2000/svg">
 <path d="m7.1352 2c-0.29378 0.0010646-0.58565 0.11356-0.80691 0.33649-0.44255 0.44576-0.44065 1.1762 0.0050223 1.6188l4.0613 4.0329-4.0329 4.0613c-0.44254 0.44572-0.43898 1.1779 0.0067 1.6205 0.44571 0.44282 1.1763 0.4393 1.6188-0.0067l4.8398-4.8749c0.2212-0.22284 0.3342-0.51772 0.33314-0.81026-0.0011-0.29231-0.11539-0.58731-0.33816-0.80858l-4.8749-4.8398c-0.22292-0.22132-0.51813-0.33086-0.81193-0.32979zm-1.9269 4.1065c-1.0363 0-1.8833 0.84541-1.8833 1.8817 0 1.0363 0.84709 1.8833 1.8833 1.8833 1.0363 0 1.8833-0.84705 1.8833-1.8833 0-1.0363-0.84705-1.8817-1.8833-1.8817z" fill="#43be80"/>
</svg>
