<svg version="1.1" viewBox="0 0 16 16" xmlns="http://www.w3.org/2000/svg">
 <path d="m9.3334 2c-0.26749 0-0.5343 0.10351-0.7385 0.31054l-5.2919 4.8719c-0.22059 0.22426-0.31908 0.52418-0.30087 0.81736-0.018188 0.2937 0.080191 0.59161 0.30087 0.81589l5.2919 4.8734c0.40842 0.41457 1.07 0.41457 1.4784 0 0.40842-0.41456 0.40842-1.0869 0-1.5014l-4.5491-4.1879 4.5491-4.1893c0.40842-0.41457 0.40842-1.0859 0-1.5-0.20421-0.20703-0.47246-0.31054-0.73994-0.31054zm1.9463 4.2582c-0.95002 0-1.7203 0.78202-1.7203 1.7475 0 0.96549 0.77028 1.749 1.7203 1.749 0.95002 0 1.7203-0.78348 1.7203-1.749 0-0.96549-0.77028-1.7475-1.7203-1.7475z" fill="#bebebe"/>
</svg>
