<svg version="1.1" viewBox="0 0 16 16" xmlns="http://www.w3.org/2000/svg">
 <path d="m7.1299 2.003c-0.48919 0.0165-0.96753 0.10703-1.4336 0.2709-0.62146 0.21848-1.164 0.5325-1.6305 0.94335-0.4664 0.41085-0.84829 0.91133-1.1448 1.5014-0.29662 0.59018-0.46722 1.2186-0.51043 1.8837-0.04321 0.66495 0.044764 1.3081 0.26251 1.932 0.21767 0.6237 0.53135 1.1695 0.94064 1.6376 0.40929 0.4683 0.90698 0.85223 1.4948 1.15 0.58792 0.29775 1.2129 0.46778 1.8755 0.51113 1.0194 0.06675 1.9625-0.1617 2.8292-0.684l2.2298 2.5428c0.15528 0.18765 0.35778 0.2898 0.60814 0.30615 0.24089 0.01575 0.45431-0.05925 0.64168-0.2241 0.18754-0.16515 0.28909-0.36908 0.3048-0.6108 0.01609-0.2463-0.05547-0.46125-0.21584-0.64448l-2.2284-2.5487c0.62858-0.79485 0.97626-1.7043 1.0427-2.7275 0.043211-0.66503-0.043293-1.3097-0.26105-1.9334-0.21766-0.62385-0.53135-1.1696-0.94064-1.6376-0.40929-0.46823-0.90844-0.8508-1.4963-1.1485-0.58801-0.29768-1.2129-0.4692-1.8755-0.51263-0.16563-0.0105-0.32986-0.01275-0.49293-0.0075zm0.37772 1.7943c0.8571 0.05625 1.5698 0.40905 2.1394 1.0605 0.56957 0.65138 0.82591 1.4072 0.77002 2.2674-0.0559 0.86055-0.40836 1.5771-1.0573 2.1489-0.64904 0.57172-1.4018 0.8295-2.259 0.7734-0.8571-0.056249-1.5698-0.41055-2.1394-1.062-0.56957-0.65145-0.82738-1.407-0.77147-2.2674 0.055897-0.8604 0.40837-1.5758 1.0573-2.1474 0.64895-0.57173 1.4034-0.8295 2.2605-0.7734z" fill="#bebebe"/>
</svg>
