<svg version="1.1" viewBox="0 0 16 16" xmlns="http://www.w3.org/2000/svg">
 <path d="m3.1947 2-1.1947 1.1947 3.9873 3.9873c-0.64949 0.07511-1.2213 0.3633-1.5979 0.79148-0.43701 0.49681-0.6426 1.1135-0.63717 1.7257 0.0051 0.61221 0.22847 1.2342 0.66372 1.7257s1.1133 0.82301 1.885 0.82301h4.7522l1.7522 1.7522 1.1947-1.1947zm3.4513 1.7522 1.6991 1.6991h1.354c0.36375 0 0.84956 0.52175 0.84956 0.84956v0.84956h-0.50442l2.2035 2.2035v-3.0531c7.6e-5 -1.3885-1.1212-2.5487-2.5487-2.5487zm-0.34513 5.0973h1.354l1.6991 1.6991h-3.0531c-0.33801 0-0.48162-0.09327-0.61062-0.23894-0.129-0.14567-0.23683-0.37327-0.23894-0.61062-0.0017-0.23735 0.088923-0.47026 0.21239-0.61062 0.12347-0.14036 0.27835-0.23894 0.63717-0.23894z" fill="#bebebe"/>
</svg>
