<svg version="1.1" viewBox="0 0 16 16" xmlns="http://www.w3.org/2000/svg">
 <path d="m4.3333 2v1.8462h5.5c0.39248 0 0.91667 0.5669 0.91667 0.92308v0.92308h-4.5833c-0.84266 0-1.591 0.35442-2.0625 0.89423-0.47153 0.53981-0.69336 1.2098-0.6875 1.875 0.0055 0.66519 0.24652 1.341 0.71615 1.875 0.46963 0.53404 1.2013 0.89423 2.0339 0.89423h6.4167v-0.77885c0.0143-0.08649 0-0.14423 0-0.14423v-5.5385c0-1.5086-1.2098-2.7692-2.75-2.7692zm1.8333 5.5385h4.5833v1.8462h-4.5833c-0.36471 0-0.51967-0.10134-0.65885-0.25962-0.13919-0.15827-0.25554-0.40557-0.25781-0.66346-0.0018333-0.25789 0.095948-0.51096 0.22917-0.66346 0.13322-0.1525 0.30034-0.25962 0.6875-0.25962zm-3.6667 4.6154v1.8462h11v-1.8462z" fill="#bebebe"/>
</svg>
