<svg version="1.1" viewBox="0 0 16 16" xmlns="http://www.w3.org/2000/svg">
 <path d="m5.0644 2-2.4499 6.8591h1.2258l0.52079-1.4703h2.3879l0.52079 1.4703h1.3614l-2.5872-6.8591zm0.49065 1.9593 0.85738 2.4499h-1.7148zm4.3974 0.61289v0.85738h2.1435c0.18355 0 0.42869 0.26328 0.42869 0.42869v0.42869h-2.1435c-0.39409 0-0.74404 0.1646-0.96456 0.41529-0.22052 0.25068-0.32426 0.56186-0.32152 0.87078 0.0025721 0.30892 0.11529 0.62275 0.33491 0.87078 0.21963 0.24801 0.56179 0.41529 0.95116 0.41529h3.0008v-0.36171c0.0069-0.040211 0-0.066983 0-0.066983v-2.5721c0-0.70063-0.56579-1.2861-1.2861-1.2861zm0.42869 2.5721h2.1435v0.85738h-2.1435c-0.17057 0-0.24303-0.047075-0.30812-0.12057-0.065075-0.073478-0.11951-0.18835-0.12057-0.30812-8.573e-4 -0.11977 0.044841-0.2373 0.10717-0.30812 0.062331-0.07082 0.14046-0.12057 0.32152-0.12057zm-4.7156 3.4262 2.5721 3.4295 2.5721-3.4295z" fill="#bebebe"/>
</svg>
