<svg version="1.1" viewBox="0 0 16 16" xmlns="http://www.w3.org/2000/svg">
 <g fill="#bebebe" opacity=".5">
  <path d="M8.708 5.663q0 1.19-.085 2.167-.085.963-.212 1.926h-.822q-.127-.963-.212-1.926-.085-.977-.085-2.167V3h1.416zm.241 6.388q0 .382-.255.666Q8.44 13 8 13q-.44 0-.694-.283-.255-.284-.255-.666 0-.382.255-.666.255-.283.694-.283.44 0 .694.283.255.284.255.666z"/>
  <path d="m4.793 0-4.793 4.793v0.20703 6.207l4.793 4.793h5.207v-1h-4.793l-4.207-4.207v-5.5859l4.207-4.207h5.5859l4.207 4.207v4.793h1v-5.207l-4.793-4.793h-6.4141z"/>
 </g>
 <path d="m11.854 11.146-0.70703 0.70703 1.6465 1.6465-1.6465 1.6465 0.70703 0.70703 1.6465-1.6465 1.6465 1.6465 0.70703-0.70703-1.6465-1.6465 1.6465-1.6465-0.70703-0.70703-1.6465 1.6465-1.6465-1.6465z" fill="#bebebe"/>
</svg>
