<svg version="1.1" viewBox="0 0 16 16" xmlns="http://www.w3.org/2000/svg">
 <path d="m11.701 1.943c-1.2054 0-2.1847 0.97935-2.1847 2.1864 0 0.19772 0.036284 0.38398 0.08538 0.56585l-3.7098 1.9001c-0.40052-0.50738-1.0141-0.8404-1.7093-0.8404-1.207 0-2.183 0.98047-2.183 2.1881 0 1.2076 0.97602 2.1864 2.183 2.1864 0.71427 0 1.3416-0.34858 1.7411-0.87891l3.6931 1.8917c-0.05783 0.19607-0.10045 0.39921-0.10045 0.6144 0 1.2076 0.97766 2.1864 2.183 2.1864 1.2081 0 2.1864-0.97879 2.1864-2.1864 0-1.2087-0.97828-2.1864-2.1864-2.1864-0.69408 0-1.3059 0.3302-1.7059 0.83705l-3.7098-1.8984c0.048587-0.18132 0.083705-0.36868 0.083705-0.56585 0-0.21464-0.040934-0.41778-0.098772-0.6144l3.6931-1.8901c0.3978 0.52978 1.0262 0.87556 1.7394 0.87556 1.2081 0 2.1847-0.97657 2.1847-2.1847 0-1.207-0.9766-2.1864-2.1847-2.1864z" fill="#bebebe"/>
</svg>
