<svg version="1.1" viewBox="0 0 16 16" xmlns="http://www.w3.org/2000/svg">
 <g fill="#bebebe">
  <path d="m8.0004 3.25c-0.18145 0-0.34883 0.04445-0.50205 0.13388-0.15324 0.089413-0.27502 0.21121-0.36445 0.36445-0.089445 0.15324-0.13388 0.32061-0.13388 0.50205 0 0.18145 0.044466 0.34879 0.13388 0.50205 0.089429 0.1532 0.21121 0.27428 0.36445 0.3637 0.15324 0.089429 0.3206 0.13388 0.50205 0.13388 0.18145 0 0.34883-0.04445 0.50205-0.13388 0.15322-0.089413 0.27428-0.21048 0.3637-0.3637 0.089413-0.15324 0.13388-0.32061 0.13388-0.50205 0-0.18145-0.04448-0.34883-0.13388-0.50205-0.089428-0.15322-0.21048-0.27502-0.3637-0.36445-0.15325-0.089429-0.32058-0.13388-0.50205-0.13388z"/>
  <path d="m4.2496 3.25c-0.18145 1.2e-6 -0.34808 0.045178-0.5013 0.13457-0.15324 0.08938-0.27502 0.21039-0.36445 0.36357-0.089445 0.15318-0.13388 0.3205-0.13388 0.50186 0 0.18138 0.044466 0.34866 0.13388 0.50186 0.089429 0.15315 0.21047 0.27417 0.3637 0.36357 0.15324 0.089395 0.3206 0.13457 0.50205 0.13457s0.34883-0.045178 0.50205-0.13457c0.15322-0.08938 0.27502-0.21041 0.36445-0.36357 0.089413-0.15318 0.13388-0.3205 0.13388-0.50186 0-0.18138-0.044482-0.3487-0.13388-0.50186-0.089429-0.15316-0.21123-0.27417-0.36445-0.36357-0.15325-0.089395-0.32058-0.13457-0.50205-0.13457z"/>
  <path d="m11.750372 3.2500003c-.181446 0-.348826.044454-.502046.1338787-.153236.0894127-.275019.2112127-.364448.364448-.089444.153236-.133878.3206147-.133878.5020453 0 .1814467.04446.3487934.133878.5020454.08943.1532033.211212.2742753.364448.363704.153236.089429.3206.1338786.502046.1338786s.348826-.044454.502046-.1338786c.153219-.089413.274275-.2104847.363704-.363704.089412-.153236.133878-.320614.133878-.5020454 0-.1814473-.04448-.348826-.133878-.5020453-.089429-.153218-.210485-.2750173-.363704-.3644467-.153252-.0894286-.320584-.1338786-.502046-.1338786z"/>
  <path d="m4.2496281 10.75c-.1814468 0-.3488257.04446-.5020454.133879-.1532357.089412-.2742752.210468-.3637039.363704-.0894447.153235-.1338788.320615-.1338788.502044 0 .181447.044466.348794.1338788.502046.089429.153203.2104682.275018.3637039.364447.1532357.08943.3205986.13388.5020454.13388.1814469 0 .3488257-.04446.5020453-.133878.1532198-.08941.2750191-.211228.3644478-.364448.0894129-.153235.1338788-.320615.1338788-.502044 0-.181448-.044482-.348827-.1338788-.502046-.0894287-.15322-.211228-.274275-.3644478-.363704-.1532516-.089429-.3205824-.133878-.5020453-.133878z"/>
  <path d="m8.0003719 10.75c-.1814469 0-.3488255.04445-.5020455.133879-.1532354.089412-.2750188.211212-.3644477.364448-.0894446.153235-.1338787.320614-.1338787.502045 0 .181447.044466.348794.1338787.502046.089429.153203.2112123.274275.3644477.363704.153236.089428.3205986.133878.5020455.133878.1814471 0 .3488255-.044448.5020455-.133878.1532196-.089413.2742751-.210485.3637036-.363704.089413-.153236.133879-.320615.133879-.502046 0-.181447-.04448-.348826-.133879-.502045-.0894285-.15322-.210484-.27502-.3637036-.364448-.1532515-.089429-.3205824-.133879-.5020455-.133879z"/>
  <path d="m11.750372 10.75c-.181446 0-.348826.04446-.502046.133879-.153236.08941-.275019.211212-.364448.364448-.08944.153236-.133878.320615-.133878.502045 0 .181447.04446.348794.133878.502046.08943.153203.211212.274275.364448.363704.153236.08943.3206.133878.502046.133878s.348826-.04446.502046-.133878c.153219-.08941.274275-.210485.363704-.363704.08941-.153236.133878-.320615.133878-.502046 0-.181447-.04448-.348826-.133878-.502045-.08943-.153218-.210485-.275017-.363704-.364447-.153252-.08943-.320584-.133878-.502046-.133878z"/>
  <path d="m4.2496 7c-0.18145 0-0.34883 0.044454-0.50205 0.13388-0.15324 0.089413-0.27428 0.21047-0.3637 0.3637-0.089445 0.15323-0.13388 0.32061-0.13388 0.50204 0 0.18145 0.044466 0.34879 0.13388 0.50205 0.089429 0.1532 0.21047 0.27502 0.3637 0.36445 0.15324 0.08943 0.3206 0.13388 0.50205 0.13388 0.18145 0 0.34883-0.044456 0.50205-0.13388 0.15322-0.089413 0.27502-0.21123 0.36445-0.36445 0.089413-0.15324 0.13388-0.32062 0.13388-0.50204 0-0.18145-0.044482-0.34883-0.13388-0.50205-0.089429-0.15322-0.21123-0.27428-0.36445-0.3637-0.15325-0.089429-0.32058-0.13388-0.50205-0.13388z"/>
  <path d="m8.0004 7c-0.18145 0-0.34883 0.044454-0.50205 0.13388-0.15324 0.089413-0.27502 0.21121-0.36445 0.36445-0.089445 0.15324-0.13388 0.32061-0.13388 0.50204 0 0.18145 0.044466 0.34879 0.13388 0.50205 0.089429 0.1532 0.21121 0.27428 0.36445 0.3637 0.15324 0.089429 0.3206 0.13388 0.50205 0.13388 0.18145 0 0.34883-0.044448 0.50205-0.13388 0.15322-0.089413 0.27428-0.21048 0.3637-0.3637 0.089413-0.15324 0.13388-0.32061 0.13388-0.50205 0-0.18145-0.04448-0.34883-0.13388-0.50204-0.089428-0.15322-0.21048-0.27502-0.3637-0.36445-0.15325-0.089429-0.32058-0.13388-0.50205-0.13388z"/>
  <path d="m11.750372 7.0000002c-.181446 0-.348826.044454-.502046.1338788-.153236.0894126-.275019.2112122-.364448.3644482-.089444.153236-.133878.3206144-.133878.5020448 0 .1814472.04446.3487936.133878.5020456.08943.1532032.211212.2742752.364448.363704.153236.089429.3206.1338784.502046.1338784s.348826-.044456.502046-.1338784c.153219-.089414.274275-.2104848.363704-.363704.089412-.153236.133878-.3206144.133878-.5020456 0-.1814472-.04448-.3488256-.133878-.5020448-.089429-.1532184-.210485-.2750176-.363704-.364447-.153252-.0894286-.320584-.1338786-.502046-.1338786z"/>
 </g>
</svg>
