<svg version="1.1" viewBox="0 0 16 16" xmlns="http://www.w3.org/2000/svg">
 <path d="m8.0118 12.918c1.0363 0 1.8817-0.84709 1.8817-1.8833 0-1.0363-0.84541-1.8833-1.8817-1.8833-1.0363 0-1.8833 0.84705-1.8833 1.8833 0 1.0363 0.84705 1.8833 1.8833 1.8833zm4.8414-2.6718c0.29376 1e-3 0.58737-0.11019 0.81025-0.33147 0.22293-0.22126 0.33543-0.51313 0.33649-0.80691 8.57e-4 -0.2938-0.10848-0.58901-0.32979-0.81193l-4.8398-4.8749c-0.22128-0.22278-0.51627-0.33711-0.80858-0.33816-0.29254-8.572e-4 -0.58742 0.11194-0.81025 0.33314l-4.8749 4.8398c-0.446 0.44257-0.44951 1.1731-0.00686 1.6188 0.44257 0.44567 1.1748 0.44924 1.6205 0.0067l4.0613-4.0329 4.0329 4.0613c0.22132 0.22284 0.51483 0.33543 0.80858 0.33649z" fill="#bebebe"/>
</svg>
