<svg version="1.1" viewBox="0 0 16 16" xmlns="http://www.w3.org/2000/svg">
 <path d="m7.9994 2c-0.50785 0-0.91678 0.41161-0.91678 0.92279v4.6175c0 0.51117 0.40893 0.92279 0.91678 0.92279 0.50785 0 0.91678-0.41161 0.91678-0.92279v-4.6175c0-0.51117-0.40893-0.92279-0.91678-0.92279zm2.6948 1.8384a0.91687 0.92288 0 0 0-0.49778 1.6689c1.2632 0.9511 1.7795 2.5989 1.2874 4.1075-0.49207 1.5086-1.8784 2.5271-3.4558 2.5395-1.5775 0.012365-2.9799-0.98468-3.4952-2.4854-0.51536-1.5007-0.023564-3.1565 1.2248-4.1273a0.91687 0.92288 0 1 0-1.1209-1.4599c-1.8656 1.4508-2.6056 3.9481-1.8354 6.191 0.7702 2.2428 2.8835 3.7457 5.2411 3.7272 2.3575-0.01847 4.4484-1.5555 5.1838-3.8101 0.73542-2.2546-0.04419-4.7389-1.932-6.1603a0.91687 0.92288 0 0 0-0.59985-0.19105z" fill="#bebebe"/>
</svg>
