<svg version="1.1" viewBox="0 0 16 16" xmlns="http://www.w3.org/2000/svg">
 <path d="m8 4.4v6.8167h2.3738c0.74263 0 1.4104-0.28856 1.8298-0.7312 0.41937-0.44264 0.60126-1.0059 0.59344-1.5568-0.00792-0.55086-0.22603-1.0975-0.6429-1.5332s-1.0515-0.7312-1.7803-0.7312h-0.79126v-2.2644zm-4.7475 0.75479v1.5096h2.2996c-0.043678 0 0.074141 0.1291 0.074141 0.070762v0.70762h-0.79126c-1.3577 0-2.4037 0.83771-2.4232 1.8634-0.00973 0.51284 0.25281 1.0214 0.69235 1.3681s1.0362 0.54251 1.7309 0.54251h2.3738v-4.4816c0-0.87616-0.69772-1.5683-1.632-1.5803h-2.3243zm6.33 3.0192h0.79126c0.33374 0 0.4903 0.10224 0.61817 0.23587 0.12787 0.13363 0.21958 0.33433 0.22254 0.54251 0.0032 0.20818-0.07786 0.39228-0.19781 0.51892-0.11998 0.12664-0.2799 0.23587-0.6429 0.23587h-0.79126zm-4.7475 0.77838h0.79126v0.75479h-0.79126c-0.41099 0-0.61727-0.10998-0.71708-0.1887-0.099809-0.078714-0.12466-0.13438-0.12363-0.1887 0.002376-0.10863 0.07335-0.3774 0.84071-0.3774zm-0.79126 2.4531-0.27199 0.28305-1.5825 1.5096a0.39567 0.37743 0 1 0 0.54399 0.51892l1.3105-1.2501 1.3105 1.2501 0.27199 0.28305 0.27199-0.28305 1.3105-1.2501 1.3105 1.2501 0.27199 0.28305 0.27199-0.28305 1.3105-1.2501 1.3105 1.2501 0.27199 0.28305 0.27199-0.28305 1.5825-1.5096a0.39567 0.37743 0 1 0-0.54399-0.51892l-1.3105 1.2501-1.3105-1.2501-0.27199-0.28305-0.272 0.28305-1.3105 1.2501-1.3105-1.2501-0.27199-0.28305-0.27199 0.28305-1.3105 1.2501-1.3105-1.2501z" fill="#bebebe"/>
</svg>
