<svg version="1.1" viewBox="0 0 16 16" xmlns="http://www.w3.org/2000/svg">
 <path d="m6.4002 3c-0.22085 0-0.43609 0.071029-0.64651 0.21322-0.21041 0.14228-0.35624 0.31153-0.4354 0.50781l-0.31831 0.81706h-1.4002c-0.44171 0-0.81887 0.15042-1.1314 0.45085-0.31244 0.30051-0.46839 0.66252-0.46839 1.0872v5.3857c0 0.42472 0.15595 0.78689 0.46839 1.0872 0.31252 0.30051 0.68968 0.45085 1.1314 0.45085h8.8004c0.44169 0 0.81887-0.15034 1.1314-0.45085 0.31244-0.30035 0.46839-0.66252 0.46839-1.0872v-5.3857c5.1e-5 -0.42472-0.15595-0.78673-0.46839-1.0872-0.31252-0.30042-0.68968-0.45085-1.1314-0.45085h-1.4002l-0.31831-0.81706c-0.079166-0.19628-0.2249-0.36553-0.4354-0.50781-0.21041-0.14222-0.42566-0.21322-0.64651-0.21322zm1.5998 3.0778c0.77086 0 1.4295 0.26258 1.9775 0.78939 0.54795 0.5268 0.82298 1.1614 0.82298 1.9027 0 0.74116-0.27511 1.3742-0.82298 1.901-0.54786 0.52688-1.2066 0.79102-1.9775 0.79102-0.77087 0-1.4295-0.26414-1.9775-0.79102-0.54795-0.52681-0.82298-1.1599-0.82298-1.901 0-0.74123 0.27511-1.3758 0.82298-1.9027 0.54786-0.52688 1.2066-0.78939 1.9775-0.78939zm0 0.96029c-0.49586 0-0.91947 0.16924-1.2716 0.50781-0.3521 0.33856-0.52776 0.74716-0.52776 1.224 0 0.47679 0.17566 0.88377 0.52776 1.2223 0.3521 0.3385 0.77572 0.50781 1.2716 0.50781 0.49578 0 0.91947-0.16932 1.2716-0.50781 0.3521-0.33856 0.52776-0.74554 0.52776-1.2223 0-0.4768-0.17567-0.8854-0.52776-1.224-0.3521-0.33858-0.7758-0.50781-1.2716-0.50781z" fill="#bebebe"/>
</svg>
