<svg version="1.1" viewBox="0 0 16 16" xmlns="http://www.w3.org/2000/svg">
 <g fill="#bebebe">
  <path d="m8.0006 2c-0.27217 0-0.52324 0.066675-0.75307 0.20082-0.22985 0.13412-0.41253 0.31682-0.54667 0.54667-0.13417 0.22985-0.20082 0.48092-0.20082 0.75307 0 0.27217 0.066699 0.52319 0.20082 0.75307 0.13414 0.22981 0.31682 0.41141 0.54667 0.54556 0.22985 0.13414 0.4809 0.20082 0.75307 0.20082s0.52324-0.066675 0.75307-0.20082c0.22983-0.13412 0.41141-0.31573 0.54556-0.54556 0.13412-0.22985 0.20082-0.48092 0.20082-0.75307 0-0.27217-0.06672-0.52324-0.20082-0.75307-0.13414-0.22983-0.31573-0.41253-0.54556-0.54667-0.22988-0.13414-0.48087-0.20082-0.75307-0.20082z"/>
  <path d="m3.4994 2c-0.27217 1.8e-6 -0.52212 0.067767-0.75195 0.20186-0.22985 0.13407-0.41253 0.31558-0.54667 0.54535-0.13417 0.22977-0.20082 0.48074-0.20082 0.75279 0 0.27207 0.066699 0.523 0.20082 0.75279 0.13414 0.22972 0.3157 0.41126 0.54556 0.54535 0.22985 0.13409 0.4809 0.20186 0.75307 0.20186 0.27217 0 0.52324-0.067766 0.75307-0.20186 0.22983-0.13407 0.41253-0.31561 0.54667-0.54535 0.13412-0.22977 0.20082-0.48074 0.20082-0.75279 0-0.27207-0.066723-0.52304-0.20082-0.75279-0.13414-0.22974-0.31684-0.41126-0.54667-0.54535-0.22988-0.13409-0.48087-0.20186-0.75307-0.20186z"/>
  <path d="m12.500558 2c-.27217 0-.523239.06668-.753068.200818-.229854.134119-.412529.316819-.546672.546672-.134167.229854-.200818.480922-.200818.753068 0 .27217.0667.52319.200818.753068.134143.229805.316818.411413.546672.545556s.480898.200818.753068.200818.523238-.06668.753068-.200818c.229829-.13412.411413-.315727.545556-.545556.134119-.229854.200818-.480921.200818-.753068 0-.272171-.06672-.523239-.200818-.753068-.134143-.229827-.315727-.412526-.545556-.54667-.229878-.134143-.480874-.200818-.753068-.200818z"/>
  <path d="m3.4994421 11c-.2721702 0-.5232385.06668-.753068.200818-.2298535.134119-.4114128.315702-.5455559.545556-.1341671.229852-.2008182.480922-.2008182.753067 0 .27217.066699.52319.2008182.753068.1341431.229805.3157024.412528.5455559.546671.2298535.134144.4808978.20082.753068.20082.2721704 0 .5232386-.06668.7530681-.200818.2298296-.134119.4125285-.316842.5466716-.546671.1341193-.229853.2008182-.480922.2008182-.753067 0-.272171-.066723-.523239-.2008182-.753068-.1341431-.22983-.316842-.411413-.5466716-.545556-.2298774-.134143-.4808738-.200818-.7530681-.200818z"/>
  <path d="m8.0005579 11c-.2721705 0-.5232383.066675-.7530683.200818-.2298531.134119-.4125282.316818-.5466715.546672-.134167.229853-.2008181.480921-.2008181.753068 0 .27217.066699.52319.2008181.753068.1341433.229805.3168184.411413.5466715.545556.229854.134143.4808978.200818.7530683.200818s.5232383-.066675.7530683-.200818c.2298293-.134119.4114125-.315727.5455553-.545556.1341195-.229854.2008185-.480922.2008185-.753068 0-.272171-.06672-.523239-.2008185-.753068-.1341428-.22983-.315726-.412529-.5455553-.546672-.2298773-.134143-.4808738-.200818-.7530683-.200818z"/>
  <path d="m12.500558 11c-.27217 0-.523239.06668-.753068.200818-.229854.134119-.412529.316819-.546672.546672-.134167.229854-.200818.480922-.200818.753068 0 .27217.0667.52319.200818.753068.134143.229805.316818.411413.546672.545556s.480898.200818.753068.200818.523238-.06668.753068-.200818c.229829-.13412.411413-.315727.545556-.545556.134119-.229854.200818-.480921.200818-.753068 0-.272171-.06672-.523239-.200818-.753068-.134143-.229827-.315727-.412526-.545556-.54667-.229878-.134143-.480874-.200818-.753068-.200818z"/>
  <path d="m3.4994421 6.5c-.2721702 0-.5232385.06668-.753068.200818-.2298535.134119-.4114128.315702-.5455559.545556-.1341671.229852-.2008182.480922-.2008182.753067 0 .27217.066699.52319.2008182.753068.1341431.229805.3157024.412528.5455559.546671.2298535.134144.4808978.20082.753068.20082.2721704 0 .5232386-.06668.7530681-.200818.2298296-.134119.4125285-.316842.5466716-.546671.1341193-.229853.2008182-.480922.2008182-.753067 0-.272171-.066723-.523239-.2008182-.753068-.1341431-.22983-.316842-.411413-.5466716-.545556-.2298774-.134143-.4808738-.200818-.7530681-.200818z"/>
  <path d="m8.0005579 6.5c-.2721705 0-.5232383.06668-.7530683.200818-.2298531.134119-.4125282.316818-.5466715.546672-.134167.229853-.2008181.480921-.2008181.753068 0 .27217.066699.52319.2008181.753068.1341433.229805.3168184.411413.5466715.545556.229854.134143.4808978.200818.7530683.200818s.5232383-.066675.7530683-.200818c.2298293-.134119.4114125-.315727.5455553-.545556.1341195-.229854.2008185-.480922.2008185-.753068 0-.272171-.06672-.523239-.2008185-.753068-.1341428-.22983-.315726-.412529-.5455553-.546672-.2298773-.134143-.4808738-.200818-.7530683-.200818z"/>
  <path d="m12.500558 6.5c-.27217 0-.523239.06668-.753068.200818-.229854.134119-.412529.316819-.546672.546672-.134167.229854-.200818.480922-.200818.753068 0 .27217.0667.52319.200818.753068.134143.229805.316818.411413.546672.545556s.480898.200818.753068.200818.523238-.06668.753068-.200818c.229829-.13412.411413-.315727.545556-.545556.134119-.229854.200818-.480921.200818-.753068 0-.272171-.06672-.523239-.200818-.753068-.134143-.229827-.315727-.412526-.545556-.54667-.229878-.134143-.480874-.200818-.753068-.200818z"/>
 </g>
</svg>
