<svg version="1.1" viewBox="0 0 16 16" xmlns="http://www.w3.org/2000/svg">
 <path d="m7.9995 11.136c-1.0941 0-2.2071-0.29657-2.2972-0.2198-0.3325 0.28327 0.68693 1.6191 2.2972 1.628 1.61-0.0082 2.6301-1.3445 2.2969-1.628-0.09007-0.07653-1.2026 0.22003-2.2969 0.2198m-1.2087-3.195a0.81667 1.05 0 0 1-0.81667 1.05 0.81667 1.05 0 0 1-0.81667-1.05 0.81667 1.05 0 0 1 0.81667-1.05 0.81667 1.05 0 0 1 0.81667 1.05m4.0516 0a0.81667 1.05 0 0 1-0.81667 1.05 0.81667 1.05 0 0 1-0.81667-1.05 0.81667 1.05 0 0 1 0.81667-1.05 0.81667 1.05 0 0 1 0.81667 1.05m-3.3434 2.1133c0.12903 0 0.23333-0.21443 0.23333-0.47997 0-0.26437-0.1043-0.48043-0.23333-0.48043-0.12927 0-0.23333 0.21607-0.23333 0.48043 0 0.26553 0.10407 0.47997 0.23333 0.47997m1.0015 0c0.12903 0 0.23333-0.21443 0.23333-0.47997 0-0.26437-0.1043-0.48043-0.23333-0.48043-0.12927 0-0.23333 0.21607-0.23333 0.48043 0 0.26553 0.10407 0.47997 0.23333 0.47997m4.8865-3.7217c-0.22797-1.5734-1.165-2.6614-2.7326-3.283 0.26717-0.14117 0.43983-0.21187 0.43983-0.21187-0.75507-0.266-1.4105-0.42093-1.978-0.4914 0.29843-0.2247 0.4977-0.3101 0.4977-0.3101-4.6088-0.65007-6.8815 1.9133-7.0243 4.2999-0.903 0.15843-1.5897 0.94313-1.5897 1.8902 0 0.9373 0.6727 1.7159 1.5624 1.8853 0.10173 2.1968 2.4967 3.9552 5.4374 3.9552 2.9412 0 5.3361-1.7584 5.4378-3.9552 0.88947-0.16963 1.5624-0.9485 1.5624-1.8853 0-0.9548-0.69883-1.7449-1.613-1.8937m-10.777 3.0996c-0.539-0.14-0.9387-0.62417-0.9387-1.2059 0-0.56373 0.37637-1.0355 0.8904-1.1914 0.011433 0.50447 0.1442 0.98677 0.3766 1.4313-0.15983 0.3059-0.26857 0.62977-0.3283 0.966m8.3176 0.41697c0.30987 0.3864 0.4914 0.83767 0.4914 1.3218 0 1.4191-1.5311 2.569-3.4195 2.569-1.8884 0-3.4193-1.1499-3.4193-2.569 0-0.48417 0.1813-0.93543 0.49163-1.3218-1.0633-0.64353-1.7439-1.6287-1.7439-2.7344 0-3.9513 4.6716-1.4341 4.6716-1.4341s4.6718-2.517 4.6718 1.4341c0 1.1055-0.68063 2.0909-1.7437 2.7344m2.4619-0.41697c-0.05973-0.336-0.16847-0.6601-0.32807-0.96623 0.2324-0.4445 0.36493-0.9268 0.37637-1.4313 0.51403 0.1561 0.89017 0.62767 0.89017 1.1914 0 0.58193-0.39947 1.0661-0.93847 1.2061" fill="#bebebe" stroke-width=".23333"/>
</svg>
