<svg version="1.1" viewBox="0 0 16 16" xmlns="http://www.w3.org/2000/svg">
 <path d="m8 1c-3.866 0-7 3.134-7 7s3.134 7 7 7 7-3.134 7-7-3.134-7-7-7zm4.0938 3.375c0.01-0.023 0.4323 0.0833 0.5 0.625 0.067 0.542-0.40625 1-0.40625 1s-3.1765 0.017-3.1875 0c-0.192-0.2918-0.2751-0.7658 0.0625-1.0625 0.019 0 3.0268-0.5406 3.0312-0.5625zm-8.4062 0.0312c0.0424-0.015 0.06-6e-3 0.0625 0 5e-3 0.0219 2.981 0.5625 3 0.5625 0.3376 0.2967 0.2858 0.7707 0.0937 1.0625-0.0109 0.017-3.1875 0-3.1875 0s-0.47325-0.458-0.40625-1c0.0506-0.40627 0.31042-0.58006 0.4375-0.625zm5.6875 3.8971c0.5281 0.091 0.85134 0.57183 1.2773 0.85157 0.4234 0.32227 0.90238 0.5632 1.3301 0.87695-0.2021 0.20917-0.64509 0.33301-0.90039 0.56445-0.4147 0.33204-0.69441 0.79757-1.0664 1.1738-0.4026 0.44495-0.9266 0.83412-1.5332 0.92188-0.3271 0.0289-0.65612 0.0255-0.98242-0.0137-0.182 0.0454-0.49171-0.1335-0.69531-0.23242-0.9209-0.48261-1.332-1.541-2.2246-2.0605-0.162-0.1364-0.45796-0.20554-0.56446-0.34766 0.72011-0.41719 1.4058-0.89669 2.0254-1.4531 0.2525-0.19094 0.59664-0.33773 0.90234-0.17578 0.4851 0.23862 1.0504 0.41984 1.584 0.22852 0.2971-0.073 0.54976-0.27266 0.84766-0.33399z" fill="#bebebe"/>
</svg>
