<svg version="1.1" viewBox="0 0 16 16" xmlns="http://www.w3.org/2000/svg">
 <path transform="translate(-725 159)" d="m733-158c-3.866 0-7 3.134-7 7s3.134 7 7 7 7-3.134 7-7-3.134-7-7-7zm-3 4.0039c0.55407 0 1 0.44945 1 1 0 0.55064-0.44593 1-1 1-0.55424 0-1-0.44936-1-1 0-0.55055 0.44576-1 1-1zm6 0c0.55415 0 1 0.44945 1 1 0 0.55064-0.44585 1-1 1-0.55407 0-1-0.44936-1-1 0-0.55055 0.44593-1 1-1zm-3 5a5 5 0 0 1 3.5332 1.4668l-0.70703 0.70703a4 4 0 0 0-2.8262-1.1738 4 4 0 0 0-2.8262 1.1738l-0.70703-0.70703a5 5 0 0 1 3.5332-1.4668z" fill="#bebebe"/>
</svg>
